<?xml version="1.0" encoding="UTF-8" standalone="no"?>
<!-- Created with Inkscape (http://www.inkscape.org/) -->

<svg
   xmlns:dc="http://purl.org/dc/elements/1.1/"
   xmlns:cc="http://creativecommons.org/ns#"
   xmlns:rdf="http://www.w3.org/1999/02/22-rdf-syntax-ns#"
   xmlns:svg="http://www.w3.org/2000/svg"
   xmlns="http://www.w3.org/2000/svg"
   xmlns:sodipodi="http://sodipodi.sourceforge.net/DTD/sodipodi-0.dtd"
   xmlns:inkscape="http://www.inkscape.org/namespaces/inkscape"
   version="1.0"
   width="34.181232"
   height="30.902977"
   id="svg2447"
   sodipodi:version="0.32"
   inkscape:version="0.48.4 r9939"
   sodipodi:docname="barrel.svg"
   inkscape:output_extension="org.inkscape.output.svg.inkscape">
  <metadata
     id="metadata2513">
    <rdf:RDF>
      <cc:Work
         rdf:about="">
        <dc:format>image/svg+xml</dc:format>
        <dc:type
           rdf:resource="http://purl.org/dc/dcmitype/StillImage" />
        <cc:license
           rdf:resource="http://web.resource.org/cc/PublicDomain" />
      </cc:Work>
      <cc:License
         rdf:about="http://web.resource.org/cc/PublicDomain">
        <cc:permits
           rdf:resource="http://web.resource.org/cc/Reproduction" />
        <cc:permits
           rdf:resource="http://web.resource.org/cc/Distribution" />
        <cc:permits
           rdf:resource="http://web.resource.org/cc/DerivativeWorks" />
      </cc:License>
    </rdf:RDF>
  </metadata>
  <sodipodi:namedview
     inkscape:window-height="1041"
     inkscape:window-width="1088"
     inkscape:pageshadow="2"
     inkscape:pageopacity="0.0"
     guidetolerance="10.0"
     gridtolerance="10.0"
     objecttolerance="10.0"
     borderopacity="1.0"
     bordercolor="#666666"
     pagecolor="#ffffff"
     id="base"
     inkscape:zoom="13.83863"
     inkscape:cx="24.21734"
     inkscape:cy="17.562575"
     inkscape:window-x="2108"
     inkscape:window-y="18"
     inkscape:current-layer="svg2447"
     showgrid="false"
     fit-margin-top="0"
     fit-margin-left="0"
     fit-margin-right="0"
     fit-margin-bottom="0"
     inkscape:window-maximized="0" />
  <defs
     id="defs2449">
    <filter
       id="filter3587"
       height="1.2199417"
       y="-0.10997086"
       width="1.0283011"
       x="-0.014150559"
       color-interpolation-filters="sRGB">
      <feGaussianBlur
         id="feGaussianBlur3589"
         stdDeviation="2.0410432"
         inkscape:collect="always" />
    </filter>
  </defs>
  <g
     id="g3516">
    <path
       inkscape:connector-curvature="0"
       id="path3471"
       d="m 23.700457,24.212016 c 0.512117,0.404024 -0.004,0.605327 -0.215069,0.508768 0.944228,1.378628 2.755528,0.371774 4.041251,0.970584 0.625388,-0.64504 1.383709,-1.421653 0.02575,-0.773584 -0.872738,0.119116 -1.515195,-0.262185 -0.335777,-0.418607 -0.16493,0.18535 -2.75029,-0.131819 -0.75937,-0.261971 0.740379,-0.09891 1.807402,-1.453093 0.435011,-0.590902 -0.647628,0.363066 -1.904183,0.513033 -0.525141,0.05989 2.194432,-0.657807 -2.391577,-0.09317 -0.212429,-0.476837 0.853935,-0.01193 3.202936,-1.162665 1.178561,-0.482751 -0.771033,0.228997 -1.38255,-0.03006 -0.216109,-0.143452 2.103088,-0.438137 -2.974129,0.295183 -0.395512,-0.276525 0.565016,-0.144865 1.91273,-0.460532 0.487051,-0.273397 -1.329151,0.290426 -3.764374,0.0564 -4.342531,-0.313241 0.93389,0.61676 -0.384684,-0.206426 0.08199,0.50429 -0.684937,0.756178 1.161228,0.400481 1.434292,1.176874 0.878889,0.11683 1.130464,0.316642 0.04331,0.228978 -1.13873,-0.07358 2.184581,1.384239 0.257792,0.838183 -0.327685,-0.0921 -0.655398,-0.18419 -0.983066,-0.2763 z"
       style="color:#000000;fill:#1a1a1a;fill-opacity:1;fill-rule:evenodd;stroke:#000000;stroke-width:0.00787865;stroke-linecap:butt;stroke-linejoin:miter;stroke-miterlimit:4;stroke-opacity:1;stroke-dasharray:none;stroke-dashoffset:0;marker:none;visibility:visible;display:inline;overflow:visible;enable-background:accumulate" />
    <path
       inkscape:connector-curvature="0"
       id="path3443"
       d="m 19.821697,28.42994 c 0.585277,-1.41371 2.418278,-2.175773 3.849536,-2.012367 1.958394,0.189014 3.862348,-0.41181 5.628795,-0.940314 1.340577,0.928081 3.039032,0.88607 4.60099,0.913252 -0.752122,0.215749 -3.391006,0.07993 -1.275754,0.356608 1.70775,0.100907 -2.836915,-0.0036 -0.494368,0.326486 0.66573,-0.04508 2.955468,0.547834 1.223007,0.337 -0.206739,0.289267 -1.46172,-0.257734 -1.173492,0.166614 -0.808659,-0.439805 0.853576,1.068407 -0.382405,0.211557 -0.220786,-0.415004 -0.439594,0.43053 -0.894094,0.06599 -0.247504,1.145757 -0.590473,-0.883511 -1.028078,0.05771 -1.422582,1.171977 -0.381666,-0.891567 0.567159,-0.781176 -1.254728,-0.631235 -1.728003,0.98736 -2.651273,1.348628 -0.609478,-0.07595 0.268519,-1.180011 -0.383757,-0.298314 -0.627774,0.890568 -0.285053,0.240644 -0.37563,-0.211714 -0.819201,0.873011 -1.826151,0.723467 -2.104397,-0.06621 -0.732131,0.352903 -1.24694,1.032931 -0.601235,-0.04518 0.604403,-1.065218 -1.213035,0.0367 -0.658441,-0.976074 -0.585713,0.58068 -0.100972,1.761235 -1.324046,2.088951 0.936438,-1.087632 -0.211354,-0.331761 -0.626564,0.0342 0.938892,-1.013531 0.186705,-0.470799 -0.474325,-0.04123 0.375567,-0.432431 2.047189,-1.727585 0.586689,-0.834615 -0.692224,0.53252 0.926899,-1.099817 -0.126519,-0.208824 -0.970957,0.761031 1.367656,-1.639099 -0.14341,-0.501888 -0.946298,0.130544 0.344937,0.333377 -0.665251,0.391772 -0.612651,0.173202 0.232277,1.426718 -0.608369,0.461442 -0.211962,0.968742 -0.15699,-0.382025 -0.791417,0.515597 -0.211232,0.116557 0.309042,-0.319739 0.326649,-0.357892 z"
       style="color:#000000;fill:#1a1a1a;fill-opacity:1;fill-rule:evenodd;stroke:#000000;stroke-width:0.00787865;stroke-linecap:butt;stroke-linejoin:miter;stroke-miterlimit:4;stroke-opacity:1;stroke-dasharray:none;stroke-dashoffset:0;marker:none;visibility:visible;display:inline;overflow:visible;enable-background:accumulate" />
    <path
       inkscape:connector-curvature="0"
       id="path3408"
       d="m 20.175689,17.065227 c 0.3383,-0.311132 1.3591,-1.328999 0.250407,-1.027797 0.956796,-0.129624 -0.558016,-0.506285 0.572889,-0.629512 0.883464,0.0998 -0.560934,-1.662123 -1.395222,-1.119964 -0.589531,-0.151912 -2.020718,1.012746 -1.064884,-0.156165 1.537075,-1.267772 2.845179,0.309127 3.807342,1.359626 1.065898,0.358092 1.243456,1.362568 1.135925,2.21024 0.612671,0.309689 1.528042,0.795694 0.270419,0.914324 -0.620488,0.334951 -1.123577,0.314355 -0.876689,-0.413666 -1.124427,-0.182236 -1.352873,-2.058161 0.04443,-1.433954 -0.236974,-1.574469 -1.530526,-0.160856 -2.433989,0.141417 -0.103542,0.05182 -0.207083,0.103637 -0.310626,0.155451 z"
       style="color:#000000;fill:#1a1a1a;fill-opacity:1;fill-rule:evenodd;stroke:#000000;stroke-width:0.00787865;stroke-linecap:butt;stroke-linejoin:miter;stroke-miterlimit:4;stroke-opacity:1;stroke-dasharray:none;stroke-dashoffset:0;marker:none;visibility:visible;display:inline;overflow:visible;enable-background:accumulate" />
    <path
       inkscape:connector-curvature="0"
       id="path3384"
       d="m 16.429156,10.68655 c 1.128715,-1.1150877 1.088204,0.997042 1.76207,0.8538 -1.210421,-2.2588366 2.177451,-1.296365 3.033039,-0.428733 0.613703,0.189039 0.647672,2.708877 1.3055,1.135302 1.191324,-1.052181 2.430981,-0.460314 3.501507,0.333741 0.592594,-0.313112 1.154862,-0.473083 1.597081,-0.203094 0.337464,-0.368484 1.515647,0.326953 0.647828,-0.196014 1.132985,0.40754 -1.437937,-1.00003 -1.973232,-0.297606 -1.04193,-0.07776 2.009365,-0.314978 0.540769,-0.712735 -0.771506,-0.415611 1.088256,-0.03773 -0.06517,-0.392817 -0.565148,-0.268809 -1.252181,-0.531364 -0.267277,-0.255231 -0.580538,-1.5682709 2.00473,0.965277 1.874902,-0.59574 C 27.312919,8.6885463 25.658064,9.9152307 24.607517,8.871009 22.844581,8.6592219 24.96191,6.6035218 23.153419,6.5549452 21.50095,6.6805956 19.765958,6.3579965 18.168728,6.939525 18.99579,7.2378457 19.822853,7.5361664 20.649915,7.8344871 19.670731,7.6521643 18.691546,7.4698416 17.712362,7.2875188 17.124691,9.1525522 20.60175,8.9113294 20.656989,9.5412152 19.685178,9.5016109 17.645802,8.9012445 17.354286,9.2608608 c 1.110039,0.3178773 0.812435,0.7336293 -0.04593,0.9894882 -0.293066,0.1454 -0.586131,0.290801 -0.879197,0.436201 z"
       style="color:#000000;fill:#1a1a1a;fill-opacity:1;fill-rule:evenodd;stroke:#000000;stroke-width:0.00787865;stroke-linecap:butt;stroke-linejoin:miter;stroke-miterlimit:4;stroke-opacity:1;stroke-dasharray:none;stroke-dashoffset:0;marker:none;visibility:visible;display:inline;overflow:visible;enable-background:accumulate" />
    <path
       inkscape:connector-curvature="0"
       id="path3266"
       d="m 3.7654761,10.122853 c -1.6093726,-0.02265 1.7056747,0.663502 -0.1610723,0.66754 -1.6034841,0.17297 2.4824055,0.05024 0.3795389,0.492514 -0.3504482,0.128544 1.4369426,0.249981 0.2892902,1.003363 -0.044524,0.01628 1.9004711,-0.212534 1.0254226,0.301313 -0.5602308,-0.460158 -2.7031733,0.620932 -1.0323446,0.30217 0.9327835,0.102255 -0.4434203,0.303661 -0.6735807,0.492325 -0.9771798,0.01247 -0.8561768,0.0457 -0.1062887,0.321437 -0.5251776,0.05221 1.9179118,0.277917 0.4216877,0.400541 0.628872,0.175884 1.9449307,0.03146 1.2543438,0.828624 -1.6332956,-0.06929 -2.708467,1.021204 -3.9127682,1.909038 -0.58879835,0.301943 -1.83810234,1.308546 -0.48037021,0.667998 0.69556871,0.312761 0.86228541,0.07158 1.05571411,-0.653826 0.3504918,0.564633 1.159647,-0.720047 0.5824416,0.585381 0.447387,-0.870463 0.8229065,0.03402 0.8598241,-0.778972 1.2782516,-0.301881 -0.8473866,1.841621 0.4524482,0.813612 0.8587539,0.164193 0.1936424,-0.548661 0.9632669,-0.521117 0.1138499,-0.689235 1.0516269,-1.222493 1.040349,-1.465967 0.7205154,-0.152652 2.0776172,-0.487191 0.754458,-0.522308 0.5151309,-0.462906 3.1475469,-0.701305 1.4771012,0.110287 -1.077458,0.140464 0.2718298,0.406321 -0.6857753,0.477411 -0.5739924,-0.232964 -1.3262251,0.263152 -0.3731167,0.347848 -1.1597532,-0.04054 -1.5051106,0.561111 -1.5202178,1.158859 0.5247847,-0.279563 1.8444994,-1.03814 0.6533382,-0.150632 -0.8363023,0.91 1.4144108,-0.515976 1.7312797,-0.803822 0.5739451,-0.396409 1.6218227,-0.401484 0.4470764,0.04539 -0.5940245,0.157386 -1.7277233,1.300919 -0.4909658,0.50511 0.8225715,-0.700579 0.6058014,-0.08482 0.1244434,0.391916 0.7062908,-0.281087 1.7094275,0.463155 1.2024881,-0.621378 0.7424371,-0.238752 1.1864881,-1.454749 1.3957011,-0.77399 1.142252,-0.921873 -1.7749168,2.764699 0.04016,1.024692 0.172707,-0.628829 1.722787,-1.579828 0.67927,-0.448693 -0.835645,0.688008 1.019467,-0.469551 0.304989,0.683166 0.753651,-0.264614 1.03806,-0.964951 1.976893,-0.692046 -0.343208,-0.280949 -2.452684,-0.763005 -1.106647,-0.93531 0.624559,0.198917 0.939205,-0.810923 1.111541,0.454215 0.01405,1.522778 0.964942,2.755852 2.456795,3.243922 0.971113,-0.429521 0.942897,-0.228707 0.991701,0.515928 0.628831,0.630384 1.612486,-1.708882 2.419181,-0.502687 0.0076,-0.71128 1.033183,0.101182 0.804932,-1.018444 0.151284,-1.095919 -1.537382,-0.08186 -1.650596,-1.303364 -0.511174,-0.131789 -1.614859,0.160699 -1.8016,-0.845061 0.720515,-0.04192 -0.891127,-1.682753 -1.106234,-2.347751 -0.755607,-0.835503 0.575395,-1.452008 -0.957506,-1.319057 -1.020707,0.07832 -2.169453,-1.121125 -2.738378,-0.761364 0.2933,0.08285 -0.414789,0.911267 -0.26642,1.197314 -1.010387,0.268024 -1.571938,0.799551 -2.4071346,-0.196431 -1.0962046,-0.117441 3.1131036,0.242176 1.6575266,-1.198768 -0.917841,-0.683651 -0.52,0.624096 -1.373878,-0.05808 C 8.6455038,10.841476 8.6807132,10.463602 7.7233862,11.109761 6.5003842,10.066164 4.9336173,11.20295 3.7654761,10.122853 z m 2.5308946,2.929857 c 0.7354295,-0.01704 2.1193591,-0.01805 0.5942489,0.09298 -0.4986646,0.101092 1.8632851,0.0414 2.3181324,-0.154564 C 8.8548497,13.320323 8.0615049,13.502544 8.0172329,13.32351 7.9109046,13.195006 4.9755898,13.490874 5.6414221,13.412871 6.3659863,13.186154 4.9273399,13.282469 5.9704738,13.126 c 0.1086309,-0.02443 0.2172725,-0.04885 0.3258969,-0.07329 z m 7.7696093,0.860096 c -0.100261,0.688087 1.598714,2.393521 0.529119,1.928165 0.222773,0.342745 0.681058,0.625408 0.10109,0.349187 0.328122,0.509526 0.681025,1.867048 0.09278,0.586644 -0.526604,-0.895688 -0.559664,-1.876728 -0.722985,-2.863996 z m 2.651111,2.86498 c 0.695194,0.442532 2.678035,0.997535 2.646453,1.004878 -0.665361,0.141346 -2.448533,-0.79254 -1.020137,0.0075 0.485792,0.386476 1.796745,0.63368 0.499852,0.464785 -0.733496,-0.454163 -2.318425,-0.809812 -1.558086,-0.81709 1.015411,0.366579 -1.235777,-0.618812 -0.05849,-0.238488 -0.905269,-0.459896 -0.178224,-0.04101 0.05695,-0.03539 -0.184891,-0.134463 -0.376456,-0.259294 -0.566549,-0.386154 z"
       style="color:#000000;fill:#1a1a1a;fill-opacity:1;fill-rule:evenodd;stroke:#000000;stroke-width:0.00787865;stroke-linecap:butt;stroke-linejoin:miter;stroke-miterlimit:4;stroke-opacity:1;stroke-dasharray:none;stroke-dashoffset:0;marker:none;visibility:visible;display:inline;overflow:visible;enable-background:accumulate" />
    <path
       inkscape:connector-curvature="0"
       id="path3277"
       d="m 10.217,23.346688 c -0.9900805,0.134062 -2.3476381,0.819629 -2.1273567,1.615038 -1.2583781,0.587678 1.151456,-0.449785 0.2505199,0.281818 0.6228311,-0.03349 1.1167643,-1.07917 0.7211668,-0.0026 0.982905,0.642135 1.729576,-0.31736 1.741098,-0.828089 1.813507,-0.144758 0.431893,-1.387374 -0.585428,-1.066153 z m 0.846964,0.408 c -0.11996,0.792649 -2.4690081,0.319843 -1.084832,0.755775 -0.7898911,-0.07516 -1.7978885,0.170888 -0.5035866,-0.325472 0.6555186,0.01496 1.0167876,-0.135981 1.5884186,-0.430303 z"
       style="color:#000000;fill:#1a1a1a;fill-opacity:1;fill-rule:evenodd;stroke:#000000;stroke-width:0.00787865;stroke-linecap:butt;stroke-linejoin:miter;stroke-miterlimit:4;stroke-opacity:1;stroke-dasharray:none;stroke-dashoffset:0;marker:none;visibility:visible;display:inline;overflow:visible;enable-background:accumulate" />
    <path
       inkscape:connector-curvature="0"
       id="path3264"
       d="m 3.4125395,19.484003 c 0.6114315,-0.795467 3.1667257,0.07267 2.8661204,-0.795593 -0.3157717,-0.0419 1.9632052,-1.080599 0.2553918,-0.541936 -0.6680144,0.190423 2.1756193,-0.9205 0.350556,-0.686136 -2.0581945,0.171775 0.9072946,-0.980585 1.3035386,0.03331 0.7157153,-0.160592 2.8334037,-0.446339 2.5940137,-0.02773 -0.8685414,0.09364 -0.741442,1.11974 -1.8306035,0.754091 -0.3305519,1.405052 -1.8005446,1.48971 -3.0474202,1.492576 C 5.4299195,19.947903 4.93429,20.88319 5.2170159,19.944792 4.7764494,20.113701 4.5190257,20.048693 4.0450125,20.35867 4.6461147,19.541056 2.4851046,20.364437 4.0356548,19.629071 5.2681681,19.229187 3.8771677,19.384644 3.4125395,19.484003 z"
       style="color:#000000;fill:#1a1a1a;fill-opacity:1;fill-rule:evenodd;stroke:#000000;stroke-width:0.00787865;stroke-linecap:butt;stroke-linejoin:miter;stroke-miterlimit:4;stroke-opacity:1;stroke-dasharray:none;stroke-dashoffset:0;marker:none;visibility:visible;display:inline;overflow:visible;enable-background:accumulate" />
    <path
       inkscape:connector-curvature="0"
       id="path3375"
       d="m 11.630887,3.2853544 c -0.435858,-0.8409957 -0.560835,-1.4149993 0.284401,-1.6250327 0.945344,0.028565 1.825979,-0.1016614 2.775667,-0.4831465 0.148828,0.2065396 -0.415756,1.2495261 0.222982,0.3504877 0.802195,-0.2832912 -0.804359,-1.1650725 0.440549,-0.62367346 0.658668,0.0617532 0.656383,-1.63141812 0.658867,-0.17300874 0.868188,0.17813749 -0.575374,1.2206642 0.640045,0.605517 0.769052,-0.11621 2.437053,-1.05052262 1.450082,-0.00277 0.807465,-0.060457 1.350569,0.9910511 0.340237,0.1470839 -1.123085,0.1848951 -0.596897,0.8974956 0.345537,0.586229 1.097215,0.7200533 2.427644,-0.048754 3.505053,-0.038815 C 21.03646,2.7724736 23.286082,3.5234923 21.977706,3.6861715 21.074779,3.5044545 20.602468,3.4004654 21.753603,3.890813 22.405401,3.9743748 19.378728,3.6266269 20.992351,4.2454612 21.75715,4.2069774 22.749464,4.40903 21.376211,4.6217488 20.350114,4.544997 20.179096,4.5023357 21.317414,4.792725 22.626668,5.9171199 19.078996,5.3394913 18.759865,6.4566274 18.010347,7.503755 17.431682,6.2818509 17.513274,5.5232857 16.904695,6.4971645 15.431515,5.7656562 16.113726,5.7823479 15.294949,5.6146875 14.498283,5.7753593 15.724024,6.1622809 15.969068,7.22313 13.719095,5.9403792 13.528795,6.0476889 13.889421,7.5717793 15.595522,6.5328428 16.288987,7.3239055 14.912305,7.533318 16.048789,9.1451016 14.454501,9.1054709 14.012873,9.6072741 13.246989,9.9818377 13.987648,9.1353959 13.503136,8.691339 12.761825,9.5418312 13.536539,8.7806179 13.604877,7.4052637 12.483283,10.250508 12.802192,8.5332381 12.527593,9.0346522 10.80765,10.815433 11.952966,9.3972852 11.904476,8.9061355 11.258166,9.6262701 11.396258,8.68198 11.142369,10.190235 10.883553,7.6948004 10.848003,8.9909872 9.8571833,8.4526049 9.9183268,10.352121 9.8982046,9.1545 9.8072122,8.5289263 8.2331573,9.6820774 8.733066,8.6439886 7.6063374,8.786144 8.6719344,10.489311 7.4613209,9.5301049 7.6429272,10.653406 6.551361,9.5087516 7.5215949,9.1465108 7.1339091,9.1478311 5.6208122,9.1931619 6.414437,9.9325129 5.3585342,9.8131322 5.5890835,9.3548064 5.9922155,8.7382113 5.3876128,8.8056757 4.3163009,10.013659 5.2641614,9.0242296 4.8741055,9.5473712 3.5936097,10.002458 4.1577144,9.4666271 3.6580707,9.8011794 4.1569718,9.3037258 3.9719922,9.1782431 4.1826911,8.1912074 6.6691531,9.3993365 5.7405904,7.8975232 4.524289,7.747505 8.2326516,6.3085102 6.5451751,5.5564034 5.1897437,5.6195873 6.5564706,5.5473408 6.5820993,4.934099 6.3015403,4.696057 6.5794885,3.914273 5.7807311,3.7700533 6.601982,3.1479754 6.4376442,5.3670517 7.6546879,4.547022 8.3888872,4.3553277 10.740295,3.4373378 8.9110822,2.934139 9.9369931,2.7635518 10.3665,5.0440978 11.491347,3.5588678 l 0.139572,-0.2735384 -3.2e-5,2.5e-5 z"
       style="color:#000000;fill:#1a1a1a;fill-opacity:1;fill-rule:evenodd;stroke:#000000;stroke-width:0.00787865;stroke-linecap:butt;stroke-linejoin:miter;stroke-miterlimit:4;stroke-opacity:1;stroke-dasharray:none;stroke-dashoffset:0;marker:none;visibility:visible;display:inline;overflow:visible;enable-background:accumulate" />
    <path
       inkscape:connector-curvature="0"
       id="path3395"
       d="m 10.140923,23.13897 c 1.06297,0.194704 0.948191,-2.371643 1.686151,-0.833019 0.735752,-0.147387 0.792461,-0.08277 1.018678,0.228995 1.374307,-0.06949 -0.917273,0.313578 0.420986,0.41736 -0.805801,-0.01683 0.275527,0.28431 0.229596,0.516329 C 12.777188,22.78025 12.863001,24.660354 12.1282,23.342421 11.695191,22.639757 10.772679,23.29255 10.140923,23.13897 z"
       style="color:#000000;fill:#1a1a1a;fill-opacity:1;fill-rule:evenodd;stroke:#000000;stroke-width:0.00787865;stroke-linecap:butt;stroke-linejoin:miter;stroke-miterlimit:4;stroke-opacity:1;stroke-dasharray:none;stroke-dashoffset:0;marker:none;visibility:visible;display:inline;overflow:visible;enable-background:accumulate" />
    <path
       inkscape:connector-curvature="0"
       id="path3423"
       d="m 10.973636,25.228246 c 0.86179,0.363121 2.858463,1.493891 2.870759,1.734181 -0.705526,0.336714 -1.11741,-0.874304 -0.742109,0.231416 -0.572885,1.414191 -1.019556,-1.940798 -0.743826,-0.125313 -0.190479,1.382568 -0.264942,-1.793356 -1.01033,-0.327854 -0.355828,0.299431 0.610566,-1.215135 -0.476402,-0.886912 -0.399216,-0.107624 0.05135,-0.41818 0.101908,-0.625518 z"
       style="color:#000000;fill:#1a1a1a;fill-opacity:1;fill-rule:evenodd;stroke:#000000;stroke-width:0.00787865;stroke-linecap:butt;stroke-linejoin:miter;stroke-miterlimit:4;stroke-opacity:1;stroke-dasharray:none;stroke-dashoffset:0;marker:none;visibility:visible;display:inline;overflow:visible;enable-background:accumulate" />
    <path
       inkscape:connector-curvature="0"
       id="path3425"
       d="m 16.390429,23.879155 c -0.37258,-1.203694 2.306441,-0.743699 0.894221,-1.668954 1.022476,-0.676673 1.764691,1.168476 2.658893,1.269892 -0.940602,-0.56156 -2.405168,1.412175 -0.751076,0.731622 0.09396,0.751937 0.525947,1.083376 1.440468,0.748408 -0.427114,0.146402 -1.487993,0.312553 -0.4388,0.396647 -0.993006,-0.05278 -0.218247,0.83165 -0.59876,0.467532 -0.936486,-0.289797 0.953641,1.287017 -0.42336,0.414015 0.855884,1.494861 -2.152112,-1.390652 -0.946292,8.94e-4 0.869702,1.462165 -1.333515,-0.933099 0.03036,-1.330966 -0.794195,0.187181 -1.119004,-0.144947 -1.249919,-0.380282 -0.867649,0.717313 0.615841,-0.970253 -0.615733,-0.648808 z"
       style="color:#000000;fill:#1a1a1a;fill-opacity:1;fill-rule:evenodd;stroke:#000000;stroke-width:0.00787865;stroke-linecap:butt;stroke-linejoin:miter;stroke-miterlimit:4;stroke-opacity:1;stroke-dasharray:none;stroke-dashoffset:0;marker:none;visibility:visible;display:inline;overflow:visible;enable-background:accumulate" />
    <path
       inkscape:connector-curvature="0"
       id="path3493"
       d="m 21.316007,14.299501 c 1.130438,0.229724 3.156214,0.406596 3.105739,1.523701 0.796001,-0.346468 2.464516,1.27768 2.228357,0.813167 -0.616663,-0.452572 -1.362653,-1.536703 -0.01182,-0.805072 0.709258,0.3336 2.266369,0.986455 0.645059,0.166343 -2.25455,-0.634356 1.876791,-1.43026 2.197622,-0.07529 -0.72557,-1.164877 1.928861,1.206144 1.012932,-0.100246 -1.214591,-1.705035 -3.319326,-0.983625 -5.005489,-1.475984 -1.346938,-1.047898 -2.59572,-0.281142 -3.93485,-0.0395 -0.07918,-0.0024 -0.158378,-0.0048 -0.237552,-0.0071 z"
       style="color:#000000;fill:#1a1a1a;fill-opacity:1;fill-rule:evenodd;stroke:#000000;stroke-width:0.00787865;stroke-linecap:butt;stroke-linejoin:miter;stroke-miterlimit:4;stroke-opacity:1;stroke-dasharray:none;stroke-dashoffset:0;marker:none;visibility:visible;display:inline;overflow:visible;enable-background:accumulate" />
    <path
       inkscape:connector-curvature="0"
       id="path3521"
       d="m 16.822754,29.255484 c 0.663996,0.0051 3.253068,0.0097 1.141177,0.130383 1.48024,-0.252183 2.972958,0.119893 4.433551,0.03319 0.105287,0.07989 -2.086278,0.620316 -0.572441,0.465836 -1.183472,0.148217 -2.384579,0.329655 -3.576233,0.159631 1.072561,0.699688 -1.686854,-0.299941 -2.214742,0.03927 -0.974862,0.336053 -1.29725,-0.183157 -2.274841,0.08031 -0.624611,0.06859 -1.791598,0.237067 -0.41309,-0.125391 1.332901,-0.372677 0.268456,-0.212364 -0.430465,-0.119385 1.303133,-0.37289 2.646541,-0.820713 4.022263,-0.626055 -0.03633,-0.01178 -0.0776,-0.02551 -0.115179,-0.03779 z"
       style="color:#000000;fill:#000000;fill-opacity:1;fill-rule:evenodd;stroke:#000000;stroke-width:0.00787865;stroke-linecap:butt;stroke-linejoin:miter;stroke-miterlimit:4;stroke-opacity:1;stroke-dasharray:none;stroke-dashoffset:0;marker:none;visibility:visible;display:inline;overflow:visible;enable-background:accumulate" />
    <path
       inkscape:connector-curvature="0"
       id="path3519"
       d="m 9.2038525,29.333719 c 1.9839695,-0.319478 3.9952115,-0.06306 5.9914205,-0.132687 -1.140145,0.182036 -2.565,0.595954 -2.968101,0.254845 -0.712146,-0.102649 -2.8292216,0.41092 -1.862888,-0.04268 -0.183863,-0.139957 -1.7327962,0.173146 -1.1604315,-0.07948 z"
       style="color:#000000;fill:#000000;fill-opacity:1;fill-rule:evenodd;stroke:#000000;stroke-width:0.00787865;stroke-linecap:butt;stroke-linejoin:miter;stroke-miterlimit:4;stroke-opacity:1;stroke-dasharray:none;stroke-dashoffset:0;marker:none;visibility:visible;display:inline;overflow:visible;enable-background:accumulate" />
    <path
       inkscape:connector-curvature="0"
       id="path3527"
       d="m 22.063393,30.073794 c 1.04566,0.04473 3.129739,0.295522 1.792654,-0.148434 2.011648,-0.324095 4.060338,-0.12403 6.083395,-0.02067 0.15629,0.218787 -2.636611,0.359129 -0.785448,0.346954 0.811718,-0.08398 2.494136,-0.18673 0.794363,0.130681 -0.633092,0.106647 -2.223625,-0.02434 -1.657607,0.364898 -2.211384,0.433327 -4.455172,-0.255623 -6.676686,0.03877 -0.815699,0.01615 -1.666896,-0.254588 -0.367322,-0.264096 1.04522,-0.100217 2.971584,-0.08133 1.064824,-0.392279 -0.08272,-0.01861 -0.16545,-0.03722 -0.248173,-0.05583 z"
       style="color:#000000;fill:#000000;fill-opacity:1;fill-rule:evenodd;stroke:#000000;stroke-width:0.00787865;stroke-linecap:butt;stroke-linejoin:miter;stroke-miterlimit:4;stroke-opacity:1;stroke-dasharray:none;stroke-dashoffset:0;marker:none;visibility:visible;display:inline;overflow:visible;enable-background:accumulate" />
    <path
       inkscape:connector-curvature="0"
       id="path2238"
       d="m 16.855584,5.6041247 c -0.07908,1.0138059 -0.861303,1.9779506 -1.814625,1.7574976 -0.02254,0.6854692 0.661697,2.7398807 -0.20588,1.216819 -0.425825,-0.8379299 -2.811143,-2.2458667 -1.297656,-0.5850817 1.77545,1.0293694 1.937611,2.9397874 1.8126,4.7687784 0.06346,1.910399 0.177422,3.818641 0.252286,5.728569 -1.354613,-1.478168 -1.82457,-3.487673 -2.225592,-5.392624 0.790927,0.290261 2.32863,0.338085 0.84544,-0.384904 C 12.841341,12.042218 11.30141,8.3894751 13.708301,8.4917611 14.312674,7.3762135 11.161494,9.2558891 12.280771,7.7260347 12.76314,7.0080962 12.70225,6.5132341 12.024404,7.3784233 11.44968,7.2061722 10.539693,5.5934677 10.049472,6.35795 10.588922,6.4973366 12.031985,8.0318532 10.919231,7.0421904 10.354571,6.1537741 7.6653587,7.0564463 9.9056351,6.9808482 11.523102,7.5085113 9.4137151,7.2721788 8.8511932,6.996345 7.8628942,6.8688047 5.3807455,6.7826496 5.3416457,6.9806094 6.9732357,7.3762056 8.878786,6.7299587 10.301105,7.801225 11.079558,7.7883574 12.871019,9.7547821 11.385481,8.6711611 10.379696,8.1739786 9.2022371,7.1967469 8.0528996,7.4998072 10.51243,7.8560057 12.806303,9.8415911 12.935169,12.423534 11.607343,11.415361 9.8868288,11.668002 8.4409293,11.206719 7.3763315,10.999435 5.9221696,11.07104 5.0611237,10.986888 c 1.2518533,0.434213 2.6129742,0.224289 3.8315446,0.797035 0.6481798,0.142465 3.0874847,0.03783 1.3635457,0.729909 -1.8084472,0.151591 -4.7471931,-0.07952 -5.8500193,0.239543 2.3498343,-0.206907 4.8087615,0.386811 7.0707813,-0.449891 1.092231,-0.09144 0.174781,1.678059 0.958089,0.639146 0.812099,0.678658 0.71708,1.696315 -0.451746,1.103719 -1.667945,0.195289 -3.3748648,-0.308553 -4.9823652,0.291875 -0.6925803,0.170109 -3.129962,1.53818 -1.2581838,0.914949 1.2670786,-0.316223 3.0057542,-1.102777 4.1005863,-0.631271 -1.5603327,1.210788 1.1704817,-0.840691 1.9627917,-0.04621 1.509401,0.333587 1.83926,1.890365 2.241166,3.138892 0.89017,1.075935 1.239547,2.503172 1.320404,3.885697 -1.629395,-0.732865 -1.796234,-2.80098 -3.089769,-3.86051 -1.208132,-0.373182 -2.5758671,-0.09591 -3.8381002,-0.03419 -1.291546,0.693724 1.8240562,-0.305603 2.2479002,0.286344 1.689871,-0.861813 2.143948,1.343417 2.645581,2.333447 -0.788746,-0.04674 -1.108102,-0.198166 -0.182897,0.267143 0.565041,0.568861 2.087822,2.231171 1.804591,2.230148 -1.332128,-1.184977 -2.975328,-2.137901 -4.505203,-2.956782 0.10402,1.467698 2.852209,1.813301 3.837457,3.039071 1.341955,1.010025 -0.29224,0.103502 -1.012402,0.663707 -0.619939,-0.310556 -2.662232,-0.433527 -0.872945,0.0648 0.824331,0.572941 2.471537,-0.45606 2.703971,0.832346 -1.456012,-1.208264 -3.841487,-0.421787 -4.689686,1.092956 0.511386,-0.892749 2.279975,-1.835853 3.512466,-0.97493 1.357887,0.593434 1.388228,2.166025 1.051051,3.391459 -0.18835,1.110438 -0.110586,2.07851 1.22231,1.667083 0.554869,0.119843 2.268104,0.160075 0.865192,-0.399667 0.763462,-1.475677 0.812831,-3.611354 2.552804,-4.336377 0.497055,-0.188105 3.050656,0.164177 1.534261,-0.402465 -0.80295,0.117264 -1.81988,-0.03399 -0.566372,-0.680991 0.672266,-0.925071 0.617443,-3.499875 2.339161,-2.224785 0.902117,0.298112 1.312115,-0.130948 0.164677,-0.21576 -1.303434,-0.284631 0.02048,-0.942753 0.552614,-0.267432 -0.73538,-1.032996 -1.86482,-0.124752 -2.572027,-0.535698 -0.543898,1.51785 -0.692365,3.313096 -2.395893,4.112567 -1.029552,0.193736 0.739042,-1.709387 0.65058,-2.322668 0.599566,-1.768341 0.863865,-3.445471 2.087118,-4.596226 0.309199,-0.541246 2.898846,-0.361081 1.653754,-1.011898 -1.52469,0.05184 -3.157687,0.85335 -3.534497,2.457298 -0.308762,1.742624 -1.060868,3.306734 -1.808549,4.889236 -0.270328,0.847588 -1.198572,2.020791 -1.100763,0.346271 0.08894,-2.131262 1.432355,-3.946451 1.843071,-6.016335 0.302247,-1.704006 1.463743,-3.545552 3.356032,-3.605526 -0.190228,0.119346 -1.749161,-0.237668 -0.801759,-0.913193 -0.496936,0.270851 -1.893099,1.47766 -1.187929,0.108194 1.159395,-0.85449 -0.600293,-1.944944 -0.673044,-0.459141 -0.531695,2.446757 -1.519824,4.775524 -2.439956,7.077267 0.0017,0.71701 -0.772567,2.589487 -0.246611,0.953491 0.391515,-2.48549 -0.258926,-4.995728 0.105586,-7.489808 0.158979,-1.929976 0.436053,-3.851775 0.480195,-5.7900343 C 17.8646,7.8786283 18.290138,6.7491086 18.956535,6.3346358 18.908128,5.3556227 17.249585,7.6570885 17.965106,6.2646995 18.4239,5.427041 17.353798,5.4338884 16.855584,5.6041247 z m 1.216144,19.5070993 c -1.548641,0.137709 -0.422094,3.289097 -1.790622,3.330601 1.453732,-0.663217 0.0713,-3.362381 1.790622,-3.330601 z"
       style="color:#000000;fill:#552200;fill-opacity:1;fill-rule:evenodd;stroke:#000000;stroke-width:0.00787865;stroke-linecap:butt;stroke-linejoin:miter;stroke-miterlimit:4;stroke-opacity:1;stroke-dasharray:none;stroke-dashoffset:0;marker:none;visibility:visible;display:inline;overflow:visible;enable-background:accumulate" />
    <path
       inkscape:connector-curvature="0"
       id="path3248"
       d="m 19.436116,4.5463114 c 0.593642,-0.6880037 2.15541,1.0969233 0.650363,0.1627894 l -0.318096,-0.089856 -0.332267,-0.072934 z"
       style="color:#000000;fill:#008000;fill-opacity:1;fill-rule:evenodd;stroke:#000000;stroke-width:0.00787865;stroke-linecap:butt;stroke-linejoin:miter;stroke-miterlimit:4;stroke-opacity:1;stroke-dasharray:none;stroke-dashoffset:0;marker:none;visibility:visible;display:inline;overflow:visible;enable-background:accumulate" />
    <path
       inkscape:connector-curvature="0"
       id="path3254"
       d="m 20.679601,6.7958887 c 1.435302,-0.792354 -0.509631,1.8964031 0.634217,0.4843113 0.414942,-0.5991497 0.731729,-0.7949215 0.779684,-0.098139 0.587347,-1.3333496 1.954577,1.3993059 0.979564,-0.3846508 0.466172,0.1000813 2.637496,1.1801152 3.612123,0.9699492 0.624517,0.1186805 1.405269,1.0679503 1.098745,0.2882703 0.820581,0.052168 2.151686,-0.4916549 2.343915,-1.0023057 -1.388246,0.4741633 -3.079003,0.9038315 -4.4615,0.1592945 1.489634,-0.431393 -2.823495,-0.03987 -1.485109,-1.194405 2.22242,-0.8741669 -2.066361,0.3721186 -0.645956,-0.5376599 -1.21623,-0.049992 -2.09129,-0.2888012 -3.367305,0.3224735 -0.870215,-0.1112946 -2.166857,0.8997475 -0.564185,0.9920837 0.616499,0.4741912 -0.575259,-0.505484 0.523737,-0.3673028 0.227442,-0.023646 0.559176,0.092052 0.55207,0.3680805 z"
       style="color:#000000;fill:#008000;fill-opacity:1;fill-rule:evenodd;stroke:#000000;stroke-width:0.00787865;stroke-linecap:butt;stroke-linejoin:miter;stroke-miterlimit:4;stroke-opacity:1;stroke-dasharray:none;stroke-dashoffset:0;marker:none;visibility:visible;display:inline;overflow:visible;enable-background:accumulate" />
    <path
       inkscape:connector-curvature="0"
       id="path3219"
       d="M 4.8242394,24.837566 C 4.5751283,23.64841 8.1571663,23.885334 6.0582912,23.752689 4.9312076,23.962298 6.2807817,22.837678 5.3160785,23.291115 c 0.8603272,-1.083831 2.3190317,0.903368 2.8135437,-0.379243 1.4243601,0.481317 3.0951088,-0.535684 4.5100798,0.424153 -0.894457,0.833512 -2.155761,-0.07981 -3.1668973,0.770114 C 8.0072158,23.376489 6.820795,24.767395 6.5129957,25.840685 6.2817564,25.106764 5.3844428,25.158529 4.8242394,24.837566 z"
       style="color:#000000;fill:#008000;fill-opacity:1;fill-rule:evenodd;stroke:#000000;stroke-width:0.00787865;stroke-linecap:butt;stroke-linejoin:miter;stroke-miterlimit:4;stroke-opacity:1;stroke-dasharray:none;stroke-dashoffset:0;marker:none;visibility:visible;display:inline;overflow:visible;enable-background:accumulate" />
    <path
       inkscape:connector-curvature="0"
       id="path3217"
       d="m 7.7265863,26.838167 c 0.5041216,-1.607143 2.4494737,-1.847895 3.7945567,-1.548564 -0.534149,0.372475 -0.501069,0.746774 -0.24284,0.889201 -0.663339,0.156368 -1.7640274,0.794797 -0.593363,0.828769 -0.454788,1.129499 -1.1260666,-0.648779 -1.8906787,0.03667 0.2879806,-0.82224 -0.6590004,0.01262 -1.067675,-0.206076 z"
       style="color:#000000;fill:#008000;fill-opacity:1;fill-rule:evenodd;stroke:#000000;stroke-width:0.00787865;stroke-linecap:butt;stroke-linejoin:miter;stroke-miterlimit:4;stroke-opacity:1;stroke-dasharray:none;stroke-dashoffset:0;marker:none;visibility:visible;display:inline;overflow:visible;enable-background:accumulate" />
    <path
       inkscape:connector-curvature="0"
       id="path3221"
       d="m 12.197341,21.896794 c -0.46137,0.866957 -1.356194,-0.562777 -1.82996,0.695843 0.842608,-1.380169 -0.214956,-0.174673 -0.9098638,-0.02158 0.078973,-0.585962 2.2513338,-1.930613 0.7800498,-1.517875 -0.5532914,0.58009 -0.9062235,0.966682 -0.2775402,0.08133 -0.9088891,0.09696 -2.6357247,1.093927 -3.0433725,0.313031 -0.9880737,-0.08155 1.7421121,-0.52133 2.3159057,-0.839359 0.811562,-0.284101 1.199264,-1.380676 2.258602,-0.651511 0.860245,-0.07077 2.391377,0.278144 1.877876,1.389218 -0.526922,-1.391434 -2.121295,-0.568228 -1.171697,0.550899 z"
       style="color:#000000;fill:#008000;fill-opacity:1;fill-rule:evenodd;stroke:#000000;stroke-width:0.00787865;stroke-linecap:butt;stroke-linejoin:miter;stroke-miterlimit:4;stroke-opacity:1;stroke-dasharray:none;stroke-dashoffset:0;marker:none;visibility:visible;display:inline;overflow:visible;enable-background:accumulate" />
    <path
       inkscape:connector-curvature="0"
       id="path3223"
       d="m 18.540244,27.841512 c 0.370511,-0.885391 2.531046,-1.606102 2.287164,-1.969922 -2.184609,0.09589 0.924442,-0.544853 1.620995,-0.273849 0.621359,0.08474 3.038647,0.781382 1.320782,0.06658 -0.803206,-0.45325 -2.759891,-0.04224 -2.87579,-0.385588 0.600276,-1.872413 2.450539,-0.331439 3.62257,0.01343 0.71099,0.486262 3.669497,-0.02593 1.56467,0.676509 0.850824,0.128629 2.871208,-1.439933 0.977812,-1.20195 -0.539466,-0.364331 1.020712,-0.894359 -0.189246,-0.282809 -1.529604,0.349918 1.98598,-2.077544 0.0835,-1.131502 -2.061913,0.261069 2.102065,-0.581239 0.347134,-1.13514 -0.729108,-1.175194 -2.72763,0.15088 -0.903498,0.689667 -0.242592,0.430894 -1.858937,0.264428 -1.535567,-0.07872 -0.582764,0.262888 -2.409615,0.935347 -1.311301,-0.236085 0.853753,-0.939949 2.31228,-0.841985 3.283462,-1.541899 -0.910108,-0.192768 -3.061301,1.365071 -2.943645,0.735242 0.48883,-0.948993 -2.001698,0.252745 -0.460149,-0.74535 0.56908,-0.454019 -0.05581,-0.232896 0.480571,-0.700703 -0.473515,-1.031955 2.137774,0.195051 2.903955,0.01806 0.862666,-0.175788 0.466824,-0.02436 0.200444,0.490393 1.00927,-0.543248 2.285266,-1.309292 3.393217,-0.523142 -0.505873,-0.148706 -0.938489,0.460946 -0.56159,0.526472 -0.736087,-0.259939 -1.196476,-0.523664 -0.312606,0.16073 -1.594436,0.396682 0.315795,1.235024 1.05817,0.73634 -1.137874,0.41586 -1.147308,-1.126058 -0.132501,-0.512998 0.776194,0.234743 1.984896,0.29739 1.232924,0.70169 0.676515,0.258459 1.462914,0.827057 0.202112,0.396815 0.06539,0.0018 1.599099,1.381662 0.223654,0.552306 -0.448932,-0.145668 1.439176,1.316046 0.01426,0.383377 -1.297812,-0.984358 1.342544,1.65005 -0.131936,0.229427 -0.48135,-0.502225 -2.426059,-0.949101 -0.885525,-0.284037 0.544286,0.369471 1.613861,0.808239 0.566692,0.803151 0.08093,0.694577 -2.109647,-1.430254 -2.103926,-0.718465 0.759797,0.410886 1.598792,0.921004 0.302805,0.314225 -1.513499,-0.021 1.489572,1.166477 -0.316383,0.551369 -0.59886,-0.03776 2.127265,1.685254 0.353506,1.22399 -0.537328,-0.759566 -0.640676,-0.817108 -1.095484,-0.167716 -0.182106,0.715094 2.89736,0.940474 0.874073,1.53643 0.816989,0.885329 -1.686091,0.882112 -1.177034,0.863029 0.857038,0.410791 1.678819,-0.01527 2.4744,0.717843 2.046769,0.07779 -1.468756,0.576329 -2.105839,0.620304 -1.122668,0.234326 -2.174471,0.210033 -1.601411,-0.821554 -0.208817,0.75321 -2.147392,1.187319 -1.481052,0.07171 1.798891,0.49986 -1.065847,-0.959544 -0.569312,0.578464 -0.970493,0.199333 -0.525668,-0.686317 -0.689839,-0.680707 -1.308835,0.459792 -0.484989,-0.258823 0.143234,-0.577679 -0.834064,-0.125082 -0.636179,0.279515 -0.451862,-0.51674 -0.997119,-0.511896 -2.146312,1.260899 -2.71299,0.12148 -0.884703,-0.285079 1.468682,-1.041218 -0.05712,-0.597935 -0.908834,0.38826 -2.406535,1.268488 -2.92651,1.305459 z"
       style="color:#000000;fill:#008000;fill-opacity:1;fill-rule:evenodd;stroke:#000000;stroke-width:0.00787865;stroke-linecap:butt;stroke-linejoin:miter;stroke-miterlimit:4;stroke-opacity:1;stroke-dasharray:none;stroke-dashoffset:0;marker:none;visibility:visible;display:inline;overflow:visible;enable-background:accumulate" />
    <path
       inkscape:connector-curvature="0"
       id="path3225"
       d="m 17.220584,13.602833 c 0.712534,1.977313 2.882438,-0.408904 3.956838,0.998988 0.524921,1.636838 2.453283,0.904214 3.583302,1.571431 0.487059,-0.84354 -3.036922,-1.239295 -1.048678,-1.529111 1.74793,0.257472 -0.238209,-1.089247 -0.9444,-0.306198 -0.799483,0.03596 -1.37198,-0.111975 -0.228908,-0.215501 1.35149,-0.505774 2.421361,0.406647 3.655424,0.266043 -0.792063,1.373453 1.855623,0.02515 2.511555,0.494802 0.985701,0.553463 2.367278,1.420506 1.908224,0.623206 2.023912,0.823082 -2.133436,-0.852933 -0.354862,-1.533894 -0.840219,0.657322 -2.66088,0.155399 -1.754655,-0.840788 -0.7159,-0.940414 -1.935686,-1.062219 -2.923461,-0.99107 0.485942,-0.303092 1.434002,-0.640698 0.185725,-0.580157 -1.129566,0.552319 -2.356404,-0.521593 -3.172465,0.79865 -0.987861,0.383088 -1.212887,-0.133425 -0.579763,-0.821484 -0.342815,-0.243499 -1.710344,-0.124347 -0.660142,-0.647612 0.712724,-0.255473 3.311959,0.500738 1.417363,-0.369 -1.255748,0.26064 -2.333574,-0.386327 -3.06796,-0.7568616 -1.010345,0.4654326 -1.891698,1.1536126 -2.998415,1.5507266 -0.899875,1.212812 -2.110353,1.669949 -3.596896,1.479754 -0.659527,0.285596 -2.397588,0.884347 -2.359004,1.053805 0.74607,-0.196656 2.276468,-0.389728 0.748286,0.297104 -1.244746,0.728371 1.84762,-0.318365 0.178725,0.554605 -0.883133,0.922049 2.019966,-0.912836 1.422105,0.651181 0.351958,-0.336224 2.04749,-1.454207 1.900765,-0.909812 -1.315868,1.237939 1.477926,-0.08845 0.594575,0.142293 -0.651188,1.148434 0.82658,0.717193 1.086266,0.05776 1.430882,0.129571 0.102625,-0.242225 0.540456,-1.038863 z"
       style="color:#000000;fill:#008000;fill-opacity:1;fill-rule:evenodd;stroke:#000000;stroke-width:0.00787865;stroke-linecap:butt;stroke-linejoin:miter;stroke-miterlimit:4;stroke-opacity:1;stroke-dasharray:none;stroke-dashoffset:0;marker:none;visibility:visible;display:inline;overflow:visible;enable-background:accumulate" />
    <path
       inkscape:connector-curvature="0"
       id="path3227"
       d="M 1.8798941,20.670519 C 3.3299185,20.365231 5.0346736,21.703564 6.2440225,20.074158 4.3054697,20.578161 6.9200308,19.022667 7.64,19.624593 c 1.0141896,0.339814 1.2875422,-1.159724 0.1022158,-0.570721 0.7124514,-1.014539 3.2986082,-1.360379 3.5683582,-0.361629 0.269238,1.143999 1.80298,-0.794826 2.386404,-1.230017 1.098787,-0.497805 2.498186,1.291823 0.547697,1.015478 -0.819459,-0.303381 -1.88185,0.603892 -0.494322,0.477593 1.208169,-0.293142 2.432499,-0.348074 3.65003,-0.505237 0.682156,-0.520946 2.631038,0.274168 1.53908,0.686321 -1.757785,-0.423021 1.595755,0.623854 -0.304246,0.399412 -0.909152,-0.169477 1.121756,1.255322 -0.121168,0.571312 -1.145539,-1.792498 -2.754089,-0.03536 -4.342365,-0.359324 -0.730997,0.01367 -2.284376,-0.8643 -1.591212,0.146939 -0.757642,0.212978 -0.908774,-0.89345 -1.788191,-0.669364 -0.901901,-0.485886 0.23925,0.689073 -0.8505467,0.658471 -0.555376,0.710915 -2.9353287,1.213277 -2.6918362,0.674281 0.4327572,-1.049644 -1.5978093,0.42006 -2.044992,0.672321 -1.2352075,0.863505 1.517856,-1.371779 -0.1365116,-0.196741 -1.1108856,0.230385 -1.793633,1.144212 -0.5266852,1.720511 -0.4569259,0.217292 -1.1551045,-1.025293 -0.8835334,0.107359 1.0044331,0.467891 -1.321832,0.945298 -1.4501796,0.615896 0.2686016,-0.63174 -1.56499713,0.572089 -0.5045421,-0.432838 1.7854229,-1.07758 -2.20418896,0.67556 -0.3738367,-0.494812 0.8201397,-0.312018 2.235912,-0.731168 0.5651253,-0.558031 -0.7261725,0.25215 -1.40832475,0.621452 -0.443768,-0.208168 0.1444623,-0.532573 2.8977343,0.199614 1.2870817,-0.609609 -0.4504837,-0.290898 -2.07467339,0.200872 -0.8581626,-0.503485 l 2e-7,8e-6 z"
       style="color:#000000;fill:#008000;fill-opacity:1;fill-rule:evenodd;stroke:#000000;stroke-width:0.00787865;stroke-linecap:butt;stroke-linejoin:miter;stroke-miterlimit:4;stroke-opacity:1;stroke-dasharray:none;stroke-dashoffset:0;marker:none;visibility:visible;display:inline;overflow:visible;enable-background:accumulate" />
    <path
       inkscape:connector-curvature="0"
       id="path3229"
       d="m 0.7052009,17.746694 c 0.4211279,-0.527342 0.8333951,-1.760993 -0.2592774,-1.068079 1.0545966,0.104015 1.8135047,-2.458238 2.218782,-1.143056 0.4339648,-1.173005 2.0383382,0.03819 2.8813164,-0.951967 0.7112886,-0.491252 2.8821479,-0.138684 1.0086734,0.198271 -0.9451696,0.288908 -1.9844052,1.282359 -2.6060177,1.18658 -0.2783446,0.909863 -1.17493,-0.877952 -1.4297645,0.320663 -0.6479765,0.68527 -1.2629211,0.545474 -1.78408086,1.424417 l -0.0296313,0.03317 0,2e-6 z"
       style="color:#000000;fill:#008000;fill-opacity:1;fill-rule:evenodd;stroke:#000000;stroke-width:0.00787865;stroke-linecap:butt;stroke-linejoin:miter;stroke-miterlimit:4;stroke-opacity:1;stroke-dasharray:none;stroke-dashoffset:0;marker:none;visibility:visible;display:inline;overflow:visible;enable-background:accumulate" />
    <path
       inkscape:connector-curvature="0"
       id="path3231"
       d="M 3.8818508,11.515925 C 5.0583839,11.25365 6.1976409,10.442621 7.4495993,11.316656 8.2052984,11.679519 9.969413,11.823719 8.16068,12.063638 7.0974868,12.247099 6.6106632,11.786833 5.787673,12.234711 4.6957704,12.240407 6.187394,11.465988 5.1236954,11.884809 4.509966,12.156851 4.4088625,12.192532 4.5279854,11.708667 3.8815959,11.646968 2.8868026,12.359303 3.8818508,11.515925 z"
       style="color:#000000;fill:#008000;fill-opacity:1;fill-rule:evenodd;stroke:#000000;stroke-width:0.00787865;stroke-linecap:butt;stroke-linejoin:miter;stroke-miterlimit:4;stroke-opacity:1;stroke-dasharray:none;stroke-dashoffset:0;marker:none;visibility:visible;display:inline;overflow:visible;enable-background:accumulate" />
    <path
       inkscape:connector-curvature="0"
       id="path3242"
       d="M 7.4424345,7.8126559 C 6.4493151,7.4602233 4.9724203,9.6201613 5.5787521,8.1205687 5.1823826,8.2369767 3.5764841,8.9002578 3.9221017,8.1336982 4.5587175,7.9288911 6.8531293,7.7170804 6.3011672,7.0570693 5.1963263,7.0024847 3.878806,6.8742783 2.9385885,6.9712213 2.938172,6.0236284 5.471773,6.7803236 3.7171977,6.1356406 3.7484287,5.7482509 5.184463,6.1287557 3.9999448,5.5866506 3.566969,5.1619812 5.4011675,6.0031266 5.7257785,6.3713517 6.3023265,5.8388514 8.3776781,4.9974854 6.4415424,4.9433194 5.5946601,5.5406064 5.4690914,4.5798571 5.2371937,4.2484872 6.3928535,4.0130889 7.5278732,4.1661419 8.5869828,4.7414259 7.3620295,4.08944 7.6982573,3.9502627 8.5107143,3.7877795 7.6516458,3.432507 7.5691475,2.9943553 8.5941357,3.2861519 9.3550909,3.0982575 7.6881813,2.2501968 8.9073647,2.892159 9.4216869,3.9619068 11.653985,3.0834168 11.12779,2.7161511 c 0.615383,-0.5681442 2.7918,-0.030092 3.778415,0.5709803 -0.774023,-0.8747601 -2.667918,-0.8143772 -3.128078,-1.19313 0.367457,0.035199 1.259893,-0.2280089 0.49908,-0.5218049 0.630335,0.2569613 2.293157,-1.40229835 2.214004,-0.2881739 -0.925727,0.6230156 0.888296,2.2558219 0.690985,0.7180915 -0.638822,-0.5366014 0.764535,-0.041599 0.07382,-0.6501428 -0.108242,-1.47974078 1.664581,-0.4584257 1.042193,0.3046488 0.450404,-0.68388881 2.096743,-1.11929362 1.811366,0.1375981 -1.680255,0.3642661 1.008771,-0.190145 0.518278,0.7833284 0.257001,-0.6619979 1.256543,-0.507533 0.867551,-1.1705362 0.598555,-0.42348504 2.467875,-0.2127353 0.789595,-0.034685 -0.57599,0.8020887 1.82171,-0.70071074 0.611823,0.300796 -0.744817,1.0963602 0.406855,0.6984006 0.827909,0.1409301 -0.230219,0.7273423 1.30886,-1.04596828 0.665018,0.018601 -1.103986,0.6653122 0.998099,1.1634502 0.05103,1.3982329 C 22.160527,3.7676951 20.06503,2.7679077 19.52481,4.0781377 20.269592,2.7923518 18.226223,3.2829935 17.878066,2.7234322 17.238934,2.7165203 17.363638,1.9692827 17.158226,2.9191948 16.409551,4.0393559 16.060012,1.612705 15.343719,3.054466 16.557926,4.1520431 12.800205,3.6058608 14.461877,4.1490486 13.652245,4.23008 11.630784,3.9166403 11.672791,4.9148565 c 1.254908,0.3711088 2.362623,-0.3465899 3.527808,0.1160218 1.074087,-1.1728382 3.541065,-1.2292597 3.819412,0.4018875 1.626057,1.0937047 3.953141,-1.0017215 5.165016,1.0331296 0.03691,0.1438379 -1.847228,-0.3543594 -2.587142,-0.062255 -1.173833,0.064924 -3.453589,0.43034 -2.89486,-0.6957031 C 17.764371,5.9724252 15.478763,4.8927945 15.384936,6.2054862 16.192331,6.0735096 17.548494,6.6744405 16.27091,7.3140757 15.304107,6.9486326 14.087034,7.8333336 13.411807,6.6320614 15.002065,7.9676492 10.890728,7.0239212 12.738714,7.0044051 13.87959,7.0456403 11.928609,5.5253564 11.430495,6.5072482 10.305847,5.7533991 9.8528173,7.363991 9.0323181,7.3394703 9.8738091,6.9971921 9.9856122,6.1019005 9.0680504,6.9913387 8.701279,7.56235 7.9120923,7.3942953 7.4424345,7.8126559 z"
       style="color:#000000;fill:#008000;fill-opacity:1;fill-rule:evenodd;stroke:#000000;stroke-width:0.00787865;stroke-linecap:butt;stroke-linejoin:miter;stroke-miterlimit:4;stroke-opacity:1;stroke-dasharray:none;stroke-dashoffset:0;marker:none;visibility:visible;display:inline;overflow:visible;enable-background:accumulate" />
    <path
       inkscape:connector-curvature="0"
       id="path3244"
       d="m 14.569371,11.538424 c 0.983613,-0.623096 2.633354,-1.012907 3.568386,-0.0673 -0.949853,-0.0035 -3.101319,0.647236 -3.400347,0.261194 0.786158,-0.386901 0.244834,-0.331824 -0.168039,-0.19389 z"
       style="color:#000000;fill:#008000;fill-opacity:1;fill-rule:evenodd;stroke:#000000;stroke-width:0.00787865;stroke-linecap:butt;stroke-linejoin:miter;stroke-miterlimit:4;stroke-opacity:1;stroke-dasharray:none;stroke-dashoffset:0;marker:none;visibility:visible;display:inline;overflow:visible;enable-background:accumulate" />
    <path
       inkscape:connector-curvature="0"
       id="path3246"
       d="M 10.26401,8.5424381 C 10.544772,7.637893 12.967996,8.4816399 11.099196,8.4328883 10.942394,8.3453283 9.4064805,9.1861063 10.26401,8.5424381 z"
       style="color:#000000;fill:#008000;fill-opacity:1;fill-rule:evenodd;stroke:#000000;stroke-width:0.00787865;stroke-linecap:butt;stroke-linejoin:miter;stroke-miterlimit:4;stroke-opacity:1;stroke-dasharray:none;stroke-dashoffset:0;marker:none;visibility:visible;display:inline;overflow:visible;enable-background:accumulate" />
    <path
       inkscape:connector-curvature="0"
       id="path3250"
       d="m 17.226248,7.6693011 c 0.57137,0.4576333 2.7657,-1.493037 1.926824,-0.067422 0.122277,0.5145926 2.291361,-0.7670982 2.987319,0.2645219 0.622461,0.2099085 1.322625,0.4883871 0.23837,0.4030224 -0.476408,-0.061613 -0.776565,-0.3876119 -0.425027,0.08697 -1.166086,-0.059025 1.652101,0.5075289 0.149508,0.7891736 -0.540052,-0.2370948 0.599523,0.91666 -0.550025,0.3540421 -1.061363,0.1733894 0.855557,-1.1994666 -0.317299,-0.546767 -1.080574,-0.692557 -1.6182,0.8485092 -2.852973,0.1118792 -0.675123,0.4226797 -1.947506,0.5797758 -0.367944,0.7534015 0.937574,0.2824192 -2.37583,-0.2479953 -0.933119,0.7745932 -0.148077,0.638868 -1.344894,1.214706 -0.967127,0.158203 -1.73195,0.172287 0.931769,-0.251678 0.03346,-0.9487417 C 15.381155,9.702986 14.324843,11.714627 15.043235,9.980115 14.70244,9.7292056 13.467219,10.312697 14.378949,9.4126172 15.011057,8.665052 16.929664,9.2613209 17.091235,8.7041844 16.609774,8.7593066 16.011586,8.5517029 16.756911,8.3263279 16.03048,8.2259789 14.235963,7.9933807 16.029782,7.9318881 c 0.408775,-0.00696 0.844395,-0.028476 1.196466,-0.262587 z"
       style="color:#000000;fill:#008000;fill-opacity:1;fill-rule:evenodd;stroke:#000000;stroke-width:0.00787865;stroke-linecap:butt;stroke-linejoin:miter;stroke-miterlimit:4;stroke-opacity:1;stroke-dasharray:none;stroke-dashoffset:0;marker:none;visibility:visible;display:inline;overflow:visible;enable-background:accumulate" />
    <path
       inkscape:connector-curvature="0"
       id="path3252"
       d="m 22.013016,7.7000031 c 1.180695,-0.1032444 0.850264,0.119954 1.158485,0.8787287 1.567337,0.1002145 -1.544888,0.7950334 0.137402,0.9943893 0.778037,0.3431524 1.136001,0.4781809 1.905422,0.5741129 -0.817777,0.460782 0.389037,0.285799 0.583863,0.598786 -0.196576,-1.1540137 2.178842,-0.0566 0.648172,-0.8631815 -0.140967,-0.3869311 1.871919,0.6783025 0.708402,-0.093529 C 25.340128,9.3444708 29.783653,9.9863512 27.89236,9.2937538 26.718494,8.3216721 25.228676,10.03356 24.066053,9.4825515 22.656067,9.096378 25.420532,8.5473348 25.901207,8.8812066 26.693981,8.674755 28.595161,8.8978064 28.208432,8.4796123 29.931547,8.5412686 27.295622,7.9558756 26.731453,8.340212 25.682901,7.8943146 24.206687,8.8676327 24.997493,8.0479473 24.380069,8.0282227 23.5152,7.8236324 24.679821,7.7468891 23.871174,7.3949976 22.74272,6.749135 22.013016,7.7000031 z"
       style="color:#000000;fill:#008000;fill-opacity:1;fill-rule:evenodd;stroke:#000000;stroke-width:0.00787865;stroke-linecap:butt;stroke-linejoin:miter;stroke-miterlimit:4;stroke-opacity:1;stroke-dasharray:none;stroke-dashoffset:0;marker:none;visibility:visible;display:inline;overflow:visible;enable-background:accumulate" />
    <path
       inkscape:connector-curvature="0"
       id="path3256"
       d="M 7.0155388,8.7439822 C 7.6121745,8.1560648 9.4821999,7.1624774 7.9213942,8.2764774 7.6228686,8.4390419 7.3065522,8.5673199 7.0155388,8.7439822 z"
       style="color:#000000;fill:#008000;fill-opacity:1;fill-rule:evenodd;stroke:#000000;stroke-width:0.00787865;stroke-linecap:butt;stroke-linejoin:miter;stroke-miterlimit:4;stroke-opacity:1;stroke-dasharray:none;stroke-dashoffset:0;marker:none;visibility:visible;display:inline;overflow:visible;enable-background:accumulate" />
    <path
       inkscape:connector-curvature="0"
       id="path3260"
       d="m 15.397282,21.022978 c 0.629119,-1.535622 2.049646,1.931472 1.295536,-0.167767 0.01166,-0.490461 0.50024,0.467321 0.234188,-0.56619 -0.0045,-1.185202 -2.803905,0.204862 -1.529724,0.733957 z"
       style="color:#000000;fill:#008000;fill-opacity:1;fill-rule:evenodd;stroke:#000000;stroke-width:0.00787865;stroke-linecap:butt;stroke-linejoin:miter;stroke-miterlimit:4;stroke-opacity:1;stroke-dasharray:none;stroke-dashoffset:0;marker:none;visibility:visible;display:inline;overflow:visible;enable-background:accumulate" />
    <path
       inkscape:connector-curvature="0"
       id="path3258"
       d="m 12.395526,21.349098 c 0.617417,-0.220791 1.473493,-0.311583 1.770206,-0.450345 0.263522,-0.101357 1.67962,-0.696834 0.421349,-0.536292 -0.913768,-0.05308 -2.81302,-0.08309 -2.389798,1.156105 l 0.189909,-0.163621 0.0083,-0.0058 3.4e-5,-4.7e-5 z"
       style="color:#000000;fill:#008000;fill-opacity:1;fill-rule:evenodd;stroke:#000000;stroke-width:0.00787865;stroke-linecap:butt;stroke-linejoin:miter;stroke-miterlimit:4;stroke-opacity:1;stroke-dasharray:none;stroke-dashoffset:0;marker:none;visibility:visible;display:inline;overflow:visible;enable-background:accumulate" />
    <path
       inkscape:connector-curvature="0"
       id="path3262"
       d="m 22.862265,17.45837 c 0.87044,-0.365659 -0.162755,-1.008212 -0.03921,-0.938765 -0.29643,-1.280079 -2.918949,0.73562 -2.328545,-0.03483 1.120595,-0.772648 2.859184,-1.401606 4.022904,-0.424445 0.700599,0.371078 0.748974,0.477812 1.029701,0.323473 0.194936,0.05185 -0.90511,-0.853736 0.209752,-0.506165 0.772839,0.781129 2.323608,1.166357 1.981278,-0.462251 1.283817,-0.619881 1.281291,1.93911 2.852449,1.485332 0.67631,-0.06364 2.06793,0.325213 0.56476,0.358512 -0.201116,0.478331 -0.686714,-0.04612 -1.367362,0.343695 0.5771,0.303974 1.72099,1.717988 0.458322,1.05468 -0.522982,-0.299626 -1.942551,-0.518419 -0.958325,0.408404 -0.6835,0.525892 -1.92871,-1.218533 -0.985022,0.335771 -0.446873,0.03187 -2.65864,-1.934499 -1.192972,-0.464563 -1.280621,0.406911 1.867718,1.061739 0.302207,1.615371 0.645704,-0.988583 -2.583563,0.01322 -1.852733,-0.633122 1.353832,-0.158373 -1.1837,-0.08181 -1.648673,-0.330802 -0.744779,-0.270818 -1.775669,1.185029 -0.823486,-0.22937 -0.295318,0.06276 -1.220567,0.902658 -0.365611,-0.07809 -0.05242,-0.242024 -0.9486,0.559882 -0.610735,-0.385857 0.656307,-0.112962 1.348767,-0.267733 1.841955,-0.73864 0.48792,0.06571 -0.689897,-0.516026 -0.836712,0.188845 -0.554581,0.403524 -1.750725,0.30221 -0.516821,0.09618 -0.986758,0.0011 -0.982942,0.0991 -0.460983,-0.680484 0.25633,-0.06204 0.48438,-0.198183 0.723862,-0.302875 z"
       style="color:#000000;fill:#008000;fill-opacity:1;fill-rule:evenodd;stroke:#000000;stroke-width:0.00787865;stroke-linecap:butt;stroke-linejoin:miter;stroke-miterlimit:4;stroke-opacity:1;stroke-dasharray:none;stroke-dashoffset:0;marker:none;visibility:visible;display:inline;overflow:visible;enable-background:accumulate" />
  </g>
</svg>
