<?xml version="1.0" encoding="UTF-8" standalone="no"?>
<!-- Created with Inkscape (http://www.inkscape.org/) -->
<svg
   xmlns:dc="http://purl.org/dc/elements/1.1/"
   xmlns:cc="http://creativecommons.org/ns#"
   xmlns:rdf="http://www.w3.org/1999/02/22-rdf-syntax-ns#"
   xmlns:svg="http://www.w3.org/2000/svg"
   xmlns="http://www.w3.org/2000/svg"
   xmlns:sodipodi="http://sodipodi.sourceforge.net/DTD/sodipodi-0.dtd"
   xmlns:inkscape="http://www.inkscape.org/namespaces/inkscape"
   width="338.73627"
   height="974.65289"
   id="svg3610"
   sodipodi:version="0.32"
   inkscape:version="0.46"
   version="1.0"
   sodipodi:docname="rejon_Person_Outline_2.svg"
   inkscape:output_extension="org.inkscape.output.svg.inkscape">
  <title
     id="title3635">Person Outline</title>
  <defs
     id="defs3612">
    <inkscape:perspective
       sodipodi:type="inkscape:persp3d"
       inkscape:vp_x="0 : 526.18109 : 1"
       inkscape:vp_y="0 : 1000 : 0"
       inkscape:vp_z="744.09448 : 526.18109 : 1"
       inkscape:persp3d-origin="372.04724 : 350.78739 : 1"
       id="perspective3618" />
    <inkscape:perspective
       id="perspective3602"
       inkscape:persp3d-origin="0.5 : 0.33333333 : 1"
       inkscape:vp_z="1 : 0.5 : 1"
       inkscape:vp_y="0 : 1000 : 0"
       inkscape:vp_x="0 : 0.5 : 1"
       sodipodi:type="inkscape:persp3d" />
  </defs>
  <sodipodi:namedview
     id="base"
     pagecolor="#ffffff"
     bordercolor="#666666"
     borderopacity="1.0"
     inkscape:pageopacity="0.0"
     inkscape:pageshadow="2"
     inkscape:zoom="0.35"
     inkscape:cx="743.57143"
     inkscape:cy="508.57143"
     inkscape:document-units="px"
     inkscape:current-layer="layer1"
     showgrid="false"
     showguides="true"
     inkscape:guide-bbox="true"
     inkscape:window-width="778"
     inkscape:window-height="716"
     inkscape:window-x="132"
     inkscape:window-y="50" />
  <metadata
     id="metadata3615">
    <rdf:RDF>
      <cc:Work
         rdf:about="">
        <dc:format>image/svg+xml</dc:format>
        <dc:type
           rdf:resource="http://purl.org/dc/dcmitype/StillImage" />
        <dc:title>Person Outline</dc:title>
        <dc:contributor>
          <cc:Agent>
            <dc:title>Fabricatorz, Lu Fang, Jon Phillips</dc:title>
          </cc:Agent>
        </dc:contributor>
        <cc:license
           rdf:resource="http://creativecommons.org/licenses/publicdomain/" />
      </cc:Work>
      <cc:License
         rdf:about="http://creativecommons.org/licenses/publicdomain/">
        <cc:permits
           rdf:resource="http://creativecommons.org/ns#Reproduction" />
        <cc:permits
           rdf:resource="http://creativecommons.org/ns#Distribution" />
        <cc:permits
           rdf:resource="http://creativecommons.org/ns#DerivativeWorks" />
      </cc:License>
    </rdf:RDF>
  </metadata>
  <g
     inkscape:label="Layer 1"
     inkscape:groupmode="layer"
     id="layer1"
     transform="translate(-214.86892,-10.047607)">
    <path
       d="M 506.95784,527.82604 C 511.83091,524.58075 551.31957,474.81676 551.31957,474.81676 C 551.31957,474.81676 553.47657,480.22909 552.39817,457.51142 C 551.31957,434.7889 557.26617,319.03407 549.68688,300.10614 C 542.12285,281.17316 504.25677,204.9071 503.17335,201.11745 C 502.09478,197.33284 489.1084,179.48328 489.1084,179.48328 C 489.1084,179.48328 475.58777,172.99256 475.58777,172.99256 C 475.58777,172.99256 462.06704,166.50186 462.06704,166.50186 C 462.06704,166.50186 462.06704,161.62878 462.06704,158.39346 C 462.06704,155.14311 457.73819,152.44193 453.40936,146.49039 C 449.08559,140.54401 442.05065,123.77291 440.42794,119.43905 C 438.80521,115.11023 436.64836,111.33056 434.48144,110.24714 C 432.3145,109.16406 425.28964,110.24714 425.28964,110.24714 C 425.28964,110.24714 420.9607,112.41407 420.9607,112.41407 C 420.9607,112.41407 418.79374,110.24714 418.79374,110.24714 C 418.79374,110.24714 426.90729,103.75642 426.90729,99.971811 C 426.90729,96.187207 430.1526,90.779911 430.1526,90.779911 C 430.1526,90.779911 429.07401,83.20073 429.07401,83.20073 C 429.07401,83.20073 427.4513,80.499636 427.4513,80.499636 C 427.4513,80.499636 424.74004,78.332714 424.74004,78.332714 C 424.74004,78.332714 429.6132,72.925405 429.6132,65.890454 C 429.6132,58.8656 429.0739,42.633589 429.0739,42.633589 C 429.0739,42.633589 423.12236,25.32846 418.79342,22.078002 C 414.46471,18.837641 417.17083,16.665658 403.10585,12.88609 C 389.04594,9.1014857 383.09451,9.1014857 373.89756,12.88609 C 364.7006,16.665658 354.4254,25.867544 354.4254,25.867544 C 354.4254,25.867544 349.01809,27.490248 347.39538,33.441775 C 345.76774,39.388278 341.98314,54.536655 341.98314,57.242771 C 341.98314,59.943963 344.68421,64.272785 344.68421,64.272785 C 344.68421,64.272785 340.90465,65.890454 340.90465,65.890454 C 340.90465,65.890454 336.58087,69.140801 336.03664,72.925405 C 335.49286,76.715057 336.58041,85.906945 336.58041,85.906945 C 336.58041,85.906945 336.03664,92.941921 340.36501,94.020383 C 344.68376,95.109078 344.68376,93.48109 344.68376,93.48109 C 344.68376,93.48109 345.76685,103.75654 345.76685,103.75654 C 345.76685,103.75654 346.31063,118.90491 346.31063,118.90491 C 346.31063,118.90491 348.47755,118.36673 338.73648,117.82632 C 329.0055,117.27692 319.8035,116.19855 319.8035,116.19855 C 319.8035,116.19855 312.77863,118.36551 312.77863,118.36551 C 312.77863,118.36551 308.44981,125.93469 308.44981,125.93469 C 308.44981,125.93469 311.15088,123.22857 306.28782,135.67073 C 301.41486,148.10805 299.79205,150.81417 297.63026,154.59877 C 295.46334,158.39333 292.76718,162.17794 296.00755,167.59031 C 299.24782,172.99247 294.38991,175.15445 294.38991,175.15445 C 294.38991,175.15445 283.02611,177.32138 272.74564,185.43484 C 262.47547,193.55318 257.60231,204.36265 251.11159,218.42772 C 244.62579,232.49259 220.28058,353.64968 217.57951,386.6475 C 214.86821,419.64546 212.16222,441.27951 220.28058,468.87026 C 228.39401,496.45586 232.18363,501.31883 232.18363,501.31883 C 232.18363,501.31883 245.70439,509.97648 245.70439,509.97648 C 245.70439,509.97648 251.11159,515.37873 251.11159,515.37873 C 251.11159,515.37873 254.90122,524.04143 254.90122,524.04143 C 254.90122,524.04143 252.195,528.37027 258.68582,524.04143 C 265.17654,519.70756 267.88267,517.00135 267.88267,517.00135 C 267.88267,517.00135 271.12808,518.09003 271.12808,518.09003 C 271.12808,518.09003 273.82918,524.04156 273.82918,524.04156 C 273.82918,524.04156 279.24151,526.74767 279.24151,526.74767 C 279.24151,526.74767 280.3246,532.15498 280.3246,532.15498 C 280.3246,532.15498 281.9473,544.59724 280.3246,555.9561 C 278.69672,567.31483 276.53493,584.08087 275.99576,591.65499 C 275.45087,599.22925 273.28952,635.46757 278.69672,658.18503 C 284.10403,680.90261 285.18757,694.42841 285.72685,709.57185 C 286.27062,724.72023 287.34945,734.45121 287.34945,734.45121 C 287.34945,734.45121 288.43814,753.92347 286.81576,779.88635 C 285.18801,805.84936 282.48682,818.28657 286.81576,824.78223 C 291.13944,831.27305 293.84063,838.30296 293.84063,838.30296 C 293.84063,838.30296 291.13944,837.75919 288.97766,842.08757 C 286.81576,846.41639 284.10448,849.6618 284.10448,856.15758 C 284.10448,862.6483 290.06106,880.49775 290.06106,880.49775 C 290.06106,880.49775 284.64872,898.34228 284.64872,898.34228 C 284.64872,898.34228 284.64872,909.16183 284.64872,909.16183 C 284.64872,909.16183 287.89413,915.11336 287.89413,915.11336 C 287.89413,915.11336 287.35035,918.36382 281.94762,930.26174 C 276.53529,942.15977 272.74564,943.23813 273.82918,951.35662 C 274.91785,959.47014 271.12808,965.95571 277.6188,970.28968 C 284.10448,974.60831 305.74357,980.55987 305.74357,980.55987 C 305.74357,980.55987 308.44981,979.48689 313.31278,977.31455 C 318.18594,975.15265 329.53963,971.36302 329.53963,963.79382 C 329.53963,956.22461 329.53963,943.23813 331.70647,942.69906 C 333.87351,942.15977 335.49107,941.61599 335.49107,941.61599 C 335.49107,941.61599 345.7665,932.4242 345.7665,932.4242 C 345.7665,932.4242 344.68343,924.31086 344.68343,920.52124 C 344.68343,916.74168 348.47799,911.86346 348.47799,911.86346 C 348.47799,911.86346 354.96873,896.72012 354.96873,896.72012 C 354.96873,896.72012 357.12569,891.85211 357.12569,891.85211 C 357.12569,891.85211 359.83181,885.90056 361.45451,881.03759 C 363.07722,876.1696 364.16063,869.67876 364.16063,869.67876 C 364.16063,869.67876 361.45451,868.05112 361.45451,868.05112 C 361.45451,868.05112 364.16063,863.72217 364.16063,863.72217 C 364.16063,863.72217 360.37604,850.19639 360.37604,850.19639 C 360.37604,850.19639 346.85036,786.92198 351.17909,762.0424 C 355.45264,737.47541 359.83181,714.7881 366.86676,695.50239 C 370.38428,685.84686 368.48946,673.86823 368.48946,673.86823 C 368.48946,673.86823 377.6863,630.59496 377.6863,630.59496 C 377.6863,630.59496 374.98018,609.50021 374.98018,609.50021 C 374.98018,609.50021 379.84832,609.50021 379.84832,609.50021 C 379.84832,609.50021 379.30452,625.19281 380.3876,628.97236 C 381.47067,632.7619 392.82986,686.31049 392.82986,686.31049 C 392.82986,686.31049 393.91854,695.50239 393.91854,695.50239 C 393.91854,695.50239 400.40422,779.34774 397.15881,786.92198 C 393.91854,794.49107 394.44775,803.14872 392.8301,812.3356 C 391.21243,821.54253 389.5896,839.38704 392.8301,845.33847 C 396.07036,851.28495 404.18378,855.07461 404.18378,855.07461 C 404.18378,855.07461 407.43928,860.48191 403.6501,864.80571 C 399.86044,869.13454 396.0708,877.25299 396.0708,877.25299 C 396.0708,877.25299 398.78208,878.87561 400.94398,879.95418 C 403.10575,881.03727 406.35621,882.66021 406.35621,882.66021 C 406.35621,882.66021 407.43928,892.39634 407.43928,892.39634 C 407.43928,892.39634 407.97298,902.13247 410.13532,906.46118 C 412.30225,910.79013 414.46415,916.74168 414.46415,916.74168 C 414.46415,916.74168 414.46415,935.12033 416.62604,937.28726 C 418.79297,939.45409 426.36206,945.94494 426.36206,945.94494 C 426.36206,945.94494 434.48054,955.13673 434.48054,955.13673 C 434.48054,955.13673 432.31359,958.38707 435.5636,964.87792 C 438.80399,971.36359 441.51011,982.19334 453.94731,983.8109 C 466.38959,985.42854 489.10715,984.34569 489.10715,984.34569 C 489.10715,984.34569 493.98034,972.44766 493.98034,972.44766 C 493.98034,972.44766 495.05891,963.25082 492.89725,957.29928 C 490.73535,951.35784 474.50346,920.52179 474.50346,920.52179 C 474.50346,920.52179 478.2931,910.24647 478.2931,910.24647 C 478.2931,910.24647 479.91581,894.01973 479.91581,894.01973 C 479.91581,894.01973 476.12617,876.70934 476.12617,876.70934 C 476.12617,876.70934 485.32302,871.30708 485.32302,866.42898 C 485.32302,861.56096 481.53336,846.96187 481.53336,846.96187 C 481.53336,846.96187 480.46038,845.33914 484.78876,838.84338 C 489.10762,832.35771 491.26937,810.17427 486.41146,785.839 C 481.53336,761.49379 475.58686,731.74619 475.58686,731.74619 C 475.58686,731.74619 472.34156,716.06368 472.34156,716.06368 C 472.34156,716.06368 473.9692,692.80187 474.50346,678.19772 C 475.05284,663.58854 479.37146,605.17697 479.37146,605.17697 C 479.37146,605.17697 475.58686,582.45939 475.58686,582.45939 C 475.58686,582.45939 476.66994,561.35949 474.50379,547.83884 C 472.34189,534.3181 477.7492,526.74892 477.7492,526.74892 C 477.7492,526.74892 489.10794,536.48 489.10794,536.48 C 489.10794,536.48 499.38328,531.07282 499.38328,531.07282"
       style="fill:#2e3436;fill-opacity:1;fill-rule:evenodd;stroke:none"
       id="path3433" />
  </g>
</svg>
