<?xml version="1.0" encoding="UTF-8"?>
<!DOCTYPE svg PUBLIC "-//W3C//DTD SVG 1.1//EN" "http://www.w3.org/Graphics/SVG/1.1/DTD/svg11-flat-20030114.dtd">
<svg xmlns="http://www.w3.org/2000/svg"
 xmlns:xlink="http://www.w3.org/1999/xlink" 
 xmlns:z="http://debeissat.nicolas.free.fr/svg3d/svg3d.rng" 
 z:xInfinite="300" z:yInfinite="200" z:zRatio="2">

	<g id="g1">
      <path id="faceBack"   class="face faceBack"    d="M0,0,123.6 L200,0,123.6 L200,76.4,123.6 L0,76.4,123.6 Z" 
            z:threeD="true">
        </path>
      <path id="faceBottom" class="face faceBottom"  d="M0,76.4,0 L200,76.4,0 L200,76.4,123.6 L0,76.4,123.6 Z" 
            z:threeD="true">
        </path>
      <path id="faceRight"  class="face faceRight"   d="M200,0,0 L200,0,123.6 L200,76.4,123.6 L200,76.4,0 Z" 
            z:threeD="true">
        </path>      
      <path id="faceLeft"   class="face faceLeft"       d="M0,0,0 L0,0,123.6 L0,76.4,123.6 L0,76.4,0 Z" 
            z:threeD="true">
        </path>
      <path id="faceTop"    class="face faceTop"        d="M0,0,0 L200,0,0 L200,0,123.6 L0,0,123.6 Z" 
            z:threeD="true">
        </path>
     <path id="faceFront"   class="face faceFront"      d="M0,0,0 L200,0,0 L200,76.4,0 L0,76.4,0 Z" 
            z:threeD="true">
        </path>
	</g>
</svg>
