<?xml version="1.0" encoding="UTF-8" standalone="no"?>
<svg
   xmlns:dc="http://purl.org/dc/elements/1.1/"
   xmlns:cc="http://creativecommons.org/ns#"
   xmlns:rdf="http://www.w3.org/1999/02/22-rdf-syntax-ns#"
   xmlns:svg="http://www.w3.org/2000/svg"
   xmlns="http://www.w3.org/2000/svg"
   xmlns:sodipodi="http://sodipodi.sourceforge.net/DTD/sodipodi-0.dtd"
   xmlns:inkscape="http://www.inkscape.org/namespaces/inkscape"
   width="890.9375"
   height="465.1506"
   id="svg2"
   version="1.1"
   inkscape:version="0.48.4 r9939"
   sodipodi:docname="double-deck-bus.svg">
  <defs
     id="defs64" />
  <sodipodi:namedview
     pagecolor="#ffffff"
     bordercolor="#666666"
     borderopacity="1"
     objecttolerance="10"
     gridtolerance="10"
     guidetolerance="10"
     inkscape:pageopacity="0"
     inkscape:pageshadow="2"
     inkscape:window-width="762"
     inkscape:window-height="1041"
     id="namedview62"
     showgrid="false"
     inkscape:zoom="0.15208699"
     inkscape:cx="819.58195"
     inkscape:cy="-394.45657"
     inkscape:window-x="1280"
     inkscape:window-y="18"
     inkscape:window-maximized="0"
     inkscape:current-layer="svg2" />
  <title
     id="title4">Double Deck Bus</title>
  <metadata
     id="metadata7">image/svg+xmlDouble Deck Bus<rdf:RDF>
  <cc:Work
     rdf:about="">
    <dc:format>image/svg+xml</dc:format>
    <dc:type
       rdf:resource="http://purl.org/dc/dcmitype/StillImage" />
  </cc:Work>
</rdf:RDF>
</metadata>
  <g
     id="g4636">
    <path
       style="fill:#ff0000"
       inkscape:connector-curvature="0"
       d="m 83.999947,-5.04e-4 c -44.320007,0 -80,35.679993 -80,80 l -4,264.250014 0,80 80,0 108.749993,0 c -1.8519,-6.41583 -2.875,-13.17535 -2.875,-20.1875 0,-40.16821 32.55054,-72.75 72.71875,-72.75 40.16821,0 72.75,32.58179 72.75,72.75 0,7.01086 -1.02374,13.77271 -2.875,20.1875 l 416.84375,0 c -0.52112,-2.63202 -0.96631,-5.28473 -1.375,-7.9375 -0.31354,-2.69513 -0.46875,-5.44171 -0.46875,-8.21875 0,-12.55261 3.18042,-24.35242 8.78125,-34.65625 12.19458,-23.13397 35.71197,-33.59277 59.625,-34.75 37.87097,0 68.59375,30.69153 68.59375,68.5625 0,5.50513 -0.68103,10.87018 -1.90625,16 l 12.375,0 L 874.71869,222.2495 858.93744,79.999496 c -6.42859,-45.391434 -35.67999,-80 -80,-80 l -694.937493,0 z"
       id="rect2831" />
    <path
       style="fill:#000000"
       inkscape:connector-curvature="0"
       d="m 821.6026,209.83504 33.85712,0 c 5.54004,0 10,4.45999 10,10 l 4,57.14287 c 0,5.53997 -4.45996,10 -10,10 l -37.85712,0 c -5.53998,0 -10,-4.46003 -10,-10 l 0,-57.14287 c 0,-5.54001 4.46002,-10 10,-10 z"
       id="rect2842" />
    <rect
       style="fill:#000000"
       id="rect2844"
       width="127.14286"
       height="57.857143"
       x="195.17404"
       y="231.97792"
       rx="10"
       ry="10" />
    <rect
       style="fill:#000000"
       ry="10"
       rx="10"
       y="230.54936"
       x="467.31689"
       height="57.857143"
       width="127.14286"
       id="rect2846" />
    <rect
       style="fill:#000000"
       id="rect2848"
       width="127.14286"
       height="57.857143"
       x="193.74545"
       y="41.263638"
       rx="10"
       ry="10" />
    <rect
       style="fill:#000000"
       id="rect2850"
       width="20"
       height="32.142857"
       x="523.03119"
       y="357.6922"
       rx="10"
       ry="10" />
    <path
       style="fill:#000000;stroke:#ff5555"
       inkscape:connector-curvature="0"
       id="path2852"
       d="m 573.26739,394.58093 a 6.56599,6.56599 0 1 1 -13.13195,0 6.56599,6.56599 0 1 1 13.13195,0 z" />
    <path
       d="m 601.65619,249.3745 0,29.53126 c 0,5.53998 4.46002,10 10,10 l 107.15625,0 c 5.53998,0 10,-4.46002 10,-10 l 0,-29.53126 -127.15625,0 z"
       id="rect2854"
       inkscape:connector-curvature="0"
       style="fill:#000000" />
    <path
       d="m 613.59369,233.34325 c -3.87799,0 -7,3.122 -7,7 l 0,5.5 118.1875,0 0,-5.5 c 0,-3.878 -3.12201,-7 -7,-7 l -104.1875,0 z"
       id="rect2859"
       inkscape:connector-curvature="0"
       style="fill:#000000" />
    <rect
       id="rect2864"
       width="132.83505"
       height="22.728432"
       x="597.51105"
       y="226.7693"
       style="fill:none;stroke:#000000" />
    <path
       id="path2873"
       d="m 331.94547,251.39482 0,29.53127 c 0,5.53997 4.45999,10 10,10 l 107.15628,0 c 5.53997,0 10,-4.46003 10,-10 l 0,-29.53127 -127.15628,0 z"
       inkscape:connector-curvature="0"
       style="fill:#000000" />
    <path
       id="path2875"
       d="m 343.88297,235.36357 c -3.878,0 -7,3.12201 -7,7 l 0,5.5 118.18753,0 0,-5.5 c 0,-3.87799 -3.12201,-7 -7,-7 l -104.18753,0 z"
       inkscape:connector-curvature="0"
       style="fill:#000000" />
    <rect
       y="228.7896"
       x="327.80032"
       height="22.728432"
       width="132.83505"
       id="rect2877"
       style="fill:none;stroke:#000000" />
    <path
       d="m 329.42007,64.011505 0,29.53125 c 0,5.540009 4.45999,10.000005 10,10.000005 l 107.15629,0 c 5.53997,0 10,-4.459996 10,-10.000005 l 0,-29.53125 -127.15629,0 z"
       id="path2881"
       inkscape:connector-curvature="0"
       style="fill:#000000" />
    <path
       d="m 341.35757,47.980255 c -3.87799,0 -7,3.121994 -7,7 l 0,5.5 118.18754,0 0,-5.5 c 0,-3.878006 -3.12201,-7 -7,-7 l -104.18754,0 z"
       id="path2883"
       inkscape:connector-curvature="0"
       style="fill:#000000" />
    <rect
       id="rect2885"
       width="132.83505"
       height="22.728432"
       x="325.27493"
       y="41.406307"
       style="fill:none;stroke:#000000" />
    <path
       id="path2889"
       d="m 463.26526,64.011505 0,29.53125 c 0,5.540009 4.46002,10.000005 10,10.000005 l 107.15625,0 c 5.53998,0 10,-4.459996 10,-10.000005 l 0,-29.53125 -127.15625,0 z"
       inkscape:connector-curvature="0"
       style="fill:#000000" />
    <path
       id="path2891"
       d="m 475.20276,47.980255 c -3.87799,0 -7,3.121994 -7,7 l 0,5.5 118.1875,0 0,-5.5 c 0,-3.878006 -3.12201,-7 -7,-7 l -104.1875,0 z"
       inkscape:connector-curvature="0"
       style="fill:#000000" />
    <rect
       y="41.406307"
       x="459.12012"
       height="22.728432"
       width="132.83505"
       id="rect2893"
       style="fill:none;stroke:#000000" />
    <path
       d="m 597.11047,64.011505 0,29.53125 c 0,5.540009 4.46003,10.000005 10,10.000005 l 107.15625,0 c 5.53998,0 10,-4.459996 10,-10.000005 l 0,-29.53125 -127.15625,0 z"
       id="path2897"
       inkscape:connector-curvature="0"
       style="fill:#000000" />
    <path
       d="m 609.04797,47.980255 c -3.87799,0 -7,3.121994 -7,7 l 0,5.5 118.1875,0 0,-5.5 c 0,-3.878006 -3.12201,-7 -7,-7 l -104.1875,0 z"
       id="path2899"
       inkscape:connector-curvature="0"
       style="fill:#000000" />
    <rect
       id="rect2901"
       width="132.83505"
       height="22.728432"
       x="592.96533"
       y="41.406307"
       style="fill:none;stroke:#000000" />
    <path
       style="fill:#000000;stroke:#000000;stroke-width:3;stroke-miterlimit:4"
       inkscape:connector-curvature="0"
       d="m 743.88165,43.426636 87.68274,0 c 5.54004,0 8.125,4.370712 10,10 l 8,35.558395 c 0,5.539993 -2.45996,10 -8,10 l -97.68274,0 c -5.53998,0 -10,-4.460007 -10,-10 l 0,-35.558395 c 0,-5.539993 4.46002,-10 10,-10 z"
       id="rect2903"
       stroke-miterlimit="4" />
    <path
       style="fill:#000000;stroke:#000000;stroke-width:2.65554404;stroke-miterlimit:4"
       inkscape:connector-curvature="0"
       d="m 172.00552,43.759476 c 5.54001,0 10,4.460007 10,10 l 0,36.15538 c 0,5.539993 -4.45999,10 -10,10 l -106.613529,0 c -5.539993,0 -7.979691,-5.470154 -7.979691,-11.010147 0,0 3.966675,-25.527267 20,-35.650314 27.37654,-17.284851 70.64275,-9.494919 94.59322,-9.494919 z"
       id="rect2906"
       stroke-miterlimit="4" />
    <path
       stroke-miterlimit="4"
       id="path2909"
       d="m 312.14294,409.10187 a 54.548241,54.548241 0 1 1 -109.09646,0 54.548241,54.548241 0 1 1 109.09646,0 z"
       inkscape:connector-curvature="0"
       style="opacity:1;fill:#000000;stroke:#000000;stroke-width:3;stroke-miterlimit:4" />
    <path
       stroke-miterlimit="4"
       d="m 288.05716,409.10175 a 30.461866,30.461866 0 1 1 -60.92372,0 30.461866,30.461866 0 1 1 60.92372,0 z"
       id="path2911"
       inkscape:connector-curvature="0"
       style="opacity:1;fill:#800000;stroke:#000000;stroke-width:3;stroke-miterlimit:4" />
    <path
       stroke-miterlimit="4"
       id="path2913"
       d="m 282.64954,409.10165 a 25.054716,25.054716 0 1 1 -50.10942,0 25.054716,25.054716 0 1 1 50.10942,0 z"
       inkscape:connector-curvature="0"
       style="opacity:1;fill:#000000;stroke:#000000;stroke-width:3;stroke-miterlimit:4" />
    <path
       stroke-miterlimit="4"
       d="m 263.47845,409.10232 a 5.8839035,5.8839035 0 1 1 -11.7678,0 5.8839035,5.8839035 0 1 1 11.7678,0 z"
       id="path2915"
       inkscape:connector-curvature="0"
       style="opacity:1;fill:#000000;stroke:#000000;stroke-width:3;stroke-miterlimit:4" />
    <path
       stroke-miterlimit="4"
       d="m 865.10394,405.4079 a 54.548248,54.548248 0 1 1 -109.09649,0 54.548248,54.548248 0 1 1 109.09649,0 z"
       id="path2925"
       inkscape:connector-curvature="0"
       style="opacity:1;fill:#000000;stroke:#000000;stroke-width:3;stroke-miterlimit:4" />
    <path
       stroke-miterlimit="4"
       id="path2927"
       d="m 841.01819,405.40774 a 30.461866,30.461866 0 1 1 -60.92371,0 30.461866,30.461866 0 1 1 60.92371,0 z"
       inkscape:connector-curvature="0"
       style="opacity:1;fill:#800000;stroke:#000000;stroke-width:3;stroke-miterlimit:4" />
    <path
       stroke-miterlimit="4"
       d="m 835.61054,405.40765 a 25.05472,25.05472 0 1 1 -50.10944,0 25.05472,25.05472 0 1 1 50.10944,0 z"
       id="path2929"
       inkscape:connector-curvature="0"
       style="opacity:1;fill:#000000;stroke:#000000;stroke-width:3;stroke-miterlimit:4" />
    <path
       stroke-miterlimit="4"
       id="path2931"
       d="m 816.43945,405.40839 a 5.883911,5.883911 0 1 1 -11.76782,0 5.883911,5.883911 0 1 1 11.76782,0 z"
       inkscape:connector-curvature="0"
       style="opacity:1;fill:#000000;stroke:#000000;stroke-width:3;stroke-miterlimit:4" />
    <path
       style="fill:none;stroke:#000000;stroke-width:0.5;stroke-miterlimit:4"
       inkscape:connector-curvature="0"
       d="m 643.03119,378.93701 c -3.87799,0 -7,3.12201 -7,7 l 0,26.0625 26.75,0 0,-26.0625 c 0,-3.87799 -3.12201,-7 -7,-7 l -12.75,0 z"
       id="rect2936"
       stroke-miterlimit="4" />
    <path
       style="fill:none;stroke:#000000;stroke-width:0.5;stroke-miterlimit:4"
       inkscape:connector-curvature="0"
       id="path3715"
       d="m 644.1236,381.76971 c -3.2135,0 -5.80054,2.58704 -5.80054,5.80048 l 0,21.59662 22.16632,0 0,-21.59662 c 0,-3.21344 -2.58704,-5.80048 -5.80054,-5.80048 l -10.56524,0 z"
       stroke-miterlimit="4" />
    <rect
       style="fill:none;stroke:#000000"
       id="rect3717"
       width="26.607143"
       height="24.285715"
       x="708.56689"
       y="362.33502"
       rx="4"
       ry="4" />
    <rect
       style="fill:#000000"
       ry="3.1176469"
       rx="3.1176469"
       y="365.01361"
       x="711.50153"
       height="18.928572"
       width="20.737921"
       id="rect3719" />
    <rect
       style="fill:none;stroke:#000000;stroke-miterlimit:4"
       id="rect3721"
       width="55.714287"
       height="127.85714"
       x="741.6026"
       y="206.26363"
       rx="4"
       ry="4"
       stroke-miterlimit="4" />
    <rect
       style="fill:#000000"
       id="rect3723"
       width="48.57143"
       height="58.214287"
       x="744.81689"
       y="210.54933"
       rx="4"
       ry="4" />
    <rect
       style="fill:#ffff00"
       id="rect3725"
       width="654.57886"
       height="68.690369"
       x="171.2267"
       y="111.61192"
       rx="6"
       ry="6" />
    <rect
       style="fill:none;stroke:#000000;stroke-width:0.5;stroke-miterlimit:4"
       ry="11.055555"
       rx="11.055555"
       y="355.99576"
       x="521.97565"
       height="35.535713"
       width="22.111111"
       id="rect3734"
       stroke-miterlimit="4" />
    <rect
       style="fill:none;stroke:#000000;stroke-width:0.462028;stroke-miterlimit:4"
       id="rect3736"
       width="110.03797"
       height="64.323685"
       x="37.297916"
       y="360.17322"
       stroke-miterlimit="4" />
    <path
       style="fill:#000000"
       inkscape:connector-curvature="0"
       id="path3738"
       d="m 53.038795,365.66482 a 2.525383,2.525383 0 0 1 -5.050766,0 2.525383,2.525383 0 1 1 5.050766,0 z" />
    <path
       style="fill:#000000"
       inkscape:connector-curvature="0"
       d="m 135.87099,365.66482 a 2.525385,2.525385 0 0 1 -5.05077,0 2.525385,2.525385 0 1 1 5.05077,0 z"
       id="path3740" />
  </g>
</svg>
