<?xml version="1.0" encoding="UTF-8" standalone="no"?>
<!-- Created with Inkscape (http://www.inkscape.org/) -->

<svg
   xmlns:dc="http://purl.org/dc/elements/1.1/"
   xmlns:cc="http://creativecommons.org/ns#"
   xmlns:rdf="http://www.w3.org/1999/02/22-rdf-syntax-ns#"
   xmlns:svg="http://www.w3.org/2000/svg"
   xmlns="http://www.w3.org/2000/svg"
   xmlns:xlink="http://www.w3.org/1999/xlink"
   xmlns:sodipodi="http://sodipodi.sourceforge.net/DTD/sodipodi-0.dtd"
   xmlns:inkscape="http://www.inkscape.org/namespaces/inkscape"
   width="219.09933"
   height="300"
   id="svg2"
   sodipodi:version="0.32"
   inkscape:version="0.48.4 r9939"
   sodipodi:docname="lightbulb.svg"
   inkscape:output_extension="org.inkscape.output.svg.inkscape"
   sodipodi:modified="TRUE"
   version="1.1">
  <defs
     id="defs4">
    <linearGradient
       inkscape:collect="always"
       id="linearGradient12464">
      <stop
         style="stop-color:#917c6f;stop-opacity:1;"
         offset="0"
         id="stop12466" />
      <stop
         style="stop-color:#917c6f;stop-opacity:0;"
         offset="1"
         id="stop12468" />
    </linearGradient>
    <linearGradient
       id="linearGradient12456">
      <stop
         style="stop-color:#ffffff;stop-opacity:1;"
         offset="0"
         id="stop12458" />
      <stop
         style="stop-color:#ffff00;stop-opacity:1;"
         offset="1"
         id="stop12460" />
    </linearGradient>
    <linearGradient
       id="linearGradient8509">
      <stop
         style="stop-color:#666666;stop-opacity:1;"
         offset="0"
         id="stop8511" />
      <stop
         style="stop-color:#666666;stop-opacity:0;"
         offset="1"
         id="stop8513" />
    </linearGradient>
    <linearGradient
       id="linearGradient6327">
      <stop
         style="stop-color:#0954d6;stop-opacity:1;"
         offset="0"
         id="stop6329" />
      <stop
         style="stop-color:#4848cb;stop-opacity:0"
         offset="1"
         id="stop6331" />
    </linearGradient>
    <linearGradient
       id="linearGradient6315">
      <stop
         id="stop6317"
         offset="0"
         style="stop-color:#fffaf7;stop-opacity:1;" />
      <stop
         id="stop6319"
         offset="1"
         style="stop-color:#e7ed15;stop-opacity:0;" />
    </linearGradient>
    <linearGradient
       id="linearGradient5338">
      <stop
         style="stop-color:#fffaf7;stop-opacity:1;"
         offset="0"
         id="stop5340" />
      <stop
         style="stop-color:#e7ed15;stop-opacity:0;"
         offset="1"
         id="stop5342" />
    </linearGradient>
    <linearGradient
       id="linearGradient3376">
      <stop
         style="stop-color:#ffff00;stop-opacity:1;"
         offset="0"
         id="stop3378" />
      <stop
         style="stop-color:#fcffff;stop-opacity:0.24705882;"
         offset="1"
         id="stop3386" />
    </linearGradient>
    <radialGradient
       inkscape:collect="always"
       xlink:href="#linearGradient5338"
       id="radialGradient11478"
       gradientUnits="userSpaceOnUse"
       gradientTransform="matrix(1,0,0,0.6753247,0,154.59161)"
       cx="1262.8374"
       cy="476.14212"
       fx="1262.8374"
       fy="476.14212"
       r="207.33151" />
    <linearGradient
       inkscape:collect="always"
       xlink:href="#linearGradient8509"
       id="linearGradient11484"
       gradientUnits="userSpaceOnUse"
       gradientTransform="matrix(1.0323773,0,0,1.0568404,-69.016603,12.571454)"
       x1="344.65497"
       y1="853.10852"
       x2="526.1405"
       y2="850.41589" />
    <radialGradient
       inkscape:collect="always"
       xlink:href="#linearGradient12456"
       id="radialGradient12462"
       cx="311.28458"
       cy="369.99646"
       fx="311.28458"
       fy="369.99646"
       r="303.10434"
       gradientTransform="matrix(2.7681041,-0.1391871,0.04563002,0.9074736,-560.09642,46.856876)"
       gradientUnits="userSpaceOnUse" />
    <radialGradient
       inkscape:collect="always"
       xlink:href="#linearGradient12464"
       id="radialGradient12470"
       cx="311.28458"
       cy="369.99646"
       fx="311.28458"
       fy="369.99646"
       r="303.10434"
       gradientTransform="matrix(2.7681041,-0.1391871,0.04563002,0.9074736,-560.09642,46.856876)"
       gradientUnits="userSpaceOnUse" />
    <radialGradient
       inkscape:collect="always"
       xlink:href="#linearGradient12456"
       id="radialGradient3013"
       gradientUnits="userSpaceOnUse"
       gradientTransform="matrix(0.0873076,-0.00439004,0.00143919,0.02862224,-18.198123,268.50843)"
       cx="311.28458"
       cy="369.99646"
       fx="311.28458"
       fy="369.99646"
       r="303.10434" />
    <radialGradient
       inkscape:collect="always"
       xlink:href="#linearGradient12464"
       id="radialGradient3015"
       gradientUnits="userSpaceOnUse"
       gradientTransform="matrix(0.0873076,-0.00439004,0.00143919,0.02862224,-18.198123,268.50843)"
       cx="311.28458"
       cy="369.99646"
       fx="311.28458"
       fy="369.99646"
       r="303.10434" />
    <linearGradient
       inkscape:collect="always"
       xlink:href="#linearGradient8509"
       id="linearGradient3017"
       gradientUnits="userSpaceOnUse"
       gradientTransform="matrix(0.03256178,0,0,0.03333336,-2.7091824,267.42704)"
       x1="344.65497"
       y1="853.10852"
       x2="526.1405"
       y2="850.41589" />
    <radialGradient
       inkscape:collect="always"
       xlink:href="#linearGradient5338"
       id="radialGradient3019"
       gradientUnits="userSpaceOnUse"
       gradientTransform="matrix(1,0,0,0.6753247,0,154.59161)"
       cx="1262.8374"
       cy="476.14212"
       fx="1262.8374"
       fy="476.14212"
       r="207.33151" />
  </defs>
  <sodipodi:namedview
     id="base"
     pagecolor="#ffffff"
     bordercolor="#666666"
     borderopacity="1.0"
     gridtolerance="10000"
     guidetolerance="10"
     objecttolerance="10"
     inkscape:pageopacity="0.0"
     inkscape:pageshadow="2"
     inkscape:zoom="1.5779168"
     inkscape:cx="130.77916"
     inkscape:cy="47.946742"
     inkscape:document-units="px"
     inkscape:current-layer="svg2"
     inkscape:window-width="885"
     inkscape:window-height="761"
     inkscape:window-x="0"
     inkscape:window-y="18"
     showgrid="false"
     fit-margin-left="20"
     fit-margin-top="20"
     fit-margin-bottom="200"
     fit-margin-right="150"
     inkscape:window-maximized="0" />
  <metadata
     id="metadata7">
    <rdf:RDF>
      <cc:Work
         rdf:about="">
        <dc:format>image/svg+xml</dc:format>
        <dc:type
           rdf:resource="http://purl.org/dc/dcmitype/StillImage" />
      </cc:Work>
    </rdf:RDF>
  </metadata>
  <path
     sodipodi:nodetypes="csssssssssssssssssssssssssssssssssssssssssssssssssssssssssscccssccssssssssssssssssssssssssssssssssssssssssssssssssssssssssssssc"
     id="path6323"
     d="m 10.083126,269.61186 c -0.095951,9.7e-4 -0.1936095,0.005 -0.2941115,0.009 -0.2010037,0.008 -0.4122385,0.0208 -0.634082,0.0394 -0.2218434,0.0186 -0.4544481,0.043 -0.7008756,0.0725 -0.2464341,0.0294 -0.5058732,0.0644 -0.7806393,0.10462 -0.1672049,0.0245 -0.3267901,0.0507 -0.4795472,0.0787 -0.152757,0.028 -0.2991967,0.0583 -0.4406681,0.0911 -0.141471,0.0328 -0.2784101,0.068 -0.4117535,0.1067 -0.1333471,0.0387 -0.2634446,0.0807 -0.3918126,0.12638 -0.1283745,0.0456 -0.2542912,0.0944 -0.380849,0.14812 -0.1265608,0.0538 -0.2529463,0.11213 -0.380846,0.17507 -0.1279024,0.063 -0.2574203,0.13079 -0.3898231,0.20407 -0.1324027,0.0733 -0.2677096,0.15144 -0.4077643,0.23617 -0.085218,0.0515 -0.1775693,0.11296 -0.2751668,0.18231 -0.097604,0.0694 -0.2009422,0.14738 -0.3070703,0.231 -0.2122674,0.16725 -0.4377281,0.35915 -0.6610009,0.56248 -0.2232761,0.20333 -0.4445824,0.41742 -0.6480411,0.62876 -0.1017297,0.10568 -0.199125,0.21147 -0.2901189,0.31387 -0.090994,0.10241 -0.1748307,0.20165 -0.2512403,0.2973 -0.083745,0.10481 -0.1642673,0.21022 -0.2412698,0.31698 -0.077006,0.10676 -0.1510115,0.21531 -0.221332,0.32422 -0.07032,0.10891 -0.1377039,0.21916 -0.2013917,0.33044 -0.063688,0.11128 -0.1233406,0.22279 -0.1804535,0.33666 -0.05711,0.11387 -0.110922,0.2293 -0.16150972,0.34598 -0.0505857,0.11668 -0.098454,0.2356 -0.1425686,0.3553 -0.0441228,0.1197 -0.0849243,0.24065 -0.12263074,0.36359 -0.037706,0.12295 -0.0723425,0.24754 -0.10368649,0.37395 -0.0313404,0.1264 -0.0597083,0.25422 -0.0847422,0.38431 -0.0250364,0.13008 -0.0460155,0.26171 -0.0648044,0.39569 -0.0187837,0.13399 -0.0352695,0.27004 -0.0478569,0.40814 -0.0125824,0.13809 -0.0214715,0.27917 -0.027914,0.4216 -0.006437,0.14243 -0.009617,0.28705 -0.009972,0.43403 -3.488e-4,0.14697 0.002308,0.29574 0.007976,0.44749 0.005689,0.15174 0.0142545,0.30629 0.0259187,0.46303 0.0116693,0.15673 0.0262726,0.31559 0.0438663,0.47754 0.0257494,0.23693 0.0561142,0.45479 0.0937166,0.66087 0.0376136,0.2061 0.0826612,0.40047 0.1365898,0.59149 0.0539255,0.19102 0.1167207,0.37904 0.19142115,0.57076 0.0746933,0.19173 0.1612876,0.38742 0.2612102,0.59563 0.1854721,0.38648 0.4129485,0.86949 0.5054664,1.07315 0.072316,0.1592 0.1498851,0.31873 0.2323022,0.47547 0.08241,0.15673 0.1689565,0.31066 0.2572216,0.45785 0.088258,0.14719 0.1783243,0.28794 0.2681851,0.41849 0.089857,0.13055 0.1799853,0.25056 0.2671922,0.35737 0.092342,0.11312 0.2220582,0.28808 0.3569195,0.47858 0.1348576,0.19048 0.2745543,0.39693 0.3868309,0.57282 0.2245486,0.3518 0.5811916,0.89721 0.7926019,1.21198 0.1211525,0.18038 0.2226251,0.33343 0.3060707,0.46406 0.083446,0.13063 0.1487099,0.23875 0.1993957,0.32837 0.050684,0.0897 0.086797,0.16018 0.1096678,0.21753 0.022872,0.0573 0.0329,0.10085 0.032905,0.13467 0,0.0294 0.00658,0.0633 0.017943,0.0942 0.011362,0.031 0.027622,0.0591 0.044861,0.0767 0.012967,0.0132 0.030741,0.0546 0.051841,0.11705 0.021102,0.0625 0.044995,0.14613 0.071783,0.24653 0.053577,0.20081 0.1168088,0.46625 0.1784645,0.75101 0.061653,0.28476 0.1223185,0.58872 0.1724764,0.86702 0.05015,0.27831 0.089587,0.53123 0.1086723,0.71267 0.019589,0.18628 0.032248,0.43418 0.036885,0.68368 0.00462,0.2495 5.642e-4,0.50073 -0.011962,0.693 l -0.044861,0.6992 -0.2771594,0.2455 c -0.038265,0.034 -0.072297,0.0679 -0.1026938,0.10152 -0.030396,0.0336 -0.05722,0.0663 -0.079756,0.0994 -0.00303,0.005 -0.00513,0.009 -0.00798,0.0135 4.7156257,0.38959 5.8138028,0.29268 8.3726618,-0.11084 -0.0058,-0.006 -0.01021,-0.0354 -0.01395,-0.0839 -0.0038,-0.0485 -0.0072,-0.11544 -0.0089,-0.19474 -0.0037,-0.15861 -0.003,-0.36688 0,-0.57595 0.003,-0.20905 0.0086,-0.41881 0.01695,-0.58111 0.0082,-0.16231 0.01877,-0.27795 0.03091,-0.29625 0.01787,-0.027 0.06037,-0.17889 0.09471,-0.33874 0.03848,-0.17912 0.0969,-0.4115 0.164502,-0.66606 0.06761,-0.25456 0.144849,-0.53197 0.223325,-0.79969 0.07848,-0.26773 0.158212,-0.52617 0.229308,-0.74479 0.07109,-0.21861 0.134001,-0.39724 0.179456,-0.50447 0.05495,-0.1296 0.110213,-0.26927 0.155529,-0.38948 0.04532,-0.12022 0.0799,-0.22069 0.09372,-0.27348 0.01382,-0.0528 0.07109,-0.18717 0.151543,-0.36151 0.08045,-0.17434 0.183859,-0.38907 0.292114,-0.6008 0.108252,-0.21174 0.206806,-0.40978 0.278159,-0.55937 0.07134,-0.14959 0.115646,-0.25098 0.115649,-0.26622 0,-0.0152 0.03089,-0.0617 0.08076,-0.12534 0.04985,-0.0636 0.118766,-0.14349 0.194413,-0.22478 0.151292,-0.1626 0.330408,-0.3715 0.397795,-0.46407 0.0337,-0.0463 0.135919,-0.16121 0.274173,-0.30765 0.138251,-0.14645 0.312452,-0.32443 0.48852,-0.50033 0.23578,-0.23554 0.423714,-0.42592 0.580245,-0.59355 0.156531,-0.16762 0.281483,-0.31293 0.393805,-0.45786 0.112322,-0.1449 0.21189,-0.2894 0.315049,-0.45681 0.103155,-0.16741 0.209935,-0.35741 0.338974,-0.59252 0.126701,-0.23086 0.227571,-0.41943 0.311057,-0.59355 0.04174,-0.087 0.07912,-0.17041 0.113656,-0.25379 0.03454,-0.0833 0.06597,-0.16709 0.09571,-0.25379 0.05949,-0.17338 0.111785,-0.35968 0.166498,-0.58837 0.05471,-0.22868 0.1113,-0.49905 0.180451,-0.83905 0.02988,-0.14687 0.05638,-0.28836 0.07877,-0.4247 0.02238,-0.13635 0.04095,-0.26761 0.05583,-0.39674 0.01488,-0.12913 0.02652,-0.25596 0.03389,-0.3812 0.0074,-0.12523 0.01109,-0.2493 0.01096,-0.37395 -1.27e-4,-0.12465 -0.0043,-0.24968 -0.01196,-0.37706 -0.0077,-0.12736 -0.01876,-0.2571 -0.0339,-0.39051 -0.01515,-0.13342 -0.03416,-0.27055 -0.05683,-0.41332 -0.02267,-0.14276 -0.04958,-0.29102 -0.07976,-0.44645 -0.03789,-0.19515 -0.07757,-0.38509 -0.119638,-0.56973 -0.04207,-0.18465 -0.08682,-0.36376 -0.132601,-0.53658 -0.04578,-0.17282 -0.09257,-0.33965 -0.14157,-0.49929 -0.04901,-0.15964 -0.09979,-0.31272 -0.151541,-0.45786 -0.05175,-0.14512 -0.104498,-0.28196 -0.158521,-0.41123 -0.05403,-0.12927 -0.109681,-0.25048 -0.165499,-0.36256 -0.05582,-0.11208 -0.112358,-0.21515 -0.169487,-0.30868 -0.05713,-0.0935 -0.114514,-0.17806 -0.17248,-0.25172 -0.06424,-0.0817 -0.13179,-0.16215 -0.203384,-0.24239 -0.07159,-0.0802 -0.147465,-0.15947 -0.226314,-0.23826 -0.07885,-0.0788 -0.161232,-0.15681 -0.247251,-0.23411 -0.08602,-0.0773 -0.175078,-0.15421 -0.268189,-0.22995 -0.18622,-0.15147 -0.387111,-0.29939 -0.601178,-0.44439 -0.214071,-0.14499 -0.441684,-0.28761 -0.682938,-0.42574 -0.24125,-0.13812 -0.495932,-0.27208 -0.763687,-0.40295 -0.267759,-0.13087 -0.548862,-0.25796 -0.842448,-0.3812 -0.293594,-0.12324 -0.599469,-0.2432 -0.918222,-0.35841 -0.318758,-0.11521 -0.649751,-0.2257 -0.992995,-0.33252 -0.153056,-0.0476 -0.306458,-0.0899 -0.461602,-0.12637 -0.155148,-0.0364 -0.312583,-0.0669 -0.473569,-0.0922 -0.160988,-0.0253 -0.325923,-0.0448 -0.496498,-0.059 -0.170578,-0.0143 -0.34648,-0.0238 -0.530393,-0.027 -0.09195,-0.002 -0.186198,-0.002 -0.282144,-9.7e-4 z"
     style="fill:url(#radialGradient3013);fill-opacity:1;stroke:url(#radialGradient3015);stroke-width:0.03154058"
     inkscape:connector-curvature="0" />
  <path
     id="path2393"
     d="m 4.8877625,293.39595 c -0.00384,0.005 -0.00857,0.0103 -0.012208,0.0156 -0.023005,0.0334 -0.041989,0.0669 -0.056983,0.1 -0.014999,0.0332 -0.025559,0.0661 -0.032561,0.099 -0.00701,0.0329 -0.010136,0.0663 -0.00916,0.099 9.703e-4,0.0327 0.0053,0.0653 0.014244,0.0979 0.00895,0.0326 0.021763,0.0653 0.038665,0.0979 0.016901,0.0326 0.038245,0.0653 0.063089,0.0979 0.026211,0.0344 0.046005,0.0616 0.058,0.0865 0.011987,0.0248 0.015665,0.047 0.012208,0.0708 -0.00343,0.0239 -0.014465,0.0499 -0.034597,0.0812 -0.020132,0.0313 -0.048457,0.0683 -0.08649,0.11563 -0.037162,0.0462 -0.066211,0.0833 -0.086494,0.11666 -0.020287,0.0334 -0.032638,0.0626 -0.03765,0.0927 -0.00503,0.0302 -0.00256,0.0613 0.0061,0.0979 0.00865,0.0367 0.024042,0.0786 0.044774,0.13125 0.016537,0.0421 0.028832,0.0808 0.03765,0.11562 0.00881,0.0348 0.0141,0.0665 0.015264,0.0959 0.00118,0.0294 -0.00175,0.0566 -0.00814,0.0823 -0.00642,0.0257 -0.016599,0.05 -0.030525,0.0739 -0.030027,0.0516 -0.050411,0.10326 -0.062073,0.15522 -0.011664,0.0519 -0.014582,0.10386 -0.00814,0.15416 0.00644,0.0504 0.021498,0.0992 0.04579,0.14584 0.024293,0.0467 0.05784,0.0913 0.09972,0.13229 0.031694,0.031 0.056563,0.0576 0.07428,0.0812 0.017712,0.0236 0.027838,0.0442 0.032561,0.0646 0.00472,0.0204 0.00323,0.0399 -0.00406,0.0614 -0.00729,0.0215 -0.019353,0.0449 -0.03765,0.0719 -0.017635,0.026 -0.030736,0.0494 -0.038665,0.073 -0.00794,0.0235 -0.011275,0.0476 -0.00916,0.0729 0.00211,0.0252 0.00987,0.0521 0.022385,0.0833 0.012511,0.0313 0.029648,0.0659 0.052912,0.10729 0.025314,0.045 0.045051,0.0824 0.058003,0.11354 0.012951,0.0312 0.019543,0.0566 0.020354,0.0802 8.207e-4,0.0236 -0.00516,0.0452 -0.01628,0.0677 -0.011125,0.0225 -0.028047,0.0452 -0.050878,0.0729 -0.021261,0.0258 -0.039261,0.0525 -0.053931,0.0781 -0.014676,0.0256 -0.025483,0.0507 -0.033577,0.0761 -0.0081,0.0254 -0.012711,0.0509 -0.014245,0.0761 -0.00154,0.025 6.31e-5,0.0493 0.00507,0.0739 0.00503,0.0246 0.012875,0.0498 0.024421,0.0739 0.011542,0.0242 0.026709,0.0471 0.044774,0.0708 0.036127,0.0472 0.085435,0.0938 0.1475476,0.13853 0.050175,0.0361 0.088298,0.0657 0.117017,0.0917 0.028715,0.0259 0.047914,0.0479 0.058003,0.0698 0.010089,0.0218 0.011823,0.0438 0.0061,0.0677 -0.00572,0.024 -0.018948,0.0502 -0.03765,0.0823 -0.018425,0.0316 -0.030833,0.0584 -0.036634,0.0834 -0.0058,0.0248 -0.00515,0.0473 0.00406,0.0719 0.00922,0.0245 0.026283,0.0508 0.052913,0.0812 0.026631,0.0305 0.062447,0.0657 0.1088805,0.10833 0.040122,0.0369 0.080534,0.0676 0.1221065,0.0948 0.041568,0.0272 0.084755,0.0506 0.1322822,0.0698 0.047524,0.0192 0.098718,0.0348 0.1567035,0.0479 0.057983,0.0131 0.1224225,0.0234 0.1953708,0.0323 0.085237,0.0104 0.1568338,0.0225 0.2228426,0.0396 0.066007,0.0172 0.1270076,0.0401 0.1913007,0.073 0.06429,0.0328 0.1315625,0.0759 0.2116512,0.13333 0.080086,0.0574 0.1725385,0.12875 0.2859349,0.21979 0.1431123,0.11489 0.2764818,0.23397 0.3754766,0.33334 0.049498,0.0497 0.090564,0.0944 0.1200716,0.13125 0.029504,0.0368 0.047333,0.0665 0.050878,0.0844 0.00654,0.0331 0.018219,0.0656 0.034597,0.099 0.016378,0.0334 0.037024,0.0671 0.062072,0.1 0.025042,0.0328 0.053949,0.0655 0.086491,0.0968 0.03254,0.0313 0.068991,0.0616 0.1078607,0.0906 0.077734,0.058 0.1665011,0.10971 0.262529,0.15313 0.048011,0.0217 0.097731,0.0416 0.1485633,0.0583 0.050826,0.0168 0.1032043,0.0308 0.1556879,0.0416 0.04461,0.01 0.1029925,0.0158 0.1709489,0.0209 0.067954,0.005 0.1456196,0.009 0.2299678,0.01 0.1686924,0.002 0.3630245,-0.004 0.5555849,-0.0145 0.1925578,-0.0111 0.3835779,-0.0279 0.5443909,-0.0489 0.080407,-0.0106 0.1526596,-0.0219 0.2147054,-0.0343 0.06204,-0.0124 0.1138652,-0.0256 0.1505982,-0.0396 0.07421,-0.0282 0.169953,-0.0803 0.265581,-0.14166 0.09562,-0.0613 0.190629,-0.13211 0.261513,-0.19687 0.172502,-0.15766 0.352253,-0.31523 0.528109,-0.46459 0.175854,-0.14936 0.347476,-0.29081 0.504708,-0.41459 0.157231,-0.12377 0.300571,-0.22953 0.417198,-0.31041 0.116626,-0.0809 0.206451,-0.1366 0.260494,-0.15729 0.06617,-0.0253 0.166456,-0.0538 0.273724,-0.0792 0.107268,-0.0254 0.221915,-0.0482 0.318493,-0.0614 0.08949,-0.0122 0.157821,-0.022 0.220812,-0.0407 0.0315,-0.01 0.06209,-0.0208 0.09259,-0.0354 0.03051,-0.0147 0.06136,-0.0325 0.09463,-0.0552 0.06654,-0.0453 0.142045,-0.1095 0.242179,-0.20209 0.100134,-0.0926 0.224931,-0.21365 0.388706,-0.37396 0.0666,-0.0652 0.117522,-0.11609 0.155685,-0.16041 0.03816,-0.0443 0.0638,-0.0822 0.07937,-0.11979 0.01557,-0.0376 0.02152,-0.0749 0.02036,-0.11979 -0.0012,-0.0449 -0.0093,-0.0972 -0.02136,-0.16355 -0.02845,-0.15638 -0.05105,-0.3306 -0.04986,-0.38646 0.0016,-0.0805 0.007,-0.16191 0.01526,-0.24166 0.0082,-0.0798 0.01905,-0.15742 0.03256,-0.22917 0.01352,-0.0718 0.02942,-0.13823 0.04681,-0.19479 0.01739,-0.0566 0.03708,-0.10332 0.05698,-0.1375 0.01803,-0.031 0.03165,-0.0585 0.0407,-0.0854 0.009,-0.0269 0.01315,-0.0533 0.01323,-0.0802 6.3e-5,-0.027 -0.0044,-0.0553 -0.01323,-0.0865 -0.0088,-0.0312 -0.02188,-0.0646 -0.03969,-0.10417 -0.01711,-0.0379 -0.0299,-0.0725 -0.03867,-0.10417 -0.0087,-0.0317 -0.01377,-0.0609 -0.01424,-0.0896 -4.78e-4,-0.0286 0.0034,-0.0566 0.01119,-0.0854 0.0078,-0.0288 0.01967,-0.0584 0.03561,-0.0906 0.01662,-0.0336 0.02821,-0.0641 0.03561,-0.0928 0.0074,-0.0285 0.01029,-0.0554 0.0082,-0.0833 -0.0021,-0.0279 -0.0093,-0.056 -0.02136,-0.0875 -0.01203,-0.0315 -0.02863,-0.0666 -0.05088,-0.10625 -0.02519,-0.0448 -0.04439,-0.0806 -0.05699,-0.1125 -0.01259,-0.0318 -0.01934,-0.06 -0.01934,-0.0875 -3e-6,-0.0276 0.0068,-0.0546 0.01934,-0.0865 0.01258,-0.0318 0.03181,-0.0677 0.05699,-0.11249 0.03439,-0.0611 0.06043,-0.1205 0.07835,-0.17604 0.01793,-0.0556 0.02707,-0.1075 0.02951,-0.15626 0.0024,-0.0487 -0.0021,-0.0936 -0.01424,-0.13437 -0.01,-0.0337 -0.02549,-0.0651 -0.04477,-0.0928 l -9.4754753,0 z"
     style="fill:url(#linearGradient3017);fill-opacity:1"
     inkscape:connector-curvature="0" />
  <path
     transform="matrix(0.03031123,0.01812134,-0.01667957,0.03293128,-17.042502,235.82393)"
     d="m 1470.1689,476.14212 a 207.33151,140.01608 0 1 1 -414.663,0 207.33151,140.01608 0 1 1 414.663,0 z"
     sodipodi:ry="140.01608"
     sodipodi:rx="207.33151"
     sodipodi:cy="476.14212"
     sodipodi:cx="1262.8374"
     id="path4367"
     style="fill:url(#radialGradient3019);fill-opacity:1"
     sodipodi:type="arc" />
  <path
     id="path2223"
     d="m 8.1398875,299.96928 c -0.4198352,-0.0874 -0.8056464,-0.37518 -0.8579603,-0.64 -0.014167,-0.0717 -0.2599438,-0.31843 -0.5461684,-0.54821 -0.4535757,-0.36413 -0.5706452,-0.42391 -0.9115863,-0.46549 -0.2917894,-0.0356 -0.4458426,-0.098 -0.6063168,-0.2455 -0.1857258,-0.17075 -0.2034656,-0.21785 -0.1297654,-0.34445 0.07482,-0.12854 0.057071,-0.16703 -0.1436268,-0.31143 -0.2484366,-0.17876 -0.289451,-0.38053 -0.1193418,-0.58709 0.091333,-0.11091 0.089854,-0.15433 -0.011403,-0.33435 -0.093048,-0.16544 -0.098692,-0.2329 -0.028165,-0.33673 0.073189,-0.10775 0.062196,-0.15531 -0.064586,-0.27938 -0.1675173,-0.16394 -0.1953512,-0.38126 -0.075253,-0.58757 0.055729,-0.0958 0.051656,-0.19899 -0.014485,-0.36715 -0.082902,-0.21077 -0.075676,-0.25427 0.072971,-0.43912 0.1521384,-0.18918 0.1561337,-0.21678 0.051305,-0.35438 -0.1987443,-0.26086 -0.1435457,-0.52017 0.168891,-0.79342 l 0.2825748,-0.24713 0.04659,-0.70309 c 0.025626,-0.3867 0.013875,-1.00962 -0.026113,-1.38426 -0.077904,-0.72986 -0.4894138,-2.60256 -0.5952783,-2.70898 -0.035192,-0.0354 -0.063987,-0.11272 -0.063987,-0.17187 0,-0.13606 -0.1665534,-0.42621 -0.6611605,-1.15178 -0.2157702,-0.31653 -0.5798211,-0.86495 -0.8090036,-1.21872 -0.229183,-0.35376 -0.5709186,-0.82934 -0.7594155,-1.05684 -0.3560075,-0.42969 -0.7510505,-1.07877 -1.0462716,-1.71912 -0.094425,-0.20481 -0.32656801,-0.69037 -0.51586914,-1.079 -0.40792081,-0.83747 -0.59171255,-1.47892 -0.69683166,-2.43197 -0.28739053,-2.60556 0.19618787,-4.52702 1.5637817,-6.21357 0.6238998,-0.76942 1.7871007,-1.81311 2.48291,-2.22783 1.1435995,-0.68161 1.9855623,-0.97644 3.350773,-1.17335 2.2435258,-0.32358 3.5002834,-0.30213 4.7499974,0.081 2.802625,0.85926 4.816352,1.99523 5.865576,3.30882 0.473311,0.59258 0.927146,1.84648 1.236493,3.41629 0.246414,1.25046 0.247232,2.03998 0.0033,3.22151 -0.282311,1.36761 -0.368234,1.61436 -0.885505,2.54296 -0.526791,0.9457 -0.699232,1.1649 -1.661811,2.11238 -0.359401,0.35376 -0.709729,0.71939 -0.778506,0.81247 -0.06877,0.0932 -0.251387,0.30304 -0.405801,0.46656 -0.154414,0.1635 -0.280754,0.32235 -0.280754,0.35299 0,0.0307 -0.1808,0.40413 -0.401773,0.82997 -0.220972,0.42583 -0.424837,0.8611 -0.453026,0.96727 -0.02819,0.10617 -0.143018,0.4063 -0.255167,0.66697 -0.18556,0.43131 -0.65498,2.00921 -0.812071,2.7297 -0.03505,0.16075 -0.07865,0.31447 -0.09688,0.3416 -0.04954,0.0737 -0.07337,1.69672 -0.02556,1.74068 0.02269,0.0209 0.179888,0.004 0.349339,-0.0383 0.559555,-0.13852 0.826886,0.19099 0.551779,0.6801 -0.100717,0.17906 -0.100715,0.22044 3.1e-5,0.39959 0.08897,0.15818 0.0949,0.23517 0.0284,0.36933 -0.06377,0.12867 -0.06229,0.21767 0.0061,0.36952 0.07125,0.15816 0.07103,0.23282 -0.0011,0.35667 -0.0796,0.13676 -0.144493,0.48126 -0.151344,0.80353 -0.0012,0.0559 0.02111,0.22951 0.04957,0.38589 0.04829,0.26542 0.03276,0.3029 -0.233631,0.56364 -0.655101,0.64118 -0.680864,0.65873 -1.038818,0.70784 -0.193157,0.0265 -0.459473,0.0897 -0.591814,0.14033 -0.216168,0.0828 -1.020925,0.71631 -1.710929,1.34689 -0.141764,0.12955 -0.379179,0.28173 -0.527592,0.33817 -0.2938406,0.11176 -1.5089383,0.18174 -1.8658158,0.10746 z m 2.5282595,-0.90991 c 0.228247,-0.10852 0.931005,-0.77506 0.873202,-0.82821 -0.02083,-0.0191 -0.885811,-0.0127 -1.9221866,0.0143 -1.5099254,0.0393 -1.884314,0.0672 -1.884314,0.14081 0,0.0505 0.036731,0.0917 0.081626,0.0917 0.051548,0 0.06356,0.0662 0.032597,0.1796 -0.047539,0.17413 -0.043867,0.17651 0.1208924,0.078 0.5003668,-0.29901 0.5035255,-0.29988 0.6098038,-0.16821 0.092482,0.11459 0.115327,0.11578 0.3232504,0.0169 0.1230576,-0.0585 0.2750949,-0.10637 0.3378609,-0.10637 0.1836645,0 0.1312307,0.19055 -0.0805,0.29255 -0.1338743,0.0645 -0.1666022,0.10967 -0.1048518,0.14476 0.053359,0.0303 0.2084732,-0.0367 0.3824442,-0.16523 0.3278645,-0.24224 0.5716455,-0.24024 0.4297434,0.004 -0.1266027,0.21749 -0.052366,0.21599 0.2752621,-0.006 0.242894,-0.16423 0.314201,-0.18516 0.380516,-0.1117 0.06232,0.0691 0.03814,0.12795 -0.102371,0.2493 -0.136834,0.11819 -0.160187,0.1728 -0.09114,0.2131 0.119838,0.07 0.104426,0.0717 0.338158,-0.0394 z m -2.1968652,-0.21303 c 0,-0.0164 -0.033141,-0.0299 -0.073645,-0.0299 -0.040502,0 -0.073642,0.0322 -0.073642,0.0717 0,0.0395 0.033141,0.0529 0.073642,0.0299 0.040506,-0.023 0.073645,-0.0553 0.073645,-0.0717 z m -1.3684247,-0.34177 c 0.1776375,-0.0627 0.1388369,-0.16203 -0.063274,-0.16203 -0.2005508,0 -0.3137913,0.10504 -0.1705031,0.15814 0.050884,0.0189 0.098089,0.0367 0.1049012,0.0397 0.00681,0.003 0.064807,-0.0131 0.1288763,-0.0358 z m 1.0002062,-0.46314 c 0.5873069,-0.0211 1.6853098,-0.0525 2.4400067,-0.0699 0.754701,-0.0174 1.616327,-0.0656 1.91473,-0.1071 0.612079,-0.0852 0.941562,-0.23167 0.804452,-0.35767 -0.113797,-0.10457 -3.119398,-0.0782 -5.5274036,0.0483 -0.9923461,0.0522 -1.9202524,0.0907 -2.0620167,0.0857 -0.2148685,-0.008 -0.2616632,0.0161 -0.2812686,0.14299 -0.028448,0.18413 0.3152629,0.34179 0.5070098,0.23257 0.072215,-0.0411 0.1612487,-0.042 0.2383651,-0.003 0.077979,0.0401 0.1745928,0.038 0.26362,-0.006 0.1056239,-0.052 0.1639585,-0.0432 0.234852,0.0353 0.054003,0.0598 0.1596206,0.0898 0.2470753,0.0702 0.084013,-0.0188 0.6332741,-0.0514 1.220578,-0.0725 z m -1.399222,-0.74834 c 0.1188345,-0.13163 0.2945737,-0.13068 0.2945737,0.002 0,0.0871 0.094546,0.0973 0.6075572,0.0655 0.3341554,-0.0208 0.7525252,-0.0518 0.9297067,-0.0692 0.177179,-0.0174 1.4033405,-0.0506 2.7248021,-0.0737 1.420198,-0.0249 2.4403,-0.07 2.494714,-0.11 0.108404,-0.0799 0.123535,-0.43156 0.02106,-0.48978 -0.03904,-0.0222 -0.279304,0.01 -0.533915,0.0709 -0.517475,0.1244 -0.997386,0.13218 -4.9551724,0.0802 -1.4110938,-0.0185 -2.6539112,-0.005 -2.8476473,0.0301 -0.3591665,0.0658 -0.4929238,0.20693 -0.3480953,0.36737 0.097073,0.10753 0.4774142,0.12518 0.5445791,0.0253 0.07019,-0.10441 0.1841113,-0.0802 0.1841113,0.0392 0,0.0829 0.048252,0.0972 0.2139175,0.0637 0.1227124,-0.0247 0.2344612,-0.0126 0.2620997,0.0284 0.070281,0.10455 0.3016522,0.0876 0.4077023,-0.0299 z m 6.5518977,-0.86814 c 0.412916,-0.10399 0.7305,-0.35141 0.602322,-0.46927 -0.04252,-0.0391 -0.23313,-0.0299 -0.500032,0.0243 -0.326569,0.0662 -1.362913,0.0845 -4.2670417,0.0753 -4.0335932,-0.0128 -4.1765424,-0.003 -4.0583983,0.28015 0.05092,0.122 0.3099492,0.15155 0.3824933,0.0437 0.065856,-0.098 0.1841076,-0.0832 0.1841076,0.0231 0,0.12195 0.6720231,0.11033 0.8355482,-0.0145 0.1027128,-0.0784 0.1272743,-0.0743 0.1698716,0.0277 0.045543,0.10911 0.1478857,0.11618 1.1975765,0.0827 0.6312783,-0.0202 1.5454503,-0.0125 2.0314962,0.0169 1.2579136,0.0762 2.9374926,0.032 3.4220566,-0.09 z M 6.5352172,295.702 c 0.049883,-0.17538 0.1686241,-0.17538 0.1686241,0 0,0.13303 0.048908,0.13541 2.7800367,0.1349 1.529019,-2.9e-4 3.05195,-0.0292 3.384285,-0.0644 0.685136,-0.0725 1.075372,-0.2216 1.036077,-0.39603 -0.0295,-0.1309 -0.08769,-0.12949 -0.64614,0.0156 -0.471195,0.12239 -1.605308,0.1375 -2.872091,0.0382 -2.0810365,-0.16303 -2.787181,-0.1851 -4.5895042,-0.14338 -0.828574,0.0192 -0.9337485,0.0435 -0.9337485,0.21582 0,0.21038 0.2268317,0.27432 0.380104,0.10714 l 0.1328223,-0.14488 0.046698,0.15234 c 0.053349,0.17404 0.1169941,0.18713 0.32918,0.0677 0.1268902,-0.0714 0.1618062,-0.0662 0.2235883,0.0339 0.1061938,0.17184 0.5098398,0.15965 0.5600659,-0.0169 z m 6.8811368,-0.57498 c 0.452764,-0.14567 0.618918,-0.31183 0.505921,-0.50594 -0.05196,-0.0893 -0.131448,-0.1315 -0.208388,-0.11076 -1.042768,0.28117 -1.734513,0.33181 -3.3647,0.24631 -0.7290674,-0.0382 -1.7729656,-0.0865 -2.3197654,-0.10703 -1.3996319,-0.0528 -1.7504885,-0.0783 -2.1910587,-0.15938 -0.4537516,-0.0835 -0.8069367,-0.0347 -0.8994412,0.12414 -0.1074832,0.18465 0.021887,0.29586 0.2828513,0.24317 0.1819451,-0.0368 0.2301304,-0.0241 0.2301304,0.0605 0,0.13776 0.1750195,0.13781 0.2993276,1.3e-4 0.086422,-0.0958 0.1098534,-0.0905 0.2257181,0.0507 0.125776,0.15329 0.1350658,0.15443 0.342566,0.0417 0.160624,-0.0872 0.2341775,-0.0966 0.2978975,-0.038 0.052194,0.0479 0.4446865,0.0859 1.0244718,0.0989 0.5169248,0.0116 1.5695132,0.065 2.3390852,0.11871 1.6663684,0.11618 2.9513494,0.0926 3.4353844,-0.0632 z m -0.600114,-0.65574 c 0.588691,-0.0684 0.642415,-0.0886 0.90213,-0.33791 0.151891,-0.14583 0.276163,-0.3288 0.276163,-0.40661 0,-0.12563 -0.03091,-0.13689 -0.276163,-0.10047 -0.151887,0.0226 -0.457365,0.0875 -0.678837,0.14433 -0.461593,0.11843 -1.093028,0.13075 -1.990733,0.0388 -1.4006541,-0.14339 -2.390933,-0.20641 -3.7558119,-0.23898 -0.7898248,-0.0188 -1.6074997,-0.0464 -1.8170542,-0.0611 -0.3636013,-0.0256 -0.3851185,-0.0178 -0.4709055,0.17263 -0.1309147,0.29058 0.00441,0.39692 0.3004609,0.23614 0.2456232,-0.1334 0.3673424,-0.10183 0.3673424,0.0953 0,0.15507 0.059996,0.16223 0.2501919,0.0299 0.1725414,-0.12009 0.2863902,-0.0662 0.2265255,0.10723 -0.054808,0.15877 0.124288,0.17818 0.2597191,0.0281 0.1304458,-0.14451 0.2945731,-0.12564 0.2945731,0.0339 0,0.2173 0.3370048,0.17987 0.4572458,-0.0507 0.053385,-0.10241 0.1463259,-0.18619 0.2065358,-0.18619 0.1025571,0 0.1053541,0.0398 0.021743,0.30936 -0.028863,0.0931 0.2030813,0.11673 1.8684725,0.19056 1.0457865,0.0464 1.9842755,0.0922 2.0855365,0.10176 0.222178,0.0211 0.638106,-0.009 1.472866,-0.10591 z m 0.03915,-0.88155 c 0.02824,-0.026 0.06855,-0.45254 0.0896,-0.94789 0.03307,-0.77833 0.08584,-1.07537 0.38855,-2.18707 0.192658,-0.70753 0.469905,-1.56759 0.616107,-1.91125 0.146204,-0.34365 0.265822,-0.66956 0.265822,-0.72424 0,-0.18776 1.015898,-2.03634 1.29957,-2.36478 0.156068,-0.1807 0.57637,-0.61275 0.934002,-0.96011 0.917092,-0.89079 1.348451,-1.4484 1.837087,-2.37479 0.393438,-0.74591 0.444484,-0.89935 0.6812,-2.04746 0.305803,-1.48319 0.314458,-1.88732 0.06977,-3.2581 -0.248472,-1.392 -0.641425,-2.59766 -1.041775,-3.19638 -0.423688,-0.63362 -1.604099,-1.59773 -2.527918,-2.06471 -0.222772,-0.11261 -0.564094,-0.28897 -0.758497,-0.39189 -0.386626,-0.20473 -1.423143,-0.58833 -2.6291,-0.97301 l -0.773254,-0.24665 -1.4365383,0.004 c -2.3194596,0.006 -3.8457211,0.33289 -5.2751276,1.13074 -0.6720588,0.37512 -1.7442659,1.22394 -2.2634277,1.79186 -0.4145274,0.45346 -0.4789219,0.5591 -0.3407949,0.5591 0.1814344,0 0.042876,0.21012 -0.2945731,0.44673 -0.4050617,0.28399 -0.487941,0.42615 -0.1566257,0.26863 0.2022837,-0.0962 0.3039123,-0.0823 0.3039123,0.0415 0,0.0315 -0.1822679,0.16445 -0.4050386,0.29547 -0.2227713,0.13102 -0.4050391,0.25175 -0.4050391,0.26829 0,0.0166 0.1038588,0.011 0.2307946,-0.0123 0.327854,-0.0603 0.2492306,0.0981 -0.1571498,0.31664 -0.29962351,0.16111 -0.52039591,0.40946 -0.28621126,0.32197 0.0561558,-0.021 0.16009612,-0.0596 0.23097666,-0.0858 0.2537117,-0.0937 0.131641,0.15033 -0.1656968,0.33124 -0.35163474,0.21395 -0.37165055,0.27133 -0.0736417,0.21116 0.29480751,-0.0596 0.28053241,0.0437 -0.0368237,0.26623 -0.2783608,0.1952 -0.35779873,0.36327 -0.1153045,0.24395 0.43180453,-0.21246 0.49875513,0.0386 0.0784833,0.29425 -0.29677111,0.18057 -0.41005361,0.37092 -0.1656969,0.27843 0.32850902,-0.12433 0.40197171,-0.12284 0.37477639,0.008 -0.0146905,0.0704 -0.150198,0.1891 -0.30113156,0.26358 -0.26782713,0.13216 -0.3970286,0.28383 -0.30996536,0.36389 0.0238208,0.0219 0.14577906,-0.0143 0.27101862,-0.0803 0.16688536,-0.0881 0.24922087,-0.10003 0.30823265,-0.0448 0.0799098,0.0748 0.0558731,0.10019 -0.46194377,0.48843 -0.0864323,0.0648 -0.15714983,0.14859 -0.15714983,0.18619 0,0.10338 0.19069125,0.0819 0.29457318,-0.0332 0.0504217,-0.0559 0.13732945,-0.10156 0.19312717,-0.10156 0.19277581,0 0.1003524,0.19272 -0.20382702,0.42502 -0.35904875,0.2742 -0.33592661,0.45593 0.0317815,0.24981 0.28188722,-0.15802 0.34713472,-0.16504 0.34713472,-0.0373 0,0.0527 -0.1325591,0.1924 -0.2945731,0.31037 -0.16201813,0.11797 -0.29457369,0.25764 -0.29457369,0.31037 0,0.12286 0.0377521,0.1206 0.26412168,-0.0157 0.14561646,-0.0877 0.20420456,-0.0939 0.27357406,-0.029 0.0689237,0.0645 0.0277447,0.12749 -0.18789113,0.28745 -0.15189069,0.11268 -0.27616286,0.26285 -0.27616286,0.33371 0,0.16183 0.0623495,0.16044 0.29457317,-0.007 0.1012608,-0.0729 0.2255329,-0.13307 0.27616333,-0.1339 0.1816389,-0.003 0.086735,0.18288 -0.20251799,0.39659 -0.28658622,0.21174 -0.35254625,0.36107 -0.23478377,0.5315 0.0418043,0.0605 0.13350348,0.0257 0.33540289,-0.1273 0.20471587,-0.15515 0.29952917,-0.19066 0.36015917,-0.13492 0.06063,0.0558 -0.00858,0.15236 -0.2628875,0.36702 -0.34547743,0.29161 -0.43337779,0.45514 -0.24464648,0.45514 0.0552966,0 0.18479454,-0.0609 0.28778078,-0.13541 0.1935735,-0.14 0.3481211,-0.17594 0.3481211,-0.081 0,0.03 -0.1159882,0.15779 -0.257752,0.28411 -0.1417642,0.12633 -0.25775244,0.28464 -0.25775244,0.35181 0,0.16166 0.0474979,0.15439 0.30800484,-0.0471 0.3723045,-0.28802 0.4326899,-0.16543 0.1218722,0.24742 -0.1380036,0.18329 -0.1836061,0.46348 -0.07544,0.46348 0.032926,0 0.1551145,-0.0914 0.2715327,-0.20312 0.1843744,-0.17693 0.4050355,-0.26945 0.4050355,-0.16984 0,0.0183 -0.1172778,0.17452 -0.2606209,0.34717 -0.2931698,0.35311 -0.2882984,0.45158 0.011607,0.2347 0.2821411,-0.20405 0.4069861,-0.0762 0.1895941,0.19413 -0.2200395,0.27362 -0.2033747,0.38184 0.032531,0.21124 0.22861,-0.16533 0.3634676,-0.17838 0.4209231,-0.0407 0.043979,0.10537 -0.091011,0.26148 -0.3261325,0.37717 -0.077849,0.0383 -0.1415428,0.11428 -0.1415428,0.16882 0,0.13227 0.051237,0.12521 0.2771626,-0.0381 0.2730894,-0.19749 0.3920926,-0.0633 0.1789204,0.20186 -0.2561471,0.31853 -0.1783572,0.4853 0.096243,0.20632 0.2707903,-0.27509 0.3692668,-0.0502 0.1104628,0.25236 -0.2540307,0.29691 -0.1409174,0.52313 0.1635446,0.32708 0.300552,-0.19355 0.3763589,-0.12998 0.196289,0.16458 -0.1802228,0.29481 -0.1424158,0.41616 0.088372,0.28365 0.2240183,-0.12862 0.3087082,-0.031 0.1659087,0.19127 -0.1045431,0.16271 -0.1088897,0.21149 -0.026939,0.30227 0.088545,0.0981 0.1139437,0.0942 0.2704872,-0.0409 0.2230159,-0.19262 0.3119226,-0.11005 0.1510638,0.14031 -0.1319401,0.20535 -0.1677681,0.47834 -0.062775,0.47834 0.034229,0 0.1222107,-0.0609 0.1955206,-0.13541 0.1225071,-0.12445 0.3313974,-0.18626 0.3313974,-0.0981 0,0.0206 -0.07327,0.15441 -0.1628184,0.29746 -0.1397228,0.22321 -0.1485535,0.2759 -0.062252,0.3715 0.092045,0.10197 0.117112,0.0968 0.2957261,-0.0605 0.107333,-0.0945 0.2181965,-0.17189 0.2463556,-0.17189 0.1096715,0 0.043569,0.25619 -0.096083,0.37238 -0.1453979,0.12098 -0.204084,0.37239 -0.086924,0.37239 0.033202,0 0.1323997,-0.0762 0.2204431,-0.16927 0.2988521,-0.316 0.4225872,-0.15995 0.1610543,0.20312 -0.264532,0.36723 -0.1172977,0.61088 0.1841103,0.30468 0.2738316,-0.27819 0.3639529,-0.0565 0.1102089,0.27115 -0.081148,0.10477 -0.1273102,0.23897 -0.1025862,0.2982 0.056706,0.13586 0.09524,0.13502 0.2644797,-0.006 0.2123979,-0.17672 0.3202392,-0.0192 0.1350469,0.19721 -0.1453133,0.16984 -0.2052822,0.46012 -0.094165,0.45579 0.030376,-9.7e-4 0.1195603,-0.0469 0.1981839,-0.10157 0.2902102,-0.2018 0.3647542,-0.0345 0.1147998,0.25761 -0.1325325,0.1549 -0.2047675,0.45547 -0.1094658,0.45547 0.0208,0 0.1021432,-0.037 0.1807598,-0.0821 0.2326833,-0.13359 0.2582804,-0.007 0.049442,0.24498 -0.3089172,0.37235 -0.2227682,0.66095 0.1023251,0.34281 0.3579644,-0.35032 0.4096596,-0.0696 0.06624,0.35975 -0.239453,0.29936 -0.2339697,0.51845 0.00794,0.31718 0.074436,-0.0619 0.1691162,-0.0934 0.210405,-0.07 0.092009,0.0523 0.037485,0.19638 -0.2012613,0.53192 -0.121983,0.17143 -0.15811,0.27916 -0.1088185,0.32447 0.049293,0.0453 0.1050869,0.0332 0.168058,-0.0366 0.09778,-0.10832 0.2971655,-0.1435 0.2971655,-0.0524 0,0.0285 -0.082851,0.16407 -0.1841108,0.30107 -0.1012577,0.13701 -0.1841077,0.31637 -0.1841077,0.39861 0,0.14054 0.00807,0.14278 0.1346756,0.0375 0.074071,-0.0616 0.1569184,-0.11206 0.1841076,-0.11206 0.115161,0 0.035557,0.29659 -0.1346755,0.50178 -0.1012577,0.12206 -0.1841077,0.27768 -0.1841077,0.34582 0,0.11334 0.014521,0.11135 0.1704447,-0.0233 0.093742,-0.081 0.193163,-0.14723 0.2209283,-0.14723 0.1210258,0 0.033023,0.26793 -0.1683929,0.51267 -0.218695,0.26573 -0.3194705,0.55102 -0.1346073,0.38106 0.1540497,-0.14163 0.2870514,-0.0947 0.2642191,0.0933 -0.019764,0.16267 0.00246,0.17628 0.3286101,0.20104 0.3436411,0.0261 0.3498046,0.0231 0.3498046,-0.17008 0,-0.10815 0.033987,-0.27881 0.075521,-0.37926 0.041538,-0.10044 0.089786,-0.78033 0.1072196,-1.51086 0.017435,-0.73054 0.053613,-2.04425 0.080402,-2.91935 0.053757,-1.75607 -0.0083,-2.40183 -0.2959996,-3.08064 -0.094703,-0.22342 -0.2641797,-0.63475 -0.3766158,-0.91403 -0.1124387,-0.27929 -0.5618925,-1.16286 -0.998787,-1.96349 -0.7495165,-1.37352 -0.9231004,-1.74075 -1.3567316,-2.87034 -0.098555,-0.25673 -0.2632394,-0.59863 -0.3659687,-0.7598 -0.1737167,-0.27252 -0.183303,-0.33222 -0.1370782,-0.8535 0.048257,-0.54424 0.058699,-0.5688 0.3604198,-0.84822 0.336141,-0.31129 0.5547027,-0.35913 0.8302043,-0.18172 0.3962931,0.2552 0.700482,1.21967 0.4981402,1.57941 -0.1422593,0.25292 -0.3741999,0.32806 -0.5531208,0.17919 -0.1982585,-0.16495 -0.3246666,-0.63993 -0.2307521,-0.86702 0.1197101,-0.28949 0.2274898,-0.21793 0.2274898,0.15101 0,0.33415 0.1112734,0.47633 0.3727898,0.47633 0.248469,0 -0.2357537,-1.23731 -0.516257,-1.31915 -0.1846222,-0.0539 -0.4613189,0.0915 -0.6332419,0.33274 -0.099643,0.13982 -0.1027324,0.20403 -0.021949,0.45609 0.051708,0.16134 0.098568,0.46092 0.1041327,0.66573 0.00594,0.21844 0.094425,0.58231 0.2140545,0.88018 0.1121658,0.2793 0.2203456,0.59243 0.2403968,0.69587 0.020056,0.10344 0.096152,0.21744 0.1691033,0.25333 0.072955,0.0359 0.1562445,0.16406 0.1850874,0.28479 0.028843,0.12074 0.3522729,0.7532 0.7187266,1.40547 0.366457,0.65227 0.7481884,1.33772 0.8482863,1.52322 0.1001016,0.18551 0.3351064,0.52094 0.5222292,0.74539 0.8646064,1.03712 0.9065851,1.27596 0.797441,4.53695 -0.027421,0.81925 -0.068312,2.05319 -0.090873,2.74211 -0.022564,0.6889 -0.058419,1.35179 -0.079683,1.47309 -0.033458,0.19083 -0.012772,0.22957 0.1536758,0.28774 0.1057829,0.037 0.4635785,0.0673 0.7950994,0.0673 0.3315179,2e-5 0.9648871,0.0316 1.4074829,0.0702 0.9680098,0.0844 1.0159828,0.0604 1.0481278,-0.52524 0.01182,-0.21525 0.05592,-0.92454 0.09801,-1.57622 0.04209,-0.65168 0.09174,-1.48954 0.110335,-1.86192 0.01859,-0.37239 0.05337,-1.07315 0.07726,-1.55725 0.04782,-0.96848 0.171406,-1.53039 0.385187,-1.75135 0.07685,-0.0795 0.3745,-0.57096 0.661453,-1.09231 0.286954,-0.52133 0.635147,-1.12079 0.773759,-1.33212 0.350476,-0.53433 1.592388,-3.36729 1.716979,-3.91667 0.05642,-0.24878 0.150791,-0.53776 0.209707,-0.64216 0.05892,-0.10441 0.129994,-0.39075 0.157948,-0.63631 0.02795,-0.24557 0.11577,-0.56472 0.195149,-0.70923 0.210001,-0.38231 0.264118,-1.18267 0.09592,-1.41867 -0.09015,-0.1265 -0.192212,-0.1805 -0.341101,-0.1805 -0.234054,0 -0.255969,0.0432 -0.110938,0.21879 0.133503,0.16164 0.09199,0.95883 -0.06112,1.17366 -0.137037,0.19229 -0.375132,0.21268 -0.622604,0.0533 -0.160087,-0.10309 -0.178189,-0.10315 -0.240473,-9.7e-4 -0.09213,0.15135 -0.321371,0.25556 -0.456965,0.20772 -0.141338,-0.0499 -0.358434,-0.63912 -0.327224,-0.88817 0.01398,-0.11159 0.07436,-0.19668 0.148772,-0.20965 0.1054,-0.0183 0.128733,0.0459 0.147287,0.40566 0.01938,0.37559 0.03993,0.42748 0.169334,0.42748 0.198848,0 0.227139,-0.26934 0.07788,-0.7414 -0.143203,-0.45288 -0.273486,-0.57886 -0.598638,-0.57886 -0.172646,0 -0.252491,-0.0313 -0.252491,-0.0992 0,-0.1619 0.274646,-0.25899 0.51484,-0.18201 0.338292,0.10842 0.502534,0.31391 0.600906,0.75179 0.101397,0.45134 0.228674,0.55473 0.194612,0.15807 -0.01645,-0.19147 0.008,-0.25709 0.102308,-0.27491 0.196045,-0.0371 0.281888,0.18842 0.199734,0.52459 -0.04981,0.20385 -0.04742,0.31672 0.0079,0.36749 0.138899,0.1277 0.207454,-0.086 0.169156,-0.52719 -0.02868,-0.33038 -0.07315,-0.44523 -0.220255,-0.56877 -0.118359,-0.0994 -0.234578,-0.14014 -0.324758,-0.11383 -0.175208,0.0511 -0.26771,-0.13123 -0.138932,-0.27389 0.114501,-0.12684 0.361707,-0.126 0.545495,0.002 0.126196,0.0878 0.152125,0.0839 0.243517,-0.036 0.18172,-0.23853 0.593611,-0.11407 0.841145,0.25416 0.131517,0.19565 0.14716,0.29192 0.105353,0.64851 -0.027,0.23032 -0.113005,0.61679 -0.191121,0.85885 -0.276124,0.85561 -0.57762,1.86772 -0.694669,2.33195 -0.06518,0.25852 -0.197809,0.63937 -0.29473,0.84633 -0.09692,0.20696 -0.297915,0.63527 -0.44665,0.9518 -0.148738,0.31652 -0.350592,0.77937 -0.448568,1.02855 -0.09798,0.24917 -0.320414,0.67572 -0.494307,0.94788 -0.522531,0.81782 -1.080357,1.97215 -1.158476,2.39725 -0.04039,0.21979 -0.0724,0.70429 -0.07112,1.07667 0.0057,1.66856 -0.136462,3.90564 -0.324829,5.11183 -0.14614,0.9358 -0.144594,1.06571 0.0132,1.1075 0.185979,0.0492 1.322307,0.0183 1.383136,-0.0376 z m -4.6604574,-8.73765 c -0.040404,-0.0466 -0.1269451,-0.18149 -0.1923194,-0.29989 -0.065374,-0.11838 -0.1853351,-0.23463 -0.2665801,-0.25835 -0.1129434,-0.0329 -0.1434703,-0.0938 -0.1296836,-0.25869 0.016809,-0.20097 0.00359,-0.21403 -0.1949081,-0.19256 -0.1823038,0.0197 -0.2047842,0.005 -0.1562281,-0.10156 0.1184888,-0.26028 0.1201528,-0.4144 0.00715,-0.66305 -0.064166,-0.14118 -0.1166654,-0.31765 -0.1166654,-0.39214 0,-0.1155 0.017045,-0.12243 0.1158482,-0.0471 0.063714,0.0486 0.1816298,0.20696 0.2620346,0.35185 0.1202118,0.21664 0.1650557,0.24906 0.2523668,0.18243 0.1336757,-0.102 0.1319471,-0.31928 -0.00426,-0.53838 -0.057885,-0.0931 -0.1064215,-0.22258 -0.1078541,-0.28775 -0.00451,-0.20472 0.215282,-0.12894 0.3436145,0.11848 0.136753,0.26365 0.1829613,0.28342 0.3165658,0.13542 0.1176486,-0.13033 0.2140575,-0.1291 0.2693803,0.004 0.025292,0.0606 -0.028206,0.17549 -0.1265286,0.27172 -0.1253272,0.12265 -0.1486443,0.18668 -0.088213,0.24224 0.060428,0.0556 0.1365995,0.0362 0.2881522,-0.0735 0.2663879,-0.19264 0.3224559,-0.064 0.095256,0.21848 l -0.1681682,0.20913 0.2608328,0.4444 c 0.1434575,0.24442 0.2456688,0.48249 0.2271415,0.52904 -0.066157,0.16618 -0.208861,0.077 -0.4264588,-0.26652 -0.2558409,-0.40389 -0.3614293,-0.45962 -0.4811455,-0.25397 -0.071951,0.1236 -0.053529,0.20702 0.1122633,0.50828 0.1818897,0.33052 0.1963505,0.50308 0.042158,0.50308 -0.033151,0 -0.093335,-0.0381 -0.1337348,-0.0846 z m -0.042662,-1.43351 c -0.024518,-0.0587 -0.076526,-0.10681 -0.1155711,-0.10681 -0.094628,0 -0.1772272,0.25003 -0.1137806,0.34441 0.074743,0.1112 0.2843129,-0.10592 0.2293517,-0.2376 z m -2.5822217,-5.04156 c -0.1678559,-0.17053 -0.143734,-0.98955 0.029145,-0.98955 0.08512,0 0.1053633,0.0699 0.08824,0.30468 -0.013859,0.19001 0.018348,0.35539 0.085579,0.43941 0.1055617,0.13193 0.1096807,0.13096 0.1977641,-0.0468 0.1946737,-0.39282 -0.2358809,-1.20512 -0.6387647,-1.20512 -0.091293,0 -0.1864682,0.0305 -0.2114988,0.0677 -0.068812,0.10237 -0.2577524,0.0811 -0.2577524,-0.029 0,-0.16371 0.2196649,-0.30952 0.4662849,-0.30952 0.2898516,0 0.6019892,0.25059 0.7924722,0.63622 0.1783444,0.36105 0.1758402,0.65955 -0.00832,0.99143 -0.1649126,0.2972 -0.3434585,0.34338 -0.5431502,0.14052 z m 1.2104943,-0.0596 c -0.1388438,-0.10336 -0.155232,-0.17477 -0.1357179,-0.59145 0.027181,-0.58031 0.1560065,-0.62256 0.206305,-0.0676 0.027273,0.30091 0.065459,0.40623 0.1472866,0.40623 0.2686314,0 0.1353983,-0.89939 -0.1828833,-1.23456 -0.1750878,-0.18438 -0.1812845,-0.18549 -0.400871,-0.0728 -0.2862216,0.1469 -0.374503,0.0349 -0.1475605,-0.18717 0.2070016,-0.20258 0.3250611,-0.20567 0.6255247,-0.0164 0.2742974,0.1728 0.4740055,0.664 0.4740055,1.16588 0,0.5366 -0.2820114,0.8243 -0.5860891,0.59792 z m 1.1186596,-0.0725 c -0.1817015,-0.10603 -0.3060675,-0.78485 -0.1932964,-1.05505 0.024585,-0.0589 0.09325,-0.10709 0.1525872,-0.10709 0.086573,0 0.099294,0.0702 0.064407,0.35546 -0.047903,0.39159 0.07875,0.64269 0.287094,0.56919 0.1610179,-0.0568 0.1453652,-0.5499 -0.028643,-0.90226 -0.1681718,-0.34053 -0.3748775,-0.45605 -0.7120089,-0.3979 -0.1835897,0.0316 -0.2499995,0.0189 -0.2499995,-0.0479 0,-0.25744 0.5564414,-0.34839 0.8753062,-0.14305 0.2636103,0.16975 0.4468127,0.61053 0.4486587,1.07945 0.00133,0.34358 -0.026467,0.43562 -0.1688263,0.55858 -0.1790604,0.15466 -0.3196393,0.18146 -0.4752812,0.0906 z m 2.1207127,-0.13136 c -0.1908652,-0.14208 -0.2448324,-0.52885 -0.1328267,-0.95191 0.070588,-0.26662 0.2233447,-0.4225 0.3236547,-0.33028 0.02162,0.0199 -0.01621,0.21807 -0.08407,0.44044 -0.09571,0.31361 -0.10466,0.43647 -0.0399,0.54772 0.111322,0.19124 0.213725,0.18095 0.301062,-0.0303 0.127783,-0.30899 0.08699,-0.80593 -0.08241,-1.00393 -0.132617,-0.155 -0.190392,-0.17403 -0.4122774,-0.13575 -0.2249432,0.0388 -0.2546658,0.0283 -0.2316806,-0.0814 0.014501,-0.0692 0.1184563,-0.15564 0.2310131,-0.19203 0.2895039,-0.0936 0.6915859,0.1118 0.7772619,0.39708 0.07184,0.23919 -0.03826,1.10682 -0.157869,1.24416 -0.162157,0.18619 -0.327559,0.21851 -0.491956,0.0962 z m -1.0966354,-0.0735 c -0.1154871,-0.10618 -0.1278114,-0.17838 -0.078034,-0.45703 0.032515,-0.182 0.061093,-0.36901 0.063509,-0.41555 0.00241,-0.0466 0.05866,-0.0846 0.1249949,-0.0846 0.1024328,0 0.1136344,0.0545 0.074358,0.36176 -0.049765,0.38928 -0.00848,0.49359 0.1480683,0.37413 0.1359619,-0.10374 0.1271733,-0.75992 -0.013526,-1.01007 -0.09804,-0.17431 -0.1527797,-0.19976 -0.4295873,-0.19976 -0.1744758,0 -0.3390365,-0.0201 -0.3656886,-0.0445 -0.1042461,-0.0959 0.130254,-0.22627 0.4068107,-0.22627 0.2236834,0 0.3411401,0.0459 0.5064857,0.19791 0.1988972,0.18287 0.2152655,0.23577 0.2152655,0.69586 0,0.35663 -0.035362,0.54543 -0.1246072,0.66533 -0.22409,0.30106 -0.3260017,0.32864 -0.5280479,0.14288 z m 2.1255214,-0.077 c -0.17724,-0.16296 -0.210892,-0.81508 -0.04846,-0.93902 0.144379,-0.11016 0.203893,-0.0161 0.151689,0.23974 -0.05777,0.28313 0.01593,0.56386 0.148046,0.56386 0.241377,0 0.270207,-0.79314 0.04137,-1.13821 -0.124718,-0.18807 -0.185764,-0.22078 -0.379051,-0.20312 -0.294658,0.027 -0.357714,-0.11931 -0.0983,-0.22798 0.141025,-0.0591 0.251364,-0.0622 0.398175,-0.0113 0.164841,0.0572 0.234745,0.047 0.371185,-0.0546 0.201876,-0.15029 0.504411,-0.16149 0.714128,-0.0265 0.199822,0.12867 0.447891,0.66499 0.503682,1.08893 0.0587,0.44603 -0.0655,0.66689 -0.39132,0.69584 -0.303223,0.0269 -0.436683,-0.072 -0.497212,-0.36864 -0.03742,-0.18337 -0.06787,-0.21625 -0.145466,-0.15705 -0.05398,0.0411 -0.135634,0.17932 -0.181451,0.30696 -0.07144,0.19901 -0.253328,0.36646 -0.398068,0.36646 -0.02292,0 -0.107943,-0.0609 -0.18895,-0.13542 z m 1.561168,-0.54166 c -0.0122,-0.16756 -0.111612,-0.47224 -0.220932,-0.67706 -0.184436,-0.34554 -0.216399,-0.37163 -0.443403,-0.36187 -0.134552,0.006 -0.263395,0.0277 -0.286326,0.0488 -0.03811,0.035 0.102945,0.60876 0.182473,0.74218 0.01862,0.0312 0.0715,-0.012 0.117523,-0.0962 0.166504,-0.30439 0.278832,-0.23889 0.225402,0.13142 -0.06482,0.44922 -0.01186,0.56595 0.24449,0.53884 0.191854,-0.0203 0.201726,-0.0381 0.180773,-0.32614 z m 0.324065,-2.24838 c -0.06361,-0.0893 -0.136633,-0.26731 -0.162282,-0.3957 -0.02564,-0.12838 -0.13237,-0.3932 -0.237163,-0.58848 -0.119176,-0.22209 -0.16417,-0.37761 -0.120137,-0.41525 0.03871,-0.0331 0.335511,-0.0801 0.659542,-0.10451 l 0.589146,-0.0443 0.243664,0.57306 c 0.134014,0.31519 0.291427,0.60951 0.349807,0.65405 0.05837,0.0445 0.106142,0.12238 0.106142,0.17297 0,0.0963 -0.113897,0.12904 -0.662791,0.19083 -0.182268,0.0206 -0.403145,0.0558 -0.49084,0.0785 -0.117014,0.0302 -0.190216,-0.002 -0.275088,-0.12111 z m 0.670492,-0.2309 c 0.136636,-0.0337 0.15559,-0.0738 0.119798,-0.25298 -0.07017,-0.35145 -0.303212,-0.78846 -0.420463,-0.78846 -0.0604,0 -0.193658,0.0293 -0.29613,0.0651 -0.181565,0.0635 -0.183567,0.0712 -0.07844,0.3025 0.05933,0.13055 0.107881,0.32468 0.107881,0.43139 0,0.1067 0.02209,0.21432 0.0491,0.23915 0.06025,0.0554 0.300675,0.0569 0.518259,0.003 z m 0.994765,-0.0428 c -0.04184,-0.0465 -0.100807,-0.20651 -0.131041,-0.35546 -0.0665,-0.32764 -0.223214,-0.68612 -0.325312,-0.74414 -0.106424,-0.0605 -0.09279,-0.30448 0.0173,-0.30952 0.05063,-0.002 0.306404,-0.005 0.568389,-0.007 0.436068,-0.002 0.490671,0.0141 0.645947,0.1904 0.09329,0.10595 0.182477,0.25358 0.198187,0.32806 0.01572,0.0745 0.06199,0.28765 0.102837,0.47372 0.05088,0.2318 0.05015,0.36502 -0.0023,0.42316 -0.102374,0.11341 -0.97207,0.1136 -1.073966,2.3e-4 z m 0.734174,-0.32266 c -0.0129,-0.052 -0.05071,-0.22858 -0.08399,-0.39238 -0.07979,-0.39264 -0.203211,-0.50071 -0.507859,-0.44469 -0.185185,0.034 -0.22773,0.0689 -0.187191,0.15334 0.02886,0.0601 0.10325,0.25264 0.165326,0.42787 0.07803,0.22024 0.159689,0.32732 0.26456,0.34691 0.242472,0.0453 0.374448,0.0109 0.349151,-0.091 z m -3.413053,-1.2944 c -0.06267,-0.0881 -0.13774,-0.22939 -0.166814,-0.31392 -0.02908,-0.0845 -0.158452,-0.28258 -0.287501,-0.4401 -0.129046,-0.15751 -0.296684,-0.37525 -0.372527,-0.48387 -0.133288,-0.19088 -0.133408,-0.2005 -0.0036,-0.28775 0.07386,-0.0497 0.239795,-0.0902 0.368752,-0.0902 0.128961,0 0.334726,-0.0184 0.457259,-0.041 0.210108,-0.0386 0.243862,-0.0126 0.593239,0.45702 0.203752,0.27389 0.43075,0.55718 0.504444,0.62955 0.191561,0.18811 0.312469,0.3913 0.315485,0.5302 0.0021,0.0958 -0.0534,0.11817 -0.273552,0.11052 -0.15189,-0.005 -0.4438,0.0128 -0.648696,0.0401 -0.340618,0.0454 -0.382288,0.036 -0.486476,-0.11053 z m 0.869666,-0.28287 c 0.06189,-0.0569 -0.392115,-0.81769 -0.588306,-0.98583 -0.153594,-0.13164 -0.234576,-0.15244 -0.449242,-0.11542 -0.326653,0.0564 -0.330822,0.15571 -0.02253,0.53696 0.131638,0.16278 0.294196,0.38899 0.361244,0.50269 0.11377,0.19294 0.139944,0.20298 0.392461,0.15062 0.148808,-0.0309 0.286673,-0.0709 0.30637,-0.089 z m 1.092808,0.17483 c -0.366309,-0.0242 -0.371226,-0.0276 -0.587312,-0.40697 -0.119851,-0.21045 -0.361885,-0.56245 -0.537856,-0.78222 -0.398286,-0.49741 -0.374034,-0.62531 0.107077,-0.56467 0.187122,0.0236 0.417292,0.0429 0.511493,0.0429 0.130234,0 0.249182,0.10951 0.496439,0.45702 0.178843,0.25136 0.398795,0.51788 0.488782,0.59228 0.188129,0.15551 0.36946,0.45301 0.36946,0.60614 0,0.10861 -0.02119,0.10999 -0.848083,0.0556 z m 0.33258,-0.36173 c 0,-0.037 -0.186282,-0.29467 -0.41396,-0.57278 -0.346983,-0.42384 -0.448266,-0.50566 -0.625968,-0.50566 -0.116607,0 -0.21201,0.0112 -0.21201,0.0248 0,0.0266 0.637208,0.91134 0.737938,1.02456 0.08012,0.09 0.514,0.11453 0.514,0.029 z m -2.954521,19.33309 c 0.244154,-1.57536 0.442964,-5.68331 0.272513,-5.6309 -0.191897,0.059 -0.269225,0.6266 -0.342629,2.51487 -0.04205,1.08182 -0.102429,2.42394 -0.134173,2.98252 -0.05201,0.91521 -0.04445,1.17338 0.03229,1.10282 0.01396,-0.0128 0.09137,-0.44904 0.172001,-0.96931 z m -4.1401128,0.42507 c -0.02043,-0.0465 -0.037146,-0.009 -0.037146,0.0846 0,0.0931 0.016717,0.13118 0.037146,0.0846 0.02043,-0.0466 0.02043,-0.12271 0,-0.16926 z m 0.1003263,-2.58977 c 0.022313,-1.43218 0.00467,-1.81851 -0.072284,-1.58493 -0.065882,0.1999 -0.1109215,1.35919 -0.087884,2.262 0.025652,1.00531 0.1415946,0.5152 0.160168,-0.67707 z m 0.094878,-3.07215 c 0.00298,-0.43291 -0.031315,-0.89374 -0.076243,-1.02407 -0.044928,-0.13034 -0.1020943,-0.34361 -0.1270333,-0.47394 -0.046416,-0.24257 -0.2294954,-0.52607 -0.2986597,-0.46248 -0.0212,0.0195 0.012419,0.14759 0.074713,0.28467 0.096979,0.21338 0.1632651,0.89473 0.2577233,2.64908 0.002,0.0373 0.039737,0.0106 0.08385,-0.0592 0.044333,-0.0702 0.082642,-0.479 0.085651,-0.91404 z"
     style="fill:#000000"
     inkscape:connector-curvature="0" />
  <rect
     y="12.126998"
     x="106.62281"
     height="10.060951"
     width="1.9656132"
     id="rect2383"
     style="fill:#ffff00;fill-opacity:1" />
</svg>
