<?xml version="1.0" encoding="UTF-8" standalone="no"?>
<!-- Created with Inkscape (http://www.inkscape.org/) -->

<svg
   xmlns:dc="http://purl.org/dc/elements/1.1/"
   xmlns:cc="http://creativecommons.org/ns#"
   xmlns:rdf="http://www.w3.org/1999/02/22-rdf-syntax-ns#"
   xmlns:svg="http://www.w3.org/2000/svg"
   xmlns="http://www.w3.org/2000/svg"
   xmlns:sodipodi="http://sodipodi.sourceforge.net/DTD/sodipodi-0.dtd"
   xmlns:inkscape="http://www.inkscape.org/namespaces/inkscape"
   width="150"
   height="75"
   id="svg2"
   version="1.1"
   inkscape:version="0.48.4 r9939"
   sodipodi:docname="metalRecycling.svg">
  <defs
     id="defs4" />
  <sodipodi:namedview
     id="base"
     pagecolor="#ffffff"
     bordercolor="#666666"
     borderopacity="1.0"
     inkscape:pageopacity="0.0"
     inkscape:pageshadow="2"
     inkscape:zoom="2.8"
     inkscape:cx="127.64356"
     inkscape:cy="19.188718"
     inkscape:document-units="px"
     inkscape:current-layer="svg2"
     showgrid="false"
     inkscape:window-width="1276"
     inkscape:window-height="761"
     inkscape:window-x="0"
     inkscape:window-y="18"
     inkscape:window-maximized="0"
     width="150px" />
  <metadata
     id="metadata7">
    <rdf:RDF>
      <cc:Work
         rdf:about="">
        <dc:format>image/svg+xml</dc:format>
        <dc:type
           rdf:resource="http://purl.org/dc/dcmitype/StillImage" />
        <dc:title></dc:title>
      </cc:Work>
    </rdf:RDF>
  </metadata>
  <path
     inkscape:connector-curvature="0"
     id="path3078"
     d="m 12.310206,50.782132 c -7.0557841,-10.76739 -3.9760583,-26.515 6.578967,-33.86138 9.376091,-7.0406079 23.869544,-6.498188 32.232281,1.92888"
     style="fill:none;stroke:#000000;stroke-width:3.62126303" />
  <path
     inkscape:connector-curvature="0"
     id="polygon3080"
     d="m 41.354182,22.074232 c 0.357172,-1.42729 -1.033593,-4.6123 1.479268,-3.87189 2.55535,0.01 5.1107,0.015 7.666049,0.022 0.0087,-3.046018 0.01738,-6.092038 0.02607,-9.1380679 1.426389,0.35824 4.610043,-1.02991 3.868975,1.4823699 -0.01039,3.84685 -0.02078,7.693698 -0.03116,11.540598 -4.336363,-0.012 -8.673018,-0.024 -13.009198,-0.035 z" />
  <path
     inkscape:connector-curvature="0"
     id="path3082"
     d="m 55.691307,24.236532 c 7.011319,10.6916 4.024057,26.2941 -6.362403,33.70121 -9.383474,7.2027 -24.007887,6.7307 -32.448847,-1.7684"
     style="fill:none;stroke:#000000;stroke-width:3.62126303" />
  <path
     inkscape:connector-curvature="0"
     id="polygon3084"
     d="m 26.646967,52.944532 c -0.357102,1.4273 1.033806,4.6122 -1.479089,3.8717 -2.555409,-0.01 -5.11082,-0.014 -7.666229,-0.022 -0.0087,3.0461 -0.01738,6.0922 -0.02607,9.1383 -1.426343,-0.35789 -4.609894,1.03071 -3.868837,-1.4818 0.01028,-3.8469 0.02056,-7.6939 0.03084,-11.5408 4.336263,0.011 8.674126,0.024 13.009388,0.034 z" />
  <path
     inkscape:connector-curvature="0"
     id="path3088"
     d="m 15.93853,35.004932 c -0.100249,-6.0367 11.012157,-6.6005 11.62127,-0.7095 0.138746,2.8472 -0.339921,5.7507 0.05923,8.5594 4.192698,1.2664 -2.306619,4.20261 -2.347236,0.1742 -2.629094,5.1531 -12.853188,1.7916 -9.138415,-4.1075 2.389246,-2.9761 12.518495,-0.8611 7.635582,-6.5716 -3.539639,-2.1872 -4.802161,2.1227 -6.665387,2.655 -0.388347,0 -0.776694,0 -1.165042,0 z m 9.193843,2.7305 c -3.06848,0.25361 -10.46034,1.91751 -5.526503,5.8955 3.932545,1.0955 5.748984,-2.5182 5.526503,-5.8955 z"
     style="stroke:#000000;stroke-width:1.0265013" />
  <path
     inkscape:connector-curvature="0"
     id="path3090"
     d="m 34.813457,25.476832 c 0,6.5009 0,13.0015 0,19.50241 -2.495152,0.69869 -2.784889,-0.808 -2.451776,-2.9375 0,-5.5217 0,-11.0432 0,-16.5649 0.817259,0 1.634517,0 2.451776,0 z"
     style="stroke:#000000;stroke-width:1.0265013" />
  <path
     inkscape:connector-curvature="0"
     id="path3092"
     d="m 48.878806,44.987442 c 0.795022,-4.6668 -3.458396,2.76569 -6.257627,0.4072 -4.308448,-1.1614 -3.054786,-6.213 -3.252939,-9.5861 0.344701,-1.5119 -0.719047,-4.4325 0.58751,-4.9827 2.658119,-0.8616 1.731955,1.8612 1.864628,3.5251 0.295827,2.9974 -0.846456,6.5739 1.266425,9.0319 4.430896,2.1051 6.470255,-3.319 5.782001,-6.8961 0,-1.887 0,-3.7741 0,-5.6611 2.495152,-0.6987 2.784889,0.808 2.451776,2.9375 0,3.7386 0,7.4771 0,11.2157 -0.813347,0 -1.631019,0.01 -2.441774,0.01 z"
     style="stroke:#000000;stroke-width:1.0265013" />
  <path
     inkscape:connector-curvature="0"
     id="path3183"
     d="m 81.715245,51.092932 c -4.656089,2.0978 -10.409406,0.52061 -13.754374,-3.208 1.577825,-6.7654 3.155651,-13.5308 4.733475,-20.2962 3.714174,3.236 9.00913,4.2007 13.754375,3.2087 -1.577788,6.7649 -3.155878,13.5324 -4.733476,20.2956 z" />
  <path
     inkscape:connector-curvature="0"
     id="ellipse3185"
     d="m 87.453922,26.899342 c -3.299736,3.4646 -9.667953,1.5144 -13.152121,-1.04291 -2.678627,-5.16269 7.275566,-3.93489 10.021224,-2.2849 1.285618,0.67011 3.252313,1.59231 3.130898,3.32781 z" />
  <path
     inkscape:connector-curvature="0"
     id="rect3187"
     d="m 90.629031,25.251732 c 2.28547,-0.4541 3.447313,0.2156 2.850452,2.64391 -0.438118,1.3929 0.967776,4.6299 -0.881264,4.6119 -2.684791,0.85339 -1.891813,-1.771 -1.969188,-3.5251 0,-1.2435 0,-2.4871 0,-3.7306 z" />
  <path
     inkscape:connector-curvature="0"
     id="rect3189"
     d="m 95.725299,25.251732 c 2.28547,-0.4541 3.447313,0.2156 2.850451,2.64391 -0.438117,1.3929 0.967777,4.6299 -0.881264,4.6119 -2.68479,0.85339 -1.891812,-1.771 -1.969187,-3.5251 0,-1.2435 0,-2.4871 0,-3.7306 z" />
  <path
     inkscape:connector-curvature="0"
     id="rect3191"
     d="m 95.725299,43.391032 c 2.28547,-0.454 3.447313,0.2156 2.850451,2.6439 -0.438117,1.39291 0.967777,4.6299 -0.881264,4.61191 -2.68479,0.8534 -1.891812,-1.771 -1.969187,-3.5251 0,-1.24351 0,-2.48721 0,-3.73061 z" />
  <path
     inkscape:connector-curvature="0"
     id="rect3193"
     d="m 90.888165,43.391032 c 2.28547,-0.454 3.447311,0.2156 2.850449,2.6439 -0.438117,1.39291 0.967777,4.6299 -0.881264,4.61191 -2.68479,0.8534 -1.891811,-1.771 -1.969185,-3.5251 0,-1.24351 0,-2.48721 0,-3.73061 z" />
  <path
     inkscape:connector-curvature="0"
     id="rect3195"
     d="m 85.964663,43.391032 c 2.285471,-0.454 3.447313,0.2156 2.850452,2.6439 -0.438117,1.39291 0.967777,4.6299 -0.881264,4.61191 -2.684791,0.8534 -1.891812,-1.771 -1.969188,-3.5251 0,-1.24351 0,-2.48721 0,-3.73061 z" />
  <path
     inkscape:connector-curvature="0"
     id="path3199"
     d="m 100.96926,25.214632 c 0.10003,2.44381 0.20005,4.88761 0.30008,7.3312 9.28273,-0.3123 18.6159,-0.8964 27.86695,-1.04 5.30528,0.6278 7.40811,8.1468 3.17974,11.418 -3.32008,2.7513 -7.75459,1.1321 -11.65755,1.3184 -6.46304,-0.2644 -12.92609,-0.5288 -19.38914,-0.7934 -0.1,2.4438 -0.19994,4.8876 -0.29991,7.3315 9.57744,0.2854 19.15817,0.89921 28.73352,0.97521 8.67245,-0.6039 14.8346,-10.5039 11.5687,-18.5579 -1.88882,-5.3465 -7.30495,-9.1493 -12.98176,-9.0684" />
  <path
     inkscape:connector-curvature="0"
     id="rect3201"
     d="m 102.25081,44.456232 c 1.79148,0.073 3.58295,0.1466 5.37442,0.2199 -0.0733,1.79161 -0.14666,3.58321 -0.21999,5.37471 -1.79147,-0.073 -3.58295,-0.1467 -5.37443,-0.22 0.0733,-1.79151 0.14667,-3.58311 0.22,-5.37461 z"
     style="fill:#ffffff" />
  <path
     inkscape:connector-curvature="0"
     id="rect3203"
     d="m 102.03091,26.164742 c 1.79154,-0.073 3.58306,-0.1467 5.37459,-0.22001 0.0733,1.79151 0.14667,3.583 0.22,5.3745 -1.79153,0.073 -3.58306,0.1468 -5.3746,0.2201 -0.0733,-1.7916 -0.14666,-3.58309 -0.21999,-5.37459 z"
     style="fill:#ffffff" />
</svg>
