<?xml version="1.0"?><svg width="468" height="297" xmlns="http://www.w3.org/2000/svg" preserveAspectRatio="xMidYMid meet">
 <title>Theatre</title>

 <metadata id="metadata4">Created by potrace 1.8, written by Peter Selinger 2001-2007image/svg+xmlimage/svg+xmlimage/svg+xml</metadata>
 <g>
  <title>Layer 1</title>
  <path fill="#bea06b" fill-rule="evenodd" stroke="#bea06b" stroke-width="0.8" stroke-miterlimit="4" id="pathCheveuxFemme" d="m136.092163,65.781174c-0.787918,-5.029743 -2.97023,-11.928574 -2.954239,-16.937664c0.017822,-5.585979 -0.554535,-10.25684 0,-15.75597c0.623596,-6.18412 0.328247,-12.35111 -3.151199,-17.33156c-3.609474,-5.16659 -9.871353,-6.411599 -14.574265,-6.696289c-2.895424,-0.17527 -9.462959,1.826659 -12.998657,5.514589c-3.379921,3.525431 -4.542915,11.2502 -4.726807,18.907162c-0.116615,4.855797 -1.622673,10.923328 -1.96949,15.75597c-0.33194,4.62542 -2.10009,11.939449 -1.969498,16.543762c10.875381,1.195236 40.549522,0.358932 42.344154,0z"/>
  <g id="g6" fill="#000000" transform="translate(0,297) scale(0.059091001749038696,-0.059091001749038696) ">
   <path stroke="#c39586" fill="#d5a296" stroke-width="13.538441" stroke-miterlimit="4" id="pathCorpsHomme" d="m5259.003418,4741.749512c-51.664063,-73.018555 -46.210449,-279.312988 -16.34082,-315.333984c27.052734,-32.624512 51.552246,-76.635742 50.667969,-113.001465c-0.839355,-34.510254 -3.331055,-83.328613 -3.331055,-128.328613c0,-93.000244 -123.989746,-61.672363 -202.666016,-87.67627c-54.454102,-17.907471 -99.745605,-32.624268 -151.977051,-57.478027c-101,-47 -129.356934,-95.854248 -149.356934,-189.854248c-9,-43 -12.626953,-96.26001 -16,-118c-14.998535,-96.666504 -58.830566,-280.423584 -78.000488,-379.006592c-12.46582,-64.106201 -53.729492,-168.370117 -57.666504,-196.657227c-6.296875,-45.245117 -27.0625,-268.682373 -17.675293,-344.671875c3.595215,-29.103516 -4.401855,-163.18335 -6.523926,-187.346191c-3.181641,-36.231934 -11.955078,-88.197021 -21.813965,-126.310303c-6.425293,-24.840576 0.15918,-50.835693 -10.000977,-71c-20.639648,-36.481934 -40.45459,-74.069092 -45.34375,-116.331299c-11.711914,-42.751221 -9.580078,-64.165527 -15.327148,-98.000244c-3.57959,-21.072998 -3.844238,-46.406006 -8.333984,-77.334961c-4.510254,-31.071045 5.912109,-60.626465 1.663086,-86.668213c-4.611816,-28.265259 -2.088379,-60.516235 19.666992,-64.330811c17.740723,-3.110474 6.52832,21.915161 12.666992,56.498779c6.227539,35.08252 10.569336,86.740723 22.835449,101.333008c8.883789,-5.931885 5.304688,-64.608887 8.665527,-95.326172c5.466797,-49.965332 3.162109,-97.172607 25.162109,-97.172607c13,0 10.425781,67.76416 10.00293,90.662842c-0.539551,29.217773 -10.916504,73.149658 -2.995117,86.003174c15.411133,-5.354248 28.225586,-33.633057 29.662109,-73.333984c1.430664,-39.53418 2.697266,-110.745972 22.330078,-107.99646c33.379883,4.674927 18.10791,55.875 17.835449,104.327759c-0.297852,52.946777 -15.444824,71.223877 3.17041,86.669189c14.049316,-12.946533 10.773926,-24.468994 12.331055,-56.334229c2.10791,-43.134277 5.257324,-100.500488 23.164551,-97.829956c32.532227,4.851563 8.168457,87.109741 11.168457,124.991089c3.333008,42.080078 29.112793,119.786621 60.842285,89.7771c48.750488,-46.10791 60.833008,-57.145996 77.479004,-44.770264c44.892578,33.375732 -46.615723,94.838135 -56.658203,115.836914c-23.269531,48.655029 -79.533203,93.864746 -76.655273,118.667969c2.386719,20.568359 10.617676,59.500732 15.667969,81.66333c8.04248,35.291748 13.742188,207.410156 36.341797,331.660889c16.424805,90.298828 30.194336,160.030273 38.005371,206.333496c4.666992,27.665527 18.333008,86.99585 18.333008,108.99585c0,22 20,100 44,172c32,98 46,160 55,246c21,198 35,161 45,-116c3,-78 10,-154 16,-168c15,-42 13,-349 -4,-420c-63,-269 -63,-444 0,-911c18,-140 19,-374 0,-452c-29,-122 -38,-236 -27,-339c6,-55 12,-198.999939 14,-319.999939c2,-199 7.070313,-181.578003 -7.929688,-198.578003c-10,-11 -41.567871,-81.919434 -41.567871,-85.919434c0,-6 -80.502441,-119.502563 -93.502441,-129.502563c-3,-3 -23,-31 -44,-63c-21,-31 -89.315918,-66.220947 -72.924316,-85.281357c18.87793,-21.952347 27.708008,9.569061 41.367188,16.441513c1.875,-9.625015 -37.496094,-34.40979 -26.653809,-49.230515c19.075195,-26.07576 36.566406,25.111115 53.689453,29.0112c-11.158203,-25.559616 -40.806641,-40.101883 -24.083984,-60.546356c19.451172,-23.780548 32.605469,32.605499 32.605469,32.605499c12,12 24,20 26,17c2,-2 -2,-10 -11,-17c-17,-14 -29.224609,-42.072556 -14.248535,-52.96228c22.631836,-16.457153 30.952148,22.721558 38.248535,38.96228c3.206543,7.137466 11.834473,12.667526 21,12c0.650391,-8.976471 -12.285156,-17.03595 -19.166016,-25.500259c-19,-16 -19.045898,-51.729446 1.773926,-57.248199c30.5625,-8.101334 47.559082,30.913666 66.559082,58.913666c3.833496,17.832718 29.833008,26.834793 46.833008,49.834793c18,23.000015 40,65.000015 50,94.000015c10,29 18.635254,43.124512 26,52c25.600586,30.851746 55.862793,73.809082 86,107c37,41 40,69 16,140c-18,53 -13,187 11,272c7,25 21,73 30,106c32,110.999939 37,139.999939 44,286.999939c8,137 27,229 61,299c4,8 11,82 14,165c6,136 25,337 45,471c4,30 4,46.952637 -1,72.783936c12.331543,1.000488 49.669434,-5.671387 83.498535,-6.116943c38.005859,-0.500488 68.501465,2.333008 68.501465,2.333008l-5,-354c-3,-226 -1,-360 5,-367c6,-7 12,-45 15,-86c15,-213 37,-407 65,-567.999939c13,-73 13,-358 0,-366c-5,-3 -10,-27 -10,-52c0,-42 4,-51 45,-90c25,-24 52,-43 60,-43c11.952637,-2.717834 17.78125,-12.528564 26,-20c6,0 30,-20 55,-45c24,-25 40.875488,-42.054016 48,-45c2.772461,-1.146423 20,-13.000015 38,-30.000015c18,-16 38,-30 45,-30c7,0 22,-14 35,-30c22,-30 43.824707,-35.599838 62.999512,-21.166245c20.962402,15.779358 -11.616699,30.740646 -24.999512,41.166245c-14.04541,10.941788 -20,30 -20,35c0,6 10,-5 21,-22c12,-18 34.106934,-33.44429 38.248535,-30.643219c30.677246,20.747437 0.751465,31.643219 -21.248535,55.643219c0,0 -7.23584,4.015747 -13.834473,16.667542c15.832031,-8.082214 27.999512,-15.666504 27.999512,-15.666504c12,-8 23.567383,-40.767776 36.116211,-31.033661c23.839355,18.492188 -23.849609,47.316772 -37.179199,66.205368c26.815918,-5.959412 40.930664,-68.367432 66.46582,-35.167648c10.819824,14.067444 -32.051758,43.746323 -42.567871,53.994919c26.146484,-8.916077 47.26416,-46.962936 57.163574,-32.998459c13.729492,19.367111 -7.162109,27.663376 -37.162109,54.663376c-11,9 -29,22.500244 -40,31.500244c-11,10 -55.001465,37.834839 -117.001465,79.834839c-142.169434,132.331421 -128.398926,129.805115 -154,243c-2.875488,12.713684 13,150 21,191c49,264.999939 61,476.999939 36,629.999939c-13,79 -14,236 -2,293c9,42 28,149 56,315c52,313 57,444 25,610c-11,57 -24,112 -30,121c-5,10 -12,78 -15,152c-4,74 -11,157 -16,185c-8,40 -7,59 5,85c17,40 46,268 49,389l2,85l7,-65c4,-36 14,-159 23,-275c23,-285 57,-428 107,-452c26,-13 87,-33 99,-33c29,0 102,130 224,395c121.859375,287.572998 190.274902,307.202881 263.567871,386.286377c13.268066,14.316162 60.491211,75.077637 91.319824,110.031738c17.078613,19.364014 70.392578,76.012207 40.061523,102.771484c-17.751465,15.660889 -44.949707,-40.087891 -67.618164,-64.090576c-14.751465,-19.929688 -26.539551,-33.872314 -54.29834,-39.966309c1.196777,28.200684 22.745117,48.106689 45.083008,74.274414c18.359863,22.200928 73.144043,88.677979 50.104004,108.67334c-20.908203,18.145752 -66.024902,-55.03833 -83.473633,-78.985596c-6.250977,-8.579346 -25.588867,-45.624268 -46.750977,-54.206299c3.516113,15.230469 31.21582,51.779297 39.788574,70.746582c29.78418,48.427246 97.703613,101.994873 61.06543,124.492432c-26.513184,16.280273 -73.453613,-56.118896 -92.485352,-84.630859c-11.788086,-17.6604 -37.34082,-80.295898 -61.162109,-96.660889c11.001465,26.876709 18.859375,58.517334 33.403809,87.09082c22.124512,43.465576 55.310547,93.523193 31.313965,107.200928c-33.191895,18.918701 -60.940918,-50.095703 -70.421875,-73.886963c-25.303223,-63.495117 -53.216309,-135.592773 -75.356934,-134c-13.708008,0.986328 -34.140625,5.859375 -41.140625,54.859375c-2,12 14.884766,75.185059 -18.286621,71.849121c-28.734863,-2.890137 -24.713379,-57.849121 -23.713379,-91.849121c1,-22 -1.783691,-61.929688 7.216309,-96.929688c14,-48 16,-82.783936 8,-101.783936c-9,-24 -88.216309,-154.286377 -210.216309,-326.286377l-46,-65l-7,50c-3,28 -7,153 -7,278c-2.666504,222.338135 -23.729492,288.20459 -49.670898,326.66748c-18.709961,27.741943 -68.591797,65.327148 -100.327148,85.32666c-76.791992,26.339844 -123.210938,50.526855 -209.001953,77.005859c-35.57373,10.979736 -115.664551,6.065186 -124,64.814209c-8.041016,56.67334 -1.138184,107.016113 -5.999023,136.852051c-7.470703,45.856934 -0.648926,94.320801 24.333984,127.333984c31.01709,40.986816 56.474121,238.507813 12.666992,298.654785c-55.981445,76.862305 -110.669434,97.718262 -179.671875,97.012207c-62.003906,-0.605469 -141.65918,-23.346191 -180.326172,-77.994629z"/>
   <path fill="#d5a296" stroke="#c39586" stroke-width="13.538441" stroke-miterlimit="4" id="pathCorpsFemme" d="m1855.000122,4685.077148c-44.33606,-25.412109 -60.963135,-43.019043 -85,-90c-19.963135,-39.019043 -22.134521,-53.009277 -17,-129c4.865479,-72.009277 10.766724,-92.160156 34,-126c22.766724,-33.160156 27.768921,-53.012207 31,-114c4.768921,-90.012207 -5.083252,-107.836914 -84,-148.000244c-33.083252,-16.836914 -58.008545,-26.734375 -66.713623,-34.643311c-8.498901,-7.721191 -34.226563,-21.546875 -78.286377,-35.356689c-89.940186,-28.190186 -149.650391,-55.466797 -169,-79c-17.650391,-21.466797 -27,-77 -40,-221c-14,-167 -41,-358 -52,-370c-6,-6 -17.032959,2.910889 -36,21c-70.210571,66.961182 -111.964233,121.081787 -167,199c-22.244141,34.612305 -42.475586,59.076416 -75,98c-9.814087,11.745117 -10.369629,29.934082 -17.12439,44.053955c-6.518799,13.626953 -8.550049,30.787598 31.12439,110.946045c9.325562,18.841553 16,39 16,47c0,7 7.279419,25.855713 15,41c18.279419,35.855713 23.999512,60.666016 3.666504,67.332031c-17.104248,5.607422 -38.666504,-34.332031 -38.666504,-54.332031c-16.802368,-16.580322 -57.544861,-25.487305 -65.64032,-22.195313c-10.571289,1.875 -26.181641,31.996094 -35.690186,42.856201c-13.319336,15.212158 -28.892944,30.786621 -38.873901,48.832031c-12.241699,22.132568 -20.463257,59.175781 -39.795776,91.50708c-8.939575,21.431641 -19.022827,67.11499 -40.891968,62.946045c-17.52356,-3.340332 -6.612183,-68.751709 45.891968,-194.946045c4.49585,-10.805664 3,-18 -3,-18c-10,0 -28.667969,44.000977 -42,71c-1.770996,3.58667 -11.232422,22.697266 -22.929688,52c-16,25 -25.515503,46.265625 -27.643188,51.875732c-2.945923,7.767578 -22.062622,36.505371 -34.854248,30.443848c-14.912476,-7.066895 -2.805298,-29.746582 2.194702,-41.746826c4,-9.999756 14.232422,-35.572754 25.232422,-67.572754c11,-32 26,-69 35,-82c8,-13 13,-29 11,-36c-2,-6 -23.248657,34.156982 -36.248657,62.156982c-32,69 -53.23877,89.026611 -58.113159,98.63208c-8.306396,16.368164 -25.541138,30.291504 -37.746216,22.691895c-12.664063,-7.885254 23.2229,-67.024902 35.108032,-84.480957c12.990479,-19.079102 27.481201,-59.405762 39.983765,-77.859375c22,-50 32.016235,-65.140625 -2.983765,-28.140625c-42,44 -95.248291,84.138672 -106,67c-7.058838,-11.252197 19.746216,-37.389404 32,-48c27,-25 65,-62 85,-84c20,-21 61,-64 92,-95c31,-31 59,-67 64,-81c6,-24 67.371826,-151.819824 192.000183,-408c37.371826,-76.819824 68.37439,-125.593262 95,-150c21.37439,-19.593262 57.397949,-53.576172 79,-74c33.397949,-31.576172 46,-38 83,-38c36,0 52.71875,9.104004 65,26c18.766968,25.818848 36.417358,50.040771 50.331421,77.666016c10.379028,20.606689 22.548706,126.336914 27.668579,334.333984c2.880127,117.00293 7,211 10,208c3,-2 10.504517,-69.047119 18,-148c7.504517,-79.047119 18.594849,-177.062012 25,-218c16.594849,-106.062012 9.233765,-195.111084 -24,-265c-34.766235,-73.111084 -54.601563,-142.046875 -65,-230c-13.601563,-115.046875 -46.296021,-241.543213 -53,-268c-7.798706,-30.776855 -12,-93.663818 -12,-152c0,-129 13.057129,-224.517822 32.002075,-366.666016c12.3927,-92.984741 36.200195,-480.36499 -7.002075,-765.333984c-8.797729,-58.031006 1.965698,-214.004822 25,-373.999939c13.965698,-97.004944 13.68396,-116.959351 -2,-239c-16.31604,-126.959412 -16.33606,-170.005188 -40.669067,-203.335083c-12.254761,-13.352112 -34.75415,-48.031189 -48.330933,-62.664917c-9,-4 -31.723267,-34.566284 -16.178345,-40.535156c16.34729,-6.277039 29.319092,28.562683 39.497437,23.319031c-5.248779,-16.102966 -25.774048,-35.573608 -12.937988,-52.222351c7.713135,-10.004089 16.370239,-0.528931 24.618896,21.438477c4.569946,12.170288 20.497437,27.535156 24.497437,27.535156c4,0 -5.500488,-19.779968 -12.497437,-37.535156c-6.997314,-17.756165 -14.298584,-30.624741 8.000977,-33.999496c10.56665,-1.599121 21.712646,34.177841 29.712646,45.177841c13,17 19.891846,6.394531 9.108032,-8.605469c-9.383301,-23.077698 -30.212402,-43.296524 1.356689,-58c15,0 19.286499,15.535172 30.286499,51.535156c0,0 2.470215,20.985901 18.535156,31.680969c13.855469,-13.46228 -14.574341,-29.88385 -7.891846,-50.178406c12.792725,-38.851578 13.268188,-45.389862 38,-34.929672c17.826294,7.539566 24.516235,35.300217 20.785034,70.209702c17.479858,32.552795 4.428467,52.360657 4.928467,139.860657c1.089111,40.826721 23.722412,64.130127 29.598877,116.695435c5.631714,50.378113 -14.639404,133.488403 -6.420532,169.553284c25.281128,110.93512 49.358276,201.773254 57,214c12.358276,19.773254 25.922607,122.00531 35,250.999939c9.922607,141.005371 32.65564,252.13916 75,358c13.65564,34.13916 22.202515,80.178589 25,102c6.666016,51.996948 13.890259,161.852051 17.333008,194.656616c8.744751,83.323853 56.100708,206.178101 59.998901,320.012573c2.914185,85.099609 13.125977,136.657959 -10.330811,197.998779c46.125122,-3.176025 49.26355,-2.281738 83.000977,3.999023c-12.964478,-54.656006 12.021118,-146.555908 13.332031,-230.32373c1.189087,-75.982178 32.33374,-178.240967 36.66394,-211.331909c12.179321,-93.074829 35.957275,-175.286499 46.663574,-246.660767c13.207642,-88.047363 9.460327,-159.176025 17.672241,-221.689819c2.594971,-19.754028 18.666016,-154.660767 21.666016,-231.660767c3,-77 11.162109,-177.972656 19,-224.999939c42.162109,-252.972778 43,-258 15,-361c-11,-41 -21.587158,-60.157715 -20,-86c1.236816,-20.137146 16,-29 36,-50c39,-40 73,-105 74,-137c0,-47 5.629639,-91.264954 28.183594,-111.718674c15.408203,-13.973404 40.550293,-51.820374 64.637939,-40.74617c25.456787,11.703583 7.178467,47.464828 -7.821533,76.464844c-9,17 -3.66748,25.000488 1.33252,25.000488c4,0 9.619873,-30.332458 19.619873,-58.332443c4.000977,-26.501312 9.175537,-40.311905 24.131348,-35.085007c15.760986,5.508301 8.094727,19.025009 0.986572,32.422043c-2.5,8.5 -3.717529,31.598373 -2.125,44.294235c15.148193,-12.910461 13.373779,-21.564392 18.01709,-33.510315c5.562012,-21.66391 -8.591797,-48.411789 19.037109,-39.78746c22.472168,7.014664 9.383789,22.210144 7.070801,43.284897c-2.186768,19.924866 -16.570313,28.048218 -13.070313,36.713562c9.391846,-4.296936 19.999512,-30.333496 19.999512,-30.333496c8,-18.000015 14.487305,-39.69014 25.000488,-28.774567c7.69043,7.984695 9.572998,22.783905 0,30.108063c-8,10 -14,26 -15,34c0,8 5.464844,-3.535156 16.464844,-20.535156c10.751221,-24.929688 14.299072,-41.133926 31.751221,-32.427139c16.869141,8.415909 -5.536377,34.997452 -20.880371,57.569046c-17.369141,25.551086 -29.300537,59.963562 -53.800537,93.463562c-87,116 -93.535156,114.929688 -93.535156,165.929688c0,29 7,97 15,152c8,54 15,129 15,166c0,40 12.360107,152.611267 14.535156,171.341492c4.949463,42.619995 20.888672,217.728149 1.464844,335.658447c-22.576172,137.069702 -12.123291,279.019043 59,741c39.876709,259.019043 39.508301,452.862305 -1,596c-13.683594,48.351074 -15.134521,98.425781 -28,147c-46.886719,177.022705 -56.4021,326.081299 -28,467c23.5979,117.081299 13.672607,237.582031 19.669189,309.997314c7.003418,-41.734619 10.105469,-123.512939 11.999512,-146.659668c3.362793,-41.10083 21.822754,-143.482178 33.331299,-184.337646c8.491455,-30.144531 18.523926,-80.052734 22,-110c9.523926,-82.052734 21.837646,-151.750488 28.632813,-200.678467c12.218262,-87.976563 107.305664,-340.078613 137.375488,-406.645264c37.585205,-83.203613 50.155029,-191.568848 41.724854,-229.480957c-9.185791,-41.310791 -49.200195,-63.82373 -57.707275,-110.52417c-12.432373,-68.249023 -38.346924,-96.710205 -13.785889,-109.965332c31.460693,-16.978516 35.680908,59.78418 76.451904,94.62207c49.944824,42.676758 48.661865,12.338135 57.661865,-76.661865c8,-76 13.667969,-136.086426 26.666504,-135.994873c24.596436,0.172852 19.999512,50.66333 14.999512,113.66333c-0.166992,26.835693 -5.999512,51.918213 8.499268,60.708252c16.165527,-12.874268 6.000732,-40.374756 10.500732,-90.374756c6,-62 2.333984,-107.66272 20.333984,-107.66272c19,0 15.000488,42.329224 9.000488,111.329224c-0.014893,28.019531 -8.02124,68.810791 3.998291,82.33667c15.990479,-5.921143 16.046875,-47.25 16.762207,-81.355713c1.041504,-49.646729 9.977539,-84.215576 24.621582,-84.494873c27.471924,-0.52417 8.456787,36.791504 3.281738,102.460205c-2.147705,27.251953 -11.333008,53.734131 8.669678,64.729736c22.668945,-23.334717 11.820801,-146.65918 29.671631,-139.321777c15.966797,6.562988 8.243652,53.653809 4.38916,114.063232c-5.243408,82.179932 -12.375977,82.46875 -24.063477,120.255371c-6.393311,20.670166 -13.43335,61.849365 -27.666504,88.995361c-9.600098,18.309814 -32.666504,46.570313 -49.007568,79.345459c-18.458984,37.022461 -69.937988,158.415039 -73.665527,207.65918c-11.81665,156.108154 -49.602051,313.762695 -52.677002,356.3396c-2.704346,37.448242 -27.026123,121.289551 -33.66748,168.657227c-3.196045,22.796143 -17.000977,97.99585 -21.000977,124.99585c-4,27 -18,101 -32,164c-14,63 -29,138 -34,167c-8.187012,46.491211 -18.84668,91.524658 -29,137c-13.332031,45 -32.6875,118.319824 -70,155c-21.6875,21.319824 -44.048096,31.619141 -78,36c-59.048096,7.619141 -117.432373,41.146484 -148.340088,58.338135c-62.97583,35.028564 -97.409912,55.162109 -105.659912,81.662109c-8.25,26.5 -2.3125,15.902832 6,71c11.1875,74.152832 27,112.335938 48,146c11.716064,18.78125 24.168701,170.06543 4,222c-19.831299,51.06543 -66.896484,102.24707 -113.999878,122c-45.896484,19.24707 -139.33606,17.587891 -177,-4z"/>
  </g>
  <path fill="#d5a296" fill-rule="evenodd" stroke="#c39586" stroke-width="1px" id="pathTeteFemme" d="m104.122276,16.275141c-2.341049,3.02376 -2.046944,7.544449 -1.707855,9.88538c-0.613419,0.425499 -0.488159,-0.09271 -1.539291,0.39324c-0.491096,2.385599 0.361298,5.55909 1.082458,6.224239c0.726715,0.670269 1.537384,-0.301971 1.755753,0.609779c0.218376,0.911762 0.45401,1.78672 0.677567,2.555531c0.8862,3.047489 2.84787,5.29488 4.529854,7.385609c1.447952,1.799831 3.975845,4.472721 6.794746,4.726791c2.818901,0.25407 6.602135,-3.300701 7.976463,-4.726791c1.135406,-1.178169 3.326431,-2.512318 4.20063,-4.801369c0.210365,-0.550838 0.43177,-1.400372 0.645027,-2.386879c0.213272,-0.9865 0.615356,-2.60236 1.384048,-2.322453c1.045837,0.38084 0.91922,-3.846807 1.023285,-4.734348c0.104065,-0.887529 -1.41394,-0.80081 -1.421967,-1.153709c-0.040558,-1.781031 0.899521,-9.73078 -1.904839,-12.14739c-1.510864,-1.30198 -4.979424,-4.83553 -11.603119,-4.52114c-6.504601,0.30873 -9.951744,2.50646 -11.892761,5.013511z"/>
  <path fill="#493310" fill-rule="evenodd" stroke="#493310" stroke-width="0.8" stroke-miterlimit="4" id="pathCheveuxHomme" d="m306.945953,10.53681c-0.806396,1.61277 -3.334778,4.995481 -4.923767,9.158159c0.472717,-1.516569 1.948639,-3.742199 4.431396,-5.120689c-4.567322,5.05686 -2.687653,14.05118 -0.09848,19.79343c1.42984,-2.81411 -1.575989,-3.16383 0.29541,-4.92374c0.160095,4.747231 1.810272,6.33168 3.249664,10.339859c4.449493,-9.475708 15.999451,-2.602489 22.846161,-0.492378c-0.499329,-3.769451 1.755707,-4.659382 2.264923,-8.46883c1.036011,1.036009 0.677368,3.75769 1.575592,4.43137c-0.017548,-1.049831 0.080688,-7.489281 -0.062775,-9.437191c1.432159,2.188042 0.554657,0.989641 1.933807,3.725651c-0.987335,-8.91831 -3.568176,-14.08558 -6.203918,-17.62699c1.635223,1.1449 1.732178,2.31373 3.742035,3.742041c-2.910614,-4.3231 -3.854523,-9.96316 -15.362061,-10.33985c-7.058533,-0.23106 -10.992554,2.58552 -13.687988,5.21916z"/>
  <path fill="#d5a296" fill-rule="evenodd" stroke="#c39586" stroke-width="1px" id="pathTeteHomme" d="m309.171234,11.07234c-3.587402,3.74941 -2.294586,8.19997 -3.038727,10.73785c-1.626068,-0.673639 -1.508759,1.12326 -1.540161,1.78706c-0.069977,1.47998 0.961029,4.64686 2.085968,6.07357c1.084747,0.2749 1.240936,0.71867 1.464478,1.48748c0.8862,3.047491 2.406189,6.476561 4.088165,8.567308c1.447968,1.799831 5.157288,4.629871 8.812042,4.472153c3.793762,-0.163731 8.225525,-3.670712 9.599854,-5.096802c1.135406,-1.178169 1.703033,-3.324009 2.57724,-5.61306c0.210358,-0.550831 0.431763,-1.400372 0.64502,-2.386869c0.213287,-0.986511 0.319946,-1.02677 1.285553,-0.845341c1.093903,0.20554 2.35025,-5.92643 1.909576,-6.70384c-0.782196,-1.37991 -2.004761,-0.308439 -2.012817,-0.661339c-0.040558,-1.781031 -0.709869,-8.43371 -3.514221,-10.850321c-1.510864,-1.30198 -1.918274,-4.77846 -10.123108,-5.07c-6.89682,-0.24507 -9.022858,0.74091 -12.238861,4.10215z"/>
  <path fill="#bea06b" fill-rule="evenodd" stroke="#bea06b" stroke-width="0.8" stroke-miterlimit="4" id="pathFrangeFemme" d="m115.117043,9.74902c-2.820961,-0.166059 -11.39032,4.10338 -12.210869,6.105431c-1.17234,2.860399 0.355988,6.220039 0.850105,8.164021c0.872025,-2.18355 3.397949,-2.924931 4.813202,-5.58535c0.762947,2.95912 0.914291,3.83815 2.029671,5.729479c0.625809,-2.98978 0.59536,-4.58107 1.99614,-7.216459c1.165565,3.03907 1.79718,3.115959 2.584496,6.3374c1.127251,-2.701342 0.879562,-3.02598 2.009384,-5.94223c0.854828,3.675219 2.301132,2.78927 3.048561,5.80028c0.978691,-2.51565 2.045006,-3.87738 2.678139,-5.652651c0.534668,1.277451 3.688889,3.2246 3.525772,6.046551c3.933372,-3.93338 1.800697,-7.85687 0.295425,-9.05968c-2.717316,-2.17132 -7.493858,-4.48391 -11.620026,-4.72679z"/>
  <path fill="#493310" fill-rule="evenodd" stroke="#493310" stroke-width="0.8" stroke-miterlimit="4" id="pathFrangeHomme" d="m307.635284,10.0511c-0.806396,1.61277 -0.479004,4.1092 -2.067993,8.271881c3.843964,-3.615761 7.671814,-6.609251 8.764282,-7.484081c0.765625,1.460851 -1.274872,2.12903 -2.954254,4.72679c4.005341,-2.04832 9.43689,-4.45277 11.324585,-4.92374c1.036011,1.036 -5.920441,4.151581 -5.022217,4.82526c3.832886,-2.64157 10.409912,-2.98697 12.703278,-4.13594c1.495941,2.39828 1.687256,3.46044 4.621307,8.788149c-0.251801,-3.23988 -2.173462,-14.910789 -13.681,-15.287489c-7.058533,-0.23105 -10.992554,2.58553 -13.687988,5.21917z"/>
  <path fill="#a07f46" fill-rule="nonzero" stroke="#c39586" stroke-miterlimit="4" d="m100.388062,85.919281c0.516068,-0.001938 0.937805,0.205452 0.942505,0.463478c0.004715,0.258034 -0.409378,0.469231 -0.925438,0.471992c-0.516052,0.002769 -0.93911,-0.203941 -0.945465,-0.461975c-0.006355,-0.258018 0.406387,-0.469879 0.922424,-0.473465l0.01297,0.467705l-0.006996,-0.467735z" id="pathMamm1Femme"/>
  <ellipse fill="#a07f46" id="ellipseMammelon1Femme" ry="0.467755" rx="0.935511" cy="86.387024" cx="100.39506"/>
  <ellipse fill="#a07f46" stroke="#c39586" id="ellipseMammelon2Femme" ry="0.467755" rx="0.935511" cy="86.665553" cx="128.009667"/>
  <ellipse fill="#a07f46" stroke="#c39586" id="ellipseNombrilFemme" ry="0.467755" rx="0.935511" cy="123.387024" cx="115"/>
  <ellipse fill="#a07f46" stroke="#c39586" id="ellipseMammelon1Homme" ry="0.467755" rx="0.935511" cy="83.218759" cx="306.056556"/>
  <ellipse fill="#a07f46" stroke="#c39586" id="ellipseMammelon2Homme" ry="0.467755" rx="0.935511" cy="83.044679" cx="329.986924"/>
  <ellipse fill="#a07f46" stroke="#c39586" id="ellipseNombrilHomme" ry="0.467755" rx="0.935511" cy="123" cx="320"/>
  <path fill="none" fill-rule="evenodd" stroke="#c39586" stroke-width="1px" id="pathOrgane1Homme" d="m313.550751,149.780182c-0.730988,1.708069 -0.651459,4.525375 -0.716125,6.367065c-0.072784,2.073059 0.043671,3.021744 1.871033,3.938995c2.07486,1.041504 2.440277,-0.163162 4.943542,-0.557068c2.450531,0.453018 3.683929,1.801788 5.575165,0.516266c1.483765,-1.008575 1.307434,-3.057449 1.385651,-4.512939c0.106201,-1.976151 -0.887238,-5.587234 -0.920074,-5.620056"/>
  <path fill="none" fill-rule="evenodd" stroke="#c39586" stroke-width="1px" id="pathOrgane2Homme" d="m316.26944,150.076065c0.024719,9.203583 -1.259338,10.944748 3.760132,10.845718c3.609161,-0.071198 2.386353,-3.844772 2.088959,-10.5672"/>
  <path fill="#ffd2d3" fill-rule="evenodd" stroke="#c39586" stroke-width="0.64" stroke-miterlimit="4" id="pathOngle11Femme" d="m151.208054,166.176224c-0.777328,0.667023 -0.877167,1.391479 -1.230927,1.969513c0.299179,0.772705 0.428299,0.807037 1.13707,0.972519c0.524857,-0.06218 1.259857,-1.195221 1.423264,-2.055756c-0.481842,-0.399155 -0.982086,-0.772156 -1.329407,-0.886276z"/>
  <path fill="#ffd2d3" fill-rule="evenodd" stroke="#c39586" stroke-width="0.64" stroke-miterlimit="4" id="pathOngle12Femme" d="m160.316971,173.272522c0.035233,0.519043 0.29155,1.663605 0.344666,2.264923c0.49614,0.625 0.329834,0.659348 0.989365,0.184738c-0.164474,-0.997696 -0.11879,-1.441406 -0.349289,-2.597366c-0.432602,-0.005264 -0.44046,0.06488 -0.984741,0.147705z"/>
  <path fill="#ffd2d3" fill-rule="evenodd" stroke="#c39586" stroke-width="0.64" stroke-miterlimit="4" id="pathOngle13Femme" d="m163.336014,174.561935c0.035233,0.519043 0.143829,1.71286 0.196945,2.314178c0.49614,0.624985 0.526794,0.757813 1.186325,0.283203c-0.164474,-0.997696 -0.11879,-1.441422 -0.349289,-2.597382c-0.432602,-0.005249 -0.4897,-0.082825 -1.033981,0z"/>
  <path fill="#ffd2d3" fill-rule="evenodd" stroke="#c39586" stroke-width="0.64" stroke-miterlimit="4" id="pathOngle14Femme" d="m166.428833,173.019699c0.035233,0.519043 0.094604,1.663605 0.147705,2.264923c0.49614,0.624985 0.428329,0.708572 1.087845,0.233963c-0.164459,-0.997681 -0.11879,-1.441406 -0.349289,-2.597366c-0.432587,-0.005264 -0.34198,0.015656 -0.886261,0.09848z"/>
  <path fill="#ffd2d3" fill-rule="evenodd" stroke="#c39586" stroke-width="0.64" stroke-miterlimit="4" id="pathOngle15Femme" d="m168.693741,171.148682c0.035233,0.519043 0.39003,1.565125 0.443146,2.166443c0.49614,0.625 0.428314,0.413162 1.038605,0.233978c-0.164474,-0.997696 -0.11879,-1.441406 -0.349289,-2.597366c-0.432602,-0.005264 -0.588181,0.11412 -1.132462,0.196945z"/>
  <path fill="#ffd2d3" fill-rule="evenodd" stroke="#c39586" stroke-width="0.64" stroke-miterlimit="4" id="pathOngle15Homme" d="m284.149017,167.265564c0.467224,0.82962 1.493225,1.839294 2.018738,2.511108c0.791565,-0.113556 1.019165,-0.571609 1.432495,-1.046204c-0.016754,-0.948456 -1.005035,-1.539871 -1.67868,-2.646606c-0.580322,0.240921 -1.523682,0.754211 -1.772552,1.181702z"/>
  <path fill="#ffd2d3" fill-rule="evenodd" stroke="#c39586" stroke-width="0.64" stroke-miterlimit="4" id="pathOngle14Homme" d="m277.770477,176.138702c0.035248,0.519043 0.143829,2.352936 0.19696,2.954254c0.496124,0.625 0.477539,-0.029984 1.137085,-0.504593c-0.16449,-0.997681 -0.118805,-1.441406 -0.349304,-2.597366c-0.432587,-0.005264 -0.44046,0.06488 -0.984741,0.147705z"/>
  <path fill="#ffd2d3" fill-rule="evenodd" stroke="#c39586" stroke-width="0.64" stroke-miterlimit="4" id="pathOngle13Homme" d="m274.323853,178.403641c0.035248,0.519043 0.14386,2.00827 0.19696,2.609589c0.496124,0.624985 0.477539,0.314682 1.137085,-0.159927c-0.16449,-0.997696 0.12738,-1.392166 -0.053864,-2.498901c-0.432617,-0.005264 -0.735901,-0.033585 -1.280182,0.04924z"/>
  <path fill="#ffd2d3" fill-rule="evenodd" stroke="#c39586" stroke-width="0.64" stroke-miterlimit="4" id="pathOngle12Homme" d="m270.483337,178.403641c0.035248,0.519043 0.193085,2.00827 0.246185,2.609589c0.496155,0.624985 0.428314,0.314682 1.08786,-0.159927c-0.16449,-0.997696 0.0289,-1.293701 -0.201599,-2.449661c-0.432587,-0.005264 -0.588165,-0.082825 -1.132446,0z"/>
  <path fill="#ffd2d3" fill-rule="evenodd" stroke="#c39586" stroke-width="0.64" stroke-miterlimit="4" id="pathOngle11Homme" d="m266.527435,176.266037c0.035217,0.519043 0.013,2.127136 0.066101,2.72847c0.299194,0.132599 0.526794,-0.325424 1.038635,-0.553833c-0.16449,-0.997696 -0.069519,-0.998291 -0.152344,-2.301956c-0.432617,-0.005005 -0.408142,0.04451 -0.952423,0.127319l0.000031,0z"/>
  <path fill="#ffd2d3" fill-rule="evenodd" stroke="#c39586" stroke-width="0.64" stroke-miterlimit="4" id="pathOngle6Homme" d="m350.641815,285.93811c0.675323,0.716003 0.931641,0.777344 1.624847,1.723328c0.594604,-0.261292 0.947052,-0.687988 1.293243,-1.232239c-0.65686,-0.751495 -0.619629,-0.516815 -1.637909,-1.27887c-0.334137,0.191681 -0.883606,0.458771 -1.280182,0.787781z"/>
  <path fill="#ffd2d3" fill-rule="evenodd" stroke="#c39586" stroke-width="0.64" stroke-miterlimit="4" id="pathOngle7Homme" d="m352.879639,284.805298c0.527618,0.617523 0.884888,0.736542 1.233429,1.1409c0.487671,-0.19165 1.014191,-0.495972 1.056519,-0.884064c-0.169403,-0.298889 -0.505249,-0.567078 -1.105774,-1.085419c-0.334137,0.191681 -0.787598,0.499573 -1.184174,0.828583z"/>
  <path fill="#ffd2d3" fill-rule="evenodd" stroke="#c39586" stroke-width="0.64" stroke-miterlimit="4" id="pathOngle8Homme" d="m354.222961,283.300385c0.527588,0.617493 0.884857,0.736542 1.233398,1.1409c0.592163,-0.122009 0.979401,-0.565613 1.056519,-0.884064c-0.169403,-0.298889 -0.57486,-0.671539 -1.175385,-1.18988c-0.334137,0.191681 -0.717987,0.604034 -1.114532,0.933044z"/>
  <path fill="#ffd2d3" fill-rule="evenodd" stroke="#c39586" stroke-width="0.64" stroke-miterlimit="4" id="pathOngle9Homme" d="m355.512512,281.598755c0.527618,0.617523 0.884888,0.736542 1.233429,1.14093c0.592133,-0.12204 0.97937,-0.565643 1.056519,-0.884094c-0.169434,-0.298889 -0.57489,-0.671509 -1.175385,-1.18988c-0.334137,0.191711 -0.717987,0.604034 -1.114563,0.933044z"/>
  <path fill="#ffd2d3" fill-rule="evenodd" stroke="#c39586" stroke-width="0.64" stroke-miterlimit="4" id="pathOngle10Homme" d="m356.868988,280.114685c0.527588,0.617523 0.536713,0.632111 0.885254,1.036469c0.592133,-0.122009 0.97937,-0.565613 1.056519,-0.884064c-0.169434,-0.298889 -0.54007,-0.427826 -1.140594,-0.946167c-0.229675,0.296143 -0.404633,0.464752 -0.801178,0.793762z"/>
  <path fill="#ffd2d3" fill-rule="evenodd" stroke="#c39586" stroke-width="0.64" stroke-miterlimit="4" id="pathOngle5Homme" d="m286.714539,285.197845c-0.447235,0.37381 -1.412994,1.502502 -2.074127,2.150574c0.517456,0.428711 1.062256,0.895782 2.344727,1.065643c0.138428,-0.595703 0.953217,-1.774231 1.33136,-2.478088c-0.473389,-0.156464 -0.892059,-0.475281 -1.601959,-0.738129z"/>
  <path fill="#ffd2d3" fill-rule="evenodd" stroke="#c39586" stroke-width="0.64" stroke-miterlimit="4" id="pathOngle4Homme" d="m283.778381,284.77298c-0.447266,0.37381 -0.612213,0.910614 -1.064453,1.384644c0.517456,0.42868 0.818542,0.477966 1.230591,0.613007c0.242889,-0.456451 0.605072,-1.043091 0.843964,-1.468414c-0.473389,-0.156464 -0.578735,-0.370819 -1.010101,-0.529236z"/>
  <path fill="#ffd2d3" fill-rule="evenodd" stroke="#c39586" stroke-width="0.64" stroke-miterlimit="4" id="pathOngle3Homme" d="m282.037567,283.467377c-0.447235,0.37381 -0.612213,0.910614 -1.064453,1.384644c0.517456,0.42868 0.818542,0.477966 1.230591,0.613007c0.242889,-0.456451 0.605072,-1.043091 0.843964,-1.468414c-0.473389,-0.156464 -0.578705,-0.370819 -1.010101,-0.529236z"/>
  <path fill="#ffd2d3" fill-rule="evenodd" stroke="#c39586" stroke-width="0.64" stroke-miterlimit="4" id="pathOngle2Homme" d="m280.470856,281.865845c-0.447266,0.37381 -0.612213,0.910614 -1.064453,1.384613c0.517426,0.428711 0.818542,0.477997 1.230591,0.613037c0.242889,-0.456451 0.605072,-1.043091 0.843964,-1.468414c-0.473419,-0.156464 -0.578735,-0.370819 -1.010101,-0.529236z"/>
  <path fill="#ffd2d3" fill-rule="evenodd" stroke="#c39586" stroke-width="0.64" stroke-miterlimit="4" id="pathOngle1Homme" d="m279.774506,279.742065c-0.447235,0.37381 -0.890747,0.910614 -1.342957,1.384613c0.517426,0.428711 0.818512,0.477997 1.230591,0.613037c0.242859,-0.456451 0.605072,-1.043091 0.843964,-1.468414c-0.473419,-0.156464 -0.300201,-0.370819 -0.731598,-0.529236z"/>
  <path fill="#ffd2d3" fill-rule="evenodd" stroke="#c39586" stroke-width="0.64" stroke-miterlimit="4" id="pathOngle1Femme" d="m81.009422,276.747864c-0.44725,0.37381 -0.612221,0.910614 -1.064453,1.384644c0.517441,0.42868 0.922981,0.269073 1.335052,0.404114c0.242867,-0.456451 0.50061,-0.834198 0.739502,-1.259521c-0.473404,-0.156464 -0.57872,-0.370819 -1.010101,-0.529236z"/>
  <path fill="#ffd2d3" fill-rule="evenodd" stroke="#c39586" stroke-width="0.64" stroke-miterlimit="4" id="pathOngle2Femme" d="m82.715408,278.419037c-0.44725,0.37381 -0.612221,0.910614 -1.064445,1.384644c0.412987,0.567963 0.818527,0.477966 1.230598,0.613007c0.242867,-0.456451 0.605057,-1.043091 0.843948,-1.468414c-0.473396,-0.156464 -0.57872,-0.370819 -1.010101,-0.529236z"/>
  <path fill="#ffd2d3" fill-rule="evenodd" stroke="#c39586" stroke-width="0.64" stroke-miterlimit="4" id="pathOngle3Femme" d="m84.839188,279.463531c-0.44725,0.37381 -0.612221,0.910614 -1.064445,1.384644c0.517441,0.42868 0.818527,0.477966 1.230598,0.613007c0.242867,-0.456451 0.605057,-1.043091 0.843948,-1.468414c-0.473396,-0.156464 -0.57872,-0.370819 -1.010101,-0.529236z"/>
  <path fill="#ffd2d3" fill-rule="evenodd" stroke="#c39586" stroke-width="0.64" stroke-miterlimit="4" id="pathOngle4Femme" d="m86.893341,280.473206c-0.44725,0.373779 -0.507774,0.980255 -0.82074,1.558716c0.517441,0.42868 0.818542,0.477966 1.230598,0.613007c0.242867,-0.456451 0.605057,-1.043091 0.843964,-1.468414c-0.473412,-0.156464 -0.822441,-0.544891 -1.253822,-0.703308z"/>
  <path fill="#ffd2d3" fill-rule="evenodd" stroke="#c39586" stroke-width="0.64" stroke-miterlimit="4" id="pathOngle5Femme" d="m90.61866,279.916138c-0.44725,0.37381 -0.542587,1.084717 -0.820732,1.802429c0.356911,0.901794 1.089409,1.38913 1.996552,1.448608c0.242874,-0.456451 0.779144,-1.983124 1.018028,-2.408447c-0.473396,-0.156464 -1.762466,-0.684174 -2.193848,-0.84259z"/>
  <path fill="#ffd2d3" fill-rule="evenodd" stroke="#c39586" stroke-width="0.64" stroke-miterlimit="4" id="pathOngle6Femme" d="m133.964706,280.577637c-0.029449,0.513062 0.479507,2.202118 0.60672,2.846924c0.784012,-0.015625 1.759537,-0.394043 2.170639,-0.257385c-0.279388,-0.909058 -0.752777,-2.192047 -0.931671,-2.721802c-0.508224,0.191681 -1.135788,0.186218 -1.845688,0.132263z"/>
  <path fill="#ffd2d3" fill-rule="evenodd" stroke="#c39586" stroke-width="0.64" stroke-miterlimit="4" id="pathOngle7Femme" d="m137.7034,282.412567c-0.029449,0.513062 0.026917,0.496124 0.154114,1.14093c0.366226,-0.050415 0.854309,-0.045898 1.160965,-0.187744c-0.140106,-0.35199 -0.091263,-0.660156 -0.339798,-1.15509c-0.508224,0.191681 -0.683167,0.186218 -0.975281,0.201904z"/>
  <path fill="#ffd2d3" fill-rule="evenodd" stroke="#c39586" stroke-width="0.64" stroke-miterlimit="4" id="pathOngle8Femme" d="m139.932037,281.959961c-0.029465,0.513062 0.131348,0.391663 0.25856,1.036469c0.366226,-0.050415 0.854309,-0.045868 1.160965,-0.187744c-0.140106,-0.35199 -0.160889,-0.764587 -0.409439,-1.259521c-0.508209,0.191681 -0.717972,0.395111 -1.010086,0.410797z"/>
  <path fill="#ffd2d3" fill-rule="evenodd" stroke="#c39586" stroke-width="0.64" stroke-miterlimit="4" id="pathOngle9Femme" d="m141.812103,280.880646c-0.029449,0.513062 0.061722,0.565765 0.188919,1.210571c0.366226,-0.050415 0.854324,-0.045898 1.160965,-0.187744c-0.140106,-0.35199 -0.056442,-0.694946 -0.304977,-1.189911c-0.508224,0.191711 -0.752792,0.151428 -1.044907,0.167084z"/>
  <path fill="#ffd2d3" fill-rule="evenodd" stroke="#c39586" stroke-width="0.64" stroke-miterlimit="4" id="pathOngle10Femme" d="m143.831436,279.870972c-0.029449,0.513092 0.096527,0.739838 0.22374,1.384644c0.366226,-0.050415 0.854309,-0.045868 1.160965,-0.187744c-0.140106,-0.35199 -0.334976,-0.869019 -0.583511,-1.363983c-0.508224,0.191711 -0.509079,0.151428 -0.801193,0.167084z"/>
  <path fill="#4b4aff" fill-rule="evenodd" stroke="black" stroke-width="0" stroke-miterlimit="4" id="pathSlipFemme" d="m87.294884,136.443848c0.56543,-2.331314 -0.674271,-7.849854 1.088257,-9.497368c12.863716,4.838615 34.521408,3.070457 51.813606,1.308907c1.20784,2.133377 2.71431,6.217545 1.948502,9.370163c-7.538513,7.167496 -20.885101,13.620255 -25.889175,20.644913c-2.208954,1.266708 -3.052216,1.672394 -5.817711,-0.005783c-4.018616,-7.303207 -17.74678,-15.770752 -23.143478,-21.820831z"/>
  <path fill="#000067" fill-rule="evenodd" stroke-width="1px" id="pathSlipHomme" d="m292.353851,139.786194c0.172913,-2.391449 0.165436,-5.330612 2.016693,-8.288727c21.60849,5.275818 30.769897,5.008575 50.51236,0.631302c2.080261,2.232315 1.825531,4.715378 2.259521,7.387085c-1.969666,3.939362 -10.143677,8.106613 -12.187653,10.15062c-6.516571,6.516556 -4.619141,11.964996 -15.462463,11.996536c-7.400574,0.0215 -10.994965,-5.986847 -12.784332,-9.565567c-4.821045,-6.125504 -7.670105,-5.157959 -14.354126,-12.311249z"/>
  <ellipse ry="8" rx="23.999999" id="svg_1" cy="83" cx="114.999999" stroke-linecap="null" stroke-linejoin="null" stroke-dasharray="null" stroke-width="0.5" fill="#007fff"/>
  <ellipse rx="27" id="svg_2" cy="88" cx="93" stroke-linecap="null" stroke-linejoin="null" stroke-dasharray="null" stroke-width="0.5" fill="black"/>
  <ellipse rx="14" id="svg_3" cy="85" cx="97" stroke-linecap="null" stroke-linejoin="null" stroke-dasharray="null" stroke-width="0.5" fill="black"/>
  <path id="svg_9" d="m143,128.5l-59,-1l-4,99.5l26,1l7.5,-69l6.5,68.5l27.5,-0.5l1,-2l-5.5,-96.5z" stroke-linecap="null" stroke-linejoin="null" stroke-dasharray="null" stroke-width="null" fill="#7f7f7f"/>
  <path id="svg_14" d="m296,130.5l52,0.5l0.5,36l-1,55.5l-25,-0.5l-3,-55.5l-8.5,56l-20,-1l0.5,-54.5l1,-35.5l3.5,-1z" stroke-linecap="null" stroke-linejoin="null" stroke-dasharray="null" stroke-width="null" fill="#7f7f7f"/>
  <path id="svg_15" d="m292.5,131.5l3,-26.5l-3,-23.5l-3.5,40.5l-19.5,-1l12,-45.5l3,-15l26,-9l8.5,13l14,-11l22.5,8l4.5,11l0.5,19l0,10.5l-13,3.5l-2,-19l-1,19.5l4,25.5l-50,0.5" stroke-linecap="null" stroke-linejoin="null" stroke-dasharray="null" stroke-width="null" fill="#7f00ff"/>
  <path id="svg_16" d="m84.5,127c0,0 9,-14 9.5,-14.5c0.5,-0.5 -2.5,-24.5 -2.5,-24.5c0,0 -0.5,18 -3.5,17.5c-3,-0.5 -10,-7 -10,-7.5c0,-0.5 4.5,-36 4.5,-36c0,0 21.5,-7.5 21.5,-7.5c0,0 9,10 9,10c0,0 12.5,-9.5 12.5,-9.5c0,0 16,7 19,7c3,0 11.5,44.5 11.5,44.5c0,0 -14,4 -14,4c0,0 -2.5,-20 -2.5,-20c0,0 -1.5,18 -1.5,18c0,0 4,20 4,20c0,0 -57.5,-1.5 -57.5,-1.5z" stroke-linecap="null" stroke-linejoin="null" stroke-dasharray="null" stroke-width="null" fill="#7f00ff"/>
 </g>
</svg>