<?xml version="1.0" encoding="UTF-8" standalone="no"?>
<!DOCTYPE svg PUBLIC "-//W3C//DTD SVG 20010904//EN"
"http://www.w3.org/TR/2001/REC-SVG-20010904/DTD/svg10.dtd">
<!-- Created with Sodipodi ("http://www.sodipodi.com/") -->
<svg
   id="svg559"
   sodipodi:version="0.33"
   width="100%"
   height="100%"
   sodipodi:docname="/home/kenny/ent/wiki/Human_icon.svg"
   xmlns="http://www.w3.org/2000/svg"
   xmlns:sodipodi="http://sodipodi.sourceforge.net/DTD/sodipodi-0.dtd"
   xmlns:xlink="http://www.w3.org/1999/xlink"
   sodipodi:docbase="/home/kenny/ent/wiki/">
  <defs
     id="defs561" />
  <sodipodi:namedview
     id="base" />
  <g id="person">
    <path
     style="fill:#d1baa3;fill-rule:evenodd;stroke:black;stroke-opacity:1;stroke-width:0;stroke-linejoin:miter;stroke-linecap:butt;fill-opacity:1.0000;stroke-dasharray:none;"
     d="M 10.97389 31.53055 L 12.75949 16.70886 L 12.51790 10.12658 L 6.528579 21.98665 L 5.187697 22.16703 L 11.09148 8.523736 L 14.68354 7.594936 L 14.68354 6.481013 C 13.14282 5.533030 13.13849 4.577796 13.16456 3.341775 C 13.18821 2.312019 13.65558 0.875204 15.18987 0.911393 C 16.57810 0.856159 17.11774 2.456894 17.11393 3.544304 C 17.20968 5.218296 16.89769 5.646996 16 6.379750 L 15.79747 7.594936 L 18.42890 8.257515 L 24.60058 22.89167 L 23.46756 22.91644 L 17.72152 10.43038 L 17.82278 17.01265 L 19.08363 31.00578 L 18.27350 31.00578 L 15.18987 19.03797 L 12.08781 31.53055 L 10.97389 31.53055 z "
     id="path562"
     sodipodi:nodetypes="ccccccccssscccccccccccc" />
  
    <path
       style="fill:#1c00b9;fill-rule:evenodd;stroke:black;stroke-opacity:1;stroke-width:0.1250;stroke-linejoin:miter;stroke-linecap:butt;fill-opacity:1.0000;stroke-dasharray:none;"
       d="M 12.98999 30.03907 L 10.95545 29.57883 L 12.81448 17.01266 L 17.92406 17.01265 L 19.94907 30.35223 L 17.30693 30.39818 L 15.37796 20.36313 L 12.98999 30.03907 z "
       id="path563"
       sodipodi:nodetypes="cccccccc" />
    <path
       style="fill:#dfe5ff;fill-rule:evenodd;stroke:#000000;stroke-opacity:1.0000;stroke-width:0.1250;stroke-linejoin:miter;stroke-linecap:butt;fill-opacity:1.0000;stroke-dasharray:none;"
       d="M 12.27058 17.83149 L 18.01661 17.83149 L 18.03402 11.21737 L 22.37975 20.75949 L 24 20.55696 L 18.93671 7.898736 L 16.60759 7.291141 L 15.03362 8.746443 L 13.97468 7.189872 L 10.93671 8.303797 L 6.075950 19.54430 L 7.594936 20.45570 L 12.16634 10.99169 L 12.27058 17.83149 z "
       id="path564"
       sodipodi:nodetypes="cccccccccccccc" />
    <path
       style="font-size:12.000;fill:#000000;fill-rule:evenodd;stroke:#000000;stroke-width:0.0000;fill-opacity:1.0000;stroke-dasharray:none;"
       d="M 13.09055 31.91466 L 8.484340 31.93057 L 8.578287 31.20654 L 11.64099 29.77937 L 12.99650 30.27648 L 13.09055 31.91466 z M 17.62013 30.21628 L 19.14061 29.83436 L 21.28099 31.06186 L 21.46824 31.97687 L 17.36984 31.95372 L 17.62013 30.21628 z "
       id="path569"
       sodipodi:nodetypes="cccccccccccc" />
    <path
       style="fill:#6a5e53;fill-rule:evenodd;stroke:black;stroke-opacity:1;stroke-width:0;stroke-linejoin:miter;stroke-linecap:butt;fill-opacity:1.0000;stroke-dasharray:none;"
       d="M 13.31359 1.495848 C 13.26588 0.897715 14.36375 0.812118 14.90921 0.818830 C 15.61751 0.827546 17.14490 0.824232 17.07486 1.542127 C 17.00494 2.258701 17.15719 3.590565 16.98230 3.574665 C 16.78588 3.556809 16.92639 1.995878 16.50781 1.714299 C 15.95516 1.304264 14.12021 1.370139 13.74030 1.769285 C 13.29818 2.279263 13.64289 3.381500 13.39023 3.396757 C 13.05336 3.414373 13.36518 2.142506 13.31359 1.495848 z "
       id="path570"
       sodipodi:nodetypes="csssssss" />
    <path
       style="fill:#a58b73;fill-rule:evenodd;stroke:none;stroke-opacity:1;stroke-width:0.1250;stroke-linejoin:miter;stroke-linecap:butt;fill-opacity:1.0000;stroke-dasharray:none;"
       d="M 14.02343 3.054688 C 14.01304 2.961125 14.26245 2.803433 14.375 2.820313 C 14.52288 2.842495 14.79095 3.048229 14.80468 3.171875 C 14.81699 3.282604 14.56739 3.540578 14.45312 3.523438 C 14.30697 3.501515 14.03909 3.195500 14.02343 3.054688 z "
       id="path571"
       sodipodi:nodetypes="cssss" />
    <path
       style="fill:#a58b73;fill-rule:evenodd;stroke:none;stroke-opacity:1;stroke-width:0.1250;stroke-linejoin:miter;stroke-linecap:butt;fill-opacity:1.0000;stroke-dasharray:none;"
       d="M 15.50780 3.054688 C 15.49742 2.961125 15.74682 2.803433 15.85938 2.820313 C 16.00726 2.842495 16.27532 3.048229 16.28906 3.171875 C 16.30137 3.282604 16.05176 3.540578 15.93750 3.523438 C 15.79134 3.501515 15.52346 3.195500 15.50780 3.054688 z "
       id="path572"
       sodipodi:nodetypes="cssss" />
    <path
       style="fill:#e9c7a9;fill-rule:evenodd;stroke:none;stroke-opacity:1;stroke-width:0.1250;stroke-linejoin:miter;stroke-linecap:butt;fill-opacity:1.0000;stroke-dasharray:none;"
       d="M 14.80468 4.031250 C 14.88436 3.895566 15.00463 3.115933 15.11719 3.132813 C 15.26507 3.154995 15.45501 3.907604 15.46875 4.031250 C 15.48106 4.141979 15.27051 4.517140 15.15625 4.500000 C 15.01009 4.478078 14.74226 4.239690 14.80468 4.031250 z "
       id="path573"
       sodipodi:nodetypes="cssss" />
    <path
       style="fill:#c98a67;fill-rule:evenodd;stroke:none;stroke-opacity:1;stroke-width:0.1250;stroke-linejoin:miter;stroke-linecap:butt;fill-opacity:1.0000;stroke-dasharray:none;"
       d="M 14.64842 5.281250 C 14.63805 5.187688 15.01074 5.358155 15.23438 5.281250 C 15.48550 5.176618 15.76751 5.196667 15.78124 5.320313 C 15.79355 5.431042 15.34864 5.728078 15.23438 5.710938 C 15.08821 5.689015 14.66409 5.422063 14.64842 5.281250 z "
       id="path574"
       sodipodi:nodetypes="cssss" />
   </g>
</svg>
