<?xml version="1.0" encoding="UTF-8" standalone="no"?>
<!-- Created with Inkscape (http://www.inkscape.org/) -->

<svg
   xmlns:dc="http://purl.org/dc/elements/1.1/"
   xmlns:cc="http://creativecommons.org/ns#"
   xmlns:rdf="http://www.w3.org/1999/02/22-rdf-syntax-ns#"
   xmlns:svg="http://www.w3.org/2000/svg"
   xmlns="http://www.w3.org/2000/svg"
   version="1.1"
   width="100%"
   height="100%"
   id="svg2">
  <defs
     id="defs4" />
  <metadata
     id="metadata7">
    <rdf:RDF>
      <cc:Work
         rdf:about="">
        <dc:format>image/svg+xml</dc:format>
        <dc:type
           rdf:resource="http://purl.org/dc/dcmitype/StillImage" />
        <dc:title></dc:title>
      </cc:Work>
    </rdf:RDF>
  </metadata>
  <g
     id="layer1">
    <path
       d="m 16.369109,1021.7498 c -0.89751,0.2244 -1.795023,0.4488 -2.692533,0.6731 -0.224378,0.2244 -0.389317,0.5313 -0.673133,0.6732 -0.359631,0.1798 -0.986637,-0.1798 -1.346268,0 -2.801419,1.4007 0.719604,-0.047 -0.673133,1.3462 -0.317318,0.3174 -0.944889,-0.2006 -1.346268,0 -0.283816,0.142 -0.389314,0.5313 -0.673133,0.6732 -0.20069,0.1003 -0.472444,-0.1004 -0.673132,0 -0.283819,0.1419 -0.389317,0.5312 -0.673136,0.6731 -0.200688,0.1004 -0.514472,-0.1586 -0.673132,0 -0.317319,0.3173 0.317318,1.029 0,1.3463 -0.317319,0.3173 -1.028948,-0.3173 -1.346266,0 0,1.795 0.224378,-0.2244 -0.673135,0.6731 -0.317318,0.3173 0.317318,1.029 0,1.3463 -0.158658,0.1586 -0.5144729,-0.1587 -0.6731329,0 -0.317318,0.3173 0.200691,0.9449 0,1.3463 -0.141909,0.2838 -0.531224,0.3893 -0.673133,0.6731 -0.200691,0.4014 0.317318,1.0289 0,1.3462 -0.15866,0.1587 -0.514475,-0.1586 -0.673135,0 -0.02165,0.022 0,1.8562 0,2.0194 0,0.2472 0.02709,2.6655 0,2.6926 -0.89751,0.8975 -0.673133,-1.1219 -0.673133,0.6731 0,0.2244 0,0.4488 0,0.6732 0,0.2243 0.224378,0.6731 0,0.6731 -0.224377,0 -0.158658,-0.8318 0,-0.6731 0.819865,0.8198 0.315311,1.5039 1.346268,2.0194 0.200688,0.1003 0.514473,-0.1587 0.673133,0 0.15866,0.1586 -0.15866,0.5144 0,0.6731 0.317318,0.3173 0.9448859,-0.2007 1.3462679,0 0.283816,0.1419 0.389314,0.5312 0.673133,0.6731 0.42308,0.2116 2.269453,-0.2115 2.692533,0 0.283819,0.1419 0.389317,0.5312 0.673133,0.6732 0.401379,0.2006 1.02895,-0.3174 1.346268,0 0.158658,0.1586 -0.15866,0.5144 0,0.6731 0.02165,0.022 1.856147,0 2.019401,0 0.247197,0 2.665445,0.027 2.692534,0 0.225876,-0.2259 -0.225879,-1.1204 0,-1.3463 0.158657,-0.1586 0.514474,0.1587 0.673132,0 0.158661,-0.1586 -0.158658,-0.5145 0,-0.6731 1.392737,-1.3928 -0.05444,2.1283 1.346268,-0.6731 0.200689,-0.4014 -0.317318,-1.029 0,-1.3463 0.158658,-0.1587 0.514473,0.1586 0.673133,0 0.317318,-0.3173 -0.448755,-1.3463 0,-1.3463 0.224378,0 -0.224377,0.6732 0,0.6732 0.831793,0 0.673133,-0.944 0.673133,-1.3463 0,-1.795 -0.224378,0.2244 0.673135,-0.6731 0.158658,-0.1587 -0.15866,-0.5145 0,-0.6732 0.158658,-0.1586 0.514473,0.1587 0.673133,0 0.336566,-0.3365 -0.336566,-1.6828 0,-2.0194 0.158658,-0.1586 0.514475,0.1587 0.673133,0 0.317318,-0.3173 -0.200689,-0.9449 0,-1.3463 0.141909,-0.2838 0.531226,-0.3893 0.673133,-0.6731 0.100345,-0.2007 -0.158658,-0.5145 0,-0.6731 0.15866,-0.1587 0.514475,0.1586 0.673135,0 0.224387,-0.2244 -0.22439,-1.1219 0,-1.3463 0.158658,-0.1586 0.514472,0.1587 0.673133,0 0.317318,-0.3173 -0.200691,-0.9449 0,-1.3463 0.273666,-0.5473 1.067788,-0.5569 0.673132,-1.3462 -0.141909,-0.2838 -0.448755,-0.4488 -0.673132,-0.6732 -0.224378,-0.2243 -0.389317,-0.5312 -0.673133,-0.6731 -0.200691,-0.1003 -0.514475,0.1587 -0.673135,0 -0.158658,-0.1586 0.15866,-0.5145 0,-0.6731 -0.158658,-0.1587 -0.448756,0 -0.673133,0 -0.224378,0 -0.448755,0 -0.673133,0 -0.448755,0 -1.795023,0 -1.346268,0 3.098714,0 1.691012,0.2873 -2.692534,-3.3657 z"
       id="path2985"
       style="fill:#483737;stroke:#000000;stroke-width:0.23559672px;stroke-linecap:butt;stroke-linejoin:miter;stroke-opacity:1" />
    <path
       d="m 23.939944,1027.309 c 0.224194,0.9898 0.329277,2.0221 0.672582,2.9694 0.117751,0.3249 0.53079,0.4293 0.672581,0.7423 0.100265,0.2213 0,0.4949 0,0.7423 0.224196,0.2475 0.530792,0.4294 0.672584,0.7424 0.182434,0.4027 -0.184032,2.7662 0,2.9693 0.158528,0.175 0.44839,0 0.672584,0 0,0.2475 -0.100265,0.521 0,0.7424 0.141791,0.313 0.896775,0.4948 0.672581,0.7423 -0.224193,0.2474 -0.672581,-1.0923 -0.672581,-0.7423 0,0.5533 0.318098,1.0934 0.672581,1.4846 0.158531,0.175 0.514054,-0.1749 0.672582,0 0.224205,0.2475 -0.224203,1.2372 0,1.4847 0.158531,0.175 0.514053,-0.175 0.672584,0 0.158528,0.175 0,0.4949 0,0.7423 0,0.2475 0,0.4949 0,0.7424 0,0.4949 0,0.9897 0,1.4847 0,0.2474 0.224194,0.7423 0,0.7423 -0.224196,0 0,-0.9898 0,-0.7423 0,0.4948 0,0.9897 0,1.4846 0,0.2475 0.158528,0.5674 0,0.7424 -0.158531,0.1749 -0.44839,0 -0.672584,0 -0.224194,0 -0.672582,0.2474 -0.672582,0 0,-0.2475 0.672582,-0.2475 0.672582,0 0,0.3499 -0.388996,0.5858 -0.672582,0.7423 -0.200528,0.1107 -0.448387,0 -0.672581,0 -0.224194,0 -0.448388,0 -0.672584,0 -0.224194,0 -0.672584,0.2474 -0.672584,0 0,-0.2475 0.89678,0 0.672584,0 -0.672584,0 -1.345165,0 -2.017747,0 -0.672584,0 -1.345165,0 -2.017747,0 -0.224194,0 -0.672584,0.2474 -0.672584,0 0,-0.2475 0.896778,0 0.672584,0 -0.448388,0 -0.896778,0 -1.345165,0 -0.448388,0 -0.896776,0 -1.345163,0 -0.224196,0 -0.672584,0.2474 -0.672584,0 0,-0.2475 0.896778,0 0.672584,0 -1.345166,0 -2.690331,0 -4.035496,0 -0.224194,0 -0.514054,0.175 -0.672582,0 -0.158531,-0.175 0,-0.4949 0,-0.7423 0,-0.2475 0,-0.4949 0,-0.7424"
       id="path2987"
       style="fill:#6c5353;stroke:#000000;stroke-width:0.2473097px;stroke-linecap:butt;stroke-linejoin:miter;stroke-opacity:1" />
    <path
       d="m 1.0798201,1037.9398 c 4.3492799,-0.469 -0.14543903,3.4852 0.72053,4.588 0.169832,0.2163 0.550703,-0.2163 0.720535,0 0.16983,0.2163 -0.169832,0.7013 0,0.9176 0.339662,0.4325 1.011424,-0.2736 1.441065,0 2.9986869,1.9094 -0.770274,-0.063 0.7205319,1.8352 0.16983,0.2163 0.550701,-0.2163 0.720533,0 0.16983,0.2163 -0.169832,0.7013 0,0.9176 0.105962,0.1349 2.1616,-0.108 2.1616,0 0,0.3059 -0.720537,-0.3059 -0.720537,0 0,1.7131 2.315491,0.5568 2.8821341,0.9176 0.3038019,0.1934 0.4167289,0.7241 0.7205329,0.9176 0.260568,0.1659 3.101504,0 3.602663,0 0.240174,0 0.5507,-0.2163 0.720532,0 0.16983,0.2163 -0.169832,0.7013 0,0.9176 0.029,0.037 2.617524,0 2.88213,0 0.240179,0 0.720533,-0.3059 0.720533,0 0,0.3059 -0.96071,0 -0.720533,0 0.720533,0 1.441063,0 2.161598,0 0.240179,0 0.960711,0 0.720532,0 -0.480353,0 -1.921418,0 -1.441067,0 0.960714,0 1.921423,0 2.88213,0 0.240181,0 0.720537,-0.3059 0.720537,0 0,0.3059 -0.960714,0 -0.720537,0 0.480358,0 0.960714,0 1.44107,0 0.240176,0 0.72053,-0.3059 0.72053,0 0,0.3059 -0.960709,0 -0.72053,0 0.480353,0 1.011419,0.2736 1.441065,0 0.214822,-0.1368 -0.169833,-0.7013 0,-0.9176 0.16983,-0.2163 0.5507,0.2163 0.720532,0 0.16983,-0.2163 -0.169832,-0.7013 0,-0.9176 0.339662,-0.4326 1.101401,0.4326 1.441063,0 0.169832,-0.2163 -0.16983,-0.7013 0,-0.9176 0.240598,-0.3064 1.200471,0.3064 1.441067,0 0.03265,-0.042 0,-4.1554 0,-4.588"
       id="path2991"
       style="fill:#280b0b;stroke:#000000;stroke-width:0.28459185px;stroke-linecap:butt;stroke-linejoin:miter;stroke-opacity:1" />
    <path
       d="m 9.132923,1032.1834 c 0.448758,0 0.897513,0 1.346268,0 0.05609,0 0.12862,0.04 0.168282,0 0.03966,-0.04 0,-0.1122 0,-0.1683 0,-0.2244 0,-0.4488 0,-0.6731 0,-0.056 0,-0.1122 0,-0.1683 0,-0.056 0.03966,-0.1286 0,-0.1683 -0.0076,-0.01 -0.7620699,0 -0.8414139,0 -0.0561,0 -0.12862,-0.04 -0.1682851,0 -0.07933,0.079 0.05017,0.2362 0,0.3366 -0.146277,0.2925 -0.336566,0.5609 -0.504851,0.8414 z"
       id="path2993"
       style="fill:#241c1c;stroke:#000000;stroke-width:0.23559672px;stroke-linecap:butt;stroke-linejoin:miter;stroke-opacity:1" />
    <path
       d="m 15.022841,1029.3226 c -0.168282,0.2804 -0.323415,0.5692 -0.504848,0.8414 -0.558126,0.5581 0.07933,-0.1587 -0.168284,0.3365 -0.03548,0.071 -0.143198,0.093 -0.168285,0.1683 -0.05321,0.1597 0,0.3366 0,0.5049 0,0.056 0,0.1122 0,0.1683 0,0.056 -0.03966,0.1286 0,0.1682 0.0887,0.089 0.217574,0.1287 0.336569,0.1683 0.09494,0.032 0.394269,0 0.504848,0 0.336567,0 0.673136,0 1.009702,0 0.05609,0 0.112189,0 0.168282,0 0.0561,0 0.128619,0.04 0.168284,0 0.03966,-0.04 -0.02509,-0.1181 0,-0.1683 0.213767,-0.4275 0.201129,0.1724 0.336567,-0.5048 0.03554,-0.1777 0,-0.9346 0,-1.178 0,-0.088 0.02212,-0.6289 0,-0.6731 -0.03548,-0.071 -0.09733,-0.1328 -0.168285,-0.1683 -0.0088,0 -0.496044,0 -0.504848,0 -0.07096,0.035 -0.132806,0.097 -0.168284,0.1683 -0.02509,0.05 0.055,0.1573 0,0.1683 -0.275027,0.055 -0.560944,0 -0.841418,0 z"
       id="path2995"
       style="fill:#241c1c;stroke:#000000;stroke-width:0.23559672px;stroke-linecap:butt;stroke-linejoin:miter;stroke-opacity:1" />
    <path
       d="m 19.734776,1035.7173 c 0.195915,1.3169 -0.627816,0.123 -0.841417,0.3366 -0.0054,0 0,0.464 0,0.5049 0,0.041 -0.0054,0.4994 0,0.5048 0.03966,0.04 0.128619,-0.04 0.168284,0 0.03966,0.04 -0.03966,0.1286 0,0.1683 0.03966,0.04 0.112189,0 0.168284,0 0.112189,0 0.236221,-0.05 0.336567,0 0.05017,0.025 -0.03966,0.1286 0,0.1683 0.03966,0.04 0.118109,-0.025 0.168282,0 0.07095,0.036 0.09733,0.1328 0.168284,0.1682 0.04351,0.022 0.890422,0 1.009699,0 0.07935,0 0.833791,0.01 0.841418,0 0.0054,-0.01 0,-0.464 0,-0.5048 0,-0.047 0.01317,-0.8151 0,-0.8414 -0.02509,-0.05 -0.12862,0.04 -0.168282,0 -0.03966,-0.04 0.02509,-0.1181 0,-0.1683 -0.03548,-0.071 -0.132806,-0.097 -0.168285,-0.1683 -0.02509,-0.05 0.03966,-0.1286 0,-0.1683 -0.07933,-0.079 -0.236221,0.05 -0.336566,0 -0.309812,-0.1549 -0.02675,-0.3499 -0.336567,-0.5048 -0.05017,-0.025 -0.118111,-0.025 -0.168284,0 -0.292552,0.1463 -0.560944,0.3366 -0.841417,0.5048 z"
       id="path2997"
       style="fill:#241c1c;stroke:#000000;stroke-width:0.23559672px;stroke-linecap:butt;stroke-linejoin:miter;stroke-opacity:1" />
    <path
       d="m 13.171725,1037.7367 c -0.195576,0.461 -0.168284,0.8739 -0.168284,1.3463 0,0.056 0,0.1122 0,0.1683 0,0.056 -0.03966,0.1286 0,0.1683 0.03966,0.04 0.112191,0 0.168284,0 0.088,0 0.628885,0.022 0.673133,0 0.07095,-0.035 0.09733,-0.1328 0.168284,-0.1683 0.06672,-0.033 0.470447,0.034 0.504851,0 0.0054,-0.01 0,-0.4641 0,-0.5049 0,-0.1295 0.02782,-0.7857 0,-0.8414 -0.02509,-0.05 -0.118112,0.025 -0.168284,0 -0.07096,-0.036 -0.09733,-0.1328 -0.168285,-0.1683 -0.05017,-0.025 -0.112189,0 -0.168282,0 -0.280473,0 -0.560944,0 -0.841417,0 z"
       id="path2999"
       style="fill:none;stroke:#000000;stroke-width:0.23559672px;stroke-linecap:butt;stroke-linejoin:miter;stroke-opacity:1" />
    <path
       d="m 7.113523,1036.3905 c -0.224378,0.1122 -0.560944,0.5609 -0.673133,0.3365 -0.112189,-0.2243 0.673133,-0.5874 0.673133,-0.3365 0,0.4045 -0.492233,0.6479 -0.673133,1.0097 -0.03157,0.063 0,0.9095 0,1.0097 0,0.1122 -0.07933,0.2572 0,0.3365 0.07933,0.079 0.227728,-0.027 0.336566,0 0.243374,0.061 0.429762,0.2758 0.673135,0.3366 0.217678,0.054 0.455454,-0.054 0.673133,0 0.121686,0.03 0.217571,0.1286 0.336567,0.1683 0.109832,0.037 0.808499,0 1.009699,0 0.112191,0 0.2243801,0 0.3365691,0 0.05609,0 0.128617,0.04 0.168282,0 0.03966,-0.04 -0.02509,-0.1181 0,-0.1683 0.07095,-0.1419 0.2863929,-0.186 0.3365659,-0.3366 0.03016,-0.091 0,-0.5306 0,-0.6731 0,-0.1098 0.03315,-0.5405 0,-0.6731 -0.247374,-0.9895 -0.01871,-0.1964 -0.3365659,-0.6732 -0.06958,-0.1043 -0.09871,-0.2322 -0.168282,-0.3365 -0.04755,-0.071 -0.4352251,-0.4701 -0.5048511,-0.5049 -0.05017,-0.025 -0.115068,0.018 -0.168285,0 -0.580107,-0.1934 -0.124656,-0.1683 -0.504848,-0.1683 -0.108492,0 -0.636976,-0.024 -0.673135,0 -0.298855,0.1993 -0.560944,0.4488 -0.841417,0.6732 z"
       id="path3001"
       style="fill:#241c1c;stroke:#000000;stroke-width:0.23559672px;stroke-linecap:butt;stroke-linejoin:miter;stroke-opacity:1" />
    <path
       d="m 11.152324,1043.2901 c 0.543965,0.7962 0.345892,0.6731 1.009702,0.6731 0.05609,0 0.128617,0.04 0.168282,0 0.03966,-0.04 0,-0.1122 0,-0.1683 0,-0.2804 0,-0.5609 0,-0.8414 0,-0.056 0.03966,-0.1286 0,-0.1683 -0.03966,-0.04 -0.112189,0 -0.168282,0 -0.495368,0 -0.120183,-0.029 -1.009702,0.5049 z"
       id="path3003"
       style="fill:#6c5353;stroke:#000000;stroke-width:0.23559672px;stroke-linecap:butt;stroke-linejoin:miter;stroke-opacity:1" />
    <path
       d="m 9.132923,1038.0733 c -0.224377,0.1122 -0.472444,0.1861 -0.673132,0.3366 -0.08975,0.067 0.03548,0.2301 0,0.3365 -0.03967,0.119 -0.137862,0.2149 -0.168285,0.3366 -0.02721,0.1088 0,0.2244 0,0.3366 0,0.1122 0,0.2243 0,0.3365 0,0.056 -0.01359,0.1139 0,0.1683 0.04302,0.1721 0.125262,0.3328 0.168285,0.5049 0.04974,0.1989 -0.11001,0.1974 0.168282,0.3365 0.05017,0.025 0.118111,-0.025 0.168284,0 0.770166,0.3851 -0.714096,-0.07 0.504848,0.3366 0.05322,0.018 0.12862,-0.04 0.168285,0 0.03966,0.04 -0.05017,0.1432 0,0.1683 0.04133,0.021 1.077697,0 1.177983,0 0.11058,0 0.409906,0.032 0.504851,0 0.118993,-0.04 0.217571,-0.1286 0.336567,-0.1683 0.10643,-0.036 0.257236,0.079 0.336566,0 0.03966,-0.04 -0.01774,-0.1151 0,-0.1683 0.03966,-0.119 0.128619,-0.2176 0.168284,-0.3365 0.03548,-0.1065 0,-0.2244 0,-0.3366 0,-0.2805 0,-0.561 0,-0.8414 0,-1.3366 0.05442,-0.01 -0.168284,-1.3463 -0.01845,-0.1107 0.05017,-0.2362 0,-0.3366 -0.02509,-0.05 -0.118112,0.025 -0.168284,0 -0.513189,-0.2566 0.307781,-0.1334 -0.504849,-0.3365 -0.0056,-10e-4 -0.503958,9e-4 -0.504851,0 -0.03966,-0.04 0.05017,-0.1432 0,-0.1683 -0.100345,-0.05 -0.230135,0.035 -0.336566,0 -0.07526,-0.025 -0.09733,-0.1328 -0.168284,-0.1683 -0.04351,-0.022 -0.890419,0 -1.0097,0"
       id="path3005"
       style="fill:#483737;stroke:#000000;stroke-width:0.23559672px;stroke-linecap:butt;stroke-linejoin:miter;stroke-opacity:1" />
    <path
       d="m 17.715375,1036.2222 c -0.422241,-0.184 -0.756023,-0.1683 -1.177984,-0.1683 -0.05609,0 -0.112188,0 -0.168282,0 -0.05609,0 -0.118111,-0.025 -0.168284,0 -0.07095,0.035 -0.132806,0.097 -0.168284,0.1683 -0.02508,0.05 0,0.1122 0,0.1683 0,0.1122 0,0.2243 0,0.3365 0,0.3366 0,0.6732 0,1.0097 0,0.056 0,0.1122 0,0.1683 0,0.056 0.05609,0.1683 0,0.1683 -0.05609,0 0,-0.2244 0,-0.1683 0,0.04 -0.01885,0.6354 0,0.6732 0.03548,0.071 0.09733,0.1328 0.168284,0.1682 0.06672,0.033 0.470447,-0.034 0.504851,0 0.03966,0.04 -0.03966,0.1287 0,0.1683 0.07933,0.079 0.257236,-0.079 0.336566,0 0.03966,0.04 -0.03966,0.1286 0,0.1683 0.03966,0.04 0.118112,-0.025 0.168282,0 0.07096,0.035 0.09733,0.1328 0.168285,0.1683 0.05017,0.025 0.118111,-0.025 0.168284,0 0.07095,0.035 0.09733,0.1328 0.168282,0.1683 0.05017,0.025 0.118112,-0.025 0.168284,0 0.700354,0.3501 -0.179901,-0.012 0.168282,0.3365 0.03966,0.04 0.112189,0 0.168285,0 0.448755,0 0.89751,0 1.346265,0 0.0618,0 0.666362,0.01 0.673136,0 0.03966,-0.04 -0.03966,-0.1286 0,-0.1682 0.03966,-0.04 0.128617,0.04 0.168282,0 0.03966,-0.04 -0.03966,-0.1287 0,-0.1683 0.03966,-0.04 0.128619,0.04 0.168284,0 0.05598,-0.056 -0.05598,-0.2806 0,-0.3366 0.03966,-0.04 0.128619,0.04 0.168282,0 0,-0.4488 -0.05609,0.056 0.168284,-0.1683 0.0076,-0.01 0,-0.7621 0,-0.8414 0,-0.056 0.01774,-0.1151 0,-0.1683 -0.03966,-0.119 -0.112188,-0.2244 -0.168284,-0.3366 -0.05609,-0.1121 -0.09871,-0.2322 -0.168282,-0.3365 -0.04401,-0.066 -0.132806,-0.097 -0.168284,-0.1683 -0.02509,-0.05 0.03966,-0.1286 0,-0.1683 -0.03966,-0.04 -0.128617,0.04 -0.168282,0 -0.03966,-0.04 0.03966,-0.1286 0,-0.1683 -0.07933,-0.079 -0.236224,0.05 -0.336567,0 -0.770168,-0.3851 0.714096,0.07 -0.504851,-0.3365 -0.149123,-0.05 -0.647589,0.032 -0.841417,0 -0.282134,-0.047 -0.555391,-0.1683 -0.841417,-0.1683 -0.286026,0 -0.559281,0.1212 -0.841417,0.1683 -0.05533,0.01 -0.112189,0 -0.168282,0 -0.0561,0 -0.168285,0.056 -0.168285,0 0,-0.056 0.112189,0 0.168285,0"
       id="path3007"
       style="fill:#483737;stroke:#000000;stroke-width:0.23559672px;stroke-linecap:butt;stroke-linejoin:miter;stroke-opacity:1" />
    <path
       d="m 26.559398,1038.3025 c -0.065,0.3378 -0.168699,0.6949 -0.09205,1.0378 0.128429,0.2114 0.422833,0.1881 0.641839,0.1983 0.05297,10e-4 0.10595,0 0.158924,0 0,0 -2.012701,1.4491 -2.012701,1.4491 l 0,0 c -0.05546,0 -0.110914,-0.01 -0.166371,-0.011 -0.336413,-0.042 -0.652318,-0.1238 -0.806177,-0.4591 -0.09822,-0.3748 -0.01371,-0.7502 0.0303,-1.129 0,0 2.246231,-1.0892 2.246231,-1.0892 z"
       id="path3013"
       style="fill:#241c1c" />
    <path
       d="m 26.25549,1043.188 c 0.249624,0.2583 0.495919,0.5289 0.79839,0.726 0.172733,0.1342 0.08803,0.064 0.254018,0.2093 0,0 -2.104642,1.3131 -2.104642,1.3131 l 0,0 c -0.15871,-0.1316 -0.07872,-0.067 -0.239915,-0.1926 -0.289487,-0.2213 -0.534023,-0.4932 -0.818105,-0.7211 0,0 2.110254,-1.3347 2.110254,-1.3347 z"
       id="path3015"
       style="fill:#241c1c" />
    <path
       d="m 30.956455,1047.8601 c 0.176836,0.1192 0.0828,0.062 0.283225,0.1689 0,0 -2.070052,1.3564 -2.070052,1.3564 l 0,0 c -0.211438,-0.1091 -0.110792,-0.059 -0.301488,-0.1512 0,0 2.088315,-1.3741 2.088315,-1.3741 z"
       id="path3017"
       style="fill:#241c1c" />
    <path
       d="m 29.932754,1048.7827 c 0.563819,0.1054 1.046226,0.4239 1.53393,0.7063 0.361943,0.2237 0.183978,0.1179 0.533316,0.3181 0,0 -2.051824,1.3288 -2.051824,1.3288 l 0,0 c -0.340873,-0.2099 -0.167092,-0.1023 -0.521283,-0.3227 -0.466376,-0.2707 -0.956285,-0.5697 -1.514195,-0.5627 0,0 2.020056,-1.4678 2.020056,-1.4678 z"
       id="path3019"
       style="fill:#241c1c" />
    <path
       d="m 30.968765,1045.4969 c 0.354512,0.1757 0.679602,0.397 1.008794,0.6144 0,0 -2.071665,1.3253 -2.071665,1.3253 l 0,0 c -0.31794,-0.2178 -0.641408,-0.4271 -1.009805,-0.5512 0,0 2.072676,-1.3885 2.072676,-1.3885 z"
       id="path3021"
       style="fill:#241c1c" />
    <path
       d="m 21.543556,1050.2559 c 0.311772,0.3018 0.662064,0.5586 1.035869,0.7773 0,0 -2.058969,1.329 -2.058969,1.329 l 0,0 c -0.374076,-0.2411 -0.72345,-0.5154 -1.087154,-0.7716 0,0 2.110254,-1.3347 2.110254,-1.3347 z"
       id="path3023"
       style="fill:#241c1c" />
    <path
       d="m 2.0156341,1044.2407 c 0.264089,0.053 0.520579,0.1406 0.770033,0.2407 0,0 -2.04533703,1.3784 -2.04533703,1.3784 l 0,0 C 0.500582,1045.7798 0.256555,1045.6955 0,1045.7051 c 0,0 2.0156341,-1.4644 2.0156341,-1.4644 z"
       id="path3025"
       style="fill:#782121" />
    <path
       d="m 19.69378,1026.4809 c 0.354318,0.139 0.70118,0.3298 0.978536,0.5924 0,0 -2.106823,1.3033 -2.106823,1.3033 l 0,0 c -0.269815,-0.2389 -0.601236,-0.4012 -0.94439,-0.5072 0,0 2.072677,-1.3885 2.072677,-1.3885 z"
       id="path3029"
       style="fill:#6c5353" />
    <path
       d="m 13.326448,1029.6461 c 0.369946,0.4931 0.79741,0.9391 1.223146,1.3835 0,0 -2.063093,1.2564 -2.063093,1.2564 l 0,0 c -0.426406,-0.4568 -0.852935,-0.9136 -1.287604,-1.3626 0,0 2.127551,-1.2773 2.127551,-1.2773 z"
       id="path3031"
       style="fill:#6c5353" />
    <path
       d="m 8.610403,1032.8127 c 0.429097,0.4704 0.96802,0.809 1.466481,1.1966 0,0 -2.067422,1.2999 -2.067422,1.2999 l 0,0 c -0.501178,-0.4053 -1.033853,-0.7712 -1.518388,-1.1978 0,0 2.119329,-1.2987 2.119329,-1.2987 z"
       id="path3033"
       style="fill:#6c5353" />
    <path
       d="m 20.721101,1032.275 c 0.458615,0.4491 0.960486,0.8534 1.483826,1.224 0.250713,0.1746 0.500855,0.3483 0.759951,0.5102 0,0 -2.061017,1.3222 -2.061017,1.3222 l 0,0 c -0.252937,-0.1729 -0.501604,-0.3514 -0.750288,-0.5303 -0.523181,-0.3882 -1.024323,-0.8049 -1.540391,-1.202 0,0 2.107919,-1.3241 2.107919,-1.3241 z"
       id="path3035"
       style="fill:#6c5353" />
    <path
       d="m 17.35172,1033.5441 c 0.447332,0.2532 0.931191,0.4373 1.378389,0.6878 0.339594,0.155 0.168609,0.076 0.51288,0.2388 0,0 -2.040199,1.3492 -2.040199,1.3492 l 0,0 c -0.349046,-0.1631 -0.173847,-0.081 -0.525595,-0.2461 -0.450372,-0.2317 -0.910028,-0.4585 -1.385707,-0.6318 0,0 2.060232,-1.3979 2.060232,-1.3979 z"
       id="path3037"
       style="fill:#6c5353" />
    <path
       d="m 14.618967,1035.4884 c 0.05088,0 0.101752,0 0.152648,0 0.117462,0 0.265134,0.012 0.379294,-0.026 0.06007,-0.02 0.221103,-0.1249 0.165825,-0.094 -2.006452,1.1323 -2.563464,1.5304 -1.797089,0.993 0.24923,-0.2367 0.478176,-0.4944 0.70441,-0.7529 0.224091,-0.2235 0.483254,-0.408 0.7313,-0.6041 0.136389,-0.1033 0.275005,-0.2083 0.424109,-0.2931 0.759083,-0.4317 1.522141,-0.8563 2.281943,-1.2867 0.04632,-0.026 0.182557,-0.1095 0.13634,-0.083 -0.66272,0.3788 -1.323931,0.7602 -1.985897,1.1402 0.851131,-0.5507 0.336046,-0.2209 2.401942,-1.3843 0.669306,-0.3768 -2.651731,1.5513 -1.99917,1.1461 0.660667,-0.4102 1.607641,-1.1555 2.527533,-1.3885 0.319794,-0.025 0.627319,-0.098 0.942213,-0.1547 0.313939,-0.015 0.600041,-0.1381 0.907351,-0.1915 0.317231,-0.044 0.638213,-0.047 0.957896,-0.05 0.286924,0.043 0.519194,0.2279 0.711922,0.4345 0.02821,0.025 0.05642,0.05 0.08464,0.075 0,0 -2.118802,1.3114 -2.118802,1.3114 l 0,0 c -0.03055,-0.029 -0.06109,-0.058 -0.09163,-0.086 -0.168089,-0.1597 -0.3462,-0.2866 -0.589256,-0.2734 -0.312891,0.01 -0.627773,0.02 -0.934237,0.09 -0.300042,0.074 -0.597464,0.1484 -0.905238,0.1846 -0.308988,0.063 -0.625602,0.09 -0.926254,0.1866 -0.0849,0.038 -0.32963,0.1709 -0.249334,0.1243 0.666112,-0.3869 2.670098,-1.5378 1.999627,-1.1585 -7.54781,4.27 1.417211,-0.736 -0.408798,0.2324 -7.27943,4.2513 1.554055,-0.9321 -0.865231,0.5019 -0.244561,0.1958 -0.485626,0.3903 -0.737503,0.5747 -0.260812,0.2326 -0.470053,0.5211 -0.711033,0.7741 -0.84853,0.9162 -1.987426,1.5572 -3.209569,1.5212 0,0 2.020055,-1.4677 2.020055,-1.4677 z"
       id="path3039"
       style="fill:#6c5353" />
    <path
       d="m 18.635967,1033.6193 c 0.08406,-0.3711 0.198396,-0.7219 0.477057,-0.9896 0.756056,-0.4301 1.511181,-0.8618 2.268165,-1.2903 1.768901,-1.0012 -7.15968,4.0885 0.390269,-0.2198 0.668597,-0.3815 -1.332597,0.7711 -2.002575,1.1502 -0.03814,0.022 0.07091,-0.052 0.106374,-0.077 0.216865,-0.2067 0.39703,-0.4379 0.548649,-0.6952 0.163836,-0.2449 0.274939,-0.5026 0.354919,-0.7846 0.09342,-0.2773 0.181518,-0.5558 0.313233,-0.8177 0.539545,-0.8946 1.640048,-1.4787 2.667749,-1.6195 0,0 -1.97509,1.5086 -1.97509,1.5086 l 0,0 c -0.865641,0.3174 -0.04421,0.025 1.88202,-1.1201 0.07402,-0.044 -0.471943,0.2202 -0.309883,0.2078 -0.130302,0.2552 -0.256756,0.506 -0.325668,0.7874 -0.117134,0.2732 -0.126897,0.5909 -0.344939,0.8195 -0.132514,0.2853 -0.297785,0.5357 -0.513415,0.7633 -0.634337,0.8239 0.191849,-0.2184 -2.334874,1.435 -0.641577,0.4198 2.666097,-1.5154 1.991383,-1.1512 -0.764304,0.4126 -1.504732,0.8679 -2.260263,1.2963 -0.04209,0.024 -0.173663,0.085 -0.132075,0.06 0.659011,-0.3918 1.323358,-0.7746 1.985036,-1.162 -0.343867,0.164 -0.464233,0.445 -0.548193,0.8049 0,0 -2.237879,1.0941 -2.237879,1.0941 z"
       id="path3041"
       style="fill:#6c5353" />
    <path
       d="m 20.16016,1035.1143 c -0.197932,0.3014 -0.430829,0.5741 -0.623804,0.881 -0.179284,0.3151 -0.35871,0.6306 -0.530973,0.9495 -0.132646,0.2721 -0.25931,0.5467 -0.435006,0.7943 -0.539439,0.9968 -1.633498,1.6377 -2.763637,1.8362 -0.401513,0.063 -0.808683,0.069 -1.214202,0.072 -1.45087,-0.013 -1.087373,0.2525 1.361572,-1.4691 0.285574,0.037 0.535208,-0.073 0.791926,-0.1785 0.882432,-0.4003 2.402542,-1.3188 -1.317181,0.8104 0.299495,-0.1646 0.39919,-0.4542 0.521531,-0.7522 0.133991,-0.3197 0.276209,-0.638 0.44009,-0.9437 0.109913,-0.2689 0.28907,-0.4968 0.427945,-0.7498 0.172075,-0.34 0.302282,-0.6993 0.458042,-1.0473 0.712784,-1.4597 0.842711,-1.1165 2.839433,-2.1821 0.03306,0.085 0.08964,0.1647 0.09918,0.2555 0.03247,0.3093 -0.344153,0.8347 -0.53713,1.0555 -0.276612,0.2972 -0.62959,0.5039 -0.943303,0.7572 -0.791097,0.6871 -1.75128,1.0936 -2.667203,1.6202 0,0 1.933281,-1.5518 1.933281,-1.5518 l 0,0 c -3.544348,2.0664 -2.277033,1.4089 -1.561577,0.8644 0.297422,-0.2806 0.650991,-0.4804 0.966872,-0.7384 0.104779,-0.1073 0.225435,-0.2004 0.317957,-0.3185 0.06551,-0.084 0.215615,-0.5013 0.27839,-0.5331 0.02775,-0.014 0.05237,0.034 0.07856,0.05 0.698452,-0.4001 1.396356,-0.8012 2.095357,-1.2003 0.05126,-0.029 -0.109588,0.05 -0.152104,0.091 -0.22584,0.2175 -0.348136,0.5431 -0.50273,0.8081 -0.169125,0.343 -0.300654,0.6997 -0.438196,1.0556 -0.07287,0.1323 -0.128065,0.2763 -0.216671,0.3992 -0.06546,0.091 -0.105144,0.1067 -0.156333,0.2068 -0.02259,0.044 -0.03572,0.092 -0.05358,0.1388 -0.160304,0.3066 -0.334139,0.6078 -0.462292,0.93 -0.132029,0.3041 -0.183064,0.6543 -0.449278,0.8786 -0.974567,0.5672 -1.90753,1.2062 -2.95443,1.6268 -0.279522,0.096 -0.566358,0.1274 -0.861368,0.1233 2.162415,-1.6253 1.222742,-1.4597 2.662399,-1.463 0.392899,-0.01 0.791899,-0.015 1.171415,-0.128 0.861723,-0.3919 0.295556,-0.1418 -1.806923,1.097 -0.03882,0.023 0.07799,-0.046 0.112132,-0.075 0.108822,-0.094 0.163956,-0.2236 0.221305,-0.3514 0.165071,-0.248 0.350146,-0.4789 0.456271,-0.7632 0.149769,-0.3402 0.376903,-0.6392 0.531478,-0.9783 0.184241,-0.2967 0.348725,-0.6071 0.605224,-0.8469 0,0 2.277554,-1.0304 2.277554,-1.0304 z"
       id="path3043"
       style="fill:#6c5353" />
    <path
       d="m 17.64978,1038.7851 c -0.03477,0.2986 0.04194,0.5576 0.281972,0.7437 0.32232,0.18 0.677861,0.2589 1.039858,0.308 0.309258,0.073 0.605639,0.1591 0.882868,0.3162 0.27079,0.1899 0.570931,0.3418 0.883601,0.4495 0.315369,0.078 0.634339,0.095 0.948962,0.1761 0.289833,0.072 0.588954,0.085 0.886105,0.095 0,0 -2.013687,1.4487 -2.013687,1.4487 l 0,0 c -0.309023,-0.018 -0.617455,-0.049 -0.917014,-0.1319 -0.319485,-0.073 -0.653182,-0.081 -0.960139,-0.2062 -0.314658,-0.1306 -0.615621,-0.2892 -0.905631,-0.4679 -0.264971,-0.1209 -0.541931,-0.204 -0.827969,-0.2604 -0.39455,-0.076 -0.794301,-0.1812 -1.126103,-0.4178 -0.257894,-0.2503 -0.407644,-0.5525 -0.397598,-0.9199 0,0 2.224775,-1.1336 2.224775,-1.1336 z"
       id="path3045"
       style="fill:#6c5353" />
    <path
       d="m 17.325566,1045.2892 c 0.483478,0.1147 0.970065,0.2021 1.46437,0.256 0.41131,0.041 0.824792,0.047 1.237767,0.049 0.339711,10e-5 0.679423,0 1.019135,0 0.335605,0 0.671208,0 1.006813,0 0.282558,-0.085 0.572325,-0.1265 0.865629,-0.1493 0.331925,0.014 0.647467,-0.057 0.971537,-0.113 0.173762,-0.1064 0.381297,-0.12 0.568215,-0.1841 0.08469,-0.029 0.161669,-0.077 0.244761,-0.1105 0.04407,-0.013 0.09029,-0.019 0.132198,-0.038 0.07703,-0.034 0.294301,-0.1645 0.221313,-0.1223 -0.640689,0.3701 -2.571527,1.4651 -1.93141,1.094 0.745873,-0.4324 1.494503,-0.8601 2.241752,-1.2902 -0.676603,0.3888 -1.351925,0.7797 -2.029814,1.1662 -0.03578,0.02 0.06753,-0.047 0.103293,-0.068 0.748844,-0.4281 1.489244,-0.8717 2.250302,-1.2777 0.687937,-0.3669 -2.693941,1.5708 -2.030863,1.1606 0.732652,-0.4532 1.492769,-0.8605 2.239703,-1.2898 0.671076,-0.3856 -1.341425,0.7727 -2.012135,1.159 0.234331,-0.1356 0.408421,-0.3469 0.630485,-0.4988 0.856099,-0.7468 1.720614,-1.1079 2.80873,-1.723 0.867787,-0.384 2.444092,-1.3401 -1.240917,0.768 0.290305,-0.1498 0.476639,-0.3198 0.566208,-0.6361 0.07486,-0.39 -0.126459,-0.5838 -0.47109,-0.7013 -0.849769,-0.017 -2.327931,1.1429 1.666262,-1.0744 0.03128,-0.017 -0.06561,0.031 -0.09227,0.055 -0.03297,0.03 -0.05596,0.069 -0.08393,0.1028 -0.133631,0.246 -0.278278,0.4845 -0.425026,0.7227 -0.146113,0.2507 -0.29284,0.5024 -0.449811,0.7466 -0.187914,0.2559 -0.44754,0.4423 -0.681838,0.6518 -0.287814,0.2189 -0.553358,0.4645 -0.838058,0.6871 -0.880326,0.6434 0.09438,-0.06 -2.436993,1.4286 -0.653906,0.3846 2.628762,-1.5158 1.973532,-1.1335 -0.751172,0.4384 -1.503557,0.8747 -2.261366,1.3015 -0.601692,0.3388 0.265605,-0.2141 -0.265164,0.1318 -0.216332,0.1011 -0.448404,0.1652 -0.676549,0.2364 0,0 1.95997,-1.5229 1.95997,-1.5229 l 0,0 c 0.222716,-0.079 0.450821,-0.1448 0.651832,-0.2741 0.08827,-0.04 0.345006,-0.1774 0.261164,-0.1286 -0.659556,0.3844 -2.646147,1.5238 -1.981885,1.1476 7.583406,-4.2946 -1.413505,0.7422 0.481334,-0.2708 0.28392,-0.2161 0.550637,-0.4482 0.824782,-0.6764 0.250279,-0.1802 0.475926,-0.3978 0.709817,-0.5981 0.191559,-0.2108 0.285869,-0.4817 0.460962,-0.7053 0.11604,-0.263 0.322843,-0.4706 0.415764,-0.746 0.02257,-0.043 0.04588,-0.085 0.06768,-0.128 0.02151,-0.043 0.02144,-0.1041 0.06225,-0.1287 0.936221,-0.5641 1.688147,-1.5392 2.717961,-1.1982 0.412306,0.2074 0.662142,0.5136 0.640694,0.9964 -0.05348,0.3533 -0.137893,0.6539 -0.487481,0.8188 -1.000235,0.5791 -1.960395,1.2092 -3.016295,1.6719 3.717768,-2.1583 2.138323,-1.3918 1.451478,-0.7451 -0.227183,0.1979 0.03482,-0.016 -0.214647,0.1459 -0.154773,0.1009 -0.263162,0.2661 -0.407849,0.3798 -0.748717,0.4339 -1.500715,0.8621 -2.246153,1.3016 -0.671078,0.3956 2.710804,-1.536 2.023065,-1.1701 -0.76049,0.4046 -1.480026,0.8834 -2.241435,1.2863 -0.688222,0.3641 1.348313,-0.7792 2.021724,-1.17 0.03505,-0.02 -0.07108,0.039 -0.106615,0.058 -0.744228,0.4331 -1.488455,0.8662 -2.232684,1.2994 0.673661,-0.3915 1.346542,-0.7844 2.020982,-1.1746 0.03499,-0.02 -0.06764,0.044 -0.102553,0.065 -0.744007,0.434 -1.487826,0.8682 -2.234152,1.2982 -0.114401,0.066 -0.243098,0.092 -0.363142,0.1452 -0.270613,0.1029 -0.555216,0.179 -0.835395,0.2494 -0.327025,0.058 -0.654407,0.08 -0.985517,0.1018 -0.293436,0.038 -0.581076,0.1195 -0.877537,0.1264 -0.335558,2e-4 -0.671114,0 -1.006669,0 -0.339585,0 -0.679198,0 -1.018756,0 -0.412777,-0.01 -0.825639,-0.028 -1.23521,-0.084 -0.505871,-0.07 -1.005249,-0.1733 -1.510439,-0.2463 0,0 2.048186,-1.4272 2.048186,-1.4272 z"
       id="path3051"
       style="fill:#483737" />
    <path
       d="m 29.247462,1043.192 c -0.175477,0.3017 -0.228653,0.6473 -0.299144,0.9834 -0.05317,0.3149 -0.233966,0.5704 -0.391135,0.8391 -0.155916,0.2438 -0.337971,0.4692 -0.523958,0.6905 -0.223866,0.268 -0.48957,0.4956 -0.739889,0.7376 -0.214174,0.1954 -0.460844,0.3492 -0.681515,0.5364 -0.04104,0.1615 -0.205094,0 -0.133044,-0.044 0.05198,-0.031 0.120974,0 0.181412,0 0.312087,0.042 0.582689,-0.063 0.86304,-0.1805 0.03686,-0.029 0.151222,-0.109 0.110575,-0.086 -0.673265,0.3806 -2.696888,1.5142 -2.009657,1.1595 0.768192,-0.3965 1.494294,-0.8702 2.252769,-1.285 0.681664,-0.3727 -1.347149,0.7745 -2.022289,1.159 -0.06883,0.039 0.128965,-0.093 0.186131,-0.1477 0.214174,-0.1758 0.325571,-0.4259 0.455392,-0.6624 0.145412,-0.2366 0.287015,-0.473 0.397206,-0.7289 0.08641,-0.1876 0.18144,-0.4189 0.332936,-0.5662 0.02731,0.2304 -0.224469,0.1781 -0.388565,0.271 -0.680302,0.4872 -1.860905,1.0546 1.776037,-1.0038 0.239667,-0.1356 -0.232749,0.171 -0.312661,0.2443 -0.16104,0.1887 -0.301799,0.3937 -0.470126,0.5762 -0.147472,0.1999 -0.336602,0.3496 -0.530689,0.4995 -0.748208,0.4291 -1.486933,0.8752 -2.244624,1.2873 -0.224109,0.1219 -0.418676,-0.2769 -0.469165,-0.421 -0.05675,-0.3371 0.06959,-0.6578 0.274374,-0.9206 0.01536,-0.023 0.02073,-0.058 0.04609,-0.069 1.181487,-0.5203 2.957356,-1.6393 1.996929,-0.4567 -0.195352,0.2804 -0.468199,0.4808 -0.732493,0.6897 -0.9331,0.6608 -1.879358,1.4366 -3.029543,1.5756 -0.336439,0.029 -0.67461,0.026 -1.012001,0.025 -0.337118,0 -0.674236,0 -1.011356,0 -0.224436,-2e-4 -0.112222,-2e-4 -0.336642,0 0,0 2.005376,-1.4566 2.005376,-1.4566 l 0,0 c 0.224519,0 0.112253,2e-4 0.336797,0 0.336904,0 0.673807,0 1.010715,0 0.329925,0 0.662222,0 0.988142,-0.06 0.13061,-0.03 0.179346,-0.036 0.304469,-0.085 0.04887,-0.019 0.188557,-0.091 0.143417,-0.065 -3.493756,2.0657 -2.415656,1.45 -1.706889,0.9786 0.27182,-0.1785 0.545762,-0.3767 0.756579,-0.6259 0.734195,-0.9451 0.625964,-0.5401 2.602197,-1.4669 0.02616,-0.012 -0.05049,0.028 -0.07573,0.042 -0.189853,0.2217 -0.359094,0.3762 -0.376611,0.6938 0.0073,0.026 0.02212,0.108 0.05383,0.1319 0.04514,0.034 0.14472,-0.06 0.176278,-0.065 -0.673442,0.3918 -1.346885,0.7836 -2.020329,1.1754 0.209481,-0.118 0.394134,-0.2564 0.55851,-0.4309 0.146878,-0.2005 0.331812,-0.3701 0.474131,-0.5754 0.08165,-0.1336 0.154078,-0.2236 0.290555,-0.3049 0.663805,-0.3954 1.632735,-1.0681 2.494517,-1.4497 0.286271,-0.068 0.456603,-0.1944 0.652186,0.1085 0.06272,0.2969 -0.169239,0.4462 -0.306189,0.6764 -0.08527,0.2674 -0.200142,0.5384 -0.380941,0.755 -0.124723,0.2544 -0.244554,0.5116 -0.417525,0.7381 -0.991527,0.9065 2.346897,-1.3138 -2.410498,1.4888 -0.667059,0.3929 2.6807,-1.5506 2.010425,-1.1631 -2.290865,1.3242 -1.44181,0.9763 -2.37695,1.3515 -0.304122,0.103 -0.61878,0.1329 -0.938374,0.094 -0.23486,-0.036 -0.582843,-0.2153 -0.328971,-0.477 0.236433,-0.1661 0.446724,-0.3676 0.69092,-0.5246 0.271634,-0.2127 0.512041,-0.4684 0.760198,-0.7073 0.186394,-0.2118 0.365797,-0.4323 0.525423,-0.6621 0.158029,-0.1948 0.01597,-0.01 0.152497,-0.2386 0.102435,-0.1755 0.25726,-0.3106 0.281905,-0.5262 0.108073,-0.3334 0.116889,-0.6949 0.257998,-1.0208 0,0 2.277553,-1.0304 2.277553,-1.0304 z"
       id="path3055"
       style="fill:#280b0b" />
    <path
       d="m 8.417451,1043.8611 c 0.311926,0.2662 0.662809,0.4832 0.965575,0.7601 0.3196621,0.2558 0.649425,0.4984 0.961965,0.7632 0.276374,0.2709 0.551178,0.5353 0.860305,0.7688 0.296274,0.2042 0.62929,0.3107 0.959913,0.4386 0.312323,0.1193 0.644178,0.1513 0.975012,0.1697 0.391635,-0.029 0.749916,0.1172 1.120545,0.2169 0.370853,0.1298 0.739091,0.2692 1.121113,0.3625 0.410136,0.081 0.828841,0.095 1.24559,0.1031 0.398564,0 0.797142,0 1.195715,0 0.525221,-0.01 1.045543,0 1.567147,0.06 0.440479,0.049 0.86709,0.172 1.306907,0.2302 0.339912,0.038 0.682389,0.04 1.024028,0.042 0.335209,0 0.670421,0 1.005631,0 0.3284,-0.024 0.674218,-0.069 0.991148,-0.166 0.340465,-0.07 0.670668,-0.1745 1.009256,-0.2521 0.340233,-0.053 0.677002,-0.079 1.013497,-0.1509 -0.359591,0.256 0.787072,-0.4537 0.406277,-0.2349 -3.287519,1.8889 -2.475798,1.4988 -1.769842,0.9808 0.126254,-0.118 0.06578,-0.052 0.179263,-0.1985 0,0 2.278571,-0.9909 2.278571,-0.9909 l 0,0 c -0.105326,0.1671 -0.05361,0.083 -0.155168,0.2513 -0.101111,0.1071 -0.0928,0.113 -0.221025,0.1894 -0.521725,0.3111 -1.756473,1.2545 -2.6937,1.4981 -0.334321,0.061 -0.676874,0.069 -1.005921,0.16 -0.335355,0.09 -0.672927,0.1684 -1.01017,0.251 -0.339118,0.062 -0.680582,0.1324 -1.027173,0.12 -0.335884,0 -0.671783,0 -1.007655,0 -0.347568,-0.01 -0.696089,-0.017 -1.039825,-0.074 -0.428522,-0.075 -0.848899,-0.1962 -1.283712,-0.2324 -0.519465,-0.049 -1.039245,-0.04 -1.560595,-0.032 -0.40238,0 -0.80494,0.01 -1.207176,-0.01 -0.427823,-0.019 -0.857019,-0.05 -1.274661,-0.151 -0.379233,-0.1071 -0.748976,-0.2431 -1.12391,-0.3639 -0.362873,-0.1025 -0.720388,-0.182 -1.100604,-0.173 -0.346591,-0.034 -0.689045,-0.095 -1.013431,-0.2272 -0.3537459,-0.1264 -0.684708,-0.2911 -0.997168,-0.5015 -0.309432,-0.2378 -0.573115,-0.5194 -0.861334,-0.7807 -0.318176,-0.2604 -0.646063,-0.5088 -0.962578,-0.7712 -0.31098,-0.2636 -0.646527,-0.4952 -0.982061,-0.7265 0,0 2.110251,-1.3347 2.110251,-1.3347 z"
       id="path3057"
       style="fill:#280b0b" />
    <path
       d="m 17.143219,1044.9122 c 0.558963,0.022 1.118557,0.017 1.677844,0.018 0.537309,0 1.074616,0 1.611923,-0.01 0.373015,0 0.74604,0 1.119067,0 0.336009,-2e-4 0.672019,-2e-4 1.008027,-2e-4 0.335963,0 0.671924,0 1.007885,0 0.309157,0.034 0.596625,-0.074 0.897909,-0.1205 0.02967,-0.01 0.114723,-0.049 0.089,-0.031 -2.204629,1.5438 -1.346155,1.4443 -2.785102,1.4299 -0.459863,0.012 -0.922467,-0.024 -1.379675,0.032 -0.542553,0.017 -1.008696,0.1724 -1.499854,0.385 -0.350012,0.1727 -0.714689,0.2886 -1.086402,0.4016 -0.01538,0.017 -0.06503,0.064 -0.04617,0.051 2.080074,-1.4443 1.345879,-1.4662 2.672011,-1.4653 0.40141,0 0.802819,0 1.204231,-0.01 0.367866,0.032 0.718957,-0.035 1.078571,-0.096 0.05722,-0.01 0.115598,-0.01 0.171668,-0.024 0.09665,-0.024 0.185657,-0.073 0.280935,-0.1015 0.142977,-0.043 0.272899,-0.058 0.407813,-0.1247 1.343922,-0.5202 -0.798913,0.1992 -1.730559,1.3356 -0.285564,0.1034 -0.57737,0.1873 -0.84444,0.3362 -0.05649,0.027 -0.223558,0.1118 -0.169474,0.08 0.65478,-0.3798 1.313888,-0.752 1.972072,-1.1259 0.04787,-0.027 -0.0933,0.058 -0.141059,0.086 -0.754715,0.4328 -1.505675,0.8723 -2.266302,1.2946 -0.197983,0.063 -0.10627,0.022 -0.276583,0.1199 -0.267878,0.1363 -0.568893,0.155 -0.863464,0.171 -0.215885,0.01 -0.107501,0 -0.325152,0.01 0,0 2.001764,-1.4642 2.001764,-1.4642 l 0,0 c 0.213762,-0.01 0.107595,0 0.318508,-0.02 0.285272,-0.035 0.55864,-0.1005 0.810523,-0.2452 0.09141,-0.037 0.355539,-0.1707 0.270411,-0.1207 -4.247418,2.4926 -0.710661,0.3576 0.602541,-0.3262 0.295304,-0.123 0.605835,-0.2464 0.926319,-0.2739 1.072719,0.3959 -1.472157,1.4352 -2.245599,1.6759 -0.292864,0.072 -0.577735,0.177 -0.879759,0.2073 -0.363989,0.059 -0.727409,0.073 -1.096102,0.06 -0.402802,0 -0.805552,0.01 -1.208352,0.01 -1.41976,-0.01 -0.617393,-0.1148 1.287475,-1.5557 0.01555,-0.012 0.039,0 0.0585,0 0.362115,-0.1002 0.69682,-0.2697 1.046775,-0.4039 0.498101,-0.1923 1.012673,-0.2961 1.546382,-0.3272 0.463826,-0.025 0.928564,-0.012 1.392932,-0.013 0.214146,0 0.446117,-0.018 0.658644,0.016 1.040857,0.1652 -1.079059,1.4582 -1.937557,1.5238 -0.304784,0.06 -0.605999,0.1066 -0.918601,0.082 -0.336005,0 -0.672011,10e-5 -1.008019,10e-5 -0.335754,0 -0.671505,1e-4 -1.007259,-3e-4 -0.369149,0 -0.738299,0 -1.107439,0 -0.529864,0 -1.059725,-0.01 -1.589592,-0.01 -0.575772,0 -1.151797,0 -1.727275,0.018 0,0 2.020056,-1.4676 2.020056,-1.4676 z"
       id="path3059"
       style="fill:#280b0b" />
    <path
       d="m 5.814131,1037.7571 c 0.33577,-0.1533 0.587908,7e-4 0.850771,0.2036 0.178815,0.1812 0.319869,0.3915 0.561401,0.489 0.146308,0.091 0.0727,0.05 0.220297,0.1229 0,0 -2.082746,1.3647 -2.082746,1.3647 l 0,0 c -0.149832,-0.083 -0.07695,-0.042 -0.218657,-0.1217 -0.229139,-0.1384 -0.39082,-0.3381 -0.5816179,-0.5225 -0.260035,-0.1793 -0.43285,-0.122 -0.701562,0.026 0,0 1.9521139,-1.5616 1.9521139,-1.5616 z"
       id="path3061"
       style="fill:#280b0b" />
  </g>
</svg>
