<?xml version="1.0" encoding="UTF-8" standalone="no"?>
<!-- Created with Inkscape (http://www.inkscape.org/) -->

<svg
   xmlns:dc="http://purl.org/dc/elements/1.1/"
   xmlns:cc="http://creativecommons.org/ns#"
   xmlns:rdf="http://www.w3.org/1999/02/22-rdf-syntax-ns#"
   xmlns:svg="http://www.w3.org/2000/svg"
   xmlns="http://www.w3.org/2000/svg"
   xmlns:sodipodi="http://sodipodi.sourceforge.net/DTD/sodipodi-0.dtd"
   xmlns:inkscape="http://www.inkscape.org/namespaces/inkscape"
   version="1.0"
   width="34.181232"
   height="30.902977"
   id="svg2447"
   sodipodi:version="0.32"
   inkscape:version="0.48.4 r9939"
   sodipodi:docname="Simple_Tree_clip_art.svg"
   inkscape:output_extension="org.inkscape.output.svg.inkscape">
  <metadata
     id="metadata2513">
    <rdf:RDF>
      <cc:Work
         rdf:about="">
        <dc:format>image/svg+xml</dc:format>
        <dc:type
           rdf:resource="http://purl.org/dc/dcmitype/StillImage" />
        <cc:license
           rdf:resource="http://web.resource.org/cc/PublicDomain" />
      </cc:Work>
      <cc:License
         rdf:about="http://web.resource.org/cc/PublicDomain">
        <cc:permits
           rdf:resource="http://web.resource.org/cc/Reproduction" />
        <cc:permits
           rdf:resource="http://web.resource.org/cc/Distribution" />
        <cc:permits
           rdf:resource="http://web.resource.org/cc/DerivativeWorks" />
      </cc:License>
    </rdf:RDF>
  </metadata>
  <sodipodi:namedview
     inkscape:window-height="579"
     inkscape:window-width="752"
     inkscape:pageshadow="2"
     inkscape:pageopacity="0.0"
     guidetolerance="10.0"
     gridtolerance="10.0"
     objecttolerance="10.0"
     borderopacity="1.0"
     bordercolor="#666666"
     pagecolor="#ffffff"
     id="base"
     inkscape:zoom="2.4463473"
     inkscape:cx="62.493513"
     inkscape:cy="1.9207523"
     inkscape:window-x="1760"
     inkscape:window-y="96"
     inkscape:current-layer="svg2447"
     showgrid="false"
     fit-margin-top="0"
     fit-margin-left="0"
     fit-margin-right="0"
     fit-margin-bottom="0"
     inkscape:window-maximized="0" />
  <defs
     id="defs2449">
    <filter
       id="filter3587"
       height="1.2199417"
       y="-0.10997086"
       width="1.0283011"
       x="-0.014150559"
       color-interpolation-filters="sRGB">
      <feGaussianBlur
         id="feGaussianBlur3589"
         stdDeviation="2.0410432"
         inkscape:collect="always" />
    </filter>
  </defs>
  <g
     id="g3190">
    <g
       id="g3495"
       style="fill:#1a1a1a"
       transform="matrix(0.06290226,-0.00399792,0.00399792,0.06290226,-8.7365859,-1.3210633)">
      <g
         id="g3473"
         style="fill:#1a1a1a">
        <path
           inkscape:connector-curvature="0"
           id="path3471"
           style="color:#000000;fill:#1a1a1a;fill-opacity:1;fill-rule:evenodd;stroke:#000000;stroke-width:0.125;stroke-linecap:butt;stroke-linejoin:miter;stroke-miterlimit:4;stroke-opacity:1;stroke-dasharray:none;stroke-dashoffset:0;marker:none;visibility:visible;display:inline;overflow:visible;enable-background:accumulate"
           d="m 487.90369,436.92673 c 10.80478,6.29544 -4.60386,4.30646 3.13146,9.5604 -16.91881,-11.82664 -0.3271,11.15939 8.95944,10.12035 14.96755,5.77856 32.6349,-0.72083 47.00303,7.59339 4.2397,-5.53401 26.74436,-22.32385 8.43006,-13.95888 -5.01351,4.76694 -34.02806,-1.62265 -21.98572,-2.99356 19.80861,-4.07584 11.01913,-3.46785 -3.82254,-1.86863 -16.98862,-1.02849 -14.48101,-7.46434 1.90918,-5.27991 10.73864,-1.71288 34.19391,-21.77906 7.48249,-8.91839 -14.67856,5.63406 -33.03637,7.2947 -8.3752,0.41974 35.81741,-8.22972 -21.19586,-4.84844 -15.10752,-5.68378 16.14215,-3.40261 33.20619,-3.2258 47.63166,-12.22422 -10.8522,1.60553 -21.65134,7.13062 -32.57739,3.28299 5.77673,-1.32472 35.99678,-4.87364 19.13377,-4.13827 -5.90907,-0.36107 -34.98718,1.80225 -23.29808,-0.47624 6.08536,-1.41178 37.82972,-7.10958 29.59249,-6.22111 -27.48869,-0.0646 -56.92906,4.27286 -81.49165,-11.13521 15.62077,11.33337 7.96799,6.51465 1.22646,4.15771 10.1409,8.81876 -15.45772,13.65882 7.79623,13.35522 8.12341,3.02927 10.88219,14.22199 24.23128,14.56935 19.70922,6.1232 -22.30736,-1.75691 -13.16404,3.39843 5.56677,2.17422 28.65235,18.02443 16.85806,14.7085 -7.85449,-2.75596 -15.70898,-5.51192 -23.56347,-8.26788 z" />
        <g
           id="g3451"
           style="fill:#1a1a1a">
          <path
             inkscape:connector-curvature="0"
             id="path3443"
             style="color:#000000;fill:#1a1a1a;fill-opacity:1;fill-rule:evenodd;stroke:#000000;stroke-width:0.125;stroke-linecap:butt;stroke-linejoin:miter;stroke-miterlimit:4;stroke-opacity:1;stroke-dasharray:none;stroke-dashoffset:0;marker:none;visibility:visible;display:inline;overflow:visible;enable-background:accumulate"
             d="m 422.24377,499.80875 c 7.37405,-20.10886 30.16146,-22.84094 47.47715,-30.3046 27.41474,5.33789 55.70429,3.91424 82.9595,-0.3382 10.06845,-6.62453 20.12804,-11.49177 30.11466,-1.87471 16.97937,11.85778 38.32142,10.98542 57.97251,14.33474 19.40105,-0.21437 -10.39575,0.91203 -17.04633,1.40764 -16.76782,-1.8872 -17.03195,-2.00694 -0.45716,2.63298 19.7681,2.17335 13.13008,2.11933 -2.78868,1.28247 -16.09149,-3.2418 -19.81821,1.93572 -1.96631,3.77127 11.18956,0.21779 21.66927,4.77424 32.02916,8.58331 -16.10509,-5.31899 -13.73593,-0.0787 -14.50533,0.0608 -16.59472,-7.55139 -1.37656,3.65764 -18.97117,-4.27221 4.52975,6.56281 1.28161,2.50468 -3.63782,2.01429 13.69996,12.32847 4.92706,12.67894 -4.30194,0.68188 -0.71017,15.16175 -14.03767,-5.68205 -10.10156,7.57617 -12.6245,3.19305 -3.92599,3.82452 -10.93746,-8.5863 -4.50838,5.15778 -28.30525,19.30346 -15.46863,4.14066 0.0808,-10.41376 29.57605,-8.95153 15.69696,-13.61253 -10.3889,2.89847 -25.83781,-0.3652 -26.60214,14.25422 -6.77129,8.15861 -24.16613,12.03375 -13.75265,-4.09435 -5.8378,5.92282 -19.38029,24.58593 -9.97722,5.69524 3.49285,-11.50375 -15.66863,9.88075 -23.77898,5.32946 -15.75894,2.18953 4.26988,-20.07481 -16.65236,-9.258 -14.17031,8.12658 -12.22187,12.20225 -3.39817,-3.93847 11.38511,-19.08195 -20.68708,-0.43316 -7.50991,-12.10126 -5.14763,-16.10491 -10.76952,14.17422 -7.03075,13.44189 -7.99383,-4.93792 -1.47604,12.9036 -17.96943,14.28526 12.97774,-14.80021 7.05903,-11.83831 -5.7639,-2.38665 -16.21148,11.76085 19.0272,-18.47636 -1.78128,-4.20903 -18.30054,11.16208 -7.61728,2.88953 3.25759,-5.5115 17.53808,-12.55525 4.0762,-5.3765 -7.30947,0.48057 10.85281,-10.30248 14.84206,-14.87895 -0.0679,-3.74508 -11.45062,8.39934 17.58412,-19.98042 8.61776,-13.85812 -10.75972,7.73272 -22.13317,3.34016 -9.89365,8.26604 -15.56818,0.66472 -14.94364,5.24287 -10.94804,7.10991 -8.94339,1.19761 7.02234,17.26744 -7.98941,0.71305 -5.81097,12.18839 -1.5808,7.29335 -3.49788,1.03285 -6.92183,4.64703 -16.83219,11.58211 -5.15442,1.9891 l 1.13463,-0.9928 z" />
          <g
             id="g3427"
             style="fill:#1a1a1a">
            <g
               id="g3410"
               style="fill:#1a1a1a;fill-opacity:1">
              <path
                 inkscape:connector-curvature="0"
                 id="path3408"
                 style="color:#000000;fill:#1a1a1a;fill-opacity:1;fill-rule:evenodd;stroke:#000000;stroke-width:0.125;stroke-linecap:butt;stroke-linejoin:miter;stroke-miterlimit:4;stroke-opacity:1;stroke-dasharray:none;stroke-dashoffset:0;marker:none;visibility:visible;display:inline;overflow:visible;enable-background:accumulate"
                 d="m 439.28571,320.21933 c 5.93335,-7.01132 25.40058,-19.32175 4.9992,-16.02186 14.78136,-2.2312 0.57201,-4.65073 0.42252,-6.04837 11.16754,-5.16922 8.3749,-3.15588 15.62793,-1.76561 -7.51624,-8.1621 0.23469,-14.56793 -15.31541,-19.69879 -10.0196,-0.50083 -22.66398,-3.79877 -30.64533,3.90469 -12.76813,6.36075 4.68738,-15.98251 13.32443,-12.77174 10.12596,-5.14254 22.63938,2.04715 30.89804,6.95013 2.96304,11.52661 9.99834,19.41648 20.37227,24.88224 7.63834,7.22017 19.4686,16.01567 11.60076,27.19581 -8.18383,9.79047 26.27968,16.61592 11.87459,19.90443 -7.92875,-0.082 -31.45648,12.12591 -20.2175,-3.05769 -1.42149,-8.09344 -21.83679,-9.33264 -14.37877,-23.09869 -2.82361,-14.10176 25.51798,8.52099 11.43727,-9.30314 2.52712,-16.04395 -16.16925,1.58285 -24.15675,2.22019 -5.28109,2.23613 -10.56217,4.47227 -15.84325,6.7084 z" />
              <g
                 id="g3397"
                 style="fill:#1a1a1a;fill-opacity:1">
                <g
                   id="g3386"
                   style="fill:#1a1a1a;fill-opacity:1">
                  <path
                     inkscape:connector-curvature="0"
                     id="path3384"
                     style="color:#000000;fill:#1a1a1a;fill-opacity:1;fill-rule:evenodd;stroke:#000000;stroke-width:0.125;stroke-linecap:butt;stroke-linejoin:miter;stroke-miterlimit:4;stroke-opacity:1;stroke-dasharray:none;stroke-dashoffset:0;marker:none;visibility:visible;display:inline;overflow:visible;enable-background:accumulate"
                     d="m 386.38336,215.45081 c 13.40141,-6.5396 18.63683,-5.10168 18.47796,9.38658 12.95197,16.64901 8.29132,2.38808 4.77358,-9.86708 -0.26599,-12.13665 18.18831,-4.54329 25.63393,-2.56941 13.49419,2.58162 24.63325,12.02309 33.94702,21.73773 -4.63662,7.92688 6.04135,31.58673 10.45338,15.92768 3.05007,-12.07039 19.69009,-6.80694 28.60793,-12.78568 10.43546,-0.18957 16.18509,13.34172 23.70759,16.40653 12.88553,6.92127 18.95616,-13.9583 26.94064,1.50295 1.21554,-2.29341 16.15574,-5.22072 18.97207,0.50336 -18.096,-13.06206 16.24132,6.80895 -5.49341,-6.1298 -10.49623,-8.03704 -23.53787,-8.90909 -35.37483,-3.47728 0.82149,-9.54144 28.94682,-3.60812 18.77571,-9.34657 -16.75815,-10.04958 -4.84994,-5.78422 1.16833,-5.97201 -5.24658,-2.45531 -30.94637,-16.1182 -15.85464,-9.28748 14.45684,8.58434 -8.78072,-14.26142 12.95004,-5.52446 11.47496,7.38102 9.30672,7.68519 18.8238,7.39159 8.07517,-6.20728 4.11897,-9.21747 -7.9518,-16.79342 -10.71782,-7.11016 -24.97713,1.23675 -35.18638,-2.70135 -2.38622,-13.20616 -22.53119,-4.50889 -21.64756,-18.20138 -13.4737,-9.71284 14.47574,-18.58615 -2.69139,-24.92226 -10.11759,-8.20691 -25.24111,-2.73913 -37.51214,-5.27582 -16.87913,-1.20008 -33.7857,-2.78223 -50.2051,2.41887 12.79526,5.55584 25.59051,11.11168 38.38577,16.66753 -15.32065,-3.87226 -30.64129,-7.74451 -45.96194,-11.61676 -1.64268,12.33614 -0.99181,23.01918 14.01079,23.35808 11.91058,3.92941 22.5857,10.84147 33.97148,16.03787 -19.34137,-3.97376 -38.62543,-8.2399 -58.08377,-11.61676 4.48359,9.13943 27.89365,10.9892 7.46298,15.90034 -7.03335,2.94947 -14.06669,5.89894 -21.10004,8.84841 z" />
                  <g
                     id="g3377"
                     style="fill:#1a1a1a;fill-opacity:1">
                    <g
                       id="g3301"
                       style="fill:#1a1a1a;fill-opacity:1">
                      <path
                         inkscape:connector-curvature="0"
                         id="path3266"
                         style="color:#000000;fill:#1a1a1a;fill-opacity:1;fill-rule:evenodd;stroke:#000000;stroke-width:0.125;stroke-linecap:butt;stroke-linejoin:miter;stroke-miterlimit:4;stroke-opacity:1;stroke-dasharray:none;stroke-dashoffset:0;marker:none;visibility:visible;display:inline;overflow:visible;enable-background:accumulate"
                         d="m 186.4375,193.78125 c -21.64268,0.96327 1.18787,0.92489 7.58303,9.50334 -3.70045,2.0633 -32.39834,-0.48446 -12.06957,2.37479 4.4159,3.22162 29.31863,1.39278 12.82095,4.55937 -21.137,7.3626 0.44518,0.52548 3.92895,7.62707 -0.86428,9.08955 -16.7932,15.96326 1.76568,10.45235 10.47808,-5.00542 20.23662,11.47893 2.27879,4.42058 -5.83526,-3.50095 -32.16586,7.37556 -19.73815,5.47663 12.28569,-1.74685 23.57918,4.2689 4.93228,2.35835 0.9022,7.59006 -6.857,3.50079 -19.42184,4.58592 -8.03431,0.27892 20.38997,3.43261 6.52866,6.05893 9.17843,0.10472 30.80688,5.82687 9.64345,5.76347 5.04782,7.19397 27.69807,-1.71601 18.52092,5.63383 10.87895,7.91523 1.64113,9.47345 -12.63025,10.234 -11.35686,0.60357 -22.23521,2.39207 -30.28164,11.19305 -12.15974,11.30987 -28.71931,16.01509 -41.01751,26.91457 10.6071,0.15275 6.42327,-5.21161 19.15484,-2.448 5.99477,7.97238 5.00603,-2.43388 10.50141,-10.052 3.84292,9.02244 4.40674,-1.75407 7.58247,2.78273 14.52507,-14.76614 -9.19387,19.39856 6.8426,2.28716 9.21745,-12.80721 3.08662,13.08181 8.60618,-6.68372 9.55543,-0.56008 8.52423,-2.42598 3.78523,11.75202 -15.45481,12.20442 0.77787,-0.0588 1.24485,4.14368 2.37639,-9.47835 15.02689,4.3537 8.42388,-7.74257 4.0771,-4.70144 10.22177,5.05185 8.9649,-8.45569 8.95326,5.35917 0.30155,-10.25076 12.76864,-6.64611 -7.93331,-4.87642 13.97392,-5.63311 0.31593,-8.5206 2.9392,-0.51545 20.47592,-2.28129 28.59032,-6.4794 -20.05565,-0.0286 -11.71681,-2.55175 2.89582,-5.62611 7.04466,-2.82218 30.53985,-2.38726 14.26043,4.90736 -4.70433,3.82322 -23.56552,3.9526 -8.53669,7.1568 -12.00991,6.16474 -19.98536,-4.85547 -22.84368,4.79291 23.95249,4.47561 -11.19606,2.59787 -11.4412,5.03638 8.4703,-0.57331 -12.55644,9.03663 -1.45968,8.01391 -15.40771,14.17072 7.57175,0.0428 14.98463,-2.60953 7.91614,-2.70307 -27.67987,17.64682 -8.48937,11.0327 15.93302,-4.19988 28.9489,-21.24941 46.34849,-18.79817 -10.05406,4.43207 -19.45869,8.41696 -28.97469,14.50297 -5.70267,8.26173 14.5526,-5.37186 19.34969,-7.72172 5.70657,3.9246 -21.9274,16.00686 0.6875,11.09375 8.12263,-1.66498 17.58696,11.09299 9.65625,-5 -2.86121,-4.70349 15.05947,-3.57202 16.17132,-16.05058 14.40499,-11.62921 -1.08004,16.17268 11.32868,-2.54317 7.44423,1.93481 -8.68092,17.18677 -11.85011,23.49406 -13.0699,13.44937 9.87239,-1.90702 13.438,-7.84582 5.54625,-11.31959 18.95583,-13.75629 10.06369,-3.83574 -13.13031,9.25895 -12.9934,9.05361 2.09851,4.00468 1.37261,5.1895 -10.06032,16.0214 7.38734,7.1591 5.58327,-3.41382 -0.50131,-10.24334 16.04472,-5.09188 17.52001,1.62807 -6.14149,-10.16778 -13.90189,-8.68206 -11.51293,-11.62048 1.78765,-9.76455 10.65724,-5.60859 8.01368,-18.6761 8.89127,5.76733 12.41778,14.20482 -0.70121,9.70357 -4.61178,10.47733 3.60438,15.12029 -8.83962,6.96282 13.2751,14.32046 16.67336,22.7748 6.11898,13.44866 18.82766,5.42462 29.61465,3.66242 -2.67147,15.9783 -7.19366,5.59133 1.1945,16.09028 1.2582,6.56982 12.00548,-14.41414 22.76629,-11.98013 11.49225,-11.45574 11.88094,15.69944 16.22904,-3.80998 10.76176,12.08993 11.46211,-7.51317 11.0625,-15.71875 -4.21657,-5.07951 -16.28099,2.95293 -20,-7.125 -6.64383,-14.51946 -13.67032,-9.37584 -9.26294,-7.12855 -4.48355,0.11201 -9.77808,-3.36092 -21.08081,-6.0902 6.60472,-3.16481 -10.48323,-13.9097 3.0625,-7.625 -4.63054,-15.71041 -30.7211,-50.39275 -23.33095,-56.95183 14.41832,-2.30544 -12.83917,-4.39264 -17.85129,-6.90225 -8.87498,-5.75043 -22.72803,-2.93761 -26.41822,-15.18812 -13.73997,0.38611 -11.62466,0.44019 -5.70456,4.6226 -14.76398,6.53716 -3.31231,18.51562 -8.96173,16.25736 -12.56318,6.04444 -18.24898,-2.75259 -16.54424,4.85915 -13.21767,6.57985 -10.454,-6.35926 -21.37197,-10.39182 -19.47128,-3.95311 8.40124,2.26164 9.18313,-1.12428 6.62352,1.44177 23.78469,1.38395 22.55737,-10.0278 -2.72238,-9.08504 -20.58862,-16.19441 -15.71379,-3.24676 -4.09134,-6.1227 -28.3523,-7.07865 -18.90625,-12.5 -7.51424,-6.06121 -16.91664,12.32391 -25.71875,1.4375 -9.84505,-8.18111 -23.47642,-6.82756 -35.18285,-6.07782 -8.04201,0.93964 -13.18265,-6.70893 -19.81715,-10.01593 z m 37.125,48.9375 c 6.92088,0.62954 35.96291,1.38858 15.77923,1.85945 -21.59215,0.59115 -6.74424,0.93777 6.29835,1.29651 6.10807,2.54222 35.62604,-4.14967 19.45965,0.4573 -14.97773,3.86471 9.6752,3.09297 -12.30159,3.39401 -18.13212,0.85019 15.56308,-2.92959 -10.37698,-1.66352 -11.82941,0.34956 -23.56425,-2.19887 -35.26491,0.71875 18.58547,-3.02432 8.10829,-3.49003 2.51067,-3.85247 4.63186,-0.73667 9.26372,-1.47335 13.89558,-2.21003 z m 122.15625,21.4375 c -2.62171,9.17833 14.22366,26.48751 9.77701,24.7259 -7.62784,-0.18025 15.53165,17.53305 -3.33951,6.3366 12.84325,17.37105 2.04443,2.08034 1.24923,5.63066 1.98717,6.40509 12.4783,30.47344 2.10817,14.04423 -2.69494,-12.38404 -10.71401,-25.2204 -8.38753,-36.91058 -0.46912,-4.60894 -0.93825,-9.21787 -1.40737,-13.82681 z m 39.09375,48.03125 c 14.46882,7.11096 28.63964,16.87748 45,18.375 -11.10459,1.2274 -20.95628,-3.37023 -30.875,-7.65625 9.91922,4.6075 17.83921,15.59892 29.28125,15.34375 -10.87993,5.30217 -18.49662,-8.98409 -29.75937,-9.40031 -17.12584,-8.89903 -11.31693,-6.83569 -2.8617,-3.2734 -10.08253,-8.11516 13.22506,8.11404 -3.88852,-5.36536 -18.20993,-7.56987 15.83741,6.11047 -7.99457,-5.56889 6.20399,2.33422 19.77897,11.70279 1.09791,-2.45454 z" />
                      <path
                         inkscape:connector-curvature="0"
                         id="path3277"
                         style="color:#000000;fill:#1a1a1a;fill-opacity:1;fill-rule:evenodd;stroke:#000000;stroke-width:0.125;stroke-linecap:butt;stroke-linejoin:miter;stroke-miterlimit:4;stroke-opacity:1;stroke-dasharray:none;stroke-dashoffset:0;marker:none;visibility:visible;display:inline;overflow:visible;enable-background:accumulate"
                         d="m 275.28125,409.65625 c -10.77615,1.5504 -21.04354,4.35178 -28.29779,9.7548 -21.34932,10.35501 11.32998,9.12497 -14.01471,15.8702 16.11816,1.49174 17.35629,-7.12432 10.68629,2.52052 9.86515,3.16301 17.05143,-19.0403 13.97864,-3.32159 -12.13735,5.71291 16.33182,10.62601 17.0576,6.49861 -4.68725,-6.48044 14.99578,-0.77488 4.24622,-12.01004 11.69044,-6.23104 28.19628,-0.55004 14.0343,-15.68971 -3.59389,-5.08408 -12.20141,-2.11883 -17.69055,-3.62279 z m 13,7.3125 c -9.39689,2.67683 -3.49763,10.66323 -19.84375,6.5625 -21.25511,-1.34471 19.32862,9.32189 1.90625,4.3125 -6.15292,-1.35269 -32.03078,-1.37913 -20.42751,-1.12545 8.62058,-0.13686 10.36529,-7.97465 24.38485,-4.07202 4.39914,-0.0143 7.66462,-5.82289 13.98016,-5.67753 z" />
                      <path
                         inkscape:connector-curvature="0"
                         id="path3264"
                         style="color:#000000;fill:#1a1a1a;fill-opacity:1;fill-rule:evenodd;stroke:#000000;stroke-width:0.125;stroke-linecap:butt;stroke-linejoin:miter;stroke-miterlimit:4;stroke-opacity:1;stroke-dasharray:none;stroke-dashoffset:0;marker:none;visibility:visible;display:inline;overflow:visible;enable-background:accumulate"
                         d="m 171.42857,341.64789 c 13.52092,-7.48893 28.66554,-4.5652 43.21428,-2.85715 18.96144,-11.40107 -13.54754,-3.42847 7.5,-10.35712 14.55745,-4.95126 16.49144,-9.93839 0.0569,-4.82244 -14.79509,4.11787 13.25661,-4.78419 17.50037,-9.23006 -4.90221,-0.93531 -29.65722,-2.64094 -24.37118,-3.29815 10.20927,-3.70427 21.49308,-7.17677 30.47343,0.78755 7.9369,11.36545 22.38428,-4.83391 24.55477,1.92022 13.73301,-1.73596 8.663,-4.4599 17.56564,1.6019 20.57332,5.43071 -11.43105,-3.90059 -9.6252,9.15235 0.49776,9.46259 -19.25206,-5.01546 -23.32864,8.17431 -0.95288,12.30878 -9.55644,12.58878 -20.53689,15.69848 -10.25749,-0.14284 -22.34338,-6.19464 -30.61022,4.71757 -18.1345,12.46738 4.0823,0.082 -7.03613,-4.34461 -14.36157,15.26704 -0.40308,-5.59759 -16.22294,7.34276 11.68624,-12.58923 -14.31328,-3.10299 -9.04791,-6.23943 1.78902,-5.59617 30.79742,-8.964 13.7932,-9.47088 -4.61602,0.54922 -9.23063,1.06108 -13.87949,1.2247 z" />
                    </g>
                    <path
                       inkscape:connector-curvature="0"
                       id="path3375"
                       style="color:#000000;fill:#1a1a1a;fill-opacity:1;fill-rule:evenodd;stroke:#000000;stroke-width:0.125;stroke-linecap:butt;stroke-linejoin:miter;stroke-miterlimit:4;stroke-opacity:1;stroke-dasharray:none;stroke-dashoffset:0;marker:none;visibility:visible;display:inline;overflow:visible;enable-background:accumulate"
                       d="m 317.85715,93.433609 c 3.02552,-13.36722 -14.78856,-14.6848 -1.92263,-16.692708 -8.70795,-10.075674 14.57034,-6.02619 8.06111,-8.751394 10.02395,-6.649557 12.28367,5.321239 24.58251,1.118759 5.93212,-5.69159 31.78239,-10.233446 17.70225,0.09161 -2.62269,14.10134 2.25234,-0.06697 11.25242,-5.328357 -3.83991,-2.149521 -14.41929,-11.31693 0.31402,-6.331378 7.25528,13.473631 15.22185,-25.855638 12.30236,-5.834396 -5.41058,12.070781 13.96724,2.231554 -0.74323,18.355737 12.9196,-3.225629 27.36245,-6.556714 40.95119,-9.48502 -17.31553,12.256346 -5.46528,6.219661 3.94197,12.327512 8.54227,18.453367 -4.51844,-9.815754 -14.33567,0.85151 -15.0711,12.047795 9.42207,4.393327 12.46403,7.591622 5.3737,8.181971 20.41581,6.299977 29.77354,5.568933 10.52679,-10.939727 13.98144,7.517964 25.76354,-2.656197 -11.40567,4.212193 -7.31682,20.187318 3.36093,23.067978 -12.85075,-2.69545 -1.82162,6.15473 -17.69891,1.53444 -19.42917,-8.68499 -1.33596,2.57546 7.58699,5.91393 -5.08261,-1.11089 -29.55669,-7.98153 -22.9112,0.30861 5.05732,5.34712 30.5826,4.42418 24.43751,6.00919 -1.81821,3.41582 -12.77293,4.72291 -23.87836,1.35515 -15.54951,-1.89774 13.87809,2.5501 17.031,8.98587 6.28775,6.40823 -17.111,7.51143 -23.91382,9.21735 -13.45417,-2.08771 -21.81144,8.80374 -31.62155,15.99554 -16.42456,2.08519 -8.32148,-18.91433 -11.61139,-21.85971 -5.92426,13.49469 -18.25921,4.23678 -28.98055,4.32042 -0.0512,-0.5791 22.8618,0.23234 -0.003,-2.49268 -17.5256,-2.38565 -12.84451,-0.21074 0.01,6.48931 11.63147,5.8091 -17.42176,9.06976 -21.18383,1.52906 -11.90764,-8.29727 -20.20256,-13.04032 -7.73382,2.64413 3.69393,14.48687 18.99134,5.48085 28.96011,8.86202 20.51763,7.10149 -3.32712,7.74629 -7.69821,14.46661 7.46756,14.96095 -3.86449,15.2283 -15.4081,17.82219 -10.47524,7.82836 -20.79368,15.50334 -7.42213,0.004 -8.55797,-9.74703 -22.94917,9.36762 -6.78571,-6.07143 2.68875,-24.64087 -17.31911,22.89462 -11.11402,-1.92148 0.66381,-11.44481 -10.32291,12.71433 -16.20641,15.33163 -22.16757,12.1041 12.04316,-6.54612 -0.79982,-9.90851 -9.51279,12.66855 -0.85422,-20.27243 -9.41284,-1.05818 -1.09662,11.22701 -3.3457,-23.32082 -5.32405,-2.13096 2.55117,2.49227 -15.3923,-10.24748 -12.91726,8.9935 -6.29777,4.63549 3.22432,-6.27762 -4.62433,-1.73943 9.60486,-18.36736 -7.99803,-0.37228 -7.93061,-9.91423 -17.84093,6.60531 -6.18018,0.26737 -7.59,-4.64968 -17.62558,-1.06515 -4.21918,19.47493 -11.46789,13.45599 -1.0609,14.95503 1.40853,-1.98198 -9.56031,-0.7053 6.28316,12.81102 -12.60147,9.28536 -4.98447,-0.64483 14.81956,-4.91985 -0.0373,-11.62285 -3.37168,-2.6846 -3.78602,-3.25421 -19.8816,-2.90223 -8.62488,8.64751 -11.05763,-6.17038 -20.14984,-3.45308 -6.42835,-14.74044 7.87936,-11.77476 -14.81556,1.92573 -18.92879,6.52614 16.07798,-14.64312 4.98779,-3.77767 -6.11754,2.0147 -21.54167,5.40299 12.27349,-9.74753 -9.59675,-1.3004 13.06988,-7.53444 -4.50089,-2.16791 3.15751,-6.90086 -0.16451,-0.61799 2.66826,-11.90165 18.6282,-4.52771 13.20851,5.75045 20.67161,-14.88524 6.25054,-14.82737 -10.37357,-0.0807 15.39536,-8.70837 17.67103,-16.41598 11.23057,-7.2733 11.55126,-18.56161 -2.89432,-19.94123 -20.82338,3.03617 18.68296,-3.81192 2.13964,-11.78002 12.74958,-7.97023 -19.77275,-21.78638 -2.7609,-14.239457 4.94049,-14.612874 3.8076,15.535447 14.00047,13.632627 13.47703,-0.63058 25.91829,-7.67729 38.80783,-11.428579 15.82398,-13.141783 -22.27931,-15.209123 -0.42836,-14.470595 8.20569,2.73178 7.42076,21.360384 21.14265,19.470604 5.87358,-2.79373 12.21738,-4.30728 14.64286,-11.071435 z" />
                  </g>
                </g>
                <path
                   inkscape:connector-curvature="0"
                   id="path3395"
                   style="color:#000000;fill:#1a1a1a;fill-opacity:1;fill-rule:evenodd;stroke:#000000;stroke-width:0.125;stroke-linecap:butt;stroke-linejoin:miter;stroke-miterlimit:4;stroke-opacity:1;stroke-dasharray:none;stroke-dashoffset:0;marker:none;visibility:visible;display:inline;overflow:visible;enable-background:accumulate"
                   d="m 274.28571,406.29074 c 17.39079,4.25296 18.80024,-38.43753 23.95791,-13.45366 9.12872,7.701 22.63351,-6.39665 14.93629,6.18032 12.98942,1.45808 19.67136,0.10079 2.53438,4.41622 17.49771,6.23765 6.0862,2.54944 0.9482,3.6597 13.446,5.58003 18.65265,12.91484 1.56465,3.69973 2.19767,7.26733 -4.6712,16.43604 -12.68027,0.71893 -4.51152,-10.95001 -20.7691,-2.63602 -30.38098,-5.22124 l -0.88018,0 z" />
              </g>
            </g>
            <path
               inkscape:connector-curvature="0"
               id="path3423"
               style="color:#000000;fill:#1a1a1a;fill-opacity:1;fill-rule:evenodd;stroke:#000000;stroke-width:0.125;stroke-linecap:butt;stroke-linejoin:miter;stroke-miterlimit:4;stroke-opacity:1;stroke-dasharray:none;stroke-dashoffset:0;marker:none;visibility:visible;display:inline;overflow:visible;enable-background:accumulate"
               d="m 285.3681,440.20975 c 10.54326,3.59879 19.6159,9.17433 25.75888,18.6878 7.12399,-0.53493 27.01161,14.11866 20.16145,12.59917 -6.12204,-3.93364 -10.25392,5.01471 -16.62592,-8.05348 3.8661,12.67017 4.55547,8.89244 -5.80909,15.56331 3.8431,1.85622 -6.40983,-29.56477 -5.36602,-13.57822 7.17936,16.33897 -2.34844,15.12667 -4.76596,1.06738 6.70409,-22.02284 -19.51395,11.78674 -8.75704,-5.46692 11.74153,-16.25292 -19.43946,-4.87152 -5.70383,-18.80535 l 0.88966,-1.61757 0.21787,-0.39612 z" />
            <path
               inkscape:connector-curvature="0"
               id="path3425"
               style="color:#000000;fill:#1a1a1a;fill-opacity:1;fill-rule:evenodd;stroke:#000000;stroke-width:0.125;stroke-linecap:butt;stroke-linejoin:miter;stroke-miterlimit:4;stroke-opacity:1;stroke-dasharray:none;stroke-dashoffset:0;marker:none;visibility:visible;display:inline;overflow:visible;enable-background:accumulate"
               d="m 372.49374,424.29984 c -3.56538,-12.08523 14.20286,-14.70691 22.9634,-15.90992 4.72315,-1.64716 -19.89879,-10.17106 1.4356,-12.07321 1.93777,-4.1577 13.05475,14.07142 20.73492,17.65466 15.27681,7.13332 17.51858,9.34161 -0.81875,6.55141 -10.92278,1.90454 -21.41039,17.10609 -4.90729,13.93557 16.53258,-9.73337 -3.75812,17.04206 16.22876,11.54198 28.08023,-1.67611 -9.41754,2.37408 -4.59152,3.70991 23.30951,3.28211 -15.45906,1.86129 2.24044,10.70254 -28.31923,-14.11581 15.74199,21.52722 -11.61676,4.04062 12.36037,15.19043 -10.70814,3.5618 -14.08828,-3.9778 -16.04765,-15.65463 5.47277,9.7407 3.8107,11.82416 -9.49182,-0.69593 0.31891,1.8432 -8.99182,-12.97398 -11.7674,-12.6283 24.18895,-19.58693 -6.90279,-17.32969 -14.57693,2.89697 8.57702,-16.04434 -12.3369,-3.45699 1.1666,-6.28992 13.91134,-12.50034 -3.15971,-14.23926 z" />
          </g>
        </g>
      </g>
      <path
         inkscape:connector-curvature="0"
         id="path3493"
         style="color:#000000;fill:#1a1a1a;fill-opacity:1;fill-rule:evenodd;stroke:#000000;stroke-width:0.125;stroke-linecap:butt;stroke-linejoin:miter;stroke-miterlimit:4;stroke-opacity:1;stroke-dasharray:none;stroke-dashoffset:0;marker:none;visibility:visible;display:inline;overflow:visible;enable-background:accumulate"
         d="m 460.12448,277.57516 c 15.04926,3.47026 30.11622,6.83229 42.93327,15.6784 14.88363,1.50462 -11.38433,11.02173 10.99655,12.45932 12.61022,0.52151 21.03261,12.29886 31.42806,18.32933 -6.87422,-9.69814 -31.01839,-31.21715 -2.62796,-16.85693 14.91763,7.62683 37.94504,20.18528 10.04629,3.28299 -29.21734,-11.01589 -2.47111,-10.41471 11.74096,-12.46193 9.93114,-4.17989 21.0072,15.34413 24.91727,13.80381 -12.09644,-17.13374 11.35349,4.85091 16.81671,6.73934 6.41447,-1.17834 -14.90287,-21.64338 -25.65097,-26.64222 -11.74958,-6.6839 -27.22566,-2.0629 -40.47968,-4.80234 -13.39886,-1.17199 -23.64808,-12.72032 -37.53294,-13.72193 -12.18573,-8.75931 -19.66448,3.21257 -30.10116,5.36279 -4.16213,-0.39021 -8.32427,-0.78042 -12.4864,-1.17063 z" />
    </g>
    <g
       id="g3529"
       style="fill:#000000"
       transform="matrix(0.06290226,-0.00399792,0.00399792,0.06290226,-8.7365859,-1.3210633)">
      <g
         id="g3523"
         style="fill:#000000">
        <path
           inkscape:connector-curvature="0"
           id="path3521"
           style="color:#000000;fill:#000000;fill-opacity:1;fill-rule:evenodd;stroke:#000000;stroke-width:0.125;stroke-linecap:butt;stroke-linejoin:miter;stroke-miterlimit:4;stroke-opacity:1;stroke-dasharray:none;stroke-dashoffset:0;marker:none;visibility:visible;display:inline;overflow:visible;enable-background:accumulate"
           d="m 373.92856,509.86218 c 19.7584,1.70415 52.8319,3.22395 17.93786,3.21288 20.13318,-0.48535 40.82438,0.40484 60.63358,5.71571 38.14182,-3.59354 -34.57848,7.1056 0,6.07141 -18.98468,1.15322 -37.98869,2.82674 -56.78571,-1.07141 19.32767,7.26622 -7.06177,4.40659 -14.04626,0.49402 -15.40426,-7.59251 -46.27403,5.46582 -39.63726,-3.90104 -12.10549,0.54044 -24.21098,1.08088 -36.31648,1.62132 5.20232,-1.87225 33.94875,-7.83528 21.63286,-6.66375 -14.35183,1.41801 -25.09246,2.32244 -4.66592,-1.20574 17.5044,-4.39834 35.1058,-6.99866 53.03306,-3.5591 l -1.71173,-0.6847 -0.074,-0.0296 z" />
        <path
           inkscape:connector-curvature="0"
           id="path3519"
           style="color:#000000;fill:#000000;fill-opacity:1;fill-rule:evenodd;stroke:#000000;stroke-width:0.125;stroke-linecap:butt;stroke-linejoin:miter;stroke-miterlimit:4;stroke-opacity:1;stroke-dasharray:none;stroke-dashoffset:0;marker:none;visibility:visible;display:inline;overflow:visible;enable-background:accumulate"
           d="m 253.21429,503.43362 c 31.79419,-3.06188 63.2516,3.01947 95,3.92856 -15.2973,2.06364 -30.60962,3.93819 -46.07144,3.92856 17.56354,-4.36058 -26.12679,-3.14448 -38.12615,-2.56044 3.735,0.23121 19.05633,-3.41603 -2.54348,-3.46633 1.65092,-3.02217 -19.41206,2.76714 -8.25893,-1.83035 z" />
      </g>
      <path
         inkscape:connector-curvature="0"
         id="path3527"
         style="color:#000000;fill:#000000;fill-opacity:1;fill-rule:evenodd;stroke:#000000;stroke-width:0.125;stroke-linecap:butt;stroke-linejoin:miter;stroke-miterlimit:4;stroke-opacity:1;stroke-dasharray:none;stroke-dashoffset:0;marker:none;visibility:visible;display:inline;overflow:visible;enable-background:accumulate"
         d="m 456.08386,528.09302 c 15.02622,1.09578 61.43396,9.8998 25.89986,-0.13174 5.82774,-1.26621 21.91433,-1.15208 31.67888,-1.88859 18.16472,3.16317 70.24261,4.89119 69.24126,8.56037 -6.24465,0.93498 -35.16466,2.18726 -23.81902,2.8761 12.11228,1.15925 24.26309,0.30989 36.40008,0.18029 -13.79987,7.86609 -60.05079,-1.42876 -38.19483,6.79465 -35.0109,6.38233 -69.82883,-8.00538 -105.05743,-5.20049 -8.45715,-0.50353 -37.15256,-5.17346 -14.39476,-4.65848 12.96777,-0.85132 25.96904,-0.32885 38.95409,-0.4712 -6.90271,-2.0203 -13.80542,-4.04061 -20.70813,-6.06091 z" />
    </g>
    <path
       inkscape:connector-curvature="0"
       id="path2238"
       style="color:#000000;fill:#552200;fill-opacity:1;fill-rule:evenodd;stroke:#000000;stroke-width:0.00787865;stroke-linecap:butt;stroke-linejoin:miter;stroke-miterlimit:4;stroke-opacity:1;stroke-dasharray:none;stroke-dashoffset:0;marker:none;visibility:visible;display:inline;overflow:visible;enable-background:accumulate"
       d="m 16.855584,5.6041247 c -0.200421,0.8621175 -0.600737,2.1653305 -1.707819,1.6321775 -0.429897,0.1511185 0.399386,1.900094 0.123276,2.04752 -0.504804,-1.0172665 -1.328935,-1.7140375 -2.311451,-2.2518415 -0.09725,0.9695395 2.727183,2.0615925 2.347095,3.8182383 0.0265,2.550813 0.195834,5.094487 0.295624,7.640488 -1.34736,-1.459225 -1.827215,-3.495909 -2.225592,-5.392624 0.602875,0.03654 2.430195,0.672905 1.11719,-0.246659 -1.485359,-0.637256 -2.413697,-2.9300093 -1.853994,-4.2530473 1.165843,0.082962 2.04087,-0.442628 0.340092,-0.499957 -2.159632,1.216414 0.179121,-1.290605 -0.427373,-1.2884575 -0.880119,1.398137 -0.918118,-0.091575 -1.780339,-0.544012 -1.5505059,-0.3514295 -0.50066,0.346704 0.370931,0.750175 0.71853,1.3816725 -0.351697,-0.5763415 -1.060435,-0.3480285 -1.3731524,-2.5e-4 -1.7723514,0.2952655 -0.1771539,0.3127515 1.4989869,0.265936 0.3130409,0.690491 -0.5180095,0.089088 -1.4260815,-0.2224335 -2.889963,-0.2296925 -4.330172,-0.1574105 1.508831,0.410467 3.13303,0.029585 4.603684,0.4744445 0.7082664,0.6700775 2.1616404,0.738279 2.3799544,1.775706 -0.842756,-0.792122 -3.6919374,-2.175302 -3.9881924,-1.662869 2.5635154,0.458646 4.6596744,2.2059875 4.8822694,4.9237268 -1.151419,-0.667941 -2.455675,-1.086244 -3.8065684,-0.92251 -1.1740025,-0.730227 -2.63461,-0.22576 -3.9368765,-0.576205 -0.839313,-0.03017 1.377835,0.488703 1.9025075,0.388685 1.004312,0.0584 1.868208,0.715566 2.9189654,0.575744 1.526883,-0.168639 1.006046,0.692207 -0.1618909,0.645989 -1.8791725,0.139697 -3.804076,-0.141229 -5.651048,0.236235 2.1945595,-0.213341 4.458147,0.239612 6.6089029,-0.237473 1.050614,-0.561619 1.458514,-0.05156 1.246933,0.874778 0.20858,-1.020646 0.900056,-0.235608 0.947964,0.843886 -1.343083,-0.505027 -2.768515,0.077 -4.1474354,-0.261385 -1.4544535,0.04042 -2.836784,0.637914 -4.00504,1.482152 1.601555,-0.323483 3.092826,-1.091832 4.7687525,-0.997148 1.0857789,-0.09512 -1.7002605,1.286635 0.25967,0.308227 1.0592339,-0.716522 2.4254839,-0.205106 3.2405599,0.605664 0.723538,0.884069 0.517891,2.207998 1.437667,3.007028 0.481978,1.016282 0.75428,2.075778 0.809486,3.20308 -0.898124,-0.230052 -1.193021,-1.398408 -1.855604,-1.95204 -0.348224,-1.002249 -0.978535,-2.324036 -2.247793,-2.08273 -1.05199,0.06629 -2.2159544,-0.04483 -3.2020194,0.224242 -0.669817,0.630424 1.4692605,-0.218543 2.0505474,-0.0091 0.106043,0.39046 0.383871,0.223724 1.549297,0.04098 1.109749,0.0603 0.912406,1.608245 1.644601,2.2182 0.556892,0.864837 -2.090964,-0.458012 -0.156314,0.552684 0.682024,0.80262 1.555386,1.47491 1.991638,2.456906 -0.955663,-1.255036 -2.605802,-1.753338 -3.81243,-2.753028 -1.021228,-0.946595 -1.5678494,-0.157507 -0.33451,0.512053 1.34316,0.842576 2.891096,1.503832 3.921633,2.732915 -1.014363,-0.704402 -1.304053,0.441059 -2.249709,-0.141553 -1.471624,-0.356404 -1.451952,-0.0165 -0.01175,0.291614 0.838247,0.589275 1.417363,-0.428991 2.160272,0.26974 0.973598,1.167809 -0.319502,-0.01552 -1.010385,-0.08468 -1.300652,-0.292876 -3.747366,1.296283 -3.346147,1.786309 1.395651,-2.716871 5.271309,-1.060644 4.662125,1.34313 -0.204064,0.989097 -0.240662,2.225045 -0.08323,2.717208 0.65807,-0.367733 4.024372,0.480849 2.029295,-0.480426 0.861968,-1.748388 1.033773,-4.734381 3.586876,-4.409057 1.450721,0.315659 1.445051,-0.441804 0.03851,-0.322256 -1.818289,0.01498 0.103227,-0.292672 0.254708,-1.344369 0.328634,-0.772677 0.178347,-2.193533 1.378568,-1.878728 0.511331,0.572463 2.626294,0.469789 1.033734,0.1421 -1.573746,-0.219278 -0.781824,-1.07905 0.284749,-0.3155 -0.102857,-0.395191 -1.373386,-0.935828 -1.921945,-0.206685 -0.892908,-1.393315 -1.076813,1.148105 -1.229903,1.872332 -0.474416,1.064288 -3.221953,3.298221 -1.825018,1.111164 0.836524,-1.574177 1.167473,-3.337697 1.759711,-5.007047 0.833659,0.233917 -0.22398,-0.747968 1.231452,-1.202825 0.375769,-0.587951 2.508955,-0.126115 1.614529,-0.939852 -1.097602,0.09456 -2.156337,0.285811 -2.966614,1.095121 -1.196577,1.296334 -0.921106,3.286202 -1.881864,4.746374 -0.550267,0.946268 -0.788096,2.151687 -1.583804,2.898371 -0.742263,-1.832539 0.600691,-3.63981 1.112542,-5.411559 0.559833,-1.379523 0.684592,-3.054645 1.6532,-4.19436 0.797176,-0.509854 1.146643,-1.065633 2.21654,-1.044013 0.891068,-0.120456 -2.015028,0.315151 -0.801759,-0.913193 -0.675269,0.250727 -1.895668,1.664171 -1.187929,0.108194 1.030172,-0.966866 -0.272119,-1.953843 -0.628979,-0.66158 -0.459732,2.161828 -1.251976,4.244013 -2.081398,6.286253 -0.618768,0.785913 -0.311606,1.907991 -0.920489,2.749578 0.473722,-0.744711 0.471117,-2.993412 0.32975,-4.32069 -0.282661,-3.274452 0.453049,-6.498361 0.527286,-9.7617863 C 18.115,8.0384662 17.689052,6.7945292 18.929633,6.5877872 19.18438,4.9941797 17.583119,7.4489777 17.75853,6.6112042 18.470046,5.5898472 17.85744,5.3605467 16.855576,5.6040982 z m 1.216144,19.5070993 c -1.270912,-0.08153 -0.742948,1.412587 -0.885146,2.166636 -0.049,0.636369 -1.711441,2.022072 -0.61514,0.8319 0.554994,-0.440175 0.491154,-1.289162 0.582986,-1.955611 0.0038,-0.706739 0.09684,-1.085263 0.9173,-1.042925 z" />
    <path
       d="M 19.436116,4.5463114 C 19.867335,3.9585639 21.163167,5.1457439 20.712671,5.0071598 20.288816,4.7333276 19.892198,4.639784 19.436116,4.5463114 z"
       style="color:#000000;fill:#008000;fill-opacity:1;fill-rule:evenodd;stroke:#000000;stroke-width:0.00787865;stroke-linecap:butt;stroke-linejoin:miter;stroke-miterlimit:4;stroke-opacity:1;stroke-dasharray:none;stroke-dashoffset:0;marker:none;visibility:visible;display:inline;overflow:visible;enable-background:accumulate"
       id="path3248"
       inkscape:connector-curvature="0" />
    <path
       inkscape:connector-curvature="0"
       id="path3254"
       style="color:#000000;fill:#008000;fill-opacity:1;fill-rule:evenodd;stroke:#000000;stroke-width:0.00787865;stroke-linecap:butt;stroke-linejoin:miter;stroke-miterlimit:4;stroke-opacity:1;stroke-dasharray:none;stroke-dashoffset:0;marker:none;visibility:visible;display:inline;overflow:visible;enable-background:accumulate"
       d="m 20.679601,6.7958887 c 1.054684,-0.5359673 0.483494,0.4744826 0.150921,0.9461562 0.132991,0.1054852 0.767053,-0.9618826 1.166233,-1.1255672 0.0107,1.045045 0.01849,0.435188 0.686404,0.083969 0.47563,0.3350254 1.183139,1.5673332 0.572955,0.3795239 -0.637512,-0.9680447 -0.0306,-0.1183461 0.636224,0.117039 0.809958,0.1609297 2.254709,0.544518 2.36426,0.7345469 0.583079,-0.5419128 1.10758,0.4054418 1.718487,0.4740708 -1.011194,-0.542788 0.728551,-0.3037638 1.159069,-0.594935 0.437786,-0.1596036 1.747652,-1.205159 0.707503,-0.6042636 -1.361468,0.2760659 -2.880755,0.7578415 -4.175308,0.00619 C 26.964557,7.0274837 25.276298,6.8881725 24.685147,6.896101 23.847639,6.6551152 23.483869,6.1984784 24.499069,5.899404 26.022596,5.274549 22.761217,6.0754513 23.172508,5.7870021 24.196829,5.1570017 22.781918,5.5237583 22.248831,5.5535153 22.401156,5.0743207 21.356476,5.285422 20.86019,5.6284816 c -0.578107,0.3383071 -1.303394,-0.01152 -1.791845,0.5482786 -1.142669,0.3416639 0.794708,0.6100754 0.855395,0.741757 -1.147946,-0.2895037 0.732582,-0.8748064 0.755861,-0.1226285 z" />
    <path
       d="m 4.8242394,24.837566 c 0.171522,-1.406989 1.4199635,-0.416313 2.0539318,-1.150512 0.1203366,0.01248 -0.8417898,0.20724 -1.1417416,-0.05582 -0.8861219,0.316593 0.7642777,-0.879404 -0.4203511,-0.340119 0.5826327,-0.561789 1.3629691,-0.35437 1.9362461,0.100229 1.2807468,0.1643 0.2080583,-0.691649 1.1419712,-0.429352 0.6118441,0.459766 1.1690215,-0.100842 1.8261782,-0.08855 0.809054,0.08254 1.707526,0.01348 2.419228,0.462583 -0.874473,0.581865 -0.408068,0.522219 -1.197166,0.357638 C 10.416427,23.22212 10.120508,24.375467 9.1317021,24.046039 8.5955966,23.751465 7.6417574,24.100725 7.2009585,24.461268 6.8293167,24.760902 6.7479664,26.599294 6.3909216,25.585697 6.0452952,25.1193 5.3108734,25.111849 4.8242394,24.837566 z"
       style="color:#000000;fill:#008000;fill-opacity:1;fill-rule:evenodd;stroke:#000000;stroke-width:0.00787865;stroke-linecap:butt;stroke-linejoin:miter;stroke-miterlimit:4;stroke-opacity:1;stroke-dasharray:none;stroke-dashoffset:0;marker:none;visibility:visible;display:inline;overflow:visible;enable-background:accumulate"
       id="path3219"
       inkscape:connector-curvature="0" />
    <path
       d="m 7.7265863,26.838167 c 0.4758899,-0.515179 0.6239167,-1.516124 1.4713026,-1.480889 0.7078458,0.119949 1.2682641,-0.324604 1.8601641,-0.238095 1.379946,0.100562 -0.88078,0.803641 0.306216,0.958934 0.223703,0.12697 -1.137726,0.238772 -1.302286,0.866808 1.099463,-0.36043 0.562866,0.757947 -0.1634067,0.401839 C 9.942901,26.952147 9.34045,26.741157 8.7942613,27.044243 8.9361935,26.217194 8.654894,26.986697 7.907731,26.826654 l -0.1159358,0.0074 -0.065209,0.0041 z"
       style="color:#000000;fill:#008000;fill-opacity:1;fill-rule:evenodd;stroke:#000000;stroke-width:0.00787865;stroke-linecap:butt;stroke-linejoin:miter;stroke-miterlimit:4;stroke-opacity:1;stroke-dasharray:none;stroke-dashoffset:0;marker:none;visibility:visible;display:inline;overflow:visible;enable-background:accumulate"
       id="path3217"
       inkscape:connector-curvature="0" />
    <path
       d="m 12.197341,21.896794 c -0.499789,1.127434 -0.888783,-0.492595 -1.293459,0.198879 -0.770162,0.861148 -0.616697,0.558676 -0.131431,-0.28376 C 10.4663,21.954549 9.1112578,23.063599 9.5403183,22.39993 9.7075601,21.655251 10.778757,21.669695 10.826099,20.89939 10.331995,20.572241 9.681694,21.859506 9.5053518,21.741465 10.331614,20.938641 9.9257607,20.832069 9.1397746,21.469099 8.4029011,21.413971 7.7839499,21.76682 7.087704,21.851014 7.3043595,21.384678 7.2864516,21.449985 6.4112867,21.451122 c 0.6168237,-0.388707 1.3218393,-0.2215 1.9304739,-0.518912 0.4329516,-0.538722 1.3931441,-0.0394 1.6481078,-0.857813 0.2993016,-0.727705 1.1552596,-0.09599 1.7275616,-0.09003 0.636805,0.121686 1.454276,-0.100521 1.697288,0.71355 0.152315,1.109746 -0.08768,0.615296 -0.559349,0.0087 -0.52475,-0.434444 -1.224364,0.254826 -0.881335,0.806525 0.07444,0.127884 0.148872,0.255768 0.223307,0.383653 z"
       style="color:#000000;fill:#008000;fill-opacity:1;fill-rule:evenodd;stroke:#000000;stroke-width:0.00787865;stroke-linecap:butt;stroke-linejoin:miter;stroke-miterlimit:4;stroke-opacity:1;stroke-dasharray:none;stroke-dashoffset:0;marker:none;visibility:visible;display:inline;overflow:visible;enable-background:accumulate"
       id="path3221"
       inkscape:connector-curvature="0" />
    <path
       d="m 18.540244,27.841512 c 0.612369,-0.965558 1.763344,-1.256203 2.551601,-2.012304 -0.635165,0.132455 -1.968604,0.113643 -0.681735,-0.158036 0.99539,-0.150612 1.98208,-0.188265 2.952799,0.124104 0.703783,0.127597 1.848039,0.523005 0.604002,-0.07028 -1.051474,-0.341276 -2.153163,-0.397746 -3.248772,-0.254822 0.521827,-0.448039 0.551474,-1.478789 1.441475,-1.100542 1.105094,0.273989 2.042893,0.968599 3.174167,1.12681 0.477632,0.271412 1.616893,-0.245591 1.664104,0.177016 -0.872012,0.27174 -1.494035,0.471576 -0.239859,0.131755 0.43934,0.03173 1.541335,-1.021735 1.085875,-1.017417 -0.860196,0.06954 -1.460669,-0.06867 -0.422897,-0.635797 0.293194,-0.222619 -1.490489,1.085831 -0.822541,0.06567 0.004,-0.519251 1.602701,-1.2651 0.850079,-1.046554 -0.520555,0.237406 -1.882624,0.581939 -0.735123,-0.04454 0.662811,-0.264984 1.729228,-0.358105 0.586418,-0.909305 -0.526017,-0.637031 -1.175365,-0.607591 -1.784374,-0.09777 -0.01873,0.48451 1.694986,0.96393 0.57732,0.966999 -0.569505,-0.113101 -1.628296,0.530664 -1.060218,-0.37038 0.270534,-0.189771 -0.843346,0.670332 -1.295431,0.355446 -0.928352,0.763192 -0.585173,-0.23707 0.0275,-0.660783 0.610894,-0.754456 1.704843,-0.472908 2.415059,-1.092444 1.088227,-0.342244 0.727229,-0.323555 -0.220449,-0.147462 -0.790443,0.262641 -1.488749,0.752267 -2.333563,0.86083 0.921821,-0.734087 0.0056,-0.843767 -0.658503,-0.441155 -0.454622,-0.319503 1.52773,-0.842 0.476363,-0.918915 1.371624,-0.275471 -0.632942,-0.646725 0.574449,-0.770582 1.130209,0.06038 2.284071,0.702018 3.4503,0.355284 -0.857641,0.83092 -0.466029,0.686749 0.337562,0.179272 0.744861,-0.46458 1.84833,-0.656201 2.601474,-0.110879 -0.996689,-0.22718 -0.139789,0.546995 -0.826076,0.262408 1.128949,0.811771 -1.470658,-0.57649 -0.318566,0.170681 0.803192,0.474059 -0.456999,0.317375 -0.264674,0.607257 -0.785926,0.243615 0.873249,0.504808 1.205524,0.559202 1.292342,-0.421371 -1.06677,0.08901 -0.475295,-0.688478 0.296462,-0.589984 1.085184,0.541737 1.699539,0.14053 1.045989,0.234097 0.457537,0.50505 0.07097,0.466703 0.387303,0.191618 1.958308,0.921683 0.745312,0.569693 -1.28597,-0.30884 0.437347,0.200252 0.537938,0.77317 -0.03478,0.150693 -1.588672,-0.957232 -0.445716,0.02113 1.04356,0.906913 -0.162643,0.07035 -0.67002,-0.224658 0.121474,0.209292 1.485352,1.591541 0.515553,0.715866 -0.459031,-0.589972 -1.138,-0.688359 -1.807609,-0.883295 0.653445,0.362162 1.339028,0.675604 1.893706,1.18749 -1.361359,-0.40653 0.232951,0.732058 -0.949983,0.02279 -0.67682,-0.213055 -1.147638,-1.018281 -1.908413,-0.829983 0.29255,0.203471 1.989747,1.086988 0.99177,0.665664 -0.667358,-0.547817 -1.650382,-0.144999 -0.498945,0.279254 1.303106,0.641125 -1.398432,-0.474416 -0.278151,0.263844 0.327399,0.328011 1.642979,1.233572 0.465014,1.076648 -0.458917,-0.09168 -0.941657,-1.572782 -0.939778,-0.354953 -1.199116,0.23457 0.361364,0.648909 0.784278,0.896245 1.289775,0.374137 -0.03304,0.500437 -0.238129,0.735898 0.658542,0.198589 -0.502788,1.058026 -0.958496,0.914068 -1.05473,-0.740904 0.208141,0.54834 0.791466,0.169382 0.517093,-0.505933 0.963653,0.763977 1.741267,0.446064 1.274425,0.145485 0.06748,0.300014 -0.545744,0.420135 -1.223948,0.155264 -2.446172,0.399369 -3.685365,0.348314 0.385587,-0.81625 0.644668,-1.44532 -0.187744,-0.459405 -0.343778,0.523284 -1.787313,0.403037 -1.04632,-0.387225 1.937474,0.696332 -0.801333,-1.235681 -0.569312,0.578464 -0.986318,-0.08022 -0.832134,-0.411301 -0.444476,-0.651709 -0.623316,-0.187001 -1.585616,0.616115 -0.700336,-0.296291 1.303474,-0.339714 0.12376,-0.568261 -0.137309,-0.21359 0.778707,-0.793186 -0.07723,-0.903807 -0.724159,-0.505542 -0.766066,-0.09974 -1.235088,1.180186 -1.429401,0.0162 -0.881649,0.05616 -0.564316,-0.425507 0.255644,-0.709658 0.197443,-0.135871 -1.2363,0.240378 -1.591717,0.55855 -0.549732,0.572123 -1.369104,0.597447 -2.084196,0.834239 l 0.115129,0.01551 0.04574,0.0062 z"
       style="color:#000000;fill:#008000;fill-opacity:1;fill-rule:evenodd;stroke:#000000;stroke-width:0.00787865;stroke-linecap:butt;stroke-linejoin:miter;stroke-miterlimit:4;stroke-opacity:1;stroke-dasharray:none;stroke-dashoffset:0;marker:none;visibility:visible;display:inline;overflow:visible;enable-background:accumulate"
       id="path3223"
       inkscape:connector-curvature="0" />
    <path
       d="m 17.220584,13.602833 c 0.506769,0.390662 0.629262,1.355619 1.40784,0.768356 0.578377,-0.310332 1.329523,-0.08494 1.954862,-0.234453 0.790557,0.146904 0.653245,1.226263 1.412383,1.463876 0.500031,0.442372 1.285084,-0.2674 1.856577,0.317714 0.605892,0.595535 1.618658,0.196627 0.594172,-0.337078 -0.343277,-0.417619 -2.004705,-0.406319 -1.227685,-0.956096 0.498819,-0.06024 1.898331,0.357546 1.018917,-0.376165 -0.605007,-0.463466 -1.292839,0.312667 -1.989947,0.05268 -1.327064,0.02318 0.320322,-0.172349 0.811894,-0.260208 0.703239,-0.230606 1.448488,-0.05373 1.9998,0.43481 0.521841,-0.416552 1.829806,-0.170007 0.79076,0.396325 0.860749,0.364371 1.71524,-0.01382 2.571387,-0.195332 0.740859,0.57591 1.624501,0.929336 2.47567,1.309997 -0.985561,-0.810356 -0.313533,-0.520368 0.468478,-0.15737 -0.626677,-0.365763 -1.246608,-0.739292 -1.649636,-1.362497 1.008146,-0.769267 0.455016,-0.559649 -0.378974,-0.173938 -0.659647,0.0855 -1.715136,-0.447935 -0.714571,-1.002605 -0.256456,-0.418949 -1.008903,-0.89152 -1.574415,-1.120061 -0.335274,-0.227288 -1.92673,0.371231 -1.343738,-0.190035 0.893624,-0.254954 1.160987,-0.419607 0.06233,-0.420169 -0.670176,0.360449 -1.378849,0.233879 -2.00015,-0.04999 -0.61116,0.141564 -0.870101,1.027148 -1.704999,0.937254 -1.314261,0.0916 0.382636,-0.690612 -0.153797,-1.068145 -0.921187,0.0093 -1.331087,0.0021 -0.686262,-0.40704 -0.167469,-0.164579 1.255819,-0.07825 1.720945,-0.133731 1.074331,0.576273 0.584377,-0.174349 -0.170744,-0.317794 -0.769779,-0.01209 -1.37274,0.117808 -1.994897,-0.239716 -1.250904,0.07657 0.07433,-0.7021411 -1.073063,-0.5171456 -0.813843,-0.082897 -0.926529,0.8107396 -1.640141,1.0416866 -1.234044,-0.01202 -1.906357,1.114079 -2.747141,1.841246 -0.762574,0.331443 -1.726028,-0.18925 -2.509536,0.281061 -0.780072,0.253224 -1.516729,0.615028 -2.268209,0.939759 0.441682,-0.0087 1.96475,-0.406113 1.697287,-0.159827 -0.465874,0.319817 -1.906237,0.99302 -0.586688,0.665377 1.421052,-0.261156 -0.146735,0.106079 -0.262654,0.755354 0.266374,-0.195301 1.123971,-0.583079 1.758306,-0.405792 -0.447738,1.260325 0.386704,0.306804 0.917304,-0.122098 0.677395,-0.245101 1.752857,-0.679131 0.60603,0.06812 -0.33323,0.711468 0.965805,0.342033 1.131247,-0.338036 -0.644999,0.688279 -0.519079,1.302736 0.41561,0.902237 0.06112,-0.961014 1.419552,-0.521936 1.210525,-0.601646 -0.309716,-0.326089 -0.322381,-0.607845 -0.205079,-1.028886 z"
       style="color:#000000;fill:#008000;fill-opacity:1;fill-rule:evenodd;stroke:#000000;stroke-width:0.00787865;stroke-linecap:butt;stroke-linejoin:miter;stroke-miterlimit:4;stroke-opacity:1;stroke-dasharray:none;stroke-dashoffset:0;marker:none;visibility:visible;display:inline;overflow:visible;enable-background:accumulate"
       id="path3225"
       inkscape:connector-curvature="0" />
    <path
       d="m 1.8798941,20.670519 c 1.0637853,-0.594386 1.5927341,0.47565 2.6504301,0.30594 0.6604439,0.01882 1.1648707,-0.593047 1.7136983,-0.902301 -1.0372748,0.414956 -1.0934441,-0.0075 -0.1440473,-0.373759 0.6705785,-0.304435 1.3889323,-0.02219 2.0379707,-0.05602 0.9154056,-0.547556 0.3947595,-0.854182 -0.3957301,-0.590507 0.3487657,-0.570388 1.0914734,-0.84475 1.6847727,-0.756427 0.6440635,-0.495077 0.9546505,-0.148561 1.6827075,0.06392 0.962504,-0.287784 -0.682111,0.921282 0.765846,0.746533 0.286902,-0.667672 1.116992,-0.656047 1.43452,-1.2925 0.394072,-0.657555 1.374043,-0.547364 1.756292,0.07724 0.997222,0.424877 -0.594645,0.582769 -1.032736,0.597563 -0.741568,-0.157412 -1.733016,0.434039 -0.470793,0.475968 1.003502,-0.03026 1.950878,-0.527722 2.963042,-0.358921 0.897389,-0.116029 3.232015,-0.840307 2.651377,0.635515 -1.386025,-0.65331 -0.855184,0.113578 0.100735,0.130581 0.280406,0.512274 -1.802356,-0.260074 -0.576244,0.542995 0.828779,0.920156 -0.477231,0.05943 -0.804828,-0.319363 -0.516332,-0.78586 -1.453245,-0.297811 -2.075847,0.09178 -1.079391,0.02521 -2.257059,0.277357 -3.185658,-0.435503 0.01201,0.790769 -0.709282,-0.39061 -0.05493,0.641467 -0.996798,0.461368 -0.355694,-0.92952 -1.451129,-0.508103 -1.041024,-0.494951 -0.905465,-0.478527 -0.530265,0.241334 -0.7739082,0.103124 -0.8785966,0.638605 -1.622967,0.79978 -0.5715132,0.481788 -1.3342279,0.27216 -2.0184696,0.334742 0.9826882,-0.570019 0.2621444,-0.979018 -0.3247601,-0.282961 -0.7177953,0.123953 -1.25299,0.708665 -1.8925749,1.029968 0.4126848,-0.376762 1.6743036,-1.353538 0.5138202,-0.618407 -0.4016555,0.404212 -1.6447604,0.595006 -1.5114878,1.104738 0.2184103,0.518662 1.4776108,0.857385 0.3436788,0.767388 -0.5379153,-1.147876 -0.8028043,0.163633 -0.032745,0.452139 -0.1991345,0.190191 -1.0930885,0.10593 -1.5350459,0.476875 C 1.65369,23.777247 2.949093,22.782305 1.6840912,23.460701 0.79659434,23.803508 1.9223452,22.756423 2.2930414,22.653884 1.8157628,22.467284 0.51681662,23.529378 0.83563955,22.810309 1.475548,22.411006 2.2005993,22.248209 2.8880641,21.97809 2.2214442,21.963849 1.5208727,21.894031 1.0429278,22.382451 0.41600523,22.479172 1.8233451,21.63782 1.4387072,21.675355 2.0741702,21.272646 2.8270936,21.949989 3.3978736,21.467206 2.4489104,21.186266 3.0111094,21.109444 2.1265186,21.037629 1.3293741,21.203363 1.0351141,21.167501 1.8661959,20.680511 l 0.013698,-0.01 z"
       style="color:#000000;fill:#008000;fill-opacity:1;fill-rule:evenodd;stroke:#000000;stroke-width:0.00787865;stroke-linecap:butt;stroke-linejoin:miter;stroke-miterlimit:4;stroke-opacity:1;stroke-dasharray:none;stroke-dashoffset:0;marker:none;visibility:visible;display:inline;overflow:visible;enable-background:accumulate"
       id="path3227"
       inkscape:connector-curvature="0" />
    <path
       d="M 0.70520085,17.746694 C 0.99528635,17.058847 1.8309557,16.005433 0.44592346,16.678615 1.132039,16.392961 1.7381088,16.014037 2.0827763,15.330528 c 0.6459648,-1.076236 0.2566187,0.961598 0.719124,-0.04017 0.074651,-0.771878 1.148722,0.02534 1.6389764,-0.213285 0.954207,-0.41001 1.9921492,-1.074542 3.0443563,-0.568397 -0.8674778,0.147941 -1.6056432,0.600969 -2.3885549,0.942753 -0.3803444,0.638796 -0.9387197,0.570502 -1.1026498,0.29021 -0.203188,1.409154 -1.052464,-0.498997 -1.2435422,0.264602 -0.6253284,0.814471 -1.2106856,1.156447 -1.2177027,0.814065 -0.2758608,0.308795 -0.55172167,0.617591 -0.82758251,0.926386 z"
       style="color:#000000;fill:#008000;fill-opacity:1;fill-rule:evenodd;stroke:#000000;stroke-width:0.00787865;stroke-linecap:butt;stroke-linejoin:miter;stroke-miterlimit:4;stroke-opacity:1;stroke-dasharray:none;stroke-dashoffset:0;marker:none;visibility:visible;display:inline;overflow:visible;enable-background:accumulate"
       id="path3229"
       inkscape:connector-curvature="0" />
    <path
       d="m 3.8818508,11.515925 c 0.7995534,0.248525 1.1914497,-0.686548 1.8735074,-0.666168 1.1866371,0.134215 2.2022572,0.789871 3.3872461,0.962933 -0.7667789,0.183552 -1.9146621,0.642576 -2.657059,0.01623 -0.00265,0.794593 -1.4675126,0.234052 -1.1724906,0.160395 C 6.2622436,11.432572 4.8009363,12.002225 4.434128,12.139304 4.346055,12.011209 5.131344,11.479518 3.9887464,11.82102 2.6946476,11.90859 3.9367894,12.103453 3.8818508,11.515923 z"
       style="color:#000000;fill:#008000;fill-opacity:1;fill-rule:evenodd;stroke:#000000;stroke-width:0.00787865;stroke-linecap:butt;stroke-linejoin:miter;stroke-miterlimit:4;stroke-opacity:1;stroke-dasharray:none;stroke-dashoffset:0;marker:none;visibility:visible;display:inline;overflow:visible;enable-background:accumulate"
       id="path3231"
       inkscape:connector-curvature="0" />
    <path
       d="M 7.4424345,7.8126559 C 6.5827127,7.7890521 5.9461267,8.3092338 5.3047937,8.809787 6.044504,8.0403815 5.4669064,7.87241 4.7909922,8.4163883 4.2288529,8.8108668 3.0572273,8.0905831 4.2714482,8.1098927 5.016437,7.6452077 6.0925787,8.012887 6.5795224,7.1235761 6.4226093,6.8741641 5.2583889,7.4318921 4.8916471,6.8264223 4.3308952,6.8717373 2.8061551,7.0349541 3.0396599,7.1109401 2.6318978,6.7514044 3.3796386,6.2488761 4.0925691,6.5299894 5.28699,6.3190055 3.0744304,6.2703983 3.8227982,5.9251558 4.9332291,6.0628716 4.5360466,5.8141958 3.7135635,5.4589879 3.7815382,5.3748632 4.9848207,5.6823174 5.3119345,6.1203015 5.9179937,6.9099454 6.257334,5.6021335 6.9257576,5.5306392 8.092265,5.3145226 6.7582111,4.6897085 6.2033509,5.0275708 4.8825147,5.3995686 6.1835135,4.6147248 5.1559603,4.4303678 5.2664087,3.8233231 6.2850672,4.2526678 6.8003165,4.2747591 7.3002296,3.7571919 7.9584635,4.7398775 8.5869828,4.7414259 8.1801303,4.3272205 6.8419449,3.8332077 8.1510617,3.9656133 9.4406864,3.9402194 7.4354896,3.4946085 7.8021288,3.1599976 8.5538679,3.4532089 9.4405578,3.2467587 8.364289,2.6750245 8.3232915,2.4426887 9.3848175,3.2393904 9.7703013,3.4160101 10.513771,3.612097 10.854569,3.039606 11.460326,2.7724715 10.275408,2.6196526 11.61479,2.4818868 12.141024,2.5030933 c 1.00392,-0.1179222 1.86062,0.4466149 2.765181,0.7840381 -0.857533,-0.4084081 -1.632368,-1.1656418 -2.647438,-0.9095541 -1.902384,-0.4767316 1.344081,-0.1198592 0.01844,-0.8053808 0.868865,0.2264236 1.090312,-0.69993585 1.861117,-0.64226948 1.309459,-0.0799938 -0.439959,0.63084308 0.214594,1.18021678 0.649266,0.8997126 0.537983,0.778524 0.885642,0.013663 0.117984,-0.090927 -0.781197,-0.5476938 0.2379,-0.4040608 -0.425321,-0.4899004 -0.314838,-1.03069542 0.208506,-1.0340131 0.275513,-0.7283541 0.439263,0.4622038 0.825402,0.5694323 -0.828311,0.9503991 0.445621,-0.008 0.651254,-0.26721799 0.759658,-0.2766226 1.23213,0.46926859 0.947949,0.80627099 -1.272367,0.2321399 -0.492066,0.1953478 0.347791,0.150753 0.44252,0.5807828 -0.241999,1.1437117 0.49861,0.1621319 0.455108,-0.1362381 0.929279,-0.1668169 0.390055,-0.5242154 0.225469,-0.5418968 1.981332,-0.4798006 1.727118,-0.3145502 -0.849366,-0.19174 -1.509397,0.6649489 -0.320622,0.2450063 1.15524,-0.61802401 0.08511,-0.014792 -0.128158,0.5995319 0.05683,1.0655204 0.943348,-0.4934415 1.100362,-0.2988243 -0.101252,1.0215054 0.496448,-1.09060191 0.93441,-0.00854 -0.853054,-0.060828 -0.589962,1.0348032 -0.14033,1.1071235 0.913516,0.048624 -0.66701,0.2145528 0.113458,0.3801281 C 21.963566,3.4456859 21.431421,3.581756 20.772159,3.233293 20.27874,3.1632826 19.269508,4.5970826 19.58443,3.9142074 20.148386,3.0194108 18.869343,3.0690861 18.295895,3.1076726 18.064077,2.1303708 17.748474,3.3346544 17.290981,2.2847095 17.424046,2.7875055 16.778226,3.7076624 16.22845,3.0117 16.835307,2.6833321 15.334594,2.2590091 15.343719,3.054466 c 0.699468,0.858844 -0.07814,0.3529553 -0.719754,0.8738108 -1.234494,-0.1422415 -0.557757,-0.00816 -0.162088,0.2207718 -0.834439,0.2549648 -1.76061,-0.3407313 -2.477343,0.2863322 -1.117754,0.6114449 0.08813,0.4724508 0.594926,0.5841182 0.493683,0.3889321 1.359909,-0.655633 1.825755,-0.1032717 0.731138,0.5753125 1.391818,-0.3836623 2.030931,-0.7018374 0.769344,-0.1946992 1.5502,0.1607961 2.311856,0.2959093 -0.237054,0.9443328 0.536698,1.0929695 1.277141,1.2678256 0.904062,0.149041 1.82255,-0.3691059 2.705558,-0.2989796 0.72145,0.067129 1.137268,0.7160691 1.639318,1.1619365 C 22.940829,5.9889256 21.399934,6.5825093 19.905036,6.4782821 19.51305,6.6123578 17.848755,6.3506379 18.927382,6.0778883 18.196332,6.0647994 19.40651,5.6700414 18.160129,5.613178 c -0.941952,0.3999728 -2.01961,-0.5395725 -2.836216,0.224604 -0.262107,0.760181 1.062183,0.2696617 1.422695,0.5812283 0.361005,0.6008191 -0.64293,1.2755579 -1.181072,0.7212991 -0.52263,-0.042931 -1.272218,0.6058767 -1.734478,-0.133128 -1.21856,-1.1307033 0.714422,0.70111 -0.360759,0.2113193 -0.339503,0.3495983 -1.625818,-0.015838 -1.256706,-0.1630046 0.4448,-0.2068431 0.01784,-0.3290869 0.748976,0.077437 C 13.634908,6.8965943 12.322127,5.8509507 11.86409,6.2762037 11.338945,6.9523514 10.554571,5.8552704 10.078572,6.5954644 10.082173,7.1295131 8.3558467,7.7446986 9.2549073,7.1808246 10.151623,6.566385 9.8753124,6.2650923 9.0680504,6.9913387 8.660454,7.5838171 7.9483675,7.3763978 7.4424345,7.8126559 z"
       style="color:#000000;fill:#008000;fill-opacity:1;fill-rule:evenodd;stroke:#000000;stroke-width:0.00787865;stroke-linecap:butt;stroke-linejoin:miter;stroke-miterlimit:4;stroke-opacity:1;stroke-dasharray:none;stroke-dashoffset:0;marker:none;visibility:visible;display:inline;overflow:visible;enable-background:accumulate"
       id="path3242"
       inkscape:connector-curvature="0" />
    <path
       d="m 14.569371,11.538424 c 0.42311,-0.592294 1.222696,-0.565814 1.724919,-0.404389 0.560125,-0.535517 1.404984,-0.200835 1.843467,0.337085 -0.839274,0.01973 -1.637909,0.376258 -2.459722,0.240955 -0.566839,0.224014 -1.743862,0.403046 -0.622008,-0.156238 0.311393,-0.294252 -0.395043,-0.01529 -0.486656,-0.01741 z"
       style="color:#000000;fill:#008000;fill-opacity:1;fill-rule:evenodd;stroke:#000000;stroke-width:0.00787865;stroke-linecap:butt;stroke-linejoin:miter;stroke-miterlimit:4;stroke-opacity:1;stroke-dasharray:none;stroke-dashoffset:0;marker:none;visibility:visible;display:inline;overflow:visible;enable-background:accumulate"
       id="path3244"
       inkscape:connector-curvature="0" />
    <path
       d="M 10.26401,8.5424381 C 10.348311,7.8172833 12.739235,8.2420132 11.583992,8.4255698 10.993807,8.2528779 10.033556,8.978969 10.445955,8.5760454 10.127504,8.7070775 9.6954744,9.0322263 10.26401,8.5424381 z"
       style="color:#000000;fill:#008000;fill-opacity:1;fill-rule:evenodd;stroke:#000000;stroke-width:0.00787865;stroke-linecap:butt;stroke-linejoin:miter;stroke-miterlimit:4;stroke-opacity:1;stroke-dasharray:none;stroke-dashoffset:0;marker:none;visibility:visible;display:inline;overflow:visible;enable-background:accumulate"
       id="path3246"
       inkscape:connector-curvature="0" />
    <path
       d="m 17.226248,7.6693011 c 0.623881,0.4002613 1.170217,-0.449597 1.795502,-0.6085489 1.262302,-0.2173982 -0.527355,0.9763024 0.123849,0.6939018 0.568818,0.092783 0.677621,-0.2313997 1.457201,-0.2492807 0.878445,-0.3502965 1.59621,0.6688194 2.476073,0.6532151 -0.294398,0.4815779 -1.921976,-0.3851693 -1.213008,0.014459 0.567456,0.4154039 -1.095644,0.014452 0.163074,0.3881716 0.88223,0.00461 0.538142,0.8581774 -0.173733,0.5041903 0.08137,0.3758336 0.821373,0.6892972 -0.301989,0.4341998 C 20.429921,9.6786728 22.430083,8.2788145 21.34481,8.950368 21.17277,9.04895 19.942259,8.3226723 20.335306,8.907142 19.457337,9.1478332 19.59086,9.603829 18.780574,9.0378548 c -0.65497,-0.097389 -0.691825,0.4298789 -1.537628,0.4800495 -0.718116,0.1471687 1.649882,0.3498176 0.968115,0.441081 -0.410985,-0.032713 -1.781453,-0.2754676 -1.436738,0.3866387 0.830946,0.193863 -0.22546,1.060289 -0.722615,1.037008 0.07673,-0.06031 0.46739,-1.095745 -0.66593,-0.550021 0.396227,-0.197909 1.454065,-0.738428 0.838505,-0.8996011 C 16.087824,9.44237 15.379869,10.150521 15.070939,10.503054 14.039974,11.534094 15.781767,9.5634977 14.638098,9.8593711 13.473842,10.440937 14.216694,9.3539416 14.833308,9.1119731 15.439948,8.7578714 16.1128,9.2951826 16.496793,8.9183246 17.521817,8.6953911 17.510715,8.7315659 16.550243,8.6718029 15.749335,8.4502508 17.614423,8.3404238 16.242911,8.2581289 15.712816,8.074036 14.401597,8.1322662 15.61011,7.9451843 c 0.556606,-0.03429 1.134945,0.038973 1.616138,-0.2758832 z"
       style="color:#000000;fill:#008000;fill-opacity:1;fill-rule:evenodd;stroke:#000000;stroke-width:0.00787865;stroke-linecap:butt;stroke-linejoin:miter;stroke-miterlimit:4;stroke-opacity:1;stroke-dasharray:none;stroke-dashoffset:0;marker:none;visibility:visible;display:inline;overflow:visible;enable-background:accumulate"
       id="path3250"
       inkscape:connector-curvature="0" />
    <path
       d="m 22.013016,7.7000031 c 0.317147,0.1270774 1.606054,-0.2079157 0.830193,0.3509139 0.478316,0.048113 -0.218131,0.5872213 0.836866,0.6478577 0.258109,0.1238124 -1.223055,0.4575474 -0.891245,0.6948436 0.264382,0.3238139 1.24981,-0.010846 1.409893,0.7596857 0.207222,-0.02986 0.695245,-0.2838167 0.654014,-0.09983 1.118447,0.0045 -0.830605,0.607886 0.419031,0.408189 0.289004,-0.207158 0.298647,0.794118 0.640107,0.09681 -0.168269,-0.6208911 0.43737,-0.328804 1.196521,-0.309237 -0.267175,-0.10875 -1.433922,-0.7415341 -0.192995,-0.3803278 0.87226,0.6134718 0.881309,-0.00768 -0.07381,-0.153086 -0.839445,-0.36726 0.980722,0.1688868 1.300298,-0.090559 1.002186,-0.1793927 -0.698324,-0.2721009 -0.847448,-0.6743367 -0.651463,0.013761 -1.02083,0.284727 -1.693362,0.3650047 -0.539745,-0.05785 -0.918984,0.7699128 -1.535026,0.1666203 -1.125543,-0.2765639 -0.253585,-0.303649 0.375557,-0.6169292 0.746894,-0.2568246 1.588478,0.2425071 2.312605,-0.095309 0.497921,0.049084 1.471538,-0.2302566 1.627505,0.00525 C 27.204164,8.1375982 29.612324,8.7900411 28.755605,8.407442 28.318268,7.9512236 27.549274,8.3594335 26.971111,8.3094797 26.331968,8.482056 25.690859,7.8450605 25.105649,8.4284862 23.562909,8.5371696 25.836157,8.1386743 24.997493,8.0479473 24.391938,8.023864 23.377419,7.7955402 24.549059,7.8287431 25.148497,7.5995848 23.599463,7.4654968 23.323142,7.2339281 22.780094,6.9813082 22.410159,7.392387 22.013014,7.699983 z"
       style="color:#000000;fill:#008000;fill-opacity:1;fill-rule:evenodd;stroke:#000000;stroke-width:0.00787865;stroke-linecap:butt;stroke-linejoin:miter;stroke-miterlimit:4;stroke-opacity:1;stroke-dasharray:none;stroke-dashoffset:0;marker:none;visibility:visible;display:inline;overflow:visible;enable-background:accumulate"
       id="path3252"
       inkscape:connector-curvature="0" />
    <path
       d="M 7.0155388,8.7439822 C 7.5565868,8.3485453 8.0747407,7.9177857 8.6810988,7.6231114 8.2976379,8.2223621 7.5938674,8.3925465 7.0155388,8.7439822 z"
       style="color:#000000;fill:#008000;fill-opacity:1;fill-rule:evenodd;stroke:#000000;stroke-width:0.00787865;stroke-linecap:butt;stroke-linejoin:miter;stroke-miterlimit:4;stroke-opacity:1;stroke-dasharray:none;stroke-dashoffset:0;marker:none;visibility:visible;display:inline;overflow:visible;enable-background:accumulate"
       id="path3256"
       inkscape:connector-curvature="0" />
    <path
       d="m 15.397282,21.022978 c 0.18118,-0.810169 1.075526,-0.221191 1.324393,0.254163 0.540374,1.301077 -0.304776,-0.790019 0.05625,-0.643804 0.335213,0.962129 0.259132,-0.909493 -0.217831,-0.81233 -0.524555,-0.01951 -1.212829,0.284715 -1.508737,0.727729 -0.0679,0.297041 0.135932,0.341213 0.345924,0.474242 z"
       style="color:#000000;fill:#008000;fill-opacity:1;fill-rule:evenodd;stroke:#000000;stroke-width:0.00787865;stroke-linecap:butt;stroke-linejoin:miter;stroke-miterlimit:4;stroke-opacity:1;stroke-dasharray:none;stroke-dashoffset:0;marker:none;visibility:visible;display:inline;overflow:visible;enable-background:accumulate"
       id="path3260"
       inkscape:connector-curvature="0" />
    <path
       d="m 12.395526,21.349098 c 0.578074,-0.619534 1.302942,0.356769 1.515823,-0.637684 0.828708,0.701242 0.357642,-0.334446 0.913608,-0.141882 0.97426,-0.310058 -0.121513,-0.13013 -0.767094,-0.257353 -0.57052,0.219376 -0.78998,0.03784 -1.586621,0.15022 -0.16026,0.160817 -0.735185,1.573043 -0.08405,0.892546 l 0.0083,-0.0058 z"
       style="color:#000000;fill:#008000;fill-opacity:1;fill-rule:evenodd;stroke:#000000;stroke-width:0.00787865;stroke-linecap:butt;stroke-linejoin:miter;stroke-miterlimit:4;stroke-opacity:1;stroke-dasharray:none;stroke-dashoffset:0;marker:none;visibility:visible;display:inline;overflow:visible;enable-background:accumulate"
       id="path3258"
       inkscape:connector-curvature="0" />
    <path
       d="m 22.862265,17.45837 c 1.231551,-0.800245 -0.745756,-0.767812 0.190005,-0.91431 -0.772416,0.03454 -0.120774,-0.822585 -1.276569,-0.324157 -0.460121,-0.09977 -1.988274,0.883391 -1.444097,0.415242 0.843639,-0.843522 2.101399,-1.009056 3.241933,-1.116672 0.639454,0.340581 1.239233,0.761499 1.914958,1.028637 -0.794516,-0.534137 1.051166,0.257691 -0.300993,-0.477097 -0.165834,-0.596418 1.209867,-0.04432 1.422818,0.383241 0.678188,0.539396 1.376728,-0.03238 1.051566,-0.790663 0.06668,-0.81768 1.334336,-0.320259 1.22159,0.357461 0.571367,1.113859 1.919447,0.77331 2.920274,1.012299 0.751011,0.295031 -1.534755,0.05599 -0.704363,0.509896 -0.491193,-0.147428 -1.993069,-0.206292 -0.951692,0.399273 0.610874,0.219599 1.217093,1.551437 0.234847,0.674973 -0.352242,-0.04901 0.154492,0.469876 -0.598456,-0.274208 -0.711248,-0.01012 -0.084,0.294974 -0.978471,0.0015 0.543629,0.808641 0.820936,0.639368 0.14126,0.803032 -0.08209,0.427642 -1.393171,-1.100337 -0.948308,-0.25349 0.745067,1.042612 -0.0054,0.486558 -0.586584,0.01173 -0.323686,-0.344593 -1.480923,-0.967414 -0.647963,-0.29424 1.09681,0.557164 -0.863666,0.566734 0.301498,0.745794 0.3681,0.551656 1.446798,0.780653 0.346684,1.195981 0.617707,-0.87049 -0.918566,-0.173302 -1.376384,-0.422143 -1.157232,-0.05199 -0.855246,-0.173271 0.111867,-0.309498 -0.863307,0.04636 -1.726282,-0.138109 -2.546339,-0.290381 -0.631392,0.02969 -1.340647,1.222679 -0.721856,0.121819 0.876767,-1.133813 -1.05016,0.793259 -0.427593,-0.05049 1.062289,-1.1818 -0.8467,0.477786 -0.237331,-0.504623 -0.520078,-0.698762 1.054723,-0.0036 1.258169,-0.594129 0.236778,-0.871655 1.387925,0.263797 0.192939,-0.624727 -0.438486,0.440443 -0.999157,0.897266 -1.769694,0.701518 1.294342,-0.04284 0.566458,-0.433153 -0.279804,-0.09808 0.591918,0.01958 0.121852,-0.83311 0.522227,-0.720613 0.256536,-0.06213 0.483806,-0.197936 0.723862,-0.302848 z"
       style="color:#000000;fill:#008000;fill-opacity:1;fill-rule:evenodd;stroke:#000000;stroke-width:0.00787865;stroke-linecap:butt;stroke-linejoin:miter;stroke-miterlimit:4;stroke-opacity:1;stroke-dasharray:none;stroke-dashoffset:0;marker:none;visibility:visible;display:inline;overflow:visible;enable-background:accumulate"
       id="path3262"
       inkscape:connector-curvature="0" />
  </g>
</svg>
