<?xml version="1.0" encoding="utf-8"?>
<!-- Generator: Adobe Illustrator 16.0.0, SVG Export Plug-In . SVG Version: 6.00 Build 0)  -->
<!DOCTYPE svg PUBLIC "-//W3C//DTD SVG 1.1//EN" "http://www.w3.org/Graphics/SVG/1.1/DTD/svg11.dtd">
<svg version="1.1" id="Layer_1" xmlns="http://www.w3.org/2000/svg" xmlns:xlink="http://www.w3.org/1999/xlink" x="0px" y="0px"
	 width="334.559px" height="620.676px" viewBox="0 0 334.559 620.676" enable-background="new 0 0 334.559 620.676"
	 xml:space="preserve">
<g id="XMLID_1_">
	<path fill="#BB9881" d="M239.525,306.297c0,0.01,0.011,0.03,0.011,0.04C239.546,306.347,239.546,306.337,239.525,306.297z
		 M259.195,303.527l0.82-0.021c4.16,0.04,8.65,0.07,13.141,0.09v0.58c1.011,0.7,1.779,2.511,2.029,4.33
		c-2.81,0.5-7.13,2.339-10.739,5.601c-3.609,3.25-7.029,3.199-12.189,3.318c-5.17,0.121-9.69-0.639-14.83-5.729
		c-2.66-2.641-5.41-6.21-7.45-9.031c-1.89-2.62-3.16-4.61-3.16-4.61s-0.85-4,2.15-4.14c2.24,1.03,10.02,11.56,10.55,12.37
		c-2.56-7.021-3.42-15.88-3.62-17.38c-0.199-1.5,1.07-3.2,2.74-3.64s3.351,0.76,3.351,0.76s1.681-2.79,3.521-2.83
		c1.83-0.05,3.45,1.67,3.45,1.67s2.06-0.91,4.159-0.13c2.109,0.79,2.92,7.34,3.939,11.61
		C257.695,299.017,258.225,301.417,259.195,303.527z"/>
	<path fill="#EED95F" d="M239.445,161.887v0.51l-23.5-0.17v-0.65c0.062-5.54-0.068-10.58-0.18-15.9l0.271-0.01
		c5.25,2.75,11.681,4.75,17.75,10.5C235.775,158.027,237.695,159.997,239.445,161.887z"/>
	<path fill="#5D9B99" d="M129.206,454.417v-1.5c0,0-3-42.66-5.33-84.66c-1.471-26.459-0.17-45.77,1-56.449
		c5.22,0.959,39.85,6.77,91.97,1.869l0.229-0.029c1.591,14.711,3.819,43.43,2.471,80.6c-2,55-0.67,103.67,5.33,131.67
		s11.33,55,11.33,55s-2.33,16.67-3.33,19.67c0.159,0-2.67,6.33-2.67,6.33s-0.58-1.5-1.96-3.27c-1.37-1.771-3.54-3.811-6.711-4.891
		c-0.25-0.09-0.5-0.17-0.739-0.271c-6-2.17-11.04-5.439-19.05-5.439c-8.33,0-13.04,5.371-13.04,5.371s-0.021,0-0.062,0.01
		c-0.55,0.08-4.989,0.879-5.77,4.16c0,1.02-0.04,3.369-0.04,3.369c-0.13,0.09-0.261,0.18-0.4,0.26
		c-0.75,0.451-1.66,0.811-2.67,0.941c-2.2,0.318-4.859-0.381-7.22-3.24l-1.59-0.131c-0.82,2.189-1.551,3.67-2.08,4.131
		c-1.38,1.199-3.2,0.719-4.63-0.031c-1.352-0.699-2.37-1.639-2.37-1.639s0,0,0-1.66c0-1.67-1.341-5.67-1.341-5.67l-4.311-1.551
		l-0.35-0.119c-7.341-5.66-13.67-5.33-24.67-1c-0.312,0.109-0.61,0.219-0.9,0.33c-7.1,2.6-9.13,3.709-9.93,4.67
		c-0.45,0.529-0.86,2.369-1.142,3.979c-0.25,1.41-0.409,2.65-0.409,2.65s-1.79-1.291-4.119-3.291c-2.33-2-10.171-20.67-10.171-20.67
		s6.671-13.66,9.671-20c3-6.33,11-35.67,12-57.33C126.536,480.577,129.206,454.417,129.206,454.417z"/>
	<path d="M230.206,606.917c-0.16,2.34,2.5,5.34-21.171,7.34c-23.659,2-28.829-2.5-28.829-2.5l-0.33-3.67l-0.11-0.93
		c1.01-0.131,1.92-0.49,2.67-0.939l0.771,0.199c0,0,3.17,2.67,6.829,2.67c3.671,0,6.5-1.5,6.5-1.5s1.58,2.25,4.75,1.92
		c3.171-0.34,4.25-2.09,4.25-2.09s2.341,2.17,4.5,2c2.171-0.17,4.841-2.33,4.841-2.33s1.5,2.5,4,1.83s3.83-2,3.83-2
		s1.329,1.16,2.829,0.33s2.341-3.16,2.341-3.16l0.37-0.439C229.626,605.417,230.206,606.917,230.206,606.917z"/>
	<path fill="#BB9881" d="M188.706,598.586c2-0.709,15.97-5.25,32,0.15l0.09-0.25c0.239,0.1,0.489,0.18,0.739,0.27
		c3.171,1.08,5.341,3.121,6.711,4.891l-0.37,0.439c0,0-0.841,2.33-2.341,3.16s-2.829-0.33-2.829-0.33s-1.33,1.33-3.83,2
		s-4-1.83-4-1.83s-2.67,2.16-4.841,2.33c-2.159,0.17-4.5-2-4.5-2s-1.079,1.75-4.25,2.09c-3.17,0.33-4.75-1.92-4.75-1.92
		s-2.829,1.5-6.5,1.5c-3.659,0-6.829-2.67-6.829-2.67l-0.771-0.199c0.141-0.08,0.271-0.17,0.4-0.26c0,0,0.04-2.352,0.04-3.371
		c0.779-3.279,5.22-4.08,5.77-4.16L188.706,598.586z"/>
	<path d="M220.796,598.487l-0.09,0.25c-16.03-5.4-30-0.859-32-0.15l-0.062-0.16c0.04-0.01,0.062-0.01,0.062-0.01
		s4.71-5.369,13.04-5.369C209.756,593.047,214.796,596.317,220.796,598.487z"/>
	<path fill="#BB9881" d="M213.336,58.917c1.25,0.58,3.87,2.26,3.77,6.25c-0.09,3.75-2.08,6.97-3.21,8.51
		c-1.229,0.78-3.08-0.01-3.08-0.01s0.03-6.37,0.04-8.93c0.011-2.57,0.04-4.82,0.04-4.82S211.355,58.537,213.336,58.917z"/>
	<path fill="#EED95F" d="M217.076,313.647l-0.229,0.029c-52.12,4.9-86.75-0.91-91.97-1.869c0.688-6.27,1.33-9.56,1.33-9.56v-0.271
		l89.488,0.78C215.735,303.007,216.336,306.817,217.076,313.647z"/>
	<path fill="#4C3122" d="M200.345,49.647c-0.11-0.03-0.21-0.08-0.32-0.12c-2.55-1.01-5.09-2.55-7.56-4.4
		c-11.771-8.86-21.78-24.91-21.78-24.91s-3.8,8.24-10.85,18.48c-1.59,2.32-3.221,4.47-4.78,6.42c0,0,0,0-0.01,0
		c-5.352,6.67-9.95,10.93-9.95,10.93c-0.18,10.82-0.271,30.27-0.271,31.06c0,0.01,0,0.01,0,0.02c0,20.94,0.391,38.77,1,53.83
		c0,0.01,0,0.02,0,0.03c0.311,7.63,0.681,14.05,1.08,20.31v0.4l-14.471-0.11v-0.04l0.09-15.74l0.011-1.72l0.431-69.27
		c-0.23-0.31-0.47-0.6-0.72-0.91l0.42-0.33c1.89,1.6,3.09,0.64,3.09,0.64s-0.08-3.67-0.021-8.17c0.051-4.5,0.051-6.17,0.051-6.17
		l-3.199-0.08l-0.15-0.4c0.062-0.02,0.11-0.04,0.16-0.06c0.34-0.12,0.55-0.17,0.55-0.17c1.42-11.24,5.88-19.29,11.54-28.29
		c5.67-9,13.15-16.68,17.761-19.76c3.301-2.2,8.979-1.36,11.949-0.7l2.45-0.02l4.51-2.52c0,0,11,3.34,21,21
		c10,17.67,10.33,29.79,10.33,29.79s0.26,0.07,0.65,0.25c-1.98-0.38-2.44,1-2.44,1s-0.029,2.25-0.04,4.82
		c-0.01,2.56-0.04,8.93-0.04,8.93s1.852,0.79,3.08,0.01c-0.449,0.62-0.77,0.97-0.77,0.97s2.08,31.59,2.55,66.23
		c0.021,1.64,0.06,3.23,0.09,4.8c0.11,5.32,0.24,10.36,0.18,15.9v0.65l-18.818-0.15v-0.41c0.64-6.95,1.199-14.24,1.63-23.16
		c0.02-0.34,0.029-0.69,0.05-1.04c0.561-12.03,1.55-25.33,1.61-41.44c0-0.82,0-1.65,0-2.48c-0.021-12.54-0.131-43.75-0.131-43.75
		L200.345,49.647z"/>
	<path fill="#BB9881" d="M155.055,45.117c1.561-1.95,3.19-4.1,4.78-6.42c7.05-10.24,10.85-18.48,10.85-18.48
		s10.011,16.05,21.78,24.91c2.47,1.85,5.01,3.39,7.56,4.4c0.11,0.04,0.21,0.09,0.32,0.12l-0.061,0.15c0,0,0.109,31.21,0.131,43.75
		c0,0.83,0,1.66,0,2.48h-0.4c0,0-2.16,5.02-7.33,12.85c-1.569,2.38-3.649,4.98-5.899,7.44c-5.159,5.62-11.25,10.51-14.261,10.4
		c-2.449-0.1-5.38-1.38-8.938-4.24c-2.73-2.21-5.84-5.35-9.4-9.6c-7.63-9.15-9.188-23.87-9.359-25.75c0-0.01,0-0.01,0-0.02
		c0-0.79,0.091-20.24,0.271-31.06c0,0,4.601-4.26,9.95-10.93C155.055,45.117,155.055,45.117,155.055,45.117z M195.845,56.877
		c0,0-3.689-3.83-7.72-3.96c-4.03-0.14-7.12,4.57-7.12,4.57C190.135,61.517,195.845,56.877,195.845,56.877z M165.805,57.077
		c0,0-1.28-4.36-5.45-4.9c-4.159-0.54-9.069,4.23-9.069,4.23C159.345,60.437,165.805,57.077,165.805,57.077z"/>
	<path fill="#4C3122" d="M200.015,96.027h0.4c-0.062,16.11-1.051,29.41-1.61,41.44c-0.021,0.35-0.03,0.7-0.05,1.04l-0.141-0.01
		c0,0-3.181-1.38-4.71-2.28c-9.739-5.7-7.12-19.9-7.12-19.9c2.25-2.46,4.33-5.06,5.899-7.44
		C197.855,101.047,200.015,96.027,200.015,96.027z"/>
	<path fill="#EED95F" d="M198.616,138.497l0.141,0.01c-0.431,8.92-0.99,16.21-1.63,23.16v0.41l-50.221-0.38v-0.4
		c-0.399-6.26-0.771-12.68-1.08-20.31c0-0.01,0-0.02,0-0.03l0.971-0.04c1.29-0.3,5.38-1.48,9.87-3.41c0,0,18.438,22.66,37.188-1.21
		l0.051-0.08C195.435,137.117,198.616,138.497,198.616,138.497z"/>
	<path fill="#BB9881" d="M193.906,136.217l-0.051,0.08c-18.75,23.87-37.188,1.21-37.188,1.21c1.21-0.52,2.39-1.09,3.43-1.71
		c5.49-3.25,3.49-13.32,3.49-13.32c3.56,2.86,6.489,4.14,8.938,4.24c3.011,0.11,9.102-4.78,14.261-10.4
		C186.786,116.317,184.166,130.517,193.906,136.217z"/>
	<path d="M164.206,608.247c0.829,1.84-2.33,5-2.33,5s-7.341-0.5-20.17-0.5c-12.83,0-18.171-1.5-18.171-1.5l-4.159-2.66l-0.551-0.709
		c0,0,0.159-1.24,0.409-2.65l2.801,0.021c0,0,1.5,1.17,2.5,0.67s1-0.5,1-0.5s2,3,6.171,0.83c0,0,2.329,1.5,4.5,1.5
		c2.17,0,5.67-1.5,5.67-1.5s1.159,2,3,2c1.83,0,4.659-2,4.659-2s2.5,2.67,6.341,2.67c3.83,0,5.5-2.17,6-2.67
		c0,0,1.02,0.939,2.37,1.639L164.206,608.247z"/>
	<path fill="#4C3122" d="M163.586,122.477c0,0,2,10.07-3.49,13.32c-1.04,0.62-2.22,1.19-3.43,1.71c-4.49,1.93-8.58,3.11-9.87,3.41
		l-0.971,0.04c-0.609-15.06-1-32.89-1-53.83c0.171,1.88,1.729,16.6,9.359,25.75C157.747,117.127,160.855,120.267,163.586,122.477z"
		/>
	<path fill="#BB9881" d="M161.876,604.586c0,1.66,0,1.66,0,1.66c-0.5,0.5-2.17,2.67-6,2.67c-3.841,0-6.341-2.67-6.341-2.67
		s-2.829,2-4.659,2c-1.841,0-3-2-3-2s-3.5,1.5-5.67,1.5c-2.171,0-4.5-1.5-4.5-1.5c-4.171,2.17-6.171-0.83-6.171-0.83s0,0-1,0.5
		s-2.5-0.67-2.5-0.67l-2.801-0.021c0.28-1.607,0.69-3.449,1.142-3.979c0.8-0.959,2.83-2.07,9.93-4.67l0.07,0.18
		c0,0,16.33-1.17,25.83,0.66l0.02-0.049l4.311,1.549C160.536,598.917,161.876,602.917,161.876,604.586z"/>
	<path d="M156.225,597.368l-0.02,0.049c-9.5-1.83-25.83-0.66-25.83-0.66l-0.07-0.18c0.29-0.109,0.59-0.221,0.9-0.33
		c11-4.33,17.329-4.66,24.67,1L156.225,597.368z"/>
	<path fill="#BB9881" d="M132.586,59.797l3.199,0.08c0,0,0,1.67-0.051,6.17c-0.06,4.5,0.021,8.17,0.021,8.17s-1.2,0.96-3.09-0.64
		l-0.42,0.33c-0.012-0.02-0.03-0.05-0.052-0.07c-1.96-2.43-4.13-4.93-3.84-9.05c0.25-3.5,2.812-4.91,4.08-5.39L132.586,59.797z"/>
	<path fill="#EED95F" d="M132.536,144.087l-0.011,1.72l-0.09,15.74v0.04l-28.42-0.21v-0.33c3.4-2.88,6.72-5.8,9.021-8.04
		c6.83-6.67,12.33-7.09,19-8.92H132.536z"/>
	<path fill="#BB9881" d="M62.036,227.667c0,0,0.939,1.94,0.189,3.36c-0.75,1.41-3.52,2.06-3.52,2.06s-0.421,1.29-1.44,2.06
		c-1.75,1.25-6.56-0.27-6.56-0.27s-3.57-1.33-7.07-3.26c-2.36-1.31-4.68-2.89-5.85-4.53c-2.92-4.09-4.91-10.67-5.5-16.84
		c-0.58-6.16,1.75-11.33,1.75-11.33s2.34-4.5,2.75-6.83c0.42-2.34,1.13-5.29,1.13-5.29s3.87-1.07,5.37,2.68
		c0.199,0.49,0.33,0.98,0.41,1.46c0.529,3.19-1.16,6.13-0.591,8.74c0.67,3,2.181,4.99,4.142,5.7c1.96,0.71,17.789,3.87,17.789,3.87
		s2.341,2.5,1.25,4.92c-1.079,2.42-23.419-2.33-23.419-2.33s18.38,8.66,19.34,9.25c0.96,0.58,2.369,1.91,1.92,3.71
		C63.666,226.587,62.036,227.667,62.036,227.667z"/>
	<path fill="#FFFFFF" d="M215.697,302.758l-89.49-0.79l-82.67-0.72l-0.16-69.16l0.26-0.48c3.5,1.94,7.07,3.27,7.07,3.27
		s4.81,1.52,6.56,0.27c1.021-0.77,1.44-2.06,1.44-2.06s2.77-0.65,3.52-2.07c0.75-1.41-0.189-3.35-0.189-3.35s1.63-1.08,2.09-2.88
		c0.45-1.79-0.96-3.12-1.92-3.71c-0.96-0.58-19.34-9.25-19.34-9.25s22.34,4.75,23.42,2.34c1.09-2.42-1.25-4.92-1.25-4.92
		s-15.83-3.17-17.79-3.87c-1.96-0.71-3.47-2.7-4.141-5.7c-0.569-2.61,1.12-5.55,0.591-8.74h0.029l0.15-30.02l60.14,0.46l28.42,0.21
		l14.471,0.11l50.22,0.38l18.82,0.15l23.5,0.17l68.09,0.52l-0.16,140.76c0,0-17.15,0-34.22-0.08c-4.49-0.02-8.98-0.05-13.141-0.09
		l-0.819,0.02c-0.971-2.11-1.5-4.51-2.141-7.18c-1.029-4.28-1.83-10.83-3.939-11.61c-2.11-0.79-4.16,0.12-4.16,0.12
		s-1.62-1.71-3.46-1.67c-1.83,0.05-3.51,2.84-3.51,2.84s-1.681-1.2-3.36-0.76c-1.67,0.44-2.93,2.14-2.73,3.64
		c0.2,1.49,1.061,10.36,3.62,17.38c-0.529-0.82-8.31-11.35-10.55-12.37c-3,0.13-2.15,4.14-2.15,4.14s1.271,1.99,3.16,4.61
		l-0.29,0.21L215.697,302.758z"/>
	<path fill="#FFFFFF" d="M188.127,52.918c4.03,0.13,7.72,3.96,7.72,3.96s-5.71,4.64-14.84,0.6
		C181.007,57.479,184.096,52.778,188.127,52.918z M188.667,57.218c1.42-0.15,1.13-1.57-0.15-1.57
		C187.237,55.648,187.237,57.358,188.667,57.218z"/>
	<path fill="#020202" d="M188.516,55.648c1.28,0,1.57,1.42,0.15,1.57C187.237,57.358,187.237,55.648,188.516,55.648z"/>
	<path fill="#FFFFFF" d="M160.356,52.178c4.171,0.54,5.44,4.9,5.44,4.9s-6.45,3.36-14.51-0.67
		C151.287,56.408,156.197,51.638,160.356,52.178z M159.136,56.528c1.43-0.14,1.141-1.56-0.14-1.56S157.717,56.668,159.136,56.528z"
		/>
	<path fill="#020202" d="M158.997,54.968c1.28,0,1.569,1.42,0.14,1.56C157.717,56.668,157.717,54.968,158.997,54.968z"/>
</g>
<g>
	<path fill="none" stroke="#000000" stroke-width="3" stroke-linecap="round" stroke-linejoin="round" stroke-miterlimit="10" d="
		M146.905,161.292c-0.4-6.259-0.768-12.677-1.076-20.303c-0.609-15.07-1-32.911-1-53.86c0,0,0.09-20.04,0.271-31.08
		c0,0,7.689-7.12,14.741-17.351c7.049-10.239,10.85-18.479,10.85-18.479s14.64,23.479,29.341,29.31c0.67,0.271,1.329,0.5,2,0.69
		l2.659,0.66"/>
	<path fill="none" stroke="#000000" stroke-width="3" stroke-linecap="round" stroke-linejoin="round" stroke-miterlimit="10" d="
		M176.329,10.909c0,0-0.75-0.23-1.931-0.49c-2.969-0.66-8.649-1.5-11.948,0.699c-4.609,3.08-12.092,10.761-17.762,19.761
		c-5.659,9-10.12,17.05-11.54,28.29c0,0-0.21,0.05-0.55,0.17c-1.2,0.42-3.979,1.8-4.24,5.45c-0.29,4.12,1.881,6.62,3.841,9.05
		c0.26,0.33,0.521,0.65,0.771,0.98l-0.439,70.989l-0.098,15.734"/>
	<path fill="none" stroke="#000000" stroke-width="3" stroke-linecap="round" stroke-linejoin="round" stroke-miterlimit="10" d="
		M197.128,161.667c0.66-7.219,1.235-14.814,1.68-24.2c0.59-12.64,1.646-26.693,1.604-43.924c-0.021-12.54-0.127-43.748-0.127-43.748
		"/>
	<path fill="none" stroke="#000000" stroke-width="3" stroke-linecap="round" stroke-linejoin="round" stroke-miterlimit="10" d="
		M176.849,10.399l4.51-2.521c0,0,11,3.34,21,21c10,17.67,10.33,29.79,10.33,29.79s0.261,0.07,0.65,0.25
		c1.25,0.58,3.869,2.26,3.77,6.25c-0.09,3.75-2.079,6.97-3.211,8.51c-0.448,0.62-0.77,0.971-0.77,0.971s2.08,31.589,2.551,66.229
		c0.099,7.175,0.342,13.517,0.271,20.7"/>
	<path fill="none" stroke="#000000" stroke-width="1.5" stroke-linecap="round" stroke-linejoin="round" stroke-miterlimit="10" d="
		M132.458,59.799h0.131l3.199,0.08c0,0,0,1.67-0.05,6.17c-0.061,4.5,0.021,8.17,0.021,8.17s-1.2,0.96-3.091-0.64"/>
	<path fill="none" stroke="#000000" stroke-width="1.5" stroke-linecap="round" stroke-linejoin="round" stroke-miterlimit="10" d="
		M213.728,59.009c-0.139-0.04-0.27-0.07-0.389-0.09c-1.98-0.38-2.441,1-2.441,1s-0.028,2.25-0.039,4.82
		c-0.01,2.56-0.041,8.93-0.041,8.93s1.851,0.79,3.08,0.01c0.312-0.189,0.58-0.48,0.771-0.9"/>
	<path fill="none" stroke="#000000" stroke-width="3" stroke-linecap="round" stroke-linejoin="round" stroke-miterlimit="10" d="
		M144.808,86.929c0,0,0,0.06,0.021,0.181c0,0.01,0,0.01,0,0.02c0.17,1.88,1.729,16.6,9.36,25.75c3.56,4.25,6.67,7.391,9.4,9.6
		c3.559,2.86,6.488,4.141,8.938,4.24c3.011,0.109,9.101-4.779,14.261-10.4c2.25-2.459,4.33-5.06,5.899-7.439
		c5.17-7.83,7.329-12.856,7.329-12.856"/>
	<path fill="none" stroke="#000000" stroke-width="3" stroke-linecap="round" stroke-linejoin="round" stroke-miterlimit="10" d="
		M163.59,122.479c0,0,2,10.07-3.49,13.32c-1.041,0.62-2.221,1.19-3.432,1.71c-4.489,1.93-8.578,3.108-9.868,3.409"/>
	<path fill="none" stroke="#000000" stroke-width="3" stroke-linecap="round" stroke-linejoin="round" stroke-miterlimit="10" d="
		M132.036,144.084c-6.668,1.834-12.167,2.252-19.001,8.919c-2.302,2.244-5.621,5.159-9.015,8.039"/>
	<path fill="none" stroke="#000000" stroke-width="1.5" stroke-linecap="round" stroke-linejoin="round" stroke-miterlimit="10" d="
		M156.668,137.509c0,0,18.44,22.66,37.19-1.21"/>
	<path fill="none" stroke="#000000" stroke-width="3" stroke-linecap="round" stroke-linejoin="round" stroke-miterlimit="10" d="
		M186.789,116.318c0,0-2.621,14.2,7.119,19.9c1.53,0.899,4.709,2.282,4.709,2.282"/>
	<path fill="none" stroke="#000000" stroke-width="3" stroke-linecap="round" stroke-linejoin="round" stroke-miterlimit="10" d="
		M216.033,145.667c5.256,2.75,11.679,4.75,17.756,10.5c1.992,1.861,3.91,3.83,5.659,5.725"/>
	<path fill="none" stroke="#000000" stroke-width="1.5" stroke-linecap="round" stroke-linejoin="round" stroke-miterlimit="10" d="
		M154.914,45.167c0,0,8-3.125,11.625,0.875"/>
	<path fill="none" stroke="#000000" stroke-width="1.5" stroke-linecap="round" stroke-linejoin="round" stroke-miterlimit="10" d="
		M180.414,47.167c0,0,5.5-5.375,13.625-1.375"/>
	<path fill="none" stroke="#000000" stroke-linecap="round" stroke-linejoin="round" stroke-miterlimit="10" d="M164.053,51.167
		c0,0,1.882,0.941,2.15,3.763"/>
	<path fill="none" stroke="#000000" stroke-width="1.5" stroke-linecap="round" stroke-linejoin="round" stroke-miterlimit="10" d="
		M151.289,56.407c0,0,4.903-4.771,9.069-4.232s5.442,4.905,5.442,4.905S159.35,60.438,151.289,56.407z"/>
	<path fill="none" stroke="#000000" stroke-width="3" stroke-linecap="round" stroke-linejoin="round" stroke-miterlimit="10" d="
		M159,54.965c1.28,0,1.562,1.422,0.142,1.563C157.719,56.671,157.719,54.965,159,54.965z"/>
	<path fill="none" stroke="#000000" stroke-width="1.5" stroke-linecap="round" stroke-linejoin="round" stroke-miterlimit="10" d="
		M181.002,57.482c0,0,3.091-4.703,7.121-4.568c4.032,0.135,7.728,3.965,7.728,3.965S190.138,61.515,181.002,57.482z"/>
	<path fill="none" stroke="#000000" stroke-width="3" stroke-linecap="round" stroke-linejoin="round" stroke-miterlimit="10" d="
		M188.663,57.214c-1.422,0.142-1.422-1.563-0.144-1.563C189.799,55.651,190.084,57.072,188.663,57.214"/>
	
		<path id="nose_1_" fill="none" stroke="#000000" stroke-width="1.5" stroke-linecap="round" stroke-linejoin="round" stroke-miterlimit="10" d="
		M182.53,77.879c2.329,2.34,0.5,4.84-0.841,5.34c-1.33,0.5-2.159,1-2,0.16c0.17-0.83-0.819-1.93-2.891-1.83
		c-2.061,0.1-2.021,2.71-3.521,3.54c-1.54,0.54-2.729-0.83-2.729-0.83c-6.43-1.19-10.439-8.33-10.359-9.67
		c0.091-1.33,4.818-5.242,7.25-9.54c2.433-4.298,2.591-13.298,2.591-13.298"/>
	
		<path id="nostril_1_" fill="none" stroke="#000000" stroke-width="1.5" stroke-linecap="round" stroke-linejoin="round" stroke-miterlimit="10" d="
		M165.248,81.929c-1.719,0.7-0.949,2.45-1.949,2.12s-4.01-2.76-1.18-4.93"/>
	<path fill="none" stroke="#000000" stroke-width="1.5" stroke-linecap="round" stroke-linejoin="round" stroke-miterlimit="10" d="
		M154.164,91.792c0,0,4.5-3,4.625-5.75"/>
	<path fill="none" stroke="#000000" stroke-width="1.5" stroke-linecap="round" stroke-linejoin="round" stroke-miterlimit="10" d="
		M157.664,89.542c0,0,17.375,11.5,31.875-0.25"/>
	<path fill="none" stroke="#000000" stroke-width="1.5" stroke-linecap="round" stroke-linejoin="round" stroke-miterlimit="10" d="
		M188.289,84.917c0,0,0.375,4.5,4.25,5.625"/>
	<path fill="none" stroke="#000000" stroke-width="1.5" stroke-linecap="round" stroke-linejoin="round" stroke-miterlimit="10" d="
		M168.289,98.792c0,0,5.375,2.5,10.125-0.125"/>
	<path fill="none" stroke="#000000" stroke-width="3" stroke-linecap="round" stroke-linejoin="round" stroke-miterlimit="10" d="
		M47.246,205.374c1.958,0.709,17.793,3.876,17.793,3.876s2.335,2.501,1.25,4.917s-23.418-2.334-23.418-2.334
		s18.374,8.664,19.335,9.249s2.374,1.918,1.919,3.711s-2.086,2.874-2.086,2.874s0.938,1.938,0.188,3.355s-3.521,2.062-3.521,2.062
		s-0.417,1.292-1.438,2.063c-1.75,1.25-6.564-0.271-6.564-0.271s-9.997-3.709-12.915-7.793s-4.915-10.667-5.5-16.833
		s1.75-11.333,1.75-11.333s2.335-4.501,2.75-6.834s1.124-5.291,1.124-5.291s3.874-1.062,5.374,2.688s-0.844,7.198-0.177,10.197
		S45.288,204.665,47.246,205.374z"/>
	<path fill="none" stroke="#000000" stroke-width="1.5" stroke-linecap="round" stroke-linejoin="round" stroke-miterlimit="10" d="
		M41.871,218.916c0,0,18.041,8.25,20.168,8.751"/>
	<path fill="none" stroke="#000000" stroke-width="1.5" stroke-linecap="round" stroke-linejoin="round" stroke-miterlimit="10" d="
		M42.204,224.916c0,0,13.835,6.5,16.046,7.294"/>
	<path fill="none" stroke="#000000" stroke-width="3" stroke-linecap="round" stroke-linejoin="round" stroke-miterlimit="10" d="
		M43.725,190.937l0.146-30.021l263.667,2.002l-0.167,140.76c0,0-27.355,0-47.355-0.167"/>
	<path fill="none" stroke="#000000" stroke-width="3" stroke-linecap="round" stroke-linejoin="round" stroke-miterlimit="10" d="
		M273.152,304.181c1.011,0.691,1.78,2.502,2.029,4.329c-2.811,0.5-7.127,2.338-10.739,5.594c-3.611,3.256-7.022,3.203-12.188,3.322
		s-9.693-0.643-14.828-5.73c-5.135-5.086-10.612-13.636-10.612-13.636s-0.852-4.006,2.149-4.141
		c2.363,1.083,10.829,12.662,10.573,12.417c-2.58-7.023-3.438-15.934-3.641-17.43c-0.2-1.496,1.065-3.197,2.736-3.637
		c1.671-0.441,3.352,0.755,3.352,0.755s1.686-2.79,3.518-2.832c1.834-0.042,3.458,1.671,3.458,1.671s2.051-0.911,4.158-0.125
		c2.106,0.785,2.914,7.334,3.941,11.608c1.029,4.273,1.769,7.853,4.445,10.674"/>
	<path fill="none" stroke="#000000" stroke-width="1.5" stroke-linecap="round" stroke-linejoin="round" stroke-miterlimit="10" d="
		M248.454,285.515c0.055,7.215,4.718,22.924,4.718,22.924"/>
	<path fill="none" stroke="#000000" stroke-width="1.5" stroke-linecap="round" stroke-linejoin="round" stroke-miterlimit="10" d="
		M242.428,286.502c0,0,1.321,14.205,4,21.5"/>
	
		<polyline fill="none" stroke="#000000" stroke-width="3" stroke-linecap="round" stroke-linejoin="round" stroke-miterlimit="10" points="
		229.687,302.88 43.539,301.252 43.374,232.085 	"/>
	<path fill="none" stroke="#000000" stroke-width="3" stroke-miterlimit="10" d="M126.205,302.251c0,0-4.664,24.001-2.331,66.001
		s5.334,84.666,5.334,84.666v2"/>
	<path fill="none" stroke="#000000" stroke-width="3" stroke-linecap="round" stroke-linejoin="round" stroke-miterlimit="10" d="
		M129.206,454.417c0,0-2.667,26.164-3.001,52.166c-1.001,21.668-9,51-12.001,57.336c-3.001,6.334-9.665,19.998-9.665,19.998
		s7.832,18.666,10.166,20.666c2.334,2.002,4.123,3.291,4.123,3.291s0.711-5.625,1.544-6.623c0.833-1,3-2.166,10.833-5
		c11-4.334,17.334-4.668,24.667,1l4.667,1.666c0,0,1.333,4,1.333,5.666c0,1.668,0,1.668,0,1.668s4.333,4,7,1.666
		s10.667-30.416,7.667-46.75s-4.875-26.209-6.209-42.791"/>
	<path fill="none" stroke="#000000" stroke-width="1.5" stroke-linecap="round" stroke-linejoin="round" stroke-miterlimit="10" d="
		M166.539,533.667c0,0,3-14.332,3-17"/>
	<path fill="none" stroke="#000000" stroke-width="3" stroke-linecap="round" stroke-linejoin="round" stroke-miterlimit="10" d="
		M170.457,516.725c1.117-8.467,2.415-25.006,2.415-56.143c0-54.666-0.334-108.998-0.334-108.998"/>
	<path fill="none" stroke="#000000" stroke-width="3" stroke-linecap="round" stroke-linejoin="round" stroke-miterlimit="10" d="
		M215.701,302.742c0,0,5.841,36.508,3.841,91.508s-0.666,103.666,5.334,131.666s11.333,55,11.333,55s-2.336,16.666-3.336,19.666
		c0.164,0.006-2.664,6.338-2.664,6.338s-2.337-6.002-8.669-8.168c-6.332-2.164-11.458-5.711-19.792-5.711
		s-13.042,5.375-13.042,5.375s-5,0.672-5.83,4.166c0,1.023-0.042,3.377-0.042,3.377c-2.295,1.629-6.646,2.381-10.291-2.043"/>
	<path fill="none" stroke="#000000" stroke-width="1.5" stroke-linecap="round" stroke-linejoin="round" stroke-miterlimit="10" d="
		M124.182,311.678c0,0,36,7.332,92.667,2"/>
	<path fill="none" stroke="#000000" stroke-width="1.5" stroke-linecap="round" stroke-linejoin="round" stroke-miterlimit="10" d="
		M131.206,597.588c0,0,14-2,23.5-0.168"/>
	<path fill="none" stroke="#000000" stroke-width="3" stroke-linecap="round" stroke-linejoin="round" stroke-miterlimit="10" d="
		M122.039,605.25c0,0,1.5,1.168,2.5,0.668s1-0.5,1-0.5s1.999,3,6.166,0.832c0,0,2.333,1.5,4.5,1.5s5.667-1.5,5.667-1.5s1.167,2,3,2
		s4.667-2,4.667-2s2.5,2.668,6.333,2.668s5.5-2.17,6-2.668"/>
	<path fill="none" stroke="#000000" stroke-width="3" stroke-linecap="round" stroke-linejoin="round" stroke-miterlimit="10" d="
		M119.372,608.584l4.167,2.666c0,0,5.332,1.5,18.166,1.5s20.167,0.5,20.167,0.5s3.166-3.166,2.333-5"/>
	<path fill="none" stroke="#000000" stroke-width="1.5" stroke-linecap="round" stroke-linejoin="round" stroke-miterlimit="10" d="
		M188.456,599.25c0,0,14.917-5.834,32.249,0.002"/>
	<path fill="none" stroke="#000000" stroke-width="3" stroke-linecap="round" stroke-linejoin="round" stroke-miterlimit="10" d="
		M183.206,606.418c0,0,3.166,2.666,6.833,2.666s6.5-1.5,6.5-1.5s1.582,2.252,4.748,1.918c3.166-0.332,4.252-2.084,4.252-2.084
		s2.333,2.166,4.5,2c2.167-0.168,4.834-2.334,4.834-2.334s1.5,2.5,4,1.834c2.5-0.668,3.833-2,3.833-2s1.333,1.162,2.833,0.332
		s2.334-3.166,2.334-3.166"/>
	<path fill="none" stroke="#000000" stroke-width="3" stroke-linecap="round" stroke-linejoin="round" stroke-miterlimit="10" d="
		M179.872,608.088l0.333,3.666c0,0,5.166,4.5,28.833,2.5s21.006-5,21.17-7.334"/>
</g>
</svg>
