<?xml version="1.0" encoding="utf-8"?>
<!-- Generator: Adobe Illustrator 16.0.0, SVG Export Plug-In . SVG Version: 6.00 Build 0)  -->
<!DOCTYPE svg PUBLIC "-//W3C//DTD SVG 1.1//EN" "http://www.w3.org/Graphics/SVG/1.1/DTD/svg11.dtd">
<svg version="1.1" id="Layer_1" xmlns="http://www.w3.org/2000/svg" xmlns:xlink="http://www.w3.org/1999/xlink" x="0px" y="0px"
	 width="154px" height="600px" viewBox="0 0 154 600" enable-background="new 0 0 154 600" xml:space="preserve">
<g id="colour">
	<path d="M82.512,563.465c-3.07,1.83-6.86,3.9-11.47,6.119c-0.881,0.021-0.75,0.361-0.75,0.361c-1.291,0.619-2.631,1.25-4.041,1.879
		l-0.05-0.109c0,0-7.08,0.58-13.22,2.539c-6.141,1.951-14.29,4.062-19.15,5.01c-4.859,0.941-12.96-0.25-16.26-1.639
		c-3.3-1.391-6.34-3.43-8.87-6.041c-2.54-2.609-1.46-5.039-1.46-5.039l2.25-1.25h0.41v0.379c0,0,0.09,2.201,1.75,3.201
		c0.811,0.4,1.779,0.17,1.779,0.17s0.041,2.15,1.631,2.74c1.58,0.58,2.29,0.959,2.29,0.959s1.39,1.551,4.12,1.66
		c2.72,0.104,3.17,0.16,3.17,0.16c0,0.02,0.05,0.194,1.32,1.114c1.379,1,9.64-1.139,9.64-1.139s5.89-1.67,15.55-4.25
		c0.76-0.201,1.47-0.391,2.13-0.561c5.12-1.312,7.57-1.699,8.649-1.812c0.58-0.065,0.771-0.049,0.771-0.049
		c19.619-1.25,22.699-6.191,23.07-9.881c0.066,0,0.986,0.02,1.379,1.131c0.41,1.149,0.41,1.149,0.41,1.149
		C86.161,561.225,84.48,562.295,82.512,563.465z"/>
	<path d="M61.931,567.914v0.01c-1.08,0.111-3.529,0.5-8.649,1.812l-0.04-0.15c0,0,1.359-0.18-1.09-3.129
		c-2.439-2.941-4.25-4.33-11.75-7.32c-6.57-2.621-8.221-2.565-8.52-2.52c2.76-1.281,5.729-2.871,8.049-4.16c0,0,0,0,0.011,0
		c0.21-0.031,3.47-0.471,8.46,2.139c5.17,2.701,9.75,6.5,11.42,8.871C61.491,565.836,61.931,567.914,61.931,567.914z"/>
	<path d="M98.441,569.584c5.76,4.041,7.857,9.58,7.857,9.58c-5.301,1.871-7.738,2.781-9.568,3.551c0,0-0.91-5.34-14.029-9.971
		c-7.5-2.639-10.479-3.18-11.66-3.16c4.61-2.219,8.4-4.289,11.471-6.119C82.932,563.555,92.82,565.635,98.441,569.584z"/>
	<path d="M132.98,565.674c0,0,1.371,6.396-1.104,8.791c-2.47,2.4-8.72,5.144-14.854,7.209c-6.131,2.062-11.951,3.051-20.201,6.941
		c-8.25,3.879-16.5,6.49-23,7.26c-6.5,0.77-12.25-0.381-19.13-3c-6.87-2.631-8.75-7-8.87-9.25c0,0-0.529-1.82,0.75-2.441
		c1.12-0.549,1.26-0.614,1.27-0.629c-0.319,1.185-0.459,2.806,0.601,3.939c1.88,2,4.04,0.5,4.04,0.5s0.21,3,2.84,3.5
		c2.62,0.5,3.65,0,3.65,0s1.6,2.131,4.229,2c2.62-0.119,3.511-0.76,3.511-0.76c0,0.02,0.01,1.141,2.859,1.391
		c2.87,0.25,4.02,1.75,16.202-3.5c6.908-2.98,8.317-3.801,10.959-4.91c1.83-0.77,4.271-1.68,9.569-3.551
		c0.479-0.17,0.99-0.35,1.521-0.539c14.771-5.201,20.121-4.75,23.121-9.131C131.973,568.004,132.602,566.764,132.98,565.674z"/>
	<path fill="#4C3122" d="M69.611,112.455c0,0,1.53,5.05,0,8.59c-2.22,3.46-6,5.28-10.08,6.87c-2.11,0.82-4.3,1.58-6.39,2.49
		c0,0,0.35-5.86,0.85-13.53s0.87-13.04,0.87-13.04c3.25,3.36,9.979,9.01,12.54,9.14C68.021,113.004,68.771,112.814,69.611,112.455z"
		/>
	<path fill="#4C3122" d="M72.281,11.294l-0.42,0.19c0,0-9.521,5.52-16.12,12.89c-0.98,1.1-1.84,2.1-2.59,3.03h-0.01
		c-0.791,0.979-1.48,1.89-2.101,2.76v-4.67c0,0,3.9-7,8.28-12.87c4.38-5.87,6.75-9.75,12.75-8.5c6,1.25,16.75,4.93,27.75,12.9
		c11,7.97,14.38,17.47,15.38,21.6s2.62,10,0,36.25c-2.63,26.25-2,35.5-3.5,53.38c-0.04,0.42-0.069,0.84-0.101,1.27
		c-1.439,17.8-2.16,42.6-2.16,42.6l-0.01,0.04c-1.039-0.31-1.939-0.54-1.939-0.54s-12-3.58-15.5-2.33c0,0-4.881,1.44-7.42,5
		l-0.131-2.04c0,0-0.119-1.26-0.239-3.5c-0.13-2.26,0.239-7.63,0.62-16.5c0.24-5.56,0.77-12.65,1.279-20.18
		c0.317-4.48,0.621-9.13,0.871-13.7c0.276-5.25,0.68-13.87,1.116-23.12c0.603-12.33,1.28-25.79,1.853-34c1-14.38-2.369-19-2.369-19
		c-1.439-2.62-3.5-6.68-5.68-11.08c0,0,0-0.01-0.013-0.03C78.15,23.604,74.101,15.104,72.281,11.294z M104.65,67.665
		c0,0,6.58-2.67,6.33-9.33c-0.25-6.67-6.33-8.67-6.33-8.67V67.665z"/>
	<path fill="#BC9982" d="M53.241,569.584l0.04,0.15c-0.66,0.17-1.37,0.354-2.13,0.561c-9.66,2.58-15.55,4.25-15.55,4.25
		s-8.261,2.141-9.64,1.141c-1.271-0.922-1.32-1.102-1.32-1.116c0,0-0.45-0.056-3.17-0.16c-2.73-0.109-4.121-1.66-4.121-1.66
		s-0.709-0.379-2.289-0.959c-1.59-0.59-1.631-2.74-1.631-2.74s-0.969,0.23-1.779-0.17c-1.66-1-1.75-3.201-1.75-3.201V565.3v-1.83
		c0,0,3.92-0.409,6.17-0.961c2.25-0.549,7.25-2.629,12.17-4.379c1.109-0.391,2.359-0.92,3.641-1.51
		c0.299-0.051,1.949-0.104,8.52,2.52c7.5,2.99,9.311,4.38,11.75,7.32C54.601,569.404,53.241,569.584,53.241,569.584z"/>
	<path fill="#BC9982" d="M84.682,549.674c0,0,1.393,4.4,1.12,8.031c-0.011,0.1-0.021,0.199-0.03,0.289
		c-0.369,3.688-3.447,8.631-23.067,9.881c0,0-0.19-0.02-0.771,0.049v-0.01c0,0-0.439-2.08-2.109-4.449
		c-1.67-2.371-6.25-6.17-11.42-8.871c-4.99-2.604-8.25-2.17-8.46-2.139c1.351-0.75,2.479-1.4,3.21-1.83
		c2.59-1.5,7.38-4.291,7.38-4.291c0.49,0.561,1,1.07,1.54,1.541c5.75,5,11.25,7.5,18.5,6.5s12.75-3.75,12.75-3.75L84.682,549.674z"
		/>
	<path fill="#BC9982" d="M96.73,582.715c-2.643,1.109-4.051,1.93-10.959,4.91c-12.184,5.25-13.333,3.75-16.203,3.5
		c-2.85-0.25-2.859-1.371-2.859-1.391c0,0-0.891,0.641-3.511,0.76c-2.63,0.131-4.229-2-4.229-2s-1.03,0.5-3.65,0
		c-2.63-0.5-2.84-3.5-2.84-3.5s-2.16,1.5-4.04-0.5c-1.06-1.139-0.92-2.76-0.601-3.939h0.01c0.24-0.896,0.591-1.561,0.591-1.561
		c6.819-2.459,12.729-4.869,17.81-7.17c1.41-0.629,2.75-1.26,4.041-1.879c0.25-0.121,0.51-0.24,0.75-0.361
		c1.18-0.02,4.159,0.521,11.659,3.16C95.82,577.375,96.73,582.715,96.73,582.715z"/>
	<path fill="#BC9982" d="M133.57,559.875c0,2.049,0.16,3.68-0.59,5.799c-0.379,1.09-1.01,2.33-2.039,3.82
		c-3,4.381-8.354,3.93-23.121,9.131c-0.528,0.189-1.039,0.369-1.521,0.539c0,0-2.101-5.539-7.857-9.58
		c-5.621-3.949-15.512-6.029-15.934-6.119c1.973-1.17,3.65-2.24,5.053-3.188c4.01-2.691,5.791-4.386,5.92-4.517
		c9.25,6.267,17.607,5.631,21.84,4.611c5.15-1.25,12.201-2.791,17.311-6.4C132.631,553.975,133.57,556.754,133.57,559.875z"/>
	<path fill="#BC9982" d="M110.98,58.334c0.25,6.66-6.33,9.33-6.33,9.33v-18C104.65,49.665,110.73,51.665,110.98,58.334z"/>
	<path fill="#BC9982" d="M103.361,175.654l0.55,0.21C103.723,175.794,103.531,175.725,103.361,175.654z M104.802,176.194l2.689,1.01
		c0,0,3.829,1.92,6.25,3.59c2.409,1.66,5.79,3.39,7.04,5.04s0.619,3.29-0.461,4.28c0,0.95,0.121,1.22-0.579,2.52
		c-0.71,1.31-2.62,0.95-2.62,0.95c0.04,2.3-1.471,2.71-2.857,2.87c-0.021,2.17-2.212,2.19-3.343,2.27
		c-1.129,0.09-4.64-0.56-11.979-3.06c-4.197-1.43-13.539-4.66-20.737-7.16c0.17-0.44,0.608-1.61,1.37-3.88
		c0.908-2.74,2.037-5.42,4.078-8.85c0.189-0.32,0.382-0.65,0.592-0.98c0.107-0.17,0.22-0.34,0.33-0.5c2.537-3.56,7.42-5,7.42-5
		c3.5-1.25,15.5,2.33,15.5,2.33s0.896,0.23,1.938,0.54c1.279,0.37,2.771,0.85,2.971,1.13c0.382,0.49-1.358,4.27-3.271,4.44
		C108.312,177.475,106.462,176.794,104.802,176.194z"/>
	<path fill="#BC9982" d="M47.941,177.865c0,0-4.45,3.68-5.79,7.09c-1.33,3.42-1.9,9.92-1.9,9.92c-3.59-1.66-5.76-2.67-5.76-2.67
		s-0.84-0.66,0-6.5c0.28-1.96,0.9-5.81,1.6-10.06c0,0,2.061-0.56,4.9,0C41.812,175.805,44.521,176.694,47.941,177.865z"/>
	<path fill="#BC9982" d="M87.82,95.245l0.271,0.01c-0.438,9.25-0.84,17.87-1.118,23.12c-0.25,4.57-0.552,9.22-0.871,13.7
		c-20.37,4.2-26.567-4.16-26.567-4.16c4.08-1.59,7.86-3.41,10.08-6.87c1.53-3.54,0-8.59,0-8.59c3.06-1.31,7.2-4.89,10-7.99
		L87.82,95.245z"/>
	<path fill="#BC9982" d="M53.151,27.405c0.75-0.93,1.609-1.93,2.59-3.03c6.6-7.37,16.12-12.89,16.12-12.89l0.42-0.19
		c1.819,3.81,5.87,12.31,9.601,19.85c0.011,0.02,0.011,0.03,0.011,0.03c2.182,4.4,4.239,8.46,5.682,11.08c0,0,3.367,4.62,2.367,19
		c-0.567,8.21-1.25,21.67-1.851,34l-0.271-0.01l-8.209,9.22c-2.8,3.1-6.94,6.68-10,7.99c-0.84,0.36-1.59,0.55-2.21,0.52
		c-2.561-0.13-9.29-5.78-12.54-9.14c-0.46-0.48-0.851-0.91-1.149-1.27c-2.41-2.92-13.201-14.85-15.871-31.18
		c-2.66-16.33,0.381-19.21,5.461-27.97c0.49-0.85,0.939-1.64,1.359-2.39c2.6-4.62,4-7.51,6.381-10.86
		c0.619-0.87,1.309-1.78,2.1-2.76H53.151z"/>
	<path fill="#5D9B99" d="M85.762,548.924l-1.08,0.75l-1.357,0.951c0,0-5.5,2.75-12.75,3.75s-12.75-1.5-18.5-6.5
		c-0.54-0.471-1.05-0.98-1.54-1.541c-4.771-5.41-7.69-15-14.71-27.459c-7.75-13.75-4.75-18.75-4.75-18.75s1.75-18.5,4.25-57.5
		s3-59.5,2.75-92.75c-0.13-17.891-0.76-34.41-1.2-51.18c0.41,0.31,9.14,6.979,27.45,8.93c18.75,2,19.75,1.25,30.25,0
		s20.287-3.01,23.391-7.25c0.092,12.321,0.303,24.2,0.688,34.17c1.672,42,7.24,73.949,18,124c0,0,5.172,22.83,7.342,39.16
		c2.158,16.34,4.658,18.84,1.5,29.84c-3.17,11-6.67,21.5-11.842,25.66c-0.328,0.27-0.67,0.52-1.021,0.77
		c-5.106,3.609-12.157,5.15-17.312,6.4c-4.229,1.02-12.59,1.65-21.84-4.611C90.951,554.045,88.361,551.805,85.762,548.924z"/>
	<path fill="#EFDA60" d="M59.861,203.935c-7.819-3.61-14.92-6.89-19.61-9.06c0,0,0.57-6.5,1.9-9.92c1.34-3.41,5.79-7.09,5.79-7.09
		c3.75,1.28,8.36,2.91,12.271,4.31c4.719,1.68,8.439,3.03,8.439,3.03s4.18,1.45,9.55,3.3c7.199,2.5,16.54,5.73,20.74,7.16
		c7.34,2.5,10.85,3.15,11.979,3.06c1.131-0.08,3.318-0.1,3.34-2.27c1.391-0.16,2.898-0.57,2.858-2.87c0,0,1.909,0.36,2.62-0.95
		c0.699-1.3,0.58-1.57,0.58-2.52c1.08-0.99,1.709-2.63,0.459-4.28s-4.629-3.38-7.039-5.04c-2.42-1.67-6.25-3.59-6.25-3.59
		l-2.689-1.01c1.659,0.6,3.51,1.28,4.33,1.54c1.909-0.17,3.648-3.95,3.271-4.44c-0.2-0.28-1.688-0.76-2.975-1.13l0.014-0.04
		c0,0,0.721-24.8,2.158-42.6c0.397,0.32,8.869,6.97,14.893,12.02c6.16,5.16,8.039,25.66,4.33,44.33
		c-3.711,18.67-9.33,27.5-12.17,30.83c-2.83,3.34-9.842,9.5-30.83,0C79.393,212.884,69.121,208.185,59.861,203.935z"/>
	<path fill="#EFDA60" d="M118.65,216.705c0,0-0.971,44.11-0.688,83.67c-3.101,4.241-12.892,6-23.392,7.25s-11.5,2-30.25,0
		c-18.311-1.951-27.04-8.621-27.45-8.93c-0.39-14.41-0.63-29-0.3-44.82c0.71-34.25-0.48-41.89-0.48-41.89
		c4.28-0.86,9.931-2.61,18.73-5.94l5.04-2.11c9.26,4.25,19.531,8.95,27.958,12.77C108.812,226.205,115.82,220.044,118.65,216.705z"
		/>
	<path fill="#EFDA60" d="M36.091,175.645c-0.699,4.25-1.319,8.1-1.6,10.06c-0.84,5.84,0,6.5,0,6.5s2.17,1.01,5.76,2.67
		c4.69,2.17,11.791,5.45,19.61,9.06l-5.04,2.11c-8.8,3.33-14.45,5.08-18.73,5.94c-5.359,1.08-8.56,0.76-13.1,0.39
		c-8.17-0.67-8.439-13.01-4.67-30.33c3.77-17.33,10.83-28.84,14.17-34.5c3.33-5.67,12-12.84,18.55-16.17
		c0.681-0.35,1.39-0.67,2.101-0.97c2.09-0.91,4.279-1.67,6.39-2.49c0,0,6.2,8.36,26.569,4.16c-0.513,7.53-1.039,14.62-1.279,20.18
		c-0.381,8.87-0.75,14.24-0.62,16.5c0.12,2.24,0.239,3.5,0.239,3.5l0.131,2.04c-0.109,0.16-0.221,0.33-0.33,0.5
		c-0.21,0.33-0.4,0.66-0.59,0.98l-0.23-0.13l-23.209,6.53c-3.91-1.4-8.521-3.03-12.271-4.31c-3.42-1.17-6.13-2.06-6.95-2.22
		C38.151,175.084,36.091,175.645,36.091,175.645z"/>
	<path fill="#EFDA60" d="M83.421,175.645l0.229,0.13c-2.039,3.43-3.17,6.11-4.08,8.85c-0.76,2.27-1.199,3.44-1.369,3.88
		c-5.37-1.85-9.55-3.3-9.55-3.3s-3.721-1.35-8.439-3.03L83.421,175.645z"/>
</g>
<g id="Layer_1_1_">
	<path fill="none" stroke="#000000" stroke-width="3" stroke-linecap="round" stroke-linejoin="round" stroke-miterlimit="10" d="
		M71.861,11.484c0,0-9.521,5.52-16.12,12.89c-0.98,1.1-1.84,2.1-2.59,3.03"/>
	<path fill="none" stroke="#000000" stroke-width="3" stroke-linecap="round" stroke-linejoin="round" stroke-miterlimit="10" d="
		M53.142,27.405c-0.791,0.979-1.48,1.89-2.1,2.76c-2.381,3.35-3.781,6.24-6.381,10.86c-0.42,0.75-0.869,1.54-1.359,2.39
		c-5.08,8.76-8.121,11.64-5.461,27.97c2.67,16.33,13.461,28.26,15.871,31.18c0.299,0.36,0.689,0.79,1.149,1.27
		c3.25,3.36,9.979,9.01,12.54,9.14c0.62,0.03,1.37-0.16,2.21-0.52c3.06-1.31,7.2-4.89,10-7.99l8.209-9.22"/>
	<path fill="none" stroke="#000000" stroke-width="3" stroke-linecap="round" stroke-linejoin="round" stroke-miterlimit="10" d="
		M71.321,9.254c0,0,0.359,0.75,0.96,2.04c1.819,3.81,5.87,12.31,9.601,19.85"/>
	<path fill="none" stroke="#000000" stroke-width="3" stroke-linecap="round" stroke-linejoin="round" stroke-miterlimit="10" d="
		M81.893,31.174c2.182,4.4,4.239,8.46,5.682,11.08c0,0,3.367,4.62,2.367,19c-0.567,8.21-1.25,21.67-1.851,34
		c-0.438,9.25-0.84,17.87-1.118,23.12c-0.25,4.57-0.552,9.22-0.871,13.7c-0.511,7.53-1.039,14.62-1.277,20.18
		c-0.383,8.87-0.75,14.24-0.62,16.5c0.12,2.24,0.237,3.5,0.237,3.5l0.133,2.04"/>
	<path fill="none" stroke="#000000" stroke-width="3" stroke-linecap="round" stroke-linejoin="round" stroke-miterlimit="10" d="
		M51.042,30.165v-4.67c0,0,3.899-7,8.279-12.87c4.38-5.87,6.75-9.75,12.75-8.5c6,1.25,16.75,4.93,27.75,12.9
		c11,7.97,14.383,17.47,15.383,21.6s2.617,10,0,36.25c-2.633,26.25-2,35.5-3.5,53.38c-0.04,0.42-0.069,0.84-0.104,1.27
		c-1.438,17.8-2.158,42.6-2.158,42.6"/>
	<path fill="none" stroke="#000000" stroke-width="3" stroke-linecap="round" stroke-linejoin="round" stroke-miterlimit="10" d="
		M69.611,112.455c0,0,1.53,5.05,0,8.59c-2.22,3.46-6,5.28-10.08,6.87c-2.11,0.82-4.3,1.58-6.39,2.49c-0.711,0.3-1.42,0.62-2.1,0.97
		c-6.551,3.33-15.221,10.5-18.551,16.17c-3.34,5.66-10.4,17.17-14.17,34.5c-3.77,17.32-3.5,29.66,4.67,30.33
		c4.54,0.37,7.74,0.69,13.1-0.39c4.28-0.86,9.931-2.61,18.73-5.94l5.04-2.11l0.12-0.05"/>
	<path fill="none" stroke="#000000" stroke-width="3" stroke-miterlimit="10" d="M54.861,103.834c0,0-0.37,5.37-0.87,13.04
		s-0.85,13.53-0.85,13.53"/>
	<path fill="none" stroke="#000000" stroke-width="3" stroke-linecap="round" stroke-linejoin="round" stroke-miterlimit="10" d="
		M111.591,129.524c0,0,0,0,0.013,0c0.397,0.32,8.869,6.97,14.893,12.02c6.158,5.16,8.04,25.66,4.33,44.33s-9.33,27.5-12.172,30.83
		c-2.828,3.34-9.84,9.5-30.828,0c-8.432-3.82-18.7-8.52-27.96-12.77c-7.819-3.61-14.92-6.89-19.61-9.06
		c-3.59-1.66-5.76-2.67-5.76-2.67s-0.84-0.66,0-6.5c0.28-1.96,0.9-5.81,1.6-10.06c1.371-8.37,3.061-18.27,3.061-18.27"/>
	<path fill="none" stroke="#000000" stroke-width="3" stroke-linecap="round" stroke-linejoin="round" stroke-miterlimit="10" d="
		M36.091,175.645c0,0,2.061-0.56,4.9,0c0.82,0.16,3.53,1.05,6.95,2.22c3.75,1.28,8.36,2.91,12.271,4.31
		c4.719,1.68,8.439,3.03,8.439,3.03s4.18,1.45,9.55,3.3c7.199,2.5,16.54,5.73,20.74,7.16c7.34,2.5,10.85,3.15,11.979,3.06
		c1.131-0.08,3.318-0.1,3.34-2.27c1.391-0.16,2.898-0.57,2.858-2.87c0,0,1.909,0.36,2.62-0.95c0.699-1.3,0.58-1.57,0.58-2.52
		c1.08-0.99,1.709-2.63,0.459-4.28s-4.629-3.38-7.039-5.04c-2.42-1.67-6.25-3.59-6.25-3.59l-2.689-1.01"/>
	<path fill="none" stroke="#000000" stroke-width="3" stroke-linecap="round" stroke-linejoin="round" stroke-miterlimit="10" d="
		M104.802,176.194c1.66,0.6,3.511,1.28,4.33,1.54c1.91-0.17,3.649-3.95,3.271-4.44c-0.197-0.28-1.688-0.76-2.971-1.13
		c-1.041-0.31-1.938-0.54-1.938-0.54s-12-3.58-15.5-2.33c0,0-4.881,1.44-7.42,5c-0.109,0.16-0.221,0.33-0.33,0.5
		c-0.21,0.33-0.4,0.66-0.592,0.98c-2.039,3.43-3.17,6.11-4.078,8.85c-0.762,2.27-1.2,3.44-1.37,3.88
		c-0.052,0.14-0.079,0.2-0.079,0.2"/>
	<path fill="none" stroke="#000000" stroke-width="1.5" stroke-linecap="round" stroke-linejoin="round" stroke-miterlimit="10" d="
		M99.82,179.794c0.25,0,5.921,2,9.83,4.16c3.92,2.17,10.67,6.16,10.67,6.16"/>
	<path fill="none" stroke="#000000" stroke-width="1.5" stroke-linecap="round" stroke-linejoin="round" stroke-miterlimit="10" d="
		M98.07,184.955c0,0,4.65,1.21,10.211,3.96c5.56,2.75,8.84,4.67,8.84,4.67"/>
	
		<line fill="none" stroke="#000000" stroke-width="1.5" stroke-linecap="round" stroke-linejoin="round" stroke-miterlimit="10" x1="96.001" y1="189.924" x2="114.171" y2="196.375"/>
	
		<line fill="none" stroke="#000000" stroke-width="3" stroke-linecap="round" stroke-linejoin="round" stroke-miterlimit="10" x1="83.421" y1="175.645" x2="60.212" y2="182.174"/>
	<path fill="none" stroke="#000000" stroke-width="1.5" stroke-linecap="round" stroke-linejoin="round" stroke-miterlimit="10" d="
		M47.941,177.865c0,0-4.45,3.68-5.79,7.09c-1.33,3.42-1.9,9.92-1.9,9.92"/>
	<path fill="none" stroke="#000000" stroke-width="1.5" stroke-linecap="round" stroke-linejoin="round" stroke-miterlimit="10" d="
		M59.531,127.915c0,0,6.2,8.36,26.569,4.16h0.012"/>
	
		<polyline fill="none" stroke="#000000" stroke-width="1.5" stroke-linecap="round" stroke-linejoin="round" stroke-miterlimit="10" points="
		53.142,27.405 53.151,27.405 60.382,26.794 	"/>
	<path fill="none" stroke="#000000" stroke-width="1.5" stroke-linecap="round" stroke-linejoin="round" stroke-miterlimit="10" d="
		M70.931,24.515c0,0,3.041,0.24,6.431,2.28c3.17,1.91,4.38,4.09,4.521,4.35c0.01,0.02,0.01,0.03,0.01,0.03"/>
	<path fill="none" stroke="#000000" stroke-width="1.5" stroke-linecap="round" stroke-linejoin="round" stroke-miterlimit="10" d="
		M40.701,38.504c0,0,0.931,1.47,3.96,2.52c0.54,0.19,1.15,0.37,1.83,0.52c4.5,1,9.8,1.02,9.8,1.02"/>
	<path fill="none" stroke="#000000" stroke-width="1.5" stroke-linecap="round" stroke-linejoin="round" stroke-miterlimit="10" d="
		M74.302,31.814c0,0-1.15,3.77-2.98,7.31c-1.83,3.54-3.59,4.2-3.59,4.2"/>
	<path fill="none" stroke="#000000" stroke-width="1.5" stroke-linecap="round" stroke-linejoin="round" stroke-miterlimit="10" d="
		M64.731,41.044c1.42,2.33,4.3,2.97,10.71,4.41c7.069,1.39,7.55-0.52,7.55-0.52"/>
	<path fill="none" stroke="#000000" stroke-width="1.5" stroke-linecap="round" stroke-linejoin="round" stroke-miterlimit="10" d="
		M63.222,28.084c0,0-0.711,10.55-4.9,17.88c-4.189,7.33-15.08,11.74-15.17,14.66c-0.08,2.92,3.34,7.08,7.34,9.17
		c4,2.08,8.66,2.33,8-1.84c0,0,0.721-0.66,2.5,0.34c1.77,1,0.75,3.83,5.25,0.91c3.16-2.33,2.83-4.08,1.83-5.66"/>
	<path fill="none" stroke="#000000" stroke-width="1.5" stroke-linecap="round" stroke-linejoin="round" stroke-miterlimit="10" d="
		M53.081,83.555c0,0,5.311,3.07,14.32-0.76c7.47-3.19,9.891-5.85,10.5-6.66c0.121-0.17,0.17-0.26,0.17-0.26"/>
	<path fill="none" stroke="#000000" stroke-width="1.5" stroke-linecap="round" stroke-linejoin="round" stroke-miterlimit="10" d="
		M74.981,71.524c0,0,0.85,2.21,2.919,4.61c0.971,1.13,2.211,2.3,3.75,3.29"/>
	<path fill="none" stroke="#000000" stroke-width="1.5" stroke-linecap="round" stroke-linejoin="round" stroke-miterlimit="10" d="
		M104.65,49.665v18c0,0,6.58-2.67,6.33-9.33C110.73,51.665,104.65,49.665,104.65,49.665z"/>
	<path fill="none" stroke="#000000" stroke-width="3" stroke-linecap="round" stroke-linejoin="round" stroke-miterlimit="10" d="
		M118.65,216.705c0,0-0.971,44.11-0.688,83.67c0.09,12.321,0.302,24.2,0.688,34.17c1.67,42,7.24,73.949,18,124
		c0,0,5.17,22.83,7.341,39.16c2.159,16.34,4.659,18.84,1.5,29.84c-3.171,11-6.671,21.5-11.841,25.66
		c-0.33,0.27-0.67,0.52-1.021,0.77c-5.105,3.609-12.156,5.15-17.311,6.4c-4.229,1.02-12.59,1.65-21.84-4.611
		c-2.529-1.719-5.121-3.959-7.722-6.84c-0.25-0.289-0.51-0.58-0.771-0.879c-12.338-14.34-15-8.84-15.338-49.5
		c-0.33-40.67-0.33-58.67-1.08-94.17s-0.62-55.781-4.25-70.25c-3.63-14.471-9-19.361-9-19.361"/>
	<path fill="none" stroke="#000000" stroke-width="3" stroke-miterlimit="10" d="M36.091,211.984c0,0,1.19,7.64,0.48,41.89
		c-0.33,15.82-0.09,30.41,0.3,44.82c0.44,16.77,1.07,33.292,1.2,51.18c0.25,33.25-0.25,53.75-2.75,92.75s-4.25,57.5-4.25,57.5
		s-3,5,4.75,18.75c7.02,12.459,9.939,22.049,14.71,27.459c0.49,0.561,1,1.07,1.54,1.541c5.75,5,11.25,7.5,18.5,6.5
		c7.25-1,12.75-3.75,12.75-3.75l1.359-0.951l1.08-0.75l0.012-0.01"/>
	<path fill="none" stroke="#000000" stroke-width="1.5" stroke-linecap="round" stroke-linejoin="round" stroke-miterlimit="10" d="
		M36.861,298.684c0,0,0,0,0.01,0.015c0.41,0.31,9.14,6.978,27.45,8.929c18.75,2,19.75,1.25,30.25,0s20.291-3.01,23.394-7.25"/>
	<path fill="none" stroke="#000000" stroke-width="3" stroke-linecap="round" stroke-linejoin="round" stroke-miterlimit="10" d="
		M93.491,555.754c0,0,0,0-0.011,0.01c-0.131,0.131-1.91,1.82-5.92,4.517c-1.399,0.944-3.08,2.02-5.053,3.188
		c-3.066,1.83-6.859,3.9-11.469,6.119c-0.24,0.121-0.5,0.24-0.75,0.361c-1.291,0.619-2.631,1.25-4.041,1.879
		c-5.08,2.301-10.99,4.711-17.81,7.17c0,0-0.351,0.66-0.591,1.561"/>
	<path fill="none" stroke="#000000" stroke-width="3" stroke-linecap="round" stroke-linejoin="round" stroke-miterlimit="10" d="
		M47.841,580.555c-0.319,1.185-0.459,2.806,0.601,3.939c1.88,2,4.04,0.5,4.04,0.5s0.21,3,2.84,3.5c2.62,0.5,3.65,0,3.65,0
		s1.6,2.131,4.229,2c2.62-0.119,3.511-0.76,3.511-0.76c0,0.02,0.01,1.141,2.859,1.391c2.87,0.25,4.02,1.75,16.201-3.5
		c6.908-2.98,8.318-3.801,10.959-4.91c1.83-0.77,4.271-1.68,9.57-3.551c0.479-0.17,0.99-0.35,1.52-0.539
		c14.771-5.201,20.121-4.75,23.121-9.131c1.029-1.49,1.66-2.73,2.039-3.82c0.75-2.119,0.59-3.75,0.59-5.799
		c0-3.121-0.938-5.9-0.938-5.9"/>
	<path fill="none" stroke="#000000" stroke-width="3" stroke-linecap="round" stroke-linejoin="round" stroke-miterlimit="10" d="
		M132.98,565.674c0,0,1.371,6.396-1.104,8.791c-2.47,2.4-8.72,5.144-14.854,7.209c-6.131,2.062-11.951,3.051-20.201,6.941
		c-8.25,3.879-16.5,6.49-23,7.26c-6.5,0.77-12.25-0.381-19.13-3c-6.87-2.631-8.75-7-8.87-9.25c0,0-0.529-1.82,0.75-2.441
		c1.12-0.549,1.26-0.614,1.27-0.629h0.01"/>
	<path fill="none" stroke="#000000" stroke-width="1.5" stroke-linecap="round" stroke-linejoin="round" stroke-miterlimit="10" d="
		M70.292,569.945c0,0-0.131-0.34,0.75-0.361c1.18-0.02,4.159,0.521,11.659,3.16c13.119,4.631,14.029,9.971,14.029,9.971"/>
	<path fill="none" stroke="#000000" stroke-width="1.5" stroke-linecap="round" stroke-linejoin="round" stroke-miterlimit="10" d="
		M82.501,563.465c0,0,0,0,0.011,0c0.42,0.09,10.312,2.17,15.93,6.119c5.763,4.041,7.86,9.58,7.86,9.58"/>
	<path fill="none" stroke="#000000" stroke-width="3" stroke-linecap="round" stroke-linejoin="round" stroke-miterlimit="10" d="
		M84.682,549.674c0,0,1.393,4.4,1.12,8.031c-0.011,0.1-0.021,0.199-0.03,0.289c-0.369,3.688-3.447,8.631-23.067,9.881
		c0,0-0.19-0.02-0.771,0.049c-1.08,0.111-3.529,0.5-8.649,1.812c-0.66,0.17-1.37,0.354-2.13,0.561
		c-9.66,2.58-15.551,4.25-15.551,4.25s-8.26,2.141-9.639,1.141c-1.271-0.922-1.32-1.102-1.32-1.116c0,0-0.45-0.056-3.17-0.16
		c-2.73-0.109-4.121-1.66-4.121-1.66s-0.709-0.379-2.289-0.959c-1.59-0.59-1.631-2.74-1.631-2.74s-0.969,0.23-1.779-0.17
		c-1.66-1-1.75-3.201-1.75-3.201v-0.38v-1.83c0,0,3.92-0.408,6.17-0.961c2.25-0.549,7.25-2.629,12.17-4.379
		c1.109-0.391,2.359-0.92,3.641-1.51c2.76-1.281,5.729-2.871,8.049-4.16"/>
	<path fill="none" stroke="#000000" stroke-width="3" stroke-linecap="round" stroke-linejoin="round" stroke-miterlimit="10" d="
		M39.941,552.455c1.351-0.75,2.479-1.4,3.21-1.83c2.59-1.5,7.38-4.291,7.38-4.291"/>
	<path fill="none" stroke="#000000" stroke-width="3" stroke-linecap="round" stroke-linejoin="round" stroke-miterlimit="10" d="
		M66.201,571.715c0,0-7.08,0.58-13.22,2.539c-6.141,1.951-14.29,4.062-19.15,5.01c-4.859,0.941-12.96-0.25-16.26-1.639
		c-3.3-1.391-6.34-3.43-8.87-6.041c-2.54-2.609-1.46-5.039-1.46-5.039l2.25-1.25"/>
	<path fill="none" stroke="#000000" stroke-width="1.5" stroke-linecap="round" stroke-linejoin="round" stroke-miterlimit="10" d="
		M31.821,556.635c0,0,0.02-0.01,0.061-0.02c0.299-0.051,1.949-0.104,8.52,2.52c7.5,2.99,9.311,4.379,11.75,7.32
		c2.449,2.949,1.09,3.129,1.09,3.129"/>
	<path fill="none" stroke="#000000" stroke-width="1.5" stroke-linecap="round" stroke-linejoin="round" stroke-miterlimit="10" d="
		M39.931,552.455c0,0,0,0,0.011,0c0.21-0.031,3.47-0.471,8.46,2.139c5.17,2.701,9.75,6.5,11.42,8.871
		c1.67,2.369,2.109,4.449,2.109,4.449"/>
</g>
</svg>
