<?xml version="1.0" encoding="utf-8"?>
<!-- Generator: Adobe Illustrator 16.0.0, SVG Export Plug-In . SVG Version: 6.00 Build 0)  -->
<!DOCTYPE svg PUBLIC "-//W3C//DTD SVG 1.1//EN" "http://www.w3.org/Graphics/SVG/1.1/DTD/svg11.dtd">
<svg version="1.1" id="Layer_1" xmlns="http://www.w3.org/2000/svg" xmlns:xlink="http://www.w3.org/1999/xlink" x="0px" y="0px"
	 width="177px" height="600px" viewBox="0 0 177 600" enable-background="new 0 0 177 600" xml:space="preserve">
<g>
	<path d="M165.801,550.057c4.45,3.789,4.83,8.539,3.26,12.473c-1.56,3.938-4.18,6.35-10.17,9.51
		c-5.989,3.16-10.54,5.49-17.75,10.709c-7.21,5.211-14.659,9.051-20.771,11c-6.109,1.951-10.529,1.201-18.939-0.189
		c-8.42-1.391-9.71-4.938-10.24-7.039c0,0-0.85-1.609,0.271-2.439c1.109-0.83,1.109-0.83,1.109-0.83
		c-0.09,1.18,0.069,2.729,1.299,3.6c2.182,1.531,3.98-0.289,3.98-0.289s0.75,2.779,3.37,2.762c2.61-0.029,3.511-0.689,3.511-0.689
		s1.93,1.699,4.439,1.09c2.49-0.607,3.23-1.381,3.23-1.381s0.198,1.07,3.01,0.771c2.8-0.312,4.188,0.891,14.93-6.359
		c3.35-2.26,6.76-4.4,9.87-6.281c3.39-2.039,6.42-3.77,8.608-4.988c2.229-1.238,3.592-1.961,3.592-1.961s9.119-3.818,11.188-8.51
		c1.79-4.029,2.96-7.951,2.11-10.93L165.801,550.057z"/>
	<path fill="#BC9982" d="M165.711,550.076c0.85,2.979-0.32,6.898-2.11,10.93c-2.07,4.691-11.189,8.51-11.189,8.51
		s-1.358,0.723-3.59,1.961l-0.311-0.561c0,0-3.04-4.83-9.33-7.549c-0.979-0.434-2.061-0.791-3.189-1.08l0.33-1.25
		c1.26-0.271,2.569-0.68,3.979-1.24c8.2-3.281,16-8.49,19.08-19.6l0.83,0.238c0,0,3.14,5.189,4.92,8.271
		C165.381,549.137,165.571,549.596,165.711,550.076z"/>
	<path fill="#EFDA60" d="M108.321,225.957c8.199-3.12,23.699-8.73,30.42-9.75c-0.359-0.86-4.812-11.76-8.852-21.41
		c-4.22-10.07-8.13-23.63-10.13-23.38s-4.37,16.12-7.63,32.62C109.03,219.827,108.37,225.497,108.321,225.957z M51.911,131.146
		c0.289-0.16,0.57-0.31,0.85-0.45c3.061-1.55,6.49-2.63,9.66-3.94c0,0,6.92,3.66,12.42,4.33s13.07,0,13.07,0l0.18,0.01
		c-0.1,1.48-0.221,2.84-0.359,4.07c-2.5,22.75-5.74,41.75-7.99,50.75s-3.561,11.75-3.561,11.75s10.33,4.25,16.58,2.25
		s8.75-9.5,8.75-9.5v10c0,0,3,0.25,5.5-2.75c1.85-2.23,7.58-29.99,8.65-66.98h0.01c0,0,14.42,3.61,21.25,20.95
		c6.84,17.33,25.38,56.31,26.05,67.31c0.66,11-2.931,10.93-30.649,18.87c-10.949,3.13-20.031,5.11-25.108,6.12
		c-2.802,0.56-4.382,0.82-4.382,0.82s-0.43,0.04-1.389,0.51c0,0-2.681-5.35-3.601-9.35c-0.91-4,0-6.56,0-6.56
		c-3.78,0.72-6.649,0.44-8.66-0.82c-5.11-3.24-9.55-1.87-15.79-5.5c-6.25-3.62-6.54-4.3-7.699-3.42
		c-1.16,0.87-1.701,2.18,0.049,5.68s5.86,3.99,9.011,6.25c2.05,2.89-2.181,5.49-12.4,4.43c-8.53-0.78-11.59-2.68-13.34-1.56
		s0.11,4.44,0.11,4.44l-0.061,0.2c-3.039-0.9-10.939-3.03-14.57,3.11c-2.459,4.44-3.899,6.85-3.859,11.28
		c0.02,0.68,0.08,1.31,0.189,1.91c-0.289-0.44-9.59-14.74-14.189-30.82c-4.66-16.33,3.41-43.17,3.41-43.17
		c3.77-17.33,10.83-28.84,14.17-34.5C37.401,141.437,45.481,134.637,51.911,131.146z"/>
	<path fill="#5D9B99" d="M97.521,543.877l-0.58,0.629c0,0-0.959,1.861-7.438,8.08c-2.021,1.941-3.261,3.441-4.65,4.57
		c-3.041,2.5-6.751,3.26-20.841,3.26c-7.37,0-11.891-0.84-15.09-2.529c-5.689-3-7.141-8.67-12.91-17
		c-9.721-15.721-10-20.381-10-31.711c0-11.34,7.33-110.76,7.45-173.76c0.021-11.779,0-21.809-0.05-30.33h0.93
		c0,0,16.96,6,33.82,5.66c16.85-0.33,42.67-5.66,42.67-5.66l0.52-0.07c2.9,21.473,7.721,48.604,15.66,81.4
		c23,95,36.029,130,36.029,130s-0.529,11.91-3.529,23.33c-0.04,0.15-0.08,0.301-0.13,0.451c-3.08,11.107-10.88,16.316-19.08,19.6
		c-1.41,0.562-2.72,0.969-3.979,1.24c-4.181,0.91-7.858,0.27-13.148-1.611c-2.53-0.896-5.42-2.08-8.91-3.51
		C106.341,552.666,101.481,551.527,97.521,543.877z"/>
	<path d="M135.991,562.287c1.129,0.289,2.209,0.646,3.188,1.08c6.29,2.719,9.33,7.549,9.33,7.549l0.311,0.561
		c-2.188,1.223-5.221,2.949-8.608,4.99l-0.25-0.41c0,0-1.86-4.85-15.33-6.738c-9.601-1.352-11.841-0.932-12.33-0.58l-0.011-0.021
		c4.261-3.188,7.811-6.059,10.49-8.34l0.392-0.949c5.29,1.879,8.97,2.521,13.149,1.609L135.991,562.287z"/>
	<path fill="#BC9982" d="M112.301,568.736c0.489-0.352,2.729-0.771,12.33,0.58c13.47,1.891,15.33,6.738,15.33,6.738l0.25,0.41
		c-3.11,1.879-6.521,4.021-9.87,6.279c-10.74,7.25-12.13,6.051-14.93,6.359c-2.812,0.301-3.01-0.77-3.01-0.77s-0.74,0.77-3.23,1.379
		c-2.51,0.611-4.439-1.09-4.439-1.09s-0.9,0.66-3.511,0.689c-2.62,0.021-3.37-2.762-3.37-2.762s-1.8,1.82-3.98,0.291
		c-1.229-0.871-1.389-2.42-1.299-3.6c0.069-0.891,0.279-1.58,0.279-1.58c7.4-4.371,14-8.9,19.439-12.951L112.301,568.736z"/>
	<path fill="#4C3122" d="M64.79,9.966l-0.52,0.24c0,0-9.13,6.14-15.23,13.93c-0.489,0.62-0.939,1.21-1.359,1.78
		c-2.41,3.23-3.82,5.64-5.141,8.27c-2.959-5.48,2.721-15.27,5.721-19.02s3.75-5.5,7.25-11.5s16,0,16,0s5.75,1.75,22.75,11.75
		s16.25,18.5,20.5,74.25c1.09,14.33,1.279,28.22,0.9,41.02c-1.07,36.99-6.801,64.75-8.65,66.98c-2.5,3-5.5,2.75-5.5,2.75v-10
		c0,0-2.5,7.5-8.75,9.5s-16.58-2.25-16.58-2.25s1.311-2.75,3.561-11.75s5.49-28,7.99-50.75c0.139-1.23,0.26-2.59,0.359-4.07
		c0.74-10.17,0.84-25.62,0.68-40.56c-0.25-22.77-1.07-44.37-1.07-44.37s-2.069-5.76-11.81-18.26
		C69.911,20.256,66.521,13.816,64.79,9.966z M100.341,65.106c0,0,6.58-2.67,6.33-9.33c-0.25-6.67-6.33-8.67-6.33-8.67V65.106z"/>
	<path fill="#EFDA60" d="M111.351,305.016l-0.52,0.07c0,0-25.82,5.33-42.67,5.66c-16.86,0.34-33.82-5.66-33.82-5.66h-0.93
		c-0.25-37.029-1.07-45.529-1.07-45.529c0.62,1.12,1.359,2.23,2.17,3.46c2.16,3.27,4.971,5.53,8.25,8.02
		c3.29,2.48,8.76,6.03,8.76,6.03s2.51,0.94,3.391-0.84c0.89-1.78-0.851-3.21-0.851-3.21c-3.01-2.59-10.03-7.88-10.03-7.88
		c6.75,3.96,8.26,4.04,13.621,6.08c5.359,2.04,6.18,2.32,7.1,1.9c0.93-0.41,2.16-1.94,2.05-2.72c1.46-0.6,2.36-2.48,2.26-3.68
		c0,0,1.66-0.51,1.7-2.29c0.04-1.77-1.061-2.48-2.33-3.38c-0.689-0.49-2.939-2.07-5.67-4.04l0.23-0.32c0,0,14.879,1.9,19.799,0.45
		c4.931-1.45,6.801-2.18,12.301-7.18c3.08-2.8,5.141-4.09,6.35-4.69c0.961-0.47,1.391-0.51,1.391-0.51s1.58-0.26,4.381-0.82
		C107.211,243.937,105.841,264.296,111.351,305.016z"/>
	<path fill="#BC9982" d="M106.671,55.776c0.25,6.66-6.33,9.33-6.33,9.33v-18C100.341,47.106,106.421,49.106,106.671,55.776z"/>
	<path fill="#BC9982" d="M101.44,245.267c-1.209,0.6-3.27,1.89-6.35,4.69c-5.5,5-7.37,5.73-12.301,7.18
		c-4.92,1.45-19.799-0.45-19.799-0.45l-0.23,0.32c-2.311-1.67-4.96-3.62-7.27-5.42c-5.041-3.93-4.01-4.8-0.961-4.66
		c3.051,0.13,3.49,0.41,4.9,0.17c1.42-0.25,4.32-2.16,3.87-3.43c-0.44-1.27-0.431-1.07-3.39-1.66c-2.961-0.59-7.881-2.07-10.16-2.74
		c-0.19-0.05-0.42-0.13-0.69-0.21l0.06-0.2c0,0-1.859-3.32-0.109-4.44s4.811,0.78,13.34,1.56c10.221,1.06,14.45-1.54,12.4-4.43
		c-3.15-2.26-7.26-2.75-9.01-6.25s-1.211-4.81-0.051-5.68c1.16-0.88,1.45-0.2,7.7,3.42c6.24,3.63,10.681,2.26,15.79,5.5
		c2.01,1.26,4.88,1.54,8.66,0.82c0,0-0.91,2.56,0,6.56C98.761,239.917,101.44,245.267,101.44,245.267z"/>
	<path d="M60.731,577.096c2.549-0.379,3.209-0.309,3.209-0.309c19.65-0.66,22.85-5.211,23.311-8.66c0.01-0.08,0.029-0.18,0.039-0.27
		c0.091-0.844,0.08-1.924,0.011-3.062h0.05l0.78,1l3.26,2.602v3.84c0,0-0.26,3.061-4.04,5.561c-3.779,2.5-7.46,3.67-18.64,4.57
		c-19.7,1.799-31.41,7.43-38.351,7.99c-6.939,0.559-16.939,1.129-21.35-3.922c-4.41-5.061,0.74-8.789,0.74-8.789l0.31-0.029
		c0.021,0.229,0.07,0.479,0.15,0.76c-1.14,0.76,0.319,2.789,1.84,2.689c0.229,1.229,1.62,2.301,3.04,2.6
		c1.43,0.301,2.609-1.07,2.609-1.07s0.771,3.062,5.44,3.062c2.12,0.221,10.07-2.271,10.07-2.271s9.409-2.479,19.13-4.639
		c0.08-0.021,0.17-0.041,0.25-0.062C56.421,577.836,59.011,577.367,60.731,577.096z"/>
	<path fill="#BC9982" d="M88.771,90.537c0.16,14.94,0.061,30.39-0.68,40.56l-0.18-0.01c0,0-7.57,0.67-13.07,0
		s-12.42-4.33-12.42-4.33c3.619-1.48,6.9-3.26,8.91-6.39c1.529-3.54,0-9.51,0-9.51l-2.061-0.06c2.881-1.68,6.45-5.24,8.881-8.32
		l9.76-11.93L88.771,90.537z"/>
	<path fill="#BC9982" d="M40.761,72.977c0,0,0.27,1.24,0.88,3.04c0.89,2.65,2.521,6.52,5.08,9.4c0.56,0.63,1.13,1.22,1.71,1.77
		c0,0,0,0,0.01,0.01c3.92,3.74,8.311,5.77,11.07,3.89c1.18-0.81,2.641-2.13,4.141-3.75c2.529-2.72,5.18-6.3,6.859-9.75
		c1.67-3.44,2.42-5.9,2.76-7.26c0.2-0.82,0.24-1.24,0.24-1.24h-0.67c0,0-3.66,1.66-7.66,3.16s-8.5,2.5-14.65,2.67
		C46.431,75.026,42.751,73.807,40.761,72.977z M47.681,25.917c0.42-0.57,0.87-1.16,1.359-1.78c6.101-7.79,15.23-13.93,15.23-13.93
		l0.52-0.24c1.73,3.85,5.121,10.29,11.101,17.94c9.74,12.5,11.81,18.26,11.81,18.26s0.82,21.6,1.07,44.37l-0.859,0.01l-9.76,11.93
		c-2.431,3.08-6,6.64-8.881,8.32c-0.189,0.11-0.38,0.22-0.57,0.31c-0.81,0.42-1.549,0.66-2.17,0.67
		c-2.379,0.03-8.66-4.44-12.319-7.59c-0.841-0.73-1.54-1.38-2.03-1.9c-2.6-2.75-14.15-13.94-17.9-30.06
		c-3.729-16.12-0.89-19.19,3.601-28.27c1.71-3.45,2.84-6.01,3.94-8.29c0.239-0.51,0.479-1,0.719-1.48
		C43.86,31.557,45.271,29.146,47.681,25.917z"/>
	<path fill="#BC9982" d="M87.301,564.797c0.069,1.139,0.08,2.219-0.011,3.062c-0.01,0.09-0.029,0.188-0.039,0.27
		c-0.461,3.449-3.66,8-23.311,8.66c0,0-0.66-0.07-3.209,0.309c-0.271-0.809-0.83-2.209-1.9-3.719c-1.67-2.371-6.25-6.17-11.42-8.871
		c-3.01-1.568-5.391-2.039-6.84-2.146c3.439-1.643,6.52-3.16,7.869-3.854l0.48-0.619c3.199,1.689,7.72,2.529,15.09,2.529
		c14.09,0,17.8-0.76,20.84-3.26l1.52,0.131C86.37,557.287,87.091,561.336,87.301,564.797z"/>
	<path d="M63.561,87.256c-0.22,0.09-4.19,1.82-9.05,1.5c-4.689-0.32-5.93-1.42-6.07-1.56c-0.01-0.01-0.01-0.01-0.01-0.01
		c-0.58-0.55-1.15-1.14-1.71-1.77c-2.56-2.88-4.19-6.75-5.08-9.4l0.22-0.07c0,0,0.82,2.31,7.65,3.14s9.17-0.26,12.83-1.5
		c3.67-1.24,9.67-7,9.67-7l1.26-0.26c-0.34,1.36-1.09,3.82-2.76,7.26c-1.68,3.45-4.33,7.03-6.859,9.75L63.561,87.256z"/>
	<path fill="#4C3122" d="M71.331,110.856c0,0,1.529,5.97,0,9.51c-2.01,3.13-5.291,4.91-8.91,6.39c-3.17,1.31-6.6,2.39-9.66,3.94
		c-0.279,0.14-0.561,0.29-0.85,0.45c0.06-0.96,0.39-6.43,0.84-13.38c0.5-7.67,0.869-13.04,0.869-13.04l0.591-0.54
		c3.659,3.15,9.94,7.62,12.319,7.59c0.621-0.01,1.36-0.25,2.17-0.67c0.19-0.09,0.381-0.2,0.57-0.31L71.331,110.856z"/>
	<path fill="#BC9982" d="M30.821,255.356c-0.11-0.6-0.17-1.23-0.19-1.91c-0.04-4.43,1.399-6.84,3.86-11.28
		c3.629-6.14,11.529-4.01,14.569-3.11c0.271,0.08,0.5,0.16,0.69,0.21c2.279,0.67,7.199,2.15,10.16,2.74
		c2.959,0.59,2.949,0.39,3.39,1.66c0.45,1.27-2.45,3.18-3.87,3.43c-1.41,0.24-1.85-0.04-4.9-0.17c-3.049-0.14-4.08,0.73,0.961,4.66
		c2.31,1.8,4.959,3.75,7.27,5.42c2.73,1.97,4.98,3.55,5.67,4.04c1.27,0.9,2.37,1.61,2.33,3.38c-0.04,1.78-1.7,2.29-1.7,2.29
		c0.101,1.2-0.8,3.08-2.26,3.68c0.11,0.78-1.12,2.31-2.05,2.72c-0.92,0.42-1.74,0.14-7.1-1.9c-5.361-2.04-6.871-2.12-13.621-6.08
		c0,0,7.021,5.29,10.03,7.88c0,0,1.74,1.43,0.851,3.21c-0.881,1.78-3.391,0.84-3.391,0.84s-5.47-3.55-8.76-6.03
		c-3.279-2.49-6.09-4.75-8.25-8.02c-0.811-1.23-1.55-2.34-2.17-3.46C31.62,258.236,31.091,256.907,30.821,255.356z"/>
	<path d="M58.831,573.377c1.07,1.51,1.63,2.91,1.9,3.719c-1.721,0.271-4.311,0.74-8.141,1.59c-0.109-0.459-0.49-1.18-1.43-2.316
		c-2.44-2.941-4.25-4.33-11.75-7.32c-5.311-2.121-7.41-2.49-8.17-2.52c2.729-1.111,6.18-2.691,9.33-4.17
		c1.449,0.107,3.83,0.576,6.84,2.146C52.581,567.207,57.161,571.006,58.831,573.377z"/>
	<path fill="#BC9982" d="M52.591,578.686c-0.08,0.021-0.17,0.041-0.25,0.062c-9.721,2.16-19.13,4.641-19.13,4.641
		s-7.95,2.49-10.07,2.271c-4.67,0-5.44-3.062-5.44-3.062s-1.18,1.369-2.609,1.07c-1.42-0.301-2.811-1.371-3.04-2.6
		c-1.521,0.1-2.979-1.934-1.84-2.691c-0.08-0.279-0.13-0.529-0.15-0.76c-0.14-1.23,0.351-1.629,0.351-1.629
		c-0.521-1.871,5.359-3.75,5.359-3.75s9.6-3.34,15.29-5.643c0.06-0.02,0.12-0.051,0.181-0.068c0.76,0.027,2.859,0.398,8.17,2.52
		c7.5,2.99,9.31,4.381,11.75,7.32C52.101,577.506,52.481,578.227,52.591,578.686z"/>
	<path fill="#FFFFFF" d="M54.511,88.756c4.86,0.32,8.83-1.41,9.05-1.5c0.01-0.01,0.01-0.01,0.01-0.01l0.091,0.08l-0.011,0.01
		c-1.5,1.62-2.96,2.94-4.14,3.75c-2.75,1.87-7.11-0.13-11.02-3.84C48.771,87.486,50.15,88.457,54.511,88.756z"/>
	<path fill="#FFFFFF" d="M72.011,70.586c0,0-6,5.76-9.67,7c-3.66,1.24-6,2.33-12.83,1.5s-7.65-3.14-7.65-3.14l-0.22,0.07
		c-0.61-1.8-0.88-3.04-0.88-3.04c1.99,0.83,5.67,2.05,9.77,1.94c6.15-0.17,10.65-1.17,14.65-2.67s7.66-3.16,7.66-3.16h0.67
		c0,0-0.04,0.42-0.24,1.24c-0.02,0.09-0.04,0.17-0.069,0.27L72.011,70.586z"/>
</g>
<g>
	<path fill="none" stroke="#000000" stroke-width="3" stroke-linecap="round" stroke-linejoin="round" d="M64.271,10.207
		c0,0-9.13,6.14-15.23,13.93c-0.489,0.62-0.939,1.21-1.359,1.78c-2.41,3.23-3.82,5.64-5.141,8.27c-0.239,0.48-0.479,0.97-0.719,1.48
		c-1.101,2.28-2.23,4.84-3.94,8.29c-4.49,9.08-7.33,12.15-3.601,28.27c3.75,16.12,15.301,27.31,17.9,30.06
		c0.49,0.52,1.189,1.17,2.03,1.9c3.659,3.15,9.94,7.62,12.319,7.59c0.621-0.01,1.36-0.25,2.17-0.67c0.19-0.09,0.381-0.2,0.57-0.31
		c2.881-1.68,6.45-5.24,8.881-8.32l9.76-11.93"/>
	<path fill="none" stroke="#000000" stroke-width="3" stroke-linecap="round" stroke-linejoin="round" d="M63.261,6.146
		c0,0,0.43,1.39,1.529,3.82c1.73,3.85,5.121,10.29,11.101,17.94c9.74,12.5,11.81,18.26,11.81,18.26s0.82,21.6,1.07,44.37
		c0.16,14.94,0.061,30.39-0.68,40.56c-0.1,1.48-0.221,2.84-0.359,4.07c-2.5,22.75-5.74,41.75-7.99,50.75s-3.561,11.75-3.561,11.75
		s10.33,4.25,16.58,2.25s8.75-9.5,8.75-9.5v10c0,0,3,0.25,5.5-2.75c1.85-2.23,7.58-29.99,8.65-66.98
		c0.379-12.8,0.188-26.69-0.9-41.02c-4.25-55.75-3.5-64.25-20.5-74.25s-22.75-11.75-22.75-11.75s-12.5-6-16,0s-4.25,7.75-7.25,11.5
		s-8.68,13.54-5.721,19.02"/>
	<path fill="none" stroke="#000000" stroke-width="1.5" stroke-linecap="round" stroke-linejoin="round" d="M47.681,25.917
		c0,0,3.08-1,5.58-1.75s2.5-0.75,2.5-0.75"/>
	<path fill="none" stroke="#000000" stroke-width="1.5" stroke-linecap="round" stroke-linejoin="round" d="M62.761,21.917
		c0,0,2.68-1.52,5.75,0s4.859,4,4.859,4"/>
	<path fill="none" stroke="#000000" stroke-width="1.5" stroke-linecap="round" stroke-linejoin="round" d="M41.711,35.697
		c0,0,0.03-0.01,0.11-0.03c0.34-0.1,1.52-0.33,4.189,0.03c3.25,0.45,5.71,1.5,5.71,1.5"/>
	<path fill="none" stroke="#000000" stroke-width="1.5" stroke-linecap="round" stroke-linejoin="round" d="M63.761,37.667
		c0,0,1.859-1.01,5.311-1c3.439,0,9.709,3.75,9.709,3.75"/>
	<path fill="none" stroke="#000000" stroke-linecap="round" stroke-linejoin="round" d="M51.721,38.537c0,0-4.46-0.62-6.46,0
		c-2,0.63-2,0.63-2,0.63"/>
	<path fill="none" stroke="#000000" stroke-linecap="round" stroke-linejoin="round" d="M63.761,39.167c0,0,4.02-0.75,7.51,1.25
		s3.49,2,3.49,2"/>
	<path fill="none" stroke="#000000" stroke-width="1.5" stroke-linecap="round" stroke-linejoin="round" d="M58.991,25.977
		c0,0-1.711,10.43-6.59,17.33c-4.871,6.89-16.131,10.24-16.5,13.14c-0.361,2.9,2.649,7.37,6.43,9.83c3.779,2.45,8.4,3.15,8.14-1.07
		c0,0,0.78-0.58,2.46,0.58c1.66,1.17,0.38,3.89,5.141,1.41c3.359-2.021,3.739-4.83,0.439-6.78l6.67,2.67"/>
	<path fill="none" stroke="#000000" stroke-width="1.5" stroke-linecap="round" stroke-linejoin="round" d="M39.181,72.247
		c0,0,0.58,0.32,1.58,0.73c1.99,0.83,5.67,2.05,9.77,1.94c6.15-0.17,10.65-1.17,14.65-2.67s7.66-3.16,7.66-3.16"/>
	<path fill="none" stroke="#000000" stroke-width="1.5" stroke-linecap="round" stroke-linejoin="round" d="M48.44,87.196
		c3.92,3.74,8.311,5.77,11.07,3.89c1.18-0.81,2.641-2.13,4.141-3.75c2.529-2.72,5.18-6.3,6.859-9.75c1.67-3.44,2.42-5.9,2.76-7.26
		c0.2-0.82,0.24-1.24,0.24-1.24"/>
	<path fill="none" stroke="#000000" stroke-width="1.5" stroke-linecap="round" stroke-linejoin="round" d="M40.761,72.977
		c0,0,0.27,1.24,0.88,3.04c0.89,2.65,2.521,6.52,5.08,9.4c0.56,0.63,1.13,1.22,1.71,1.77"/>
	<path fill="none" stroke="#000000" stroke-width="1.5" stroke-linecap="round" stroke-linejoin="round" d="M71.181,66.747
		c0,0,3.189,3.84,8.6,3.84"/>
	<path fill="none" stroke="#000000" stroke-width="1.5" stroke-linecap="round" stroke-linejoin="round" d="M41.86,75.946
		c0,0,0.82,2.31,7.65,3.14s9.17-0.26,12.83-1.5c3.67-1.24,9.67-7,9.67-7"/>
	<path fill="none" stroke="#000000" stroke-width="1.5" stroke-linecap="round" stroke-linejoin="round" d="M48.431,87.187
		c0,0,0,0,0.01,0.01c0.141,0.14,1.381,1.24,6.07,1.56c4.859,0.32,8.83-1.41,9.05-1.5c0.011-0.01,0.011-0.01,0.011-0.01"/>
	<path fill="none" stroke="#000000" stroke-width="1.5" stroke-linecap="round" stroke-linejoin="round" d="M100.341,47.106v18
		c0,0,6.58-2.67,6.33-9.33C106.421,49.106,100.341,47.106,100.341,47.106z"/>
	<path fill="none" stroke="#000000" stroke-width="3" stroke-linecap="round" stroke-linejoin="round" d="M71.331,110.856
		c0,0,1.529,5.97,0,9.51c-2.01,3.13-5.291,4.91-8.91,6.39c-3.17,1.31-6.6,2.39-9.66,3.94c-0.279,0.14-0.561,0.29-0.85,0.45
		c-6.43,3.49-14.51,10.29-17.7,15.72c-3.341,5.66-10.4,17.17-14.171,34.5c0,0-8.069,26.84-3.409,43.17
		c4.601,16.08,13.899,30.38,14.19,30.82c0.01,0.01,0.01,0.01,0.01,0.01"/>
	<path fill="none" stroke="#000000" stroke-width="3" stroke-linecap="round" stroke-linejoin="round" d="M49.061,239.057
		c-3.04-0.9-10.94-3.03-14.569,3.11c-2.461,4.44-3.9,6.85-3.86,11.28c0.021,0.68,0.08,1.31,0.19,1.91c0.27,1.55,0.799,2.88,1.52,4.2
		c0.62,1.12,1.359,2.23,2.17,3.46c2.16,3.27,4.971,5.53,8.25,8.02c3.29,2.48,8.76,6.03,8.76,6.03s2.51,0.94,3.391-0.84
		c0.89-1.78-0.851-3.21-0.851-3.21c-3.01-2.59-10.03-7.88-10.03-7.88c6.75,3.96,8.26,4.04,13.621,6.08c5.359,2.04,6.18,2.32,7.1,1.9
		c0.93-0.41,2.16-1.94,2.05-2.72c1.46-0.6,2.36-2.48,2.26-3.68c0,0,1.66-0.51,1.7-2.29c0.04-1.77-1.061-2.48-2.33-3.38
		c-0.689-0.49-2.939-2.07-5.67-4.04c-2.311-1.67-4.96-3.62-7.27-5.42c-5.041-3.93-4.01-4.8-0.961-4.66
		c3.051,0.13,3.49,0.41,4.9,0.17c1.42-0.25,4.32-2.16,3.87-3.43c-0.44-1.27-0.431-1.07-3.39-1.66c-2.961-0.59-7.881-2.07-10.16-2.74
		C49.561,239.216,49.331,239.137,49.061,239.057z"/>
	<path fill="none" stroke="#000000" stroke-width="1.5" stroke-linecap="round" stroke-linejoin="round" d="M65.971,269.537
		c0,0-12.239-4.38-18.63-10.07"/>
	<path fill="none" stroke="#000000" stroke-width="1.5" stroke-linecap="round" stroke-linejoin="round" d="M68.021,266.347
		c0,0-9.3-4.56-17.71-11.16"/>
	<path fill="none" stroke="#000000" stroke-width="3" stroke-linecap="round" stroke-linejoin="round" d="M36.341,158.146
		c0,0-2.66,22.6-3.16,35.1c-0.48,11.96-0.811,21.31-0.84,22.11c0,0.03,0,0.05,0,0.05"/>
	<path fill="none" stroke="#000000" stroke-width="3" stroke-linecap="round" stroke-linejoin="round" d="M27.54,210.046
		c0,0,3.24,2.86,3.98,3.71c0.28,0.34,0.561,0.9,0.82,1.6c1.529,4.02,2.67,12.73,2.67,12.73l2.27,10.9"/>
	<path fill="none" stroke="#000000" stroke-width="3" stroke-linecap="round" stroke-linejoin="round" d="M53.62,104.727
		c0,0-0.369,5.37-0.869,13.04c-0.45,6.95-0.78,12.42-0.84,13.38c-0.01,0.1-0.01,0.15-0.01,0.15"/>
	<path fill="none" stroke="#000000" stroke-width="1.5" stroke-linecap="round" stroke-linejoin="round" d="M62.421,126.756
		c0,0,6.92,3.66,12.42,4.33s13.07,0,13.07,0"/>
	<path fill="none" stroke="#000000" stroke-width="3" stroke-linecap="round" stroke-linejoin="round" d="M115.671,130.687
		c0,0,14.42,3.61,21.25,20.95c6.84,17.33,25.38,56.31,26.05,67.31c0.66,11-2.931,10.93-30.649,18.87
		c-10.949,3.13-20.031,5.11-25.108,6.12c-2.802,0.56-4.382,0.82-4.382,0.82s-0.43,0.04-1.389,0.51c-1.211,0.6-3.271,1.89-6.351,4.69
		c-5.5,5-7.37,5.73-12.3,7.18c-4.92,1.45-19.801-0.45-19.801-0.45"/>
	<path fill="none" stroke="#000000" stroke-width="3" stroke-linecap="round" stroke-linejoin="round" d="M49.12,238.856
		c0,0-1.859-3.32-0.109-4.44s4.811,0.78,13.34,1.56c10.221,1.06,14.45-1.54,12.4-4.43c-3.15-2.26-7.26-2.75-9.01-6.25
		s-1.211-4.81-0.051-5.68c1.16-0.88,1.45-0.2,7.7,3.42c6.24,3.63,10.681,2.26,15.79,5.5c2.01,1.26,4.88,1.54,8.66,0.82
		c2.24-0.42,4.79-1.2,7.67-2.32c0.79-0.31,1.74-0.67,2.811-1.08c8.199-3.12,23.699-8.73,30.42-9.75c1.049-0.15,1.891-0.2,2.449-0.11
		"/>
	<path fill="none" stroke="#000000" stroke-width="1.5" stroke-linecap="round" stroke-linejoin="round" d="M60.511,241.626
		c0,0,6.04,0.87,9.04,0.83s5.04-0.1,5.04-0.1"/>
	<path fill="none" stroke="#000000" stroke-width="1.5" stroke-linecap="round" stroke-linejoin="round" d="M61.551,247.086
		c0,0,3.92,0.71,7.71,0.75s5.5-0.13,5.5-0.13"/>
	<path fill="none" stroke="#000000" stroke-width="1.5" stroke-linecap="round" stroke-linejoin="round" d="M55.841,250.626
		c0,0,3.891,0.87,10.13,1.42c6.25,0.54,8.83,0,8.83,0"/>
	<path fill="none" stroke="#000000" stroke-width="1.5" stroke-linecap="round" stroke-linejoin="round" d="M97.841,229.356
		c0,0-0.91,2.56,0,6.56c0.92,4,3.6,9.35,3.6,9.35"/>
	<path fill="none" stroke="#000000" stroke-width="3" stroke-linecap="round" stroke-linejoin="round" d="M138.761,216.267
		c0,0-0.01-0.02-0.02-0.06c-0.36-0.86-4.812-11.76-8.853-21.41c-4.22-10.07-8.13-23.63-10.13-23.38s-4.37,16.12-7.63,32.62
		c-3.101,15.79-3.761,21.46-3.812,21.92c0,0.02,0,0.03,0,0.03"/>
	<path fill="none" stroke="#000000" stroke-width="3" stroke-linecap="round" stroke-linejoin="round" d="M107.211,243.937
		c0,0-1.37,20.36,4.14,61.079c2.9,21.473,7.721,48.604,15.66,81.4c23,95,36.029,130,36.029,130s-0.529,11.91-3.529,23.33
		c-0.04,0.15-0.08,0.301-0.13,0.451c-3.08,11.107-10.88,16.316-19.08,19.6c-1.41,0.562-2.72,0.969-3.979,1.24
		c-4.181,0.91-7.858,0.27-13.148-1.611c-2.53-0.896-5.42-2.08-8.91-3.51c-7.92-3.25-12.779-4.389-16.738-12.039
		c-2.531-4.91-4.691-12.479-7.052-25c-6.002-30.34-14.132-75.791-19.462-134.461c0,0-3.17-56-11.25-62.67"/>
	<path fill="none" stroke="#000000" stroke-width="3" stroke-linecap="round" stroke-linejoin="round" d="M32.341,259.557
		c0,0,0.82,8.5,1.07,45.529c0.05,8.521,0.07,18.551,0.05,30.33c-0.12,63-7.45,162.42-7.45,173.76c0,11.33,0.279,15.99,10,31.711
		c5.77,8.33,7.221,14,12.91,17c3.199,1.689,7.72,2.529,15.09,2.529c14.09,0,17.8-0.76,20.84-3.26c1.391-1.129,2.631-2.629,4.65-4.57
		c6.48-6.219,7.439-8.08,7.439-8.08"/>
	<path fill="none" stroke="#000000" stroke-width="1.5" stroke-linecap="round" stroke-linejoin="round" d="M34.341,305.086
		c0,0,16.96,6,33.82,5.66c16.85-0.33,42.67-5.66,42.67-5.66"/>
	<path fill="none" stroke="#000000" stroke-width="3" stroke-linecap="round" stroke-linejoin="round" d="M122.78,560.377
		c-2.68,2.279-6.229,5.15-10.49,8.34c-5.438,4.049-12.038,8.58-19.438,12.949c0,0-0.21,0.691-0.278,1.58
		c-0.09,1.18,0.068,2.729,1.299,3.6c2.181,1.531,3.979-0.289,3.979-0.289s0.75,2.779,3.37,2.762
		c2.609-0.029,3.512-0.689,3.512-0.689s1.93,1.699,4.438,1.09c2.489-0.607,3.229-1.381,3.229-1.381s0.199,1.07,3.01,0.771
		c2.801-0.312,4.189,0.891,14.931-6.359c3.351-2.26,6.76-4.4,9.87-6.281c3.39-2.039,6.42-3.77,8.607-4.988
		c2.23-1.238,3.592-1.961,3.592-1.961s9.119-3.818,11.188-8.51c1.79-4.029,2.96-7.951,2.11-10.93c-0.141-0.48-0.33-0.941-0.58-1.371
		c-1.78-3.08-4.92-8.27-4.92-8.27"/>
	<path fill="none" stroke="#000000" stroke-width="3" stroke-linecap="round" stroke-linejoin="round" d="M165.801,550.057
		c4.45,3.789,4.83,8.539,3.26,12.473c-1.56,3.938-4.18,6.35-10.17,9.51c-5.989,3.16-10.54,5.49-17.75,10.709
		c-7.21,5.211-14.659,9.051-20.771,11c-6.109,1.951-10.529,1.201-18.939-0.189c-8.42-1.391-9.71-4.938-10.24-7.039
		c0,0-0.85-1.609,0.271-2.439c1.109-0.83,1.109-0.83,1.109-0.83"/>
	<path fill="none" stroke="#000000" stroke-width="1.5" stroke-linecap="round" stroke-linejoin="round" d="M112.19,569.016
		c0,0-0.08-0.129,0.11-0.277c0.489-0.352,2.729-0.771,12.33,0.58c13.47,1.891,15.33,6.738,15.33,6.738"/>
	<path fill="none" stroke="#000000" stroke-width="1.5" stroke-linecap="round" stroke-linejoin="round" d="M135.401,562.127
		c0.199,0.049,0.392,0.1,0.59,0.16c1.131,0.289,2.211,0.646,3.189,1.08c6.29,2.719,9.33,7.549,9.33,7.549"/>
	<path fill="none" stroke="#000000" stroke-width="3" stroke-linecap="round" stroke-linejoin="round" d="M86.37,557.287
		c0,0,0.721,4.049,0.931,7.51c0.069,1.139,0.08,2.219-0.011,3.062c-0.01,0.09-0.029,0.188-0.039,0.27
		c-0.461,3.449-3.66,8-23.311,8.66c0,0-0.66-0.07-3.209,0.309c-1.721,0.271-4.311,0.74-8.141,1.592
		c-0.08,0.021-0.17,0.039-0.25,0.061c-9.721,2.16-19.13,4.641-19.13,4.641s-7.95,2.49-10.07,2.271c-4.67,0-5.44-3.062-5.44-3.062
		s-1.18,1.369-2.609,1.07c-1.42-0.301-2.811-1.371-3.04-2.6c-1.521,0.1-2.979-1.934-1.84-2.691c-0.08-0.279-0.13-0.529-0.15-0.76
		c-0.14-1.23,0.351-1.629,0.351-1.629c-0.521-1.871,5.359-3.75,5.359-3.75s9.6-3.34,15.29-5.643c0.06-0.02,0.12-0.051,0.181-0.068
		c2.729-1.109,6.18-2.689,9.33-4.17c3.439-1.643,6.52-3.16,7.869-3.852"/>
	<path fill="none" stroke="#000000" stroke-width="3" stroke-linecap="round" stroke-linejoin="round" d="M9.751,577.646
		c0,0-5.15,3.729-0.74,8.787c4.41,5.053,14.41,4.48,21.35,3.924c6.94-0.562,18.65-6.191,38.351-7.99
		c11.18-0.9,14.86-2.07,18.64-4.57c3.78-2.5,4.04-5.561,4.04-5.561v-3.84l-3.26-2.602l-0.78-1"/>
	<path fill="none" stroke="#000000" stroke-width="1.5" stroke-linecap="round" stroke-linejoin="round" d="M30.831,566.547
		c0,0,0.09-0.041,0.41-0.02c0.76,0.027,2.859,0.396,8.17,2.52c7.5,2.99,9.31,4.379,11.75,7.32c0.939,1.139,1.32,1.857,1.43,2.316
		c0.17,0.74-0.34,0.812-0.34,0.812"/>
	<path fill="none" stroke="#000000" stroke-width="1.5" stroke-linecap="round" stroke-linejoin="round" d="M38.94,562.367
		c0,0,0.58-0.104,1.631-0.01c1.449,0.107,3.83,0.576,6.84,2.146c5.17,2.701,9.75,6.5,11.42,8.871c1.07,1.51,1.63,2.91,1.9,3.719
		c0.149,0.461,0.209,0.73,0.209,0.73"/>
</g>
</svg>
