<?xml version="1.0" encoding="utf-8"?>
<!-- Generator: Adobe Illustrator 16.0.0, SVG Export Plug-In . SVG Version: 6.00 Build 0)  -->
<!DOCTYPE svg PUBLIC "-//W3C//DTD SVG 1.1//EN" "http://www.w3.org/Graphics/SVG/1.1/DTD/svg11.dtd">
<svg version="1.1" id="Layer_1" xmlns="http://www.w3.org/2000/svg" xmlns:xlink="http://www.w3.org/1999/xlink" x="0px" y="0px"
	 width="238.816px" height="600px" viewBox="0 0 238.816 600" enable-background="new 0 0 238.816 600" xml:space="preserve">
<g>
	<path fill="#5D9B99" d="M169.117,559.013c0,0,0,0-15.591-3.1c-4.908-0.979-7.445-1.798-9.055-2.814
		c-3.518-2.222-2.646-5.421-12.342-13.311c-14.15-11.522-9.45-25.84-8.228-37.679c1.226-11.839,2.202-9.719,4.771-58.102
		c2.564-48.383,5.431-64.35,5.045-105.985c-0.148-16.888-0.424-28.733-0.701-36.853l0.178-0.01c0,0,52.806,11.434,75.072-1.649
		l0.354-0.04c2.264,18.751,1.346,36.356,0.355,45.282c-1.215,11,2.311,93.98,4.442,118.016
		c2.144,24.022,15.799,67.797,15.799,67.797s-6.911,7.896-11.188,15.473c-3.93,6.971-7.612,13.093-14.061,16.074
		c-0.562,0.267-1.146,0.504-1.747,0.711c-7.563,2.637-27.312,1.976-27.312,1.976s-1.399-1.551-4.216-4.273
		C170.215,560.06,169.69,559.557,169.117,559.013z"/>
	<path fill="#4C3122" d="M220.996,186.95l-11.642,6.28c0.089-1.373,0.178-2.784,0.286-4.216c0.8-11.009,1.271-18.928,1.491-24.793
		c0.115,0.474,3.979,16.697,6.898,19.689C220.996,186.95,220.996,186.95,220.996,186.95z"/>
	<path fill="#EFDA60" d="M210.629,148.284c0.593,3.09,0.827,7.287,0.504,15.927c0,0.01,0,0.01,0,0.01
		c-0.221,5.865-0.691,13.784-1.491,24.793c-0.108,1.432-0.197,2.844-0.286,4.216c-1.313,19.936-1.362,33.809-4.996,42.004
		c-0.889,1.984-1.975,3.633-3.348,4.957c-11.424,7.534-25.142,13.508-34.549,18.445c-5.927,3.11-11.881,6.112-16.216,9.074
		c-11.49-4.651-9.022-14.841-9.022-14.841v-0.01c2.992-1.274,6.685-3.328,11.385-6.408c14.179-9.292,33.749-22.878,33.749-22.878
		s1.066-9.469,1.393-22.631c0,0-0.648-14.644,1.155-33.74c1.81-19.086,1.85-26.304,5.434-29.099
		c5.757-4.67,11.207,0.326,11.503,0.612v0.01c0.01,0,0.01,0,0.01,0S209.64,143.1,210.629,148.284z"/>
	<path d="M177.559,587.292c4.375-0.178,8.117,0.208,11.8,0.711c5.471,0.741,9.914,0.494,13.123-2.962
		c1.451-1.57,2.448-3.495,3.011-5.608l0.237,0.062c0,0,2.508-1.176,3.495,1.787c0.988,2.962,0.208,4.473-1.579,6.445
		c-1.787,1.976-3.723,6.924-17.053,6.184c-13.33-0.741-23.187,0.997-33.799,1.737c-10.615,0.738-14.311,3.713-26.65,1.241
		c-12.343-2.468-16.776-8.758-17.023-10.483c-0.128-0.918-0.115-2.912-0.089-4.581c0.04-1.481,0.089-2.706,0.089-2.706h3.209h1.978
		l0.464-0.217c0.208,0.514,0.533,1.007,1.017,1.448c2.962,2.719,2.962,2.719,2.962,2.719s-0.245,1.728,0.494,2.962
		c0.74,1.231,5.924,2.469,5.924,2.469s2.718,0.493,3.456,1.481c0.74,0.984,2.964,1.728,4.938,1.479
		c1.975-0.247,1.402,1.333,11.928,0.05c9.114-1.104,12.648-1.995,18.356-3.021c0.889-0.158,1.827-0.316,2.854-0.484
		C173.186,587.599,175.447,587.381,177.559,587.292z"/>
	<path fill="#EFDA60" d="M208.624,299.475l-0.354,0.04c-22.267,13.083-75.072,1.649-75.072,1.649l-0.178,0.01
		c-0.396-11.908-0.79-15.808-0.79-15.808c0.681-0.474,1.312-0.928,1.876-1.343c4.769-3.544,7.504-6.388,10.486-11.079
		c1.096-1.738,3.1-3.476,5.655-5.233c4.334-2.962,10.289-5.964,16.216-9.074c9.407-4.937,23.125-10.911,34.549-18.445
		c1.373-1.323,2.459-2.972,3.348-4.957c0,0-2.637,27.874,2.152,51.118C207.409,290.726,208.11,295.13,208.624,299.475z"/>
	<path fill="#BC9982" d="M205.691,571.218c0.543,2.834,0.493,5.667-0.198,8.215c-0.562,2.113-1.56,4.038-3.011,5.608
		c-3.209,3.456-7.652,3.703-13.123,2.962c-3.683-0.503-7.425-0.889-11.8-0.711c0-0.257-0.049-4.117-1.244-8.176
		c-1.234-4.196-2.962-6.418-7.198-9.538c-3.179-2.34-5.438-3.229-6.378-3.518l-0.395-0.945c5.707-2.38,8.354-4.595,8.354-4.595
		c2.814,2.729,4.216,4.276,4.216,4.276s19.749,0.661,27.312-1.976c0.603-0.207,1.185-0.444,1.747-0.713
		C203.972,562.113,204.704,566.033,205.691,571.218z"/>
	<path fill="#4C3122" d="M163.894,187.444c0,0.336-3.456,6.418-3.456,6.418c-4.443,8.393-8.887,8.729-8.887,8.729
		s8.719-37.857,12.175-62.207c0.069-0.464,0.128-0.918,0.197-1.373c2.35-16.371,3.986-24.27,4.688-39.348
		c0.296-6.3,0.424-13.854,0.375-23.796c-0.158-34.392-1.312-32.091-1.312-32.091c-4.493-3.446-8.011-6.853-10.743-10.101
		c0,0-0.01-0.01-0.021-0.02c-6.586-7.801-8.758-14.693-9.438-19.018c-3.92,2.33-6.655,4.68-8.66,7.899l-0.523-0.899
		c0,0-2.874-2.705-1.057-6.161c1.807-3.456,5.925-5.767,7.731-9.548c1.807-3.782,10.691-2.301,26.657,3.456
		c15.969,5.756,33.897,7.08,33.078,63.026c-0.8,54.919,1.066,65.919,1.138,66.304c-0.299-0.287-5.746-5.283-11.506-0.612
		c-3.584,2.794-3.621,10.012-5.431,29.099c-1.807,19.096-1.155,33.74-1.155,33.74s-5.431,2.468-14.722,3.376
		c-9.301,0.899-10.121-1.234-10.121-1.234s0,0,1.481-4.779C165.801,193.763,164.072,187.73,163.894,187.444z M184.463,65.174
		c0,0,6.229,2.844,6.171-7.405c-0.062-10.25-3.093-9.756-3.093-9.756s-3.078-1.106-3.078,2.35V65.174L184.463,65.174z"/>
	<path fill="#BC9982" d="M190.634,57.769c0.06,10.249-6.171,7.405-6.171,7.405V50.363c0-3.456,3.078-2.35,3.078-2.35
		S190.574,47.519,190.634,57.769z"/>
	<path fill="#EFDA60" d="M130.965,190.317c-1.372,1.738-10.822,13.498-19.817,20.686c-9.736,7.781-14.811,10.062-31.725,1.293
		C68.225,206.49,55.91,199.38,48.86,195.234c0,0,2.301-0.671,4.771-5.134c2.468-4.463,1.479-10.713,1.479-10.713
		s7.495,4.048,17.895,8.225c10.396,4.177,16.941,6.181,21.555,5.48c4.601-0.691,26.709-36.416,34.292-50.9
		c6.021-11.503,13.062-12.007,19.104-14.525c1.57-0.652,3.071-1.432,4.476-2.587c0,0-1.165,5.016,0,9.212
		c1.175,4.196,5.52,5.737,11.493,4.72c-0.069,0.454-0.128,0.909-0.197,1.373c-3.456,24.349-12.175,62.207-12.175,62.207
		s4.44-0.336,8.887-8.729c0,0,3.456-6.082,3.456-6.418c0.178,0.287,1.906,6.319,0.494,10.861c-1.481,4.779-1.481,4.779-1.481,4.779
		s0.819,2.133,10.121,1.234c9.292-0.908,14.722-3.376,14.722-3.376c-0.323,13.162-1.393,22.631-1.393,22.631
		s-19.57,13.587-33.749,22.878c-4.7,3.081-8.393,5.134-11.385,6.408c-4.308,1.846-7.142,2.054-9.341,1.303l0.178-0.553
		c0,0-0.425-7.574-0.918-31.933C130.609,210.263,130.648,199.599,130.965,190.317z"/>
	<path d="M156.232,567.298c0.158-0.06,0.316-0.099,0.464-0.146c2.146-0.661,4.021-1.354,5.648-2.034l0.395,0.947
		c0.938,0.284,3.199,1.176,6.378,3.516c4.236,3.12,5.964,5.342,7.198,9.538c1.195,4.059,1.244,7.919,1.244,8.176
		c-2.113,0.089-4.374,0.308-6.862,0.711c-1.024,0.168-1.965,0.326-2.854,0.484c0.079-7.518-2.975-12.175-9.146-16.124
		c-5.006-3.21-7.327-3.021-8.025-2.844l-0.158-0.612C152.618,568.344,154.563,567.801,156.232,567.298z"/>
	<path fill="#BC9982" d="M169.117,559.013c0.573,0.544,1.099,1.047,1.58,1.514c0,0-2.646,2.212-8.354,4.592
		c-1.629,0.682-3.505,1.373-5.648,2.034c-0.146,0.05-0.306,0.089-0.464,0.146c-0.434-0.514-3.525-4.105-6.941-7.188
		c-3.712-3.328-8.312-4.931-8.312-4.931l-0.099-0.245c2.438-0.979,3.453-1.631,3.453-1.631l0.141-0.207
		c1.606,1.02,4.146,1.84,9.055,2.814C169.117,559.013,169.117,559.013,169.117,559.013z"/>
	<path fill="#BC9982" d="M155.146,44.034l0.01-0.049c0,0-1.916-3.624-8.479-4.809c-1.729-0.316-3.222-0.691-4.443-1.066
		c-0.109,0.494-0.8,3.436-0.721,4.127c0.089,0.741,0.57,1.59,3.95,1.353c3.377-0.227,6.142-0.059,8.282,0.207
		C154.673,43.915,155.037,43.984,155.146,44.034z M133.739,88.911c4.229-1.659,7.948-3.959,11.404-7.129
		c1.125-1.037,2.212-2.083,3.219-3.091c1.659-1.629,3.071-3.13,4.028-4.157c0.81-0.869,1.284-1.402,1.284-1.402
		s-3.684,0.307-10.803,1.669c-7.129,1.362-13.211,2.527-15.479,2.636l-0.049,0.355c-2.479-0.474-4.101-2.419-4.101-2.419
		s0,0,2.639-2.231c2.626-2.231,4.394-7.119,4.394-7.119s-5.194,0.375-9.331-1.511c-4.127-1.876-7.198-7.623-7.248-9.795
		c0.168-3.693,13.92-8.93,17.674-13.073s3.071-7.929,5.138-14.061c0.649-1.916,1.399-3.574,2.311-5.045
		c2.004-3.219,4.739-5.569,8.66-7.899c0.681,4.325,2.854,11.217,9.438,19.018c0.013,0.01,0.021,0.02,0.021,0.02
		c2.734,3.249,6.25,6.655,10.743,10.101c0,0,1.152-2.301,1.312,32.091c0.049,9.943-0.079,17.497-0.375,23.796l-0.671-0.03
		c0,0-7.248,4.927-13.449,8.511c-2.854,1.649-5.5,3.021-7.106,3.486c-3.624,0.81-5.905-0.869-9.193-6.152
		c-3.288-5.292-3.969-8.018-5.135-10.368c-1.027-2.073-2.251-3.91-2.992-4.966C131.341,89.79,132.564,89.375,133.739,88.911z"/>
	<path fill="#BC9982" d="M167.943,99.634l0.671,0.03c-0.701,15.078-2.34,22.977-4.688,39.348c-5.977,1.017-10.318-0.523-11.493-4.72
		c-1.165-4.196,0-9.212,0-9.212c6.073-4.986,2.725-15.798,2.725-15.798l-0.662-1.136C160.695,104.562,167.943,99.634,167.943,99.634
		z"/>
	<path fill="#BC9982" d="M150.674,569.52c0.698-0.178,3.021-0.363,8.025,2.847c6.171,3.947,9.225,8.606,9.146,16.124
		c-5.708,1.023-9.242,1.915-18.356,3.021c-10.523,1.283-9.953-0.297-11.928-0.05s-4.197-0.493-4.938-1.479
		c-0.738-0.988-3.453-1.481-3.453-1.481s-5.187-1.234-5.927-2.469c-0.738-1.235-0.494-2.962-0.494-2.962s0,0-2.962-2.719
		c-0.481-0.441-0.81-0.938-1.017-1.448c-0.346-0.859-0.355-1.777-0.207-2.616c0.296-1.698,1.224-3.091,1.224-3.091
		c5.48,1.023,16.49-0.859,25.939-3.094c1.659-0.395,3.269-0.8,4.789-1.191L150.674,569.52z"/>
	<path fill="#4C3122" d="M155.156,109.281c0,0,3.351,10.812-2.725,15.798c-1.402,1.155-2.903,1.935-4.476,2.587l-0.569-16.035
		c1.606-0.464,4.255-1.837,7.106-3.486L155.156,109.281z"/>
	<path d="M149.29,560.109c3.417,3.077,6.51,6.675,6.941,7.188c-1.668,0.503-3.614,1.046-5.717,1.609
		c-1.521,0.395-3.13,0.8-4.789,1.191l-0.029-0.116c-1.461-3.316-2.646-5.008-7.89-8.593c-3.239-2.222-5.381-3.107-6.537-3.466
		c4.414-1.086,7.534-2.162,9.604-2.991l0.102,0.246C140.976,555.182,145.578,556.781,149.29,560.109z"/>
	<path d="M152.391,74.535c-0.958,1.027-2.37,2.527-4.028,4.157l-0.405-0.405c0,0-7.491,2.133-10.457,4.907
		c-2.692,2.528-3.611,5.253-3.762,5.717c-1.175,0.464-2.396,0.879-3.673,1.234c-0.424-0.593-0.701-0.938-0.701-0.938
		s4.127-1.205,4.188-4.167c0.059-2.972-1.176-4.286-3.861-3.95c-0.128-0.267-0.227-0.603-0.296-0.968l0.83-0.01
		c0,0,2.952-0.296,9.43-1.856C145.835,76.766,151.879,74.702,152.391,74.535z"/>
	<path fill="#A3575D" d="M147.957,78.287l0.405,0.405c-1.007,1.007-2.094,2.054-3.219,3.091c-3.456,3.169-7.178,5.47-11.404,7.129
		c0.148-0.464,1.066-3.189,3.762-5.717C140.464,80.419,147.957,78.287,147.957,78.287z"/>
	<path fill="#BC9982" d="M145.697,569.983l0.029,0.115c-9.449,2.231-20.459,4.117-25.939,3.094c0,0-0.928,1.393-1.224,3.091
		l-0.089-0.011c0,0-6.823,2.604-9.539-0.108c-2.044-2.29-1.985-4.156-1.985-4.156s-3.456,0.078-3.554-3.198
		c-0.75-0.308-0.899-1.41-0.889-2.318c0.01-0.725,0.115-1.313,0.115-1.313l7.041-2.812l2.975-0.761c0,0,7.198-0.97,17.563-3.417
		c0.365-0.091,0.724-0.168,1.066-0.259c1.155,0.355,3.298,1.244,6.537,3.468C143.051,564.978,144.235,566.666,145.697,569.983z"/>
	<path fill="#BC9982" d="M150.248,267.71c-2.558,1.757-4.562,3.495-5.655,5.233c-2.982,4.69-5.72,7.534-10.486,11.079
		c-0.563,0.415-1.195,0.869-1.876,1.343c-5.135,3.535-13.162,8.186-15.078,7.603c-2.163-0.672-2.419-2.163-2.419-2.163
		s-1.57,0.276-2.883,0.03c-2.261-0.455-2.975-2.41-2.975-2.41s-3.562,0.81-4.809-1.994c-1.234-2.794,12.757-7.652,14.07-13.903
		c0,0-17.934,9.301-19.501,5.767c-1.562-3.535,0.869-3.012,11.065-8.768c10.21-5.757,11.73-7.12,11.375-10.062
		c-0.346-2.942-7.465-4.463-9.874-7.859c-2.396-3.387-0.02-6.961,3.479-4.088c3.505,2.863,10.881,2.389,14.762,5.332
		c0.75,0.562,1.541,1.017,2.439,1.313c2.199,0.75,5.033,0.543,9.341-1.303v0.01C141.223,252.869,138.756,263.059,150.248,267.71z"/>
	<path d="M118.77,578.899l-0.464,0.217h-1.978h-3.209c0,0-0.049,1.225-0.089,2.706c-4.473-0.517-6.635-1.896-10.22-4.93
		c-3.574-3.029-4.196-4.194-4.196-7.314s2.923-3.13,2.923-3.13l0.971,0.04c-0.013,0.905,0.138,2.014,0.889,2.317
		c0.099,3.277,3.554,3.199,3.554,3.199s-0.059,1.866,1.985,4.156c2.715,2.716,9.539,0.106,9.539,0.106l0.089,0.013
		C118.414,577.122,118.425,578.04,118.77,578.899z"/>
	<path fill="#BC9982" d="M42.948,191.63c-0.985,0.603-2.318,1.027-4.273,1.382c-4.334,0.79-10.377-3.258-10.377-3.258
		s-0.197,0.148-0.714,0.168l-0.037-0.909c1.382-0.642,1.896-2.063,1.606-3.377c-0.128-0.562-0.622-0.987-1.333-1.392
		c2.034,0.879,3.18-0.415,3.518-1.57c0.323-1.155,1.074-2.38-1.562-4.187c-0.306-0.148-0.612-0.306-0.908-0.464l0.049-0.099
		c2.679,1.659,4.644-1.146,3.979-2.666c-0.662-1.521-2.726-2.567-5.431-5.006s-6.342-6.043-6.342-6.043l-0.649,0.365
		c-9.795-8.926-12.382-10.911-10.259-13.567c2.123-2.666,4.736-1.412,19.718,10.604c6.092,4.443,6.912,2.794,5.756,0.158
		c-1.146-2.626-2.626-4.67-2.468-9.539c0.168-4.877,5.599-3.624,5.599-3.624s0.987,2.962,1.649,5.924
		c0.648,2.962,1.807,5.263,4.769,8.067c2.962,2.794,1.978,5.588,3.13,9.538c1.146,3.95,6.744,7.248,6.744,7.248
		s0.987,6.25-1.479,10.713c-2.472,4.463-4.771,5.134-4.771,5.134c-3.594-2.113-5.812-3.456-5.812-3.456L42.948,191.63z"/>
	<path fill="#BC9982" d="M32.896,175.259c0.661,1.521-1.304,4.325-3.979,2.666l-0.049,0.099c-6.625-3.436-9.795-7.366-9.795-7.366
		l-0.481,0.029c-0.22-0.829-0.652-2.873-0.013-4.098c0.819-1.56,1.896-2.014,1.896-2.014l0.652-0.365c0,0,3.634,3.604,6.339,6.043
		C30.171,172.692,32.234,173.739,32.896,175.259z"/>
	<path fill="#BC9982" d="M29.775,178.488c2.637,1.807,1.886,3.031,1.562,4.187c-0.338,1.155-1.481,2.449-3.518,1.57
		c-0.938-0.533-2.251-1.057-3.644-1.896c-2.471-1.481-6.016-3.545-6.016-3.545l-0.698,0.069c-0.455-0.671-1.267-2.241-0.78-4.423
		c0.662-2.962,2.004-3.396,2.004-3.396s-0.04-0.139-0.099-0.366l0.481-0.029c0,0,3.169,3.93,9.795,7.366
		C29.163,178.182,29.469,178.34,29.775,178.488z"/>
	<path fill="#BC9982" d="M29.153,185.637c0.287,1.313-0.227,2.735-1.606,3.377l0.037,0.909c-0.787,0.04-2.301-0.188-4.977-1.57
		c-4.443-2.301-5.352-3.516-5.835-5.717c-0.494-2.202,0.968-3.396,0.968-3.396s-0.119-0.128-0.273-0.366l0.698-0.069
		c0,0,3.548,2.063,6.016,3.545c1.393,0.839,2.706,1.362,3.644,1.896C28.531,184.649,29.025,185.074,29.153,185.637z"/>
	<path d="M143.688,40.56c0.62-1.19,3.17,0.33,2.1,1.56C144.718,43.36,143.078,41.76,143.688,40.56z"/>
	<path fill="#FFFFFF" d="M145.788,42.12c1.07-1.23-1.479-2.75-2.1-1.56C143.078,41.76,144.718,43.36,145.788,42.12z M141.508,42.24
		c-0.08-0.7,0.61-3.64,0.721-4.13c1.229,0.37,1.67-0.4,6.21,1.06c4.26,1.38,6.439,4.4,6.689,4.77l-0.029,0.07
		c-0.16-0.05-0.54-0.11-1.351-0.21c-3-0.42-4.439,0.04-7.81,0.26C142.558,44.3,141.598,42.98,141.508,42.24z"/>
	<path fill="#FFFFFF" d="M139.658,78.26c-6.48,1.56-9.43,1.85-9.43,1.85l-0.83,0.01c-0.2-1.05-0.17-2.28-0.17-2.28
		c-0.601,0.09-1.16,0.07-1.681-0.02l0.061-0.39c2.43-0.17,8.359-1.31,15.26-2.63c7.12-1.36,10.81-1.67,10.81-1.67
		s-0.479,0.54-1.289,1.41C151.878,74.7,145.838,76.77,139.658,78.26z"/>
</g>
<g id="line_1_">
	<path fill="none" stroke="#000000" stroke-width="3" stroke-linecap="round" stroke-linejoin="round" d="M147.504,14.619
		c-0.013,0.01-0.021,1.235-0.029,1.245c-3.92,2.33-6.353,4.057-8.66,7.888s-0.499,7.771-6.099,16.01
		c-5.601,8.239-18.188,10.761-18.316,14.25c-0.128,3.489,2.415,7.365,6.543,9.241c4.137,1.886,7.579,2.182,9.331,3.592
		c-0.775,4.533-5.654,8.412-5.654,8.412s0.243,2.064,2.725,2.538c0.583,0.108,1.214,0.148,1.886,0.049c0,0-0.029,1.224,0.168,2.281
		c0.069,0.365,0.168,0.701,0.296,0.968c2.688-0.336,3.92,0.978,3.861,3.95c-0.062,2.962-3.91,4.512-3.486,5.105
		c0.741,1.056,3.03,2.893,4.057,4.966c1.166,2.35,1.64,6.319,4.568,11.167c2.931,4.848,5.07,6.163,8.694,5.353
		c1.606-0.464,4.255-1.837,7.106-3.486c6.201-3.584,13.449-8.511,13.449-8.511"/>
	<path fill="none" stroke="#000000" stroke-width="3" stroke-linecap="round" stroke-linejoin="round" stroke-miterlimit="10" d="
		M147.266,9.879c0,0-0.247,1.768,0.208,4.759c0.681,4.325,2.854,11.217,9.438,19.018"/>
	<path fill="none" stroke="#000000" stroke-width="3" stroke-linecap="round" stroke-linejoin="round" stroke-miterlimit="10" d="
		M156.933,33.676c2.732,3.249,6.25,6.655,10.743,10.101c0,0,1.152-2.301,1.312,32.091c0.049,9.943-0.079,17.497-0.375,23.796
		c-0.701,15.078-2.34,22.977-4.688,39.348c-0.069,0.454-0.128,0.909-0.197,1.373c-3.456,24.349-12.175,62.207-12.175,62.207
		s4.44-0.336,8.887-8.729c0,0,3.456-6.082,3.456-6.418"/>
	<path fill="none" stroke="#000000" stroke-width="3" stroke-linecap="round" stroke-linejoin="round" stroke-miterlimit="10" d="
		M163.894,187.434c0,0,0.01,0,0,0.01c0.178,0.287,1.906,6.319,0.494,10.861c-1.481,4.779-1.481,4.779-1.481,4.779
		s0.819,2.133,10.121,1.234c9.292-0.908,14.722-3.376,14.722-3.376s-0.648-14.644,1.155-33.74c1.81-19.086,1.85-26.304,5.434-29.099
		c5.757-4.67,11.204,0.326,11.503,0.612"/>
	<path fill="none" stroke="#000000" stroke-width="3" stroke-linecap="round" stroke-linejoin="round" stroke-miterlimit="10" d="
		M138.291,21.639c0,0-2.874-2.705-1.057-6.161c1.807-3.456,5.925-5.767,7.731-9.548c1.807-3.782,10.691-2.301,26.657,3.456
		c15.969,5.756,33.897,7.08,33.078,63.026c-0.8,54.919,1.066,65.919,1.138,66.304v0.01"/>
	<path fill="none" stroke="#000000" stroke-width="1.5" stroke-linecap="round" stroke-linejoin="round" stroke-miterlimit="10" d="
		M143.485,29.469c0,0,1.856-0.839,5.431,0c3.438,0.81,7.675,3.95,7.998,4.188c0.013,0.01,0.021,0.02,0.021,0.02"/>
	<path fill="none" stroke="#000000" stroke-width="1.5" stroke-linecap="round" stroke-linejoin="round" stroke-miterlimit="10" d="
		M128.535,35.641c0,0,0.632,1.066,3.288,1.649s1.592,0.583,1.592,0.583"/>
	<path fill="none" stroke="#000000" stroke-width="1.5" stroke-linecap="round" stroke-linejoin="round" stroke-miterlimit="10" d="
		M144.847,33.913c0,0-0.645,1.955-1.856,2.814c-1.225,0.859-3.624,0.316-4.769-0.267c-0.839-0.425,0.553,0.583,4.009,1.649
		c1.224,0.375,1.665-0.402,6.208,1.066c4.543,1.468,6.717,4.809,6.717,4.809"/>
	<path fill="none" stroke="#000000" stroke-linecap="round" stroke-linejoin="round" stroke-miterlimit="10" d="M142.25,38.04
		c0,0-0.01,0.02-0.02,0.069c-0.109,0.494-0.8,3.436-0.721,4.127c0.089,0.741,1.048,2.065,4.425,1.828
		c3.377-0.227,4.812-0.688,7.81-0.268c0.931,0.119,1.293,0.188,1.402,0.237c0.138,0.049-0.148,0.059-0.148,0.059"/>
	<path fill="none" stroke="#000000" stroke-width="2.5" stroke-linecap="round" stroke-linejoin="round" stroke-miterlimit="10" d="
		M143.685,40.564c-0.612,1.195,1.036,2.793,2.102,1.559C146.853,40.889,144.307,39.369,143.685,40.564z"/>
	<path fill="none" stroke="#000000" stroke-width="1.5" stroke-linecap="round" stroke-linejoin="round" stroke-miterlimit="10" d="
		M127.143,62.597c0.928-0.375,1.441-0.721,3.377,0.109c1.936,0.819-0.74,4.502,3.771,3.081c4.505-1.412,3.189-4.068,2.965-4.809
		c2.278,1.56,3.147,2.389,4.688,3.535"/>
	<path fill="none" stroke="#000000" stroke-width="1.5" stroke-linecap="round" stroke-linejoin="round" stroke-miterlimit="10" d="
		M127.39,77.438c2.271-0.109,8.354-1.274,15.479-2.636c7.119-1.363,10.805-1.669,10.805-1.669s-0.477,0.533-1.284,1.402
		c-0.958,1.027-2.37,2.527-4.028,4.157c-1.007,1.007-2.094,2.054-3.219,3.091c-3.456,3.169-7.178,5.47-11.404,7.129
		c-1.175,0.464-2.396,0.879-3.673,1.234c-0.089,0.029-0.188,0.059-0.286,0.089"/>
	<path fill="none" stroke="#000000" stroke-width="1.5" stroke-linecap="round" stroke-linejoin="round" d="M130.224,80.113
		c0,0,2.952-0.296,9.43-1.856c6.181-1.491,12.227-3.555,12.737-3.722c0.03-0.02,0.04-0.02,0.04-0.02"/>
	<path fill="none" stroke="#000000" stroke-width="1.5" stroke-linecap="round" stroke-linejoin="round" d="M133.719,88.98
		c0,0,0.01-0.02,0.02-0.069c0.148-0.464,1.066-3.189,3.762-5.717c2.965-2.774,10.457-4.907,10.457-4.907"/>
	<path fill="none" stroke="#000000" stroke-width="1.5" stroke-linecap="round" stroke-linejoin="round" d="M150.762,70.476
		c0,0,1.192,1.166,3.259,2.311c2.054,1.155,5.628,2.133,5.628,2.133"/>
	<path fill="none" stroke="#000000" stroke-width="2" stroke-linecap="round" stroke-linejoin="round" d="M184.463,50.363v14.811
		c0,0,6.229,2.844,6.171-7.405c-0.062-10.25-3.093-9.756-3.093-9.756S184.463,46.907,184.463,50.363z"/>
	<path fill="none" stroke="#000000" stroke-width="3" stroke-linecap="round" stroke-linejoin="round" stroke-miterlimit="10" d="
		M155.156,109.281c0,0,3.351,10.812-2.725,15.798c-1.402,1.155-2.903,1.935-4.476,2.587c-6.042,2.518-13.083,3.021-19.104,14.525
		c-7.583,14.485-29.691,50.209-34.292,50.9c-4.611,0.701-11.158-1.303-21.555-5.48c-10.397-4.177-17.895-8.225-17.895-8.225
		s-5.599-3.298-6.744-7.248c-1.152-3.95-0.167-6.744-3.13-9.538c-2.962-2.805-4.118-5.105-4.769-8.067
		c-0.662-2.962-1.649-5.924-1.649-5.924s-5.431-1.254-5.599,3.624c-0.158,4.868,1.322,6.912,2.468,9.539
		c1.155,2.636,0.336,4.285-5.756-0.158c-14.979-12.017-17.596-13.271-19.718-10.604c-2.123,2.656,0.464,4.641,10.259,13.567
		c0,0-1.076,0.454-1.896,2.014c-0.642,1.225-0.208,3.269,0.013,4.098c0.059,0.227,0.099,0.366,0.099,0.366s-1.343,0.434-2.004,3.396
		c-0.484,2.182,0.326,3.752,0.78,4.423c0.155,0.237,0.273,0.366,0.273,0.366s-1.461,1.194-0.968,3.396
		c0.484,2.202,1.392,3.417,5.835,5.717c2.676,1.382,4.187,1.609,4.977,1.57c0.517-0.02,0.714-0.168,0.714-0.168
		s6.043,4.048,10.377,3.258c1.952-0.355,3.285-0.78,4.273-1.382c1.214-0.721,1.916-1.688,2.636-3.041"/>
	<path fill="none" stroke="#000000" stroke-width="1.5" stroke-linecap="round" stroke-linejoin="round" stroke-miterlimit="10" d="
		M21.126,164.21c0,0,3.637,3.604,6.342,6.043c2.706,2.438,4.77,3.485,5.431,5.006s-1.304,4.325-3.979,2.666"/>
	<path fill="none" stroke="#000000" stroke-width="1.5" stroke-linecap="round" stroke-linejoin="round" stroke-miterlimit="10" d="
		M19.072,170.658c0,0,3.169,3.93,9.795,7.366c0.296,0.158,0.604,0.316,0.908,0.464c2.637,1.807,1.886,3.031,1.562,4.187
		c-0.338,1.155-1.481,2.449-3.518,1.57"/>
	<path fill="none" stroke="#000000" stroke-width="1.5" stroke-linecap="round" stroke-linejoin="round" stroke-miterlimit="10" d="
		M18.163,178.804c0,0,3.545,2.063,6.016,3.545c1.393,0.839,2.706,1.362,3.644,1.896c0.711,0.405,1.205,0.83,1.333,1.392
		c0.287,1.313-0.227,2.735-1.606,3.377"/>
	<path fill="none" stroke="#000000" stroke-width="1.5" stroke-linecap="round" stroke-linejoin="round" stroke-miterlimit="10" d="
		M40.054,176.503c0,0-2.392-1.205-3.041-5.401c-0.662-4.197-0.335-7.307-0.335-7.307"/>
	<path fill="none" stroke="#000000" stroke-width="3" stroke-linecap="round" stroke-linejoin="round" stroke-miterlimit="10" d="
		M43.047,191.779c0,0,2.222,1.343,5.812,3.456c7.05,4.147,19.363,11.256,30.562,17.062c16.913,8.768,21.986,6.487,31.725-1.293
		c8.995-7.188,18.445-18.948,19.817-20.686c0.116-0.138,0.178-0.217,0.178-0.217"/>
	<path fill="none" stroke="#000000" stroke-width="1.5" stroke-linecap="round" stroke-linejoin="round" stroke-miterlimit="10" d="
		M48.862,195.234c0,0,2.301-0.671,4.771-5.134c2.468-4.463,1.479-10.713,1.479-10.713"/>
	<path fill="none" stroke="#000000" stroke-width="3" stroke-linecap="round" stroke-linejoin="round" stroke-miterlimit="10" d="
		M133.719,155.521c0,0-2.057,13.942-2.755,34.796c-0.316,9.281-0.355,19.945,0.178,31.36c0.494,24.359,0.918,31.933,0.918,31.933"/>
	
		<line fill="none" stroke="#000000" stroke-width="3" stroke-linecap="round" stroke-linejoin="round" stroke-miterlimit="10" x1="147.385" y1="111.631" x2="147.957" y2="127.667"/>
	<path fill="none" stroke="#000000" stroke-width="1.5" stroke-linecap="round" stroke-linejoin="round" stroke-miterlimit="10" d="
		M152.43,125.08c0,0-1.165,5.016,0,9.212c1.175,4.196,5.52,5.737,11.493,4.72"/>
	<path fill="none" stroke="#000000" stroke-width="3" stroke-linecap="round" stroke-linejoin="round" stroke-miterlimit="10" d="
		M211.133,164.22c-0.221,5.865-0.691,13.784-1.491,24.793c-0.108,1.432-0.197,2.844-0.286,4.216
		c-1.313,19.936-1.362,33.809-4.996,42.004c-0.889,1.984-1.975,3.633-3.348,4.957c-11.424,7.534-25.142,13.508-34.549,18.445
		c-5.927,3.11-11.881,6.112-16.216,9.074c-2.558,1.757-4.562,3.495-5.655,5.233c-2.982,4.69-5.72,7.534-10.486,11.079
		c-0.563,0.415-1.195,0.869-1.876,1.343c-5.135,3.535-13.162,8.186-15.078,7.603c-2.163-0.672-2.419-2.163-2.419-2.163
		s-1.57,0.276-2.883,0.03c-2.261-0.455-2.972-2.41-2.972-2.41s-3.564,0.81-4.812-1.994c-1.234-2.794,12.757-7.652,14.07-13.903
		c0,0-17.934,9.301-19.501,5.767c-1.562-3.535,0.869-3.012,11.065-8.768c10.21-5.757,11.73-7.12,11.375-10.062
		c-0.346-2.942-7.465-4.463-9.874-7.859c-2.396-3.387-0.02-6.961,3.479-4.088c3.505,2.863,10.881,2.389,14.762,5.332
		c0.75,0.562,1.541,1.017,2.439,1.313c2.199,0.75,5.034,0.543,9.341-1.303c2.992-1.274,6.685-3.328,11.385-6.408
		c14.179-9.292,33.749-22.878,33.749-22.878s1.066-9.469,1.393-22.631"/>
	<path fill="none" stroke="#000000" stroke-width="3" stroke-linecap="round" stroke-linejoin="round" stroke-miterlimit="10" d="
		M205.848,138.726c0,0,3.792,4.374,4.778,9.558c0.594,3.09,0.828,7.287,0.505,15.927"/>
	<path fill="none" stroke="#000000" stroke-width="3" stroke-linecap="round" stroke-linejoin="round" stroke-miterlimit="10" d="
		M211.133,164.21c0,0.01,0,0.01,0,0.01c0.115,0.474,3.979,16.697,6.898,19.689c2.963,3.041,2.963,3.041,2.963,3.041l-11.642,6.28"/>
	<path fill="none" stroke="#000000" stroke-width="1.5" stroke-linecap="round" stroke-linejoin="round" d="M107.938,287.734
		c0,0,5.944-1.975,10.881-5.431c4.938-3.456,7.271-5.786,7.271-5.786"/>
	<path fill="none" stroke="#000000" stroke-width="1.5" stroke-linecap="round" stroke-linejoin="round" d="M114.564,290.015
		c6.003-1.748,14.149-8.59,15.798-10.249"/>
	<path fill="none" stroke="#000000" stroke-width="1.5" stroke-linecap="round" stroke-linejoin="round" stroke-miterlimit="10" d="
		M141.223,252.869c0,0-2.468,10.19,9.022,14.841"/>
	<path fill="none" stroke="#000000" stroke-width="3" stroke-linecap="round" stroke-linejoin="round" stroke-miterlimit="10" d="
		M204.358,235.234c0,0-2.637,27.874,2.152,51.118c0.896,4.374,1.6,8.778,2.11,13.123c2.264,18.751,1.346,36.356,0.355,45.282
		c-1.215,11,2.311,93.98,4.442,118.018c2.144,24.021,15.799,67.795,15.799,67.795s-6.911,7.896-11.188,15.473
		c-3.93,6.971-7.611,13.093-14.061,16.074c-0.562,0.267-1.146,0.504-1.747,0.711c-7.563,2.637-27.312,1.976-27.312,1.976
		s-1.399-1.551-4.216-4.273c-0.481-0.466-1.007-0.97-1.58-1.514c-1.175-1.112-2.538-2.379-4.078-3.762
		c-6.573-5.924-13.82-7.899-13.485-18.425c0.323-10.535,5.875-91.137,3.611-133.003c-2.261-41.866-2.794-77.481-2.794-82.094
		c0-4.604-5.184-7.068-5.184-7.068"/>
	<path fill="none" stroke="#000000" stroke-width="3" stroke-linecap="round" stroke-linejoin="round" stroke-miterlimit="10" d="
		M132.228,285.365c0,0,0.395,3.9,0.79,15.808c0.276,8.116,0.553,19.965,0.701,36.853c0.385,41.639-2.479,57.604-5.045,105.985
		c-2.567,48.383-3.545,46.263-4.771,58.102c-1.225,11.839-5.925,26.153,8.228,37.679c9.693,7.89,8.824,11.089,12.342,13.311
		c1.606,1.02,4.146,1.839,9.055,2.814c15.591,3.1,15.591,3.1,15.591,3.1"/>
	<path fill="none" stroke="#000000" stroke-width="1.5" stroke-linecap="round" stroke-linejoin="round" stroke-miterlimit="10" d="
		M133.196,301.163c0,0,52.809,11.434,75.072-1.649"/>
	<path fill="none" stroke="#000000" stroke-width="3" stroke-linecap="round" stroke-linejoin="round" stroke-miterlimit="10" d="
		M170.698,560.522c0,0-2.646,2.213-8.354,4.593c-1.629,0.682-3.505,1.373-5.648,2.034c-0.146,0.05-0.306,0.089-0.464,0.146
		c-1.668,0.503-3.614,1.046-5.717,1.609c-1.521,0.395-3.13,0.8-4.789,1.191c-9.449,2.231-20.459,4.117-25.939,3.091
		c0,0-0.928,1.396-1.224,3.094c-0.148,0.839-0.139,1.757,0.207,2.613c0.208,0.517,0.533,1.01,1.017,1.451
		c2.962,2.717,2.962,2.717,2.962,2.717s-0.244,1.729,0.494,2.964c0.74,1.231,5.924,2.469,5.924,2.469s2.718,0.493,3.456,1.479
		c0.74,0.987,2.965,1.729,4.938,1.48c1.975-0.247,1.402,1.333,11.928,0.05c9.114-1.104,12.648-1.995,18.356-3.021
		c0.889-0.157,1.827-0.315,2.854-0.483c2.488-0.404,4.749-0.622,6.862-0.711c4.375-0.179,8.117,0.208,11.8,0.711
		c5.471,0.741,9.914,0.494,13.123-2.962c1.451-1.57,2.448-3.495,3.011-5.608c0.691-2.548,0.741-5.381,0.198-8.215
		c-0.987-5.185-1.719-9.104-1.719-9.104"/>
	<path fill="none" stroke="#000000" stroke-width="3" stroke-linecap="round" stroke-linejoin="round" stroke-miterlimit="10" d="
		M205.73,579.492c0,0,2.508-1.176,3.495,1.787c0.988,2.962,0.208,4.473-1.579,6.444c-1.787,1.977-3.723,6.924-17.053,6.185
		c-13.33-0.741-23.187,0.997-33.799,1.735c-10.615,0.74-14.311,3.715-26.65,1.243c-12.343-2.468-16.776-8.758-17.023-10.483
		c-0.128-0.918-0.115-2.912-0.089-4.581c0.04-1.481,0.089-2.706,0.089-2.706h3.209h1.978"/>
	<path fill="none" stroke="#000000" stroke-width="1.5" stroke-linecap="round" stroke-linejoin="round" stroke-miterlimit="10" d="
		M150.436,569.608c0,0,0.079-0.04,0.237-0.092c0.698-0.178,3.021-0.363,8.025,2.847c6.171,3.946,9.225,8.606,9.146,16.124"/>
	<path fill="none" stroke="#000000" stroke-width="1.5" stroke-linecap="round" stroke-linejoin="round" stroke-miterlimit="10" d="
		M162.265,565.925c0,0,0.158,0.04,0.474,0.139c0.938,0.286,3.199,1.178,6.378,3.518c4.236,3.12,5.964,5.342,7.198,9.538
		c1.195,4.059,1.244,7.919,1.244,8.176c0,0.01,0,0.01,0,0.01"/>
	<path fill="none" stroke="#000000" stroke-width="3" stroke-linecap="round" stroke-linejoin="round" stroke-miterlimit="10" d="
		M144.334,553.306c0,0-1.017,0.652-3.453,1.63c-2.073,0.829-5.194,1.905-9.607,2.991c-0.346,0.089-0.701,0.168-1.066,0.257
		c-10.365,2.449-17.563,3.417-17.563,3.417l-2.973,0.763l-7.04,2.812c0,0-0.108,0.592-0.118,1.313
		c-0.013,0.907,0.138,2.014,0.889,2.317c0.099,3.277,3.554,3.199,3.554,3.199s-0.059,1.866,1.985,4.156
		c2.715,2.716,9.539,0.107,9.539,0.107"/>
	<path fill="none" stroke="#000000" stroke-width="3" stroke-linecap="round" stroke-linejoin="round" stroke-miterlimit="10" d="
		M101.54,566.448c0,0-2.923,0.01-2.923,3.13s0.622,4.285,4.196,7.317c3.584,3.028,5.747,4.41,10.22,4.927"/>
	<path fill="none" stroke="#000000" stroke-width="1.5" stroke-linecap="round" stroke-linejoin="round" stroke-miterlimit="10" d="
		M130.204,557.69c0,0,0.349,0.02,1.066,0.233c1.155,0.355,3.298,1.244,6.537,3.466c5.243,3.586,6.428,5.273,7.89,8.594"/>
	<path fill="none" stroke="#000000" stroke-width="1.5" stroke-linecap="round" stroke-linejoin="round" stroke-miterlimit="10" d="
		M140.976,555.182c0,0,4.602,1.603,8.312,4.931c3.417,3.08,6.51,6.675,6.941,7.188c0.04,0.049,0.06,0.068,0.06,0.068"/>
</g>
</svg>
