<?xml version="1.0" encoding="utf-8"?>
<!-- Generator: Adobe Illustrator 16.0.0, SVG Export Plug-In . SVG Version: 6.00 Build 0)  -->
<!DOCTYPE svg PUBLIC "-//W3C//DTD SVG 1.1//EN" "http://www.w3.org/Graphics/SVG/1.1/DTD/svg11.dtd">
<svg version="1.1" id="Layer_1" xmlns="http://www.w3.org/2000/svg" xmlns:xlink="http://www.w3.org/1999/xlink" x="0px" y="0px"
	 width="363.236px" height="361.029px" viewBox="0 0 363.236 361.029" enable-background="new 0 0 363.236 361.029"
	 xml:space="preserve">
<g id="colour">
	<path d="M308.876,323.094l0.03,6.7c0,0,2.521,2.659,11.311,2.85c8.804,0.19,14-2.17,14-2.17v-6.811l0.699-0.011
		c0,0.229,0.013,0.449,0.013,0.682c0,0,7.672,2.119,8.788,5.6c1.119,3.479,1.771,11.803-21.141,11.133s-24.229-7.319-24.24-10.343
		c-0.01-3.021,3.16-6.147,9.98-7.061c0,0,0-0.181,0.01-0.579L308.876,323.094z"/>
	<path fill="#F29100" d="M321.907,282.894c0,0-2.81-0.209-3.43-3.08c-0.61-2.869,2.87-4.271,2.47-8.09
		c-0.39-3.82,4.38,0.51,4.92,5.143C326.397,281.494,324.597,282.733,321.907,282.894z M321.907,281.664c1.01-0.108,0-2.021,0-2.021
		S320.897,281.772,321.907,281.664z"/>
	<path fill="#F9F1D7" d="M321.907,285.515c0.812,0.021,1.67,0.062,2.58,0.129c0,0,5.17,0.451,7.97-0.141
		c2.79-0.568,2.03,12.551,2.46,38.149l-0.699,0.011v6.811c0,0-5.196,2.359-14,2.17c-8.788-0.188-11.311-2.85-11.311-2.85l-0.03-6.7
		l-0.55-0.011c0.05-2.229,0.37-11.359,2.46-35.689C310.787,287.394,314.197,285.354,321.907,285.515z"/>
	<path fill="#BB9881" d="M290.607,278.123c3.391-0.56,3.811,2.979,2.59,4.729c-1.221,1.76-3.051,1.83-5.471,3.062
		c-3.398,1.729-6.879,3.729-6.879,3.729s-0.15,0.209-0.41,0.521l-0.73-0.451l4.604-10.139l1.021-0.49
		C285.328,279.084,287.216,278.685,290.607,278.123z"/>
	<path fill="#BB9881" d="M284.626,272.896l0.23-0.711c2.84,1.75,0.471,6.898,0.471,6.898l-1.021,0.49l-4.604,10.139l0.73,0.451
		c-0.562,0.688-1.631,1.893-2.699,2.527c-0.461,0.189-0.951,0.303-1.441,0.342c-2.105,0.211-4.26-0.631-4.26-0.631
		s-0.039,0.029-0.129,0.092l-0.58-0.711c0,0,0.021-0.039,0.062-0.109c0.107-0.18,0.326-0.602,0.602-1.211
		c1.639-3.289,5.859-11.816,7.289-15.102c0.18-0.42,0.32-0.76,0.397-0.979C280.476,272.112,282.635,272.272,284.626,272.896z"/>
	<path fill="#BB9881" d="M284.857,272.185l-0.23,0.711c-1.986-0.621-4.146-0.779-4.947,1.489c-0.078,0.22-0.223,0.56-0.398,0.979
		l-0.18-0.08c0,0-3.939,1.971-5.604-1.01l-0.131,0.02c-0.229-1.236-0.59-2.129-1.26-2.438c-1.49-0.698-3.895-1.51-4.41,7.012
		c-0.51,8.51-4.85,13.488-4.85,13.488l0.061,0.91c0,0-0.811,0.312-2.641,0.43c-1.83,0.133-7.92-5.979-12.65-11.68
		c-4.729-5.688-4.02-7.58-4.02-7.58s-0.5-0.393-1.371-1.08c3.592-9.898,11.012-9.277,11.012-9.277c1.059,1.367,1.67,2.17,1.67,2.17
		s5.76-3.271,9.459-2.852c3.701,0.42,5.939,2.561,9.939,3.709s8.881,0.49,8.881,0.49s3.27,0.777,1.17,4.34
		C284.537,272.004,284.707,272.094,284.857,272.185z"/>
	<path fill="#5C9A98" d="M166.726,267.896l-0.359-0.604c2.961-1.799,6.09-3.641,9.801-5.061c11.771-4.51,23.369-5.529,27.32-5.76
		v0.01c0,0,23.789,4.641,29.289,9.17c4.08,3.41,7.608,6.24,9.449,7.699c0.871,0.688,1.371,1.08,1.371,1.08s-0.711,1.893,4.02,7.58
		c4.73,5.697,10.82,11.812,12.65,11.68c1.83-0.117,2.641-0.43,2.641-0.43s0.93,1.357,3.6,1.35c2.344-0.01,4.82-1.688,5.4-2.117
		c0.09-0.062,0.129-0.092,0.129-0.092s2.15,0.842,4.26,0.631c0,0,6.711,3.988,5.711,12.147c-1,8.171-0.34,17.171-17.34,25.843
		c-17,8.657-27.83,13.827-35.16,14.157c-7.34,0.343-14-8.5-35.5-8.157c-21.5,0.327-46,1.327-46,1.327s-2.09-1.76-6.357-6.709
		c-0.988-1.147-2.09-2.461-3.312-3.961c-6.5-8-14.17-10.157-10.5-21c0.094-0.25,0.17-0.51,0.264-0.76
		c1.84-5.24,4.397-10.819,7.567-15.399c1.279-1.84,2.65-3.521,4.119-4.938c1.604-1.568,3.312-2.84,5.121-3.698
		c0.789-0.382,1.603-0.683,2.43-0.892c1.844-0.473,3.812-0.92,5.812-1.342l-0.09-0.439
		C154.876,276.324,160.318,271.765,166.726,267.896z M241.017,293.556l-0.014-1.201l3.33-6.67v-2.021c-2-3.028-6.08-2.67-6.08-2.67
		s-0.59-1.972-2.92-2.222s-3.75,0.92-3.75,0.92s-1.75-1.01-3.25-0.93c-1.5,0.077-2.26,0.93-2.26,0.93s-0.67-0.853-2.84-0.93
		c-2.17-0.08-3.892,1.5-3.892,1.5c-3.5,0.17-4.159,2.696-4.159,2.696c-0.23-0.021-0.439-0.039-0.65-0.049
		c-6.379-0.382-6.729,2.539-11.369,4.438c-4.801,1.961-6.871,1.479-6.871,1.479l-0.049,0.09c5.892,3.211,13.142,5.82,21.09,5.688
		C227.527,294.442,235.078,293.584,241.017,293.556z"/>
	<path fill="#BB9881" d="M279.097,275.283l0.18,0.079c-1.43,3.281-5.65,11.812-7.289,15.101c0.85-1.946,2.199-5.92,1.85-11.049
		c-0.131-1.897-0.211-3.729-0.471-5.121l0.131-0.021C275.158,277.254,279.097,275.283,279.097,275.283z"/>
	<path fill="#BB9881" d="M273.837,279.414c0.354,5.129-1,9.103-1.85,11.049c-0.301,0.604-0.512,1.031-0.604,1.211
		c-0.035,0.07-0.059,0.109-0.059,0.109l0.58,0.711c-0.58,0.43-3.062,2.108-5.4,2.118c-2.67,0.011-3.6-1.35-3.6-1.35l-0.062-0.91
		c0,0,4.343-4.979,4.853-13.49c0.52-8.521,2.92-7.709,4.41-7.01c0.67,0.312,1.025,1.201,1.26,2.438
		C273.626,275.685,273.707,277.515,273.837,279.414z"/>
	<path fill="#EED95F" d="M200.257,250.653c1.684,0.931,3.439,2.359,4.65,5.761c0,0-0.5,0.01-1.42,0.062
		c-3.951,0.229-15.551,1.25-27.32,5.76c-3.711,1.422-6.84,3.262-9.801,5.061c-8.609,5.24-15.859,10.211-32.221,3.893
		c-1.789-0.898-3.568-1.729-5.312-2.479c-0.01,0-0.027-0.011-0.041-0.021c-16.816-7.277-30.629-7.938-30.629-7.938l-0.33-0.521
		l2.62-4.291c0,0,7.96-4.521,8.13-10.648c0.17-6.119,0.04-41.938,0.04-41.938l0.99-0.398c1.17,2.54,2.779,5.26,4.96,7.67
		c0,0,8.16,5.658,12.83,6.658c0,0-4.931-18.75-7.102-72.148c1.288-0.3,6.352-1.55,10.84-3.479c0,0,18.438,22.66,37.188-1.21
		l0.049-0.08c1.531,0.9,3.361,1.58,5.555,1.97h0.066c-3.199,67.59-13.871,74.709-14.26,74.938c12.18-4.76,15-20.209,15.299-22.129
		l-0.639,4.897c-0.971,12.353-3.031,16.949-3.15,17.229l15.82-5.319l1-3.67c2.029-17.222,2.389-40.88,2.08-63.26h0.119
		c11.938,6.42,9.979,8.89,21.471,45.699c0,0,7.979,29.28,11.299,33.818c2.83,3.881,24.041,31.531,30.191,39.541
		c0,0-7.42-0.621-11.014,9.279c-1.842-1.459-5.367-4.289-9.447-7.699c-8.562-7.16-19.562-16.93-22.66-22.211
		c-5.289-9-14.49-30.489-17.279-48.76c0,0,1.83,44.646,2.41,50.75c0.34,3.561,2.57,3.891,4.959,5.188
		C200.226,250.635,200.248,250.646,200.257,250.653z"/>
	<path fill="#BB9881" d="M228.748,287.635v-0.013c1.199,0.513,1.66-2.039,1.66-2.039s-1.32-2.66,1.1-4.818l0.08-1.07
		c0,0,1.42-1.17,3.75-0.92s2.92,2.223,2.92,2.223s4.08-0.357,6.08,2.67v2.021l-3.33,6.67l0.014,1.201
		c-5.939,0.026-13.49,0.889-23.684,1.06c-7.947,0.131-15.197-2.479-21.09-5.688l0.049-0.092c0,0,2.07,0.479,6.871-1.479
		c4.643-1.899,4.99-4.819,11.369-4.438c0.145,0.24,1.32,1.894,5.961,2.644C223.667,286.063,226.427,286.515,228.748,287.635z"/>
	<path fill="#BB9881" d="M231.587,279.692l-0.08,1.07c-2.42,2.157-1.1,4.817-1.1,4.817s-0.461,2.551-1.66,2.039v0.012
		c-2.32-1.118-5.08-1.567-8.25-2.078c-4.641-0.75-5.82-2.399-5.961-2.643c0.211,0.01,0.42,0.028,0.65,0.049
		c0,0,0.66-2.526,4.16-2.696c0,0,1.721-1.58,3.891-1.5c2.17,0.077,2.84,0.93,2.84,0.93s0.76-0.853,2.26-0.93
		C229.837,278.683,231.587,279.692,231.587,279.692z"/>
	<path fill="#BB9881" d="M187.818,63.055c1.25,0.58,3.869,2.26,3.77,6.25c-0.09,3.75-2.08,6.97-3.211,8.51
		c-1.229,0.78-3.08-0.01-3.08-0.01s0.031-6.37,0.041-8.931c0.014-2.569,0.039-4.819,0.039-4.819S185.837,62.675,187.818,63.055z"/>
	<path fill="#4C3122" d="M148.876,14.555l2.451-0.021l4.51-2.52c0,0,11,3.34,21,21c10,17.67,10.33,29.79,10.33,29.79
		s0.262,0.069,0.65,0.25c-1.98-0.381-2.441,1-2.441,1s-0.025,2.25-0.039,4.819c-0.01,2.561-0.041,8.931-0.041,8.931
		s1.854,0.79,3.08,0.01c-0.447,0.62-0.77,0.97-0.77,0.97s2.08,31.59,2.551,66.23c0.309,22.38-0.051,46.042-2.08,63.258l-1,3.67
		l-15.82,5.32c0.119-0.279,2.184-4.882,3.15-17.229l0.639-4.898c-0.299,1.92-3.119,17.369-15.299,22.131
		c0.393-0.229,11.062-7.352,14.26-74.938c0.594-12.64,0.934-27.41,0.893-44.64c-0.021-12.54-0.25-26.391-0.729-41.67l0.34-2.34
		v-0.011c-14.697-5.83-29.34-29.31-29.34-29.31s-3.801,8.24-10.85,18.479c-7.051,10.23-14.741,17.351-14.741,17.351
		c-0.181,11.04-0.271,21.39-0.271,31.06c0,0.01,0,0.01,0,0.021c0,20.95,0.391,38.79,1,53.859c2.17,53.399,7.101,72.149,7.101,72.149
		c-4.67-1-12.83-6.659-12.83-6.659c-2.181-2.41-3.79-5.132-4.96-7.67c-2.229-4.851-2.88-9.029-2.88-9.029l0.27-43.971l0.44-70.99
		c-0.25-0.33-0.511-0.649-0.771-0.979l0.474-0.26c1.891,1.6,3.091,0.64,3.091,0.64s-0.08-3.67-0.021-8.17
		c0.053-4.5,0.053-6.17,0.053-6.17l-3.199-0.08l0.01-0.46c0.34-0.12,0.55-0.17,0.55-0.17c1.421-11.24,5.882-19.29,11.54-28.29
		c5.67-9,13.151-16.681,17.763-19.761C140.226,13.055,145.908,13.895,148.876,14.555z"/>
	<path fill="#4C3122" d="M174.896,97.685c0.041,17.229-0.299,32-0.893,44.64h-0.066c-2.189-0.39-4.021-1.07-5.555-1.97
		c-9.736-5.7-7.115-19.9-7.115-19.9c2.25-2.46,4.33-5.06,5.896-7.439c5.17-7.83,7.629-15.33,7.629-15.33L174.896,97.685
		L174.896,97.685z"/>
	<path fill="#BB9881" d="M174.896,97.685h-0.104c0,0-2.459,7.5-7.629,15.33c-1.566,2.38-3.646,4.979-5.896,7.439
		c-5.16,5.62-11.25,10.51-14.264,10.4c-2.447-0.101-5.381-1.38-8.938-4.24c-2.73-2.21-5.842-5.35-9.4-9.6
		c-7.63-9.15-9.188-23.87-9.357-25.75c0-0.011,0-0.011,0-0.021c0-9.67,0.09-20.02,0.271-31.06c0,0,7.689-7.12,14.741-17.351
		c7.049-10.239,10.85-18.479,10.85-18.479s14.643,23.479,29.342,29.31v0.01l-0.342,2.341
		C174.646,71.294,174.876,85.145,174.896,97.685z"/>
	<path fill="#BB9881" d="M168.386,140.354l-0.053,0.08c-18.75,23.87-37.188,1.21-37.188,1.21c1.211-0.521,2.391-1.09,3.432-1.71
		c5.49-3.25,3.49-13.32,3.49-13.32c3.559,2.86,6.488,4.14,8.938,4.24c3.014,0.109,9.104-4.78,14.264-10.4
		C161.267,120.455,158.646,134.655,168.386,140.354z"/>
	<path fill="#5C9A98" d="M166.367,267.293l0.359,0.604c-6.408,3.869-11.854,8.431-13.67,11.315l0.09,0.44
		c-2,0.421-3.973,0.869-5.812,1.341c-0.83,0.209-1.641,0.51-2.43,0.891l-0.141-0.301c-3.055-6.472-9.385-8.188-15.934-12.881
		c1.74,0.75,3.521,1.58,5.312,2.479C150.507,277.504,157.757,272.533,166.367,267.293z"/>
	<path fill="#5C9A98" d="M91.217,339.693c-1.05,0.487-1.729,1.108-1.938,1.932c-1.73,2.56-7.854,4.3-17.19,3.81
		c-9.33-0.487-26.43-11-26.43-11c-8.931-5.75-18.82-4.25-23.57-17.75s7.724-19.17,7.724-19.17l0.271-0.392
		c0.63,0.603,1.46,1.32,2.26,1.729c2.5,0.83,5.673-0.67,5.673-0.67s3,2,5.657,1.83c2.67-0.16,3.5-1.58,3.5-1.58
		s0.843,0.25,2.67,0.25c1.83,0,7.5-6.499,11.83-12.499c4.343-6,3.5-7.83,3.5-7.83s0.474-0.42,1.304-1.17
		c1.771-1.607,5.17-4.729,9.09-8.49c10.771-5.34,21.026-7.629,21.026-7.629l1.25-0.84l0.33,0.521c0,0,13.812,0.658,30.629,7.938
		c0.014,0.01,0.031,0.021,0.041,0.021c6.553,4.689,12.882,6.408,15.934,12.881l0.141,0.303c-1.811,0.857-3.521,2.129-5.121,3.697
		c-0.738-7.682-8.479-9.771-14.198-8.41c-5.75,1.369-8.868,0-8.868,0s-5.689-4.51-7.132-5.738c-1.439-1.229-4.75-1.25-4.75-1.25
		c-1.062-1.379-4.642-2.357-6.358-1.08c-2.971-2.148-5.689-0.448-5.689-0.448s-0.04-0.03-0.106-0.062
		c-0.302-0.16-1.223-0.539-2.644-0.24c-1.76,0.381-2.34,1.84-2.34,1.84s-1.818-0.93-3.87,0.148c-2.061,1.07-1.606,2.723-1.606,2.723
		c-0.189-0.029-0.381-0.062-0.562-0.068c-3.87-0.479-5.761,1.719-5.761,1.719c-1.5,2.99-0.079,4.031,1.45,5.531
		c1.521,1.5,3.59,3.438,8.277,4.488c4.699,1.061,13.393,5.369,22.789,12.74c9.41,7.378,19.49,8.378,19.49,8.378l0.189,0.07
		c-0.092,0.25-0.17,0.51-0.264,0.76c-3.67,10.843,4,13,10.5,21c1.223,1.5,2.32,2.812,3.312,3.961h-0.01
		c0,0-2.053,0.039-18.053,3.539c-13.25,2.899-27.236,2.144-32.356,4.513C91.227,339.693,91.227,339.693,91.217,339.693z"/>
	<path fill="#4C3122" d="M138.068,126.615c0,0,2,10.07-3.49,13.32c-1.041,0.62-2.221,1.189-3.432,1.71
		c-4.489,1.93-9.549,3.18-10.839,3.479c-0.609-15.069-1-32.91-1-53.859c0.17,1.88,1.729,16.6,9.357,25.75
		C132.226,121.265,135.337,124.405,138.068,126.615z"/>
	<path fill="#BB9881" d="M135.667,290.522c-3.17,4.58-5.729,10.158-7.567,15.398l-0.189-0.07c0,0-10.08-1-19.49-8.377
		c-9.396-7.371-18.09-11.685-22.79-12.74c-4.688-1.051-6.76-2.989-8.276-4.489c-1.529-1.5-2.95-2.541-1.45-5.531
		c0,0,1.891-2.196,5.761-1.719l-0.101,0.771c1.526,0.18,4.771,1.271,5.188,4.01c0.021,0.062,1.511,0.041,1.511,0.041
		s1.329-1.068,3.5-2.121c1.069-0.521,2.359-1.027,3.803-1.398l-0.062-0.438l-1.271-1.09c0,0,0.71-2.289-1.803-3.592l0.25-0.578
		c0.069,0.026,0.109,0.062,0.109,0.062s2.72-1.701,5.689,0.448c1.721-1.278,5.301-0.299,6.356,1.08c0,0,3.312,0.021,4.75,1.25
		c1.44,1.229,7.13,5.738,7.13,5.738s3.12,1.368,8.87,0c5.723-1.357,13.459,0.729,14.2,8.409
		C138.318,287.004,136.947,288.685,135.667,290.522z"/>
	<path fill="#BB9881" d="M107.067,63.935l3.199,0.08c0,0,0,1.67-0.054,6.17c-0.06,4.5,0.021,8.17,0.021,8.17s-1.2,0.96-3.091-0.641
		l-0.474,0.261c-1.96-2.431-4.13-4.931-3.84-9.051c0.263-3.649,3.04-5.029,4.24-5.449L107.067,63.935z"/>
	<path fill="#EED95F" d="M75.557,268.692c-3.92,3.761-7.319,6.882-9.094,8.49v-0.013c-4.236-9.631-11.606-8.521-11.606-8.521
		c5.601-8.409,24.921-37.42,27.479-41.472c3-4.75,5.83-12.5,9-34.5s4.83-38.67,14.604-42.75l1.066,0.01l-0.27,43.971
		c0,0,0.646,4.18,2.88,9.027l-0.99,0.398c-0.2,17.91-7.46,32.512-12.12,41.84C93.787,250.623,83.587,260.994,75.557,268.692z"/>
	<path fill="#BB9881" d="M95.497,273.854l0.062,0.438c-1.439,0.371-2.729,0.881-3.804,1.398c-0.646-0.352-1.25-1.129-1.25-1.129
		s-0.066-2.871-3-3.762l0.19-0.609c0,0,0.58-1.459,2.34-1.84c1.42-0.301,2.34,0.08,2.64,0.238l-0.25,0.58
		c2.514,1.303,1.804,3.59,1.804,3.59L95.497,273.854z"/>
	<path fill="#BB9881" d="M87.507,270.806c2.934,0.889,3,3.76,3,3.76s0.604,0.779,1.25,1.129c-2.17,1.053-3.5,2.121-3.5,2.121
		s-1.486,0.021-1.51-0.041c-0.42-2.738-3.66-3.83-5.188-4.01l0.101-0.771c0.18,0.01,0.37,0.039,0.562,0.069
		c0,0-0.448-1.649,1.608-2.724c2.05-1.077,3.87-0.147,3.87-0.147L87.507,270.806z"/>
	<path fill="#BB9881" d="M66.467,277.174v0.013c-0.826,0.75-1.3,1.17-1.3,1.17s0.84,1.83-3.5,7.83c-4.33,6-10,12.498-11.83,12.498
		s-2.67-0.25-2.67-0.25v-0.92c0,0-4.66-4.671-5.75-13.13c-1.08-8.461-3.42-7.5-4.87-6.698c-0.64,0.351-0.938,1.271-1.09,2.521
		l-0.13-0.011c-1.46,3.08-5.521,1.392-5.521,1.392l-0.17,0.09c-0.224-0.407-0.384-0.729-0.474-0.946c-1-2.342-3.33-1.871-5.33-1.041
		l-0.72-0.039c0.26-0.42,0.66-0.791,1.22-1.062c-2.33-3.41,0.88-4.41,0.88-4.41s4.91,0.342,8.83-1.078c3.91-1.41,6-3.699,9.66-4.369
		c3.67-0.67,9.63,2.209,9.63,2.209s0.562-0.84,1.521-2.277C54.856,268.653,62.227,267.543,66.467,277.174z"/>
	<path fill="#BB9881" d="M47.167,297.514v0.92c0,0-0.83,1.423-3.5,1.58c-2.66,0.17-5.66-1.83-5.66-1.83l0.66-0.67
		c0,0,0,0-0.01-0.011c0-0.01-0.011-0.027-0.03-0.051c0-0.021-0.021-0.039-0.04-0.061c-0.01-0.031-0.026-0.062-0.06-0.104
		c-0.104-0.188-0.29-0.51-0.53-0.932c-0.021-0.021-0.04-0.049-0.05-0.078c-0.021-0.029-0.03-0.061-0.051-0.092
		c-0.979-1.898-2.562-5.75-2.562-10.852c0-1.908-0.04-3.729,0.12-5.141c0.149-1.25,0.45-2.172,1.09-2.521
		c1.45-0.8,3.79-1.761,4.87,6.7C42.507,292.844,47.167,297.514,47.167,297.514z"/>
	<path fill="#BB9881" d="M30.117,295.914l-5.21-9.711l-1.061-0.42c0,0-2.12-3.89-0.729-6.14l0.72,0.039
		c2-0.83,4.33-1.302,5.33,1.041c0.09,0.219,0.25,0.536,0.474,0.946c1.63,3.149,6.38,11.319,8.26,14.521
		c0.021,0.031,0.028,0.062,0.051,0.092c0.01,0.029,0.029,0.061,0.05,0.078c0.223,0.432,0.41,0.74,0.53,0.932
		c0.029,0.041,0.05,0.068,0.06,0.104c0.021,0.021,0.03,0.049,0.04,0.061c0.014,0.021,0.021,0.041,0.03,0.051
		c0.009,0.011,0.01,0.011,0.01,0.011l-0.659,0.67c0,0-3.171,1.5-5.671,0.672c-0.8-0.409-1.63-1.131-2.26-1.729
		c-0.311-0.299-0.569-0.58-0.76-0.777L30.117,295.914z"/>
	<path fill="#BB9881" d="M35.337,285.344c0,5.101,1.58,8.948,2.562,10.851c-1.88-3.197-6.63-11.367-8.26-14.521l0.17-0.09
		c0,0,4.061,1.688,5.521-1.392l0.13,0.011C35.297,281.612,35.337,283.435,35.337,285.344z"/>
	<path fill="#BB9881" d="M30.117,295.914l-0.8,0.431c-0.181-0.197-0.29-0.328-0.29-0.328s-3.604-1.763-7.11-3.25
		c-2.5-1.062-4.33-1.021-5.66-2.688c-1.34-1.66-1.156-5.222,2.264-4.892s5.33,0.601,5.33,0.601l1.061,0.42L30.117,295.914z"/>
</g>
<g id="Layer_1_1_">
	<path fill="none" stroke="#000000" stroke-width="3" stroke-linecap="round" stroke-linejoin="round" stroke-miterlimit="10" d="
		M150.806,15.044c0,0-0.75-0.229-1.934-0.489c-2.969-0.66-8.646-1.5-11.949,0.699c-4.605,3.08-12.09,10.761-17.76,19.761
		c-5.66,9-10.12,17.05-11.54,28.29c0,0-0.21,0.05-0.55,0.17c-1.2,0.42-3.979,1.8-4.24,5.449c-0.29,4.12,1.88,6.62,3.84,9.051
		c0.264,0.33,0.521,0.649,0.771,0.979l-0.44,70.99l-0.27,43.971c0,0,0.647,4.182,2.88,9.029c1.17,2.539,2.779,5.26,4.96,7.67
		c0,0,8.16,5.66,12.83,6.66c0,0-4.931-18.75-7.101-72.15c-0.609-15.069-1-32.91-1-53.859"/>
	<path fill="none" stroke="#000000" stroke-width="3" stroke-linecap="round" stroke-linejoin="round" stroke-miterlimit="10" d="
		M119.307,91.245c0-9.67,0.09-20.02,0.271-31.06c0,0,7.689-7.12,14.741-17.351c7.049-10.239,10.85-18.479,10.85-18.479
		s14.643,23.479,29.34,29.31c0.674,0.271,1.33,0.5,2,0.69l2.66,0.66"/>
	<path fill="none" stroke="#000000" stroke-width="3" stroke-linecap="round" stroke-linejoin="round" stroke-miterlimit="10" d="
		M159.748,217.265c0.393-0.229,11.062-7.351,14.26-74.938c0.594-12.64,0.934-27.41,0.893-44.64
		c-0.021-12.54-0.25-26.391-0.729-41.67l0.34-2.34"/>
	<path fill="none" stroke="#000000" stroke-width="3" stroke-linecap="round" stroke-linejoin="round" stroke-miterlimit="10" d="
		M175.078,194.944l-0.031,0.188c-0.299,1.922-3.115,17.37-15.299,22.133l-0.01,0.01"/>
	<path fill="none" stroke="#000000" stroke-width="3" stroke-linecap="round" stroke-linejoin="round" stroke-miterlimit="10" d="
		M171.257,217.265c0.119-0.279,2.184-4.88,3.15-17.229l0.639-4.896"/>
	<path fill="none" stroke="#000000" stroke-width="3" stroke-linecap="round" stroke-linejoin="round" stroke-miterlimit="10" d="
		M151.328,14.535l4.51-2.52c0,0,11,3.34,21,21c10,17.67,10.33,29.79,10.33,29.79s0.264,0.069,0.65,0.25
		c1.25,0.58,3.869,2.26,3.77,6.25c-0.09,3.75-2.08,6.97-3.211,8.51c-0.445,0.62-0.77,0.97-0.77,0.97s2.08,31.59,2.551,66.23
		c0.309,22.38-0.051,46.041-2.08,63.259l-1,3.67l-15.82,5.32l-0.01,0.01"/>
	<path fill="none" stroke="#000000" stroke-width="1.5" stroke-linecap="round" stroke-linejoin="round" stroke-miterlimit="10" d="
		M106.937,63.935h0.131l3.199,0.08c0,0,0,1.67-0.054,6.17c-0.06,4.5,0.021,8.17,0.021,8.17s-1.2,0.96-3.091-0.641"/>
	<path fill="none" stroke="#000000" stroke-width="1.5" stroke-linecap="round" stroke-linejoin="round" stroke-miterlimit="10" d="
		M188.207,63.145c-0.139-0.04-0.27-0.07-0.389-0.09c-1.98-0.381-2.441,1-2.441,1s-0.025,2.25-0.039,4.819
		c-0.01,2.561-0.041,8.931-0.041,8.931s1.854,0.79,3.08,0.01c0.312-0.19,0.58-0.48,0.771-0.9"/>
	<path fill="none" stroke="#000000" stroke-width="3" stroke-linecap="round" stroke-linejoin="round" stroke-miterlimit="10" d="
		M119.287,91.064c0,0,0,0.06,0.021,0.18c0,0.01,0,0.01,0,0.021c0.17,1.88,1.729,16.6,9.357,25.75c3.562,4.25,6.67,7.39,9.4,9.6
		c3.559,2.86,6.488,4.14,8.938,4.24c3.014,0.109,9.104-4.78,14.264-10.4c2.25-2.46,4.33-5.06,5.896-7.439
		c5.17-7.83,7.629-15.33,7.629-15.33"/>
	<path fill="none" stroke="#000000" stroke-width="1.5" stroke-linecap="round" stroke-linejoin="round" stroke-miterlimit="10" d="
		M128.125,51.619c0,0,3.401-1.146,8.271-0.85c4.869,0.298,7.651,2.797,7.651,2.797s-0.017,10.343-1.982,14.672
		c-1.966,4.329-7.16,8.21-7.25,9.54c-0.08,1.34,3.932,8.479,10.358,9.67c0,0,1.188,1.37,2.729,0.83c1.5-0.83,1.459-3.44,3.521-3.54
		c2.07-0.102,3.062,1,2.892,1.83c-0.16,0.84,0.67,0.34,2-0.16c1.34-0.5,3.17-3,0.84-5.34"/>
	<path fill="none" stroke="#000000" stroke-width="1.5" stroke-linecap="round" stroke-linejoin="round" stroke-miterlimit="10" d="
		M139.874,85.119c-1.721,0.7-0.949,2.45-1.949,2.12c-1-0.33-4.01-2.762-1.18-4.932"/>
	<path fill="none" stroke="#000000" stroke-width="1.5" stroke-linecap="round" stroke-linejoin="round" stroke-miterlimit="10" d="
		M152.985,50.74c0,0,0.92-2.88,6-3.67c5.092-0.78,8.641,2.42,8.641,2.42"/>
	<path fill="none" stroke="#000000" stroke-width="1.5" stroke-linecap="round" stroke-linejoin="round" stroke-miterlimit="10" d="
		M126.579,61.037c2.632-1.621,7.976-2.734,12.728-0.518"/>
	<path fill="none" stroke="#000000" stroke-width="1.5" stroke-linecap="round" stroke-linejoin="round" stroke-miterlimit="10" d="
		M152.985,60.05c6.5-2.81,10.029-1.64,13.17,0.5"/>
	<path fill="none" stroke="#000000" stroke-linecap="round" stroke-linejoin="round" stroke-miterlimit="10" d="M152.985,59.95
		c0,0,3.58-7.21,12.17-2.54"/>
	<path fill="none" stroke="#000000" stroke-width="1.5" stroke-linecap="round" stroke-linejoin="round" stroke-miterlimit="10" d="
		M137.335,94.72c0,0,5.057,1.46,11.807,0.96s11.133-3.229,11.133-3.229l0.031-0.01"/>
	<path fill="none" stroke="#000000" stroke-linecap="round" stroke-linejoin="round" stroke-miterlimit="10" d="M129.141,57.654
		c3.209-1.125,8.417-1.417,10.334,2.896"/>
	<path fill="none" stroke="#000000" stroke-width="3" stroke-linecap="round" stroke-linejoin="round" stroke-miterlimit="10" d="
		M138.068,126.615c0,0,2,10.07-3.49,13.32c-1.041,0.62-2.221,1.189-3.432,1.71c-4.489,1.93-9.549,3.18-10.839,3.479
		c-0.2,0.05-0.312,0.07-0.312,0.07"/>
	<path fill="none" stroke="#000000" stroke-width="3" stroke-linecap="round" stroke-linejoin="round" stroke-miterlimit="10" d="
		M105.937,149.935c-9.771,4.08-11.434,20.75-14.604,42.75c-3.17,22-6,29.75-9,34.5c-2.56,4.051-21.88,33.062-27.479,41.473
		c-0.96,1.438-1.521,2.277-1.521,2.277s-5.96-2.879-9.63-2.209c-3.66,0.67-5.75,2.959-9.66,4.368c-3.92,1.421-8.83,1.079-8.83,1.079
		s-3.21,1-0.88,4.41c-0.56,0.271-0.96,0.643-1.22,1.062c-1.391,2.25,0.729,6.14,0.729,6.14s-1.909-0.271-5.329-0.601
		c-3.421-0.33-3.604,3.229-2.264,4.892c1.33,1.67,3.16,1.629,5.66,2.688c3.51,1.487,7.11,3.25,7.11,3.25s0.105,0.131,0.29,0.328
		c0.188,0.198,0.448,0.479,0.76,0.778c0.63,0.603,1.46,1.32,2.26,1.729c2.5,0.83,5.67-0.67,5.67-0.67s3,2,5.66,1.83
		c2.67-0.16,3.5-1.58,3.5-1.58s0.84,0.25,2.67,0.25s7.5-6.499,11.83-12.499c4.34-6,3.5-7.83,3.5-7.83s0.471-0.42,1.3-1.17
		c1.771-1.608,5.171-4.729,9.094-8.49c8.026-7.697,18.229-18.068,20.946-23.51c4.66-9.33,11.92-23.931,12.12-41.84
		c0,0,0.13,35.818-0.04,41.938c-0.17,6.131-8.13,10.649-8.13,10.649l-2.62,4.291"/>
	
		<polyline fill="none" stroke="#000000" stroke-width="1.5" stroke-linecap="round" stroke-linejoin="round" stroke-miterlimit="10" points="
		30.167,296.015 30.117,295.914 24.907,286.203 	"/>
	<path fill="none" stroke="#000000" stroke-width="1.5" stroke-linecap="round" stroke-linejoin="round" stroke-miterlimit="10" d="
		M23.837,279.685c2-0.83,4.33-1.3,5.33,1.041c0.09,0.219,0.25,0.539,0.474,0.947c1.63,3.15,7.011,12.378,8.891,15.577"/>
	<path fill="none" stroke="#000000" stroke-width="1.5" stroke-linecap="round" stroke-linejoin="round" stroke-miterlimit="10" d="
		M37.896,296.192c-0.979-1.899-2.562-5.75-2.562-10.853c0-1.907-0.04-3.729,0.12-5.141c0.149-1.25,0.45-2.171,1.09-2.521
		c1.45-0.802,3.79-1.763,4.87,6.698c1.09,8.459,5.75,13.129,5.75,13.129"/>
	<path fill="none" stroke="#000000" stroke-width="1.5" stroke-linecap="round" stroke-linejoin="round" stroke-miterlimit="10" d="
		M40.957,281.463c-0.16-1.356,3.28-5.379,5.479,0.149c2.188,5.531,4.566,9.4,3.75,11.91"/>
	<path fill="none" stroke="#000000" stroke-width="1.5" stroke-linecap="round" stroke-linejoin="round" stroke-miterlimit="10" d="
		M29.807,281.584c0,0,4.061,1.688,5.521-1.392"/>
	<path fill="none" stroke="#000000" stroke-width="1.5" stroke-linecap="round" stroke-linejoin="round" stroke-miterlimit="10" d="
		M54.856,268.653c0,0,7.37-1.11,11.606,8.521"/>
	<path fill="none" stroke="#000000" stroke-width="1.5" stroke-linecap="round" stroke-linejoin="round" stroke-miterlimit="10" d="
		M131.146,141.645c0,0,18.438,22.66,37.188-1.21"/>
	<path fill="none" stroke="#000000" stroke-width="3" stroke-linecap="round" stroke-linejoin="round" stroke-miterlimit="10" d="
		M161.267,120.455c0,0-2.621,14.2,7.119,19.9c1.527,0.899,3.357,1.58,5.551,1.97"/>
	<path fill="none" stroke="#000000" stroke-width="3" stroke-linecap="round" stroke-linejoin="round" stroke-miterlimit="10" d="
		M128.796,268.685c-16.816-7.277-30.629-7.938-30.629-7.938"/>
	<path fill="none" stroke="#000000" stroke-width="3" stroke-linecap="round" stroke-linejoin="round" stroke-miterlimit="10" d="
		M190.277,145.015c11.938,6.42,9.979,8.89,21.471,45.698c0,0,7.979,29.281,11.299,33.819c2.83,3.881,24.041,31.529,30.191,39.541
		c1.059,1.367,1.67,2.17,1.67,2.17s5.76-3.271,9.459-2.852c3.701,0.42,5.939,2.561,9.939,3.709s8.881,0.488,8.881,0.488
		s3.27,0.779,1.17,4.342c0.18,0.068,0.35,0.158,0.5,0.25c2.84,1.75,0.471,6.898,0.471,6.898s1.889-0.398,5.279-0.961
		c3.391-0.561,3.811,2.979,2.59,4.729c-1.221,1.76-3.051,1.83-5.471,3.062c-3.398,1.729-6.879,3.729-6.879,3.729
		s-0.15,0.209-0.41,0.521c-0.562,0.688-1.631,1.893-2.699,2.527c-0.461,0.189-0.951,0.303-1.441,0.342
		c-2.105,0.211-4.26-0.631-4.26-0.631s-0.039,0.029-0.129,0.092c-0.58,0.43-3.061,2.107-5.4,2.117c-2.67,0.012-3.6-1.35-3.6-1.35
		s-0.811,0.311-2.641,0.43c-1.83,0.131-7.92-5.979-12.65-11.68c-4.729-5.689-4.02-7.58-4.02-7.58s-0.5-0.393-1.371-1.08
		c-1.844-1.459-5.369-4.289-9.449-7.699c-8.562-7.158-19.562-16.93-22.66-22.211c-5.289-9-14.49-30.487-17.279-48.76
		c0,0,1.83,44.648,2.41,50.75c0.34,3.562,2.57,3.893,4.959,5.188c0.021,0.012,0.041,0.021,0.051,0.03
		c1.684,0.931,3.439,2.356,4.65,5.761c0,0-0.5,0.01-1.42,0.062c-3.951,0.229-15.551,1.25-27.32,5.76
		c-3.711,1.42-6.84,3.262-9.801,5.061c-8.609,5.24-15.859,10.211-32.221,3.893c-1.789-0.898-3.568-1.729-5.312-2.479"/>
	
		<line fill="none" stroke="#000000" stroke-width="1.5" stroke-linecap="round" stroke-linejoin="round" stroke-miterlimit="10" x1="279.707" y1="289.713" x2="284.306" y2="279.574"/>
	<path fill="none" stroke="#000000" stroke-width="1.5" stroke-linecap="round" stroke-linejoin="round" stroke-miterlimit="10" d="
		M284.937,272.994c-0.104-0.031-0.211-0.07-0.312-0.101c-1.987-0.621-4.146-0.781-4.949,1.487c-0.076,0.222-0.221,0.562-0.396,0.979
		c-1.43,3.281-5.65,11.812-7.289,15.101c-0.301,0.604-0.512,1.031-0.602,1.211"/>
	<path fill="none" stroke="#000000" stroke-width="1.5" stroke-linecap="round" stroke-linejoin="round" stroke-miterlimit="10" d="
		M271.328,291.783c0,0,0.021-0.039,0.062-0.109c0.107-0.18,0.326-0.6,0.602-1.211c0.85-1.946,2.199-5.92,1.85-11.049
		c-0.131-1.897-0.211-3.729-0.471-5.121c-0.229-1.235-0.59-2.129-1.26-2.438c-1.49-0.699-3.895-1.511-4.41,7.012
		c-0.51,8.51-4.85,13.488-4.85,13.488"/>
	<path fill="none" stroke="#000000" stroke-width="1.5" stroke-linecap="round" stroke-linejoin="round" stroke-miterlimit="10" d="
		M267.966,275.914c0.07-1.356-3.629-5.142-5.445,0.521c-1.82,5.67-3.934,9.688-2.949,12.143"/>
	<path fill="none" stroke="#000000" stroke-width="1.5" stroke-linecap="round" stroke-linejoin="round" stroke-miterlimit="10" d="
		M279.097,275.283c0,0-3.939,1.971-5.604-1.011"/>
	<path fill="none" stroke="#000000" stroke-width="1.5" stroke-linecap="round" stroke-linejoin="round" stroke-miterlimit="10" d="
		M253.238,264.074c0,0-7.42-0.621-11.012,9.278"/>
	<path fill="none" stroke="#000000" stroke-width="1.5" stroke-linecap="round" stroke-linejoin="round" stroke-miterlimit="10" d="
		M160.007,259.515c0,0,7.771-0.529,14.271-3.893c6.5-3.369,16.461-7.316,22.029-5.938c2.551,0.631,3.58,0.881,3.947,0.972
		c0.439,0.1-0.051-0.031-0.051-0.031"/>
	<path fill="none" stroke="#000000" stroke-width="1.5" stroke-linecap="round" stroke-linejoin="round" stroke-miterlimit="10" d="
		M106.757,251.646c0,0,9.58-0.451,16.41,2.879"/>
	<path fill="none" stroke="#000000" stroke-width="1.5" stroke-linecap="round" stroke-linejoin="round" stroke-miterlimit="10" d="
		M153.056,279.213c1.816-2.889,7.262-7.446,13.67-11.315c3.357-2.041,6.986-3.881,10.5-5.211"/>
	<path fill="none" stroke="#000000" stroke-width="3" stroke-linecap="round" stroke-linejoin="round" stroke-miterlimit="10" d="
		M203.488,256.483c0,0,23.789,4.64,29.289,9.17"/>
	<path fill="none" stroke="#000000" stroke-width="3" stroke-linecap="round" stroke-linejoin="round" stroke-miterlimit="10" d="
		M276.296,293.033c0,0,6.711,3.989,5.711,12.147c-1,8.17-0.34,17.17-17.34,25.843c-17,8.657-27.83,13.827-35.16,14.157
		c-7.34,0.343-14-8.5-35.5-8.157c-21.5,0.327-46,1.327-46,1.327s-2.09-1.76-6.357-6.709c-0.988-1.147-2.09-2.461-3.312-3.961
		c-6.5-8-14.17-10.157-10.5-21c0.09-0.25,0.17-0.51,0.264-0.76c1.84-5.24,4.397-10.818,7.567-15.398
		c1.279-1.84,2.65-3.521,4.119-4.938c1.604-1.567,3.312-2.84,5.121-3.698c0.789-0.382,1.6-0.683,2.43-0.892
		c1.843-0.472,3.812-0.921,5.812-1.341c7.791-1.641,15.881-2.801,17.201-2.801c1.656,0,7.816-1.74,12.816,2.722
		c2.521,2.239,7.104,6.1,13.08,9.35c5.893,3.212,13.143,5.82,21.09,5.688c10.189-0.17,17.74-1.028,23.684-1.061
		c3.396-0.013,6.275,0.25,8.816,1.061l3.83,1.74"/>
	<path fill="none" stroke="#000000" stroke-width="1.5" stroke-linecap="round" stroke-linejoin="round" stroke-miterlimit="10" d="
		M175.007,288.574c0,0,9.33,5.43,17.5,5.1c8.16-0.317,16.33,0.938,16.33,0.938"/>
	<path fill="none" stroke="#000000" stroke-width="3" stroke-linecap="round" stroke-linejoin="round" stroke-miterlimit="10" d="
		M196.296,288.834c0,0,2.07,0.479,6.871-1.479c4.643-1.898,4.99-4.818,11.369-4.438c0.211,0.012,0.42,0.027,0.65,0.049
		c0,0,0.66-2.527,4.16-2.697c0,0,1.721-1.58,3.891-1.5s2.84,0.931,2.84,0.931s0.76-0.851,2.26-0.931s3.25,0.931,3.25,0.931
		s1.42-1.171,3.75-0.921s2.92,2.223,2.92,2.223s4.08-0.357,6.08,2.67v2.021l-3.33,6.67"/>
	<path fill="none" stroke="#000000" stroke-width="1.5" stroke-linecap="round" stroke-linejoin="round" stroke-miterlimit="10" d="
		M214.517,282.885c0,0,0.01,0.011,0.02,0.028c0.145,0.238,1.32,1.893,5.961,2.643c3.17,0.51,5.934,0.959,8.25,2.08
		c1.34,0.629,2.539,1.5,3.59,2.729"/>
	<path fill="none" stroke="#000000" stroke-width="1.5" stroke-linecap="round" stroke-linejoin="round" stroke-miterlimit="10" d="
		M235.318,291.185c-1.961-1.08-2.15-8.42,3.35-9.289"/>
	<path fill="none" stroke="#000000" stroke-width="1.5" stroke-linecap="round" stroke-linejoin="round" stroke-miterlimit="10" d="
		M231.507,280.765c-2.42,2.158-1.1,4.818-1.1,4.818s-0.461,2.552-1.66,2.039"/>
	<path fill="none" stroke="#000000" stroke-width="1.5" stroke-linecap="round" stroke-linejoin="round" stroke-miterlimit="10" d="
		M225.837,280.854c-2.08,1.91-0.801,3.938-0.801,3.938l-0.949,1.381"/>
	<path fill="none" stroke="#000000" stroke-width="1.5" stroke-linecap="round" stroke-linejoin="round" stroke-miterlimit="10" d="
		M220.498,285.324c0,0-1.66-3.011,0.76-5.511"/>
	<path fill="none" stroke="#000000" stroke-width="3" stroke-linecap="round" stroke-linejoin="round" stroke-miterlimit="10" d="
		M96.587,261.063c0,0-10.26,2.289-21.026,7.629c-0.014,0-0.014,0.011-0.021,0.011"/>
	<path fill="none" stroke="#000000" stroke-width="3" stroke-linecap="round" stroke-linejoin="round" stroke-miterlimit="10" d="
		M29.807,297.514c0,0-12.474,5.67-7.724,19.17s14.644,12,23.57,17.75c0,0,17.1,10.513,26.43,11c9.34,0.49,15.46-1.25,17.19-3.809
		c0.21-0.82,0.89-1.441,1.938-1.933"/>
	<path fill="none" stroke="#000000" stroke-width="3" stroke-linecap="round" stroke-linejoin="round" stroke-miterlimit="10" d="
		M91.227,339.693c5.12-2.369,19.106-1.609,32.356-4.513c16-3.5,18.053-3.539,18.053-3.539"/>
	<path fill="none" stroke="#000000" stroke-width="1.5" stroke-linecap="round" stroke-linejoin="round" stroke-miterlimit="10" d="
		M67.317,338.835c0,0,7.438,1.471,11.35,1.521c3.3,0.04,10.4-0.488,12.55-0.658c0.014,0,0.014,0,0.014,0
		c0.391-0.028,0.62-0.051,0.62-0.051"/>
	<path fill="none" stroke="#000000" stroke-width="3" stroke-linecap="round" stroke-linejoin="round" stroke-miterlimit="10" d="
		M63.007,294.885c0,0,22.19-12.03,36.844-3.29"/>
	<path fill="none" stroke="#000000" stroke-width="3" stroke-linecap="round" stroke-linejoin="round" stroke-miterlimit="10" d="
		M127.907,305.854c0,0-10.08-1-19.49-8.378c-9.396-7.371-18.09-11.684-22.79-12.74c-4.688-1.051-6.76-2.988-8.276-4.488
		c-1.529-1.5-2.95-2.541-1.45-5.531c0,0,1.891-2.197,5.761-1.719c0.18,0.01,0.37,0.039,0.562,0.068c0,0-0.449-1.648,1.607-2.721
		c2.05-1.08,3.87-0.15,3.87-0.15s0.58-1.459,2.34-1.84c1.42-0.299,2.34,0.08,2.644,0.24c0.066,0.027,0.106,0.062,0.106,0.062
		s2.721-1.701,5.689,0.447c1.721-1.277,5.301-0.299,6.356,1.08c0,0,3.312,0.021,4.75,1.25c1.44,1.229,7.13,5.738,7.13,5.738
		s3.12,1.369,8.87,0c5.723-1.357,13.459,0.729,14.2,8.41c0,0.039,0.01,0.09,0.01,0.129"/>
	<path fill="none" stroke="#000000" stroke-width="1.5" stroke-linecap="round" stroke-linejoin="round" stroke-miterlimit="10" d="
		M81.277,273.744c0.079,0,0.18,0.01,0.279,0.021c1.526,0.18,4.771,1.271,5.188,4.01c0.021,0.062,1.51,0.041,1.51,0.041
		s1.33-1.068,3.5-2.121c1.07-0.521,2.36-1.027,3.804-1.398c1.196-0.311,2.521-0.521,3.896-0.549c6.312-0.121,8.82,5.562,11.32,6.629
		c2.5,1.062,4.17,0.979,4.17,0.979"/>
	<path fill="none" stroke="#000000" stroke-width="1.5" stroke-linecap="round" stroke-linejoin="round" stroke-miterlimit="10" d="
		M97.747,273.862c0,0,0.97-0.489,4.78-1.989c0,0,2.84-1.09,4.229-0.72"/>
	<path fill="none" stroke="#000000" stroke-width="1.5" stroke-linecap="round" stroke-linejoin="round" stroke-miterlimit="10" d="
		M98.097,269.635c0,0,0.21,0.5,0.576,1.261c0.36,0.762,0.45,2.188,0.45,2.188"/>
	<path fill="none" stroke="#000000" stroke-width="1.5" stroke-linecap="round" stroke-linejoin="round" stroke-miterlimit="10" d="
		M92.427,269.174c2.513,1.304,1.803,3.593,1.803,3.593l1.271,1.09"/>
	<path fill="none" stroke="#000000" stroke-width="1.5" stroke-linecap="round" stroke-linejoin="round" stroke-miterlimit="10" d="
		M87.297,270.744c0.07,0.021,0.144,0.039,0.21,0.062c2.934,0.889,3,3.76,3,3.76s0.604,0.779,1.25,1.129
		c0.014,0.012,0.021,0.012,0.03,0.021"/>
	<path fill="none" stroke="#000000" stroke-width="1.5" stroke-linecap="round" stroke-linejoin="round" stroke-miterlimit="10" d="
		M123.837,292.685c0,0,7.17,3.312,11.831-2.16"/>
	<path fill="none" stroke="#000000" stroke-width="1.5" stroke-linecap="round" stroke-linejoin="round" stroke-miterlimit="10" d="
		M128.796,268.685c0.014,0.01,0.031,0.021,0.041,0.021c6.553,4.689,12.879,6.41,15.934,12.881"/>
	<path fill="none" stroke="#000000" stroke-width="3" stroke-linecap="round" stroke-linejoin="round" stroke-miterlimit="10" d="
		M334.917,323.653c0,0.229,0.013,0.45,0.013,0.682c0,0,7.672,2.119,8.788,5.6c1.119,3.479,1.771,11.803-21.141,11.133
		s-24.229-7.319-24.24-10.343c-0.01-3.021,3.16-6.147,9.98-7.061c0,0,0-0.181,0.01-0.579c0.05-2.229,0.37-11.36,2.46-35.689
		c0,0,3.41-2.039,11.12-1.879c0.812,0.021,1.67,0.061,2.58,0.129c0,0,5.17,0.451,7.97-0.142
		C335.247,284.935,334.487,298.054,334.917,323.653z"/>
	<path fill="none" stroke="#000000" stroke-width="1.5" stroke-linecap="round" stroke-linejoin="round" stroke-miterlimit="10" d="
		M308.876,323.094l0.03,6.7c0,0,2.521,2.659,11.311,2.85c8.804,0.19,14-2.17,14-2.17v-6.811"/>
	<path fill="none" stroke="#000000" stroke-width="1.5" stroke-linecap="round" stroke-linejoin="round" stroke-miterlimit="10" d="
		M311.907,288.624c2.86,1.729,5.79-0.357,10,0.55c0.43,0.103,0.88,0.222,1.34,0.392c4.95,1.762,7.28-0.34,7.28-0.34"/>
	
		<polyline fill="none" stroke="#1D1D1B" stroke-width="1.5" stroke-linecap="round" stroke-linejoin="round" stroke-miterlimit="10" points="
		321.907,289.174 321.907,285.515 321.907,282.894 321.907,281.664 321.907,280.914 	"/>
	<path fill="none" stroke="#1D1D1B" stroke-width="1.5" stroke-linecap="round" stroke-linejoin="round" stroke-miterlimit="10" d="
		M321.907,279.644c0,0,1.01,1.91,0,2.021C320.897,281.772,321.907,279.644,321.907,279.644z"/>
	<path fill="none" stroke="#1D1D1B" stroke-width="1.5" stroke-linecap="round" stroke-linejoin="round" stroke-miterlimit="10" d="
		M321.907,282.894c0,0-2.81-0.209-3.43-3.08c-0.61-2.869,2.87-4.271,2.47-8.09c-0.39-3.82,4.38,0.51,4.92,5.143
		C326.397,281.494,324.597,282.733,321.907,282.894z"/>
</g>
</svg>
