<?xml version="1.0" encoding="utf-8"?>
<!-- Generator: Adobe Illustrator 16.0.0, SVG Export Plug-In . SVG Version: 6.00 Build 0)  -->
<!DOCTYPE svg PUBLIC "-//W3C//DTD SVG 1.1//EN" "http://www.w3.org/Graphics/SVG/1.1/DTD/svg11.dtd">
<svg version="1.1" id="Layer_1" xmlns="http://www.w3.org/2000/svg" xmlns:xlink="http://www.w3.org/1999/xlink" x="0px" y="0px"
	 width="407.979px" height="806.96px" viewBox="0 0 407.979 806.96" enable-background="new 0 0 407.979 806.96"
	 xml:space="preserve">
<g id="colours">
	<path d="M327.126,748.796c0.188,1.051,0.229,2.42,0.17,3.881c-0.104,2.939-0.58,6.25-0.854,7.939c-1.09-3.51-5.237-3.07-5.237-3.07
		l-0.183-0.109c1.37-2.301,2.7-5.17,3.98-8.76c0.608-1.689,1.17-3.291,1.688-4.811C326.646,744.087,326.466,745.238,327.126,748.796
		z"/>
	<path d="M327.325,752.677c0.487,4.049,2.051,11.561,1.737,15.619c-0.31,4.07-2.31,11.689-2.31,11.689s-1.69,4.75-22.57,5.311
		c-20.87,0.57-22.188,0.07-24.31-4.369c-2.13-4.439,0.67-5.471,1.5-5.561l0.79-0.189c0.487,1.41,1.72,2.779,4.567,3.08
		c6.36,0.66,7.394-2.17,7.394-2.17s0.63,2.209,2.97,2.27c2.33,0.061,4-2.439,4-2.439s1.14,2.51,3.97,2.41
		c2.843-0.102,3.36-2.26,3.36-2.26s0.95,2.84,3.62,2.561c2.67-0.27,3.72-2.381,3.72-2.381s3.149,1.859,4.643,0.041
		c1.487-1.82,1.351-3.201,1.351-3.201s3.25-3.119,4.5-11.33c0,0,0.08-0.43,0.188-1.139c0.271-1.691,0.75-5,0.854-7.941H327.325
		L327.325,752.677z"/>
	<path d="M102.005,761.539c2.6-0.682,4.85-1.531,6.78-2.361c0,0,0,0,0.01,0c0.57-0.08,3.39-0.309,7.83,2.621
		c4.99,3.289,6.27,4.75,8.08,7.109c1.77,2.289,2.91,6.199,2.979,6.43c-1.607,0.109-3.397,0.34-5.24,0.781
		c-0.947,0.229-2,0.479-3.13,0.738l-0.02-0.08c-0.65-4-3.853-7.209-11.21-11.061c-7.36-3.859-8.53-3.5-8.53-3.5v-0.01
		C100.375,761.976,101.195,761.748,102.005,761.539z"/>
	<path d="M160.786,767.476l3.05,2.971l-0.46,3.811c0,0-0.63,3.01-4.812,5.051c-4.188,2.039-8.107,2.764-19.71,2.344
		c-20.479-0.539-33.16,3.396-40.39,4.01c-7.23,0.602-14.58-1.439-19.83-5.949c-1.97-1.689-2.72-3.75-2.62-5.24
		c0.18-2.41,1.7-3.229,2.68-3.139c-0.27,0.869,0.79,2.279,2.04,2.34c0.093,1.25,1.4,2.479,2.82,2.939
		c1.44,0.471,2.812-0.75,2.812-0.75c0,0.025,0.01,3.564,4.787,4.119c2.16,0.471,6.07,0.301,9.963-1.514
		c3.17,1.439,11.787-0.156,18.197-1.605c1.13-0.266,2.183-0.516,3.13-0.74c1.843-0.439,3.633-0.67,5.24-0.779
		c3.99-0.281,6.92,0.199,6.92,0.199c20.29,1.67,24.12-2.48,25-5.852c0.021-0.078,0.05-0.17,0.07-0.264
		c0.18-0.77,0.29-1.84,0.36-3.025h0.067L160.786,767.476z"/>
	<path fill="#F29100" d="M379.876,191.417c0,0-2.86,6.51-9.11,11.85c-6.25,5.34-15.021,2.59-15.021,2.59
		c-1.88-9.27,3.817-21.8,13.92-19.89C374.615,186.907,377.855,188.917,379.876,191.417z"/>
	<path fill="#F29100" d="M301.646,83.007c7.521-6.43,26.021,2.14,22.263,14.88c-0.779-1.6-3.603-6.34-10.479-8.78
		c-8.34-2.97-15.99,0-15.99,0l-1.01-0.18C297.546,87.027,299.256,85.047,301.646,83.007z"/>
	<path fill="#F29100" d="M203.215,49.127c0,0,7,14.5,2.5,19.5c-1.17,1.3-2.74,2.7-4.61,3.86c0,0-2.52-5.34-7.02-11.96
		c-4.5-6.63-11.44-7.82-11.44-7.82C188.025,46.557,197.536,43.167,203.215,49.127z"/>
	<path fill="#F29100" d="M96.266,116.197l1.05,0.11c-4.29,7.12-13.147,12.14-19.85,6.65c-6.69-5.47-7.44-11.3-5.93-16.14
		C77.116,117.417,90.505,121.397,96.266,116.197z"/>
	<path fill="#F29100" d="M45.715,209.787c9.78,1.64,19.84,13.94,12.68,22.43c-3.54,4.2-7.18,5.99-10.6,6.34
		c-5.68-5.74-5.68-5.78-6.43-14.44C40.616,215.417,45.715,209.787,45.715,209.787z"/>
	<path fill="#BB9881" d="M291.506,764.677c12.52,0.209,21.8,5.65,29.52-7.24l0.183,0.109c0,0,4.147-0.439,5.237,3.07
		c-0.106,0.711-0.188,1.141-0.188,1.141c-1.25,8.209-4.5,11.33-4.5,11.33s0.14,1.379-1.352,3.199
		c-1.489,1.82-4.642-0.039-4.642-0.039s-1.05,2.109-3.72,2.379c-2.67,0.279-3.62-2.561-3.62-2.561s-0.521,2.156-3.36,2.262
		c-2.83,0.1-3.97-2.41-3.97-2.41s-1.67,2.5-4,2.439c-2.34-0.062-2.97-2.271-2.97-2.271s-1.03,2.83-7.394,2.17
		c-2.85-0.299-4.079-1.67-4.567-3.08c-0.603-1.76-0.08-3.59-0.08-3.59l3.29-2.17l2.51-4.59v-0.08
		C289.006,764.687,290.205,764.658,291.506,764.677z"/>
	<path fill="#BB9881" d="M78.695,771.328c0.07-0.23,0.223-0.41,0.473-0.539c-0.29-1.881,1.97-2.82,1.97-2.82
		c-0.31-1.91,7.84-2.631,7.84-2.631s5.2-1.641,10.58-3.129v0.01c0,0,1.17-0.355,8.53,3.5c7.357,3.854,10.56,7.062,11.21,11.062
		l0.02,0.08c-6.409,1.447-15.027,3.049-18.197,1.607c-3.893,1.812-7.803,1.98-9.962,1.51c-4.778-0.551-4.788-4.09-4.788-4.117
		c0,0-1.37,1.221-2.812,0.75c-1.42-0.461-2.729-1.689-2.82-2.939C79.485,773.607,78.425,772.197,78.695,771.328z"/>
	<path fill="#BB9881" d="M159.985,757.277c0,0,0.28,5.199,0.053,9.119c-0.07,1.191-0.183,2.262-0.36,3.031
		c-0.021,0.09-0.05,0.18-0.07,0.26c-0.88,3.369-4.71,7.521-25,5.852c0,0-2.93-0.48-6.92-0.201c-0.067-0.229-1.21-4.141-2.979-6.43
		c-1.812-2.359-3.09-3.82-8.08-7.109c-4.44-2.93-7.26-2.701-7.83-2.621c2.62-1.105,4.67-2.18,6.31-2.77l0.25-1.66
		c4.59,1.74,10.08,2.801,15.74,3.93c11.33,2.25,17.63,2.74,22.021,1.99c2.6-0.439,4.22-1.439,6.289-3.641L159.985,757.277z"/>
	<path fill="#BB9881" d="M367.716,273.177c-2.09-0.68-5.851-2.5-8.83-2.3l-0.021-0.47c1.25-0.06,2.357-0.14,3.117-0.31
		c1.71-0.38,5.98-1.89,7.86-6.01c1.87-4.13,1.76-9.53,4.31-9.72c2.562-0.19,2.604,1.11,2.474,6.93c-0.12,5.8-3.07,8.29-6.771,11.71
		c0.05-0.03,0.15-0.09,0.312-0.19l-0.449,1.07C368.966,273.597,368.275,273.357,367.716,273.177z"/>
	<path fill="#BB9881" d="M373.905,275.207l-1.367,0.05c-0.933-0.56-1.92-1.01-2.819-1.37l0.449-1.07
		c1.479-0.92,7.551-4.71,9.688-7.05c2.44-2.67,4.73-4.52,6.63-3.99c1.65,0.45,1.894,2.79,1.923,3.36
		c-0.649,0.56-4.819,4.11-7.229,5.79C378.556,272.757,373.905,275.207,373.905,275.207z"/>
	<path fill="#BB9881" d="M388.415,265.267c0,0,1.091,0.07,1.921,1.74c0.76,1.52-0.07,2.83-0.23,3.06h-0.897
		c0,0-2.529,1.52-5.393,3.48c-2.857,1.97-5.13,3.23-7.92,4.81c-0.79-1.29-2.027-2.31-3.357-3.1l1.367-0.05c0,0,4.65-2.45,7.271-4.28
		c2.41-1.68,6.58-5.23,7.229-5.79C388.415,265.217,388.415,265.267,388.415,265.267z"/>
	<path fill="#BB9881" d="M358.865,270.407l0.021,0.47c2.979-0.2,6.74,1.62,8.83,2.3c0.56,0.18,1.25,0.42,2,0.71
		c0.896,0.36,1.89,0.81,2.819,1.37c1.327,0.79,2.567,1.81,3.357,3.1c2.79-1.58,5.062-2.84,7.92-4.81
		c2.86-1.96,5.393-3.48,5.393-3.48h0.897c-0.01,0.02-0.02,0.03-0.02,0.03s1.276,1.49,0.909,2.94c-0.383,1.46-2.5,4.26-8.029,7.18
		c-5.54,2.92-8.431,4.15-11.21,5.21c-2.79,1.06-14.41,2.65-15.86,2.8c-0.18,0.2-0.54,1.01-1.02,2.28l-0.104-0.04
		c-9.3,2.37-15.18-3.37-15.18-3.37l-0.16-0.05c1.04-3.12,1.58-5.55,1.44-7.12c-0.644-7.27-0.671-9.71-0.57-13.63
		c0.1-3.92,0.78-7.43,1.58-8.62c0,0,2.62-0.67,4.54,1.65c1.92,2.32,0.479,4.84,0.83,7.44c0.34,2.6,1.43,4.53,1.43,4.53
		s3.66-0.6,5.18-0.69C355.525,270.507,357.315,270.477,358.865,270.407z"/>
	<path fill="#BB9881" d="M248.405,250.267c-2.157,4.5-5.817,6.03-5.817,6.03h-0.67c0,0,1.59-3.71,2.04-20.37
		c0.897,0.67,1.777,1.28,2.647,1.83l0.33,0.17C251.186,241.117,250.576,245.767,248.405,250.267z"/>
	<path fill="#BB9881" d="M171.786,238.647c0.09-0.03,0.157-0.06,0.229-0.08l1.021,0.06l-0.24,17.67l-0.562,0.02
		c-0.06-1.42-0.08-2.19-0.08-2.19c-0.25-0.33-0.51-0.65-0.77-0.98c-1.96-2.43-4.13-4.93-3.84-9.05
		C167.806,240.447,170.585,239.067,171.786,238.647z"/>
	<path fill="#BB9881" d="M220.275,236.667c5.08,2.66,8.29,2.13,10.853,0.01c0.06-1.68,0.188-3.38-0.63-4.93
		c-0.812-1.55-3.08-2.65-3.08-2.65s-3.67-0.53-4.75,0.14c-1.08,0.67-1.603,1.31-2,2.54
		C220.275,232.997,220.275,236.667,220.275,236.667z M195.565,223.947c1.353-1.72,2.74-3.56,4.183-5.51
		c7.39-10,12.87-18.11,12.87-18.11s17.21,24.99,31.34,35.6c-0.45,16.66-2.04,20.37-2.04,20.37h0.67
		c-5,19.42-12.812,31.59-19.72,38.82c-6.44,6.76-12.103,9.229-13.95,9.31c-2.58,0.11-5.62-1.89-9.21-5.607c0-0.013,0-0.013,0-0.013
		c-1.75-1.8-3.61-4-5.62-6.55c-6.17-7.83-11.16-20.8-11.16-20.8l-0.34,0.04c-0.17-1.37-0.3-2.68-0.37-3.94
		c-0.97-16.3-0.03-30.26-0.03-30.26l-0.107-0.2C186.556,234.477,190.826,229.977,195.565,223.947z M198.516,271.877
		c2.94-0.69,7.07-0.12,14.15,1.06c7.09,1.19,12.229,5.51,14.479,3.68c0.32-1.96-0.37-4.44-1.188-6.28
		c-0.473-1.06-0.98-1.91-1.37-2.33c-1.09-1.17-13.47-1.21-16.47,0c-1.312,0.52-3.4,1.33-5.33,2.08c-1.86,0.71-3.593,1.37-4.32,1.65
		L198.516,271.877z M199.286,238.627c5.38,0.21,6.38-2.12,6.38-2.12c-0.75-5.75-2.21-6.85-5.71-7.37s-4.99,2.01-4.99,2.01
		l-2.05,5.36v0.42C192.916,236.927,193.916,238.427,199.286,238.627z"/>
	<path fill="#BB9881" d="M236.996,318.557l-0.12,0.49c-6.28,12.3-23.07,15.771-33.15,11.66c-2.91-5.37-5.64-10.98-8.12-16.63h0.013
		c5.737-6.37,4.157-14.9,4.09-15.26c3.59,3.72,6.63,5.72,9.21,5.607c1.85-0.08,7.51-2.55,13.95-9.31
		C222.866,295.117,223.326,315.697,236.996,318.557z"/>
	<path fill="#BB9881" d="M36.695,300.537c2.87,4.2,8.673,8.67,8.673,8.67s0.14,0.01,0.39,0.02l-0.09,0.95
		c-1.86,0.48-3.92,2.08-5.82,3.973l-0.83-1.28c0,0-6.109-6.29-8.34-10.23c-2.22-3.93-4.55-9.25-1.83-9.84
		C32.496,292.057,33.826,296.327,36.695,300.537z"/>
	<path fill="#BB9881" d="M35.916,318.177l0.22,0.183c-1.78,2.25-2.97,4.067-2.97,4.067s-1.33,0-5.96-2.25
		c-4.62-2.25-9.37-5.46-9.37-5.46h-1.16c0.04-0.027,0.07-0.04,0.07-0.04s-1.75-1.84-1.37-3.59c0.278-1.31,1.397-2.29,1.95-2.7
		l1.18,0.04c0,0,3.33,1.83,9.33,5.33S35.916,318.177,35.916,318.177z"/>
	<path fill="#BB9881" d="M39.846,314.147c-1.36,1.357-2.64,2.857-3.71,4.21l-0.22-0.183c0,0-2.08-0.92-8.08-4.42
		s-9.33-5.33-9.33-5.33l-1.18-0.04c0.18-0.14,0.3-0.21,0.3-0.21s-0.88-1.38,0-3.63c0.87-2.25,3.62-1.25,3.62-1.25l17.77,9.57
		L39.846,314.147z"/>
	<path fill="#BB9881" d="M45.666,310.177l0.09-0.95c0.85,0.062,2.96,0.223,4.62,0.61c2.12,0.5,4.5,0.21,4.5,0.21s1.5-1.75,2.37-4.75
		c0.857-3,0.25-3.5,0-7.87c-0.25-4.38,4.63-4.88,4.63-4.88s1.87,3.13,2.79,7.13s0.46,8,0.21,11s-1.38,5.12,6,15.62
		c-5.21,10.21-13.57,9.24-13.57,9.24c-2.7-2.75-3.62-3.17-3.62-3.17c-8.84,1.04-10.31,1.47-20.31-2.9
		c-10-4.38-18.29-9.41-18.29-11.66c0-1.97,1.27-2.89,1.59-3.09h1.16c0,0,4.75,3.21,9.37,5.46c4.63,2.25,5.96,2.25,5.96,2.25
		s1.188-1.817,2.97-4.067c1.07-1.353,2.35-2.853,3.71-4.213C41.746,312.257,43.806,310.657,45.666,310.177z"/>
	<path fill="#4C3122" d="M284.925,357.447l-0.13,0.607c0,0-9.15,5.96-15.59,8.82c-6.271,2.79-12.73,3.94-13.053,4
		c0.093-10.479,0.143-17.18,0.143-17.18l0.64-0.98C260.235,350.977,274.525,354.747,284.925,357.447z"/>
	<path fill="#4C3122" d="M182.925,271.457c0,0,4.99,12.97,11.16,20.8c2.01,2.55,3.87,4.75,5.62,6.55c0,0,0,0,0,0.013
		c0.067,0.357,1.647,8.89-4.09,15.26h-0.013c-6.7-15.26-11.567-30.8-13.02-42.58L182.925,271.457z"/>
	<path fill="#4C3122" d="M203.726,330.707c0.11,0.22,0.23,0.43,0.353,0.65c11.817,21.68,32,43.08,32,43.08s-7.393-0.57-16.013-8.32
		c2.562,4.438,4.9,9.27,9.98,12.85c-1.83,1.17-12.32,11.24-21.51,8.24c-9.131-6.75-15.36-18.86-25.15-50.42
		c-1.74-5.61-3.21-11.83-4.46-18.271c-4.93-25.37-6.37-54.167-6.69-62.2l0.562-0.02l0.24-17.67l-1.021-0.06
		c0.2-0.06,0.32-0.09,0.32-0.09c1.42-11.24,5.88-19.29,11.54-28.29c5.67-9,13.147-16.68,17.76-19.76c3.3-2.2,8.98-1.36,11.95-0.7
		c1.03,0.23,4.22,1.44,5.02,1.75l6.312-2.47c0,0,12.88,4.42,21.688,24.42c8.812,20,11.803,49.49,72.96,106.32
		c0,0-9.357-0.87-27.8-15.812c0.26,0.422,8.853,13.922,22.75,24.619c0,0-2.05,4.58-7.55,8.303
		c-5.431-1.812-12.181-4.093-17.721-6.103c-11.271-4.09-26.29-12.71-33.859-13.33c-7.58-0.62-11.45,1.62-16.25,1.41
		c-0.75-0.05-1.46-0.149-2.14-0.28c-13.67-2.857-14.13-23.438-14.13-23.438c6.907-7.23,14.72-19.4,19.72-38.82
		c0,0,3.66-1.53,5.82-6.03c2.17-4.5,2.777-9.15-1.473-12.34l-0.33-0.17c-0.87-0.55-1.75-1.16-2.647-1.83
		c-14.13-10.61-31.34-35.6-31.34-35.6s-5.48,8.11-12.87,18.11c-1.44,1.95-2.83,3.79-4.183,5.51c-4.737,6.03-9.01,10.53-13.487,13.15
		l0.107,0.2c0,0-0.938,13.96,0.03,30.26c0.07,1.26,0.2,2.57,0.37,3.94c1.45,11.78,6.32,27.32,13.02,42.58
		C198.085,319.727,200.815,325.337,203.726,330.707z"/>
	<path fill="#EED95F" d="M236.875,319.047l0.12-0.49c0.68,0.133,1.39,0.23,2.14,0.28c4.8,0.21,8.67-2.03,16.25-1.41
		c7.57,0.62,22.59,9.24,33.859,13.33c5.54,2.01,12.29,4.29,17.721,6.103c5.64,1.88,9.87,3.237,9.87,3.237
		c8.43-21.277,18.816-41.72,22.6-53.05l0.16,0.05c0,0,5.88,5.74,15.18,3.37l0.104,0.04c-2.271,6.01-7.381,22.312-10.921,33.12
		c-4.279,13.09-13.659,35.92-17.25,38.36c-7.25,4.89-29.643-1.41-40.109-4.11c-0.54-0.14-1.1-0.29-1.67-0.43
		c-10.4-2.7-24.69-6.473-27.99-4.73l-0.64,0.98c0,0-0.05,6.7-0.143,17.18c-0.147,16.43-0.39,42.179-0.697,66
		c-0.303,23.48,1.72,44.17,3.93,59.529c-0.63,0.189-27.14,8.279-51.35,8.771c-22.98,0.471-39.53-6.6-41.49-7.471
		c2.82-13.09,4.46-34.43,5.32-66.17c1.037-38.312-1.37-68.242-0.87-75.992c-10.021,8.812-46.5,36.25-54.723,36.521
		c-8.229,0.277-44.027-39.143-52.147-48.893c-3.021-3.607-5.23-6.027-6.82-7.64c0,0,8.36,0.97,13.57-9.24
		c7.37,10.5,44.37,38.13,44.37,38.13s23.737-19.45,30.3-25.46c6.56-6,16.88-15.62,21.77-17.729c4.88-2.103,11.44-2.69,11.44-2.69
		l0.17-0.03c1.25,6.44,2.72,12.66,4.46,18.271c9.79,31.56,16.021,43.67,25.15,50.42c9.188,3,19.68-7.07,21.51-8.24
		c-5.08-3.58-7.42-8.41-9.98-12.85c8.62,7.75,16.013,8.318,16.013,8.318s-20.183-21.398-32-43.078
		c-0.12-0.223-0.24-0.433-0.353-0.65C213.806,334.817,230.596,331.347,236.875,319.047z"/>
	<path fill="#5D9B99" d="M379.876,191.417c4.039,4.96,3.34,11.83,1.909,16.07c-3.771,7.53-18.223,7.39-18.223,7.39
		c-4.447-1.13-6.947-4.72-7.817-9.02c0,0,8.771,2.75,15.021-2.59C377.016,197.927,379.876,191.417,379.876,191.417z"/>
	<path fill="#5D9B99" d="M323.905,97.887c-0.316,1.09-0.81,2.22-1.487,3.37c-8.521,14.51-20.199,5-24.699,0
		c-3.19-3.54-3.99-7.71-1.29-12.33l1.01,0.18c0,0,7.65-2.97,15.99,0C320.306,91.547,323.126,96.287,323.905,97.887z"/>
	<path fill="#5D9B99" d="M194.085,60.527c4.5,6.62,7.02,11.96,7.02,11.96c-5.3,3.3-12.91,4.65-20.08-3.86
		c-4.188-4.97-2.479-11.25,1.62-15.92C182.646,52.707,189.585,53.897,194.085,60.527z"/>
	<path fill="#5D9B99" d="M96.636,100.477c4.521,4.18,3.84,10.58,0.68,15.83l-1.05-0.11c-5.76,5.2-19.147,1.22-24.729-9.38
		c1.107-3.58,3.46-6.61,5.56-8.55C82.036,93.697,96.636,100.477,96.636,100.477z"/>
	<path fill="#5D9B99" d="M47.795,238.557c-5.96,0.62-11.24-3.16-14.103-6.34c-4.5-5,2.5-19.5,2.5-19.5
		c2.62-2.75,6.053-3.51,9.521-2.93c0,0-5.101,5.63-4.351,14.33C42.116,232.777,42.116,232.817,47.795,238.557z"/>
	<path fill="#5D9B99" d="M169.326,720.607c0.14,0.42,0.277,0.83,0.42,1.25c7,20.262,0.67,21.75-5,28.75
		c-2.303,2.84-3.933,4.92-5.34,6.42c-2.07,2.199-3.69,3.199-6.29,3.641c-4.393,0.75-10.69,0.26-22.021-1.99
		c-5.66-1.129-11.15-2.188-15.74-3.93c-4.59-1.74-8.277-4.15-10.357-7.98c-4.15-7.654-8.5-11.84-9.34-16.688
		c-0.853-4.852,7.93-36.15,13.93-73.49c6-37.33,12.67-60.66,18-71.74s33.04-68.275,37.06-80.061c0.69-2.021,1.32-4.369,1.9-7.08
		c1.96,0.871,18.51,7.939,41.49,7.471c24.21-0.486,50.72-8.58,51.35-8.77c1.46,10.16,2.99,17.99,3.99,22.77
		c2.5,12,5.6,24.199,19.37,64.17c13.777,39.98,50.76,135.58,50.76,135.58s0,5.17-6.801,24.9c0,0,0,0.01-0.013,0.039
		c-0.52,1.52-1.077,3.119-1.688,4.811c-1.28,3.594-2.61,6.459-3.98,8.764c-7.72,12.891-17,7.445-29.52,7.236
		c-1.301-0.02-2.5,0.014-3.62,0.07c-11.66,0.648-14.83,4.779-27.14-9.82c-13.5-16-8.5-24-8.5-24s4.25-20,3-52.01v-0.49
		c-8.75-26.25-18.25-45.75-31.25-99.5c-4.57-18.896-8.49-30.791-11.723-38.275l-0.317,0.02c0,0-13.21,19.59-22.21,37.92
		c-9,18.34-23.41,40.541-24.54,47.84c-1.12,7.301-1.5,17.531-0.37,32.91C165.945,674.396,162.875,700.507,169.326,720.607z"/>
	<path d="M223.85,230.81c1-1.25,2.25,0.89,1.159,1.52C223.93,232.97,222.85,232.06,223.85,230.81z"/>
	<path d="M201.799,232.26c-1.199,0.92-2.05-0.66-1.63-1.25C200.169,231.01,202.999,231.35,201.799,232.26z"/>
	<path fill="#FFFFFF" d="M202.789,270.09c1.931-0.75,4.021-1.56,5.33-2.08c3-1.21,15.38-1.17,16.47,0
		c0.391,0.42,0.891,1.27,1.37,2.33l-0.229,0.1h-4.931c-4.739,0.09-15.949,0.12-18.01,0.13c-0.21,0-0.319,0-0.319,0l-0.12-0.31
		C202.49,270.2,202.64,270.15,202.789,270.09z"/>
	<path fill="#FFFFFF" d="M212.659,272.94c-6.97-1.16-11.08-1.73-14.01-1.09l-0.03-0.17c0.72-0.28,2.15-0.82,3.73-1.42l0.12,0.31
		c0,0,0.109,0,0.319,0c2.061-0.01,13.271-0.04,18.01-0.13h4.931l0.229-0.1c0.811,1.84,1.511,4.32,1.181,6.28
		C224.89,278.45,219.749,274.13,212.659,272.94z"/>
	<path fill="#FFFFFF" d="M225.009,232.33c1.091-0.63-0.159-2.77-1.159-1.52S223.93,232.97,225.009,232.33z M222.669,229.24
		c1.08-0.67,4.75-0.14,4.75-0.14s2.271,1.1,3.08,2.65c0.82,1.55,0.69,3.25,0.63,4.93c-2.56,2.12-5.77,2.65-10.85-0.01
		c0,0,0-3.67,0.39-4.89C221.07,230.55,221.589,229.91,222.669,229.24z"/>
	<path fill="#FFFFFF" d="M201.799,232.26c1.2-0.91-1.63-1.25-1.63-1.25C199.749,231.6,200.6,233.18,201.799,232.26z M199.959,229.14
		c3.5,0.52,4.96,1.62,5.71,7.37c0,0-1,2.33-6.38,2.12c-5.37-0.2-6.37-1.7-6.37-1.7v-0.42l2.051-5.36
		C194.97,231.15,196.459,228.62,199.959,229.14z"/>
</g>
<g id="Layer_1_2_">
	<path fill="none" stroke="#000000" stroke-width="3" stroke-linecap="round" stroke-linejoin="round" stroke-miterlimit="10" d="
		M218.795,191.547c0,0-0.07-0.03-0.19-0.07c-0.8-0.31-3.987-1.52-5.02-1.75c-2.97-0.66-8.65-1.5-11.95,0.7
		c-4.61,3.08-12.09,10.76-17.76,19.76c-5.66,9-10.12,17.05-11.54,28.29c0,0-0.12,0.03-0.32,0.09c-0.07,0.02-0.14,0.05-0.229,0.08
		c-1.2,0.42-3.98,1.8-4.24,5.45c-0.29,4.12,1.88,6.62,3.84,9.05c0.26,0.33,0.52,0.65,0.77,0.98c0,0,0.021,0.77,0.08,2.19
		c0.32,8.03,1.763,36.83,6.69,62.2c1.25,6.44,2.72,12.66,4.46,18.271c9.79,31.56,16.021,43.67,25.15,50.42
		c9.188,3,19.68-7.07,21.51-8.24c-5.08-3.58-7.42-8.41-9.98-12.85c8.62,7.75,16.013,8.319,16.013,8.319s-20.183-21.399-32-43.079
		c-0.12-0.223-0.24-0.433-0.353-0.65c-2.91-5.37-5.64-10.98-8.12-16.63c-6.698-15.26-11.567-30.8-13.02-42.58
		c-0.17-1.37-0.3-2.68-0.37-3.94c-0.97-16.3-0.03-30.26-0.03-30.26"/>
	<path fill="none" stroke="#000000" stroke-width="3" stroke-linecap="round" stroke-linejoin="round" stroke-miterlimit="10" d="
		M179.735,238.277c0.79-0.34,1.57-0.73,2.343-1.18c4.479-2.62,8.75-7.12,13.487-13.15c1.353-1.72,2.74-3.56,4.183-5.51
		c7.39-10,12.87-18.11,12.87-18.11s17.21,24.99,31.34,35.6c0.897,0.67,1.777,1.28,2.647,1.83"/>
	
		<line fill="none" stroke="#000000" stroke-width="1.5" stroke-linecap="round" stroke-linejoin="round" stroke-miterlimit="10" x1="173.036" y1="238.627" x2="172.795" y2="256.297"/>
	<path fill="none" stroke="#000000" stroke-width="3" stroke-linecap="round" stroke-linejoin="round" stroke-miterlimit="10" d="
		M182.925,271.457c0,0,4.99,12.97,11.16,20.8c2.01,2.55,5.621,6.562,5.621,6.562c3.59,3.72,6.63,5.72,9.21,5.607
		c1.85-0.08,7.51-2.55,13.95-9.31c6.907-7.23,14.72-19.4,19.72-38.82c0,0,3.66-1.53,5.82-6.03c2.17-4.5,2.777-9.15-1.473-12.34"/>
	<path fill="none" stroke="#000000" stroke-width="1.5" stroke-linecap="round" stroke-linejoin="round" stroke-miterlimit="10" d="
		M241.916,256.297c0,0,1.59-3.71,2.04-20.37"/>
	<path fill="none" stroke="#000000" stroke-width="3" stroke-linecap="round" stroke-linejoin="round" stroke-miterlimit="10" d="
		M218.416,191.547l0.188-0.07l6.312-2.47c0,0,12.88,4.42,21.688,24.42c8.812,20,11.803,49.49,72.96,106.32
		c0,0-9.357-0.87-27.8-15.812l-0.01-0.01"/>
	
		<path id="hair_corner_1_" fill="none" stroke="#000000" stroke-width="3" stroke-linecap="round" stroke-linejoin="round" stroke-miterlimit="10" d="
		M291.766,303.938c0.26,0.422,8.853,13.922,22.75,24.619c0,0-2.05,4.58-7.55,8.303"/>
	<path fill="none" stroke="#000000" stroke-width="1.5" stroke-linecap="round" stroke-linejoin="round" stroke-miterlimit="10" d="
		M195.565,223.947c0,0,3.103,0.729,6.853-0.85c3.75-1.59,5.67-4.59,5.67-4.59"/>
	<path fill="none" stroke="#000000" stroke-width="1.5" stroke-linecap="round" stroke-linejoin="round" stroke-miterlimit="10" d="
		M218.416,220.847c0,0,1.83-4,7.58-2.34"/>
	<path fill="none" stroke="#000000" stroke-width="1.5" stroke-linecap="round" stroke-linejoin="round" stroke-miterlimit="10" d="
		M192.916,236.507l2.05-5.36c0,0,1.49-2.53,4.99-2.01s4.96,1.62,5.71,7.37c0,0-1,2.33-6.38,2.12c-5.37-0.2-6.37-1.7-6.37-1.7"/>
	<path fill="none" stroke="#000000" stroke-linecap="round" stroke-linejoin="round" stroke-miterlimit="10" d="M198.585,241.097
		c0,0,3.41,0,5.16-1.5s1.92-3.09,1.92-3.09"/>
	<path fill="none" stroke="#000000" stroke-width="3" stroke-linecap="round" stroke-linejoin="round" stroke-miterlimit="10" d="
		M200.166,231.007c-0.42,0.59,0.43,2.17,1.63,1.25C202.996,231.347,200.166,231.007,200.166,231.007z"/>
	<path fill="none" stroke="#000000" stroke-width="1.5" stroke-linecap="round" stroke-linejoin="round" stroke-miterlimit="10" d="
		M220.275,236.667c0,0,0-3.67,0.393-4.89c0.397-1.23,0.92-1.87,2-2.54c1.08-0.67,4.75-0.14,4.75-0.14s2.27,1.1,3.08,2.65
		c0.817,1.55,0.688,3.25,0.63,4.93C228.565,238.797,225.355,239.327,220.275,236.667z"/>
	<path fill="none" stroke="#000000" stroke-linecap="round" stroke-linejoin="round" stroke-miterlimit="10" d="M219.996,235.927
		c0,0,0.01,1.92,1.67,3.42c1.67,1.5,3.59,2.41,3.59,2.41"/>
	<path fill="none" stroke="#000000" stroke-width="3" stroke-linecap="round" stroke-linejoin="round" stroke-miterlimit="10" d="
		M223.846,230.807c1-1.25,2.25,0.89,1.16,1.52C223.925,232.967,222.846,232.057,223.846,230.807z"/>
	<path fill="none" stroke="#000000" stroke-width="1.5" stroke-linecap="round" stroke-linejoin="round" stroke-miterlimit="10" d="
		M211.746,227.597c0,0,0.84,5.77,0.25,9.92c-0.58,4.15-2.82,8.65-2.82,8.65s-7.08-0.66-7.38,3.09c-0.2,2.51,1.35,6.94,3.87,9.86
		c1.238,1.44,2.71,2.51,4.33,2.81h1.5"/>
	<path fill="none" stroke="#000000" stroke-width="1.5" stroke-linecap="round" stroke-linejoin="round" stroke-miterlimit="10" d="
		M202.835,255.677c0,0-1.78,0.33-2.09,2.67c-0.303,2.33,1.38,3.5,2.17,3.58c0.8,0.08,0.33-0.42,0.83-1.33
		c0.5-0.92,1.92-1.48,1.92-1.48"/>
	<path fill="none" stroke="#000000" stroke-width="1.5" stroke-linecap="round" stroke-linejoin="round" stroke-miterlimit="10" d="
		M215.335,261.097c0,0,0-3.5,2.41-3.42c2.42,0.08,1.17,2.92,2.25,3c1.09,0.08,3.647-0.58,3.447-3.08
		c-0.197-2.5-1.857-4.17-3.027-4.17"/>
	<path fill="none" stroke="#000000" stroke-width="1.5" stroke-linecap="round" stroke-linejoin="round" stroke-miterlimit="10" d="
		M197.036,269.227c0,0-0.46,0.78,0.31,3.8c0.771,3.03,1.93,3.59,1.93,3.59"/>
	<path fill="none" stroke="#000000" stroke-width="1.5" stroke-linecap="round" stroke-linejoin="round" stroke-miterlimit="10" d="
		M198.085,271.877c0,0,0.14-0.05,0.38-0.14c0.729-0.28,2.46-0.94,4.32-1.65c1.93-0.75,4.02-1.56,5.33-2.08
		c3-1.21,15.38-1.17,16.47,0c0.39,0.42,0.897,1.27,1.37,2.33c0.817,1.84,1.51,4.32,1.188,6.28c-2.25,1.83-7.39-2.49-14.479-3.68
		c-7.08-1.18-11.21-1.75-14.15-1.06"/>
	<path fill="none" stroke="#000000" stroke-width="1.5" stroke-linecap="round" stroke-linejoin="round" stroke-miterlimit="10" d="
		M202.465,270.567c0,0,0.11,0,0.32,0c2.06-0.01,13.27-0.04,18.01-0.13h4.93"/>
	<path fill="none" stroke="#000000" stroke-width="3" stroke-linecap="round" stroke-linejoin="round" stroke-miterlimit="10" d="
		M199.706,298.818c0.067,0.357,1.647,8.89-4.09,15.26"/>
	<path fill="none" stroke="#000000" stroke-width="3" stroke-linecap="round" stroke-linejoin="round" stroke-miterlimit="10" d="
		M178.755,318.547c0,0-6.562,0.59-11.44,2.69c-4.89,2.107-15.21,11.729-21.77,17.729c-6.562,6.01-30.3,25.46-30.3,25.46
		s-37-27.63-44.37-38.13c-7.38-10.5-6.25-12.62-6-15.62s0.71-7-0.21-11s-2.79-7.13-2.79-7.13s-4.88,0.5-4.63,4.88
		c0.25,4.37,0.857,4.87,0,7.87c-0.87,3-2.37,4.75-2.37,4.75s-2.38,0.29-4.5-0.21c-1.66-0.39-3.771-0.55-4.62-0.61
		c-0.25-0.01-0.39-0.02-0.39-0.02s-5.803-4.47-8.673-8.67c-2.867-4.21-4.197-8.48-7.85-7.74c-2.72,0.59-0.39,5.91,1.83,9.84
		c2.229,3.94,8.34,10.23,8.34,10.23l-17.77-9.57c0,0-2.75-1-3.62,1.25c-0.88,2.25,0,3.63,0,3.63s-0.12,0.07-0.3,0.21
		c-0.553,0.41-1.673,1.393-1.95,2.7c-0.38,1.75,1.37,3.59,1.37,3.59s-0.03,0.013-0.07,0.04c-0.32,0.2-1.59,1.12-1.59,3.09
		c0,2.25,8.29,7.28,18.29,11.66c10,4.37,11.47,3.94,20.31,2.9c0,0,0.92,0.42,3.62,3.17c1.59,1.61,3.8,4.03,6.82,7.64
		c8.12,9.75,43.92,49.17,52.147,48.893c8.223-0.271,44.7-27.71,54.723-36.521c-0.5,7.75,1.907,37.682,0.868,75.992
		c-0.858,31.74-2.5,53.082-5.318,66.17c-0.58,2.711-1.21,5.061-1.9,7.08c-4.02,11.779-31.729,68.979-37.06,80.061
		c-5.33,11.08-12,34.41-18,71.74c-6,37.34-14.78,68.639-13.933,73.49c0.843,4.85,5.19,9.029,9.343,16.688
		c2.08,3.83,5.77,6.24,10.357,7.98s10.08,2.801,15.74,3.93c11.33,2.25,17.63,2.74,22.021,1.99c2.602-0.439,4.222-1.439,6.289-3.641
		c1.41-1.5,3.04-3.58,5.343-6.424c5.67-7,12-8.484,5-28.75c-0.143-0.42-0.28-0.826-0.42-1.25c-6.45-20.1-3.383-46.211-4.49-61.27
		c-1.13-15.381-0.75-25.611,0.37-32.91c1.13-7.301,15.54-29.5,24.54-47.84c9-18.33,22.21-37.92,22.21-37.92"/>
	<path fill="none" stroke="#000000" stroke-width="1.5" stroke-linecap="round" stroke-linejoin="round" stroke-miterlimit="10" d="
		M46.505,320.177c0,0,2.74-5.46,8.37-9.34"/>
	<path fill="none" stroke="#000000" stroke-width="1.5" stroke-linecap="round" stroke-linejoin="round" stroke-miterlimit="10" d="
		M18.505,308.427c0,0,3.33,1.83,9.33,5.33s8.08,4.42,8.08,4.42"/>
	<path fill="none" stroke="#000000" stroke-width="1.5" stroke-linecap="round" stroke-linejoin="round" stroke-miterlimit="10" d="
		M17.835,314.717c0,0,4.75,3.21,9.37,5.46c4.63,2.25,5.96,2.25,5.96,2.25s1.188-1.817,2.97-4.067c1.07-1.353,2.35-2.853,3.71-4.21
		c1.9-1.893,3.96-3.49,5.82-3.973"/>
	<path fill="none" stroke="#000000" stroke-width="1.5" stroke-linecap="round" stroke-linejoin="round" stroke-miterlimit="10" d="
		M57.306,335.537c0,0,8.36,0.97,13.57-9.24"/>
	<path fill="none" stroke="#000000" stroke-width="3" stroke-linecap="round" stroke-linejoin="round" stroke-miterlimit="10" d="
		M166.346,497.607c0,0,0.07,0.029,0.2,0.102c1.96,0.869,18.51,7.939,41.49,7.469c24.21-0.484,50.72-8.58,51.35-8.77
		c0.01-0.01,0.01-0.01,0.01-0.01"/>
	<path fill="none" stroke="#000000" stroke-width="3" stroke-linecap="round" stroke-linejoin="round" stroke-miterlimit="10" d="
		M201.746,527.626c0.97,0.32,4.567-0.799,10.527,13.02c3.23,7.488,7.15,19.381,11.723,38.279c13,53.75,22.5,73.25,31.25,99.5v0.492
		c1.25,32.01-3,52.01-3,52.01s-5,8,8.5,24c12.31,14.6,15.479,10.469,27.14,9.82c1.12-0.062,2.319-0.092,3.62-0.07
		c12.52,0.209,21.8,5.65,29.52-7.24c1.37-2.301,2.7-5.17,3.98-8.76c0.609-1.689,1.17-3.291,1.688-4.811l0.119-0.354
		c6.801-19.729,6.693-24.588,6.693-24.588s-36.98-95.6-50.76-135.58c-13.771-39.969-16.87-52.17-19.37-64.17
		c-1-4.775-2.53-12.605-3.99-22.77c-2.21-15.359-4.229-36.051-3.93-59.529c0.31-23.82,0.55-49.571,0.699-66
		c0.091-10.479,0.141-17.18,0.141-17.18"/>
	<path fill="none" stroke="#000000" stroke-width="3" stroke-linecap="round" stroke-linejoin="round" stroke-miterlimit="10" d="
		M222.866,295.117c0,0,0.46,20.58,14.13,23.438c0.68,0.132,1.39,0.23,2.14,0.28c4.8,0.21,8.67-2.03,16.25-1.41
		c7.57,0.62,22.59,9.24,33.859,13.33c5.54,2.01,12.29,4.29,17.721,6.103c5.64,1.88,9.87,3.237,9.87,3.237
		c8.43-21.277,18.816-41.72,22.6-53.05c1.04-3.12,1.58-5.55,1.44-7.12c-0.644-7.27-0.671-9.71-0.57-13.63
		c0.103-3.92,0.78-7.43,1.58-8.62c0,0,2.62-0.67,4.54,1.65c1.92,2.32,0.479,4.84,0.83,7.44c0.34,2.6,1.43,4.53,1.43,4.53
		s3.66-0.6,5.183-0.69c1.657-0.1,3.447-0.13,5-0.2c1.25-0.06,2.357-0.14,3.117-0.31c1.71-0.38,5.98-1.89,7.86-6.01
		c1.87-4.13,1.76-9.53,4.31-9.72c2.562-0.19,2.604,1.11,2.474,6.93c-0.12,5.8-6.792,11.721-6.792,11.721s0.01,0,0.02-0.01
		c0.05-0.03,0.15-0.09,0.312-0.19c1.479-0.92,7.551-4.71,9.688-7.05c2.44-2.67,4.73-4.52,6.63-3.99c1.65,0.45,1.894,2.79,1.923,3.36
		c0.01,0.08,0.01,0.13,0.01,0.13s1.091,0.07,1.921,1.74c0.76,1.52-0.07,2.83-0.23,3.06c-0.01,0.02-0.02,0.03-0.02,0.03
		s1.279,1.49,0.909,2.94c-0.38,1.46-2.5,4.26-8.029,7.18c-5.54,2.92-8.431,4.15-11.21,5.21c-2.79,1.06-14.41,2.65-15.86,2.8
		c-0.18,0.2-0.54,1.01-1.02,2.28c-2.271,6.01-7.381,22.312-10.921,33.12c-4.279,13.09-13.659,35.92-17.25,38.36
		c-7.25,4.89-29.643-1.41-40.109-4.11c-0.54-0.14-1.1-0.29-1.67-0.43c-10.4-2.7-24.689-6.473-27.99-4.73"/>
	<path fill="none" stroke="#000000" stroke-width="1.5" stroke-linecap="round" stroke-linejoin="round" stroke-miterlimit="10" d="
		M339.596,287.097c0,0,5.88,5.74,15.18,3.37"/>
	<path fill="none" stroke="#000000" stroke-width="1.5" stroke-linecap="round" stroke-linejoin="round" stroke-miterlimit="10" d="
		M350.436,278.617c3.94-4.38,9.16-1.43,13.42-1.19c4.25,0.24,8.73-1.33,12.04,0.93"/>
	<path fill="none" stroke="#000000" stroke-width="1.5" stroke-linecap="round" stroke-linejoin="round" stroke-miterlimit="10" d="
		M358.415,270.927c0.16-0.02,0.311-0.04,0.471-0.05c2.979-0.2,6.74,1.62,8.83,2.3c0.56,0.18,1.25,0.42,2,0.71
		c0.899,0.36,1.89,0.81,2.819,1.37c1.33,0.79,2.567,1.81,3.357,3.1c2.79-1.58,5.062-2.84,7.92-4.81c2.86-1.96,5.393-3.48,5.393-3.48
		"/>
	<path fill="none" stroke="#000000" stroke-width="1.5" stroke-linecap="round" stroke-linejoin="round" stroke-miterlimit="10" d="
		M373.905,275.207c0,0,4.65-2.45,7.271-4.28c2.41-1.68,6.58-5.23,7.229-5.79c0.062-0.05,0.093-0.08,0.093-0.08"/>
	<path fill="none" stroke="#000000" stroke-width="3" stroke-linecap="round" stroke-linejoin="round" stroke-miterlimit="10" d="
		M284.795,358.057c0,0-9.15,5.96-15.59,8.82c-6.271,2.79-12.73,3.94-13.05,4c-0.013,0-0.013,0-0.013,0"/>
	<path fill="none" stroke="#000000" stroke-width="1.5" stroke-linecap="round" stroke-linejoin="round" stroke-miterlimit="10" d="
		M203.226,330.507c0.16,0.07,0.33,0.143,0.5,0.2c10.08,4.11,26.87,0.64,33.15-11.66"/>
	<path fill="none" stroke="#000000" stroke-width="1.5" stroke-linecap="round" stroke-linejoin="round" stroke-miterlimit="10" d="
		M157.416,689.318c0,0,0.5,8.609,4,17.609c2.55,6.561,6.147,11.49,7.91,13.68c0.657,0.82,1.06,1.25,1.06,1.25"/>
	<path fill="none" stroke="#000000" stroke-width="3" stroke-linecap="round" stroke-linejoin="round" stroke-miterlimit="10" d="
		M159.985,757.277c0,0,0.28,5.199,0.053,9.119c-0.07,1.191-0.183,2.262-0.36,3.031c-0.021,0.09-0.05,0.18-0.07,0.26
		c-0.88,3.369-4.71,7.521-25,5.852c0,0-2.93-0.48-6.92-0.201c-1.607,0.109-3.397,0.34-5.24,0.781c-0.947,0.229-2,0.479-3.13,0.738
		c-6.409,1.449-15.027,3.051-18.197,1.609c-3.893,1.811-7.803,1.98-9.962,1.51c-4.778-0.549-4.788-4.09-4.788-4.119
		c0,0-1.37,1.221-2.812,0.75c-1.42-0.459-2.729-1.689-2.82-2.939c-1.25-0.061-2.31-1.471-2.04-2.34
		c0.07-0.23,0.223-0.41,0.473-0.539c-0.29-1.881,1.97-2.82,1.97-2.82c-0.31-1.91,7.84-2.631,7.84-2.631s5.2-1.641,10.58-3.129
		c0.82-0.23,1.641-0.461,2.45-0.67c2.6-0.682,6.788-2.361,6.788-2.361c2.62-1.107,5.93-2.771,7.569-3.363"/>
	<path fill="none" stroke="#000000" stroke-width="3" stroke-linecap="round" stroke-linejoin="round" d="M78.775,771.337
		c-0.027,0-0.05-0.01-0.08-0.01c-0.979-0.092-2.5,0.729-2.68,3.139c-0.1,1.49,0.65,3.551,2.62,5.24
		c5.25,4.51,12.6,6.551,19.83,5.949c7.229-0.609,19.91-4.555,40.39-4.014c11.603,0.42,15.521-0.301,19.71-2.34
		c4.183-2.041,4.812-5.051,4.812-5.051l0.46-3.811l-3.05-2.971l-0.683-1.08"/>
	<path fill="none" stroke="#000000" stroke-width="3" stroke-linecap="round" stroke-linejoin="round" d="M99.556,762.216
		c0,0,1.17-0.359,8.53,3.5c7.357,3.852,10.56,7.061,11.21,11.061"/>
	<path fill="none" stroke="#000000" stroke-width="3" stroke-linecap="round" stroke-linejoin="round" d="M108.686,759.197
		c0,0,0.03-0.01,0.103-0.02c0,0,0,0,0.01,0c0.57-0.08,3.39-0.311,7.83,2.619c4.99,3.291,6.27,4.75,8.08,7.109
		c1.77,2.291,2.91,6.201,2.979,6.432c0,0.01,0,0.01,0,0.01"/>
	<path fill="none" stroke="#000000" stroke-width="1.5" stroke-linecap="round" stroke-linejoin="round" stroke-miterlimit="10" d="
		M250.255,643.296c5,16.16,5.66,34.961,5.66,34.961"/>
	<path fill="none" stroke="#000000" stroke-width="3" stroke-linecap="round" stroke-linejoin="round" stroke-miterlimit="10" d="
		M287.886,764.828l-2.51,4.59l-3.29,2.17c0,0-0.521,1.83,0.08,3.59c0.487,1.41,1.72,2.781,4.567,3.08
		c6.36,0.66,7.394-2.17,7.394-2.17s0.63,2.211,2.97,2.271c2.33,0.061,4-2.439,4-2.439s1.14,2.51,3.97,2.41
		c2.84-0.102,3.36-2.262,3.36-2.262s0.95,2.84,3.62,2.561c2.67-0.27,3.72-2.379,3.72-2.379s3.149,1.859,4.64,0.039
		c1.491-1.82,1.354-3.199,1.354-3.199s3.25-3.121,4.5-11.33c0,0,0.08-0.43,0.188-1.141c0.271-1.689,0.75-5,0.854-7.939
		c0.06-1.461,0.02-2.83-0.17-3.881c-0.66-3.561-0.48-4.709-0.434-4.93c0.013-0.029,0.013-0.039,0.013-0.039"/>
	<path fill="none" stroke="#000000" stroke-width="3" stroke-linecap="round" stroke-linejoin="round" stroke-miterlimit="10" d="
		M327.325,752.677c0.487,4.049,2.051,11.561,1.737,15.619c-0.31,4.07-2.31,11.689-2.31,11.689s-1.69,4.75-22.57,5.311
		c-20.87,0.57-22.188,0.07-24.31-4.369c-2.13-4.439,0.67-5.471,1.5-5.561"/>
	<path fill="none" stroke="#000000" stroke-width="3" stroke-linecap="round" stroke-linejoin="round" stroke-miterlimit="10" d="
		M321.205,757.546c0,0,4.147-0.439,5.237,3.07c0.062,0.141,0.104,0.289,0.133,0.449"/>
	<path fill="none" stroke="#000000" stroke-width="3" stroke-linecap="round" stroke-linejoin="round" stroke-miterlimit="10" d="
		M47.795,238.557c-5.96,0.62-11.24-3.16-14.103-6.34c-4.5-5,2.5-19.5,2.5-19.5c2.62-2.75,6.053-3.51,9.521-2.93
		c9.78,1.64,19.84,13.94,12.68,22.43C54.855,236.417,51.215,238.207,47.795,238.557z"/>
	<path fill="none" stroke="#000000" stroke-width="1.5" stroke-linecap="round" stroke-linejoin="round" stroke-miterlimit="10" d="
		M45.715,209.787c0,0-5.1,5.63-4.35,14.33c0.75,8.66,0.75,8.7,6.43,14.44c0.02,0.02,0.05,0.05,0.07,0.07"/>
	<path fill="none" stroke="#000000" stroke-width="3" stroke-linecap="round" stroke-linejoin="round" stroke-miterlimit="10" d="
		M71.536,106.817c1.107-3.58,3.46-6.61,5.56-8.55c4.94-4.57,19.54,2.21,19.54,2.21c4.521,4.18,3.84,10.58,0.68,15.83
		c-4.29,7.12-13.147,12.14-19.85,6.65C70.775,117.487,70.025,111.657,71.536,106.817z"/>
	<path fill="none" stroke="#000000" stroke-width="1.5" stroke-linecap="round" stroke-linejoin="round" stroke-miterlimit="10" d="
		M71.536,106.817c5.58,10.6,18.97,14.58,24.729,9.38"/>
	<path fill="none" stroke="#000000" stroke-width="3" stroke-linecap="round" stroke-linejoin="round" stroke-miterlimit="10" d="
		M201.105,72.487c1.87-1.16,3.44-2.56,4.61-3.86c4.5-5-2.5-19.5-2.5-19.5c-5.68-5.96-15.19-2.57-20.57,3.58
		c-4.1,4.67-5.81,10.95-1.62,15.92C188.195,77.137,195.806,75.787,201.105,72.487z"/>
	<path fill="none" stroke="#000000" stroke-width="1.5" stroke-linecap="round" stroke-linejoin="round" stroke-miterlimit="10" d="
		M182.646,52.707c0,0,6.94,1.19,11.44,7.82c4.5,6.62,7.02,11.96,7.02,11.96"/>
	<path fill="none" stroke="#000000" stroke-width="3" stroke-linecap="round" stroke-linejoin="round" stroke-miterlimit="10" d="
		M296.426,88.927c1.12-1.9,2.83-3.88,5.22-5.92c7.521-6.43,26.021,2.14,22.263,14.88c-0.319,1.09-0.812,2.22-1.49,3.37
		c-8.521,14.51-20.199,5-24.699,0C294.525,97.717,293.726,93.547,296.426,88.927z"/>
	<path fill="none" stroke="#000000" stroke-width="1.5" stroke-linecap="round" stroke-linejoin="round" stroke-miterlimit="10" d="
		M297.436,89.107c0,0,7.65-2.97,15.99,0c6.88,2.44,9.7,7.18,10.479,8.78c0.173,0.34,0.24,0.54,0.24,0.54"/>
	<path fill="none" stroke="#000000" stroke-width="3" stroke-linecap="round" stroke-linejoin="round" stroke-miterlimit="10" d="
		M379.876,191.417c4.039,4.96,3.34,11.83,1.909,16.07c-3.771,7.53-18.223,7.39-18.223,7.39c-4.447-1.13-6.947-4.72-7.817-9.02
		c-1.88-9.27,3.817-21.8,13.92-19.89C374.615,186.907,377.855,188.917,379.876,191.417z"/>
	<path fill="none" stroke="#000000" stroke-width="1.5" stroke-linecap="round" stroke-linejoin="round" stroke-miterlimit="10" d="
		M355.745,205.857c0,0,8.771,2.75,15.021-2.59c6.25-5.34,9.11-11.85,9.11-11.85"/>
</g>
</svg>
