<?xml version="1.0" encoding="utf-8"?>
<!-- Generator: Adobe Illustrator 16.0.0, SVG Export Plug-In . SVG Version: 6.00 Build 0)  -->
<!DOCTYPE svg PUBLIC "-//W3C//DTD SVG 1.1//EN" "http://www.w3.org/Graphics/SVG/1.1/DTD/svg11.dtd">
<svg version="1.1" id="Layer_1" xmlns="http://www.w3.org/2000/svg" xmlns:xlink="http://www.w3.org/1999/xlink" x="0px" y="0px"
	 width="421.324px" height="407.352px" viewBox="0 0 421.324 407.352" enable-background="new 0 0 421.324 407.352"
	 xml:space="preserve">
<g>
	<path fill="#BB9881" d="M314.43,54.507c7.34-3.55,6.34,6.62,5.5,10.79c-0.83,4.16-2.601,3.94-3.479,4.16
		c-0.881,0.22-1.521-2.33-1.521-2.33C314.77,62.626,314.43,54.507,314.43,54.507z"/>
	<path fill="#BB9881" d="M257.89,96.667c3.641,4.76,7.329,8.82,10.35,11.85c1.6,2.9,0.32,5.67-1.49,7.8
		c-2.06,2.42-4.818,4.01-4.818,4.01s-0.352,0.19-1.66,1.28c-11.16-1.05-13.34-10.21-13.551-11.27c1.841-1.18,2.9-1.84,2.9-1.84
		s-13.189-14.7-17.021-18.96c-3.83-4.26-0.67-2.91,4.681-9.24c5.35-6.34,7.959-4.34,7.959-4.34l0.65-0.2
		c0.729,2.56,2.189,5.72,4.689,10.04C252.83,89.687,255.35,93.347,257.89,96.667z M244.1,88.757c-0.312-0.36-0.302-1.58-0.229-2.64
		c0.1-0.11,0.16-0.23,0.189-0.38c0.189-1.07,0-1.38,0-1.38s-0.12,0.82-0.189,1.76c-0.551,0.67-2.121,0.64-2.121,0.64l0.621,0.41
		C242.369,87.167,243.089,87.856,244.1,88.757z"/>
	<path fill="#BB9881" d="M282.729,135.106l-0.05-0.06c1.67-1.35,3.05-3.06,4.02-5.28c1.51-4.58,1.17-8.59,1.17-8.59l0.24-1.07
		c0.971,0.21,1.78,0.29,2.32,0.16c0.6-0.14,1.27-0.53,1.979-1.11c2.58-2.1,5.58-6.68,7.42-10.43l0.84-1.6h0.021
		c-0.641,14.99-1.352,30.92-1.99,44.2l-0.6-0.03c0,0-5.842,3.17-13.102,0C277.859,148.187,282.56,135.566,282.729,135.106z"/>
	<path fill="#BB9881" d="M274.609,57.247l0.7,0.01c0,0,1.12,1.29,2.188,2.1c0.75,0.39,3.182,0.36,5.17,0.11
		c1.99-0.25,6.69-4.06,6.69-4.06s-2.36-1.35-6.55-0.92C279.27,54.836,275.649,56.687,274.609,57.247z M268.24,108.517
		c-3.021-3.03-6.711-7.09-10.351-11.85c-2.54-3.32-5.062-6.98-7.312-10.87c-2.5-4.32-3.959-7.48-4.688-10.04
		c-0.972-3.3-0.75-5.6-0.062-8.11c0.58-2.15,1.5-4.44,2.312-7.64c2.479-9.82,2.409-11.96,6.729-20.85
		c3.159-6.5,8.069-12.66,10.5-15.41l0.139-0.06c1.451,3.36,5.111,9.55,14.092,17.1c13.67,11.5,23.17,15.34,23.17,15.34
		s-0.939,23.98-2.08,51h-0.021l-0.84,1.6c-1.84,3.75-4.84,8.33-7.42,10.43c-0.709,0.58-1.38,0.97-1.979,1.11
		c-0.54,0.13-1.352,0.05-2.32-0.16c-4.119-0.9-11.189-4.35-13.71-6.09C273.298,113.257,271.048,111.336,268.24,108.517z
		 M250.819,63.967c-0.579,0.85-0.72,2.02-0.72,2.02c0.08,0,1.199-0.02,5.93-1.02c4.92-1.05,5.24-3.78,5.24-3.78
		s-1.359-0.54-4.141-0.08c-2.791,0.47-4.641,0.51-6.271,2.79C250.839,63.917,250.83,63.937,250.819,63.967z"/>
	<path fill="#BB9881" d="M415.43,344.708c0,0,1,0.42,0.17,2.59s-2.521,2.67-2.521,2.67s-0.479,1.66-2.479,3
		c-2,1.33-13.5-7.17-18-8.84c1.83,4.83,12.67,11.67,10.67,14.17s-8.13-0.291-18.21-9.461c-4.41-4.01-6.932-6.09-9.32-6.49
		c-2.39-0.389-5.74,1.83-9.17,3.98c-6.102,3.83-10.33-0.051-11.109-1.42c-0.779-1.359,6.641-5.109,8.811-8.109
		c2.16-3,4.239-5.42,5.83-6.58c1.58-1.17,5.38-2.131,4.21-6.301c-0.12-0.42-0.33-1.09-0.62-1.979l0.04-0.012c0,0,5.95,4.641,14.45,0
		l1.359-0.67c1.16,3.211,5.521,6.061,9.391,9.211c4,3.25,15.67,10.33,16.34,11.83C415.93,343.797,415.43,344.708,415.43,344.708z"/>
	<path fill="#BB9881" d="M144.779,372.547c1.32,0.16,15.59,1.859,21.83,3.43c6.359,1.59,16.59,3.529,20.13,8.9
		c-4.74,2.689-9.3,4.43-11.78,5.18c-4.399,1.32-6.609,1.34-8.479,1.119c-1.86-0.209-2.96-1.33-2.96-1.33s-2.11,1.84-4.92,1.32
		c-2.811-0.52-3.4-2.279-3.4-2.279s-3.14,1.391-4.82,1.24c-1.689-0.15-3.229-2.271-3.229-2.271s-3.33,1.811-4.97,1.34
		c-1.641-0.479-3.091-3.148-3.091-3.148s-5.819,1.939-8.1-2.521c-0.38-0.75-0.67-1.43-0.9-2.051
		c-1.09-3.068-0.439-4.578-0.439-4.578s1.53-1.461,7.58-2.33c2.66-0.391,5.18-1.5,7.189-2.631L144.779,372.547z"/>
	<path fill="#BB9881" d="M57.049,362.938l0.051,0.199c-8.091,2.1-19.49,7.859-25,5.07c-2.57-1.24-4.07-1.311-4.53-1.561
		c-7.37,3.469-13.49,0.34-13.42-3.281c-1.13-0.039-1.061-0.658-1.061-0.658c-0.229-0.262-0.33-0.66-0.359-1.102
		c-0.09-0.949,0.14-2.051,0.14-2.051l3.11-1.969c0,0-1.53-0.852,4.34-2.852c5.88-2,5.49-1.119,14.26-4.369
		c2.88-1.061,6.13-2.619,9.46-4.381l0.07,0.131c0,0,5.109,0.818,8.609,5.141C56.219,355.586,57.049,362.938,57.049,362.938z"/>
	<path fill="#EED95F" d="M336.609,203.816c-0.58-2.739-1.23-5.79-1.84-8.73C335.35,198.057,335.958,200.977,336.609,203.816z
		 M336.77,204.557c1.028,4.859,1.83,8.568,1.83,8.568s-0.5,38.142-1.33,59.842c-0.45,11.83-1.052,24.109-2.472,35.07l-2.18-0.281
		c-5.82,2.471-13.15,0-13.15,0c-0.799-0.898-1.75-1.939-2.868-3.129c-8.17-8.66-35.67-69.33-35.67-69.33l-17.83-32.5
		c0,0-4.07-3.26-9.46-5.77l0.02-0.04c0,0,0-0.29,0-10c0-3.32,0.24-5.96,0.58-8l-1.289-0.2c-3-3.33-24.66,4.6-43.781,8.51
		c-6.14,1.26-10.95,1.82-14.729,1.86c-8,0.1-11.391-2.14-13.01-5.11c-2.37-4.38-2.521-11.73,1.609-20.73
		c4.12-9,16.59-19.68,31.391-30.77c12.898-9.66,26.488-18.51,32.289-22.21c0.211,1.06,2.391,10.22,13.551,11.27
		c-2.311,1.92-7.62,6.63-19.34,18.02c-6.182,6.01-11.82,10.88-16.58,14.69l0.148,0.19c0,0,30.142-11.51,39.511-13.33
		c0.909-0.18,1.829-0.35,2.739-0.52c6-1.13,11.84-2.29,15.932-5.61l0.05,0.06c-0.17,0.46-4.87,13.08,2.271,16.19
		c7.26,3.17,13.101,0,13.101,0l0.601,0.03c-0.341,6.78-0.65,12.87-0.931,17.8c-1.83,32-3.5,34.5-3.5,34.5s5.66-5.27,8.91-12.329
		c0,6.25-3.351,10.14-1.479,18.91c0,0,8.459,9.74,19.389,13.42c-0.799-14.021,1.342-26.209,3.222-47.459
		c1.87-21.25,13.37-29.24,13.37-29.24s0-0.04-0.012-0.13h0.012c0,0,7.75-0.5,15.75,21.75s14.71,68.27,16.75,73
		c2.05,4.729,3.71,11.531,7.85,26.591c5.11,18.59,8.08,41.579,11.41,52.812c0.029,0.1,0.061,0.209,0.1,0.309l-1.358,0.67
		c-8.5,4.641-14.45,0-14.45,0l-0.04,0.012c-2.59-7.98-11.521-33.531-16.92-50.471c-2.28-7.16-4.09-15.29-7.34-24.45
		C345,234.497,340.41,220.477,336.77,204.557z"/>
	<path fill="#4C3122" d="M265.509,23.687l-0.141,0.06c-2.43,2.75-7.34,8.91-10.5,15.41c-4.32,8.89-4.25,11.03-6.729,20.85
		c-0.811,3.2-1.73,5.49-2.311,7.64c0,0-3.391-11.18-1.391-23.52c2-12.33,14.66-29.17,14.66-29.17l5.5,1.17c0,0,1.84-1.17,4.5-4.83
		c2.67-3.67,6.67-1.84,6.67-1.84s18.5,7.17,32.17,11.5c13.66,4.33,20,32.17,21.33,36.3c1.3,4.03,8.09,85.83,8.398,89.54
		c0.012,0.09,0.012,0.13,0.012,0.13s-11.5,7.99-13.37,29.24c-1.88,21.25-4.021,33.44-3.222,47.458
		c-10.93-3.68-19.39-13.42-19.39-13.42c-1.87-8.77,1.479-12.659,1.479-18.909c-3.25,7.06-8.909,12.329-8.909,12.329
		s1.67-2.5,3.5-34.5c0.278-4.93,0.59-11.02,0.93-17.8c0.64-13.28,1.351-29.21,1.99-44.2c1.14-27.02,2.08-51,2.08-51
		s-9.5-3.84-23.171-15.34C270.619,33.237,266.958,27.047,265.509,23.687z M319.93,65.297c0.84-4.17,1.84-14.34-5.5-10.79
		c0,0,0.34,8.12,0.5,12.62c0,0,0.64,2.55,1.521,2.33C317.33,69.237,319.1,69.457,319.93,65.297z"/>
	<path fill="#5C9A98" d="M236.43,299.336c-3.802,7.121-7.882,12.551-10.33,17.461c-0.2,0.4-0.392,0.799-0.58,1.199
		c-3.99,8.391-6.479,18.189-8.45,32.5c-1.64,11.869-3.88,16.211-11.021,20.791c-1.88,1.219-4.109,2.449-6.75,3.84
		c-1.279,0.689-2.479,1.229-3.619,1.66c-8.57,3.18-14.101-0.4-26.61-1.562c-7.43-0.688-14.88-2.639-20.34-6.27
		c-4.98-3.289-8.3-7.959-8.46-14.32c-0.33-13.33,4.84-16.08,7.83-19.17c2.989-3.09,14.67-17.68,36.33-61.67
		c1.949-3.859,3.77-7.529,5.47-11.029c10.75-22.029,17.21-37.15,26.7-49.801c1.618-2.159,3.18-4.109,4.688-5.859
		c8.771-10.19,15.961-13.81,23.642-12.81c3,0.39,6.021,1.47,8.71,2.73c5.39,2.51,9.46,5.77,9.46,5.77l17.83,32.5
		c0,0,27.5,60.67,35.67,69.33c1.118,1.189,2.069,2.23,2.868,3.131c0,0,7.33,2.469,13.15,0l2.18,0.279
		c-1.709,13.141-4.6,24.398-9.868,30.76c-9.04,10.92-46.302,16.33-64.642,1.891c-1.27-0.99-2.438-2.08-3.51-3.27
		c-12.83-15.432-20.119-37.961-20.119-37.961L236.43,299.336z"/>
	<path fill="#4C3122" d="M288.109,120.106l-0.24,1.07c0,0,0.34,4.01-1.17,8.59c-0.97,2.22-2.35,3.93-4.02,5.28
		c-4.092,3.32-9.932,4.48-15.932,5.61v-24.34c1.812-2.13,3.09-4.9,1.49-7.8c2.811,2.82,5.061,4.74,6.16,5.5
		C276.919,115.757,283.99,119.207,288.109,120.106z"/>
	<path fill="#5C9A98" d="M260.27,340.708c1.771,1.26-5.09-0.141-15.34-2.781c-10.25-2.629-16.19-12.33-19.19-19.83l-0.22-0.1
		c0.188-0.4,0.38-0.799,0.58-1.199c2.448-4.91,6.528-10.34,10.33-17.461l0.229,0.121c0,0,7.289,22.529,20.119,37.959
		c1.07,1.189,2.24,2.279,3.51,3.27L260.27,340.708z"/>
	<path fill="#5C9A98" d="M139.399,321.827c0,0.01,0,0.01,0,0.01c-1.96,4.68-3.12,8.971-3.74,11.561
		c-1.229,5.17-3.229,14.311-3.229,14.311s-6.94,6.17-13.5,10.211c-6.561,4.039-12.41,4.109-15.75,2.6
		c-0.961-0.43-2.021-1-3.101-1.699c-2.39-1.551-4.89-3.791-6.649-6.811c-5.33-9.16-7.561-14.08-13.721-21.74
		c-1.729-2.16-2.91-3.488-3.77-4.369c-2.21-2.25-2.33-1.551-4.221-4.182c-1.649-2.301-2.039-13.109-2.039-13.109
		s5.729-6.398,8.979-8.939c8.72-6.799,60.521-63.779,81.271-82.529s24.409-23.34,30.42-25.34c1.47-0.49,2.83-0.73,4.119-0.78
		c3.99-0.17,7.41,1.46,11.94,3.09c6,2.16,14.88,13,14.88,13c-1.511,1.75-3.07,3.7-4.689,5.86c-9.49,12.648-15.95,27.771-26.7,49.8
		l-0.21-0.101c-11.76,19.689-28.92,33.851-41.8,45.34C144.089,312.137,141.35,317.167,139.399,321.827z"/>
	<path d="M186.739,384.877c3.69-2.102,7.47-4.771,10.479-8l-1.539-0.09c1.14-0.432,2.34-0.971,3.619-1.66
		c2.641-1.391,4.87-2.621,6.75-3.84l0.011,0.01c-5.801,6.049-13.61,14.619-17.5,17.84c-3.9,3.221-11.58,7.08-15.91,8.629
		c-4.33,1.541-16.96,1.561-28.101-0.359c-11.149-1.92-17.79-9.238-17.79-9.238l-0.09-5.271l2.61-1.131l0.81-0.289
		c0.23,0.619,0.521,1.301,0.9,2.051c2.28,4.459,8.1,2.52,8.1,2.52s1.45,2.67,3.091,3.15c1.64,0.471,4.97-1.34,4.97-1.34
		s1.54,2.119,3.229,2.27c1.681,0.15,4.82-1.24,4.82-1.24s0.59,1.762,3.4,2.281s4.92-1.32,4.92-1.32s1.1,1.119,2.96,1.33
		c1.87,0.221,4.08,0.199,8.479-1.121C177.439,389.307,181.999,387.567,186.739,384.877z"/>
	<path d="M195.68,376.788l1.539,0.09c-3.01,3.229-6.789,5.898-10.479,8c-3.54-5.371-13.771-7.311-20.13-8.9
		c-6.24-1.57-20.51-3.27-21.83-3.43l-0.36-0.609c2.58-1.461,4.29-2.951,4.29-2.951l0.021-0.029c5.46,3.631,12.91,5.58,20.34,6.27
		C181.579,376.387,187.109,379.967,195.68,376.788z"/>
	<path d="M102.699,362.006l-1.58,6.371c0,0-7.2,4.41-12.46,4.859c-11.6,0.988-17.18-1.871-27.56-2.25
		c-10.381-0.371-17.551,4.25-31.65,4.129c-14.1-0.129-20.75-7.129-20.75-7.129l-0.5-4.48l3.83-1.92l0.7,0.021
		c0.029,0.439,0.13,0.84,0.359,1.1c0,0-0.069,0.619,1.061,0.66c-0.07,3.619,6.05,6.75,13.42,3.279c0.46,0.25,1.96,0.32,4.53,1.561
		c5.51,2.791,16.909-2.971,25-5.07c1.79-0.459,3.409-0.738,4.77-0.719c1.271,0.02,2.65,0.199,4.09,0.469
		c7.641,1.451,17.17,5.59,23.41,3.682c7.41-2.271,9.3-5.592,9.3-5.592l1.36-1.459L102.699,362.006z"/>
	<path fill="#BB9881" d="M100.079,358.817l-0.229,0.529l0.18,0.17l-1.36,1.459c0,0-1.89,3.32-9.3,5.592
		c-6.24,1.908-15.77-2.23-23.41-3.682l2.41-0.709c-1.59-10.779-4.89-17.32-14.42-21.91c3.27-2.01,6.28-3.971,8.67-5.58
		c7.01-4.711,13.25-8.729,13.25-8.729l0.07-0.061c0.859,0.881,2.04,2.209,3.77,4.369c6.16,7.66,8.391,12.58,13.721,21.74
		C95.189,355.026,97.689,357.266,100.079,358.817z"/>
	<path d="M68.369,362.176l-2.41,0.711c-1.439-0.271-2.819-0.451-4.09-0.471c-1.36-0.02-2.979,0.26-4.77,0.721l-0.051-0.201
		c0,0-0.83-7.35-4.33-11.68c-3.5-4.32-8.609-5.141-8.609-5.141l-0.07-0.129c3.34-1.779,6.75-3.771,9.91-5.721
		C63.479,344.856,66.779,351.397,68.369,362.176z"/>
	<path d="M254.761,63.806c-1,0.31-0.439-0.76-0.439-0.76C255.131,62.796,255.761,63.486,254.761,63.806z"/>
	<path d="M280.292,56.546c0.95-0.63,2.2,1.06,0.89,1.56C279.872,58.606,279.341,57.167,280.292,56.546z"/>
	<path fill="#FFFFFF" d="M282.671,59.036c-1.99,0.25-4.42,0.28-5.18-0.11c-1.061-0.81-2.19-2.1-2.19-2.1l-0.689-0.01
		c1.04-0.56,4.66-2.41,8.2-2.76c4.18-0.43,6.55,0.92,6.55,0.92S284.662,58.786,282.671,59.036z M281.181,58.106
		c1.311-0.5,0.061-2.19-0.89-1.56C279.341,57.167,279.872,58.606,281.181,58.106z"/>
	<path fill="#FFFFFF" d="M254.761,63.806c1-0.32,0.37-1.01-0.439-0.76C254.322,63.046,253.761,64.116,254.761,63.806z
		 M250.812,63.556c0.01-0.03,0.029-0.06,0.05-0.09c1.63-2.28,3.479-2.33,6.27-2.79c2.78-0.47,4.13,0.07,4.13,0.07
		s-0.31,2.74-5.229,3.78c-4.91,1.05-5.93,1.03-5.93,1.03S250.242,64.396,250.812,63.556z"/>
</g>
<g>
	<path fill="none" stroke="#000000" stroke-width="3" stroke-linecap="round" stroke-linejoin="round" d="M265.371,23.313
		c-2.428,2.756-7.347,8.915-10.5,15.41c-4.324,8.89-4.252,11.033-6.729,20.852c-2.478,9.818-6.048,11.164,2.437,25.789
		c8.48,14.625,20.705,26.079,23.825,28.225c3.119,2.145,13.175,6.906,16.022,6.247c0.605-0.141,1.273-0.53,1.982-1.106
		c2.582-2.102,5.58-6.681,7.418-10.431l0.84-1.601"/>
	<path fill="none" stroke="#000000" stroke-width="3" stroke-linecap="round" stroke-linejoin="round" d="M264.6,20.528
		c0,0,1.334,8.333,15,19.833c13.667,11.5,23.167,15.334,23.167,15.334s-3.165,81.003-4.999,113.003c-1.833,32-3.5,34.5-3.5,34.5
		c0.001,0,5.665-5.271,8.915-12.333c0,6.25-3.35,10.142-1.487,18.906c0,0,8.46,9.748,19.394,13.431
		c-0.797-14.025,1.345-26.21,3.22-47.46s13.375-29.244,13.375-29.244s-7.081-85.549-8.415-89.674
		c-1.332-4.125-7.666-31.963-21.332-36.294c-13.668-4.331-32.168-11.497-32.168-11.497s-3.999-1.832-6.666,1.834
		s-4.502,4.833-4.502,4.833l-5.498-1.167c0,0-12.667,16.835-14.667,29.168s1.396,23.518,1.396,23.518"/>
	<path fill="none" stroke="#000000" stroke-width="1.5" stroke-linecap="round" stroke-linejoin="round" d="M278.951,77.895
		c1.402,1.237,2.209,2.826-0.174,5.947c-3.504,4.062-3.316,1.059-5.296,0.594c-1.987-0.462-2.495,0.373-2.495,0.373
		c1.801,3.818-2.744,4.882-7.166,4.004c-4.426-0.889-8.871-3.926-9.611-6.752c-0.729-2.828,8.492-10.108,10.465-18.317
		c0.996-4.141,0.912-8.82,0.584-12.441c0,0-9.262,4.312-15.637,4.938"/>
	<path fill="none" stroke="#000000" stroke-width="1.5" stroke-linecap="round" stroke-linejoin="round" d="M271.496,45.74
		c0,0,4.221-0.688,8.797-0.625c4.578,0.062,5.683,0.311,5.683,0.311"/>
	<path fill="none" stroke="#000000" stroke-width="1.5" stroke-linecap="round" stroke-linejoin="round" d="M257.128,60.676
		c-2.785,0.465-4.639,0.509-6.268,2.79c-0.611,0.855-0.761,2.086-0.761,2.086s1.017,0.021,5.933-1.021
		c4.914-1.042,5.233-3.78,5.233-3.78S259.914,60.211,257.128,60.676z"/>
	<path fill="none" stroke="#000000" stroke-linecap="round" stroke-linejoin="round" d="M251.683,59.282
		c0,0,0.418,1.501-1.073,4.729"/>
	<path fill="none" stroke="#000000" stroke-width="3" stroke-linecap="round" stroke-linejoin="round" d="M254.322,63.051
		c0.812-0.25,1.438,0.438,0.438,0.751C253.759,64.115,254.322,63.051,254.322,63.051z"/>
	<path fill="none" stroke="#000000" stroke-width="1.5" stroke-linecap="round" stroke-linejoin="round" d="M275.589,50.583
		c0,0,0.594,3.531-0.344,4.969c-0.938,1.438-0.938,1.438-0.938,1.438s4.312-2.512,8.5-2.938c4.188-0.426,6.552,0.926,6.552,0.926
		s-4.697,3.804-6.688,4.054s-4.422,0.281-5.178-0.104c-1.062-0.812-2.188-2.104-2.188-2.104"/>
	<path fill="none" stroke="#000000" stroke-width="3" stroke-linecap="round" stroke-linejoin="round" d="M280.292,56.542
		c0.953-0.625,2.203,1.062,0.891,1.562S279.341,57.167,280.292,56.542z"/>
	<path fill="none" stroke="#000000" stroke-width="1.5" stroke-linecap="round" stroke-linejoin="round" d="M263.433,91.615
		c0,0,6.188,2.875,11.062,7.062c4.873,4.187,4.875,4.188,4.875,4.188"/>
	<path fill="none" stroke="#000000" stroke-width="1.5" stroke-linecap="round" stroke-linejoin="round" d="M268.613,94.455
		c0,0,2.633-1.277,6.883-1.84c4.25-0.563,6.875-0.66,9.5,0.92"/>
	<path fill="none" stroke="#000000" stroke-width="1.5" stroke-linecap="round" stroke-linejoin="round" d="M314.425,54.075
		c0,0,0.341,8.121,0.507,12.621c0,0,0.64,2.554,1.521,2.334c0.881-0.22,2.646,0,3.479-4.167
		C320.766,60.696,321.766,50.53,314.425,54.075z"/>
	<path fill="none" stroke="#000000" stroke-width="3" stroke-linecap="round" stroke-linejoin="round" d="M287.867,120.749
		c0,0,0.344,4.012-1.168,8.59c-3.718,8.468-13.312,9.585-22.688,11.407c-9.377,1.821-39.516,13.328-39.516,13.328"/>
	<path fill="none" stroke="#000000" stroke-width="3" stroke-linecap="round" stroke-linejoin="round" d="M209.001,164.796
		c0,0,13.599-7.769,31.932-25.602s21-19.297,21-19.297s9.751-5.618,6.292-11.827"/>
	<path fill="none" stroke="#000000" stroke-width="3" stroke-linecap="round" stroke-linejoin="round" d="M245.238,75.529
		c0,0-2.605-2-7.955,4.333s-8.518,4.98-4.684,9.24c3.834,4.26,17.021,18.969,17.021,18.969s-18.201,11.317-35.19,24.047
		c-14.802,11.09-27.268,21.768-31.393,30.768s-3.979,16.354-1.604,20.729c2.373,4.375,8.607,7.162,27.731,3.25
		c19.125-3.912,40.785-11.838,43.785-8.505"/>
	<path fill="none" stroke="#000000" stroke-width="3" stroke-linecap="round" stroke-linejoin="round" d="M256.015,172.551
		c0,0-2.357,3.672-2.357,14.005s0,9.996,0,9.996"/>
	
		<line fill="none" stroke="#000000" stroke-width="3" stroke-linecap="round" stroke-linejoin="round" x1="266.753" y1="115.887" x2="266.753" y2="140.248"/>
	<path fill="none" stroke="#000000" stroke-width="1.5" stroke-linecap="round" stroke-linejoin="round" d="M246.696,109.804
		c0,0,1.728,10.248,13.575,11.373"/>
	<path fill="none" stroke="#000000" stroke-width="1.5" stroke-linecap="round" stroke-linejoin="round" d="M249.236,107.062
		c0,0,4.76,3.865,7.946,4.178"/>
	<path fill="none" stroke="#000000" stroke-width="1.5" stroke-linecap="round" stroke-linejoin="round" d="M257.891,96.239
		c0,0-6.146-2.624-8.271-3.624s-7.25-5.875-7.25-5.875l-1.688-1.125"/>
	<path fill="none" stroke="#000000" stroke-width="1.5" stroke-linecap="round" stroke-linejoin="round" d="M241.75,86.327
		c0,0,2.121,0.038,2.309-1.024s0-1.375,0-1.375s-0.555,3.875,0.083,4.441"/>
	<path fill="none" stroke="#000000" stroke-width="1.5" stroke-linecap="round" stroke-linejoin="round" d="M250.85,93.176
		c0,0,3.459,1.143,3.083-0.936"/>
	<path fill="none" stroke="#000000" stroke-width="1.5" stroke-linecap="round" stroke-linejoin="round" d="M282.736,134.665
		c0,0-5.01,13.034,2.26,16.201c7.269,3.167,13.103,0,13.103,0"/>
	<path fill="none" stroke="#000000" stroke-width="3" stroke-linecap="round" stroke-linejoin="round" d="M337.683,146.365
		c0,0,7.75-0.5,15.75,21.75s14.703,68.268,16.75,73c2.047,4.73,3.701,11.534,7.843,26.594c5.111,18.588,8.084,41.576,11.409,52.812
		c0.988,3.338,5.502,6.262,9.498,9.512c3.996,3.252,15.665,10.33,16.333,11.83s0.167,2.416,0.167,2.416s1.001,0.42,0.167,2.586
		c-0.834,2.168-2.519,2.668-2.519,2.668s-0.481,1.666-2.481,3c-2,1.332-13.501-7.168-18.001-8.834
		c1.833,4.832,12.668,11.668,10.667,14.166c-2.001,2.5-8.124-0.291-18.206-9.461c-4.41-4.014-6.928-6.09-9.318-6.482
		c-2.393-0.391-5.738,1.82-9.173,3.975c-6.104,3.83-10.329-0.053-11.106-1.416c-0.778-1.365,6.638-5.115,8.805-8.115
		s4.248-5.414,5.833-6.582c1.585-1.17,5.378-2.127,4.211-6.295c-1.167-4.166-11.544-33.623-17.544-52.455
		c-2.28-7.16-4.087-15.281-7.333-24.449c-5.293-14.951-10.808-32.014-14.668-51.925c1.794,8.551,3.831,18.042,3.831,18.042
		s-0.496,38.133-1.33,59.832c-1,26-2.666,54.168-12.332,65.834c-9.668,11.668-51.57,17.055-68.152-1.377
		c-12.832-15.434-20.123-37.963-20.123-37.963"/>
	<path fill="none" stroke="#000000" stroke-width="1.5" stroke-linecap="round" stroke-linejoin="round" d="M412.434,348.948
		c0,0-2.751-1.918-7.668-5.168s-7.152-4.15-7.152-4.15"/>
	<path fill="none" stroke="#000000" stroke-width="1.5" stroke-linecap="round" stroke-linejoin="round" d="M414.932,345.28
		c0,0,2.75,1.25-4.25-2.75s-8.697-5.031-8.697-5.031"/>
	<path fill="none" stroke="#000000" stroke-width="1.5" stroke-linecap="round" stroke-linejoin="round" d="M373.729,321.499
		c0,0,5.954,4.635,14.454,0"/>
	<path fill="none" stroke="#000000" stroke-width="3" stroke-linecap="round" stroke-linejoin="round" d="M323.768,313.366
		c0,0,1-0.5-7.166-9.166c-8.168-8.668-35.668-69.334-35.668-69.334l-17.833-32.5c0,0-9.167-7.333-18.167-8.5
		s-17.334,4.001-28.334,18.667c-11,14.666-17.933,32.639-32.167,60.827c-21.666,43.999-33.345,58.581-36.334,61.671
		c-2.989,3.09-8.159,5.84-7.825,19.174c0.334,13.332,14.604,19.281,28.792,20.594c14.188,1.314,19.4,5.73,30.233-0.104
		c12.666-6.666,15.699-9.633,17.767-24.633s4.7-25.035,9.033-33.701c4.333-8.668,13.742-19.001,17.705-37.334
		c3.962-18.335,6.129-30.429,6.129-30.429"/>
	<path fill="none" stroke="#000000" stroke-width="1.5" stroke-linecap="round" stroke-linejoin="round" d="M319.473,307.329
		c0,0,7.329,2.463,13.146,0"/>
	<path fill="none" stroke="#000000" stroke-width="1.5" stroke-linecap="round" stroke-linejoin="round" d="M247.354,261.146
		c0,0,7.329-6.78,7.829-13.53"/>
	<path fill="none" stroke="#000000" stroke-width="3" stroke-linecap="round" stroke-linejoin="round" d="M260.268,340.276
		c1.769,1.262-5.085-0.143-15.335-2.777c-10.25-2.633-16.191-12.332-19.191-19.828"/>
	<path fill="none" stroke="#000000" stroke-width="3" stroke-linecap="round" stroke-linejoin="round" d="M221.291,206.672
		c0,0-8.881-10.835-14.88-12.999c-6-2.163-10.057-4.312-16.062-2.31c-6.005,2.002-9.666,6.587-30.416,25.337
		c-20.75,18.75-72.554,75.733-81.276,82.537c-3.251,2.535-8.974,8.938-8.974,8.938s0.389,10.805,2.038,13.105
		c2.629,3.666,1.842,0.885,7.993,8.551c6.151,7.668,8.384,12.586,13.719,21.746c2.553,4.383,6.69,7.129,9.749,8.51
		c3.334,1.506,9.189,1.441,15.75-2.6c6.561-4.039,13.501-10.209,13.501-10.209s1.994-9.146,3.23-14.312
		c1.236-5.166,4.6-17.105,12.23-25.395c12.88-11.49,30.04-25.652,41.798-45.336"/>
	<path fill="none" stroke="#000000" stroke-width="1.5" stroke-linecap="round" stroke-linejoin="round" d="M139.395,321.409
		c0,0,0.539-7.545,7.705-22.377"/>
	<path fill="none" stroke="#000000" stroke-width="3" stroke-linecap="round" stroke-linejoin="round" d="M75.864,325.522
		c0,0-6.232,4.025-13.241,8.734c-7.007,4.709-19.284,12.424-28.049,15.674c-8.765,3.25-8.375,2.373-14.25,4.375
		c-5.875,2-4.348,2.85-4.348,2.85l-3.105,1.969c0,0-0.494,2.354,0.221,3.148c0,0-0.075,0.629,1.059,0.658
		c-0.076,3.625,6.049,6.75,13.421,3.285c0.46,0.25,1.958,0.316,4.523,1.562c6.723,3.402,22.238-5.918,29.771-5.793
		c8.016,0.137,20.089,6.424,27.505,4.15c7.414-2.273,9.299-5.592,9.299-5.592"/>
	<path fill="none" stroke="#000000" stroke-width="3" stroke-linecap="round" stroke-linejoin="round" d="M99.846,358.917
		l2.854,2.662l-1.58,6.367c0,0-7.196,4.41-12.457,4.857c-11.603,0.99-17.188-1.873-27.566-2.248
		c-10.378-0.375-17.546,4.25-31.648,4.125c-14.102-0.125-20.748-7.129-20.748-7.129l-0.5-4.477l3.826-1.916"/>
	<path fill="none" stroke="#000000" stroke-width="1.5" stroke-linecap="round" stroke-linejoin="round" d="M44.111,345.682
		c0,0,5.11,0.82,8.611,5.148s4.328,11.672,4.328,11.672"/>
	<path fill="none" stroke="#000000" stroke-width="1.5" stroke-linecap="round" stroke-linejoin="round" d="M53.67,339.698
		c9.751,4.6,13.088,11.172,14.703,22.045"/>
	<path fill="none" stroke="#000000" stroke-width="3" stroke-linecap="round" stroke-linejoin="round" d="M148.713,368.561
		c0,0-5.434,4.709-11.484,5.576c-6.051,0.865-7.584,2.334-7.584,2.334s-0.936,2.176,1.346,6.629
		c2.282,4.453,8.102,2.512,8.102,2.512s1.449,2.676,3.09,3.152s4.967-1.338,4.967-1.338s1.541,2.121,3.229,2.271
		c1.687,0.15,4.82-1.24,4.82-1.24s0.59,1.758,3.401,2.279c2.811,0.52,4.917-1.316,4.917-1.316s1.099,1.113,2.965,1.33
		c1.867,0.219,4.078,0.197,8.482-1.129c4.404-1.324,15.379-5.787,22.253-13.178"/>
	<path fill="none" stroke="#000000" stroke-width="3" stroke-linecap="round" stroke-linejoin="round" d="M129.276,381.338
		l-2.611,1.127l0.095,5.275c0,0,6.637,7.316,17.785,9.234s23.773,1.896,28.104,0.355c4.331-1.543,12.012-5.406,15.908-8.625
		c3.896-3.217,11.698-11.791,17.5-17.842"/>
	<path fill="none" stroke="#000000" stroke-width="1.5" stroke-linecap="round" stroke-linejoin="round" d="M144.677,372.11
		c0,0,15.382,1.789,21.932,3.432c6.55,1.641,17.21,3.652,20.434,9.404"/>
</g>
</svg>
