<?xml version="1.0" encoding="utf-8"?>
<!-- Generator: Adobe Illustrator 16.0.0, SVG Export Plug-In . SVG Version: 6.00 Build 0)  -->
<!DOCTYPE svg PUBLIC "-//W3C//DTD SVG 1.1//EN" "http://www.w3.org/Graphics/SVG/1.1/DTD/svg11.dtd">
<svg version="1.1" id="Layer_1" xmlns="http://www.w3.org/2000/svg" xmlns:xlink="http://www.w3.org/1999/xlink" x="0px" y="0px"
	 width="230.146px" height="664.707px" viewBox="0 0 230.146 664.707" enable-background="new 0 0 230.146 664.707"
	 xml:space="preserve">
<g id="colour">
	<g id="XMLID_5_">
		<path d="M84.179,619.712c1.449,0.109,3.829,0.58,6.84,2.15c5.17,2.698,9.75,6.5,11.42,8.869c1.069,1.512,1.63,2.909,1.899,3.721
			c-1.72,0.27-4.311,0.74-8.14,1.59c-0.111-0.459-0.491-1.18-1.432-2.32c-2.438-2.938-4.25-4.33-11.75-7.317
			c-5.311-2.121-7.409-2.49-8.17-2.521C77.579,622.771,81.029,621.193,84.179,619.712z"/>
		<path d="M104.34,634.455c2.551-0.381,3.21-0.312,3.21-0.312c19.651-0.657,22.851-5.209,23.312-8.657
			c0.011-0.082,0.029-0.183,0.039-0.271c0.092-0.84,0.08-1.92,0.012-3.061h0.05l0.78,1l3.26,2.602v3.84c0,0-0.259,3.062-4.04,5.562
			c-3.78,2.5-7.46,3.67-18.641,4.567c-19.7,1.802-31.41,7.431-38.351,7.99c-6.939,0.562-16.939,1.131-21.351-3.92
			c-4.41-5.061,0.739-8.789,0.739-8.789l0.311-0.031c0.02,0.232,0.07,0.482,0.149,0.763c-1.14,0.76,0.319,2.789,1.841,2.688
			c0.229,1.23,1.619,2.299,3.04,2.601c1.429,0.301,2.608-1.068,2.608-1.068s0.771,3.059,5.439,3.059
			c2.12,0.222,10.069-2.27,10.069-2.27s9.409-2.48,19.131-4.641c0.079-0.021,0.17-0.039,0.25-0.062
			C100.029,635.193,102.619,634.722,104.34,634.455z"/>
		<path d="M166.387,617.732l0.351-0.972c0.011,0.013,0.029,0.021,0.04,0.021c4.891,1.739,8.398,2.42,12.21,1.789l0.021,0.909
			c0.2,0.052,0.391,0.101,0.591,0.16c1.129,0.289,2.21,0.65,3.189,1.08c6.09,2.629,9.139,7.25,9.319,7.539
			c0.011,0.012,0.011,0.012,0.011,0.012l0.311,0.562c-2.188,1.219-5.22,2.949-8.609,4.988l-0.25-0.408c0,0-1.859-4.851-15.329-6.74
			c-9.602-1.352-11.842-0.93-12.33-0.58l-0.012-0.021C160.159,622.892,163.718,620.013,166.387,617.732z"/>
		<path d="M136.179,640.599c-0.091,1.183,0.07,2.732,1.3,3.603c2.181,1.529,3.979-0.289,3.979-0.289s0.75,2.779,3.37,2.76
			c2.609-0.031,3.51-0.688,3.51-0.688s1.93,1.698,4.439,1.09c2.489-0.609,3.229-1.381,3.229-1.381s0.2,1.069,3.011,0.771
			c2.801-0.311,4.19,0.889,14.932-6.361c3.349-2.258,6.76-4.397,9.869-6.278c3.39-2.039,6.421-3.771,8.608-4.988
			c2.231-1.24,3.591-1.961,3.591-1.961s9.119-3.82,11.189-8.51c1.79-4.031,2.96-7.951,2.109-10.933l0.091-0.02
			c4.449,3.791,4.829,8.541,3.26,12.471c-1.561,3.939-4.181,6.351-10.17,9.51c-5.99,3.16-10.54,5.49-17.75,10.709
			c-7.21,5.211-14.661,9.052-20.771,11c-6.108,1.951-10.528,1.201-18.938-0.188c-8.42-1.393-9.71-4.941-10.24-7.041
			c0,0-0.849-1.609,0.271-2.439C136.178,640.604,136.178,640.604,136.179,640.599z"/>
		<path fill="#999999" d="M36.378,68.933c0,0,1.221,1.04,4.62,2.061c3.399,1.019,5.38,0.369,5.38,0.369h0.75v2.69
			c0,0-5.91,3.5-11.449,0v-5.12H36.378z"/>
		<path fill="#999999" d="M35.678,62.803v-3.25c1.859,0.47,3.431,0.72,4.75,0.83c0.949,0.09,1.76,0.11,2.46,0.07
			c2.5-0.11,3.489-0.78,3.489-0.78h0.75v3.13h1.87c1.76,2.25,0,4.5,0,4.5h-1.87v4.06h-0.75c0,0-1.98,0.651-5.38-0.369
			c-3.399-1.021-4.62-2.061-4.62-2.061h-0.699v-1.63h-1.881c0,0-1.75-2.25,0-4.5H35.678z"/>
		<path fill="#4C3122" d="M96.36,175.123c0.5-7.67,0.869-13.04,0.869-13.04l0.529-0.601c0.021,0.021,0.04,0.04,0.062,0.061
			c3.659,3.15,9.938,7.62,12.319,7.59c0.619-0.01,1.359-0.25,2.17-0.67c0.189-0.09,0.38-0.201,0.569-0.311
			c0.359-0.21,0.729-0.449,1.109-0.71l0.949,0.771c0,0,1.529,5.97,0,9.51c-2.011,3.13-5.29,4.911-8.909,6.39
			c-3.17,1.31-6.6,2.39-9.659,3.94c-0.281,0.139-0.562,0.29-0.852,0.45C95.579,187.543,95.909,182.072,96.36,175.123z"/>
		<path fill="#4C3122" d="M107.879,67.561c0,0-9.129,6.141-15.229,13.931c-0.46,0.579-0.89,1.14-1.278,1.68
			c-0.051,0.06-0.08,0.1-0.08,0.1c-2.411,3.231-3.82,5.641-5.142,8.271c-2.96-5.481,2.722-15.271,5.722-19.021s3.75-5.5,7.25-11.5
			s16,0,16,0s5.75,1.75,22.75,11.75s16.25,18.5,20.5,74.25c1.089,14.331,1.278,28.221,0.898,41.021
			c-1.068,36.99-6.799,64.75-8.648,66.979c-2.5,3-22.24,2.75-22.24,2.75s5.33-8.39,3.979-18.55
			c-6.04,10.88-12.25,15.57-12.562,15.79c0.071-0.17,1.37-3.019,3.551-11.74c2.25-9,5.489-28,7.989-50.75
			c0.14-1.229,0.26-2.59,0.36-4.069c0.739-10.17,0.84-25.621,0.68-40.561c-0.25-22.769-1.069-44.37-1.069-44.37
			s-2.07-5.76-11.811-18.26c-5.98-7.65-9.371-14.089-11.102-17.94L107.879,67.561z M150.279,113.133
			c-0.25-6.67-6.329-8.67-6.329-8.67v18C143.949,122.463,150.529,119.793,150.279,113.133z"/>
		<path fill="#EED95F" d="M41.607,26.803c8.869,0.13,14.021,6,13.891,13.87c-0.12,7.88-6.49,10.13-8.859,13.38
			c-1.431,4.01,0.489,5.5,0.489,5.5v0.12h-0.75c0,0-0.989,0.67-3.489,0.78v-0.07c-0.311-10.541,0.239-12.121,0.71-15.021
			c0.05-0.32,0.09-0.619,0.141-0.89c0.779,0.2,1.631-0.16,1.909-0.79c0.5-1.14-0.96-4.47-1.909,0.79
			c-0.721-0.179-1.38-0.849-1.449-2.229c0,0-1.41,3.25-2.63,0c0,0-0.631,1.069-1.41,1.79c-1.45-3.28-2.979-2.471-2.37-0.58
			c0.56,1.729,1.551,1.35,2.37,0.58c1.11,2.53,2.181,7.52,2.181,16.35c-1.319-0.11-2.891-0.36-4.75-0.83c0,0,2.199-1.74,0.779-5.5
			c-2.37-3.25-8.819-6.33-9.16-13.38c-0.34-7.04,4.54-13.74,13.41-13.87H41.607z"/>
		<path fill="#EED95F" d="M198.698,254.193l-0.15-0.3c0,0-34.55-25.73-37.18-29.51c-2,0.25-5.631,37.01-5.631,37.01
			s-1.1,24.08-1.149,24.54l0.12,0.19C163.859,280.643,184.069,261.293,198.698,254.193z M51.129,248.061
			c7.21-11.92,24.02-39.319,26.689-43.84c3.188-5.43,11.27-12.23,17.699-15.72c0.29-0.16,0.57-0.31,0.852-0.45
			c3.06-1.549,6.489-2.629,9.659-3.94c0,0,6.921,3.66,12.421,4.33s13.068,0,13.068,0l0.182,0.011
			c-0.101,1.479-0.221,2.84-0.36,4.069c-2.5,22.75-5.739,41.75-7.989,50.75c-2.181,8.72-3.479,11.57-3.551,11.74
			c0.312-0.22,6.521-4.91,12.562-15.79c1.351,10.16-3.979,18.55-3.979,18.55s19.74,0.25,22.24-2.75
			c1.85-2.229,7.58-29.989,8.648-66.979h0.011c0,0,15.131,11.979,23.851,20.95c8.721,8.979,36.601,33.76,42.25,44.409
			c-0.5,0.971-0.88,10.651-12.88,17.271c-12,6.63-34.29,17.55-34.29,17.55s-10.5,5.55-15.63,10.061l-1.971-0.183
			c0,0-7.98-2.128-8.602-10.68c-0.188,0.06-0.369,0.1-0.539,0.13c-6.399,1.03-8.641,3.57-10.58,7.58s-7.091,8.04-7.301,10.54
			s0.62,4.852,3.96,3.43c3.33-1.43,2.841-4.55,6.66-7.658c3.069,1.181,0.859,14.858,1.67,31c0.25,2.408,1.57,5.488,3.13,5.42
			c1.57-0.07,2.551-0.25,3.421-2.199c0,0,0.01-3.322,0.199-3.562c0.45-0.559,0.87-1.179,1.25-1.817l0.471,0.1
			c0.59,8.38,1.011,19.811,2.55,32.061h-0.028c0,0-28.25,5.33-45.102,5.66c-16.858,0.34-33.818-5.66-33.818-5.66h-0.932
			c-0.229-34.801-1.109-85.73,0.239-106.01l-0.569-0.04c0,0-5.021,8.54-14.021,15.87c-9,7.34-18.5,6.96-18.5,6.96
			s-10.399-6.54-12.62-25.84c-2.069-17.99-2.02-22.71-3.319-47.63l0.778-0.04c8.462,3,14.571-2.41,14.571-2.41
			c0.021,3.639,0.5,8.599,1.47,14.03c1.86,10.55,5,22.86,5.78,30.76L51.129,248.061z"/>
		<path fill="#5D9B99" d="M140.548,601.863c0,0-0.96,1.858-7.438,8.08c-1.771,1.698-2.94,3.061-4.131,4.129
			c-0.17,0.149-0.351,0.301-0.521,0.438c-3.04,2.5-6.75,3.261-20.84,3.261c-7.37,0-11.892-0.841-15.091-2.527
			c-0.03-0.021-0.07-0.041-0.102-0.062c-5.609-3.008-7.069-8.659-12.81-16.938c-9.722-15.723-10-20.381-10-31.711
			c0-11.34,7.329-110.762,7.449-173.762c0.02-11.777,0-21.81-0.051-30.328h0.931c0,0,16.961,6,33.819,5.658
			c16.852-0.33,45.102-5.658,45.102-5.658h0.028c0.081,0.709,0.171,1.43,0.271,2.147c2.91,21.472,5.51,46.381,13.45,79.181
			c23,95,36.028,130,36.028,130s-0.528,11.909-3.528,23.33c-0.04,0.149-0.08,0.301-0.131,0.45
			c-3.079,11.111-10.88,16.32-19.079,19.601c-1.41,0.561-2.721,0.971-3.98,1.24c-0.318,0.069-0.629,0.129-0.938,0.18
			c-3.812,0.631-7.319-0.051-12.21-1.789c-0.011,0-0.029-0.012-0.04-0.021c-2.521-0.889-5.399-2.067-8.869-3.489
			c-7.83-3.209-12.67-4.357-16.61-11.789L140.548,601.863z"/>
		<path fill="#BC9982" d="M59.376,629.593c0,0,9.601-3.34,15.29-5.641c0.061-0.021,0.12-0.049,0.181-0.07
			c0.761,0.031,2.859,0.402,8.17,2.521c7.5,2.987,9.312,4.381,11.75,7.317c0.94,1.142,1.32,1.861,1.431,2.32
			c-0.079,0.021-0.17,0.041-0.25,0.061c-9.721,2.16-19.13,4.642-19.13,4.642s-7.949,2.49-10.069,2.27
			c-4.669,0-5.439-3.059-5.439-3.059s-1.18,1.369-2.609,1.067c-1.42-0.301-2.811-1.37-3.039-2.6c-1.521,0.1-2.98-1.93-1.841-2.688
			c-0.08-0.281-0.13-0.531-0.149-0.763c-0.14-1.229,0.351-1.629,0.351-1.629C53.499,631.472,59.376,629.593,59.376,629.593z"/>
		<path fill="#BC9982" d="M92.047,615.861l0.38-0.681c0.031,0.021,0.071,0.039,0.102,0.062c3.199,1.688,7.721,2.529,15.091,2.529
			c14.09,0,17.8-0.761,20.84-3.261c0.17-0.139,0.351-0.291,0.521-0.438l1,0.567c0,0,0.722,4.052,0.932,7.513
			c0.068,1.141,0.079,2.221-0.012,3.061c-0.01,0.09-0.028,0.189-0.039,0.271c-0.461,3.448-3.66,8-23.312,8.659
			c0,0-0.659-0.069-3.21,0.312c-0.27-0.812-0.83-2.209-1.899-3.722c-1.67-2.368-6.25-6.17-11.42-8.868
			c-3.011-1.57-5.391-2.041-6.84-2.15C87.619,618.072,90.699,616.552,92.047,615.861z"/>
		<path fill="#BC9982" d="M179.929,618.392c1.259-0.27,2.569-0.68,3.979-1.239c8.199-3.279,16-8.49,19.08-19.601l0.829,0.24
			c0,0,3.141,5.189,4.921,8.271c0.25,0.432,0.438,0.891,0.579,1.368c0.851,2.982-0.319,6.902-2.109,10.933
			c-2.069,4.688-11.189,8.51-11.189,8.51s-1.359,0.721-3.59,1.961l-0.311-0.562c0,0,0,0-0.011-0.011
			c-0.18-0.289-3.229-4.909-9.319-7.539c-0.979-0.43-2.061-0.791-3.189-1.08c-0.2-0.059-0.391-0.108-0.591-0.159l-0.02-0.91
			C179.298,618.521,179.609,618.462,179.929,618.392z"/>
		<path fill="#BC9982" d="M168.24,626.675c13.47,1.89,15.329,6.74,15.329,6.74l0.25,0.408c-3.109,1.881-6.521,4.02-9.869,6.28
			c-10.741,7.25-12.131,6.05-14.932,6.359c-2.811,0.299-3.011-0.771-3.011-0.771s-0.739,0.771-3.229,1.381
			c-2.51,0.608-4.439-1.09-4.439-1.09s-0.9,0.657-3.51,0.688c-2.62,0.021-3.37-2.76-3.37-2.76s-1.799,1.818-3.979,0.289
			c-1.229-0.871-1.391-2.42-1.3-3.603c0.069-0.889,0.279-1.577,0.279-1.577c7.399-4.371,14-8.9,19.438-12.951l0.012,0.021
			C156.398,625.744,158.638,625.322,168.24,626.675z"/>
		<path fill="#BC9982" d="M114.938,177.723c1.529-3.54,0-9.51,0-9.51l-0.949-0.771c2.641-1.849,5.641-4.909,7.771-7.609
			l9.761-11.931l0.859-0.01c0.16,14.941,0.06,30.391-0.68,40.561l-0.182-0.011c0,0-7.568,0.67-13.068,0s-12.421-4.33-12.421-4.33
			C109.648,182.633,112.928,180.853,114.938,177.723z"/>
		<path fill="#BC9982" d="M150.279,113.133c0.25,6.66-6.329,9.33-6.329,9.33v-18C143.949,104.463,150.029,106.463,150.279,113.133z"
			/>
		<path fill="#BC9982" d="M113.199,91.073c-3.45-0.01-5.83,5.9-5.83,5.9v0.41c0,0,3.159,0.82,6.898,1
			c3.72,0.17,3.689-0.65,7.529-0.66C121.319,97.112,116.468,91.072,113.199,91.073z M92.647,81.495
			c6.101-7.79,15.229-13.931,15.229-13.931l0.521-0.24c1.73,3.85,5.121,10.29,11.102,17.94c9.74,12.5,11.811,18.26,11.811,18.26
			s0.819,21.6,1.069,44.37l-0.859,0.01l-9.761,11.931c-2.13,2.7-5.13,5.759-7.771,7.609c-0.38,0.261-0.75,0.5-1.109,0.71
			c-0.189,0.111-0.38,0.221-0.569,0.311c-0.811,0.42-1.551,0.66-2.17,0.67c-2.381,0.03-8.66-4.441-12.319-7.59
			c-0.021-0.021-0.04-0.04-0.062-0.061c-0.81-0.699-1.49-1.33-1.97-1.84c-2.601-2.75-14.149-13.94-17.899-30.06
			c-3.729-16.121-0.89-19.191,3.601-28.271c1.699-3.45,2.84-6.01,3.939-8.29c0.24-0.509,0.48-1,0.72-1.479
			c1.321-2.63,2.73-5.041,5.142-8.271c0,0,0.029-0.04,0.08-0.1C91.758,82.633,92.188,82.072,92.647,81.495z M90.018,96.813
			c3.83,0.28,6.359-1.02,6.359-1.02v-0.25c0,0-1.91-4.07-5.16-4.53c-2.67-0.35-3.829,3.19-4.029,4.62l0.16,0.24
			C87.348,95.873,87.718,96.663,90.018,96.813z"/>
		<path fill="#BC9982" d="M22.007,173.744c0,0,0.302-1.511,0.882-2.74l0.368,0.05l0.103,6.94c0,0,0.55,4.659,2.328,6.819
			l-0.011,0.01c0,0-1.358,1.341-2.528,1.28c-1.179-0.07-1.858-0.59-2.438-1.76l-0.701,0.25c-0.689-2.23-1.18-6.3-0.629-8.04
			C20.139,174.173,22.007,173.744,22.007,173.744z"/>
		<path fill="#BC9982" d="M23.838,169.672c1.19-0.86,3.67-0.37,3.67-0.37s0.41-0.89,0.74-1.56l0.26,0.02c0,0-1.169,6.01-0.647,8.97
			c0.489,2.88,1.61,7.2,2.39,8.36l-0.67,0.08c-1.689,1.22-2.95,0.77-3.892-0.36c-1.778-2.16-2.328-6.819-2.328-6.819l-0.103-6.94
			l-0.368-0.05C23.148,170.442,23.459,169.953,23.838,169.672z"/>
		<path fill="#BC9982" d="M28.249,167.743c0.201-0.4,0.371-0.73,0.399-0.73c0.819-0.15,2.399-1.67,4.569-1.28
			c3.28,0.44,5.16,1.7,5.16,1.7l0.62,0.061c-0.071,0.96-0.19,3.159,0.148,5.92l-0.079,0.09c-0.96-0.88-1.851-1.76-2.609-2.51
			c-1.521-1.511-3.74-2.971-4.33-0.471c-0.59,2.49-0.17,4.09,1.09,6.03c0.011,0.019,0.03,0.049,0.051,0.07
			c0.38,2.38,1.21,7.03,0.25,7.81c-1.511,1.231-2.42,1.74-3.2,0.76c-0.02-0.03-0.05-0.06-0.069-0.1c-0.78-1.16-1.9-5.48-2.39-8.36
			c-0.521-2.96,0.647-8.97,0.647-8.97L28.249,167.743z"/>
		<path fill="#BC9982" d="M38.378,167.433c0,0,0-3.9,0.689-8.34c0.689-4.45,0.659-6.639,3.381-8.61c2.71-1.97,3.1,4.37,3.1,4.37
			l0.33,22.2c0,0,1.78,2.21,1.83,2.99c0.069,0.52,0.13,1.01,0.2,1.5c-1.221-2.58-4.061-4.32-5.729-5.49
			c-1.069-0.74-2.12-1.64-3.109-2.55l0.079-0.09c-0.339-2.761-0.219-4.96-0.148-5.92L38.378,167.433z"/>
		<path fill="#BC9982" d="M33.22,176.553c-1.261-1.94-1.681-3.54-1.091-6.03c0.591-2.5,2.81-1.04,4.33,0.471
			c0.759,0.75,1.649,1.63,2.609,2.51c0.989,0.91,2.04,1.81,3.109,2.55c1.669,1.17,4.509,2.91,5.729,5.49
			c0.229,1.99,0.33,3.8-0.03,6.29c-0.449,3.09-1.561,4.47-3.63,9.84c-0.471,0.88-0.7,2.88-0.67,5.63c0,0-6.111,5.41-14.571,2.41
			l-0.778,0.04c-0.09-1.82-0.189-3.74-0.302-5.78c0,0-1.59-1.19-3.079-2.59c-4.66-4.411-3.55-8.93-4.029-11.271
			c-0.271-0.12-0.551-0.7-0.812-1.52l0.701-0.25c0.58,1.17,1.259,1.691,2.438,1.76c1.17,0.061,2.528-1.28,2.528-1.28l0.011-0.01
			c0.941,1.13,2.202,1.58,3.892,0.36l0.67-0.08c0.02,0.04,0.05,0.071,0.069,0.1c0.78,0.98,1.689,0.47,3.2-0.76
			c0.96-0.781,0.13-5.43-0.25-7.81C33.249,176.603,33.228,176.572,33.22,176.553z"/>
		<path fill="#BC9982" d="M140.887,295.134c1.939-4.01,4.181-6.55,10.579-7.58c0.171-0.03,0.352-0.07,0.54-0.13
			c0.621,8.55,8.602,10.68,8.602,10.68l1.971,0.183c-1.439,1.259-2.46,2.438-2.7,3.397c0.141,5.95-3.21,22.66-3.21,22.66
			s-1.101,3.16-2.79,5.94c-0.38,0.639-0.8,1.259-1.25,1.817c-0.189,0.241-0.199,3.562-0.199,3.562
			c-0.87,1.949-1.851,2.131-3.421,2.199c-1.56,0.069-2.88-3.011-3.13-5.419c-0.811-16.142,1.399-29.819-1.67-31
			c-3.819,3.108-3.33,6.229-6.66,7.658c-3.34,1.422-4.17-0.93-3.96-3.43S138.949,299.143,140.887,295.134z"/>
	</g>
	<path d="M93.333,95.054c0,0,0.38,0.79-0.27,0.83C92.403,95.923,92.613,95.054,93.333,95.054z"/>
	<path d="M115.783,95.784c0.84,0.4,1.29,2.06-0.34,1.65C113.823,97.014,114.933,95.383,115.783,95.784z"/>
	<path fill="#FFFFFF" d="M44.163,44.463c0.95-5.24,2.41-1.92,1.91-0.78C45.793,44.304,44.943,44.673,44.163,44.463z"/>
	<path fill="#FFFFFF" d="M38.673,44.034c-0.82,0.77-1.81,1.15-2.37-0.58C35.693,41.563,37.223,40.753,38.673,44.034z"/>
	<path fill="#FFFFFF" d="M44.023,45.363c-0.46,2.83-0.99,4.4-0.73,14.27l-2.45-0.03c-0.05-8.35-1.09-13.11-2.17-15.57
		c0.78-0.72,1.41-1.79,1.41-1.79c1.22,3.25,2.62,0,2.62,0c0.07,1.38,0.74,2.04,1.46,2.22C44.113,44.733,44.073,45.034,44.023,45.363
		z"/>
	<path fill="#FFFFFF" d="M122.223,97.724c-3.841,0.01-3.801,0.83-7.53,0.66c-3.74-0.18-6.9-1-6.9-1v-0.41c0,0,2.38-5.91,5.83-5.9
		C116.893,91.074,121.743,97.113,122.223,97.724z M115.443,97.434c1.63,0.41,1.18-1.25,0.34-1.65
		C114.933,95.383,113.823,97.014,115.443,97.434z"/>
	<path fill="#FFFFFF" d="M93.063,95.883c0.65-0.04,0.27-0.83,0.27-0.83C92.613,95.054,92.403,95.923,93.063,95.883z M90.443,96.813
		c-2.3-0.15-2.67-0.94-2.67-0.94l-0.16-0.24c0.2-1.43,1.36-4.98,4.03-4.62c3.25,0.45,5.16,4.52,5.16,4.52v0.25
		C96.803,95.784,94.273,97.094,90.443,96.813z"/>
	<path fill="#FFFFFF" d="M37.683,65.474l9.12,2.95c0,0-3.05-0.13-5.46-0.96C38.923,66.633,37.683,65.474,37.683,65.474z"/>
	<path fill="#FFFFFF" d="M36.803,68.923l10,2.44c0,0-1.99,0.65-5.38-0.37C38.023,69.963,36.803,68.923,36.803,68.923z"/>
	<path fill="#FFFFFF" d="M37.273,61.463l8.69,3.58c-0.27-0.04-2.53-0.41-4.41-1.08C39.543,63.253,37.273,61.463,37.273,61.463z"/>
	<path fill="#FFFFFF" d="M43.293,59.633l3.51,0.04c0,0-1.63,1.1-5.95,0.71c0-0.26,0-0.53-0.01-0.78L43.293,59.633z"/>
	<path fill="#FFFFFF" d="M40.843,59.604c0.01,0.25,0.01,0.52,0.01,0.78c-1.32-0.11-2.89-0.36-4.74-0.83L40.843,59.604z"/>
</g>
<g>
	<path fill="none" stroke="#000000" stroke-width="3" stroke-linecap="round" stroke-linejoin="round" d="M131.938,147.903
		l-9.76,11.93c-2.431,3.08-6,6.639-8.881,8.32c-0.189,0.11-0.38,0.22-0.569,0.31c-0.811,0.42-1.55,0.66-2.17,0.67
		c-2.38,0.03-8.66-4.44-12.32-7.59c-0.84-0.73-1.539-1.379-2.029-1.9c-2.601-2.75-14.149-13.94-17.899-30.06
		c-3.729-16.121-0.891-19.191,3.601-28.271c1.699-3.449,2.84-6.01,3.939-8.29c0.239-0.509,0.479-1,0.72-1.479
		c1.32-2.63,2.729-5.041,5.141-8.271c0.42-0.569,0.87-1.159,1.359-1.779c6.101-7.79,15.229-13.931,15.229-13.931"/>
	<path fill="none" stroke="#000000" stroke-width="3" stroke-linecap="round" stroke-linejoin="round" d="M86.569,91.543
		c-2.96-5.481,2.721-15.271,5.721-19.021s3.75-5.5,7.25-11.5s16,0,16,0s5.75,1.75,22.75,11.75s16.25,18.5,20.5,74.25
		c1.09,14.331,1.279,28.221,0.899,41.021c-1.069,36.99-6.8,64.75-8.649,66.979c-2.5,3-22.235,2.75-22.235,2.75
		s5.333-8.386,3.976-18.553c-6.19,11.166-12.569,15.803-12.569,15.803s1.311-2.75,3.561-11.75s5.49-28,7.99-50.75
		c0.14-1.229,0.26-2.59,0.359-4.069c0.739-10.17,0.84-25.621,0.68-40.561c-0.25-22.769-1.069-44.37-1.069-44.37
		s-2.069-5.76-11.811-18.26c-5.979-7.649-9.37-14.089-11.101-17.939c-1.1-2.43-1.529-3.82-1.529-3.82"/>
	<path fill="none" stroke="#000000" stroke-width="1.5" stroke-linecap="round" stroke-linejoin="round" d="M99.788,81.635
		c0,0-1.285-2.215-3.785-1.465s-4.295,3.102-4.295,3.102"/>
	<path fill="none" stroke="#000000" stroke-width="1.5" stroke-linecap="round" stroke-linejoin="round" d="M117.399,83.272
		c0,0-2.324-3.503-5.688-4c-3.363-0.497-4.067,1.51-4.067,1.51"/>
	<path fill="none" stroke="#000000" stroke-width="1.5" stroke-linecap="round" stroke-linejoin="round" d="M122.261,97.773
		c0,0-5.2-6.704-8.641-6.704c-3.451-0.01-5.832,5.9-5.832,5.9"/>
	<path fill="none" stroke="#000000" stroke-width="1.5" stroke-linecap="round" stroke-linejoin="round" d="M122.26,97.719
		c-3.873,0-3.831,0.833-7.567,0.66c-3.735-0.173-6.902-0.993-6.902-0.993"/>
	<path fill="none" stroke="#000000" stroke-width="3" stroke-linecap="round" stroke-linejoin="round" d="M115.447,97.43
		c-1.625-0.417-0.513-2.042,0.333-1.642S117.072,97.847,115.447,97.43z"/>
	<path fill="none" stroke="#000000" stroke-width="1.25" stroke-linecap="round" stroke-linejoin="round" d="M96.801,95.538
		c0,0-1.909-4.071-5.159-4.521c-2.67-0.359-3.826,3.187-4.024,4.62"/>
	<path fill="none" stroke="#000000" stroke-width="1.25" stroke-linecap="round" stroke-linejoin="round" d="M87.774,95.869
		c0,0,0.369,0.79,2.668,0.943c3.835,0.285,6.359-1.025,6.359-1.025"/>
	<path fill="none" stroke="#000000" stroke-width="3" stroke-linecap="round" stroke-linejoin="round" d="M93.058,95.886
		c-0.654,0.041-0.443-0.83,0.272-0.83C93.331,95.056,93.712,95.845,93.058,95.886z"/>
	<path fill="none" stroke="#000000" stroke-width="1.5" stroke-linecap="round" stroke-linejoin="round" d="M106.967,119.542
		c-1.566-1.933-4.428-1.769-4.428-1.769c3.3,1.95,2.92,4.76-0.439,6.78c-4.761,2.481-3.479-0.24-5.141-1.41
		c-1.681-1.159-2.46-0.58-2.46-0.58c0.26,4.22-4.359,3.52-8.141,1.07c-3.779-2.46-6.79-6.93-6.43-9.83
		c0.369-2.9,11.63-6.25,16.5-13.14c4.879-6.901,5.396-14.755,5.396-14.755"/>
	<path fill="none" stroke="#000000" stroke-width="1.5" stroke-linecap="round" stroke-linejoin="round" d="M115.68,127.741
		c0,0-1.659,2-7.134,4.14c-5.474,2.14-11.495,2.649-18.245,1.443"/>
	<path fill="none" stroke="#000000" stroke-width="1.5" stroke-linecap="round" stroke-linejoin="round" d="M121.607,129.803
		c-5.41,0-8.601-4.579-8.601-4.579"/>
	<path fill="none" stroke="#000000" stroke-width="1.5" stroke-linecap="round" stroke-linejoin="round" d="M98.208,133.898
		c-2.541,0.468-4.764,1.986-5.571,4.139"/>
	<path fill="none" stroke="#000000" stroke-width="1.5" stroke-linecap="round" stroke-linejoin="round" d="M150.699,113.133
		c0.25,6.66-6.33,9.33-6.33,9.33v-18C144.369,104.463,150.449,106.463,150.699,113.133z"/>
	<path fill="none" stroke="#000000" stroke-width="3" stroke-linecap="round" stroke-linejoin="round" d="M51.551,248.064
		c7.215-11.925,24.022-39.325,26.688-43.841c3.19-5.43,11.271-12.23,17.7-15.72c0.29-0.16,0.569-0.309,0.851-0.45
		c3.061-1.549,6.489-2.629,9.66-3.938c3.619-1.481,6.899-3.261,8.909-6.391c1.53-3.54,0-9.51,0-9.51"/>
	<path fill="none" stroke="#000000" stroke-width="3" stroke-linecap="round" stroke-linejoin="round" d="M77.108,256.389
		c0,0-5.021,8.541-14.021,15.875s-18.494,6.953-18.494,6.953s-10.397-6.539-12.619-25.838c-2.223-19.299-2.004-23.328-3.625-53.407
		c0,0-1.585-1.187-3.078-2.588c-4.657-4.417-3.553-8.938-4.031-11.271c-1-0.46-2.188-7.188-1.434-9.562
		c0.754-2.374,2.629-2.812,2.629-2.812c-0.001,0,0.642-3.2,1.827-4.062c1.186-0.862,3.669-0.377,3.669-0.377
		s1.061-2.278,1.141-2.292c0.824-0.149,2.4-1.664,4.567-1.276c3.288,0.445,5.166,1.695,5.166,1.695s-0.006-3.892,0.687-8.339
		c0.69-4.447,0.667-6.635,3.38-8.604c2.712-1.967,3.1,4.373,3.1,4.373l0.333,22.195c0,0,1.782,2.214,1.833,2.985
		c0.343,2.658,0.616,4.7,0.167,7.791c-0.448,3.091-1.562,4.474-3.635,9.849c-1.079,2.03-0.892,10.113,0.802,19.653
		c2.286,12.89,6.464,28.437,5.918,35.304"/>
	<path fill="none" stroke="#000000" stroke-width="1.5" stroke-linecap="round" stroke-linejoin="round" d="M48.897,183.737
		c-0.229-3.823-4.185-6.215-6.297-7.686c-2.112-1.47-4.188-3.549-5.714-5.061c-1.525-1.512-3.741-2.97-4.333-0.472
		c-0.593,2.498-0.171,4.093,1.087,6.037c1.257,1.944,5.001,4.954,5.001,4.954s-4.03,4.482-3.511,9.793"/>
	<path fill="none" stroke="#000000" stroke-width="1.5" stroke-linecap="round" stroke-linejoin="round" d="M39.454,167.142
		c-0.062,0.662-0.271,3.093,0.121,6.273"/>
	<path fill="none" stroke="#000000" stroke-width="1.5" stroke-linecap="round" stroke-linejoin="round" d="M33.67,176.524
		c0.388,2.345,1.244,7.121,0.273,7.911c-1.509,1.229-2.424,1.737-3.205,0.759c-0.779-0.979-1.947-5.496-2.461-8.458
		c-0.514-2.962,0.657-8.979,0.657-8.979"/>
	<path fill="none" stroke="#000000" stroke-width="1.5" stroke-linecap="round" stroke-linejoin="round" d="M23.676,171.051
		l0.104,6.938c0,0,1.272,10.75,6.222,7.188"/>
	<path fill="none" stroke="#000000" stroke-width="1.5" stroke-linecap="round" stroke-linejoin="round" d="M21.133,184.344
		c0.581,1.168,1.263,1.688,2.436,1.753c1.174,0.065,2.536-1.271,2.536-1.271"/>
	<path fill="none" stroke="#000000" stroke-width="1.5" stroke-linecap="round" stroke-linejoin="round" d="M26.807,198.215
		c2.662,1.837,6.579,1.921,6.579,1.921"/>
	<path fill="none" stroke="#000000" stroke-width="1.5" stroke-linecap="round" stroke-linejoin="round" d="M29.428,205.713
		c8.461,3,14.569-2.414,14.569-2.414"/>
	<path fill="none" stroke="#000000" stroke-width="3" stroke-linecap="round" stroke-linejoin="round" d="M95.928,188.653
		c0,0,0-0.05,0.01-0.15c0.061-0.96,0.391-6.43,0.84-13.38c0.5-7.67,0.87-13.04,0.87-13.04"/>
	<path fill="none" stroke="#000000" stroke-width="1.5" stroke-linecap="round" stroke-linejoin="round" d="M131.939,188.443
		c0,0-7.569,0.67-13.069,0c-5.5-0.671-12.42-4.33-12.42-4.33"/>
	<path fill="none" stroke="#000000" stroke-width="3" stroke-linecap="round" stroke-linejoin="round" d="M155.008,285.928
		c0.051-0.46,1.151-24.535,1.151-24.535s3.63-36.757,5.63-37.007c2.638,3.779,37.185,29.504,37.185,29.504"/>
	<path fill="none" stroke="#000000" stroke-width="3" stroke-linecap="round" stroke-linejoin="round" d="M159.699,188.043
		c0,0,15.133,11.977,23.853,20.95c8.721,8.973,36.6,33.756,42.25,44.407c-0.5,0.974-0.875,10.653-12.875,17.278
		s-34.292,17.542-34.292,17.542s-17.209,9.092-18.334,13.467c0.146,5.95-3.208,22.659-3.208,22.659s-1.665,4.776-4.04,7.755
		c-0.192,0.247-0.201,3.563-0.201,3.563c-0.868,1.945-1.854,2.131-3.416,2.201c-1.562,0.069-2.883-3.017-3.133-5.417
		c-0.811-16.146,1.395-29.822-1.668-31.001c-3.822,3.104-3.334,6.229-6.667,7.65c-3.332,1.421-4.165-0.93-3.957-3.43
		s5.36-6.529,7.299-10.538c1.938-4.009,4.182-6.543,10.584-7.577c6.402-1.034,30.543-25.302,47.299-33.39"/>
	<path fill="none" stroke="#000000" stroke-width="1.5" stroke-linecap="round" stroke-linejoin="round" d="M151.801,335.337
		c-0.344-1.508-0.285-7.291,0.33-10.755c0.265-3.183,0.375-7.351,1.29-8.789"/>
	<path fill="none" stroke="#000000" stroke-width="1.5" stroke-linecap="round" stroke-linejoin="round" d="M154.427,328.053
		c0,0,0.335-3.083,0.418-5.416s1-6.334,1-6.334"/>
	<path fill="none" stroke="#000000" stroke-width="1.5" stroke-linecap="round" stroke-linejoin="round" d="M152.428,287.423
		c0.628,8.545,8.6,10.681,8.6,10.681"/>
	<path fill="none" stroke="#000000" stroke-width="3" stroke-linecap="round" stroke-linejoin="round" d="M103.788,379.103
		c8.08,6.671,11.25,62.671,11.25,62.671c5.33,58.672,13.46,104.118,19.46,134.461c2.359,12.52,4.521,20.09,7.05,25
		c3.96,7.647,8.82,8.789,16.74,12.039c3.489,1.432,6.38,2.61,8.91,3.512c5.289,1.879,8.97,2.518,13.149,1.606
		c1.26-0.268,2.569-0.678,3.979-1.237c8.199-3.281,16-8.49,19.08-19.603c0.05-0.147,0.09-0.299,0.13-0.448
		c3-11.42,3.529-23.33,3.529-23.33s-13.029-35-36.029-130c-7.939-32.802-10.541-57.711-13.44-79.183
		c-1.768-13.062-2.201-25.34-2.825-34.211"/>
	<path fill="none" stroke="#000000" stroke-width="3" stroke-linecap="round" stroke-linejoin="round" d="M84.189,219.323
		c0,0-4.46,16.397-6.221,33.59c-1.76,17.193-0.779,72.5-0.529,109.53c0.05,8.52,0.069,18.551,0.05,30.328
		c-0.119,63-7.449,162.422-7.449,173.762c0,11.33,0.279,15.987,10,31.711c5.771,8.33,7.22,14,12.91,17
		c3.199,1.688,7.72,2.526,15.09,2.526c14.09,0,17.8-0.76,20.84-3.26c1.391-1.129,2.63-2.629,4.649-4.567
		c6.479-6.222,7.44-8.08,7.44-8.08"/>
	<path fill="none" stroke="#000000" stroke-width="1.5" stroke-linecap="round" stroke-linejoin="round" d="M157.295,362.443
		c0,0-28.256,5.33-45.105,5.657c-16.859,0.343-33.819-5.657-33.819-5.657"/>
	<path fill="none" stroke="#000000" stroke-width="3" stroke-linecap="round" stroke-linejoin="round" d="M204.24,597.794
		c0,0,3.14,5.191,4.92,8.271c0.25,0.432,0.439,0.891,0.58,1.368c0.85,2.982-0.32,6.902-2.11,10.933
		c-2.069,4.688-11.189,8.51-11.189,8.51s-1.359,0.721-3.59,1.961c-2.189,1.219-5.221,2.949-8.609,4.99
		c-3.11,1.879-6.521,4.018-9.87,6.279c-10.74,7.25-12.13,6.049-14.931,6.358c-2.811,0.299-3.01-0.77-3.01-0.77
		s-0.74,0.77-3.229,1.379c-2.511,0.608-4.439-1.09-4.439-1.09s-0.9,0.657-3.511,0.688c-2.62,0.021-3.37-2.76-3.37-2.76
		s-1.8,1.82-3.979,0.289c-1.229-0.871-1.39-2.42-1.3-3.603c0.069-0.889,0.279-1.579,0.279-1.579c7.399-4.367,14-8.898,19.439-12.947
		c4.261-3.183,7.82-6.062,10.49-8.34"/>
	<path fill="none" stroke="#000000" stroke-width="3" stroke-linecap="round" stroke-linejoin="round" d="M136.599,640.604
		c0,0,0,0-1.11,0.829c-1.119,0.83-0.271,2.441-0.271,2.441c0.53,2.1,1.82,5.648,10.24,7.039c8.41,1.389,12.83,2.139,18.939,0.188
		c6.109-1.948,13.561-5.788,20.771-11c7.21-5.221,11.761-7.551,17.75-10.711c5.99-3.157,8.609-5.567,10.17-9.51
		c1.57-3.93,1.189-8.68-3.26-12.469"/>
	<path fill="none" stroke="#000000" stroke-width="1.5" stroke-linecap="round" stroke-linejoin="round" d="M183.99,633.414
		c0,0-1.86-4.852-15.33-6.74c-9.601-1.35-11.841-0.93-12.33-0.58c-0.189,0.15-0.109,0.279-0.109,0.279"/>
	<path fill="none" stroke="#000000" stroke-width="1.5" stroke-linecap="round" stroke-linejoin="round" d="M192.539,628.271
		c0,0-3.04-4.828-9.33-7.55c-0.979-0.43-2.061-0.791-3.189-1.08c-0.2-0.059-0.391-0.108-0.59-0.157"/>
	<path fill="none" stroke="#000000" stroke-width="3" stroke-linecap="round" stroke-linejoin="round" d="M92.468,615.865
		c-1.35,0.688-4.43,2.211-7.869,3.85c-3.15,1.482-6.601,3.062-9.33,4.17c-0.061,0.021-0.12,0.049-0.181,0.07
		c-5.689,2.301-15.29,5.641-15.29,5.641s-5.88,1.879-5.359,3.75c0,0-0.489,0.4-0.351,1.629c0.021,0.232,0.07,0.482,0.149,0.763
		c-1.14,0.76,0.32,2.789,1.841,2.688c0.229,1.23,1.619,2.299,3.04,2.601c1.43,0.301,2.609-1.068,2.609-1.068
		s0.771,3.059,5.439,3.059c2.12,0.222,10.069-2.27,10.069-2.27s9.41-2.48,19.131-4.641c0.08-0.021,0.17-0.039,0.25-0.062
		c3.83-0.85,6.42-1.32,8.14-1.59c2.551-0.379,3.21-0.311,3.21-0.311c19.65-0.658,22.851-5.212,23.311-8.658
		c0.011-0.082,0.03-0.183,0.04-0.271c0.091-0.84,0.08-1.92,0.011-3.061c-0.21-3.459-0.931-7.513-0.931-7.513"/>
	<path fill="none" stroke="#000000" stroke-width="3" stroke-linecap="round" stroke-linejoin="round" d="M131.379,622.154l0.78,1
		l3.26,2.6v3.84c0,0-0.26,3.062-4.04,5.562c-3.779,2.5-7.46,3.67-18.641,4.567c-19.699,1.802-31.409,7.433-38.35,7.99
		c-6.939,0.559-16.939,1.131-21.351-3.92c-4.41-5.059,0.739-8.789,0.739-8.789"/>
	<path fill="none" stroke="#000000" stroke-width="1.5" stroke-linecap="round" stroke-linejoin="round" d="M96.278,636.851
		c0,0,0.511-0.067,0.341-0.809c-0.11-0.461-0.49-1.18-1.431-2.32c-2.439-2.938-4.25-4.33-11.75-7.317
		c-5.311-2.121-7.41-2.492-8.17-2.521c-0.319-0.02-0.41,0.021-0.41,0.021"/>
	<path fill="none" stroke="#000000" stroke-width="1.5" stroke-linecap="round" stroke-linejoin="round" d="M104.969,635.181
		c0,0-0.06-0.268-0.21-0.729c-0.27-0.812-0.829-2.209-1.899-3.719c-1.67-2.371-6.25-6.173-11.42-8.871
		c-3.01-1.57-5.391-2.039-6.84-2.15c-1.051-0.09-1.631,0.01-1.631,0.01"/>
	<path fill="none" stroke="#000000" stroke-width="3" stroke-linecap="round" stroke-linejoin="round" stroke-miterlimit="10" d="
		M47.553,74.052v-6.75h1.875c0,0,1.75-2.25,0-4.5h-1.875v-3.25c0,0-1.917-1.492-0.494-5.499c2.375-3.25,8.744-5.5,8.869-13.376
		s-5.021-13.75-13.896-13.875h-0.896c-8.875,0.125-13.752,6.834-13.413,13.875c0.338,7.041,6.785,10.126,9.16,13.376
		c1.418,3.757-0.785,5.499-0.785,5.499v3.25h-1.875c-1.75,2.25,0,4.5,0,4.5h1.875v6.75C41.644,77.551,47.552,74.052,47.553,74.052z"
		/>
	
		<path fill="#FFFFFF" stroke="#000000" stroke-width="1.5" stroke-linecap="round" stroke-linejoin="round" stroke-miterlimit="10" d="
		M36.098,59.552c7.921,2,10.703,0.125,10.703,0.125"/>
	
		<path fill="#FFFFFF" stroke="#000000" stroke-width="1.5" stroke-linecap="round" stroke-linejoin="round" stroke-miterlimit="10" d="
		M45.99,65.056c0,0-2.431-0.369-4.44-1.088c-2.01-0.719-4.278-2.5-4.278-2.5"/>
	
		<path fill="#FFFFFF" stroke="#000000" stroke-width="1.5" stroke-linecap="round" stroke-linejoin="round" stroke-miterlimit="10" d="
		M37.68,65.476c0,0,1.245,1.159,3.66,1.99s5.461,0.961,5.461,0.961"/>
	
		<path fill="#FFFFFF" stroke="#000000" stroke-width="1.5" stroke-linecap="round" stroke-linejoin="round" stroke-miterlimit="10" d="
		M36.802,68.927c0,0,1.221,1.041,4.618,2.062c3.397,1.021,5.382,0.375,5.382,0.375"/>
	<path fill="none" stroke="#000000" stroke-width="1.5" stroke-linecap="round" stroke-linejoin="round" stroke-miterlimit="10" d="
		M43.311,60.384c-0.312-10.543,0.238-12.118,0.707-15.02c0.938-6.5,2.587-2.883,2.056-1.68c-0.532,1.203-3.212,1.43-3.366-1.445
		c0,0-1.407,3.25-2.626,0c0,0-2.688,4.562-3.774,1.211c-1.089-3.351,4.551-3.314,4.545,16.934"/>
	
		<line fill="none" stroke="#EED95F" stroke-width="2" stroke-linecap="round" stroke-linejoin="round" stroke-miterlimit="10" x1="70.682" y1="56.2" x2="63.104" y2="53.204"/>
	
		<line fill="none" stroke="#EED95F" stroke-width="2" stroke-linecap="round" stroke-linejoin="round" stroke-miterlimit="10" x1="73.947" y1="29.885" x2="64.838" y2="32.552"/>
	
		<line fill="none" stroke="#EED95F" stroke-width="2" stroke-linecap="round" stroke-linejoin="round" stroke-miterlimit="10" x1="54.135" y1="10.885" x2="50.302" y2="19.552"/>
	
		<line fill="none" stroke="#EED95F" stroke-width="2" stroke-linecap="round" stroke-linejoin="round" stroke-miterlimit="10" x1="25.085" y1="11.335" x2="28.706" y2="19.552"/>
	
		<line fill="none" stroke="#EED95F" stroke-width="2" stroke-linecap="round" stroke-linejoin="round" stroke-miterlimit="10" x1="8.468" y1="36.562" x2="17.969" y2="36.562"/>
	
		<line fill="none" stroke="#EED95F" stroke-width="2" stroke-linecap="round" stroke-linejoin="round" stroke-miterlimit="10" x1="15.172" y1="59.553" x2="22.636" y2="54.056"/>
</g>
</svg>
