<?xml version="1.0" encoding="utf-8"?>
<!-- Generator: Adobe Illustrator 16.0.0, SVG Export Plug-In . SVG Version: 6.00 Build 0)  -->
<!DOCTYPE svg PUBLIC "-//W3C//DTD SVG 1.1//EN" "http://www.w3.org/Graphics/SVG/1.1/DTD/svg11.dtd">
<svg version="1.1" id="Layer_1" xmlns="http://www.w3.org/2000/svg" xmlns:xlink="http://www.w3.org/1999/xlink" x="0px" y="0px"
	 width="301.485px" height="641.531px" viewBox="0 0 301.485 641.531" enable-background="new 0 0 301.485 641.531"
	 xml:space="preserve">
<g id="XMLID_1_">
	<path fill="#FFFFFF" d="M172.567,109.33c0,0,2.5-0.16,4-0.41c1.41-0.23,3.76-1.5,4.05-1.65c0.3,1.18,0.29,3.16-2.25,4.27
		c-1.66,0.71-3.12-0.69-5.859-2.1L172.567,109.33z"/>
	<path fill="#FFFFFF" d="M150.037,105.089c0.57-1.45,1.61-2.75,3.49-3.16c3.75-0.63,4.37,1.08,11.54,0.69
		c7.16-0.38,9.26-2.05,11.05-1.23c1.29,0.59,2.391,1.77,3.311,3.32l-0.08,0.05c-1.811,2.32-15.04-0.28-26.601,0.33
		c-0.1,0.03-2.63,0.03-2.63,0.03L150.037,105.089z"/>
	<path fill="#FFFFFF" d="M155.577,69.99c0,0-4.819,10.12-13.069,1.02c0,0,2.909-4.79,6.659-4.58
		C152.907,66.64,155.577,69.99,155.577,69.99z M149.308,70.259c0,0-1.851,1.65-0.11,1.88
		C150.938,72.359,150.678,70.339,149.308,70.259z"/>
	<path fill="#FFFFFF" d="M175.478,73.959c-2.87,0.25-6.75-3.63-6.75-3.63s2.5-5.12,6.25-5.24c3.75-0.13,5.5,2.62,6.75,4.37
		C181.728,69.459,178.357,73.709,175.478,73.959z M174.607,69.58c0,0-1.25,1.88,0.37,1.75
		C176.607,71.209,176.228,69.459,174.607,69.58z"/>
	<path d="M161.417,107.169c-11.39,0.41-12,2.78-12,2.78s-0.27-2.6,0.62-4.86l0.08,0.03c0,0,2.53,0,2.63-0.03
		c11.561-0.61,24.79,1.99,26.601-0.33l0.08-0.05c0.35,0.59,0.67,1.23,0.97,1.91c0.07,0.17,0.15,0.39,0.22,0.65
		c-0.29,0.15-2.64,1.42-4.05,1.65c-1.5,0.25-4,0.41-4,0.41l-0.06,0.11C170.117,108.209,166.747,106.97,161.417,107.169z"/>
	<path fill="#BB9881" d="M154.107,93.68c-2.56,0.22-0.3,2.27-2.19,2.55c-1.899,0.27-4.77-2.98-1.189-5.78l0.16-0.12
		C151.688,91.41,152.777,92.609,154.107,93.68z"/>
	<path fill="#4C3122" d="M224.857,58.62c-1.34-1.72-2.7-3.36-4.09-4.9l0.11-0.1c-2.65-3.85-4.421-11.81-5.04-20.56
		c0-0.03,0-0.05-0.011-0.08h0.051c0,0,17.35,19.35,26.02,36.52c1.62,3.2,3.04,6.7,4.26,10.28c5.23,15.16,7.141,31.66,7.23,32.52
		C252.978,111.22,240.768,79.169,224.857,58.62z"/>
	<path fill="#4C3122" d="M136.777,59.5c0,0-0.46,19.58-0.16,45c0.16,13.56,0.53,28.79,1.311,43.6c1.3,24.73,3.72,48.28,8.13,60.9
		c0,0-5.66-3.75-9.91-14l0.5,13.75c0,0-9.42-4.81-15.42-14.54c-1.74-2.82-3.19-6.06-4.04-9.71c-0.03-0.15-0.07-0.3-0.1-0.45
		c-1.96-8.5-4.03-21.4-5.091-37.68c-0.979-15.04-1.1-32.96,0.551-52.98l-0.15-0.01c-5.99,9.32-11.99,23.59-13,48.21
		c-1.32-0.61-2.63-1.23-3.94-1.86l0.11-0.23c-3.17-27.99,2.66-37.83,2.66-37.83l-0.11-0.09c9.66-12.1,15.931-21.06,18.21-24.41
		c0.641-0.94,0.971-1.44,0.971-1.44s1.22-1.61,2.77-2.57c2.74-2.51,6.14-14.05,6.45-18.53c0.32-4.48,0.21-10.04,0.21-10.04
		l5.59,1.79c0,0,0.2,1.18,0.2,1.68c1.13,0.82,4.53,1.46,4.53,1.46s3.909-8.46-0.591-10.52c0,0,1.021-1.68,1.95-3.66
		c0.101-0.21,0.2-0.43,0.3-0.65l-3.71-1.37c0,0-0.83-1.43-1.989-3l1.58-0.01c0,0,25.029-11.59,28.529-8.59s5.78,4.97,5.78,4.97
		s7.44-12.63,10.5-14.69c0,0,9.08-5.75,20.75,5.62l0.01,0.22c-3.279,0.21-4.84,0.49-4.84,0.49l1.25,3.34c0,0-7,1.17-7.34,3.83
		c0,1,0.24,2.26,0.24,2.26s-2.61,1.2-2.74,3.08c-0.12,2.75,3.67,7.5,3.67,7.5l1.88,2.66l2.61-4.38l0.109-0.19
		c0,0,2.78-0.18,2.65-0.18c-0.62,3.38,0.28,10.27,2.11,17.16l-0.48,0.13c-4.21,6.46-8.96,7.79-8.96,7.79l-0.12,0.76
		c-0.03,0.01-0.06,0.02-0.09,0.03c-2.45,0.79-5.5,1.18-9.21,0.63c-3.46-0.51-6.15-2.88-8.23-5.97c-4.96-7.4-6.39-18.9-6.39-18.9
		s-6.26,11.5-14.26,16.24C144.018,58.879,136.777,59.5,136.777,59.5z"/>
	<path fill="#4C3122" d="M189.237,111.6c0.561-26.43,0.91-49.35,0.91-49.35l-0.04-0.13c0.03-0.01,0.06-0.02,0.09-0.03l0.12-0.76
		c0,0,4.75-1.33,8.96-7.79l0.48-0.13c0.21,0.75,0.42,1.51,0.64,2.26c2.05,6.91,4.81,9.09,7.33,9.21l-0.08,1.37c0,0,3,7.5,9,48.25
		c1.66,11.26,2.21,20.3,2.13,27.5c-0.18,18.84-4.63,25-4.63,25c0.69-7.55,0.58-15.27,0.11-22.35c-1.091-16.11-4.11-28.9-4.11-28.9
		c0.08,8.35,0.11,19.33-0.05,30.58c-0.21,15.36-0.771,31.23-2.03,41.62c-0.76,6.39-1.79,10.7-3.17,11.55
		c-0.82,0.51-1.9,0.95-3.14,1.33c-6.721,2.06-18.11,2.42-18.11,2.42s0.75-2.75,2.75-14c0.69-3.85,1.34-19.97,1.9-39.5
		C188.657,137.64,188.968,124.22,189.237,111.6z"/>
	<path d="M273.158,574.379c0,0-0.01,4.121,0.42,8.102c0.109,1.029,0.109,2.398,0.039,3.859c-0.199,4.17-0.91,9.09-0.91,9.09
		c-0.01,0.09-0.029,0.18-0.039,0.27c-1.58-3.141-6.561-4.029-6.561-4.029l-0.439-0.291c1.66-2.479,3.26-5.75,4.789-10.029
		c0.9-2.529,1.73-4.869,2.49-7.041L273.158,574.379z"/>
	<path d="M273.777,586.35c0.49,4.051,1.74,12.48,1.74,15.631c0,3.139-0.119,8.43-2.311,10.898c-2.189,2.461-5.43,5.871-22.559,6.102
		c-20.88,0.559-22.49-1.16-24.32-5.73c-1.12-2.811,0.681-4.65,1.5-4.75l0.69-0.031c0.39,1.551,1.57,3.141,4.67,3.461
		c6.36,0.67,7.39-2.17,7.39-2.17s0.641,2.209,2.971,2.27c2.33,0.07,4-2.43,4-2.43s1.14,2.5,3.979,2.4
		c2.83-0.1,3.351-2.26,3.351-2.26s0.96,2.84,3.619,2.568c2.671-0.279,3.722-2.389,3.722-2.389s3.119,0.99,4.648,0.039
		c1.531-0.959,2.15-3.199,2.15-3.199s2.391-3.051,3.65-11.061c0.01-0.09,0.029-0.18,0.039-0.27c0,0,0.711-4.92,0.91-9.09
		L273.777,586.35z"/>
	<path d="M88.317,597.789c-5.74-3.459-13.45-2.219-20.2-2.119c-6.62,0.109-17.18,0.811-21.779,5.439
		c-0.98-2.42-1.75-5.359-2.25-8.859l0.199-0.531c5.08,1.801,10.96,2.031,17.551,2.281c9.51,0.369,17.81,0.26,24.31-1.811l0.19,0.561
		c0,0,0.42,2.23,2.189,4.9L88.317,597.789z"/>
	<path d="M46.277,609.5c-2.26-4.5-4.5-14.381-4.13-18l0.25-0.541c0.61,0.291,1.24,0.541,1.89,0.76l-0.199,0.531
		c0.5,3.5,1.27,6.439,2.25,8.859c1.739,4.33,4.13,7.041,6.68,8.51c3.99,2.301,5.189,2.439,6.56,2.201
		c1.38-0.24,2.891-0.932,2.891-0.932s1.63,2.271,4.479,2.41c2.86,0.131,3.83-1.449,3.83-1.449s2.26,1.6,3.94,1.83
		c1.67,0.24,4.14-1,4.14-1s2.82,1.689,4.53,1.6c1.7-0.09,3.72-2.16,3.72-2.16s5.23,3.85,8.46,0.041c0.43-0.51,0.78-0.98,1.061-1.4
		l1.02,0.07l2.28,1.699l-1.29,5.109c0,0-9.12,2.611-19.431,2.48c-10.31-0.119-21.489-2.16-25.369-4.049
		C49.968,614.18,48.518,614,46.277,609.5z"/>
	<path fill="#BB9881" d="M97.397,607c0,0,1.06,1.01-0.77,3.76c-0.28,0.42-0.631,0.891-1.061,1.4c-3.229,3.809-8.46-0.041-8.46-0.041
		s-2.02,2.07-3.72,2.16c-1.71,0.09-4.53-1.6-4.53-1.6s-2.47,1.24-4.14,1c-1.681-0.23-3.94-1.83-3.94-1.83s-0.97,1.58-3.83,1.449
		c-2.85-0.139-4.479-2.41-4.479-2.41s-1.511,0.691-2.891,0.932c-1.37,0.238-2.569,0.1-6.56-2.201c-2.55-1.469-4.94-4.18-6.68-8.51
		c4.6-4.629,15.159-5.33,21.779-5.439c6.75-0.1,14.46-1.34,20.2,2.119l0.21-0.139c0.75,1.119,1.73,2.318,3.021,3.469
		C95.897,605,97.397,607,97.397,607z"/>
	<path fill="#BB9881" d="M266.107,591.67c0,0,4.98,0.889,6.561,4.029c-1.26,8.01-3.65,11.061-3.65,11.061s-0.619,2.24-2.15,3.199
		c-1.529,0.951-4.648-0.039-4.648-0.039s-1.051,2.109-3.722,2.389c-2.659,0.271-3.619-2.568-3.619-2.568s-0.521,2.16-3.351,2.26
		c-2.84,0.1-3.979-2.4-3.979-2.4s-1.67,2.5-4,2.43c-2.33-0.061-2.971-2.27-2.971-2.27s-1.029,2.84-7.39,2.17
		c-3.1-0.32-4.28-1.91-4.67-3.461c-0.42-1.629,0.03-3.209,0.03-3.209l3.279-2.16l2.511-4.6l-0.021-1.141
		c0.83-0.02,1.7-0.029,2.64-0.01c12.091,0.199,21.151,5.279,28.71-5.971L266.107,591.67z"/>
	<path fill="#BB9881" d="M138.207,35.25c-8.77-3.47-16.5-3.75-21.01-4.78l0.25-1.18c2.681-0.92,8.681-3.49,11.11-3.01
		c1.41,0.28,3.14,2.25,4.45,4.04c1.159,1.57,1.989,3,1.989,3l3.71,1.37c-0.1,0.22-0.199,0.44-0.3,0.65L138.207,35.25z"/>
	<path fill="#BB9881" d="M203.667,17.669c3.86-0.13,5.9-0.22,7.28,0.01l-0.05,0.32c-2.84-0.17-5.17,2.38-5.17,2.38
		c-3.01,0.67-6.811,1.54-8.99,2.04l-0.17-0.75l-1.25-3.34c0,0,1.561-0.28,4.84-0.49C201.157,17.77,202.327,17.709,203.667,17.669z"
		/>
	<path fill="#BB9881" d="M109.188,36.75c1.21-10.58,5.4-6.63,7.59-7.25c0.19-0.05,0.41-0.13,0.67-0.21l-0.25,1.18
		c4.51,1.03,12.24,1.31,21.01,4.78l0.2,0.09c-0.93,1.98-1.95,3.66-1.95,3.66c4.5,2.06,0.591,10.52,0.591,10.52s-3.4-0.64-4.53-1.46
		c0-0.5-0.2-1.68-0.2-1.68l-5.59-1.79c0,0,0.11,5.56-0.21,10.04c-0.311,4.48-3.71,16.02-6.45,18.53c-1.55,0.96-2.77,2.57-2.77,2.57
		s-0.33,0.5-0.971,1.44c-9.439-0.04-11.76-7.84-11.76-7.84l-0.76-0.09c1.07-0.89,1.81-1.51,2.149-1.8
		C107.518,65,108.397,51.669,109.188,36.75z"/>
	<path fill="#BB9881" d="M189.228,25.5c0.34-2.66,7.34-3.83,7.34-3.83l0.17,0.75c2.18-0.5,5.98-1.37,8.99-2.04
		c0,0,2.33-2.55,5.17-2.38l0.05-0.32c0.65,0.11,1.16,0.29,1.641,0.57c1.5,0.87,2.609,6.03,3.239,14.73
		c0.011,0.03,0.011,0.05,0.011,0.08c0.619,8.75,2.39,16.71,5.04,20.56l-0.11,0.1c1.39,1.54,2.75,3.18,4.09,4.9
		c-2.57,8.05-13.13,8.88-13.13,8.88l-1.47,0.21c-1.141-1.8-1.801-2.84-1.801-2.84c-0.239,0.02-0.479,0.03-0.729,0.01
		c-2.521-0.12-5.28-2.3-7.33-9.21c-0.22-0.75-0.43-1.51-0.64-2.26c-1.83-6.89-2.73-13.78-2.11-17.16c0.13,0-2.65,0.18-2.65,0.18
		l-0.109,0.19l-2.61,4.38l-1.88-2.66c0,0-3.79-4.75-3.67-7.5c0.13-1.88,2.74-3.08,2.74-3.08S189.228,26.5,189.228,25.5z"/>
	<path fill="#BB9881" d="M180.617,107.27c-0.069-0.26-0.149-0.48-0.22-0.65c-0.3-0.68-0.62-1.32-0.97-1.91
		c-0.92-1.55-2.021-2.73-3.311-3.32c-1.79-0.82-3.89,0.85-11.05,1.23c-7.17,0.39-7.79-1.32-11.54-0.69
		c-1.88,0.41-2.92,1.71-3.49,3.16c-0.89,2.26-0.62,4.86-0.62,4.86s0.61-2.37,12-2.78c5.33-0.2,8.7,1.04,11.091,2.27
		c2.739,1.41,4.199,2.81,5.859,2.1C180.907,110.43,180.917,108.45,180.617,107.27z M150.888,90.33l-0.16,0.12
		c-3.58,2.8-0.71,6.05,1.189,5.78c1.891-0.28-0.369-2.33,2.19-2.55C152.777,92.609,151.688,91.41,150.888,90.33z M172.667,56.779
		c2.08,3.09,4.771,5.46,8.23,5.97c3.71,0.55,6.76,0.16,9.21-0.63l0.04,0.13c0,0-0.35,22.92-0.91,49.35
		c-1.24,2.8-2.649,5.86-5.189,9.7c-1.57,2.38-3.65,4.98-5.9,7.44c-0.71,0.77-1.43,1.53-2.17,2.26c-4.6,4.61-9.49,8.23-12.09,8.14
		c-2.45-0.1-5.38-1.38-8.94-4.24c-1.17-0.94-2.42-2.06-3.729-3.37c-1.75-1.74-3.641-3.8-5.67-6.23
		c-5.49-6.59-7.881-15.46-8.931-20.8c-0.3-25.42,0.16-45,0.16-45s7.24-0.62,15.24-5.38c8-4.74,14.26-16.24,14.26-16.24
		S167.707,49.379,172.667,56.779z M175.478,73.959c2.88-0.25,6.25-4.5,6.25-4.5c-1.25-1.75-3-4.5-6.75-4.37
		c-3.75,0.12-6.25,5.24-6.25,5.24S172.607,74.209,175.478,73.959z M155.577,69.99c0,0-2.67-3.35-6.41-3.56
		c-3.75-0.21-6.659,4.58-6.659,4.58C150.758,80.109,155.577,69.99,155.577,69.99z"/>
	<path fill="#BB9881" d="M163.888,139.14c2.6,0.09,7.49-3.53,12.09-8.14l0.25,0.25c0,0-0.66,12,5.76,17.11l-0.34,0.39
		c-21.08,18.92-38.5-1.87-38.5-1.87l-0.02-0.03c6.329-3.22,7.85-11.79,8.09-15.32c1.31,1.31,2.56,2.43,3.729,3.37
		C158.508,137.759,161.438,139.04,163.888,139.14z"/>
	<path fill="#EED95F" d="M99.397,141.589c4.01,1.86,8,3.57,11.67,4.84l0.93-0.06c1.061,16.28,3.131,29.18,5.091,37.68l-0.511,0.12
		c-19.84-12.6-66.939-40.02-71.68-51.17c-1-5.5,5.92-15.92,13.58-24.08c6.83-7.28,36.68-32.42,45.33-39.68l0.76,0.09
		c0,0,2.32,7.8,11.76,7.84c-2.279,3.35-8.55,12.31-18.21,24.41c-1.64,2.05-3.38,4.2-5.22,6.42c-12.09,14.67-18.03,19.11-22.64,20.17
		l0.05,0.22c2.85-0.25,13.66,5.78,25.149,11.34C96.768,140.359,98.077,140.979,99.397,141.589z"/>
	<path fill="#EED95F" d="M253.388,112.299c-0.09-0.86-2-17.36-7.23-32.52l0.2-0.07c3.78,5.38,10.87,14.96,16.21,22.29
		c5.33,7.33,11.41,15.52,9.16,22.33c-21.161,32-62.5,55.33-63.25,63.67l-0.41-0.05c1.26-10.39,1.82-26.26,2.03-41.62h0.319
		l3.511-1.66l0.33-0.02c0.47,7.08,0.58,14.8-0.11,22.35c0,0,4.45-6.16,4.63-25h0.16c6.96-5,16.96-14.33,28.29-22.66
		c-4.8-1.58-29.98-40.67-36.97-51.63l1.47-0.21c0,0,10.56-0.83,13.13-8.88C240.768,79.169,252.978,111.22,253.388,112.299z"/>
	<path fill="#EED95F" d="M181.647,148.75l0.34-0.39c0.17,0.13,0.351,0.26,0.53,0.39c1.27,0.87,4.11,1.81,5.62,1h0.16
		c-0.561,19.53-1.21,35.65-1.9,39.5c-2,11.25-2.75,14-2.75,14s11.39-0.36,18.11-2.42l2.81,0.11c-0.1,12.48-2.25,46.34-2.65,77.619
		c0.141,20.721,1.221,37.74,3.011,52.441h-0.03c-51,21.5-91.5-5-91.5-5l-0.49-0.111c3.48-15.568,5.771-31.479,6.17-47.459
		c1.32-30.8,0.95-69.71,1.57-83.85l0.58-0.37c6,9.73,15.42,14.54,15.42,14.54l-0.5-13.75c4.25,10.25,9.91,14,9.91,14
		c-4.41-12.62-6.83-36.17-8.13-60.9l0.189-0.01c1.94-0.07,3.601-0.52,5.011-1.24l0.02,0.03
		C143.147,146.879,160.567,167.669,181.647,148.75z"/>
	<path fill="#5D9B99" d="M86.147,592.189c-6.5,2.07-14.8,2.18-24.31,1.811c-6.591-0.25-12.471-0.48-17.551-2.281
		c-0.649-0.219-1.279-0.469-1.89-0.76c-5.42-2.459-9.83-7.1-13.12-16.1c-6.62-18.15-10.88-24.359-6.83-30.18
		c23.05-21.32,45.46-93.391,61.45-132.529c10.62-26,22.13-55.471,29.01-86.262l0.49,0.111c0,0,40.5,26.5,91.5,5h0.03
		c4.399,35.969,13.109,58.039,22.89,86.42c13.78,39.969,27.83,84.08,53.139,133.18c-0.279-0.311-1.658,5.52-8.01,23.709
		c-0.76,2.172-1.59,4.512-2.49,7.041c-1.529,4.279-3.129,7.551-4.789,10.029c-7.56,11.25-16.62,6.17-28.71,5.971
		c-0.939-0.02-1.81-0.01-2.64,0.01c-12.229,0.35-13.47,4.23-26.11-10.76c-6.56-10.35-2.199-17.711-2.199-17.711
		s1.979-12.58-5.2-47.479c-7.19-34.91-16.351-57.061-29.351-110.811c-10.81-34.6-13.81-44.221-13.81-44.221
		s-7.09,22.781-16.41,50.781s-38.03,114.09-40.09,133.59c-1.22,13.779,1.76,18.25,1.76,18.25s-1.01,10.5-7.76,17.75
		C92.758,589.32,89.728,591.049,86.147,592.189z"/>
</g>
<g>
	<path id="aaa" fill="none" stroke="#000000" stroke-width="1.5" stroke-linecap="round" stroke-linejoin="round" d="
		M190.314,61.334c0,0,4.748-1.332,8.958-7.791"/>
	<path id="a" fill="none" stroke="#000000" stroke-width="3" stroke-linecap="round" stroke-linejoin="round" d="M190.197,62.086
		c-2.466,0.814-5.552,1.223-9.3,0.664c-11.75-1.75-14.625-24.875-14.625-24.875s-6.25,11.5-14.25,16.25s-15.25,5.375-15.25,5.375"/>
	<path id="b" fill="none" stroke="#000000" stroke-width="1.5" stroke-linecap="round" stroke-linejoin="round" d="M135.959,58.812
		c0,0-1.584,0.544-4.812-0.312c-0.057-0.015-0.113-0.03-0.169-0.046"/>
	<path id="c" fill="none" stroke="#000000" stroke-width="3" stroke-linecap="round" stroke-linejoin="round" d="M136.772,59.5
		c0,0-2.713,115.167,9.286,149.5c0,0-5.661-3.75-9.911-14l0.5,13.75c0,0-15.668-8-19.459-24.25s-8.125-49.167-4.625-91.334"/>
	<path id="d" fill="none" stroke="#000000" stroke-width="3" stroke-linecap="round" stroke-linejoin="round" d="M190.147,62.25
		c0,0-1.75,115.75-3.75,127s-2.75,14-2.75,14s16-0.5,21.25-3.75s5.5-57,5.25-83.75c0,0,6.25,26.5,4,51.25c0,0,8.5-11.75,2.5-52.5
		s-9-48.25-9-48.25"/>
	<path fill="none" stroke="#000000" stroke-width="3" stroke-linecap="round" stroke-linejoin="round" stroke-miterlimit="10" d="
		M136.484,103.837c0.983,5.246,3.341,14.596,9.064,21.459c3.559,4.25,6.67,7.391,9.4,9.6c3.559,2.86,6.488,4.141,8.939,4.24
		c3.01,0.109,9.1-4.779,14.26-10.4c2.25-2.459,4.33-5.06,5.9-7.439c2.585-3.915,4.005-7.026,5.267-9.88"/>
	<path id="e" fill="none" stroke="#000000" stroke-width="3" stroke-linecap="round" stroke-linejoin="round" d="M176.23,131.249
		c0,0-0.702,12.651,6.292,17.501c1.262,0.875,4.104,1.812,5.614,1"/>
	
		<line id="f" fill="none" stroke="#000000" stroke-width="3" stroke-linecap="round" stroke-linejoin="round" x1="210.419" y1="146.333" x2="213.931" y2="144.666"/>
	<path id="g" fill="none" stroke="#000000" stroke-width="3" stroke-linecap="round" stroke-linejoin="round" d="M218.94,141.998
		c6.953-5,16.953-14.333,28.289-22.662c-5.582-1.836-38.77-54.462-38.77-54.462c-2.703,0.271-5.812-1.624-8.062-9.207
		S196.959,40,197.647,36.25c0.125,0-2.652,0.18-2.652,0.18l-2.723,4.566l-1.875-2.66c0,0-3.793-4.75-3.668-7.5
		c0.125-1.875,2.74-3.076,2.74-3.076s-0.241-1.258-0.239-2.259c0.333-2.664,7.334-3.834,7.334-3.834l-1.25-3.334
		c0,0,2.664-0.477,8.353-0.666s7.418-0.292,8.918,0.583s2.625,6.062,3.25,14.812s2.395,16.709,5.041,20.562"/>
	<path id="h" fill="none" stroke="#000000" stroke-width="3" stroke-linecap="round" stroke-linejoin="round" d="M215.877,32.979
		c0,0,17.354,19.354,26.02,36.521s11.5,42.834,11.5,42.834s-14.499-38.502-32.667-58.667"/>
	<path fill="none" stroke="#000000" stroke-width="3" stroke-linecap="round" stroke-linejoin="round" d="M208.474,188
		c0.753-8.336,42.088-31.666,63.254-63.668c2.244-6.813-3.832-14.997-9.166-22.332s-12.423-16.908-16.21-22.288"/>
	
		<path id="i" fill="none" stroke="#000000" stroke-width="1.5" stroke-linecap="round" stroke-linejoin="round" stroke-miterlimit="10" d="
		M211.731,67.498c0,0,10.667-0.834,13.167-9"/>
	
		<line id="j" fill="none" stroke="#000000" stroke-width="1.5" stroke-linecap="round" stroke-linejoin="round" x1="209.147" y1="64.125" x2="213.147" y2="62.625"/>
	<path id="k" fill="none" stroke="#000000" stroke-width="1.5" stroke-linecap="round" stroke-linejoin="round" d="M180.518,43.373
		c7.29,3.71,13.896,0.359,14.399-7.059"/>
	<path fill="none" stroke="#000000" stroke-width="1.5" stroke-linecap="round" stroke-linejoin="round" d="M194.772,36.456
		c0,0-0.042-1.708-0.792-2.583c0,0,2.667,2.314,4.958-0.875c0,0-0.291,1.877-0.604,3.564"/>
	<path id="l_1_" fill="none" stroke="#000000" stroke-width="1.5" stroke-linecap="round" stroke-linejoin="round" d="
		M194.959,22.834c0,0,6.27-1.459,10.77-2.459c0,0,2.332-2.54,5.166-2.373"/>
	<path id="l" fill="none" stroke="#000000" stroke-width="1.5" stroke-linecap="round" stroke-linejoin="round" d="M189.709,28.438
		c3.375-1.531,14.641-3.188,15.312-4.328"/>
	<path id="m" fill="none" stroke="#000000" stroke-width="1.5" stroke-linecap="round" stroke-linejoin="round" d="M185.916,16.332
		c3.143-0.524,7.627,1.037,8.814,2.662"/>
	<path fill="none" stroke="#000000" stroke-width="3" stroke-linecap="round" stroke-linejoin="round" d="M200.147,17.625
		C188.48,6.25,179.397,12,179.397,12c-3.062,2.062-10.496,14.688-10.496,14.688s-2.285-1.969-5.785-4.969
		s-28.531,8.594-28.531,8.594"/>
	<path id="n" fill="none" stroke="#000000" stroke-width="1.5" stroke-linecap="round" stroke-linejoin="round" d="M143.147,146.875
		c0,0,17.416,20.792,38.5,1.875"/>
	<path id="o" fill="none" stroke="#000000" stroke-width="3" stroke-linecap="round" stroke-linejoin="round" d="M151.217,131.496
		c-0.277,4.307-2.476,16.224-13.101,16.599"/>
	<path id="p" fill="none" stroke="#000000" stroke-width="3" stroke-linecap="round" stroke-linejoin="round" d="M111.062,146.434
		c-15.644-5.43-37.16-18.769-40.911-18.02"/>
	<path id="q" fill="none" stroke="#000000" stroke-width="3" stroke-linecap="round" stroke-linejoin="round" d="M66.397,128.414
		c5.5,0.42,10.836-1.417,26.503-20.417s24.394-32.269,24.394-32.269s1.229-1.604,2.771-2.564c2.74-2.517,6.14-14.053,6.456-18.534
		s0.209-10.041,0.209-10.041l5.583,1.786c0,0,0.209,1.188,0.209,1.688c1.125,0.812,4.523,1.461,4.523,1.461
		s3.914-8.461-0.586-10.523c0,0,1.25-2.062,2.25-4.312l-3.713-1.369c0,0-3.787-6.506-6.443-7.037s-9.594,2.594-11.781,3.219
		s-6.375-3.333-7.583,7.251c-0.792,14.916-1.667,28.249-3.229,30.687c-3.125,2.625-39.812,33.31-47.479,41.479
		S43.897,127.5,44.897,133c4.739,11.151,51.838,38.569,71.68,51.168"/>
	<path id="r" fill="none" stroke="#000000" stroke-width="3" stroke-linecap="round" stroke-linejoin="round" d="M99.397,141.67
		c1-24.667,6.999-38.959,13-48.295"/>
	<path id="s" fill="none" stroke="#000000" stroke-width="3" stroke-linecap="round" stroke-linejoin="round" d="M98.23,101.668
		c0,0-5.833,9.838-2.667,37.836"/>
	
		<path id="t" fill="none" stroke="#000000" stroke-width="1.5" stroke-linecap="round" stroke-linejoin="round" stroke-miterlimit="10" d="
		M104.564,69.332c0,0,2.333,7.833,11.833,7.833"/>
	<path id="u" fill="none" stroke="#000000" stroke-width="1.5" stroke-linecap="round" stroke-linejoin="round" d="M132.522,48.938
		c5,2.938,12,0.438,17.25-5.062"/>
	<path id="v" fill="none" stroke="#000000" stroke-width="1.5" stroke-linecap="round" stroke-linejoin="round" d="M119.144,34.378
		c3.125-1.329,6.086,0.955,8.753,1.872s8.125,3.312,8.125,3.312"/>
	<path id="x" fill="none" stroke="#000000" stroke-width="1.5" stroke-linecap="round" stroke-linejoin="round" d="M143.454,31.8
		c-1.979,0.922-3.309,2.084-3.895,3.011"/>
	<path id="y" fill="none" stroke="#000000" stroke-width="1.5" stroke-linecap="round" stroke-linejoin="round" d="M117.064,30.438
		c4.5,1.062,12.291,1.312,21.146,4.812"/>
	
		<path id="z" fill="none" stroke="#000000" stroke-width="1.5" stroke-linecap="round" stroke-linejoin="round" stroke-miterlimit="10" d="
		M142.104,61.666c7.126-1.959,10.563-3.729,13.939-5.062c3.625-0.125,5.336,5.574,5.178,9.562s-0.611,8.133-2.59,11.633
		c-1.99,3.5-9.16,8.21-9.25,9.54c-0.08,1.34,4.324,8.085,10.754,9.275c0,0,0.795,1.765,2.336,1.225
		c1.5-0.83,2.365-4.918,4.426-5.018c2.07-0.1,3.295,2.478,3.125,3.308c-0.16,0.84,1.17,0.34,2.5-0.16
		c1.34-0.5,2.619-4.089,0.289-6.429c0,0,4.461-0.039,5.586,3.836"/>
	
		<path id="_x31_" fill="none" stroke="#000000" stroke-width="1.5" stroke-linecap="round" stroke-linejoin="round" stroke-miterlimit="10" d="
		M154.147,93.678c-2.625,0.197-0.328,2.275-2.227,2.549s-4.773-2.977-1.195-5.773"/>
	
		<path id="_x32_" fill="none" stroke="#000000" stroke-width="1.5" stroke-linecap="round" stroke-linejoin="round" stroke-miterlimit="10" d="
		M168.522,58.997c0,0,1.871-3.833,4.75-1.872"/>
	
		<path id="_x33_" fill="none" stroke="#000000" stroke-width="1.5" stroke-linecap="round" stroke-linejoin="round" stroke-miterlimit="10" d="
		M142.502,71.01c0,0,2.918-4.786,6.662-4.575c3.743,0.21,6.415,3.558,6.415,3.558S150.754,80.111,142.502,71.01z"/>
	
		<path id="_x34_" fill="none" stroke="#000000" stroke-width="3" stroke-linecap="round" stroke-linejoin="round" stroke-miterlimit="10" d="
		M149.304,70.265c1.373,0.077,1.636,2.096-0.104,1.872C147.459,71.914,149.304,70.265,149.304,70.265z"/>
	
		<path id="_x35_" fill="none" stroke="#000000" stroke-width="1.5" stroke-linecap="round" stroke-linejoin="round" stroke-miterlimit="10" d="
		M168.731,70.334c0,0,2.5-5.12,6.25-5.245s5.5,2.62,6.75,4.37c0,0-3.375,4.25-6.25,4.5S168.731,70.334,168.731,70.334z"/>
	
		<path id="_x36_" fill="none" stroke="#000000" stroke-width="3" stroke-linecap="round" stroke-linejoin="round" stroke-miterlimit="10" d="
		M174.606,69.584c1.625-0.125,2,1.625,0.375,1.75S174.606,69.584,174.606,69.584z"/>
	
		<path id="_x37_" fill="none" stroke="#000000" stroke-width="1.5" stroke-linecap="round" stroke-linejoin="round" stroke-miterlimit="10" d="
		M180.395,106.622c-1.078-2.488-2.501-4.411-4.282-5.232s-3.881,0.849-11.047,1.235s-7.793-1.32-11.542-0.693
		c-4.822,1.037-4.104,8.022-4.104,8.022s0.604-2.37,11.999-2.786s13.84,5.708,16.944,4.367
		C181.468,110.193,180.792,107.543,180.395,106.622z"/>
	
		<path id="_x38_" fill="none" stroke="#000000" stroke-width="1.5" stroke-linecap="round" stroke-linejoin="round" stroke-miterlimit="10" d="
		M179.347,104.761c-1.807,2.323-15.037-0.285-26.597,0.331c-0.102,0.033-2.635,0.025-2.635,0.025"/>
	
		<path id="_x39_" fill="none" stroke="#000000" stroke-width="1.5" stroke-linecap="round" stroke-linejoin="round" stroke-miterlimit="10" d="
		M180.649,107.25c0,0-2.583,1.417-4.083,1.667s-4,0.417-4,0.417"/>
	
		<path id="_x31_0" fill="none" stroke="#000000" stroke-width="1.5" stroke-linecap="round" stroke-linejoin="round" stroke-miterlimit="10" d="
		M162.733,111.834c0,0-5.667-1.499-7,0.834"/>
	<path id="_x31_1" fill="none" stroke="#000000" stroke-width="3" stroke-linecap="round" stroke-linejoin="round" d="
		M120.647,194.584c-0.616,14.137-0.246,53.047-1.567,83.842C117.897,326,99.882,372.997,83.897,412.147
		c-15.986,39.14-38.399,111.212-61.45,132.532c-4.05,5.82,0.21,12.035,6.83,30.178S47.092,593.428,61.833,594
		c14.741,0.571,26.571-0.008,33.317-7.254S102.903,569,102.903,569s-2.974-4.468-1.756-18.25c2.064-19.5,30.77-105.59,40.09-133.59
		s16.41-50.775,16.41-50.775s3,9.615,13.811,44.212c13,53.75,22.155,75.905,29.345,110.809s5.202,47.487,5.202,47.487
		s-4.357,7.357,2.203,17.704c13.5,16,14,10.5,28.75,10.75s25,7.75,33.5-16s10.189-31.097,10.5-30.75
		c-25.311-49.097-39.362-93.209-53.142-133.179c-13.779-39.979-25.418-67.418-25.898-138.861
		c0.401-31.275,2.546-65.135,2.646-77.619"/>
	<path id="_x31_2" fill="none" stroke="#000000" stroke-width="1.5" stroke-linecap="round" stroke-linejoin="round" d="
		M113.397,326c0,0,40.5,26.5,91.5,5"/>
	<path id="_x31_3" fill="none" stroke="#000000" stroke-width="3" stroke-linecap="round" stroke-linejoin="round" d="
		M86.334,592.75c0,0,0.854,4.5,5.208,8.375s5.858,5.879,5.858,5.879s1.408,1.34-1.829,5.155s-8.461-0.034-8.461-0.034
		s-2.021,2.066-3.728,2.156c-1.706,0.089-4.53-1.597-4.53-1.597s-2.462,1.237-4.14,0.999c-1.677-0.236-3.933-1.831-3.933-1.831
		s-0.976,1.577-3.831,1.443c-2.856-0.133-4.487-2.403-4.487-2.403s-1.508,0.687-2.883,0.927s-2.572,0.102-6.558-2.194
		c-3.986-2.294-7.562-7.625-8.938-17.375"/>
	<path id="_x31_4" fill="none" stroke="#000000" stroke-width="3" stroke-linecap="round" stroke-linejoin="round" d="
		M97.642,610.834l2.286,1.693l-1.296,5.114c0,0-9.11,2.608-19.423,2.483s-21.494-2.169-25.369-4.057S48.522,614,46.272,609.5
		s-4.5-14.375-4.125-18"/>
	<path id="_x31_5" fill="none" stroke="#000000" stroke-width="1.5" stroke-linecap="round" stroke-linejoin="round" d="
		M88.313,597.793c-5.731-3.461-13.444-2.224-20.196-2.118c-6.751,0.103-17.589,0.835-22.04,5.7"/>
	<path id="_x31_6" fill="none" stroke="#000000" stroke-width="1.5" stroke-linecap="round" stroke-linejoin="round" d="
		M212.58,538.228c-0.652,14.715-6.075,29.938-6.075,29.938"/>
	<path id="_x31_7" fill="none" stroke="#000000" stroke-width="3" stroke-linecap="round" stroke-linejoin="round" d="
		M234.338,598.495l-2.511,4.601l-3.28,2.16c0,0-1.72,6,4.641,6.67c6.359,0.67,7.39-2.17,7.39-2.17s0.64,2.21,2.97,2.27
		c2.33,0.07,4-2.43,4-2.43s1.141,2.5,3.98,2.399c2.83-0.1,3.35-2.26,3.35-2.26s0.961,2.84,3.62,2.57
		c2.67-0.28,3.72-2.391,3.72-2.391s3.121,0.995,4.65,0.04s2.154-3.199,2.154-3.199s2.436-3.12,3.686-11.33
		c0,0,1.301-8.975,0.87-12.95s-0.42-8.101-0.42-8.101"/>
	<path id="_x31_8" fill="none" stroke="#000000" stroke-width="3" stroke-linecap="round" stroke-linejoin="round" d="
		M273.778,586.346c0.49,4.05,1.736,12.48,1.74,15.63s-0.125,8.43-2.311,10.899s-5.436,5.875-22.56,6.101
		c-20.88,0.56-22.493-1.153-24.32-5.726c-1.121-2.806,0.681-4.649,1.5-4.75"/>
	<path id="_x31_9" fill="none" stroke="#000000" stroke-width="1.5" stroke-linecap="round" stroke-linejoin="round" d="
		M266.107,591.665c0,0,6.061,1.08,6.931,5.08"/>
</g>
</svg>
