<?xml version="1.0" encoding="utf-8"?>
<!-- Generator: Adobe Illustrator 16.0.0, SVG Export Plug-In . SVG Version: 6.00 Build 0)  -->
<!DOCTYPE svg PUBLIC "-//W3C//DTD SVG 1.1//EN" "http://www.w3.org/Graphics/SVG/1.1/DTD/svg11.dtd">
<svg version="1.1" id="Layer_1" xmlns="http://www.w3.org/2000/svg" xmlns:xlink="http://www.w3.org/1999/xlink" x="0px" y="0px"
	 width="278.667px" height="346.667px" viewBox="0 0 278.667 346.667" enable-background="new 0 0 278.667 346.667"
	 xml:space="preserve">
<g>
	<g id="XMLID_1_">
		<path fill="#5D9B99" d="M153.357,278.14c-1.021-1.141-2.199-2.189-3.432-2.631c0.021-0.059,0.031-0.09,0.031-0.09
			s6.539-3.75,16.539-5.92s18.461-4.689,18.461-4.689l-2.83-0.82l-0.851-2.32l-3.479-2.979l-0.41-0.361
			c-9.45-0.5-19.051-2.959-19.051-2.959c-0.949-0.229-1.879-0.451-2.789-0.649l0.109-0.479c11.77-4.511,24.711-6.88,28.66-7.109
			c0.92-0.051,1.42-0.062,1.42-0.062s19.489,6.431,30.27,11.771c0.011,0,28.33,10.33,35.08,16.58s10.67,13.031,10.67,13.031
			s12.471,5.67,7.721,19.17s-14.641,12-23.568,17.75c0,0-17.111,10.51-26.432,11c-9.35,0.49-15.46-1.25-17.189-3.812
			c-0.029-0.117-0.07-0.238-0.129-0.357c2.739-0.451,5.35-1.684,7.76-3.57c5.299-4.141,7.529-7.689,8.93-14.461
			c1.4-6.779-3.83-12.43-12.529-14.65c-8.699-2.219-14.699-1.559-24.051-1.67c-9.34-0.109-8.5-9.738-21.71-8.129
			c-1.358-2.91-2.92-5.74-4.67-8.26C155.306,280.621,154.417,279.33,153.357,278.14z"/>
		<path d="M177.085,300.339c-5.85-1.979-6.239-7.93-14.799-8.34l-0.611,0.26c-0.35-0.85-0.719-1.699-1.119-2.539
			c13.21-1.609,12.369,8.02,21.71,8.129c9.351,0.111,15.351-0.549,24.051,1.67c8.699,2.221,13.931,7.871,12.529,14.65
			c-1.399,6.771-3.63,10.32-8.931,14.461c-2.41,1.889-5.02,3.119-7.76,3.57c-0.24-0.521-0.681-0.951-1.311-1.312
			c0.23-0.01,0.431-0.027,0.59-0.061c1.73-0.33,2.961-2.23,2.961-2.23s1.88,0.053,2.76,0.014c0.891-0.041,1.311-3.143,1.311-3.143
			s1.58-0.721,2.279-1.541c0.711-0.809,0.25-2.607,0.25-2.607s1.91-1.57,2.9-2.73c0.988-1.16,0.311-3.24,0.311-3.24
			s3.959-2.5,2.459-5.93s-4.949-4.729-7.959-4.77c-3.011-0.039-3.201,0.697-6.73-1.779c-3.529-2.471-2.96-2.16-7.061-2.551
			c-1.899-0.189-4.42,0.229-7.189,0.541c-3.221,0.367-6.779,0.6-10.17-0.371C177.397,300.441,177.237,300.39,177.085,300.339z"/>
		<path fill="#BB9881" d="M200.846,330.89c-2.13,0.051-6.63-0.881-6.63-0.881s-3.43-0.879-8.49-2.189
			c-0.689-0.23-1.369-0.439-2.02-0.641c-1.19-2.609-1.771-6.049-1.531-14.16c0.271-9.139,5.611-11.639,5.611-11.639l-0.062-0.52
			c2.771-0.312,5.29-0.73,7.19-0.541c4.1,0.391,3.529,0.08,7.06,2.551c3.53,2.479,3.721,1.74,6.729,1.779
			c3.01,0.041,6.461,1.34,7.961,4.77s-2.461,5.93-2.461,5.93s0.68,2.08-0.31,3.24c-0.99,1.16-2.899,2.73-2.899,2.73
			s0.459,1.801-0.25,2.607c-0.701,0.82-2.281,1.541-2.281,1.541s-0.42,3.102-1.31,3.143c-0.88,0.039-2.76-0.014-2.76-0.014
			s-1.229,1.9-2.961,2.23C201.277,330.861,201.078,330.88,200.846,330.89z"/>
		<path fill="#EED95F" d="M181.085,241.31c1.681,0.93,3.44,2.359,4.65,5.76c0,0-0.5,0.01-1.42,0.061
			c-3.949,0.23-16.891,2.601-28.66,7.109l-0.109,0.48c-17.96-4.141-27.149-4.17-33.8-2.641c0,0-9.29,1.59-15.16,5.711l-1.81,0.358
			c-2.391-1.438-4.011-2.881-4.011-2.881c-4.81-0.789-9.81-4.828-12.56-4.688c-0.42-0.15-0.92-0.82-1.47-1.879
			c-0.12-0.24-0.25-0.5-0.38-0.771l0.22-0.139c0,0,0-0.67,1.13-2.291c1.12-1.619,3.96-2.17,4.53-3.41
			c0.47-1.021,0.21-28.398,0.1-38.42l0.17-0.25c3.2,2.281,7.57,3.5,7.57,3.5l0.74-11.601c0,0,3.989,10.149,10.18,12.341
			c6.189,2.18,16.83-1.771,16.83-1.771s-2.41-6.392-3.16-13.681c-0.75-7.301-2-33.209-2.62-46.831c-0.08-1.68-0.21-4.31-0.38-7.62
			c6.43,3.75,23.86,11.92,27.49-5.72c1.8,0.42,4.101,0.67,5.609,0.94c0,0,2.78,0.16,6.181,0.66c3.54,0.51,7.75,1.38,10.16,2.78
			c4.721,2.74,11.09,5.8,16.869,26.28c0.061-5.55-0.04-11.57-0.52-18.271l0.129-0.01c0,0,7.631,3.85,15.57-1.55
			c5.961,31.15,8.689,42.99,9.891,61.68c0.17,7.459-4.621,25.539-13.83,24.75c-9.211-0.791-19.891-18.68-25.01-40.131l-0.381,0.011
			c0.461,10.95,1.77,41.909,2.25,46.909c0.34,3.561,2.57,3.891,4.961,5.19C181.056,241.291,181.078,241.3,181.085,241.31z"/>
		<path fill="#BB9881" d="M189.408,122.35c0.059-0.15,0.129-0.29,0.188-0.42c0.479-0.97,0.92-1.9,1.329-2.56l0.041-0.04l2.24,2.16
			l5.399,2.84l-2-4.88l0.399-0.17c0.899-1.15,2.459-2.5,4.16-3.81c1.709-1.3,4.18-0.33,5.56,1.83l0.86-0.05
			c0.91,1.83,1.379,4.89,0.899,7.85c-0.351,2.13-2.319,6.05-4.181,9.5c-0.54,1-1.069,1.96-1.62,2.82l-0.409-0.15
			c-0.529,0.55-1,1.01-1.4,1.4l1.49,0.03c0.27,1.43,0.54,2.82,0.79,4.17c-7.94,5.4-15.569,1.55-15.569,1.55l-0.131,0.01
			c-0.08-0.99-0.16-1.99-0.25-3.01c0,0-2.959-1.36-5.619-5.77c-2.66-4.4-3.26-8.64-3.211-14.86c0.051-6.22-2.359-9.4-2.119-11.07
			c0.189-1.38,0.891-1.97,1.129-2.12l0.031,0.05c0.68-0.61,2.489,0.38,4.119,2.26c0.479,0.55,0.86,1.04,1.18,1.48
			c1.33,1.9,1.341,3.04,1.051,4.66c0.119,1.25,1.17,2.52,1.17,2.52s0.439,0.17,1.051,0.5c1.08,0.59,2.71,1.69,3.41,3.27
			L189.408,122.35z"/>
		<path fill="#BB9881" d="M197.037,110.77c1.51-1.04,3.09-2.08,3.09-2.08l0.891-0.73c0,0,3.689,0.65,4.359,2.97
			c0.66,2.32,1.301,3.43,1.471,5.22c0.271,0.28,0.521,0.65,0.74,1.1l-0.86,0.05c-1.38-2.16-3.851-3.13-5.56-1.83
			c-1.701,1.31-3.26,2.66-4.16,3.81l-0.399,0.17l-0.142-0.34l-6.129-6.05l-0.051-0.13l5.09-1.89l1.601-0.36L197.037,110.77z"/>
		<path d="M200.846,330.89c0.63,0.359,1.069,0.789,1.312,1.311c-3.261,0.539-6.722-0.01-10.301-1.861c-1.932-1-4.07-1.83-6.131-2.52
			c5.061,1.311,8.49,2.189,8.49,2.189S198.716,330.941,200.846,330.89z"/>
		<path fill="#BB9881" d="M201.016,107.96l-0.89,0.73c0,0-1.58,1.04-3.09,2.08l-0.062-0.09l-1.601,0.36l-5.09,1.89l-0.18,0.07
			c0,0-2.602,0.39-4.23-1.24c-1.069-1-1-2.07-1-2.07l0.11-0.23l0.761-1.57l8.949-2.84l0.739,0.03c0,0,2.79-0.16,4.051,0.79
			C200.748,106.82,201.016,107.96,201.016,107.96z"/>
		<path fill="#F29100" d="M163.936,92.92l-6.05-6.27c0,0,0.029-0.28,0.17-0.64c0-0.02,0.011-0.03,0.021-0.05
			c0.25-0.47,0.569-0.85,0.92-1.26c0.01-0.02,0.029-0.03,0.049-0.05c0.041-0.03,0.091-0.06,0.141-0.09
			c1.12-0.64,1.83-0.18,1.83-0.18l4.07,4.1l0.709,0.72l0.83-0.24l15.051,14.97l-0.49,0.65c-0.63,1.15,0.25,3.12,0.25,3.12
			c1.609,1.81,3.211,1.6,3.211,1.6l0.34,0.16l-0.109,0.23c0,0-0.07,1.07,1,2.07c1.629,1.63,4.229,1.24,4.229,1.24l0.181-0.07
			l0.049,0.13l6.131,6.05l0.141,0.34l2,4.88l-5.4-2.84l-2.239-2.16l-2.761-2.66l-5.489-5.28c-0.319-0.44-0.7-0.93-1.181-1.48
			c-1.629-1.88-3.439-2.87-4.119-2.26l-0.03-0.05c0.05-0.04,0.08-0.06,0.08-0.06l-13.229-13.2l-1.13-0.56
			c0.029-0.04,0.04-0.07,0.06-0.11L163.936,92.92z"/>
		<path fill="#BB9881" d="M194.697,105.05l-8.949,2.84l-0.761,1.57l-0.34-0.16c0,0-1.601,0.21-3.211-1.6c0,0-0.88-1.97-0.25-3.12
			l0.489-0.65l5.83-0.97l5.642,2.03L194.697,105.05z"/>
		<path fill="#BB9881" d="M190.966,119.33l-0.041,0.04c-0.409,0.66-0.85,1.59-1.329,2.56c-0.06,0.13-0.13,0.27-0.188,0.42
			l-0.011-0.01c-0.7-1.58-2.33-2.68-3.41-3.27l0.05-0.09c1.541-0.6,2.01-2.14,2.01-2.14l0.16-0.17L190.966,119.33z"/>
		<path d="M187.726,300.861l0.061,0.52c0,0-5.34,2.5-5.609,11.639c-0.24,8.111,0.34,11.553,1.529,14.16
			c-3.869-1.139-7.069-1.729-7.459-1.799c-0.031-0.01-0.041-0.01-0.041-0.01c-0.66-0.17-1.33-0.34-2-0.51l0.021-0.08
			c0,0-2.021-6.182-0.88-14.07c0.91-6.361,2.98-9.43,3.74-10.371c0.149,0.051,0.311,0.104,0.47,0.15
			C180.947,301.46,184.505,301.23,187.726,300.861z"/>
		<path fill="#F9F1D7" d="M149.925,275.509c-0.129,0.291-0.6,1.211-1.568,1.602l-0.521-1.191c-0.14-0.239-0.299-0.469-0.469-0.68
			l1.219-0.07c0,0,1.431-5.938,9.25-7.25c7.812-1.319,15.25-4.75,16.75-6s2.371-2.25,2.371-2.25l0.84-0.979l3.479,2.979l0.851,2.32
			l2.83,0.82c0,0-8.461,2.52-18.461,4.689c-10,2.168-16.539,5.92-16.539,5.92S149.947,275.451,149.925,275.509z"/>
		<path fill="#F9F1D7" d="M145.546,273.849c-0.051-0.02-0.101-0.039-0.149-0.059c-13.41-5.871-36.19-13.75-36.19-13.75l-0.13,0.229
			c-0.19-0.119-0.4-0.219-0.63-0.309c-1.33-0.51-2.58-1.16-3.67-1.812l1.81-0.358c5.87-4.121,15.16-5.711,15.16-5.711
			c6.65-1.529,15.84-1.5,33.799,2.641c0.91,0.199,1.841,0.42,2.791,0.65c0,0,9.6,2.459,19.05,2.959l0.409,0.36l-0.84,0.979
			c0,0-0.869,1-2.369,2.25s-8.939,4.68-16.75,6c-7.82,1.311-9.25,7.25-9.25,7.25l-1.221,0.07
			C146.876,274.63,146.255,274.179,145.546,273.849z"/>
		<path fill="#BB9881" d="M177.085,300.339c-0.76,0.941-2.83,4.01-3.739,10.371c-1.14,7.889,0.88,14.07,0.88,14.07l-0.02,0.08
			c-0.58-0.15-1.16-0.303-1.75-0.451c-11.301-2.9-17.851-5.562-21.601-2.939c0.729-0.859,1.521-1.811,2.358-2.85
			c6.5-8,14.182-10.16,10.511-21c-0.101-0.25-0.17-0.511-0.271-0.761c-0.529-1.521-1.119-3.062-1.779-4.603l0.609-0.26
			C170.846,292.41,171.237,298.361,177.085,300.339z"/>
		<path fill="#BB9881" d="M156.835,36.34c1.86,2.85,3,5.09,4.11,7.57c0.489,1.11,0.97,2.26,1.5,3.54l-1.431,0.23
			c-0.311-1.02-0.881-2.01-1.939-2.37c-2.5-0.85-6.42,0.61-6.93,5.03l-2.881,0.36c0.471,0.84,0.99,1.71,1.57,2.59
			c4.67,7.02,15.83,10.7,16.119,13.61l1.891-0.04c0.391,4.21,0.021,8.86-1.17,14.86c-0.54,2.09-1.221,4.24-1.979,6.15l-0.61,0.61
			l-4.069-4.1c0,0-0.71-0.46-1.83,0.18c-0.05,0.03-0.101,0.06-0.14,0.09c0.5-0.5,2.039-0.85,2.039-0.85l0.021-0.11
			c-1.721-0.37-3.98-1.34-7.529-0.94c-3.4,0.38-6.67,0.96-8.931,1.86c3.329-0.99,10.92,0.37,13.229,2.04l0.01-0.27
			c0.05-0.13,0.101-0.25,0.17-0.37c-0.141,0.36-0.17,0.64-0.17,0.64l6.05,6.27l-0.771,0.75c-0.02,0.04-0.029,0.07-0.06,0.11
			c-1.051,2.19-2.479,4.76-4.11,7.39c-4.699,7.57-11.09,15.53-15.16,15.66c-0.779,0.03-1.68-0.05-2.68-0.22
			c-6.08-1.03-15.601-5.56-20.431-11.58l-0.829,0.05c-1.32-23.92-2.73-49.06-2.73-49.06s1.54-7.6,11.64-19.81
			c0.9-1.09,1.74-2.15,2.54-3.18c4.54-5.93,7.36-10.92,8.96-14.17h0.011c0,0,8.681,6.4,14.39,14.36
			C155.516,34.35,156.216,35.38,156.835,36.34z M138.207,50.61c0.04-0.03,0.5-4.57-2.5-5.82c-3.66-1.38-7.71,1.04-10.12,5.13
			C129.667,49.75,137.497,50.29,138.207,50.61z"/>
		<path fill="#BB9881" d="M168.846,66.86l-1.89,0.04c-0.291-2.91-11.451-6.59-16.121-13.61c-0.58-0.88-1.1-1.75-1.569-2.59
			l2.881-0.36c4.851,0,6.021-0.09,9.21,0.2c0,0,0.079-1.46-0.341-2.86l1.431-0.23c0.711,1.7,1.5,3.61,2.529,5.91
			C167.117,58.16,168.436,62.26,168.846,66.86z"/>
		<path fill="#5D9B99" d="M153.357,278.14c1.061,1.189,1.949,2.48,2.529,3.32c1.75,2.52,3.311,5.35,4.67,8.26
			c0.4,0.84,0.771,1.689,1.119,2.539c0.66,1.541,1.25,3.08,1.781,4.602c0.1,0.25,0.17,0.51,0.27,0.76c3.671,10.84-4.01,13-10.51,21
			c-0.84,1.039-1.631,1.99-2.359,2.85c0,0.012-0.011,0.012-0.011,0.012c-0.319,0.381-0.63,0.75-0.931,1.1
			c-4.279,4.951-6.369,6.711-6.369,6.711s-24.5-1-46-1.33c-21.5-0.34-28.16,8.5-35.5,8.16c-7.33-0.33-18.16-5.5-35.16-14.16
			c-17-8.67-17.56-17.67-18.56-25.84c-1-8.16,6.939-12.15,6.939-12.15s20.57-14.721,32.07-20.471c7.11-3.56,15.37-6.351,22.62-8.58
			l1.1-0.459c1.29,1.938,2.11,3.08,2.11,3.08s0.11,0.43,0.34,1.219c0.3,1.01,0.79,2.621,1.48,4.66c1.22,3.621,2.6,4.621,2.6,4.621
			l0.21,0.299c-1.79,1.24-2.96,2.23-2.96,2.23l-1.84,4.76l38.5,20.17c13.34-16.34,32.959-18.799,35.29-18.289
			c0.631,0.139,1.149,0.07,1.57-0.1c0.971-0.392,1.439-1.312,1.568-1.603C151.158,275.951,152.335,277,153.357,278.14z"/>
		<path fill="#4C3122" d="M131.346,33.03c-0.8,1.03-1.64,2.09-2.54,3.18c-10.1,12.21-11.64,19.81-11.64,19.81s1.41,25.14,2.73,49.06
			c0.68,12.47,1.34,24.61,1.77,32.68c0.17,3.31,0.3,5.94,0.38,7.62c0.62,13.62,1.87,39.53,2.62,46.831
			c0.75,7.289,3.16,13.681,3.16,13.681s-10.641,3.948-16.83,1.771c-6.19-2.189-10.18-12.341-10.18-12.341l-0.74,11.601
			c0,0-4.37-1.219-7.57-3.5c-0.55-0.379-1.06-0.799-1.51-1.25c-0.82-1.049-1.41-8.949-1.75-20.5
			c-0.37-12.299-0.45-28.75-0.23-45.439c0.181-13.69,0.561-27.54,1.15-39.42c2-39.98,3.33-64.12,20.61-73.62
			c17.279-9.5,23.1-11.08,23.1-11.08s12.67-5.64,16,0.46c3.319,6.1,4.029,7.87,6.92,11.71c2.89,3.84,8.279,13.79,5.16,19.18
			l-1.011,0.45c-1.11-2.48-2.25-4.72-4.11-7.57c-0.619-0.96-1.319-1.99-2.129-3.12c-5.711-7.96-14.391-14.36-14.391-14.36h-0.011
			C138.707,22.11,135.886,27.1,131.346,33.03z M103.287,72.69l0.52-18c0,0-6.13,1.83-6.569,8.48
			C96.787,69.83,103.287,72.69,103.287,72.69z"/>
		<path d="M161.107,83.69l-0.021,0.11c0,0-1.539,0.35-2.039,0.85c-0.53,0.36-0.82,0.89-0.971,1.31c-0.01,0.02-0.021,0.03-0.021,0.05
			c-0.069,0.12-0.12,0.24-0.171,0.37l-0.01,0.27c-2.31-1.67-9.899-3.03-13.229-2.04c2.26-0.9,5.529-1.48,8.93-1.86
			C157.126,82.35,159.386,83.32,161.107,83.69z"/>
		<path fill="#4C3122" d="M149.158,132.04c-0.812-0.19-1.511-0.42-1.99-0.7c-5.08-2.98-5.75-9.77-6.021-14.15l0.011-0.58
			c1,0.17,1.898,0.25,2.68,0.22c4.07-0.13,10.459-8.09,15.16-15.66c0,0-1.041,18.13,1.959,32.37l-0.01,0.1
			c-3.4-0.5-6.181-0.66-6.181-0.66C153.255,132.71,150.957,132.46,149.158,132.04z"/>
		<path fill="#F9F1D7" d="M147.835,275.919l0.521,1.19c-0.421,0.171-0.939,0.238-1.57,0.101c-2.33-0.51-21.95,1.949-35.29,18.289
			l-38.5-20.17l1.84-4.761l35.75,19.722c0,0,7.37-7.371,14-11.121c5.53-3.129,15.6-7.58,20.811-5.379
			c0.05,0.02,0.1,0.039,0.148,0.059c0.711,0.33,1.33,0.781,1.82,1.391C147.537,275.451,147.697,275.679,147.835,275.919z"/>
		<path fill="#BB9881" d="M147.167,131.34c0.479,0.28,1.18,0.51,1.99,0.7c-3.631,17.64-21.062,9.47-27.491,5.72
			c-0.43-8.07-1.09-20.21-1.77-32.68l0.829-0.05c4.83,6.02,14.351,10.55,20.432,11.58l-0.011,0.58
			C141.417,121.57,142.085,128.36,147.167,131.34z"/>
		<path fill="#F9F1D7" d="M145.397,273.791c-5.211-2.201-15.28,2.25-20.811,5.379c-6.63,3.75-14,11.121-14,11.121l-35.75-19.721
			c0,0,1.17-0.99,2.96-2.23c0.851-0.59,1.84-1.239,2.91-1.868c0,0,6.19-4.74,15.44-5.052l0.069-0.209
			c1.53,0.539,4.45,1.601,7.88,2.959c4.801,1.9,8.221-2.08,4.98-3.899l0.13-0.229C109.207,260.041,131.987,267.919,145.397,273.791z
			"/>
		<path fill="#BB9881" d="M96.216,261.21l-0.069,0.209c-9.25,0.311-15.44,5.051-15.44,5.051c-1.07,0.629-2.06,1.279-2.91,1.869
			l-0.21-0.299c0,0-1.38-1-2.6-4.621c-0.69-2.039-1.181-3.65-1.48-4.66l0.83-0.09c0,0-0.13-8.629,11.5-9.629l0.9-0.34
			c0.55,1.059,1.05,1.729,1.47,1.879c2.75-0.14,7.75,3.899,12.56,4.688c0,0,1.62,1.44,4.011,2.881c1.09,0.649,2.34,1.302,3.67,1.812
			c0.229,0.09,0.439,0.188,0.63,0.309c3.24,1.82-0.18,5.801-4.98,3.9C100.667,262.81,97.747,261.75,96.216,261.21z"/>
		<path fill="#BB9881" d="M103.806,54.69l-0.52,18c0,0-6.5-2.86-6.05-9.52C97.676,56.52,103.806,54.69,103.806,54.69z"/>
		<path fill="#EED95F" d="M89.247,181.669l-0.33,0.011c-9,19.86-12.81,32.8-12.93,36.489c1.96,2.951,7,22.531,10.37,29.76
			c0.13,0.271,0.26,0.531,0.38,0.771l-0.9,0.34c-11.63,1-11.5,9.629-11.5,9.629l-0.83,0.09c-0.229-0.789-0.34-1.219-0.34-1.219
			s-0.82-1.142-2.11-3.08c-4.229-6.351-13.47-21.291-15.47-33.16c-1.53-13.131,4.271-32.16,10.521-47.53
			c6.119-15.05,10.06-33.63,22.55-37.54h0.359C88.796,152.92,88.876,169.37,89.247,181.669z"/>
	</g>
	<path d="M157.433,46.874c0.471-0.22,0.891,0.37,0.29,0.62C156.013,47.863,157.433,46.874,157.433,46.874z"/>
	<path d="M133.753,46.753c0.46-0.22,0.88,0.36,0.28,0.61C132.324,47.744,133.753,46.753,133.753,46.753z"/>
	<path fill="#FFFFFF" d="M157.723,47.494c0.601-0.25,0.181-0.84-0.29-0.62C157.433,46.874,156.013,47.863,157.723,47.494z
		 M158.744,45.644c1.06,0.36,1.63,1.35,1.939,2.37c0.42,1.4,0.341,2.86,0.341,2.86c-3.19-0.29-4.36-0.2-9.21-0.2
		C152.324,46.253,156.244,44.793,158.744,45.644z"/>
	<path fill="#FFFFFF" d="M134.034,47.363c0.6-0.25,0.18-0.83-0.28-0.61C133.753,46.753,132.324,47.744,134.034,47.363z
		 M125.253,50.253c2.41-4.09,6.46-6.51,10.12-5.13c3,1.25,2.54,5.79,2.5,5.82C137.164,50.624,129.333,50.083,125.253,50.253z"/>
</g>
<g>
	<path id="_x31__1_" fill="none" stroke="#000000" stroke-width="3" stroke-linecap="round" stroke-linejoin="round" d="
		M139.979,19.191c0,0,8.687,6.402,14.392,14.366c5.7,7.953,6.17,10.93,10.271,20.136c4.104,9.207,5.191,15.808,2.697,28.362
		c-0.536,2.093-1.221,4.243-1.973,6.153"/>
	<path id="_x32__1_" fill="none" stroke="#000000" stroke-width="3" stroke-linecap="round" stroke-linejoin="round" d="M162.833,94
		c-4.084,8.5-13.834,22.983-19.334,23.167c-5.5,0.184-17.483-4.798-23.107-11.8"/>
	<path id="_x33__1_" fill="none" stroke="#000000" stroke-width="3" stroke-linecap="round" stroke-linejoin="round" d="
		M141.733,15.161c0,0-3.14,9.173-13.259,21.384c-10.099,12.212-11.641,19.806-11.641,19.806s4.248,75.734,4.875,89.357
		s1.875,39.54,2.625,46.833s3.164,13.685,3.164,13.685s-10.646,3.944-16.835,1.765c-6.189-2.182-10.178-12.334-10.178-12.334
		l-0.738,11.594c0,0-5.997-1.664-9.083-4.75c-2.412-3.07-2.83-65.372-0.832-105.352s3.331-64.12,20.614-73.622
		c17.283-9.502,23.098-11.083,23.098-11.083s12.675-5.635,16,0.465c3.324,6.099,4.027,7.87,6.918,11.706
		c2.891,3.835,8.283,13.787,5.166,19.179"/>
	<path id="_x34__1_" fill="none" stroke="#000000" stroke-width="1.5" stroke-linecap="round" stroke-linejoin="round" d="
		M157.603,37.021c-4.479-1.771-6.977,1.165-6.977,1.165"/>
	<path id="_x35__1_" fill="none" stroke="#000000" stroke-width="1.5" stroke-linecap="round" stroke-linejoin="round" d="
		M140.75,34.625c0,0-0.396-2.146-3.812-2.562s-7.43,2.111-7.43,2.111"/>
	<path id="_x34_.5_1_" fill="none" stroke="#000000" stroke-width="1.5" stroke-linecap="round" stroke-linejoin="round" d="
		M103.478,55.026l-0.523,17.993c0,0-6.5-2.86-6.056-9.511C97.342,56.849,103.478,55.026,103.478,55.026z"/>
	<path id="_x36__1_" fill="none" stroke="#000000" stroke-width="1.5" stroke-linecap="round" stroke-linejoin="round" d="
		M151.817,50.673c4.849,0,6.015-0.09,9.205,0.2c0,0,0.228-4.378-2.276-5.229C156.239,44.792,152.319,46.257,151.817,50.673z"/>
	
		<path id="_x39__3_" fill="none" stroke="#000000" stroke-width="4" stroke-linecap="round" stroke-linejoin="round" stroke-miterlimit="10" d="
		M157.437,46.874c0.465-0.216,0.882,0.367,0.288,0.618C156.011,47.864,157.437,46.874,157.437,46.874z"/>
	<path id="_x38__1_" fill="none" stroke="#000000" stroke-width="1.5" stroke-linecap="round" stroke-linejoin="round" d="
		M125.249,50.25c4.083-0.167,11.917,0.378,12.625,0.689c0.042-0.022,0.5-4.564-2.5-5.814
		C131.709,43.747,127.665,46.167,125.249,50.25z"/>
	
		<path id="_x39__2_" fill="none" stroke="#000000" stroke-width="4" stroke-linecap="round" stroke-linejoin="round" stroke-miterlimit="10" d="
		M133.749,46.749c0.465-0.216,0.882,0.367,0.288,0.618C132.324,47.739,133.749,46.749,133.749,46.749z"/>
	<path id="_x31_0_1_" fill="none" stroke="#000000" stroke-width="1.5" stroke-linecap="round" stroke-linejoin="round" d="
		M145.21,40.334c0,0,0.619,6.247,5.297,13.286c4.668,7.028,15.826,10.705,16.111,13.614c0.274,2.909-2.863,7.29-6.715,9.639
		c-3.85,2.34-8.486,2.904-8.104-1.306c0,0-0.764-0.603-2.477,0.509c-1.693,1.121-0.492,3.876-5.18,1.259
		c-3.301-2.117-3.6-4.936-0.242-6.79"/>
	<path id="_x31_1_1_" fill="none" stroke="#000000" stroke-width="1.5" stroke-linecap="round" stroke-linejoin="round" d="
		M142.578,85.839c2.041-1.438,6.233-2.252,10.67-2.755c4.438-0.503,6.86,1.144,8.729,1.082"/>
	<path id="_x31_2_1_" fill="none" stroke="#000000" stroke-width="1.5" stroke-linecap="round" stroke-linejoin="round" d="
		M144.191,84.976c3.271-1.048,11.014,0.315,13.354,2.008"/>
	
		<path id="_x31_3_1_" fill="none" stroke="#000000" stroke-width="3" stroke-linecap="round" stroke-linejoin="round" stroke-miterlimit="10" d="
		M140.811,117.523c0.276,4.377,0.946,11.175,6.026,14.148c1.531,0.899,5.41,1.253,7.6,1.644c0,0,11.617,0.685,16.34,3.435
		s11.119,5.823,16.909,26.438"/>
	<path id="_x31_4_1_" fill="none" stroke="#000000" stroke-width="3" stroke-linecap="round" stroke-linejoin="round" d="
		M190.25,211.083c-6.418-21.918-0.648-38.459-3.375-69.334c0,0-2.965-1.36-5.621-5.764c-2.655-4.403-3.265-8.644-3.213-14.862
		c0.053-6.219-2.358-9.395-2.121-11.066c0.238-1.672,1.213-2.181,1.213-2.181l-13.225-13.202"/>
	<path id="_x31_5_1_" fill="none" stroke="#000000" stroke-width="1.5" stroke-linecap="round" stroke-linejoin="round" d="
		M164.166,93.833l-6.609-6.849c0,0,0.173-1.443,1.298-2.089s1.832-0.186,1.832-0.186l4.778,4.824"/>
	<path id="_x31_6_1_" fill="none" stroke="#000000" stroke-width="3" stroke-linecap="round" stroke-linejoin="round" d="
		M166.292,89.289l15.055,14.973l5.822-0.971l5.643,2.028l2.293,0.095c0,0,2.792-0.164,4.053,0.789c1.26,0.953,1.524,2.09,1.524,2.09
		s3.694,0.652,4.356,2.973c0.662,2.321,1.305,3.428,1.474,5.213c1.37,1.454,2.239,5.275,1.639,8.956
		c-0.346,2.127-2.321,6.044-4.181,9.495c-0.717,1.333-1.432,2.6-2.178,3.657"/>
	
		<path id="_x31_7_1_" fill="none" stroke="#000000" stroke-width="1.5" stroke-linecap="round" stroke-linejoin="round" stroke-miterlimit="10" d="
		M198.767,140.688c0,0,1.038-0.916,3.175-3.085"/>
	<path id="_x31_8_1_" fill="none" stroke="#000000" stroke-width="3" stroke-linecap="round" stroke-linejoin="round" d="
		M202.035,139.036c6.512,34.305,9.428,46.346,10.678,65.846c0.168,7.459-4.623,25.541-13.832,24.75
		c-9.209-0.793-19.883-18.674-25.008-40.133"/>
	<path id="_x31_9_1_" fill="none" stroke="#000000" stroke-width="1.5" stroke-linecap="round" stroke-linejoin="round" d="
		M187.25,144.75c0,0,7.75,3.917,15.75-1.667"/>
	
		<path id="_x32_3_1_" fill="none" stroke="#000000" stroke-width="1.5" stroke-linecap="round" stroke-linejoin="round" stroke-miterlimit="10" d="
		M177.087,107.98c0.678-0.602,2.481,0.384,4.115,2.266c2.487,2.866,2.596,4.141,2.23,6.141c0.122,1.245,1.17,2.52,1.17,2.52
		s3.361,1.291,4.459,3.768"/>
	
		<polyline id="_x32_5_1_" fill="none" stroke="#000000" stroke-width="1.5" stroke-linecap="round" stroke-linejoin="round" points="
		182.38,111.728 192.869,121.82 198.275,124.66 196.132,119.447 190,113.389 	"/>
	
		<path id="_x32_9_1_" fill="none" stroke="#000000" stroke-width="1.5" stroke-linecap="round" stroke-linejoin="round" stroke-miterlimit="10" d="
		M184.311,109.637c0,0-1.599,0.205-3.206-1.606c0,0-0.882-1.972-0.256-3.114"/>
	
		<path id="_x32_8_1_" fill="none" stroke="#000000" stroke-width="1.5" stroke-linecap="round" stroke-linejoin="round" stroke-miterlimit="10" d="
		M196.641,111.011l-1.601,0.36l-5.271,1.958c0,0-2.596,0.391-4.23-1.233c-1.066-1.003-0.996-2.076-0.996-2.076l0.873-1.799
		l9.58-3.035"/>
	
		<path id="_x32_4_1_" fill="none" stroke="#000000" stroke-width="1.5" stroke-linecap="round" stroke-linejoin="round" stroke-miterlimit="10" d="
		M185.703,119.312c1.541-0.603,2.006-2.141,2.006-2.141"/>
	<path id="_x32_7_1_" fill="none" stroke="#000000" stroke-width="1.5" stroke-linecap="round" stroke-linejoin="round" d="
		M199.798,109.019c0,0-5.403,3.564-5.836,4.031c-0.139,0.153-0.768,1.333-1.289,2.192"/>
	<path id="_x32_2_1_" fill="none" stroke="#000000" stroke-width="1.5" stroke-linecap="round" stroke-linejoin="round" d="
		M190.596,119.699c-0.413,0.669-0.854,1.595-1.333,2.567c-0.479,0.973-1.1,2.697-1.1,2.697s0.48,2.381,2.67,2.938
		c0.609,0.155,1.168,0.075,1.658-0.12"/>
	
		<path id="_x32_0_1_" fill="none" stroke="#000000" stroke-width="1.5" stroke-linecap="round" stroke-linejoin="round" stroke-miterlimit="10" d="
		M187.88,133.91c0,0,0.516-4.43,3.086-5.896"/>
	<path id="_x32_6_1_" fill="none" stroke="#000000" stroke-width="1.5" stroke-linecap="round" stroke-linejoin="round" d="
		M196.673,119.618c0.902-1.152,2.461-2.504,4.164-3.81c1.701-1.306,4.177-0.339,5.561,1.827"/>
	<path id="_x32_1.5_1_" fill="none" stroke="#000000" stroke-width="1.5" stroke-linecap="round" stroke-linejoin="round" d="
		M194.475,123.205c0,0-1.617,2.529-1.687,3.697c-0.066,1.167,2.672,2.365,4.465,1.356c1.791-1.009,3.259-3.55,5.42-6.147"/>
	<path id="_x32_1_1_" fill="none" stroke="#000000" stroke-width="1.5" stroke-linecap="round" stroke-linejoin="round" d="
		M201.429,124.675c0,0,0.886,0.433,2.225,0.078"/>
	<path id="_x33_0_1_" fill="none" stroke="#000000" stroke-width="3" stroke-linecap="round" stroke-linejoin="round" d="
		M158.666,101.5c0,0-0.334,17.424,2.666,31.667"/>
	
		<path id="_x33_1_1_" fill="none" stroke="#000000" stroke-width="1.5" stroke-linecap="round" stroke-linejoin="round" stroke-miterlimit="10" d="
		M121.083,137.955c6.224,3.671,24.092,12.304,27.754-5.622"/>
	
		<path id="_x33_6_1_" fill="none" stroke="#000000" stroke-width="3" stroke-linecap="round" stroke-linejoin="round" stroke-miterlimit="10" d="
		M88.327,136.565c-12.497,3.905-16.438,22.492-22.556,37.54c-6.25,15.372-12.049,34.395-10.522,47.533
		c2.612,15.5,17.586,36.236,17.586,36.236s0.594,2.25,1.816,5.875c1.222,3.625,2.598,4.625,2.598,4.625"/>
	
		<path id="_x33_7_1_" fill="none" stroke="#000000" stroke-width="3" stroke-linecap="round" stroke-linejoin="round" stroke-miterlimit="10" d="
		M106.249,258.125c5.875-4.125,15.168-5.707,15.168-5.707c6.985-1.615,16.777-1.494,36.583,3.287c0,0,9.608,2.461,19.056,2.961
		l3.887,3.334l0.854,2.328l2.832,0.812c0,0-8.459,2.525-18.459,4.691c-10,2.168-16.543,5.918-16.543,5.918s-0.836,2.305-3.17,1.795
		c-2.332-0.508-21.955,1.953-35.289,18.287l-38.5-20.17l1.833-4.754c0,0,2.562-2.158,5.875-4.104c0,0,6.188-4.742,15.438-5.056"/>
	
		<path id="right_side_1_" fill="none" stroke="#000000" stroke-width="3" stroke-linecap="round" stroke-linejoin="round" stroke-miterlimit="10" d="
		M155.321,254.572c11.771-4.51,24.716-6.878,28.667-7.105c0.92-0.051,1.42-0.061,1.42-0.061c-1.211-3.4-2.971-4.83-4.65-5.761
		c-0.01-0.011-0.029-0.021-0.051-0.03c-2.389-1.3-4.619-1.63-4.959-5.189c-0.58-6.1-2.41-50.75-2.41-50.75S173,171.75,171.75,165.25
		"/>
	
		<path id="_x33_8_1_" fill="none" stroke="#000000" stroke-width="3" stroke-linecap="round" stroke-linejoin="round" stroke-miterlimit="10" d="
		M88.585,182.009c-8.997,19.869-12.812,32.805-12.932,36.49c2.375,3.563,9.22,31.375,12.22,32.412
		c2.752-0.14,7.746,3.903,12.561,4.688c0,0,3.415,3.057,7.678,4.699c4.264,1.646,0.733,6.218-4.349,4.203
		c-5.082-2.016-9.038-3.363-9.038-3.363"/>
	
		<path id="_x33_4_1_" fill="none" stroke="#000000" stroke-width="3" stroke-linecap="round" stroke-linejoin="round" stroke-miterlimit="10" d="
		M92.008,204c0.109,10.028,0.369,37.408-0.102,38.426c-0.575,1.242-3.408,1.783-4.533,3.408s-1.125,2.291-1.125,2.291"/>
	
		<path id="_x33_5_1_" fill="none" stroke="#000000" stroke-width="1.5" stroke-linecap="round" stroke-linejoin="round" stroke-miterlimit="10" d="
		M91.499,243.5c0,0,3.875,0.875,7,4.25s6.5,4.25,6.5,4.25"/>
	
		<path id="_x33_3_1_" fill="none" stroke="#000000" stroke-width="1.5" stroke-linecap="round" stroke-linejoin="round" stroke-miterlimit="10" d="
		M154.777,246.615c6.5-3.369,16.461-7.318,22.029-5.939c2.551,0.632,3.58,0.882,3.951,0.972c0.438,0.101-0.051-0.03-0.051-0.03"/>
	
		<path id="_x33_9_1_" fill="none" stroke="#000000" stroke-width="1.5" stroke-linecap="round" stroke-linejoin="round" stroke-miterlimit="10" d="
		M64.664,214.167c3.333-0.707,8.043,1.028,10.241,4.623"/>
	
		<path id="_x34_0_1_" fill="none" stroke="#000000" stroke-width="1.5" stroke-linecap="round" stroke-linejoin="round" stroke-miterlimit="10" d="
		M73.999,259c0,0-0.125-8.625,11.5-9.625"/>
	
		<path id="_x34_1_1_" fill="none" stroke="#000000" stroke-width="1.5" stroke-linecap="round" stroke-linejoin="round" stroke-miterlimit="10" d="
		M83.874,252.832c0,0,3-1.645,5.25-1.145"/>
	
		<path id="_x34_6.5_1_" fill="none" stroke="#000000" stroke-width="1.5" stroke-linecap="round" stroke-linejoin="round" stroke-miterlimit="10" d="
		M108.874,260.375c0,0,23.125,8,36.5,13.875"/>
	
		<path id="_x34_2_1_" fill="none" stroke="#000000" stroke-width="1.5" stroke-linecap="round" stroke-linejoin="round" stroke-miterlimit="10" d="
		M74.499,270.908l35.75,19.717c0,0,7.375-7.375,14-11.125s19.75-9.375,23.25-3.25"/>
	
		<path id="_x34_3_1_" fill="none" stroke="#000000" stroke-width="1.5" stroke-linecap="round" stroke-linejoin="round" stroke-miterlimit="10" d="
		M148.25,275.5c0,0,1.438-5.938,9.25-7.25c7.812-1.312,15.25-4.75,16.75-6s2.375-2.25,2.375-2.25"/>
	<path id="_x34_4_1_" fill="none" stroke="#000000" stroke-linecap="round" stroke-linejoin="round" stroke-miterlimit="10" d="
		M143.311,267.25c0.562-2.25,1.812-4.375,7.688-5.25c5.875-0.875,8.125-0.125,12-1.5"/>
	<path id="_x34_5_1_" fill="none" stroke="#000000" stroke-linecap="round" stroke-linejoin="round" stroke-miterlimit="10" d="
		M136.749,264.25c0,0,0.547-2.703,4.016-4.357c3.469-1.656,12.4-1.643,12.4-1.643"/>
	<path id="_x34_6_1_" fill="none" stroke="#000000" stroke-linecap="round" stroke-linejoin="round" stroke-miterlimit="10" d="
		M129.124,261.875c3.125-5.375,10.792-5.709,14.542-6.041"/>
	<path id="_x34_7_1_" fill="none" stroke="#000000" stroke-linecap="round" stroke-linejoin="round" stroke-miterlimit="10" d="
		M108.999,281.5c0,0,4.75-5.375,9.5-7.75s6.75-3,6.75-3"/>
	<path id="_x34_8_1_" fill="none" stroke="#000000" stroke-linecap="round" stroke-linejoin="round" stroke-miterlimit="10" d="
		M103.374,277.75c0,0,5.125-7.25,15.625-9.625"/>
	
		<path id="_x34_9_1_" fill="none" stroke="#000000" stroke-width="3" stroke-linecap="round" stroke-linejoin="round" stroke-miterlimit="10" d="
		M69.624,255.25c-7.25,2.232-15.508,5.027-22.625,8.586c-11.5,5.75-32.07,20.465-32.07,20.465s-7.933,3.99-6.933,12.15
		c1,8.17,1.562,17.17,18.562,25.84c17,8.66,27.83,13.83,35.16,14.16c7.34,0.34,14-8.5,35.5-8.16c21.5,0.33,46,1.33,46,1.33
		s2.09-1.76,6.361-6.709c0.986-1.15,2.09-2.461,3.309-3.961c6.5-8,14.171-10.16,10.501-21c-0.091-0.25-0.17-0.511-0.261-0.761
		c-1.84-5.239-4.4-10.819-7.57-15.399c-1.279-1.84-4.035-5.865-6.859-6.166"/>
	
		<path id="_x35_0_1_" fill="none" stroke="#000000" stroke-width="3" stroke-linecap="round" stroke-linejoin="round" stroke-miterlimit="10" d="
		M87.173,283.662c-4.089,1.407-6.839,2.041-12.478,1.41c-5.639-0.63-13.697-2.166-19.822-2.057s-10.945,2.056-13.486,2.863
		l-3.83,1.74"/>
	
		<path id="_x35_1_1_" fill="none" stroke="#000000" stroke-width="3" stroke-linecap="round" stroke-linejoin="round" stroke-miterlimit="10" d="
		M150.514,321.812c3.751-2.625,10.299,0.029,21.608,2.936c11.311,2.908,21.762,5.592,21.762,5.592s5.496,1.148,7.222,0.82
		s2.96-2.229,2.96-2.229s1.878,0.057,2.762,0.016c0.883-0.041,1.307-3.141,1.307-3.141s1.576-0.727,2.283-1.539
		c0.705-0.811,0.25-2.611,0.25-2.611s1.91-1.574,2.899-2.734c0.991-1.16,0.312-3.236,0.312-3.236s3.955-2.506,2.455-5.934
		c-1.502-3.426-4.944-4.729-7.955-4.766c-3.012-0.039-3.207,0.695-6.735-1.779c-3.528-2.473-2.954-2.16-7.062-2.555
		c-4.104-0.396-11.049,1.986-17.355,0.168c-6.309-1.82-6.491-8.062-15.273-8.482"/>
	
		<path id="_x35_2_1_" fill="none" stroke="#000000" stroke-width="3" stroke-linecap="round" stroke-linejoin="round" stroke-miterlimit="10" d="
		M175.875,325.705c0,0,9.072,1.578,15.653,4.973c6.58,3.396,12.765,2.42,18.06-1.717s7.521-7.689,8.927-14.461
		c1.403-6.773-3.828-12.424-12.531-14.643c-8.702-2.219-14.702-1.559-24.046-1.672c-9.346-0.113-8.5-9.739-21.711-8.133"/>
	
		<path id="_x35_3_1_" fill="none" stroke="#000000" stroke-width="1.5" stroke-linecap="round" stroke-linejoin="round" stroke-miterlimit="10" d="
		M177.053,300.339c0,0-2.909,2.828-4.044,10.709s0.886,14.066,0.886,14.066"/>
	
		<path id="_x35_4_1_" fill="none" stroke="#000000" stroke-width="1.5" stroke-linecap="round" stroke-linejoin="round" stroke-miterlimit="10" d="
		M187.458,301.714c0,0-5.351,2.498-5.615,11.643c-0.266,9.143,0.5,12.354,2.016,15.137"/>
	
		<path id="_x35_5_1_" fill="none" stroke="#000000" stroke-width="3" stroke-linecap="round" stroke-linejoin="round" stroke-miterlimit="10" d="
		M185.408,247.405c0,0,19.49,6.425,30.262,11.765c0.011,0,28.33,10.33,35.08,16.58s10.67,13.03,10.67,13.03
		s12.471,5.671,7.721,19.171s-14.641,12-23.57,17.75c0,0-17.102,10.51-26.43,11c-9.342,0.49-15.46-1.25-17.189-3.811
		c-0.209-0.818-0.891-1.439-1.939-1.932"/>
	
		<path id="_x35_6_1_" fill="none" stroke="#000000" stroke-width="3" stroke-linecap="round" stroke-linejoin="round" stroke-miterlimit="10" d="
		M228.218,283.125c0,0-27.825-12.27-43.586-7.01c-15.76,5.26-31.664,2.346-31.664,2.346"/>
</g>
</svg>
