<?xml version="1.0" encoding="iso-8859-1"?>
<!-- Generator: Adobe Illustrator 18.0.0, SVG Export Plug-In . SVG Version: 6.00 Build 0)  -->
<!DOCTYPE svg PUBLIC "-//W3C//DTD SVG 1.1//EN" "http://www.w3.org/Graphics/SVG/1.1/DTD/svg11.dtd">
<svg version="1.1" id="Capa_1" xmlns="http://www.w3.org/2000/svg" xmlns:xlink="http://www.w3.org/1999/xlink" x="0px" y="0px"
	 viewBox="0 0 392.581 392.581" style="enable-background:new 0 0 392.581 392.581;" xml:space="preserve">
<g>
	<path d="M385.821,303.22h-21.003l-0.002-115.444V110.64c0-8.174-6.628-14.805-14.804-14.805h-96.713l0.299-0.299
		c4.035-4.033,4.035-10.575,0-14.608l-13.879-13.879c-4.034-4.035-10.575-4.035-14.608,0l-1.896,1.896
		c-1.917-0.916-3.887-1.733-5.911-2.447v-2.682c0-5.706-4.623-10.331-10.33-10.331h-19.626c-5.706,0-10.33,4.625-10.33,10.331v2.682
		c-2.023,0.714-3.994,1.531-5.911,2.447l-1.895-1.896c-4.034-4.035-10.575-4.035-14.608,0l-13.879,13.879
		c-4.035,4.033-4.035,10.575,0,14.608l0.299,0.299H42.702c-8.177,0-14.806,6.629-14.806,14.805V303.22H6.761
		c-3.734,0-6.761,3.027-6.761,6.764c0,16.051,13.06,29.112,29.113,29.112h235.222v-12.588c0-4.477,3.63-8.109,8.11-8.109
		c4.477,0,8.108,3.632,8.108,8.109v12.588h13.298v-12.588c0-4.477,3.631-8.109,8.109-8.109c4.479,0,8.11,3.632,8.11,8.109v12.588
		h53.396c16.055,0,29.115-13.062,29.115-29.112C392.581,306.247,389.555,303.22,385.821,303.22z M197.162,89.777
		c18.617,0,33.708,15.09,33.708,33.708c0,18.618-15.091,33.708-33.708,33.708c-18.618,0-33.708-15.09-33.708-33.708
		C163.454,104.867,178.544,89.777,197.162,89.777z M339.058,293.089H212.495v7.021h-30.666v-7.021H53.655V121.593h73.506v11.705
		c0,5.707,4.625,10.33,10.331,10.33h2.682c0.714,2.023,1.531,3.994,2.447,5.911l-1.896,1.895c-4.035,4.034-4.035,10.575,0,14.608
		l13.879,13.879c4.033,4.035,10.575,4.035,14.608-0.001l1.895-1.895c1.918,0.916,3.888,1.733,5.911,2.447v2.682
		c0,5.706,4.623,10.331,10.33,10.331h19.626c5.707,0,10.33-4.624,10.33-10.331v-2.682c2.023-0.714,3.994-1.531,5.911-2.447
		l1.895,1.895c4.033,4.035,10.574,4.035,14.608,0.001l13.879-13.879c4.035-4.033,4.035-10.575,0-14.608l-1.895-1.895
		c0.916-1.917,1.732-3.888,2.447-5.911h2.681c5.706,0,10.331-4.623,10.331-10.33v-11.705h71.896V293.089z"/>
	<path d="M257.806,208.136c0,0.304,0.018,0.604,0.045,0.9l-42.249,31.657c-1.304-0.673-2.78-1.059-4.349-1.059
		c-1.513,0-2.939,0.363-4.209,0.993l-29.458-22.785c0.005-0.126,0.019-0.249,0.019-0.376c0-5.247-4.253-9.501-9.498-9.501
		c-5.25,0-9.502,4.254-9.502,9.501c0,0.127,0.014,0.25,0.019,0.376l-27.957,21.374c-1.124-0.469-2.356-0.729-3.65-0.729
		c-5.248,0-9.5,4.254-9.5,9.5c0,5.247,4.252,9.501,9.5,9.501c5.247,0,9.5-4.254,9.5-9.501c0-0.414-0.035-0.818-0.087-1.217
		l27.303-20.874c1.31,0.681,2.795,1.072,4.374,1.072c1.575,0,3.057-0.39,4.365-1.069l29.31,22.671
		c-0.011,0.188-0.028,0.374-0.028,0.565c0,5.249,4.254,9.502,9.499,9.502c5.248,0,9.502-4.253,9.502-9.502
		c0-0.14-0.015-0.276-0.021-0.414l42.634-31.945c1.201,0.548,2.531,0.862,3.937,0.862c5.248,0,9.501-4.253,9.501-9.499
		c0-5.249-4.252-9.502-9.501-9.502C262.059,198.634,257.806,202.887,257.806,208.136z"/>
</g>
<g>
</g>
<g>
</g>
<g>
</g>
<g>
</g>
<g>
</g>
<g>
</g>
<g>
</g>
<g>
</g>
<g>
</g>
<g>
</g>
<g>
</g>
<g>
</g>
<g>
</g>
<g>
</g>
<g>
</g>
</svg>
