<?xml version="1.0" encoding="iso-8859-1"?>
<!-- Generator: Adobe Illustrator 16.0.0, SVG Export Plug-In . SVG Version: 6.00 Build 0)  -->
<!DOCTYPE svg PUBLIC "-//W3C//DTD SVG 1.1//EN" "http://www.w3.org/Graphics/SVG/1.1/DTD/svg11.dtd">
<svg version="1.1" id="Capa_1" xmlns="http://www.w3.org/2000/svg" xmlns:xlink="http://www.w3.org/1999/xlink" x="0px" y="0px"
	 width="419.951px" height="419.951px" viewBox="0 0 419.951 419.951" style="enable-background:new 0 0 419.951 419.951;"
	 xml:space="preserve">
<g>
	<g>
		<path d="M357.432,5.774H62.521C28.047,5.774,0,33.823,0,68.292v283.363c0,34.472,28.047,62.521,62.521,62.521h294.911
			c34.475,0,62.52-28.051,62.52-62.521V68.292C419.951,33.823,391.906,5.774,357.432,5.774z M396.061,351.655
			c0,21.301-17.328,38.631-38.629,38.631H62.521c-21.301,0-38.63-17.33-38.63-38.631V68.292c0-21.299,17.329-38.627,38.63-38.627
			h294.911c21.301,0,38.629,17.328,38.629,38.627V351.655z"/>
		<path d="M339.385,215.843V82.478c0-6.596-5.35-11.945-11.945-11.945s-11.945,5.35-11.945,11.945v133.365
			c-17.766,5.184-30.795,21.586-30.795,41.01c0,19.421,13.029,35.824,30.795,41.008v39.61c0,6.597,5.35,11.945,11.945,11.945
			s11.945-5.35,11.945-11.945v-39.61c17.768-5.184,30.797-21.587,30.797-41.008C370.182,237.429,357.152,221.026,339.385,215.843z
			 M327.439,275.704c-10.393,0-18.85-8.459-18.85-18.852c0-10.396,8.457-18.852,18.85-18.852c10.395,0,18.852,8.455,18.852,18.852
			C346.291,267.245,337.834,275.704,327.439,275.704z"/>
		<path d="M209.976,59.812c-23.566,0-42.741,19.173-42.741,42.741c0,19.424,13.03,35.824,30.796,41.011v193.906
			c0,6.597,5.35,11.945,11.945,11.945c6.597,0,11.946-5.35,11.946-11.945V143.564c17.766-5.187,30.797-21.587,30.797-41.011
			C252.719,78.985,233.543,59.812,209.976,59.812z M209.976,121.406c-10.394,0-18.851-8.458-18.851-18.852
			c0-10.393,8.457-18.851,18.851-18.851c10.395,0,18.852,8.458,18.852,18.851C228.828,112.948,220.371,121.406,209.976,121.406z"/>
		<path d="M104.457,168.966V82.478c0-6.596-5.348-11.945-11.945-11.945c-6.597,0-11.945,5.35-11.945,11.945v86.488
			c-17.766,5.184-30.796,21.586-30.796,41.01c0,19.421,13.03,35.823,30.796,41.008v86.487c0,6.597,5.349,11.945,11.945,11.945
			c6.598,0,11.945-5.35,11.945-11.945v-86.487c17.767-5.185,30.797-21.587,30.797-41.008
			C135.254,190.552,122.224,174.149,104.457,168.966z M92.512,228.827c-10.394,0-18.851-8.459-18.851-18.852
			c0-10.396,8.457-18.852,18.851-18.852c10.395,0,18.852,8.456,18.852,18.852C111.364,220.368,102.907,228.827,92.512,228.827z"/>
	</g>
</g>
<g>
</g>
<g>
</g>
<g>
</g>
<g>
</g>
<g>
</g>
<g>
</g>
<g>
</g>
<g>
</g>
<g>
</g>
<g>
</g>
<g>
</g>
<g>
</g>
<g>
</g>
<g>
</g>
<g>
</g>
</svg>
