<?xml version="1.0" encoding="iso-8859-1"?>
<!-- Generator: Adobe Illustrator 16.0.0, SVG Export Plug-In . SVG Version: 6.00 Build 0)  -->
<!DOCTYPE svg PUBLIC "-//W3C//DTD SVG 1.1//EN" "http://www.w3.org/Graphics/SVG/1.1/DTD/svg11.dtd">
<svg version="1.1" id="Capa_1" xmlns="http://www.w3.org/2000/svg" xmlns:xlink="http://www.w3.org/1999/xlink" x="0px" y="0px"
	 width="392.187px" height="392.187px" viewBox="0 0 392.187 392.187" style="enable-background:new 0 0 392.187 392.187;"
	 xml:space="preserve">
<g>
	<g>
		<g>
			<path d="M368.623,17.953H23.568C10.573,17.953,0,28.525,0,41.521v309.145c0,12.996,10.573,23.568,23.568,23.568h345.055
				c12.992,0,23.563-10.572,23.563-23.568V41.521C392.188,28.526,381.617,17.953,368.623,17.953z M297.561,57.529
				c0-4.806,3.896-8.702,8.701-8.702h8.703c4.808,0,8.701,3.896,8.701,8.702v9.863c0,4.806-3.896,8.702-8.701,8.702h-8.703
				c-4.805,0-8.701-3.896-8.701-8.702V57.529z M257.094,57.529c0-4.806,3.898-8.702,8.703-8.702h8.701
				c4.807,0,8.703,3.896,8.703,8.702v9.863c0,4.806-3.896,8.702-8.703,8.702h-8.701c-4.805,0-8.703-3.896-8.703-8.702V57.529z
				 M363.904,345.953H28.283V102.236h335.621V345.953z M364.135,67.392c0,4.806-3.897,8.702-8.703,8.702h-8.7
				c-4.808,0-8.703-3.896-8.703-8.702v-9.863c0-4.806,3.896-8.702,8.703-8.702h8.7c4.806,0,8.703,3.896,8.703,8.702V67.392z"/>
			<path d="M108.363,259.589c12.829,10.133,25.927,18.229,38.928,24.051c16.518,7.402,32.938,11.154,48.803,11.154
				c15.865,0,32.287-3.752,48.803-11.154c13.001-5.82,26.099-13.918,38.929-24.051c21.715-17.149,35.106-34.137,35.666-34.851
				c2.137-2.729,2.137-6.565,0-9.295c-0.56-0.714-13.951-17.699-35.666-34.85c-12.83-10.133-25.928-18.229-38.929-24.052
				c-16.52-7.401-32.938-11.154-48.803-11.154c-15.865,0-32.286,3.753-48.803,11.154c-13.001,5.822-26.099,13.919-38.928,24.052
				c-21.716,17.15-35.109,34.136-35.667,34.85c-2.136,2.729-2.136,6.564,0,9.295C73.254,225.453,86.647,242.439,108.363,259.589z
				 M196.094,176.686c21.843,0,39.548,17.71,39.548,39.548c0,21.845-17.704,39.549-39.548,39.549
				c-21.843,0-39.548-17.704-39.548-39.549C156.546,194.396,174.251,176.686,196.094,176.686z"/>
		</g>
	</g>
</g>
<g>
</g>
<g>
</g>
<g>
</g>
<g>
</g>
<g>
</g>
<g>
</g>
<g>
</g>
<g>
</g>
<g>
</g>
<g>
</g>
<g>
</g>
<g>
</g>
<g>
</g>
<g>
</g>
<g>
</g>
</svg>
