<?xml version="1.0" encoding="iso-8859-1"?>
<!-- Generator: Adobe Illustrator 18.0.0, SVG Export Plug-In . SVG Version: 6.00 Build 0)  -->
<!DOCTYPE svg PUBLIC "-//W3C//DTD SVG 1.1//EN" "http://www.w3.org/Graphics/SVG/1.1/DTD/svg11.dtd">
<svg version="1.1" id="Capa_1" xmlns="http://www.w3.org/2000/svg" xmlns:xlink="http://www.w3.org/1999/xlink" x="0px" y="0px"
	 viewBox="0 0 354.085 354.085" style="enable-background:new 0 0 354.085 354.085;" xml:space="preserve">
<g>
	<path d="M145.935,148.027c0-25.405-14.26-45.305-32.464-45.305c-18.205,0-32.465,19.9-32.465,45.305s14.26,45.305,32.465,45.305
		C131.675,193.333,145.935,173.432,145.935,148.027z M96.213,168.13c-0.775-1.677-1.46-3.461-2.038-5.339l34.52-38.676
		c0.918,1.492,1.756,3.11,2.497,4.839L96.213,168.13z M113.471,113.722c2.681,0,5.263,0.843,7.654,2.354l-29.108,32.612
		c-0.003-0.221-0.011-0.44-0.011-0.661C92.006,129.432,101.836,113.722,113.471,113.722z M113.471,182.333
		c-3.923,0-7.638-1.791-10.843-4.871l31.919-35.75c0.251,2.054,0.388,4.165,0.388,6.316
		C134.935,166.623,125.106,182.333,113.471,182.333z"/>
	<path d="M208.15,148.027c0,25.405,14.26,45.305,32.465,45.305c18.204,0,32.464-19.9,32.464-45.305s-14.26-45.305-32.464-45.305
		C222.41,102.722,208.15,122.623,208.15,148.027z M255.232,123.172c0.956,1.44,1.833,3.011,2.617,4.699l-34.978,39.175
		c-0.737-1.727-1.375-3.565-1.909-5.486L255.232,123.172z M240.615,182.333c-4.239,0-8.236-2.093-11.607-5.643l32.491-36.39
		c0.375,2.494,0.581,5.08,0.581,7.728C262.079,166.623,252.25,182.333,240.615,182.333z M240.615,113.722
		c2.33,0,4.584,0.639,6.705,1.796l-28.154,31.538C219.502,128.889,229.183,113.722,240.615,113.722z"/>
	<path d="M295.55,148.669c0-14.249-3.68-27.465-9.93-38.344c0.011-0.648,0.031-1.296,0.031-1.949
		C285.651,48.618,236.924,0,177.031,0c-29.679,0-57.352,11.705-77.921,32.958c-20.072,20.74-31.197,48.88-30.675,77.42
		c-6.231,10.87-9.899,24.066-9.899,38.292c0,35.103,22.274,63.98,50.534,66.876l19.14,42.266
		c-8.844,6.629-14.096,15.161-14.096,24.585l0.002,33.189l0.005,0.005c0.053,21.592,27.668,38.496,62.914,38.496
		c34.3,0,61.925-16.433,62.891-37.412c0.007-0.154,0.018-34.278,0.018-34.278c0-9.57-5.421-18.219-14.515-24.891l19.621-41.963
		C273.294,212.627,295.55,183.758,295.55,148.669z M69.535,148.669c0-30.952,19.83-56.134,44.205-56.134c3.038,0,5.5-2.462,5.5-5.5
		s-2.462-5.5-5.5-5.5c-12.548,0-24.125,5.127-33.407,13.736c2.837-20.334,12.152-39.65,26.681-54.663
		C125.492,21.515,150.358,11,177.031,11c49.377,0,90.304,36.76,96.735,84.284c-9.284-8.616-20.866-13.748-33.42-13.748
		c-3.038,0-5.5,2.462-5.5,5.5s2.462,5.5,5.5,5.5c24.375,0,44.205,25.182,44.205,56.134s-19.83,56.133-44.205,56.133
		c-24.374,0-44.204-25.181-44.204-56.133c0-3.038-2.462-5.5-5.5-5.5s-5.5,2.462-5.5,5.5c0,34.015,20.915,62.183,47.925,66.531
		l-10.125,21.653c-11.734-7.597-28.309-12.018-45.906-12.018c-17.764,0-34.423,4.48-46.166,12.183l-9.879-21.814
		c27.023-4.334,47.953-32.509,47.953-66.536c0-3.038-2.462-5.5-5.5-5.5s-5.5,2.462-5.5,5.5c0,30.952-19.83,56.133-44.205,56.133
		S69.535,179.622,69.535,148.669z M228.938,316.167c-0.672,14.591-24.44,26.918-51.902,26.918c-28.142,0-51.917-12.62-51.917-27.558
		s23.775-27.558,51.917-27.558c27.182,0,50.944,12.205,51.886,26.632C228.936,314.875,228.944,315.932,228.938,316.167z
		 M228.944,293.505c-2.677-2.382-5.799-4.591-9.366-6.573c-11.561-6.424-26.669-9.962-42.542-9.962
		c-21.803,0-40.676,6.473-51.922,16.518v-11.091c0-14.939,23.777-27.56,51.92-27.56c28.138,0,51.91,12.621,51.91,27.56V293.505z
		 M177.034,243.836c-15.013,0-28.631,3.075-39.335,8.264l-2.223-4.908c9.868-7.063,25.329-11.356,41.56-11.356
		c16.253,0,31.273,4.101,41.196,11.091l-2.318,4.958C205.279,246.827,191.835,243.836,177.034,243.836z"/>
	<path d="M124.58,58.61c14.186-14.187,33.032-22,53.064-22s38.878,7.813,53.064,22c2.148,2.147,5.63,2.147,7.778,0
		c2.148-2.148,2.148-5.63,0-7.778c-16.264-16.264-37.872-25.221-60.843-25.221c-22.971,0-44.579,8.957-60.843,25.221
		c-2.148,2.148-2.148,5.63,0,7.778c1.074,1.074,2.481,1.611,3.889,1.611S123.506,59.684,124.58,58.61z"/>
	<path d="M213.352,73.256c1.342,0,2.688-0.488,3.748-1.476c2.223-2.07,2.346-5.551,0.275-7.773
		c-21.012-22.558-57.391-22.947-81.093-0.869c-2.223,2.07-2.346,5.55-0.276,7.773c2.07,2.223,5.55,2.347,7.773,0.276
		c19.265-17.945,48.67-17.8,65.547,0.318C210.41,72.667,211.879,73.256,213.352,73.256z"/>
	<path d="M177.029,296.43c-18.938,0-38.109,6.56-38.109,19.098s19.171,19.098,38.109,19.098s38.11-6.56,38.11-19.098
		S195.967,296.43,177.029,296.43z M177.029,323.625c-17.788,0-27.109-6.017-27.109-8.098s9.321-8.098,27.109-8.098
		c17.789,0,27.11,6.017,27.11,8.098S194.817,323.625,177.029,323.625z"/>
</g>
<g>
</g>
<g>
</g>
<g>
</g>
<g>
</g>
<g>
</g>
<g>
</g>
<g>
</g>
<g>
</g>
<g>
</g>
<g>
</g>
<g>
</g>
<g>
</g>
<g>
</g>
<g>
</g>
<g>
</g>
</svg>
