<?xml version='1.0' encoding='iso-8859-1'?>
<svg version="1.1" xmlns="http://www.w3.org/2000/svg" viewBox="0 0 511 511" xmlns:xlink="http://www.w3.org/1999/xlink" enable-background="new 0 0 511 511">
  <g>
    <path d="m255.5,0c-110.005,0-199.5,89.495-199.5,199.5 0,43.81 13.932,85.388 40.291,120.236 22.44,29.669 53.194,52.736 87.709,66.047v53.717c0,19.429 14.098,35.626 32.603,38.897 3.271,18.504 19.468,32.603 38.897,32.603s35.626-14.099 38.897-32.603c18.505-3.271 32.603-19.468 32.603-38.897v-53.716c34.509-13.309 65.258-36.37 87.698-66.032 26.366-34.853 40.302-76.435 40.302-120.252 0-110.005-89.495-199.5-199.5-199.5zm0,496c-10.894,0-20.146-7.149-23.321-17h46.643c-3.176,9.851-12.428,17-23.322,17zm32-32h-64c-13.509,0-24.5-10.991-24.5-24.5v-16.5h64.5c4.142,0 7.5-3.358 7.5-7.5s-3.358-7.5-7.5-7.5h-64.5v-17h111.44c0.022,0 0.044,0.005 0.066,0.005 0.025,0 0.05-0.005 0.074-0.005h1.42v17h-16.5c-4.142,0-7.5,3.358-7.5,7.5s3.358,7.5 7.5,7.5h16.5v16.5c0,13.509-10.991,24.5-24.5,24.5zm115.235-153.298c-23.378,30.902-56.497,54.055-93.348,65.298h-107.775c-36.856-11.244-69.981-34.403-93.358-65.312-24.372-32.223-37.254-70.671-37.254-111.188 0-101.733 82.766-184.5 184.5-184.5s184.5,82.767 184.5,184.5c0,40.523-12.886,78.977-37.265,111.202z"/>
    <path d="m293.632,51.804c7.789,2.005 15.477,4.655 22.85,7.875 0.978,0.427 1.996,0.629 2.999,0.629 2.891,0 5.646-1.682 6.877-4.5 1.658-3.796-0.075-8.217-3.871-9.875-8.104-3.54-16.555-6.452-25.116-8.656-4.014-1.033-8.1,1.382-9.133,5.394s1.383,8.1 5.394,9.133z"/>
    <path d="m356.015,65.5c-3.313-2.488-8.013-1.82-10.501,1.492-2.488,3.312-1.82,8.013 1.492,10.501 14.104,10.595 26.176,23.427 35.882,38.138 1.442,2.186 3.831,3.371 6.267,3.371 1.418,0 2.852-0.401 4.124-1.241 3.458-2.281 4.411-6.933 2.13-10.391-10.658-16.152-23.911-30.239-39.394-41.87z"/>
    <path d="m326.5,176h-57.66l9.926-80.292c1.196-8.048-0.695-13.123-5.619-15.087-4.946-1.973-9.832,0.438-14.475,7.101l-78.979,110.744c-3.98,5.711-4.785,11.82-2.206,16.76 2.579,4.94 8.05,7.774 15.011,7.774h49.275l-10.884,96.333c-1.184,8.023 0.708,13.085 5.625,15.046 1.115,0.445 2.226,0.667 3.333,0.667 3.805,0 7.556-2.622 11.188-7.835l88.27-126.678c3.98-5.711 4.784-11.82 2.206-16.76-2.577-4.94-8.049-7.773-15.011-7.773zm.5,15.957l-79.516,114.115 10.138-89.73c0.24-2.122-0.437-4.246-1.859-5.839s-3.458-2.503-5.594-2.503h-57.67c-0.413,0-0.766-0.023-1.063-0.057 0.133-0.247 0.302-0.527 0.517-0.835l70.074-98.258-9.114,73.729c-0.264,2.133 0.4,4.277 1.824,5.887 1.423,1.61 3.47,2.533 5.619,2.533h66.144c0.411,0 0.763,0.022 1.059,0.056-0.141,0.263-0.324,0.565-0.559,0.902z"/>
  </g>
</svg>
