<?xml version="1.0" encoding="iso-8859-1"?>
<!-- Generator: Adobe Illustrator 19.0.0, SVG Export Plug-In . SVG Version: 6.00 Build 0)  -->
<svg version="1.1" id="Layer_1" xmlns="http://www.w3.org/2000/svg" xmlns:xlink="http://www.w3.org/1999/xlink" x="0px" y="0px"
	 viewBox="0 0 502 502" style="enable-background:new 0 0 502 502;" xml:space="preserve">
<g>
	<g>
		<g>
			<path d="M493.741,60.661L333.074,32.246c-1.136-0.199-2.347-0.203-3.482,0L170.667,60.353L11.741,32.246
				c-2.91-0.517-5.901,0.285-8.167,2.185C1.308,36.331,0,39.136,0,42.093v389.389c0,4.851,3.481,9.002,8.259,9.847l160.667,28.415
				c1.12,0.249,2.358,0.187,3.482,0l158.925-28.107l158.926,28.107c0.579,0.103,1.162,0.153,1.741,0.153
				c2.331,0,4.611-0.816,6.426-2.338c2.266-1.9,3.574-4.705,3.574-7.662V70.508C502,65.657,498.519,61.505,493.741,60.661z
				 M40.206,426.667L20,423.095V204.13c0.023-0.023,0.048-0.042,0.071-0.064l9.429-9.429l69.857,69.857l-28.429,28.429
				c-3.905,3.905-3.905,10.237,0,14.143c1.953,1.953,4.512,2.929,7.071,2.929c2.559,0,5.118-0.976,7.071-2.929l75.596-75.596
				v112.383l-32.957-34.289c-3.828-3.981-10.157-4.107-14.14-0.28c-3.981,3.827-4.107,10.157-0.28,14.139l14.771,15.367
				l-87.632,87.632C40.349,426.501,40.282,426.586,40.206,426.667z M160.667,447.973l-96.445-17.057l77.702-77.702l18.743,19.502
				V447.973z M160.667,203.185L113.5,250.352l-69.857-69.857L86,138.137l44.429,44.429c1.953,1.953,4.512,2.929,7.071,2.929
				s5.118-0.976,7.071-2.929c3.905-3.905,3.905-10.237,0-14.143l-44.429-44.429l14.929-14.929c3.905-3.905,3.905-10.237,0-14.143
				c-3.906-3.905-10.236-3.905-14.143,0L20,175.852V54.017l140.667,24.877V203.185z M321.333,423.094l-140.666,24.878V373.4
				l56.313-32.338c4.79-2.75,6.442-8.862,3.692-13.652c-2.749-4.789-8.861-6.443-13.651-3.692l-46.354,26.619V213.412l53.248-30.476
				l87.418,169.134V423.094z M321.333,308.512l-70.044-135.519l70.044-40.088V308.512z M321.333,109.861l-140.666,80.507V78.894
				l140.666-24.878V109.861z M482,447.972l-100.127-17.708l70.198-70.198c3.905-3.905,3.905-10.237,0-14.143
				c-3.906-3.905-10.236-3.905-14.143,0l-79,79c-0.352,0.352-0.66,0.728-0.948,1.116l-16.647-2.944V54.017L482,78.894v109.958
				l-90.071,90.071c-3.905,3.905-3.905,10.237,0,14.143c1.953,1.953,4.512,2.929,7.071,2.929s5.118-0.976,7.071-2.929l8.429-8.429
				l67.5,67.5V447.972z M482,217.137v106.715l-53.357-53.357L482,217.137z"/>
			<path d="M412.093,236.914c3.112,0,6.047-1.449,7.939-3.92c5.114-6.678,49.968-66.082,49.968-95.092
				c0-31.93-25.978-57.907-57.907-57.907s-57.907,25.977-57.907,57.907c0,29.01,44.854,88.414,49.968,95.092
				C406.046,235.465,408.98,236.914,412.093,236.914z M412.093,99.995C432.995,99.995,450,117,450,137.902
				c0,14.439-20.808,48.267-37.907,72.182c-17.1-23.915-37.907-57.743-37.907-72.182C374.186,116.999,391.19,99.995,412.093,99.995z
				"/>
			<path d="M440.022,137.902c0-15.401-12.529-27.93-27.93-27.93s-27.931,12.529-27.931,27.93s12.529,27.93,27.931,27.93
				C427.493,165.832,440.022,153.303,440.022,137.902z M412.093,145.832c-4.373,0-7.931-3.558-7.931-7.93
				c0-4.373,3.558-7.93,7.931-7.93c4.372,0,7.93,3.558,7.93,7.93S416.465,145.832,412.093,145.832z"/>
			<path d="M48.928,314.923l-10,10c-3.905,3.905-3.905,10.237,0,14.143c1.954,1.952,4.512,2.929,7.072,2.929
				s5.118-0.976,7.071-2.929l10-10c3.905-3.905,3.905-10.237,0-14.143C59.165,311.018,52.835,311.018,48.928,314.923z"/>
			<path d="M257.011,328.036c1.688,0,3.4-0.428,4.97-1.33l14-8.04c4.79-2.75,6.442-8.862,3.692-13.652
				c-2.75-4.788-8.862-6.443-13.652-3.691l-14,8.04c-4.79,2.75-6.442,8.862-3.692,13.652
				C250.178,326.235,253.546,328.036,257.011,328.036z"/>
			<path d="M369.929,300.923l-9,9c-3.905,3.905-3.905,10.237,0,14.143c1.953,1.953,4.512,2.929,7.071,2.929s5.118-0.976,7.071-2.929
				l9-9c3.905-3.905,3.905-10.237,0-14.143C380.165,297.018,373.835,297.018,369.929,300.923z"/>
		</g>
	</g>
</g>
<g>
</g>
<g>
</g>
<g>
</g>
<g>
</g>
<g>
</g>
<g>
</g>
<g>
</g>
<g>
</g>
<g>
</g>
<g>
</g>
<g>
</g>
<g>
</g>
<g>
</g>
<g>
</g>
<g>
</g>
</svg>
