<?xml version="1.0" encoding="iso-8859-1"?>
<!-- Generator: Adobe Illustrator 18.1.1, SVG Export Plug-In . SVG Version: 6.00 Build 0)  -->
<svg version="1.1" id="Capa_1" xmlns="http://www.w3.org/2000/svg" xmlns:xlink="http://www.w3.org/1999/xlink" x="0px" y="0px"
	 viewBox="0 0 20.031 20.031" style="enable-background:new 0 0 20.031 20.031;" xml:space="preserve">
<g>
	<g>
		<rect x="2.774" y="6.766" style="fill:#030104;" width="1.918" height="1.857"/>
		<rect x="2.774" y="9.88" style="fill:#030104;" width="1.918" height="1.858"/>
		<rect x="5.564" y="6.766" style="fill:#030104;" width="7.586" height="1.857"/>
		<rect x="5.564" y="9.88" style="fill:#030104;" width="7.586" height="1.858"/>
		<path style="fill:#030104;" d="M1.356,17.172V5.526h14.585v6.114c0.174-0.021,0.35-0.035,0.529-0.035
			c0.283,0,0.559,0.035,0.826,0.086V2.135c0-0.499-0.406-0.904-0.904-0.904H0.904C0.405,1.231,0,1.636,0,2.135v15.49
			c0,0.498,0.405,0.904,0.904,0.904h11.319c-0.521-0.523-0.91-1.023-1.15-1.357C11.073,17.172,1.356,17.172,1.356,17.172z"/>
		<path style="fill:#030104;" d="M15.49,12.41c-2.508,0-4.543,3.195-4.543,3.195S12.982,18.8,15.49,18.8s4.541-3.195,4.541-3.195
			S17.998,12.41,15.49,12.41z M15.49,17.134c-0.846,0-1.53-0.686-1.53-1.529c0-0.846,0.685-1.531,1.53-1.531
			c0.844,0,1.529,0.686,1.529,1.531C17.02,16.449,16.334,17.134,15.49,17.134z"/>
	</g>
</g>
<g>
</g>
<g>
</g>
<g>
</g>
<g>
</g>
<g>
</g>
<g>
</g>
<g>
</g>
<g>
</g>
<g>
</g>
<g>
</g>
<g>
</g>
<g>
</g>
<g>
</g>
<g>
</g>
<g>
</g>
</svg>
