<?xml version='1.0' encoding='iso-8859-1'?>
<!DOCTYPE svg PUBLIC '-//W3C//DTD SVG 1.1//EN' 'http://www.w3.org/Graphics/SVG/1.1/DTD/svg11.dtd'>
<svg version="1.1" xmlns="http://www.w3.org/2000/svg" viewBox="0 0 297 297" xmlns:xlink="http://www.w3.org/1999/xlink" enable-background="new 0 0 297 297">
  <g>
    <circle cx="259.875" cy="277.029" r="16.898"/>
    <circle cx="259.875" cy="141.843" r="16.898"/>
    <circle cx="259.875" cy="23.555" r="16.898"/>
    <path d="m192.282,14.85c-4.808,0-8.705,3.898-8.705,8.705v109.583h-8.193c-4.808,0-8.705,3.898-8.705,8.705 0,4.808 3.897,8.705 8.705,8.705h8.193v126.481c0,4.808 3.898,8.705 8.705,8.705h37.6c-0.804-2.765-1.244-5.684-1.244-8.705s0.44-5.94 1.244-8.705h-28.895v-117.776h28.895c-0.804-2.765-1.244-5.684-1.244-8.705 0-3.021 0.44-5.94 1.244-8.705h-28.895v-100.878h28.895c-0.804-2.765-1.244-5.684-1.244-8.705 0-3.021 0.44-5.94 1.244-8.705h-37.6z"/>
    <path d="M79.305,69.319c19.112,0,34.66-15.548,34.66-34.66S98.416,0,79.305,0s-34.66,15.548-34.66,34.66   S60.193,69.319,79.305,69.319z"/>
    <path d="m117.373,86.116l-.058-.019-9.892-3.035c-1.56-0.48-3.227,0.346-3.788,1.885l-20.802,57.073c-1.2,3.293-5.857,3.293-7.057,0l-20.801-57.074c-0.453-1.243-1.626-2.022-2.883-2.022-0.298,0-0.601,0.044-0.901,0.136l-9.884,3.032c-12.637,4.211-21.08,15.925-21.08,29.172v60.375c0,0.599 0.175,1.185 0.504,1.686l21.705,33.029v83.572c0,1.697 1.375,3.072 3.072,3.072h67.593c1.697,0 3.072-1.376 3.072-3.072v-83.572l21.704-33.029c0.329-0.501 0.505-1.087 0.505-1.686v-60.533c0.001-13.189-8.475-24.885-21.009-28.99z"/>
    <path d="m86.737,81.472c-0.786-0.856-1.935-1.287-3.098-1.287h-8.67c-1.163,0-2.312,0.431-3.098,1.287-1.217,1.326-1.393,3.241-0.53,4.738l4.635,6.987-2.17,18.302 4.272,11.365c0.417,1.143 2.033,1.143 2.45,0l4.272-11.365-2.17-18.302 4.635-6.987c0.866-1.497 0.689-3.412-0.528-4.738z"/>
  </g>
</svg>
