<?xml version="1.0" encoding="iso-8859-1"?>
<!-- Generator: Adobe Illustrator 16.0.0, SVG Export Plug-In . SVG Version: 6.00 Build 0)  -->
<!DOCTYPE svg PUBLIC "-//W3C//DTD SVG 1.1//EN" "http://www.w3.org/Graphics/SVG/1.1/DTD/svg11.dtd">
<svg version="1.1" id="Capa_1" xmlns="http://www.w3.org/2000/svg" xmlns:xlink="http://www.w3.org/1999/xlink" x="0px" y="0px"
	 width="48.018px" height="48.018px" viewBox="0 0 48.018 48.018" style="enable-background:new 0 0 48.018 48.018;"
	 xml:space="preserve">
<g>
	<g>
		<path d="M47.909,16.105c-0.357-1.061-1.511-1.628-2.569-1.268l-5.048,1.713l-0.715-2.104c-0.357-1.059-1.509-1.626-2.569-1.268
			c-1.061,0.359-1.628,1.51-1.269,2.57l0.713,2.103L10.263,26.74L9.55,24.636c-0.358-1.06-1.504-1.626-2.57-1.269
			c-1.06,0.359-1.628,1.511-1.268,2.57l0.713,2.104l-5.049,1.713c-1.06,0.358-1.628,1.51-1.268,2.569
			c0.286,0.845,1.075,1.376,1.919,1.376c0.216,0,0.436-0.035,0.651-0.108l17.61-5.978v3.448l-1.226,1.251l-2.299-2.141
			c-0.119-0.111-0.282-0.156-0.441-0.127c-0.159,0.03-0.294,0.136-0.362,0.281l-1.831,3.897c-0.074,0.157-0.063,0.341,0.031,0.487
			c0.093,0.146,0.254,0.234,0.428,0.234H30.28c0.175,0,0.337-0.091,0.431-0.237c0.092-0.148,0.102-0.334,0.024-0.492l-2.007-4.087
			c-0.079-0.156-0.239-0.264-0.419-0.277c-0.173-0.005-0.351,0.071-0.453,0.218l-1.378,1.99l-0.109-0.199v-6.308l20.271-6.88
			C47.701,18.317,48.271,17.166,47.909,16.105z"/>
	</g>
</g>
<g>
</g>
<g>
</g>
<g>
</g>
<g>
</g>
<g>
</g>
<g>
</g>
<g>
</g>
<g>
</g>
<g>
</g>
<g>
</g>
<g>
</g>
<g>
</g>
<g>
</g>
<g>
</g>
<g>
</g>
</svg>
