<?xml version="1.0" encoding="iso-8859-1"?>
<!-- Generator: Adobe Illustrator 18.0.0, SVG Export Plug-In . SVG Version: 6.00 Build 0)  -->
<!DOCTYPE svg PUBLIC "-//W3C//DTD SVG 1.1//EN" "http://www.w3.org/Graphics/SVG/1.1/DTD/svg11.dtd">
<svg version="1.1" id="Capa_1" xmlns="http://www.w3.org/2000/svg" xmlns:xlink="http://www.w3.org/1999/xlink" x="0px" y="0px"
	 viewBox="0 0 307.029 307.029" style="enable-background:new 0 0 307.029 307.029;" xml:space="preserve">
<g>
	<path d="M296.838,145.021c5.628,0,10.191-4.564,10.191-10.192c0-5.628-4.564-10.191-10.191-10.191h-2.548V73.678h2.548
		c5.628,0,10.191-4.563,10.191-10.192c0-5.628-4.564-10.191-10.191-10.191h-2.548c0,0,0-30.854,0-30.999
		c0-11.963-39.166-21.658-87.477-21.658c-48.317,0-87.482,9.695-87.482,21.658c0,0.144,0,9.849,0,9.849
		c24.788,1.303,79.41,6.546,79.41,31.342c0,7.418,0,14.827,0,22.295c7.465,3.03,12.74,10.356,12.74,18.896
		c0,8.539-5.275,15.864-12.74,18.896v1.065v20.384v12.102c7.465,3.031,12.74,10.356,12.74,18.896c0,8.539-5.275,15.864-12.74,18.895
		v1.065v20.384v5.623v6.48c7.465,3.03,12.74,10.355,12.74,18.895c0,7.744-4.449,14.313-10.819,17.767
		c2.041,0.034,4.076,0.074,6.151,0.074c48.311,0,87.477-9.694,87.477-21.657v-27.182h2.548c5.628,0,10.191-4.563,10.191-10.192
		c0-5.628-4.564-10.191-10.191-10.191h-2.548v-50.959H296.838z M135.172,23.886c-0.644-0.267-1.064-0.895-1.064-1.592
		c0.001-0.696,0.42-1.325,1.064-1.591c11.001-4.548,35.489-9.874,71.641-9.874c36.148,0,60.635,5.326,71.635,9.874
		c0.644,0.266,1.064,0.895,1.064,1.591c0,0.697-0.42,1.325-1.064,1.592c-11,4.549-35.487,9.875-71.635,9.875
		C170.66,33.761,146.172,28.435,135.172,23.886z"/>
	<path d="M191.097,237.17h-2.548v-50.96h2.548c5.628,0,10.192-4.563,10.192-10.191c0-5.628-4.564-10.191-10.192-10.191h-2.548
		v-50.96h2.548c5.628,0,10.192-4.563,10.192-10.191c0-5.628-4.564-10.191-10.192-10.191h-2.548c0,0,0-30.855,0-30.999
		c0-11.963-39.165-21.658-87.477-21.658c-0.001,0-0.427,0-0.427,0c-48.317,0-87.482,9.695-87.482,21.658c0,0.706,0,30.999,0,30.999
		h-2.971C4.563,94.484,0,99.048,0,104.676c0,5.629,4.563,10.191,10.192,10.191h2.971v50.96h-2.971
		C4.563,165.827,0,170.391,0,176.019c0,5.629,4.563,10.191,10.192,10.191h2.971v50.96h-2.971C4.563,237.17,0,241.733,0,247.361
		c0,5.629,4.563,10.192,10.192,10.192h2.971v27.181c0,11.964,39.593,21.658,87.91,21.658c48.312,0,87.477-9.694,87.477-21.658
		v-27.181h2.548c5.628,0,10.192-4.563,10.192-10.192C201.289,241.733,196.725,237.17,191.097,237.17z M100.645,52.02
		c36.148,0,60.635,5.326,71.636,9.875c0.644,0.266,1.064,0.894,1.064,1.591c0,0.696-0.42,1.325-1.064,1.591
		c-11,4.549-35.488,9.875-71.635,9.875c-36.151,0-60.64-5.326-71.64-9.875c-0.644-0.266-1.064-0.895-1.064-1.591
		c0-0.697,0.42-1.325,1.064-1.591C40.005,57.346,64.493,52.02,100.645,52.02z"/>
</g>
<g>
</g>
<g>
</g>
<g>
</g>
<g>
</g>
<g>
</g>
<g>
</g>
<g>
</g>
<g>
</g>
<g>
</g>
<g>
</g>
<g>
</g>
<g>
</g>
<g>
</g>
<g>
</g>
<g>
</g>
</svg>
