<?xml version="1.0" encoding="iso-8859-1"?>
<!-- Generator: Adobe Illustrator 18.1.1, SVG Export Plug-In . SVG Version: 6.00 Build 0)  -->
<svg xmlns="http://www.w3.org/2000/svg" xmlns:xlink="http://www.w3.org/1999/xlink" version="1.1" id="Capa_1" x="0px" y="0px" viewBox="0 0 16 16" style="enable-background:new 0 0 16 16;" xml:space="preserve" width="512px" height="512px">
<g>
	<path d="M11,4v8c0,1.5-1.5,3-3,3s-3-1.5-3-3V4V3c0-1,1-2,2-2s2,1,2,2v1v6v1c0,0.5-0.5,1-1,1s-1-0.5-1-1V4H6   v7c0,1,1,2,2,2s2-1,2-2v-1V3c0-1.5-1.5-3-3-3S4,1.5,4,3v1v8c0,2,2,4,4,4s4-2,4-4V4H11z" fill="#FFFFFF"/>
</g>
<g>
</g>
<g>
</g>
<g>
</g>
<g>
</g>
<g>
</g>
<g>
</g>
<g>
</g>
<g>
</g>
<g>
</g>
<g>
</g>
<g>
</g>
<g>
</g>
<g>
</g>
<g>
</g>
<g>
</g>
</svg>
