<?xml version="1.0" encoding="iso-8859-1"?>
<!-- Generator: Adobe Illustrator 18.0.0, SVG Export Plug-In . SVG Version: 6.00 Build 0)  -->
<!DOCTYPE svg PUBLIC "-//W3C//DTD SVG 1.1//EN" "http://www.w3.org/Graphics/SVG/1.1/DTD/svg11.dtd">
<svg version="1.1" id="Capa_1" xmlns="http://www.w3.org/2000/svg" xmlns:xlink="http://www.w3.org/1999/xlink" x="0px" y="0px"
	 viewBox="0 0 312 312" style="enable-background:new 0 0 312 312;" xml:space="preserve">
<g>
	<path d="M304.5,32.5H7.5C3.357,32.5,0,35.857,0,40v232c0,4.143,3.357,7.5,7.5,7.5h297c4.143,0,7.5-3.357,7.5-7.5V40
		C312,35.857,308.643,32.5,304.5,32.5z M297,47.5V82H15V47.5H297z M15,264.5V97h282v167.5H15z"/>
	<path d="M156,124.186c-58.67,0-102.585,45.3-104.425,47.229c-2.767,2.898-2.767,7.459,0,10.357C53.415,183.7,97.33,229,156,229
		s102.585-45.3,104.425-47.229c2.767-2.898,2.767-7.459,0-10.357C258.585,169.485,214.67,124.186,156,124.186z M155.999,206.721
		c-16.501,0-29.926-13.516-29.926-30.128s13.425-30.127,29.926-30.127c16.502,0,29.928,13.515,29.928,30.127
		S172.501,206.721,155.999,206.721z M125.013,143.965c-8.578,8.223-13.939,19.805-13.939,32.628c0,12.823,5.36,24.404,13.938,32.628
		c-26.652-8.06-47.559-24.297-57.039-32.628C77.456,168.26,98.362,152.023,125.013,143.965z M186.988,209.221
		c8.578-8.224,13.939-19.805,13.939-32.628c0-12.823-5.361-24.405-13.941-32.628c26.653,8.059,47.562,24.297,57.042,32.628
		C234.544,184.926,213.638,201.162,186.988,209.221z"/>
	<path d="M156,160.685c-8.696,0-15.772,7.137-15.772,15.908c0,8.77,7.075,15.906,15.772,15.906c8.696,0,15.771-7.136,15.771-15.906
		C171.771,167.821,164.696,160.685,156,160.685z"/>
	<path d="M40.497,72c1.979,0,3.91-0.8,5.309-2.2c1.391-1.4,2.191-3.33,2.191-5.3c0-1.971-0.8-3.91-2.191-5.3
		c-1.399-1.4-3.33-2.2-5.309-2.2c-1.971,0-3.91,0.8-5.3,2.2c-1.4,1.39-2.2,3.319-2.2,5.3c0,1.979,0.8,3.91,2.2,5.3
		C36.597,71.2,38.526,72,40.497,72z"/>
	<path d="M73.497,72c1.979,0,3.91-0.8,5.31-2.2c1.391-1.4,2.19-3.33,2.19-5.3c0-1.971-0.8-3.91-2.19-5.3
		c-1.399-1.4-3.33-2.2-5.31-2.2c-1.971,0-3.91,0.8-5.3,2.2c-1.4,1.39-2.2,3.319-2.2,5.3c0,1.979,0.8,3.91,2.2,5.3
		C69.597,71.2,71.526,72,73.497,72z"/>
	<path d="M106.497,72c1.979,0,3.91-0.8,5.31-2.2c1.391-1.4,2.19-3.33,2.19-5.3c0-1.971-0.8-3.91-2.19-5.3
		c-1.399-1.4-3.33-2.2-5.31-2.2c-1.971,0-3.91,0.8-5.3,2.2c-1.4,1.39-2.2,3.319-2.2,5.3c0,1.979,0.8,3.91,2.2,5.3
		C102.597,71.2,104.526,72,106.497,72z"/>
</g>
<g>
</g>
<g>
</g>
<g>
</g>
<g>
</g>
<g>
</g>
<g>
</g>
<g>
</g>
<g>
</g>
<g>
</g>
<g>
</g>
<g>
</g>
<g>
</g>
<g>
</g>
<g>
</g>
<g>
</g>
</svg>
