<?xml version="1.0" encoding="iso-8859-1"?>
<!-- Generator: Adobe Illustrator 16.0.0, SVG Export Plug-In . SVG Version: 6.00 Build 0)  -->
<!DOCTYPE svg PUBLIC "-//W3C//DTD SVG 1.1//EN" "http://www.w3.org/Graphics/SVG/1.1/DTD/svg11.dtd">
<svg version="1.1" id="Capa_1" xmlns="http://www.w3.org/2000/svg" xmlns:xlink="http://www.w3.org/1999/xlink" x="0px" y="0px"
	 width="64.677px" height="64.677px" viewBox="0 0 64.677 64.677" style="enable-background:new 0 0 64.677 64.677;"
	 xml:space="preserve">
<g>
	<g>
		<rect x="40.088" y="11.522" width="5.948" height="2.266"/>
		<rect x="40.088" y="15.032" width="5.948" height="2.267"/>
		<rect x="40.088" y="18.542" width="5.948" height="2.267"/>
		<rect x="40.088" y="22.051" width="5.948" height="2.267"/>
		<rect x="40.088" y="25.562" width="5.948" height="2.267"/>
		<rect x="40.088" y="29.07" width="5.948" height="2.267"/>
		<rect x="47.365" y="15.032" width="5.947" height="2.267"/>
		<rect x="47.365" y="18.542" width="5.947" height="2.267"/>
		<rect x="47.365" y="22.051" width="5.947" height="2.267"/>
		<rect x="47.365" y="25.562" width="5.947" height="2.267"/>
		<rect x="47.365" y="29.07" width="5.947" height="2.267"/>
		<rect x="54.597" y="22.051" width="5.948" height="2.267"/>
		<rect x="54.597" y="25.562" width="5.948" height="2.267"/>
		<rect x="54.597" y="29.07" width="5.948" height="2.267"/>
		<rect x="32.832" y="18.542" width="5.948" height="2.267"/>
		<rect x="32.832" y="22.051" width="5.948" height="2.267"/>
		<rect x="32.832" y="25.562" width="5.948" height="2.267"/>
		<rect x="32.832" y="29.07" width="5.948" height="2.267"/>
		<rect x="25.573" y="4.502" width="5.948" height="2.267"/>
		<rect x="25.573" y="8.012" width="5.948" height="2.267"/>
		<rect x="25.573" y="11.522" width="5.948" height="2.266"/>
		<rect x="25.573" y="15.032" width="5.948" height="2.267"/>
		<rect x="25.573" y="18.542" width="5.948" height="2.267"/>
		<rect x="25.573" y="22.051" width="5.948" height="2.267"/>
		<rect x="25.573" y="25.562" width="5.948" height="2.267"/>
		<rect x="25.573" y="29.07" width="5.948" height="2.267"/>
		<rect x="18.316" y="15.032" width="5.948" height="2.267"/>
		<rect x="18.316" y="18.542" width="5.948" height="2.267"/>
		<rect x="18.316" y="22.051" width="5.948" height="2.267"/>
		<rect x="18.316" y="25.562" width="5.948" height="2.267"/>
		<rect x="18.316" y="29.07" width="5.948" height="2.267"/>
		<rect x="11.101" y="22.051" width="5.948" height="2.267"/>
		<rect x="11.101" y="25.562" width="5.948" height="2.267"/>
		<rect x="11.101" y="29.07" width="5.948" height="2.267"/>
		<rect x="3.888" y="25.562" width="5.948" height="2.267"/>
		<rect x="3.888" y="29.07" width="5.948" height="2.267"/>
		<rect x="40.088" y="50.888" width="5.948" height="2.267"/>
		<rect x="40.088" y="47.379" width="5.948" height="2.266"/>
		<rect x="40.088" y="43.869" width="5.948" height="2.268"/>
		<rect x="40.088" y="40.36" width="5.948" height="2.267"/>
		<rect x="40.088" y="36.85" width="5.948" height="2.267"/>
		<rect x="47.365" y="47.379" width="5.947" height="2.266"/>
		<rect x="47.365" y="43.869" width="5.947" height="2.268"/>
		<rect x="47.365" y="40.36" width="5.947" height="2.267"/>
		<rect x="47.365" y="36.85" width="5.947" height="2.267"/>
		<rect x="54.597" y="40.36" width="5.948" height="2.267"/>
		<rect x="54.597" y="36.85" width="5.948" height="2.267"/>
		<rect x="32.832" y="43.869" width="5.948" height="2.268"/>
		<rect x="32.832" y="40.36" width="5.948" height="2.267"/>
		<rect x="32.832" y="36.85" width="5.948" height="2.267"/>
		<rect x="25.573" y="57.908" width="5.948" height="2.268"/>
		<rect x="25.573" y="54.398" width="5.948" height="2.267"/>
		<rect x="25.573" y="50.888" width="5.948" height="2.267"/>
		<rect x="25.573" y="47.379" width="5.948" height="2.266"/>
		<rect x="25.573" y="43.869" width="5.948" height="2.268"/>
		<rect x="25.573" y="40.36" width="5.948" height="2.267"/>
		<rect x="25.573" y="36.85" width="5.948" height="2.267"/>
		<rect x="18.316" y="47.379" width="5.948" height="2.266"/>
		<rect x="18.316" y="43.869" width="5.948" height="2.268"/>
		<rect x="18.316" y="40.36" width="5.948" height="2.267"/>
		<rect x="18.316" y="36.85" width="5.948" height="2.267"/>
		<rect x="11.101" y="40.36" width="5.948" height="2.267"/>
		<rect x="11.101" y="36.85" width="5.948" height="2.267"/>
		<rect x="3.888" y="36.85" width="5.948" height="2.267"/>
		<polygon points="0,33.444 3.888,33.444 3.888,35.606 9.835,35.606 9.835,33.444 11.101,33.444 11.101,35.606 17.049,35.606 
			17.049,33.444 18.316,33.444 18.316,35.606 24.264,35.606 24.264,33.444 25.573,33.444 25.573,35.606 31.522,35.606 
			31.522,33.444 32.832,33.444 32.832,35.606 38.78,35.606 38.78,33.444 40.088,33.444 40.088,35.606 46.037,35.606 46.037,33.444 
			47.365,33.444 47.365,35.606 53.314,35.606 53.314,33.444 54.597,33.444 54.597,35.606 60.546,35.606 60.546,33.444 
			64.677,33.444 64.677,31.36 0,31.36 		"/>
	</g>
</g>
<g>
</g>
<g>
</g>
<g>
</g>
<g>
</g>
<g>
</g>
<g>
</g>
<g>
</g>
<g>
</g>
<g>
</g>
<g>
</g>
<g>
</g>
<g>
</g>
<g>
</g>
<g>
</g>
<g>
</g>
</svg>
