<?xml version="1.0" encoding="utf-8"?>
<!-- Generator: Adobe Illustrator 16.0.0, SVG Export Plug-In . SVG Version: 6.00 Build 0)  -->
<!DOCTYPE svg PUBLIC "-//W3C//DTD SVG 1.1//EN" "http://www.w3.org/Graphics/SVG/1.1/DTD/svg11.dtd">
<svg version="1.1" id="Layer_1" xmlns="http://www.w3.org/2000/svg" xmlns:xlink="http://www.w3.org/1999/xlink" x="0px" y="0px"
	 width="283.46px" height="560px" viewBox="0 0 283.46 560" enable-background="new 0 0 283.46 560" xml:space="preserve">
<g id="colour">
	<path d="M129.77,500.41c3.17,2.66,10.33-0.5,10.33-0.5l0.31-0.42c0.84,0.85,2.53,3.04,2.53,6.92c0,5.16-0.34,10.66-0.34,10.66
		s-2.83,1.84-4.66,2c-1.84,0.17-3.92-7.08-8.42-1.08c-0.71,0.95-1.9,3.75-1.9,3.75s-10.55,3.59-18.27,2.75c0,0-5.42-1.92-5.33-6.5
		c0.08-4.58,3.25-7.42,8.08-8.58c4.84-1.17,7.5-1.17,11-3.5c2.52-1.68,4.86-4.3,5.98-5.65L129.77,500.41z"/>
	<path d="M182.93,510.91c4,4.67,3,8.66,1.34,11c-1.67,2.33-12.67,4.33-21.34,0.33c0,0-3-7.67-7-6.33c-4,1.33-3,4.33-3,4.33l-5-1.66
		c0,0-0.489-1.51-0.989-6.01c-0.551-6.48,1.869-10.57,2.72-11.78l0.28,0.12c3.329,4.33,10.659,1.16,10.659,1.16l0.561-0.28
		c0.99,1.61,2.63,2.56,4.939,3.45C172.1,507.57,178.93,506.24,182.93,510.91z"/>
	<path d="M160.53,113.61c1.239-0.19,1.729,1.41,0.47,1.53C159.74,115.26,158.96,113.84,160.53,113.61z"/>
	<path d="M132.55,114.42c1.31-0.26,2,1.4,0.67,1.56C131.88,116.15,130.88,114.75,132.55,114.42z"/>
	<path fill="#FFFFFF" d="M160.53,113.61c-1.57,0.23-0.79,1.65,0.47,1.53C162.26,115.02,161.77,113.42,160.53,113.61z M157.69,112.82
		c1.02-1.64,3.59-2.02,5.59-1.71c1.989,0.3,3.43,2.93,3.84,4.47c0.09-0.04-2.41,0.13-4.53,0.28c-2.13,0.14-5.53-0.19-5.53-0.19
		l-0.239-0.02C156.9,114.58,157.17,113.61,157.69,112.82z"/>
	<path fill="#FFFFFF" d="M132.55,114.42c-1.67,0.33-0.67,1.73,0.67,1.56C134.55,115.82,133.86,114.16,132.55,114.42z M139.96,116.42
		c0,0-2.62,0.19-5.62,0.44s-6.69-0.38-6.69-0.38s2.51-4.69,6.13-4.94c3.38,0.2,5.93,1.9,6.32,4.86L139.96,116.42z"/>
	<path fill="#FFD836" d="M125.48,144.27c1.96,3.7-0.11,7.55-1.52,8.4l0.25,0.78c-2.41,0.78-5.25,1.17-8.04-2.23
		c-2.5-3.03-0.91-6.56-0.31-7.64l0.85,0.09c0.5-0.7,1.69-1.34,3.06-1.61C121.84,141.65,124.31,142.05,125.48,144.27z"/>
	<path fill="#FFD836" d="M171.95,136.17c1.77-0.36,2.88,0.85,3,0.99l0.5-0.01c0.95,1.64,1.89,4.5,0.01,7.26
		c-2.36,3.48-5.979,2.37-5.979,2.37s-0.101,0.2-0.29,0.57l-0.61-0.34c1.11-2.74,2.1-6.71,2.95-10.92L171.95,136.17z"/>
	<path fill="#6D6058" d="M172.47,432.52l0.061,0.391c0,0-8.601,40-11.261,53.67c-1.64,8.41-1.71,12.65-0.109,15.21l-0.561,0.28
		c0,0-7.33,3.17-10.659-1.16l-0.28-0.12c0.17-0.25,0.28-0.38,0.28-0.38l0.76-66.34v-0.16c1.189,0.01,2.41,0.01,3.649,0
		C161.05,433.86,167.09,433.33,172.47,432.52z"/>
	<path fill="#6D6058" d="M140.71,433.63l-0.01,0.28l-0.76,65.16c0,0,0.19,0.13,0.47,0.42l-0.31,0.42c0,0-7.16,3.16-10.33,0.5
		l-0.69-0.15c0.44-0.52,0.69-0.85,0.69-0.85s-7.07-43.67-9.74-67.84l0.01-0.07C125.9,432.44,132.71,433.23,140.71,433.63z"/>
	<path fill="#EAD2C3" d="M183.7,280.82c-2.17,0.17-5.5,1.331-5.5,1.331l-0.12,0.06c-0.86-1.77-1.93-4.24-2.55-6.73
		c-1.17-4.66,0.71-8.2,0.71-8.2l-0.37-0.46c0,0,1.66-2.83,6.33-6.79c5.67-5,3.33-8.38,7.08-7.05c3.67,1.31-0.07,9.89-0.23,10.26
		c0.3-0.13,6.311-2.81,9.32-4.76c2.939-1.9,5.43-3.89,7.17-4.07c0.08-0.01,0.16-0.01,0.24-0.01c0,0,2,1.75,1.5,3.75
		c0,0,1.46,0.88,1.46,2.88s-0.71,2.79-0.71,2.79s0.75,1.41,0.75,2.66s-1.29,2.96-1.29,2.96s0.31,0.96-1.19,3.71
		c-1.03,1.72-2.569,3.3-4.95,4.59c-2.899,1.58-7.029,2.74-12.939,3.24c0,0-2.561,0.15-4.62,0.46L183.7,280.82z"/>
	<path fill="#59253C" d="M143.47,202.33c1.5-1.3,3.311-2.47,3.311-2.47l-0.08-0.09l0.58-0.54c0,0,1.75,1.38,3,5.38v0.01
		c2.97-1.75,5.92-3.95,8.13-4.76c3.75-1.38,6.75-2.13,6.75-2.13l0.5-0.43l-0.88-3.69c0,0,2.2-5.32,3.13-9.25
		c0,0,0.99-2.72,2.01-5.21l0.07,0.03c5.45,2.31,11.58,7.07,15.95,17.39c6.5,15.36,18.75,42.75,19.6,57.84
		c-1.74,0.18-4.23,2.17-7.17,4.07c-3.01,1.95-9.021,4.63-9.32,4.76c0.16-0.37,3.9-8.95,0.23-10.26c-3.75-1.33-1.41,2.05-7.08,7.05
		c-4.67,3.96-6.33,6.79-6.33,6.79s-0.83-0.3-3.561-2.06c-0.01,0-0.029-0.01-0.05-0.02c-0.13-0.09-0.26-0.17-0.39-0.26
		c-0.61-0.44-1.23-0.77-1.851-0.99c0,0,0,0-0.01-0.01c-3.89-2.51-7.39-6.87-10.229-16c-0.54-1.72-1.11-3.44-1.71-5.13
		c-3.29-9.36-7.25-17.96-9.16-22.62c-0.79-1.91-2.101-3.93-3.48-5.75c-2.58-3.41-5.4-6.12-5.4-6.12s0.63-2,1.75-3.75
		C142.14,203.56,142.77,202.93,143.47,202.33z"/>
	<path fill="#59253C" d="M158.9,265.16l-0.87-22.8l0.04-0.01c0.6,1.69,1.17,3.41,1.71,5.13c2.84,9.13,6.34,13.49,10.229,16
		c-4.49-1.67-9.06,1.67-9.06,1.67S160.17,265.16,158.9,265.16z"/>
	<path fill="#59253C" d="M147.28,264.61l-0.011,0.49c4.211,0.09,8.98,0.08,11.631,0.06c1.27,0,2.05-0.01,2.05-0.01
		s4.569-3.34,9.06-1.67c0.01,0.01,0.01,0.01,0.01,0.01c0.74,0.48,1.48,0.89,2.24,1.25c0.021,0.01,0.04,0.02,0.05,0.02
		c2.73,1.76,3.561,2.06,3.561,2.06l0.37,0.46c0,0-1.88,3.54-0.71,8.2c0.62,2.49,1.689,4.96,2.55,6.73l0.12-0.06
		c0,0,3.33-1.16,5.5-1.331l0.09,0.621c-0.56,0.09-1.08,0.18-1.51,0.29c0,0,2.25,4.5,0.75,6c-1.44,1.439-7.471,1.5-23.38,5.239
		c-0.69,0.17-1.391,0.33-2.12,0.511c-3.261,0.789-6.74,1.17-10.28,1.229c-15.43,0.271-31.95-5.43-36.22-8.479
		c-5.25-3.75-6-8.07-6-8.07s-1.93-4.76-4.75-14.93c-2.05-7.38-4.42-14.06-5.63-24.27c-0.46-3.86-0.75-8.21-0.8-13.3
		c0.35-25.51,11.63-41.38,20.38-45.38c7.67-3.51,12.06-4.13,15.04-5.25c-0.01,1.3,0.19,11.68,8.26,20.45
		c2.99,2.33,4.84,1.84,5.94,6.85c-0.7,0.6-1.33,1.23-1.69,1.78c-1.12,1.75-1.75,3.75-1.75,3.75s2.82,2.71,5.4,6.12
		c0.7,4.18,0.73,6.58,0.98,13.88C146.66,235.23,147.53,243.36,147.28,264.61z"/>
	<path fill="#59253C" d="M201.35,277.74c0.11,0.85,5.24,42.72,4.25,71.92c-1,29.5-2,40.25-2,40.25l-2.869,3.62
		c-11.54,2.96-29.131,3.71-32.461,0.04c-2.02-2.66-3.739-6.34-5.489-25.84c-1.08-12.11-2.32-48.65-3.09-74.58l-0.04-0.181
		c15.909-3.739,21.939-3.8,23.38-5.239c1.5-1.5-0.75-6-0.75-6c0.43-0.11,0.95-0.2,1.51-0.29c2.06-0.311,4.62-0.46,4.62-0.46
		C194.32,280.48,198.45,279.32,201.35,277.74z"/>
	<path fill="#59253C" d="M76.85,372.16c1.25-18,16.93-112.18,17.68-133.18l0.12-0.02c1.21,10.21,3.58,16.89,5.63,24.27
		c2.82,10.17,4.75,14.93,4.75,14.93s0.75,4.32,6,8.07c4.27,3.05,20.79,8.75,36.22,8.479v0.1c-0.34,18.07-0.94,39.891-1.97,52.921
		c-2,25.25-2.221,26.97-2.221,26.97s-1.129,10.21-5.29,15.87s-15.74,7.92-55.69,1.689c0.01-0.12,0.01-0.229,0.02-0.35
		C82.1,391.91,75.6,390.16,76.85,372.16z"/>
	<path fill="#D67F58" d="M157.53,293.48c0.729-0.181,1.43-0.341,2.12-0.511l0.04,0.181c0.77,25.93,2.01,62.47,3.09,74.58
		c1.75,19.5,3.47,23.18,5.489,25.84c3.33,3.67,20.921,2.92,32.461-0.04c0,0,0.619,18.63,4.619,27.63c0,0-10.96,8.06-32.88,11.359
		c-5.38,0.811-11.42,1.341-18.12,1.391c-1.239,0.01-2.46,0.01-3.649,0c-3.53-0.021-6.851-0.12-9.99-0.28
		c-8-0.399-14.81-1.189-20.67-2.13c-12.48-2.03-20.68-4.78-26.94-6.09c-10.75-2.25-18.25-3.75-18.25-3.75s6.6-18.83,7.23-29.4
		c39.95,6.23,51.53,3.971,55.69-1.689s5.29-15.87,5.29-15.87s0.221-1.72,2.221-26.97c1.029-13.03,1.63-34.851,1.97-52.921v-0.1
		C150.79,294.65,154.27,294.27,157.53,293.48z"/>
	<path fill="#D67F58" d="M158.03,242.36l0.87,22.8c-2.65,0.02-7.42,0.03-11.631-0.06l0.011-0.49c0.25-21.25-0.62-29.38-0.87-36.75
		c-0.25-7.3-0.28-9.7-0.98-13.88c1.38,1.82,2.69,3.84,3.48,5.75c1.91,4.66,5.87,13.26,9.16,22.62L158.03,242.36z"/>
	<path fill="#D67F58" d="M130.45,174.53c1.11-0.56,2.08-1.91,2.82-3.56l0.06,0.03l1.99,2.32c-0.38,0.54-0.71,1.28-0.85,2.29
		c-0.69,2.56,2.81,15.75,8.69,20.37l3.54,3.79l0.08,0.09c0,0-1.811,1.17-3.311,2.47c-1.1-5.01-2.95-4.52-5.94-6.85
		c-8.07-8.77-8.27-19.15-8.26-20.45C129.69,174.88,130.08,174.71,130.45,174.53z"/>
	<path fill="#EAD2C3" d="M138.71,165.67c0.87,0.78,2.07,1.92,2.07,1.92l0.06,0.33c-0.28,0.04-0.56,0.1-0.81,0.19
		c-1.37,0.5-2.69,3.81-2.69,3.81s-1.15,0.21-2.02,1.4l-1.99-2.32l-0.06-0.03c1.25-2.79,1.88-6.42,1.57-8.46l0.14-0.16
		C136.54,163.73,137.9,164.93,138.71,165.67z"/>
	<path fill="#EAD2C3" d="M158.41,199.86c-2.21,0.81-5.16,3.01-8.13,4.76v-0.01c-1.25-4-3-5.38-3-5.38l-0.58,0.54l-3.54-3.79
		c-5.88-4.62-9.38-17.81-8.69-20.37c0.14-1.01,0.47-1.75,0.85-2.29c0.87-1.19,2.02-1.4,2.02-1.4s1.32-3.31,2.69-3.81
		c0.25-0.09,0.53-0.15,0.81-0.19c1.27-0.19,2.69,0.06,2.69,0.06s0.88-2,2.5-2.62c1.63-0.63,4.13,0.25,4.13,0.25
		s-0.63-4.46-1.21-7.63c-0.59-3.16-2.2-13.32-2.2-13.32s0.99-1.84,2.82-1.88c1.84-0.05,2.84,1.52,2.84,1.52s1.62,8.06,3.37,15.68
		c0.84,3.64,1.7,6.62,2.609,9.11c0.99,2.73,2.03,4.86,3.141,6.61c1.72-2.97,5-6.84,7.88-8.09c2.87-1.25,4.81,1.94,4.81,1.94
		s-1.939,4.43-3.189,7.06c-0.34,0.71-0.73,1.61-1.11,2.54c-1.02,2.49-2.01,5.21-2.01,5.21c-0.93,3.93-3.13,9.25-3.13,9.25l0.88,3.69
		l-0.5,0.43C165.16,197.73,162.16,198.48,158.41,199.86z"/>
	<path fill="#EAD2C3" d="M117.1,117.53c0,0,1.6,18.21,2.6,24.21l0.07,0.32c-1.37,0.27-2.56,0.91-3.06,1.61l-0.85-0.09
		c0.11-0.21,0.19-0.33,0.19-0.33s-4.67-6.17-6.67-9.33c-2-3.17-7.16-8.5-2.83-15.5c4.03-6.52,9.04-1.82,9.71-1.16
		c0.01,0.02,0.01,0.02,0.01,0.02c0.05,0.08,0.08,0.12,0.08,0.12L117.1,117.53z"/>
	<path fill="#EAD2C3" d="M171.53,136.09c2-10,3.18-21.42,3.18-21.42l0.71-0.71c2.34-1.67,4.67-1.04,5.92,2.21s-2.08,7.58-3.75,12.08
		s-2.5,6.29-2.83,7.88c0.2,0.24,0.44,0.59,0.69,1.02l-0.5,0.01c-0.12-0.14-1.23-1.35-3-0.99L171.53,136.09z"/>
	<path fill="#EAD2C3" d="M156.31,133.57c0,0,1.421,0.21,2.65,1.85c0.75,3-2.5,4.5-2.5,4.5l-1.31-1.81c0,0,0.38-0.9-0.62-0.26
		l-0.09-0.12c0.84-0.63,1.56-1.24,1.859-1.7c0.33-0.5,0.24-1.4-0.05-2.44L156.31,133.57z"/>
	<path fill="#EAD2C3" d="M156.82,115.65l0.239,0.02c0,0,3.4,0.33,5.53,0.19c2.12-0.15,4.62-0.32,4.53-0.28
		c-0.41-1.54-1.851-4.17-3.84-4.47c-2-0.31-4.57,0.07-5.59,1.71C157.17,113.61,156.9,114.58,156.82,115.65z M118.05,107.24
		c15.22-10.35,13.33-21.66,13.33-21.66c18.67,15.67,42.34,15.67,42.34,15.67l1.33,9.67l0.37,3.04l-0.71,0.71
		c0,0-1.18,11.42-3.18,21.42c-0.851,4.21-1.84,8.18-2.95,10.92l0.61,0.34c-0.561,1.1-1.9,3.68-3.591,6.73
		c-2.25,4.08-4.88,7.17-4.88,7.17c-0.3,1.33-0.89,4.72-2.189,7.79l-0.141,0.05c-0.909-2.49-1.77-5.47-2.609-9.11
		c-1.75-7.62-3.37-15.68-3.37-15.68s-1-1.57-2.84-1.52c-1.83,0.04-2.82,1.88-2.82,1.88s1.61,10.16,2.2,13.32
		c0.58,3.17,1.21,7.63,1.21,7.63s-2.5-0.88-4.13-0.25c-1.62,0.62-2.5,2.62-2.5,2.62s-1.42-0.25-2.69-0.06l-0.06-0.33
		c0,0-1.2-1.14-2.07-1.92c-0.81-0.74-2.17-1.94-3.73-3.32c-3.75-3.31-8.69-7.63-10.26-9.07c-0.17,0.06-0.34,0.11-0.51,0.17
		l-0.25-0.78c1.41-0.85,3.48-4.7,1.52-8.4c-1.17-2.22-3.64-2.62-5.71-2.21l-0.07-0.32c-1-6-2.6-24.21-2.6-24.21l-0.75-0.13
		L118.05,107.24z M140.1,116.4c-0.39-2.96-2.94-4.66-6.32-4.86c-3.62,0.25-6.13,4.94-6.13,4.94s3.69,0.63,6.69,0.38
		s5.62-0.44,5.62-0.44L140.1,116.4z M154.44,137.73l0.09,0.12c1-0.64,0.62,0.26,0.62,0.26l1.31,1.81c0,0,3.25-1.5,2.5-4.5
		c-1.229-1.64-2.65-1.85-2.65-1.85l-0.06,0.02c0.29,1.04,0.38,1.94,0.05,2.44C156,136.49,155.28,137.1,154.44,137.73z"/>
	<path fill="#DDE3F2" d="M173.72,101.25c0,0-23.67,0-42.34-15.67c0,0,1.89,11.31-13.33,21.66l-1.7,10.16c0,0-0.03-0.04-0.08-0.12
		c0,0,0,0-0.01-0.02c-0.9-1.41-8.26-13.3-13.88-32.67c-6-20.67,8.34-33.34,24-30.34c0,0,5.34-10,15.67-15c10.33-5,28.67,2,40,14.34
		c11.33,12.33,9.67,32.33,1.33,42.33c0,0-6.53,4.49-8.33,15L173.72,101.25z"/>
</g>
<g>
	<path fill="none" stroke="#000000" stroke-width="3" stroke-linecap="round" stroke-linejoin="round" stroke-miterlimit="10" d="
		M131.383,85.585c0,0,1.887,11.305-13.334,21.654l-1.695,10.158c0,0-7.971-12.145-13.971-32.811s8.334-33.334,24-30.334
		c0,0,5.334-10,15.668-15c10.332-5,28.666,2,40,14.334c11.332,12.334,9.666,32.334,1.332,42.334c0,0-6.529,4.484-8.332,15
		l-1.334-9.668C173.717,101.253,150.049,101.251,131.383,85.585z"/>
	<path fill="none" stroke="#000000" stroke-width="1.5" stroke-linecap="round" stroke-linejoin="round" stroke-miterlimit="10" d="
		M133.051,85.921c0,0,17.531,8.43,29.666,7.332c12.137-1.098,18.666-5.332,17-19.332s-13.648-16.733-17-14.334s-3.666,6.666,0,9.666
		s7-1,6.666-3.666"/>
	<path fill="none" stroke="#000000" stroke-width="3" stroke-linecap="round" stroke-linejoin="round" stroke-miterlimit="10" d="
		M140.782,167.588c0,0-1.207-1.137-2.067-1.919c-2.75-2.5-11.767-10.35-13.998-12.389c-2.519,0.872-5.559,1.582-8.545-2.057
		c-2.988-3.637-0.123-7.971-0.123-7.971s-4.666-6.168-6.666-9.336c-2-3.166-7.166-8.5-2.834-15.5c4.334-7,9.788-1.069,9.788-1.069"
		/>
	<path fill="none" stroke="#000000" stroke-width="3" stroke-linecap="round" stroke-linejoin="round" stroke-miterlimit="10" d="
		M175.051,110.921l0.373,3.039c2.334-1.666,4.666-1.041,5.916,2.209s-2.082,7.582-3.75,12.082c-1.666,4.5-2.5,6.293-2.834,7.877
		c0.959,1.166,3.072,4.791,0.709,8.277c-2.361,3.486-5.986,2.375-5.986,2.375s-1.625,3.234-3.875,7.305s-4.887,7.168-4.887,7.168
		c-0.292,1.327-0.891,4.714-2.188,7.784"/>
	<path fill="none" stroke="#000000" stroke-width="1.5" stroke-linecap="round" stroke-linejoin="round" stroke-miterlimit="10" d="
		M123.965,152.669c1.4-0.85,3.472-4.695,1.52-8.397s-7.52-2.353-8.77-0.603"/>
	<path fill="none" stroke="#000000" stroke-width="1.5" stroke-linecap="round" stroke-linejoin="round" stroke-miterlimit="10" d="
		M117.104,117.53c0,0,1.595,18.206,2.595,24.206"/>
	<path fill="none" stroke="#000000" stroke-width="1.5" stroke-linecap="round" stroke-linejoin="round" stroke-miterlimit="10" d="
		M118.715,136.669c0,0-4.25-1.5-4.25-4.75s1.75-5.25,0-9.25s-3.375-3.625-5.375-2.625"/>
	<path fill="none" stroke="#000000" stroke-width="1.5" stroke-linecap="round" stroke-linejoin="round" stroke-miterlimit="10" d="
		M174.715,114.669c0,0-2.385,23.09-6.135,32.34"/>
	<path fill="none" stroke="#000000" stroke-width="1.5" stroke-linecap="round" stroke-linejoin="round" stroke-miterlimit="10" d="
		M174.965,137.169c0,0-1.142-1.375-3.017-1"/>
	<path fill="none" stroke="#000000" stroke-width="1.5" stroke-linecap="round" stroke-linejoin="round" stroke-miterlimit="10" d="
		M178.59,117.544c0,0-3.308-0.312-5.058,7.188"/>
	<path fill="none" stroke="#000000" stroke-width="1.5" stroke-linecap="round" stroke-linejoin="round" stroke-miterlimit="10" d="
		M126.219,106.923c7.813-3.813,12.429-1.938,14.621-3.438"/>
	<path fill="none" stroke="#000000" stroke-width="1.5" stroke-linecap="round" stroke-linejoin="round" stroke-miterlimit="10" d="
		M139.965,116.419c0,0-2.625,0.19-5.625,0.44s-6.688-0.378-6.688-0.378s2.505-4.688,6.13-4.938c4.25,0.25,7.183,2.875,6.183,7.375
		s-3.5,8.5-6,10.75"/>
	<path fill="none" stroke="#000000" stroke-width="3" stroke-linecap="round" stroke-linejoin="round" stroke-miterlimit="10" d="
		M132.549,114.421c1.309-0.261,2.002,1.397,0.668,1.563C131.885,116.15,130.883,114.754,132.549,114.421z"/>
	<path fill="none" stroke="#000000" stroke-linecap="round" stroke-linejoin="round" stroke-miterlimit="10" d="M121.965,118.169
		c0,0,2-1.75,3.25-1.5"/>
	<path fill="none" stroke="#000000" stroke-width="1.5" stroke-linecap="round" stroke-linejoin="round" stroke-miterlimit="10" d="
		M168.907,106.109c-5.25-6.5-14.751-1.875-14.751-1.875"/>
	<path fill="none" stroke="#000000" stroke-width="1.5" stroke-linecap="round" stroke-linejoin="round" stroke-miterlimit="10" d="
		M157.057,115.669c0,0,3.408,0.335,5.533,0.19s4.625-0.315,4.535-0.28c-0.41-1.535-1.851-4.171-3.847-4.474
		s-4.565,0.073-5.587,1.712c-2.127,3.25-0.162,9.602,2.438,13.102"/>
	<path fill="none" stroke="#000000" stroke-width="3" stroke-linecap="round" stroke-linejoin="round" stroke-miterlimit="10" d="
		M160.532,113.609c1.234-0.186,1.732,1.414,0.473,1.531C159.743,115.258,158.956,113.844,160.532,113.609z"/>
	<path fill="none" stroke="#000000" stroke-linecap="round" stroke-linejoin="round" stroke-miterlimit="10" d="M168.994,116.169
		c0,0,1.891,0.5,2.658,1.938"/>
	<path fill="none" stroke="#000000" stroke-width="1.5" stroke-linecap="round" stroke-linejoin="round" stroke-miterlimit="10" d="
		M144.965,128.919c0,0-0.375-4.625,0.375-8.125s0.875-8.889,0.875-8.889"/>
	<path fill="none" stroke="#000000" stroke-width="1.5" stroke-linecap="round" stroke-linejoin="round" stroke-miterlimit="10" d="
		M151.354,111.53c0,0,0.75,7,2.861,10.639c0,0-0.25,4.25,0,5.75s3.082,6.611,2.082,8.111s-6.381,4.688-6.381,4.688
		s-3.951-3.049-5.701-3.799"/>
	<path fill="none" stroke="#000000" stroke-width="1.5" stroke-linecap="round" stroke-linejoin="round" stroke-miterlimit="10" d="
		M154.533,137.851c1-0.639,0.619,0.256,0.619,0.256l1.312,1.812c0,0,3.25-1.5,2.5-4.5c-1.236-1.639-2.65-1.85-2.65-1.85"/>
	<path fill="none" stroke="#000000" stroke-width="1.5" stroke-linecap="round" stroke-linejoin="round" stroke-miterlimit="10" d="
		M144.916,137.718c0,0-1.451,0.201-1.951,2.451s-2.25,1-3.5-0.25s1-5.75,1-5.75"/>
	<path fill="none" stroke="#000000" stroke-width="1.5" stroke-linecap="round" stroke-linejoin="round" stroke-miterlimit="10" d="
		M139.09,138.856c0,0-0.375,5.062-6.625,8.562"/>
	<path fill="none" stroke="#000000" stroke-width="1.5" stroke-linecap="round" stroke-linejoin="round" stroke-miterlimit="10" d="
		M136.532,144.422c1.836,1.315,5.931,1.609,10.125,1.693"/>
	<path fill="none" stroke="#000000" stroke-width="1.5" stroke-linecap="round" stroke-linejoin="round" stroke-miterlimit="10" d="
		M153.158,146.195c2.74,0.068,4.895,0.262,5.57,0.914c0,0,0.429,1.25-0.071,2.625"/>
	<path fill="none" stroke="#000000" stroke-width="3" stroke-linecap="round" stroke-linejoin="round" stroke-miterlimit="10" d="
		M115.157,207.817c-1.75,9.75,8.946,36.838,8.946,36.838s3.429,5.329,5.429,10.079s1.571,8.421,1.571,8.421s8.68,1.748,15.096,1.915
		s14.75,0.08,14.75,0.08s5.916-4.334,10.916-0.667c3.084,2.004,4.001,2.334,4.001,2.334s1.666-2.83,6.333-6.79
		c5.667-4.998,3.333-8.379,7.083-7.043s-0.238,10.262-0.238,10.262s6.238-2.764,9.321-4.762s5.667-4.079,7.417-4.081
		c0,0,2,1.749,1.5,3.749c0,0,1.457,0.875,1.457,2.875s-0.707,2.793-0.707,2.793s0.75,1.414,0.75,2.664s-1.291,2.959-1.291,2.959
		s0.312,0.96-1.188,3.71c-2.271,3.831-7.146,6.917-17.896,7.831c0,0-4.125,0.25-6.125,0.75c0,0,2.25,4.5,0.75,6s-8,1.5-25.5,5.75
		s-41.25-3.5-46.5-7.25s-6-8.079-6-8.079s-1.933-4.754-4.754-14.925s-6.246-18.996-6.425-37.575
		c0.346-25.505,11.625-41.375,20.375-45.375s13.22-4.25,16.22-5.75s4.889-8.767,4.389-12.017"/>
	<path fill="none" stroke="#000000" stroke-width="1.5" stroke-linecap="round" stroke-linejoin="round" stroke-miterlimit="10" d="
		M199.199,274.216c0,0,4.25-1.812,7.958-5.521"/>
	<path fill="none" stroke="#000000" stroke-width="1.5" stroke-linecap="round" stroke-linejoin="round" stroke-miterlimit="10" d="
		M198.157,270.445c0,0,4.792-1.959,9.375-6.961"/>
	<path fill="none" stroke="#000000" stroke-width="1.5" stroke-linecap="round" stroke-linejoin="round" stroke-miterlimit="10" d="
		M196.45,266.568c0,0,6.58-3.662,10.246-8.414"/>
	<path fill="none" stroke="#000000" stroke-width="1.5" stroke-linecap="round" stroke-linejoin="round" stroke-miterlimit="10" d="
		M178.198,282.151c0,0,3.333-1.166,5.5-1.333"/>
	<path fill="none" stroke="#000000" stroke-width="1.5" stroke-linecap="round" stroke-linejoin="round" stroke-miterlimit="10" d="
		M176.241,267.279c0,0-1.877,3.538-0.71,8.205s3.896,9.271,3.896,9.271"/>
	<path fill="none" stroke="#000000" stroke-width="1.5" stroke-linecap="round" stroke-linejoin="round" stroke-miterlimit="10" d="
		M131.093,263.76c-2.061-0.355-5.729,0.646-5.729,0.646"/>
	<path fill="none" stroke="#000000" stroke-width="3" stroke-linecap="round" stroke-linejoin="round" stroke-miterlimit="10" d="
		M169.987,179.179c5.448,2.31,11.585,7.076,15.95,17.393c6.531,15.438,18.879,43.038,19.618,58.074"/>
	<path fill="none" stroke="#000000" stroke-width="3" stroke-linecap="round" stroke-linejoin="round" stroke-miterlimit="10" d="
		M197.282,243.609c0,0-1-3.5-8.5-8.625s-15.75-22.875-15.75-22.875s-1.25-3.5-1.875-6.25s-0.625-4.5-1.25-6.375
		c-1.125-1.625-4.25-2.188-4.25-2.188l-0.875-3.688c0,0,2.196-5.321,3.125-9.25c0,0,1.875-5.125,3.125-7.75s3.188-7.062,3.188-7.062
		s-1.938-3.188-4.812-1.938s-6.156,5.125-7.875,8.094c-2.125-3.344-4-8.094-5.75-15.719s-3.375-15.688-3.375-15.688
		s-1.001-1.562-2.834-1.521s-2.822,1.886-2.822,1.886s1.613,10.154,2.197,13.322s1.209,7.625,1.209,7.625s-2.5-0.875-4.125-0.25
		s-2.5,2.625-2.5,2.625s-2.125-0.375-3.5,0.125s-2.688,3.812-2.688,3.812s-2.438,0.438-2.875,3.688
		c-0.688,2.562,2.812,15.75,8.688,20.375l3.625,3.875c0,0-3.875,2.5-5,4.25s-1.75,3.75-1.75,3.75s6.625,6.375,8.875,11.875
		s7.375,16.5,10.875,27.75s8,15.25,13,17.5"/>
	<path fill="none" stroke="#000000" stroke-width="3" stroke-linecap="round" stroke-linejoin="round" stroke-miterlimit="10" d="
		M175.759,205.133c0,0,1.279,9.144,3.152,18.035"/>
	<path fill="none" stroke="#000000" stroke-width="1.5" stroke-linecap="round" stroke-linejoin="round" stroke-miterlimit="10" d="
		M165.157,197.734c0,0-3,0.75-6.75,2.125s-9.625,6.75-14.125,7.125"/>
	<path fill="none" stroke="#000000" stroke-width="1.5" stroke-linecap="round" stroke-linejoin="round" stroke-miterlimit="10" d="
		M147.282,199.234c0,0,1.75,1.375,3,5.375"/>
	<path fill="none" stroke="#000000" stroke-width="1.5" stroke-linecap="round" stroke-linejoin="round" stroke-miterlimit="10" d="
		M129.268,174.901c0,0-0.36,11.208,8.265,20.583c3,2.333,4.851,1.838,5.951,6.881"/>
	<path fill="none" stroke="#000000" stroke-width="1.5" stroke-linecap="round" stroke-linejoin="round" stroke-miterlimit="10" d="
		M145.407,213.844c0.725,4.266,0.75,6.641,1,14.016s1.125,15.5,0.875,36.75"/>
	
		<line fill="none" stroke="#000000" stroke-width="1.5" stroke-linecap="round" stroke-linejoin="round" stroke-miterlimit="10" x1="158.032" y1="242.359" x2="158.907" y2="265.484"/>
	<path fill="none" stroke="#000000" stroke-width="3" stroke-linecap="round" stroke-linejoin="round" stroke-miterlimit="10" d="
		M201.354,277.734c0,0,5.25,42.421,4.25,71.921s-2,40.25-2,40.25l-2.875,3.625c0,0,0.625,18.625,4.625,27.625c0,0-17,12.5-51,12.75
		s-50.5-6.25-61.25-8.5s-18.25-3.75-18.25-3.75s6.75-19.25,7.25-29.75c0,0-6.5-1.75-5.25-19.75s16.929-112.171,17.679-133.171"/>
	<path fill="none" stroke="#000000" stroke-width="1.5" stroke-linecap="round" stroke-linejoin="round" stroke-miterlimit="10" d="
		M147.251,294.812c-0.338,18.068-0.937,39.891-1.969,52.922c-2,25.25-2.218,26.968-2.218,26.968s-1.131,10.203-5.297,15.869
		S122,398.5,81.934,392.237"/>
	<path fill="none" stroke="#000000" stroke-width="1.5" stroke-linecap="round" stroke-linejoin="round" stroke-miterlimit="10" d="
		M159.686,293.151c0.777,25.931,2.01,62.467,3.097,74.583c1.75,19.5,3.471,23.174,5.485,25.837
		c3.332,3.668,20.922,2.918,32.461-0.041"/>
	<path fill="none" stroke="#000000" stroke-width="3" stroke-linecap="round" stroke-linejoin="round" stroke-miterlimit="10" d="
		M172.531,432.907c0,0-8.6,40-11.266,53.668c-2.666,13.666-1.162,16.332,4.838,18.666c6,2.332,12.83,1,16.83,5.668
		c4,4.666,2.998,8.664,1.332,10.998s-12.666,4.334-21.332,0.334c0,0-3-7.668-7-6.334s-3,4.334-3,4.334l-5-1.666
		c0,0-0.498-1.502-0.998-6.002c-0.666-7.832,3-12.166,3-12.166l0.762-66.334"/>
	<path fill="none" stroke="#000000" stroke-width="1.5" stroke-linecap="round" stroke-linejoin="round" stroke-miterlimit="10" d="
		M160.604,502.073c0,0-7.336,3.166-10.668-1.166"/>
	<path fill="none" stroke="#000000" stroke-width="3" stroke-linecap="round" stroke-linejoin="round" stroke-miterlimit="10" d="
		M140.697,433.907l-0.762,65.166c0,0,3,2.166,3,7.334c0,5.166-0.334,10.666-0.334,10.666s-2.834,1.834-4.666,2
		c-1.834,0.166-3.916-7.084-8.416-1.084c-0.713,0.949-1.9,3.752-1.9,3.752s-10.551,3.59-18.266,2.748c0,0-5.42-1.916-5.336-6.5
		c0.086-4.582,3.25-7.418,8.084-8.584s7.502-1.164,11.002-3.498s6.666-6.5,6.666-6.5s-7.072-43.666-9.738-67.834"/>
	<path fill="none" stroke="#000000" stroke-width="1.5" stroke-linecap="round" stroke-linejoin="round" stroke-miterlimit="10" d="
		M140.104,499.907c0,0-7.168,3.166-10.334,0.5"/>
</g>
</svg>
