<?xml version="1.0" encoding="utf-8"?>
<!-- Generator: Adobe Illustrator 16.0.0, SVG Export Plug-In . SVG Version: 6.00 Build 0)  -->
<!DOCTYPE svg PUBLIC "-//W3C//DTD SVG 1.1//EN" "http://www.w3.org/Graphics/SVG/1.1/DTD/svg11.dtd">
<svg version="1.1" id="Layer_1" xmlns="http://www.w3.org/2000/svg" xmlns:xlink="http://www.w3.org/1999/xlink" x="0px" y="0px"
	 width="229px" height="560px" viewBox="0 0 229 560" enable-background="new 0 0 229 560" xml:space="preserve">
<g id="colour">
	<path d="M86.63,115.25c1.58,0.23,0.79,1.65-0.47,1.53C84.9,116.66,85.4,115.06,86.63,115.25z"/>
	<path d="M113.84,116.09c1.67,0.33,0.83,2.33-0.5,2.16C112.01,118.09,112.53,115.82,113.84,116.09z"/>
	<path fill="#FFFFFF" d="M92.07,117.31l-0.24,0.02c0,0-3.41,0.54-5.53,0.4c-2.05-0.14-4.44-0.49-4.54-0.49
		c0.41-1.53,1.54-4.48,3.54-4.78c1.99-0.3,4.88,0.38,5.9,2.02C91.72,115.27,91.99,116.24,92.07,117.31z M86.16,116.78
		c1.26,0.12,2.05-1.3,0.47-1.53C85.4,115.06,84.9,116.66,86.16,116.78z"/>
	<path fill="#FFFFFF" d="M114.42,113.21c3.63,0.25,6.82,4.94,6.82,4.94s-3.69,1.18-6.69,0.93s-5.63-1-5.63-1l-0.21-0.01
		C108.91,115.11,111.03,113.41,114.42,113.21z M113.34,118.25c1.33,0.17,2.17-1.83,0.5-2.16
		C112.53,115.82,112.01,118.09,113.34,118.25z"/>
	<path fill="#59253C" d="M172.03,373.82c1.25,18-5.25,19.75-5.25,19.75c0.01,0.109,0.01,0.229,0.02,0.34
		c-45.86,2.99-51.51,3.979-55.68-1.67c-4.16-5.67-3.5-17.67-3.5-17.67c-1.16-16.37-1.95-33.9-2.5-51.12l-0.13-0.32
		c3.98-1.63,9.61-4.35,14.67-8.93c0,0,2.37,3,6.12,3.62c3.75,0.63,14.5-11,29.25-40c0,0,2.6-2.02,3.96-8.37l0.21,0.04
		C168.45,319.24,170.78,355.82,172.03,373.82z"/>
	<path fill="#D67F58" d="M166.8,393.91c0.62,10.57,7.23,29.41,7.23,29.41s-7.5,1.5-18.25,3.75c-6.26,1.31-14.46,4.06-26.93,6.09
		c-5.87,0.939-12.68,1.729-20.67,2.13c-3.14,0.16-6.47,0.26-9.99,0.28c-1.19,0.01-2.41,0.01-3.65,0
		c-6.7-0.051-12.74-0.58-18.12-1.391c-21.92-3.3-32.88-11.359-32.88-11.359c4-9,4.62-27.62,4.62-27.62
		c11.54,2.95,29.13,3.7,32.46,0.04c2.97-3.271-0.4-16.021,3.51-75.79l-0.01-0.22c0.32,0,0.54-0.03,0.54-0.03s1.56,1.06,2.44,1.81
		c0.87,0.75,4.03,1.03,4.03,1.03s1.09,1.47,3.09,1.72s4.69-0.38,4.69-0.38s1.63,1.57,5.63-0.06c0.15-0.061,0.29-0.12,0.45-0.19
		l0.13,0.32c0.55,17.22,1.34,34.75,2.5,51.12c0,0-0.66,12,3.5,17.67C115.29,397.89,120.94,396.9,166.8,393.91z"/>
	<path fill="#59253C" d="M113.78,293.7c0,0-3.25-0.63-5.49-0.88c-0.22-0.021-0.48-0.08-0.77-0.16c-0.83-0.22-1.94-0.61-3.17-1.021
		l0.02-0.069c-0.41-24.771-0.42-46.64-0.42-60.33c0-28.34-0.66-32,5.34-36.67c6-4.67,10.33-17,10.33-17l0.09-0.35
		c3.43,0.88,8.52,1.79,14.95,4.73c8.75,4,18.12,33.87,20.37,45.37s5,22.5,4.75,34.75c-0.06,2.94-0.36,5.38-0.79,7.38
		c-1.36,6.35-3.96,8.37-3.96,8.37c-14.75,29-25.5,40.63-29.25,40c-3.75-0.62-6.12-3.62-6.12-3.62l-0.44-0.69
		c0,0,2.49-1.67,4.88-5.189l0.38-0.13c-1.08-3.16-2.68-6.801-4.32-9.37c-2.81-3.87-6.16-4.34-6.16-4.34L113.78,293.7z"/>
	<path fill="#DDE3F2" d="M122.51,55.92c15.66-3,30,9.67,24,30.33c-5.44,18.73-12.5,30.46-13.78,32.49c-0.13,0.21-0.2,0.32-0.2,0.32
		l-1.69-10.16c-15.22-10.34-13.33-21.65-13.33-21.65c-18.67,15.67-42.34,15.67-42.34,15.67l-1.33,9.67c-1.8-10.52-8.34-15-8.34-15
		c-8.33-10-10-30,1.34-42.34c11.33-12.33,29.66-19.33,40-14.33C117.17,45.92,122.51,55.92,122.51,55.92z"/>
	<path d="M144.87,519.65c0.08,4.59-5.34,6.5-5.34,6.5c-7.71,0.85-18.26-2.74-18.26-2.74s-1.19-2.811-1.9-3.76
		c-4.5-6-6.58,1.25-8.42,1.09c-1.83-0.17-4.66-2-4.66-2s-0.34-5.5-0.34-10.67c0-3.551,1.42-5.69,2.3-6.67l0.54,0.17
		c0,0,7.16,3.17,10.33,0.5l0.42-0.46c0.98,1.199,3.51,4.14,6.24,5.96c3.5,2.34,6.17,2.33,11.01,3.5
		C141.62,512.24,144.78,515.07,144.87,519.65z"/>
	<path fill="#EAD2C3" d="M142.34,120.08c4.33,7-0.83,12.34-2.83,15.5c-2,3.17-6.67,8.34-6.67,8.34s0,0.01,0.01,0.03l-0.93,0.13
		c-0.56-0.78-2.05-1.41-3.67-1.41l1.28-0.47c1-6,2.25-23,2.25-23l0.75-0.14c0,0,0.07-0.11,0.2-0.32l0.48,0.14
		C133.21,118.88,138.01,113.08,142.34,120.08z"/>
	<path fill="#FFD836" d="M132.85,143.95c0.22,0.41,2.73,5.45-0.13,8.94c-2.38,2.9-6.4,2.49-7.93,2.2l0.13-0.76
		c0,0-3.01-2.51-1.64-7.76c0.77-2.92,2.96-3.9,4.97-3.9c1.62,0,3.11,0.63,3.67,1.41L132.85,143.95z"/>
	<path fill="#EAD2C3" d="M75.31,125.47c-0.73-5.24-1.14-9.14-1.14-9.14l-0.71-0.7l0.38-3.04l1.33-9.67c0,0,23.67,0,42.34-15.67
		c0,0-1.89,11.31,13.33,21.65l1.69,10.16l-0.75,0.14c0,0-1.25,17-2.25,23l-1.28,0.47c-2.01,0-4.2,0.98-4.97,3.9
		c-1.37,5.25,1.64,7.76,1.64,7.76l-0.13,0.76c-0.39-0.07-0.62-0.14-0.62-0.14c-2.63,3.57-7.65,7.35-11.16,10.07
		c-1.16,0.9-2.16,1.69-2.84,2.31c-2.75,2.5-5,9.25-13.33,9.25c-1.76,0-3.16-0.87-4.29-2.18c-2.89-3.34-3.96-9.56-4.38-11.48
		c0,0-2.63-3.1-4.88-7.17c-1.83-3.31-3.25-6.06-3.71-6.97l0.73-0.11c-1.1-2.73-2.09-6.66-2.93-10.85
		C76.53,133.65,75.84,129.22,75.31,125.47z M108.71,118.07l0.21,0.01c0,0,2.63,0.75,5.63,1s6.69-0.93,6.69-0.93
		s-3.19-4.69-6.82-4.94C111.03,113.41,108.91,115.11,108.71,118.07z M92.07,117.31c-0.08-1.07-0.35-2.04-0.87-2.83
		c-1.02-1.64-3.91-2.32-5.9-2.02c-2,0.3-3.13,3.25-3.54,4.78c0.1,0,2.49,0.35,4.54,0.49c2.12,0.14,5.53-0.4,5.53-0.4L92.07,117.31z
		 M94.44,139.4c-0.84-0.63-1.55-1.24-1.85-1.7c-0.33-0.5-0.24-1.41,0.05-2.45l-0.07-0.02c0,0-1.41,0.22-2.65,1.85
		c-0.75,3,2.5,4.5,2.5,4.5l1.32-1.81c0,0-0.39-0.89,0.61-0.25L94.44,139.4z"/>
	<path fill="#6D6058" d="M128.85,433.16l0.01,0.08c-2.67,24.17-9.74,67.83-9.74,67.83s0.15,0.199,0.42,0.54l-0.42,0.46
		c-3.17,2.67-10.33-0.5-10.33-0.5l-0.54-0.17c0.41-0.45,0.7-0.66,0.7-0.66l-0.76-65.17l-0.01-0.28
		C116.17,434.89,122.98,434.1,128.85,433.16z"/>
	<path fill="#EAD2C3" d="M107.44,293.46l0.08-0.8c0.29,0.08,0.55,0.14,0.77,0.16c2.24,0.25,5.49,0.88,5.49,0.88l0.22,0.78
		c0,0,3.35,0.47,6.16,4.34c1.64,2.569,3.24,6.21,4.32,9.37l-0.38,0.13c-2.39,3.52-4.88,5.189-4.88,5.189l0.44,0.69
		c-5.06,4.58-10.69,7.3-14.67,8.93c-0.16,0.07-0.3,0.13-0.45,0.19c-4,1.63-5.63,0.06-5.63,0.06s-2.69,0.63-4.69,0.38
		s-3.09-1.72-3.09-1.72s-3.16-0.28-4.03-1.03c-0.88-0.75-2.44-1.81-2.44-1.81s-0.22,0.03-0.54,0.03c-0.82,0-2.33-0.171-2.77-1.471
		c-0.63-1.81-0.69-2.56-0.69-2.56l-2.16-0.11l0.04-0.71l2.5,0.19c3.25-0.87,9.5-3.75,12.62-6.12c0,0,6.94-4.44,6.69-7.19
		c0,0-1.75-1.88-3.5-3C95.14,297.15,100.42,292.77,107.44,293.46z"/>
	<path fill="#D67F58" d="M119.71,177.22l-0.09,0.35c0,0-4.33,12.33-10.33,17c-6,4.67-5.34,8.33-5.34,36.67
		c0,13.69,0.01,35.56,0.42,60.33l-0.02,0.069c-2.96-0.96-6.65-1.949-8.88-0.51c-3.5,2.25-5.62,2.82-7.43,3.57
		c-0.58,0.24-1.33,0.21-2.08,0.06c6.67-80.87,14.33-93.52,7.99-98.86c-6.33-5.33-8.33-16-8.33-16l-0.16-0.94
		c0.6-0.1,1.16-0.18,1.68-0.25l2.81,0.53c0,0,11,16.99,26.34-2l0.37-1.04C117.45,176.6,118.48,176.91,119.71,177.22z"/>
	<path fill="#EAD2C3" d="M116.66,176.2l-0.37,1.04c-15.34,18.99-26.34,2-26.34,2l-2.81-0.53c0.41-0.05,0.79-0.1,1.14-0.14
		c3.76-0.75,3.84-3.75,3.84-3.75l0.43-0.42c1.13,1.31,2.53,2.18,4.29,2.18c8.33,0,10.58-6.75,13.33-9.25
		c0.68-0.62,1.68-1.41,2.84-2.31l0.09,0.11C112.6,168.38,113.66,174.7,116.66,176.2z"/>
	<path fill="#EAD2C3" d="M85.96,294.76c0.75,0.15,1.5,0.181,2.08-0.06c1.81-0.75,3.93-1.32,7.43-3.57
		c2.23-1.439,5.92-0.45,8.88,0.51c1.23,0.41,2.34,0.801,3.17,1.021l-0.08,0.8c-7.02-0.69-12.3,3.69-10.59,4.8c1.75,1.12,3.5,3,3.5,3
		c0.25,2.75-6.69,7.19-6.69,7.19c-3.12,2.37-9.37,5.25-12.62,6.12l-2.5-0.19c-2.38-0.37-5.13-3.18-5.13-3.18l-0.57-0.09
		c0.9-5.48,4.31-14.891,9.95-17.54C82.79,293.57,84.37,294.44,85.96,294.76z"/>
	<path d="M99.23,502.45c0.85,1.21,3.27,5.31,2.72,11.79c-0.5,4.5-0.99,6-0.99,6l-5,1.67c0,0,1-3-3-4.34c-4-1.33-7,6.34-7,6.34
		c-8.67,4-19.67,2-21.34-0.34c-1.66-2.33-2.67-6.33,1.33-11c4-4.66,10.84-3.33,16.84-5.66c2.18-0.851,3.76-1.74,4.77-3.19
		l0.73,0.021c0,0,7.33,3.16,10.66-1.17L99.23,502.45z"/>
	<path fill="#6D6058" d="M99.23,502.45l-0.28,0.12c-3.33,4.33-10.66,1.17-10.66,1.17l-0.73-0.021c1.77-2.54,1.76-6.779,0.06-15.479
		c-2.66-13.67-11.26-53.67-11.26-53.67l0.06-0.391c5.38,0.811,11.42,1.34,18.12,1.391c1.24,0.01,2.46,0.01,3.65,0v0.17l0.76,66.33
		C98.95,502.07,99.06,502.2,99.23,502.45z"/>
	<path fill="#EAD2C3" d="M94.44,139.4l-0.09,0.12c-1-0.64-0.61,0.25-0.61,0.25l-1.32,1.81c0,0-3.25-1.5-2.5-4.5
		c1.24-1.63,2.65-1.85,2.65-1.85l0.07,0.02c-0.29,1.04-0.38,1.95-0.05,2.45C92.89,138.16,93.6,138.77,94.44,139.4z"/>
	<path fill="#59253C" d="M82.79,293.57c-5.64,2.649-9.05,12.06-9.95,17.54l0.57,0.09c0,0,2.75,2.81,5.13,3.18l-0.04,0.71l-0.46-0.02
		l-0.42,2.5c0,0-2.67,9-14-0.33c-11.34-9.34-11.34-21.67-12.34-26.34c-0.52-2.44-1.87-6.881-3.41-12.42
		c-1.4-5.06-2.98-11.04-4.25-17.24c-2.67-13,12-45.67,19.33-63c6.29-14.85,16.23-18.2,22.51-19.28l0.16,0.94c0,0,2,10.67,8.33,16
		c6.34,5.34-1.32,17.99-7.99,98.86C84.37,294.44,82.79,293.57,82.79,293.57z"/>
	<path fill="#59253C" d="M84.12,319.23l0.01,0.22c-3.91,59.77-0.54,72.52-3.51,75.79c-3.33,3.66-20.92,2.91-32.46-0.04l-2.87-3.63
		c0,0-1-10.75-2-40.25s4.25-72.75,4.25-72.75l0.33-0.09c1.54,5.54,2.89,9.98,3.41,12.42c1,4.67,1,17,12.34,26.34
		c11.33,9.33,14,0.33,14,0.33l0.42-2.5l0.46,0.02l2.16,0.11c0,0,0.06,0.75,0.69,2.56C81.79,319.06,83.3,319.23,84.12,319.23z"/>
	<path fill="#FFD836" d="M73.98,138.78c0.3-0.23,1.75-1.26,3.4-0.96c0.84,4.19,1.83,8.12,2.93,10.85l-0.73,0.11
		c-0.11-0.22-0.17-0.33-0.17-0.33s-3.62,1.11-5.99-2.38c-1.97-2.91-0.83-5.91,0.16-7.5L73.98,138.78z"/>
	<path fill="#EAD2C3" d="M75.31,125.47c0.53,3.75,1.22,8.18,2.07,12.35c-1.65-0.3-3.1,0.73-3.4,0.96l-0.4-0.21
		c0.2-0.32,0.39-0.59,0.55-0.78c-0.33-1.58-1.17-3.37-2.83-7.87c-1.67-4.5-5-8.84-3.75-12.09s3.58-3.87,5.91-2.2l0.71,0.7
		C74.17,116.33,74.58,120.23,75.31,125.47z"/>
</g>
<g>
	<path fill="none" stroke="#000000" stroke-width="3" stroke-linecap="round" stroke-linejoin="round" stroke-miterlimit="10" d="
		M117.505,87.25c0,0-1.887,11.305,13.334,21.653l1.695,10.159c0,0,7.971-12.145,13.971-32.811c6-20.667-8.334-33.334-24-30.334
		c0,0-5.334-10-15.668-15c-10.332-5-28.666,2-40,14.334c-11.332,12.333-9.666,32.333-1.332,42.333c0,0,6.53,4.485,8.332,15
		l1.334-9.667C75.171,102.918,98.839,102.917,117.505,87.25z"/>
	<path fill="none" stroke="#000000" stroke-width="1.5" stroke-linecap="round" stroke-linejoin="round" stroke-miterlimit="10" d="
		M115.837,87.585c0,0-17.531,8.431-29.667,7.333s-18.666-5.333-17-19.333s15-16.667,17-14.333c2,2.333,3.666,6.666,0,9.666
		s-7-1-6.666-3.666"/>
	<path fill="none" stroke="#000000" stroke-width="3" stroke-linecap="round" stroke-linejoin="round" stroke-miterlimit="10" d="
		M73.837,112.585l-0.373,3.04c-2.334-1.667-4.666-1.041-5.916,2.209s2.083,7.582,3.75,12.082s2.5,6.293,2.834,7.877
		c-0.959,1.166-3.071,4.791-0.709,8.277s5.987,2.375,5.987,2.375s1.625,3.234,3.875,7.305s4.887,7.168,4.887,7.168
		c0.585,2.667,2.414,13.666,8.667,13.666c8.332,0,10.584-6.75,13.334-9.25c2.75-2.5,10.498-7.638,13.998-12.389
		c0.002,0,5.559,1.581,8.545-2.057c2.988-3.638,0.123-8.971,0.123-8.971s4.666-5.169,6.666-8.336c2-3.166,7.166-8.5,2.834-15.5
		c-4.334-7-9.125-1.207-9.125-1.207"/>
	<path fill="none" stroke="#000000" stroke-width="1.5" stroke-linecap="round" stroke-linejoin="round" stroke-miterlimit="10" d="
		M124.923,154.334c0,0-3.014-2.514-1.639-7.764s7.389-4.236,8.639-2.486"/>
	<path fill="none" stroke="#000000" stroke-width="1.5" stroke-linecap="round" stroke-linejoin="round" stroke-miterlimit="10" d="
		M131.785,119.196c0,0-1.25,17-2.25,23"/>
	<path fill="none" stroke="#000000" stroke-width="1.5" stroke-linecap="round" stroke-linejoin="round" stroke-miterlimit="10" d="
		M130.173,138.334c0,0,4.25-1.5,4.25-4.75s-1.75-5.25,0-9.25s3.375-3.625,5.375-2.625"/>
	<path fill="none" stroke="#000000" stroke-width="1.5" stroke-linecap="round" stroke-linejoin="round" stroke-miterlimit="10" d="
		M74.173,116.334c0,0,2.385,23.089,6.135,32.339"/>
	<path fill="none" stroke="#000000" stroke-width="1.5" stroke-linecap="round" stroke-linejoin="round" stroke-miterlimit="10" d="
		M73.923,138.834c0,0,1.625-1.375,3.5-1"/>
	<path fill="none" stroke="#000000" stroke-width="1.5" stroke-linecap="round" stroke-linejoin="round" stroke-miterlimit="10" d="
		M70.298,119.209c0,0,3.5-0.312,5.25,7.188"/>
	<path fill="none" stroke="#000000" stroke-width="1.5" stroke-linecap="round" stroke-linejoin="round" stroke-miterlimit="10" d="
		M80.423,106.959c5.25-6.5,15.25-2.625,15.25-2.625"/>
	<path fill="none" stroke="#000000" stroke-width="1.5" stroke-linecap="round" stroke-linejoin="round" stroke-miterlimit="10" d="
		M91.831,117.334c0,0-3.408,0.538-5.533,0.395c-2.125-0.145-4.625-0.52-4.535-0.484c0.41-1.535,1.539-4.482,3.535-4.785
		s4.878,0.384,5.898,2.023c2.127,3.25,0.162,9.602-2.438,13.102"/>
	<path fill="none" stroke="#000000" stroke-linecap="round" stroke-linejoin="round" stroke-miterlimit="10" d="M79.895,117.834
		c0,0-1.892,0.5-2.659,1.938"/>
	<path fill="none" stroke="#000000" stroke-width="3" stroke-linecap="round" stroke-linejoin="round" stroke-miterlimit="10" d="
		M86.631,115.246c-1.235-0.185-1.733,1.415-0.473,1.532S88.206,115.481,86.631,115.246z"/>
	<path fill="none" stroke="#000000" stroke-width="1.5" stroke-linecap="round" stroke-linejoin="round" stroke-miterlimit="10" d="
		M123.923,107.334c0,0-8.75-5.75-15.875-1.125"/>
	<path fill="none" stroke="#000000" stroke-width="1.5" stroke-linecap="round" stroke-linejoin="round" stroke-miterlimit="10" d="
		M108.923,118.084c0,0,2.625,0.75,5.625,1s6.688-0.938,6.688-0.938s-3.188-4.688-6.812-4.938c-4.25,0.25-6.5,2.875-5.5,7.375
		c1,4.5,3.5,8.5,6,10.75"/>
	<path fill="none" stroke="#000000" stroke-linecap="round" stroke-linejoin="round" stroke-miterlimit="10" d="M126.923,119.834
		c0,0-2-1.75-3.25-1.5"/>
	<path fill="none" stroke="#000000" stroke-width="3" stroke-linecap="round" stroke-linejoin="round" stroke-miterlimit="10" d="
		M113.839,116.085c-1.309-0.262-1.834,2.001-0.5,2.167C114.671,118.418,115.505,116.418,113.839,116.085z"/>
	<path fill="none" stroke="#000000" stroke-width="1.5" stroke-linecap="round" stroke-linejoin="round" stroke-miterlimit="10" d="
		M97.535,113.196c0,0-0.75,7-2.862,10.639c0,0,0.25,4.25,0,5.75s-3.082,6.611-2.082,8.111s6.382,4.688,6.382,4.688
		s3.95-3.049,5.7-3.799"/>
	<path fill="none" stroke="#000000" stroke-width="1.5" stroke-linecap="round" stroke-linejoin="round" stroke-miterlimit="10" d="
		M103.923,130.584c0,0,0.376-4.625-0.374-8.125s-0.876-8.889-0.876-8.889"/>
	<path fill="none" stroke="#000000" stroke-width="1.5" stroke-linecap="round" stroke-linejoin="round" stroke-miterlimit="10" d="
		M103.973,139.383c0,0,1.45,0.201,1.95,2.451s2.25,1,3.5-0.25c1.25-1.25-1-5.75-1-5.75"/>
	<path fill="none" stroke="#000000" stroke-width="1.5" stroke-linecap="round" stroke-linejoin="round" stroke-miterlimit="10" d="
		M94.354,139.515c-1-0.639-0.618,0.257-0.618,0.257l-1.313,1.812c0,0-3.25-1.5-2.5-4.5c1.237-1.639,2.65-1.851,2.65-1.851"/>
	<path fill="none" stroke="#000000" stroke-width="1.5" stroke-linecap="round" stroke-linejoin="round" stroke-miterlimit="10" d="
		M109.798,140.522c0,0,0.375,5.062,6.625,8.562"/>
	<path fill="none" stroke="#000000" stroke-width="1.5" stroke-linecap="round" stroke-linejoin="round" stroke-miterlimit="10" d="
		M112.423,146.834c0,0-11.763,9-22.263,1.25"/>
	<path fill="none" stroke="#000000" stroke-width="1.5" stroke-linecap="round" stroke-linejoin="round" stroke-miterlimit="10" d="
		M90.16,144.709c0,0-0.888,0.785-0.25,4.174l0.688,2.75"/>
	<path fill="none" stroke="#000000" stroke-width="1.5" stroke-linecap="round" stroke-linejoin="round" stroke-miterlimit="10" d="
		M90.423,159.834c0,0-1.5,2.25-1.75,4.25"/>
	<path fill="none" stroke="#000000" stroke-width="3" stroke-linecap="round" stroke-linejoin="round" stroke-miterlimit="10" d="
		M92.118,174.821c0,0-0.083,3-3.834,3.749c-5.667,0.667-17.999,2.334-25.333,19.667s-22.001,49.999-19.334,63
		c2.667,13,6.667,25,7.667,29.666c1,4.668,1,17,12.333,26.334s14,0.334,14,0.334l0.418-2.5l2.625,0.125c0,0,0.062,0.75,0.688,2.562
		s3.312,1.438,3.312,1.438s1.562,1.062,2.438,1.812s4.031,1.031,4.031,1.031s1.094,1.469,3.094,1.719s4.688-0.375,4.688-0.375
		s1.625,1.562,5.625-0.062s9.875-4.375,15.125-9.125c0,0,2.375,3,6.125,3.625s14.5-11,29.25-40c0,0,4.5-3.5,4.75-15.75
		c0.25-12.25-2.5-23.25-4.75-34.75s-11.625-41.375-20.375-45.375s-15-4.25-18-5.75s-4.062-7.812-3.562-11.062"/>
	<path fill="none" stroke="#000000" stroke-width="3" stroke-linecap="round" stroke-linejoin="round" stroke-miterlimit="10" d="
		M75.285,205.821c0,0-6.25,22.75-7.5,30s-1.5,9.25-0.75,14.5s0.75,8,0.75,8s8.75,10,8.75,15s0,9.25,0,9.25s6.5,2,6.25,11
		c0,0,3.438,1.875,5.25,1.125s3.938-1.312,7.438-3.562s10.562,1.438,12.812,1.688c2.25,0.25,5.5,0.875,5.5,0.875
		s-0.062-2.5,1.562-4.875c3.5-4.25,8.188-8,10.438-14.75s6-12.25,6-12.25s0-8,2-12.75s2-4.75,2-4.75s0.75-29.75-1-39.5"/>
	<path fill="none" stroke="#000000" stroke-width="1.5" stroke-linecap="round" stroke-linejoin="round" stroke-miterlimit="10" d="
		M63.91,254.821c0,0,2,2.625,3.5,4.125"/>
	<path fill="none" stroke="#000000" stroke-width="1.5" stroke-linecap="round" stroke-linejoin="round" stroke-miterlimit="10" d="
		M74.535,316.32c0,0-2.375,1.25-1.875-3.875s4-16,10.125-18.875"/>
	<path fill="none" stroke="#000000" stroke-width="1.5" stroke-linecap="round" stroke-linejoin="round" stroke-miterlimit="10" d="
		M73.41,311.195c0,0,2.75,2.812,5.125,3.188"/>
	<path fill="none" stroke="#000000" stroke-width="1.5" stroke-linecap="round" stroke-linejoin="round" stroke-miterlimit="10" d="
		M81.035,314.57c3.25-0.875,9.5-3.75,12.625-6.125c0,0,6.938-4.438,6.688-7.188c0,0-1.75-1.875-3.5-3s3.812-5.688,11.062-4.75"/>
	<path fill="none" stroke="#000000" stroke-width="1.5" stroke-linecap="round" stroke-linejoin="round" stroke-miterlimit="10" d="
		M85.254,318.414c0,0,5.75-1.438,10.375-3.688c0,0,2.531-1.281,6.656-4.531"/>
	<path fill="none" stroke="#000000" stroke-width="1.5" stroke-linecap="round" stroke-linejoin="round" stroke-miterlimit="10" d="
		M90.91,321.07c0,0,5.438-1.375,8.062-3s6.938-4.875,6.938-4.875"/>
	<path fill="none" stroke="#000000" stroke-width="1.5" stroke-linecap="round" stroke-linejoin="round" stroke-miterlimit="10" d="
		M98.785,322.57c0,0,3.25-1.375,4.938-2.625s5.687-4,5.687-4"/>
	<path fill="none" stroke="#000000" stroke-width="1.5" stroke-linecap="round" stroke-linejoin="round" stroke-miterlimit="10" d="
		M114.003,294.477c0,0,3.344,0.469,6.156,4.344c2.875,4.5,5.625,12.25,5.625,15"/>
	<path fill="none" stroke="#000000" stroke-width="1.5" stroke-linecap="round" stroke-linejoin="round" stroke-miterlimit="10" d="
		M119.222,313.508c0,0,2.492-1.672,4.875-5.188"/>
	<path fill="none" stroke="#000000" stroke-width="1.5" stroke-linecap="round" stroke-linejoin="round" stroke-miterlimit="10" d="
		M132.324,262.363c0.877-0.791,1.797-0.795,3.963-4.461"/>
	<path fill="none" stroke="#000000" stroke-width="1.5" stroke-linecap="round" stroke-linejoin="round" stroke-miterlimit="10" d="
		M89.953,179.238c0,0,10.999,16.997,26.333-2"/>
	<path fill="none" stroke="#000000" stroke-width="1.5" stroke-linecap="round" stroke-linejoin="round" stroke-miterlimit="10" d="
		M85.619,179.905c0,0,2.001,10.667,8.334,16s-1.332,17.998-7.999,98.998"/>
	<path fill="none" stroke="#000000" stroke-width="1.5" stroke-linecap="round" stroke-linejoin="round" stroke-miterlimit="10" d="
		M119.621,177.57c0,0-4.334,12.333-10.334,17c-6,4.667-5.333,8.334-5.333,36.667c0,13.693,0.001,35.56,0.415,60.333"/>
	<path fill="none" stroke="#000000" stroke-width="3" stroke-linecap="round" stroke-linejoin="round" stroke-miterlimit="10" d="
		M47.535,278.57c0,0-5.25,43.25-4.25,72.75s2,40.25,2,40.25l2.875,3.625c0,0-0.625,18.625-4.625,27.625c0,0,17,12.5,51,12.75
		c34,0.25,50.5-6.25,61.25-8.5s18.25-3.75,18.25-3.75s-6.75-19.25-7.25-29.75c0,0,6.5-1.75,5.25-19.75s-3.582-54.584-12.832-104.334
		"/>
	<path fill="none" stroke="#000000" stroke-width="1.5" stroke-linecap="round" stroke-linejoin="round" stroke-miterlimit="10" d="
		M84.132,319.447c-3.91,59.773-0.546,72.527-3.511,75.789c-3.333,3.668-20.922,2.918-32.461-0.041"/>
	<path fill="none" stroke="#000000" stroke-width="1.5" stroke-linecap="round" stroke-linejoin="round" stroke-miterlimit="10" d="
		M105.122,323.445c0.543,17.223,1.337,34.758,2.499,51.125c0,0-0.666,12,3.5,17.666c4.166,5.666,9.834,4.666,55.834,1.666"/>
	<path fill="none" stroke="#000000" stroke-width="3" stroke-linecap="round" stroke-linejoin="round" stroke-miterlimit="10" d="
		M76.357,434.572c0,0,8.599,40,11.265,53.668c2.666,13.666,1.163,16.332-4.837,18.666c-6,2.332-12.831,1-16.831,5.668
		c-4,4.666-2.998,8.664-1.332,10.998s12.666,4.334,21.333,0.334c0,0,3-7.668,7-6.334s3,4.334,3,4.334l5-1.666
		c0,0,0.497-1.502,0.997-6.002c0.667-7.832-2.999-12.166-2.999-12.166l-0.763-66.334"/>
	<path fill="none" stroke="#000000" stroke-width="1.5" stroke-linecap="round" stroke-linejoin="round" stroke-miterlimit="10" d="
		M88.285,503.738c0,0,7.335,3.166,10.668-1.166"/>
	<path fill="none" stroke="#000000" stroke-width="3" stroke-linecap="round" stroke-linejoin="round" stroke-miterlimit="10" d="
		M108.19,435.572l0.762,65.166c0,0-3,2.166-3,7.334c0,5.166,0.333,10.666,0.333,10.666s2.834,1.834,4.667,2
		c1.834,0.166,3.916-7.084,8.416-1.084c0.713,0.949,1.9,3.752,1.9,3.752s10.551,3.59,18.266,2.748c0,0,5.42-1.916,5.336-6.5
		c-0.086-4.582-3.25-7.418-8.084-8.584s-7.502-1.164-11.002-3.498s-6.666-6.5-6.666-6.5s7.072-43.666,9.738-67.834"/>
	<path fill="none" stroke="#000000" stroke-width="1.5" stroke-linecap="round" stroke-linejoin="round" stroke-miterlimit="10" d="
		M108.785,501.572c0,0,7.167,3.166,10.333,0.5"/>
</g>
</svg>
