<?xml version="1.0" encoding="utf-8"?>
<!-- Generator: Adobe Illustrator 16.0.0, SVG Export Plug-In . SVG Version: 6.00 Build 0)  -->
<!DOCTYPE svg PUBLIC "-//W3C//DTD SVG 1.1//EN" "http://www.w3.org/Graphics/SVG/1.1/DTD/svg11.dtd">
<svg version="1.1" id="Layer_1" xmlns="http://www.w3.org/2000/svg" xmlns:xlink="http://www.w3.org/1999/xlink" x="0px" y="0px"
	 width="299px" height="560px" viewBox="0 0 299 560" enable-background="new 0 0 299 560" xml:space="preserve">
<g id="colour">
	<path fill="#EAD2C3" d="M232.74,241.33c0,0,1.15,1.75,0.69,3.66c-0.46,1.91-3.89,9.62-9.85,14.31c-3.77,2.87-8.47,6.3-19,9.74
		c0,0,0.04,0.77-0.03,1.87l-0.66-0.04c-0.92-8.93-5.72-17.86-5.72-17.86l-0.23-0.92c0,0,2.29-3.2,2.29-8.24s1.6-5.96,1.6-9.16
		c0-3.21,5.04-1.6,5.49,2.75c-0.53,4.04,0.92,5.49,0.92,5.49s3.44,0.23,11.45-8.24c0,0,2.79-3.93,3.93-4.62
		c1.15-0.69,2.52-1.3,3.44-0.61c0.91,0.69,1.1,2.79,1.1,2.79s1.49-0.27,2.26,0.87c0.76,1.15,0.18,3.02,0.18,3.02
		s1.61,0.15,2.07,1.75C233.12,239.5,232.74,241.33,232.74,241.33z"/>
	<path fill="#EAD2C3" d="M216.95,190.05c0.45,1.16-0.42,4.41-3.21,7.2c-1.88,4.32-5.76,7.33-5.76,7.33s-0.26,0.7-0.75,1.81
		l-0.42-0.23c-0.05-2.23-0.75-3.91-1.53-5.28c-0.02-0.03-0.04-0.07-0.06-0.1l0.2-0.13c0,0,4.35-2.9,5.42-6.19
		c3.13-2.9,3.81-6.33,3.81-6.33l0.84-0.28C215.49,187.85,215.99,187.58,216.95,190.05z"/>
	<path fill="#EAD2C3" d="M214.96,184.55c1.1,2.2,0.53,3.3,0.53,3.3l-0.84,0.28c0,0-0.68,3.43-3.81,6.33
		c-1.07,3.29-5.42,6.19-5.42,6.19l-0.2,0.13c-0.83-1.36-3.13-3.01-3.5-3.3l0.47-0.45c0,0,0.01-0.01,0.02-0.03
		c0.44-0.61,7.5-10.34,9.01-13.52C212.23,182.76,213.86,182.36,214.96,184.55z"/>
	<path fill="#EAD2C3" d="M208.01,177.79c0,0-0.23,3.13-1.14,7.36c-0.78,3.58-2.53,7.95-4.66,11.85c-0.01,0.02-0.02,0.03-0.02,0.03
		l-0.47,0.45c0.37,0.29,2.67,1.94,3.5,3.3c0.02,0.03,0.04,0.07,0.06,0.1c0.78,1.37,1.48,3.05,1.53,5.28l0.42,0.23
		c-0.92,2.12-2.63,5.74-4.8,8.9c-4.21,6.35-9.41,6.52-9.41,6.52l-2.26,3.41l-0.49-0.32c-1.61,2.06-4.18,5.15-4.18,5.15l-0.09,0.1
		c-0.58-0.52-1.28-1.17-2.15-1.99c-3.77-3.55-8.24-13.97-8.24-13.97l0.34-0.49c0,0,7.48-5.11,7.03-11.83
		c-0.45-6.71-1.53-9.54-2.07-13.79c0,0,2.28-1.5,4.19-0.2c1.9,1.3,2.65,2.73,4.36,5.7c0,0,0.69-2.57,0.83-3.94
		c0.55-3.57,1.29-11.96,1.29-11.96s0.13-3.29,1.51-3.43c1.37-0.14,7.16-2.81,3.73,19.17c0,0,3.64-6.3,5.7-16.06
		c0,0,1.34-2.32,3.07-2.21C207.32,175.27,208.01,177.79,208.01,177.79z"/>
	<path fill="#59253C" d="M170.61,285.94l0.13,0.56c1.28,13.97,3.03,37.33,2.91,66.08s-4.21,40.67-4.21,41.42s-0.75,5.5-7.5,6.25
		c-3.15,0.35-16.34,3.37-32.03,3.75c-17.98,0.43-41.25-2.9-54.47-4.5l-0.79,0.24c-1.1-1.33-2.71-3.57-3.54-6.07
		c-1.34-4,0.79-64.34,8.79-114.34s23.87-99,33.21-108c0.13-0.21,0.27-0.43,0.39-0.65l0.32,0.19c2.5-1.75,10.31-1.31,10.31-1.31
		c8.9,1.62,12.4,4.55,19.04,11.69c1.56,1.69,3.31,3.62,5.34,5.82c2.15,2.33,4.76,7,7.32,12.81l-0.26,0.12
		c5.97,20.02,10.34,40.26,11.69,56.3c1.14-0.2,2.32-0.4,3.48-0.61c1.62-0.29,3.22-0.57,4.67-0.84c1.4-0.26,2.66-0.5,3.69-0.7
		c0,0,12.42-5.26,15.63-3.66c3.21,1.6,3.21,1.6,3.21,1.6l0.23,0.92c0,0,4.8,8.93,5.72,17.86l0.66,0.04
		c-0.12,2.15-0.63,5.57-2.61,6.94c-2.97,2.06-14.67,3.69-14.67,3.69c-2.89,0.83-8.1,2.3-13.69,3.68
		C172.6,285.46,171.61,285.7,170.61,285.94z"/>
	<path fill="#59253C" d="M186,230.15l0.09-0.1c0,0,2.57-3.09,4.18-5.15l0.49,0.32l-0.15,0.23c0,0,1.99,3.82,1.68,7.03
		c-0.31,3.2-5.95,8.24-9.16,12.51c-3.21,4.28-7.79,9.47-7.79,9.47l0.07,0.39c-1.45,0.27-3.05,0.55-4.67,0.84v-0.02
		c-0.95-5.72-2.21-16.84-7.92-36.27l0.16-0.05c0,0,5.34-8.55,7.63-8.7c2.29-0.16,5.34,3.05,5.34,3.05l-0.34,0.49
		c0,0,4.47,10.42,8.24,13.97C184.72,228.98,185.42,229.63,186,230.15z"/>
	<path fill="#D67F58" d="M180.44,374c0,41.33,5.33,60.67,5.33,60.67c-7.32,2.84-22.56,5.19-39.54,6.14
		c-7.82,0.44-16.02,0.58-23.97,0.33c-3.1-0.09-6.16-0.25-9.15-0.47c-1.45-0.11-2.87-0.229-4.25-0.36
		c-24.74-2.399-39.09-8.979-39.09-8.979s0-1,2.67-9c2.66-8,3.33-21.33,3.33-21.33s-0.47-0.47-1.12-1.26l0.79-0.24
		c13.22,1.6,36.49,4.93,54.47,4.5c15.69-0.38,28.88-3.4,32.03-3.75c6.75-0.75,7.5-5.5,7.5-6.25s4.09-12.67,4.21-41.42
		s-1.63-52.11-2.91-66.08l-0.13-0.56c1-0.24,1.99-0.48,2.97-0.721l0.19,0.78C173.77,286,180.44,332.67,180.44,374z"/>
	<path fill="#D67F58" d="M170.74,255.67v0.02c-1.16,0.21-2.34,0.41-3.48,0.61c-1.35-16.04-5.72-36.28-11.69-56.3l0.26-0.12
		c2.18,4.96,4.33,10.75,6.12,16.62c0.3,0.99,0.59,1.95,0.87,2.9C168.53,238.83,169.79,249.95,170.74,255.67z"/>
	<path fill="#EAD2C3" d="M143.85,109.9c-2.13,1.08-5.3,3.22-6.19,6.69l8.19-2.05l-0.11-0.45c0,0-0.02-1.9-1.87-4.15L143.85,109.9z
		 M147.44,138.88c0.41,0.57,5.14,6.91,16.23,6.15l0.51-0.28c0.99,1.11,1.19,2.38,0.95,5.08c0.73,5.89,5.18,9.18,0.59,14.98
		c-4.59,5.81-10.5,1.03-16.6-0.75c0,0-8.8-3.56-5.42,16.69l-0.53,0.5c-6.64-7.14-10.14-10.07-19.04-11.69c0,0-7.81-0.44-10.31,1.31
		l-0.32-0.19c4.55-7.8,4.09-18.82,0.29-23.68l-0.04,0.02c-1.17-1.94-4.39-7.46-6.14-12.14c-2.16-5.8-4.88-9.88,1.47-12.55
		c4.08-1.5,11.65,10.26,11.65,10.26l-2.95-17.8c3.17-7.14,3.67-20.91,3.67-20.91c12.57,4.78,21.63,4.74,28.14,2.42l0.23,0.66
		c0,0-0.58,4.8,2.25,8.67c2.83,3.88,7.22,7.14,7.22,7.14l2.62,5.1c0,0,4.62,6.23,5.99,7.4c0,0,0.85,4.04-3.88,8.15
		c0,0-0.09,1.3,0.1,1.94c0.32,1.06,0.79,2.11,0.01,3.36c-3.14,1.32-8.05,2.58-16.28,0.07l-0.23-0.16
		C147.56,138.72,147.5,138.8,147.44,138.88z M126.28,153.46c0.69-1.58,1.63-4.74-1.75-6.89c-3.38-2.16-5.71-0.26-6.71,1.15
		c-1.01,1.41-1.56,4.28,1.38,6.84C122.13,157.12,125.59,155.04,126.28,153.46z"/>
	<path d="M166.41,518.54c4.62,8.4-0.55,10.74-0.55,10.74s-17.89,3.899-23.09-0.44c-2.5-5.58-5.12-7.93-9.87-5.84l-2.12,5.43
		c0,0-4.26,1.36-7.35-1.899c-0.24-0.25-0.48-0.53-0.7-0.84c0,0,0.21-4.381-0.14-9.25c-0.19-2.62,0.73-5.32,1.63-7.261
		c0.56-1.229,1.11-2.149,1.36-2.54l0.31,0.04c4.49,4.04,13.31-0.05,13.31-0.05l0.19-0.13c0.15,0.23,0.32,0.39,0.51,0.49
		C150.2,512.97,161.79,510.13,166.41,518.54z"/>
	<path fill="#DDE3F2" d="M121.45,93.88c0,0-0.5,13.77-3.67,20.91l2.95,17.8c0,0-7.57-11.76-11.65-10.26
		c-6.35,2.67-3.63,6.75-1.47,12.55c1.75,4.68,4.97,10.2,6.14,12.14c0.02,0.04,0.05,0.08,0.06,0.11
		c-3.21-4.37-18.99-13.93-25.56-20.96c-6.89-7.39-9.01-10.7-14.46-20.42C62.5,86.7,75.56,72.6,78.91,70.35
		c3.34-2.25,11.02-6.34,19.05-4.29c0,0,2.08-20.16,13.39-24.24c17.87-5.41,58.92,12.71,54.07,35.16
		c-0.98,4.58-4.64,15.32-15.83,19.32C143.08,98.62,134.02,98.66,121.45,93.88z"/>
	<path fill="#FFFFFF" d="M163.84,144.39c0.12,0.12,0.24,0.24,0.34,0.36l-0.51,0.28c-11.09,0.76-15.82-5.58-16.23-6.15
		c0.06-0.08,0.12-0.16,0.18-0.25l0.23,0.16c8.23,2.51,13.14,1.25,16.28-0.07c-0.12,0.21-0.29,0.43-0.5,0.65
		C163.63,139.37,163.45,142.29,163.84,144.39z"/>
	<path fill="#6D6058" d="M146.23,440.81l0.01,0.19c0,0-11.37,58.87-6.85,65.5l-0.19,0.13c0,0-8.82,4.09-13.31,0.05l-0.31-0.04
		c0.08-0.14,0.13-0.21,0.13-0.21s-1.41-20.43-2.44-39.62c-0.51-9.55-0.93-18.79-1.03-25.06l0.02-0.61
		C130.21,441.39,138.41,441.25,146.23,440.81z"/>
	<path fill="#FFFFFF" d="M145.74,114.09l0.11,0.45l-8.19,2.05c0.89-3.47,4.06-5.61,6.19-6.69l0.02,0.04
		C145.72,112.19,145.74,114.09,145.74,114.09z M144.28,114.61c1.16-0.06,0.28-2.6-0.73-2.24
		C142.82,112.64,143.11,114.67,144.28,114.61z"/>
	<path d="M143.55,112.37c1.01-0.36,1.89,2.18,0.73,2.24C143.11,114.67,142.82,112.64,143.55,112.37z"/>
	<path fill="#FFD836" d="M124.53,146.57c3.38,2.15,2.44,5.31,1.75,6.89c-0.69,1.58-4.15,3.66-7.08,1.1
		c-2.94-2.56-2.39-5.43-1.38-6.84C118.82,146.31,121.15,144.41,124.53,146.57z"/>
	<path d="M123.9,509.03l0.32,0.149c-0.9,1.94-1.82,4.641-1.63,7.261c0.35,4.869,0.14,9.25,0.14,9.25c0.22,0.31,0.46,0.59,0.7,0.84
		l-0.37,0.7c-5.6,0.67-12.54,0.59-16.6-2.851c-1.3-3.99-3.23-6.97-5.57-8.47c-2.34-1.5-3.18-0.67-5.35,2.189
		c-2.91-0.119-5.98-3.04-5.98-3.04s0.7-10.369,4.54-13.31c1.08-0.82,2.02-2.57,2.9-4.98l0.13,0.051c4.42,6.87,12.39,4.26,13.65,3.8
		c0.04,0.88,0.25,1.55,0.65,2C115.23,507.59,119.45,508.2,123.9,509.03z"/>
	<path fill="#6D6058" d="M123.27,466.81h-0.01c-5.66,13.12-12.77,27.931-12.48,33.811c-1.26,0.46-9.23,3.07-13.65-3.8L97,496.77
		c2.25-6.189,4.05-16.75,6.46-27.329c3.36-14.69,5.36-28.69,5.36-28.69l0.04-0.44c1.38,0.131,2.8,0.25,4.25,0.36
		c2.99,0.22,6.05,0.38,9.15,0.47l-0.02,0.61C122.34,448.02,122.76,457.26,123.27,466.81z"/>
</g>
<g>
	<path fill="none" stroke="#000000" stroke-width="3" stroke-linecap="round" stroke-linejoin="round" stroke-miterlimit="10" d="
		M107.612,134.877c-2.164-5.795-4.881-9.876,1.467-12.543c4.077-1.503,11.652,10.256,11.652,10.256l-2.951-17.799
		c3.172-7.138,3.668-20.912,3.668-20.912c34.181,12.997,42.41-9.66,43.975-16.895c4.853-22.45-36.199-40.578-54.067-35.162
		C100.039,45.9,97.962,66.064,97.962,66.064c-8.031-2.053-15.709,2.032-19.056,4.281c-3.347,2.25-16.409,16.351-5.113,35.406
		c5.443,9.718,7.569,13.03,14.456,20.414c6.886,7.385,23.931,17.54,25.938,21.575C114.187,147.741,109.775,140.675,107.612,134.877z
		"/>
	<path fill="none" stroke="#000000" stroke-width="1.5" stroke-linecap="round" stroke-linejoin="round" stroke-miterlimit="10" d="
		M121.448,93.879c0,0,33.449-1.175,31.562-20.648c-1.887-19.475-22.496-17.005-23.637-12.784c-1.142,4.223,2.421,9.448,9.227,5.958"
		/>
	<path fill="none" stroke="#000000" stroke-width="3" stroke-linecap="round" stroke-linejoin="round" stroke-miterlimit="10" d="
		M149.823,96.959c0,0-0.586,4.8,2.245,8.674c2.83,3.875,7.221,7.135,7.221,7.135l2.617,5.104c0,0,4.626,6.224,5.996,7.394
		c0,0,0.847,4.049-3.878,8.159c0,0-0.093,1.291,0.096,1.935c0.367,1.244,0.964,2.46-0.49,4.012c0,0-0.181,2.919,0.214,5.021
		c1.273,1.219,1.56,2.443,1.284,5.438c0.736,5.89,5.179,9.177,0.591,14.983c-4.589,5.805-10.503,1.023-16.595-0.756
		c0,0-8.803-3.559-5.428,16.691"/>
	<path fill="none" stroke="#000000" stroke-width="1.5" stroke-linecap="round" stroke-linejoin="round" stroke-miterlimit="10" d="
		M117.817,147.722c1.004-1.409,3.328-3.314,6.713-1.156c3.384,2.157,2.438,5.312,1.75,6.894s-4.146,3.666-7.084,1.104
		S116.813,149.131,117.817,147.722z"/>
	<path fill="none" stroke="#000000" stroke-width="1.5" stroke-linecap="round" stroke-linejoin="round" stroke-miterlimit="10" d="
		M123.429,145.818c0,0-1.831-3.931-5.318-3.869c0,0-2.821-2.342-5.831-9.284c-3.009-6.941-1.282-6.022-1.282-6.022"/>
	<path fill="none" stroke="#000000" stroke-width="1.5" stroke-linecap="round" stroke-linejoin="round" stroke-miterlimit="10" d="
		M139.852,99.732c0,0-8.074,1.164-10.196,9.562"/>
	<path fill="none" stroke="#000000" stroke-width="1.5" stroke-linecap="round" stroke-linejoin="round" stroke-miterlimit="10" d="
		M141.272,105.652c0,0,1.618,3.871,4.596,3.373c0,0-6.83,2.195-8.208,7.566l9.183-2.298c0,0,2.208,4.741,2.523,10.434"/>
	<path fill="none" stroke="#000000" stroke-width="1.5" stroke-linecap="round" stroke-linejoin="round" stroke-miterlimit="10" d="
		M145.745,114.086c0,0-0.021-1.9-1.87-4.147"/>
	<path fill="none" stroke="#000000" stroke-width="2" stroke-linecap="round" stroke-linejoin="round" stroke-miterlimit="10" d="
		M143.548,112.374c-0.729,0.265-0.439,2.292,0.729,2.235C145.443,114.554,144.558,112.009,143.548,112.374z"/>
	<path fill="none" stroke="#000000" stroke-linecap="round" stroke-linejoin="round" stroke-miterlimit="10" d="M133.349,118.643
		c0,0-3.846-0.123-5.224,2.347"/>
	<path fill="none" stroke="#000000" stroke-width="1.5" stroke-linecap="round" stroke-linejoin="round" stroke-miterlimit="10" d="
		M163.251,133.127l-1.539-1.598l-1.768-1.795c0,0-2.837,0.98-3.178,4.367c-2.293-0.737-4.227-2.094-4.24-3.648
		c-0.011-1.557,1.463-3.709,1.463-3.709"/>
	<path fill="none" stroke="#000000" stroke-width="1.5" stroke-linecap="round" stroke-linejoin="round" stroke-miterlimit="10" d="
		M164.646,138.504c-3.119,1.377-8.092,2.937-16.791,0.285"/>
	<path fill="none" stroke="#000000" stroke-width="1.5" stroke-linecap="round" stroke-linejoin="round" stroke-miterlimit="10" d="
		M148.802,135.322c0,0,0.151,3.595-4.614,6.333"/>
	<path fill="none" stroke="#000000" stroke-width="1.5" stroke-linecap="round" stroke-linejoin="round" stroke-miterlimit="10" d="
		M150.672,111.703c0,0,1.569,5.532,2.305,6.752c0.735,1.222,2.708,3.131,2.708,3.131"/>
	<path fill="none" stroke="#000000" stroke-width="1.5" stroke-linecap="round" stroke-linejoin="round" stroke-miterlimit="10" d="
		M147.419,138.843c0,0,4.637,6.987,16.251,6.19"/>
	<path fill="none" stroke="#000000" stroke-width="1.5" stroke-linecap="round" stroke-linejoin="round" stroke-miterlimit="10" d="
		M133.571,157.375c0,0,4.75,6.25,15.625,5.875"/>
	<path fill="none" stroke="#000000" stroke-width="3" stroke-linecap="round" stroke-linejoin="round" stroke-miterlimit="10" d="
		M113.789,147.002c3.907,4.998,4.282,16.498-0.683,24.333c-9.334,9-25.202,57.997-33.202,107.997s-10.131,110.334-8.798,114.334
		s4.667,7.333,4.667,7.333s-0.668,13.333-3.334,21.333s-2.666,9-2.666,9s16,7.334,43.333,9.334s60.667-1.333,72.667-6
		c0,0-5.334-19.334-5.334-60.667s-6.666-88.002-6.666-88.002"/>
	<path fill="none" stroke="#000000" stroke-width="3" stroke-linecap="round" stroke-linejoin="round" stroke-miterlimit="10" d="
		M140.57,187.746c11.907,11.907,14.006,36.447,15.686,49.576c3.549,10.877,2.176,20.495,2.176,20.495s14.546-2.459,20.669-3.664
		c0,0,12.425-5.267,15.631-3.664c3.205,1.603,3.205,1.603,3.205,1.603s2.29-3.206,2.29-8.244s1.604-5.954,1.604-9.16
		c0-3.206,5.037-1.603,5.495,2.748c-0.533,4.046,0.916,5.496,0.916,5.496s3.436,0.229,11.449-8.244c0,0,2.786-3.93,3.931-4.617
		c1.146-0.687,2.52-1.298,3.436-0.611s1.106,2.786,1.106,2.786s1.489-0.267,2.253,0.878s0.189,3.015,0.189,3.015
		s1.604,0.152,2.062,1.755c0.458,1.603,0.076,3.435,0.076,3.435s1.145,1.755,0.688,3.664c-0.458,1.909-3.894,9.617-9.847,14.312
		c-3.778,2.862-8.473,6.297-19.006,9.732c0,0,0.343,6.755-2.634,8.815c-2.977,2.062-14.675,3.684-14.675,3.684
		c-7.138,2.062-28.53,8.031-34.638,6.81c-6.106-1.221-16.181-3.512-21.374-11.753c-9.159-12.213-17.096-61.062-16.486-81.824"/>
	<path fill="none" stroke="#000000" stroke-width="3" stroke-linecap="round" stroke-linejoin="round" stroke-miterlimit="10" d="
		M170.738,255.667c-1-6-2.328-17.933-8.79-39.165c-3.878-12.739-9.46-25.124-13.442-29.437
		c-10.619-11.5-13.375-15.506-24.375-17.506c0,0-7.812-0.438-10.312,1.312"/>
	<path fill="none" stroke="#000000" stroke-width="1.5" stroke-linecap="round" stroke-linejoin="round" stroke-miterlimit="10" d="
		M223.317,254.19c0,0,3.129-3.855,4.388-5.458c1.26-1.603,4.236-7.174,4.236-7.174"/>
	<path fill="none" stroke="#000000" stroke-width="1.5" stroke-linecap="round" stroke-linejoin="round" stroke-miterlimit="10" d="
		M220.606,250.317c0,0,2.214-2.653,4.733-5.591c2.519-2.938,4.579-8.663,4.579-8.663"/>
	<path fill="none" stroke="#000000" stroke-width="1.5" stroke-linecap="round" stroke-linejoin="round" stroke-miterlimit="10" d="
		M217.401,246.444c0,0,3.835-4.142,5.667-6.775s4.675-7.079,4.675-7.079"/>
	<path fill="none" stroke="#000000" stroke-width="1.5" stroke-linecap="round" stroke-linejoin="round" stroke-miterlimit="10" d="
		M203.813,246.29c1.909-1.298,5.229-2.9,5.229-2.9"/>
	<path fill="none" stroke="#000000" stroke-width="1.5" stroke-linecap="round" stroke-linejoin="round" stroke-miterlimit="10" d="
		M198.166,253.008c0,0,4.809,8.931,5.725,17.861"/>
	<path fill="none" stroke="#000000" stroke-width="3" stroke-linecap="round" stroke-linejoin="round" stroke-miterlimit="10" d="
		M162.979,219.347c0,0,5.343-8.549,7.633-8.702c2.29-0.152,5.34,3.054,5.34,3.054s7.475-5.114,7.024-11.828
		s-1.526-9.546-2.069-13.79c0,0,2.285-1.505,4.19-0.205c1.905,1.301,2.649,2.732,4.367,5.708c0,0,0.687-2.576,0.825-3.941
		c0.549-3.572,1.287-11.959,1.287-11.959s0.138-3.297,1.512-3.435c1.374-0.137,7.163-2.814,3.729,19.169
		c0,0,3.638-6.299,5.698-16.054c0,0,1.342-2.328,3.075-2.213c1.733,0.114,2.421,2.633,2.421,2.633s-0.23,3.135-1.146,7.36
		c-0.776,3.592-2.533,7.975-4.68,11.889c0,0,7.469-10.274,9.031-13.559c1.016-0.715,2.64-1.12,3.739,1.079
		c1.099,2.198,0.534,3.298,0.534,3.298s0.496-0.275,1.457,2.198c0.452,1.165-0.419,4.406-3.212,7.199
		c-1.877,4.318-5.762,7.335-5.762,7.335s-2.248,5.893-5.545,10.701c-4.207,6.351-9.411,6.528-9.411,6.528l-2.409,3.641
		c0,0,1.985,3.816,1.68,7.022c-0.306,3.206-5.953,8.243-9.159,12.518c-3.206,4.274-7.786,9.465-7.786,9.465"/>
	<path fill="none" stroke="#000000" stroke-width="1.5" stroke-linecap="round" stroke-linejoin="round" stroke-miterlimit="10" d="
		M175.61,214.194c0,0,4.466,10.419,8.244,13.968s4.579,4.007,4.579,4.007"/>
	<path fill="none" stroke="#000000" stroke-width="1.5" stroke-linecap="round" stroke-linejoin="round" stroke-miterlimit="10" d="
		M186.086,230.052c0,0,2.576-3.092,4.179-5.152"/>
	<path fill="none" stroke="#000000" stroke-width="1.5" stroke-linecap="round" stroke-linejoin="round" stroke-miterlimit="10" d="
		M189.464,220.949c0,0,1.527-0.076,4.428,0.382"/>
	<path fill="none" stroke="#000000" stroke-width="1.5" stroke-linecap="round" stroke-linejoin="round" stroke-miterlimit="10" d="
		M194.375,212.66c0,0,1.727-4.15,0.658-7.814c-1.067-3.664-4.809-6.183-4.809-6.183s-0.504-2.244-1.133-4.534"/>
	<path fill="none" stroke="#000000" stroke-width="1.5" stroke-linecap="round" stroke-linejoin="round" stroke-miterlimit="10" d="
		M206.811,206.162c-0.056-2.234-0.752-3.911-1.53-5.286c-0.777-1.375-3.184-3.092-3.565-3.398"/>
	<path fill="none" stroke="#000000" stroke-width="1.5" stroke-linecap="round" stroke-linejoin="round" stroke-miterlimit="10" d="
		M205.418,200.646c0,0,4.352-2.9,5.42-6.182c3.13-2.901,3.813-6.335,3.813-6.335"/>
	<path fill="none" stroke="#000000" stroke-width="1.5" stroke-linecap="round" stroke-linejoin="round" stroke-miterlimit="10" d="
		M155.571,200c6,20.125,10.376,40.456,11.708,56.542"/>
	<path fill="none" stroke="#000000" stroke-width="1.5" stroke-linecap="round" stroke-linejoin="round" stroke-miterlimit="10" d="
		M170.737,286.501c1.278,13.972,3.036,37.332,2.917,66.082S169.44,393.25,169.44,394s-0.75,5.5-7.5,6.25
		c-3.146,0.35-16.335,3.374-32.028,3.75c-17.983,0.43-41.255-2.898-54.472-4.5"/>
	<path fill="none" stroke="#000000" stroke-width="3" stroke-linecap="round" stroke-linejoin="round" stroke-miterlimit="10" d="
		M146.238,441c0,0-12.146,62.913-6.336,65.989c10.297,5.984,21.888,3.146,26.509,11.549c4.623,8.402-0.553,10.745-0.553,10.745
		s-17.887,3.9-23.092-0.44c-2.498-5.584-5.119-7.931-9.861-5.843l-2.121,5.432c0,0-4.951,1.579-8.058-2.74
		c0,0,0.211-4.385-0.139-9.25c-0.349-4.865,3.123-10.007,3.123-10.007s-3.169-45.839-3.473-64.685"/>
	<path fill="none" stroke="#000000" stroke-width="1.5" stroke-linecap="round" stroke-linejoin="round" stroke-miterlimit="10" d="
		M139.196,506.63c0,0-8.819,4.093-13.303,0.048"/>
	<path fill="none" stroke="#000000" stroke-width="3" stroke-linecap="round" stroke-linejoin="round" stroke-miterlimit="10" d="
		M123.056,527.23c-5.595,0.67-12.54,0.586-16.593-2.854c-1.306-3.991-3.232-6.965-5.573-8.467s-3.179-0.668-5.353,2.193
		c-2.904-0.121-5.978-3.047-5.978-3.047s0.701-10.363,4.545-13.312c3.842-2.946,6.001-17.612,9.358-32.304
		s5.357-28.691,5.357-28.691"/>
	<path fill="none" stroke="#000000" stroke-width="3" stroke-linecap="round" stroke-linejoin="round" stroke-miterlimit="10" d="
		M123.258,466.812c-6.497,15.068-14.903,32.362-11.83,35.806c3.805,4.977,8.022,5.577,12.473,6.416"/>
	<path fill="none" stroke="#000000" stroke-width="1.5" stroke-linecap="round" stroke-linejoin="round" stroke-miterlimit="10" d="
		M110.946,500.548c0,0-9.008,3.743-13.82-3.728"/>
</g>
</svg>
