<?xml version="1.0" encoding="utf-8"?>
<!-- Generator: Adobe Illustrator 16.0.0, SVG Export Plug-In . SVG Version: 6.00 Build 0)  -->
<!DOCTYPE svg PUBLIC "-//W3C//DTD SVG 1.1//EN" "http://www.w3.org/Graphics/SVG/1.1/DTD/svg11.dtd">
<svg version="1.1" id="Layer_1" xmlns="http://www.w3.org/2000/svg" xmlns:xlink="http://www.w3.org/1999/xlink" x="0px" y="0px"
	 width="283.46px" height="449.548px" viewBox="0 0 283.46 449.548" enable-background="new 0 0 283.46 449.548"
	 xml:space="preserve">
<g>
	<path fill="#465E7C" d="M268.63,230.869c7.97,14.21,2.43,24.96-4.85,32.58l-3.94,3.67l-0.39-0.42
		c-3.12,2.08-8.08,4.739-13.17,4.029c-4.96-0.699-8.42-1.27-18.13-9.1c-9.83-13.28-20.681-22.61-20.681-22.61l-2.819-0.35
		c0.859-0.34,1.97-0.88,3.189-1.75c1.45-2.71,2.57-6.91,2.57-6.91s4.34-4.51,2.6-18.37c-1.3-10.45-2.81-16.76-3.47-19.229h0.01
		C209.55,192.409,260.66,216.659,268.63,230.869z"/>
	<path fill="#59253C" d="M258.13,399.358c5.98,4.15,10.51,9.811,6.87,16.65c-5.74,6.74-15.71,6.29-16.5,6.24
		c-0.82-2.601-2.36-4.94-4.12-6.24c-2.399-1.87-4.729-3.81-10.87-8l0.271-0.38c0,0,2.149-14.29,17.189-13.29l0.54-0.62l4.721,4.11
		c0,0,0-0.021,0.01-0.061C256.81,398.249,257.5,398.918,258.13,399.358z"/>
	<path fill="#465E7C" d="M265.17,350.779c0,0,1.47,28.5-1.9,33.439l-6.069,5.37l-1.641,0.26c-0.34-0.75-0.79-1.46-1.39-2.09
		c-0.22-2.4,0.47-9.85-0.61-12.9c-3.64-10.22-3.47-19.409-3.47-19.409s-2.729-34.17-6.88-61.721
		c-1.72-11.399-8.13-22.729-15.06-32.1c9.71,7.83,13.17,8.4,18.13,9.1c5.09,0.71,10.05-1.949,13.17-4.029l0.39,0.42l-1.26,1.18
		C258.58,268.298,263.78,318.898,265.17,350.779z"/>
	<path fill="#B7BF4F" d="M256.24,397.768c-0.01,0.04-0.01,0.061-0.01,0.061l-4.721-4.11l-1.76-1.53c0,0-8.49-2.43-14.21,3.811
		c-3.18,3.47-4.43,6.13-4.91,7.81l-0.46-0.01c-0.689-3.81-4.85-5.89-4.85-5.89c-0.91-0.58-1.82-1.07-2.71-1.5l0.279-0.58
		c0,0,9.36-9.011,15.42-10.4c6.07-1.39,10.141-1.13,15.03,2.561l0.83-0.23c0.6,0.63,1.05,1.34,1.39,2.09
		C257.08,393.188,256.35,397.239,256.24,397.768z"/>
	<path fill="#B7BF4F" d="M228.15,261.628c6.93,9.37,13.34,20.7,15.06,32.1c4.15,27.551,6.88,61.721,6.88,61.721
		s-0.17,9.189,3.47,19.409c1.08,3.051,0.391,10.5,0.61,12.9l-0.83,0.23c-4.89-3.69-8.96-3.95-15.03-2.561
		c-6.06,1.39-15.42,10.4-15.42,10.4l-0.279,0.58c0.89,0.43,1.8,0.92,2.71,1.5c0,0,4.16,2.08,4.85,5.89l0.46,0.01
		c-0.39,1.351-0.29,2.07-0.29,2.07s-0.78-0.83-2.27-1.65c-1.49-0.819-3.7-1.649-6.561-1.649c-5.72,0-11.79,3.12-15.08,7.45
		c-1.6,2.1-2.979,5.47-5.01,8.909c-0.71,1.221-1.5,2.44-2.41,3.62c-1.81,2.38-4.09,4.58-7.13,6.19c-8.84,4.68-20.8,3.81-33.27,2.25
		c-2.681-0.34-4.11-0.96-4.75-1.91c-2.311-3.47,6.05-11.38,3.189-26.07c-3.64-18.72-6.24-53.279-5.2-73.56v-18.19
		c0,0,0.181-0.09,0.49-0.279c3.04-1.841,18.98-12.82,12.851-37.32c-1.24-4.94-4.58-9.76-9.341-14.39l0.33-0.341
		c1.73-0.87,3.271-1.819,3.271-1.819c0.71,0.96,5.37,4.04,9.74,7.479c1.979,1.561,3.899,3.2,5.359,4.74
		c4.681,4.94,5.82,7.36,8.55,8.66c2.73,1.3,4.75,1.37,6.891-0.65c0,0,0.04-0.02,0.14-0.05c0.271-0.1,0.96-0.34,2.13-0.73
		c2.21-1.039,2.15-2.659,2.15-2.659s1.359-0.13,2.63-1.591c1.27-1.47,0.19-3.479,0.19-3.479s1.92-1.69,1.529-4.42
		c-0.39-2.73-2.399-6.95-2.399-6.95s0.02-0.05,0.06-0.14c0.37-0.86,2.4-5.66,3.9-9.82c1.649-4.59,2.51-8.28,2.51-8.28
		s0.71-0.109,1.82-0.56l2.819,0.35C207.47,239.018,218.32,248.348,228.15,261.628z"/>
	<path fill="#EAD2C3" d="M251.51,393.718l-0.54,0.62c-15.04-1-17.189,13.29-17.189,13.29l-0.271,0.38
		c-0.96-0.65-2.01-1.36-3.17-2.13c0,0-0.1-0.72,0.29-2.07c0.48-1.68,1.73-4.34,4.91-7.81c5.72-6.24,14.21-3.811,14.21-3.811
		L251.51,393.718z"/>
	<path fill="#59253C" d="M227.8,404.708l0.271-0.48c1.489,0.82,2.27,1.65,2.27,1.65c1.16,0.77,2.21,1.479,3.17,2.13
		c6.141,4.19,8.471,6.13,10.87,8c1.76,1.3,3.3,3.64,4.12,6.24c1.66,5.2,0.47,11.439-7.5,12.47c-9.71,1.271-19.49-1.52-26.51-5.45
		c-6.5-3.64-14.561-6.239-14.561-6.239l-0.92-0.471c0.91-1.18,1.7-2.399,2.41-3.62l0.33,0.19l9.55,3.18
		C213.11,405.068,226.67,404.708,227.8,404.708z"/>
	<path fill="#EAD2C3" d="M228.07,404.228l-0.271,0.48c-1.13,0-14.689,0.359-16.5,17.6l-9.55-3.18l-0.33-0.19
		c2.03-3.439,3.41-6.81,5.01-8.909c3.29-4.33,9.36-7.45,15.08-7.45C224.37,402.579,226.58,403.409,228.07,404.228z"/>
	<path fill="#59253C" d="M182.89,210.398c-7.029-1.33-13.84-1.3-20.069-0.52l-0.061-0.49c0,0-5.45-52.5-5.97-55.1
		c-0.521-2.6-0.18-5.37,1.12-6.85c1.3-1.47,2.52-0.95,4.08-5.89c1.55-4.94,0.99-9.05,0.99-9.05l-0.79-0.17
		c1.1-1.02,2.14-2.32,2.1-3.55c0-0.01,0-0.03,0-0.04c0.82-0.95,1.4-1.11,1.51-1.73c2.26,0.08,4.601-1.91,5.03-3.12
		c0.229-0.66,0.21-1.53,0.14-2.18c-0.01-0.12-0.02-0.23-0.04-0.33c0.33,0.2,5.7,3.43,11.24,7.96c2.43,2.04,4.82,5.19,7.11,9.01
		c11.109,18.54,19.92,52.851,19.92,52.851s0.13,0.399,0.34,1.21c0.66,2.47,2.17,8.779,3.47,19.229c1.74,13.86-2.6,18.37-2.6,18.37
		s-1.12,4.2-2.57,6.91c-1.22,0.87-2.33,1.41-3.189,1.75c-1.11,0.45-1.82,0.56-1.82,0.56l-0.75-0.47c0,0,0.25-5.72,0-10.79l0.2-0.16
		c-0.74-0.95-1.721-1.95-3-2.96c-6.11-4.81-10.13-4.29-12.73-4.16c-2.6,0.13-5.069,0.591-7.02,1.95l-0.681-0.1
		c0.2-0.41,0.29-0.681,0.29-0.681s-1.689-2.079-0.779-4.159c0.909-2.07,1.26-1.12,3.08-3.851
		C182.22,212.668,182.54,211.499,182.89,210.398z"/>
	<path fill="#EAD2C3" d="M181.09,264.749c0,0-0.18,0.149-0.64,0.33c-0.46,0.18-1.22,0.38-2.351,0.45
		c-2.21,0.13-3.51-1.561-3.51-1.561s-1.04,1.17-2.729,0.521c-0.181-0.07-0.351-0.15-0.511-0.24c-1.31-0.74-1.8-2.101-1.569-3.141
		c0.26-1.17,5.069-8.449,5.979-11.96c0.54-2.069,0.3-6.5,0.021-9.779l-0.54,0.04c-2.34,0-2.601,1.43-5.07,3.64
		c-2.47,2.2-4.55,1.55-4.55,1.55c-2.99-0.52-2.2-2.59-1.29-4.149c1.29-2.601,3.81-5.24,3.81-5.24l-0.39-0.7c0,0,6.03-7.29,8.24-8.59
		c1.52-0.89,2.439-2.48,2.859-3.38l0.681,0.1c1.95-1.359,4.42-1.82,7.02-1.95c2.601-0.13,6.62-0.649,12.73,4.16
		c1.279,1.01,2.26,2.01,3,2.96l-0.2,0.16c0.25,5.07,0,10.79,0,10.79l0.75,0.47c0,0-0.86,3.69-2.51,8.28
		c-1.5,4.16-3.53,8.96-3.9,9.82l-0.78-0.32c-1,1.74-2.52,3.83-3.83,5.21c-0.739,0.79-1.42,1.35-1.89,1.49
		c-0.92,0.28-2.03,0.359-2.6,0.38c-0.24,0.01-0.38,0.01-0.38,0.01s-0.78,1.431-2.471,1.431
		C182.78,265.529,181.09,264.749,181.09,264.749z"/>
	<path fill="#DDE3F2" d="M188.24,25.638c7.54,3.64,20.45,20.01,22.609,38.73c-4.02,19.58-14.43,27.11-25.47,29.39
		c-3.899,0.81-7.89,0.96-11.689,0.76c-14.561-0.78-26.171-18.2-26.171-18.2c-6.229,8.88-10.819,14.42-15.069,17.55l1-2.34
		c0.78-4.68-5.16-7.41-8.8-5.59c-3.64,1.82-5.84,4.63-6.28,7.32l-0.25,0.14c-1.28-2.15-8.13-14.24-8.37-26.95
		c-0.26-14.04,4.94-28.33,13.52-33.27c5.03-2.9,12.13-2.4,17.13-1.48c3.52,0.64,6,1.48,6,1.48
		C159.13,17.068,180.71,21.999,188.24,25.638z"/>
	<path fill="#EAD2C3" d="M198.76,264.418c0.391,2.729-1.529,4.42-1.529,4.42l-0.87-0.06c-0.851-1.95-4.29-6.311-4.29-6.311
		l-0.261-0.25c1.311-1.38,2.83-3.47,3.83-5.21l0.78,0.32c-0.04,0.09-0.06,0.14-0.06,0.14S198.37,261.688,198.76,264.418z"/>
	<path fill="#EAD2C3" d="M197.23,268.838c0,0,1.079,2.01-0.19,3.479c-1.271,1.461-2.63,1.591-2.63,1.591l-0.59-0.2
		c-3.25-5.061-6.49-9.22-6.49-9.22l-0.01-0.4c0.569-0.021,1.68-0.1,2.6-0.38c0.47-0.141,1.15-0.7,1.89-1.49l0.261,0.25
		c0,0,3.439,4.36,4.29,6.311L197.23,268.838z"/>
	<path fill="#EAD2C3" d="M194.41,273.909c0,0,0.06,1.62-2.15,2.659c-1.17,0.391-1.859,0.631-2.13,0.73l-0.14-0.66
		c-0.891-1.95-1.24-1.59-9.54-11.56c0.46-0.181,0.64-0.33,0.64-0.33s1.69,0.78,3.38,0.78c1.69,0,2.471-1.431,2.471-1.431
		s0.14,0,0.38-0.01l0.01,0.4c0,0,3.24,4.159,6.49,9.22L194.41,273.909z"/>
	<path fill="#EAD2C3" d="M189.99,276.638l0.14,0.66c-0.1,0.03-0.14,0.05-0.14,0.05c-2.141,2.021-4.16,1.95-6.891,0.65
		c-2.729-1.3-3.869-3.72-8.55-8.66c-1.46-1.54-3.38-3.18-5.359-4.74l2.159-0.35c0.16,0.09,0.33,0.17,0.511,0.24
		c1.689,0.649,2.729-0.521,2.729-0.521s1.3,1.69,3.51,1.561c1.131-0.07,1.891-0.271,2.351-0.45
		C188.75,275.048,189.1,274.688,189.99,276.638z"/>
	<path fill="#465E7C" d="M185.12,97.108c0,0,3.81,25.64,4.16,41.24c-2.29-3.82-4.681-6.97-7.11-9.01
		c-5.54-4.53-10.91-7.76-11.24-7.96c-0.05-0.37-0.1-0.61-0.1-0.61s3.64-1.82,5.76-4.85c2.12-3.04,1.91-3.9,1.91-3.9l1.48-1.03
		c0,0-0.181-2.91,0.81-5.04c0.43-0.91,1.18-2.05,1.99-3.49c0.819-1.45,1.689-3.21,2.33-5.35H185.12z"/>
	<path fill="#EAD2C3" d="M146.22,120.068c0.771,0.83,7.28,7.45,17.55,8.71h0.521c0.04,1.23-1,2.53-2.1,3.55
		c-1.23,1.14-2.54,1.95-2.54,1.95c-0.78,5.72-4.15,10.4-9.61,9.62c-5.46-0.78-7.54-6.41-9.62-9.01c-2.95-2.25-6.41-3.38-10.83-9.1
		c-0.57-0.73-1.1-1.55-1.6-2.4c-3.4-5.82-5.24-13.71-5.24-13.71c-0.09,0.02-0.18,0.04-0.26,0.06l-0.09-0.41c0,0,3.55-2.68,2.43-6.32
		c-1.13-3.64-6.08-2.78-6.08-2.78l-0.12-0.45c0.07-0.03,0.15-0.04,0.22-0.06c-0.87-3.65-0.52-5.98-0.52-5.98s-0.07-0.12-0.21-0.34
		l0.25-0.14c0.44-2.69,2.64-5.5,6.28-7.32c3.64-1.82,9.58,0.91,8.8,5.59l-1,2.34c4.25-3.13,8.84-8.67,15.069-17.55
		c0,0,11.61,17.42,26.171,18.2c3.8,0.2,7.79,0.05,11.689-0.76l0.26,1.28c-0.149,0.73-0.33,1.42-0.529,2.07
		c-0.641,2.14-1.511,3.9-2.33,5.35l-0.261-0.15c-1.729-2.34-5.189-2.6-8.92-2.16c-3.72,3.03-4.989,8.53-4.18,10.83
		c0.22,0.61,0.33,1.86,0.17,2.7c-0.149,0.85-0.189,1.05-0.58,2.47c-0.21,0.79-0.2,1.4-0.109,1.87c0.239,1.22,1.27,3.48,1.399,3.76
		l0.67-0.07c0.07,0.65,0.09,1.52-0.14,2.18c-0.43,1.21-2.771,3.2-5.03,3.12l-0.33-0.82c0,0-4-0.31-5.819-3.17
		c-1.12-1.47-1.601-1.78-1.601-1.78s-3.92,1.5-4.83,0.24c-0.91-1.25-1.489-2.01,0.28-3.58c-2.55,0.2-4.77,1.2-7.37,1.58
		L146.22,120.068z"/>
	<path fill="#EAD2C3" d="M170.93,121.378c0.021,0.1,0.03,0.21,0.04,0.33l-0.67,0.07c-0.13-0.28-1.16-2.54-1.399-3.76
		c-0.091-0.47-0.101-1.08,0.109-1.87c0.391-1.42,0.431-1.62,0.58-2.47c0.16-0.84,0.05-2.09-0.17-2.7c-0.81-2.3,0.46-7.8,4.18-10.83
		c3.73-0.44,7.19-0.18,8.92,2.16l0.261,0.15c-0.811,1.44-1.561,2.58-1.99,3.49c-0.99,2.13-0.81,5.04-0.81,5.04l-1.48,1.03
		c0,0,0.21,0.86-1.91,3.9c-2.12,3.03-5.76,4.85-5.76,4.85S170.88,121.008,170.93,121.378z"/>
	<path fill="#B7BF4F" d="M182.89,210.398c-0.35,1.101-0.67,2.271-1.449,3.45c-1.82,2.73-2.171,1.78-3.08,3.851
		c-0.91,2.08,0.779,4.159,0.779,4.159s-0.09,0.271-0.29,0.681c-0.42,0.899-1.34,2.49-2.859,3.38c-2.21,1.3-8.24,8.59-8.24,8.59
		l-6.8-2.35l-0.09-0.03c0,0,1.04-3.16-2.431-5.67c-3.46-2.521-9.87-0.79-20.7-3.99c-1.87-0.55-3.79-1.24-5.69-2.01l0.06-0.16
		c0,0,7.62-4.81,19.13-8.05c3.529-1,7.43-1.851,11.59-2.37C169.05,209.098,175.86,209.068,182.89,210.398z"/>
	<path fill="#EAD2C3" d="M159.76,256.428c-1.76-1.61-2.74-3.88-2.74-3.88l-5.439-3.58h-0.07c0.05-6.439,1.25-10.63,2.9-12.68
		c1.77-2.21,3.5-3.17,6.359-3.601l0.181-0.529l6.8,2.35l0.39,0.7c0,0-2.52,2.64-3.81,5.24c-0.91,1.56-1.7,3.63,1.29,4.149
		c0,0,2.08,0.65,4.55-1.55c2.47-2.21,2.73-3.64,5.07-3.64l0.54-0.04c0.279,3.279,0.52,7.71-0.021,9.779
		c-0.91,3.511-5.72,10.79-5.979,11.96c-0.23,1.04,0.26,2.4,1.569,3.141l-2.159,0.35c-4.37-3.439-9.03-6.52-9.74-7.479
		L159.76,256.428z"/>
	<path fill="#EAD2C3" d="M165.47,126.188l0.33,0.82c-0.109,0.62-0.689,0.78-1.51,1.73c0,0.01,0,0.03,0,0.04h-0.521
		c-10.27-1.26-16.779-7.88-17.55-8.71l-0.09-0.59c2.601-0.38,4.82-1.38,7.37-1.58c-1.77,1.57-1.19,2.33-0.28,3.58
		c0.91,1.26,4.83-0.24,4.83-0.24s0.48,0.31,1.601,1.78C161.47,125.878,165.47,126.188,165.47,126.188z"/>
	<path fill="#465E7C" d="M152.3,256.058c1.26,1.07,2.44,2.141,3.55,3.221c4.761,4.63,8.101,9.449,9.341,14.39
		c6.13,24.5-9.811,35.479-12.851,37.32l-0.49-0.24c-8.84,3.29-16.459,2.25-22.87,0.52c-6.42-1.729-88.37-45.739-88.37-45.739
		s-9.88-4.681-15.07-20.28c-5.2-15.59,3.11-24.431,3.11-24.431s-6.23-33.26-16.11-104.479c-9.88-71.21,57.7-78.49,88.37-84.21
		c30.67-5.72,39.5-0.52,39.5-0.52l-0.01,0.09c-5-0.92-12.1-1.42-17.13,1.48c-8.58,4.94-13.78,19.23-13.52,33.27
		c0.24,12.71,7.09,24.8,8.37,26.95c0.14,0.22,0.21,0.34,0.21,0.34s-0.35,2.33,0.52,5.98c-0.07,0.02-0.15,0.03-0.22,0.06
		c-1.84,0.52-3.68,2.36-3.68,4.61c0,2.02,1.68,5.47,5.73,5.53l-0.02,0.7c0,0-36.91,7.8-44.18,45.23
		c-4.69,24.101-0.54,47.061,4.26,61.681l-0.06,0.13C99.7,226.668,133.56,240.208,152.3,256.058z"/>
	<path fill="#D67F58" d="M162.98,132.499c0,0,0.56,4.11-0.99,9.05c-1.561,4.94-2.78,4.42-4.08,5.89c-1.3,1.48-1.641,4.25-1.12,6.85
		c0.52,2.6,5.97,55.1,5.97,55.1l0.061,0.49c-4.16,0.52-8.061,1.37-11.59,2.37l-0.03-0.13c0,0-2.73-14.95-3.25-24.82
		c-0.521-9.88-1.34-18.88-1.34-23.36c0-9.61,0.659-13.64-5.55-17.19c-9.09-5.2-13.25-23.26-13.25-23.26l0.18-0.1
		c0.5,0.85,1.03,1.67,1.6,2.4c4.42,5.72,7.88,6.85,10.83,9.1c2.08,2.6,4.16,8.23,9.62,9.01c5.46,0.78,8.83-3.9,9.61-9.62
		c0,0,1.31-0.81,2.54-1.95L162.98,132.499z"/>
	<path fill="#59253C" d="M132.04,220.458c1.9,0.77,3.82,1.46,5.69,2.01c10.83,3.2,17.24,1.47,20.7,3.99
		c3.471,2.51,2.431,5.67,2.431,5.67l0.09,0.03l-0.181,0.529c-2.859,0.431-4.59,1.391-6.359,3.601c-1.65,2.05-2.851,6.24-2.9,12.68
		c0,0.48,0,0.97,0.01,1.48c0.051,2.479,0.381,4.199,0.78,5.609c-18.74-15.85-52.6-29.39-71.62-38.399l0.06-0.13
		c-4.8-14.62-8.95-37.58-4.26-61.681c7.27-37.43,44.18-45.23,44.18-45.23l0.02-0.7c0.55,0.01,1.16-0.05,1.81-0.18
		c0.08-0.02,0.17-0.04,0.26-0.06c0,0,1.84,7.89,5.24,13.71l-0.18,0.1c0,0,4.16,18.06,13.25,23.26c6.209,3.55,5.55,7.58,5.55,17.19
		c0,4.48,0.819,13.48,1.34,23.36c0.52,9.87,3.25,24.82,3.25,24.82l0.03,0.13c-11.51,3.24-19.13,8.05-19.13,8.05L132.04,220.458z"/>
	<path fill="#59253C" d="M159.76,256.428l-0.31,0.69c0,0-1.54,0.949-3.271,1.819l-0.33,0.341c-1.109-1.08-2.29-2.15-3.55-3.221
		c-0.399-1.41-0.729-3.13-0.78-5.609c-0.01-0.511-0.01-1-0.01-1.48h0.07l5.439,3.58C157.02,252.548,158,254.818,159.76,256.428z"/>
	<path fill="#465E7C" d="M157.05,403.018c2.86,14.69-5.5,22.601-3.189,26.07l-0.971,0.7l-8.84,1.56
		c-33.27-1.56-106.56-62.899-106.56-62.899s2.08-24.431,4.68-38.99c2.6-14.55-1.56-63.93-1.56-63.93s81.95,44.01,88.37,45.739
		c6.41,1.73,14.03,2.771,22.87-0.52l0.49,0.24c-0.31,0.189-0.49,0.279-0.49,0.279v18.19
		C150.81,349.739,153.41,384.298,157.05,403.018z"/>
	<path fill="#FFD836" d="M124.83,103.008c1.12,3.64-2.43,6.32-2.43,6.32l0.09,0.41c-0.65,0.13-1.26,0.19-1.81,0.18
		c-4.05-0.06-5.73-3.51-5.73-5.53c0-2.25,1.84-4.09,3.68-4.61l0.12,0.45C118.75,100.229,123.7,99.368,124.83,103.008z"/>
</g>
<g>
	<path fill="none" stroke="#000000" stroke-width="3" stroke-linecap="round" stroke-linejoin="round" stroke-miterlimit="10" d="
		M118.372,93.257c0.434-2.688,2.643-5.499,6.281-7.32s9.572,0.91,8.792,5.588l-0.995,2.339c4.254-3.13,8.838-8.661,15.074-17.542
		c0,0,11.609,17.414,26.164,18.193c14.554,0.779,31.708-3.639,37.166-30.149c-2.167-18.713-15.074-35.087-22.612-38.726
		c-7.537-3.639-29.108-8.576-41.844,7.537c0,0-14.555-4.938-23.132,0c-8.577,4.938-13.775,19.233-13.516,33.269
		c0.261,14.034,8.577,27.29,8.577,27.29s-0.346,2.337,0.521,5.979c-1.906,0.434-3.899,2.338-3.899,4.677
		c0,2.34,2.253,6.585,7.798,5.286c0,0,2.426,10.396,6.845,16.113c4.418,5.719,7.883,6.846,10.828,9.097
		c2.079,2.6,4.159,8.23,9.617,9.01s8.836-3.898,9.616-9.616c0,0,4.773-2.944,4.64-5.544c0.818-0.953,1.401-1.109,1.512-1.732
		c2.253,0.086,4.591-1.908,5.024-3.12s0-3.119,0-3.119s3.637-1.819,5.761-4.851s1.906-3.899,1.906-3.899l1.485-1.024
		c0,0-0.186-2.917,0.812-5.039c0.995-2.122,3.725-5.458,4.851-10.917"/>
	<path fill="none" stroke="#000000" stroke-width="1.5" stroke-linecap="round" stroke-linejoin="round" stroke-miterlimit="10" d="
		M148.361,75.988c0,0,20.878,13.975,36.234,6.154c12.323-6.659,10.48-20.004,3.354-24.727c-7.125-4.722-14.035-0.738-14.282,3.726
		c-0.248,4.463,8.079,5.536,9.188,2.889"/>
	<path fill="none" stroke="#000000" stroke-width="1.5" stroke-linecap="round" stroke-linejoin="round" stroke-miterlimit="10" d="
		M122.92,108.81c0,0,3.032-2.165,1.906-5.804s-5.198-2.775-5.198-2.775"/>
	<path fill="none" stroke="#000000" stroke-width="1.5" stroke-linecap="round" stroke-linejoin="round" stroke-miterlimit="10" d="
		M124.869,102.267c3.38-5.286-2.642-7.408-0.476-10.613c2.165-3.205,4.483-0.497,4.483-0.497"/>
	<path fill="none" stroke="#000000" stroke-width="1.5" stroke-linecap="round" stroke-linejoin="round" stroke-miterlimit="10" d="
		M138.341,98.326c0,0,1.993,0.26,4.072,2.339"/>
	<path fill="none" stroke="#000000" stroke-width="1.5" stroke-linecap="round" stroke-linejoin="round" stroke-miterlimit="10" d="
		M145.878,94.06c0,0,8.751-3.249,15.769,1.17"/>
	<path fill="none" stroke="#000000" stroke-width="1.5" stroke-linecap="round" stroke-linejoin="round" stroke-miterlimit="10" d="
		M160.261,100.233c0,0-3.553,6.239-1.82,7.972c0,0-5.479,0.15-11.263-3.878"/>
	<path fill="none" stroke="#000000" stroke-width="1.5" stroke-linecap="round" stroke-linejoin="round" stroke-miterlimit="10" d="
		M161.386,115.826c0,0,0.087-3.726,1.3-5.458c1.214-1.733,1.993-9.01,1.993-9.01"/>
	<path fill="none" stroke="#000000" stroke-width="1.5" stroke-linecap="round" stroke-linejoin="round" stroke-miterlimit="10" d="
		M182.524,102.31c-1.731-2.339-5.198-2.599-8.922-2.165c-3.726,3.032-4.997,8.53-4.181,10.831c0.215,0.608,0.324,1.862,0.173,2.707
		s-0.19,1.05-0.581,2.469c-0.217,0.788-0.205,1.398-0.111,1.862c0.26,1.3,1.407,3.791,1.407,3.791"/>
	<path fill="none" stroke="#000000" stroke-width="1.5" stroke-linecap="round" stroke-linejoin="round" stroke-miterlimit="10" d="
		M171.521,110.025c0,0,4.288,2.076,7.927,0.865"/>
	<path fill="none" stroke="#000000" stroke-width="1.5" stroke-linecap="round" stroke-linejoin="round" stroke-miterlimit="10" d="
		M165.469,126.191c0,0-3.996-0.312-5.815-3.172c-1.126-1.473-1.603-1.776-1.603-1.776s-3.921,1.493-4.83,0.237
		c-0.91-1.256-1.495-2.014,0.274-3.582c-4.498,0.354-7.963,3.213-14.287,0.701"/>
	<path fill="none" stroke="#000000" stroke-width="1.5" stroke-linecap="round" stroke-linejoin="round" stroke-miterlimit="10" d="
		M146.137,119.986c0,0,6.674,7.451,17.632,8.794"/>
	<path fill="none" stroke="#000000" stroke-width="1.5" stroke-linecap="round" stroke-linejoin="round" stroke-miterlimit="10" d="
		M150.816,131.941c0,0,2.859,1.56,7.537,1.819"/>
	<path fill="none" stroke="#000000" stroke-width="3" stroke-linecap="round" stroke-linejoin="round" stroke-miterlimit="10" d="
		M120.66,110.623c0,0-36.906,7.797-44.184,45.223c-4.688,24.104-0.534,47.066,4.267,61.684"/>
	<path fill="none" stroke="#000000" stroke-width="3" stroke-linecap="round" stroke-linejoin="round" stroke-miterlimit="10" d="
		M109.225,154.806c0,0,1.905,12.647,2.944,22.352c2.957,27.631,2.253,34.309,2.253,34.309s12.477,7.798,23.305,11.002
		c10.829,3.204,17.241,1.475,20.707,3.986s2.427,5.675,2.427,5.675l6.887,2.381c0,0,6.031-7.288,8.24-8.588s3.151-4.062,3.151-4.062
		s-1.689-2.079-0.779-4.158c0.909-2.079,1.257-1.127,3.076-3.855c1.819-2.729,1.083-5.327,4.331-7.32c0,0-1.43-21.832-3.898-35.997
		c-2.47-14.165-4.809-20.728-6.108-25.016"/>
	<path fill="none" stroke="#000000" stroke-width="3" stroke-linecap="round" stroke-linejoin="round" stroke-miterlimit="10" d="
		M170.907,121.366c0,0,5.545,3.292,11.262,7.971c14.21,11.955,27.031,61.857,27.031,61.857s2.079,6.583,3.812,20.445
		s-2.599,18.366-2.599,18.366s-1.126,4.201-2.577,6.909c-2.772,1.971-5.004,2.317-5.004,2.317s-0.865,3.682-2.512,8.274
		s-3.964,9.962-3.964,9.962s2.015,4.224,2.404,6.952c0.39,2.729-1.527,4.419-1.527,4.419s1.072,2.014-0.194,3.476
		c-1.268,1.462-2.632,1.592-2.632,1.592s0.065,1.625-2.145,2.664c-1.56,0.521-2.273,0.78-2.273,0.78
		c-2.145,2.014-4.159,1.949-6.888,0.649c-2.729-1.3-3.876-3.726-8.555-8.664c-4.678-4.938-14.057-10.832-15.097-12.218
		c0,0-1.538,0.952-3.271,1.819"/>
	<path fill="none" stroke="#000000" stroke-width="1.5" stroke-linecap="round" stroke-linejoin="round" stroke-miterlimit="10" d="
		M160.772,232.69c-2.858,0.433-4.591,1.387-6.367,3.596s-3.012,6.886-2.881,14.163c0.047,2.654,0.425,4.429,0.844,5.892"/>
	<path fill="none" stroke="#000000" stroke-width="1.5" stroke-linecap="round" stroke-linejoin="round" stroke-miterlimit="10" d="
		M151.579,248.966l5.438,3.581c0,0,1.287,2.963,3.539,4.522"/>
	<path fill="none" stroke="#000000" stroke-width="1.5" stroke-linecap="round" stroke-linejoin="round" stroke-miterlimit="10" d="
		M168.138,235.204c0,0-2.513,2.642-3.812,5.24c-0.909,1.56-1.69,3.639,1.299,4.159c0,0,2.079,0.649,4.548-1.56
		c2.47-2.209,2.729-3.639,5.068-3.639"/>
	<path fill="none" stroke="#000000" stroke-width="1.5" stroke-linecap="round" stroke-linejoin="round" stroke-miterlimit="10" d="
		M175.37,235.376c0,0,1.3,10.266,0.39,13.774c-0.909,3.509-5.718,10.786-5.978,11.956c-0.26,1.169,0.39,2.729,2.079,3.379
		c1.689,0.649,2.729-0.521,2.729-0.521s1.299,1.689,3.509,1.56c2.209-0.13,2.988-0.779,2.988-0.779s1.689,0.779,3.379,0.779
		s2.469-1.43,2.469-1.43s1.689,0,2.989-0.39s4.158-3.964,5.718-6.692"/>
	<path fill="none" stroke="#000000" stroke-width="1.5" stroke-linecap="round" stroke-linejoin="round" stroke-miterlimit="10" d="
		M174.591,263.965c0,0,5.328-6.887,6.887-9.227c1.56-2.339,2.729-9.486,2.729-9.486"/>
	<path fill="none" stroke="#000000" stroke-width="1.5" stroke-linecap="round" stroke-linejoin="round" stroke-miterlimit="10" d="
		M181.088,264.746c0,0,3.639-4.938,5.458-7.667c1.819-2.729,3.509-8.967,3.509-8.967"/>
	<path fill="none" stroke="#000000" stroke-width="1.5" stroke-linecap="round" stroke-linejoin="round" stroke-miterlimit="10" d="
		M186.936,264.095c0,0,2.859-3.898,4.289-6.367s3.379-7.537,3.379-7.537"/>
	<path fill="none" stroke="#000000" stroke-width="1.5" stroke-linecap="round" stroke-linejoin="round" stroke-miterlimit="10" d="
		M180.438,265.07c8.314,9.979,8.658,9.618,9.552,11.566"/>
	<path fill="none" stroke="#000000" stroke-width="1.5" stroke-linecap="round" stroke-linejoin="round" stroke-miterlimit="10" d="
		M187.326,264.486c0,0,3.248,4.158,6.497,9.227"/>
	<path fill="none" stroke="#000000" stroke-width="1.5" stroke-linecap="round" stroke-linejoin="round" stroke-miterlimit="10" d="
		M192.069,262.471c0,0,3.443,4.354,4.288,6.303"/>
	<path fill="none" stroke="#000000" stroke-width="1.5" stroke-linecap="round" stroke-linejoin="round" stroke-miterlimit="10" d="
		M202.075,238.755c0,0,0.26-5.719,0-10.786"/>
	<path fill="none" stroke="#000000" stroke-width="1.5" stroke-linecap="round" stroke-linejoin="round" stroke-miterlimit="10" d="
		M204.609,234.336c0,0,0.78-4.678-5.328-9.486c-6.107-4.809-10.136-4.288-12.735-4.158c-2.599,0.13-5.068,0.585-7.018,1.949"/>
	<path fill="none" stroke="#000000" stroke-width="1.5" stroke-linecap="round" stroke-linejoin="round" stroke-miterlimit="10" d="
		M185.724,207.306c0,0,7.624-3.812,12.908-2.772"/>
	<path fill="none" stroke="#000000" stroke-width="1.5" stroke-linecap="round" stroke-linejoin="round" stroke-miterlimit="10" d="
		M186.764,205.313c0,0,2.716-2.892,6.715-4.032"/>
	<path fill="none" stroke="#000000" stroke-width="1.5" stroke-linecap="round" stroke-linejoin="round" stroke-miterlimit="10" d="
		M163.284,218.396c0,0,5.545-4.504,15.595-2.771"/>
	<path fill="none" stroke="#000000" stroke-width="3" stroke-linecap="round" stroke-linejoin="round" stroke-miterlimit="10" d="
		M132.096,220.301c0,0,23.912-15.074,50.941-9.876"/>
	<path fill="none" stroke="#000000" stroke-width="1.5" stroke-linecap="round" stroke-linejoin="round" stroke-miterlimit="10" d="
		M127.808,123.488c0,0,4.158,18.062,13.255,23.261c6.207,3.547,5.546,7.584,5.548,17.194c0.001,4.476,0.82,13.475,1.34,23.351
		c0.52,9.877,3.249,24.821,3.249,24.821"/>
	<path fill="none" stroke="#000000" stroke-width="1.5" stroke-linecap="round" stroke-linejoin="round" stroke-miterlimit="10" d="
		M162.982,132.497c0,0,0.562,4.116-0.997,9.054c-1.56,4.938-2.771,4.418-4.071,5.891c-1.3,1.474-1.646,4.246-1.127,6.845
		c0.52,2.6,5.978,55.101,5.978,55.101"/>
	<path fill="none" stroke="#000000" stroke-width="3" stroke-linecap="round" stroke-linejoin="round" stroke-miterlimit="10" d="
		M207.469,239.015c0,0,31.578,27.16,35.736,54.71c4.159,27.55,6.888,61.727,6.888,61.727s-0.178,9.185,3.465,19.407
		c1.086,3.045,0.393,10.504,0.612,12.902c3.465,3.648,2.064,10.07,2.064,10.07l-6.489-5.646c0,0-8.489-2.427-14.207,3.812
		c-5.718,6.237-5.198,9.876-5.198,9.876s-3.114-3.294-8.833-3.294c-5.718,0-11.79,3.119-15.078,7.452s-5.714,14.037-14.551,18.716
		c-8.836,4.678-20.796,3.811-33.271,2.251s2.079-9.271-1.56-27.984c-3.639-18.713-6.237-53.28-5.198-73.553v-18.194
		c0,0,20.101-10.567,13.343-37.598s-76.759-50.249-94.433-61.165c-15.418-8.316-26.161-1.389-26.161-1.389"/>
	<path fill="none" stroke="#000000" stroke-width="3" stroke-linecap="round" stroke-linejoin="round" stroke-miterlimit="10" d="
		M140.413,31.611c0,0-8.837-5.198-39.506,0.521C70.239,37.849,2.664,45.126,12.54,116.34
		c9.877,71.214,16.114,104.481,16.114,104.481s-8.317,8.837-3.119,24.431c5.198,15.595,15.074,20.272,15.074,20.272
		s4.159,49.382,1.56,63.937c-2.599,14.555-4.678,38.985-4.678,38.985s73.293,61.338,106.561,62.897l8.837-1.56"/>
	<path fill="none" stroke="#000000" stroke-width="3" stroke-linecap="round" stroke-linejoin="round" stroke-miterlimit="10" d="
		M185.116,97.107c0,0,3.812,25.645,4.159,41.238"/>
	<path fill="none" stroke="#000000" stroke-width="3" stroke-linecap="round" stroke-linejoin="round" stroke-miterlimit="10" d="
		M209.548,192.405c0,0,51.114,24.258,59.084,38.467c7.97,14.208,2.426,24.952-4.852,32.575l-5.198,4.851
		c0,0,5.197,50.597,6.584,82.478c0,0,1.479,28.501-1.9,33.439l-6.068,5.372"/>
	<path fill="none" stroke="#000000" stroke-width="1.5" stroke-linecap="round" stroke-linejoin="round" stroke-miterlimit="10" d="
		M259.447,266.695c-3.119,2.08-8.079,4.747-13.168,4.03c-5.088-0.717-8.597-1.302-18.886-9.702"/>
	<path fill="none" stroke="#000000" stroke-width="1.5" stroke-linecap="round" stroke-linejoin="round" stroke-miterlimit="10" d="
		M40.609,265.525c0,0,81.954,44.012,88.368,45.743c6.413,1.732,14.037,2.771,22.871-0.521"/>
	<path fill="none" stroke="#000000" stroke-width="1.5" stroke-linecap="round" stroke-linejoin="round" stroke-miterlimit="10" d="
		M191.874,344.016c0,0,15.595,33.268,41.065,29.629"/>
	<path fill="none" stroke="#000000" stroke-width="1.5" stroke-linecap="round" stroke-linejoin="round" stroke-miterlimit="10" d="
		M189.276,410.033c0,0,16.287-24.604,36.04-12.129c0,0,4.159,2.08,4.853,5.892"/>
	<path fill="none" stroke="#000000" stroke-width="1.5" stroke-linecap="round" stroke-linejoin="round" stroke-miterlimit="10" d="
		M222.892,395.825c0,0,9.355-9.011,15.419-10.396c6.064-1.386,10.137-1.126,15.031,2.557"/>
	<path fill="none" stroke="#000000" stroke-width="3" stroke-linecap="round" stroke-linejoin="round" stroke-miterlimit="10" d="
		M230.34,405.874c8.577,5.718,11.266,7.972,14.035,10.136c5.287,3.901,8.577,17.154-3.379,18.714
		c-9.707,1.266-19.489-1.526-26.511-5.458c-6.497-3.639-14.554-6.238-14.554-6.238"/>
	<path fill="none" stroke="#000000" stroke-width="1.5" stroke-linecap="round" stroke-linejoin="round" stroke-miterlimit="10" d="
		M227.871,404.704c0,0-14.685-0.39-16.569,17.608l-9.551-3.184"/>
	<path fill="none" stroke="#000000" stroke-width="3" stroke-linecap="round" stroke-linejoin="round" stroke-miterlimit="10" d="
		M255.995,397.569c0.604,0.468,1.412,1.284,2.134,1.786c5.978,4.158,10.509,9.812,6.87,16.654c-5.979,7.018-16.55,6.238-16.55,6.238
		"/>
	<path fill="none" stroke="#000000" stroke-width="1.5" stroke-linecap="round" stroke-linejoin="round" stroke-miterlimit="10" d="
		M233.784,407.627c0,0,2.144-14.294,17.186-13.287"/>
</g>
</svg>
