<?xml version="1.0" encoding="utf-8"?>
<!-- Generator: Adobe Illustrator 16.0.0, SVG Export Plug-In . SVG Version: 6.00 Build 0)  -->
<!DOCTYPE svg PUBLIC "-//W3C//DTD SVG 1.1//EN" "http://www.w3.org/Graphics/SVG/1.1/DTD/svg11.dtd">
<svg version="1.1" id="Layer_1" xmlns="http://www.w3.org/2000/svg" xmlns:xlink="http://www.w3.org/1999/xlink" x="0px" y="0px"
	 width="283.46px" height="560px" viewBox="0 0 283.46 560" enable-background="new 0 0 283.46 560" xml:space="preserve">
<g id="clour">
	<path d="M127.09,490.11c1.17,2.33,2.09,3.77,2.09,8.17c0,3.39-0.69,12.149-0.69,12.149l-5.53,0.33c0,0-1.38-5.91-4.83-5.91
		c-3.45,0-2.07,5.25-6.9,7.221c-4.83,1.97-24.85,1.31-24.85,1.31s-4.15-9.85,2.76-13.79c5.93-3.39,17.47-3.14,21.04-8.21h0.36
		c0,0,7.25,4.601,15.88-0.979L127.09,490.11z"/>
	<path d="M158.52,484.4c7.511,3.449,6.961,10.81,6.99,14.779c0.67,2.971-2.979,4.311-2.979,4.311s-1.16-1.351-2.11-5.62
		c-1.729,4.1,0.17,11.57-5.53,15.6c-5.689,4.021-18.29,4.92-20.45,3.2c-2.15-1.729-2.5-8.87,0.26-11.17c2.76-2.3,7.6-3.28,7.6-3.28
		c1.97-6.1,3.76-9.35,2.87-14.3l0.58-0.15c0,0,5.17,3.28,11.73-2.96L158.52,484.4z"/>
	<path fill="#6D6058" d="M127.09,490.11l-0.67,0.29c-8.63,5.58-15.88,0.979-15.88,0.979h-0.36c0.58-0.83,0.95-1.81,1.05-2.96
		C111.92,477.26,97.42,428,97.42,428l0.1-0.77c5.87,0.8,12.42,1.35,19.61,1.5l6.84,13.979l-0.14,0.07
		c-0.8,11.43-1.51,25.84-0.17,35.14C124.67,484.91,125.99,487.91,127.09,490.11z"/>
	<path fill="#6D6058" d="M158.52,484.4l-1.039,0.409c-6.561,6.24-11.73,2.96-11.73,2.96l-0.58,0.15c-0.36-1.97-1.15-4.229-2.53-7.05
		l-18.67-38.16l-6.84-13.979c0.45,0.01,0.91,0.01,1.37,0.02c9.93,0.13,18.95-0.2,26.88-0.76l0.021,0.34
		C145.4,428.33,153.38,463.71,158.52,484.4z"/>
	<path fill="#DDE3F2" d="M134.62,79.59c0,0-8.42,7.16-11.91,13.7c-0.21,0.39-0.4,0.77-0.57,1.15v0.01c0,0-9.58-14.59-2.94-24.63
		c1.64-2.39,2.74-3.86,4.29-4.74c0.21,0.06,0.34,0.09,0.34,0.09c2.21,0.36,4.43,0.74,6.49,1.1c-0.73,6.15,2.33,10.06,4.89,12.55
		c0,0,0.04,0.06,0.14,0.17L134.62,79.59z"/>
	<path fill="#DDE3F2" d="M163.25,75.75c1.77,7.84,4.37,11.28,7.11,13.88l-0.19,0.2c-7.31,3.25-15.36,0.17-23.76-3.5
		c-7.36-3.2-10.41-6.55-11.06-7.34c-0.1-0.11-0.14-0.17-0.14-0.17c-2.56-2.49-5.62-6.4-4.89-12.55c5.55,0.97,9.96,1.82,9.96,1.82
		s0.2,0.37,0.57,0.94c0.81,1.26,2.39,3.49,4.27,4.91c2.76,2.06,6.63,2.75,9.89,2.88c3.07,0.13,7.66-0.93,8.19-1.06
		C163.23,75.75,163.25,75.75,163.25,75.75z"/>
	<path fill="#DDE3F2" d="M163.68,100.57C157,98,137.33,91,134.62,79.59l0.73-0.6c0.65,0.79,3.7,4.14,11.06,7.34
		c8.399,3.67,16.45,6.75,23.76,3.5l0.19-0.2c2.68,2.55,5.51,4.3,7.85,8.58c4.75,8.66,5.79,15.12,14.79,30.79
		c-3.39,4.47-7.67,11.8-11.72,18.91l-0.28-0.16c-5.15,2.66-7.09,1.9-10.87,2.68l-0.01-0.05c-5.24-0.34-5.24-9.77-5.24-9.77
		c6.101-1.58,7.28-5.36,9.37-8.11s6-9,1.75-13.75c-2.5-2.75-9.61,3.36-10.51,4.75c0.05-0.24,0.64-5.23,0.899-7.74
		C166.65,113.25,160.87,108.94,163.68,100.57z"/>
	<path fill="#D67F58" d="M134.5,165.66c0,0-1.17,2-1.5,4.67s7,9,25.67-3.67l1.18-0.68c0.42,1.15,0.9,1.77,0.9,1.77
		s-22,21.58-26,23.67c-4,2.08-10.42,25.58-15.08,117.58c0,0-4.34,67.33-0.34,74.67c2.95,5.41,32.83-10.63,55.229-18.979l0.11,0.31
		c0,0-0.09,1.42,0.91,8.42l0.51-0.07l6.41,49.4c0,0-13.89,3.61-37.12,5.24c-7.93,0.56-16.95,0.89-26.88,0.76
		c-0.46-0.01-0.92-0.01-1.37-0.02c-7.19-0.15-13.74-0.7-19.61-1.5c-25.26-3.45-38.27-11.48-38.27-11.48
		c4.25-9.5,2.99-37.42,2.99-37.42s-0.2-0.11-0.51-0.32l1.1-0.01c14.17,9.17,18.09,7.58,23.25,7.83c5.17,0.25,8.59-2.5,8.59-2.5
		s1.66-72.33,7-105.66c5.33-33.34,21.08-90.34,21.08-90.34s0.29-6.62,1.29-11.79s7.75-8.67,7.75-8.67l-0.05-1.15
		c1.08-0.04,1.72-0.06,1.72-0.06H134.5z"/>
	<path fill="#EAD2C3" d="M135.5,51c0.15,2.39,0.83,3.8,1.95,5.45l-0.07,0.05c0,0-6.76-0.69-10.5-1.06
		c-3.76-0.38-10.26-0.56-12.13-1.94l-0.47,0.09c-0.28-0.45-1.6-2.73-0.95-4.26c0.5-1.18,1.81-1.84,2.58-2.13l1.21,0.05
		c0.76,2.25,4,3,7.63,3.25S132.75,51.06,135.5,51z"/>
	<path fill="#EAD2C3" d="M114.5,57.31c-0.69-1.71-0.17-3.64-0.17-3.64s-0.02-0.03-0.05-0.08l0.47-0.09
		c1.87,1.38,8.37,1.56,12.13,1.94c3.74,0.37,10.5,1.06,10.5,1.06l0.07-0.05c0.8,1.16,1.8,2.43,2.99,4.24l0.01,0.1
		c-0.29,0.05-0.58,0.11-0.89,0.21c-0.18,0.07-0.33,0.15-0.45,0.26c-2.29-0.4-6.11-1.05-8.36-1.14c-3.37-0.12-11.87-0.62-11.87-0.62
		l-1.89,0.06C116.05,59.06,114.89,58.27,114.5,57.31z"/>
	<path fill="#EAD2C3" d="M130.32,66.27c-2.06-0.36-4.28-0.74-6.49-1.1c0,0-0.13-0.03-0.34-0.09c-1.06-0.33-4.33-1.58-5.16-4.91
		c0,0-0.6-0.22-1.34-0.61l1.89-0.06c0,0,8.5,0.5,11.87,0.62c2.25,0.09,6.07,0.74,8.36,1.14c-1.41,1.22,1.54,4.76,2.23,7.65
		l-0.49,0.12c-0.37-0.57-0.57-0.94-0.57-0.94S135.87,67.24,130.32,66.27z"/>
	<path fill="#EAD2C3" d="M177.75,61c-3.24,6.36-11.94,13.45-14.72,14.24l0.17,0.52c-0.53,0.13-5.12,1.19-8.19,1.06
		c-3.26-0.13-7.13-0.82-9.89-2.88c-1.88-1.42-3.46-3.65-4.27-4.91l0.49-0.12c-0.69-2.89-3.64-6.43-2.23-7.65
		c0.12-0.11,0.27-0.19,0.45-0.26c0.31-0.1,0.6-0.16,0.89-0.21l-0.01-0.1c-1.19-1.81-2.19-3.08-2.99-4.24
		c-1.12-1.65-1.8-3.06-1.95-5.45c-2.75,0.06-7.12-0.25-10.75-0.5s-6.87-1-7.63-3.25l-1.21-0.05c0.35-0.14,0.59-0.2,0.59-0.2
		s-0.33-2.71,1.83-3.38c2.17-0.66,7.86-0.56,13.67-0.37s17.5,1.58,23.88,3.92c6.17,2.26,18.021,9.68,18.75,10.14l-0.41,0.63
		l3.761,2.43L177.75,61z"/>
	<path d="M142.88,105.53c0,0-1.56,1.43-2.02,0.14C140.41,104.37,142.5,104.92,142.88,105.53z"/>
	<path d="M123.17,102.17c-1.74,0.12-1.37-0.82-0.5-0.98C122.67,101.19,124.9,102.05,123.17,102.17z"/>
	<path fill="#FFFFFF" d="M142.88,105.53c-0.38-0.61-2.47-1.16-2.02,0.14C141.32,106.96,142.88,105.53,142.88,105.53z M148.33,109.7
		c-4.03-1.36-10.57-1.68-10.57-1.68l-0.34-0.09c0.08-0.06,0.13-0.1,0.13-0.1s0.81-1.95,1.45-3.75c0.67,0.07,1.56-0.83,4-0.4
		c2.44,0.44,3.75,1.82,4.5,2.97s0.86,2.96,0.86,2.96L148.33,109.7z"/>
	<path fill="#EAD2C3" d="M120.45,101.51c0,0-1.45-0.65-1.15-0.96c2.56-2.5,2.84-5.12,2.84-6.1v-0.01c0.17-0.38,0.36-0.76,0.57-1.15
		l0.75,0.39c0.3-0.51,1.38-1.77,4.5-0.56c1.63,0.57,3.27,1.88,3.27,2.94c-0.54,4.88-3.07,7.66-3.85,8.41
		c-0.29-2.38-1.41-4.08-3.46-4.53c-2.98-0.44-2.82,1.47-3.42,1.81l-0.09-0.02C120.43,101.59,120.45,101.51,120.45,101.51z"/>
	<path fill="#FFFFFF" d="M120.5,101.75c0.6-0.34,0.44-2.25,3.42-1.81c2.05,0.45,3.17,2.15,3.46,4.53c-0.15,0.14-0.23,0.21-0.23,0.21
		s-0.36,0.13-0.92,0.33c-1.67-0.11-4.72-0.35-5.73-0.84l-0.51-0.07c0.15-0.08,0.26-0.16,0.26-0.22c-0.01-0.96,0.1-1.78,0.16-2.15
		L120.5,101.75z M122.67,101.19c-0.87,0.16-1.24,1.1,0.5,0.98C124.9,102.05,122.67,101.19,122.67,101.19z"/>
	<path fill="#EAD2C3" d="M164.05,139.92c-0.3-7.69-9.13-7.14-11.95-3.97c-2.81,3.17-1.51,6.45-0.029,8.14
		c1.47,1.68,4.189,2.85,6.89,2.03C161.66,145.3,164.18,143.26,164.05,139.92z M137.42,107.93l0.34,0.09c0,0,6.54,0.32,10.57,1.68
		l0.03-0.09c0,0-0.11-1.81-0.86-2.96s-2.06-2.53-4.5-2.97c-2.44-0.43-3.33,0.47-4,0.4c-0.64,1.8-1.45,3.75-1.45,3.75
		S137.5,107.87,137.42,107.93z M122.71,93.29c3.49-6.54,11.91-13.7,11.91-13.7C137.33,91,157,98,163.68,100.57
		c-2.81,8.37,2.971,12.68,2.71,15.19c-0.26,2.51-0.85,7.5-0.899,7.74c0.899-1.39,8.01-7.5,10.51-4.75c4.25,4.75,0.34,11-1.75,13.75
		s-3.27,6.53-9.37,8.11c0,0,0,9.43,5.24,9.77l0.01,0.05c-1.92,0.41-4.33,1.21-7.88,3.07c-3.82,5.81-3.23,10.19-2.4,12.48l-1.18,0.68
		c-18.67,12.67-26,6.34-25.67,3.67s1.5-4.67,1.5-4.67h-1.04c0,0,4.63-7.83,2.38-9.41l-0.42-0.12c-8.1-0.19-13.19-1.04-15.66-0.66
		c-2.46,0.38-7.28,2.8-11.26-3.07c-0.99-2.23-2-3.49,0-7.86c0.76-1.68,1.21-2.48,1.82-3.72c0,0-0.94-5.82,0.18-7.57
		c0.5-0.78,1.08-1.24,1.56-1.5l0.13,0.27c0.93,0.36,13.48,4.97,21.74-1.6c0,0-11.77,1.84-20.39-1.85l-1.01,0.08
		c-0.88-1.04-2.23-3.14-0.35-4.64c0.61-0.43,1.3-2.02,1.3-2.02s-2.02-3-2.44-4.23c-0.75-2.28-0.09-5.21,0.58-5.88
		c0.66-0.66,2.74-1.32,4.73-2.17c1.52-1.52,3.09-5.33,3.09-5.33s0.32-0.14,0.55-0.28l0.51,0.07c1.01,0.49,4.06,0.73,5.73,0.84
		c0.56-0.2,0.92-0.33,0.92-0.33s0.08-0.07,0.23-0.21c0.78-0.75,3.31-3.53,3.85-8.41c0-1.06-1.64-2.37-3.27-2.94
		c-3.12-1.21-4.2,0.05-4.5,0.56L122.71,93.29z"/>
	<path fill="#59253C" d="M174.56,364.69c-22.399,8.35-52.28,24.39-55.229,18.979c-4-7.34,0.34-74.67,0.34-74.67
		c4.66-92,11.08-115.5,15.08-117.58c4-2.09,26-23.67,26-23.67s4.5,1.5,8.37,0c2.05-1.83,6.91-10.66,12.16-19.84
		c4.05-7.11,8.33-14.44,11.72-18.91c-9-15.67-10.04-22.13-14.79-30.79c-2.34-4.28-5.17-6.03-7.85-8.58
		c-2.74-2.6-5.341-6.04-7.11-13.88c0,0-0.02,0-0.05,0.01l-0.17-0.52c2.779-0.79,11.479-7.88,14.72-14.24l0.23-0.63l-3.761-2.43
		l0.41-0.63c0.03,0.01,0.04,0.02,0.04,0.02s2.83-3.33,6-2.5c3.16,0.84,14,11.5,26.33,31.84C219.33,107,225,120,226,128
		s-9.83,23.17-18.66,39.66C198.5,184.16,182,213,182,213s10,120.33,18.67,143.33c0,0-1.5,5.34-10.34,9.67
		c-8.83,4.33-14.33,6.67-14.33,6.67l0.09,0.68l-0.51,0.07c-1-7-0.91-8.42-0.91-8.42L174.56,364.69z"/>
	<path fill="#FFD836" d="M164.05,139.92c0.13,3.34-2.39,5.38-5.09,6.2c-2.7,0.82-5.42-0.35-6.89-2.03
		c-1.48-1.69-2.78-4.97,0.029-8.14C154.92,132.78,163.75,132.23,164.05,139.92z"/>
	<path fill="#59253C" d="M65.91,297.68l-0.08-0.01c-1-2.67-8.46-49.46,8.71-77.46s24.88-48.88,36.71-52.21
		c6.43-1.57,16.5-2.12,20.49-2.28l0.05,1.15c0,0-6.75,3.5-7.75,8.67s-1.29,11.79-1.29,11.79s-15.75,57-21.08,90.34
		c-5.34,33.33-7,105.66-7,105.66s-3.42,2.75-8.59,2.5c-5.16-0.25-9.08,1.34-23.25-7.83l-1.1,0.01c-1.1-0.729-3.62-2.74-3.63-5.58
		C58.04,346.21,62.06,321.78,65.91,297.68z"/>
	<path fill="#FFFFFF" d="M113.54,128.57c8.62,3.69,20.39,1.85,20.39,1.85c-8.26,6.57-20.81,1.96-21.74,1.6l-0.13-0.27
		c0.6-0.32,1.05-0.35,1.05-0.35s0.01-1.05,0.02-2.11c0,0-0.27-0.24-0.6-0.64L113.54,128.57z"/>
</g>
<g>
	<path fill="none" stroke="#000000" stroke-width="3" stroke-linecap="round" stroke-linejoin="round" stroke-miterlimit="10" d="
		M181,147.75c-7.771,4.011-8.233,0.241-18.75,5.75c-5.75,8.75-1.5,14.25-1.5,14.25s4.5,1.5,8.375,0
		c3.625-3.25,16.125-28.5,23.875-38.748c-8.999-15.669-10.042-22.129-14.791-30.795S166.75,91.25,163.25,75.75
		c0,0-4.979,1.209-8.239,1.073s-7.136-0.823-9.886-2.886s-4.844-5.844-4.844-5.844s-8.28-1.594-16.447-2.928c0,0-4.5-1-5.5-5
		c0,0-3.145-1.146-3.833-2.854s-0.167-3.646-0.167-3.646s-1.729-2.625-1-4.333S116.501,47,116.501,47s-0.334-2.708,1.833-3.375
		s7.855-0.562,13.667-0.375s17.499,1.583,23.874,3.916c6.375,2.334,18.792,10.167,18.792,10.167s2.833-3.333,6-2.5
		s14,11.501,26.333,31.834S225,120,226,128s-9.828,23.166-18.664,39.664S182.002,213,182.002,213S192,333.334,200.666,356.334
		c0,0-1.5,5.334-10.333,9.667S176,372.667,176,372.667l6.5,50.083c0,0-25,6.5-64,6s-59.25-13-59.25-13
		c4.25-9.5,2.988-37.417,2.988-37.417s-4.13-2.262-4.139-5.899c-0.068-29.383,4.988-56.521,9.194-83.478
		c3.206-19.456,7.08-36.247,12.497-51.748c5.417-15.5,21.711-45.71,21.711-45.71"/>
	<path fill="none" stroke="#000000" stroke-width="3" stroke-linecap="round" stroke-linejoin="round" stroke-miterlimit="10" d="
		M123.5,65.07c-1.562,0.879-2.658,2.346-4.304,4.747c-6.632,10.043,2.944,24.636,2.944,24.636
		c3.031-6.822,12.484-14.863,12.484-14.863C137.333,91,157,98,163.68,100.57c-2.807,8.373,2.968,12.676,2.708,15.188
		c-0.26,2.511-0.844,7.506-0.9,7.742c0.903-1.392,8.013-7.501,10.513-4.75c4.25,4.75,0.345,11-1.75,13.75s-3.271,6.526-9.369,8.114
		c0,0-0.006,9.427,5.244,9.761"/>
	<path fill="none" stroke="#000000" stroke-width="3" stroke-linecap="round" stroke-linejoin="round" stroke-miterlimit="10" d="
		M135.42,156.129c-8.1-0.189-13.191-1.042-15.656-0.662c-2.463,0.38-7.281,2.805-11.263-3.071c-0.993-2.225-2.001-3.489-0.003-7.856
		c0.766-1.675,1.212-2.48,1.826-3.715c0,0-0.949-5.824,0.176-7.574s2.608-1.854,2.608-1.854s0.014-1.049,0.018-2.101
		c0,0-3.538-3.213-0.941-5.284c0.608-0.435,1.296-2.022,1.296-2.022s-2.025-3-2.436-4.23c-0.757-2.273-0.091-5.211,0.57-5.874
		c0.663-0.663,2.747-1.324,4.738-2.177c1.514-1.518,3.084-5.332,3.084-5.332s0.814-0.342,0.812-0.5
		c-0.02-1.312,0.197-2.363,0.197-2.363s-1.448-0.654-1.145-0.958c3.233-3.162,2.815-6.507,2.815-6.507"/>
	<path fill="none" stroke="#000000" stroke-width="3" stroke-linecap="round" stroke-linejoin="round" stroke-miterlimit="10" d="
		M65.833,297.667c-1-2.666-8.459-49.458,8.708-77.458c17.167-28,24.877-48.875,36.709-52.208c8.168-2,22.208-2.337,22.208-2.337
		s4.628-7.832,2.378-9.415"/>
	<path fill="none" stroke="#000000" stroke-width="1.5" stroke-linecap="round" stroke-linejoin="round" stroke-miterlimit="10" d="
		M148.875,66.875c0,0,4.088-0.359,6.625,0.688"/>
	<path fill="none" stroke="#000000" stroke-width="1.5" stroke-linecap="round" stroke-linejoin="round" stroke-miterlimit="10" d="
		M141.344,68.906c-0.75-3.125-4.156-7.031-1.781-7.906c3.188-1,5.438,1.125,7.062,2.875s2.5,3.625,1.875,4.375"/>
	<path fill="none" stroke="#000000" stroke-width="1.5" stroke-linecap="round" stroke-linejoin="round" stroke-miterlimit="10" d="
		M140.438,60.688c-2.875-4.375-4.688-5.625-4.938-9.688c-2.75,0.062-7.125-0.25-10.75-0.5s-6.875-1-7.625-3.25"/>
	<path fill="none" stroke="#000000" stroke-width="1.5" stroke-linecap="round" stroke-linejoin="round" stroke-miterlimit="10" d="
		M137.375,56.5c0,0-6.75-0.688-10.5-1.062s-10.25-0.562-12.125-1.938"/>
	<path fill="none" stroke="#000000" stroke-width="1.5" stroke-linecap="round" stroke-linejoin="round" stroke-miterlimit="10" d="
		M139.186,61.281c-2.275-0.416-6.154-1.072-8.436-1.156C127.375,60,118.875,59.5,118.875,59.5"/>
	<path fill="none" stroke="#000000" stroke-width="1.5" stroke-linecap="round" stroke-linejoin="round" stroke-miterlimit="10" d="
		M162.831,64.512c0,0-2.512,0.964-6.962-2.341s-5.775-5.862-9.888-6.995"/>
	<path fill="none" stroke="#000000" stroke-width="1.5" stroke-linecap="round" stroke-linejoin="round" stroke-miterlimit="10" d="
		M163.25,75c0,0,4.126-2.535,5.39-6.014"/>
	<path fill="none" stroke="#000000" stroke-width="1.5" stroke-linecap="round" stroke-linejoin="round" stroke-miterlimit="10" d="
		M163,75.25c2.75-0.75,11.5-7.875,14.75-14.25l1.25-3.5"/>
	
		<line fill="none" stroke="#000000" stroke-width="1.5" stroke-linecap="round" stroke-linejoin="round" stroke-miterlimit="10" x1="174.125" y1="57.875" x2="178" y2="60.375"/>
	<path fill="none" stroke="#000000" stroke-width="1.5" stroke-linecap="round" stroke-linejoin="round" stroke-miterlimit="10" d="
		M170.168,89.832c-7.304,3.253-15.358,0.168-23.763-3.499s-11.2-7.514-11.2-7.514c-2.629-2.559-5.787-6.624-4.816-13.056"/>
	<path fill="none" stroke="#000000" stroke-width="1.5" stroke-linecap="round" stroke-linejoin="round" stroke-miterlimit="10" d="
		M123.373,93.875c0,0,0.747-2.242,4.584-0.75c1.635,0.568,3.269,1.875,3.269,2.938c-0.64,5.778-4.073,8.62-4.073,8.62
		s-6.059,2.16-6.59,2.441s-2.531,2.844-3.688,3.188"/>
	<path fill="none" stroke="#000000" stroke-width="1.5" stroke-linecap="round" stroke-linejoin="round" stroke-miterlimit="10" d="
		M127.395,104.187c-0.27-2.437-1.392-3.791-3.476-4.249c-2.979-0.438-2.28,0.93-2.876,1.27"/>
	<path fill="none" stroke="#000000" stroke-width="1.5" stroke-linecap="round" stroke-linejoin="round" stroke-miterlimit="10" d="
		M126.188,105.062c0,0-3.466-0.001-4.873-0.688"/>
	<path fill="none" stroke="#000000" stroke-width="3" stroke-linecap="round" stroke-linejoin="round" stroke-miterlimit="10" d="
		M122.67,101.193c-0.866,0.154-1.242,1.092,0.495,0.974C124.904,102.048,122.67,101.193,122.67,101.193z"/>
	<path fill="none" stroke="#000000" stroke-width="1.5" stroke-linecap="round" stroke-linejoin="round" stroke-miterlimit="10" d="
		M155.25,102c0,0-4.25-11.75-16.087-7.337"/>
	<path fill="none" stroke="#000000" stroke-width="1.5" stroke-linecap="round" stroke-linejoin="round" stroke-miterlimit="10" d="
		M140.375,99.712c0,0-0.312,3.687-2.688,4.021"/>
	<path fill="none" stroke="#000000" stroke-width="1.5" stroke-linecap="round" stroke-linejoin="round" stroke-miterlimit="10" d="
		M148.361,109.607c0,0-0.111-1.807-0.861-2.957s-2.058-2.535-4.5-2.968s-3.326,0.467-3.998,0.399
		c-0.641,1.793-1.456,3.744-1.456,3.744s-3.965,2.961-2.882,7.08"/>
	<path fill="none" stroke="#000000" stroke-width="1.5" stroke-linecap="round" stroke-linejoin="round" stroke-miterlimit="10" d="
		M148.5,109.75c-4.012-1.397-10.744-1.729-10.744-1.729"/>
	<path fill="none" stroke="#000000" stroke-width="1.5" stroke-linecap="round" stroke-linejoin="round" stroke-miterlimit="10" d="
		M152.375,111.625c0,0,2.25,0.875,3.125,2.25"/>
	<path fill="none" stroke="#000000" stroke-width="3" stroke-linecap="round" stroke-linejoin="round" stroke-miterlimit="10" d="
		M142.875,105.528c-0.37-0.612-2.466-1.159-2.011,0.138C141.319,106.965,142.875,105.528,142.875,105.528z"/>
	<path fill="none" stroke="#000000" stroke-width="1.5" stroke-linecap="round" stroke-linejoin="round" stroke-miterlimit="10" d="
		M125.211,113.549c0,0,3.542-1.018,5.067-4.893"/>
	<path fill="none" stroke="#000000" stroke-width="1.5" stroke-linecap="round" stroke-linejoin="round" stroke-miterlimit="10" d="
		M137.254,131.167c-2.085-1-6.754-1.277-7.543-5.709c-1-5.468-4.266-7.984-4.266-7.984s2.421,2.418,0.947,4.511
		c-1.473,2.094-4.393,1.41-4.393,1.41s-1.441-3.103-2.863-3.593c-1.421-0.491-2.909-0.15-2.48,2.077"/>
	<path fill="none" stroke="#000000" stroke-width="1.5" stroke-linecap="round" stroke-linejoin="round" stroke-miterlimit="10" d="
		M112.875,132.75c0,0,12.461,4.5,21.056-2.33c0,0-11.77,1.841-20.39-1.846"/>
	<path fill="none" stroke="#000000" stroke-width="1.5" stroke-linecap="round" stroke-linejoin="round" stroke-miterlimit="10" d="
		M111.252,140.583c0,0,2.25,1.417,5.917,1.333"/>
	<path fill="none" stroke="#000000" stroke-width="1.5" stroke-linecap="round" stroke-linejoin="round" stroke-miterlimit="10" d="
		M126.292,151.071c0,0-4.004,2.841-5.993,3.551"/>
	<path fill="none" stroke="#000000" stroke-width="1.5" stroke-linecap="round" stroke-linejoin="round" stroke-miterlimit="10" d="
		M135.042,155.458c0,0,6.875-1.041,13.208-3.958"/>
	<path fill="none" stroke="#000000" stroke-width="1.5" stroke-linecap="round" stroke-linejoin="round" stroke-miterlimit="10" d="
		M164.051,139.92c-0.301-7.687-9.136-7.145-11.948-3.972c-2.812,3.172-1.51,6.454-0.034,8.139c1.477,1.684,4.195,2.854,6.891,2.032
		C161.655,145.297,164.182,143.263,164.051,139.92z"/>
	<path fill="none" stroke="#000000" stroke-width="1.5" stroke-linecap="round" stroke-linejoin="round" stroke-miterlimit="10" d="
		M159.861,133.685c0,0,1.229-0.621,3.248-1.405c2.017-0.782,3.771,1.013,6.277-1.53c2.506-2.545,4.025-6.429,3.821-8.71"/>
	<path fill="none" stroke="#000000" stroke-width="1.5" stroke-linecap="round" stroke-linejoin="round" stroke-miterlimit="10" d="
		M162,175.75c0,0,3.874-3.666,7.999-7.916"/>
	<path fill="none" stroke="#000000" stroke-width="1.5" stroke-linecap="round" stroke-linejoin="round" stroke-miterlimit="10" d="
		M134.5,165.663c0,0-1.167,1.995-1.5,4.666s7,9.001,25.667-3.666"/>
	<path fill="none" stroke="#000000" stroke-width="1.5" stroke-linecap="round" stroke-linejoin="round" stroke-miterlimit="10" d="
		M131.789,166.873c0,0-6.748,3.501-7.748,8.668s-1.291,11.791-1.291,11.791s-15.749,57-21.082,90.333s-7,105.666-7,105.666
		s-3.416,2.753-8.584,2.503s-9.084,1.333-23.251-7.835"/>
	<path fill="none" stroke="#000000" stroke-width="1.5" stroke-linecap="round" stroke-linejoin="round" stroke-miterlimit="10" d="
		M160.75,167.75c0,0-22,21.58-26,23.665s-10.416,25.586-15.083,117.586c0,0-4.332,67.332-0.332,74.665s57.331-24.664,74.665-23.665"
		/>
	<path fill="none" stroke="#000000" stroke-width="1.5" stroke-linecap="round" stroke-linejoin="round" stroke-miterlimit="10" d="
		M174.666,365c0,0-0.082,1.416,0.918,8.416"/>
	<path fill="none" stroke="#000000" stroke-width="3" stroke-linecap="round" stroke-linejoin="round" stroke-miterlimit="10" d="
		M117.099,428.656l25.543,52.217c4.832,9.854,2.416,12.808-0.346,21.346c0,0-4.832,0.984-7.594,3.283
		c-2.763,2.299-2.415,9.442-0.26,11.167c2.156,1.723,14.757,0.821,20.452-3.203c5.695-4.021,3.799-11.495,5.523-15.6
		c0.948,4.271,2.113,5.625,2.113,5.625s3.647-1.34,2.978-4.31c-0.026-3.968,0.519-11.331-6.99-14.779
		c-5.138-20.688-13.116-56.073-13.116-56.073"/>
	<path fill="none" stroke="#000000" stroke-width="1.5" stroke-linecap="round" stroke-linejoin="round" stroke-miterlimit="10" d="
		M145.748,487.768c0,0,5.176,3.285,11.735-2.955"/>
	<path fill="none" stroke="#000000" stroke-width="3" stroke-linecap="round" stroke-linejoin="round" stroke-miterlimit="10" d="
		M97.423,427.999c0,0,14.496,49.26,13.807,60.426c-0.69,8.21-15.187,7.226-22.091,11.165c-6.904,3.942-2.763,13.795-2.763,13.795
		s20.021,0.656,24.854-1.313c4.833-1.972,3.452-7.226,6.904-7.226c3.451,0,4.831,5.911,4.831,5.911l5.523-0.328
		c0,0,0.691-8.764,0.691-12.151c0-8.538-3.452-5.912-5.523-20.361c-1.332-9.291-0.626-23.702,0.172-35.139"/>
	<path fill="none" stroke="#000000" stroke-width="1.5" stroke-linecap="round" stroke-linejoin="round" stroke-miterlimit="10" d="
		M110.539,491.382c0,0,7.248,4.597,15.878-0.985"/>
</g>
</svg>
