<?xml version="1.0" encoding="utf-8"?>
<!-- Generator: Adobe Illustrator 16.0.0, SVG Export Plug-In . SVG Version: 6.00 Build 0)  -->
<!DOCTYPE svg PUBLIC "-//W3C//DTD SVG 1.1//EN" "http://www.w3.org/Graphics/SVG/1.1/DTD/svg11.dtd">
<svg version="1.1" id="Layer_1" xmlns="http://www.w3.org/2000/svg" xmlns:xlink="http://www.w3.org/1999/xlink" x="0px" y="0px"
	 width="283.46px" height="560px" viewBox="0 0 283.46 560" enable-background="new 0 0 283.46 560" xml:space="preserve">
<g>
	<path d="M121.06,495.01c0.82,0.891,3.16,3.94,2.66,9.33c-0.6,6.53-0.94,8.73-0.94,8.73s-2.35,4.14-5.29,3.279
		c-0.28-1.399,0.49-6.06-3.4-1.77c-1.01,1.12-1.25,4.15-3.12,6.22c-1.87,2.08-11.15,3.811-20.8,1.851c0,0-4.63-2.521-3.99-8.301
		c0.64-5.779,3.81-8.89,10.05-9.8c2.81-0.74,5.29-0.85,6.94-3.63c1.35-2.28,3.72-4.88,4.54-5.74l0.07,0.061
		c0.87,7.41,10.36,3.96,12.79,0.24L121.06,495.01z"/>
	<path d="M207.31,513.04c0.82,5.76-3.739,8.42-3.739,8.42c-9.58,2.26-18.91,0.81-20.84-1.21c-1.931-2.02-2.271-5.04-3.311-6.12
		c-4.02-4.17-3.1,0.46-3.34,1.87c-2.92,0.95-5.39-3.12-5.39-3.12s-0.551-2.18-1.351-8.689c-0.53-4.32,0.811-7.181,1.771-8.62h0.79
		c0,0,11.449,6.8,13.09-0.971l0.069-0.06c0.83,0.82,3.301,3.35,4.721,5.6c1.729,2.73,4.359,2.761,7.189,3.41
		C203.23,504.27,206.49,507.29,207.31,513.04z"/>
	<path fill="#EAD2C3" d="M192.99,274.67l0.33,0.56c0,0-4.12,15.87-5.391,24.77c-1.27,8.89,0.07,12.82-0.17,15.29
		c-0.67,6.83-3.56,9.77-5.689,11.77c-2.67,0.5-4.37-0.46-4.37-0.46s-2,1.5-3.84,1.341c-1.83-0.171-2.79-2.091-2.79-2.091
		s-2.25,0.67-3.83-0.42c-1.59-1.08-1.67-2.75-1.67-2.75s-3.12,0.92-4.67-2.75c-0.66-2.16-0.83-4.83-0.83-4.83l2.34-4.17
		c0,0-0.05-3.87,3.45-7.37s6.59-3.96,7.21-5.619c1.5-5.591,2.149-20.84,2.149-20.84l-0.01-0.31c3.69-0.1,6.83-0.06,9.98-0.03
		C188.52,276.79,191.2,275.72,192.99,274.67z"/>
	<path fill="#EAD2C3" d="M196.95,256.48l0.08,0.14c-0.65,0.35-1.38,0.75-2.2,1.12c-2.88,1.31-9.41,3.58-14.87,2.11
		c-5.09-1.38-4.79-5.96-4.729-6.6C176.82,254.05,185.08,257.82,196.95,256.48z"/>
	<path fill="#EAD2C3" d="M198.14,265.69c0.11,0.09,0.931,0.82-0.3,2.51c-0.06,0.08-0.109,0.16-0.17,0.23
		c-1.14,1.55-1.15,1.21-1.15,1.21s-0.42,2.52-1.159,3.28c-0.301,0.31-1.12,1.03-2.37,1.75c-1.79,1.05-4.471,2.12-7.8,2.09
		c-3.15-0.03-6.29-0.07-9.98,0.03c-2.94,0.08-6.22,0.24-10.14,0.54c-3.261,0.25-7.36,0.65-11.82,1.03c-3.2,0.28-6.58,0.54-9.96,0.74
		c-5.41,0.31-10.81,0.44-15.43,0.13l0.04-0.74c-1.25-0.15-10.98-2.98-10.73-11.11c0.25-8.12,14.21-10.9,18.83-10.53l0.04-0.21
		c1.25,0.29,4.17,0.96,7.81,1.63c2.48,0.46,5.28,0.91,8.101,1.25c0.27,0.03,0.53,0.06,0.79,0.1c8.22,1,11.01,1.67,14.64,1.05
		c1.86-0.32,2.04-2.84,2.271-4.07c0.59-3.01,1.31-4.1,2.02-4.55c0.63-0.29,1.14-0.41,1.57-0.42c1.66-0.04,2,1.55,2,1.55
		s0,0.03-0.01,0.07c-0.061,0.64-0.36,5.22,4.729,6.6c5.46,1.47,11.99-0.8,14.87-2.11c0.82-0.37,1.55-0.77,2.2-1.12
		c1.069-0.57,1.91-1.01,2.55-1.01c0.34,0,0.62,0.13,0.85,0.43c0.92,1.21,1.29,3.75-0.989,5.13c0,0,1.06,1.32,0.04,2.98
		C198.59,265.61,198.22,265.69,198.14,265.69z"/>
	<path fill="#FFD836" d="M174.64,137.39l0.5-0.01c0.94,1.65,1.88,4.5,0.011,7.26c-2.36,3.49-5.99,2.37-5.99,2.37
		s-0.101,0.2-0.29,0.57l-0.61-0.34c1.11-2.73,2.101-6.66,2.94-10.85C172.95,136.07,174.47,137.26,174.64,137.39z"/>
	<path fill="#FFD836" d="M125.2,152.9l0.2,0.61c0,0-5.56,1.59-8.55-2.05c-2.74-3.34-0.55-8.11-0.17-8.87l0.97,0.06
		c0.5-0.7,1.37-1.07,2.36-1.04c1.49,0.06,3.26,1.05,4.39,3.29C126.27,148.63,125.2,152.9,125.2,152.9z"/>
	<path fill="#EAD2C3" d="M159.47,176.84l-0.13,0.25c0,0-12.52,16.92-27.85-2.08l-0.02-0.05c0.15-0.06,0.3-0.13,0.44-0.2
		c3-1.5,4.06-6.41,3.56-9.66l0.04-0.04c0.32,0.31,0.61,0.59,0.89,0.84c2.75,2.5,5,9.25,13.331,9.25c3.289,0,5.359-3.05,6.659-6.32
		l0.061,0.02C156.45,168.85,156.53,175.24,159.47,176.84z"/>
	<path d="M134.61,114.44c1.13-0.23,1.59,1.74,0.43,1.88C133.89,116.47,133.16,114.73,134.61,114.44z"/>
	<path d="M160.24,114.17c1.08-0.15,1.51,1.12,0.41,1.21C159.56,115.47,158.88,114.35,160.24,114.17z"/>
	<path fill="#FFFFFF" d="M166.18,116.06c0.09-0.03-2.41-0.1-4.529,0.04c-2.131,0.15-5.54,0.05-5.54,0.05l-0.24-0.02
		c0.05-0.57,0.149-1.11,0.31-1.61c0.141-0.44,3.58-3.92,6.471-3.24C164.64,111.58,165.77,114.53,166.18,116.06z M160.65,115.38
		c1.1-0.09,0.67-1.36-0.41-1.21C158.88,114.35,159.56,115.47,160.65,115.38z"/>
	<path fill="#FFFFFF" d="M139.75,116.64l-0.1,0.01c0,0-2.63,0.29-5.63,0.54s-6.69-0.47-6.69-0.47s3.19-4.69,6.82-4.94
		c2.86,0.17,5.48,3.58,5.48,3.58S139.71,115.91,139.75,116.64z M135.04,116.32c1.16-0.14,0.7-2.11-0.43-1.88
		C133.16,114.73,133.89,116.47,135.04,116.32z"/>
	<path fill="#EAD2C3" d="M115.28,117.34l0.56-0.03c0.13,0.21,0.2,0.32,0.2,0.32l0.75,0.13c0,0,2.25,17,3.25,23l-0.03,0.85
		c-0.99-0.03-1.86,0.34-2.36,1.04l-0.97-0.06c0.03-0.06,0.05-0.1,0.05-0.1s-4.67-5.17-6.67-8.34c-2-3.16-8.16-8.5-3.83-15.5
		C110.22,112.2,114.61,116.62,115.28,117.34z"/>
	<path fill="#EAD2C3" d="M173.26,124.04c0.73-5.24,1.141-9.14,1.141-9.14l0.25-0.25c2.33-1.67,5.119-1.5,6.369,1.75
		s-2.079,7.59-3.75,12.09c-1.659,4.5-2.5,6.29-2.829,7.87c0.199,0.24,0.449,0.59,0.699,1.02l-0.5,0.01
		c-0.17-0.13-1.689-1.32-3.439-1C172.04,132.22,172.73,127.79,173.26,124.04z"/>
	<path fill="#EAD2C3" d="M157.65,135.65c0.75,3-2.5,4.5-2.5,4.5l-1.32-1.81c0,0,0.38-0.89-0.62-0.26l-0.09-0.12
		c0.84-0.63,1.56-1.24,1.86-1.7c0.329-0.5,0.239-1.4-0.051-2.44l0.07-0.02C155,133.8,156.41,134.01,157.65,135.65z"/>
	<path fill="#EAD2C3" d="M137.86,139.64c-0.03-0.28-0.07-0.46-0.08-0.53C137.78,139.3,137.81,139.48,137.86,139.64z M155.87,116.13
		l0.24,0.02c0,0,3.409,0.1,5.54-0.05c2.119-0.14,4.619-0.07,4.529-0.04c-0.41-1.53-1.54-4.48-3.529-4.78
		c-2.891-0.68-6.33,2.8-6.471,3.24C156.02,115.02,155.92,115.56,155.87,116.13z M139.75,116.64c-0.04-0.73-0.12-1.28-0.12-1.28
		s-2.62-3.41-5.48-3.58c-3.63,0.25-6.82,4.94-6.82,4.94s3.69,0.72,6.69,0.47s5.63-0.54,5.63-0.54L139.75,116.64z M171.2,136.39
		c-0.84,4.19-1.83,8.12-2.94,10.85l0.61,0.34c-0.561,1.1-1.89,3.69-3.58,6.74c-2.25,4.07-6.89,7.17-6.89,7.17
		c-0.28,1.26-0.841,4.39-2.011,7.34c-1.3,3.27-3.37,6.32-6.659,6.32c-8.331,0-10.581-6.75-13.331-9.25
		c-0.28-0.25-0.57-0.53-0.89-0.84c-2.8-2.68-6.96-7.27-10.11-11.55l-0.2-0.61c0,0,1.07-4.27-0.8-8c-1.13-2.24-2.9-3.23-4.39-3.29
		l0.03-0.85c-1-6-3.25-23-3.25-23l-0.75-0.13l1.69-10.16c15.22-10.35,13.33-21.65,13.33-21.65c18.67,15.67,42.34,15.67,42.34,15.67
		l1.33,9.66l-0.08,3.5l-0.25,0.25c0,0-0.41,3.9-1.141,9.14C172.73,127.79,172.04,132.22,171.2,136.39z M154.93,133.82
		c0.29,1.04,0.38,1.94,0.051,2.44c-0.301,0.46-1.021,1.07-1.86,1.7l0.09,0.12c1-0.63,0.62,0.26,0.62,0.26l1.32,1.81
		c0,0,3.25-1.5,2.5-4.5c-1.24-1.64-2.65-1.85-2.65-1.85L154.93,133.82z"/>
	<path fill="#DDE3F2" d="M181.73,53.82c11.329,12.33,9.67,32.33,1.329,42.33c0,0-6.52,4.49-8.329,15l-1.33-9.66
		c0,0-23.67,0-42.34-15.67c0,0,1.89,11.3-13.33,21.65l-1.69,10.16c0,0-0.07-0.11-0.2-0.32c-1.28-2.03-8.34-13.76-13.78-32.49
		c-6-20.67,8.34-33.33,24-30.33c0,0,5.34-10,15.67-15C152.06,34.49,170.4,41.49,181.73,53.82z"/>
	<path fill="#6D6058" d="M185.06,494.54l-0.069,0.06c-1.641,7.771-13.09,0.971-13.09,0.971h-0.79c0.479-0.721,0.87-1.08,0.87-1.08
		l-11.841-60.41l-0.01-0.12c7.86-0.41,14.7-1.47,20.49-2.82c2.76,29.841,4.16,63.12,4.16,63.12S184.88,494.36,185.06,494.54z"/>
	<path fill="#6D6058" d="M130.78,433.15l-10,61.58c0,0,0.11,0.09,0.28,0.279l-0.49,0.471c-2.43,3.72-11.92,7.17-12.79-0.24
		l-0.07-0.061c0.17-0.189,0.27-0.29,0.27-0.29s0.29-34.55,2.24-64.79l0.04-0.189C115.89,431.15,122.6,432.35,130.78,433.15z"/>
	<path fill="#D67F58" d="M130.78,433.15c-8.18-0.801-14.89-2-20.52-3.24c-7.42-1.63-12.95-3.32-17.47-4.271
		c-10.75-2.25-18.25-3.75-18.25-3.75s6.61-18.84,7.23-29.409c45.86,2.989,51.51,3.979,55.68-1.671c4.17-5.67,3.5-17.67,3.5-17.67
		c0.07-6.46,1.33-55.029,2.35-93.87l-0.01-0.17c3.38-0.2,6.76-0.46,9.96-0.74l0.02,0.24c1.04,40.72,2.211,84.88,2.301,91.669
		c0.34,21.83,6.47,22.11,12.92,24.08c6.46,1.971,20.38,2.37,31.92-0.59c0,0,0.63,18.63,4.63,27.63c0,0-8.14,5.98-24.42,9.75
		c-5.79,1.351-12.63,2.41-20.49,2.82c-1.97,0.1-4,0.17-6.09,0.18C145.16,434.21,137.48,433.81,130.78,433.15z"/>
	<path fill="#D67F58" d="M163.12,177.57l-0.17,0.9c0,0-2,10.67-8.33,16c0,0-2.88,1.72-2.97,12.97c-0.03,4.15,0.47,25.68,1.13,51.83
		l-0.04,0.35c-0.26-0.04-0.521-0.07-0.79-0.1c-2.82-0.34-5.62-0.79-8.101-1.25c0.45-16.75,0.771-28.46,0.771-28.46
		c0-28.34,0.66-32-5.34-36.67c-6-4.67-10.33-17-10.33-17l-0.09-0.36c1.02-0.26,1.89-0.51,2.61-0.82l0.02,0.05
		c15.33,19,27.85,2.08,27.85,2.08l0.13-0.25c0.25,0.14,0.521,0.24,0.82,0.3C161.07,177.23,162.03,177.36,163.12,177.57z"/>
	<path fill="#59253C" d="M203.29,390.14l-2.88,3.62c-11.54,2.96-25.46,2.561-31.92,0.59c-6.45-1.97-12.58-2.25-12.92-24.08
		c-0.09-6.789-1.261-50.949-2.301-91.669l-0.02-0.24c4.46-0.38,8.56-0.78,11.82-1.03c3.92-0.3,7.199-0.46,10.14-0.54l0.01,0.31
		c0,0-0.649,15.25-2.149,20.84c-0.62,1.659-3.71,2.119-7.21,5.619s-3.45,7.37-3.45,7.37l-2.34,4.17c0,0,0.17,2.67,0.83,4.83
		c1.55,3.67,4.67,2.75,4.67,2.75s0.08,1.67,1.67,2.75c1.58,1.09,3.83,0.42,3.83,0.42s0.96,1.92,2.79,2.091
		c1.84,0.159,3.84-1.341,3.84-1.341s1.7,0.96,4.37,0.46c2.13-2,5.02-4.939,5.689-11.77c0.24-2.47-1.1-6.4,0.17-15.29
		c1.271-8.9,5.391-24.77,5.391-24.77l-0.33-0.56c1.25-0.72,2.069-1.44,2.37-1.75c0.739-0.76,1.159-3.28,1.159-3.28
		s0.011,0.34,1.15-1.21l0.26,0.03c0,0,4.021,56.271,3.021,85.771S203.29,390.14,203.29,390.14z"/>
	<path fill="#59253C" d="M201.2,252.6c0,1.75-0.75,2.5-0.75,2.5l-0.87,0.51c-0.64,0-1.48,0.44-2.55,1.01l-0.08-0.14
		c-11.87,1.34-20.13-2.43-21.72-3.23c0.01-0.04,0.01-0.07,0.01-0.07s-0.34-1.59-2-1.55l-0.04-0.65c-1.13-1.75,0.12-4.88,0.12-4.88
		s-0.141-0.06-0.34-0.19l1.22-0.06c0,0,10.37-1.75,14.62,0.63c4.25,2.37,9.5,2.69,9.5,2.69l0.89-0.01
		C199.75,249.68,201.2,251.18,201.2,252.6z"/>
	<path fill="#59253C" d="M172.98,245.91c0.199,0.13,0.34,0.19,0.34,0.19s-1.25,3.13-0.12,4.88l0.04,0.65
		c-0.431,0.01-0.94,0.13-1.57,0.42c-0.71,0.45-1.43,1.54-2.02,4.55c-0.23,1.23-0.41,3.75-2.271,4.07
		c-3.63,0.62-6.42-0.05-14.64-1.05l0.04-0.35c-0.66-26.15-1.16-47.68-1.13-51.83c0.09-11.25,2.97-12.97,2.97-12.97
		c6.33-5.33,8.33-16,8.33-16l0.17-0.9c6.8,1.25,18.75,5.29,25.08,20.24c7.33,17.33,7.37,43.17,7.37,43.17s2.91,1.09,3.66,3.15
		c0.75,2.07-0.221,4.85-0.221,4.85s0.08,0.07,0.2,0.18l-0.89,0.01c0,0-5.25-0.32-9.5-2.69c-4.25-2.38-14.62-0.63-14.62-0.63
		L172.98,245.91z"/>
	<path fill="#59253C" d="M136.04,256.64l-0.04,0.21c-4.62-0.37-18.58,2.41-18.83,10.53c-0.25,8.13,9.48,10.96,10.73,11.11
		l-0.04,0.74c-0.01,0-0.03,0-0.04,0c0,0-1.15,1.53-3.03,2.03c-1.87,0.5-5.59-1.03-7.59-2.41c-2-1.37-2.5-2.37-3.75-2.37
		c-2,0-6.88-1.81-6.88-6.31c0,0-7.75-13.07-9-18.82c-0.81-3.73-2.49-7.77-2.96-15.61c-0.25-4.26-0.15-9.66,0.64-16.74
		c2.25-20.1,4.06-31.81,18.66-38.49c6.43-2.94,11.52-3.85,14.95-4.73l0.09,0.36c0,0,4.33,12.33,10.33,17
		c6,4.67,5.34,8.33,5.34,36.67c0,0-0.32,11.71-0.771,28.46C140.21,257.6,137.29,256.93,136.04,256.64z"/>
	<path fill="#59253C" d="M143.29,279.1l0.01,0.17c-1.02,38.84-2.28,87.41-2.35,93.87c0,0,0.67,12-3.5,17.67
		c-4.17,5.65-9.82,4.66-55.68,1.671c0.01-0.11,0.01-0.23,0.02-0.341c0,0-6.5-1.75-5.25-19.75s9.38-76.81,11.7-95.89
		c2.33-19.08,4.01-29.25,6.26-40.75l0.11-0.01c0.47,7.84,2.15,11.88,2.96,15.61c1.25,5.75,9,18.82,9,18.82
		c0,4.5,4.88,6.31,6.88,6.31c1.25,0,1.75,1,3.75,2.37c2,1.38,5.72,2.91,7.59,2.41c1.88-0.5,3.03-2.03,3.03-2.03
		c0.01,0,0.03,0,0.04,0C132.48,279.54,137.88,279.41,143.29,279.1z"/>
</g>
<g>
	<path fill="none" stroke="#000000" stroke-width="3" stroke-linecap="round" stroke-linejoin="round" stroke-miterlimit="10" d="
		M131.064,85.819c0,0,1.887,11.305-13.334,21.653l-1.695,10.159c0,0-7.971-12.145-13.971-32.811c-6-20.667,8.334-33.334,24-30.334
		c0,0,5.334-10,15.668-15c10.332-5,28.666,2,40,14.334c11.332,12.333,9.666,32.333,1.332,42.333c0,0-6.529,4.485-8.332,15
		l-1.334-9.667C173.398,101.487,149.73,101.485,131.064,85.819z"/>
	<path fill="none" stroke="#000000" stroke-width="1.5" stroke-linecap="round" stroke-linejoin="round" stroke-miterlimit="10" d="
		M132.732,86.154c0,0,17.531,8.431,29.666,7.333c12.137-1.098,18.666-5.333,17-19.333s-15-16.667-17-14.333
		c-2,2.333-3.666,6.666,0,9.666s7-1,6.666-3.666"/>
	<path fill="none" stroke="#000000" stroke-width="3" stroke-linecap="round" stroke-linejoin="round" stroke-miterlimit="10" d="
		M174.732,111.154l0.373,3.04c2.334-1.667,4.666-1.041,5.916,2.209s-2.082,7.582-3.75,12.082c-1.666,4.5-2.5,6.293-2.834,7.877
		c0.959,1.166,3.072,4.791,0.709,8.277c-2.361,3.486-5.986,2.375-5.986,2.375s-1.625,3.234-3.875,7.305s-6.887,7.168-6.887,7.168
		c-0.586,2.667-2.414,13.666-8.668,13.666c-8.332,0-10.584-6.75-13.334-9.25s-7.498-7.638-10.998-12.389
		c-0.002,0-5.559,1.581-8.545-2.057c-2.988-3.638-0.123-8.971-0.123-8.971s-4.666-5.169-6.666-8.336c-2-3.166-8.166-8.5-3.834-15.5
		c4.334-7,9.125-1.207,9.125-1.207"/>
	<path fill="none" stroke="#000000" stroke-width="1.5" stroke-linecap="round" stroke-linejoin="round" stroke-miterlimit="10" d="
		M125.196,152.903c0,0,1.075-4.276-0.8-8.001s-5.5-3.999-6.75-2.249"/>
	<path fill="none" stroke="#000000" stroke-width="1.5" stroke-linecap="round" stroke-linejoin="round" stroke-miterlimit="10" d="
		M116.785,117.765c0,0,2.25,17,3.25,23"/>
	<path fill="none" stroke="#000000" stroke-width="1.5" stroke-linecap="round" stroke-linejoin="round" stroke-miterlimit="10" d="
		M119.396,136.903c0,0-4.25-1.5-4.25-4.75s0.75-5.25-1-9.25s-3.375-3.625-5.375-2.625"/>
	<path fill="none" stroke="#000000" stroke-width="1.5" stroke-linecap="round" stroke-linejoin="round" stroke-miterlimit="10" d="
		M174.396,114.903c0,0-2.385,23.089-6.135,32.339"/>
	<path fill="none" stroke="#000000" stroke-width="1.5" stroke-linecap="round" stroke-linejoin="round" stroke-miterlimit="10" d="
		M174.646,137.403c0,0-1.625-1.375-3.5-1"/>
	<path fill="none" stroke="#000000" stroke-width="1.5" stroke-linecap="round" stroke-linejoin="round" stroke-miterlimit="10" d="
		M178.271,117.778c0,0-3.5-0.312-5.25,7.188"/>
	<path fill="none" stroke="#000000" stroke-width="1.5" stroke-linecap="round" stroke-linejoin="round" stroke-miterlimit="10" d="
		M124.54,107.071c0,0,2.417-1.036,4.244-0.881c4.075,0.347,7.871,2.495,9.871,3.745s4.666,1.752,5.416,1.085
		c0.083,0.748-0.209,1.875,0.041,3.374s0.659,3.134-0.091,6.634s-0.375,8.125-0.375,8.125"/>
	<path fill="none" stroke="#000000" stroke-width="1.5" stroke-linecap="round" stroke-linejoin="round" stroke-miterlimit="10" d="
		M168.146,106.29c-3.704-4.587-9.216-1.458-13.003,0.365c-1.58,0.76-3.697,0.322-3.697,0.322"/>
	<path fill="none" stroke="#000000" stroke-width="1.5" stroke-linecap="round" stroke-linejoin="round" stroke-miterlimit="10" d="
		M139.646,116.653c0,0-2.625,0.283-5.625,0.533s-6.688-0.471-6.688-0.471s3.188-4.688,6.812-4.938
		c2.859,0.168,5.481,3.578,5.481,3.578s0.346,2.324,0.019,3.797c-1,4.5-3.5,8.5-6,10.75"/>
	<path fill="none" stroke="#000000" stroke-width="3" stroke-linecap="round" stroke-linejoin="round" stroke-miterlimit="10" d="
		M134.608,114.441c1.135-0.227,1.591,1.737,0.434,1.881C133.886,116.467,133.162,114.73,134.608,114.441z"/>
	<path fill="none" stroke="#000000" stroke-linecap="round" stroke-linejoin="round" stroke-miterlimit="10" d="M121.646,118.403
		c0,0,2-1.75,3.25-1.5"/>
	<path fill="none" stroke="#000000" stroke-width="1.5" stroke-linecap="round" stroke-linejoin="round" stroke-miterlimit="10" d="
		M156.113,116.153c0,0,3.408,0.093,5.533-0.051c2.125-0.145,4.625-0.074,4.535-0.039c-0.41-1.535-1.539-4.482-3.535-4.785
		c-2.888-0.676-6.329,2.799-6.471,3.237c-1.103,3.437,0.704,8.783,3.01,11.888"/>
	<path fill="none" stroke="#000000" stroke-width="3" stroke-linecap="round" stroke-linejoin="round" stroke-miterlimit="10" d="
		M160.244,114.166c1.071-0.147,1.504,1.119,0.41,1.211C159.559,115.471,158.876,114.352,160.244,114.166z"/>
	<path fill="none" stroke="#000000" stroke-linecap="round" stroke-linejoin="round" stroke-miterlimit="10" d="M168.676,116.403
		c0,0,1.891,0.5,2.658,1.938"/>
	<path fill="none" stroke="#000000" stroke-width="1.5" stroke-linecap="round" stroke-linejoin="round" stroke-miterlimit="10" d="
		M150.035,111.521c0,0,0.75,7.244,2.861,10.883c0,0-0.25,4.25,0,5.75s3.082,6.611,2.082,8.111s-6.381,4.688-6.381,4.688
		s-3.951-3.049-5.701-3.799"/>
	<path fill="none" stroke="#000000" stroke-width="1.5" stroke-linecap="round" stroke-linejoin="round" stroke-miterlimit="10" d="
		M153.215,138.084c1-0.639,0.619,0.257,0.619,0.257l1.312,1.812c0,0,3.25-1.5,2.5-4.5c-1.236-1.639-2.65-1.851-2.65-1.851"/>
	<path fill="none" stroke="#000000" stroke-width="1.5" stroke-linecap="round" stroke-linejoin="round" stroke-miterlimit="10" d="
		M143.598,137.952c0,0-1.451,0.201-1.951,2.451s-2.25,1-3.5-0.25s1-5.75,1-5.75"/>
	<path fill="none" stroke="#000000" stroke-width="1.5" stroke-linecap="round" stroke-linejoin="round" stroke-miterlimit="10" d="
		M137.771,139.091c0,0,1.217,4.847-3.625,9.562"/>
	<path fill="none" stroke="#000000" stroke-width="1.5" stroke-linecap="round" stroke-linejoin="round" stroke-miterlimit="10" d="
		M136.263,146.354c8.226-2,18.147,0.299,18.147,0.299"/>
	<path fill="none" stroke="#000000" stroke-width="1.5" stroke-linecap="round" stroke-linejoin="round" stroke-miterlimit="10" d="
		M154.41,143.278c0,0,1.204,0.467,0.567,3.855l-0.344,2.406"/>
	<path fill="none" stroke="#000000" stroke-width="1.5" stroke-linecap="round" stroke-linejoin="round" stroke-miterlimit="10" d="
		M156.146,158.403c0,0,1.5,2.25,1.75,4.25"/>
	<path fill="none" stroke="#000000" stroke-width="3" stroke-linecap="round" stroke-linejoin="round" stroke-miterlimit="10" d="
		M116.571,203.39c-2.75,22.463,10.25,38.963,10.25,38.963s3.75,0,5,3.25c0.875,1.625,0.75,3.562,0.75,3.562s2.219,0.469,2.969,2.719
		s0.281,2.969,0.281,2.969l-0.438,1.625c0,0,8.188,2.042,16.562,3.042c8.831,1.056,11.698,1.795,15.438,1.151
		c1.853-0.318,2.032-2.842,2.27-4.068c0.581-3.014,1.31-4.098,2.011-4.555c3.031-1.392,3.579,1.132,3.579,1.132
		s-0.753,5.194,4.713,6.669c5.465,1.475,11.989-0.794,14.875-2.11c2.884-1.317,4.685-2.911,5.6-1.698s1.293,3.746-0.995,5.126
		c0,0,1.063,1.323,0.048,2.98c-1.017,1.656-1.353,1.547-1.353,1.547s1.018,0.695-0.294,2.506s-1.318,1.438-1.318,1.438
		s-0.424,2.524-1.157,3.281s-4.5,3.894-10.168,3.839c-5.666-0.056-11.268-0.116-20.124,0.572c-9.361,0.725-25.73,2.673-37.249,1.897
		c0,0-1.156,1.531-3.031,2.031s-5.594-1.031-7.594-2.406s-2.5-2.375-3.75-2.375c-2,0-6.875-1.812-6.875-6.312
		c0,0-7.75-13.062-9-18.812S93,239.103,95.25,219s4.056-31.81,18.66-38.485c8.75-4,15-4.25,18-5.75s4.062-6.412,3.562-9.662"/>
	<path fill="none" stroke="#000000" stroke-width="1.5" stroke-linecap="round" stroke-linejoin="round" stroke-miterlimit="10" d="
		M186.721,265.438c0,0,4.091-0.626,6.863-1.978c2.773-1.351,5.47-2.85,5.47-2.85"/>
	<path fill="none" stroke="#000000" stroke-width="1.5" stroke-linecap="round" stroke-linejoin="round" stroke-miterlimit="10" d="
		M186.228,269.359c0,0,5.085-1.24,7.045-2.167c1.961-0.927,4.953-2.579,4.953-2.579"/>
	<path fill="none" stroke="#000000" stroke-width="1.5" stroke-linecap="round" stroke-linejoin="round" stroke-miterlimit="10" d="
		M185.539,272.726c0,0,5.499-0.985,10.156-3.411"/>
	<path fill="none" stroke="#000000" stroke-width="1.5" stroke-linecap="round" stroke-linejoin="round" stroke-miterlimit="10" d="
		M127.899,278.493c-1.25-0.156-10.984-2.984-10.734-11.109s12.781-10.906,17.406-10.531"/>
	<path fill="none" stroke="#000000" stroke-width="1.5" stroke-linecap="round" stroke-linejoin="round" stroke-miterlimit="10" d="
		M115.321,276.54c0,0-5.75-6.062-3.625-14.688"/>
	<path fill="none" stroke="#000000" stroke-width="1.5" stroke-linecap="round" stroke-linejoin="round" stroke-miterlimit="10" d="
		M131.571,249.853c0,0-10.438,1.188-13.875,6.5"/>
	<path fill="none" stroke="#000000" stroke-width="1.5" stroke-linecap="round" stroke-linejoin="round" stroke-miterlimit="10" d="
		M127.009,243.165c0,0-11.812-0.562-16.938,10.438c-2,4-2.469,6.531-2.469,6.531"/>
	<path fill="none" stroke="#000000" stroke-width="3" stroke-linecap="round" stroke-linejoin="round" stroke-miterlimit="10" d="
		M156.451,168.853c0,0,0.084,7.537,3.834,8.286c5.668,0.667,20.577,3.334,27.911,20.667s7.375,43.172,7.375,43.172
		s2.906,1.094,3.656,3.156s-0.219,4.844-0.219,4.844s2.188,1.875,2.188,3.625s-0.75,2.5-0.75,2.5"/>
	<path fill="none" stroke="#000000" stroke-width="3" stroke-linecap="round" stroke-linejoin="round" stroke-miterlimit="10" d="
		M174.159,205.265c0,0,2.412,29.588,1.537,31.838s-3.375,2.625-4.375,5.125s2,3.875,2,3.875s-1.25,3.125-0.125,4.875"/>
	<path fill="none" stroke="#000000" stroke-width="1.5" stroke-linecap="round" stroke-linejoin="round" stroke-miterlimit="10" d="
		M175.509,238.915c1.75-0.875,6.938-1.312,10.688-0.312"/>
	<path fill="none" stroke="#000000" stroke-width="1.5" stroke-linecap="round" stroke-linejoin="round" stroke-miterlimit="10" d="
		M174.196,245.853c0,0,10.375-1.75,14.625,0.625s9.5,2.688,9.5,2.688"/>
	<path fill="none" stroke="#000000" stroke-width="1.5" stroke-linecap="round" stroke-linejoin="round" stroke-miterlimit="10" d="
		M174.946,253.103c0,0,8.75,4.875,22,3.375"/>
	<path fill="none" stroke="#000000" stroke-width="3" stroke-linecap="round" stroke-linejoin="round" stroke-miterlimit="10" d="
		M175.218,277.103c0,0-0.646,15.25-2.146,20.833c-0.625,1.667-3.707,2.124-7.207,5.624s-3.459,7.375-3.459,7.375l-2.334,4.165
		c0,0,0.167,2.667,0.833,4.834c1.542,3.669,4.665,2.75,4.665,2.75s0.084,1.669,1.668,2.751s3.834,0.418,3.834,0.418
		s0.958,1.918,2.791,2.085s3.834-1.335,3.834-1.335s1.705,0.958,4.374,0.458c2.127-1.996,5.021-4.937,5.688-11.771
		c0.241-2.471-1.098-6.402,0.17-15.295s5.393-24.77,5.393-24.77"/>
	<path fill="none" stroke="#000000" stroke-width="1.5" stroke-linecap="round" stroke-linejoin="round" stroke-miterlimit="10" d="
		M167.32,311.747c-0.063-1.02-0.417-1.311-0.833-1.645c0,0,0.958,0.5,2.208-0.542c0,0-1.247,3.452-3.79,5.872
		c-0.293,0.253-1.418,1.418-1.418,1.418"/>
	<path fill="none" stroke="#000000" stroke-width="1.5" stroke-linecap="round" stroke-linejoin="round" stroke-miterlimit="10" d="
		M165.301,314.83c0,0-1.938-2.188-2.104-3.854"/>
	<path fill="none" stroke="#000000" stroke-width="3" stroke-linecap="round" stroke-linejoin="round" stroke-miterlimit="10" d="
		M197.929,268.46c0,0,4.018,56.268,3.018,85.768s2.339,35.912,2.339,35.912l-2.875,3.625c0,0,0.625,18.625,4.625,27.625
		c0,0-17,12.5-51,12.75s-50.5-6.25-61.25-8.5s-18.25-3.75-18.25-3.75s6.75-19.25,7.25-29.75c0,0-6.5-1.75-5.25-19.75
		s9.38-76.812,11.708-95.89s4.007-29.25,6.257-40.75"/>
	<path fill="none" stroke="#000000" stroke-width="1.5" stroke-linecap="round" stroke-linejoin="round" stroke-miterlimit="10" d="
		M128.949,176.139c0,0,4.334,12.333,10.334,17s5.332,8.334,5.332,36.667c0,0-0.321,11.988-0.772,29.049"/>
	<path fill="none" stroke="#000000" stroke-width="1.5" stroke-linecap="round" stroke-linejoin="round" stroke-miterlimit="10" d="
		M143.304,279.27c-1.021,38.838-2.279,87.411-2.354,93.869c0,0,0.666,12.001-3.5,17.667s-9.834,4.666-55.834,1.666"/>
	<path fill="none" stroke="#000000" stroke-width="1.5" stroke-linecap="round" stroke-linejoin="round" stroke-miterlimit="10" d="
		M158.617,177.807c0,0-11,16.997-26.334-2"/>
	<path fill="none" stroke="#000000" stroke-width="1.5" stroke-linecap="round" stroke-linejoin="round" stroke-miterlimit="10" d="
		M162.951,178.474c0,0-2.002,10.667-8.334,16c0,0-2.881,1.715-2.964,12.965c-0.03,4.148,0.472,25.68,1.127,51.836"/>
	<path fill="none" stroke="#000000" stroke-width="1.5" stroke-linecap="round" stroke-linejoin="round" stroke-miterlimit="10" d="
		M153.269,278.604c1.039,40.719,2.213,84.875,2.304,91.667c0.334,21.833,6.465,22.113,12.922,24.079s20.377,2.373,31.916-0.586"/>
	<path fill="none" stroke="#000000" stroke-width="3" stroke-linecap="round" stroke-linejoin="round" stroke-miterlimit="10" d="
		M130.787,433.1l-10.005,61.634c0,0,3.54,3.083,2.939,9.61c-0.604,6.527-0.941,8.728-0.941,8.728s-2.349,4.138-5.29,3.282
		c-0.284-1.407,0.487-6.063-3.396-1.771c-1.012,1.117-1.253,4.143-3.125,6.219c-1.868,2.077-11.152,3.811-20.798,1.853
		c0,0-4.631-2.52-3.993-8.303c0.643-5.779,3.812-8.891,10.054-9.804c2.804-0.734,5.291-0.846,6.934-3.625
		c1.649-2.779,4.816-6.03,4.816-6.03s0.284-34.552,2.242-64.79"/>
	<path fill="none" stroke="#000000" stroke-width="1.5" stroke-linecap="round" stroke-linejoin="round" stroke-miterlimit="10" d="
		M120.571,495.476c-2.429,3.724-11.923,7.176-12.787-0.24"/>
	<path fill="none" stroke="#000000" stroke-width="3" stroke-linecap="round" stroke-linejoin="round" stroke-miterlimit="10" d="
		M160.144,434.085l11.841,60.408c0,0-3.443,3.191-2.645,9.697c0.803,6.505,1.348,8.692,1.348,8.692s2.475,4.063,5.388,3.119
		c0.242-1.416-0.671-6.046,3.342-1.874c1.047,1.086,1.38,4.102,3.313,6.121c1.932,2.018,11.263,3.469,20.844,1.216
		c0,0,4.553-2.66,3.739-8.421c-0.819-5.756-4.082-8.77-10.348-9.492c-2.826-0.647-5.457-0.682-7.183-3.408
		c-1.734-2.729-4.999-5.881-4.999-5.881s-1.409-33.32-4.171-63.178"/>
	<path fill="none" stroke="#000000" stroke-width="1.5" stroke-linecap="round" stroke-linejoin="round" stroke-miterlimit="10" d="
		M171.903,495.567c0,0,11.442,6.799,13.09-0.968"/>
</g>
</svg>
