<?xml version="1.0" encoding="utf-8"?>
<!-- Generator: Adobe Illustrator 16.0.0, SVG Export Plug-In . SVG Version: 6.00 Build 0)  -->
<!DOCTYPE svg PUBLIC "-//W3C//DTD SVG 1.1//EN" "http://www.w3.org/Graphics/SVG/1.1/DTD/svg11.dtd">
<svg version="1.1" id="Layer_1" xmlns="http://www.w3.org/2000/svg" xmlns:xlink="http://www.w3.org/1999/xlink" x="0px" y="0px"
	 width="539.193px" height="560px" viewBox="0 0 539.193 560" enable-background="new 0 0 539.193 560" xml:space="preserve">
<g id="colour">
	<path fill="#FFFFFF" d="M287.36,267.25c24.659,0.02,49.46,0.04,71.17,0.05l0.859-0.33c0.29,0.83,0.96,1.64,2.311,2.24
		c4.16,1.83,9.04-0.3,11.37,0.79c2.34,1.08,2.75,2.02,3.92,8.55c0.71,5.47,0.93,8.13,3.02,9.771c2.09,1.649,4.25,0.66,4.25,0.66
		s1.71,0.949,3.26,0.909c1.54-0.04,2.73-1.939,2.73-1.939s1.72,0.62,3.38-0.26c1.67-0.881,0.99-3.75,0.41-8.911
		c-0.51-4.58-1.14-8.41-1.271-9.21c0.11,0.34,0.57,1.39,2.521,4.6c2.74,4.53,5.26,6.4,7.59,4.78c-0.16-3-2.53-6.86-4.37-10.1
		c-0.25-0.44-0.52-0.86-0.8-1.28l0.16-0.11c40.21,0.02,70.92-0.09,78.74-0.09l4.25,257.25H77.36l2-257.5c0,0,48.89,0.04,113.17,0.08
		l0.51,0.21c-3.1,7.63-3.6,15.83-2.34,16.88c1.83,1.17,2.66,0.67,2.66,0.67s0.17,2.83,2.17,3.16c2,0.34,3.58-0.41,3.58-0.41
		s1.17,1.58,3.34,1.58c2.16,0,2.87-1.67,2.87-1.67s1.04,1,3.71-0.66c1.67-1.25,3.25-9.5,3.92-13.25c0.37-2.13,1.859-3.01,3.92-4.43
		c1.57-1.08,3.41-0.74,6.99-0.32c3.59,0.41,6.34,2,9.84-0.84c0.42-0.34,0.75-0.66,1-0.98l0.54,0.09
		c11.68,0.01,24.01,0.01,36.56,0.01C276.96,267.25,282.16,267.25,287.36,267.25z"/>
	<path fill="#EAD2C3" d="M392.76,269.52c-0.01-0.04-0.01-0.07-0.02-0.09C392.74,269.45,392.74,269.47,392.76,269.52z M392.77,269.57
		c0.131,0.8,0.761,4.63,1.271,9.21c0.58,5.161,1.26,8.03-0.41,8.911c-1.66,0.88-3.38,0.26-3.38,0.26s-1.19,1.899-2.73,1.939
		c-1.55,0.04-3.26-0.909-3.26-0.909s-2.16,0.989-4.25-0.66c-2.09-1.641-2.31-4.301-3.02-9.771c-1.17-6.53-1.58-7.47-3.92-8.55
		c-2.33-1.09-7.21,1.04-11.37-0.79c-1.351-0.6-2.021-1.41-2.311-2.24c-0.59-1.73,0.471-3.51,0.471-3.51s7-0.59,10-2.09
		s7-3.25,13.42-2.66l0.08-0.09c0,0,5.01,1.19,7.67,2.73c2.31,1.33,4.84,3.55,6.68,6.22c0.28,0.42,0.55,0.84,0.8,1.28
		c1.84,3.24,4.21,7.1,4.37,10.1c-2.33,1.62-4.85-0.25-7.59-4.78C393.34,270.96,392.88,269.91,392.77,269.57z"/>
	<path fill="#59253C" d="M381.7,255.62l1.66,3l-0.08,0.09c-6.42-0.59-10.42,1.16-13.42,2.66s-10,2.09-10,2.09
		s-1.061,1.78-0.471,3.51l-0.859,0.33c-21.71-0.01-46.511-0.03-71.17-0.05c-1.521-14.7-2.03-22.16-3.62-35.52
		c-1.59-13.38-5.09-32.68-1.82-35.72c6.33-5.34,8.34-16,8.34-16l0.16-0.95c6.29,1.09,16.23,4.45,22.5,19.28
		c0,0,12.78,34.28,18.44,43.62c0,0,21.67,9.66,32.67,12C364.03,253.96,371.03,249.96,381.7,255.62z"/>
	<path fill="#DDE3F2" d="M281.27,41.62c15.211-1,46.36,27.87,29.801,52.57c-2.96,4.04-6.67,6.33-10.71,7.43
		c-15.11,4.13-34.75-8.47-36.25-9.29c-0.75,11.63-11.311,19.29-11.311,19.29l0.561,16.17c0,0-1.99-1.75-3.19-5.92
		c-1.189-4.17-2.47-4.33-5.05-4.07c-2.59,0.25-4.96,2.96-5.55,6.7s-0.24,9.83,1.199,13.86c-5.649-10.32-7.26-15.75-11.989-25.74
		c-4.73-9.98-10.94-27.23-0.69-39.32c10.25-12.09,18.46-9.18,18.46-9.18C248.44,49.98,266.06,42.62,281.27,41.62z"/>
	<path fill="#EAD2C3" d="M291,119.05l0.44,0.05c1.68,0.36,3.439,0.85,5,0.86c2.069,0.01,3.659-1.06,3.659-1.06s0.091-4.11-3-4.36
		C292.46,114.75,291.26,118.03,291,119.05z M275.93,119.29c-0.05-1.41-0.42-2.7-1.16-3.83c-0.539-0.37-2.43-0.94-5.43-0.19
		s-4.35,3.51-4.35,3.51s1.16,1.73,3.96,1.92c2.55,0.17,4.25-0.41,6.91-1.41H275.93z M283.38,140.8l-0.02,0.02
		c0,0-2.11-0.13-2.44,0.9c-0.33,1.03-1.65,2.36-1.65,2.36s-1.76-0.38-2.8-3.11l-2.55,1.18c0,0-0.86,2.15-2.14,4.2l0.83,0.27
		c8.149,9.46,19.97,3.68,19.97,3.68c0.91-2.43,0.89-4.7,0.7-6.18v-0.08c-1.28,0.08-2.49-1.34-2.66-1.55
		c-0.42,0.29-0.851,0.59-1.28,0.88c-1.32,0.92-1.93,1.22-2.78,0.79C285.94,143.85,284.69,142.21,283.38,140.8z M304.28,132.21
		c0.05,4.45-0.79,10.18-2.24,14.88c-1.46,4.7-8.01,14.6-8.01,14.6s-0.761,7.95-3.92,10.93c-1.931,1.83-4.551,2.92-8.25,1.92
		c-2.33-0.63-5.091-2.08-8.37-4.7c-3.71-1.64-7.061-3.07-10-4.9c-4.15-2.59-7.5-5.96-9.9-11.8l0.26-1.32c0,0,3.16-3.41,0.271-7.09
		s-8.54-0.4-8.94,0l-0.359-0.09c0.06-0.12,0.1-0.18,0.1-0.18s-3.2-2.48-4.15-6.1c-1.439-4.03-1.789-10.12-1.199-13.86
		s2.96-6.45,5.55-6.7c2.58-0.26,3.86-0.1,5.05,4.07c1.2,4.17,3.19,5.92,3.19,5.92l-0.561-16.17c0,0,10.561-7.66,11.311-19.29
		c1.5,0.82,21.14,13.42,36.25,9.29h2.5c2,8.5,0.88,16.75,0.88,16.75S304.23,127.75,304.28,132.21z"/>
	<path fill="#FFFFFF" d="M297.1,114.54c3.091,0.25,3,4.36,3,4.36s-1.59,1.07-3.659,1.06c-1.561-0.01-3.32-0.5-5-0.86l-0.44-0.05
		C291.26,118.03,292.46,114.75,297.1,114.54z M295.26,118.28c0.79,0.13,1.29-1.21,0.3-1.46
		C294.78,116.63,294.46,118.15,295.26,118.28z"/>
	<path d="M295.56,116.82c0.99,0.25,0.49,1.59-0.3,1.46C294.46,118.15,294.78,116.63,295.56,116.82z"/>
	<path fill="#EAD2C3" d="M293.28,144.12c0.189,1.48,0.21,3.75-0.7,6.18c0,0-11.82,5.78-19.97-3.68l-0.83-0.27
		c1.279-2.05,2.14-4.2,2.14-4.2l2.55-1.18c1.04,2.73,2.8,3.11,2.8,3.11s1.32-1.33,1.65-2.36c0.33-1.03,2.44-0.9,2.44-0.9l0.02-0.02
		c1.311,1.41,2.561,3.05,3.18,3.36c0.851,0.43,1.46,0.13,2.78-0.79c0.43-0.29,0.86-0.59,1.28-0.88c0.17,0.21,1.38,1.63,2.66,1.55
		V144.12z"/>
	<path fill="#D67F58" d="M290.42,179.06l-0.16,0.95c0,0-2.01,10.66-8.34,16c-3.27,3.04,0.23,22.34,1.82,35.72
		c1.59,13.36,2.1,20.82,3.62,35.52c-5.2,0-10.4,0-15.561-0.01c0.12-14.48,0.12-26.94,0.12-35.9c0-28.33,0.67-32-5.33-36.67
		s-10.34-17-10.34-17l-0.09-0.35c0.359-0.09,0.71-0.18,1.04-0.27l2.39,0.29c15.33,19,26.33,2,26.33,2l0.35-1.04
		c0.41,0.15,0.851,0.28,1.32,0.37C288.41,178.77,289.36,178.88,290.42,179.06z"/>
	<path fill="#EAD2C3" d="M286.27,178.3l-0.35,1.04c0,0-11,17-26.33-2l-2.39-0.29c0.78-0.23,1.46-0.47,2.02-0.75
		c4.391-2.18,4.66-7.93,4.16-11.18l0.11-0.18c2.939,1.83,6.29,3.26,10,4.9c3.279,2.62,6.04,4.07,8.37,4.7l-0.101,0.38
		C281.76,174.92,283.35,177.22,286.27,178.3z"/>
	<path fill="#FFFFFF" d="M275.93,119.29h-0.069c-2.66,1-4.36,1.58-6.91,1.41c-2.8-0.19-3.96-1.92-3.96-1.92s1.35-2.76,4.35-3.51
		s4.891-0.18,5.43,0.19C275.51,116.59,275.88,117.88,275.93,119.29z M270.28,118.76c0.859,0.14,1.399-1.32,0.33-1.59
		C269.76,116.96,269.42,118.62,270.28,118.76z"/>
	<path fill="#59253C" d="M266.59,194.67c6,4.67,5.33,8.34,5.33,36.67c0,8.96,0,21.42-0.12,35.9c-12.55,0-24.88,0-36.56-0.01
		l-0.54-0.09c1.859-2.3-0.33-3.85-0.33-3.85s-1,0.17-7.34-1.83c-6.33-2-9.25-7.34-19.92-6.5h-0.971
		c0.141-0.06,0.221-0.09,0.221-0.09c0.38-2.18-0.5-5.75,5.5-7c3.21-5.87,7.409-12.4,8.979-20.45c2.25-11.5,11.63-41.37,20.38-45.37
		c6.431-2.94,11.511-3.85,14.94-4.73l0.09,0.35C256.25,177.67,260.59,190,266.59,194.67z"/>
	<path d="M270.61,117.17c1.069,0.27,0.529,1.73-0.33,1.59C269.42,118.62,269.76,116.96,270.61,117.17z"/>
	<path fill="#FFD836" d="M254.12,144.73c2.89,3.68-0.271,7.09-0.271,7.09l-0.26,1.32c0,0-5.25,2.89-8.28-0.66
		c-2.659-3.13-0.939-6.97-0.489-7.84l0.359,0.09C245.58,144.33,251.23,141.05,254.12,144.73z"/>
	<path fill="#EAD2C3" d="M234.37,263.29c0,0,2.189,1.55,0.33,3.85c-0.25,0.32-0.58,0.64-1,0.98c-3.5,2.84-6.25,1.25-9.84,0.84
		c-3.58-0.42-5.42-0.76-6.99,0.32c-2.061,1.42-3.55,2.3-3.92,4.43c-0.67,3.75-2.25,12-3.92,13.25c-2.67,1.66-3.71,0.66-3.71,0.66
		s-0.71,1.67-2.87,1.67c-2.17,0-3.34-1.58-3.34-1.58s-1.58,0.75-3.58,0.41c-2-0.33-2.17-3.16-2.17-3.16s-0.83,0.5-2.66-0.67
		c-1.26-1.05-0.76-9.25,2.34-16.88c0.59-1.47,1.28-2.92,2.07-4.29c2.38-4.19,9.689-7.56,11.029-8.16h0.971
		c10.67-0.84,13.59,4.5,19.92,6.5C233.37,263.46,234.37,263.29,234.37,263.29z"/>
</g>
<g>
	<path fill="none" stroke="#000000" stroke-width="3" stroke-linecap="round" stroke-linejoin="round" stroke-miterlimit="10" d="
		M264.114,92.331c1.897,1.044,32.923,20.997,46.958,1.862c16.554-24.698-14.594-53.57-29.802-52.57s-32.833,8.355-34.716,22.5
		c0,0-8.216-2.908-18.463,9.179s-4.041,29.337,0.688,39.321s6.335,15.417,11.992,25.742c-1.447-4.036-1.794-10.124-1.203-13.863
		s2.963-6.448,5.546-6.705s3.869-0.099,5.06,4.072s3.189,5.924,3.189,5.924l-0.562-16.17
		C252.803,111.623,263.364,103.956,264.114,92.331z"/>
	<path fill="none" stroke="#000000" stroke-width="1.5" stroke-linecap="round" stroke-linejoin="round" stroke-miterlimit="10" d="
		M266.224,92.982c0,0,31.633,8.564,37.236-9.128c5.606-17.692-11.735-25.224-18.216-25.749c-6.481-0.525-10.51,8.934-3.854,12.438
		c6.655,3.503,8.583-3.153,7.181-4.029"/>
	<path fill="none" stroke="#000000" stroke-width="3" stroke-linecap="round" stroke-linejoin="round" stroke-miterlimit="10" d="
		M302.864,101.623c2,8.5,0.871,16.75,0.871,16.75s0.499,9.38,0.546,13.833s-0.793,10.185-2.244,14.887
		c-1.453,4.702-8.006,14.602-8.006,14.602s-0.761,7.945-3.917,10.928s-8.124,4.002-16.625-2.781
		c-8.932-3.941-15.792-6.719-19.898-16.705c0,0-5.255,2.89-8.276-0.658c-3.021-3.547-0.395-8.014-0.395-8.014s-3.2-2.48-4.147-6.1"
		/>
	<path fill="none" stroke="#000000" stroke-width="1.5" stroke-linecap="round" stroke-linejoin="round" stroke-miterlimit="10" d="
		M253.854,151.822c0,0,3.153-3.416,0.263-7.094c-2.891-3.68-8.539-0.395-8.934,0"/>
	<path fill="none" stroke="#000000" stroke-width="1.5" stroke-linecap="round" stroke-linejoin="round" stroke-miterlimit="10" d="
		M250.963,140.123c0,0-2.071-0.679-2.071-3.307s1.215-4.769,1.215-4.769s-3.158-0.508-4.661-8.865"/>
	<path fill="none" stroke="#000000" stroke-width="1.5" stroke-linecap="round" stroke-linejoin="round" stroke-miterlimit="10" d="
		M260.931,110.836c-2.173,2.896,4.544-8.031,15.239-3.117"/>
	<path fill="none" stroke="#000000" stroke-width="1.5" stroke-linecap="round" stroke-linejoin="round" stroke-miterlimit="10" d="
		M275.863,119.288c-2.665,1.003-4.366,1.585-6.909,1.413c-2.8-0.191-3.969-1.918-3.969-1.918s1.357-2.764,4.357-3.514
		s4.883-0.18,5.43,0.195c2.128,3.25,1.176,7.825-1.491,12.908"/>
	<path fill="none" stroke="#000000" stroke-width="3" stroke-linecap="round" stroke-linejoin="round" stroke-miterlimit="10" d="
		M270.608,117.171c-0.845-0.209-1.19,1.447-0.328,1.585C271.145,118.895,271.684,117.438,270.608,117.171z"/>
	<path fill="none" stroke="#000000" stroke-linecap="round" stroke-linejoin="round" stroke-miterlimit="10" d="M260.675,119.296
		c0,0-2.46,0.854-3.169,1.723"/>
	<path fill="none" stroke="#000000" stroke-width="1.5" stroke-linecap="round" stroke-linejoin="round" stroke-miterlimit="10" d="
		M281.938,114.353c0,0-0.971,11.158,0.801,16.021"/>
	<path fill="none" stroke="#000000" stroke-width="1.5" stroke-linecap="round" stroke-linejoin="round" stroke-miterlimit="10" d="
		M303.317,109.373c0,0-6.443-4.01-11.792-1.661"/>
	<path fill="none" stroke="#000000" stroke-width="1.5" stroke-linecap="round" stroke-linejoin="round" stroke-miterlimit="10" d="
		M296.018,128.442c-3.334-1.973-4.32-6.153-5.081-9.096c0,0,0.668-4.556,6.168-4.806c3.083,0.25,3,4.355,3,4.355
		s-1.595,1.077-3.66,1.062c-1.562-0.012-3.329-0.5-5.007-0.86"/>
	<path fill="none" stroke="#000000" stroke-width="3" stroke-linecap="round" stroke-linejoin="round" stroke-miterlimit="10" d="
		M295.561,116.819c-0.779-0.19-1.1,1.335-0.304,1.462C296.055,118.409,296.553,117.067,295.561,116.819z"/>
	<path fill="none" stroke="#000000" stroke-width="1.5" stroke-linecap="round" stroke-linejoin="round" stroke-miterlimit="10" d="
		M287.418,114.051c0,0-1.543,5.143,2.336,10.392c0,0,0.517,2.93,1.173,6.394c-0.184,2.884,2.344,4.536,3.314,7.036
		c0.029,2-2.424,3.814-4.901,5.5c-1.32,0.916-1.934,1.219-2.778,0.791s-2.81-3.26-4.562-4.688"/>
	<path fill="none" stroke="#000000" stroke-width="1.5" stroke-linecap="round" stroke-linejoin="round" stroke-miterlimit="10" d="
		M290.603,142.456c0,0,2.341,3.011,4.063,0.75c1.725-2.26-0.733-3.5-0.733-3.5"/>
	<path fill="none" stroke="#000000" stroke-width="1.5" stroke-linecap="round" stroke-linejoin="round" stroke-miterlimit="10" d="
		M283.356,140.822c0,0-2.111-0.133-2.44,0.898c-0.329,1.033-1.646,2.36-1.646,2.36s-2-0.427-3-3.692s2.915-4.57,2.915-4.57"/>
	<path fill="none" stroke="#000000" stroke-width="1.5" stroke-linecap="round" stroke-linejoin="round" stroke-miterlimit="10" d="
		M273.925,142.151c0,0-3.066,7.621-6.218,7.883"/>
	<path fill="none" stroke="#000000" stroke-width="1.5" stroke-linecap="round" stroke-linejoin="round" stroke-miterlimit="10" d="
		M293.435,153.719c0.431-1.43-0.395-2.438-0.854-3.423c0,0-11.824,5.78-19.97-3.679"/>
	<path fill="none" stroke="#000000" stroke-width="1.5" stroke-linecap="round" stroke-linejoin="round" stroke-miterlimit="10" d="
		M293.282,144.121c0.184,1.481,0.209,3.745-0.702,6.176"/>
	<path fill="none" stroke="#000000" stroke-width="3" stroke-linecap="round" stroke-linejoin="round" stroke-miterlimit="10" d="
		M263.377,165.123c0.5,3.25,0.237,9-4.161,11.175c-3,1.5-9.25,1.75-18,5.75s-18.125,33.875-20.375,45.375
		c-1.575,8.05-5.768,14.575-8.977,20.45c-6,1.25-5.127,4.821-5.5,6.995c0,0-8.625,3.63-11.25,8.255
		c-4.918,8.502-5.917,19.915-4.417,21.167c1.834,1.168,2.666,0.668,2.666,0.668s0.168,2.834,2.169,3.166
		c2.001,0.334,3.582-0.418,3.582-0.418s1.166,1.584,3.333,1.584s2.874-1.668,2.874-1.668s1.043,1,3.711-0.666
		c1.665-1.25,3.248-9.499,3.914-13.249c0.378-2.129,1.868-3.008,3.928-4.427c1.569-1.081,3.405-0.739,6.989-0.322
		s6.335,2,9.835-0.834s0.667-4.834,0.667-4.834s-0.999,0.167-7.332-1.833s-9.252-7.334-19.919-6.5"/>
	<path fill="none" stroke="#000000" stroke-width="1.5" stroke-linecap="round" stroke-linejoin="round" stroke-miterlimit="10" d="
		M194.031,284.621c0,0,0.499-8.331,2.999-15.5"/>
	<path fill="none" stroke="#000000" stroke-width="1.5" stroke-linecap="round" stroke-linejoin="round" stroke-miterlimit="10" d="
		M199.197,287.121c0,0,0.166-9.997,3.166-17.833"/>
	<path fill="none" stroke="#000000" stroke-width="1.5" stroke-linecap="round" stroke-linejoin="round" stroke-miterlimit="10" d="
		M204.864,287.039c0,0-0.208-3.627,0.208-7.375c0.416-3.747,2.124-10.043,2.124-10.043"/>
	<path fill="none" stroke="#000000" stroke-width="1.5" stroke-linecap="round" stroke-linejoin="round" stroke-miterlimit="10" d="
		M210.927,248.373c0,0,7.938-1,15.688,4.875"/>
	<path fill="none" stroke="#000000" stroke-width="3" stroke-linecap="round" stroke-linejoin="round" stroke-miterlimit="10" d="
		M281.757,174.922c0,0,2.084,3,5.834,3.749c5.668,0.667,18,2.334,25.334,19.667c0,0,12.772,34.286,18.439,43.619
		c0,0,21.667,9.667,32.667,12c0,0,7.001-4.001,17.667,1.666l1.666,3c0,0,5.002,1.188,7.668,2.729s5.642,4.254,7.479,7.494
		c1.839,3.242,4.213,7.104,4.37,10.102c-2.334,1.622-4.854-0.247-7.596-4.777c-2.74-4.529-2.543-4.759-2.543-4.759
		s0.718,4.202,1.301,9.365c0.582,5.164,1.253,8.035-0.411,8.912c-1.665,0.879-3.381,0.264-3.381,0.264s-1.192,1.9-2.735,1.939
		c-1.542,0.039-3.26-0.914-3.26-0.914s-2.158,0.988-4.247-0.656c-2.089-1.643-2.313-4.299-3.018-9.773
		c-1.175-6.529-1.586-7.467-3.919-8.552s-7.208,1.042-11.375-0.791s-1.833-5.748-1.833-5.748s7-0.587,10-2.086s7-3.25,13.416-2.664"
		/>
	<path fill="none" stroke="#000000" stroke-width="1.5" stroke-linecap="round" stroke-linejoin="round" stroke-miterlimit="10" d="
		M381.532,269.789c0,0,0.593,2.005,1.458,8.97l1.496,9.433"/>
	<path fill="none" stroke="#000000" stroke-width="1.5" stroke-linecap="round" stroke-linejoin="round" stroke-miterlimit="10" d="
		M387.267,269.388c0,0,0.616,3.627,1.318,8.263c0.702,4.636,1.477,9.853,1.477,9.853"/>
	<path fill="none" stroke="#000000" stroke-width="1.5" stroke-linecap="round" stroke-linejoin="round" stroke-miterlimit="10" d="
		M355.364,259.293c0,0,5.666-2.917,8.75-4.584"/>
	<path fill="none" stroke="#000000" stroke-width="1.5" stroke-linecap="round" stroke-linejoin="round" stroke-miterlimit="10" d="
		M322.363,245.792c0,0,4.167-4.333,12.667-1.833"/>
	<path fill="none" stroke="#000000" stroke-width="3" stroke-linecap="round" stroke-linejoin="round" stroke-miterlimit="10" d="
		M235.239,267.226c39.257,0.025,85.861,0.053,123.291,0.076"/>
	<path fill="none" stroke="#000000" stroke-width="3" stroke-linecap="round" stroke-linejoin="round" stroke-miterlimit="10" d="
		M397.865,267.456c40.218,0.024,70.924-0.083,78.749-0.083l4.25,257.25h-403.5l2-257.5c0,0,48.886,0.033,113.166,0.075"/>
	<path fill="none" stroke="#000000" stroke-width="3" stroke-linecap="round" stroke-linejoin="round" stroke-miterlimit="10" d="
		M239.739,265.998c1.607-6,0.352-21.575,0.352-21.575s5.005-25.675,4.606-36.799"/>
	<path fill="none" stroke="#000000" stroke-width="1.5" stroke-linecap="round" stroke-linejoin="round" stroke-miterlimit="10" d="
		M256.255,177.671c0,0,4.334,12.333,10.334,17s5.332,8.334,5.332,36.667c0,8.987,0,21.497-0.116,36.038"/>
	<path fill="none" stroke="#000000" stroke-width="1.5" stroke-linecap="round" stroke-linejoin="round" stroke-miterlimit="10" d="
		M285.923,179.339c0,0-11,16.997-26.334-2"/>
	<path fill="none" stroke="#000000" stroke-width="1.5" stroke-linecap="round" stroke-linejoin="round" stroke-miterlimit="10" d="
		M290.257,180.006c0,0-2.002,10.667-8.334,16c-3.273,3.039,0.229,22.339,1.816,35.728s2.103,20.857,3.628,35.624"/>
	<path fill="none" stroke="#000000" stroke-width="3" stroke-linecap="round" stroke-linejoin="round" stroke-miterlimit="10" d="
		M303.363,205.922c0,0,2.677,19.251,3.927,26.501s2.117,16.489,3.512,23.262s5.77,8.938,10.895,11.312"/>
</g>
</svg>
