<?xml version="1.0" encoding="utf-8"?>
<!-- Generator: Adobe Illustrator 16.0.0, SVG Export Plug-In . SVG Version: 6.00 Build 0)  -->
<!DOCTYPE svg PUBLIC "-//W3C//DTD SVG 1.1//EN" "http://www.w3.org/Graphics/SVG/1.1/DTD/svg11.dtd">
<svg version="1.1" id="Layer_1" xmlns="http://www.w3.org/2000/svg" xmlns:xlink="http://www.w3.org/1999/xlink" x="0px" y="0px"
	 width="283.46px" height="560px" viewBox="0 0 283.46 560" enable-background="new 0 0 283.46 560" xml:space="preserve">
<g id="colour">
	<path fill="#D67F58" d="M229.57,409.05c2.67,8,2.67,9,2.67,9s-12.95,5.931-35.45,8.58c-2.51,0.3-5.14,0.55-7.88,0.75
		c-2.811,0.21-5.69,0.36-8.601,0.45c-7.6,0.26-15.43,0.16-22.96-0.23c-17.609-0.88-33.57-3.29-41.109-6.22
		c0,0,5.33-19.33,5.33-60.67c0-41.33-1.33-71-1.33-71l-0.06-0.33c2.24-0.439,4.51-0.87,6.7-1.27c0.33,13.12,1,26.979,1.94,39.35
		c2,26.25,3.75,52.5,3.75,53.25s0.75,5.5,7.5,6.25c3.15,0.35,16.34,3.38,32.03,3.75c17.98,0.43,41.25-2.89,54.471-4.5l1.13-0.19
		c-0.82,1.051-1.46,1.69-1.46,1.69S226.91,401.05,229.57,409.05z"/>
	<path d="M233.03,489.1c0,0-2.16,3.44-4.83,4.24c-2.69-2.149-3.66-2.72-5.47-0.78c-1.82,1.94-2.91,5.15-3.181,9.16
		c-5.52,7.761-23.229,6.99-23.229,6.99s-4-2.5-4.82-9.13c2.32-9.62,13.89-6.49,18.33-16.86c0.1-0.359,0.11-0.81,0.02-1.34l0.32-0.05
		c0,0,9.12,1,11.89-6.9c1.24,1.73,2.421,2.88,3.62,3.4C229.94,479.66,233.03,489.1,233.03,489.1z"/>
	<path fill="#59253C" d="M88.64,289.76c-0.23-4.149-1.15-9.29-2.57-13.55c-2-6-4.12-5.87-4.12-5.87l-0.67-0.88c0,0-0.79-3.33,1.04-4
		c1.83-0.66,2.92-1.58,17.42-3.41c13.58-1.72,18.06-2.89,21.72-4.82c0.25-0.12,0.5-0.25,0.74-0.39c1.24-0.7,2.96-1.43,4.73-2.09
		l-0.06-0.16c0.05-1.63,0.12-3.17,0.2-4.63c1.33-16.08,3-26.58,7.83-46.58l-0.55-0.21c2.2-5.98,4.75-12.23,7.71-18.64
		c1.03-2.26,2.12-4.53,3.26-6.82c0,0,1.149-1.39,3.04-3.43c4.729-5.07,14.109-14.14,21.96-15.57c0,0,7-1.25,9.5,0.5l0.199-0.17
		c0.591,0.69,1.221,1.36,1.891,2.01c9.33,9,28.33,71.66,36.33,121.66s14,93.67,12.67,97.67c-0.75,2.25-2.141,4.29-3.21,5.64
		l-1.13,0.19c-13.221,1.61-36.49,4.93-54.471,4.5c-15.689-0.37-28.88-3.4-32.03-3.75c-6.75-0.75-7.5-5.5-7.5-6.25
		s-1.75-27-3.75-53.25c-0.94-12.37-1.61-26.229-1.94-39.35c-2.19,0.399-4.46,0.83-6.7,1.27c-5.85,1.15-11.53,2.4-15.2,3.58
		c-8.83,2.83-16.45,4.96-17.53,4.55c-1.09-0.42-2.71-1.46-3.96-4.05c-0.67,0.14-1.3,0.08-1.83-0.07c0.8-0.21,5.04-1.37,6.95-3.63
		H88.64z"/>
	<path fill="#6D6058" d="M209.3,450.97c5.95,11.011,9.601,19.09,12.76,23.46c-2.77,7.9-11.89,6.9-11.89,6.9l-0.32,0.05
		c-1.47-8.97-28.42-41.06-28.42-41.06l-0.58,0.02c-0.17-4.76-0.359-9.03-0.54-12.359v-0.15c2.91-0.09,5.79-0.24,8.601-0.45
		c2.74-0.2,5.37-0.45,7.88-0.75l0.04,0.33C196.83,426.96,200.99,435.58,209.3,450.97z"/>
	<path d="M185.9,501.05c0,4.66,0.51,8.83,0.51,8.83c-2.67,4.33-7.5,3.17-7.5,3.17l-0.67-5.67c-4.67-1.67-8.67,2.33-10.67,7.83
		c-4.67,4.5-22,2-22,2s-5.16-2.83-1.33-11.16c3.83-8.34,15.09-6.42,24.5-12.84c0.18-0.11,0.34-0.3,0.47-0.55l0.12,0.05
		c0,0,9.02,3.24,13.07-0.79C183.1,492.88,185.9,496.96,185.9,501.05z"/>
	<path fill="#6D6058" d="M182.24,491.71c0,0,0.06,0.07,0.16,0.21c-4.051,4.03-13.07,0.79-13.07,0.79l-0.12-0.05
		c3.73-6.96-11.88-64.66-11.88-64.66l0.02-0.4c7.53,0.391,15.36,0.49,22.96,0.23v0.15c0.181,3.329,0.37,7.6,0.54,12.359
		C181.62,461.32,182.24,491.71,182.24,491.71z"/>
	<path fill="#EAD2C3" d="M180.02,159.04l-0.199,0.17c-2.5-1.75-9.5-0.5-9.5-0.5c-7.851,1.43-17.23,10.5-21.96,15.57l-0.03-0.03
		c2.97-3.13,3.34-9.24,5.32-12.41c6.58-3.9,11.359-12.72,12.56-24.15c0,0,0.61,0.11,1.48,0.07l2.88,0.29
		C170.57,138.05,172.29,150.11,180.02,159.04z"/>
	<path fill="#DDE3F2" d="M128.49,90.53c-3.76,6.99-7.69,11.93-11.59,15.34c-14.02,12.24-27.76,4.78-32.44,1.38
		C65.88,93.75,84.39,52.87,101.32,45c11.15-4.51,28.18,9.14,28.18,9.14c4.5-4.64,13.39-6.53,18.45-6.09C153,48.5,168,50,171.93,67.6
		c2.42,10.88,2.41,17,2.84,24.86c0.421,7.85-0.92,16.57-5.51,29.21l-0.54,0.1c-0.54-2.98-1.39-6.87-2.58-9.91
		c-2.25-5.76-2.939-10.62-9.449-8.37c-4.04,1.6-0.971,14-0.971,14l-10.64-12.15c-7.12-3.2-16.58-14.82-16.58-14.82
		S128.5,90.52,128.49,90.53z"/>
	<path fill="#FFD836" d="M167.53,126.9l1.89-0.51c0,0,5.43,1.06,4.11,6.71c-0.91,3.85-3.98,4.59-5.84,4.66
		c-0.87,0.04-1.48-0.07-1.48-0.07l-0.63-0.72c0,0-3.92-2.72-2.83-6.58C163.54,127.56,165.99,126.9,167.53,126.9z"/>
	<path fill="#EAD2C3" d="M132.72,137.28l-0.31,0.35c1.02,1.17,1.12,3.87-0.67,4.92c-0.71,0.41-1.53-0.71-2.27-0.88
		c-1.13-0.25-2.07,0.24-2.07,0.24s-0.41,1.34-0.83,2.31c-0.12,0.28-0.23,0.49-0.32,0.65c-0.12-0.34-0.23-0.67-0.35-0.99
		c-0.79-2.16-2.21-4.07-2.21-4.07s1.7-0.6,4.07-1.78c2.61-1.3,5.06-2.25,5.15-3.65c0.16-2.66-2.5-3.5-2.5-3.5l-12.38,1.79
		l10.62-6.04c0,0,1.42-2.08,0.75-4.58c-0.41-1.24-1.78-1.74-2.25-1.87c-0.1-0.04-0.16-0.05-0.16-0.05s-0.17-1.08-0.17-2.33
		s-1.75-4.25-1.75-4.25l-14.14,8.64c0.4-0.39,6.85-6.77,8.14-10.64c1.33-4-2.16-5.67-2.16-5.67l-0.01-0.01
		c3.9-3.41,7.83-8.35,11.59-15.34c0.01-0.01,0.01-0.01,0.01-0.01s9.46,11.62,16.58,14.82l10.64,12.15c0,0-3.069-12.4,0.971-14
		c6.51-2.25,7.199,2.61,9.449,8.37c1.19,3.04,2.04,6.93,2.58,9.91c0.471,2.67,0.7,4.62,0.7,4.62l-1.89,0.51
		c-1.54,0-3.99,0.66-4.78,3.49c-1.09,3.86,2.83,6.58,2.83,6.58l0.63,0.72c-1.2,11.43-5.979,20.25-12.56,24.15
		c-1.98,3.17-2.351,9.28-5.32,12.41c-2.58,1.58-6.08,2.52-9.08,2c-0.1-0.02-0.2-0.04-0.3-0.06c-6.94-1.44-5.2-9.69-6.45-13.69
		c-0.47-1.49-1.15-2.93-1.86-4.35c-1.21-2.4-2.52-4.74-3.07-7.19c-0.01-0.21-0.02-0.44-0.05-0.67h0.05c0-1.37,1.4-4.34,12-7.19
		l0.04-0.03C137.08,140.13,133.81,137.96,132.72,137.28z"/>
	<path fill="#59253C" d="M114.29,158.27c0.23,0.09,0.49,0.18,0.75,0.27c6.03,1.51,9.92,1.57,15.26-0.22l0.34-0.17
		c0.71,1.42,1.39,2.86,1.86,4.35c1.25,4-0.49,12.25,6.45,13.69l-0.08,0.39c1.32,3.71,2.87,7.8,2.87,7.8l0.32,0.15
		c-2.96,6.41-5.51,12.66-7.71,18.64h-0.01c-4.8,13.05-7.95,24.8-9.95,34.05l-0.03-0.01c0,0-3-9.29-7.31-24.48
		c-4.32-15.19-5.73-38.26-7.94-44.22c-2.21-5.96-3.2-10.05-3.2-13.8s3.5-3.66,5.29-7l0.79-0.08c0.58,1.59,1,3.26,1.42,5.34
		c0.41,2.08,0.97,5.07,0.97,5.07L114.29,158.27z"/>
	<path fill="#EAD2C3" d="M139.61,143.07l-0.04,0.03c-10.6,2.85-12,5.82-12,7.19h-0.05c-0.16-1.64-0.69-3.66-1.27-5.42
		c0.09-0.16,0.2-0.37,0.32-0.65c0.42-0.97,0.83-2.31,0.83-2.31s0.94-0.49,2.07-0.24c0.74,0.17,1.56,1.29,2.27,0.88
		c1.79-1.05,1.69-3.75,0.67-4.92l0.31-0.35C133.81,137.96,137.08,140.13,139.61,143.07z"/>
	<path fill="#D67F58" d="M134.35,203.17l0.55,0.21c-4.83,20-6.5,30.5-7.83,46.58c-0.08,1.46-0.15,3-0.2,4.63l0.06,0.16
		c-1.77,0.66-3.49,1.39-4.73,2.09c-0.24,0.14-0.49,0.27-0.74,0.39l-0.14-0.27c0.1-2.64,0.91-9.72,3.07-19.74
		c2-9.25,5.15-21,9.95-34.05H134.35z"/>
	<path fill="#EAD2C3" d="M110.93,122.19l14.14-8.64c0,0,1.75,3,1.75,4.25s0.17,2.33,0.17,2.33s0.06,0.01,0.16,0.05
		c0.47,0.13,1.84,0.63,2.25,1.87c0.67,2.5-0.75,4.58-0.75,4.58l-10.62,6.04l12.38-1.79c0,0,2.66,0.84,2.5,3.5
		c-0.09,1.4-2.54,2.35-5.15,3.65c-2.37,1.18-4.07,1.78-4.07,1.78s1.42,1.91,2.21,4.07c0.12,0.32,0.23,0.65,0.35,0.99
		c0.58,1.76,1.11,3.78,1.27,5.42c0.03,0.23,0.04,0.46,0.05,0.67c0.55,2.45,1.86,4.79,3.07,7.19l-0.34,0.17
		c-5.34,1.79-9.23,1.73-15.26,0.22c-0.26-0.09-0.52-0.18-0.75-0.27l0.09-0.23c0,0-0.56-2.99-0.97-5.07
		c-0.42-2.08-0.84-3.75-1.42-5.34l-0.79,0.08c-2.79-8.66-6.71-22.12-5.79-27.33c3.16-5.25,11.5-14.5,11.5-14.5s3.49,1.67,2.16,5.67
		C117.78,115.42,111.33,121.8,110.93,122.19z"/>
	<path fill="#EAD2C3" d="M70.24,296.22c0.01,0.021,0.02,0.04,0.03,0.061c0.22,0.51,0.39,0.85,0.39,0.85s-4.68-0.939-6.8-1.79
		c-1.21-0.51-1.81-1.01-2.17-1.85c-0.15-0.33-0.27-0.721-0.37-1.19c-1.31,0.061-2.91-0.84-3.41-3.17c0,0-2.88-0.54-2.63-4.04
		c0,0-0.36-0.51-0.8-1.31c-1.03-1.83-2.52-5.16-1.24-7.19c0.08-0.13,0.83-1.21,0.83-1.21s-1.75-1.42-1.83-3.17
		c-0.08-1.75,0.96-2.37,0.96-2.37s4.21-0.29,8.2-1.38c0,0,1.5-2.41,6.67-0.91c5.17,1.5,13.21,1.91,13.21,1.91l0.67,0.88
		c0,0,2.12-0.13,4.12,5.87c1.42,4.26,2.34,9.4,2.57,13.55h-0.03c-1.91,2.26-6.15,3.42-6.95,3.63c0,0,0,0-0.01,0
		c-1.06-0.3-1.75-0.93-1.75-0.93s-0.45-1.22-1.63-2.32c-0.62-0.58-1.46-1.13-2.54-1.43c-1.43-0.4-3.13-0.65-4.74,0.41
		c-0.6,0.39-0.71,1.41-1.56,2.59C68.82,292.55,69.69,294.91,70.24,296.22z"/>
	<path fill="#352C27" d="M83.32,510.21c0,0-0.42,3.89-3.86,4s-4.7-3.09-4.7-3.09S52.91,316.9,52,299.11
		c-0.36-7.08,0.62-11.641,2.3-15.12l0.18-0.21c0.44,0.8,0.8,1.31,0.8,1.31c-0.25,3.5,2.63,4.04,2.63,4.04
		c0.5,2.33,2.1,3.23,3.41,3.17c0.1,0.47,0.22,0.86,0.37,1.19l-0.14,0.06c-0.97,4.46-0.42,9.49-0.15,14.22
		C61.86,315.52,83.32,510.21,83.32,510.21z"/>
	<path fill="#352C27" d="M78.2,290.21c2,2.5,4,7.25,4,13.25c-1.88,3.75-8.13,3.46-9.88,0.34c-0.33-4.24-1.56-6.689-2.05-7.52
		c-0.01-0.021-0.02-0.04-0.03-0.061c-0.55-1.31-1.42-3.67-0.81-4.51c0.85-1.18,0.96-2.2,1.56-2.59c1.61-1.061,3.31-0.811,4.74-0.41
		c1.08,0.3,1.92,0.85,2.54,1.43L78.2,290.21z"/>
</g>
<g>
	<path fill="none" stroke="#000000" stroke-width="3" stroke-linecap="round" stroke-linejoin="round" stroke-miterlimit="10" d="
		M127.552,150.881c0.854,3.917,3.677,7.555,4.948,11.619s-0.808,12.204,6.483,13.472c7.29,1.267,11.309-8.745,14.662-14.133
		c6.581-3.901,11.367-12.723,12.566-24.152c0,0,5.988,1.067,7.313-4.583c1.326-5.652-4.104-6.715-4.104-6.715
		s-1.025-8.769-3.277-14.53c-2.252-5.763-2.946-10.616-9.455-8.373c-4.041,1.6-0.964,14.005-0.964,14.005l-10.645-12.148
		c-7.123-3.204-16.583-14.817-16.583-14.817c-17.261,32.064-38.049,21.076-44.039,16.725c-18.583-13.497-0.072-54.377,16.857-62.253
		c11.152-4.505,28.185,9.141,28.185,9.141c4.5-4.637,13.393-6.53,18.446-6.083S168,50,171.932,67.604
		c2.422,10.872,2.413,16.994,2.837,24.853c0.422,7.857-0.918,16.573-5.513,29.217"/>
	<path fill="none" stroke="#000000" stroke-width="3" stroke-linecap="round" stroke-linejoin="round" stroke-miterlimit="10" d="
		M124.361,237.211c0,0-3-9.292-7.313-24.479s-5.727-38.267-7.936-44.227s-3.207-10.041-3.207-13.791s3.5-3.666,5.291-7
		c-2.791-8.666-6.708-22.125-5.791-27.333c3.166-5.25,11.5-14.5,11.5-14.5s3.499,1.666,2.166,5.666s-8.166,10.667-8.166,10.667
		l14.166-8.667c0,0,1.75,3.001,1.75,4.251s0.166,2.334,0.166,2.334s1.917,0.416,2.416,1.916c0.667,2.5-0.75,4.584-0.75,4.584
		l-10.625,6.041l12.377-1.793c0,0,2.667,0.835,2.5,3.501c-0.088,1.397-2.531,2.351-5.145,3.647
		c-2.371,1.178-4.074,1.779-4.074,1.779s1.422,1.911,2.217,4.076s1.584,5.037,1.668,7.08"/>
	<path fill="none" stroke="#000000" stroke-width="1.5" stroke-linecap="round" stroke-linejoin="round" stroke-miterlimit="10" d="
		M128.497,90.525c0,0-25.713,21.425-37.29,5.651c-11.576-15.772,5.431-27.673,9.095-25.287c3.665,2.387,4.495,8.656-2.904,10.593"/>
	<path fill="none" stroke="#000000" stroke-width="1.5" stroke-linecap="round" stroke-linejoin="round" stroke-miterlimit="10" d="
		M165.585,136.974c0,0-3.924-2.724-2.84-6.588c1.084-3.866,5.257-3.674,5.998-3.293"/>
	<path fill="none" stroke="#000000" stroke-width="1.5" stroke-linecap="round" stroke-linejoin="round" stroke-miterlimit="10" d="
		M162.983,128.973c0,0-1.751-3.597,0.05-4.846c0,0,1.312-4.159-1.074-11.341c-2.386-7.18-3.828-4.81-3.828-4.81"/>
	<path fill="none" stroke="#000000" stroke-width="1.5" stroke-linecap="round" stroke-linejoin="round" stroke-miterlimit="10" d="
		M118.762,105.747c0,0,10.142,4.716,13.976,1.967"/>
	<path fill="none" stroke="#000000" stroke-width="1.5" stroke-linecap="round" stroke-linejoin="round" stroke-miterlimit="10" d="
		M113.57,128.215c5.916-3.916,10.667-6.667,13.835-8.167"/>
	<path fill="none" stroke="#000000" stroke-width="1.5" stroke-linecap="round" stroke-linejoin="round" stroke-miterlimit="10" d="
		M127.009,118.152c0,0,4.188-1.271,6.188-1.104"/>
	<path fill="none" stroke="#000000" stroke-linecap="round" stroke-linejoin="round" stroke-miterlimit="10" d="M141.031,114.933
		c0,0-3.113,0.298-4.301,1.775c0,0,3.677-1.131,5.657,0.887"/>
	<path fill="none" stroke="#000000" stroke-width="1.5" stroke-linecap="round" stroke-linejoin="round" stroke-miterlimit="10" d="
		M133.404,129.132c0,0-3.29-1.457-4.333-2.5"/>
	<path fill="none" stroke="#000000" stroke-width="1.5" stroke-linecap="round" stroke-linejoin="round" stroke-miterlimit="10" d="
		M125.892,145.326c0,0,0.264-0.145,0.68-1.11s0.833-2.301,0.833-2.301s0.932-0.494,2.064-0.241c0.738,0.165,1.562,1.287,2.27,0.875
		c1.792-1.045,1.694-3.748,0.667-4.917"/>
	<path fill="none" stroke="#000000" stroke-width="1.5" stroke-linecap="round" stroke-linejoin="round" stroke-miterlimit="10" d="
		M125.072,143.642c0,0-0.851-3.178-3.375-3.878c0,0,1.532-0.579,2.957-1.134"/>
	<path fill="none" stroke="#000000" stroke-width="1.5" stroke-linecap="round" stroke-linejoin="round" stroke-miterlimit="10" d="
		M132.353,137.047c0,0,8.552,5,10.219,11.166"/>
	<path fill="none" stroke="#000000" stroke-width="1.5" stroke-linecap="round" stroke-linejoin="round" stroke-miterlimit="10" d="
		M127.745,151.069c0,0-2.59-4.087,11.826-7.97"/>
	<path fill="none" stroke="#000000" stroke-width="1.5" stroke-linecap="round" stroke-linejoin="round" stroke-miterlimit="10" d="
		M125.716,156.716c0,0,1.467-1.633,1.189-5.501"/>
	<path fill="none" stroke="#000000" stroke-width="1.5" stroke-linecap="round" stroke-linejoin="round" stroke-miterlimit="10" d="
		M130.302,158.32c-5.337,1.788-9.229,1.729-15.266,0.225c-5.302-1.833-5.527-3.893-5.527-3.893"/>
	<path fill="none" stroke="#000000" stroke-width="1.5" stroke-linecap="round" stroke-linejoin="round" stroke-miterlimit="10" d="
		M111.987,147.63c0.585,1.585,0.999,3.255,1.418,5.337s0.979,5.077,0.979,5.077"/>
	<path fill="none" stroke="#000000" stroke-width="1.5" stroke-linecap="round" stroke-linejoin="round" stroke-miterlimit="10" d="
		M108.596,165.079c0,0,3.426,4.851,7.701,8.438"/>
	<path fill="none" stroke="#000000" stroke-width="3" stroke-linecap="round" stroke-linejoin="round" stroke-miterlimit="10" d="
		M121.321,256.965c0.247-6.586,4.915-40.919,24-79.25c0,0,14-17,25-19c0,0,7-1.25,9.5,0.5"/>
	<path fill="none" stroke="#000000" stroke-width="3" stroke-linecap="round" stroke-linejoin="round" stroke-miterlimit="10" d="
		M182.237,183.381c0.665,22.667-7.999,76-17.999,89.332c-5.67,8.998-16.669,11.5-23.336,12.832
		c-6.667,1.334-27.086,4.586-35.919,7.418c-8.833,2.83-16.453,4.957-17.537,4.543c-1.084-0.416-2.708-1.457-3.958-4.041
		c-2.025,0.416-3.584-1-3.584-1s-1.061-2.883-4.171-3.75c-1.433-0.4-3.138-0.658-4.743,0.4c-0.601,0.398-0.71,1.414-1.563,2.6
		c-0.854,1.188,1.229,5.416,1.229,5.416s-4.675-0.941-6.792-1.793c-1.699-0.717-2.185-1.395-2.542-3.041
		c-1.312,0.062-2.911-0.838-3.414-3.168c0,0-2.878-0.539-2.628-4.039c0,0-3.877-5.586-2.042-8.5
		c0.085-0.125,0.834-1.209,0.834-1.209s-1.75-1.416-1.833-3.166s0.958-2.375,0.958-2.375s4.209-0.291,8.208-1.375
		c0,0,1.5-2.418,6.667-0.918c5.164,1.5,13.21,1.918,13.208,1.918c0,0-0.791-3.334,1.042-4c1.833-0.668,2.917-1.584,17.417-3.418
		c14.5-1.832,18.625-3.041,22.458-5.207c3.833-2.167,12.375-4.625,12.375-4.625s-1.5-10.5,2.375-22.375
		c1.834-14.333,4.125-41.125,17.125-54.125"/>
	<path fill="none" stroke="#000000" stroke-width="3" stroke-linecap="round" stroke-linejoin="round" stroke-miterlimit="10" d="
		M170.572,138.049c0,0,1.999,14,11.333,23s28.333,71.664,36.333,121.664c8,50,14,93.668,12.667,97.668s-4.667,7.332-4.667,7.332
		s0.668,13.334,3.334,21.334s2.666,9,2.666,9s-16,7.334-43.333,9.334s-60.667-1.334-72.667-6c0,0,5.334-19.334,5.334-60.668
		c0-41.332-1.334-71.002-1.334-71.002"/>
	<path fill="none" stroke="#000000" stroke-width="3" stroke-linecap="round" stroke-linejoin="round" stroke-miterlimit="10" d="
		M141.739,184.381c0,0-1.545-4.087-2.867-7.806"/>
	<path fill="none" stroke="#000000" stroke-width="1.5" stroke-linecap="round" stroke-linejoin="round" stroke-miterlimit="10" d="
		M134.903,203.378c-4.833,20-6.5,30.5-7.832,46.586c-0.08,1.453-0.148,3-0.206,4.63"/>
	<path fill="none" stroke="#000000" stroke-width="1.5" stroke-linecap="round" stroke-linejoin="round" stroke-miterlimit="10" d="
		M81.946,270.34c0,0,2.125-0.125,4.125,5.875s3,13.75,2.5,18"/>
	<path fill="none" stroke="#000000" stroke-width="1.5" stroke-linecap="round" stroke-linejoin="round" stroke-miterlimit="10" d="
		M81.53,293.424c0,0,4.959-1.166,7.084-3.666"/>
	<path fill="none" stroke="#000000" stroke-width="1.5" stroke-linecap="round" stroke-linejoin="round" stroke-miterlimit="10" d="
		M70.032,288.924c0.5-1.084,0.375-2.375,0.031-3.043c0,0,1.474,1.334,3.533,1.668"/>
	<path fill="none" stroke="#000000" stroke-width="1.5" stroke-linecap="round" stroke-linejoin="round" stroke-miterlimit="10" d="
		M66.907,292.84c0,0,1.156-0.344,1.75-1.291"/>
	<path fill="none" stroke="#000000" stroke-width="1.5" stroke-linecap="round" stroke-linejoin="round" stroke-miterlimit="10" d="
		M61.907,292.211c0,0,0.129-1.037,0.104-1.58c1.061-3.582,3.229-9.625,4.062-10.791"/>
	<path fill="none" stroke="#000000" stroke-width="1.5" stroke-linecap="round" stroke-linejoin="round" stroke-miterlimit="10" d="
		M58.404,288.576c0,0,1.667-4.527,5.104-12.049"/>
	<path fill="none" stroke="#000000" stroke-width="1.5" stroke-linecap="round" stroke-linejoin="round" stroke-miterlimit="10" d="
		M56.155,284.465c0.167-1,2.416-4.916,5.418-11.25"/>
	<path fill="none" stroke="#000000" stroke-width="1.5" stroke-linecap="round" stroke-linejoin="round" stroke-miterlimit="10" d="
		M54.616,276.008c0,0,4.624-4.123,8.374-7.957"/>
	<path fill="none" stroke="#000000" stroke-width="3" stroke-linecap="round" stroke-linejoin="round" stroke-miterlimit="10" d="
		M70.071,295.965c0,0,1.833,2.5,2.25,7.834c1.75,3.125,8,3.416,9.875-0.334c0-6-2-10.75-4-13.25"/>
	<path fill="none" stroke="#000000" stroke-width="3" stroke-linecap="round" stroke-linejoin="round" stroke-miterlimit="10" d="
		M54.298,283.988c-1.683,3.48-2.662,8.039-2.299,15.123c0.914,17.793,22.76,212.008,22.76,212.008s1.259,3.201,4.702,3.092
		s3.855-4,3.855-4S61.857,315.523,61.404,307.768c-0.277-4.727-0.826-9.762,0.146-14.219"/>
	<path fill="none" stroke="#000000" stroke-width="1.5" stroke-linecap="round" stroke-linejoin="round" stroke-miterlimit="10" d="
		M134.571,252.214c0,0,8.5,2.5,10.5,8.5"/>
	<path fill="none" stroke="#000000" stroke-width="1.5" stroke-linecap="round" stroke-linejoin="round" stroke-miterlimit="10" d="
		M126.872,287.84c0.332,13.195,1,27.17,1.949,39.625c2,26.25,3.75,52.5,3.75,53.25s0.75,5.5,7.5,6.25
		c3.146,0.35,16.335,3.373,32.028,3.75c17.983,0.43,41.255-2.898,54.472-4.5"/>
	<path fill="none" stroke="#000000" stroke-width="3" stroke-linecap="round" stroke-linejoin="round" stroke-miterlimit="10" d="
		M157.333,428.001c0,0,16.739,61.88,11.406,65.214c-9.414,6.414-20.666,4.5-24.5,12.832c-3.834,8.334,1.332,11.168,1.332,11.168
		s17.332,2.496,22.001-2.002c2-5.498,6-9.5,10.667-7.832l0.666,5.666c0,0,4.833,1.168,7.5-3.166c0,0-0.501-4.168-0.501-8.834
		s-3.665-9.332-3.665-9.332s-0.931-45.739-1.931-63.739"/>
	<path fill="none" stroke="#000000" stroke-width="1.5" stroke-linecap="round" stroke-linejoin="round" stroke-miterlimit="10" d="
		M169.334,492.715c0,0,9.167,3.284,13.167-0.882"/>
	<path fill="none" stroke="#000000" stroke-width="3" stroke-linecap="round" stroke-linejoin="round" stroke-miterlimit="10" d="
		M181.432,440.318c0,0,30.235,36.015,28.397,42.398c-4.437,10.369-16.008,7.248-18.333,16.861c0.825,6.637,4.827,9.135,4.827,9.135
		s17.705,0.768,23.227-6.99c0.271-4.008,1.358-7.219,3.176-9.162s2.789-1.367,5.478,0.775c2.665-0.795,4.825-4.232,4.825-4.232
		s-3.089-9.441-7.344-11.271c-4.255-1.828-8.07-11.48-16.382-26.863c-8.312-15.385-12.469-24.004-12.469-24.004"/>
	<path fill="none" stroke="#000000" stroke-width="1.5" stroke-linecap="round" stroke-linejoin="round" stroke-miterlimit="10" d="
		M210.167,481.333c0,0,9.239,1.003,11.944-7.056"/>
</g>
</svg>
