<?xml version="1.0" encoding="utf-8"?>
<!-- Generator: Adobe Illustrator 16.0.0, SVG Export Plug-In . SVG Version: 6.00 Build 0)  -->
<!DOCTYPE svg PUBLIC "-//W3C//DTD SVG 1.1//EN" "http://www.w3.org/Graphics/SVG/1.1/DTD/svg11.dtd">
<svg version="1.1" id="Layer_1" xmlns="http://www.w3.org/2000/svg" xmlns:xlink="http://www.w3.org/1999/xlink" x="0px" y="0px"
	 width="406.936px" height="464.387px" viewBox="0 0 406.936 464.387" enable-background="new 0 0 406.936 464.387"
	 xml:space="preserve">
<g id="colour">
	<path d="M364.45,396.467c0,0-1.78,3.85-4.431,5.04c-3.079-1.86-4.159-2.32-5.779-0.061c-1.62,2.261-2.32,5.73-2.05,9.931
		c-2.5,4.689-8.921,7.34-14.36,8.779l-13.29,0.011c0,0-1-3.5-1-8.5s6.77-8.101,6.77-8.101c3.83-2.43,7.521-4.54,9.221-10.58
		c0.2-0.56,0.14-1.27-0.15-2.1c1.33-0.03,9.72-0.54,11.29-8.57l0.1-0.09c1.711,1.91,3.23,3.18,4.53,3.55
		C359.96,387.097,364.45,396.467,364.45,396.467z"/>
	<path fill="#59253C" d="M219.35,294.637c-9.409-2.57-18.1-9.22-18.1-9.22l-2.83-0.311c1.23-0.09,1.89-0.1,1.89-0.1s0,0-1.18-3.73
		c-1.17-3.739,6.66-16.22,6.66-16.22c2.36-6.39,9.02-20.16,9.02-20.16l10.33-26.63c0,0-6.38-24.979-8.699-47.85h-0.021
		c-2.4-5.09-3.939-9.57-4.46-12.45c-0.54-2.95-1.03-5.51-1.43-7.78c-1.721-9.59-1.95-14.15,2.109-22.22c0,0,4.36-6.51,7.261-7.45
		l0.04-0.37c0.25,0.03,0.51,0.06,0.76,0.08c12.8-2.04,74.5,19.27,108.17,64.61c33.67,45.33,31.67,103.62,30.33,107.62
		c-0.75,2.25-2.13,4.29-3.2,5.64l-1.13,0.19c-13.22,1.6-36.49,4.93-54.47,4.5c-15.7-0.37-33.891-3.4-37.03-3.75
		c-6.75-0.75-7.271-5.53-7.5-6.25c-3.34-18.74-0.88-43.45-0.03-54.931c-0.399,1.17-0.83,2.261-1.3,3.28
		c-2.9,6.28-5.53,11.41-7.89,15.7c-6.03,10.99-10.271,16.5-12.761,21.78c-7.819,14.619-7.47,13.93-8.96,16.01
		c-1.02,1.45-3.939,1.2-5.819,0.859L219.35,294.637z"/>
	<path fill="#D67F58" d="M357.87,321.127c2.67,8-3.33,9-3.33,9s-12.5,5.72-34.271,8.439c-2.859,0.351-5.89,0.66-9.069,0.891
		c-2.84,0.21-5.67,0.41-8.47,0.609c-7.62,0.521-15.051,0.98-21.98,1.21c-15.08,0.521-27.84,0.051-35.21-2.819
		c0,0-1.16-8.551-1.46-40.051c-0.2-21.5,2.71-41.489,2.71-41.489l-0.14-0.08c2.359-4.29,4.989-9.42,7.89-15.7
		c0.47-1.02,0.9-2.11,1.3-3.28c-0.85,11.48-3.31,36.19,0.03,54.931c0.229,0.72,0.75,5.5,7.5,6.25c3.14,0.35,21.33,3.38,37.03,3.75
		c17.979,0.43,41.25-2.9,54.47-4.5l1.13-0.19c-0.82,1.05-1.46,1.69-1.46,1.69S355.2,313.127,357.87,321.127z"/>
	<path fill="#6D6058" d="M350.77,382.227l-0.1,0.09c-1.57,8.03-9.96,8.54-11.29,8.57c-1.91-5.57-13.979-16.7-24.08-26.79
		l-10.35-9.51l-0.12,0.02c-0.72-5.489-1.44-10.529-2.1-14.47v-0.07c2.8-0.199,5.63-0.399,8.47-0.609
		c3.18-0.23,6.21-0.54,9.069-0.891l0.021,0.181c0,0,5.82,8.069,14.37,20.47C340.82,368.156,346.4,377.307,350.77,382.227z"/>
	<path d="M315.21,410.997c0.54,4.85,1.54,9.12,1.54,9.12c-2.28,4.81-7.44,4.149-7.44,4.149l-3.06-4.96c-5.04-1.2-7.2,1.58-8.65,7.53
		c-4.33,5.2-23.55,1.569-23.55,1.569s-5.52-1.369-2.49-10.47c3.03-9.1,15.87-5.37,24.921-13.12c0.17-0.13,0.31-0.319,0.42-0.569
		l0.21,0.09c0,0,9.409,2.439,13.09-2.351l0.189-0.22C310.87,402.276,314.71,406.446,315.21,410.997z"/>
	<path fill="#6D6058" d="M310.39,401.767l-0.189,0.22c-3.681,4.79-13.09,2.351-13.09,2.351l-0.21-0.09
		c3.399-7.271-16.131-62.32-16.131-62.32l-0.02-0.65c6.93-0.229,14.36-0.689,21.98-1.21v0.07c0.659,3.94,1.38,8.98,2.1,14.47
		c2.71,20.42,5.51,47.11,5.51,47.11S310.36,401.736,310.39,401.767z"/>
	<path fill="#EAD2C3" d="M172.4,128.307l-0.011,0.28c-2.96,8.1-6.92,11.25-9.859,12.97c-1.46-0.14-2.011-1.15-2.67-2.04
		c-0.4-0.54-1.48-1.24-1.48-1.24c-6.13,1.3-8.85-1.82-8.85-1.82c-0.11-1.8-2.3-9.24-2.3-9.24l-2.5-5.16c0,0,0.039-5.47-1.351-10.06
		c-1.39-4.59-5.58-7.01-5.58-7.01l-0.99-0.21c5.99-3.68,11.73-10.94,15.61-24.31c0,0,11.3,7.9,18.91,9.66l12.42,13.05
		c-0.2-0.57-4.74-13.16-1.16-15.46c5.95-3.46,7.57,1.16,10.9,6.38c2.7,4.23,5.18,10.16,6.01,12.24l-0.04,0.01
		c1.61,5.96,11.44,12.75,20.48,13.8l-0.04,0.37c-2.9,0.94-7.261,7.45-7.261,7.45c-4.06,8.07-3.83,12.63-2.109,22.22l-0.721,0.13
		c-14.14-14.88-17.199-4.91-17.199-4.91c-2.25,5.94-1.99,13.54-9.391,13.71c-7.39,0.17-8.14-5.96-12.399-10.09
		c-2.4-1.48-3.261-2.43-3.53-3.98l0.57-0.07c7.31-8.43,5.05-16.04,4.85-16.66C172.6,128.317,172.5,128.317,172.4,128.307z
		 M154.53,112.687c3.7-1.48,6.27-5.6,6.27-5.6c-3.35-1.39-7.02,0.32-9.149,1.67l0.1,0.16c0.68,2.83,2.76,3.71,2.76,3.71
		L154.53,112.687z M197.09,120.187c1.68,0.4,5.43-1.11,5.15-4.99c-0.28-3.89-2.91-5.18-4.641-5.22c-1.729-0.05-4.649,0.66-4.96,4.66
		C192.33,118.637,195.41,119.787,197.09,120.187z"/>
	<path fill="#EAD2C3" d="M188.95,317.406c-1.09,0.091-2.84,0.141-3.91-0.369c-1.65-0.771-2.69-1.431-2.69-1.431
		s-1.689-0.569-2.439-1.439c-0.74-0.87-1.061-2.061-1.061-2.061l-5.18,2.04c0,0-2.229-0.569-2.81-1.68s0.319-2.48,1.25-3.6
		c0.939-1.11,5.659-3.431,5.659-3.431c10.521-7.17,10.881-10.91,10.881-10.91s-2.32,1.181-6.771,1.061
		c-4.61-1.25-3.79-4.62-3.79-4.62s7.07-3.93,12.93-4.92c3.301-0.561,5.82-0.82,7.4-0.94l2.83,0.311c0,0,8.69,6.649,18.1,9.22
		l-0.239,0.85c-0.99-0.18-1.69-0.38-1.69-0.38c-5.53,10.75-8.1,13.271-11.84,16.851c-6.1,5.6-8.85,6.479-10.98,6.649
		c-2.14,0.16-4.689-1.319-4.689-1.319S189.52,317.347,188.95,317.406z"/>
	<path fill="#FFD836" d="M202.24,115.197c0.279,3.88-3.471,5.39-5.15,4.99c-1.68-0.4-4.76-1.55-4.45-5.55
		c0.311-4,3.23-4.71,4.96-4.66C199.33,110.017,201.96,111.307,202.24,115.197z"/>
	<path fill="#DDE3F2" d="M152.42,80.467c-3.88,13.37-9.62,20.63-15.61,24.31c-9.76,6.01-20.19,2.57-24.35,0.65
		c-20.85-9.64-10.62-53.33,4.46-64.35c10.06-6.58,27.42,3.9,27.42,3.9c3.19-7.65,11.07-11.32,14.88-12.64
		c3.82-1.32,22.94-3.27,31.36,17.22c4.479,10.2,5.85,13.89,7.6,23.83c1.69,9.56-0.229,28.18,1.41,33.17
		c-0.03-0.07-0.06-0.14-0.09-0.22c-0.83-2.08-3.31-8.01-6.01-12.24c-3.33-5.22-4.95-9.84-10.9-6.38c-3.58,2.3,0.96,14.89,1.16,15.46
		l-12.42-13.05C163.72,88.367,152.42,80.467,152.42,80.467z"/>
	<path fill="#FFFFFF" d="M172.71,128.317c0.2,0.62,2.46,8.23-4.85,16.66l-0.57,0.07c-0.021-0.1-0.04-0.21-0.05-0.32
		c-1.44-1.58-3.88-3.19-3.88-3.19c-0.311,0.03-0.58,0.04-0.83,0.02c2.939-1.72,6.899-4.87,9.859-12.97l0.011-0.28
		C172.5,128.317,172.6,128.317,172.71,128.317z"/>
	<path fill="#FFFFFF" d="M160.8,107.087c0,0-2.569,4.12-6.27,5.6l-0.021-0.06c0,0-2.08-0.88-2.76-3.71l-0.1-0.16
		C153.78,107.407,157.45,105.697,160.8,107.087z M155.69,111.517c0.619-0.71-0.62-1.92-1.16-1.58
		C153.79,110.396,155.08,112.237,155.69,111.517z"/>
	<path d="M154.53,109.937c0.54-0.34,1.779,0.87,1.16,1.58C155.08,112.237,153.79,110.396,154.53,109.937z"/>
	<path fill="#C1B3B0" d="M146.66,388.917c0.38,5.12-2.87,4.5-5,3.62c-2.12-0.87-3.87-5.75-4-6.37c-0.12-0.63-2.25-1.5-3.37-2.38
		c-1.13-0.87-4.5-0.62-8.13,0.75c-3.62,1.38-8.29,1.5-8.29,1.5s-0.01,0.01-0.03,0.029l-0.55-0.529c0,0,3.79-4.29,7.25-15.25h0.75
		c0,0,6.75,2.13,7.75,2.75c1,0.63,6.25,3.63,8.5,6C143.79,381.417,146.29,383.787,146.66,388.917z"/>
	<path fill="#C1B3B0" d="M110.6,326.727c0,0-1.06-2.37-1.94-3.81l0.6-0.38c0.02,0.029,0.03,0.04,0.03,0.04l2.08-3.58
		c0,0,1.6,0.609,2.1,1.479c0.5,0.88,0.25,5,0.25,5s6.44-0.37,8.82,2.38c2.37,2.75,8.37,5.181,8.37,5.181s1,1.63,1,3.63
		s-0.87,3.5-0.87,3.5c-0.75,4.12-6.27,5.89-6.27,5.89s-4.11,2.98-3.86,4.36c0.25,1.37,2.5,4.75,2.5,4.75s1.13,2.5,1.75,6.16
		c0.75,5.5,0.13,8.96,0.13,8.96h-0.75c-3.46,10.96-7.25,15.25-7.25,15.25l0.55,0.529c-0.24,0.33-2.29,2.99-3.93,5.101
		c-1.75,2.25-3,4.12-3.12,5.37c-0.13,1.25,0.58,6.5,0.58,6.5s2.17,14.13,2.67,17c0.5,2.88,2.12,2.88,3,6.13
		c0.87,3.25,0.5,4.12-4.75,4.62s-6.25-1.75-6.25-1.75s-0.75-4-2.63-12.87c-1.23-5.83-3.1-12.351-4.25-16.15
		c-0.6-1.99-1-3.229-1-3.229c-3.5,3.5-17.12,6.75-17.12,6.75s-2.25,3.88-5.5,5.75c-0.61,0.35-1.35,0.92-2.16,1.609
		c-3.51,2.99-8.22,8.271-8.22,8.271l1.13,4.75c0,0,2.87,1.12,3,3.25c0.12,2.12-2.5,3.12-2.5,3.12c-6,0.38-8.5-1-8.5-1
		s-1.88-5.37-2.5-9.12c-0.63-3.75,0.87-7.25,2-10.25c1.12-3,1.62-6.88,0.5-10.63c-1.13-3.75-2.13-7.5-1.13-10.75
		c0.28-0.92,0.82-2.25,1.48-3.74c1.49-3.351,3.61-7.53,4.9-9.79c0.18-0.32,0.35-0.601,0.5-0.84c1.62-2.63,4.75-3.5,4.75-3.5
		c9.87-5.38,13.5-7.63,13.5-7.63c4.12-4.12,12-8,12-8c0.25-3.12,2.87-7.5,2.87-7.5s2.08-3.9,2.28-6.03
		c0.07-0.78,0.01-1.09-0.45-3.021c-0.01-0.02-0.01-0.04-0.01-0.069c-0.43-1.931,0.58-5.521,0.89-6.58
		c0.62-2.12,1.16-4.521,1.79-6.891l0.63,0.16c0.5,6.12,4,10.311,4,10.311s0.83-3.59,2.25-5.84c1.41-2.25,1.83-2.5,1.83-2.5
		L110.6,326.727z M118.47,332.867c1.9,1.479,4.65,1.05,4.65,1.05c-0.33-2-2.25-3.44-2.25-3.44
		C119.74,331.037,118.47,332.867,118.47,332.867z"/>
	<path fill="#FFD836" d="M123.12,333.917c0,0-2.75,0.43-4.65-1.05c0,0,1.27-1.83,2.4-2.391
		C120.87,330.477,122.79,331.917,123.12,333.917z"/>
	<path fill="#8C635E" d="M110.6,326.727l-0.23,0.351c0,0-0.42,0.25-1.83,2.5c-1.42,2.25-2.25,5.84-2.25,5.84s-3.5-4.19-4-10.311
		l-0.63-0.16c0.12-0.47,0.25-0.939,0.38-1.409c1.12-4,3.5-5.25,4.12-5c0.59,0.229,2.82,3.58,3.1,4l-0.6,0.38
		C109.54,324.356,110.6,326.727,110.6,326.727z"/>
	<path fill="#C1B3B0" d="M99.16,400.017l-0.87,0.15c-0.5,1.62-5.75,10.25-7,12.37c-1.25,2.13-7.75,5.5-7.75,5.5s5.62,3.5,6.62,4
		s3.5-0.37,4.25-0.12s2.38,2,3.13,2.87c0.75,0.88,1.25,3.88-0.13,4.25c-1.37,0.38-8.12,0.38-8.12,0.38s-0.13,0.62-9.75-4
		c-9.63-4.63-8.5-7.13-8.5-7.13l4.37-5.12l-1.12-2l-0.91-0.271c0.81-0.689,1.55-1.26,2.16-1.609c3.25-1.87,5.5-5.75,5.5-5.75
		s13.62-3.25,17.12-6.75C98.16,396.787,98.56,398.026,99.16,400.017z"/>
	<path fill="#C1B3B0" d="M63.16,374.787l0.38,0.22c-1.29,2.26-3.41,6.439-4.9,9.79l-0.48-0.13c0,0-1-3-3.5-9.25
		s-6.37-10.13-9.75-13.88c-3.37-3.75-6-7.74-6.12-13.12c-0.13-5.37,2.96-14.71,11.46-14.21s6.29,4.46,5.91,5.21
		c-0.37,0.75-6.21-1.25-8.75,4.25s-0.12,8.62,5.13,14.62S62.04,367.287,63.16,374.787z"/>
</g>
<g>
	<path fill="none" stroke="#000000" stroke-width="3" stroke-linecap="round" stroke-linejoin="round" stroke-miterlimit="10" d="
		M193.486,94.093c-3.326-5.215-4.95-9.841-10.9-6.377c-3.654,2.353,1.178,15.479,1.178,15.479l-12.438-13.068
		c-7.61-1.762-18.909-9.655-18.909-9.655c-10.19,35.12-33.237,28.056-39.958,24.952c-20.85-9.636-10.621-53.33,4.457-64.342
		c10.068-6.583,27.421,3.895,27.421,3.895c3.194-7.65,11.077-11.323,14.888-12.643c3.811-1.318,22.934-3.266,31.354,17.225
		c4.484,10.195,5.852,13.887,7.604,23.83c1.754,9.943-0.395,29.668,1.621,33.699C199.803,107.087,196.814,99.31,193.486,94.093z"/>
	<path fill="none" stroke="#000000" stroke-width="1.5" stroke-linecap="round" stroke-linejoin="round" stroke-miterlimit="10" d="
		M152.417,80.471c0,0-21.069,26.007-35.485,12.779c-14.418-13.228-0.042-28.2,4.016-26.571c4.059,1.63,6.089,7.62-0.795,10.955"/>
	<path fill="none" stroke="#000000" stroke-width="3" stroke-linecap="round" stroke-linejoin="round" stroke-miterlimit="10" d="
		M137.801,104.985c0,0,4.186,2.42,5.576,7.014c1.391,4.592,1.352,10.06,1.352,10.06l2.502,5.163c0,0,2.187,7.439,2.296,9.237
		c0,0,2.724,3.113,8.851,1.813c0,0,1.086,0.703,1.487,1.24c0.772,1.042,1.384,2.25,3.499,2.023c0,0,2.439,1.612,3.881,3.193
		c0.207,1.75,1.014,2.715,3.571,4.298c4.261,4.133,5.011,10.261,12.409,10.091c7.396-0.172,7.139-7.771,9.383-13.708
		c0,0,3.058-9.97,17.199,4.911"/>
	<path fill="none" stroke="#000000" stroke-width="1.5" stroke-linecap="round" stroke-linejoin="round" stroke-miterlimit="10" d="
		M196.63,128.967c0,0,2.133,7.555-4.712,16.015"/>
	<path fill="none" stroke="#000000" stroke-width="1.5" stroke-linecap="round" stroke-linejoin="round" stroke-miterlimit="10" d="
		M197.603,109.974c-1.729-0.046-4.649,0.664-4.964,4.666c-0.312,4,2.775,5.143,4.453,5.546s5.424-1.104,5.145-4.993
		S199.332,110.021,197.603,109.974z"/>
	<path fill="none" stroke="#000000" stroke-width="1.5" stroke-linecap="round" stroke-linejoin="round" stroke-miterlimit="10" d="
		M192.705,113.311c0,0-2.037-3.827,0.111-6.575c0,0-0.173-3.663-3.906-10.245c-3.732-6.58-4.038-4.648-4.038-4.648"/>
	<path fill="none" stroke="#000000" stroke-width="1.5" stroke-linecap="round" stroke-linejoin="round" stroke-miterlimit="10" d="
		M146.016,98.691c0,0,5.789-5.748,13.773-2.388"/>
	<path fill="none" stroke="#000000" stroke-width="1.5" stroke-linecap="round" stroke-linejoin="round" stroke-miterlimit="10" d="
		M149.889,104.388c0,0,2.118,3.623-0.071,5.701c0,0,5.863-5.134,10.981-3.002c0,0-3.082,4.949-7.36,5.951
		c0.472,1.002,2.458,4.615,6.813,8.293"/>
	<path fill="none" stroke="#000000" stroke-width="1.5" stroke-linecap="round" stroke-linejoin="round" stroke-miterlimit="10" d="
		M153.933,112.036c0,0-1.505-0.291-2.187-3.121"/>
	<path fill="none" stroke="#000000" stroke-width="2" stroke-linecap="round" stroke-linejoin="round" stroke-miterlimit="10" d="
		M154.53,109.935c0.538-0.333,1.775,0.871,1.163,1.587C155.084,112.236,153.787,110.395,154.53,109.935z"/>
	<path fill="none" stroke="#000000" stroke-linecap="round" stroke-linejoin="round" stroke-miterlimit="10" d="M165.031,104.878
		c0,0,2.217-3.145,5.018-2.759"/>
	<path fill="none" stroke="#000000" stroke-width="1.5" stroke-linecap="round" stroke-linejoin="round" stroke-miterlimit="10" d="
		M149.064,114.536c0,0,3.474,4.584,4.005,5.904c0.533,1.323,0.871,4.047,0.871,4.047"/>
	<path fill="none" stroke="#000000" stroke-width="1.5" stroke-linecap="round" stroke-linejoin="round" stroke-miterlimit="10" d="
		M158.604,137.477l-0.35-2.19l-0.37-2.492c0,0,2.491-1.676,5.4,0.09c0.791-2.274,0.872-4.635-0.362-5.582
		c-1.236-0.945-3.842-1.063-3.842-1.063"/>
	<path fill="none" stroke="#000000" stroke-width="1.5" stroke-linecap="round" stroke-linejoin="round" stroke-miterlimit="10" d="
		M169.053,127.258c0,0,2.779,2.284,7.834,0.126"/>
	<path fill="none" stroke="#000000" stroke-width="1.5" stroke-linecap="round" stroke-linejoin="round" stroke-miterlimit="10" d="
		M162.059,141.826c2.977-1.663,7.215-4.695,10.332-13.239"/>
	<path fill="none" stroke="#000000" stroke-width="1.5" stroke-linecap="round" stroke-linejoin="round" stroke-miterlimit="10" d="
		M172.696,128.272c0,0,2.79,7.908-4.836,16.703"/>
	<path fill="none" stroke="#000000" stroke-width="3" stroke-linecap="round" stroke-linejoin="round" stroke-miterlimit="10" d="
		M246.785,256.915c0,0-2.908,19.992-2.704,41.496c0.299,31.491,1.455,40.045,1.455,40.045c12,4.667,38.334,3,65.667,1
		s43.333-9.334,43.333-9.334s6-1,3.334-9s-3.334-21.333-3.334-21.333s3.334-3.333,4.667-7.333s3.332-62.29-30.335-107.624
		s-95.366-66.645-108.171-64.606c-9.246-0.75-19.605-7.773-21.245-13.902"/>
	<path fill="none" stroke="#000000" stroke-width="3" stroke-linecap="round" stroke-linejoin="round" stroke-miterlimit="10" d="
		M216.418,170.417c-2.395-5.094-3.939-9.565-4.463-12.453c-2.793-15.402-4.334-20.014,0.689-30.002c0,0,4.352-6.503,7.254-7.446"/>
	<path fill="none" stroke="#000000" stroke-width="3" stroke-linecap="round" stroke-linejoin="round" stroke-miterlimit="10" d="
		M222.035,134.165c-16.102,8.873,3.104,84.104,3.104,84.104l-10.333,26.624c0,0-6.652,13.774-9.012,20.165
		c0,0-7.833,12.48-6.663,16.214c1.174,3.733,1.174,3.733,1.174,3.733s-3.423,0.04-9.284,1.037s-12.935,4.924-12.935,4.924
		s-0.817,3.369,3.792,4.617c4.454,0.126,6.767-1.061,6.767-1.061s-0.351,3.741-10.872,10.911c0,0-4.721,2.32-5.66,3.436
		c-0.938,1.116-1.834,2.491-1.253,3.598c0.581,1.107,2.812,1.677,2.812,1.677l5.178-2.04c0,0,0.319,1.193,1.064,2.064
		s2.434,1.434,2.434,1.434s1.041,0.666,2.688,1.437c1.648,0.773,4.874,0.251,4.874,0.251s2.55,1.475,4.688,1.312
		c2.136-0.162,4.887-1.044,10.979-6.646c3.741-3.577,6.312-6.096,11.84-16.853c0,0,5.949,1.729,7.518-0.474
		c1.481-2.082,1.139-1.396,8.958-16.017c3.461-7.336,10.304-15.119,20.643-37.475c10.34-22.354,2.5-83.475,2.5-83.475"/>
	<path fill="none" stroke="#000000" stroke-width="1.5" stroke-linecap="round" stroke-linejoin="round" stroke-miterlimit="10" d="
		M201.253,285.412c0,0,8.792,6.731,18.258,9.269"/>
	<path fill="none" stroke="#000000" stroke-width="1.5" stroke-linecap="round" stroke-linejoin="round" stroke-miterlimit="10" d="
		M198.163,312.727c0,0-5.431,2.705-7.378,3.783c-0.485,0.27-1.211,0.612-2.026,0.974"/>
	<path fill="none" stroke="#000000" stroke-width="1.5" stroke-linecap="round" stroke-linejoin="round" stroke-miterlimit="10" d="
		M194.459,309.134c0,0-3.243,1.925-6.848,4.131c-1.447,0.886-3.366,1.613-5.145,2.168"/>
	<path fill="none" stroke="#000000" stroke-width="1.5" stroke-linecap="round" stroke-linejoin="round" stroke-miterlimit="10" d="
		M190.84,305.007c0,0-5.128,3.416-8.283,4.932c-3.156,1.52-8.441,3.812-8.441,3.812"/>
	<path fill="none" stroke="#000000" stroke-width="1.5" stroke-linecap="round" stroke-linejoin="round" stroke-miterlimit="10" d="
		M193.033,290.334c-1.731,1.832-4.033,5.134-4.033,5.134"/>
	<path fill="none" stroke="#000000" stroke-width="1.5" stroke-linecap="round" stroke-linejoin="round" stroke-miterlimit="10" d="
		M354.869,298.29c-13.217,1.602-36.488,4.93-54.472,4.5c-15.693-0.376-33.883-3.4-37.028-3.75c-6.75-0.75-7.272-5.535-7.5-6.25
		c-3.667-20.624-0.334-48.459,0.166-57.959"/>
	<path fill="none" stroke="#000000" stroke-width="1.5" stroke-linecap="round" stroke-linejoin="round" stroke-miterlimit="10" d="
		M258.202,228.166c0,0,17.333-10.666,40-7.333"/>
	<path fill="none" stroke="#000000" stroke-width="1.5" stroke-linecap="round" stroke-linejoin="round" stroke-miterlimit="10" d="
		M258.202,224.166c0,0,14.001-5.333,21.334-21.333"/>
	<path fill="none" stroke="#000000" stroke-width="3" stroke-linecap="round" stroke-linejoin="round" stroke-miterlimit="10" d="
		M280.773,341.929c0,0,20.864,58.819,15.705,62.893c-9.049,7.744-21.885,4.018-24.914,13.116
		c-3.031,9.099,2.482,10.469,2.482,10.469s19.219,3.635,23.555-1.573c1.45-5.943,3.605-8.724,8.646-7.525l3.065,4.96
		c0,0,5.155,0.66,7.432-4.148c0,0-0.998-4.275-1.532-9.124c-0.534-4.848-4.877-9.279-4.877-9.279s-4.509-42.982-7.609-61.575"/>
	<path fill="none" stroke="#000000" stroke-width="1.5" stroke-linecap="round" stroke-linejoin="round" stroke-miterlimit="10" d="
		M297.107,404.34c0,0,9.412,2.436,13.093-2.352"/>
	<path fill="none" stroke="#000000" stroke-width="3" stroke-linecap="round" stroke-linejoin="round" stroke-miterlimit="10" d="
		M304.952,354.582l10.345,9.517c11.608,11.598,25.814,24.558,24.231,28.893c-1.694,6.031-5.391,8.148-9.216,10.573
		c0,0-6.777,3.101-6.777,8.101s1,8.5,1,8.5l13.291-0.006c5.446-1.446,11.868-4.094,14.362-8.787
		c-0.264-4.19,0.428-7.666,2.047-9.928c1.62-2.261,2.706-1.796,5.784,0.059c2.653-1.187,4.427-5.041,4.427-5.041
		s-4.483-9.37-9.145-10.688c-4.659-1.317-12.089-14.146-20.641-26.554s-14.376-20.472-14.376-20.472"/>
	<path fill="none" stroke="#000000" stroke-width="1.5" stroke-linecap="round" stroke-linejoin="round" stroke-miterlimit="10" d="
		M339.212,390.89c0,0,9.753,0.146,11.462-8.574"/>
	<path fill="none" stroke="#000000" stroke-width="3" stroke-linecap="round" stroke-linejoin="round" stroke-miterlimit="10" d="
		M130.91,333.04c0,0-6-2.438-8.375-5.188s-8.812-2.375-8.812-2.375s0.25-4.125-0.25-5s-2.104-1.479-2.104-1.479l-2.084,3.582
		c0,0-2.5-3.791-3.125-4.041s-3,1-4.125,5c-0.792,2.816-1.425,5.757-2.166,8.298c-0.312,1.067-1.336,4.727-0.876,6.651
		s0.521,2.238,0.446,3.021c-0.2,2.123-2.279,6.029-2.279,6.029s-2.625,4.375-2.875,7.5c0,0-7.875,3.875-12,8
		c0,0-3.625,2.25-13.5,7.625c0,0-3.125,0.875-4.75,3.5S58.16,385.29,57.16,388.54s0,7,1.125,10.75s0.625,7.625-0.5,10.625
		s-2.625,6.5-2,10.25s2.5,9.125,2.5,9.125s2.5,1.375,8.5,1c0,0,2.625-1,2.5-3.125s-3-3.25-3-3.25l-1.125-4.75
		c0,0,7.125-8,10.375-9.875s5.5-5.75,5.5-5.75s13.625-3.25,17.125-6.75c0,0,3.375,10.5,5.25,19.375s2.625,12.875,2.625,12.875
		s1,2.25,6.25,1.75s5.626-1.375,4.751-4.625s-2.501-3.25-3.001-6.125s-2.665-17-2.665-17s-0.708-5.25-0.583-6.5
		s1.373-3.126,3.123-5.376s3.96-5.124,3.96-5.124s4.665-0.125,8.29-1.5s7-1.625,8.125-0.75s3.25,1.75,3.375,2.375s1.875,5.5,4,6.375
		s5.375,1.5,5-3.625s-2.875-7.5-5.125-9.875s-7.5-5.375-8.5-6s-7.75-2.75-7.75-2.75s0.625-3.459-0.125-8.959
		c-0.624-3.666-1.75-6.166-1.75-6.166s-2.25-3.375-2.5-4.75s3.855-4.355,3.855-4.355s5.52-1.77,6.27-5.895c0,0,0.875-1.5,0.875-3.5
		S130.91,333.04,130.91,333.04z"/>
	<path fill="none" stroke="#000000" stroke-width="3" stroke-linecap="round" stroke-linejoin="round" stroke-miterlimit="10" d="
		M58.16,384.665c0,0-1-3-3.5-9.25s-6.375-10.125-9.75-13.875s-5.998-7.748-6.123-13.123s2.959-14.713,11.459-14.213
		s6.289,4.461,5.914,5.211s-6.212-1.25-8.75,4.25s-0.125,8.625,5.125,14.625s9.5,9,10.625,16.5"/>
	<path fill="none" stroke="#000000" stroke-width="3" stroke-linecap="round" stroke-linejoin="round" stroke-miterlimit="10" d="
		M74.285,411.165l1.125,2l-4.375,5.125c0,0-1.125,2.5,8.5,7.125s9.75,4,9.75,4s6.75,0,8.125-0.375s0.875-3.375,0.125-4.25
		s-2.375-2.625-3.125-2.875s-3.25,0.625-4.25,0.125s-6.625-4-6.625-4s6.5-3.375,7.75-5.5s6.5-10.75,7-12.375"/>
	<path fill="none" stroke="#000000" stroke-width="1.5" stroke-linecap="round" stroke-linejoin="round" stroke-miterlimit="10" d="
		M122.139,340.644c1.647,0.687,3.646,0.396,4.896,0.396s3.125-1.5,3.125-1.5"/>
	<path fill="none" stroke="#000000" stroke-width="1.5" stroke-linecap="round" stroke-linejoin="round" stroke-miterlimit="10" d="
		M130.598,335.978c0,0-1.438-0.438-1.625-0.938"/>
	<path fill="none" stroke="#000000" stroke-width="1.5" stroke-linecap="round" stroke-linejoin="round" stroke-miterlimit="10" d="
		M123.119,333.913c-0.002,0-2.746,0.438-4.646-1.042c0,0,1.271-1.83,2.396-2.394C120.869,330.478,122.786,331.913,123.119,333.913z"
		/>
	<path fill="none" stroke="#000000" stroke-linecap="round" stroke-linejoin="round" stroke-miterlimit="10" d="M120.452,331.58
		c0,0,0.834,0.916,1.667,1.083"/>
	<path fill="none" stroke="#000000" stroke-width="1.5" stroke-linecap="round" stroke-linejoin="round" stroke-miterlimit="10" d="
		M113.723,326.29l-3.125,0.438c0,0-1.062-2.375-1.938-3.812"/>
	<path fill="none" stroke="#000000" stroke-width="1.5" stroke-linecap="round" stroke-linejoin="round" stroke-miterlimit="10" d="
		M110.369,327.081c0,0-0.416,0.25-1.833,2.5s-2.25,5.834-2.25,5.834s-3.501-4.188-4.001-10.312"/>
	<path fill="none" stroke="#000000" stroke-width="1.5" stroke-linecap="round" stroke-linejoin="round" stroke-miterlimit="10" d="
		M98.66,337.581c0,0,0.604,2.52,3.229,3.854"/>
	<path fill="none" stroke="#000000" stroke-width="1.5" stroke-linecap="round" stroke-linejoin="round" stroke-miterlimit="10" d="
		M94.953,354.833c0,0-0.208,2.917,0.25,6.709"/>
	<path fill="none" stroke="#000000" stroke-width="1.5" stroke-linecap="round" stroke-linejoin="round" stroke-miterlimit="10" d="
		M94.369,377.29c0,0,1.166,5.75,1.916,10.25s1.125,7.125,2.375,8.75"/>
	<path fill="none" stroke="#000000" stroke-width="1.5" stroke-linecap="round" stroke-linejoin="round" stroke-miterlimit="10" d="
		M117.285,385.54c0,0,3.795-4.293,7.252-15.25"/>
	<path fill="none" stroke="#000000" stroke-width="1.5" stroke-linecap="round" stroke-linejoin="round" stroke-miterlimit="10" d="
		M135.952,383.748c0,0,1.25,0.166,2-1"/>
	<path fill="none" stroke="#000000" stroke-width="1.5" stroke-linecap="round" stroke-linejoin="round" stroke-miterlimit="10" d="
		M139.369,389.165c0,0,2.667,0.417,3.25-0.833"/>
	<path fill="none" stroke="#000000" stroke-width="1.5" stroke-linecap="round" stroke-linejoin="round" stroke-miterlimit="10" d="
		M141.785,391.332c0,0,1.833-0.083,2.25-0.75"/>
	<path fill="none" stroke="#000000" stroke-width="1.5" stroke-linecap="round" stroke-linejoin="round" stroke-miterlimit="10" d="
		M111.453,425.915c0,0-0.333,0.583,0.25,2s0.583,2.084,0.583,2.084"/>
	<path fill="none" stroke="#000000" stroke-width="1.5" stroke-linecap="round" stroke-linejoin="round" stroke-miterlimit="10" d="
		M114.119,425.999c0,0,1,2.834,1,3.5"/>
	<path fill="none" stroke="#000000" stroke-width="1.5" stroke-linecap="round" stroke-linejoin="round" stroke-miterlimit="10" d="
		M92.536,428.582c0,0,1.999-0.667,1.416-2.167"/>
	<path fill="none" stroke="#000000" stroke-width="1.5" stroke-linecap="round" stroke-linejoin="round" stroke-miterlimit="10" d="
		M60.202,428.915c0,0,1.666-0.167,1.5-2.5"/>
	<path fill="none" stroke="#000000" stroke-width="1.5" stroke-linecap="round" stroke-linejoin="round" stroke-miterlimit="10" d="
		M65.036,429.748c0,0,0.666-1.916,0.166-2.916"/>
	<path fill="none" stroke="#000000" stroke-width="1.5" stroke-linecap="round" stroke-linejoin="round" stroke-miterlimit="10" d="
		M75.369,396.583c0,0,3.334,1.582,5.334,6.916"/>
</g>
</svg>
