<?xml version="1.0" encoding="utf-8"?>
<!-- Generator: Adobe Illustrator 16.0.0, SVG Export Plug-In . SVG Version: 6.00 Build 0)  -->
<!DOCTYPE svg PUBLIC "-//W3C//DTD SVG 1.1//EN" "http://www.w3.org/Graphics/SVG/1.1/DTD/svg11.dtd">
<svg version="1.1" id="Layer_1" xmlns="http://www.w3.org/2000/svg" xmlns:xlink="http://www.w3.org/1999/xlink" x="0px" y="0px"
	 width="283.46px" height="475.355px" viewBox="0 0 283.46 475.355" enable-background="new 0 0 283.46 475.355"
	 xml:space="preserve">
<g id="colour">
	<path fill="#465E7C" d="M81.15,422.675c0.35,1.12,0.49,2.239,0.45,3.35c-0.09,3.5-1.89,6.9-4.1,10c0.43-0.96,1.95-5.01,0.26-11.34
		c-0.08-0.311-0.17-0.62-0.27-0.94c-0.28-1.38,0.4-3.96,1.76-7.319C80.08,419.195,80.74,421.355,81.15,422.675z"/>
	<path fill="#465E7C" d="M130.93,331.435c-3.34-3.22-7.31-8.5-8.84-16.22c-0.94-4.801-0.94-10.561,0.76-17.351
		c1.18-4.7,4.26-9.279,8.65-13.71c17.7-17.83,56.6-33.069,76.9-42.79l-0.12-0.25c3.489-15.5,8.02-35.97,3.33-60.07
		c-7.271-37.43-44.181-45.22-44.181-45.22l-0.85-0.45c0.46-0.85,0.9-1.74,1.3-2.69c0,0,5.561,2.23,8.13-1.66
		c2.23-3.37,0.16-6.91-0.43-7.79c-0.09-0.14-0.15-0.21-0.15-0.21s1.11-1.73,3.15-6.74c0,0,0,0,0.01-0.01c-0.01-0.01,0-0.01,0-0.02
		c0,0,0.01-0.01,0.01-0.02c0.45-0.98,7.601-16.87,10.971-27.02c2.77-8.36,5.91-21.4,1.189-31.8l0.32-0.13
		c32.12,5.71,93.95,15.18,84.47,83.5c-9.88,71.22-16.109,104.49-16.109,104.49s8.31,8.83,3.109,24.43
		c-5.189,15.591-15.069,20.271-15.069,20.271s0,0.05-0.011,0.149c-1.27,0.671-81.989,43.931-88.359,45.65
		c-6.41,1.74-13.511,2.46-22.34-0.83l-1.37,0.05c-0.39-0.25-0.91-0.59-1.51-1.04C133.04,333.325,132.02,332.495,130.93,331.435z"/>
	<path fill="#465E7C" d="M245.92,353.905c0.82,26.561,1.69,32.12-0.82,38.99c-2.5,6.87-58.67,53.13-101.06,62.9
		c-13.63-1.19-18.94-6.431-19.25-6.75l1.98-70.271l0.02-0.81c7.49,0.229,9.76-0.511,12.98-2.19c0.33-9.67-4.17-34.16-3.5-39.83
		l-0.08-0.479c0,0-0.29-0.15-0.79-0.471l1.37-0.05c8.83,3.29,15.93,2.57,22.34,0.83c6.37-1.72,87.09-44.979,88.359-45.65
		C247.31,292.735,245.13,328.335,245.92,353.905z"/>
	<path fill="#59253C" d="M211.61,181.045c4.689,24.1,0.159,44.57-3.33,60.07l0.12,0.25c-20.301,9.721-59.2,24.96-76.9,42.79
		l-0.36-0.37c-0.66-0.029-1.39-0.1-2.25-0.17c-3.04-0.25-7.53,1.51-10.41,2.54l-0.44-2.109c-0.48-0.891-1.07-1.99-1.76-3.221
		l0.24-0.13c0,0,4.33-7.34,8.16-12c3.84-4.67,8.42-6.38,9.75-8.38c1.34-2,1.51-4.75,0.67-8.75c-0.83-4,0.96-9.87,1.79-14.25
		s2.73-14.95,3.25-24.82c0.52-9.88,1.34-17.88,1.34-22.35c0-9.61-0.66-13.65,5.55-17.2c17.069-11.5,16.779-32.33,16.779-32.33
		l-0.51-0.44c1.2-1.43,2.3-3.01,3.28-4.8l0.85,0.45C167.43,135.825,204.34,143.615,211.61,181.045z"/>
	<path fill="#DDE3F2" d="M190.76,57.415c4.721,10.4,1.58,23.44-1.189,31.8c-3.37,10.15-10.521,26.04-10.971,27.02
		c0.181-0.69,2.23-8.72-1.029-14.65c-3.4-6.2-6.551-4.89-6.551-4.89s-3.75,0.58-3.579,4.14l-3.33,2.13l-0.431-0.68l-1.34-8.37
		c0,0-10.07-3.53-11.5-17.39c-1.42,1.03-22.14,14.94-38.6,10.98c-0.54-0.12-1.08-0.27-1.61-0.44c-3.25-1.04-6.3-2.84-8.95-5.66
		c-19.43-22.51,9.96-55.19,25.18-56.05c15.22-0.85,33.6,4.31,37.19,18.12c0,0,9.79-4.13,21.431,6.62
		C187.84,52.285,189.56,54.765,190.76,57.415z"/>
	<path fill="#EAD2C3" d="M167.44,100.835c-0.171-3.56,3.579-4.14,3.579-4.14s3.15-1.31,6.551,4.89c3.26,5.93,1.21,13.96,1.029,14.65
		c0,0.01-0.01,0.02-0.01,0.02c0,0.01-0.01,0.01,0,0.02c-0.01,0.01-0.01,0.01-0.01,0.01c-2.04,5.01-3.15,6.74-3.15,6.74
		s0.061,0.07,0.15,0.21l-0.45,0.03c-0.8-0.47-6.46-2.73-8.8,1.13c-2.42,4.01,1.13,7.01,1.13,7.01l0.42,1.28
		c-0.399,0.95-0.84,1.84-1.3,2.69c-0.98,1.79-2.08,3.37-3.28,4.8c-1.569,1.86-3.31,3.46-5.17,4.91c-3.28,2.57-6.95,4.67-10.74,6.93
		c-7.61,7.77-12.439,8.19-15.939,5.61c-0.22-0.16-0.43-0.35-0.62-0.57c-1.48-1.63-2.39-4.72-2.93-7.4c-0.33-1.6-0.52-3.07-0.62-3.98
		l0.58-0.06c0,0-0.38-7.88,0.97-12.02c-2.08-3.98-1.31-6.82-1.31-6.82l-0.08-0.33c1.14-0.28,2.03-1.64,2.15-1.83
		c0.45,0.25,0.91,0.49,1.37,0.73c1.43,0.75,2.07,0.98,2.86,0.45c0.58-0.39,1.61-2.17,2.75-3.72l0.02,0.01c0,0,2.08-0.38,2.53,0.6
		c0.46,0.98,1.92,2.14,1.92,2.14s1.94-0.66,2.53-4.03c0.16-0.87,0-1.57-0.32-2.13l0.08-0.19c5.08,2.14,9.1-1.51,11.16-4.07
		c0.97-1.22,1.51-2.19,1.51-2.19l10.39-7.7l0.69,0.07c0.34-1.02,0.53-2.17,0.39-3.35C167.45,101.095,167.44,100.965,167.44,100.835z
		"/>
	<path fill="#FFD836" d="M175.13,123.265l0.45-0.03c0.59,0.88,2.66,4.42,0.43,7.79c-2.569,3.89-8.13,1.66-8.13,1.66l-0.42-1.28
		c0,0-3.55-3-1.13-7.01C168.67,120.535,174.33,122.795,175.13,123.265z"/>
	<path fill="#B7BF4F" d="M167.47,101.235c0.141,1.18-0.05,2.33-0.39,3.35l-0.69-0.07l-10.39,7.7l-0.57-3.63l-0.04-0.06l8.721-5.56
		l3.33-2.13C167.44,100.965,167.45,101.095,167.47,101.235z"/>
	<path fill="#EAD2C3" d="M136.12,110.615c-5.79-2.81-8.73,1.57-8.73,1.57l-12.51,1.59l-0.16-0.87l0.75-0.14
		c0,0-1.73-7.59-1.18-10.32c0.66-3.26-2.38-13.52-2.38-13.52l0.33-1.42c16.46,3.96,37.18-9.95,38.6-10.98
		c1.43,13.86,11.5,17.39,11.5,17.39l1.34,8.37l0.431,0.68l-8.721,5.56l-0.199,0.13c0,0-0.86,0.19-2.99,0.33
		c-2.12,0.13-15.5,1.93-15.5,1.93C136.5,110.805,136.31,110.705,136.12,110.615z M127.39,101.305c-0.24-0.97-1.42-4.2-6.09-3.84
		c-2.97,0.61-3,4.61-3,4.77c0,0,3.04,2.2,8.62-0.85L127.39,101.305z M140.72,100.485l0.58-0.08c0,0,1.55,1.07,4.771,0.68
		c3.17-0.39,5.21-1.98,5.21-1.99c-0.59-1.47-3.061-3.34-5.99-3.33c-2.92,0.01-3.61,1.32-4.11,1.76
		C140.73,98.425,140.61,99.435,140.72,100.485z"/>
	<path fill="#D67F58" d="M163.81,140.615c0,0,0.29,20.83-16.779,32.33c-6.21,3.55-5.55,7.59-5.55,17.2c0,4.47-0.82,12.47-1.34,22.35
		c-0.52,9.87-2.42,20.44-3.25,24.82s-2.62,10.25-1.79,14.25c0.84,4,0.67,6.75-0.67,8.75c-1.33,2-5.91,3.71-9.75,8.38
		c-3.83,4.66-8.16,12-8.16,12l-0.24,0.13c-2.33-4.109-5.74-9.75-9.23-14.17l0.05-0.04c1.34-12.17,8.67-8.5,15-10
		c6.34-1.5,1.34-7.67,1.67-11.34c0.33-3.66,1.56-10.689,1.56-10.689s5.45-51.5,5.97-54.101s0.18-5.37-1.12-6.85
		c-1.3-1.47-2.52-1.95-4.08-6.89c-1.35-4.28,1.12-14.47,1.8-17.09c0.54,2.68,1.45,5.77,2.93,7.4l-0.65,0.89c0,0,0.25,7.12,7,7.25
		c6.75,0.12,15.5-4.13,21.129-19.88l-0.18-0.23c1.86-1.45,3.601-3.05,5.17-4.91L163.81,140.615z"/>
	<path fill="#EAD2C3" d="M158.13,145.085l0.18,0.23c-5.63,15.75-14.38,20-21.129,19.88c-6.75-0.13-7-7.25-7-7.25l0.65-0.89
		c0.19,0.22,0.4,0.41,0.62,0.57c3.5,2.58,8.33,2.16,15.939-5.61C151.18,149.755,154.85,147.655,158.13,145.085z"/>
	<path fill="#B7BF4F" d="M127.78,114.035c-0.1,0.01-0.3,0.04-0.57,0.08c-1.32,0.19-4.52,0.63-9,1.08c-4.61,0.47-5.14,1.63-5.14,2.14
		l-0.87,0.08l-0.38-3.96l2.9-0.55l0.16,0.87l12.51-1.59c0,0,2.94-4.38,8.73-1.57c0.19,0.09,0.38,0.19,0.58,0.3
		c0,0,13.38-1.8,15.5-1.93c2.13-0.14,2.99-0.33,2.99-0.33l0.199-0.13l0.04,0.06l0.57,3.63c0,0-0.54,0.97-1.51,2.19l-0.29-0.04
		c0.79-1.78-0.53-3.63-0.53-3.63l-16.87,2.06l-0.65,0.17c-2.18-1.34-5.46-2.38-7.95,1.07H127.78z"/>
	<path fill="#F4E9E6" d="M154.2,114.365l0.29,0.04c-2.061,2.56-6.08,6.21-11.16,4.07c-1.53-0.64-3.15-1.8-4.84-3.68
		c0,0-0.95-0.98-2.34-1.83l0.65-0.17l16.87-2.06C153.67,110.735,154.99,112.585,154.2,114.365z"/>
	<path fill="#FFFFFF" d="M151.28,99.095c0,0.01-2.04,1.6-5.21,1.99c-3.22,0.39-4.771-0.68-4.771-0.68l-0.58,0.08
		c-0.11-1.05,0.01-2.06,0.46-2.96c0.5-0.44,1.19-1.75,4.11-1.76C148.22,95.755,150.69,97.625,151.28,99.095z M145.07,100.285
		c1.239-0.24,0.64-0.98-0.57-0.71C142.96,99.935,143.82,100.515,145.07,100.285z"/>
	<path d="M144.5,99.575c1.21-0.27,1.81,0.47,0.57,0.71C143.82,100.515,142.96,99.935,144.5,99.575z"/>
	<path fill="#EAD2C3" d="M129.59,124.615c-2.14-1.18-3.99-2.49-4.16-4.13c0.09-0.34,0.2-0.67,0.34-0.98
		c0.79-1.85,2.24-3.29,2.21-5.38l-0.77-0.01c0.27-0.04,0.47-0.07,0.57-0.08h0.42c2.49-3.45,5.77-2.41,7.95-1.07
		c1.39,0.85,2.34,1.83,2.34,1.83c1.69,1.88,3.31,3.04,4.84,3.68l-0.08,0.19c0.32,0.56,0.48,1.26,0.32,2.13
		c-0.59,3.37-2.53,4.03-2.53,4.03s-1.46-1.16-1.92-2.14c-0.45-0.98-2.53-0.6-2.53-0.6l-0.02-0.01c-1.14,1.55-2.17,3.33-2.75,3.72
		c-0.79,0.53-1.43,0.3-2.86-0.45C130.5,125.105,130.04,124.865,129.59,124.615z"/>
	<path fill="#D67F58" d="M46.08,354.845c-0.69-0.681-1.1-1.12-1.1-1.12s2.34-9.07,1.74-22.07c-0.6-13-0.79-18.05,3.55-23.71
		l0.81-1.37c4.74,3.2,9.36,7.3,12.95,12.48c0.6,0.87,1.16,1.76,1.7,2.689c0,0,0.87,4.15,5.38,4.33c0,0,46.69,16.03,48.08,17.07
		c0,0,4.22-0.65,14.63-8.97l0.07-0.221c0.6,0.45,1.12,0.79,1.51,1.04c0.5,0.32,0.79,0.471,0.79,0.471l0.08,0.479
		c-0.67,5.67,3.83,30.16,3.5,39.83c-3.22,1.68-5.49,2.42-12.98,2.19c-1.79-0.051-3.89-0.16-6.36-0.32
		c-5.26-0.35-8.33-5.87-12.96-11.08c-2.4-2.68-5.21-5.28-8.95-7.04c-9.13-4.29-15.57,1.811-17.5,4c0,0-0.01,0.01-0.01,0.021
		c-0.38,0.43-0.58,0.71-0.58,0.71s-1.7-3.061-7.87-3.061c-3.22,0-7.23,2.811-8.66,3.9c-0.35,0.27-0.55,0.43-0.55,0.43
		s-3.25-0.58-7.58-2.78C52.53,361.105,48.1,356.875,46.08,354.845z"/>
	<path fill="#FFD836" d="M133.89,333.955l-0.07,0.221c-10.41,8.319-14.63,8.97-14.63,8.97c-1.39-1.04-48.08-17.07-48.08-17.07
		c-4.51-0.18-5.38-4.33-5.38-4.33c-0.54-0.93-1.1-1.819-1.7-2.689l2.42-1.71c1,1.39,1.98,2.85,2.92,4.39l49.91,16.811
		c0,0,4.92-2.431,11.65-7.11C132.02,332.495,133.04,333.325,133.89,333.955z"/>
	<path fill="#EAD2C3" d="M118.51,292.195c-0.22,0.07-3.47,1.13-6.13-0.78c-0.42-0.3-0.83-0.689-1.21-1.159
		c-2.84-3.54,3.53-2.841,6.25-3.73c0.32-0.11,0.68-0.229,1.06-0.37c2.88-1.03,7.37-2.79,10.41-2.54c0.86,0.07,1.59,0.141,2.25,0.17
		l0.36,0.37c-4.39,4.431-7.47,9.01-8.65,13.71c-1.7,6.79-1.7,12.55-0.76,17.351l-0.18,0.04c-3.35,1.81-5.58,2.869-5.58,2.869
		s-3.67,0.921-4.72-1.079c0,0-2.78-0.511-4.21-2.471l-2.77-1.18c0,0-0.92-1.47-1.18-2.53c-0.26-1.069,0.65-2.87,0.65-2.87
		s-0.69-3.05,0.45-4.17C105.67,302.725,118.1,292.535,118.51,292.195z"/>
	<path fill="#59253C" d="M66.25,250.035v0.061c-3.12,4.29-4.54,5.59-4.54,5.59l-0.94-0.08c0.23-0.28,0.32-0.41,0.32-0.41
		s-2.31-1.87-1.79-5.17c0.52-3.29,12.84-15,16.83-24.71c0.54-2.44,1.16-4.89,1.85-7.35h0.01c2.96-10.57,7.15-21.33,11.22-32.15
		c2.69-7.15,6.24-14.76,9.77-21.27h0.01c3.06-5.65,6.12-10.46,8.61-13.44c0,0,6.29-8.5,16.46-11l0.41-0.22
		c1.49,2.74,2.72,4.82,2.72,4.82s0.03,0.36,0.09,0.97c0.1,0.91,0.29,2.38,0.62,3.98c-0.68,2.62-3.15,12.81-1.8,17.09
		c1.56,4.94,2.78,5.42,4.08,6.89c1.3,1.48,1.64,4.25,1.12,6.85s-5.97,54.101-5.97,54.101s-1.23,7.029-1.56,10.689
		c-0.33,3.67,4.67,9.84-1.67,11.34c-6.33,1.5-13.66-2.17-15,10l-0.05,0.04c-1.12-1.43-2.26-2.74-3.37-3.819
		c-7.28-7.11-19.06-8.841-19.06-8.841l-5.53,4.86l-0.01-0.01c0,0-1.39-5.11-6.8-7.5C70.06,250.365,67.95,250.055,66.25,250.035z"/>
	<path fill="#F4E9E6" d="M113.07,117.335c0-0.51,0.53-1.67,5.14-2.14c4.48-0.45,7.68-0.89,9-1.08l0.77,0.01
		c0.03,2.09-1.42,3.53-2.21,5.38l-0.12-0.06c0,0-4.65,2.8-8.24,1.22l-1.16,0.25c-2.15-1.13-3.98-2.79-3.98-2.79l-0.07-0.71
		L113.07,117.335z"/>
	<path fill="#EAD2C3" d="M127.44,126.445l0.08,0.33c0,0-0.77,2.84,1.31,6.82c-1.35,4.14-0.97,12.02-0.97,12.02l-0.58,0.06
		c-0.06-0.61-0.09-0.97-0.09-0.97s-1.23-2.08-2.72-4.82c-1.53-2.82-3.34-6.32-4.34-8.93c-1.23-3.21-2.19-7.67-2.94-9.59
		c-0.32-0.13-0.63-0.28-0.94-0.45l1.16-0.25c3.59,1.58,8.24-1.22,8.24-1.22l0.12,0.06c-0.14,0.31-0.25,0.64-0.34,0.98
		c0.17,1.64,2.02,2.95,4.16,4.13C129.47,124.805,128.58,126.165,127.44,126.445z"/>
	<path fill="#FFFFFF" d="M127.39,101.305l-0.47,0.08c-5.58,3.05-8.62,0.85-8.62,0.85c0-0.16,0.03-4.16,3-4.77
		C125.97,97.105,127.15,100.335,127.39,101.305z M122.92,102.135c1.03-0.2,0.68-0.97-0.33-0.73
		C121.31,101.715,121.89,102.345,122.92,102.135z"/>
	<path fill="#465E7C" d="M94.64,422.415l-2.72-29.59l-0.35-0.2c5.69-9.859,11.82-19.72,15.73-25.899l0.17-0.16
		c4.63,5.21,7.7,10.73,12.96,11.08c2.47,0.16,4.57,0.27,6.36,0.32l-0.02,0.81l-1.98,70.271c-0.01-0.011-0.02-0.021-0.02-0.021
		c-9.84-2.67-13.48-4.05-22.92-7.83l-0.47-0.08c0.3-0.74,0.39-1.359,0.39-1.359s-1.38-9.301-3.51-11.25c-2.14-1.96-3.61-6-3.61-6
		L94.64,422.415z"/>
	<path fill="#465E7C" d="M120.13,130.955c1,2.61,2.81,6.11,4.34,8.93l-0.41,0.22c-10.17,2.5-16.46,11-16.46,11
		c-2.49,2.98-5.55,7.79-8.61,13.44h-0.01l-0.17-0.1c0.35-15.6,4.16-42.14,4.16-42.14c2.79-21.64,7.46-34.61,7.46-34.61l0.2-0.63
		c0.53,0.17,1.07,0.32,1.61,0.44l-0.33,1.42c0,0,3.04,10.26,2.38,13.52c-0.55,2.73,1.18,10.32,1.18,10.32l-0.75,0.14l-2.9,0.55
		l0.38,3.96l0.07,0.71c0,0,1.83,1.66,3.98,2.79c0.31,0.17,0.62,0.32,0.94,0.45C117.94,123.285,118.9,127.745,120.13,130.955z"/>
	<path fill="#FFFFFF" d="M130.93,331.435c-6.73,4.68-11.65,7.11-11.65,7.11l-49.91-16.811c0,0,14.38-6.58,32.06-21.31
		c4.82-4.011,8.33-6.88,10.9-8.931l0.05-0.08c2.66,1.91,5.91,0.851,6.13,0.78c-0.41,0.34-12.84,10.53-13.96,11.63
		c-1.14,1.12-0.45,4.17-0.45,4.17s-0.91,1.801-0.65,2.87c0.26,1.061,1.18,2.53,1.18,2.53l2.77,1.18c1.43,1.96,4.21,2.471,4.21,2.471
		c1.05,2,4.72,1.079,4.72,1.079s2.23-1.06,5.58-2.869l0.18-0.04C123.62,322.935,127.59,328.215,130.93,331.435z"/>
	<path d="M122.59,101.405c1.01-0.24,1.36,0.53,0.33,0.73C121.89,102.345,121.31,101.715,122.59,101.405z"/>
	<path fill="#FFFFFF" d="M118.04,284.045l0.44,2.109c-0.38,0.141-0.74,0.26-1.06,0.37c-2.72,0.89-9.09,0.19-6.25,3.73
		c0.38,0.47,0.79,0.859,1.21,1.159l-0.05,0.08c-2.57,2.051-6.08,4.92-10.9,8.931c-17.68,14.729-32.06,21.31-32.06,21.31
		c-0.94-1.54-1.92-3-2.92-4.39c-15.05-20.82-36.06-25.23-36.06-25.23l1.9-4.85l8.62-5.47l17.03-10.82c0,0,2.08-0.521,4.15-0.7
		c2.08-0.17,6.35,2.51,6.37,4.771c-0.17,3.47,1.78,4.939,3.45,5.46c2.49,0.859,3.71-1.65,3.87-3.73c0.17-2.08,0.35-3.29-0.69-5.37
		s-4.09-5.46-4.09-5.46l8.09-7.09l5.53-4.86c0,0,11.78,1.73,19.06,8.841c1.11,1.079,2.25,2.39,3.37,3.819
		c3.49,4.42,6.9,10.061,9.23,14.17C116.97,282.055,117.56,283.155,118.04,284.045z"/>
	<path fill="#6D6058" d="M79.25,416.425c-1.36,3.359-2.04,5.939-1.76,7.319c0.1,0.32,0.19,0.63,0.27,0.94l-1.62,0.229
		c-11.77,0.75-12.11-6.1-12.11-6.1l-0.69-0.2c2.69-4.26,5.91-14.91,9.25-26.59c2.8-9.83,5.7-20.39,8.42-28.479
		c0-0.011,0.01-0.021,0.01-0.021c1.93-2.189,8.37-8.29,17.5-4c3.74,1.76,6.55,4.36,8.95,7.04l-0.17,0.16
		c-3.91,6.18-10.04,16.04-15.73,25.899C86.48,401.435,81.74,410.245,79.25,416.425z"/>
	<path d="M77.48,436.065c0.01-0.01,0.02-0.02,0.02-0.04c2.21-3.1,4.01-6.5,4.1-10l0.67,0.021c0,0,1.19,3.829,3.87,3.779
		c2.58-0.04,6.9-1.43,8.5-7.41l0.01,0.091c0,0,1.47,4.04,3.61,6c2.13,1.949,3.51,11.25,3.51,11.25s-0.09,0.619-0.39,1.359
		c-0.45,1.101-1.37,2.46-3.18,2.41c-0.42,0.82-0.85-9.65-3.16-4.38c-2.31,5.28-1.12,9.89-1.71,10.85
		c-2.92,4.74-4.94,7.49-10.58,9.36c-5.65,1.87-11.99,1.5-13.22-1.37s-1.38-5.3-0.46-10.24c0.2-1.05,1-2.319,2.11-3.76
		C72.9,441.725,75.37,439.035,77.48,436.065z"/>
	<path fill="#6D6058" d="M91.92,392.825l2.72,29.59c-1.6,5.98-5.92,7.37-8.5,7.41c-2.68,0.05-3.87-3.779-3.87-3.779l-0.67-0.021
		c0.04-1.11-0.1-2.229-0.45-3.35c-0.41-1.32-1.07-3.48-1.9-6.25c2.49-6.181,7.23-14.99,12.32-23.801L91.92,392.825z"/>
	<path fill="#6D6058" d="M80.43,364.255c0,0,0.2-0.28,0.58-0.71c-2.72,8.09-5.62,18.649-8.42,28.479l-0.65-0.22
		c-2.82-9.53-5.74-19.04-7.97-26.61l-0.07-0.1c1.43-1.09,5.44-3.9,8.66-3.9C78.73,361.195,80.43,364.255,80.43,364.255z"/>
	<path fill="#EAD2C3" d="M79.09,258.855l-8.09,7.09c0,0,3.05,3.38,4.09,5.46s0.86,3.29,0.69,5.37c-0.16,2.08-1.38,4.59-3.87,3.73
		c-1.67-0.521-3.62-1.99-3.45-5.46c-0.02-2.261-4.29-4.94-6.37-4.771c-2.07,0.18-4.15,0.7-4.15,0.7l-17.03,10.82l-0.06-0.091
		c0,0,2.36-8.13,4.78-11.949c1.81-1.631,3.7-2.82,5.13-4.131c6.57-6.05,9.18-9.01,10.01-10.02l0.94,0.08c0,0,1.42-1.3,4.54-5.59
		v-0.061c1.7,0.021,3.81,0.33,6.03,1.311c5.41,2.39,6.8,7.5,6.8,7.5L79.09,258.855z"/>
	<path d="M77.76,424.685c1.69,6.33,0.17,10.38-0.26,11.34c0,0.021-0.01,0.03-0.02,0.04c-2.11,2.97-4.58,5.66-6.3,7.92l-0.14-0.11
		c0,0,0.7-5.77-3.97-6.17c-4.66-0.399-4.15,5.181-7.2,5.29c-3.05,0.101-14.81,0.94-22.89-3.89c-2.36-1.42-6.21-5.59-6.21-5.59
		s0.84-6.93,5.48-8.49c5.64-1.9,16.11,1.4,23.23-2.77c1.15-0.67,2.2-1.53,3.14-2.641c0.24-0.279,0.48-0.609,0.72-1l0.69,0.2
		c0,0,0.34,6.85,12.11,6.1L77.76,424.685z"/>
	<path fill="#465E7C" d="M77.93,217.945l0.05,0.021c-0.69,2.46-1.31,4.909-1.85,7.35c-3.99,9.71-16.31,21.42-16.83,24.71
		c-0.52,3.3,1.79,5.17,1.79,5.17s-0.09,0.13-0.32,0.41c-0.83,1.01-3.44,3.97-10.01,10.02c-1.43,1.311-3.32,2.5-5.13,4.131
		c-2.42,3.819-4.78,11.949-4.78,11.949l0.06,0.091l-8.62,5.47l-1.9,4.85l-1.67,0.73l-0.1-0.24l-4.31-3.96
		c-7.28-7.62-12.82-18.37-4.85-32.58C27.43,241.865,77.93,217.945,77.93,217.945z"/>
	<path fill="#465E7C" d="M71.94,391.805l0.65,0.22c-3.34,11.68-6.56,22.33-9.25,26.59c-0.24,0.391-0.48,0.721-0.72,1
		c-0.94,1.11-1.99,1.971-3.14,2.641l-0.25-0.44c-10.23-5.22-15.46-7.04-15.46-7.04l2.31-59.93c2.02,2.029,6.45,6.26,9.69,7.899
		c4.33,2.2,7.58,2.78,7.58,2.78s0.2-0.16,0.55-0.43l0.07,0.1C66.2,372.765,69.12,382.275,71.94,391.805z"/>
	<path fill="#FFD836" d="M66.45,317.345l-2.42,1.71c-3.59-5.181-8.21-9.28-12.95-12.48c-8.78-5.91-17.95-8.75-21.62-9.72
		c-1.07-0.28-1.67-0.41-1.67-0.41l-0.17-3.12l1.1-0.479l1.67-0.73C30.39,292.115,51.4,296.525,66.45,317.345z"/>
	<path fill="#465E7C" d="M51.08,306.575l-0.81,1.37c-4.34,5.66-4.15,10.71-3.55,23.71c0.6,13-1.74,22.07-1.74,22.07
		s0.41,0.439,1.1,1.12l-2.31,59.93c-6.34,0.67-15.95-5.36-15.95-5.36c-3.37-4.939-1.9-33.439-1.9-33.439
		c1.16-26.65,2.89-66.37,3.42-78.69l0.12-0.43C33.13,297.825,42.3,300.665,51.08,306.575z"/>
</g>
<g>
	<path fill="none" stroke="#000000" stroke-width="3" stroke-linecap="round" stroke-linejoin="round" stroke-miterlimit="10" d="
		M163.683,102.288l-1.343-8.37c0,0-10.066-3.533-11.496-17.388c-1.757,1.266-32.912,22.158-49.167,4.871
		c-19.432-22.505,9.965-55.189,25.182-56.045c15.217-0.854,33.604,4.307,37.19,18.117c0,0,9.787-4.127,21.427,6.625
		c11.639,10.753,7.574,28.629,4.093,39.114c-3.482,10.484-10.992,27.072-10.992,27.072s2.4-8.501-1.005-14.701
		c-3.405-6.201-6.554-4.89-6.554-4.89s-4.026,0.625-3.547,4.537c0.478,3.913-2.791,7.488-2.791,7.488l-0.305-1.814"/>
	<path fill="none" stroke="#000000" stroke-width="1.5" stroke-linecap="round" stroke-linejoin="round" stroke-miterlimit="10" d="
		M149.311,76.98c0,0-31.638,9.871-39.349-7.01c-7.714-16.881,8.586-26.462,14.953-27.771c6.37-1.31,11.517,7.591,5.336,11.877
		c-6.181,4.285-8.901-2.088-7.617-3.127"/>
	<path fill="none" stroke="#000000" stroke-width="3" stroke-linecap="round" stroke-linejoin="round" stroke-miterlimit="10" d="
		M111.908,88.92c0,0,3.046,10.267,2.384,13.522c-0.554,2.735,1.179,10.318,1.179,10.318l-3.648,0.698l0.445,4.67
		c0,0,2.394,2.161,4.924,3.236c0.745,1.924,1.71,6.376,2.943,9.591c1.97,5.133,7.053,13.747,7.053,13.747s0.772,10.343,4.267,12.92
		c3.496,2.578,8.326,2.16,15.939-5.605c8.387-4.996,16.162-9.248,20.483-19.336c0,0,5.566,2.23,8.134-1.658
		c2.57-3.888-0.58-8.003-0.58-8.003s1.111-1.724,3.146-6.736"/>
	<path fill="none" stroke="#000000" stroke-width="1.5" stroke-linecap="round" stroke-linejoin="round" stroke-miterlimit="10" d="
		M167.456,131.41c0,0-3.545-3.007-1.122-7.01s8.429-1.429,8.867-1.085"/>
	<path fill="none" stroke="#000000" stroke-width="1.5" stroke-linecap="round" stroke-linejoin="round" stroke-miterlimit="10" d="
		M168.952,119.843c0,0,2.252-1.069,1.934-3.678c-0.319-2.607-3.086-3.593-3.086-3.593s3.885-2.856,4.523-10.611"/>
	<path fill="none" stroke="#000000" stroke-width="1.5" stroke-linecap="round" stroke-linejoin="round" stroke-miterlimit="10" d="
		M114.646,94.352c0,0,4.438-4.909,11.298-3.733"/>
	<path fill="none" stroke="#000000" stroke-width="1.5" stroke-linecap="round" stroke-linejoin="round" stroke-miterlimit="10" d="
		M120.223,109.368c4.063-0.978,5.732-3.889,7.23-7.797c0,0-0.661-4.529-6.15-4.11c-3.03,0.624-3.005,4.777-3.005,4.777
		s3.04,2.198,8.627-0.853"/>
	<path fill="none" stroke="#000000" stroke-width="3" stroke-linecap="round" stroke-linejoin="round" stroke-miterlimit="10" d="
		M122.594,101.41c1.006-0.245,1.357,0.521,0.326,0.727C121.887,102.341,121.314,101.718,122.594,101.41z"/>
	<path fill="none" stroke="#000000" stroke-width="1.5" stroke-linecap="round" stroke-linejoin="round" stroke-miterlimit="10" d="
		M154.13,90.41c0,0-5.422-7.543-15.376-2.354"/>
	<path fill="none" stroke="#000000" stroke-width="1.5" stroke-linecap="round" stroke-linejoin="round" stroke-miterlimit="10" d="
		M141.825,91.78c0,0,0.002,2.057-1.433,5.612"/>
	<path fill="none" stroke="#000000" stroke-width="1.5" stroke-linecap="round" stroke-linejoin="round" stroke-miterlimit="10" d="
		M141.296,100.408c0,0,1.551,1.069,4.776,0.676c3.226-0.395,5.292-2.034,5.208-1.987c-0.595-1.474-3.059-3.345-5.985-3.333
		c-2.927,0.011-3.615,1.323-4.113,1.763c-1.717,3.484,1.282,8.532,4.289,11.69"/>
	<path fill="none" stroke="#000000" stroke-width="3" stroke-linecap="round" stroke-linejoin="round" stroke-miterlimit="10" d="
		M144.503,99.579c1.211-0.276,1.805,0.47,0.562,0.704C143.824,100.514,142.96,99.93,144.503,99.579z"/>
	<path fill="none" stroke="#000000" stroke-linecap="round" stroke-linejoin="round" stroke-miterlimit="10" d="M156.287,99.378
		c0,0,2.545,0.549,3.354,1.325"/>
	<path fill="none" stroke="#000000" stroke-width="1.5" stroke-linecap="round" stroke-linejoin="round" stroke-miterlimit="10" d="
		M130.056,96.593c0,0,1.41,4.334-1.802,10.015c0,0-0.102,1.925-0.262,4.508"/>
	<path fill="none" stroke="#000000" stroke-width="1.5" stroke-linecap="round" stroke-linejoin="round" stroke-miterlimit="10" d="
		M134.786,95.644c0,0,2.034,9.607,1.334,14.971"/>
	<path fill="none" stroke="#000000" stroke-width="1.5" stroke-linecap="round" stroke-linejoin="round" stroke-miterlimit="10" d="
		M114.883,113.776l12.506-1.592c0,0,3.144-4.666,9.309-1.266c0,0,13.381-1.804,15.505-1.937c2.125-0.136,2.983-0.324,2.983-0.324
		l12.616-8.05"/>
	<path fill="none" stroke="#000000" stroke-width="1.5" stroke-linecap="round" stroke-linejoin="round" stroke-miterlimit="10" d="
		M127.978,114.127c0.035,2.436-1.949,4-2.547,6.356c0.214,1.988,2.869,3.491,5.532,4.864c1.423,0.749,2.067,0.975,2.854,0.447
		c0.786-0.527,2.393-3.577,3.959-5.207"/>
	<path fill="none" stroke="#000000" stroke-width="1.5" stroke-linecap="round" stroke-linejoin="round" stroke-miterlimit="10" d="
		M136.593,122.089c0,0,2.079-0.388,2.53,0.595c0.454,0.985,1.921,2.144,1.921,2.144s1.934-0.666,2.529-4.029
		c0.156-0.872-0.004-1.575-0.322-2.136"/>
	<path fill="none" stroke="#000000" stroke-width="1.5" stroke-linecap="round" stroke-linejoin="round" stroke-miterlimit="10" d="
		M166.39,104.516l-10.393,7.694c0,0-7.523,13.64-17.503,2.582c0,0-6.2-6.418-10.292-0.755"/>
	<path fill="none" stroke="#000000" stroke-width="1.5" stroke-linecap="round" stroke-linejoin="round" stroke-miterlimit="10" d="
		M125.651,119.45c0,0-4.653,2.794-8.245,1.219"/>
	<path fill="none" stroke="#000000" stroke-linecap="round" stroke-linejoin="round" stroke-miterlimit="10" d="M113.124,117.583
		c0,0-0.89-1.78,5.081-2.385c5.971-0.605,9.678-1.186,9.678-1.186"/>
	<path fill="none" stroke="#000000" stroke-linecap="round" stroke-linejoin="round" stroke-miterlimit="10" d="M136.802,112.796
		l16.873-2.065c0,0,1.319,1.854,0.529,3.63"/>
	
		<line fill="none" stroke="#000000" stroke-linecap="round" stroke-linejoin="round" stroke-miterlimit="10" x1="155.997" y1="112.21" x2="155.429" y2="108.586"/>
	<path fill="none" stroke="#000000" stroke-width="1.5" stroke-linecap="round" stroke-linejoin="round" stroke-miterlimit="10" d="
		M129.599,124.591c0,0-1.958,3.272-3.942,1.237c-1.986-2.033,0.304-3.562,0.304-3.562"/>
	<path fill="none" stroke="#000000" stroke-width="1.5" stroke-linecap="round" stroke-linejoin="round" stroke-miterlimit="10" d="
		M127.523,126.776c0,0-0.771,2.836,1.308,6.823"/>
	<path fill="none" stroke="#000000" stroke-width="1.5" stroke-linecap="round" stroke-linejoin="round" stroke-miterlimit="10" d="
		M127.858,145.616c0-0.002-0.374-7.88,0.973-12.017c0,0,12.438,4.301,19.376-6.077"/>
	<path fill="none" stroke="#000000" stroke-width="1.5" stroke-linecap="round" stroke-linejoin="round" stroke-miterlimit="10" d="
		M146.358,123.249c0,0,3.97,7.192,7.129,7.068"/>
	<path fill="none" stroke="#000000" stroke-width="3" stroke-linecap="round" stroke-linejoin="round" stroke-miterlimit="10" d="
		M40.854,281.702c0,0,2.354-8.13,4.78-11.942c1.806-1.639,3.699-2.822,5.128-4.138c8.405-7.744,10.326-10.428,10.325-10.428
		c0,0-2.307-1.873-1.787-5.166c0.521-3.292,12.843-15.008,16.829-24.711c2.857-12.91,8.059-26.164,13.082-39.506
		c5.021-13.341,13.02-28.291,18.391-34.703c0,0,6.29-8.5,16.457-11"/>
	<path fill="none" stroke="#000000" stroke-width="3" stroke-linecap="round" stroke-linejoin="round" stroke-miterlimit="10" d="
		M118.039,284.041c-2.582-4.806-8.777-15.761-14.359-21.21c-7.277-7.105-19.06-8.837-19.06-8.837l-13.623,11.955
		c0,0,3.054,3.377,4.093,5.456c1.04,2.079,0.855,3.293,0.692,5.372c-0.162,2.079-1.387,4.591-3.876,3.725
		c-1.669-0.52-3.617-1.991-3.443-5.458c-0.027-2.262-4.289-4.937-6.368-4.764c-2.079,0.174-4.158,0.694-4.158,0.694l-25.644,16.287
		l-1.906,4.851l-2.771,1.214l0.173,3.118c0,0,26.51,5.545,37.945,25.298c0,0,0.867,4.158,5.372,4.332
		c0,0,46.696,16.026,48.081,17.066c0,0,4.227-0.646,14.633-8.97"/>
	<path fill="none" stroke="#000000" stroke-width="1.5" stroke-linecap="round" stroke-linejoin="round" stroke-miterlimit="10" d="
		M66.082,263c0,0,2.836,1.41,4.395,3.49"/>
	<path fill="none" stroke="#000000" stroke-width="1.5" stroke-linecap="round" stroke-linejoin="round" stroke-miterlimit="10" d="
		M62.14,250.568c0,0,4.723-1.604,10.137,0.78c5.413,2.384,6.801,7.493,6.801,7.493"/>
	<path fill="none" stroke="#000000" stroke-width="1.5" stroke-linecap="round" stroke-linejoin="round" stroke-miterlimit="10" d="
		M61.705,255.681c0,0,1.43-1.3,4.549-5.588"/>
	<path fill="none" stroke="#000000" stroke-width="3" stroke-linecap="round" stroke-linejoin="round" stroke-miterlimit="10" d="
		M89.99,254.512c0,0,11.263-7.104,11.436-15.94c0.175-8.837,0.348-35.173,5.718-56.14c5.373-20.966,4.158-17.847,4.158-17.847"/>
	<path fill="none" stroke="#000000" stroke-width="3" stroke-linecap="round" stroke-linejoin="round" stroke-miterlimit="10" d="
		M94.769,255.943c0,0,3.664-5.666,9.664-6.667c0,0-3.166-6.666-2.666-20.666"/>
	<path fill="none" stroke="#000000" stroke-width="1.5" stroke-linecap="round" stroke-linejoin="round" stroke-miterlimit="10" d="
		M80.98,226.961c0,0,17.848,0.347,19.061,17.153"/>
	<path fill="none" stroke="#000000" stroke-width="1.5" stroke-linecap="round" stroke-linejoin="round" stroke-miterlimit="10" d="
		M91.723,223.149c0,0,8.492,5.198,9.531,14.035"/>
	<path fill="none" stroke="#000000" stroke-width="3" stroke-linecap="round" stroke-linejoin="round" stroke-miterlimit="10" d="
		M167.43,135.821c0,0,36.906,7.797,44.184,45.223c4.688,24.104,0.155,44.567-3.331,60.067"/>
	<path fill="none" stroke="#000000" stroke-width="3" stroke-linecap="round" stroke-linejoin="round" stroke-miterlimit="10" d="
		M136.194,335.465c0,0-20.101-10.567-13.343-37.598s76.759-50.249,94.433-61.165c15.418-8.316,26.161-1.389,26.161-1.389"/>
	<path fill="none" stroke="#000000" stroke-width="3" stroke-linecap="round" stroke-linejoin="round" stroke-miterlimit="10" d="
		M139.331,277.052c-0.878-1.539-1.582-3.923,0.381-6.068c2.932-3.206,22.946-16.305,28.197-23.42
		c5.25-7.116,6.967-17.718,9.342-30.965c2.375-13.248,4.107-30.51,4.107-30.51"/>
	<path fill="none" stroke="#000000" stroke-width="3" stroke-linecap="round" stroke-linejoin="round" stroke-miterlimit="10" d="
		M121.912,315.257c-3.349,1.811-5.577,2.869-5.577,2.869s-3.674,0.916-4.727-1.083c0,0-2.776-0.507-4.211-2.47l-2.768-1.179
		c0,0-0.924-1.467-1.182-2.533c-0.26-1.065,0.654-2.867,0.654-2.867s-0.689-3.047,0.447-4.171
		c1.137-1.122,13.966-11.642,13.966-11.642s-4.512,1.609-7.35-1.928c-2.839-3.538,3.535-2.839,6.253-3.728
		c2.715-0.888,8.018-3.194,11.471-2.911c0.863,0.071,1.586,0.143,2.254,0.174"/>
	<path fill="none" stroke="#000000" stroke-width="1.5" stroke-linecap="round" stroke-linejoin="round" stroke-miterlimit="10" d="
		M121.206,309.448c0,0-5.388,3.722-9.336,6.897"/>
	<path fill="none" stroke="#000000" stroke-width="1.5" stroke-linecap="round" stroke-linejoin="round" stroke-miterlimit="10" d="
		M120.712,303.491c0,0-5.955,4.895-13.254,9.888"/>
	<path fill="none" stroke="#000000" stroke-width="1.5" stroke-linecap="round" stroke-linejoin="round" stroke-miterlimit="10" d="
		M118.386,298.813c0,0-8.064,6.705-13.988,10.633"/>
	<path fill="none" stroke="#000000" stroke-width="1.5" stroke-linecap="round" stroke-linejoin="round" stroke-miterlimit="10" d="
		M30.387,292.112c0,0,23.913,5.021,38.987,29.627l49.902,16.807c0,0,4.972-2.451,11.755-7.184"/>
	<path fill="none" stroke="#000000" stroke-width="1.5" stroke-linecap="round" stroke-linejoin="round" stroke-miterlimit="10" d="
		M69.374,321.739c0,0,14.381-6.586,32.054-21.312c4.819-4.016,8.337-6.886,10.905-8.935"/>
	<path fill="none" stroke="#000000" stroke-width="1.5" stroke-linecap="round" stroke-linejoin="round" stroke-miterlimit="10" d="
		M128.06,149.032c0,0-3.515,12.779-1.955,17.717c1.56,4.938,2.771,5.418,4.071,6.891c1.3,1.474,1.646,4.246,1.127,6.845
		c-0.52,2.6-5.978,54.101-5.978,54.101s-1.223,7.027-1.556,10.693s4.668,9.833-1.666,11.333s-13.666-2.167-15,10"/>
	<path fill="none" stroke="#000000" stroke-width="1.5" stroke-linecap="round" stroke-linejoin="round" stroke-miterlimit="10" d="
		M130.185,157.942c0,0,0.25,7.125,7,7.25s15.5-4.125,21.125-19.875"/>
	<path fill="none" stroke="#000000" stroke-width="1.5" stroke-linecap="round" stroke-linejoin="round" stroke-miterlimit="10" d="
		M163.813,140.612c0,0,0.289,20.834-16.787,32.335c-6.205,3.547-5.545,7.584-5.547,17.194c-0.001,4.476-0.82,12.475-1.34,22.351
		c-0.52,9.877-2.418,20.442-3.249,24.821s-2.62,10.254-1.787,14.254s0.666,6.751-0.669,8.75s-5.916,3.708-9.75,8.375
		s-8.166,12-8.166,12"/>
	<path fill="none" stroke="#000000" stroke-width="3" stroke-linecap="round" stroke-linejoin="round" stroke-miterlimit="10" d="
		M77.935,217.942c0,0-50.508,23.919-58.477,38.128c-7.971,14.208-2.426,24.952,4.852,32.575l4.306,3.958"/>
	<path fill="none" stroke="#000000" stroke-width="3" stroke-linecap="round" stroke-linejoin="round" stroke-miterlimit="10" d="
		M110.435,87.692c0,0-4.674,12.977-7.462,34.613c0,0-3.811,26.543-4.158,42.137"/>
	<path fill="none" stroke="#000000" stroke-width="3" stroke-linecap="round" stroke-linejoin="round" stroke-miterlimit="10" d="
		M101.851,441.193c9.438,3.781,13.083,5.165,22.917,7.832c0,0,5.207,5.535,19.271,6.768c42.396-9.768,98.561-56.026,101.064-62.897
		s1.637-12.434,0.818-38.985s1.559-63.937,1.559-63.937s9.877-4.678,15.075-20.272c5.198-15.594-3.119-24.431-3.119-24.431
		s6.237-33.268,16.114-104.481c9.476-68.328-52.349-77.796-84.465-83.502"/>
	<path fill="none" stroke="#000000" stroke-width="3" stroke-linecap="round" stroke-linejoin="round" stroke-miterlimit="10" d="
		M50.268,307.941c-4.336,5.668-4.146,10.716-3.548,23.716s-1.736,22.068-1.736,22.068s6.45,6.815,10.783,9.017
		s7.581,2.788,7.581,2.788s5.214-4.338,9.212-4.338c6.167,0,7.875,3.061,7.875,3.061s7.083-9.894,18.083-4.727
		s13.946,17.59,21.915,18.117c12.81,0.849,15.352,0.21,19.336-1.868c0.333-9.667-4.168-34.164-3.502-39.831"/>
	<path fill="none" stroke="#000000" stroke-width="1.5" stroke-linecap="round" stroke-linejoin="round" stroke-miterlimit="10" d="
		M129.934,354.277c0,0-2.833-11.667,4.5-17.5"/>
	<path fill="none" stroke="#000000" stroke-width="1.5" stroke-linecap="round" stroke-linejoin="round" stroke-miterlimit="10" d="
		M80.934,363.444c0,0-2.333-2.5,2.167-12.667s3.5-11.667,3.5-11.667"/>
	<path fill="none" stroke="#000000" stroke-width="3" stroke-linecap="round" stroke-linejoin="round" stroke-miterlimit="10" d="
		M63.969,365.192c2.231,7.574,5.147,17.084,7.967,26.615"/>
	<path fill="none" stroke="#000000" stroke-width="3" stroke-linecap="round" stroke-linejoin="round" stroke-miterlimit="10" d="
		M71.044,443.875c0,0,0.699-5.774-3.971-6.173c-4.668-0.397-4.153,5.181-7.206,5.289c-3.052,0.106-14.812,0.949-22.885-3.891
		c-2.357-1.412-6.212-5.583-6.212-5.583s0.836-6.935,5.476-8.497c6.552-2.208,19.607,2.594,26.375-5.404
		c5.019-5.93,12.189-37.715,18.445-56.266"/>
	<path fill="none" stroke="#000000" stroke-width="3" stroke-linecap="round" stroke-linejoin="round" stroke-miterlimit="10" d="
		M107.304,366.726c-9.313,14.724-31.207,50.279-29.817,57.017c2.419,7.861-0.096,12.503-0.096,12.503"/>
	<path fill="none" stroke="#000000" stroke-width="3" stroke-linecap="round" stroke-linejoin="round" stroke-miterlimit="10" d="
		M79.232,416.359c0.84,2.794,1.503,4.981,1.919,6.312c3.185,10.232-11.146,20.123-12.077,25.07
		c-0.929,4.944-0.778,7.369,0.452,10.239c1.231,2.871,7.575,3.241,13.221,1.369c5.646-1.869,7.658-4.619,10.579-9.356
		c0.594-0.962-0.598-5.573,1.712-10.847c2.31-5.271,2.742,5.195,3.162,4.377c3.02,0.089,3.574-3.767,3.574-3.767
		s-1.38-9.299-3.519-11.257c-2.138-1.957-3.604-5.991-3.604-5.991l-2.729-29.684"/>
	<path fill="none" stroke="#000000" stroke-width="1.5" stroke-linecap="round" stroke-linejoin="round" stroke-miterlimit="10" d="
		M64.026,418.815c0,0,0.339,6.852,12.113,6.104"/>
	<path fill="none" stroke="#000000" stroke-width="1.5" stroke-linecap="round" stroke-linejoin="round" stroke-miterlimit="10" d="
		M82.268,426.042c0,0,1.195,3.837,3.875,3.788c2.677-0.046,7.23-1.548,8.666-8.111"/>
	<path fill="none" stroke="#000000" stroke-width="3" stroke-linecap="round" stroke-linejoin="round" stroke-miterlimit="10" d="
		M29.344,297.281c-0.535,12.325-2.261,52.046-3.42,78.692c0,0-1.479,28.501,1.9,33.439c0,0,9.609,6.028,15.943,5.362
		c0,0,5.236,1.823,15.458,7.044"/>
	
		<line fill="none" stroke="#000000" stroke-width="1.5" stroke-linecap="round" stroke-linejoin="round" stroke-miterlimit="10" x1="43.768" y1="414.775" x2="46.102" y2="354.44"/>
	
		<line fill="none" stroke="#000000" stroke-width="1.5" stroke-linecap="round" stroke-linejoin="round" stroke-miterlimit="10" x1="124.768" y1="449.775" x2="126.769" y2="378.774"/>
	<path fill="none" stroke="#000000" stroke-width="1.5" stroke-linecap="round" stroke-linejoin="round" stroke-miterlimit="10" d="
		M247.479,290.113c0,0-81.953,43.935-88.367,45.666c-6.413,1.732-13.51,2.459-22.344-0.833"/>
</g>
</svg>
