<?xml version="1.0" encoding="iso-8859-1"?>
<!-- Generator: Adobe Illustrator 19.0.0, SVG Export Plug-In . SVG Version: 6.00 Build 0)  -->
<svg version="1.1" id="Capa_1" xmlns="http://www.w3.org/2000/svg" xmlns:xlink="http://www.w3.org/1999/xlink" x="0px" y="0px"
	 viewBox="0 0 470 470" style="enable-background:new 0 0 470 470;" xml:space="preserve">
<g>
	<path d="M361.362,264.584c-0.005-0.069-0.004-0.138-0.01-0.206c-0.027-0.29-0.071-0.574-0.13-0.853
		c-0.006-0.027-0.014-0.053-0.021-0.08c-0.056-0.252-0.126-0.499-0.207-0.741c-0.022-0.065-0.047-0.129-0.071-0.194
		c-0.075-0.205-0.158-0.406-0.25-0.602c-0.032-0.069-0.065-0.138-0.099-0.206c-0.103-0.202-0.214-0.399-0.334-0.59
		c-0.031-0.05-0.059-0.102-0.092-0.151c-0.156-0.236-0.324-0.463-0.504-0.679c-0.034-0.041-0.073-0.079-0.108-0.119
		c-0.151-0.173-0.309-0.339-0.475-0.497c-0.028-0.027-0.051-0.057-0.08-0.084l-80.975-74.901c-1.386-1.282-3.205-1.994-5.093-1.994
		h-75.352c-1.888,0-3.707,0.712-5.093,1.994l-80.974,74.901c-1.839,1.701-2.707,4.208-2.314,6.682l20.243,127.534
		c0.578,3.643,3.719,6.324,7.407,6.324h196.814c3.688,0,6.829-2.682,7.407-6.324l20.243-127.534
		c0.008-0.049,0.007-0.097,0.014-0.146c0.027-0.196,0.045-0.394,0.057-0.595c0.006-0.098,0.013-0.196,0.015-0.294
		c0.001-0.047,0.007-0.094,0.007-0.141C361.388,264.918,361.373,264.751,361.362,264.584z M334.734,257.588H205.061v-57.401
		c0-1.156-1.17-1.989-2.856-2.5h67.772L334.734,257.588z M124.623,267.872l65.438-60.53v177.781h-46.827L124.623,267.872z
		 M327.241,385.122h-122.18V272.588h140.042L327.241,385.122z"/>
	<path d="M414.767,285.787c-4.126-0.271-7.712,2.836-7.996,6.969C401.405,370.897,345.437,455,235.237,455
		c-48.323,0-90.284-16.546-121.347-47.85c-32.561-32.814-51.018-79.768-50.638-128.823c0.613-79.241,49.577-154.612,66.927-178.853
		l27.666,39.113c3.491,4.917,7.93,3.687,9.208,3.191c1.999-0.773,3.571-2.366,4.32-4.374c0.051-0.136,0.181-0.516,0.384-1.124
		c5.985-17.931,27.638-77.381,63.48-117.756c35.846,40.379,57.497,99.828,63.481,117.759c0.202,0.605,0.331,0.983,0.382,1.119
		c0.759,2.035,2.361,3.641,4.395,4.404c5.416,2.033,8.308-2.05,10.22-4.751l26.58-37.582
		c16.301,22.768,60.487,90.627,66.288,164.383c0.324,4.128,3.906,7.215,8.064,6.889c4.13-0.325,7.214-3.936,6.889-8.065
		c-3.91-49.723-24.241-96.186-40.607-126.408c-17.681-32.646-34.25-53.394-34.947-54.261c-1.475-1.835-3.729-2.879-6.077-2.799
		c-2.353,0.072-4.535,1.245-5.894,3.167c-7.056,9.98-18.07,25.559-25.632,36.249c-10.323-27.724-33.152-80.702-67.76-116.354
		C239.206,0.821,237.265,0,235.237,0c-2.028,0-3.969,0.821-5.381,2.276c-34.606,35.65-57.437,88.631-67.76,116.354
		c-7.562-10.689-18.577-26.269-25.632-36.249c-1.358-1.922-3.541-3.094-5.894-3.167c-2.35-0.075-4.603,0.964-6.077,2.799
		c-0.772,0.961-19.127,23.946-37.802,59.613c-17.309,33.057-38.028,83.587-38.438,136.586
		c-0.41,53.025,19.633,103.872,54.99,139.504C137.184,451.92,182.827,470,235.237,470c53.736,0,100.203-18.929,134.378-54.74
		c30.42-31.877,48.93-75.019,52.12-121.477C422.02,289.65,418.899,286.07,414.767,285.787z"/>
	<path d="M277.018,325.531c-4.135,0-7.5,3.365-7.5,7.5c0,4.135,3.365,7.5,7.5,7.5s7.5-3.365,7.5-7.5
		C284.518,328.896,281.154,325.531,277.018,325.531z"/>
	<path d="M302.724,351.11c-4.135,0-7.5,3.365-7.5,7.5c0,4.135,3.365,7.5,7.5,7.5c4.135,0,7.5-3.365,7.5-7.5
		C310.224,354.475,306.86,351.11,302.724,351.11z"/>
</g>
<g>
</g>
<g>
</g>
<g>
</g>
<g>
</g>
<g>
</g>
<g>
</g>
<g>
</g>
<g>
</g>
<g>
</g>
<g>
</g>
<g>
</g>
<g>
</g>
<g>
</g>
<g>
</g>
<g>
</g>
</svg>
