<?xml version="1.0" encoding="iso-8859-1"?>
<!-- Generator: Adobe Illustrator 17.1.0, SVG Export Plug-In . SVG Version: 6.00 Build 0)  -->
<!DOCTYPE svg PUBLIC "-//W3C//DTD SVG 1.1//EN" "http://www.w3.org/Graphics/SVG/1.1/DTD/svg11.dtd">
<svg version="1.1" id="Capa_1" xmlns="http://www.w3.org/2000/svg" xmlns:xlink="http://www.w3.org/1999/xlink" x="0px" y="0px"
	 viewBox="0 0 214.203 214.203" style="enable-background:new 0 0 214.203 214.203;" xml:space="preserve">
<path d="M162.963,52.164c0,8.208,6.678,14.887,14.887,14.887s14.887-6.678,14.887-14.887c0-8.209-6.678-14.887-14.887-14.887
	S162.963,43.955,162.963,52.164z M177.85,47.276c2.695,0,4.887,2.192,4.887,4.887c0,2.694-2.192,4.887-4.887,4.887
	s-4.887-2.192-4.887-4.887C172.963,49.469,175.156,47.276,177.85,47.276z M197.264,206.125c-0.092-0.118-9.312-12.152-21.215-42.216
	c-11.823-29.861-9.572-63.782-9.548-64.119c0.1-1.385-0.38-2.749-1.326-3.766s-2.272-1.594-3.661-1.594h-29.631
	c-0.154-7.598,0.177-12.354,0.187-12.489c0.104-1.387-0.374-2.756-1.32-3.776c-0.559-0.603-1.259-1.029-2.018-1.295
	c6.548-3.487,11.182-10.111,11.857-17.861c15.479-0.901,27.794-13.779,27.794-29.479c0-16.283-13.247-29.53-29.53-29.53
	s-29.53,13.247-29.53,29.53c0,2.243,0.249,4.447,0.741,6.597c-1.548,0.606-3.029,1.383-4.412,2.316
	c-4.755-2.533-10.047-3.857-15.502-3.857c-18.232,0-33.066,14.833-33.066,33.066c0,3.145,0.451,6.186,1.275,9.07
	c-0.941,0.231-1.809,0.72-2.48,1.442c-0.946,1.019-1.425,2.387-1.321,3.774c0.029,0.396,2.779,39.965-11.649,74.827
	c-14.525,35.097-25.785,49.136-25.89,49.265c-1.227,1.495-1.482,3.563-0.656,5.311c0.826,1.748,2.586,2.863,4.52,2.863h53.25h91.61
	h27.58c1.909,0,3.648-1.092,4.487-2.808C198.65,209.681,198.435,207.632,197.264,206.125z M114.963,142.559L94.43,180.773
	c-0.886,1.649-2.596,2.634-4.403,2.634c-0.405,0-0.814-0.049-1.221-0.152c-2.222-0.559-3.78-2.557-3.78-4.849v-21.109H72.677
	c-1.685,0-3.257-0.849-4.181-2.258c-0.924-1.409-1.076-3.189-0.405-4.734l17.348-39.937c0.944-2.173,3.282-3.385,5.604-2.903
	c2.319,0.482,3.982,2.526,3.982,4.896v22.831h15.533c1.759,0,3.389,0.924,4.292,2.434S115.796,141.009,114.963,142.559z
	 M118.227,69.501l-0.61-0.037c-2.362-0.107-4.511,1.472-5.088,3.786c-0.286,1.148-0.667,2.25-1.111,3.314H68.878
	c-1.154-2.743-1.793-5.755-1.793-8.913c0-12.719,10.347-23.066,23.066-23.066c4.693,0,9.212,1.405,13.068,4.063
	c1.963,1.354,4.612,1.132,6.323-0.531c2.025-1.968,4.674-3.2,7.458-3.468c1.608-0.155,3.042-1.077,3.85-2.476
	c0.808-1.398,0.891-3.101,0.222-4.571c-1.16-2.549-1.748-5.265-1.748-8.072c0-10.769,8.761-19.53,19.53-19.53
	s19.53,8.761,19.53,19.53c0,11.679-10.294,21.037-22.315,19.329c-1.592-0.226-3.203,0.328-4.318,1.493
	c-1.114,1.165-1.599,2.795-1.301,4.38c0.152,0.81,0.226,1.566,0.226,2.313C130.675,63.913,125.086,69.501,118.227,69.501z
	 M168.255,204.203c-3.415-4.805-12.93-19.393-24.536-47.438c-7.555-18.256-10.399-37.8-11.391-52.335h23.988
	c-0.208,11.226,0.513,38.101,10.435,63.16c7.079,17.878,13.254,29.655,17.361,36.613H168.255z"/>
<g>
</g>
<g>
</g>
<g>
</g>
<g>
</g>
<g>
</g>
<g>
</g>
<g>
</g>
<g>
</g>
<g>
</g>
<g>
</g>
<g>
</g>
<g>
</g>
<g>
</g>
<g>
</g>
<g>
</g>
</svg>
