<?xml version="1.0" encoding="iso-8859-1"?>
<!-- Generator: Adobe Illustrator 16.0.0, SVG Export Plug-In . SVG Version: 6.00 Build 0)  -->
<!DOCTYPE svg PUBLIC "-//W3C//DTD SVG 1.1//EN" "http://www.w3.org/Graphics/SVG/1.1/DTD/svg11.dtd">
<svg version="1.1" id="Capa_1" xmlns="http://www.w3.org/2000/svg" xmlns:xlink="http://www.w3.org/1999/xlink" x="0px" y="0px"
	 width="124.5px" height="124.5px" viewBox="0 0 124.5 124.5" style="enable-background:new 0 0 124.5 124.5;" xml:space="preserve"
	>
<g>
	<g>
		<path d="M116.13,0H8.37C3.755,0,0,3.755,0,8.37v107.76c0,4.615,3.755,8.37,8.37,8.37h107.76c4.615,0,8.37-3.755,8.37-8.37V8.37
			C124.5,3.755,120.745,0,116.13,0z M116.479,114.452c0,1.118-0.908,2.026-2.026,2.026H10.048c-1.118,0-2.027-0.908-2.027-2.026
			V10.048c0-1.118,0.909-2.027,2.027-2.027h104.403c1.117,0,2.027,0.909,2.027,2.027V114.452L116.479,114.452z"/>
		<path d="M108.958,30.863H54.665v-2.354c0-2.889-2.342-5.231-5.231-5.231h-1.046c-2.889,0-5.231,2.342-5.231,5.231v2.354h-8.37
			v-2.354c0-2.889-2.342-5.231-5.231-5.231H28.51c-2.889,0-5.231,2.342-5.231,5.231v2.354h-7.737c-1.589,0-2.877,1.289-2.877,2.877
			c0,1.588,1.288,2.877,2.877,2.877h7.737v2.354c0,2.889,2.342,5.231,5.231,5.231h1.046c2.889,0,5.231-2.342,5.231-5.231v-2.354
			h8.37v2.354c0,2.889,2.342,5.231,5.231,5.231h1.046c2.889,0,5.231-2.342,5.231-5.231v-2.354h54.293
			c1.589,0,2.877-1.289,2.877-2.877C111.835,32.152,110.547,30.863,108.958,30.863z"/>
		<path d="M108.958,59.921H93.637v-2.354c0-2.889-2.342-5.231-5.23-5.231h-1.047c-2.889,0-5.23,2.342-5.23,5.231v2.354h-8.37v-2.354
			c0-2.889-2.342-5.231-5.231-5.231h-1.045c-2.89,0-5.231,2.342-5.231,5.231v2.354H38.884v-2.354c0-2.889-2.342-5.231-5.231-5.231
			h-1.046c-2.889,0-5.231,2.342-5.231,5.231v2.354H15.542c-1.589,0-2.877,1.289-2.877,2.877s1.288,2.877,2.877,2.877h11.834v2.354
			c0,2.889,2.342,5.23,5.231,5.23h1.046c2.889,0,5.231-2.342,5.231-5.23v-2.354H62.25v2.354c0,2.889,2.342,5.23,5.23,5.23h1.047
			c2.889,0,5.23-2.342,5.23-5.23v-2.354h8.37v2.354c0,2.889,2.343,5.23,5.231,5.23h1.045c2.89,0,5.232-2.342,5.232-5.23v-2.354
			h15.321c1.589,0,2.877-1.289,2.877-2.877C111.835,61.209,110.547,59.921,108.958,59.921z"/>
		<path d="M108.958,92.354H90.236V90c0-2.889-2.342-5.23-5.231-5.23h-1.046c-2.889,0-5.23,2.342-5.23,5.23v2.354h-8.371V90
			c0-2.889-2.342-5.23-5.23-5.23h-1.046c-2.889,0-5.231,2.342-5.231,5.23v2.354H15.542c-1.589,0-2.877,1.289-2.877,2.877
			c0,1.59,1.288,2.877,2.877,2.877H58.85v2.354c0,2.89,2.342,5.231,5.231,5.231h1.046c2.889,0,5.23-2.342,5.23-5.231v-2.354h8.371
			v2.354c0,2.89,2.342,5.231,5.23,5.231h1.046c2.89,0,5.231-2.342,5.231-5.231v-2.354h18.722c1.589,0,2.877-1.287,2.877-2.877
			C111.835,93.643,110.547,92.354,108.958,92.354z"/>
	</g>
</g>
<g>
</g>
<g>
</g>
<g>
</g>
<g>
</g>
<g>
</g>
<g>
</g>
<g>
</g>
<g>
</g>
<g>
</g>
<g>
</g>
<g>
</g>
<g>
</g>
<g>
</g>
<g>
</g>
<g>
</g>
</svg>
