<?xml version="1.0" encoding="iso-8859-1"?>
<!-- Generator: Adobe Illustrator 18.0.0, SVG Export Plug-In . SVG Version: 6.00 Build 0)  -->
<!DOCTYPE svg PUBLIC "-//W3C//DTD SVG 1.1//EN" "http://www.w3.org/Graphics/SVG/1.1/DTD/svg11.dtd">
<svg version="1.1" id="Capa_1" xmlns="http://www.w3.org/2000/svg" xmlns:xlink="http://www.w3.org/1999/xlink" x="0px" y="0px"
	 viewBox="0 0 60 60" style="enable-background:new 0 0 60 60;" xml:space="preserve">
<g>
	<path d="M57,13.993c0-0.016-0.006-0.03-0.007-0.046c-0.004-0.074-0.013-0.146-0.032-0.216c-0.009-0.03-0.023-0.057-0.035-0.086
		c-0.021-0.054-0.041-0.106-0.071-0.155c-0.018-0.03-0.041-0.056-0.061-0.083c-0.032-0.043-0.065-0.085-0.103-0.122
		c-0.026-0.025-0.056-0.047-0.085-0.069c-0.027-0.021-0.05-0.046-0.079-0.065c-0.017-0.01-0.036-0.015-0.053-0.024
		c-0.014-0.008-0.025-0.019-0.04-0.026l-27-13c-0.284-0.137-0.616-0.132-0.895,0.014l-25,13c-0.011,0.006-0.018,0.015-0.029,0.021
		c-0.011,0.006-0.024,0.009-0.036,0.016c-0.034,0.021-0.06,0.049-0.091,0.074c-0.029,0.023-0.06,0.044-0.087,0.07
		c-0.038,0.038-0.068,0.08-0.099,0.123c-0.02,0.028-0.044,0.053-0.061,0.083c-0.031,0.053-0.052,0.11-0.072,0.168
		c-0.009,0.025-0.022,0.047-0.029,0.073C3.013,13.824,3,13.911,3,14v32c0,0.379,0.214,0.725,0.553,0.895l26,13
		c0.015,0.007,0.031,0.004,0.046,0.011C29.728,59.962,29.862,60,30,60s0.273-0.038,0.401-0.095c0.015-0.007,0.032-0.004,0.046-0.011
		l26-13C56.786,46.725,57,46.379,57,46V14c0-0.001,0-0.002,0-0.004C57,13.995,57,13.994,57,13.993z M29.017,2.118L53.73,14.017
		L30,25.882L6.201,13.983L29.017,2.118z M5,15.618l10.07,5.035C15.029,20.762,15,20.877,15,21c0,0.552,0.448,1,1,1
		c0.353,0,0.648-0.193,0.826-0.469l10.244,5.122C27.029,26.762,27,26.877,27,27c0,0.552,0.448,1,1,1
		c0.353,0,0.648-0.193,0.826-0.469L29,27.618V33v6v6v6v6v0.382l-0.07-0.035C28.971,57.238,29,57.123,29,57c0-0.552-0.448-1-1-1
		c-0.353,0-0.648,0.193-0.826,0.469L16.93,51.347C16.971,51.238,17,51.123,17,51c0-0.552-0.448-1-1-1
		c-0.353,0-0.648,0.193-0.826,0.469L5,45.382V15.618z M55,45.382l-24,12V27.618l24-12V45.382z"/>
	<circle cx="16" cy="27" r="1"/>
	<circle cx="7" cy="18" r="1"/>
	<circle cx="10" cy="21" r="1"/>
	<circle cx="7" cy="24" r="1"/>
	<circle cx="10" cy="27" r="1"/>
	<circle cx="13" cy="24" r="1"/>
	<circle cx="19" cy="24" r="1"/>
	<circle cx="22" cy="27" r="1"/>
	<circle cx="16" cy="39" r="1"/>
	<circle cx="7" cy="30" r="1"/>
	<circle cx="10" cy="33" r="1"/>
	<circle cx="16" cy="33" r="1"/>
	<circle cx="13" cy="30" r="1"/>
	<circle cx="7" cy="36" r="1"/>
	<circle cx="10" cy="39" r="1"/>
	<circle cx="13" cy="36" r="1"/>
	<circle cx="19" cy="30" r="1"/>
	<circle cx="19" cy="36" r="1"/>
	<circle cx="22" cy="39" r="1"/>
	<circle cx="22" cy="33" r="1"/>
	<circle cx="25" cy="30" r="1"/>
	<circle cx="25" cy="36" r="1"/>
	<circle cx="28" cy="39" r="1"/>
	<circle cx="28" cy="33" r="1"/>
	<circle cx="7" cy="42" r="1"/>
	<circle cx="10" cy="45" r="1"/>
	<circle cx="16" cy="45" r="1"/>
	<circle cx="13" cy="42" r="1"/>
	<circle cx="13" cy="48" r="1"/>
	<circle cx="19" cy="42" r="1"/>
	<circle cx="19" cy="48" r="1"/>
	<circle cx="22" cy="51" r="1"/>
	<circle cx="22" cy="45" r="1"/>
	<circle cx="25" cy="42" r="1"/>
	<circle cx="25" cy="48" r="1"/>
	<circle cx="28" cy="51" r="1"/>
	<circle cx="28" cy="45" r="1"/>
	<circle cx="25" cy="54" r="1"/>
</g>
<g>
</g>
<g>
</g>
<g>
</g>
<g>
</g>
<g>
</g>
<g>
</g>
<g>
</g>
<g>
</g>
<g>
</g>
<g>
</g>
<g>
</g>
<g>
</g>
<g>
</g>
<g>
</g>
<g>
</g>
</svg>
