<?xml version='1.0' encoding='iso-8859-1'?>
<svg version="1.1" xmlns="http://www.w3.org/2000/svg" viewBox="0 0 463 463" xmlns:xlink="http://www.w3.org/1999/xlink" enable-background="new 0 0 463 463">
  <path d="m455.5,404h-40.5v-18.025c13.759-3.803 24-17.813 24-34.475 0-19.575-14.131-35.5-31.5-35.5s-31.5,15.925-31.5,35.5c0,16.662 10.241,30.672 24,34.475v18.025h-33v-77.093c14.61-10.177 24-25.847 24-43.407 0-14.572-6.726-51.868-16.738-84.162-14.049-45.312-29.345-67.338-46.762-67.338-13.09,0-24.973,12.511-36.101,38.095-20.912-60.027-51.316-118.376-53.256-122.078-1.295-2.47-3.854-4.017-6.643-4.017s-5.348,1.547-6.643,4.018c-0.16,0.306-16.252,31.083-33.043,70.423-20.5,48.033-33.2,87.555-37.832,117.694-0.712-0.085-1.427-0.135-2.149-0.135-13.114,0-24.481,13.983-34.735,42.716-1.856-14.302-5.684-34.169-10.655-52.091-6.505-23.45-17.24-54.625-35.276-54.625s-28.771,31.175-35.275,54.625c-7.114,25.641-11.892,55.28-11.892,66.875 0,22.739 17.381,41.635 40,44.976v65.524h-56.5c-4.143,0-7.5,3.358-7.5,7.5s3.357,7.5 7.5,7.5h448c4.143,0 7.5-3.358 7.5-7.5s-3.357-7.5-7.5-7.5zm-64.5-52.5c0-11.304 7.402-20.5 16.5-20.5s16.5,9.196 16.5,20.5-7.402,20.5-16.5,20.5-16.5-9.196-16.5-20.5zm-39,52.5h-17v-65.4c5.955-0.615 11.663-1.943 17-3.901v69.301zm-225-38.638c5.102,2.523 10.851,4.29 17,5.111v33.527h-17v-38.638zm32,5.206c9.584-1.167 18.22-4.641 25-9.677v43.109h-25v-33.432zm40-38.507c7.9,3.542 16.332,5.762 25,6.576v65.363h-25v-71.939zm40,6.575c11.964-1.125 23.161-4.913 33-10.763v76.127h-33v-65.364zm64.205-44.824l16.795,16.795v12.899c-10.753-1.387-20.558-5.741-28.026-12.486 4.442-5.205 8.237-10.977 11.231-17.208zm-16.205,32.447c9.381,6.806 20.785,11.103 33,12.353v65.388h-33v-77.741zm27.271-167.587c4.851-7.418 9.673-11.672 13.229-11.672 1.953,0 7.356,1.468 15.327,15.065 5.796,9.887 11.711,24.312 17.107,41.715 10.345,33.365 16.066,68.316 16.066,79.72 0,20.202-17.806,36.994-41,40.014v-16.009c0-0.003 0-0.007 0-0.01v-12.888l21.804-21.804c2.929-2.929 2.929-7.678 0-10.606-2.93-2.929-7.678-2.929-10.607,0l-11.197,11.196v-13.893c0-4.142-3.357-7.5-7.5-7.5s-7.5,3.358-7.5,7.5v29.893l-11.196-11.196c-0.012-0.012-0.025-0.022-0.037-0.034 1.447-5.99 2.234-12.235 2.234-18.663 0-19.072-4.947-42.563-12.263-66.878 5.069-14.517 10.293-25.941 15.533-33.95zm-82.771-90.519c17.676,35.806 64.5,135.899 64.5,191.347 0,33.027-24.957,60.32-57,64.05v-32.045c0-0.003 0-0.007 0-0.01v-20.888l29.804-29.804c2.929-2.929 2.929-7.678 0-10.606-2.93-2.929-7.678-2.929-10.607,0l-19.197,19.196v-29.893c0-4.142-3.357-7.5-7.5-7.5s-7.5,3.358-7.5,7.5v47.995c0,0.003 0,0.007 0,0.01v5.888l-19.196-19.196c-2.93-2.929-7.678-2.929-10.607,0-2.929,2.929-2.929,7.678 0,10.606l29.803,29.804v28.953c-9.828-1.141-19.247-4.511-27.586-9.928-0.041-0.027-0.084-0.047-0.126-0.073-2.084-10.152-5.287-22.252-9.33-33.759-5.9-16.792-12.169-28.66-18.927-35.77 6.981-57.082 47.348-143.222 63.469-175.877zm-100.64,216.62c9.387-26.714 17.824-33.773 20.973-33.773s11.586,7.059 20.973,33.773c7.208,20.513 11.194,41.832 11.194,48.727 0,10.479-10.878,19.554-25,21.904v-15.904c0-4.142-3.357-7.5-7.5-7.5s-7.5,3.358-7.5,7.5v15.793c-13.797-2.52-24.333-11.479-24.333-21.793 0-6.895 3.986-28.214 11.193-48.727zm-91.86,8.727c0-8.979 4.04-36.531 11.346-62.865 10.05-36.229 18.979-43.635 20.821-43.635 1.841,0 10.771,7.406 20.821,43.635 7.305,26.333 11.345,53.887 11.345,62.865 0,14.256-10.371,26.256-24.333,29.581v-15.581c0-4.142-3.357-7.5-7.5-7.5s-7.5,3.358-7.5,7.5v15.728c-14.297-3.099-25-15.246-25-29.728zm40,44.861c10.327-1.673 19.522-6.592 26.422-13.632-0.494,3.558-0.755,6.557-0.755,8.771 0,7.368 2.698,14.241 7.333,20.044v50.456h-33v-65.639z"/>
</svg>
