<?xml version="1.0"?><svg width="890.9375" height="465.1506" xmlns="http://www.w3.org/2000/svg">
 <title>Double Deck Bus</title>

 <metadata id="metadata7">image/svg+xmlDouble Deck Bus</metadata>
 <g>
  <title>Layer 1</title>
  <g display="inline" id="layer2">
   <path fill="#ff0000" id="rect2831" d="m83.999947,-0.000504c-44.320007,0 -80,35.679993 -80,80l-4,264.250015l0,80l80,0l108.749992,0c-1.851898,-6.415833 -2.875,-13.175354 -2.875,-20.1875c0,-40.168213 32.550537,-72.75 72.71875,-72.75c40.168213,0 72.75,32.581787 72.75,72.75c0,7.010864 -1.023743,13.772705 -2.875,20.1875l416.84375,0c-0.521118,-2.632019 -0.966309,-5.284729 -1.375,-7.9375c-0.313538,-2.695129 -0.46875,-5.441711 -0.46875,-8.21875c0,-12.552612 3.18042,-24.352417 8.78125,-34.65625c12.19458,-23.133972 35.711975,-33.592773 59.625,-34.75c37.870972,0 68.59375,30.691528 68.59375,68.5625c0,5.505127 -0.68103,10.870178 -1.90625,16l12.375,0l-16.21875,-201.000015l-15.78125,-142.25c-6.428589,-45.391434 -35.679993,-80 -80,-80l-694.937492,0z"/>
   <path fill="#000000" id="rect2842" d="m821.6026,209.835037l33.857117,0c5.540039,0 10,4.459991 10,10l4,57.142868c0,5.539978 -4.459961,10 -10,10l-37.857117,0c-5.539978,0 -10,-4.460022 -10,-10l0,-57.142868c0,-5.540009 4.460022,-10 10,-10z"/>
   <rect fill="#000000" ry="10" rx="10" y="231.977916" x="195.174047" height="57.857143" width="127.14286" id="rect2844"/>
   <rect fill="#000000" id="rect2846" width="127.14286" height="57.857143" x="467.316907" y="230.549366" rx="10" ry="10"/>
   <rect fill="#000000" ry="10" rx="10" y="41.263636" x="193.745457" height="57.857143" width="127.14286" id="rect2848"/>
   <rect fill="#000000" ry="10" rx="10" y="357.692186" x="523.031197" height="32.142857" width="20" id="rect2850"/>
   <path fill="#000000" stroke="#ff5555" d="m573.267395,394.580933a6.56599,6.56599 0 1 1 -13.131958,0a6.56599,6.56599 0 1 1 13.131958,0z" id="path2852"/>
   <g id="g3777">
    <path fill="#000000" d="m601.656189,249.374496l0,29.531265c0,5.539978 4.460022,10 10,10l107.15625,0c5.539978,0 10,-4.460022 10,-10l0,-29.531265l-127.15625,0z" id="rect2854"/>
    <path fill="#000000" d="m613.593689,233.343246c-3.877991,0 -7,3.122009 -7,7l0,5.5l118.1875,0l0,-5.5c0,-3.877991 -3.122009,-7 -7,-7l-104.1875,0z" id="rect2859"/>
    <rect fill="none" stroke="#000000" id="rect2864" width="132.83505" height="22.728432" x="597.511057" y="226.769306"/>
   </g>
   <g id="g3761">
    <path fill="#000000" id="path2873" d="m331.945465,251.394821l0,29.531265c0,5.539978 4.459991,10 10,10l107.156281,0c5.539978,0 10,-4.460022 10,-10l0,-29.531265l-127.156281,0z"/>
    <path fill="#000000" id="path2875" d="m343.882965,235.363571c-3.877991,0 -7,3.122009 -7,7l0,5.5l118.187531,0l0,-5.5c0,-3.877991 -3.122009,-7 -7,-7l-104.187531,0z"/>
    <rect fill="none" stroke="#000000" y="228.789596" x="327.800327" height="22.728432" width="132.83505" id="rect2877"/>
   </g>
   <g id="g3745">
    <path fill="#000000" d="m329.420074,64.011505l0,29.53125c0,5.540009 4.459991,10 10,10l107.156281,0c5.539978,0 10,-4.459991 10,-10l0,-29.53125l-127.156281,0z" id="path2881"/>
    <path fill="#000000" d="m341.357574,47.980255c-3.877991,0 -7,3.121994 -7,7l0,5.5l118.187531,0l0,-5.5c0,-3.878006 -3.122009,-7 -7,-7l-104.187531,0z" id="path2883"/>
    <rect fill="none" stroke="#000000" id="rect2885" width="132.83505" height="22.728432" x="325.274937" y="41.406306"/>
   </g>
   <g id="g3753">
    <path fill="#000000" id="path2889" d="m463.265259,64.011505l0,29.53125c0,5.540009 4.460022,10 10,10l107.15625,0c5.539978,0 10,-4.459991 10,-10l0,-29.53125l-127.15625,0z"/>
    <path fill="#000000" id="path2891" d="m475.202759,47.980255c-3.877991,0 -7,3.121994 -7,7l0,5.5l118.1875,0l0,-5.5c0,-3.878006 -3.122009,-7 -7,-7l-104.1875,0z"/>
    <rect fill="none" stroke="#000000" y="41.406306" x="459.120127" height="22.728432" width="132.83505" id="rect2893"/>
   </g>
   <g id="g3769">
    <path fill="#000000" d="m597.110474,64.011505l0,29.53125c0,5.540009 4.460022,10 10,10l107.15625,0c5.539978,0 10,-4.459991 10,-10l0,-29.53125l-127.15625,0z" id="path2897"/>
    <path fill="#000000" d="m609.047974,47.980255c-3.877991,0 -7,3.121994 -7,7l0,5.5l118.1875,0l0,-5.5c0,-3.878006 -3.122009,-7 -7,-7l-104.1875,0z" id="path2899"/>
    <rect fill="none" stroke="#000000" id="rect2901" width="132.83505" height="22.728432" x="592.965337" y="41.406306"/>
   </g>
   <path fill="#000000" stroke="#000000" stroke-width="3" stroke-miterlimit="4" id="rect2903" d="m743.881653,43.426636l87.682739,0c5.540039,0 8.125,4.370712 10,10l8,35.558395c0,5.539993 -2.459961,10 -8,10l-97.682739,0c-5.539978,0 -10,-4.460007 -10,-10l0,-35.558395c0,-5.539993 4.460022,-10 10,-10z"/>
   <path fill="#000000" stroke="#000000" stroke-width="2.655544" stroke-miterlimit="4" id="rect2906" d="m172.005524,43.759476c5.540009,0 10,4.460007 10,10l0,36.15538c0,5.539993 -4.459991,10 -10,10l-106.613533,0c-5.539993,0 -7.979691,-5.470154 -7.979691,-11.010147c0,0 3.966675,-25.527267 20,-35.650314c27.376541,-17.284851 70.642754,-9.494919 94.593224,-9.494919z"/>
   <g id="g2917">
    <path opacity="0.5" fill="#000000" stroke="#000000" stroke-width="3" stroke-miterlimit="4" id="path2909" d="m312.142944,409.101868a54.548241,54.548241 0 1 1 -109.096466,0a54.548241,54.548241 0 1 1 109.096466,0z"/>
    <path opacity="0.5" fill="#800000" stroke="#000000" stroke-width="3" stroke-miterlimit="4" d="m288.057159,409.101746a30.461866,30.461866 0 1 1 -60.923721,0a30.461866,30.461866 0 1 1 60.923721,0z" id="path2911"/>
    <path opacity="0.5" fill="#000000" stroke="#000000" stroke-width="3" stroke-miterlimit="4" id="path2913" d="m282.649536,409.101654a25.054716,25.054716 0 1 1 -50.109421,0a25.054716,25.054716 0 1 1 50.109421,0z"/>
    <path opacity="0.5" fill="#000000" stroke="#000000" stroke-width="3" stroke-miterlimit="4" d="m263.478455,409.102325a5.8839,5.8839 0 1 1 -11.767807,0a5.8839,5.8839 0 1 1 11.767807,0z" id="path2915"/>
   </g>
   <g id="g2923">
    <path opacity="0.5" fill="#000000" stroke="#000000" stroke-width="3" stroke-miterlimit="4" d="m865.103943,405.407898a54.548241,54.548241 0 1 1 -109.096497,0a54.548241,54.548241 0 1 1 109.096497,0z" id="path2925"/>
    <path opacity="0.5" fill="#800000" stroke="#000000" stroke-width="3" stroke-miterlimit="4" id="path2927" d="m841.018188,405.407745a30.461866,30.461866 0 1 1 -60.923706,0a30.461866,30.461866 0 1 1 60.923706,0z"/>
    <path opacity="0.5" fill="#000000" stroke="#000000" stroke-width="3" stroke-miterlimit="4" d="m835.610535,405.407654a25.054716,25.054716 0 1 1 -50.109436,0a25.054716,25.054716 0 1 1 50.109436,0z" id="path2929"/>
    <path opacity="0.5" fill="#000000" stroke="#000000" stroke-width="3" stroke-miterlimit="4" id="path2931" d="m816.439453,405.408386a5.8839,5.8839 0 1 1 -11.767822,0a5.8839,5.8839 0 1 1 11.767822,0z"/>
   </g>
   <path fill="none" stroke="#000000" stroke-width="0.5" stroke-miterlimit="4" id="rect2936" d="m643.031189,378.937012c-3.877991,0 -7,3.122009 -7,7l0,26.0625l26.75,0l0,-26.0625c0,-3.877991 -3.122009,-7 -7,-7l-12.75,0z"/>
   <path fill="none" stroke="#000000" stroke-width="0.5" stroke-miterlimit="4" d="m644.123596,381.769714c-3.213501,0 -5.800537,2.587036 -5.800537,5.800476l0,21.596619l22.166321,0l0,-21.596619c0,-3.21344 -2.587036,-5.800476 -5.800537,-5.800476l-10.565247,0z" id="path3715"/>
   <rect fill="none" stroke="#000000" ry="4" rx="4" y="362.335036" x="708.566907" height="24.285715" width="26.607143" id="rect3717"/>
   <rect fill="#000000" id="rect3719" width="20.737921" height="18.928572" x="711.501537" y="365.013596" rx="3.117647" ry="3.117647"/>
   <rect fill="none" stroke="#000000" stroke-miterlimit="4" ry="4" rx="4" y="206.263626" x="741.602607" height="127.85714" width="55.714287" id="rect3721"/>
   <rect fill="#000000" ry="4" rx="4" y="210.549336" x="744.816907" height="58.214287" width="48.57143" id="rect3723"/>
   <rect fill="#ffff00" ry="6" rx="6" y="111.611926" x="171.226697" height="68.690369" width="654.57886" id="rect3725"/>
   <rect fill="none" stroke="#000000" stroke-width="0.5" stroke-miterlimit="4" id="rect3734" width="22.111111" height="35.535713" x="521.975657" y="355.995746" rx="11.055555" ry="11.055555"/>
   <rect fill="none" stroke="#000000" stroke-width="0.462028" stroke-miterlimit="4" y="360.173206" x="37.297917" height="64.323685" width="110.03797" id="rect3736"/>
   <path fill="#000000" d="m53.038795,365.664825a2.525381,2.525381 0 1 1 -5.050766,0a2.525381,2.525381 0 1 1 5.050766,0z" id="path3738"/>
   <path fill="#000000" id="path3740" d="m135.870987,365.664825a2.525381,2.525381 0 1 1 -5.050766,0a2.525381,2.525381 0 1 1 5.050766,0z"/>
  </g>
 </g>
</svg>