<?xml version="1.0" encoding="UTF-8" standalone="no"?>
<!-- Created with Inkscape (http://www.inkscape.org/) -->

<svg
   xmlns:dc="http://purl.org/dc/elements/1.1/"
   xmlns:cc="http://creativecommons.org/ns#"
   xmlns:rdf="http://www.w3.org/1999/02/22-rdf-syntax-ns#"
   xmlns:svg="http://www.w3.org/2000/svg"
   xmlns="http://www.w3.org/2000/svg"
   version="1.1"
   width="387.20883"
   height="997.84009"
   id="svg3187">
  <defs
     id="defs3189" />
  <metadata
     id="metadata3192">
    <rdf:RDF>
      <cc:Work
         rdf:about="">
        <dc:format>image/svg+xml</dc:format>
        <dc:type
           rdf:resource="http://purl.org/dc/dcmitype/StillImage" />
        <dc:title></dc:title>
      </cc:Work>
    </rdf:RDF>
  </metadata>
  <g
     transform="translate(-172.98335,-37.004783)"
     id="layer1">
    <path
       d="m 195.19074,624.0564 c 12.50197,-3.40963 24.43566,-3.40963 29.55009,2.27308 5.11445,5.68271 7.38753,26.14049 22.73084,25.5722 15.34332,-0.56828 25.5722,-13.63851 42.62033,-9.09235 17.04813,4.54617 42.05204,17.04815 84.1041,14.77505 42.05204,-2.27308 104.56185,-36.93761 115.92727,-31.2549 11.36542,5.68271 12.50195,13.63851 18.18466,10.22888 5.68271,-3.40962 11.36542,-19.88949 11.36542,-19.88949 0,0 -50.00783,-144.90909 -48.30303,-182.41497 1.70482,-37.50588 -15.34331,-127.29269 -15.34331,-127.29269 0,0 -154.00142,7.38753 -154.00142,9.66061 0,2.27308 -52.28093,227.87664 -106.83495,307.43458 z"
       id="path3389"
       style="fill:#cc0000;stroke:none" />
    <path
       d="m 309.98148,264.90917 c -9.09234,48.30302 -53.28476,256.39177 -128.99751,355.16933 -10.09674,13.17258 8.52406,39.77898 8.52406,39.77898 0,0 116.49555,-242.65171 120.47345,-394.94831 z"
       id="path3387"
       style="fill:#a40000;stroke:none" />
    <path
       d="m 515.12729,687.13447 c 2.84135,-46.5982 -2.27309,-80.1262 -21.02603,-123.31479 -18.75294,-43.18859 -30.11835,-132.40713 -29.55009,-168.2082 0.56827,-35.80107 7.9558,-51.71265 7.9558,-51.71265 0,0 3.97789,45.46167 10.79714,86.37718 6.81926,40.91551 57.96364,172.75436 56.82709,202.87273 -1.13653,30.11835 -25.00391,53.98573 -25.00391,53.98573 z"
       id="path3391"
       style="fill:#a40000;stroke:none" />
    <path
       d="m 310.72903,189.31661 c 0,0 6.22835,35.96362 39.17825,11.85393 32.94992,-24.1097 34.95906,36.9682 34.95906,36.9682 0,0 -6.07372,9.55647 -19.76862,12.77527 -8.25172,1.93947 -17.19957,-0.11769 -17.19957,-0.11769 0,0 9.04113,-3.0137 11.25118,-11.25118 -9.24205,8.23748 -19.28775,4.21919 -19.28775,4.21919 0,0 13.66216,-5.62559 14.86765,-15.6713 -5.02285,4.01828 -18.68502,15.06856 -38.97734,-2.61188 14.06399,2.21005 20.69415,-5.02286 20.69415,-5.02286 0,0 -28.12798,-1.60731 -25.71701,-31.14168 z"
       id="path3334"
       style="fill:#edd400;stroke:none" />
    <path
       d="m 382.15367,230.24973 c 0,0 -4.55574,22.02509 -11.18784,37.51655 -26.81089,-4.15762 -57.53515,-8.77968 -70.64496,-2.85912 -17.6164,7.95579 -75.93843,102.35659 -105.41426,149.17112 -4.83031,7.67166 43.47095,60.52618 43.47095,60.52618 l 18.75827,-11.93369 -19.33009,-49.43779 c 0,0 33.53687,-32.39855 43.19748,-44.90051 9.6606,-12.50196 22.16434,-23.86737 22.16434,-23.86737 0,0 19.74848,58.98801 15.33976,88.08554 -8.52406,56.25883 -26.70882,50.01 -36.37289,137.52334 -10.17561,92.14561 63.0763,188.09948 73.30517,229.01493 10.22888,40.91555 10.80247,64.20573 10.80247,64.20573 l 64.77756,-6.25267 c 0,0 -3.96901,-41.48381 3.41851,-67.62431 7.38752,-26.1404 51.13374,-167.63279 38.0635,-229.57433 -13.07023,-61.94154 -29.01367,-81.38505 -21.0207,-114.22778 7.11291,-29.2266 13.87292,-35.56489 13.87292,-35.56489 0,0 24.20302,-12.17165 13.97413,-42.85828 l 36.93762,50.00962 -15.91869,40.63314 c 0,0 18.47946,3.1326 19.61599,3.1326 1.13655,0 35.22926,-31.54792 35.22926,-35.24168 0,-3.69376 -26.95011,-52.79137 -30.97788,-69.61319 -9.6606,-40.34723 -2.17194,-56.23744 -36.91984,-67.45021 -15.32586,-4.94548 -41.89838,-9.73355 -62.3784,-13.00275 -0.52451,-15.41404 0.99448,-34.62013 0.99448,-34.62013 z"
       id="path3338"
       style="fill:#729fcf;stroke:none" />
    <path
       d="m 468.81321,240.75765 c 0,0 -23.29911,0 -28.41355,-19.60535 -5.11444,-19.60535 -23.01497,24.15152 -23.01497,24.15152 0,0 -0.33545,12.62863 13.35437,17.6164 5.57446,2.03101 16.76398,0 16.76398,0 0,0 -13.07022,-2.27309 -12.78609,-13.6385 10.51301,5.96684 17.6164,5.96684 17.6164,5.96684 0,0 -8.27227,-3.64463 -9.37647,-13.35437 9.34116,6.07366 17.69567,1.96988 25.85633,-1.13654 z"
       id="path3336"
       style="fill:#edd400;stroke:none" />
    <path
       d="m 479.32621,166.03002 c -4.54616,34.09626 -20.99155,50.64506 -46.56374,72.80762 -18.22449,15.79456 -29.31795,10.21411 -38.10862,5.0455 C 302.3429,189.60757 305.90368,46.804939 403.74618,42.146957 499.70155,37.57882 490.12337,148.41362 479.32621,166.03002 z"
       id="path3260"
       style="fill:#e9b96e;stroke:none" />
    <path
       d="m 404.55592,565.026 c -14.06398,17.68045 -31.3426,40.98649 -28.12797,85.99123 3.21463,45.00478 18.88592,130.19238 18.88592,130.19238 0,0 -10.44753,23.30604 -0.80365,55.05049"
       id="path3340"
       style="fill:none;stroke:#3465a4;stroke-width:2.38673782;stroke-linecap:round;stroke-linejoin:miter;stroke-miterlimit:4;stroke-opacity:1;stroke-dasharray:none" />
    <path
       d="m 349.50547,567.83881 c 5.51353,11.27386 17.72478,27.28082 30.73985,40.18281"
       id="path3342"
       style="fill:none;stroke:#3465a4;stroke-width:2.38673782;stroke-linecap:round;stroke-linejoin:miter;stroke-miterlimit:4;stroke-opacity:1;stroke-dasharray:none" />
    <path
       d="m 353.73834,829.77046 c 0,0 16.47986,-3.40959 41.48378,3.97793 23.29911,61.08912 11.64955,120.75756 11.64955,120.75756 0,0 -15.468,27.67971 -29.26595,33.81211 -25.5722,11.36546 -50.57611,9.09237 -50.57611,9.09237 0,0 51.99679,-34.09628 54.83815,-51.99684 2.35868,-14.85966 -28.12942,-115.64313 -28.12942,-115.64313 z"
       id="path3346"
       style="fill:#a40000;stroke:#cc0000;stroke-width:2.38673782;stroke-linecap:round;stroke-linejoin:round;stroke-miterlimit:4;stroke-opacity:1;stroke-dasharray:none" />
    <path
       d="m 388.97114,823.51944 c 15.23911,-8.46729 33.66184,-12.15591 49.15543,-11.64945 0,0 -7.17536,97.24573 -1.98895,137.23736 5.35324,41.27801 44.32514,79.55795 44.32514,79.55795 0,0 -51.14438,-12.0757 -61.94153,-38.92657 -6.25098,8.52403 -5.25651,26.56667 -5.25651,26.56667 0,0 -12.50196,-38.07412 -7.95579,-59.10019 4.54617,-21.02598 -4.0314,-66.84376 -9.51854,-88.79229 -6.81925,-27.277 -6.81925,-44.89348 -6.81925,-44.89348 z"
       id="path3344"
       style="fill:#a40000;stroke:#cc0000;stroke-width:2.38673782;stroke-linecap:round;stroke-linejoin:round;stroke-miterlimit:4;stroke-opacity:1;stroke-dasharray:none" />
    <path
       d="m 249.17649,430.84429 -40.63138,27.84527 c 0,0 42.05205,36.0852 50.57612,45.17754 7.86983,8.3945 23.29911,26.99287 27.277,24.43564 3.9779,-2.55721 3.69377,-7.95579 3.69377,-7.95579 0,0 7.33433,6.11484 21.02602,9.94474 3.9946,1.1174 11.25039,2.83364 11.79163,0.71034 0.70425,-2.76287 -13.59499,-6.71514 -18.45547,-16.87725 0.53372,-0.0417 5.6218,2.479 21.29682,5.51184 11.9526,2.20678 10.51301,-3.26756 10.51301,-3.26756 0,0 -3.53251,-0.53168 -14.20678,-6.81925 -10.37094,-6.10892 -16.76398,-14.20677 -16.76398,-14.20677 0,0 22.8729,7.95578 31.96523,7.38751 9.09234,-0.56827 -2.27308,-4.11996 -2.27308,-4.11996 0,0 -8.24009,-3.65853 -20.17362,-13.2123 -9.44482,-7.56136 -12.53757,-10.62651 -15.62745,-5.68271 -9.94474,15.91158 -22.4467,20.45776 -22.4467,20.45776 z"
       id="path3348"
       style="fill:#a40000;stroke:#cc0000;stroke-width:2.38673782;stroke-linecap:butt;stroke-linejoin:miter;stroke-miterlimit:4;stroke-opacity:1;stroke-dasharray:none" />
    <path
       d="m 471.25941,499.528 c 0,0 -6.42924,-1.60731 -9.24204,-8.43839 -1.91703,-4.65566 -4.73319,-13.19478 -6.83108,-10.44753 -8.4384,11.05027 -24.10969,21.69872 -29.33347,26.11883 -5.22376,4.42011 3.21463,4.62103 3.21463,4.62103 0,0 -6.52807,4.29647 -5.42468,7.43382 1.63891,4.66004 24.71244,-5.62559 24.71244,-5.62559 0,0 -18.4841,13.05941 -17.0777,16.27404 1.03129,2.35723 30.73985,-11.05028 30.73985,-11.05028 l 2.41098,8.03656 c 0,0 8.84021,-2.81279 18.08226,-9.24205 9.24206,-6.42924 51.43402,-52.23766 51.43402,-52.23766 L 503.8075,442.87022 c -9.30298,23.13848 -16.4065,39.26604 -32.54809,56.65778 z"
       id="path3350"
       style="fill:#a40000;stroke:#cc0000;stroke-width:2.38673782;stroke-linecap:butt;stroke-linejoin:miter;stroke-miterlimit:4;stroke-opacity:1;stroke-dasharray:none" />
    <path
       d="m 428.86654,511.58285 c 10.04571,-7.43383 27.1234,-17.47953 27.1234,-17.47953"
       id="path3352"
       style="fill:none;stroke:#cc0000;stroke-width:2.38673782;stroke-linecap:butt;stroke-linejoin:miter;stroke-miterlimit:4;stroke-opacity:1;stroke-dasharray:none" />
    <path
       d="m 319.21588,262.09777 c -7.79485,-0.009 -14.38851,0.7742 -18.89501,2.80939 -7.12235,3.21655 -20.90001,20.56559 -36.73339,43.18504 21.36361,-0.0174 63.32985,-0.88891 80.21678,-44.20438 -8.77974,-1.0571 -17.22547,-1.78133 -24.58838,-1.79005 z"
       id="path3357"
       style="fill:#204a87;stroke:none" />
    <path
       d="m 471.33313,284.38642 c 1.9715,19.947 7.91896,53.85398 50.92951,62.78861 -6.78736,-33.82908 -2.91492,-48.16913 -34.96819,-58.51237 -4.49426,-1.45025 -9.97004,-2.8874 -15.96132,-4.27624 z"
       id="path3362"
       style="fill:#204a87;stroke:none" />
    <path
       d="m 410.32214,42.008209 c -2.13435,-0.01705 -4.327,0.0297 -6.57596,0.136741 -87.46775,4.164074 -99.57984,118.7272 -35.21682,181.75259 -8.68781,-20.22831 -17.64803,-49.20749 -19.34251,-73.77756 l 0.53452,-0.0248 c 0.69024,-20.17672 16.22148,-38.62477 38.68505,-38.87151 2.36122,-0.0259 4.80423,0.13898 7.30938,0.53453 25.2062,3.97992 31.33837,26.92539 31.33837,26.92539 0,0 8.13091,-19.45505 40.98477,-16.47098 7.5654,0.68715 13.76087,5.44576 17.75136,12.31905 1.52859,-37.256828 -11.66521,-92.014196 -75.46816,-92.523393 z"
       id="path3368"
       style="fill:#a40000;stroke:none" />
    <path
       d="m 408.70612,42.008209 c -1.62253,0.011 -3.27322,0.05647 -4.95994,0.136741 -6.49117,0.309022 -12.56305,1.226206 -18.22373,2.685084 11.5546,12.243811 23.01063,32.68947 20.8218,70.097986 16.37111,7.52848 20.70992,23.75551 20.70992,23.75551 0,0 5.11236,-12.23708 23.61876,-15.81214 2.84575,-15.9326 5.58399,-49.882495 -14.9544,-77.220918 -7.40907,-2.271405 -15.83498,-3.56595 -25.39639,-3.642263 -0.53359,-0.0046 -1.07518,-0.0037 -1.61602,0 z"
       id="path3376"
       style="fill:#729fcf;stroke:none" />
    <path
       d="m 435.85349,398.73697 c 4.11996,5.68271 12.50197,14.91712 29.55009,11.36542"
       id="path3381"
       style="fill:none;stroke:#3465a4;stroke-width:1.98894835;stroke-linecap:round;stroke-linejoin:miter;stroke-miterlimit:4;stroke-opacity:1;stroke-dasharray:none" />
    <path
       d="m 336.12194,383.67779 c 8.66614,8.8082 26.56667,20.03155 56.82709,9.80267"
       id="path3385"
       style="fill:none;stroke:#3465a4;stroke-width:1.98894835;stroke-linecap:round;stroke-linejoin:miter;stroke-miterlimit:4;stroke-opacity:1;stroke-dasharray:none" />
    <path
       d="m 402.60964,372.5965 c -11.13083,11.52621 -11.73567,25.90117 2.27308,28.98183 17.18453,3.77902 45.02841,-10.33569 31.2549,-44.60927 -12.21782,-30.4025 -59.38431,-24.43565 -73.87521,1.98895 -18.01594,32.85257 -11.99465,70.78344 10.22887,103.70945 21.80299,32.30296 55.12228,37.22173 55.12228,37.22173 0,0 -46.75607,-2.12893 -68.47665,-21.59428 -23.81134,-21.33904 -61.1124,-96.6208 -12.78609,-148.31872 36.65347,-39.2107 118.20035,-28.41354 123.03065,33.24385 3.82338,48.80429 -29.25,68.75749 -57.39536,67.3401 -39.49483,-1.98895 -42.90446,-51.14438 -9.37647,-57.96364 z"
       id="path3393"
       style="fill:#a40000;stroke:none" />
    <path
       d="m 363.37054,138.48464 c 0,0 -1.89061,5.59164 3.12016,9.59667 -2.27314,1.82328 -2.93214,3.61438 -0.90746,4.2638 2.8128,1.20546 1.41935,-2.02217 13.11463,-3.77899 15.87167,-2.38419 20.86652,14.42368 23.05937,18.19888 2.06992,3.56356 3.69475,3.94717 3.91573,1.93921 -1.84001,-15.64839 -8.57905,-23.60006 -24.82455,-25.59527 -2.8984,-0.35597 -5.63122,-3.81629 -5.63122,-3.81629 0,0 -0.9982,2.50327 0.60912,4.51242 -2.8128,-0.50229 -4.62361,-1.90256 -5.92955,-4.31353 -0.50229,2.10959 -0.29601,3.7195 0.70856,5.92955 -4.28879,-0.933 -7.23479,-6.93645 -7.23479,-6.93645 z m 93.60487,10.76518 c -0.59424,0.012 -1.19141,0.0589 -1.80249,0.1616 -10.91789,1.83638 -15.62567,11.22513 -15.62567,19.18092 3.83583,0.4262 1.82043,-4.90709 5.96685,-10.37982 5.03853,-6.6502 15.23471,-5.98067 20.31213,-2.54835 3.06517,2.07205 5.38605,4.5117 6.82458,7.02348 0.91368,1.59533 3.4531,0.70042 2.90884,-1.03177 1.83815,-1.30016 4.41052,-2.98623 4.64916,-5.53176 -2.91238,1.02999 -4.93685,1.45264 -6.7127,1.16851 3.23204,-0.4262 4.73264,-3.13082 4.6616,-5.33287 -2.41515,2.20205 -5.07892,1.88417 -7.45855,1.03177 2.05998,-0.071 3.04557,-1.56097 3.54281,-3.69199 -6.45315,3.40034 -11.52225,-0.16622 -17.26656,-0.0497 z"
       id="path3395"
       style="fill:#2e3436;stroke:none" />
    <path
       d="m 427.05831,138.68624 c 0,0 -6.1364,-22.94256 -31.3426,-26.92249 -53.44316,-8.43838 -76.22546,83.39112 20.89507,89.6077 91.55306,5.86022 84.7648,-76.13277 51.43401,-79.16017 -32.85386,-2.98406 -40.98648,16.47496 -40.98648,16.47496 z"
       id="path3262"
       style="opacity:0.6;fill:#2e3436;stroke:none" />
    <path
       d="m 394.40976,222.56789 c 0,0 1.42354,17.37685 12.55713,19.28776 9.45949,1.62357 17.36855,-2.37852 18.08228,-13.36079 0.48012,-7.3876 -30.63941,-5.92697 -30.63941,-5.92697 z"
       id="path3410"
       style="fill:#ef2929;stroke:none" />
    <path
       d="m 394.10839,222.26652 c 0,0 8.94069,-7.23291 13.76263,-8.43839 4.82193,-1.20549 4.52056,4.11873 5.52513,7.33336 1.00457,3.21463 1.50686,2.00915 7.63474,-3.81736 2.88279,-2.74102 5.82651,0.0311 6.93153,4.72148 0.64502,2.73784 1.4064,5.62559 1.4064,5.62559 0,0 -15.36993,4.2192 -35.26043,-5.42468 z"
       id="path3408"
       style="fill:#cc0000;stroke:none" />
    <path
       d="m 429.46928,227.6912 c -6.83108,0.80366 -20.99553,3.61646 -42.49334,-9.14159"
       id="path3412"
       style="fill:none;stroke:#a40000;stroke-width:2.38673782;stroke-linecap:round;stroke-linejoin:miter;stroke-miterlimit:4;stroke-opacity:1;stroke-dasharray:none" />
    <path
       d="m 479.32621,367.48207 c -3.26755,-7.81373 0.71035,-21.87843 1.56275,-25.99839"
       id="path3383"
       style="fill:none;stroke:#3465a4;stroke-width:1.98894835;stroke-linecap:round;stroke-linejoin:miter;stroke-miterlimit:4;stroke-opacity:1;stroke-dasharray:none" />
  </g>
</svg>
