<?xml version="1.0" encoding="utf-8"?>
<!-- Generator: Adobe Illustrator 16.0.0, SVG Export Plug-In . SVG Version: 6.00 Build 0)  -->
<!DOCTYPE svg PUBLIC "-//W3C//DTD SVG 1.1//EN" "http://www.w3.org/Graphics/SVG/1.1/DTD/svg11.dtd">
<svg version="1.1" id="Layer_1" xmlns="http://www.w3.org/2000/svg" xmlns:xlink="http://www.w3.org/1999/xlink" x="0px" y="0px"
	 width="274.486px" height="779.961px" viewBox="0 0 274.486 779.961" enable-background="new 0 0 274.486 779.961"
	 xml:space="preserve">
<g id="colour">
	<path d="M69.812,748.66l0.51,0.149c-1.09,2.391-3.07,4.341-7.01,6.07c-8.4,3.67-17.851,3.67-26.25,3.67
		c-8.4,0-16.84-3.149-16.84-3.149l-0.73-4.79c0.83,0.351,3.271,1.29,7.021,2.149C35.242,754.761,51.042,756.311,69.812,748.66z"/>
	<path d="M197.582,738.36c4.99,4.989,12.602,14.699,47.25,12.601c0,0,5.5-0.32,12.801-3c1.489-0.54,3.061-1.189,4.681-1.95
		c-0.03,0.53-0.08,1.04-0.15,1.521c-0.529,3.681-13.13,7.88-25.729,7.88c-12.602,0-22.74-0.851-32.021-8.93
		c-6.83-5.771-9.46-9.971-17.33-10.5c-7.88-0.521-12.068-6.301-12.068-6.301v-4.439h0.52c0,0,1.84,4.721,5.51,6.301
		C184.723,733.11,192.593,733.371,197.582,738.36z"/>
	<path fill="#D6A630" d="M129.482,352.931h9.729c4.11,4.101,1.351,10.801,0.33,12.891c-3.13,0.14-6.439,0.279-9.93,0.42
		c-3.93,0.14-7.74,0.21-11.43,0.22c0,0-8.261-4.06-2.381-11.59C120.152,354.42,124.712,353.791,129.482,352.931z"/>
	<path d="M147.162,60.341c0,0-0.27,15-0.58,24.68h-0.06c-0.95-7.08-1.37-19.42-1.37-19.42l-1.271-26.98
		c-2.479-0.41-6.061-8.02-6.061-8.02c-5.93,2.58-40.07,2.92-43.4,0.4c-0.43,2.83-6.31,7.08-6.31,7.08
		c-1.66,7.43-1.95,28.51-1.95,28.51c0,2.98-0.5,19.26-0.5,19.26h-0.04c-0.85-9.65-1.46-24.92-1.46-24.92h-0.66l-0.2-11.22
		c0.48-15.98,1.051-24.91,8.521-31.13c5.28-4.39,14.82-6.13,24.72-6.55c12.681-0.54,19.08,2.05,25.959,8.31
		c6.812,6.18,4.65,32.29,5.44,39.91L147.162,60.341z"/>
	<path fill="#282323" d="M81.752,720.11c-4.359,0.63-11.239,0.511-18.7-3.899c-6.039-3.04-11.18-3.439-15.619-2.75
		c-4.65,0.699-8.54,2.59-11.92,3.89c-3.381-2.55-7.9-6.76-7.9-6.76s2.35-3.7,2.89-6.28c1.221-5.949,0.09-24.199,8.48-83.699
		c8.399-59.5,13.399-205.341,13.399-205.341l2.12-54.829l0.761,0.029c0,0,24.68,6.11,62.92,5.99c3.689-0.01,7.5-0.08,11.43-0.22
		c3.49-0.141,6.8-0.28,9.93-0.42c31.2-1.36,44.79-2.351,44.79-2.351l0.761-0.029c1,26.359,4.939,101.159,19.579,211.061
		c11.521,104.229,25.812,126.54,25.812,126.54l-4.2,9.569c0,0-3.97-0.399-9.67,0.09c-4.91,0.431-11.12,1.521-17.19,4.109
		c-9.108,3.891-19.118,4.4-24.398,4.351c-2.33-0.01-3.74-0.149-3.74-0.149l-4.38-15.569c-1.65-25.181-21.12-161.931-21.12-161.931
		l-19.77-121.5c0,0-22.631,117.3-32.921,204.8c-8.26,84.881-6.51,94.07-6.51,94.07S84.762,719.681,81.752,720.11z"/>
	<path fill="#7A5943" d="M83.502,60.931h0.66c0,0,0.61,15.27,1.46,24.92c0.16,1.86,0.33,3.51,0.51,4.8l-0.55,0.04
		c-0.1-0.41-0.21-0.83-0.31-1.26c0,0-4.92,0.85-7.45-7.43c-2.521-8.28-3.66-11.11-2.42-15.24
		C76.632,62.631,83.502,60.931,83.502,60.931z"/>
	<path fill="#7A5943" d="M146.582,85.021c0.312-9.68,0.58-24.68,0.58-24.68l0.78-0.09c0.01,0.09,0.02,0.18,0.03,0.27
		c11.119,3.5,8.52,9.46,8.09,15.34c-0.431,5.87-2.312,7.79-4.38,11.51c-2.062,3.72-4.54,2.48-4.54,2.48
		c-0.142,0.7-0.271,1.38-0.41,2.04l-0.45-0.09C146.383,90.411,146.482,87.96,146.582,85.021z"/>
	<path fill="#7A5943" d="M134.612,121.181c0.18-0.11,0.36-0.23,0.53-0.34l1.779,0.29l-0.04,7.71l-0.21,1.14c0,0-0.29,3.65-0.81,8.3
		c-0.53,4.65-3.83,18.82-7.39,23.56c-4.03,3.67-10.08,13.11-9.851,20.7l-0.08,0.01c-0.27-3.11-0.49-6.45-0.64-10.39
		c-0.101-2.8-0.38-5.12-0.76-7.03c-1.891-9.43-6.431-9.07-6.431-9.07c-9.92-4.2-20.109-27.45-20.109-27.45l0.63,0.22l2.13-13.22
		l0.08-0.05c1.56,2.57,3.29,3.91,6,6.44c6.609,6.2,9.09,10.75,9.09,10.75s4.19,1.65,14.93,0
		C123.462,132.75,128.652,124.92,134.612,121.181z"/>
	<path fill="#7A5943" d="M146.282,91.801l0.45,0.09c-4.24,21.07-6.21,25.4-11.59,28.95c-0.17,0.11-0.351,0.23-0.53,0.34
		c-5.96,3.74-11.15,11.57-11.15,11.57c-10.739,1.65-14.93,0-14.93,0s-2.48-4.55-9.09-10.75c-2.71-2.53-4.44-3.87-6-6.44
		c-2.21-3.62-4.09-9.67-7.86-24.87l0.55-0.04c-0.18-1.29-0.35-2.94-0.51-4.8h0.04c0,0,0.5-16.28,0.5-19.26
		c0,0,0.29-21.08,1.95-28.51c0,0,5.88-4.25,6.31-7.08c3.33,2.52,37.471,2.18,43.4-0.4c0,0,3.58,7.61,6.061,8.02l1.271,26.98
		c0,0,0.42,12.34,1.37,19.42h0.06C146.482,87.96,146.383,90.411,146.282,91.801z M129.072,62.67c7.09-0.26,7.09-2.77,7.09-2.77
		s-3.59-3.89-9.18-3.89c0,0-3.42-0.13-4.91,3.89C122.072,59.9,121.982,62.92,129.072,62.67z M102.982,62.951
		c7.09,0.25,7-2.77,7-2.77c-1.49-4.01-4.91-3.89-4.91-3.89c-5.59,0-9.18,3.89-9.18,3.89S95.893,62.701,102.982,62.951z"/>
	<path fill="#7A5943" d="M169.232,236.371l0.04,0.71c-5.07,19.53-10.562,26.77-13.74,29.44c-1.67,1.4-2.7,1.55-2.7,1.55l-1.01,0.03
		c-1.66-0.85-10.74-5.62-15.43-9.83l-0.521-0.59c15.419-13.55,26.62-21.13,26.62-21.13S165.572,236.561,169.232,236.371z"/>
	<path fill="#7A5943" d="M176.282,209.091c2.101,1.22,5.03,7.93,5.76,11.87c1.972,10.57-1.409,18.36-1.409,18.36l-0.079,0.05
		l-1.461-2.46l-8.619-0.55v-0.05c-0.42,0.03-0.841,0.05-1.24,0.06c-3.66,0.19-6.74,0.18-6.74,0.18s-11.2,7.58-26.62,21.13
		c-0.859,0.76-1.74,1.53-2.63,2.33c-2.29,2.05-4.479,3.91-6.57,5.6c-13.25,10.71-22.21,14.51-22.21,14.51l-1.149-0.33
		c0,0-0.681-24.64-6.75-33.18c-0.851-1.2-1.8-2.08-2.88-2.53l-0.32-1.57c0,0,3.77-1.67,9.43-4.28
		c9.311-4.3,23.771-11.16,35.05-17.37c2.471-1.34,4.78-2.67,6.851-3.92c0,0,5.5-5.44,10.77-9.39c0,0,6.04-2.25,8.062-3.59
		c2.02-1.34,5.06-2.66,6.67-3.92c1.229-0.28,3.17,0.33,3.57,2.77l1.72-0.21L176.282,209.091z"/>
	<path fill="#B2D8D2" d="M117.143,165.131l-0.04,0.01c-0.17-0.37-3.44-7.27-6.391-5.05c-3.029,2.27-11.33,17.5-11.33,17.5
		s-17.6-26.94-21.619-42.61l-0.24-0.31l9.51-7.31l3.57,1.25c0,0,10.189,23.25,20.109,27.45
		C110.712,156.061,115.252,155.701,117.143,165.131z"/>
	<path fill="#B2D8D2" d="M140.452,129.92l5.94,6.33c0,0-0.82,15.88-2.66,24.54c-1.83,8.65-4.96,18.37-4.96,18.37
		c-9.69-8.22-6.28-21-10.3-17.32c3.56-4.74,6.859-18.91,7.39-23.56c0.52-4.65,0.81-8.3,0.81-8.3l0.21-1.14L140.452,129.92z"/>
	<path fill="#B2D8D2" d="M173.582,277c-2.39,2.97-4.31,3.63-4.31,3.63l0.188,0.73l-1.25,0.33l-6.278-4.19l-9.852-5.86v-3.4
		c0,0-0.09-0.05-0.26-0.14l1.01-0.03c0,0,1.03-0.15,2.7-1.55l0.72,0.15c0,0,2.96,4.37,6.512,4.72
		C166.312,271.741,173.582,277,173.582,277z"/>
	<path fill="#B2D8D2" d="M179.093,236.911l1.461,2.46l0.618,1.04l-0.97,1.24c-2.13,10.79,3.08,10.66-0.938,23.79
		c-1.75,5.69-3.852,9.3-5.682,11.56c0,0-7.27-5.26-10.818-5.61c-3.552-0.35-6.512-4.72-6.512-4.72l-0.72-0.15
		c3.18-2.67,8.67-9.91,13.74-29.44l-0.04-0.71c0.399-0.01,0.82-0.03,1.24-0.06v0.05L179.093,236.911z"/>
	<path fill="#7A5943" d="M37.752,222.931c0,0-1.56-0.53-2.06-2.52c-0.5-2,0-3.66,0-3.66c3.99-5.66,22.05-9.07,22.05-9.07l-7.82-2.17
		c0,0-7.899,2.22-11.239,1.74c-3.66-3.58-1.15-5.83-1.15-5.83c5.49-2.45,15.94-4.32,15.94-4.32l15.01,5.35
		c0,0,20.609,8.73,27.859,10.66c3.051-0.32,8.591,1.72,15.301,3.15c2.97,0.63,6.17,1.2,9.489,1.76c5.41,0.91,11.141,1.78,16.71,2.84
		c-11.279,6.21-25.739,13.07-35.05,17.37l-0.1-0.21c-11.45-2.19-14.59-1.24-14.59-1.24c-8.24,4.5-16.74-2.43-16.74-2.43l-1.88,0.03
		l-5.37,0.09c0,0-17.12,7.17-18.29,4.84c-2.771-1.5-1.32-4.78-1.32-4.78c3.49-2.32,15.63-7.81,15.63-7.81l-19.21,2.91
		c0,0-3.239-0.25-3.899-2.91C36.353,224.061,37.752,222.931,37.752,222.931z"/>
	<path fill="#B2D8D2" d="M70.452,249.431c0.43-3.43-0.66-9.84-0.95-14.09l-0.02-0.96l1.88-0.03c0,0,8.5,6.93,16.74,2.43
		c0,0,3.14-0.95,14.59,1.24l0.1,0.21c-5.66,2.61-9.43,4.28-9.43,4.28s-7.38-1.4-13.49,0c-6.12,1.4-6.8,6.92-6.8,6.92l-2.36,0.78
		L70.452,249.431z"/>
	<path fill="#B2D8D2" d="M93.682,244.081c1.08,0.45,2.029,1.33,2.88,2.53c0,0-5.851-1.33-9.7,0c-3.85,1.32-8.05,3.95-8.05,3.95
		l-2.021,4.05l-0.96,0.04c-1.34-3.19-2.76-5.22-2.76-5.22s0.68-5.52,6.8-6.92c6.11-1.4,13.49,0,13.49,0L93.682,244.081z"/>
	<path fill="#B2D8D2" d="M104.462,280.121v4.74c0,0-12.18,7.7-17.08,9.38c-4.899,1.68-7.51-4.48-7.51-4.48
		c-1.979-2.91-1.939-15.39-1.76-24.14c0.08-4.18-1.061-8.06-2.28-10.97l0.96-0.04l2.021-4.05c0,0,4.2-2.63,8.05-3.95
		c3.85-1.33,9.7,0,9.7,0c6.069,8.54,6.75,33.18,6.75,33.18L104.462,280.121z"/>
	<path fill="#B2D8D2" d="M68.482,202.451l-15.01-5.35c0,0-10.45,1.87-15.94,4.32c0,0-2.51,2.25,1.15,5.83
		c3.34,0.48,11.239-1.74,11.239-1.74l7.82,2.17c0,0-18.06,3.41-22.05,9.07c0,0-0.5,1.66,0,3.66c0.5,1.99,2.06,2.52,2.06,2.52
		s-1.399,1.13-0.729,3.79c0.66,2.66,3.899,2.91,3.899,2.91l19.21-2.91c0,0-12.14,5.49-15.63,7.81c0,0-1.45,3.28,1.32,4.78
		c1.17,2.33,18.29-4.84,18.29-4.84l5.37-0.09l0.02,0.96c0.29,4.25,1.38,10.66,0.95,14.09l0.26,0.78l2.36-0.78
		c0,0,1.42,2.03,2.76,5.22c1.22,2.91,2.36,6.79,2.28,10.97c-0.18,8.75-0.22,21.23,1.76,24.14c0,0-18.17,7.69-27.49,7.38
		c-1.399-0.05-2.59-0.27-3.5-0.72c-7-3.5-20.3-28.7-25.899-58.11c-5.601-29.4-2.99-42.72,0-58.21c2.99-15.5,10.64-30.83,10.64-30.83
		l43.49-14.29l0.41-0.31l0.24,0.31c4.02,15.67,21.619,42.61,21.619,42.61s8.301-15.23,11.33-17.5c2.95-2.22,6.221,4.68,6.391,5.05
		l0.04-0.01c0.38,1.91,0.66,4.23,0.76,7.03c0.15,3.94,0.37,7.28,0.64,10.39c0.86,10.06,2.141,17.73,2.65,35.14l-0.061,0.33
		c-3.319-0.56-6.52-1.13-9.489-1.76c-6.71-1.43-12.25-3.47-15.301-3.15C89.092,211.181,68.482,202.451,68.482,202.451z"/>
	<path fill="#B2D8D2" d="M181.172,240.411l-0.618-1.04l0.079-0.05c0,0,3.381-7.79,1.409-18.36c-0.729-3.94-3.659-10.65-5.76-11.87
		l-0.8-6.49l-1.72,0.21c-0.4-2.44-2.342-3.05-3.57-2.77c-1.61,1.26-4.65,2.58-6.67,3.92c-2.021,1.34-8.062,3.59-8.062,3.59
		c-5.27,3.95-10.77,9.39-10.77,9.39c-2.07,1.25-4.38,2.58-6.851,3.92c-5.569-1.06-11.3-1.93-16.71-2.84l0.061-0.33
		c-0.51-17.41-1.79-25.08-2.65-35.14l0.08-0.01c-0.229-7.59,5.82-17.03,9.851-20.7c4.02-3.68,0.609,9.1,10.3,17.32
		c0,0,3.13-9.72,4.96-18.37c1.84-8.66,2.66-24.54,2.66-24.54l47.39,21.21c0,0,8.15,10.15,14.351,36.33
		c4.729,11.97,5.96,24.81,6.479,41.89c0,0-0.59,18.79-4.021,34.91c-2.619,12.26-6.381,22.98-15.761,22.68
		c-4.688-0.64-8.739-2.02-12.18-3.65c-6.17-2.93-10.351-6.66-12.561-8.43l-0.631,0.17l-0.188-0.73c0,0,1.92-0.66,4.31-3.63
		c1.83-2.26,3.932-5.87,5.682-11.56c4.02-13.13-1.19-13,0.938-23.79L181.172,240.411z"/>
	<path fill="#B2D8D2" d="M182.652,316.661c-0.28,22.35,7.25,17.229,6.229,21.39c-1.011,4.16-4.119,14.88-4.119,14.88h-45.551h-9.729
		l0.13-17.97c0,0-4.43,2.76-3.73-24.54c0.62-24.22,0.771-41.27,0.79-44.81c2.091-1.69,4.28-3.55,6.57-5.6
		c0.89-0.8,1.771-1.57,2.63-2.33l0.521,0.59c4.689,4.21,13.77,8.98,15.43,9.83c0.17,0.09,0.26,0.14,0.26,0.14v3.4l9.852,5.86
		l6.278,4.19l1.25-0.33l0.631-0.17c2.211,1.77,6.391,5.5,12.561,8.43C182.652,289.621,182.933,294.321,182.652,316.661z"/>
	<path fill="#B2D8D2" d="M52.382,297.141c9.32,0.311,27.49-7.38,27.49-7.38s2.61,6.16,7.51,4.48c4.9-1.68,17.08-9.38,17.08-9.38
		v-4.74c0,0,8.96-3.8,22.21-14.51c-0.02,3.54-0.17,20.59-0.79,44.81c-0.699,27.3,3.73,24.54,3.73,24.54l-0.13,17.97
		c-4.771,0.86-9.33,1.49-13.681,1.94c-38.979,3.99-60.81-7.23-60.81-7.23c-4.22-9.659-6.11-12.02-2.61-23.22s0-27.27,0-27.27
		V297.141L52.382,297.141z"/>
	<path fill="#5B1A1A" d="M118.182,366.46c-38.24,0.12-62.92-5.99-62.92-5.99l-0.761-0.029l0.49-12.801c0,0,21.83,11.221,60.81,7.23
		C109.922,362.4,118.182,366.46,118.182,366.46z"/>
	<path fill="#5B1A1A" d="M185.093,363.44l-0.761,0.029c0,0-13.59,0.99-44.79,2.351c1.021-2.09,3.78-8.79-0.33-12.891h45.551
		C184.763,352.931,184.822,356.511,185.093,363.44z"/>
	<path fill="#5B1A1A" d="M47.432,713.461c-0.57,2.239-2.62,9.92-6.08,17.649c-4.12,9.181-13.91,14.489-13.91,14.489
		c-2.101,3.851-0.851,6.82-0.851,6.82l-0.079,0.34c-3.75-0.859-6.19-1.8-7.021-2.149l-0.8-5.181
		c0.52-5.779,11.939-11.39,15.09-21.18c0.72-2.2,1.73-6.69,1.73-6.69v-0.21C38.893,716.051,42.782,714.16,47.432,713.461z"/>
	<path fill="#5B1A1A" d="M81.752,720.11v7.471c0,0-8.47,3.149-9.52,11.029c-0.55,4.181-0.66,7.471-1.91,10.199l-0.51-0.149
		c-18.771,7.649-34.57,6.101-43.3,4.101l0.079-0.34c0,0-1.25-2.971,0.851-6.82c0,0,9.79-5.31,13.91-14.489
		c3.46-7.729,5.51-15.41,6.08-17.649c4.439-0.69,9.58-0.29,15.619,2.75C70.512,720.621,77.393,720.74,81.752,720.11z"/>
	<path fill="#5B1A1A" d="M262.162,738.081c0,0,0.391,4.38,0.15,7.93c-1.62,0.761-3.19,1.41-4.681,1.95l-0.021-0.051
		c1.83-6.439-4.21-6.239-4.21-6.239c-33.24-8.311-36.65-29.431-36.65-29.431l-0.14-1.54c5.7-0.489,9.67-0.09,9.67-0.09
		s4.38,17.5,16.45,21.699C254.812,736.511,262.162,738.081,262.162,738.081z"/>
	<path fill="#5B1A1A" d="M253.402,741.671c0,0,6.04-0.2,4.21,6.239l0.021,0.051c-7.301,2.68-12.801,3-12.801,3
		c-34.648,2.1-42.26-7.609-47.25-12.601c-4.989-4.989-12.858-5.25-16.54-6.819c-3.67-1.58-5.51-6.301-5.51-6.301h-0.52v-5.18
		l0.01-0.9c5.279,0.051,15.29-0.46,24.398-4.35c6.07-2.591,12.28-3.681,17.19-4.11l0.14,1.54
		C216.752,712.24,220.162,733.36,253.402,741.671z"/>
	<path d="M128.793,58.71c1.931-0.04,1.271,1.61,0,1.82C127.523,60.74,128.793,58.71,128.793,58.71z"/>
	<path d="M102.983,59.11c1.93-0.06,1.27,1.61,0,1.82C101.713,61.15,102.983,59.11,102.983,59.11z"/>
	<path fill="#FFFFFF" d="M126.983,56.01c5.59,0,9.18,3.89,9.18,3.89s0,2.52-7.09,2.77s-7-2.77-7-2.77
		C123.563,55.88,126.983,56.01,126.983,56.01z M128.793,58.71c0,0-1.27,2.03,0,1.82C130.063,60.32,130.723,58.67,128.793,58.71z"/>
	<path fill="#FFFFFF" d="M102.983,60.931c1.27-0.21,1.93-1.88,0-1.82C102.983,59.11,101.713,61.15,102.983,60.931z M95.893,60.19
		c0,0,3.59-3.89,9.18-3.89c0,0,3.42-0.12,4.91,3.89c0,0,0.09,3.02-7,2.77S95.893,60.19,95.893,60.19z"/>
</g>
<g id="line_1_">
	<path fill="none" stroke="#000000" stroke-width="3" stroke-linecap="round" stroke-linejoin="round" stroke-miterlimit="10" d="
		M147.94,60.255c-0.79-7.62,1.37-33.73-5.44-39.91c-6.88-6.26-13.278-8.85-25.959-8.31c-9.899,0.42-19.439,2.16-24.721,6.55
		c-7.47,6.22-8.04,15.15-8.521,31.13l0.199,11.22c0,0-6.869,1.7-8.1,5.83c-1.24,4.13-0.101,6.96,2.42,15.24
		c2.53,8.28,7.45,7.43,7.45,7.43c0.1,0.43,0.21,0.85,0.31,1.26c6.45,25.99,7.351,25.22,13.86,31.31c6.609,6.2,9.09,10.75,9.09,10.75
		s4.189,1.65,14.931,0c0,0,5.189-7.83,11.149-11.57c5.79-3.63,7.74-7.54,12.12-29.29c0.14-0.66,0.27-1.34,0.41-2.04
		c0,0,2.479,1.24,4.539-2.48c2.069-3.72,3.95-5.64,4.381-11.51c0.43-5.88,3.028-11.84-8.091-15.34
		C147.961,60.436,147.95,60.345,147.94,60.255z"/>
	<path fill="none" stroke="#000000" stroke-width="1.5" stroke-linecap="round" stroke-linejoin="round" stroke-miterlimit="10" d="
		M84.16,60.936c0,0,0.61,15.27,1.46,24.92c0.16,1.86,0.33,3.51,0.511,4.8"/>
	<path fill="none" stroke="#000000" stroke-width="1.5" stroke-linecap="round" stroke-linejoin="round" stroke-miterlimit="10" d="
		M85.66,85.855c0,0,0.5-16.28,0.5-19.26c0,0,0.29-21.08,1.95-28.51c0,0,5.88-4.25,6.31-7.08c3.33,2.52,37.472,2.18,43.4-0.4
		c0,0,3.58,7.61,6.061,8.02l1.271,26.98c0,0,0.42,12.34,1.37,19.42"/>
	<path fill="none" stroke="#000000" stroke-width="1.5" stroke-linecap="round" stroke-linejoin="round" stroke-miterlimit="10" d="
		M147.16,60.345c0,0-0.27,15-0.58,24.68c-0.1,2.94-0.199,5.39-0.3,6.78"/>
	<path fill="none" stroke="#000000" stroke-width="1.5" stroke-linecap="round" stroke-linejoin="round" stroke-miterlimit="10" d="
		M146.811,81.525c0,0,4.16-1.06,3.52-5.97c-0.64-4.91-1.949-9.61,2.142-8.54"/>
	<path fill="none" stroke="#000000" stroke-width="1.5" stroke-linecap="round" stroke-linejoin="round" stroke-miterlimit="10" d="
		M84.49,81.955c0,0-3.54-0.58-2.48-10.67c0,0,1.57-5.56-2.77-3.42"/>
	<path fill="none" stroke="#000000" stroke-width="3" stroke-linecap="round" stroke-linejoin="round" stroke-miterlimit="10" d="
		M94.721,53.416c0,0,2.06-7.85,16.52-7.44"/>
	<path fill="none" stroke="#000000" stroke-width="1.5" stroke-linecap="round" stroke-linejoin="round" stroke-miterlimit="10" d="
		M95.891,60.186c0,0,3.59-3.89,9.18-3.89c0,0,3.42-0.12,4.91,3.89c0,0,0.09,3.02-7,2.77S95.891,60.186,95.891,60.186z"/>
	<path fill="none" stroke="#000000" stroke-width="3" stroke-linecap="round" stroke-linejoin="round" stroke-miterlimit="10" d="
		M102.98,59.115c1.93-0.06,1.27,1.61,0,1.82C101.711,61.146,102.98,59.115,102.98,59.115z"/>
	<path fill="none" stroke="#000000" stroke-width="3" stroke-linecap="round" stroke-linejoin="round" stroke-miterlimit="10" d="
		M124.801,47.955c0,0,10.209,0.36,15.101,8.59"/>
	<path fill="none" stroke="#000000" stroke-width="1.5" stroke-linecap="round" stroke-linejoin="round" stroke-miterlimit="10" d="
		M136.16,59.905c0,0-3.59-3.89-9.18-3.89c0,0-3.42-0.13-4.91,3.89c0,0-0.09,3.02,7,2.77C136.16,62.416,136.16,59.905,136.16,59.905z
		"/>
	<path fill="none" stroke="#000000" stroke-width="3" stroke-linecap="round" stroke-linejoin="round" stroke-miterlimit="10" d="
		M128.791,60.535c-1.271,0.21,0-1.82,0-1.82C130.721,58.666,130.061,60.325,128.791,60.535z"/>
	<path fill="none" stroke="#000000" stroke-width="1.5" stroke-linecap="round" stroke-linejoin="round" stroke-miterlimit="10" d="
		M117.67,54.635c0,0,0.432,11.62,1.49,14.56c1.07,2.94,0.86,6.36,0,10.2"/>
	<path fill="none" stroke="#000000" stroke-width="1.5" stroke-linecap="round" stroke-linejoin="round" stroke-miterlimit="10" d="
		M105.5,85.585c0,0-1.278,4.7,2.392,4.7s1.608,3.63,7.72,4.06c6.12,0.42,4.271-3.34,6.46-4.06c2.18-0.72,4.99-1.49,2.859-4.8"/>
	<path fill="none" stroke="#000000" stroke-width="1.5" stroke-linecap="round" stroke-linejoin="round" stroke-miterlimit="10" d="
		M98.45,96.265c0,0,14.271,12.6,35.229,0"/>
	<path fill="none" stroke="#000000" stroke-width="1.5" stroke-linecap="round" stroke-linejoin="round" stroke-miterlimit="10" d="
		M130.26,92.635c0,0,3.632,4.7,8.121,5.12"/>
	<path fill="none" stroke="#000000" stroke-width="1.5" stroke-linecap="round" stroke-linejoin="round" stroke-miterlimit="10" d="
		M109.24,105.295c0,0,6.641,2.35,11.98,0"/>
	<path fill="none" stroke="#000000" stroke-width="3" stroke-linecap="round" stroke-linejoin="round" stroke-miterlimit="10" d="
		M93.367,115.613l-2.131,13.218l-4.201-1.472l-9.922,7.621L33.62,149.273c0,0-7.646,15.331-10.636,30.822
		c-2.987,15.491-5.602,28.815-0.001,58.216c5.601,29.406,18.9,54.605,25.9,58.106c7,3.5,30.984-6.653,30.984-6.653
		s2.617,6.16,7.518,4.48c4.898-1.68,17.072-9.387,17.072-9.387v-4.74c0,0,12.015-5.088,28.779-20.105
		c16.764-15.016,29.254-23.461,29.254-23.461s17.332,0.04,18.691-2.447"/>
	<path fill="none" stroke="#000000" stroke-width="3" stroke-linecap="round" stroke-linejoin="round" stroke-miterlimit="10" d="
		M136.92,121.129l-0.041,7.707l3.57,1.084l5.947,6.329l47.391,21.212c0,0,8.144,10.154,14.351,36.33
		c4.725,11.969,5.957,24.813,6.475,41.895c0,0-0.588,18.785-4.023,34.902c-2.614,12.266-6.373,22.981-15.752,22.681
		c-13.09-1.796-21.301-9.331-24.748-12.076l-1.877,0.501l-6.274-4.195l-9.853-5.854v-3.402c0,0-10.51-5.319-15.694-9.969"/>
	<path fill="none" stroke="#000000" stroke-width="3" stroke-linecap="round" stroke-linejoin="round" stroke-miterlimit="10" d="
		M170.475,236.363l8.612,0.547l2.084,3.504c0,0,1.488-0.263,8.767-1.404"/>
	<path fill="none" stroke="#000000" stroke-width="3" stroke-linecap="round" stroke-linejoin="round" stroke-miterlimit="10" d="
		M180.631,239.32c0,0,3.377-7.789,1.412-18.355c-0.733-3.947-3.655-10.655-5.756-11.879l-2.274-18.375"/>
	<path fill="none" stroke="#000000" stroke-width="3" stroke-linecap="round" stroke-linejoin="round" stroke-miterlimit="10" d="
		M60.084,253.71l12.988-4.275c0,0,0.68-5.524,6.797-6.924c6.117-1.4,13.498,0,13.498,0s33.971-15.058,51.328-25.57
		c0,0,5.496-5.443,10.768-9.393c0,0,6.041-2.248,8.062-3.589c2.021-1.341,5.061-2.661,6.666-3.917
		c1.799-0.415,5.108,1.084,2.93,7.44"/>
	<path fill="none" stroke="#000000" stroke-width="3" stroke-linecap="round" stroke-linejoin="round" stroke-miterlimit="10" d="
		M137.947,220.878c-9.021-1.716-18.469-2.949-26.301-4.618c-6.72-1.432-12.25-3.473-15.31-3.15
		c-7.244-1.924-27.852-10.658-27.852-10.658l-15.014-5.348c0,0-10.451,1.862-15.938,4.319c0,0-2.51,2.245,1.146,5.824
		c3.336,0.483,11.243-1.734,11.243-1.734l7.816,2.164c0,0-18.062,3.418-22.053,9.071c0,0-0.498,1.663,0,3.658
		c0.498,1.994,2.062,2.522,2.062,2.522s-1.396,1.135-0.731,3.795c0.664,2.659,3.905,2.909,3.905,2.909l19.209-2.909
		c0,0-12.143,5.484-15.635,7.812c0,0-1.447,3.277,1.324,4.772c1.164,2.328,18.289-4.841,18.289-4.841l7.25-0.112
		c0,0,8.498,6.931,16.733,2.426c0,0,3.148-0.951,14.597,1.239"/>
	<path fill="none" stroke="#000000" stroke-width="3" stroke-linecap="round" stroke-linejoin="round" stroke-miterlimit="10" d="
		M69.5,235.343c0.291,4.252,1.385,10.661,0.951,14.092"/>
	
		<line fill="none" stroke="#000000" stroke-width="3" stroke-linecap="round" stroke-linejoin="round" stroke-miterlimit="10" x1="60.441" y1="188.976" x2="62.711" y2="198.935"/>
	<path fill="none" stroke="#000000" stroke-width="1.5" stroke-linecap="round" stroke-linejoin="round" stroke-miterlimit="10" d="
		M152.836,268.066c0,0,8.722-1.225,16.437-30.981"/>
	<path fill="none" stroke="#000000" stroke-width="1.5" stroke-linecap="round" stroke-linejoin="round" stroke-miterlimit="10" d="
		M169.271,280.633c0,0,5.965-2.065,9.99-15.192c4.022-13.131-1.189-12.997,0.944-23.789"/>
	<path fill="none" stroke="#000000" stroke-width="1.5" stroke-linecap="round" stroke-linejoin="round" stroke-miterlimit="10" d="
		M177.336,236.833c0,0-2.639,1.827-2.28,5.502"/>
	<path fill="none" stroke="#000000" stroke-width="1.5" stroke-linecap="round" stroke-linejoin="round" stroke-miterlimit="10" d="
		M156.248,266.667c0,0,2.961,4.376,6.512,4.727c3.552,0.35,10.824,5.605,10.824,5.605"/>
	<path fill="none" stroke="#000000" stroke-width="1.5" stroke-linecap="round" stroke-linejoin="round" stroke-miterlimit="10" d="
		M73.072,249.435c0,0,5.213,7.428,5.039,16.182c-0.176,8.752-0.215,21.229,1.758,24.148"/>
	<path fill="none" stroke="#000000" stroke-width="1.5" stroke-linecap="round" stroke-linejoin="round" stroke-miterlimit="10" d="
		M103.311,279.793c0,0-0.875-32.033-9.625-35.708"/>
	<path fill="none" stroke="#000000" stroke-width="1.5" stroke-linecap="round" stroke-linejoin="round" stroke-miterlimit="10" d="
		M96.562,246.607c0,0-5.853-1.328-9.701,0c-3.853,1.328-8.051,3.953-8.051,3.953l-2.015,4.047"/>
	<path fill="none" stroke="#000000" stroke-width="1.5" stroke-linecap="round" stroke-linejoin="round" stroke-miterlimit="10" d="
		M38.516,222.399c0,0,12.157-4.488,16.471-4.987c4.311-0.499,4.311-0.499,4.311-0.499"/>
	<path fill="none" stroke="#000000" stroke-width="1.5" stroke-linecap="round" stroke-linejoin="round" stroke-miterlimit="10" d="
		M157.982,209.916c0,0,9.467-2.23,15.635-1.312"/>
	<path fill="none" stroke="#000000" stroke-width="1.5" stroke-linecap="round" stroke-linejoin="round" stroke-miterlimit="10" d="
		M90.598,128.607c0,0,10.192,23.254,20.116,27.454c0,0,6.562-0.525,7.191,16.1c0.631,16.625,2.615,22.716,3.285,45.529"/>
	<path fill="none" stroke="#000000" stroke-width="1.5" stroke-linecap="round" stroke-linejoin="round" stroke-miterlimit="10" d="
		M117.115,165.161c0,0-3.373-7.351-6.4-5.075c-3.028,2.275-11.33,17.5-11.33,17.5s-17.6-26.935-21.625-42.605"/>
	<path fill="none" stroke="#000000" stroke-width="1.5" stroke-linecap="round" stroke-linejoin="round" stroke-miterlimit="10" d="
		M118.625,182.536c-0.229-7.588,5.822-17.025,9.849-20.7c4.022-3.675,0.604,9.102,10.297,17.326c0,0,3.131-9.718,4.967-18.375
		c1.838-8.658,2.66-24.538,2.66-24.538"/>
	<path fill="none" stroke="#000000" stroke-width="1.5" stroke-linecap="round" stroke-linejoin="round" stroke-miterlimit="10" d="
		M136.67,129.985c0,0-0.285,3.643-0.809,8.296c-0.525,4.654-3.826,18.824-7.389,23.555"/>
	<path fill="none" stroke="#000000" stroke-width="3" stroke-linecap="round" stroke-linejoin="round" stroke-miterlimit="10" d="
		M52.385,297.152c0,0,3.5,16.064,0,27.266s-1.612,13.564,2.605,23.229c0,0,26.986,13.856,74.49,5.284h55.276
		c0,0,3.113-10.717,4.129-14.878c1.017-4.161-6.51,0.955-6.229-21.39c0.28-22.345,0-27.046,0-27.046"/>
	<path fill="none" stroke="#000000" stroke-width="1.5" stroke-linecap="round" stroke-linejoin="round" stroke-miterlimit="10" d="
		M126.68,264.936c0,0-0.099,18.184-0.798,45.484c-0.696,27.3,3.734,24.539,3.734,24.539l-0.137,18.562"/>
	<path fill="none" stroke="#000000" stroke-width="3" stroke-linecap="round" stroke-linejoin="round" stroke-miterlimit="10" d="
		M54.99,347.646l-2.605,67.628c0,0-4.997,145.839-13.396,205.338c-8.399,59.5-7.263,77.75-8.488,83.698
		c-0.532,2.586-2.888,6.282-2.888,6.282s4.518,4.207,7.896,6.754c6.629-2.536,15.202-7.351,27.54-1.137
		c12.601,7.437,23.537,2.667,23.537,2.667s-1.75-9.19,6.506-94.066c10.296-87.5,32.921-204.805,32.921-204.805l19.771,121.505
		c0,0,19.47,136.752,21.122,161.936l4.376,15.564c0,0,15.014,1.397,28.139-4.202c13.125-5.599,26.863-4.197,26.863-4.197
		l4.199-9.567c0,0-14.292-22.312-25.812-126.543c-18.479-138.771-19.912-221.569-19.912-221.569"/>
	<path fill="none" stroke="#000000" stroke-width="3" stroke-linecap="round" stroke-linejoin="round" stroke-miterlimit="10" d="
		M55.258,360.468c0,0,29.679,7.351,74.359,5.775c38.268-1.575,54.719-2.777,54.719-2.777"/>
	<path fill="none" stroke="#000000" stroke-width="1.5" stroke-linecap="round" stroke-linejoin="round" stroke-miterlimit="10" d="
		M118.186,366.46c0,0-8.261-4.061-2.381-11.589"/>
	<path fill="none" stroke="#000000" stroke-width="1.5" stroke-linecap="round" stroke-linejoin="round" stroke-miterlimit="10" d="
		M139.211,366.46c0,0,4.924-8.625,0-13.529"/>
	<path fill="none" stroke="#000000" stroke-width="3" stroke-linecap="round" stroke-linejoin="round" stroke-miterlimit="10" d="
		M226.283,710.61c0,0,4.375,17.499,16.449,21.697c12.076,4.2,19.426,5.775,19.426,5.775s0.525,5.775,0,9.45
		s-13.125,7.875-25.725,7.875c-12.603,0-22.746-0.854-32.025-8.925c-6.826-5.775-9.451-9.977-17.326-10.5
		c-7.875-0.525-12.074-6.302-12.074-6.302v-9.625"/>
	<path fill="none" stroke="#000000" stroke-width="1.5" stroke-linecap="round" stroke-linejoin="round" stroke-miterlimit="10" d="
		M175.533,725.237c0,0,1.838,4.725,5.512,6.3c3.677,1.575,11.552,1.837,16.537,6.825c4.988,4.986,12.603,14.698,47.25,12.6
		c0,0,8.31-0.492,18.066-5.233"/>
	<path fill="none" stroke="#000000" stroke-width="1.5" stroke-linecap="round" stroke-linejoin="round" stroke-miterlimit="10" d="
		M216.75,712.24c0,0,3.408,21.119,36.65,29.432c0,0,6.037-0.2,4.211,6.242"/>
	<path fill="none" stroke="#000000" stroke-width="3" stroke-linecap="round" stroke-linejoin="round" stroke-miterlimit="10" d="
		M81.754,720.052v7.532c0,0-8.467,3.15-9.518,11.025c-1.049,7.875-0.523,12.595-8.924,16.27c-8.401,3.675-17.851,3.675-26.25,3.675
		c-8.4,0-16.838-3.148-16.838-3.148l-1.537-9.977c0.523-5.773,11.942-11.389,15.093-21.18c0.718-2.201,1.729-6.684,1.729-6.684"/>
	<path fill="none" stroke="#000000" stroke-width="1.5" stroke-linecap="round" stroke-linejoin="round" stroke-miterlimit="10" d="
		M19.186,750.483c0,0,21.812,9.913,50.627-1.819"/>
	<path fill="none" stroke="#000000" stroke-width="1.5" stroke-linecap="round" stroke-linejoin="round" stroke-miterlimit="10" d="
		M47.594,712.812c0,0-2.136,9.106-6.246,18.295c-4.111,9.188-13.91,14.495-13.91,14.495c-2.101,3.851-0.849,6.812-0.849,6.812"/>
</g>
</svg>
