<?xml version="1.0" encoding="utf-8"?>
<!-- Generator: Adobe Illustrator 16.0.0, SVG Export Plug-In . SVG Version: 6.00 Build 0)  -->
<!DOCTYPE svg PUBLIC "-//W3C//DTD SVG 1.1//EN" "http://www.w3.org/Graphics/SVG/1.1/DTD/svg11.dtd">
<svg version="1.1" id="Layer_1" xmlns="http://www.w3.org/2000/svg" xmlns:xlink="http://www.w3.org/1999/xlink" x="0px" y="0px"
	 width="326.984px" height="763.461px" viewBox="0 0 326.984 763.461" enable-background="new 0 0 326.984 763.461"
	 xml:space="preserve">
<g>
	<path fill="#282323" d="M149.328,468.589c-1.569,6.649-2.931,12.852-3.98,18.102c-5.17,25.84-16.88,70.278-16.88,70.278
		s-9.65,35.49-16.54,99.92c-6.89,64.432-1.72,59.61-1.72,59.61l-1.04,11.71c0,0-4.93-4.931-15.09-5.761
		c-0.58-0.05-1.181-0.079-1.79-0.102c-11.37-0.34-34.46,6.21-34.46,6.21l-0.34-4.479c2.409-63.051,9.29-148.5,17.56-216.03
		c8.27-67.529,11.89-118.97,11.89-118.97l0.521-18.44c0,0,6.54-1.779,11.51-4.989c5.16-3.341,11.74-8.101,12.6-9.13
		c3.45,0,8.271,5.51,11.721,4.819c0,0,20.72,3.72,43.41,3.25c4.71-0.1,9.51-0.39,14.22-0.92c1.55-0.18,3.021-0.35,4.398-0.53
		c23.052-3.029,23.5-6.71,23.5-6.71l0.642-0.17c0.43,1.63,0.801,3.38,1,5.08c0.688,5.86,0.35,13.44,0.35,13.44
		c0.342,16.19-2.42,70.22,2.062,125.689c4.479,55.472,16.89,208.79,16.89,208.79s-0.51,0.03-1.438,0.102
		c-1.58,0.141-4.37,0.391-7.87,0.851c-4.103,0.529-9.183,1.33-14.46,2.5c-12.399,2.76-31.7,15.85-31.7,15.85l-2.065-12.061
		c0,0-0.698-13.091-0.698-35.141c0-22.062-6.2-75.46-7.4-104.222c-4.83-23.778-13.96-108.369-13.96-108.369L149.328,468.589z"/>
	<path fill="#D6A630" d="M186.857,356.689c0.5,2.739-1.409,6.21-1.541,6.449c-1.381,0.181-2.85,0.351-4.398,0.53
		c-4.71,0.53-9.51,0.82-14.22,0.92v-0.149c0,0-0.771-1.551-1.552-4.65c-0.77-3.1,1.291-6.46,1.291-6.46l-0.051-1.49
		c4.2-0.16,8.25-0.35,12.03-0.49c0.25-0.01,0.5-0.02,0.75-0.029c1.689-0.07,3.271-0.17,4.74-0.29l0.107,1.27
		C184.016,352.299,186.337,353.849,186.857,356.689z"/>
	<path fill="#B2D8D2" d="M59.788,307.279l0.18,0.34c-2.02,1.05-3.28,1.729-3.28,1.729l0.54,0.801c-0.859,0.58-5.18,3.35-8.12,1.96
		c-4.13-3.45-4.819-16.541-4.819-16.541l3.439-3.45c0,0,1.82-1.12,4.66-2.73l0.51,0.15c0,0,1.73,6.03,1.551,9.82
		C54.276,303.149,54.967,304.359,59.788,307.279z"/>
	<path fill="#B2D8D2" d="M89.427,293.499l-2.07,3.1h-1.38c-6.729,1.3-19.89,7.85-26.01,11.02l-0.18-0.34
		c-4.82-2.92-5.511-4.13-5.34-7.92c0.18-3.791-1.551-9.82-1.551-9.82l-0.51-0.15c7.24-4.11,21.12-11.44,28.18-11.56l0.521-0.52
		c0,0,0,0,2.41,0.69S89.427,293.499,89.427,293.499z"/>
	<path fill="#B2D8D2" d="M228.038,276.519c0,0,0.688,11.37-0.353,11.71c-1.027,0.35-3.438,1.38-3.438,1.38
		c-1.12-0.94-2.271-1.7-3.42-2.31l0.14-0.27c0,0,1.551-3.28,1.9-7.07c0.34-3.79-2.41-8.44-2.41-8.44l0.069-0.18
		c0.971,0.38,1.869,0.85,2.681,1.39L228.038,276.519z"/>
	<path fill="#B2D8D2" d="M220.457,271.519c0,0,2.75,4.65,2.41,8.44c-0.352,3.79-1.899,7.07-1.899,7.07l-0.141,0.27
		c-9.802-5.21-20.011,0.59-20.011,0.59l-0.131,0.02c-0.979-6.03-1.891-12.1-2.631-17.94c0,0,13.9-2.08,22.471,1.37L220.457,271.519z
		"/>
	<path fill="#B2D8D2" d="M179.448,154.199l-0.341,18.95c0,0-3.449-18.6-5.172-18.6c-1.719,0-7.229,7.23-7.229,7.23l-0.15-0.09
		c1.9-3.1,3.631-6.56,3.932-9.21c0.688-6.2-1.721-17.65-1.721-17.65l-1.58-0.13c0.449-0.32,0.879-0.69,1.289-1.1
		c0,0,0.892-1.99,1.84-4.19l0.932,0.4c0,0,1.188,0.89,3.06,2.39l-0.72,0.64C173.587,132.839,179.107,144.209,179.448,154.199z"/>
	<path fill="#B2D8D2" d="M198.057,269.969c0.739,5.84,1.649,11.91,2.629,17.94c4.07,24.92,9.433,49.02,9.433,52.07
		c0,3.319-2.37,7.689-2.972,8.729l-0.648-0.29l-4.649-1.38c0,0-4.358,2.86-17.938,3.99c-1.472,0.12-3.052,0.22-4.74,0.29
		l-0.062-1.351c5.512-3.79,2.762-15.229-2.068-29.35c-4.819-14.13-12.37-83.07-14.09-116.84c-0.78-15.311-1.78-26.57-2.641-34.32
		l0.879-0.1c0,0,2.83-3.51,5.371-7.67l0.149,0.09c0,0,5.511-7.23,7.229-7.23c1.722,0,5.17,18.6,5.17,18.6l0.342-18.95
		c-0.342-9.99-5.86-21.36-5.86-21.36l0.721-0.64c6.119,4.91,19.552,16.4,22.722,25.11c1.72,2.06,4.54,9.32,5.85,14.7
		c2.471,10.09,4.141,25.79,5.17,32.41c1.03,6.63,7.07,31.81,9.312,39.02c4.479,14.47,5.85,29.29,5.85,29.29
		c-0.81-0.54-1.71-1.01-2.68-1.39C211.957,267.889,198.057,269.969,198.057,269.969z"/>
	<path fill="#B2D8D2" d="M142.237,140.079c9.688,9.34,15.81,15.46,16.18,15.84c-0.48-0.37-10.01-7.48-11.01-4.13
		c-1.03,3.45-6.891,14.82-6.891,14.82s-14.47-20.68-20.67-30.67c-6.21-9.99-9.649-19.64-9.649-19.64l-1.15-0.11
		c0.3-0.59,0.97-1.95,2.52-5.05c2.761-5.52,7.801-9.95,9.271-6.2l-0.91,0.9C118.507,108.169,123.976,123.879,142.237,140.079z"/>
	<path fill="#B2D8D2" d="M81.087,277.309l-0.521,0.52c-7.06,0.12-20.939,7.45-28.18,11.56c-2.84,1.61-4.66,2.73-4.66,2.73
		s-9.64-15.85-9.64-26.87c0-6.74-1.69-42.86,3.82-74.17c3.5-19.89,9.149-39.5,11.029-45.39c2.561-8.07,17.29-15.26,33.561-19.12
		c12.37-5.24,22.319-9.92,22.319-9.92s0,0,0.23-0.46l1.15,0.11c0,0,3.439,9.65,9.649,19.64c6.2,9.99,20.67,30.67,20.67,30.67
		s5.86-11.37,6.891-14.82c1-3.35,10.528,3.76,11.01,4.13c0.01,0.01,0.02,0.01,0.02,0.01s0.83,4.21,1.871,13.53
		c0.859,7.75,1.859,19.01,2.641,34.32c1.72,33.77,9.271,102.71,14.09,116.84c4.83,14.12,7.58,25.56,2.068,29.35l0.062,1.351
		c-0.25,0.01-0.5,0.02-0.75,0.029c-3.779,0.141-7.83,0.33-12.029,0.49c-15.711,0.62-33.5,0.99-46.88-1.87l-0.09,0.08
		c-0.561-0.62-1.11-1.229-1.64-1.8c-4.141-4.48-10.341-4.82-15.16-6.2c-4.82-1.38-8.54-19.43-10.09-27.01
		c-1.561-7.58-5.171-18.44-5.171-18.44l2.07-3.1c0,0-3.52-14.81-5.93-15.5S81.087,277.309,81.087,277.309z"/>
	<path fill="#7A5943" d="M168.766,134.829c0,0,2.41,11.45,1.722,17.65c-0.302,2.65-2.03,6.11-3.931,9.21
		c-2.541,4.16-5.371,7.67-5.371,7.67l-0.879,0.1c-1.041-9.32-1.871-13.53-1.871-13.53s-0.01,0-0.02-0.01
		c-0.37-0.38-6.49-6.5-16.18-15.84c-18.261-16.2-23.73-31.91-22.311-34.24l0.91-0.9l0.26,0.13c1.75-0.86,4.16-11.37,4.67-16.68
		c-0.029-1.5-0.029-3.26,0-5.18c0,0,2.28,0.19,4.46-1.17l0.74-0.62c1.18,2.34,2.97,3.66,5.15,3.07
		c-2.95,10.63-2.271,21.81,1.18,28.94c6.91,7.55,11.99,15.52,15.07,20.39c3.38,2.67,10,4.36,14.818,0.88L168.766,134.829z"/>
	<path fill="#7A5943" d="M136.118,84.489c-2.181,0.59-3.971-0.73-5.15-3.07c-1.32-2.62-1.88-6.49-1.36-10.36
		c0.98-7.33,3.53-15.85,10.03-15.13c6.49,0.73,3.01,14.33,3.01,14.33s6.021-11.19,13.48-27.78c0,0,9.811-2.67,14.521-5.74
		c0,0,22.891,10.229,33.301,10.35l-3.16,16.65c0,0-3.649,6.39-3.569,8.229c-0.181-0.18-0.58-0.229-0.891-0.229c0,0,0,0.01-0.011,0
		c-0.141-0.12-0.301-0.25-0.449-0.39c0,0-2.17-1.84-4.94-1.13c-2.068,0.49-3.25,1.21-3.25,1.21s1.25,3.08,7,4.13l0.062,0.11
		c-1.053,2.04-1.95,17.85-4.553,21.5c-2.6,3.65-6.35,7.44-7.459,9.4c-1.631,2.09-2.688,4.42-3.619,5.62
		c-0.939,1.22-1.432,1.25-2.829,2.98c-1.392,1.74-3.462,7.94-4.28,10.23c-0.44,1.12-1.069,2.6-1.68,4.01
		c-0.95,2.2-1.842,4.19-1.842,4.19c-0.408,0.41-0.84,0.78-1.289,1.1c-4.819,3.48-11.439,1.79-14.819-0.88
		c-3.08-4.87-8.16-12.84-15.07-20.39C133.847,106.299,133.167,95.119,136.118,84.489z M178.448,65.449l-0.46-0.3
		c0,0-1.32-0.76-4.99-1.51c-3.66-0.75-7.521-0.2-7.521-0.2c0.262,2.22,4.48,4.27,7.84,5.25c3.369,0.97,4.229-0.91,4.229-0.91
		l0.62-1.89L178.448,65.449z"/>
	<path fill="#7A5943" d="M224.247,289.609c0,0-1.38,41.07-3.101,50.71l1.37,13.439c0,0-1.72,8.271-5.158,14.82
		c-3.449,6.54-6.551,6.2-6.551,6.2s0.34-7.58-0.351-13.44c-0.2-1.7-0.569-3.45-1-5.08c-1.05-4.01-2.44-7.319-2.44-7.319
		s0.051-0.08,0.131-0.23c0.602-1.04,2.972-5.41,2.972-8.729c0-3.051-5.359-27.15-9.433-52.07l0.131-0.02c0,0,10.211-5.8,20.012-0.59
		C221.976,287.909,223.127,288.669,224.247,289.609z"/>
	<path fill="#7A5943" d="M127.766,359.269c0,0-1.029,1.381-4.479,2.07c-3.45,0.69-8.271-4.82-11.721-4.82
		c-0.859,1.03-7.439,5.79-12.6,9.131c-4.97,3.21-11.51,4.989-11.51,4.989c-4.48-4.3-6.21-20.08-6.21-20.08
		c-12.4-19.989-23.87-40.52-23.87-40.52s-0.05,0.04-0.15,0.11l-0.54-0.801c0,0,1.261-0.68,3.28-1.729
		c6.12-3.17,19.28-9.72,26.01-11.02h1.38c0,0,3.61,10.86,5.17,18.44c1.551,7.58,5.271,25.63,10.091,27.01
		c4.819,1.38,11.02,1.72,15.159,6.2c0.53,0.57,1.08,1.18,1.641,1.8C123.307,354.289,127.766,359.269,127.766,359.269z"/>
	<path fill="#5B1A1A" d="M286.607,732.349c1.209,0.722,0.729,4.49,0.328,6.682l-0.67-0.13c-1.379,0.55-2.699,1.05-3.979,1.5
		l-0.16-0.472c0,0,0-4.14-1.029-5.17c-1.029-1.028-14.471-1.72-14.471-1.72c-28.601-2.07-46.17-22.74-46.17-22.74l-0.01-0.09
		c3.5-0.46,6.289-0.71,7.868-0.851l0.07,0.938c0,0,6.539,7.92,19.629,13.78C261.118,729.939,284.887,731.309,286.607,732.349z"/>
	<path fill="#5B1A1A" d="M282.128,739.929l0.158,0.472c-9.898,3.46-17.279,4-30.479,4.351c-35.561,1.43-39.051-11.78-49.041-9.71
		c-12.938,2.6-26.067-0.971-26.067-0.971l-1.24-0.062l0.21-4.76l-1.38-0.69c0,0,19.3-13.09,31.699-15.85
		c5.278-1.17,10.358-1.971,14.461-2.5l0.01,0.09c0,0,17.569,20.67,46.17,22.74c0,0,13.438,0.688,14.471,1.72
		C282.128,735.79,282.128,739.929,282.128,739.929z"/>
	<path fill="#5B1A1A" d="M116.747,739.929v2.762c-2.99,0.521-5.92,0.92-8.78,1.22l-0.17-1.569c0.34-3.79-2.76-6.2-2.76-6.2
		c-10.34-1.72-11.03-12.75-11.03-12.75l0.07-0.938c10.16,0.83,15.09,5.761,15.09,5.761l-0.34,1.04
		C109.856,735.099,116.747,739.929,116.747,739.929z"/>
	<path fill="#5B1A1A" d="M107.797,742.339l0.17,1.569c-25.47,2.688-44.96-2.602-44.96-2.602l-1.05,0.61l-4.12-7.16v-4.818
		l-0.01-1.382c0,0,23.09-6.55,34.46-6.21c0.609,0.021,1.21,0.052,1.79,0.102l-0.07,0.938c0,0,0.69,11.03,11.03,12.75
		C105.038,736.139,108.137,738.549,107.797,742.339z"/>
	<path fill="#5B1A1A" d="M209.457,356.259l-0.641,0.17c0,0-0.449,3.681-23.5,6.71c0.131-0.239,2.039-3.71,1.539-6.449
		c-0.521-2.841-2.84-4.391-2.84-4.391l-0.108-1.27c13.58-1.13,17.938-3.99,17.938-3.99l4.649,1.38l0.648,0.29
		c-0.08,0.15-0.131,0.23-0.131,0.23S208.408,352.249,209.457,356.259z"/>
	<path fill="#5B1A1A" d="M166.697,364.439v0.149c-22.69,0.47-43.41-3.25-43.41-3.25c3.45-0.689,4.479-2.07,4.479-2.07
		s-4.46-4.979-8.35-9.22l0.09-0.08c13.38,2.86,31.17,2.49,46.881,1.87l0.049,1.49c0,0-2.06,3.36-1.289,6.46
		C165.927,362.889,166.697,364.439,166.697,364.439z"/>
	<path d="M286.266,738.899l0.67,0.13c-0.17,0.938-0.328,1.591-0.328,1.591s-3.791,7.92-40.312,7.229
		c-36.521-0.688-29.97-11.368-45.479-9.3c-15.5,2.07-25.488-1.72-25.488-1.72l0.13-2.82l1.24,0.062c0,0,13.13,3.568,26.067,0.971
		c9.99-2.07,13.48,11.14,49.041,9.71c13.199-0.351,20.58-0.891,30.479-4.351C283.566,739.949,284.887,739.449,286.266,738.899z"/>
	<path d="M205.658,34.949c1.229,3.99,0.75,7.22-1.71,12.14c-10.41-0.12-33.302-10.35-33.302-10.35
		c-4.709,3.07-14.521,5.74-14.521,5.74c-7.46,16.59-13.48,27.78-13.48,27.78s3.48-13.6-3.01-14.33c-6.5-0.72-9.05,7.8-10.03,15.13
		c-0.52,3.87,0.04,7.74,1.36,10.36l-0.74,0.62c-2.18,1.36-4.46,1.17-4.46,1.17c0.15-10.93,1.13-27.16,2.2-32.33
		c1.25-6.09,1.271-11.79,8.43-23.79c7.16-12.01,24.161-18.21,50.73-6.52C197.566,25.529,203.766,31.489,205.658,34.949z"/>
	<path d="M193.169,72.47c0.59,0.18-0.17,2.48-0.83,2.3C191.659,74.58,192.589,72.299,193.169,72.47z"/>
	<path d="M174.419,65.85c1.2,0.28,0.26,3.21-0.93,2.58C172.299,67.799,173.219,65.56,174.419,65.85z"/>
	<path fill="#FFFFFF" d="M192.339,74.77c0.66,0.18,1.42-2.12,0.83-2.3C192.589,72.299,191.659,74.58,192.339,74.77z M194.169,74.739
		l0.49,0.82c-5.74-1.06-6.98-4.13-6.98-4.13s1.18-0.72,3.25-1.21c2.76-0.71,4.94,1.13,4.94,1.13c0.149,0.14,0.31,0.27,0.449,0.39
		c-0.25,0-0.43,0.03-0.43,0.03S195.909,72.39,194.169,74.739z"/>
	<path fill="#FFFFFF" d="M174.419,65.85c-1.2-0.29-2.12,1.95-0.93,2.58C174.678,69.06,175.619,66.129,174.419,65.85z
		 M177.549,67.779c0,0-0.86,1.88-4.23,0.91c-3.359-0.98-7.579-3.03-7.84-5.25c0,0,3.86-0.55,7.521,0.2
		c3.67,0.75,4.99,1.51,4.99,1.51l0.46,0.3l-0.28,0.44L177.549,67.779z"/>
	<path d="M116.747,742.689v3.438c-22.391,6.55-52.37,0-52.37,0l-2.42-4.21l1.05-0.61c0,0,19.49,5.29,44.96,2.602
		C110.828,743.609,113.757,743.209,116.747,742.689z"/>
</g>
<g id="line_1_">
	<path fill="none" stroke="#000000" stroke-width="3" stroke-linecap="round" stroke-linejoin="round" d="M121.1,105.073
		c1.742-0.868,4.152-11.377,4.662-16.685c-0.188-10.079,0.959-31.432,2.2-37.511c1.255-6.084,1.274-11.784,8.433-23.789
		c7.157-12.006,24.16-18.206,50.733-6.519c10.438,4.957,16.636,10.917,18.523,14.381c1.23,3.993,0.75,7.22-1.711,12.137
		l-3.153,16.657c0,0-3.646,6.382-3.566,8.229c-0.334-0.333-1.332-0.208-1.332-0.208s0.015,0.625-1.717,2.979l0.561,0.924
		c-1.043,2.038-1.948,17.856-4.549,21.505c-2.601,3.648-6.353,7.433-7.461,9.394c-1.625,2.093-2.688,4.422-3.621,5.627
		c-0.937,1.215-1.426,1.241-2.819,2.977c-1.394,1.735-3.462,7.936-4.288,10.229c-1.125,2.849-3.516,8.2-3.516,8.2
		c-4.851,4.886-12.418,3.142-16.113,0.217c-3.074-4.868-8.152-12.833-15.071-20.392c-3.443-7.124-4.123-18.302-1.18-28.933
		c-4.62,1.26-7.482-6.114-6.506-13.436c0.979-7.331,3.533-15.845,10.026-15.123c6.492,0.722,3.012,14.331,3.012,14.331
		s6.021-11.199,13.484-27.787c0,0,9.808-2.664,14.519-5.733c0,0,22.892,10.224,33.296,10.343"/>
	<path fill="none" stroke="#000000" stroke-width="3" stroke-linecap="round" stroke-linejoin="round" d="M163.796,53.389
		c0,0,9.547-0.159,19.876,1.003"/>
	<path fill="none" stroke="#000000" stroke-width="3" stroke-linecap="round" stroke-linejoin="round" d="M194.009,58.243
		c0,0,6.559,1.513,6.779,5.5"/>
	<path fill="none" stroke="#000000" stroke-width="1.5" stroke-linecap="round" stroke-linejoin="round" d="M178.917,59.556
		c0,0-0.624,1.458-0.457,3.042s0.791,3.375,0.791,3.375l-1.267-0.828c0,0-1.317-0.756-4.983-1.506s-7.525-0.2-7.525-0.2
		c0.266,2.221,4.479,4.269,7.848,5.247c3.367,0.977,4.228-0.903,4.228-0.903l0.619-1.894"/>
	<path fill="none" stroke="#000000" stroke-width="2" stroke-linecap="round" stroke-linejoin="round" d="M174.42,65.85
		c1.198,0.276,0.259,3.208-0.929,2.583C172.296,67.802,173.223,65.564,174.42,65.85z"/>
	<path fill="none" stroke="#000000" stroke-width="1.5" stroke-linecap="round" stroke-linejoin="round" d="M198.502,73.264
		c0,0-1.177-0.581-2.631-1.916c0,0-2.18-1.841-4.944-1.126c-2.066,0.489-3.246,1.207-3.246,1.207s1.254,3.108,7.084,4.153"/>
	<path fill="none" stroke="#000000" stroke-width="2" stroke-linecap="round" stroke-linejoin="round" d="M193.169,72.473
		c0.594,0.18-0.167,2.48-0.831,2.293C191.663,74.575,192.586,72.296,193.169,72.473z"/>
	<path fill="none" stroke="#000000" stroke-width="1.5" stroke-linecap="round" stroke-linejoin="round" d="M186.594,65.288
		c0,0-3.132,8.699-2.074,15.062c0.416,6.034-1.635,7.245-1.438,9.357s1.912,6.593,0.812,8.675c-1.1,2.082-4.109,3.3-6.187,3.425
		c-0.952,0.05-3.03-1.559-3.627-2.027c0,0-1.714-1.999-2.604-3.104c-2.062-0.913-2.309,0.327-4.489-0.161
		c-2.188-0.479-2.155-3.464-0.688-5.327"/>
	<path fill="none" stroke="#000000" stroke-width="1.5" stroke-linecap="round" stroke-linejoin="round" d="M158.925,103.396
		c6.992-0.742,10.918,2.652,13.751,3.743c2.833,1.091,7.186,2.681,7.186,2.681"/>
	<path fill="none" stroke="#000000" stroke-width="1.5" stroke-linecap="round" stroke-linejoin="round" d="M136.114,84.492
		c0,0,3.021-2.01-0.096-6.411"/>
	<path fill="none" stroke="#000000" stroke-width="1.5" stroke-linecap="round" stroke-linejoin="round" d="M139.206,76.816
		c0,0-3.866-3.23,0.663-8.434c1.728-4.118,0.935-7.029-1.094-7.301"/>
	<path fill="none" stroke="#000000" stroke-width="1.5" stroke-linecap="round" stroke-linejoin="round" d="M125.765,83.213
		c0,0,2.28,0.182,4.461-1.177"/>
	<path fill="none" stroke="#000000" stroke-width="3" stroke-linecap="round" stroke-linejoin="round" stroke-miterlimit="10" d="
		M120.833,104.935c-1.465-3.748-6.506,0.689-9.262,6.202c-2.755,5.512-2.755,5.512-2.755,5.512c0,0.001-9.95,4.676-22.319,9.92
		c-16.268,3.862-30.996,11.055-33.562,19.124c-1.874,5.89-7.524,25.495-11.023,45.39c-5.51,31.312-3.827,67.423-3.827,74.164
		c0,11.026,9.647,26.875,9.647,26.875l-3.444,3.445c0,0,0.688,13.094,4.822,16.54c3.274,1.55,8.271-2.067,8.271-2.067
		s11.47,20.533,23.872,40.518c0,0,1.725,15.78,6.203,20.087c0,0,6.543-1.784,11.509-4.994c5.16-3.334,11.748-8.099,12.607-9.131
		c3.446,0,8.271,5.513,11.717,4.822c3.443-0.688,4.479-2.065,4.479-2.065s-5.855-6.545-9.991-11.025
		c-4.135-4.479-10.337-4.822-15.16-6.201c-4.822-1.379-8.541-19.433-10.094-27.013c-1.552-7.579-5.167-18.434-5.167-18.434
		l2.067-3.101c0,0-3.513-14.815-5.924-15.504c-2.413-0.69-2.413-0.69-2.413-0.69l-5.366-12.75c0,0,0.613-1.799,2.335-8
		c1.725-6.202,3.121-18.089,5.909-30.878c2.788-12.789,4.922-29.123,4.922-29.123"/>
	
		<line fill="none" stroke="#000000" stroke-width="1.5" stroke-linecap="round" stroke-linejoin="round" stroke-miterlimit="10" x1="108.989" y1="353.762" x2="112.607" y2="355.83"/>
	<path fill="none" stroke="#000000" stroke-width="1.5" stroke-linecap="round" stroke-linejoin="round" stroke-miterlimit="10" d="
		M56.688,309.349c0,0,20.334-11.023,29.291-12.747"/>
	<path fill="none" stroke="#000000" stroke-width="1.5" stroke-linecap="round" stroke-linejoin="round" stroke-miterlimit="10" d="
		M47.731,292.122c0,0,23.018-14.124,32.837-14.297"/>
	<path fill="none" stroke="#000000" stroke-width="1.5" stroke-linecap="round" stroke-linejoin="round" stroke-miterlimit="10" d="
		M52.899,289.539c0,0,1.725,6.028,1.552,9.819c-0.173,3.79,0.519,4.997,5.341,7.925"/>
	<path fill="none" stroke="#000000" stroke-width="1.5" stroke-linecap="round" stroke-linejoin="round" stroke-miterlimit="10" d="
		M119.928,105.838c-1.422,2.326,4.051,18.043,22.312,34.239c9.992,9.647,16.193,15.849,16.193,15.849s2.789,14.092,4.514,47.857
		c1.723,33.766,9.271,102.706,14.093,116.833c4.823,14.127,7.579,25.564,2.065,29.354"/>
	<path fill="none" stroke="#000000" stroke-width="1.5" stroke-linecap="round" stroke-linejoin="round" stroke-miterlimit="10" d="
		M158.433,155.926c0,0-9.994-7.582-11.027-4.136s-6.89,14.816-6.89,14.816s-14.471-20.672-20.674-30.665
		c-6.201-9.992-9.646-19.639-9.646-19.639"/>
	<path fill="none" stroke="#000000" stroke-width="1.5" stroke-linecap="round" stroke-linejoin="round" stroke-miterlimit="10" d="
		M161.187,169.362c0,0,8.613-10.68,9.305-16.882c0.688-6.202-1.725-17.653-1.725-17.653"/>
	<path fill="none" stroke="#000000" stroke-width="1.5" stroke-linecap="round" stroke-linejoin="round" stroke-miterlimit="10" d="
		M173.593,132.841c0,0,5.514,11.369,5.857,21.36l-0.349,18.95c0,0-3.442-18.605-5.168-18.605c-1.723,0-7.231,7.234-7.231,7.234"/>
	<path fill="none" stroke="#000000" stroke-width="3" stroke-linecap="round" stroke-linejoin="round" stroke-miterlimit="10" d="
		M171.247,129.809c0,0,21.643,16.127,25.774,27.497c1.724,2.066,4.539,9.322,5.855,14.7c2.473,10.097,4.135,25.789,5.168,32.418
		c1.034,6.63,7.073,31.807,9.307,39.017c4.479,14.47,5.856,29.286,5.856,29.286l4.823,3.789c0,0,0.688,11.371-0.347,11.715
		c-1.033,0.345-3.443,1.378-3.443,1.378s-1.378,41.068-3.102,50.715l1.377,13.438c0,0-1.723,8.27-5.168,14.815
		c-3.443,6.546-6.547,6.201-6.547,6.201s0.346-7.58-0.344-13.438c-0.689-5.854-3.445-12.403-3.445-12.403s3.103-5.166,3.103-8.956
		c0-3.791-8.271-40.035-12.06-70.01c-3.791-29.975-5.168-79.934-5.168-79.934"/>
	<path fill="none" stroke="#000000" stroke-width="1.5" stroke-linecap="round" stroke-linejoin="round" stroke-miterlimit="10" d="
		M200.814,287.885c0,0,12.748-7.232,23.43,1.724"/>
	<path fill="none" stroke="#000000" stroke-width="1.5" stroke-linecap="round" stroke-linejoin="round" stroke-miterlimit="10" d="
		M198.058,269.97c0,0,17.23-2.585,25.15,2.757"/>
	<path fill="none" stroke="#000000" stroke-width="1.5" stroke-linecap="round" stroke-linejoin="round" stroke-miterlimit="10" d="
		M220.454,271.522c0,0,2.758,4.647,2.412,8.438c-0.347,3.79-1.896,7.065-1.896,7.065"/>
	<path fill="none" stroke="#000000" stroke-width="1.5" stroke-linecap="round" stroke-linejoin="round" stroke-miterlimit="10" d="
		M198.058,268.246c0,0,4.133-3.101,9.99-2.756"/>
	<path fill="none" stroke="#000000" stroke-width="3" stroke-linecap="round" stroke-linejoin="round" stroke-miterlimit="10" d="
		M206.496,348.42l-4.647-1.377c0,0-5.515,3.616-23.43,4.306c-17.917,0.688-41.953,2.239-58.916-1.378"/>
	<path fill="none" stroke="#000000" stroke-width="1.5" stroke-linecap="round" stroke-linejoin="round" stroke-miterlimit="10" d="
		M123.288,361.34c0,0,30.231,5.427,57.624,2.326c27.392-3.102,27.906-7.235,27.906-7.235"/>
	<path fill="none" stroke="#000000" stroke-width="1.5" stroke-linecap="round" stroke-linejoin="round" stroke-miterlimit="10" d="
		M166.439,353.331c0,0-2.064,3.359-1.291,6.46c0.775,3.101,1.553,4.651,1.553,4.651"/>
	<path fill="none" stroke="#000000" stroke-width="1.5" stroke-linecap="round" stroke-linejoin="round" stroke-miterlimit="10" d="
		M184.012,352.296c0,0,2.326,1.551,2.842,4.395c0.52,2.842-1.549,6.46-1.549,6.46"/>
	<path fill="none" stroke="#000000" stroke-width="3" stroke-linecap="round" stroke-linejoin="round" stroke-miterlimit="10" d="
		M87.455,370.643l-0.516,18.437c0,0-3.619,51.438-11.89,118.97c-8.27,67.532-15.157,152.977-17.562,216.027l0.344,4.479
		c0,0,23.089-6.546,34.458-6.202c11.371,0.346,16.88,5.856,16.88,5.856l1.034-11.714c0,0-5.167,4.822,1.722-59.606
		c6.891-64.429,16.54-99.916,16.54-99.916s11.714-44.444,16.882-70.286c5.168-25.841,17.769-74.704,27.07-87.797"/>
	<path fill="none" stroke="#000000" stroke-width="3" stroke-linecap="round" stroke-linejoin="round" stroke-miterlimit="10" d="
		M150.171,468.772c0,0,9.129,84.591,13.951,108.362c1.202,28.766,7.399,82.167,7.399,104.22c0,22.051,0.701,35.144,0.701,35.144
		l2.065,12.059c0,0,19.295-13.092,31.697-15.849c12.404-2.757,23.773-3.445,23.773-3.445s-12.416-153.319-16.895-208.792
		c-4.48-55.471-1.726-109.501-2.062-125.69"/>
	<path fill="none" stroke="#000000" stroke-width="3" stroke-linecap="round" stroke-linejoin="round" stroke-miterlimit="10" d="
		M57.834,729.937v4.822l6.547,11.371c0,0,29.976,6.547,52.371,0v-6.203c0,0-6.892-4.824-7.924-10.682"/>
	<path fill="none" stroke="#000000" stroke-width="1.5" stroke-linecap="round" stroke-linejoin="round" stroke-miterlimit="10" d="
		M63.003,741.306c0,0,24.117,6.547,53.748,1.379"/>
	<path fill="none" stroke="#000000" stroke-width="1.5" stroke-linecap="round" stroke-linejoin="round" stroke-miterlimit="10" d="
		M94.01,723.391c0,0,0.688,11.023,11.025,12.747c0,0,3.1,2.411,2.756,6.201"/>
	<path fill="none" stroke="#000000" stroke-width="3" stroke-linecap="round" stroke-linejoin="round" stroke-miterlimit="10" d="
		M175.668,729.246l-0.345,7.582c0,0,9.991,3.787,25.496,1.719c15.505-2.064,8.958,8.616,45.479,9.305
		c36.52,0.69,40.311-7.232,40.311-7.232s1.726-7.236,0-8.271c-1.723-1.033-25.496-2.411-38.59-8.27
		c-13.092-5.855-19.639-13.78-19.639-13.78"/>
	<path fill="none" stroke="#000000" stroke-width="1.5" stroke-linecap="round" stroke-linejoin="round" stroke-miterlimit="10" d="
		M176.701,734.072c0,0,13.127,3.568,26.066,0.967c9.992-2.068,13.479,11.139,49.041,9.715c14.895-0.393,22.389-1.039,34.455-5.856"
		/>
	<path fill="none" stroke="#000000" stroke-width="1.5" stroke-linecap="round" stroke-linejoin="round" stroke-miterlimit="10" d="
		M220.457,710.298c0,0,17.573,20.672,46.169,22.739c0,0,13.438,0.688,14.471,1.723c1.035,1.033,1.035,5.168,1.035,5.168"/>
</g>
</svg>
