<?xml version="1.0" encoding="utf-8"?>
<!-- Generator: Adobe Illustrator 16.0.0, SVG Export Plug-In . SVG Version: 6.00 Build 0)  -->
<!DOCTYPE svg PUBLIC "-//W3C//DTD SVG 1.1//EN" "http://www.w3.org/Graphics/SVG/1.1/DTD/svg11.dtd">
<svg version="1.1" id="Layer_1" xmlns="http://www.w3.org/2000/svg" xmlns:xlink="http://www.w3.org/1999/xlink" x="0px" y="0px"
	 width="577.585px" height="814.062px" viewBox="0 0 577.585 814.062" enable-background="new 0 0 577.585 814.062"
	 xml:space="preserve">
<g>
	<path d="M194.088,771.53v3.438c-22.4,6.551-52.37,0-52.37,0l-2.431-4.22l1.051-0.6c0,0,19.49,5.29,44.959,2.6
		C188.159,772.45,191.098,772.05,194.088,771.53z"/>
	<path d="M364.388,769.59c0.72-0.27,1.46-0.55,2.21-0.85l0.88,0.13c-0.09,0.61-0.26,1.16-0.529,1.59c0,0-3.791,7.92-40.311,7.23
		c-36.521-0.69-29.979-11.37-45.479-9.302c-15.511,2.07-25.5-1.72-25.5-1.72l0.129-2.82l1.25,0.062c0,0,13.131,3.57,26.07,0.97
		c9.99-2.07,13.471,11.14,49.04,9.71C346.108,774.22,353.558,773.63,364.388,769.59z"/>
	<path d="M179.249,90.43c0,2.98-0.5,19.26-0.5,19.26h-0.041c-0.85-9.65-1.459-24.92-1.459-24.92h-0.66l-0.2-11.22
		c0.479-15.98,1.05-24.91,8.521-31.13c5.279-4.39,14.819-6.13,24.719-6.55c12.681-0.54,19.08,2.05,25.961,8.31
		c6.81,6.18,4.65,32.29,5.439,39.91l-0.779,0.09c0,0-0.271,15-0.58,24.68h-0.061c-0.949-7.08-1.369-19.42-1.369-19.42l-1.271-26.98
		c-2.479-0.41-6.06-8.02-6.06-8.02c-5.931,2.58-40.07,2.92-43.4,0.4c-0.43,2.83-6.311,7.08-6.311,7.08
		C179.538,69.35,179.249,90.43,179.249,90.43z"/>
	<path fill="#282323" d="M219.999,501.53c-0.19,0.898-0.381,1.778-0.551,2.648c-5.16,25.84-14.949,80.932-14.949,80.932
		s-5.82,34.188-12.711,98.62c-6.89,64.43-4.25,61.6-4.25,61.6l-1.029,11.72c0,0-4.93-4.93-15.09-5.76
		c-0.58-0.05-1.18-0.08-1.791-0.101c-11.369-0.341-34.459,6.199-34.459,6.199l-0.34-4.47c2.399-63.05,3.91-132.66,12.18-200.188
		c6.15-57.66,2.029-119.5,3.18-140.9c0.359-6.83,0.76-12.29,1.13-16.562l1.46,0.132c0,0,10.67,8.658,39.33,12
		c15.689,1.818,36.17-0.15,51.49-2.312c5.42-0.75,10.189-1.54,13.88-2.188c4.96-0.87,7.97-1.5,7.97-1.5l0.74-0.12
		c6.02,36.13,26.811,128.59,32.6,151.45c4,28,11.311,186.368,11.311,186.368s-0.52,0.03-1.45,0.102c-1.58,0.14-4.36,0.39-7.86,0.85
		c-4.1,0.53-9.189,1.33-14.459,2.5c-12.41,2.75-31.701,15.852-31.701,15.852l-2.069-12.062c0,0-0.7-13.09-0.7-35.14
		c0-22.062-1.42-101.13-6.74-127.8C237.618,560.24,221.348,506.03,219.999,501.53z"/>
	<path fill="#D6A630" d="M256.778,391.4c0,0,5.33,4,0.67,11.33l0.03,0.17c-3.69,0.648-8.46,1.438-13.88,2.188l-0.15-1.03
		c0,0-4-4.658-2-9.328l-0.16-1.44c2.051-0.24,4.021-0.5,5.9-0.79c3.41-0.51,6.54-1.12,9.43-1.81L256.778,391.4z"/>
	<path fill="#7A5943" d="M405.498,360.47l11.24-10.988l0.391,0.278l-1.141,1.59c0,0-0.05,0.08,0.551,0.74
		c0.18,0.19,0.399,0.42,0.699,0.72c1.33,1.342,0.59,4.54,0.59,4.54s-0.67,0.21-4.5,1.382c-2.449,0.75-6.619,1.538-6.619,1.538
		s-0.28,0.262-0.74,0.682L405.498,360.47z"/>
	<path fill="#7A5943" d="M376.688,349.67l-0.7,0.062c0,0-1.67-6.672-0.63-8.962c1.05-2.288,5.3-4.368,6.96,0.212
		c2,4.75,3.17,9.75,3.17,9.75s3.23-3.07,7-6.602c2.15-2,5.08-4.95,6.17-5.07c3-0.328,5.33,2.342,5.33,2.342s1.5-2.5,5.17-1.842
		c2.83,0.672,3.5,1.842,3.5,1.842s2.33-0.092,4.33,0.58c2,0.67,3,3.828,3,3.828l-2.859,3.95l-0.391-0.278l-11.24,10.988l0.471,0.48
		c-1.641,1.51-5.58,5.02-7.27,5.74c-2.171,0.908-4.591,0.738-4.591,0.738s-1.37,0.802-4,0.67c-2.62-0.118-3.87-0.88-3.87-0.88
		s-3.49,0.65-5.13,0.512c-1.34-0.11-3.771-1.222-3.771-1.222s-3.379,0.94-6.069,0.69c-1.011-0.102-14.11-6.142-18.42-8.312
		c-3.55-1.79-17.511-3.46-27.24-6.528v-0.23l34.341-0.06l15.539-0.03l0.44,0.85c0.579-0.318,1-0.47,1-0.47L376.688,349.67z"/>
	<path fill="#7A5943" d="M177.249,84.77c0,0,0.609,15.27,1.459,24.92c0.16,1.86,0.33,3.51,0.511,4.8l-0.55,0.04
		c-0.101-0.41-0.211-0.83-0.311-1.26c0,0-4.92,0.85-7.449-7.43c-2.521-8.28-3.66-11.11-2.42-15.24c1.229-4.13,8.1-5.83,8.1-5.83
		H177.249z"/>
	<path fill="#7A5943" d="M239.668,108.86c0.31-9.68,0.58-24.68,0.58-24.68l0.779-0.09c0.01,0.09,0.02,0.18,0.03,0.27
		c11.12,3.5,8.521,9.46,8.09,15.34c-0.43,5.87-2.31,7.79-4.38,11.51c-2.061,3.72-4.54,2.48-4.54,2.48
		c-0.14,0.7-0.271,1.38-0.41,2.04l-0.45-0.09C239.468,114.25,239.568,111.8,239.668,108.86z"/>
	<path fill="#7A5943" d="M220.478,149.56c-0.12-1.95-0.989-3.5-0.989-3.5s-0.881-1.91-2.711-3.33s-4.46-0.92-4.46-0.92
		s-2.08-3.08-3.83-3.33s-4.25-0.25-4.25-0.25s-0.579-2-3.42-2.75c-2.83-0.75-5,0.08-5,0.08s-2.159-1.75-4.909-1.75
		s-5.421,3.42-5.421,3.42s-0.14-0.14-0.42-0.37l0.08-0.13c-1.71-3.9-3.5-10.19-6.479-22.2l0.55-0.04
		c-0.181-1.29-0.351-2.94-0.511-4.8h0.041c0,0,0.5-16.28,0.5-19.26c0,0,0.289-21.08,1.949-28.51c0,0,5.881-4.25,6.311-7.08
		c3.33,2.52,37.47,2.18,43.4-0.4c0,0,3.58,7.61,6.059,8.02l1.271,26.98c0,0,0.42,12.34,1.369,19.42h0.061
		c-0.101,2.94-0.201,5.39-0.301,6.78l0.45,0.09c-3.819,18.97-5.79,24.37-10.069,27.85c-0.631,0.51-1.311,0.97-2.051,1.44
		c-2.4,1.51-4.68,3.68-6.539,5.73v0.08h-0.681V149.56L220.478,149.56z M222.159,86.51c7.09-0.26,7.09-2.77,7.09-2.77
		s-3.59-3.89-9.181-3.89c0,0-3.42-0.13-4.909,3.89C215.159,83.74,215.068,86.76,222.159,86.51z M209.108,129.35
		c10.131,0.13,16.391-7.98,16.391-7.98c-19.641,7.23-32.92-0.23-32.92-0.23C194.368,124.02,198.989,129.23,209.108,129.35z
		 M196.068,86.79c7.091,0.25,7-2.77,7-2.77c-1.489-4.01-4.909-3.89-4.909-3.89c-5.591,0-9.181,3.89-9.181,3.89
		S188.978,86.54,196.068,86.79z"/>
	<path fill="#7A5943" d="M227.698,145.02c0.74-0.47,1.42-0.93,2.051-1.44l0.26,0.31l-0.03,6.5v0.48l-8.819-0.04v-0.08
		C223.018,148.7,225.297,146.53,227.698,145.02z"/>
	<path fill="#7A5943" d="M177.627,153.15c0.291-4.1,0.851-8.02,0.791-10.16c-0.101-3.09-1.601-7.59-1.601-7.59
		s2.171-1.67,4.671-0.67c1.719,0.69,2.959,1.61,3.579,2.13c0.28,0.23,0.421,0.37,0.421,0.37l0.329,0.58c0,0-5.67,10.92-7.5,19.09
		l-0.85-0.01C177.478,155.66,177.538,154.39,177.627,153.15z"/>
	<path fill="#7A5943" d="M215.749,150.81v0.42c-4.931,16.5-12.4,21.55-17.891,24.87c-3.23,1.96-7.23,6.76-11.89,12.86
		c-7.3,9.55-16.21,22.27-26.229,32.18c-7.811,7.72-15.111,14.57-20.611,19.62c-6.069,5.57-9.969,8.97-9.969,8.97
		s0.029,0.11,0.08,0.31l-0.961,0.06c-0.14-0.39-0.59-1.64-1.21-3.4c-2.09-5.91-6.19-17.49-7.409-20.8c-1.67-4.5-7-13.34-7-13.34
		l-0.17-1.33c0,0,4.369-2.52,23.52-16c16.38-11.53,31.66-21.56,38.25-26.86c1.109-0.9,1.98-1.66,2.56-2.27
		c1-1.37,0.79-4.04,0.671-7.54c-0.021-0.55-0.031-1.11-0.021-1.67l0.85,0.01c1.83-8.17,7.5-19.09,7.5-19.09l-0.329-0.58
		c0,0,2.67-3.42,5.42-3.42s4.909,1.75,4.909,1.75s2.171-0.83,5-0.08c2.841,0.75,3.421,2.75,3.421,2.75s2.5,0,4.25,0.25
		s3.829,3.33,3.829,3.33s2.63-0.5,4.46,0.92s2.711,3.33,2.711,3.33s0.869,1.55,0.989,3.5v1.27L215.749,150.81z"/>
	<path fill="#B2D8D2" d="M265.448,353.4c-1,21,3.66,23.33,3.66,23.33l-3.66,11.328c-0.31,0.11-0.619,0.23-0.939,0.33
		c-2.41,0.852-5.03,1.62-7.891,2.302c-2.89,0.688-6.02,1.3-9.43,1.81l-0.07-0.44c6.33-10.329,6.33-11.329,1.33-16
		c-3.869-3.608-1.539-8.829-0.449-23.568v-0.21l17.52-0.03v0.35C265.489,353.09,265.468,352.93,265.448,353.4z"/>
	<path fill="#B2D8D2" d="M177.588,153.15h0.039c-0.09,1.24-0.149,2.51-0.159,3.74c-0.011,0.56,0,1.12,0.021,1.67
		c0.119,3.5,0.329,6.17-0.671,7.54c-0.579,0.61-1.45,1.37-2.56,2.27c-1.471-3.41-2.67-6.67-3.41-9.55l-0.24-0.31L177.588,153.15z"/>
	<path fill="#B2D8D2" d="M111.489,260.73c0,0-20,8.75-28.75,5.25s-9.711-12.96-9.711-12.96s2.29-15.29,7.631-26.29
		c5.33-11,21.659-27.33,26.33-31.67c4.67-4.33,6.75-13.58,13.67-19.66s22-7.34,22-7.34l27.539-9.24l0.41-0.31l0.24,0.31
		c0.74,2.88,1.939,6.14,3.41,9.55c-6.59,5.3-21.87,15.33-38.25,26.86c-19.15,13.48-23.52,16-23.52,16l-5.25-0.5c0,0-7,3.75-8.5,5
		s-1.421,4.25-1.421,4.25c-0.659,0.11-1.31,0.34-1.93,0.63l2.771,0.12c0,0,7.159,18.5,9,25c0.699,2.48,1.52,5.08,2.27,7.35
		c1.21,3.68,2.23,6.48,2.23,6.48L111.489,260.73z"/>
	<path fill="#B2D8D2" d="M109.489,253.06c0,0,2.829,2.17,5.67,1.5c2.83-0.66,4.33-3.33,6.33-4.33s3.5-0.83,5-3.33l0.579-0.2
		c0.62,1.76,1.07,3.01,1.21,3.4l0.961-0.06c0.25,0.99,0.959,4.11,0.75,6.19c-0.25,2.5-15.25,7-15.25,7l-3.25-2.5l0.17-1.17
		c0,0-1.021-2.8-2.23-6.48L109.489,253.06z"/>
	<path fill="#B2D8D2" d="M127.068,246.7l-0.579,0.2c-1.5,2.5-3,2.33-5,3.33s-3.5,3.67-6.33,4.33c-2.841,0.67-5.67-1.5-5.67-1.5
		l-0.061,0.02c-0.75-2.27-1.57-4.87-2.27-7.35c-1.841-6.5-9-25-9-25l-2.771-0.12c0.62-0.29,1.271-0.52,1.93-0.63
		c0,0-0.079-3,1.421-4.25s8.5-5,8.5-5l5.25,0.5l0.17,1.33c0,0,5.33,8.84,7,13.34C120.877,229.21,124.978,240.79,127.068,246.7z"/>
	<path fill="#B2D8D2" d="M248.448,376.06c5,4.672,5,5.672-1.33,16l0.07,0.44c-1.88,0.29-3.85,0.55-5.9,0.79
		c-9.799,1.11-21.59,1.6-35.84,1.44c-28.67-0.33-47.67-8.672-47.67-8.672s-2.15-1.56-4.65-3.93c-0.77-0.729-1.569-1.54-2.35-2.398
		c-3.33-3.672,3-15.672,3-15.672c0-0.26-0.01-13.198-1.99-49.828c-1.39-25.73-8.109-55.86-12.069-72.832l-0.591-0.64
		c5.5-5.05,12.801-11.9,20.611-19.62c10.02-9.91,18.93-22.63,26.229-32.18l0.35,0.27V352.4l61.681-0.12v0.21
		C246.909,367.23,244.579,372.45,248.448,376.06z"/>
	<path fill="#5B1A1A" d="M185.127,771.18l0.17,1.57c-25.469,2.69-44.959-2.6-44.959-2.6l-1.051,0.6l-4.119-7.15v-4.818v-1.392
		c0,0,23.09-6.54,34.459-6.198c0.611,0.02,1.211,0.05,1.791,0.1l-0.07,0.94c0,0,0.689,11.02,11.02,12.75
		C182.368,764.98,185.468,767.39,185.127,771.18z"/>
	<path fill="#5B1A1A" d="M185.127,771.18c0.341-3.79-2.76-6.198-2.76-6.198c-10.33-1.73-11.02-12.75-11.02-12.75l0.07-0.94
		c10.16,0.83,15.09,5.76,15.09,5.76l-0.34,1.04c1.029,5.852,7.92,10.681,7.92,10.681v2.761c-2.99,0.52-5.93,0.92-8.791,1.22
		L185.127,771.18z"/>
	<path fill="#5B1A1A" d="M346.958,762.88c-28.59-2.07-46.161-22.74-46.161-22.74l-0.01-0.09c3.5-0.46,6.28-0.71,7.86-0.85
		l0.069,0.938c0,0,6.551,7.92,19.641,13.78c13.091,5.86,36.87,7.23,38.591,8.271c0,0,0.979,3.948,0.529,6.68l-0.88-0.13
		c-0.75,0.3-1.49,0.58-2.21,0.85l-0.15-0.608c-0.17-3.922-2.8-4.382-2.8-4.382C360.398,763.57,346.958,762.88,346.958,762.88z"/>
	<path fill="#5B1A1A" d="M364.238,768.98l0.15,0.608c-10.83,4.04-18.28,4.63-32.24,5c-35.569,1.43-39.05-11.78-49.04-9.71
		c-12.939,2.602-26.07-0.97-26.07-0.97l-1.25-0.062l0.221-4.76l-1.381-0.688c0,0,19.291-13.102,31.701-15.852
		c5.27-1.17,10.359-1.97,14.459-2.5l0.01,0.09c0,0,17.571,20.67,46.161,22.74c0,0,13.439,0.69,14.479,1.72
		C361.438,764.6,364.068,765.06,364.238,768.98z"/>
	<path fill="#5B1A1A" d="M266.188,401.28l-0.74,0.12c0,0-3.01,0.63-7.97,1.5l-0.03-0.17c4.66-7.33-0.67-11.33-0.67-11.33l-0.16-0.71
		c2.86-0.682,5.48-1.45,7.891-2.302l0.029,0.092C264.588,390.79,265.178,395.25,266.188,401.28z"/>
	<path fill="#5B1A1A" d="M151.318,395.27c0.8-9.1,1.47-12.788,1.47-12.788l0.34-0.352c2.5,2.37,4.65,3.93,4.65,3.93
		s19,8.342,47.67,8.671c14.25,0.159,26.041-0.329,35.84-1.439l0.16,1.439c-2,4.671,2,9.329,2,9.329l0.15,1.03
		c-15.32,2.16-35.801,4.13-51.49,2.312c-28.66-3.342-39.33-12-39.33-12L151.318,395.27z"/>
	<path d="M222.875,83.551c1.931-0.05,1.271,1.61,0,1.82C221.605,85.581,222.875,83.551,222.875,83.551z"/>
	<path d="M198.065,83.951c1.93-0.06,1.27,1.61,0,1.82C196.794,85.981,198.065,83.951,198.065,83.951z"/>
	<path fill="#FFFFFF" d="M222.875,83.551c0,0-1.27,2.03,0,1.82C224.145,85.161,224.805,83.501,222.875,83.551z M229.245,83.741
		c0,0,0,2.51-7.09,2.77c-7.09,0.25-7-2.77-7-2.77c1.49-4.02,4.91-3.89,4.91-3.89C225.655,79.851,229.245,83.741,229.245,83.741z"/>
	<path fill="#FFFFFF" d="M203.065,84.021c0,0,0.09,3.02-7,2.77s-7.09-2.77-7.09-2.77s3.59-3.89,9.18-3.89
		C198.155,80.131,201.575,80.011,203.065,84.021z M198.065,85.771c1.27-0.21,1.93-1.88,0-1.82
		C198.065,83.951,196.794,85.981,198.065,85.771z"/>
	<path fill="#FFFFFF" d="M225.504,121.371c0,0-6.27,8.11-16.39,7.98c-10.13-0.12-14.74-5.33-16.54-8.21
		C192.575,121.141,205.865,128.601,225.504,121.371z"/>
	<path fill="#FFFFFF" d="M375.485,352.041l-15.51,0.03l-34.36,0.06l-60.1,0.12l-17.521,0.03l-61.67,0.12v-163.17l-0.36-0.27
		c4.66-6.1,8.67-10.9,11.9-12.86c5.479-3.32,12.95-8.37,17.88-24.87v-0.42l4.74,0.02h0.67l8.82,0.04l308.35,1.19l0.66,199.67
		l-121.87,0.23l-0.58,0.13c-0.6-0.66-0.55-0.74-0.55-0.74l1.149-1.59l2.86-3.95c0,0-1-3.16-3-3.83c-2-0.67-4.34-0.58-4.34-0.58
		s-0.67-1.17-3.5-1.84c-3.67-0.66-5.17,1.84-5.17,1.84s-2.33-2.67-5.33-2.34c-1.09,0.12-4.021,3.07-6.16,5.07
		c-3.78,3.52-7.01,6.6-7.01,6.6s-1.16-5-3.16-9.75c-1.67-4.59-5.92-2.5-6.96-0.21c-1.04,2.29,0.62,8.96,0.62,8.96l0.7-0.06
		l0.239,2.74c0,0-0.42,0.15-1,0.47L375.485,352.041z"/>
</g>
<g id="line_1_">
	
		<polyline fill="none" stroke="#000000" stroke-width="3" stroke-linecap="round" stroke-linejoin="round" stroke-miterlimit="10" points="
		215.659,150.81 538.32,152.064 538.988,351.73 417.113,351.958 	"/>
	
		<polyline fill="none" stroke="#000000" stroke-width="3" stroke-linecap="round" stroke-linejoin="round" stroke-miterlimit="10" points="
		375.488,352.042 186.321,352.397 186.321,189.227 	"/>
	<path fill="none" stroke="#000000" stroke-width="3" stroke-linecap="round" stroke-linejoin="round" stroke-miterlimit="10" d="
		M325.613,352.358c9.725,3.068,23.684,4.744,27.24,6.535c4.303,2.167,17.4,8.208,18.417,8.304c2.687,0.25,6.069-0.688,6.069-0.688
		s2.428,1.107,3.771,1.219c1.642,0.138,5.124-0.511,5.124-0.511s1.254,0.761,3.879,0.886s4-0.671,4-0.671s2.415,0.171,4.582-0.745
		c2.167-0.918,8.01-6.413,8.01-6.413s4.172-0.8,6.619-1.546c3.832-1.168,4.5-1.375,4.5-1.375s0.747-3.209-0.586-4.54
		c-1.333-1.332-1.25-1.46-1.25-1.46l4.004-5.543c0,0-1-3.164-3-3.832c-2-0.666-4.337-0.582-4.337-0.582s-0.669-1.168-3.501-1.834
		c-3.667-0.665-5.166,1.834-5.166,1.834s-2.333-2.666-5.333-2.334c-1.087,0.121-4.019,3.065-6.163,5.068
		c-3.773,3.523-7.004,6.598-7.004,6.598s-1.166-5-3.166-9.748c-1.666-4.586-5.918-2.503-6.959-0.211
		c-1.041,2.293,0.625,8.959,0.625,8.959"/>
	
		<line fill="none" stroke="#000000" stroke-width="1.5" stroke-linecap="round" stroke-linejoin="round" stroke-miterlimit="10" x1="416.742" y1="349.48" x2="405.492" y2="360.479"/>
	<path fill="none" stroke="#000000" stroke-width="1.5" stroke-linecap="round" stroke-linejoin="round" stroke-miterlimit="10" d="
		M412.322,342.23l-0.166,2.833c0,0-7.164,7.665-8.998,9.854c-1.5,1.646-6.269,6.032-7.981,7.873"/>
	<path fill="none" stroke="#000000" stroke-width="1.5" stroke-linecap="round" stroke-linejoin="round" stroke-miterlimit="10" d="
		M403.822,342.23c0,0,0.334,1.334,0,2.167c-0.463,1.156-6.802,8.048-8.57,10.237c-2.094,2.594-8.158,8.448-8.158,8.448"/>
	<path fill="none" stroke="#000000" stroke-width="1.5" stroke-linecap="round" stroke-linejoin="round" stroke-miterlimit="10" d="
		M378.863,361.479c0,0,7.146-6.021,6.209-10.332"/>
	<path fill="none" stroke="#000000" stroke-width="1.5" stroke-linecap="round" stroke-linejoin="round" stroke-miterlimit="10" d="
		M371.863,358.229c0,0,0.375-1.75,1.625-3.375s3.438-2.438,3.438-2.438l-0.25-2.875"/>
	<path fill="none" stroke="#000000" stroke-width="1.5" stroke-linecap="round" stroke-linejoin="round" stroke-miterlimit="10" d="
		M355.978,355.47c0,0,1.385-2.864,4.736-3.614"/>
	<path fill="none" stroke="#000000" stroke-width="3" stroke-linecap="round" stroke-linejoin="round" stroke-miterlimit="10" d="
		M177.584,153.146l-7.387,5.673l-27.541,9.245c0,0-15.082,1.251-22,7.333c-6.92,6.082-9,15.334-13.668,19.667
		c-4.666,4.333-20.998,20.667-26.332,31.667s-7.627,26.291-7.627,26.291s0.957,9.457,9.707,12.957s28.75-5.25,28.75-5.25l3.25,2.5
		c0,0,15-4.5,15.25-7s-0.832-6.5-0.832-6.5s14.163-12.339,30.582-28.586c16.42-16.247,29.852-40.024,38.125-45.039
		c5.48-3.321,12.957-8.374,17.885-24.874"/>
	<path fill="none" stroke="#000000" stroke-width="3" stroke-linecap="round" stroke-linejoin="round" stroke-miterlimit="10" d="
		M90.448,224.399c0,0,3.373-3.834,6.875-4.42c0,0-0.084-3,1.416-4.25s8.5-5,8.5-5l5.25,0.5c0,0,4.372-2.52,23.52-16
		c19.146-13.48,36.814-24.913,40.812-29.125c0.999-1.379,0.789-4.049,0.668-7.541c-0.199-5.689,1.021-12.479,0.926-15.573
		c-0.094-3.094-1.599-7.591-1.599-7.591s2.173-1.67,4.673-0.67s4,2.5,4,2.5s2.666-3.416,5.416-3.416s4.916,1.751,4.916,1.751
		s2.168-0.835,5-0.085c2.834,0.75,3.418,2.751,3.418,2.751s2.5-0.001,4.25,0.249s3.832,3.334,3.832,3.334s2.625-0.5,4.459,0.917
		c1.832,1.417,2.709,3.333,2.709,3.333s0.87,1.551,0.994,3.496"/>
	<path fill="none" stroke="#000000" stroke-width="1.5" stroke-linecap="round" stroke-linejoin="round" stroke-miterlimit="10" d="
		M98.155,220.73c0,0,7.168,18.5,9,25c1.834,6.5,4.5,13.833,4.5,13.833"/>
	<path fill="none" stroke="#000000" stroke-width="1.5" stroke-linecap="round" stroke-linejoin="round" stroke-miterlimit="10" d="
		M112.655,212.563c0,0,5.334,8.833,7,13.333c1.665,4.5,8.668,24.334,8.668,24.334"/>
	<path fill="none" stroke="#000000" stroke-width="1.5" stroke-linecap="round" stroke-linejoin="round" stroke-miterlimit="10" d="
		M109.489,253.063c0,0,2.834,2.167,5.666,1.5c2.834-0.667,4.334-3.333,6.334-4.333s3.5-0.834,5-3.334"/>
	<path fill="none" stroke="#000000" stroke-width="1.5" stroke-linecap="round" stroke-linejoin="round" stroke-miterlimit="10" d="
		M185.82,137.813c0,0-5.667,10.917-7.5,19.084"/>
	<path fill="none" stroke="#000000" stroke-width="1.5" stroke-linecap="round" stroke-linejoin="round" stroke-miterlimit="10" d="
		M174.268,168.414c-1.475-3.422-2.68-6.7-3.423-9.595"/>
	<path fill="none" stroke="#000000" stroke-width="3" stroke-linecap="round" stroke-linejoin="round" stroke-miterlimit="10" d="
		M221.159,150.755c1.861-2.055,4.137-4.225,6.537-5.73c5.79-3.631,7.74-7.54,12.12-29.29c0.14-0.66,0.271-1.341,0.41-2.04
		c0,0,2.479,1.24,4.539-2.48c2.069-3.72,3.95-5.64,4.381-11.51c0.431-5.88,3.028-11.84-8.09-15.34c-0.011-0.09-0.021-0.18-0.03-0.27
		c-0.79-7.621,1.37-33.73-5.439-39.91c-6.881-6.26-13.279-8.851-25.959-8.311c-9.9,0.42-19.44,2.16-24.721,6.551
		c-7.471,6.219-8.041,15.149-8.521,31.129l0.198,11.221c0,0-6.869,1.699-8.1,5.83c-1.24,4.13-0.1,6.959,2.42,15.24
		c2.53,8.279,7.45,7.43,7.45,7.43c0.101,0.43,0.21,0.85,0.31,1.26c2.979,12.006,4.774,18.301,6.485,22.199"/>
	<path fill="none" stroke="#000000" stroke-width="1.5" stroke-linecap="round" stroke-linejoin="round" stroke-miterlimit="10" d="
		M177.247,84.774c0,0,0.609,15.27,1.459,24.92c0.16,1.859,0.33,3.51,0.512,4.8"/>
	<path fill="none" stroke="#000000" stroke-width="1.5" stroke-linecap="round" stroke-linejoin="round" stroke-miterlimit="10" d="
		M178.747,109.694c0,0,0.5-16.28,0.5-19.26c0,0,0.289-21.08,1.949-28.51c0,0,5.881-4.25,6.311-7.08c3.33,2.521,37.471,2.18,43.4-0.4
		c0,0,3.579,7.609,6.061,8.02l1.27,26.98c0,0,0.42,12.34,1.37,19.42"/>
	<path fill="none" stroke="#000000" stroke-width="1.5" stroke-linecap="round" stroke-linejoin="round" stroke-miterlimit="10" d="
		M240.247,84.185c0,0-0.271,15-0.58,24.68c-0.101,2.939-0.199,5.391-0.301,6.779"/>
	<path fill="none" stroke="#000000" stroke-width="1.5" stroke-linecap="round" stroke-linejoin="round" stroke-miterlimit="10" d="
		M239.896,105.364c0,0,4.16-1.061,3.521-5.971c-0.641-4.909-1.949-9.609,2.141-8.539"/>
	<path fill="none" stroke="#000000" stroke-width="1.5" stroke-linecap="round" stroke-linejoin="round" stroke-miterlimit="10" d="
		M177.577,105.794c0,0-3.541-0.58-2.48-10.67c0,0,1.57-5.561-2.77-3.42"/>
	<path fill="none" stroke="#000000" stroke-width="3" stroke-linecap="round" stroke-linejoin="round" stroke-miterlimit="10" d="
		M186.739,74.854c0,0,7.301-7.875,17.588-3.125"/>
	<path fill="none" stroke="#000000" stroke-width="1.5" stroke-linecap="round" stroke-linejoin="round" stroke-miterlimit="10" d="
		M188.976,84.024c0,0,3.59-3.891,9.181-3.891c0,0,3.42-0.119,4.909,3.891c0,0,0.091,3.02-7,2.77
		C188.976,86.544,188.976,84.024,188.976,84.024z"/>
	<path fill="none" stroke="#000000" stroke-width="3" stroke-linecap="round" stroke-linejoin="round" stroke-miterlimit="10" d="
		M198.066,83.954c1.931-0.061,1.271,1.609,0,1.82C196.795,85.984,198.066,83.954,198.066,83.954z"/>
	<path fill="none" stroke="#000000" stroke-width="3" stroke-linecap="round" stroke-linejoin="round" stroke-miterlimit="10" d="
		M217.219,72.461c0,0,10.145-2.231,15.767,5.019"/>
	<path fill="none" stroke="#000000" stroke-width="1.5" stroke-linecap="round" stroke-linejoin="round" stroke-miterlimit="10" d="
		M229.247,83.744c0,0-3.59-3.89-9.181-3.89c0,0-3.42-0.131-4.909,3.89c0,0-0.091,3.021,7,2.771
		C229.247,86.255,229.247,83.744,229.247,83.744z"/>
	<path fill="none" stroke="#000000" stroke-width="3" stroke-linecap="round" stroke-linejoin="round" stroke-miterlimit="10" d="
		M222.875,85.374c-1.271,0.21,0-1.82,0-1.82C224.806,83.505,224.146,85.164,222.875,85.374z"/>
	<path fill="none" stroke="#000000" stroke-width="1.5" stroke-linecap="round" stroke-linejoin="round" stroke-miterlimit="10" d="
		M210.756,79.474c0,0,0.432,11.621,1.49,14.561c1.07,2.939,0.86,6.359,0,10.2"/>
	<path fill="none" stroke="#000000" stroke-width="1.5" stroke-linecap="round" stroke-linejoin="round" stroke-miterlimit="10" d="
		M198.584,109.425c0,0-1.278,4.699,2.392,4.699s1.608,3.631,7.72,4.061c6.12,0.42,4.271-3.34,6.461-4.061
		c2.18-0.72,4.989-1.49,2.858-4.8"/>
	<path fill="none" stroke="#000000" stroke-width="1.5" stroke-linecap="round" stroke-linejoin="round" stroke-miterlimit="10" d="
		M192.575,121.144c0,0,13.289,7.461,32.928,0.225c0,0-6.264,8.111-16.389,7.986S194.372,124.019,192.575,121.144z"/>
	
		<line fill="none" stroke="#000000" stroke-width="3" stroke-linecap="round" stroke-linejoin="round" stroke-miterlimit="10" x1="230.004" y1="143.895" x2="229.976" y2="150.395"/>
	<path fill="none" stroke="#000000" stroke-width="3" stroke-linecap="round" stroke-linejoin="round" stroke-miterlimit="10" d="
		M139.722,241.399c3.959,16.969,10.672,47.1,12.062,72.83c2,37,1.996,49.834,1.996,49.834s-6.336,11.999-3.002,15.666
		c3.334,3.668,7,6.335,7,6.335s19,8.331,47.667,8.665s47.333-1.998,60-6.665l3.667-11.335c0,0-4.667-2.332-3.667-23.332
		c0.022-0.463,0.046-0.311,0.068-0.793"/>
	<path fill="none" stroke="#000000" stroke-width="1.5" stroke-linecap="round" stroke-linejoin="round" d="M247.999,352.487
		c-1.09,14.738-3.424,19.959,0.453,23.575c5,4.668,5,5.668-1.334,16"/>
	<path fill="none" stroke="#000000" stroke-width="3" stroke-linecap="round" stroke-linejoin="round" stroke-miterlimit="10" d="
		M152.792,382.479c0,0-1.455,7.947-2.605,29.35s2.969,83.242-3.18,140.9c-8.271,67.532-9.777,137.137-12.184,200.188l0.344,4.479
		c0,0,23.09-6.546,34.459-6.201c11.371,0.344,16.879,5.855,16.879,5.855l1.035-11.714c0,0-2.645,2.822,4.244-61.606
		c6.891-64.429,12.717-98.615,12.717-98.615s9.783-55.094,14.951-80.935c5.168-25.84,19.082-67.448,19.082-67.448"/>
	<path fill="none" stroke="#000000" stroke-width="3" stroke-linecap="round" stroke-linejoin="round" stroke-miterlimit="10" d="
		M219.911,501.229c0,0,17.375,58,25.207,82.173c5.323,26.667,6.742,105.741,6.742,127.794c0,22.05,0.7,35.143,0.7,35.143
		l2.065,12.06c0,0,19.295-13.093,31.699-15.85c12.403-2.757,23.772-3.444,23.772-3.444s-7.312-158.375-11.313-186.373
		c-6.754-26.666-33.912-148.06-34.25-164.25"/>
	<path fill="none" stroke="#000000" stroke-width="3" stroke-linecap="round" stroke-linejoin="round" d="M265.446,401.396
		c0,0-44.666,9.334-73.332,6.001c-28.668-3.333-39.334-12.001-39.334-12.001"/>
	<path fill="none" stroke="#000000" stroke-width="1.5" stroke-linecap="round" stroke-linejoin="round" d="M243.446,404.062
		c0,0-4-4.665-2-9.332"/>
	<path fill="none" stroke="#000000" stroke-width="1.5" stroke-linecap="round" stroke-linejoin="round" d="M256.78,391.396
		c0,0,5.331,4.001,0.666,11.334"/>
	<path fill="none" stroke="#000000" stroke-width="3" stroke-linecap="round" stroke-linejoin="round" stroke-miterlimit="10" d="
		M135.17,758.776v4.822l6.547,11.371c0,0,29.976,6.547,52.371,0v-6.203c0,0-6.891-4.823-7.924-10.682"/>
	<path fill="none" stroke="#000000" stroke-width="1.5" stroke-linecap="round" stroke-linejoin="round" stroke-miterlimit="10" d="
		M140.338,770.146c0,0,24.117,6.547,53.748,1.379"/>
	<path fill="none" stroke="#000000" stroke-width="1.5" stroke-linecap="round" stroke-linejoin="round" stroke-miterlimit="10" d="
		M171.347,752.231c0,0,0.688,11.022,11.024,12.747c0,0,3.101,2.41,2.756,6.2"/>
	<path fill="none" stroke="#000000" stroke-width="3" stroke-linecap="round" stroke-linejoin="round" stroke-miterlimit="10" d="
		M308.719,740.138c0,0,6.547,7.925,19.639,13.78c13.093,5.857,36.866,7.236,38.591,8.271c0,0,1.457,5.917,0,8.27
		c0,0-3.791,7.925-40.312,7.234c-36.521-0.688-29.976-11.371-45.479-9.306c-15.504,2.068-25.496-1.719-25.496-1.719l0.344-7.582"/>
	<path fill="none" stroke="#000000" stroke-width="1.5" stroke-linecap="round" stroke-linejoin="round" stroke-miterlimit="10" d="
		M257.038,763.912c0,0,13.127,3.57,26.066,0.967c9.992-2.068,13.479,11.139,49.042,9.715c14.893-0.393,22.387-1.039,34.455-5.857"/>
	<path fill="none" stroke="#000000" stroke-width="1.5" stroke-linecap="round" stroke-linejoin="round" stroke-miterlimit="10" d="
		M300.793,740.139c0,0,17.573,20.672,46.169,22.739c0,0,13.438,0.689,14.471,1.723c0,0,2.641,0.458,2.807,4.375"/>
</g>
</svg>
