<?xml version="1.0" encoding="utf-8"?>
<!-- Generator: Adobe Illustrator 16.0.0, SVG Export Plug-In . SVG Version: 6.00 Build 0)  -->
<!DOCTYPE svg PUBLIC "-//W3C//DTD SVG 1.1//EN" "http://www.w3.org/Graphics/SVG/1.1/DTD/svg11.dtd">
<svg version="1.1" id="Layer_1" xmlns="http://www.w3.org/2000/svg" xmlns:xlink="http://www.w3.org/1999/xlink" x="0px" y="0px"
	 width="626.968px" height="740.963px" viewBox="0 0 626.968 740.963" enable-background="new 0 0 626.968 740.963"
	 xml:space="preserve">
<g id="colour">
	<path d="M197.176,109.742c1.25-0.11,3.59-0.39,5.75-0.43c4.08-0.09,7.77,0.58,9.311,1.7c-2.061,0.26-3.201,0.51-5.541,1.98
		c-1.93,1.22-3.84,2.84-6.82,3.72l-0.149-0.52c0.32-0.13,0.53-0.22,0.53-0.22s-0.04-2.87-0.34-4.09c-0.301-1.21-1.32-1.43-1.32-1.43
		s-0.66,0.05-1.439,0.01L197.176,109.742z"/>
	<path fill="#7A5943" d="M197.846,116.892c0.551-0.16,1.35-0.48,1.88-0.7l0.149,0.52c2.98-0.88,4.891-2.5,6.82-3.72
		c2.34-1.47,3.48-1.72,5.541-1.98c-1.541-1.12-5.23-1.79-9.311-1.7c-2.16,0.04-4.5,0.32-5.75,0.43l-0.02,0.72
		c-0.721-0.02-1.541-0.13-2.051-0.41c-1.07-0.6-2.18-2.41-0.369-5.49c0.709-2.29-0.781-4.4-0.781-4.4s-6.06,2.51-8.649-2.25
		c-2.38-5.44,3.79-7.08,2.74-14.59c-0.45-5.4,3.88-11.64,3.44-15.63c-0.391-3.48-2.59-4.51-3.91-8.08
		c-0.44-1.99,0.1-17.19,0.119-17.66c12.4,1.25,25.9-3.35,25.9-3.35c8.471,6.89,13.33,8.46,13.33,8.46s3.04,10.65,5.46,25.45
		c1.8,10.17,2.54,13.5,2.54,13.5s1.65-4.85,1.92-9.24c0.27-4.38-0.109-9.24,1.83-10.59c2.71-2.44,8.109-0.85,9.17,2.54
		c1.07,3.39,1.51,14.12,0.41,18.29c-0.21,0.78-0.51,1.521-0.87,2.2c-1.55,2.93-4.11,4.79-4.11,4.79s0.041,8.02-2.97,21.14
		c-2.659,7.87-6.63,10.41-11.06,13.72c-1.381,1.03-3.1,2.23-5.01,3.44c-4.25,2.67-9.44,5.35-13.971,6.05
		c-6.59,1.02-8.859-4.56-8.859-4.56c-0.381-7.67-0.94-10.09-2.851-11.89C197.776,121.162,195.516,119.892,197.846,116.892z
		 M209.706,68.421c0,0-4.469-3.57-8.479-3.83c-1.34-0.09-2.8,1.18-3.06,1.72c0,0-0.641,3.15,0.02,4.4
		C200.497,72.342,204.366,72.921,209.706,68.421z"/>
	<path fill="#7A5943" d="M346.216,358.711c0,0-3.57,2.05-5.431,2.11c-1.859,0.069-4.851-1.551-4.851-1.551s-1.979,0.41-4.479,0.431
		c-0.619,0-1.26-0.021-1.92-0.08c-3.319-0.29-5.051-3.45-5.051-3.45l-4.26-1.04c-6.779-6.62-0.84-9.45-2.359-11.25
		c-0.34-0.41-0.641-0.82-0.881-1.2c-0.839-1.3-1.148-2.33-1.148-2.33s1.14-1.569,2.729-4.439c1.021-1.84,1.65-5.521,2.57-8.66
		c0.51-1.75,1.109-3.32,1.91-4.33c1.619-2.03,3.039-2.55,6.279-3.43c1.271-0.34,2.819-0.74,4.779-1.311
		c6.95-2.029,12.99-2.439,12.99-2.439s6.8-10.33,10.51-29.74c3.71-19.42,5.75-37.52,5.75-37.52l0.58-0.74
		c0.811,0.2,1.96,0.32,3.352,0.46c4.289,0.45,10.83,1.09,16.6,4.82c6.17,3.99,8.72,10.96,13.98,12.98l-0.19,0.5
		c-0.149-0.06-0.3-0.12-0.46-0.18c0,0-1.1,5.44-16.551,32.86c-12.319,24.19-11.35,31.011-14.01,38.48
		c-2.66,7.46-10.83,16.83-10.83,16.83s-2.66,3.56-4.42,4.29C349.647,359.501,346.216,358.711,346.216,358.711z"/>
	<path fill="#D6A630" d="M238.386,346.182c0.37,3.38-0.08,7.04-0.08,7.04l0.069,0.17c-4.059,1-6.449,1.67-6.449,1.67l-0.7,0.4
		c-4.979-5.43-5.09-13.53-5.09-13.53l-1.88-0.54c0,0,1.561-0.43,4.46-1.149c1.66-0.42,3.75-0.931,6.239-1.51l0.091,0.409
		C235.046,339.142,238.006,342.812,238.386,346.182z"/>
	<path fill="#B2D8D2" d="M406.997,248.852l0.43-0.14c0.92,1.28,3.93,5.61,3.79,7.3c-0.181,2-6.479,12.82-6.479,12.82
		s-2.899-0.77-7.061-2.33l0.189-0.5c-5.26-2.02-7.811-8.99-13.979-12.98c-5.771-3.73-12.31-4.37-16.601-4.82
		c-0.721-0.95-3.859-5.45-2.529-9.14c1.5-4.17,3.67-6.17,5-11.84l0.029-0.16c3.609,0.68,10.199,2.35,17.359,6.23
		C397.256,238.762,405.956,247.751,406.997,248.852z"/>
	<path fill="#B2D8D2" d="M189.546,289.852l-0.62,0.21c-3.67,2.83-14.5,0.33-15.33-1.17c-0.84-1.5-5.5-3-5.5-3l-0.42,0.05
		c-3.9-21.73-2.42-32.88-2.42-32.88l-0.66-0.67v-2v-2.67c0,0,2.33-0.66,8.33-1c6-0.33,8,3.67,8,3.67l-0.17,0.44
		c0,0,0.5,20.56,4,29.06C186.726,284.671,188.426,287.921,189.546,289.852z"/>
	<path fill="#B2D8D2" d="M190.926,292.062c0,0,0,2.33-0.67,4.66c-0.66,2.34-17.33,0-17.33,0l-4.939-6.49l0.439-0.34
		c-0.27-1.35-0.52-2.67-0.75-3.95l0.42-0.05c0,0,4.66,1.5,5.5,3c0.83,1.5,11.66,4,15.33,1.17l0.62-0.21
		C190.417,291.362,190.926,292.062,190.926,292.062z"/>
	<path fill="#B2D8D2" d="M214.256,242.392c0.609,4.52,1.3,9.43,1.99,14.54c-5.34,19.81-17.99,31.46-17.99,31.46l-7.33,3.67
		c0,0-0.51-0.7-1.38-2.21c-1.12-1.93-2.82-5.18-4.79-9.96c-3.5-8.5-4-29.06-4-29.06l0.17-0.44c9.46-28.77,20.84-51,21.061-60.72
		C203.657,202.901,211.616,222.822,214.256,242.392z"/>
	<path fill="#B2D8D2" d="M216.247,256.932c-0.69-5.11-1.381-10.02-1.99-14.54c-2.641-19.57-10.6-39.49-12.27-52.72
		c-0.44-3.45-0.44-6.44,0.18-8.85c3.02-11.67,3.56-17.96,6.56-20.3c2.06-1.6,7.5-9.41,10.7-14.14l1.17,0.01
		c-3.76,9.79-10.87,23.73-11.15,24.31c0.32-0.45,5.541-7.65,7.311-7.81c1.84-0.17,4.63,10.96,3.96,16.12l0.09,0.03
		c-2.51,8.72-5.319,18.7-2.88,31.18c4.5,23,7.75,38.42,8.25,48.42s0.75,47.75-0.75,53s-1.25,11-1.25,11s0.25,10.5,4.25,16.5
		l0.29,1.101c-2.899,0.72-4.46,1.149-4.46,1.149s-9.08-2.08-5.08-20.08C222.446,306.612,219.317,279.731,216.247,256.932z"/>
	<path fill="#B2D8D2" d="M225.096,139.171l2.85,0.74c-0.289,1.14-1.22,4.64-2.85,9.65l0.41,5.75l0.29,0.22
		c-0.91,1.2-1.771,2.33-2.54,3.36c0.17,0.67,0.3,1.34,0.391,2.01c0.799,5.69-0.931,11.56-2.841,18.14l-0.09-0.03
		c0.67-5.16-2.12-16.29-3.96-16.12c-1.77,0.16-6.99,7.36-7.311,7.81c0.28-0.58,7.391-14.52,11.15-24.31l-1.17-0.01
		c1.449-2.15,2.439-3.66,2.439-3.66C222.836,140.481,224.067,139.542,225.096,139.171z"/>
	<path fill="#B2D8D2" d="M261.256,112.062l4,8.66l-0.04,0.84c-7.29-0.46-6.31,10.68-15.12,22.66c-8.84,12-19.5,29.67-19.5,29.67
		l0.16-3.83c-0.83-6.17-4.83-9.67-5.33-10.34c-0.5-0.66-1.67,1.17-1.67,1.17l-0.109,0.01c-0.091-0.67-0.221-1.34-0.391-2.01
		c0.77-1.03,1.63-2.16,2.54-3.36c3.79-4.98,8.5-11.07,12.13-15.64c4.5-5.67,10-18.75,14.25-22.75s7.5-4.75,7.5-4.75l0.1-0.59
		L261.256,112.062z"/>
	<path fill="#B2D8D2" d="M328.806,207.512l-0.21,0.55c-1.67,18.33-5.34,33.66-6.67,46.16s-1.75,32.17-1.75,32.17
		c0.5,11.5,6.42,23.33,8.75,29.669c0.32,0.86,0.41,1.681,0.32,2.471l0.08,0.96c-3.24,0.88-4.66,1.399-6.28,3.43
		c-0.8,1.01-1.4,2.58-1.91,4.33l-0.08-0.02c-5.61,0.409-24.63,0.159-51.63,4.659c-14.53,2.42-26.51,4.99-34.471,6.841
		c-2.489,0.579-4.58,1.09-6.239,1.51l-0.29-1.101c-4-6-4.25-16.5-4.25-16.5s-0.25-5.75,1.25-11s1.25-43,0.75-53
		s-3.75-25.42-8.25-48.42c-2.439-12.48,0.37-22.46,2.88-31.18c1.91-6.58,3.64-12.45,2.84-18.14l0.11-0.01c0,0,1.17-1.83,1.67-1.17
		c0.5,0.67,4.5,4.17,5.33,10.34l-0.16,3.83c0,0,10.66-17.67,19.5-29.67c8.811-11.98,7.83-23.12,15.12-22.66l0.04-0.84
		c0,0,28.67,4,44,16c15.34,12,88.34,49.34,99,62c10.67,12.67-1.1,49.62-1.1,49.62s0.1,0.13,0.27,0.37l-0.43,0.14
		c-1.041-1.1-9.74-10.09-19.852-15.56c-7.16-3.88-13.75-5.55-17.359-6.23l-0.029,0.16c-1.33,5.67-3.5,7.67-5,11.84
		c-1.33,3.69,1.811,8.19,2.529,9.14c-1.391-0.14-2.539-0.26-3.351-0.46l-0.58,0.74l-2.6-0.9c0,0-7.11,0.05-1.729-15.54
		c0,0,1.489-6.98,7.34-6.47c0,0,0.351-2.62,0.869-5.99l-1.31-0.19C365.926,219.392,348.596,214.941,328.806,207.512z"/>
	<path fill="#7A5943" d="M96.436,247.352c-0.01,0-0.029,0.01-0.04,0.01l-6.3-5.97c-3.25-2.62-8.17-9.67-8.17-9.67l-2.26-0.13
		c0.8-0.62,1.52-1.13,1.52-1.13s-0.26-2.07,1.41-4.4c1.66-2.34,5.99-0.33,5.99-0.33l0.34,0.24c0,0,0.65,4.54,4.97,6.71l-0.06,0.12
		c0,0,1.21,1.67,2.47,3.26c1.24,1.58,4.29,6.21,4.29,6.21S102.386,245.671,96.436,247.352z"/>
	<path fill="#7A5943" d="M96.436,247.352c0.73,0.77,1.78,2.29,0.57,3.96c-1.28,1.75-3.07,2.14-3.92,2.23
		c-0.311,0.03-0.49,0.02-0.49,0.02s-6.109-4.67-8-6.17c-1.9-1.5-7.34-9.33-7.34-9.33l-1.83-0.12c0.79-0.63,1.41-0.71,1.41-0.71
		s0.09-3.17,1.09-4.17c0.439-0.44,1.12-0.99,1.74-1.47l2.26,0.13c0,0,4.92,7.05,8.17,9.67l6.3,5.97
		C96.407,247.362,96.426,247.352,96.436,247.352z"/>
	<path fill="#7A5943" d="M87.417,256.472c-2.26-0.66-5-2.07-6.791-3.55c-2.479-2.06-7.059-8.23-7.059-8.23l-1.67-0.05
		c0.579-0.57,1.1-0.51,1.1-0.51s-0.4-2.03,0.93-4.36c0.5-0.88,1.029-1.45,1.5-1.83l1.83,0.12c0,0,5.439,7.83,7.34,9.33
		c1.891,1.5,8,6.17,8,6.17s0.18,0.01,0.49-0.02l0.029,0.18c0.431,0.94-1.02,3.17-3.359,3.17
		C89.106,256.892,88.296,256.742,87.417,256.472z"/>
	<path fill="#7A5943" d="M87.417,256.472c-0.03,0.27-0.2,1.3-0.87,2.25c-1.5,2.17-6.29,1-8.62,0.34l-0.609,0.28
		c-2.171-2.46-7.25-8.63-6.721-11.62c0.3-1.71,0.82-2.61,1.3-3.08l1.671,0.05c0,0,4.579,6.17,7.059,8.23
		C82.417,254.401,85.157,255.812,87.417,256.472z"/>
	<path fill="#7A5943" d="M93.896,232.682c-4.319-2.17-4.97-6.71-4.97-6.71l-0.34-0.24c0,0,0.17-0.76,0.99-2.42
		c0.81-1.67,4.49,0.72,8.24,1.69c3.75,0.97,10.109,1.64,12.609,3.39s4.5,13.33,7.17,17.67c2.66,4.33,8.66,5,12.33,5.66
		c3.67,0.67,34.67,0.67,34.67,0.67l0.66,0.67c0,0-1.48,11.15,2.42,32.88c0.23,1.28,0.48,2.6,0.75,3.95l-0.439,0.34l-0.391-0.51
		l-5-0.66c-25.34-7.67-54.67-21-54.67-21s-3,0.33-8,0.33s-14.08-5.42-14.08-5.42l-7.59-2.58c0,0-0.37-0.39-0.939-1.05l0.609-0.28
		c2.33,0.66,7.12,1.83,8.62-0.34c0.67-0.95,0.84-1.98,0.87-2.25c0.88,0.27,1.689,0.42,2.34,0.42c2.34,0,3.79-2.23,3.359-3.17
		l-0.029-0.18c0.85-0.09,2.64-0.48,3.92-2.23c1.21-1.67,0.16-3.19-0.57-3.96c5.95-1.68,4.16-5.08,4.16-5.08s-3.05-4.63-4.29-6.21
		c-1.26-1.59-2.47-3.26-2.47-3.26L93.896,232.682z"/>
	<path fill="#7A5943" d="M227.946,139.912l-2.85-0.74c1.16-0.42,2.08-0.11,2.08-0.11c-2.25-5.17-2.67-6.34-2.67-6.34l-0.27-0.42
		c1.91-1.21,3.629-2.41,5.01-3.44c4.43-3.31,8.399-5.85,11.06-13.72c3.011-13.12,2.97-21.14,2.97-21.14s2.561-1.86,4.11-4.79
		l0.851,0.2c0,0,2.56,4.73,7.779,0.69l0.471,0.06c-0.211,1.59-0.311,3.22-0.23,5.02c0.16,4.03,1.17,8.96,3.34,16.59l0.18,0.03
		l-0.1,0.59c0,0-3.25,0.75-7.5,4.75s-9.75,17.08-14.25,22.75c-3.63,4.57-8.34,10.66-12.13,15.64l-0.29-0.22l-0.41-5.75
		C226.726,144.552,227.657,141.052,227.946,139.912z"/>
	<path d="M604.096,499.392c5.5,14.341,3.16,25.841,3.16,25.841s-1.08,0.659-2.75,1.17l-0.08-0.261c0,0,0.25-16.75-6.5-30.25
		s-29.5-26.5-37-36s-4.25-11.5-10.25-18.25s-14.75-10-14.75-10l-0.391-0.72c2.33-1.261,4.061-2.03,4.061-2.03s9.33,4.67,15,10.67
		c5.66,6,6.66,17.33,15.33,23.5C578.596,469.222,598.596,485.062,604.096,499.392z"/>
	<path d="M140.206,715.241c-0.409,0.301-7.119,5.091-14.639,5.471c-13,0.66-17.691-6.49-26.9-9.37
		c-9.211-2.88-17.28-1.01-39.75-9.62c-22.471-8.62-34.211-32.699-34.211-32.699s0.551-1.33,1.5-2.91l0.471,0.279
		c0,0,13,21.25,28.5,29.25s37.25,7,47.75,12.75S125.506,720.802,140.206,715.241z"/>
	<path d="M219.786,18.302c48.57-5.94,42.15,46.83,40.281,56.24c-1.381,6.95-2.971,11.12-3.58,15.62l-0.471-0.06
		c-5.22,4.04-7.779-0.69-7.779-0.69l-0.851-0.2c0.36-0.68,0.66-1.42,0.87-2.2c1.1-4.17,0.66-14.9-0.41-18.29
		c-1.061-3.39-6.46-4.98-9.17-2.54c-1.939,1.35-1.561,6.21-1.83,10.59c-0.27,4.39-1.92,9.24-1.92,9.24s-0.74-3.33-2.54-13.5
		c-2.42-14.8-5.46-25.45-5.46-25.45s-4.859-1.57-13.33-8.46c0,0-13.5,4.6-25.9,3.35c0-0.01,0-0.01,0-0.01
		c-0.869-1-3.229-8.77,0.73-13.88C192.375,22.941,200.917,21.292,219.786,18.302z"/>
	<path fill="#5B1A1A" d="M321.056,327.231l0.08,0.02c-0.92,3.14-1.55,6.82-2.569,8.66c-1.591,2.87-2.729,4.439-2.729,4.439
		s0.31,1.03,1.149,2.33l-0.061,0.04c0,0-10.17-0.16-35.33,2.67c-17.3,1.95-34.29,5.79-43.221,8l-0.069-0.17c0,0,0.45-3.66,0.08-7.04
		c-0.38-3.37-3.34-7.04-3.34-7.04l-0.091-0.409c7.961-1.851,19.94-4.421,34.471-6.841
		C296.426,327.392,315.446,327.642,321.056,327.231z"/>
	<path fill="#5B1A1A" d="M604.426,526.142l0.08,0.261c-2.08,0.649-5.08,1.09-8-0.261c-5.25-2.42-19.41-20.58-36.16-27.5
		c-10.09-4.25-18.25-5.75-18.25-5.75l-0.609,0.011c-0.141-7.29-1.211-17.721-5.561-24.841c-5.73-9.369-13.08-17.119-16.029-20.06
		l0.699-0.11c0,0,0.5-3.83,4.33-9c2.301-3.1,7.119-6.08,10.609-7.97l0.391,0.72c0,0,8.75,3.25,14.75,10s2.75,8.75,10.25,18.25
		s30.25,22.5,37,36S604.426,526.142,604.426,526.142z"/>
	<path fill="#5B1A1A" d="M144.586,684.701l-0.051,0.301c0,0-2.129,7.479-3.17,15.64c-1.039,8.161-1.14,14.591-1.14,14.591
		c-0.01,0-0.01,0.01-0.021,0.01c-14.699,5.561-26.779-1.101-37.279-6.851s-32.25-4.75-47.75-12.75s-28.5-29.25-28.5-29.25
		l-0.471-0.279c1.24-2.069,3.141-4.59,5.351-5.13c3.88-0.96,29.021,6.949,47.42,7.37c18.399,0.409,27.95-3.29,29.53-5.211
		l0.311-0.84c2.199,2.13,5.51,5.03,10.409,8.76C125.106,675.531,133.286,682.172,144.586,684.701z"/>
	<path fill="#282323" d="M541.487,492.901c0.1,4.979-0.23,8.5-0.23,8.5s-16,0-91.33,15.33c-75.329,15.329-97.159,14.5-110.499,8.5
		c-13.33-6-64.75-84.421-64.75-84.421l-0.41-0.409c22.271-22.091,47.67-48.051,52.63-58.851l0.36,0.17l1.38,9.5
		c0,0,12.521,29.53,17.29,39.511c7.33,15.329,26,40,26,40s7.33-0.671,14.67-0.671c7.33,0,28.66-2,59.329-4.67
		c30.67-2.67,72.67-18.659,72.67-18.659s0.48,0.449,1.301,1.271c2.949,2.939,10.301,10.689,16.029,20.06
		C540.276,475.182,541.346,485.611,541.487,492.901z"/>
	<path fill="#282323" d="M331.456,359.702v0.189c-0.279,9.25-2.26,15.011-4.029,20.341c-0.141,0.409-0.311,0.851-0.529,1.319
		c-4.961,10.8-30.361,36.76-52.631,58.851c-14.48,14.37-27.641,27.109-33.01,32.989c-14,15.341-32,36-32,36s-8,44-21.33,76
		s-35,100.33-35,100.33c-2.96-0.069-5.73-0.439-8.34-1.021c-11.301-2.529-19.48-9.17-25.36-13.641
		c-4.899-3.729-8.21-6.63-10.409-8.76c-3.211-3.109-4.061-4.58-4.061-4.58s14.5-39.66,31.84-93c17.33-53.33,23-81.33,25-86
		c2-4.66,70.99-107.33,70.66-118c-0.051-1.66-0.24-3.25-0.53-4.739c-0.17-0.171-0.34-0.341-0.5-0.521l0.7-0.4
		c0,0,2.391-0.67,6.449-1.67c8.931-2.21,25.921-6.05,43.221-8c25.16-2.83,35.33-2.67,35.33-2.67l0.061-0.04
		c0.239,0.38,0.539,0.79,0.881,1.2c1.52,1.8-4.42,4.63,2.358,11.25l4.261,1.04c0,0,1.729,3.16,5.051,3.45
		C330.196,359.682,330.836,359.702,331.456,359.702z"/>
	<path d="M200.646,70.603c-1.45,0.4-1.79-2.75-0.68-2.98C199.966,67.623,202.096,70.203,200.646,70.603z"/>
	<path fill="#FFFFFF" d="M209.707,68.422c-5.341,4.5-9.21,3.91-11.521,2.29c-0.66-1.25-0.02-4.41-0.02-4.41
		c0.26-0.54,1.72-1.8,3.06-1.71C205.236,64.853,209.707,68.422,209.707,68.422z M199.966,67.623c-1.11,0.23-0.771,3.38,0.68,2.98
		S199.966,67.623,199.966,67.623z"/>
</g>
<g id="line_1_">
	<path fill="none" stroke="#000000" stroke-width="3" stroke-linecap="round" stroke-linejoin="round" d="M187.686,41.948
		c12.401,1.251,25.913-3.348,25.913-3.348c8.468,6.891,13.328,8.463,13.328,8.463s3.037,10.649,5.455,25.451
		c1.81,10.172,2.545,13.493,2.545,13.493s1.649-4.847,1.92-9.237c0.271-4.38-0.108-9.238,1.83-10.59
		c2.71-2.44,8.106-0.848,9.17,2.545c1.073,3.39,1.509,14.116,0.413,18.29c-1.104,4.177-4.984,6.987-4.984,6.987
		s0.039,8.021-2.974,21.134c-2.653,7.875-6.621,10.419-11.058,13.721c-4.435,3.304-12.396,8.477-18.979,9.497
		c-6.584,1.015-8.86-4.566-8.86-4.566c-0.375-7.667-0.941-10.086-2.848-11.887c-0.781-0.737-3.041-2.009-0.714-5.009
		c0.886-0.266,2.417-0.916,2.417-0.916s-0.042-2.877-0.341-4.092c-0.3-1.215-1.326-1.431-1.326-1.431s-2.417,0.188-3.489-0.406
		c-1.072-0.594-2.178-2.406-0.365-5.486c0.713-2.291-0.779-4.397-0.779-4.397s-6.065,2.503-8.657-2.255
		c-2.379-5.437,3.796-7.075,2.741-14.584c-0.447-5.408,3.887-11.642,3.441-15.635c-0.386-3.482-2.588-4.514-3.906-8.083
		c-0.45-2.017,0.113-17.661,0.113-17.661c-0.869-1.007-3.221-8.772,0.732-13.889c3.953-5.117,12.494-6.766,31.365-9.759
		c48.568-5.935,42.145,46.834,40.281,56.239c-1.865,9.405-4.115,13.733-3.818,20.642c0.168,4.034,1.174,8.962,3.348,16.587"/>
	<path fill="none" stroke="#000000" stroke-width="3" stroke-linecap="round" stroke-linejoin="round" d="M248.239,89.409
		c0,0,2.556,4.73,7.781,0.688"/>
	<path fill="none" stroke="#000000" stroke-width="1.5" stroke-linecap="round" stroke-linejoin="round" stroke-miterlimit="10" d="
		M242.573,95.017c0,0-2.592-1.851-2.604-4.539s0.746-3.326,2.167-5.339c1.421-2.014,3.413-9.237,0.981-13.218
		c0,0-1.725-3.644-2.691-1.671"/>
	<path fill="none" stroke="#000000" stroke-width="3" stroke-linecap="round" stroke-linejoin="round" d="M213.485,61.1
		c0,0-16.684-2.458-18.763-6.045"/>
	<path fill="none" stroke="#000000" stroke-width="1.5" stroke-linecap="round" stroke-linejoin="round" d="M209.709,68.424
		c0,0-4.471-3.574-8.482-3.833c-1.337-0.086-2.801,1.176-3.062,1.716c0,0-0.641,3.158,0.023,4.403
		C200.495,72.337,204.364,72.926,209.709,68.424z"/>
	<path fill="none" stroke="#000000" stroke-width="2" stroke-linecap="round" stroke-linejoin="round" d="M199.966,67.627
		c-1.11,0.226-0.774,3.378,0.677,2.979C202.092,70.206,199.966,67.627,199.966,67.627z"/>
	<path fill="none" stroke="#000000" stroke-width="1.5" stroke-linecap="round" stroke-linejoin="round" d="M193.698,99.307
		c1.229-1.241,1.479-2.522,2.836-2.165c1.357,0.357,1.519,2,1.588,2.141c1.838,1.275,5.885-1.749,5.009-3.719
		s-1.953-2.422-1.953-2.422"/>
	<path fill="none" stroke="#000000" stroke-width="1.5" stroke-linecap="round" stroke-linejoin="round" d="M197.843,109.745
		c1.255-0.115,2.925-0.393,5.084-0.437c4.083-0.083,7.771,0.583,9.312,1.708c-2.062,0.25-3.205,0.509-5.541,1.979
		c-1.974,1.242-3.119,2.902-6.209,3.771"/>
	<path fill="none" stroke="#000000" stroke-width="3" stroke-linecap="round" stroke-linejoin="round" d="M259.6,111.767l1.66,0.293
		l4,8.667c0,0,28.667,4,44,16s88.334,49.333,99,62s-1.1,49.615-1.1,49.615s4.229,5.682,4.055,7.674
		c-0.176,1.993-6.477,12.818-6.477,12.818s-3.121-0.828-7.527-2.515c0,0-1.092,5.438-16.542,32.863
		c-12.321,24.187-11.349,31.014-14.009,38.476c-2.66,7.463-10.83,16.837-10.83,16.837s-2.662,3.562-4.422,4.286
		c-1.76,0.724-5.191-0.067-5.191-0.067s-3.568,2.044-5.43,2.111c-1.862,0.066-4.854-1.559-4.854-1.559s-3.073,0.648-6.394,0.357
		c-3.32-0.29-5.051-3.454-5.051-3.454l-4.26-1.042c-6.781-6.616-0.847-9.442-2.361-11.248c-1.517-1.807-2.033-3.522-2.033-3.522
		s1.142-1.574,2.73-4.446c1.59-2.872,2.229-10.178,4.481-12.992c2.254-2.814,4.106-2.715,11.062-4.741
		c6.952-2.026,12.99-2.438,12.99-2.438s6.801-10.322,10.506-29.738c3.707-19.418,5.752-37.519,5.752-37.519l-2.599-0.895
		c0,0-7.115,0.047-1.735-15.543c0,0,1.489-6.982,7.344-6.471c0,0,0.99-7.523,2.178-13.442"/>
	<path fill="none" stroke="#000000" stroke-width="1.5" stroke-linecap="round" stroke-linejoin="round" stroke-miterlimit="10" d="
		M344.516,359.025c0,0,2.385-1.424,4.459-3.626"/>
	<path fill="none" stroke="#000000" stroke-width="1.5" stroke-linecap="round" stroke-linejoin="round" stroke-miterlimit="10" d="
		M335.168,358.446c0,0,1.051-0.534,3.531-3.079"/>
	
		<polyline fill="none" stroke="#000000" stroke-width="1.5" stroke-linecap="round" stroke-linejoin="round" stroke-miterlimit="10" points="
		323.1,355.798 328.321,353.494 331.435,350.881 	"/>
	<path fill="none" stroke="#000000" stroke-width="1.5" stroke-linecap="round" stroke-linejoin="round" stroke-miterlimit="10" d="
		M318.741,345.378c0,0,3.787-4.562,6.469-5.08c0,0,3.717-5.656,3.217-8.281"/>
	<path fill="none" stroke="#000000" stroke-width="1.5" stroke-linecap="round" stroke-linejoin="round" stroke-miterlimit="10" d="
		M397.866,266c-5.265-2.016-7.811-8.988-13.98-12.981c-7.637-4.941-16.625-4.457-19.945-5.275"/>
	<path fill="none" stroke="#000000" stroke-width="1.5" stroke-linecap="round" stroke-linejoin="round" stroke-miterlimit="10" d="
		M366.899,226.623c0,0,9.465,0.828,20.248,6.665c10.781,5.837,19.959,15.675,19.959,15.675"/>
	<path fill="none" stroke="#000000" stroke-width="1.5" stroke-linecap="round" stroke-linejoin="round" stroke-miterlimit="10" d="
		M367.425,248.392c0,0-4.167-5.166-2.667-9.333s3.666-6.168,5-11.834"/>
	<path fill="none" stroke="#000000" stroke-width="3" stroke-linecap="round" stroke-linejoin="round" stroke-miterlimit="10" d="
		M365.926,219.394c0,0-25.999-6.668-50.666-17.334c0,0-12.667-13.334-22.667-12"/>
	<path fill="none" stroke="#000000" stroke-width="3" stroke-linecap="round" stroke-linejoin="round" stroke-miterlimit="10" d="
		M329.25,318.536c0.082-0.79-0.008-1.618-0.324-2.479c-2.334-6.334-8.25-18.167-8.75-29.667c0,0,0.417-19.667,1.75-32.167
		s5-27.834,6.666-46.167"/>
	<path fill="none" stroke="#000000" stroke-width="3" stroke-linecap="round" stroke-linejoin="round" stroke-miterlimit="10" d="
		M224.51,132.726c0,0,0.416,1.166,2.666,6.333c0,0-3.25-1.104-5.312,3.667c0,0-10.135,15.467-13.135,17.801
		s-3.541,8.627-6.562,20.293c-3.02,11.666,8.761,36.907,12.095,61.573s8.915,60.915,4.916,78.917s5.083,20.082,5.083,20.082
		s18.167-5,45.167-9.5s46.024-4.251,51.626-4.658"/>
	<path fill="none" stroke="#000000" stroke-width="1.5" stroke-linecap="round" stroke-linejoin="round" stroke-miterlimit="10" d="
		M259.676,112.392c0,0-3.25,0.75-7.5,4.75s-9.75,17.083-14.25,22.75s-10.666,13.667-14.667,19.001
		c3.5,13.832-9.833,28.332-5.333,51.332s7.75,38.417,8.25,48.417s0.75,47.75-0.75,53s-1.25,11-1.25,11s0.25,10.5,4.25,16.5"/>
	<path fill="none" stroke="#000000" stroke-width="1.5" stroke-linecap="round" stroke-linejoin="round" stroke-miterlimit="10" d="
		M228.051,139.517c0,0-0.958,3.876-2.958,10.042l0.416,5.749"/>
	<path fill="none" stroke="#000000" stroke-width="1.5" stroke-linecap="round" stroke-linejoin="round" stroke-miterlimit="10" d="
		M220.717,179.017c0.666-5.167-2.124-16.292-3.957-16.125s-7.334,7.833-7.334,7.833s7.334-14.333,11.167-24.333"/>
	<path fill="none" stroke="#000000" stroke-width="1.5" stroke-linecap="round" stroke-linejoin="round" stroke-miterlimit="10" d="
		M223.759,160.892c0,0,1.167-1.834,1.667-1.167s4.499,4.168,5.333,10.334l-0.166,3.833c0,0,10.667-17.667,19.5-29.667
		s7.832-23.166,15.166-22.666"/>
	<path fill="none" stroke="#000000" stroke-width="3" stroke-linecap="round" stroke-linejoin="round" stroke-miterlimit="10" d="
		M201.985,189.669c-0.223,9.724-11.601,31.952-21.06,60.722c0,0-1.999-4.001-7.999-3.667s-8.334,1-8.334,1v2.667v2
		c0,0-30.999-0.001-34.666-0.667s-9.668-1.332-12.334-5.666s-4.666-15.92-7.166-17.668s-8.859-2.42-12.609-3.389
		s-7.432-3.361-8.244-1.693c-0.812,1.668-0.99,2.427-0.99,2.427s-4.322-2.011-5.989,0.322s-1.406,4.407-1.406,4.407
		s-2.261,1.593-3.261,2.593s-1.094,4.179-1.094,4.179s-1.573,0.198-2.906,2.531S73,244.131,73,244.131s-1.741-0.2-2.407,3.593
		s7.666,12.666,7.666,12.666l7.585,2.585c0,0,9.082,5.415,14.082,5.415s8-0.333,8-0.333s29.334,13.333,54.667,21l5,0.667l5.333,7
		c0,0,16.666,2.334,17.333,0c0.667-2.333,0.667-4.667,0.667-4.667l7.333-3.667c0,0,12.671-11.663,18-31.496"/>
	<path fill="none" stroke="#000000" stroke-width="1.5" stroke-linecap="round" stroke-linejoin="round" stroke-miterlimit="10" d="
		M181.157,251.287c0,0,2.957,0.75,3.957,5.917"/>
	<path fill="none" stroke="#000000" stroke-width="1.5" stroke-linecap="round" stroke-linejoin="round" stroke-miterlimit="10" d="
		M180.758,250.829c0,0,0.5,20.563,4,29.063s6.167,12.164,6.167,12.164"/>
	<path fill="none" stroke="#000000" stroke-width="1.5" stroke-linecap="round" stroke-linejoin="round" stroke-miterlimit="10" d="
		M165.258,253.06c0,0-1.666,12.499,3.167,36.833"/>
	<path fill="none" stroke="#000000" stroke-width="1.5" stroke-linecap="round" stroke-linejoin="round" stroke-miterlimit="10" d="
		M168.092,285.893c0,0,4.667,1.5,5.5,3s11.666,4,15.333,1.167"/>
	<path fill="none" stroke="#000000" stroke-width="1.5" stroke-linecap="round" stroke-linejoin="round" stroke-miterlimit="10" d="
		M106.258,267.392c0,0,3.001-0.833,4.834-4.333"/>
	<path fill="none" stroke="#000000" stroke-width="1.5" stroke-linecap="round" stroke-linejoin="round" stroke-miterlimit="10" d="
		M87.422,256.397c0,0-0.102,1.215-0.871,2.327c-1.5,2.167-6.293,1.001-8.626,0.334"/>
	<path fill="none" stroke="#000000" stroke-width="1.5" stroke-linecap="round" stroke-linejoin="round" stroke-miterlimit="10" d="
		M93.114,253.726c0.438,0.938-1.021,3.167-3.354,3.167s-6.656-1.907-9.136-3.97c-2.479-2.063-7.062-8.229-7.062-8.229"/>
	<path fill="none" stroke="#000000" stroke-width="1.5" stroke-linecap="round" stroke-linejoin="round" stroke-miterlimit="10" d="
		M95.854,246.829c0,0,2.885,2.104,1.155,4.479s-4.417,2.25-4.417,2.25s-6.105-4.667-8-6.167s-7.332-9.334-7.332-9.334"/>
	<path fill="none" stroke="#000000" stroke-width="1.5" stroke-linecap="round" stroke-linejoin="round" stroke-miterlimit="10" d="
		M93.833,232.798c0,0,1.219,1.676,2.469,3.26s4.291,6.209,4.291,6.209s1.803,3.427-4.197,5.094l-6.303-5.969
		c-3.249-2.625-8.167-9.668-8.167-9.668"/>
	<path fill="none" stroke="#000000" stroke-width="1.5" stroke-linecap="round" stroke-linejoin="round" stroke-miterlimit="10" d="
		M88.926,225.976c0,0,0.727,5.125,5.832,7.083c1.393,0.534,3.579,1.122,3.579,1.122l3.921,0.378c0,0,0.062,7.271,3.865,12.302"/>
	<path fill="none" stroke="#000000" stroke-width="3" stroke-linecap="round" stroke-linejoin="round" stroke-miterlimit="10" d="
		M226.133,341.935c0,0,0.126,8.625,5.596,14.045c0.285,1.49,0.477,3.077,0.528,4.745c0.333,10.666-68.666,113.332-70.666,117.999
		s-7.666,32.669-24.999,86.002s-31.832,92.999-31.832,92.999s2.408,4.152,14.469,13.333c7.236,5.509,17.947,14.291,33.697,14.667
		c0,0,21.667-68.332,35-100.332s21.333-76,21.333-76s18-20.665,32-35.998s80.832-77.167,86.166-93.167
		c1.774-5.321,3.751-11.086,4.026-20.336"/>
	<path fill="none" stroke="#000000" stroke-width="1.5" stroke-linecap="round" stroke-linejoin="round" stroke-miterlimit="10" d="
		M231.927,355.06c0,0,24.499-6.832,49.666-9.666s35.333-2.669,35.333-2.669"/>
	<path fill="none" stroke="#000000" stroke-width="1.5" stroke-linecap="round" stroke-linejoin="round" stroke-miterlimit="10" d="
		M235.051,339.142c0,0,2.956,3.668,3.332,7.043s-0.082,7.042-0.082,7.042"/>
	<path fill="none" stroke="#000000" stroke-width="3" stroke-linecap="round" stroke-linejoin="round" stroke-miterlimit="10" d="
		M274.672,440.81c0,0,51.423,78.418,64.757,84.418s35.164,6.836,110.497-8.496c75.332-15.334,91.332-15.334,91.332-15.334
		s2-21.334-5.332-33.334c-7.334-12-17.334-21.332-17.334-21.332s-42,15.993-72.666,18.659c-30.667,2.666-51.999,4.673-59.333,4.673
		s-14.667,0.668-14.667,0.668s-18.667-24.668-26-40c-4.771-9.977-17.289-39.506-17.289-39.506l-1.378-9.499"/>
	<path fill="none" stroke="#000000" stroke-width="3" stroke-linecap="round" stroke-linejoin="round" stroke-miterlimit="10" d="
		M108.503,663.147c-1.578,1.91-11.126,5.615-29.524,5.203c-18.398-0.414-43.543-8.325-47.426-7.366
		c-3.883,0.956-6.846,8.04-6.846,8.04s11.74,24.077,34.211,32.693c22.469,8.618,30.542,6.747,39.75,9.625
		c9.207,2.878,13.896,10.029,26.898,9.369c7.756-0.395,14.656-5.484,14.656-5.484s0.102-6.428,1.145-14.585
		c1.041-8.157,3.172-15.64,3.172-15.64"/>
	<path fill="none" stroke="#000000" stroke-width="1.5" stroke-linecap="round" stroke-linejoin="round" d="M26.676,666.392
		c0,0,13,21.25,28.5,29.25s37.25,7,47.75,12.75s22.594,12.422,37.297,6.836"/>
	<path fill="none" stroke="#000000" stroke-width="3" stroke-linecap="round" stroke-linejoin="round" stroke-miterlimit="10" d="
		M520.592,447.894c0,0,0.5-3.833,4.332-9c3.834-5.167,14.668-10,14.668-10s9.332,4.667,15,10.667c5.666,6,6.666,17.334,15.332,23.5
		c8.668,6.166,28.668,21.999,34.168,36.333s3.166,25.834,3.166,25.834s-5.498,3.333-10.75,0.916
		c-5.25-2.417-19.416-20.583-36.168-27.5c-10.082-4.25-18.248-5.752-18.248-5.752"/>
	<path fill="none" stroke="#000000" stroke-width="1.5" stroke-linecap="round" stroke-linejoin="round" d="M604.426,526.142
		c0,0,0.25-16.75-6.5-30.25s-29.5-26.5-37-36s-4.25-11.5-10.25-18.25s-14.75-10-14.75-10"/>
</g>
</svg>
