<?xml version="1.0" encoding="utf-8"?>
<!-- Generator: Adobe Illustrator 16.0.0, SVG Export Plug-In . SVG Version: 6.00 Build 0)  -->
<!DOCTYPE svg PUBLIC "-//W3C//DTD SVG 1.1//EN" "http://www.w3.org/Graphics/SVG/1.1/DTD/svg11.dtd">
<svg version="1.1" id="Layer_1" xmlns="http://www.w3.org/2000/svg" xmlns:xlink="http://www.w3.org/1999/xlink" x="0px" y="0px"
	 width="400px" height="836px" viewBox="0 0 400 836" enable-background="new 0 0 400 836" xml:space="preserve">
<g>
	<path fill="#D6A630" d="M219.859,414.04h0.34c4.75,0.86,9.31,1.49,13.68,1.93v0.011c5.88,7.529-2.38,11.59-2.38,11.59
		c-3.7-0.011-7.51-0.08-11.431-0.221c-3.549-0.14-6.85-0.29-9.93-0.43l0.01-0.24c0,0-4.6-7.739,0.32-12.64H219.859z"/>
	<path fill="#5B1A1A" d="M296.688,408.75l0.119,12.83h-0.379c0,0-26.371,6.12-64.931,5.99c0,0,8.26-4.061,2.38-11.59v-0.011
		C273.209,419.98,296.688,408.75,296.688,408.75z"/>
	<path fill="#5B1A1A" d="M178.499,414.04h31.97c-4.92,4.9-0.32,12.64-0.32,12.64l-0.01,0.24c-13.51-0.61-22.729-1.14-29.97-1.55
		c-3.71-0.5-15.05-0.62-15.05-0.62l-0.51-0.04c0.47-5.32,0.89-9.96,0.89-9.96l-0.03-0.56
		C167.43,414.08,172.249,413.88,178.499,414.04z"/>
	<path fill="#5B1A1A" d="M330.999,802.54l-0.8,5.18c-0.82,0.34-3.271,1.29-7.03,2.15l-0.08-0.34c0,0,1.26-2.972-0.84-6.82
		c0,0-9.8-5.31-13.91-14.49c-3.47-7.729-5.52-15.41-6.09-17.648c4.65,0.698,8.54,2.59,11.92,3.89v0.21c0,0,1.021,4.49,1.73,6.69
		C319.049,791.15,330.47,796.76,330.999,802.54z"/>
	<path fill="#5B1A1A" d="M279.869,805.77l-0.511,0.15c-1.239-2.729-1.351-6.02-1.909-10.2c-1.05-7.88-9.521-11.028-9.521-11.028
		v-7.472c4.369,0.63,11.25,0.512,18.699-3.898c6.04-3.04,11.18-3.44,15.62-2.75c0.569,2.239,2.62,9.92,6.09,17.648
		c4.11,9.182,13.91,14.49,13.91,14.49c2.101,3.85,0.84,6.82,0.84,6.82l0.08,0.34C314.438,811.87,298.64,813.42,279.869,805.77z"/>
	<path fill="#5B1A1A" d="M133.068,767.81l-0.139,1.54c0,0-3.4,21.12-36.65,29.432c0,0-6.03-0.2-4.211,6.238l-0.02,0.052
		c-1.5-0.54-3.07-1.19-4.68-1.96c-0.24-3.552,0.16-7.92,0.16-7.92s7.35-1.57,19.42-5.771c12.08-4.2,16.449-21.7,16.449-21.7
		S127.369,767.32,133.068,767.81z"/>
	<path fill="#5B1A1A" d="M174.68,777.17v5.18h-0.531c0,0-1.84,4.722-5.51,6.302c-3.68,1.568-11.55,1.83-16.539,6.818
		c-4.99,4.99-12.601,14.7-47.25,12.602c0,0-5.5-0.32-12.801-3l0.02-0.052c-1.819-6.438,4.211-6.238,4.211-6.238
		c33.25-8.312,36.65-29.432,36.65-29.432l0.139-1.54c4.91,0.432,11.121,1.521,17.19,4.11c9.11,3.89,19.14,4.4,24.41,4.36
		L174.68,777.17z"/>
	<path d="M330.199,807.72l-0.74,4.79c0,0-8.44,3.15-16.84,3.15s-17.851,0-26.25-3.67c-3.94-1.73-5.92-3.682-7.011-6.07l0.511-0.15
		c18.771,7.65,34.569,6.102,43.3,4.102C326.929,809.01,329.379,808.06,330.199,807.72z"/>
	<path d="M152.1,795.47c4.989-4.989,12.859-5.25,16.539-6.818c3.67-1.58,5.51-6.302,5.51-6.302h0.531v4.44c0,0-4.201,5.78-12.08,6.3
		c-7.871,0.53-10.5,4.73-17.32,10.5c-9.28,8.08-19.43,8.93-32.03,8.93s-25.2-4.198-25.72-7.88c-0.07-0.479-0.12-0.988-0.16-1.528
		c1.609,0.77,3.18,1.42,4.68,1.96c7.301,2.68,12.801,3,12.801,3C139.499,810.17,147.109,800.46,152.1,795.47z"/>
	<path d="M211.249,168.75c0,0,12.63,4.75,23.37,0l0.12,0.12c-2.9,3.03-6.771,5.54-12.99,5.38c-6.13-0.16-8-2.13-10.25-3.63
		l-0.569-1.77L211.249,168.75z"/>
	<path d="M254.019,84.53c7.472,6.22,11.592,12.8,11.092,27.64c-0.5,10.5-1.711,14.45-1.711,14.45l-0.75,0.88
		c-6.75,0.75-6.75,15.75-8.569,15.69c-1.812-0.07,0.319-27.51-0.181-35.86c0,0-6.959-4.5-8.221-9.33c-7.58,3.63-35.56,2.58-41.489,0
		c0,0-3.541,6-5.061,7.57l-1.02-0.07c0.57-8.25,2-16.12,5.399-19.21c6.88-6.26,12.28-8.85,24.961-8.31
		C238.369,78.4,248.739,80.14,254.019,84.53z"/>
	<path fill="#7A5943" d="M198.439,126.29c0.67,6.88-1.33,14.31,0.17,24.68l-0.721,0.09c-0.34-1.8-0.56-2.84-0.63-3.17
		c0,0-1.05-4.77-1.96-9.51c-0.9-4.76-2.67-9.38,2.471-11.44c0-0.2,0-0.43,0-0.65H198.439z"/>
	<path fill="#7A5943" d="M239.97,162.47l-0.471-0.74c-13.41,8.4-25.88,3.83-29.931,1.91l-0.189,0.36l1.551,4.85l0.569,1.77
		c2.25,1.5,4.12,3.47,10.25,3.63c6.221,0.16,10.09-2.35,12.99-5.38C236.799,166.74,238.379,164.35,239.97,162.47z M198.439,126.29
		h-0.67c0-4.7-0.221-12.92,0.34-20.79l1.02,0.07c1.52-1.57,5.061-7.57,5.061-7.57c5.93,2.58,33.909,3.63,41.489,0
		c1.262,4.83,8.221,9.33,8.221,9.33c0.5,8.35-1.631,35.79,0.181,35.86c1.819,0.06,1.819-14.94,8.569-15.69l0.75-0.88
		c0,0,2.979,0.25,4.211,4.38c1.238,4.13-0.57,8.67-3.092,16.95c-1.898,6.2-4.1,7.28-6,7.43c-0.64,0.05-1.238,0-1.778,0
		c-0.642,14.79-6.23,25.4-8.3,27.42c-2.08,2.03-5.541,4.32-9.541,7.95s-8.42,7.95-8.42,7.95s-4.189,1.65-14.931,0
		c0,0-2.77-5.38-4.99-9.43c-0.459-0.83-0.89-1.6-1.279-2.26c-0.32-0.56-0.6-1.03-0.84-1.39c-1.881-2.87-7.83-17.83-9-25.45
		c-0.621-4.05-1.16-7.07-1.551-9.11l0.721-0.09C197.109,140.6,199.109,133.17,198.439,126.29z M235.028,128.9
		c7.091-0.25,7.091-2.77,7.091-2.77s-3.591-4.96-9.181-4.96c0,0-3.42,0.95-4.91,4.96C228.028,126.13,227.938,129.15,235.028,128.9z
		 M209.318,128.62c6.641,0.25,5.621-2.77,5.621-2.77c-1.391-4.02-4.2-4.43-4.2-4.43c-5.23,0-8.06,4.43-8.06,4.43
		S202.68,128.36,209.318,128.62z"/>
	<path fill="#7A5943" d="M225.159,234.67c0-3.56-2.3-7.39-4.729-10.44c-2.671-3.38-5.5-5.79-5.5-5.79
		c-5.671-8.66-6.681-27.56-4.561-29.07l0.189-0.1c2.221,4.05,4.99,9.43,4.99,9.43c10.74,1.65,14.931,0,14.931,0s4.42-4.32,8.42-7.95
		s7.461-5.92,9.541-7.95c2.068-2.02,7.658-12.63,8.3-27.42c0.54,0,1.14,0.05,1.778,0c0,0-1.5,14.41-1.119,32.29l-0.08,0.83
		c0,0-1.579,8.75-6.409,13.59c-4.83,4.83-10.91,10.41-19.24,16.58c-0.76,1.23-1.438,2.43-2.04,3.62
		c-3.44,6.86-4.34,13.19-4.46,19.68h-0.07C225.139,238.31,225.159,235.72,225.159,234.67z"/>
	<path fill="#7A5943" d="M366.569,325.9l-46.791,41.609c0,0-3.079,2.58-16.209,4.94c-1.812,0.99-4.07,2.46-6.42,4.02
		c-5.98,3.971-12.521,8.53-13.61,7.17c-2.8-0.819-2.12-4.069-2.12-4.069c2.721-2.78,14.891-12.62,14.891-12.62l-9.75,3.37
		l-11.311,5.64c0,0-3,0.4-4.109-1.88c-1.121-2.28-0.461-3.55-0.461-3.55s-1.13-0.21-1.97-1.91c-0.84-1.72-0.7-3.32-0.7-3.32
		c1.16-2.72,11.891-9.21,11.891-9.21l10.33-4.42l-7.5-0.46c0,0-8.16,0.39-12.221-0.229c-4.068-0.62-2.24-6.07-2.24-6.07
		c6.762-0.76,23.15-1.9,23.15-1.9c2.58,0.471,4.6,0.84,6.25,1.141c6.4,1.18,7.18,1.35,13.33,2.619c0,0,9.79-12.6,15.2-20.439
		c5.399-7.83,15.03-21.35,15.03-21.35s-0.25-0.101-0.621-0.28l0.851-0.021c0,0,3.83-2.42,15.53,7.21
		c4.1,3.301,6.689,6.771,8.318,9.7c0.7,1.25,1.222,2.41,1.61,3.41L366.569,325.9z"/>
	<path fill="#7A5943" d="M71.27,192.06l0.43,5.49c0.88,3.36,0.9,2.74,2.75,6.41c1,1.95,1.51,2.87,1.72,3.73
		c-0.68,1.66-3.979,2.91-5.149,2.26l-0.65,0.02c-0.58-0.58-1.4-1.43-1.641-1.86c-1.39-3.71-2.02-6.44-2.17-7.68
		c-0.149-1.24,0.681-4.1,1.01-5.65c0.371-1.73,1.711-2.48,2.671-2.8L71.27,192.06z"/>
	<path fill="#7A5943" d="M78.539,187.84c0,0-0.359,4.19,0.96,9.13c1.31,4.95,3.04,9.44,3.04,9.44s-2.74,3.07-6.25,1.32l-0.12-0.04
		c-0.21-0.86-0.72-1.78-1.72-3.73c-1.85-3.67-1.87-3.05-2.75-6.41l-0.43-5.49l-1.03-0.08c0.579-0.19,1.01-0.22,1.01-0.22
		s1.49-2.32,2.51-3.01c0.71-0.47,2.46-0.79,3.49-0.94L78.539,187.84z"/>
	<path fill="#7A5943" d="M89.079,189.85l-0.03,0.21c-3.16-0.41-5.26-0.74-5.26-0.74s-1.32,2.75,0.59,6.68
		c0.59,1.21,1.78,2.15,3.15,2.87l-0.1,0.18c0.579,3,0.649,5.02,0.649,5.02s0.42,3.37-5.54,2.34c0,0-1.73-4.49-3.04-9.44
		c-1.319-4.94-0.96-9.13-0.96-9.13l-1.29-0.03c0.46-0.07,0.78-0.11,0.78-0.11s0.72-2.46,2.949-4.23c2.23-1.76,5.711-1.14,5.711-1.14
		l0.59,0.06C87.85,184.54,88.389,187.24,89.079,189.85z"/>
	<path fill="#7A5943" d="M101.119,190.62l-0.07,0.77c-4.39-0.37-8.76-0.9-12-1.33l0.03-0.21c-0.69-2.61-1.229-5.31-1.8-7.46
		l-0.59-0.06c0,0-4.57-16.78-3.25-19.71c1.31-2.93,5.22-1.95,5.22-1.95s2.39,5,4.38,11.79
		C95.839,180.08,98.229,190.52,101.119,190.62z"/>
	<path fill="#7A5943" d="M70.989,210.56c0,0-0.261-0.25-0.62-0.59l0.65-0.02c1.17,0.65,4.47-0.6,5.149-2.26l0.12,0.04
		c3.51,1.75,6.25-1.32,6.25-1.32c5.96,1.03,5.54-2.34,5.54-2.34s-0.07-2.02-0.649-5.02l0.1-0.18c-1.37-0.72-2.561-1.66-3.15-2.87
		c-1.91-3.93-0.59-6.68-0.59-6.68s2.1,0.33,5.26,0.74c3.24,0.43,7.61,0.96,12,1.33l0.07-0.77c2.02,0.71,2.98,5.28,4.279,9.75
		c1.311,4.47-3.31,20.79-3.31,20.79l8.88,18.64l2.53,4.44v0.38c0,0,0.83,0.64-1.34,2.13c-1.22,0.85-3.42,1.96-7.261,3.38
		c-9.489,3.5-15.689,4.27-16.92,4.39l-0.029-0.45c0.13-0.03,0.21-0.05,0.21-0.05s-4.58-19.25-6.931-25.74
		C71.059,225.05,70.989,210.56,70.989,210.56z"/>
	<path fill="#B2D8D2" d="M87.979,254.52c1.23-0.12,7.431-0.89,16.92-4.39c3.841-1.42,6.041-2.53,7.261-3.38l0.29,0.13
		c2.73-0.37,4.3,6.44,5.3,9.81c2.25,4.48,0.09,6.94,0.09,6.94l0.15,0.26c-7.31,4.43-19.36,10.66-27.82,9.57l-0.13,0.68l-3.63-0.68
		c0,0-4.7-13.98-3.95-16.13c0.66-1.87,4.53-3,5.49-3.26L87.979,254.52z"/>
	<path fill="#B2D8D2" d="M125.739,257.72l-0.69,2.2l-0.66-0.21c0,0-2.539,1.84-6.399,4.18l-0.15-0.26c0,0,2.16-2.46-0.09-6.94
		c-1-3.37-2.569-10.18-5.3-9.81l-0.29-0.13c2.17-1.49,1.34-2.13,1.34-2.13v-0.38c0,0,4.03-1.73,4.83-0.62
		C119.139,244.74,125.739,257.72,125.739,257.72z"/>
	<path fill="#B2D8D2" d="M117.989,263.89c3.86-2.34,6.399-4.18,6.399-4.18l0.66,0.21l-0.05,0.17c0,0-1.21,1.19,0.399,4.31
		c0.511,0.97,0.98,1.84,1.44,2.62l0.33-0.19c11.681-21.36,11.3-20.27,16.83-29.83c0,0,5.71-9.46,11.92-18.42
		c6.21-8.95,12.79-10.33,16.74-12.25c3.649-1.77,27.63-9.65,31.351-10.87l0.819,0.06c0,0-3.67,25.14-2.67,33.64
		s3.59-13.41,9.09-9.41c5.13,2.37,9,4.63,9,4.63l0.181-0.15c2.43,3.05,4.729,6.88,4.729,10.44c0,1.05-0.021,3.64-0.06,7.3
		c-0.24,22.39-1.101,85.07-1.101,85.07s0.101,18.19,0.8,45.49c0.7,27.3-5.67,19.87-6.9,28.3c-0.989,6.8,1.111,11.6,1.961,13.21
		h-9.391h-31.97c-6.25-0.16-11.069,0.04-13.03,0.15c-0.63,0.04-0.97,0.06-0.97,0.06s-1.5-2.5-3.12-7.5c-1.63-5,1.12-8.13,1.12-8.13
		s4.5-22.62,3.17-52.62l0.511-54.83h-0.351c0,0-18.55,34.61-37.24,37.23c-14.409-5.58-17.13-12.61-21.7-17.841
		c-4.56-5.239-16.24-36.31-16.24-36.31l-0.609-0.11l0.13-0.68C98.629,274.55,110.68,268.32,117.989,263.89z"/>
	<path fill="#B2D8D2" d="M214.93,218.44c0,0,2.829,2.41,5.5,5.79l-0.181,0.15c0,0-3.87-2.26-9-4.63c-5.5-4-8.09,17.91-9.09,9.41
		s2.67-33.64,2.67-33.64l-0.82-0.06c0.32-0.1,0.49-0.16,0.49-0.16l1.25-6.65l2.87-1.39l0.66-0.25c0.39,0.66,0.82,1.43,1.279,2.26
		l-0.189,0.1C208.249,190.88,209.259,209.78,214.93,218.44z"/>
	<path fill="#B2D8D2" d="M263.329,188.67c2.4,3.19,4.79,5.32,5.66,6.06l-0.48-0.18l-0.35,0.12c0,0-3.78,11.29-12.28,20.95
		c-8.5,9.67-17.55,21.55-17.55,21.55s-2.16-4.83-2.33-10.5s-1.35-7.77-6.061-4.23l-0.31-0.15c0.601-1.19,1.28-2.39,2.04-3.62
		c8.33-6.17,14.41-11.75,19.24-16.58c4.83-4.84,6.41-13.59,6.41-13.59l0.08-0.83C257.399,187.67,260.329,184.67,263.329,188.67z"/>
	<path fill="#B2D8D2" d="M380.949,313.5c1.88,2.88-2.04,6.83-6.5,11.06c-4.45,4.23-6.16,4.591-6.16,4.591l-1.72-3.25l0.35-0.9
		c-0.391-1-0.91-2.16-1.609-3.41l0.021-0.01c9.069-0.07,5.08-4.98,7.91-8.04c2.72-2.94,3.399-5.62,3.45-5.83
		c2.148,3.01,3.27,5.29,3.56,5.91L380.949,313.5z"/>
	<path fill="#B2D8D2" d="M337.849,299.63c2.33-3.11,6.25-10.12,6.25-10.12l2.45-0.36l0.12,0.85c11.609-0.62,16.36,3.5,23.57,10.33
		c2.75,2.61,4.88,5.2,6.449,7.38c-0.051,0.21-0.729,2.89-3.449,5.83c-2.83,3.06,1.16,7.97-7.91,8.04l-0.021,0.01
		c-1.629-2.93-4.22-6.399-8.318-9.7c-11.7-9.63-15.53-7.21-15.53-7.21l-0.851,0.021C339.209,304.01,335.999,302.09,337.849,299.63z"
		/>
	<path fill="#B2D8D2" d="M370.239,300.33c-7.211-6.83-11.961-10.95-23.57-10.33l-0.12-0.85l0.229-0.03
		c-3-0.37-13.619-4.27-22.561-8.95c-8.939-4.69-18.818-14.41-25.3-13.05l-0.31-0.02c-0.49,6.38-0.961,13.89-0.83,17.9
		c0.25,7.84-0.19,44.94-0.08,59l-0.03,0.15c-1.649-0.301-3.67-0.67-6.25-1.141c0,0-16.39,1.141-23.149,1.9c0,0-1.83,5.45,2.239,6.07
		c4.062,0.619,12.222,0.229,12.222,0.229l7.5,0.46l-10.33,4.42c0,0-10.73,6.49-11.892,9.21c0,0-0.14,1.601,0.7,3.32
		c0.84,1.7,1.971,1.91,1.971,1.91s-0.66,1.27,0.459,3.55c1.11,2.28,4.11,1.88,4.11,1.88l11.31-5.64l9.75-3.37
		c0,0-12.17,9.84-14.89,12.62c0,0-0.68,3.25,2.12,4.069c1.09,1.36,7.63-3.199,13.609-7.17l0.021,0.03
		c-0.5,5.17-0.188,13.35-0.188,13.35c3.5,11.2,3.93,9.24-0.291,18.9c0,0-23.479,11.23-62.811,7.22
		c-4.37-0.439-8.93-1.069-13.68-1.93h-0.341c-0.85-1.61-2.949-6.41-1.959-13.21c1.229-8.43,7.6-1,6.899-28.3s-0.8-45.49-0.8-45.49
		s0.859-62.68,1.1-85.07h0.07c0.12-6.49,1.02-12.82,4.46-19.68l0.311,0.15c4.709-3.54,5.89-1.44,6.06,4.23s2.33,10.5,2.33,10.5
		s9.05-11.88,17.55-21.55c8.5-9.66,12.28-20.95,12.28-20.95l0.35-0.12l0.48,0.18l28.96,10.6c0,0,25.21,9.79,36.779,21.89
		c11.58,12.11,55.771,44.2,56.771,56.28c-0.97,12.75-7.33,24.8-10.55,30l-0.7,0.12c-0.29-0.62-1.41-2.9-3.56-5.91
		C375.119,305.53,372.989,302.94,370.239,300.33z"/>
	<path fill="#282323" d="M302.249,770.57c-4.439-0.69-9.58-0.29-15.62,2.75c-7.45,4.41-14.33,4.528-18.7,3.898
		c-3.01-0.43-4.83-1.229-4.83-1.229s1.75-3.19-6.51-88.07c-8.26-70.22-21.31-163.3-31.85-199.11l-0.07,0.021L206.999,605
		c0,0-22.569,130.37-24.22,155.55l-4.381,15.57c0,0-1.409,0.13-3.729,0.16c-5.271,0.04-15.3-0.472-24.41-4.36
		c-6.069-2.59-12.28-3.68-17.19-4.11c-5.699-0.488-9.67-0.09-9.67-0.09l-4.199-9.568c0,0,14.29-18.312,25.81-122.54
		c11.88-89.2,16.7-160.78,18.49-196.61c0.13-2.54,0.64-8.779,1.11-14.29l0.51,0.04c0,0,11.34,0.12,15.05,0.62
		c7.24,0.41,16.46,0.939,29.97,1.55c3.08,0.14,6.381,0.29,9.93,0.43c3.921,0.141,7.73,0.21,11.431,0.221
		c38.561,0.13,64.93-5.99,64.93-5.99h0.381l0.489,54.8c0,0,5,147.84,13.4,207.34c8.399,59.5,7.26,71.75,8.479,77.7
		c0.539,2.58,2.891,6.28,2.891,6.28s-4.521,4.21-7.9,6.76C310.789,773.16,306.899,771.27,302.249,770.57z"/>
	<path fill="#999999" d="M85.575,77.048c0,0,1.221,1.04,4.62,2.061c3.398,1.019,5.38,0.369,5.38,0.369h0.75v2.69
		c0,0-5.91,3.5-11.449,0v-5.12H85.575z"/>
	<path fill="#999999" d="M84.876,70.918v-3.25c1.858,0.47,3.431,0.72,4.75,0.83c0.949,0.09,1.761,0.11,2.46,0.07
		c2.5-0.11,3.489-0.78,3.489-0.78h0.75v3.13h1.87c1.76,2.25,0,4.5,0,4.5h-1.87v4.061h-0.75c0,0-1.979,0.651-5.38-0.369
		c-3.399-1.021-4.62-2.061-4.62-2.061h-0.699v-1.63h-1.881c0,0-1.75-2.25,0-4.5L84.876,70.918L84.876,70.918z"/>
	<path fill="#EED95F" d="M90.805,34.918c8.869,0.13,14.021,6,13.891,13.87c-0.119,7.88-6.489,10.13-8.858,13.38
		c-1.431,4.01,0.489,5.5,0.489,5.5v0.12h-0.75c0,0-0.989,0.67-3.489,0.78v-0.07c-0.312-10.541,0.239-12.121,0.71-15.021
		c0.051-0.32,0.09-0.619,0.141-0.89c0.779,0.2,1.631-0.16,1.91-0.79c0.5-1.14-0.961-4.47-1.91,0.79
		c-0.721-0.179-1.379-0.849-1.448-2.229c0,0-1.41,3.25-2.63,0c0,0-0.631,1.069-1.41,1.79c-1.45-3.28-2.979-2.471-2.37-0.58
		c0.56,1.729,1.551,1.35,2.37,0.58c1.109,2.53,2.181,7.52,2.181,16.35c-1.319-0.11-2.891-0.36-4.75-0.83c0,0,2.199-1.74,0.779-5.5
		c-2.37-3.25-8.819-6.33-9.16-13.38c-0.34-7.04,4.54-13.74,13.41-13.87H90.805z"/>
	<path fill="#FFFFFF" d="M242.115,126.129c0,0,0,2.52-7.09,2.77s-7-2.77-7-2.77c1.49-4.01,4.91-4.96,4.91-4.96
		C238.525,121.169,242.115,126.129,242.115,126.129z M235.355,125.129c1.439,0.23,0-2.07,0-2.07
		C233.165,122.989,233.915,124.889,235.355,125.129z"/>
	<path d="M235.355,123.059c0,0,1.439,2.3,0,2.07C233.915,124.889,233.165,122.989,235.355,123.059z"/>
	<path fill="#FFFFFF" d="M214.936,125.849c0,0,1.02,3.02-5.62,2.77c-6.64-0.26-6.64-2.77-6.64-2.77s2.83-4.43,8.06-4.43
		C210.735,121.419,213.545,121.829,214.936,125.849z M210.045,124.809c1.271,0.21,0-1.82,0-1.82
		C208.115,122.939,208.775,124.599,210.045,124.809z"/>
	<path d="M210.045,122.989c0,0,1.271,2.03,0,1.82C208.775,124.599,208.115,122.939,210.045,122.989z"/>
	<path fill="#FFFFFF" d="M93.355,52.579c0.96-5.24,2.42-1.92,1.92-0.78C94.995,52.429,94.136,52.789,93.355,52.579z"/>
	<path fill="#FFFFFF" d="M93.355,52.579c-0.04,0.27-0.09,0.57-0.14,0.9c-0.46,2.83-0.99,4.4-0.73,14.27l-2.44-0.03
		c-0.05-8.34-1.09-13.1-2.18-15.57c0.771-0.72,1.41-1.8,1.41-1.8c1.22,3.25,2.63,0,2.63,0
		C91.976,51.719,92.636,52.389,93.355,52.579z"/>
	<path fill="#FFFFFF" d="M87.865,52.149c-0.82,0.77-1.8,1.14-2.359-0.58C84.886,49.669,86.415,48.859,87.865,52.149z"/>
</g>
<g id="line_1_">
	<path fill="none" stroke="#000000" stroke-width="3" stroke-linecap="round" stroke-linejoin="round" d="M208.439,185.62
		c-1.881-2.87-7.83-17.83-9-25.45c-1.172-7.63-2.041-11.58-2.182-12.28c0,0-1.05-4.77-1.96-9.51c-0.899-4.76-2.67-9.38,2.47-11.44
		c0.051-9.13-1.068-34.47,5.74-40.65c6.881-6.26,12.28-8.85,24.96-8.31c9.9,0.42,20.271,2.16,25.551,6.55
		c7.471,6.22,11.59,12.8,11.09,27.64c-0.5,10.5-1.709,14.45-1.709,14.45s2.979,0.25,4.209,4.38c1.24,4.13-0.569,8.67-3.09,16.95
		c-2.529,8.28-5.619,7.43-7.779,7.43c-0.641,14.79-6.23,25.4-8.301,27.42c-2.08,2.03-5.539,4.32-9.539,7.95s-8.42,7.95-8.42,7.95
		s-4.19,1.65-14.932,0C215.549,198.7,210.309,188.5,208.439,185.62z"/>
	<path fill="none" stroke="#000000" stroke-width="1.5" stroke-linecap="round" stroke-linejoin="round" d="M262.649,127.5
		c-6.75,0.75-6.75,15.75-8.57,15.69c-1.811-0.07,0.32-27.51-0.18-35.86c0,0-6.961-4.5-8.221-9.33c-7.58,3.63-35.561,2.58-41.489,0
		c0,0-3.541,6-5.062,7.57"/>
	<path fill="none" stroke="#000000" stroke-width="1.5" stroke-linecap="round" stroke-linejoin="round" d="M198.439,126.29
		c0.67,6.88-1.33,14.31,0.17,24.68"/>
	<path fill="none" stroke="#000000" stroke-width="1.5" stroke-linecap="round" stroke-linejoin="round" d="M257.399,147.9
		c0,0,4.56,1.31,3.5-8.78c0,0-1.471-8.39,2.869-6.24"/>
	<path fill="none" stroke="#000000" stroke-width="3" stroke-linecap="round" stroke-linejoin="round" d="M244.289,119.36
		c0,0-2.06-7.85-16.521-7.44"/>
	<path fill="none" stroke="#000000" stroke-width="1.5" stroke-linecap="round" stroke-linejoin="round" d="M242.119,126.13
		c0,0-3.591-4.96-9.181-4.96c0,0-3.42,0.95-4.91,4.96c0,0-0.09,3.02,7,2.77C242.119,128.65,242.119,126.13,242.119,126.13z"/>
	<path fill="none" stroke="#000000" stroke-width="3" stroke-linecap="round" stroke-linejoin="round" d="M235.358,123.06
		c-2.189-0.07-1.439,1.83,0,2.07C236.799,125.36,235.358,123.06,235.358,123.06z"/>
	<path fill="none" stroke="#000000" stroke-width="3" stroke-linecap="round" stroke-linejoin="round" d="M212.85,113.25
		c0,0-8.189-1.48-13.08,6.75"/>
	<path fill="none" stroke="#000000" stroke-width="1.5" stroke-linecap="round" stroke-linejoin="round" d="M202.68,125.85
		c0,0,2.829-4.43,8.061-4.43c0,0,2.81,0.41,4.199,4.43c0,0,1.021,3.02-5.619,2.77C202.68,128.36,202.68,125.85,202.68,125.85z"/>
	<path fill="none" stroke="#000000" stroke-width="3" stroke-linecap="round" stroke-linejoin="round" d="M210.049,124.81
		c1.271,0.21,0-1.82,0-1.82C208.119,122.94,208.779,124.6,210.049,124.81z"/>
	<path fill="none" stroke="#000000" stroke-width="1.5" stroke-linecap="round" stroke-linejoin="round" d="M220.339,120.58
		c0,0-0.43,11.62-1.489,14.56c-1.07,2.94-0.58,10.2-0.58,10.2"/>
	<path fill="none" stroke="#000000" stroke-width="1.5" stroke-linecap="round" stroke-linejoin="round" d="M231.509,151.53
		c0,0,1.28,4.7-2.39,4.7s-1.61,3.63-7.721,4.06c-6.119,0.42-4.271-3.34-6.459-4.06c-2.182-0.72-3.972-1.49-1.842-4.8"/>
	<path fill="none" stroke="#000000" stroke-width="1.5" stroke-linecap="round" stroke-linejoin="round" d="M208.199,162.93
		c0,0,15.42,9.32,32.05-1.67"/>
	<path fill="none" stroke="#000000" stroke-width="1.5" stroke-linecap="round" stroke-linejoin="round" d="M238.569,158.29
		c0,0,1.398,3.99,4.77,5.69"/>
	<path fill="none" stroke="#000000" stroke-width="1.5" stroke-linecap="round" stroke-linejoin="round" d="M239.97,162.47
		c-3.851,4.53-7.601,12.06-18.221,11.78c-6.13-0.16-8-2.13-10.25-3.63l-2.12-6.62"/>
	<path fill="none" stroke="#000000" stroke-width="1.5" stroke-linecap="round" stroke-linejoin="round" d="M211.249,168.75
		c0,0,12.63,4.75,23.37,0"/>
	<path fill="none" stroke="#000000" stroke-width="3" stroke-linecap="round" stroke-linejoin="round" d="M208.619,187.26
		l-2.87,1.39l-1.25,6.65c0,0-27.882,9.114-31.837,11.034s-10.536,3.295-16.747,12.25S143.999,237,143.999,237
		c-5.531,9.558-5.149,8.471-16.832,29.832"/>
	<path fill="none" stroke="#000000" stroke-width="3" stroke-linecap="round" stroke-linejoin="round" d="M133.604,280.333
		c-1.603-7-3.854-7.583-8.205-15.934c-1.611-3.12-0.4-4.311-0.4-4.311l0.745-2.371c0,0-6.604-12.979-7.41-14.099
		c-0.806-1.109-4.833,0.621-4.833,0.621l-2.529-4.438l-8.885-18.639c0,0,4.624-16.322,3.316-20.794
		c-1.307-4.473-2.266-9.041-4.278-9.75c-2.892-0.1-5.28-10.542-8.088-18.155c-1.983-6.79-4.376-11.792-4.376-11.792
		s-3.908-0.986-5.225,1.944c-1.318,2.933,3.25,19.715,3.25,19.715s-3.475-0.624-5.705,1.141c-2.229,1.771-2.947,4.228-2.947,4.228
		s-3.243,0.357-4.27,1.05c-1.022,0.691-2.52,3.007-2.52,3.007s-3.09,0.251-3.68,3.021c-0.33,1.556-1.156,4.409-1.004,5.648
		c0.151,1.238,0.783,3.973,2.168,7.685c0.385,0.692,2.261,2.452,2.261,2.452s0.067,14.483,10.237,17.721
		c2.354,6.488,6.931,25.739,6.931,25.739s-4.943,1.167-5.695,3.311c-0.754,2.146,3.949,16.123,3.949,16.123l4.237,0.791
		c0,0,11.68,31.07,16.244,36.308c4.566,5.235,7.289,12.264,21.695,17.843c18.688-2.621,37.242-37.232,37.242-37.232"/>
	<path fill="none" stroke="#000000" stroke-width="1.5" stroke-linecap="round" stroke-linejoin="round" d="M124.389,259.707
		c0,0-21.301,15.422-34.217,13.753"/>
	<path fill="none" stroke="#000000" stroke-width="1.5" stroke-linecap="round" stroke-linejoin="round" d="M113.499,244.625
		c0,0,2.028,1.577-8.604,5.507c-10.631,3.931-17.146,4.412-17.146,4.412"/>
	<path fill="none" stroke="#000000" stroke-width="1.5" stroke-linecap="round" stroke-linejoin="round" d="M117.842,263.627
		c0,0,2.158-2.46-0.092-6.937c-1.004-3.37-2.57-10.185-5.298-9.808"/>
	<path fill="none" stroke="#000000" stroke-width="1.5" stroke-linecap="round" stroke-linejoin="round" d="M84.77,227.282
		c0,0-0.934,0.357-4.955,0.116"/>
	<path fill="none" stroke="#000000" stroke-width="1.5" stroke-linecap="round" stroke-linejoin="round" d="M88.303,212.159
		c0,0,1.279-2.991,2.443-5.488c1.17-2.5,3.814-5.686,3.814-5.686s-8.273-1.048-10.184-4.983c-1.904-3.937-0.589-6.677-0.589-6.677
		s8.664,1.336,17.353,2.072"/>
	<path fill="none" stroke="#000000" stroke-width="1.5" stroke-linecap="round" stroke-linejoin="round" d="M87.277,182.386
		c0.568,2.159,1.109,4.854,1.803,7.461"/>
	<path fill="none" stroke="#000000" stroke-width="1.5" stroke-linecap="round" stroke-linejoin="round" d="M87.428,199.046
		c0.578,3.008,0.648,5.024,0.648,5.024s0.424,3.37-5.534,2.34"/>
	<path fill="none" stroke="#000000" stroke-width="1.5" stroke-linecap="round" stroke-linejoin="round" d="M78.542,187.841
		c0,0-0.366,4.185,0.953,9.133c1.315,4.948,3.047,9.436,3.047,9.436s-2.745,3.073-6.255,1.316"/>
	<path fill="none" stroke="#000000" stroke-width="1.5" stroke-linecap="round" stroke-linejoin="round" d="M71.266,192.063
		l0.433,5.49c0.878,3.353,0.901,2.738,2.754,6.403c1,1.954,1.51,2.869,1.722,3.735c-0.686,1.659-3.982,2.911-5.158,2.257"/>
	<path fill="none" stroke="#000000" stroke-width="3" stroke-linecap="round" stroke-linejoin="round" d="M258.519,155.38
		c0,0-1.5,14.41-1.119,32.29c0,0,2.931-3,5.931,1s6,6.33,6,6.33"/>
	<path fill="none" stroke="#000000" stroke-width="3" stroke-linecap="round" stroke-linejoin="round" d="M283.539,383.64
		c1.521,1.892,13.59-7.68,20.03-11.188c13.13-2.36,16.209-4.94,16.209-4.94l46.787-41.61l1.724,3.252c0,0,1.71-0.36,6.16-4.592
		c4.46-4.229,8.38-8.18,6.5-11.06c3.22-5.2,9.579-17.25,10.55-30c-1-12.08-45.189-44.17-56.77-56.28
		c-11.57-12.1-36.78-21.89-36.78-21.89l-29.44-10.784"/>
	<path fill="none" stroke="#000000" stroke-width="3" stroke-linecap="round" stroke-linejoin="round" d="M298.919,267.12
		c6.48-1.36,16.36,8.36,25.301,13.05c8.939,4.68,19.561,8.58,22.561,8.95l-2.68,0.39c0,0-3.92,7.01-6.25,10.12
		c-2.33,3.11,3.379,5.352,3.379,5.352s-9.635,13.523-15.035,21.354c-5.399,7.83-15.195,20.435-15.195,20.435
		c-7.739-1.6-6.979-1.448-19.58-3.76c0,0-16.39,1.142-23.148,1.9c0,0-1.83,5.45,2.24,6.07c4.059,0.618,12.219,0.229,12.219,0.229
		l7.5,0.46l-10.33,4.42c0,0-10.729,6.49-11.889,9.21c0,0-0.142,1.602,0.698,3.32c0.84,1.7,1.972,1.91,1.972,1.91
		s-0.66,1.27,0.459,3.55c1.109,2.28,4.109,1.88,4.109,1.88l11.311-5.64l9.75-3.37c0,0-12.17,9.84-14.891,12.62
		c0,0-0.68,3.25,2.12,4.068"/>
	<path fill="none" stroke="#000000" stroke-width="1.5" stroke-linecap="round" stroke-linejoin="round" d="M271.528,370.375
		c0,0,9.521-6.355,13.66-8.135c4.131-1.79,9.58-2.61,9.58-2.61"/>
	<path fill="none" stroke="#000000" stroke-width="1.5" stroke-linecap="round" stroke-linejoin="round" d="M317.499,352.13
		c0,0-2.55-2.91-6.76-4.66"/>
	<path fill="none" stroke="#000000" stroke-width="1.5" stroke-linecap="round" stroke-linejoin="round" d="M341.461,304.678
		c0,0,3.833-2.417,15.529,7.211c5.851,4.705,8.63,9.76,9.926,13.109"/>
	<path fill="none" stroke="#000000" stroke-width="1.5" stroke-linecap="round" stroke-linejoin="round" d="M380.334,313.792
		c0,0-2.885-6.622-10.095-13.461c-7.211-6.83-11.961-10.95-23.57-10.33"/>
	<path fill="none" stroke="#000000" stroke-width="1.5" stroke-linecap="round" stroke-linejoin="round" d="M376.688,307.7
		c0,0-0.619,2.78-3.449,5.84s1.154,7.975-7.905,8.045"/>
	<path fill="none" stroke="#000000" stroke-width="1.5" stroke-linecap="round" stroke-linejoin="round" d="M367.278,287.5
		c0,0-11.939-3-19.75,1.25"/>
	<path fill="none" stroke="#000000" stroke-width="3" stroke-linecap="round" stroke-linejoin="round" d="M297.699,344
		c-0.11-14.06,0.329-51.16,0.079-59s1.791-29.04,1.791-29.04"/>
	<path fill="none" stroke="#000000" stroke-width="1.5" stroke-linecap="round" stroke-linejoin="round" d="M210.369,189.37
		c-2.12,1.51-1.11,20.41,4.561,29.07c0,0,10.229,8.73,10.229,16.23s-1.16,92.37-1.16,92.37s0.101,18.19,0.8,45.49
		c0.7,27.3-5.67,19.87-6.898,28.3c-1.23,8.438,2.3,13.8,2.3,13.8"/>
	<path fill="none" stroke="#000000" stroke-width="1.5" stroke-linecap="round" stroke-linejoin="round" d="M257.319,188.5
		c0,0-1.58,8.75-6.41,13.59c-4.83,4.83-10.91,10.41-19.24,16.58c-5.489,8.83-6.51,16.66-6.51,24.83"/>
	<path fill="none" stroke="#000000" stroke-width="1.5" stroke-linecap="round" stroke-linejoin="round" d="M204.832,195.52
		c0,0-3.673,25.14-2.673,33.64s3.59-13.41,9.09-9.41c5.13,2.37,9,4.63,9,4.63"/>
	<path fill="none" stroke="#000000" stroke-width="1.5" stroke-linecap="round" stroke-linejoin="round" d="M229.938,222.44
		c4.711-3.54,5.891-1.44,6.061,4.23s2.33,10.5,2.33,10.5s9.05-11.88,17.55-21.55c8.5-9.66,12.28-20.95,12.28-20.95"/>
	<path fill="none" stroke="#000000" stroke-width="3" stroke-linecap="round" stroke-linejoin="round" d="M166.499,256l-0.835,90
		c1.333,29.999-3.165,52.62-3.165,52.62s-2.75,3.13-1.12,8.13c1.62,5,3.12,7.5,3.12,7.5s5.75-0.42,14-0.21h41.7
		c47.51,8.57,76.489-5.29,76.489-5.29c4.221-9.66,3.791-7.699,0.291-18.899c0,0-0.314-8.184,0.186-13.351"/>
	<path fill="none" stroke="#000000" stroke-width="3" stroke-linecap="round" stroke-linejoin="round" d="M165.499,414.75
		c0,0-1.75,19.25-2,24.25c-1.79,35.83-6.61,107.41-18.49,196.61c-11.52,104.229-25.81,122.54-25.81,122.54l4.199,9.568
		c0,0,13.74-1.398,26.859,4.2c13.131,5.6,28.141,4.2,28.141,4.2l4.381-15.57C184.43,735.37,206.999,605,206.999,605l17.67-116.165"
		/>
	<path fill="none" stroke="#000000" stroke-width="3" stroke-linecap="round" stroke-linejoin="round" d="M296.688,408.75
		l0.609,67.63c0,0,5,147.84,13.4,207.34c8.398,59.5,7.26,71.75,8.479,77.7c0.54,2.58,2.891,6.28,2.891,6.28s-4.521,4.21-7.899,6.76
		c-6.62-2.54-15.2-7.35-27.54-1.14c-12.59,7.438-23.529,2.67-23.529,2.67s1.75-3.19-6.511-88.07
		c-10.29-87.5-28.03-210.479-39.061-213.95"/>
	<path fill="none" stroke="#000000" stroke-width="1.5" stroke-linecap="round" stroke-linejoin="round" d="M165.119,424.75
		c0,0,11.34,0.12,15.05,0.62c8.89,0.5,20.761,1.188,39.899,1.979c44.681,1.58,76.36-5.77,76.36-5.77"/>
	<path fill="none" stroke="#000000" stroke-width="1.5" stroke-linecap="round" stroke-linejoin="round" d="M231.499,427.57
		c0,0,8.26-4.062,2.38-11.59"/>
	<path fill="none" stroke="#000000" stroke-width="1.5" stroke-linecap="round" stroke-linejoin="round" d="M210.15,426.684
		c0,0-4.603-7.742,0.317-12.644"/>
	<path fill="none" stroke="#000000" stroke-width="3" stroke-linecap="round" stroke-linejoin="round" d="M123.398,767.72
		c0,0-4.369,17.5-16.449,21.7c-12.07,4.2-19.42,5.771-19.42,5.771s-0.53,5.778,0,9.448c0.52,3.682,13.119,7.88,25.72,7.88
		s22.75-0.85,32.03-8.93c6.818-5.77,9.449-9.97,17.318-10.5c7.881-0.52,12.08-6.3,12.08-6.3v-9.62"/>
	<path fill="none" stroke="#000000" stroke-width="1.5" stroke-linecap="round" stroke-linejoin="round" d="M174.148,782.35
		c0,0-1.84,4.722-5.51,6.302c-3.681,1.568-11.551,1.83-16.541,6.818c-4.988,4.99-12.6,14.7-47.25,12.602c0,0-8.31-0.49-18.06-5.23"
		/>
	<path fill="none" stroke="#000000" stroke-width="1.5" stroke-linecap="round" stroke-linejoin="round" d="M132.93,769.35
		c0,0-3.399,21.12-36.649,29.432c0,0-6.03-0.2-4.21,6.238"/>
	<path fill="none" stroke="#000000" stroke-width="3" stroke-linecap="round" stroke-linejoin="round" d="M267.929,777.16v7.53
		c0,0,8.471,3.148,9.521,11.028c1.05,7.87,0.52,12.59,8.92,16.271c8.398,3.67,17.85,3.67,26.25,3.67c8.398,0,16.84-3.15,16.84-3.15
		l1.54-9.97c-0.53-5.78-11.95-11.39-15.101-21.18c-0.709-2.2-1.729-6.69-1.729-6.69"/>
	<path fill="none" stroke="#000000" stroke-width="1.5" stroke-linecap="round" stroke-linejoin="round" d="M330.499,807.59
		c0,0-21.82,9.92-50.63-1.82"/>
	<path fill="none" stroke="#000000" stroke-width="1.5" stroke-linecap="round" stroke-linejoin="round" d="M302.089,769.92
		c0,0,2.131,9.11,6.25,18.3c4.11,9.182,13.91,14.49,13.91,14.49c2.1,3.85,0.84,6.82,0.84,6.82"/>
	<path fill="none" stroke="#000000" stroke-width="3" stroke-linecap="round" stroke-linejoin="round" stroke-miterlimit="10" d="
		M96.751,82.167v-6.75h1.875c0,0,1.75-2.25,0-4.5h-1.875v-3.25c0,0-1.917-1.492-0.494-5.499c2.375-3.25,8.744-5.5,8.869-13.376
		s-5.021-13.75-13.896-13.875h-0.896c-8.875,0.125-13.752,6.834-13.413,13.875c0.338,7.041,6.785,10.126,9.16,13.376
		c1.418,3.757-0.785,5.499-0.785,5.499v3.25h-1.875c-1.75,2.25,0,4.5,0,4.5h1.875v6.75C90.842,85.666,96.749,82.167,96.751,82.167z"
		/>
	
		<path fill="#FFFFFF" stroke="#000000" stroke-width="1.5" stroke-linecap="round" stroke-linejoin="round" stroke-miterlimit="10" d="
		M85.296,67.667c7.921,2,10.703,0.125,10.703,0.125"/>
	
		<path fill="#FFFFFF" stroke="#000000" stroke-width="1.5" stroke-linecap="round" stroke-linejoin="round" stroke-miterlimit="10" d="
		M95.188,73.171c0,0-2.432-0.369-4.44-1.088c-2.011-0.719-4.278-2.5-4.278-2.5"/>
	
		<path fill="#FFFFFF" stroke="#000000" stroke-width="1.5" stroke-linecap="round" stroke-linejoin="round" stroke-miterlimit="10" d="
		M86.878,73.591c0,0,1.245,1.159,3.66,1.99s5.461,0.961,5.461,0.961"/>
	
		<path fill="#FFFFFF" stroke="#000000" stroke-width="1.5" stroke-linecap="round" stroke-linejoin="round" stroke-miterlimit="10" d="
		M85.999,77.042c0,0,1.222,1.041,4.618,2.062c3.398,1.021,5.382,0.375,5.382,0.375"/>
	<path fill="none" stroke="#000000" stroke-width="1.5" stroke-linecap="round" stroke-linejoin="round" stroke-miterlimit="10" d="
		M92.509,68.499c-0.312-10.543,0.238-12.118,0.707-15.02c0.938-6.5,2.587-2.883,2.056-1.68c-0.531,1.203-3.211,1.43-3.365-1.445
		c0,0-1.407,3.25-2.626,0c0,0-2.688,4.562-3.774,1.211c-1.088-3.351,4.551-3.314,4.545,16.934"/>
	
		<line fill="none" stroke="#EED95F" stroke-width="2" stroke-linecap="round" stroke-linejoin="round" stroke-miterlimit="10" x1="119.88" y1="64.315" x2="112.303" y2="61.319"/>
	
		<line fill="none" stroke="#EED95F" stroke-width="2" stroke-linecap="round" stroke-linejoin="round" stroke-miterlimit="10" x1="123.145" y1="38" x2="114.035" y2="40.667"/>
	
		<line fill="none" stroke="#EED95F" stroke-width="2" stroke-linecap="round" stroke-linejoin="round" stroke-miterlimit="10" x1="103.332" y1="19" x2="99.499" y2="27.667"/>
	
		<line fill="none" stroke="#EED95F" stroke-width="2" stroke-linecap="round" stroke-linejoin="round" stroke-miterlimit="10" x1="74.282" y1="19.45" x2="77.902" y2="27.667"/>
	
		<line fill="none" stroke="#EED95F" stroke-width="2" stroke-linecap="round" stroke-linejoin="round" stroke-miterlimit="10" x1="57.665" y1="44.677" x2="67.167" y2="44.677"/>
	
		<line fill="none" stroke="#EED95F" stroke-width="2" stroke-linecap="round" stroke-linejoin="round" stroke-miterlimit="10" x1="64.369" y1="67.668" x2="71.834" y2="62.171"/>
</g>
</svg>
