<?xml version="1.0" encoding="utf-8"?>
<!-- Generator: Adobe Illustrator 16.0.0, SVG Export Plug-In . SVG Version: 6.00 Build 0)  -->
<!DOCTYPE svg PUBLIC "-//W3C//DTD SVG 1.1//EN" "http://www.w3.org/Graphics/SVG/1.1/DTD/svg11.dtd">
<svg version="1.1" id="Layer_1" xmlns="http://www.w3.org/2000/svg" xmlns:xlink="http://www.w3.org/1999/xlink" x="0px" y="0px"
	 width="500px" height="800px" viewBox="0 0 500 800" enable-background="new 0 0 500 800" xml:space="preserve">
<g>
	<path fill="#497C72" d="M411.29,217.51l-7.069,5.12l-0.131,0.2c-0.898-0.56-1.89-1.17-2.88-1.79l0.19-0.3
		c0,0-4.541-8.22-9.471-11.98c1.18-0.61,2.221-1.12,2.221-1.12c2.608,0.79,5.68,0.86,7.84-1.58H402
		C404.811,207.79,411.29,217.51,411.29,217.51z"/>
	<path fill="#7A5943" d="M282.689,251.28c-11.609,1.01-20.66,0.93-23.539,0.67c-5.93-0.54-10.25-2.05-10.25-2.05l-0.44-0.44
		c0,0-0.06-1.35-0.021-3.66c0.061-4.03,0.381-10.98,1.75-18.79c2.16-12.31,6.48-17.49,6.48-17.49s2.811-0.54,9.189-0.86
		c1.141-0.05,2.391-0.1,3.761-0.14c1.81-0.05,3.819-0.08,6.05-0.08c7.37,0,16.71,0.46,27,0.94c0.34,0.02,0.68,0.03,1.021,0.05
		c1.148,0.05,2.318,0.11,3.488,0.16c2.062,0.09,4.15,0.19,6.271,0.27c1.699,0.07,3.41,0.14,5.14,0.21
		c3.511,0.12,7.07,0.23,10.642,0.31c20.3,0.43,26.34-0.43,26.34-0.43s10.66-0.43,15.41-3.74c4.75-3.32,8.17-4.04,14.93-5.62
		c6.43-1.5,7.51-2.18,10.01-0.58c0.13,0.08,0.271,0.17,0.41,0.271c2.811,1.95,4.88,1.86,6.32,4.92c-0.211,0.32-0.42,0.6-0.66,0.86
		c-2.16,2.44-5.23,2.37-7.84,1.58c0,0-1.041,0.51-2.221,1.12c-1.271,0.66-2.699,1.44-3.181,1.83c0,0,4.11,4.97,6.84,6.84
		c1.12,0.77,3.36,2.2,5.62,3.61c0.99,0.62,1.98,1.23,2.88,1.79c2.03,1.27,3.601,2.23,3.601,2.23s2.591,2.88,2.16,5.76
		c-0.439,2.88-4.761,3.89-4.761,3.89s0.29,2.73-0.71,4.17c-1.01,1.44-4.47,2.02-4.47,2.02s-0.72,3.31-2.3,4.6
		c-1.58,1.3-4.461,1.45-4.461,1.45s-0.289,1-2.311,2.3c-2.01,1.29-7.52-1.3-15.689-3.31c-0.459-0.12-1.119-0.41-1.909-0.82
		c-3.851-2.05-10.9-7.04-14.07-8.54c0,0-3.11,0.04-9.909,1.12c-5.701,0.9-13.99,2.54-25.221,5.5
		C310.25,247.87,295.02,250.2,282.689,251.28z"/>
	<path fill="#5B1A1A" d="M401.4,220.74l-0.19,0.3c-2.26-1.41-4.5-2.84-5.62-3.61c-2.729-1.87-6.84-6.84-6.84-6.84
		c0.48-0.39,1.91-1.17,3.18-1.83C396.859,212.52,401.4,220.74,401.4,220.74z"/>
	<path fill="#D6A630" d="M396.38,198.5l-0.46,1.51c-2.5-1.6-3.58-0.92-10.01,0.58c-6.76,1.58-10.18,2.3-14.93,5.62
		c-4.75,3.31-15.41,3.74-15.41,3.74s-6.041,0.86-26.34,0.43c-3.57-0.08-7.131-0.19-10.642-0.31v-0.12
		c5.7-3.3,53.392-38.66,53.392-38.66c3.459-0.64,20.52,21.17,22.028,23.54C395.52,197.21,396.38,198.5,396.38,198.5z M376.9,199.15
		c6-6.3-3.102-11.11-7.801-8.11C361.6,195.85,370.9,205.45,376.9,199.15z"/>
	<path d="M369.1,191.04c4.7-3,13.801,1.81,7.801,8.11C370.9,205.45,361.6,195.85,369.1,191.04z"/>
	<path fill="#497C72" d="M372.93,158.12l1.74,4l-1.99,1.65l-0.39-0.47l-58.8,45.44l-0.04,1.12c-2.12-0.08-4.21-0.18-6.271-0.27
		l0.01-0.25l64.569-51c0,0.01,0,0.01,0,0.01L372.93,158.12z"/>
	<path fill="#497C72" d="M373.24,245.12l-50.602,36.71l-0.14-0.19c-12-11.1-10.5-18.6-10.5-18.6l-0.33-0.51l37.59-24.83
		c6.8-1.08,9.91-1.12,9.91-1.12C362.34,238.08,369.391,243.07,373.24,245.12z"/>
	<path fill="#9E9E9E" d="M367.6,155.69l0.102,0.35l-64.01,53.39c-0.342-0.02-0.682-0.03-1.021-0.05l0.021-0.33l60.76-53.9
		c-0.09,0.14-0.15,0.21-0.15,0.21L367.6,155.69z"/>
	<path fill="#9E9E9E" d="M364.721,150.81c0.85,1.23-0.75,3.63-1.271,4.34l-60.761,53.9l-0.021,0.33c-10.29-0.48-19.63-0.94-27-0.94
		c-2.229,0-4.239,0.03-6.05,0.08v-0.15l68.85-68.17l0.051-0.06l0.039,0.04c0,0,6.2-6.24,8.092-6.88
		C348.54,132.67,363.71,149.35,364.721,150.81z"/>
	<path fill="#5B1A1A" d="M362.07,750.36c-1.23,0.33-14.812,3.84-34.432,5.04c-20.58,1.27-35.148-6.961-52.88-6.012
		c-17.739,0.95-27.87-4.75-27.87-4.75l-0.41,0.04l-0.22-2.58l3.48-17.1l-0.12-0.86c9.479-1.35,35.26-4.729,53.33-4.13l-0.01,0.24
		c7.289,8.55,56.369,22.49,58.898,23.75c1.391,0.69,1.17,3.75,0.68,6.37L362.07,750.36z"/>
	<path d="M362.07,750.36l0.449,0.01c-0.399,2.188-0.99,4.08-0.99,4.08s-25.971,6.02-51.619,3.8c-22.49-4.43-21.221-6.96-41.17-5.38
		c-11.08,0.63-21.85-3.48-21.85-3.48l-0.41-4.71l0.41-0.04c0,0,10.129,5.7,27.869,4.75c17.73-0.948,32.301,7.28,52.881,6.012
		C347.26,754.2,360.84,750.69,362.07,750.36z"/>
	<path fill="#D6A630" d="M349.26,237.7l-37.59,24.83l-3.33,2.2l-8.55,5.65l-4.319-1.52l-10.511-14.64l-2.271-2.94
		c12.33-1.08,27.561-3.41,41.351-8.08C335.27,240.24,343.561,238.6,349.26,237.7z"/>
	<path fill="#5B1A1A" d="M338.52,140.14l-0.049,0.06l-68.851,68.17v0.15c-1.37,0.04-2.62,0.09-3.761,0.14l66.199-73.88
		L338.52,140.14z"/>
	<path fill="#282323" d="M334.3,415.09c3.479,73.2-0.06,102.28-4.12,128.15c-3.14,20.04-17.8,128.75-17.8,128.75l-1.83,48.58
		c-2.3-0.302-4.858-0.472-7.6-0.562c-18.07-0.6-43.851,2.78-53.33,4.13c-2.33,0.342-3.681,0.552-3.681,0.552s5.36-38.2,5.711-44.182
		c3.459-31.108,4.939-55.239,7.3-84.7c1.521-19.118,3.42-40.479,6.47-67.46c-0.27-25.67-6.09-58.818-7.68-73.698
		c-1.381-10.182-3.29-17.512-5.42-23.17c-6.061-16.03-13.99-18.66-17.32-34.73c-4.311-20.77-2.05-40.12-1.85-41.8l0.06,0.01
		c0,0,33-8.92,52.96-11.79c13.41-1.939,25.771-3.15,33.87-4.43c3.96-0.62,6.899-1.25,8.46-1.99l0.09-0.01
		C331.87,356.74,333.141,396.85,334.3,415.09z"/>
	<path fill="#497C72" d="M236.66,201.65c-0.36-0.18-0.75-0.39-1.2-0.62l0.04-0.08l74.51-82.78l2.391-2.27l21.291,16.59l-1.711,2.22
		l0.08,0.07l-66.199,73.88c-6.381,0.32-9.19,0.86-9.19,0.86v-4.04l55.32-61.24l-8.101-6l-58.451,64.37c-4.75-0.87-6.909,0-6.909,0
		S237.85,202.27,236.66,201.65z M314.62,140.57l5.771-6.52l-7.271-6l-5.47,6.59L314.62,140.57z"/>
	<path fill="#D6A630" d="M326.811,322.06c0,0,3.569,6.32,1.779,14.66c0,0.011,0,0.011,0,0.021l-0.09,0.01
		c-1.561,0.74-4.5,1.37-8.46,1.99L320,338.5c0,0-1.5-2.38-1.5-7.25s0.25-7.25,0.25-7.25l-0.08-0.43c3.15-0.57,5.41-1.15,6.891-1.58
		L326.811,322.06z"/>
	<path fill="#B2D8D2" d="M227.3,246.01c0,0,0.87,0.86,2.591,2.81C231.62,250.76,247.6,254,247.6,254l1.301-4.1
		c0,0,4.32,1.51,10.25,2.05c2.88,0.26,11.93,0.34,23.539-0.67l2.271,2.94l10.511,14.64l4.319,1.52
		c1.08,7.12,13.89,17.95,13.89,17.95l2.66-1.93l0.15,0.199c0,0,7.42,17.011,8.38,20.57c0.95,3.561,2.86,14.08,2.86,14.08
		s-0.69,0.3-2.172,0.74c-1.479,0.43-3.738,1.01-6.89,1.58c-4.95,0.899-12.09,1.779-21.83,2.05c-31.59,4.76-60.37,15.55-63.55,16.77
		C233.1,342.46,233,342.5,233,342.5s-5.67,0.38-7.061-5.56c-1.33-5.671,1.681-17.53-0.359-23.341
		c-4.18-11.899-17.83-18.569-53.68-48.37c-35.851-29.8-41.01-56.03-42.301-73.74c-1.3-17.7,1.25-34.2,1.25-34.2l-0.3-0.36l0.06-0.05
		c0,0,5.82,2.17,12.461,3.35c2,0.36,3.68,0.64,5.22,0.86l0.13,0.26c1.03-0.51,2.301-1.14,3.77-1.86
		c7.91-3.09,17.431-1.14,26.471,3.42c1.02,0.5,2.029,1.05,3.029,1.62c1.15,0.66,2.301,1.36,3.42,2.1
		c4.141,2.7,8.061,5.85,11.531,9.2c2.719,2.63,6.25,5.39,10.09,8.09c5.85,4.1,12.449,8.08,18.109,11.31
		c4.35,2.47,8.141,4.5,10.62,5.8c0.45,0.229,0.84,0.44,1.2,0.62c1.189,0.62,1.869,0.96,1.869,0.96
		c-6.909,9.71-9.719,14.46-10.799,20.51c-0.59,3.36-0.66,10.05-0.61,15.33C227.17,242.68,227.3,246.01,227.3,246.01z"/>
	<path fill="#5B1A1A" d="M322.5,281.64l0.141,0.19l-2.439,1.77l-0.11-0.149c-10.8-7.81-11.09-17.71-11.09-17.71l-0.66-1.01l3.33-2.2
		l0.33,0.51C312,263.04,310.5,270.54,322.5,281.64z"/>
	<polygon fill="#FFFFFF" points="320.391,134.05 314.62,140.57 307.65,134.64 313.12,128.05 	"/>
	<path fill="#497C72" d="M320.09,283.45l0.11,0.149l-3.86,2.801l-2.66,1.93c0,0-12.81-10.83-13.89-17.95l8.55-5.65l0.66,1.01
		C309,265.74,309.29,275.64,320.09,283.45z"/>
	<path fill="#5B1A1A" d="M320,338.5l0.04,0.24c-8.101,1.279-20.46,2.49-33.87,4.43c-19.96,2.87-52.96,11.79-52.96,11.79l-0.06-0.01
		c0.01-0.08,0.02-0.12,0.02-0.12l0.16-12.33l-0.04-0.11c3.181-1.22,31.96-12.01,63.55-16.77c9.74-0.271,16.881-1.15,21.83-2.05
		l0.08,0.43c0,0-0.25,2.38-0.25,7.25S320,338.5,320,338.5z"/>
	<path fill="#FFFFFF" d="M311.99,144.24l-55.32,61.24v-0.28c0,0-6.48-1.73-11.23-2.59l58.451-64.37L311.99,144.24z"/>
	<path fill="#D6A630" d="M305.471,109.97c5.399,3.45,4.539,8.2,4.539,8.2l-74.51,82.78l-0.04,0.08c-2.479-1.3-6.271-3.33-10.62-5.8
		l0.16-0.28l67.27-78.84l4.131-4.85C296.4,111.26,300.07,106.51,305.471,109.97z"/>
	<path fill="#5B1A1A" d="M296.4,111.26l-4.131,4.85l-0.08-0.07c-4.5-10.5-17.149-11.94-17.149-11.94l-0.04-0.04l1.97-2.3l3.392-3.73
		c0,0,4.608,0.07,10.22,3.95C296.2,105.87,296.4,111.26,296.4,111.26z"/>
	<path fill="#9E9E9E" d="M292.27,116.11L225,194.95l-0.16,0.28c-5.66-3.23-12.26-7.21-18.109-11.31l0.26-0.37L275,104.06l0.04,0.04
		c0,0,12.649,1.44,17.149,11.94L292.27,116.11z"/>
	<path fill="#5B1A1A" d="M276.971,101.76l-1.971,2.3l-68.01,79.49l-0.26,0.37c-3.84-2.7-7.371-5.46-10.09-8.09
		c-3.471-3.35-7.391-6.5-11.531-9.2l1.48-0.48l71.381-78.43L276.971,101.76z M207.891,169.75c3.6-5.11-3.601-10.21-7.19-5.4
		C195.29,170.04,204.29,174.85,207.891,169.75z"/>
	<path fill="#282323" d="M257.74,454.65c1.59,14.88,7.41,48.028,7.68,73.698c-3.05,26.98-4.949,48.342-6.47,67.46l-0.181-0.01
		c-8.471,11.16-42.399,44.44-63.181,72.471c-6.34,9.869-10.771,21.899-10.771,21.899s-1.239-0.32-3.379-0.96
		c-3.48-1.04-9.381-2.939-16.25-5.689c-8.291-3.319-24.561-24.189-32.23-34.489c-2.58-3.46-4.18-5.73-4.18-5.73
		s66.699-60.77,109.05-121.96c3.37-16.27,13.18-44.24,14.44-89.84l0.049-0.02C254.45,437.14,256.359,444.47,257.74,454.65z"/>
	<path fill="#B2D8D2" d="M256.67,205.48v4.04c0,0-4.32,5.18-6.48,17.49c-1.369,7.81-1.689,14.76-1.75,18.79
		c-0.299,0.11-3.689,1.31-6.16,0.28c-2.6-1.08-1.479-3.27-2.779-3.7c-1.29-0.44-2.91,0.17-5.07,1.25s-7.27-5.18-7.27-5.18h-0.04
		c-0.05-5.28,0.021-11.97,0.61-15.33c1.08-6.05,3.89-10.8,10.799-20.51c0,0,2.16-0.87,6.91,0c4.75,0.86,11.23,2.59,11.23,2.59
		V205.48z"/>
	<path fill="#497C72" d="M256.37,83.65l-0.479,0.29l-72.899,80.41l-1.3,0.18c-1-0.57-2.01-1.12-3.03-1.62l0.21-0.41
		c0,0,0.87-0.98,2.43-2.73c12.62-14.24,70.43-79.29,72.35-78.52C254.2,81.47,255.3,82.53,256.37,83.65z"/>
	<path fill="#B2D8D2" d="M248.9,249.9L247.6,254c0,0-15.979-3.24-17.709-5.18c-1.721-1.95-2.591-2.81-2.591-2.81
		s-0.13-3.33-0.18-7.56h0.04c0,0,5.109,6.26,7.27,5.18s3.78-1.69,5.07-1.25c1.3,0.43,0.18,2.62,2.779,3.7
		c2.471,1.03,5.861-0.17,6.16-0.28c-0.039,2.31,0.021,3.66,0.021,3.66L248.9,249.9z"/>
	<path fill="#5B1A1A" d="M214.859,724.95c-0.129,2.71-1.139,4.88-2.31,6.52l-1.81,0.13c-2.53,0.642-21.221-0.948-21.221-0.948
		c-30.229-1.4-39.25-11.302-43.549-19.602c-1.551-3-2.49-5.8-3.58-7.898c-4.121-7.91-13.301-16.78-19.32-22.16
		c-5.57-5-7.07-18.15-7.25-20.04l8.52-6.88c4.75-3.17,8.23-4.75,8.23-4.75l0.39-0.29c7.67,10.3,23.94,31.17,32.229,34.489
		c6.871,2.75,12.771,4.649,16.25,5.689l-0.1,0.33c0,0,6.02,12.19,9.82,16.63C194.96,710.6,208.21,719.57,214.859,724.95z"/>
	<path d="M210.74,731.6l1.81-0.13c-1.7,2.392-3.71,3.62-3.71,3.62c-48.369,0.3-57.449-7.17-65.5-22.85l2.631-1.19
		c4.299,8.3,13.319,18.2,43.549,19.602C189.52,730.65,208.21,732.24,210.74,731.6z"/>
	<path d="M200.7,164.35c3.59-4.81,10.79,0.29,7.19,5.4C204.29,174.85,195.29,170.04,200.7,164.35z"/>
	<path fill="#7A5943" d="M192.37,83.31c1.44,7.45,7.81,6.99,7.33,12.91c-0.91,5.34-7.46,4.94-7.46,4.94s-0.73,2.48,0.689,4.41
		c2.17,2.56,1.11,4.51,0.61,5.18l-0.29-0.16c-12.75,2.33-17.25,2.76-19.09,4.88c-0.4,0.47-0.76,0.88-1.03,1.25
		c-0.979,1.33-0.771,2.11,3.13,2.52c2.77-0.01,3.9-1.39,8.58-3.05c0.02-0.01,0.04-0.01,0.061-0.02c1.93-0.25,5.34-0.59,8.189-1.25
		l0.25-0.66c2.08,1.08,2.24,2.16,2.08,5.08c-0.17,2.91-3,4,1.48,15.53c0,0-0.801,7.47-7.351,8.65c-2.3,0.41-4.96,0.28-7.68-0.14
		c-5.04-0.77-10.271-2.53-13.681-3.62c-5.27-1.68-9.85-2.8-14.92-9.39c-7.1-11.42-9.67-19.02-9.67-19.02s-3.029-0.92-5.449-3.19
		c-0.561-0.53-1.09-1.12-1.541-1.8c-2.389-3.59-5.93-15.25-6.02-18.8c-0.09-3.56,4.971-5.44,8.32-4.02
		c2.27,0.65,3.49,5.37,5.17,9.42c1.52,3.69,2.75,7.87,2.97,8.62c0.021,0.08,0.03,0.12,0.03,0.12s-0.01-0.04-0.03-0.12
		c-0.159-0.82-1.21-6-2.659-15.33c-2.521-14.78-3.65-23.55-3.65-23.55s7.16-4.12,12.93-13.39c0,0,14.26-0.04,25.59-5.25
		c0,0,5.62,14.62,5.84,16.67c-0.08,3.81-1.83,5.49-1.07,8.91C184.91,73.57,191.029,78.05,192.37,83.31z M178.68,74.68
		c0.07-1.76-1.41-4.18-1.41-4.18c-5.02-4.58-10.229,5.76-10.229,5.76C171.91,77.51,176.561,76.5,178.68,74.68z"/>
	<path fill="#B2D8D2" d="M182.71,149.2l0.19-0.96c0.32,0.25,1.18,0.61,3.6,1.2l-5.32,10.23l0.12,0.1c-1.56,1.75-2.43,2.73-2.43,2.73
		l-0.21,0.41c-9.04-4.56-18.561-6.51-26.471-3.42c-1.469,0.72-2.739,1.35-3.77,1.86l-0.13-0.26c-1.54-0.22-3.22-0.5-5.22-0.86
		c-6.641-1.18-12.461-3.35-12.461-3.35l-0.06,0.05l-1.86-2.23l1.811-16.62l4.029,0.17l0.591,0.63c0,0,0,1.25,8.38,3.12
		C151.83,143.87,169.05,146.41,182.71,149.2z"/>
	<path fill="#7A5943" d="M182.9,148.24l-0.19,0.96c-13.66-2.79-30.88-5.33-39.21-7.2c-8.38-1.87-8.38-3.12-8.38-3.12l-0.591-0.63
		c0,0-0.85-14.94-2.819-21.57c-0.521-1.76-1.149-3.27-1.851-4.69l0.42-0.2c6.25,2.13,7.131-3.17,7.131-3.17l0.74-0.46
		c2.42,2.27,5.449,3.19,5.449,3.19s2.57,7.6,9.67,19.02c5.07,6.59,9.65,7.71,14.92,9.39c3.41,1.09,8.641,2.85,13.681,3.62
		l-0.04,0.29c0,0,0.05,1.58,0.84,4.21C182.7,147.98,182.7,148.09,182.9,148.24z"/>
	<path d="M175.05,31.65c3.08,2.55,4.71,11.18,4.21,12.41c-11.33,5.21-25.59,5.25-25.59,5.25c-5.77,9.27-12.93,13.39-12.93,13.39
		s1.13,8.77,3.65,23.55c1.449,9.33,2.5,14.51,2.659,15.33c-0.22-0.75-1.45-4.93-2.97-8.62c-1.68-4.05-2.9-8.77-5.17-9.42
		c-3.35-1.42-8.41,0.46-8.32,4.02c0.09,3.55,3.631,15.21,6.02,18.8c0.451,0.68,0.98,1.27,1.541,1.8l-0.74,0.46
		c0,0-0.881,5.3-7.131,3.17l-0.42,0.2c-1.93-3.93-4.42-7.14-6.84-12.8c-5.56-7.19-29.66-56.91,18.201-67.07
		C160.04,28.82,171.98,29.1,175.05,31.65z"/>
	<path d="M145.971,711.05l-2.631,1.19c-0.39-0.76-0.77-1.54-1.16-2.33c-9.65-19.79-16.26-17.84-22.9-28.29
		c-6.659-10.45-4.75-19.63-4.75-19.63l1.291-1.04c0.18,1.89,1.68,15.04,7.25,20.04c6.02,5.38,15.199,14.25,19.32,22.16
		C143.48,705.25,144.42,708.05,145.971,711.05z"/>
	<path d="M175.136,73.662c1.12-0.14,1.75,2.25,0.25,2.36S175.136,73.662,175.136,73.662z"/>
	<path fill="#FFFFFF" d="M175.386,76.022c1.5-0.11,0.87-2.5-0.25-2.36C175.136,73.662,173.886,76.132,175.386,76.022z
		 M178.676,74.682c-2.12,1.82-6.761,2.82-11.641,1.58c0,0,5.21-10.34,10.23-5.76C177.266,70.502,178.745,72.922,178.676,74.682z"/>
	<path fill="#FFFFFF" d="M174.165,115.472c1.83-2.12,6.33-2.55,19.08-4.88l0.29,0.16c-0.12,0.16-0.21,0.25-0.21,0.25
		s-0.16,1.67,0.01,3.26l-0.25,0.65c-2.84,0.67-6.25,1.01-8.189,1.26c-4.73,1.67-5.86,3.06-8.64,3.07
		C171.266,118.712,172.325,117.592,174.165,115.472z"/>
</g>
<g id="line_1_">
	<path fill="none" stroke="#000000" stroke-width="3" stroke-linecap="round" stroke-linejoin="round" stroke-miterlimit="10" d="
		M179.268,44.063c-11.322,5.21-25.597,5.249-25.597,5.249c-5.771,9.269-12.935,13.391-12.935,13.391s1.135,8.765,3.654,23.55
		c1.592,10.207,2.688,15.449,2.688,15.449s-1.317-4.672-3-8.738c-1.679-4.054-2.897-8.771-5.169-9.42
		c-3.354-1.429-8.414,0.459-8.318,4.012c0.085,3.556,3.631,15.213,6.021,18.807c2.4,3.591,6.982,4.987,6.982,4.987
		s2.569,7.6,9.678,19.022c5.067,6.587,9.646,7.705,14.914,9.387c5.266,1.685,14.801,4.937,21.358,3.765
		c6.558-1.18,7.353-8.651,7.353-8.651c-4.482-11.533-1.649-12.617-1.482-15.533s0-4-2.077-5.074c-0.173-1.593-0.009-3.26-0.009-3.26
		s2.298-2.249-0.396-5.433c-1.418-1.934-0.69-4.411-0.69-4.411s6.55,0.396,7.455-4.944c0.483-5.915-5.886-5.46-7.328-12.904
		c-1.334-5.26-7.459-9.747-8.334-13.668c-0.765-3.421,0.981-5.109,1.069-8.914c-0.229-2.054-5.844-16.667-5.844-16.667
		c0.495-1.234-1.131-9.862-4.207-12.411c-3.072-2.551-15.011-2.829-33.83,0.47c-47.863,10.162-23.761,59.879-18.203,67.068
		c3.293,7.696,6.723,10.856,8.686,17.488c1.973,6.628,2.825,21.576,2.825,21.576l-4.035-0.176l-1.804,16.624l2.158,2.59
		c0,0-2.549,16.494-1.252,34.201s6.455,43.934,42.301,73.734c35.848,29.8,49.502,36.471,53.677,48.371
		c2.04,5.812-0.966,17.666,0.362,23.338c1.39,5.939,7.062,5.567,7.062,5.567s30.335-11.839,63.835-16.88
		c22.166-0.626,30.896-4.375,30.896-4.375s-1.907-10.524-2.863-14.083s-8.373-20.569-8.373-20.569"/>
	<path fill="none" stroke="#000000" stroke-width="1.5" stroke-linecap="round" stroke-linejoin="round" d="M137.412,108.617
		c0,0-0.883,5.305-7.137,3.178"/>
	<path fill="none" stroke="#000000" stroke-width="3" stroke-linecap="round" stroke-linejoin="round" d="M161.086,70.555
		c7.159-3.799,10.992-7.549,14.507-10.534"/>
	<path fill="none" stroke="#000000" stroke-width="1.5" stroke-linecap="round" stroke-linejoin="round" d="M167.036,76.258
		c0,0,5.213-10.339,10.229-5.753c0,0,1.479,2.417,1.41,4.173C176.559,76.505,171.912,77.506,167.036,76.258z"/>
	<path fill="none" stroke="#000000" stroke-width="1.5" stroke-linecap="round" stroke-linejoin="round" d="M182.355,99.214
		c-0.61,2.851,4.338,4.268,5.664,2.465c0.063-1.677,1.396-2.343,1.396-2.343s2.083-0.25,2.792,0.93"/>
	<path fill="none" stroke="#000000" stroke-width="1.5" stroke-linecap="round" stroke-linejoin="round" d="M193.247,110.589
		c-12.749,2.333-17.252,2.763-19.085,4.881c-1.833,2.118-2.898,3.237,2.097,3.771c2.778-0.007,3.906-1.402,8.638-3.069
		c1.937-0.25,5.347-0.589,8.19-1.256"/>
	<path fill="none" stroke="#000000" stroke-width="1.5" stroke-linecap="round" stroke-linejoin="round" d="M169.227,120.296
		c0,0-2.168-3,0.434-6.151"/>
	<path fill="none" stroke="#000000" stroke-width="2" stroke-linecap="round" stroke-linejoin="round" d="M175.131,73.663
		c1.124-0.141,1.756,2.253,0.253,2.363C173.885,76.133,175.131,73.663,175.131,73.663z"/>
	<path fill="none" stroke="#000000" stroke-width="1.5" stroke-linecap="round" stroke-linejoin="round" stroke-miterlimit="10" d="
		M144.591,112.082c0,0,1.851-2.594,0.988-5.14c-0.863-2.546-1.787-2.902-3.783-4.346c-1.999-1.443-6.229-7.629-5.222-12.183
		c0,0,0.445-4.007,2.003-2.454"/>
	<path fill="none" stroke="#000000" stroke-width="1.5" stroke-linecap="round" stroke-linejoin="round" d="M184.832,116.172
		c0,0-6.25,0.833-11.334,0.667"/>
	<path fill="none" stroke="#000000" stroke-width="1.5" stroke-linecap="round" stroke-linejoin="round" d="M135.12,138.88
		c0,0,0,1.25,8.375,3.125s25.728,4.425,39.415,7.237"/>
	<path fill="none" stroke="#000000" stroke-width="1.5" stroke-linecap="round" stroke-linejoin="round" d="M148.287,161.09
		c-1.539-0.225-3.217-0.503-5.221-0.859c-6.637-1.181-12.459-3.347-12.459-3.347"/>
	<path fill="none" stroke="#000000" stroke-width="3" stroke-linecap="round" stroke-linejoin="round" stroke-miterlimit="10" d="
		M165.111,217.289c0,0,49.666,25.697,62.19,28.721c0,0,0.863,0.863,2.591,2.807c1.729,1.943,17.709,5.184,17.709,5.184l1.295-4.104
		c0,0,4.318,1.512,10.258,2.052c5.938,0.54,38.113,0.323,64.89-8.746c24.618-6.479,35.127-6.622,35.127-6.622
		c3.813,1.8,13.244,8.674,15.979,9.357c8.17,2.016,13.677,4.607,15.691,3.312c2.016-1.295,2.305-2.304,2.305-2.304
		s2.879-0.145,4.463-1.44c1.582-1.296,2.304-4.606,2.304-4.606s3.455-0.576,4.462-2.016c1.008-1.438,0.721-4.176,0.721-4.176
		s4.318-1.006,4.752-3.886c0.432-2.88-2.16-5.757-2.16-5.757s-9.357-5.759-12.094-7.631s-6.842-6.848-6.842-6.848
		c0.914-0.753,5.402-2.941,5.402-2.941c2.88,0.863,6.332,0.863,8.492-2.447c-1.439-3.061-3.508-2.97-6.315-4.913
		c-2.808-1.944-3.651-1.278-10.419,0.306s-10.186,2.305-14.936,5.615c-4.752,3.31-15.404,3.742-15.404,3.742
		s-6.047,0.863-26.346,0.432c-20.299-0.432-40.164-1.943-53.554-1.943c-13.388,0-19.003,1.08-19.003,1.08v-4.318
		c0,0-6.479-1.728-11.229-2.592c-4.75-0.863-6.91,0-6.91,0s-29.368-14.684-41.893-26.777
		c-12.525-12.092-30.856-21.643-44.451-16.338c-4.145,2.006-6.693,3.356-6.693,3.356"/>
	<path fill="none" stroke="#000000" stroke-width="1.5" stroke-linecap="round" stroke-linejoin="round" stroke-miterlimit="10" d="
		M236.695,201.633c-6.047,2.592-9.178,9.826-9.178,9.826"/>
	<path fill="none" stroke="#000000" stroke-width="1.5" stroke-linecap="round" stroke-linejoin="round" stroke-miterlimit="10" d="
		M227.303,246.01c0,0-0.646-16.844,0.432-22.89c1.08-6.047,3.889-10.798,10.798-20.515"/>
	<path fill="none" stroke="#000000" stroke-width="1.5" stroke-linecap="round" stroke-linejoin="round" stroke-miterlimit="10" d="
		M248.465,249.465c0,0-0.433-10.148,1.729-22.458c2.158-12.309,6.479-17.491,6.479-17.491"/>
	<path fill="none" stroke="#000000" stroke-width="1.5" stroke-linecap="round" stroke-linejoin="round" stroke-miterlimit="10" d="
		M227.158,238.451c0,0,5.109,6.263,7.271,5.183c2.159-1.079,3.776-1.69,5.073-1.258c1.296,0.432,0.181,2.626,2.772,3.706
		c2.591,1.08,6.188-0.288,6.188-0.288"/>
	<path fill="none" stroke="#000000" stroke-width="1.5" stroke-linecap="round" stroke-linejoin="round" stroke-miterlimit="10" d="
		M386.021,243.094c0,0,0.215-1.512,7.125,3.348"/>
	<path fill="none" stroke="#000000" stroke-width="1.5" stroke-linecap="round" stroke-linejoin="round" stroke-miterlimit="10" d="
		M390.123,236.184c0.646,0,2.051,0.324,9.285,4.535"/>
	<path fill="none" stroke="#000000" stroke-width="1.5" stroke-linecap="round" stroke-linejoin="round" stroke-miterlimit="10" d="
		M396.816,229.274c0,0,0.863-0.216,7.559,4.966"/>
	<path fill="none" stroke="#000000" stroke-width="1.5" stroke-linecap="round" stroke-linejoin="round" stroke-miterlimit="10" d="
		M385.695,207.95c0,0,0.217,1.349,2.16,2.645"/>
	<path fill="none" stroke="#000000" stroke-width="3" stroke-linecap="round" stroke-linejoin="round" stroke-miterlimit="10" d="
		M282.875,251.192l2.084,3.023l10.508,14.647l4.319,1.512c1.08,7.125,13.894,17.959,13.894,17.959l59.68-43.307"/>
	<path fill="none" stroke="#000000" stroke-width="3" stroke-linecap="round" stroke-linejoin="round" stroke-miterlimit="10" d="
		M404.218,222.633l7.067-5.127c0,0-6.479-9.719-9.286-11.445"/>
	<path fill="none" stroke="#000000" stroke-width="3" stroke-linecap="round" stroke-linejoin="round" stroke-miterlimit="10" d="
		M178.871,162.501c0,0,72.615-82.118,74.775-81.255c1.277,0.512,5.379,5.382,5.379,5.382l-1.061,1.097l19.003,14.036l3.396-3.733
		c0,0,4.604,0.07,10.219,3.957c5.615,3.887,5.822,9.277,5.822,9.277s3.67-4.75,9.068-1.295c5.398,3.455,4.534,8.205,4.534,8.205
		l2.394-2.275l21.291,16.596l-1.709,2.223l6.58,5.463c0,0,6.199-6.241,8.09-6.873c1.892-0.632,17.055,16.042,18.066,17.504
		c1.014,1.463-1.415,4.548-1.415,4.548l4.298,0.332c0,0,1.955-0.965,2.944,0.183s1.218,2.476,1.218,2.476l1.168-0.226l1.738,4
		l-2.639,2.188c0,0,2.588,1.238,2.925,4.5c-0.787,0.676-2.974,2.484-2.974,2.484c3.455-0.646,20.515,21.163,22.025,23.539
		c1.512,2.375,2.24,3.67,2.24,3.67l0.081,1.782"/>
	<path fill="none" stroke="#000000" stroke-width="3" stroke-linecap="round" stroke-linejoin="round" stroke-miterlimit="10" d="
		M181.835,143.666c0,0,0.041,1.589,0.833,4.214c0.083,0.264-0.048,0.625,3.827,1.562l-5.318,10.224"/>
	
		<line fill="none" stroke="#000000" stroke-width="3" stroke-linecap="round" stroke-linejoin="round" stroke-miterlimit="10" x1="299.786" y1="270.375" x2="349.494" y2="237.549"/>
	<path fill="none" stroke="#000000" stroke-width="3" stroke-linecap="round" stroke-linejoin="round" stroke-miterlimit="10" d="
		M371.984,171.293c0,0-47.689,35.354-53.391,38.653"/>
	
		<line fill="none" stroke="#000000" stroke-width="3" stroke-linecap="round" stroke-linejoin="round" stroke-miterlimit="10" x1="363.994" y1="154.666" x2="302.693" y2="209.047"/>
	
		<line fill="none" stroke="#000000" stroke-width="3" stroke-linecap="round" stroke-linejoin="round" stroke-miterlimit="10" x1="338.471" y1="140.197" x2="269.622" y2="208.37"/>
	
		<line fill="none" stroke="#000000" stroke-width="3" stroke-linecap="round" stroke-linejoin="round" stroke-miterlimit="10" x1="332.207" y1="134.609" x2="265.646" y2="208.896"/>
	
		<line fill="none" stroke="#000000" stroke-width="3" stroke-linecap="round" stroke-linejoin="round" stroke-miterlimit="10" x1="310.008" y1="118.172" x2="235.495" y2="200.946"/>
	
		<line fill="none" stroke="#000000" stroke-width="3" stroke-linecap="round" stroke-linejoin="round" stroke-miterlimit="10" x1="296.404" y1="111.262" x2="224.995" y2="194.947"/>
	
		<line fill="none" stroke="#000000" stroke-width="3" stroke-linecap="round" stroke-linejoin="round" stroke-miterlimit="10" x1="276.969" y1="101.761" x2="206.994" y2="183.547"/>
	
		<line fill="none" stroke="#000000" stroke-width="3" stroke-linecap="round" stroke-linejoin="round" stroke-miterlimit="10" x1="257.966" y1="87.725" x2="186.594" y2="166.146"/>
	
		<line fill="none" stroke="#000000" stroke-width="1.5" stroke-linecap="round" stroke-linejoin="round" stroke-miterlimit="10" x1="182.994" y1="164.346" x2="255.895" y2="83.944"/>
	<path fill="none" stroke="#000000" stroke-width="1.5" stroke-linecap="round" stroke-linejoin="round" stroke-miterlimit="10" d="
		M200.695,164.346c3.6-4.801,10.799,0.299,7.199,5.399C204.294,174.845,195.295,170.045,200.695,164.346z"/>
	<path fill="none" stroke="#000000" stroke-width="1.5" stroke-linecap="round" stroke-linejoin="round" stroke-miterlimit="10" d="
		M275.036,104.101c0,0,12.657,1.442,17.157,11.942"/>
	
		<polyline fill="none" stroke="#000000" stroke-width="1.5" stroke-linecap="round" stroke-linejoin="round" stroke-miterlimit="10" points="
		245.441,202.605 303.895,138.243 311.994,144.242 255.895,206.343 	"/>
	
		<polygon fill="none" stroke="#000000" stroke-width="1.5" stroke-linecap="round" stroke-linejoin="round" stroke-miterlimit="10" points="
		307.646,134.643 313.123,128.047 320.395,134.047 314.622,140.571 	"/>
	
		<line fill="none" stroke="#000000" stroke-width="1.5" stroke-linecap="round" stroke-linejoin="round" stroke-miterlimit="10" x1="367.701" y1="156.04" x2="302.695" y2="210.245"/>
	
		<line fill="none" stroke="#000000" stroke-width="1.5" stroke-linecap="round" stroke-linejoin="round" stroke-miterlimit="10" x1="307.193" y1="209.344" x2="372.145" y2="158.044"/>
	
		<line fill="none" stroke="#000000" stroke-width="1.5" stroke-linecap="round" stroke-linejoin="round" stroke-miterlimit="10" x1="313.493" y1="208.744" x2="372.293" y2="163.297"/>
	<path fill="none" stroke="#000000" stroke-width="1.5" stroke-linecap="round" stroke-linejoin="round" stroke-miterlimit="10" d="
		M369.098,191.045c4.699-3.008,13.801,1.801,7.799,8.101C370.896,205.445,361.598,195.846,369.098,191.045z"/>
	<path fill="none" stroke="#000000" stroke-width="1.5" stroke-linecap="round" stroke-linejoin="round" stroke-miterlimit="10" d="
		M308.995,265.744c0,0,0.3,9.9,11.101,17.701"/>
	<path fill="none" stroke="#000000" stroke-width="1.5" stroke-linecap="round" stroke-linejoin="round" stroke-miterlimit="10" d="
		M311.995,263.045c0,0-1.499,7.5,10.5,18.6"/>
	<path fill="none" stroke="#000000" stroke-width="1.5" stroke-linecap="round" stroke-linejoin="round" stroke-miterlimit="10" d="
		M401.396,220.744c0,0-4.801-8.699-9.899-12.299"/>
	<path fill="none" stroke="#000000" stroke-width="3" stroke-linecap="round" stroke-linejoin="round" stroke-miterlimit="10" d="
		M233.335,342.505l-0.167,12.328c0,0-2.678,20.177,1.827,41.922s17.444,18.866,22.747,57.896
		c1.586,14.883,7.408,48.027,7.681,73.699c-7.757,68.558-8.073,100.856-13.772,152.156c-0.354,5.98-5.707,44.179-5.707,44.179
		s43.39-6.813,64.605-4.116l1.836-48.577c0,0,14.654-108.712,17.799-128.754c4.058-25.866,7.601-54.95,4.113-128.152
		c-1.158-18.244-2.43-58.373-5.701-78.369c1.779-8.342-1.785-14.651-1.785-14.651"/>
	<path fill="none" stroke="#000000" stroke-width="3" stroke-linecap="round" stroke-linejoin="round" stroke-miterlimit="10" d="
		M252.273,431.5c-1.267,45.601-11.078,73.573-14.44,89.844c-42.351,61.19-109.058,121.958-109.058,121.958
		s25.332,35.784,36.416,40.22s19.629,6.649,19.629,6.649s4.435-12.034,10.768-21.901c20.783-28.029,54.713-61.309,63.184-72.47"/>
	<path fill="none" stroke="#000000" stroke-width="1.5" stroke-linecap="round" stroke-linejoin="round" stroke-miterlimit="10" d="
		M233.209,354.959c0,0,33.002-8.919,52.961-11.793s37.58-4.166,42.33-6.416"/>
	<path fill="none" stroke="#000000" stroke-width="1.5" stroke-linecap="round" stroke-linejoin="round" stroke-miterlimit="10" d="
		M318.75,324c0,0-0.25,2.375-0.25,7.25s1.5,7.25,1.5,7.25"/>
	<path fill="none" stroke="#000000" stroke-width="3" stroke-linecap="round" stroke-linejoin="round" stroke-miterlimit="10" d="
		M132.574,649.32c0,0-3.482,1.583-8.232,4.75l-9.816,7.916c0,0-1.899,9.184,4.75,19.634s13.252,8.497,22.908,28.29
		c8.426,17.27,15.955,25.486,66.658,25.176c0,0,5.699-3.482,6.018-10.133c-6.651-5.382-19.899-14.354-23.699-18.788
		c-3.801-4.435-9.817-16.628-9.817-16.628"/>
	<path fill="none" stroke="#000000" stroke-width="1.5" stroke-linecap="round" stroke-linejoin="round" stroke-miterlimit="10" d="
		M115.79,660.72c0,0,1.267,14.883,7.283,20.268c6.016,5.384,15.2,14.249,19.317,22.166c4.118,7.918,5.967,25.601,47.133,27.5
		c0,0,18.683,1.583,21.217,0.95"/>
	<path fill="none" stroke="#000000" stroke-width="3" stroke-linecap="round" stroke-linejoin="round" stroke-miterlimit="10" d="
		M249.742,725.003l-3.482,17.1l0.633,7.285c0,0,10.768,4.114,21.851,3.481c19.948-1.582,18.68,0.952,41.165,5.384
		c25.648,2.216,51.619-3.8,51.619-3.8s2.849-9.185,0.315-10.45c-2.532-1.267-51.614-15.2-58.899-23.75"/>
	<path fill="none" stroke="#000000" stroke-width="1.5" stroke-linecap="round" stroke-linejoin="round" stroke-miterlimit="10" d="
		M246.891,744.638c0,0,10.133,5.699,27.866,4.75c17.733-0.95,32.3,7.282,52.884,6.017c20.584-1.267,34.518-5.066,34.518-5.066"/>
</g>
</svg>
