<?xml version="1.0" encoding="utf-8"?>
<!-- Generator: Adobe Illustrator 16.0.0, SVG Export Plug-In . SVG Version: 6.00 Build 0)  -->
<!DOCTYPE svg PUBLIC "-//W3C//DTD SVG 1.1//EN" "http://www.w3.org/Graphics/SVG/1.1/DTD/svg11.dtd">
<svg version="1.1" id="Layer_1" xmlns="http://www.w3.org/2000/svg" xmlns:xlink="http://www.w3.org/1999/xlink" x="0px" y="0px"
	 width="500px" height="800px" viewBox="0 0 500 800" enable-background="new 0 0 500 800" xml:space="preserve">
<g>
	<path d="M330.502,766.02l-2.43,4.222c0,0-29.98,6.55-52.37,0v-3.44c3.03,0.53,5.989,0.932,8.88,1.23
		c25.42,2.66,44.87-2.61,44.87-2.61L330.502,766.02z"/>
	<path d="M143.151,766.96c-36.52,0.69-40.31-7.229-40.31-7.229s-0.159-0.66-0.33-1.61l0.671-0.11c1.379,0.55,2.699,1.05,3.979,1.49
		c9.899,3.47,17.29,4.01,30.479,4.36c35.561,1.43,39.051-11.78,49.041-9.71c12.939,2.6,26.069-0.972,26.069-0.972l1.24-0.06
		l0.13,2.82c0,0-9.99,3.79-25.49,1.72C173.122,755.59,179.672,766.27,143.151,766.96z"/>
	<path d="M281.521,44.03c7.472,6.22,11.592,12.8,11.092,27.64c-0.5,10.5-1.711,14.45-1.711,14.45l-0.75,0.88
		c-6.75,0.75-6.75,15.75-8.57,15.69c-1.811-0.07,0.32-27.51-0.18-35.86c0,0-6.961-4.5-8.221-9.33c-7.58,3.63-35.561,2.58-41.49,0
		c0,0-3.539,6-5.061,7.57l-1.02-0.07c0.57-8.25,2-16.12,5.399-19.21c6.88-6.26,12.28-8.85,24.96-8.31
		C265.872,37.9,276.242,39.64,281.521,44.03z"/>
	<path fill="#1C2351" d="M180.862,206.47c0.42,0.47,0.949,0.95,1.64,1.36l0.14,0.06c-0.38,0.81-0.09,1.93,1.021,2.11
		c0.89,0.15,1.659-0.24,2.01-0.78l0.16,0.11c0,0,1.479,0.39,3.3,0.4v0.14c0,0-3.3,2.96-4.63,6.8c-0.26,0.75-0.479,1.61-0.66,2.53
		l-0.17-0.03c-0.17-2.5-2.5-5.34-2.5-5.34s-2.58-0.08-4.58,2.09l-0.22-0.05c1.37-6.55,4.46-9.37,4.46-9.37L180.862,206.47z"/>
	<path fill="#1C2351" d="M183.672,219.17l0.17,0.03c-0.79,3.77-1.01,8.3-1.01,8.3l-0.2,0.36c-3.13-1.72-6.1-2.66-7.75-3.02
		l0.92-0.01c-0.22-3.54,0.061-6.51,0.57-8.96l0.22,0.05c2-2.17,4.58-2.09,4.58-2.09S183.502,216.67,183.672,219.17z"/>
	<path fill="#D6A630" d="M184.662,207.17c-1.03-0.37-1.74,0.08-2.021,0.72l-0.14-0.06c-0.69-0.41-1.22-0.89-1.64-1.36
		c-1.24-1.42-1.4-2.85-1.4-2.85l-0.04-0.12c0,0,0.91-2,2.25-2.17c0.181-0.02,0.53-0.02,1.011-0.01l-0.011,0.3
		c0,0-0.17,2.71,2.83,4.05c3,1.33,6.33,0.83,8.17-0.34l0.58-0.34c0.851,1.37,0.25,3.01,0.25,3.01l-0.75,0.54
		c-1.33,0.95-3.09,1.2-4.62,1.19c-1.82-0.01-3.3-0.4-3.3-0.4l-0.16-0.11C186.122,208.55,185.952,207.63,184.662,207.17z"/>
	<path fill="#B2D8D2" d="M231.643,155.74c-0.609,1.4-10.311,23.88-10.311,27.76c0,4-2.5,11.83-2.5,11.83
		c4.5-2.33,6-11.41,7.84-13.58c1.83-2.17,2.91-5.58,3.87-5.21c0.96,0.38,3.04,13.96,2.63,17.88l0.1,0.02
		c-0.17,0.84-0.318,1.64-0.438,2.39c-0.71,4.49-0.96,5.97-0.851,9.57c0.061,2.04,0.229,4.78,0.5,9.16l-12.601,5.05l-0.05,0.1
		c-0.28-0.13-0.561-0.26-0.83-0.38c-7.83-3.5-15.83-9-24.5-12.33c0,0,0.601-1.64-0.25-3.01c-0.05-0.08-0.101-0.16-0.16-0.24
		c-0.55-0.71-3-1.92-5.8-2.62c-1.99-0.5-4.141-0.73-5.471-0.8l0.011-0.21c10.34-22.79,15.149-30.2,22.771-35.62
		c7.629-5.42,25.229-9.75,25.229-9.75s0-0.01,0.01-0.04L231.643,155.74z"/>
	<path fill="#BCC1D8" d="M193.672,205.33c-1.84,1.17-5.17,1.67-8.17,0.34c-3-1.34-2.83-4.05-2.83-4.05l0.011-0.3
		c0.039,0.01,0.09,0.01,0.139,0.01c1.33,0.07,3.48,0.3,5.471,0.8c2.8,0.7,5.25,1.91,5.8,2.62c0.06,0.08,0.11,0.16,0.16,0.24
		L193.672,205.33z"/>
	<path fill="#D6A630" d="M182.642,207.89c0.28-0.64,0.99-1.09,2.021-0.72c1.29,0.46,1.46,1.38,1.01,2.05
		c-0.351,0.54-1.12,0.93-2.01,0.78C182.552,209.82,182.262,208.7,182.642,207.89z"/>
	<path fill="#D6A630" d="M228.342,386c2,4.67-2,9.33-2,9.33l-0.17,1.26c-5.25-0.68-10.01-1.39-13.92-2.02l0.09-0.57
		c-4.67-7.33,0.67-11.33,0.67-11.33v-0.02c2.95,0.56,6.15,1.04,9.57,1.46c1.891,0.239,3.85,0.449,5.87,0.64L228.342,386z"/>
	<path fill="#5B1A1A" d="M287.412,760.25c0,0-3.102,3.21-2.75,7l-0.08,0.78c-2.891-0.3-5.85-0.7-8.88-1.23v-2.76
		c0,0,6.89-4.83,7.92-10.68l-0.34-1.04c0,0,3.7-3.7,11.31-5.23l0.08,0.41C294.672,747.5,294.332,756.67,287.412,760.25z"/>
	<path fill="#5B1A1A" d="M284.662,767.25c-0.352-3.79,2.75-7,2.75-7c6.92-3.58,7.26-12.75,7.26-12.75l-0.08-0.41
		c1.67-0.33,3.521-0.57,5.57-0.63c11.37-0.34,34.46,6.21,34.46,6.21l-0.011,1.38v4.82l-4.109,7.149l-1.05-0.601
		c0,0-19.45,5.271-44.87,2.61L284.662,767.25z"/>
	<path fill="#5B1A1A" d="M161.212,728.48c1.6,0.13,4.35,0.39,7.79,0.84l-0.01,0.09c0,0-17.57,20.67-46.171,22.74
		c0,0-13.439,0.688-14.469,1.72c-1.031,1.03-1.031,5.17-1.031,5.17l-0.159,0.46c-1.28-0.44-2.601-0.94-3.979-1.49l-0.671,0.11
		c-0.399-2.19-0.88-5.94,0.33-6.66c1.72-1.04,25.49-2.41,38.591-8.27c13.09-5.86,19.639-13.78,19.639-13.78L161.212,728.48z"/>
	<path fill="#5B1A1A" d="M214.502,747.23l-0.72,1.13l0.21,4.76l-1.24,0.06c0,0-13.13,3.57-26.069,0.972
		c-9.99-2.07-13.48,11.14-49.041,9.71c-13.189-0.352-20.58-0.892-30.479-4.36l0.159-0.46c0,0,0-4.14,1.031-5.17
		c1.029-1.03,14.469-1.72,14.469-1.72c28.601-2.07,46.171-22.74,46.171-22.74l0.01-0.09c4.101,0.528,9.19,1.33,14.46,2.5
		C194.502,734.28,211.022,744.93,214.502,747.23z"/>
	<path fill="#5B1A1A" d="M213.012,382.65v0.02c0,0-5.34,4-0.67,11.33l-0.09,0.57c-6.69-1.07-10.91-1.9-10.91-1.9l-0.56,0.14
		c-1.11-5.81-0.95-10.979,0.47-13.06l0.03-0.09C204.582,380.81,208.512,381.81,213.012,382.65z"/>
	<path fill="#5B1A1A" d="M319.473,386.65l-0.221,0.02c0,0-12.91,8.66-41.58,12c-15.141,1.76-35.59-0.01-51.5-2.08l0.17-1.26
		c0,0,4-4.66,2-9.33l0.11-1.25c10.37,0.98,22.47,1.4,35.89,1.25c28.67-0.33,48.67-8.67,48.67-8.67s2.141-1.55,4.641-3.93l0.34,0.35
		C317.992,373.75,318.672,377.46,319.473,386.65z"/>
	<path fill="#7A5943" d="M291.672,231.5c0,0-0.67,2.83-1.67,3.83s-6-0.16-6-0.16s-0.08,2.66-2.75,4c-2.66,1.33-8.25-2.83-12.25-4.25
		c-2.77-0.98-8.66-1.37-12.02-1.51l-0.03,0.59c-1.07,1.38-2.3,2.15-2.3,2.15s0.1-3.27-3.98-5.15c-6-2.67-10-4-10-4l-3,3
		c0,0-10.1-5.75-17.84-9.29l0.05-0.1l12.601-5.05l23.859-9.56c0,0,19.33-3.34,30-2.67c0,0,10.34-0.33,11.33,1.33c1,1.67-2,6-5.66,6
		c-3.67,0-20.67,1.67-20.67,1.67s5.33,1.17,13.67,4l11,8.67c0,0-0.34,3.83-1.34,4.67C293.672,230.5,291.672,231.5,291.672,231.5z"/>
	<path fill="#7A5943" d="M210.012,268.66l0.021,0.03l-0.54,0.29c-0.13-0.17-1.271-1.74-2.761-4.3c-1.26-2.18-2.77-5.08-4.109-8.43
		c-3-7.5-5.37-14.5-5.37-14.5l0.39-0.35c7.62,8.57,14.87,18.16,20.001,22.67l-1.301,0.93L210.012,268.66z"/>
	<path fill="#7A5943" d="M159.332,222.25c4.34,5,13.29,3.13,13.29,3.13l0.27,0.35c-4.399,3.44-9.24,5.47-11.66,7.28
		c-3.729,2.81-5.229,4.73-6.199,4.46c-1.631-0.46-2.221-1.51-2.631-3.54c-0.42-2.03,0.24-2.88,1.391-4.85
		c1.141-1.98,3.96-2.5,4.88-6.41c0,0-0.17-0.11-0.45-0.29L159.332,222.25z"/>
	<path fill="#7A5943" d="M147.752,218.5c0,0-6.76,3.98-9,4.91c-0.16,0.14-1.101,1.78-2.41,3.93c-1.31,2.15-3.521,4.71-5.13,4.82
		c-1.62,0.1-3.24-1.33-3.24-1.33s-3.74-0.32-4.35-3.44c-0.131-0.06-0.26-0.12-0.381-0.18l1.051-0.1c0,0,1.42-0.53,3.13-2.32
		c1.7-1.79,3.33-5.79,4.021-6.73c0.68-0.94,5.18-2.31,8.83-5.46l0.189-0.2c3.04,2.77,7.109,5.2,7.71,5.55l-0.05,0.58
		C147.892,218.51,147.752,218.5,147.752,218.5z"/>
	<path fill="#7A5943" d="M138.481,210.33c0.551,0.69,1.24,1.39,1.98,2.07l-0.189,0.2c-3.65,3.15-8.15,4.52-8.83,5.46
		c-0.69,0.94-2.32,4.94-4.021,6.73c-1.71,1.79-3.13,2.32-3.13,2.32l-1.051,0.1c-3.189-1.53-2.479-1.95-1.639-6.43
		c-0.291-0.22-0.57-0.49-0.811-0.79c4.65,1.84,8.62-6.65,8.62-6.65c2.68-1.07,8.71-3.61,8.71-3.61s0.189,0.06,0.5,0.15
		L138.481,210.33z"/>
	<path fill="#B2D8D2" d="M188.942,267.78c2.64,5.05,4.18,7.55,4.18,7.55l-0.18,0.73c0,0-7.19,0.32-12.931,0.6
		c-20.18,0.17-17.84-15.33-15.84-26c2.17-11.57,2.39-11.43,9.71-25.73c0.04-0.08,0.08-0.16,0.12-0.24
		c0.22,0.02,0.521,0.07,0.88,0.15c1.65,0.36,4.62,1.3,7.75,3.02c1.63,0.88,3.311,1.98,4.87,3.31c0.229,0.2,0.46,0.4,0.69,0.61
		l-0.19,0.22c0,0-2.5,0.25-5.16,1c-3.67,1.66-2.17,6.33-2.17,6.33s-1.67,12.42,4.33,20.67
		C186.492,263.05,187.812,265.65,188.942,267.78z"/>
	<path fill="#7A5943" d="M176.372,215.87c-0.51,2.45-0.79,5.42-0.57,8.96l-0.92,0.01c-0.359-0.08-0.66-0.13-0.88-0.15l0.08-0.69
		c0,0-5.87-1.46-9.91-3.79c-4.05-2.33-6.96-6.4-10.319-7.09c-3.351-0.68-7.951-1.27-10.25-1.85c-1.74-0.44-3.99-1.1-4.98-1.39
		c-0.311-0.09-0.5-0.15-0.5-0.15s-6.03,2.54-8.71,3.61c0,0-3.97,8.49-8.62,6.65c-1.12-1.38-1.641-3.55-0.439-5.61
		c1.469-2.53,3.25-4.57,4.799-6.57c1.551-1.99,5.17-2.97,7.86-4.13c2.69-1.17,5.66-2.85,7.61-2.97c1.96-0.13,15.439,1.31,26.05,1.96
		c2.59,0.16,5-0.67,7.011-0.5c3.459,0.29,5.739,1.33,5.739,1.33l0.04,0.12c0,0,0.16,1.43,1.4,2.85l-0.03,0.03
		C180.832,206.5,177.742,209.32,176.372,215.87z"/>
	<path fill="#7A5943" d="M164.172,220.21c4.04,2.33,9.91,3.79,9.91,3.79l-0.08,0.69c-0.04,0.08-0.08,0.16-0.12,0.24
		c-0.32,0.28-0.65,0.54-0.99,0.8l-0.27-0.35c0,0-8.95,1.87-13.29-3.13l-1.11,0.13c-0.85-0.53-2.76-1.7-4.51-2.55
		c-1.891-0.9-4.609-1.22-5.59-1.3l0.05-0.58c-0.601-0.35-4.67-2.78-7.71-5.55c-0.74-0.68-1.43-1.38-1.98-2.07l0.141-0.45
		c0.99,0.29,3.24,0.95,4.98,1.39c2.299,0.58,6.899,1.17,10.25,1.85C157.212,213.81,160.122,217.88,164.172,220.21z"/>
	<path fill="#7A5943" d="M218.342,264.67c-0.229-0.19-0.46-0.39-0.699-0.6c-5.131-4.51-12.381-14.1-20.001-22.67
		c-3.119-3.52-6.31-6.87-9.449-9.62c-0.23-0.21-0.461-0.41-0.69-0.61c-1.56-1.33-3.24-2.43-4.87-3.31l0.2-0.36
		c0,0,0.22-4.53,1.01-8.3c0.181-0.92,0.4-1.78,0.66-2.53c1.33-3.84,4.63-6.8,4.63-6.8v-0.14c1.53,0.01,3.29-0.24,4.62-1.19
		l0.75-0.54c8.67,3.33,16.67,8.83,24.5,12.33c0.27,0.12,0.55,0.25,0.83,0.38c7.74,3.54,17.84,9.29,17.84,9.29l0.391,0.69
		c-2.301,2.49-4.41,5.26-6.34,8.13c-8.141,12.13-12.841,25.85-12.841,25.85H218.342z"/>
	<path fill="#7A5943" d="M225.941,85.79c0.67,6.88-1.33,14.31,0.17,24.68l-0.721,0.09c-0.34-1.8-0.56-2.84-0.63-3.17
		c0,0-1.05-4.77-1.96-9.51c-0.898-4.76-2.67-9.38,2.471-11.44c0-0.2,0-0.43,0-0.65H225.941L225.941,85.79z"/>
	<path fill="#7A5943" d="M225.271,85.79c0-4.7-0.22-12.92,0.342-20.79l1.02,0.07c1.521-1.57,5.061-7.57,5.061-7.57
		c5.931,2.58,33.91,3.63,41.49,0c1.26,4.83,8.221,9.33,8.221,9.33c0.5,8.35-1.631,35.79,0.18,35.86c1.82,0.06,1.82-14.94,8.57-15.69
		l0.75-0.88c0,0,2.979,0.25,4.209,4.38c1.24,4.13-0.569,8.67-3.09,16.95c-1.899,6.23-4.119,7.29-6.021,7.43
		c-0.63,0.05-1.22,0-1.76,0c-0.642,14.79-6.23,25.4-8.3,27.42c-2.08,2.03-5.541,4.32-9.541,7.95s-8.42,7.95-8.42,7.95
		s-4.189,1.65-14.931,0c0,0-1.85-3.61-3.75-7.14c-0.59-1.11-1.188-2.21-1.739-3.18c-0.641-1.15-1.211-2.13-1.619-2.76
		c-1.881-2.87-7.83-17.83-9-25.45c-0.621-4.05-1.16-7.07-1.551-9.11l0.721-0.09c-1.5-10.37,0.5-17.8-0.17-24.68H225.271z
		 M262.842,88.09c7.09-0.25,6.78-2.46,6.78-2.46s-3.591-3.89-9.181-3.89c0,0-3.42-0.12-4.91,3.89
		C255.531,85.63,255.752,88.34,262.842,88.09z M236.822,88.12c6.64,0.25,5.619-2.77,5.619-2.77c-1.391-4.02-3.66-3.89-3.66-3.89
		c-5.239,0-8.6,3.89-8.6,3.89S230.182,87.86,236.822,88.12z"/>
	<path fill="#7A5943" d="M231.982,206.4c-0.11-3.6,0.14-5.08,0.85-9.57c0.12-0.75,0.27-1.55,0.439-2.39
		c1.359-6.78,4.051-15.97,4.131-20.94c0.08-5.58-0.78-9.62-1.051-12.52s0.771-7.73,0.771-7.73l1.938-2.06l0.24-0.13
		c1.9,3.53,3.75,7.14,3.75,7.14c10.74,1.65,14.932,0,14.932,0s4.42-4.32,8.42-7.95s7.459-5.92,9.539-7.95
		c2.069-2.02,7.66-12.63,8.301-27.42c0.54,0,1.13,0.05,1.76,0h2.02c0,0-1.068,12.5-0.699,30.37l-0.189,0.01
		c0.131,0.13,2.66,2.95-5.3,15.41c-11.33,11-29.16,19.5-32.66,20c-0.56,0.08-1.17,1.16-1.88,2.7c0,0.01,0,0.01-0.01,0.01
		c-1.551,3.38-3.551,9.01-6.36,11.37c-3.92,3.3-7.88,5.24-8.819,11.65H231.982L231.982,206.4z"/>
	<path fill="#B2D8D2" d="M294.002,152.67l-0.67,0.5c0,0,4.17,8.21-7.66,21.5c-13.34,12-32.71,28.04-32.71,28.04
		s-4.13-9.09-3.63-17.09c0.13-4.11-1.301-3.05-2.04-2.25c0.71-1.54,1.319-2.62,1.88-2.7c3.5-0.5,21.33-9,32.66-20
		c7.96-12.46,5.43-15.28,5.3-15.41l0.19-0.01c0,0,3.52-1.5,4.01-0.58C291.832,145.58,294.002,152.67,294.002,152.67z"/>
	<path fill="#B2D8D2" d="M233.172,194.42c0.41-3.92-1.67-17.5-2.63-17.88c-0.96-0.37-2.04,3.04-3.87,5.21
		c-1.84,2.17-3.34,11.25-7.84,13.58c0,0,2.5-7.83,2.5-11.83c0-3.88,9.7-26.36,10.311-27.76l-0.801-0.03
		c0.131-0.41,1.21-3.68,1.91-5.09c0.75-1.5,3.811-2.31,3.811-2.31l1-0.43c0.551,0.97,1.149,2.07,1.739,3.18l-0.239,0.13l-1.939,2.06
		c0,0-1.04,4.83-0.771,7.73c0.271,2.9,1.131,6.94,1.051,12.52c-0.079,4.97-2.771,14.16-4.131,20.94L233.172,194.42z"/>
	<path fill="#B2D8D2" d="M194.622,268.38c-0.74-1.5-5.37-0.76-5.37-0.76l-0.31,0.16c-1.131-2.13-2.45-4.73-3.94-7.78
		c-6-8.25-4.33-20.67-4.33-20.67s-1.5-4.67,2.17-6.33c2.66-0.75,5.16-1,5.16-1l0.19-0.22c3.14,2.75,6.33,6.1,9.449,9.62l-0.39,0.35
		c0,0,2.37,7,5.37,14.5c1.34,3.35,2.85,6.25,4.109,8.43l-0.35,0.2C203.382,268.62,195.382,269.88,194.622,268.38z"/>
	<path fill="#B2D8D2" d="M209.492,268.98l0.54-0.29l3.01,5.6c0,0-6.78,3.3-11.73,4.38c-0.979,0.22-1.89,0.35-2.66,0.35
		c-4.67,0-5.709-2.96-5.709-2.96l0.18-0.73c0,0-1.54-2.5-4.18-7.55l0.31-0.16c0,0,4.63-0.74,5.37,0.76c0.76,1.5,8.76,0.24,11.76-3.5
		l0.35-0.2C208.222,267.24,209.362,268.81,209.492,268.98z"/>
	<path fill="#B2D8D2" d="M242.752,240.75c-3-2.25-10.75-1.75-10.75-1.75l-0.279-0.18c1.93-2.87,4.039-5.64,6.34-8.13l-0.391-0.69
		l3-3c0,0,4,1.33,10,4c4.08,1.88,3.98,5.15,3.98,5.15l-0.98,0.6c0,0-1.43,5.04-3.37,11.26l-0.05-0.01
		C250.252,248,245.752,243,242.752,240.75z"/>
	<path fill="#B2D8D2" d="M242.752,240.75c3,2.25,7.5,7.25,7.5,7.25l0.05,0.01c-2.19,6.99-5.05,15.49-7.3,19.99
		c-5.88,6.62-8.439,10.44-8.439,10.44l0.109,0.89c0,0,0,0-1.66,1.34c-1.24,0.99-7.609-2.79-11.359-6.04
		c-1.311-1.12-2.301-2.19-2.641-2.96c-1.34-3-0.67-7-0.67-7h0.54c0,0,4.7-13.72,12.84-25.85l0.28,0.18
		C232.002,239,239.752,238.5,242.752,240.75z"/>
	<path fill="#B2D8D2" d="M218.342,264.67c0,0-0.67,4,0.67,7c0.34,0.77,1.33,1.84,2.641,2.96l-0.479,0.2c0,0,0.5,26.5,0.16,53.5
		c-0.33,27,5,34.34,0,39c-5,4.67-5,5.67,1.34,16l-0.09,0.78c-3.42-0.42-6.62-0.9-9.57-1.46c-4.5-0.841-8.43-1.841-11.729-2.99
		c-0.32-0.11-0.63-0.22-0.94-0.33L196.672,368c0,0,4.67-2.33,3.67-23.33s1.16-65.17,1.16-65.17l-0.19-0.83
		c4.95-1.08,11.73-4.38,11.73-4.38l-3.01-5.6l-0.021-0.03l6.33-3.66l1.301-0.93C217.882,264.28,218.111,264.48,218.342,264.67z"/>
	<path fill="#B2D8D2" d="M247.292,183.37c0.739-0.8,2.17-1.86,2.04,2.25c-0.5,8,3.63,17.09,3.63,17.09s19.37-16.04,32.71-28.04
		c11.83-13.29,7.66-21.5,7.66-21.5l0.67-0.5c0,0,25.75,9.95,36.75,19.33s10.37,29.96,7.62,48.62
		c-2.75,18.67-16.04,56.38-19.37,84.88c-2,37-2,49.83-2,49.83s6.34,12,3.01,15.67c-0.789,0.87-1.59,1.68-2.359,2.4
		c-2.5,2.38-4.641,3.93-4.641,3.93s-20,8.34-48.67,8.67c-13.42,0.15-25.52-0.27-35.89-1.25c-2.021-0.19-3.979-0.4-5.87-0.64
		l0.09-0.78c-6.34-10.33-6.34-11.33-1.34-16c5-4.66-0.33-12,0-39c0.34-27-0.16-53.5-0.16-53.5l0.48-0.2
		c3.75,3.25,10.119,7.03,11.358,6.04c1.66-1.34,1.66-1.34,1.66-1.34l-0.11-0.89c0,0,2.562-3.82,8.44-10.44
		c2.25-4.5,5.11-13,7.3-19.99c1.94-6.22,3.37-11.26,3.37-11.26l0.979-0.6c0,0,1.229-0.77,2.301-2.15l0.029-0.59
		c3.359,0.14,9.25,0.53,12.021,1.51c4,1.42,9.59,5.58,12.25,4.25c2.67-1.34,2.75-4,2.75-4s5,1.16,6,0.16s1.67-3.83,1.67-3.83
		s2-1,3-1.83c1-0.84,1.34-4.67,1.34-4.67l-11-8.67c-8.34-2.83-13.67-4-13.67-4s17-1.67,20.67-1.67c3.66,0,6.66-4.33,5.66-6
		c-0.989-1.66-11.33-1.33-11.33-1.33c-10.67-0.67-30,2.67-30,2.67l-23.858,9.56c-0.271-4.38-0.44-7.12-0.5-9.16h0.119
		c0.939-6.41,4.899-8.35,8.819-11.65c2.812-2.36,4.812-7.99,6.36-11.37C247.292,183.38,247.292,183.38,247.292,183.37z"/>
	<path fill="#282323" d="M201.342,392.67c0,0,4.22,0.83,10.91,1.9c3.91,0.63,8.67,1.34,13.92,2.02c15.91,2.07,36.36,3.84,51.5,2.08
		c28.67-3.34,41.58-12,41.58-12l0.221-0.02c0.369,4.25,0.76,9.68,1.129,16.449c1.15,21.4-3.97,83.24,2.182,140.9
		c8.27,67.53,9.779,141.14,12.18,204.19l-0.34,4.479c0,0-23.09-6.55-34.46-6.21c-2.05,0.06-3.899,0.3-5.57,0.63
		c-7.608,1.53-11.31,5.23-11.31,5.23l-1.03-11.71c0,0,2.64-1.182-4.25-65.61s-12.72-98.62-12.72-98.62s-9.78-55.09-14.95-80.93
		c-0.17-0.86-0.351-1.73-0.55-2.63c-1.391,4.64-17.62,58.729-25.11,81.85c-5.33,26.67-6.75,103.74-6.75,125.8
		c0,22.05-0.7,35.142-0.7,35.142l-2.06,12.06c0,0-0.229-0.16-0.66-0.439c-3.48-2.301-20-12.949-31.04-15.409
		c-5.271-1.17-10.36-1.972-14.46-2.5c-3.439-0.45-6.189-0.71-7.79-0.841c-0.979-0.08-1.521-0.109-1.521-0.109
		S167.002,572,171.002,544c5.78-22.8,24.55-114.87,29.78-151.19L201.342,392.67z"/>
	<path d="M261.668,86.148c0,0,0.931,1.32-0.34,1.15C260.059,87.128,259.738,86.098,261.668,86.148z"/>
	<path d="M236.219,85.818c0,0,1.27,1.38,0,1.18C234.948,86.808,234.288,85.768,236.219,85.818z"/>
	<path fill="#FFFFFF" d="M242.448,85.348c0,0,1.021,3.02-5.62,2.77c-6.64-0.26-6.64-2.77-6.64-2.77s3.359-3.89,8.59-3.89
		C238.778,81.458,241.048,81.328,242.448,85.348z M236.219,86.998c1.27,0.2,0-1.18,0-1.18
		C234.288,85.768,234.948,86.808,236.219,86.998z"/>
	<path fill="#FFFFFF" d="M269.618,85.628c0,0,0.311,2.21-6.78,2.46c-7.09,0.25-7.31-2.46-7.31-2.46c1.49-4.01,4.91-3.89,4.91-3.89
		C266.028,81.738,269.618,85.628,269.618,85.628z M261.328,87.298c1.271,0.17,0.34-1.15,0.34-1.15
		C259.738,86.098,260.059,87.128,261.328,87.298z"/>
</g>
<g>
	<path fill="none" stroke="#000000" stroke-width="3" stroke-linecap="round" stroke-linejoin="round" stroke-miterlimit="10" d="
		M235.939,145.125c-1.875-2.878-7.83-17.833-8.998-25.458s-2.041-11.578-2.183-12.277c0,0-1.044-4.765-1.952-9.515
		s-2.671-9.375,2.471-11.438c0.047-9.125-1.077-34.47,5.732-40.649c6.881-6.26,12.279-8.851,24.959-8.311
		c9.9,0.42,20.274,2.16,25.555,6.551c7.471,6.219,11.584,12.806,11.084,27.639c-0.5,10.5-1.709,14.458-1.709,14.458
		s2.98,0.244,4.211,4.375c1.24,4.13-0.565,8.667-3.086,16.948c-2.529,8.279-5.625,7.427-7.783,7.43
		c-0.635,14.789-6.228,25.398-8.301,27.427c-2.074,2.029-5.541,4.32-9.541,7.945s-8.418,7.948-8.418,7.948s-4.19,1.649-14.932,0
		C243.049,158.198,237.814,148.003,235.939,145.125z"/>
	<path fill="none" stroke="#000000" stroke-width="1.5" stroke-linecap="round" stroke-linejoin="round" stroke-miterlimit="10" d="
		M290.148,87c-6.75,0.75-6.75,15.75-8.562,15.688s0.312-27.507-0.188-35.854c0,0-6.959-4.5-8.213-9.333
		c-7.58,3.63-35.562,2.58-41.492,0c0,0-3.545,6-5.064,7.567"/>
	<path fill="none" stroke="#000000" stroke-width="1.5" stroke-linecap="round" stroke-linejoin="round" stroke-miterlimit="10" d="
		M225.943,85.788c0.666,6.877-1.336,14.313,0.164,24.68"/>
	<path fill="none" stroke="#000000" stroke-width="1.5" stroke-linecap="round" stroke-linejoin="round" stroke-miterlimit="10" d="
		M284.898,107.397c0,0,4.56,1.317,3.5-8.772c0,0-1.47-8.391,2.871-6.25"/>
	<path fill="none" stroke="#000000" stroke-width="3" stroke-linecap="round" stroke-linejoin="round" stroke-miterlimit="10" d="
		M271.789,78.858c0,0-4.903-3.903-7.242-4.153s-7.746,2.872-10.295,1.795"/>
	<path fill="none" stroke="#000000" stroke-width="1.5" stroke-linecap="round" stroke-linejoin="round" stroke-miterlimit="10" d="
		M269.619,85.628c0,0-3.59-3.891-9.18-3.891c0,0-3.42-0.119-4.91,3.891c0,0,0.221,2.709,7.311,2.459S269.619,85.628,269.619,85.628z
		"/>
	<path fill="none" stroke="#000000" stroke-width="3" stroke-linecap="round" stroke-linejoin="round" stroke-miterlimit="10" d="
		M261.669,86.153c-1.931-0.05-1.61,0.974-0.342,1.147C262.598,87.472,261.669,86.153,261.669,86.153z"/>
	<path fill="none" stroke="#000000" stroke-width="3" stroke-linecap="round" stroke-linejoin="round" stroke-miterlimit="10" d="
		M240.554,75.75c0,0-7.552,3.25-14.552,2.25"/>
	<path fill="none" stroke="#000000" stroke-width="1.5" stroke-linecap="round" stroke-linejoin="round" stroke-miterlimit="10" d="
		M230.184,85.348c0,0,3.361-3.89,8.598-3.89c0,0,2.268-0.131,3.662,3.89c0,0,1.021,3.021-5.619,2.771
		C230.184,87.858,230.184,85.348,230.184,85.348z"/>
	<path fill="none" stroke="#000000" stroke-width="3" stroke-linecap="round" stroke-linejoin="round" stroke-miterlimit="10" d="
		M236.219,87c1.271,0.195,0-1.182,0-1.182C234.289,85.773,234.949,86.805,236.219,87z"/>
	<path fill="none" stroke="#000000" stroke-width="1.5" stroke-linecap="round" stroke-linejoin="round" stroke-miterlimit="10" d="
		M247.84,80.077c0,0-0.431,11.621-1.49,14.561c-1.07,2.939-0.576,10.2-0.576,10.2"/>
	<path fill="none" stroke="#000000" stroke-width="1.5" stroke-linecap="round" stroke-linejoin="round" stroke-miterlimit="10" d="
		M259.01,111.028c0,0,1.279,4.699-2.391,4.699s-1.609,3.631-7.721,4.061c-6.119,0.42-4.271-3.34-6.459-4.061
		c-2.181-0.72-3.965-1.49-1.834-4.8"/>
	<path fill="none" stroke="#000000" stroke-width="1.5" stroke-linecap="round" stroke-linejoin="round" stroke-miterlimit="10" d="
		M264.131,121.75c0,0-0.629,2.5,1.371,6c-3.5-2-24.188-2.312-24.188-2.312"/>
	<path fill="none" stroke="#000000" stroke-width="1.5" stroke-linecap="round" stroke-linejoin="round" stroke-miterlimit="10" d="
		M247.016,131.699c0,0,6.178,1.889,11.519-0.462"/>
	<path fill="none" stroke="#000000" stroke-width="3" stroke-linecap="round" stroke-linejoin="round" stroke-miterlimit="10" d="
		M288.023,114.875c0,0-1.073,12.5-0.698,30.375c0,0,3.516-1.501,4.012-0.585s2.669,8.002,2.669,8.002s25.746,9.958,36.746,19.333
		s10.375,29.958,7.623,48.624s-16.042,56.375-19.373,84.876c-2,37-1.995,49.834-1.995,49.834s6.335,11.999,3.001,15.666
		s-7,6.334-7,6.334s-20,8.332-48.667,8.666s-51.333-1.999-64-6.666L196.674,368c0,0,4.667-2.333,3.667-23.333
		s1.161-65.167,1.161-65.167"/>
	<path fill="none" stroke="#000000" stroke-width="3" stroke-linecap="round" stroke-linejoin="round" d="M216.341,264.998
		l-6.333,3.666l3.037,5.629c0,0-9.729,4.73-14.396,4.73s-5.709-2.959-5.709-2.959s-7.188,0.311-12.934,0.6
		c-20.172,0.169-17.839-15.333-15.839-26c2.185-11.64,2.392-11.43,9.834-25.977c1.793,0.188,8.304,2.046,13.496,6.479
		c11.323,9.669,23.511,27.498,30.844,33.498c0,0-0.668,4,0.666,7s12.333,10.333,14,9s1.667-1.333,1.667-1.333l7.333,3.333
		L252.676,286c5.081,1.184,19.326,8,41.326-14.334c12-11.666,15.166-15.415,33.666-40.999"/>
	<path fill="none" stroke="#000000" stroke-width="3" stroke-linecap="round" stroke-linejoin="round" d="M256.949,234
		c-1.072,1.375-2.299,2.149-2.299,2.149s0.102-3.274-3.977-5.149c-6-2.667-10-4-10-4l-3,3c0,0-10.848-6.171-18.674-9.67
		s-15.833-8.997-24.496-12.33c0,0,0.672-1.841-0.417-3.253c-0.545-0.706-2.994-1.919-5.793-2.617
		c-2.799-0.698-5.949-0.88-6.62-0.796c-1.342,0.167-2.254,2.167-2.254,2.167s-2.28-1.043-5.737-1.333
		c-2.012-0.168-4.422,0.658-7.014,0.5c-10.611-0.647-24.086-2.09-26.043-1.962s-4.923,1.807-7.612,2.973
		c-2.688,1.166-6.312,2.143-7.862,4.136c-1.551,1.993-3.334,4.031-4.805,6.561c-1.471,2.53-0.359,5.21,1.25,6.404
		c-0.869,4.655-1.596,4.929,2.021,6.615c0.617,3.112,4.357,3.438,4.357,3.438s1.616,1.431,3.231,1.327
		c1.614-0.104,3.827-2.665,5.138-4.815c1.307-2.149,2.248-3.798,2.406-3.935c2.24-0.929,9-4.909,9-4.909s3.615,0.205,5.955,1.33
		s4.962,2.837,4.962,2.837c-0.917,3.916-3.733,4.436-4.881,6.411s-1.804,2.819-1.392,4.853c0.414,2.034,1.002,3.081,2.639,3.541
		c0.963,0.27,2.464-1.65,6.199-4.459c2.614-1.965,8.102-4.18,12.767-8.18"/>
	<path fill="none" stroke="#000000" stroke-width="3" stroke-linecap="round" stroke-linejoin="round" d="M219.877,220.606
		L256.341,206c0,0,19.333-3.335,30-2.669c0,0,10.337-0.335,11.334,1.333s-2,6-5.667,6s-20.667,1.667-20.667,1.667
		s5.331,1.169,13.667,4l11,8.667c0,0-0.338,3.835-1.338,4.668s-3,1.833-3,1.833s-0.667,2.833-1.667,3.833s-5.999-0.166-5.999-0.166
		s-0.084,2.666-2.748,3.999s-8.25-2.831-12.25-4.249s-14.503-1.584-14.503-1.584"/>
	<path fill="none" stroke="#000000" stroke-width="3" stroke-linecap="round" stroke-linejoin="round" d="M300.547,185.545
		c-9.667,6-15.295,12.954-20.795,17.455"/>
	
		<line fill="none" stroke="#000000" stroke-width="3" stroke-linecap="round" stroke-linejoin="round" x1="208.502" y1="214.875" x2="209.002" y2="205.25"/>
	<path fill="none" stroke="#000000" stroke-width="3" stroke-linecap="round" stroke-linejoin="round" d="M236.564,148.312
		c0,0-3.062,0.812-3.812,2.312s-1.916,5.125-1.916,5.125s-17.604,4.333-25.229,9.75c-7.623,5.417-12.438,12.833-22.771,35.625"/>
	<path fill="none" stroke="#000000" stroke-width="1.5" stroke-linecap="round" stroke-linejoin="round" d="M266.339,218.667
		c0,0,10.501,2.334,15.167,4.667c4,3.167,10.164,8.167,10.164,8.167"/>
	<path fill="none" stroke="#000000" stroke-width="1.5" stroke-linecap="round" stroke-linejoin="round" d="M262.672,225
		c0,0,9.168,1.833,14.334,5s6.748,4.333,6.748,4.333"/>
	<path fill="none" stroke="#000000" stroke-width="1.5" stroke-linecap="round" stroke-linejoin="round" d="M234.564,278.438
		c0,0,2.562-3.812,8.438-10.438c4.25-8.5,10.673-31.25,10.673-31.25"/>
	<path fill="none" stroke="#000000" stroke-width="1.5" stroke-linecap="round" stroke-linejoin="round" d="M218.877,264.665
		c0,0,7.188-20.978,19.188-33.978"/>
	<path fill="none" stroke="#000000" stroke-width="1.5" stroke-linecap="round" stroke-linejoin="round" d="M232.002,239
		c0,0,7.75-0.5,10.75,1.75s7.5,7.25,7.5,7.25"/>
	<path fill="none" stroke="#000000" stroke-width="1.5" stroke-linecap="round" stroke-linejoin="round" d="M197.252,241.75
		c0,0,2.375,7,5.375,14.5s6.875,12.75,6.875,12.75"/>
	<path fill="none" stroke="#000000" stroke-width="1.5" stroke-linecap="round" stroke-linejoin="round" d="M188.003,231.999
		c0,0-2.501,0.251-5.165,0.999c-3.667,1.667-2.163,6.333-2.163,6.333s-1.673,12.419,4.327,20.669c5,10.25,8.125,15.331,8.125,15.331
		"/>
	<path fill="none" stroke="#000000" stroke-width="1.5" stroke-linecap="round" stroke-linejoin="round" d="M189.252,267.625
		c0,0,4.625-0.75,5.375,0.75s8.75,0.25,11.75-3.5"/>
	<path fill="none" stroke="#000000" stroke-width="1.5" stroke-linecap="round" stroke-linejoin="round" d="M189.128,209.874
		c0,0-3.294,2.96-4.627,6.793s-1.666,10.832-1.666,10.832"/>
	<path fill="none" stroke="#000000" stroke-width="1.5" stroke-linecap="round" stroke-linejoin="round" d="M180.835,206.5
		c0,0-5.834,3.832-5.03,16.832"/>
	<path fill="none" stroke="#000000" stroke-width="1.5" stroke-linecap="round" stroke-linejoin="round" d="M176.588,215.917
		c2-2.167,4.58-2.083,4.58-2.083s2.333,2.833,2.5,5.333"/>
	<path fill="none" stroke="#000000" stroke-width="1.5" stroke-linecap="round" stroke-linejoin="round" d="M184.666,207.167
		c2.333,0.833,1,3.167-1,2.833S182.333,206.333,184.666,207.167z"/>
	<path fill="none" stroke="#000000" stroke-width="1.5" stroke-linecap="round" stroke-linejoin="round" d="M185.834,209.333
		c0,0,5.007,1.292,7.921-0.789"/>
	<path fill="none" stroke="#000000" stroke-width="1.5" stroke-linecap="round" stroke-linejoin="round" d="M179.463,203.625
		c0,0,0.292,2.542,3.036,4.209"/>
	<path fill="none" stroke="#000000" stroke-width="1.5" stroke-linecap="round" stroke-linejoin="round" d="M182.668,202.5
		c0,0-0.167,1.833,2.833,3.167s6.33,0.834,8.167-0.333"/>
	<path fill="none" stroke="#000000" stroke-width="1.5" stroke-linecap="round" stroke-linejoin="round" d="M174.084,224
		c0,0-5.871-1.459-9.914-3.792s-6.959-6.396-10.313-7.083c-3.354-0.687-7.957-1.27-10.25-1.854
		c-2.291-0.584-5.479-1.542-5.479-1.542s-6.035,2.54-8.715,3.611c0,0-4.035,8.619-8.727,6.615"/>
	<path fill="none" stroke="#000000" stroke-width="1.5" stroke-linecap="round" stroke-linejoin="round" d="M172.627,225.375
		c0,0-8.959,1.875-13.292-3.125"/>
	<path fill="none" stroke="#000000" stroke-width="1.5" stroke-linecap="round" stroke-linejoin="round" d="M148.252,218
		c0.009,0.003-6.778-3.919-9.771-7.667"/>
	<path fill="none" stroke="#000000" stroke-width="1.5" stroke-linecap="round" stroke-linejoin="round" d="M128.533,230.014
		c1.094-0.639,2.719-2.37,3.844-4.966c1.125-2.596,1.804-3.588,2.375-3.923c0.571-0.337,5.615-2.802,8.74-5.115"/>
	<path fill="none" stroke="#000000" stroke-width="1.5" stroke-linecap="round" stroke-linejoin="round" d="M124.295,227.111
		c0,0,1.418-0.531,3.125-2.321s3.332-5.79,4.021-6.728c0.688-0.938,5.188-2.312,8.834-5.458"/>
	<path fill="none" stroke="#000000" stroke-width="1.5" stroke-linecap="round" stroke-linejoin="round" d="M239.064,151.188
		l-1.938,2.062c0,0-1.043,4.832-0.771,7.729c0.271,2.897,1.123,6.938,1.041,12.521s-3.479,16.5-4.562,23.333
		c-1.126,7.109-1.093,6.67-0.334,19"/>
	<path fill="none" stroke="#000000" stroke-width="1.5" stroke-linecap="round" stroke-linejoin="round" d="M231.67,155.667
		c0,0-10.334,23.833-10.334,27.833s-2.5,11.833-2.5,11.833c4.5-2.333,6.001-11.417,7.834-13.583s2.917-5.583,3.875-5.208
		s3.042,13.958,2.625,17.875"/>
	<path fill="none" stroke="#000000" stroke-width="1.5" stroke-linecap="round" stroke-linejoin="round" d="M287.127,145.25
		c0,0,2.875,2.625-5.291,15.417c-11.334,11-29.167,19.5-32.667,20c-1.786,0.255-4.146,10.644-8.242,14.083
		c-3.928,3.299-7.881,5.239-8.819,11.646"/>
	<path fill="none" stroke="#000000" stroke-width="1.5" stroke-linecap="round" stroke-linejoin="round" d="M246.877,183.875
		c0,0,2.625-3.75,2.459,1.75c-0.5,8,3.625,17.083,3.625,17.083s19.375-16.042,32.708-28.042c11.833-13.292,7.667-21.5,7.667-21.5"/>
	<path fill="none" stroke="#000000" stroke-width="1.5" stroke-linecap="round" stroke-linejoin="round" d="M221.168,274.834
		c0,0,0.5,26.5,0.167,53.5s5,34.333,0,39s-5.001,5.667,1.333,16"/>
	<path fill="none" stroke="#000000" stroke-width="3" stroke-linecap="round" stroke-linejoin="round" stroke-miterlimit="10" d="
		M249.877,492.5c0,0-17.375,58-25.207,82.172c-5.324,26.667-6.743,103.742-6.743,125.794c0,22.05-0.7,35.144-0.7,35.144
		l-2.065,12.059c0,0-19.295-13.092-31.698-15.849s-23.772-3.445-23.772-3.445S167.001,571.998,171.002,544
		c5.776-22.802,24.546-114.868,29.784-151.194c-1.117-5.805-0.951-10.972,0.466-13.056"/>
	<path fill="none" stroke="#000000" stroke-width="3" stroke-linecap="round" stroke-linejoin="round" stroke-miterlimit="10" d="
		M317.995,373.75c0,0,1.454,7.947,2.604,29.349c1.151,21.402-3.968,83.242,2.18,140.901c8.271,67.532,9.777,141.136,12.184,204.188
		l-0.344,4.479c0,0-23.09-6.546-34.458-6.202c-11.371,0.344-16.88,5.856-16.88,5.856l-1.034-11.714c0,0,2.644-1.179-4.245-65.606
		c-6.891-64.429-12.717-98.616-12.717-98.616s-9.782-55.093-14.95-80.934S231.252,428,231.252,428"/>
	<path fill="none" stroke="#000000" stroke-width="3" stroke-linecap="round" stroke-linejoin="round" d="M201.342,392.667
		c0,0,47.665,9.334,76.332,6.001s41.578-12.001,41.578-12.001"/>
	<path fill="none" stroke="#000000" stroke-width="1.5" stroke-linecap="round" stroke-linejoin="round" d="M213.008,382.667
		c0,0-5.332,4.001-0.666,11.334"/>
	<path fill="none" stroke="#000000" stroke-width="1.5" stroke-linecap="round" stroke-linejoin="round" d="M226.342,395.334
		c0,0,4-4.666,2-9.333"/>
	<path fill="none" stroke="#000000" stroke-width="3" stroke-linecap="round" stroke-linejoin="round" stroke-miterlimit="10" d="
		M213.782,748.356l0.345,7.581c0,0-9.993,3.787-25.497,1.72c-15.504-2.066-8.958,8.616-45.479,9.305
		c-36.521,0.69-40.312-7.234-40.312-7.234s-1.725-7.235,0-8.27s25.498-2.412,38.59-8.271c13.092-5.854,19.639-13.779,19.639-13.779"
		/>
	<path fill="none" stroke="#000000" stroke-width="1.5" stroke-linecap="round" stroke-linejoin="round" stroke-miterlimit="10" d="
		M212.75,753.183c0,0-13.127,3.57-26.067,0.968c-9.992-2.068-13.478,11.139-49.041,9.715c-14.894-0.394-22.388-1.039-34.455-5.858"
		/>
	<path fill="none" stroke="#000000" stroke-width="1.5" stroke-linecap="round" stroke-linejoin="round" stroke-miterlimit="10" d="
		M168.993,729.409c0,0-17.573,20.672-46.17,22.739c0,0-13.438,0.688-14.471,1.723c-1.033,1.033-1.033,5.168-1.033,5.168"/>
	<path fill="none" stroke="#000000" stroke-width="3" stroke-linecap="round" stroke-linejoin="round" stroke-miterlimit="10" d="
		M334.616,754.047v4.823l-6.548,11.371c0,0-29.976,6.547-52.371,0v-6.203c0,0,6.892-4.824,7.925-10.683"/>
	<path fill="none" stroke="#000000" stroke-width="1.5" stroke-linecap="round" stroke-linejoin="round" stroke-miterlimit="10" d="
		M329.447,765.417c0,0-24.117,6.547-53.748,1.379"/>
	<path fill="none" stroke="#000000" stroke-width="1.5" stroke-linecap="round" stroke-linejoin="round" stroke-miterlimit="10" d="
		M294.668,747.502c0,0-0.333,9.165-7.254,12.747c0,0-3.1,3.211-2.756,7.001"/>
</g>
</svg>
