<?xml version="1.0" encoding="utf-8"?>
<!-- Generator: Adobe Illustrator 16.0.0, SVG Export Plug-In . SVG Version: 6.00 Build 0)  -->
<!DOCTYPE svg PUBLIC "-//W3C//DTD SVG 1.1//EN" "http://www.w3.org/Graphics/SVG/1.1/DTD/svg11.dtd">
<svg version="1.1" id="Layer_1" xmlns="http://www.w3.org/2000/svg" xmlns:xlink="http://www.w3.org/1999/xlink" x="0px" y="0px"
	 width="500px" height="800px" viewBox="0 0 500 800" enable-background="new 0 0 500 800" xml:space="preserve">
<g>
	<path d="M223.001,772.001c0,5-4.5,6.5-24,6.5c-9.25,0-13.771-4.27-15.97-8.77l0.22-0.11c0,0,6.37,5.38,14.87,5.26
		c3.699-0.05,7.37-0.06,10.51-0.13c4.09-0.08,7.29-0.28,8.49-0.87c2.13-1.05,3.8-2.26,4.8-3.76l1.03-0.062
		C222.98,770.681,223.001,771.331,223.001,772.001z"/>
	<path fill="#5B1A1A" d="M181.001,759.501l7-24.12v-0.02c5.19,1.238,12.229,2.528,19.39,2.608l-0.01,1.53c0,0-0.76,9.75-0.13,16.38
		c0.63,6.62,1.37,11.12,1.37,11.12v7.25l0.01,0.5c-3.14,0.07-6.811,0.08-10.51,0.13c-8.5,0.12-14.87-5.26-14.87-5.26l-0.22,0.109
		C180.591,764.751,181.001,759.501,181.001,759.501z"/>
	<path fill="#5B1A1A" d="M222.441,735.821c1.42-0.5,2.779-1.102,4.06-1.82l0.84-13.41l0.29,0.021c9.67-0.512,18.59-3.04,23.47-4.682
		l0.021,0.07c0,0,3.26,5.88,11.13,10s20.749,7,28.749,10c4.65,1.74,5.25,5.35,4.93,8.06l-0.51-0.06c-3.5,1.88-16.54,4.12-33.8,4.25
		c-17.24,0.13-18.12-7.08-28.87-11C229.661,735.661,225.861,735.661,222.441,735.821z"/>
	<path fill="#5B1A1A" d="M207.391,737.971c4.26,0.062,8.561-0.318,12.541-1.37l0.069,0.28c0,0,0.12,0.98,0.31,2.521
		c0.57,4.658,1.69,14.479,1.69,18.6c0,4.76,0.75,8.021,0.95,12.06l-1.03,0.062c-1,1.5-2.67,2.71-4.8,3.76
		c-1.2,0.59-4.4,0.79-8.49,0.87l-0.01-0.5v-7.252c0,0-0.74-4.5-1.37-11.12c-0.63-6.63,0.13-16.38,0.13-16.38L207.391,737.971z"/>
	<path fill="#282323" d="M222.441,735.821c-0.82,0.3-1.66,0.56-2.51,0.778c-3.98,1.052-8.281,1.432-12.541,1.37
		c-7.16-0.08-14.199-1.37-19.39-2.608c-5.03-1.2-8.33-2.36-8.33-2.36s3.66-70,4.66-105s-1.83-80.25-1.33-102.25
		s-7.5-98.75-7.5-122.75c0-12.38,1.33-24.35,2.62-33.05l1.88,0.05c0,0,32.399,11.16,63.069,12.13c3.69,0.12,7.351,0.08,10.931-0.13
		c2.971-0.18,5.779-0.38,8.439-0.6c27.279-2.25,38.899-6.4,38.899-6.4l0.05,0.01l-25.389,181.74c0,0-22,104.25-21,124.25
		c0,13.5,0,33.5,0,33.5s-1.439,0.6-3.9,1.43c-4.878,1.642-13.8,4.17-23.47,4.682l-0.29-0.021l-0.84,13.41
		C225.221,734.721,223.861,735.321,222.441,735.821z"/>
	<path d="M259.001,752.001c-21-0.5-24-14-33-13c-1.71,0.19-3.59,0.31-5.5,0.38l-0.19,0.021c-0.189-1.54-0.31-2.521-0.31-2.521
		l-0.069-0.28c0.85-0.22,1.689-0.479,2.51-0.778c3.42-0.16,7.22-0.16,10.31,1.43c10.75,3.92,11.63,11.13,28.87,11
		c17.26-0.13,30.3-2.37,33.8-4.25l0.51,0.06c-0.229,1.95-0.93,3.44-0.93,3.44S280.001,752.501,259.001,752.001z"/>
	<path fill="#7A5943" d="M262.36,132.171c-0.051,0.09-0.109,0.17-0.17,0.24c-2.119,2.71-8.221,12.41-8.221,12.41
		c-10.84,0.72-14.87-1.29-14.87-1.29s-4.029-4.69-7.699-8.65c-3.67-3.95-6.931-6.54-8.82-8.74c-1.891-2.2-6.54-13.25-5.9-28.04
		c-1.01-0.09-2.24-0.01-3.439-0.77c-1.37-0.86-2.711-2.81-3.67-7.3c-1.791-8.47-3.2-10.15-1.61-14.16c0.64-1.61,1.5-2.57,2.31-3.15
		l2.94,0.1c6.66,1.33,5.36,16.27,7.17,16.37c1.81,0.09,2.57-25.42,3.79-33.69c0,0,5.939-5.02,7.609-9.72
		c7.23,4.27,36.091,4.76,42.221,2.7c0,0,3.01,3.29,4.39,4.98l1.041,0.01c-0.029,7.51-0.74,15.43-1.221,20.78l-0.93-0.09
		c-1.262,6.8,0.09,14.38-2.301,24.58l0.699,0.15c-0.56,2-1.359,4.96-2.33,8.94c-1.238,5.1-4.979,13.39-7.908,19.02
		C264.181,129.271,263.062,131.201,262.36,132.171z M273.091,76.361c0,0-3.01-1.91-8.229-2.36c0,0-3.19-0.42-3.98,1.3
		c0,0-1.279,2.92,5.36,3.24C272.881,78.861,273.091,76.361,273.091,76.361z M247.821,74.441c-0.99-2.11-4.561-2.27-4.561-2.27
		c-5.569-0.49-9.479,1.06-9.479,1.06s-0.221,2.5,6.82,3.37C247.651,77.461,247.821,74.441,247.821,74.441z"/>
	<path fill="#B2D8D2" d="M255.501,149.621c0,0,5.21-6.12,6.33-10.37c0.811-3.03,0.68-5.76,0.529-7.08c0.699-0.97,1.82-2.9,3.08-5.32
		l0.119,0.06c0.881,1.15,1.69,2.47,2.44,6.09l2.46,7.09l-0.46,0.16c0,10.25-0.67,21.42-0.67,21.42s-2.67-8-3-13.67
		c-0.33-5.66-9.67,2-9.67,2l-1.011,0.07C255.551,149.771,255.501,149.621,255.501,149.621z"/>
	<path fill="#AAAAAA" d="M333.621,252.251c0.021,0,0.03,0,0.05,0c2,0,2.75,2.42,3.83,4.83c1.25,3,4.25,2.92,4.25,2.92l3,6.58
		c0.08-3.25,4-1.75,4-1.75l1.75,3.92l0.04,0.3c-13.45,1.87-29.8,4.27-41.479,6.09l-0.061-0.39l1.5-4.5l3-0.75c0,0,0.71,2.5,3,1.96
		s3.75-9.21,3.75-9.21c3.5-2,5.25-4,7.25-7.25C329.481,251.781,331.631,252.241,333.621,252.251z"/>
	<path fill="#263860" d="M273.94,295.011c5.689-5.37,15.58-14.54,19.189-16.8c0.352-0.22,0.65-0.38,0.87-0.46
		c0.771-0.27,4.931-1,11-1.97c1.271-0.21,2.63-0.42,4.06-0.64c11.682-1.82,28.03-4.22,41.48-6.09
		c12.859-1.81,23.061-3.14,23.96-3.05c0,0,3.09-0.65-24.25,23.14c-0.36,0.31-0.72,0.62-1.08,0.94c0,0-11.46-0.21-18.13-0.54
		c-6.66-0.33-14.43,0.13-16.04,0.96c-1.75,1-2.25,3.58-1.25,5.08c0.64,1.16,16.489,2.34,16.489,2.34l11.511,1.33
		c0,0-25.87,1.5-30.63,3.75c-4.74,2.25-3.24,5.25-3.24,5.25s-1.38,1-1.38,2.75s1,3.5,1,3.5s7.88,1.25,8.88,1.5
		c0.359,0.21,0.721,0.42,1.08,0.62l-0.21,0.38c0,0-4.67,0.78-11.681,1.94c-12.801,2.119-33.399,5.529-47.569,7.84
		c-8.58,1.399-14.8,2.399-15.5,2.47c-2.5,0.25-2.25-3-2.25-3l11-10.5l0.01-0.24c3.472,0.03,6.892-0.819,9.49-4.51
		c4.75-6.75,9-12,9-12S271.44,297.371,273.94,295.011z"/>
	<path fill="#7A5943" d="M353.94,294.191c0.25,2.75-1.439,3.93-1.819,5.93c-0.37,2,0.63,3.5-0.24,6c-0.88,2.5-3.38,2.63-3.38,4
		c0,1.38,0.061,2.82-0.689,4.57s-3.369,3.25-3.369,3.25s-0.562,2.06-2.062,3.31s-6,1.37-6,1.37l-8.38-0.74c0,0-5.63-2.49-10.54-5.26
		c-0.36-0.2-0.72-0.41-1.08-0.62c-1-0.25-8.88-1.5-8.88-1.5s-1-1.75-1-3.5s1.38-2.75,1.38-2.75s-1.5-3,3.24-5.25
		c4.76-2.25,30.63-3.75,30.63-3.75l-11.51-1.33c0,0-15.852-1.18-16.49-2.34c-1-1.5-0.5-4.08,1.25-5.08
		c1.609-0.83,9.38-1.29,16.04-0.96c6.67,0.33,18.13,0.54,18.13,0.54c0.359-0.32,0.721-0.63,1.08-0.94l1.311,0.05
		C351.562,289.191,353.69,291.441,353.94,294.191z"/>
	<path fill="#B2D8D2" d="M305.001,275.781c-6.07,0.97-10.23,1.7-11,1.97c-0.221,0.08-0.52,0.24-0.87,0.46l-0.13-0.21
		c0.25-3.25-3.5-4-3.5-4s0.5-1-0.5-2.75s-3.75-1.5-3.75-1.5c-0.75-2.5-7.75-2.25-7.75-2.25c-1.68-0.15-3.07-0.26-4.26-0.33
		l0.01-0.17l-15.82-9.7l0.23-0.38c-0.17-7.48-0.33-18.47-0.33-28.92c0-21.33-3.66-41.67-3.66-41.67
		c9.66-16.33,6.21-25.58,6.21-25.58c-2.438-5.48-3.81-9.4-4.229-10.68l1.011-0.07c0,0,9.34-7.66,9.67-2c0.33,5.67,3,13.67,3,13.67
		s0.669-11.17,0.669-21.42l0.46-0.16l0.33,0.95c0,0,21.46,13.46,35.71,21.71s16.5,33.25,19.5,48.25
		c2.95,14.77,7.48,38.15,7.62,41.25c-1.99-0.01-4.14-0.47-6.12,2.75c-2,3.25-3.75,5.25-7.25,7.25c0,0-1.46,8.67-3.75,9.21
		s-3-1.96-3-1.96l-3,0.75l-1.5,4.5l0.061,0.39C307.631,275.361,306.271,275.571,305.001,275.781z"/>
	<path fill="#B2D8D2" d="M307.671,347.671c2.66,8.33-3.67,14.08-3.67,14.08s-1.391,0.36-3.85,0.91
		c-6.61,1.479-20.94,4.33-36.852,5.31c-1.96,0.12-3.939,0.21-5.93,0.271l-0.04-1.57c6.34-5.67,3-38.67,3-38.67l-2.33-1.22
		c14.17-2.311,34.771-5.721,47.569-7.84l0.101,0.56C305.331,327.001,305.001,339.331,307.671,347.671z"/>
	<path fill="#5B1A1A" d="M303.001,363.501l-1.609,11.51l-0.051-0.01c0,0-11.619,4.15-38.898,6.4c5.328-7.67,0.898-12.73,0.898-12.73
		l-0.04-0.7c15.91-0.979,30.24-3.83,36.851-5.31L303.001,363.501z"/>
	<path fill="#7A5943" d="M198.102,283.491l0.869-0.39c0.76,1.23,5.45,5.64,34.7,11.4c0,0,2.58-2.5,6.08-5.25c0,0,3-5.25,5.5-12.75
		c0,0,0.25-2.75,11.5-6c0.471-0.14,0.92-0.27,1.35-0.4c3.012-0.89,4.98-1.57,6.58-2.06c2.801-0.85,4.48-1.11,8.562-0.87
		c1.188,0.07,2.579,0.18,4.26,0.33c0,0,7-0.25,7.75,2.25c0,0,2.75-0.25,3.75,1.5s0.5,2.75,0.5,2.75s3.75,0.75,3.5,4l0.13,0.21
		c-3.609,2.26-13.5,11.43-19.189,16.8c-2.5,2.36-4.189,3.99-4.189,3.99s-4.25,5.25-9,12c-2.6,3.689-6.02,4.54-9.49,4.51
		c-2.859-0.02-5.77-0.64-8.26-0.76c-1.93-0.04-16.58,1.5-30.08,1.67s-29.42-1.59-29.42-1.59s-1.16-1.03-1.399-4.19
		c-0.24-3.04,0.379-8.04,3.729-15.97C185.831,294.671,190.781,283.491,198.102,283.491z"/>
	<path fill="#7A5943" d="M277.892,77.871c4.939,2.5,2.779,3.95,1.471,8.61c-1.32,4.65-2.771,9.31-2.771,9.31
		c-0.09,0.32-0.41,1.33-0.91,3.1l-0.699-0.15c2.391-10.2,1.039-17.78,2.301-24.58l0.93,0.09
		C278.081,75.651,277.972,76.871,277.892,77.871z"/>
	<path d="M275.69,33.871c2.949,3.18,3.771,11.13,3.74,19.6l-1.041-0.01c-1.38-1.69-4.39-4.98-4.39-4.98
		c-6.13,2.06-34.99,1.57-42.221-2.7c-1.67,4.7-7.609,9.72-7.609,9.72c-1.22,8.27-1.98,33.78-3.79,33.69
		c-1.81-0.1-0.51-15.04-7.17-16.37l-2.94-0.1c1.181-0.83,2.23-0.84,2.271-0.84c0,0-0.86-7.05-0.45-17.55
		c0.78-14.82,5.45-21.03,13.43-26.58c5.641-3.92,16.131-4.75,26.021-4.31C264.222,24.001,269.381,27.041,275.69,33.871z"/>
	<path fill="#D6A630" d="M273.251,267.001l-0.01,0.17c-4.08-0.24-5.76,0.02-8.561,0.87l-0.011-0.04l-6.62-4.09l-19.299-11.91
		c0-3,3.5-4,3.5-4l15.18,9.3L273.251,267.001z"/>
	<path fill="#B2D8D2" d="M264.671,268.001l0.01,0.04c-1.6,0.49-3.568,1.17-6.58,2.06l-0.1-0.35c0,0-0.07-2.03-0.16-5.5l0.21-0.34
		L264.671,268.001z"/>
	<path fill="#D6A630" d="M263.341,368.671c0,0,4.43,5.061-0.898,12.73c-2.66,0.22-5.471,0.42-8.44,0.6
		c-3.58,0.21-7.24,0.25-10.93,0.13c-3.5-7.09,0.93-12.8,0.93-12.8l0.07-1.29c1.58,0.1,3.14,0.17,4.68,0.21
		c2.88,0.08,5.761,0.07,8.62-0.01c1.99-0.061,3.97-0.15,5.93-0.271L263.341,368.671z"/>
	<path fill="#7A5943" d="M262.36,132.171c0.149,1.32,0.279,4.05-0.529,7.08c-1.12,4.25-6.33,10.37-6.33,10.37s0.05,0.15,0.15,0.45
		c0.42,1.28,1.789,5.2,4.229,10.68c0,0,3.45,9.25-6.21,25.58c0,0-3-12.12-4.42-17.33s-7.13-12.25-7.13-12.25s-0.011,0-0.011-0.01
		c-0.149-0.3-3.26-6.39-8.989-7.62c-5.87-1.24-19.95-21.79-20.62-25.12l-1.141-0.43c0.261,0,0.44-0.08,0.511-0.32
		c1.03-13.88,1.05-25.48,1.05-25.48l0.32-0.44c1.199,0.76,2.43,0.68,3.439,0.77c-0.64,14.79,4.01,25.84,5.9,28.04
		c1.89,2.2,5.15,4.79,8.82,8.74c3.67,3.96,7.699,8.65,7.699,8.65s4.03,2.01,14.87,1.29c0,0,6.102-9.7,8.221-12.41
		C262.251,132.341,262.312,132.261,262.36,132.171z"/>
	<path fill="#B2D8D2" d="M260.331,328.001c0,0,3.34,33-3,38.67l0.04,1.57c-2.86,0.08-5.74,0.09-8.62,0.01
		c-1.54-0.04-3.101-0.11-4.681-0.21c-24.969-1.49-53.539-9.18-63-12.98c-0.489-0.199-0.93-0.38-1.319-0.56
		c-1.38-3.82-9.41-11.5-5-15.51c4.41-4,3.59-20.24,3.59-20.24l0.07-0.56c0.33,0.04,0.61,0.06,0.84,0.06c3,0,4.25-3.42,4.25-3.42
		s15.92,1.76,29.42,1.59s28.149-1.71,30.08-1.67c2.49,0.12,5.4,0.74,8.26,0.76l-0.01,0.24l-11,10.5c0,0-0.25,3.25,2.25,3
		c0.7-0.07,6.92-1.07,15.5-2.47L260.331,328.001z"/>
	<path fill="#B2D8D2" d="M182.251,275.251l0.08,0.75c-7.33,5.33-13,9.83-14.83,16.5c-0.92,3.34-1.58,7.67-2.021,11.17
		c-0.319,2.57-0.52,4.69-0.609,5.63l-0.62-0.05c-5.5-1-15.42-6.75-18.25-12.25s-4.33-15-6-32.75c-1.5-27.75,5.25-79.75,11.25-94
		s48.25-31.5,48.25-31.5s4.83,6.59,11.83,14.92s16.33,16.33,16.33,16.33s3.34-6.66,3.34-13.66c0-6.85,10.649,0.1,11.11,0.4
		c0,0.01,0.01,0.01,0.01,0.01s5.71,7.04,7.13,12.25s4.42,17.33,4.42,17.33s3.66,20.34,3.66,41.67c0,10.45,0.16,21.44,0.33,28.92
		l-0.23,0.38l-15.18-9.3c0,0-3.5,1-3.5,4l19.3,11.91l-0.21,0.34c0.09,3.47,0.16,5.5,0.16,5.5l0.1,0.35
		c-0.43,0.13-0.879,0.26-1.35,0.4c-11.25,3.25-11.5,6-11.5,6c-2.5,7.5-5.5,12.75-5.5,12.75c-3.5,2.75-6.08,5.25-6.08,5.25
		c-29.25-5.76-33.94-10.17-34.7-11.4c-0.14-0.23-0.14-0.35-0.14-0.35l0.17-3l-8-2C184.751,272.751,182.251,275.251,182.251,275.251z
		"/>
	<path fill="#5B1A1A" d="M244.07,368.041l-0.069,1.29c0,0-4.431,5.71-0.931,12.8c-30.67-0.97-63.069-12.13-63.069-12.13l-1.88-0.05
		c1.21-8.181,2.38-13.45,2.38-13.45l0.569-1.44C190.531,358.861,219.102,366.551,244.07,368.041z"/>
	<path fill="#B2D8D2" d="M233.121,149.121c5.73,1.23,8.84,7.32,8.99,7.62c-0.461-0.3-11.11-7.25-11.11-0.4
		c0,7-3.34,13.66-3.34,13.66s-9.33-8-16.33-16.33s-11.83-14.92-11.83-14.92c-0.25-3,5.92-12.75,5.92-12.75l0.96-1.21
		c1.439-2.65,3.891-1.22,4.98-1.22l1.14,0.43C213.171,127.331,227.251,147.881,233.121,149.121z"/>
	<path fill="#B2D8D2" d="M199.001,279.751l-0.17,3c0,0,0,0.12,0.14,0.35l-0.869,0.39c-7.32,0-12.271,11.18-12.271,11.18
		c-3.351,7.93-3.97,12.93-3.729,15.97l-0.431,0.03c-3.17-0.17-4.34-3-4.34-3s-5-0.34-7.83-0.5c-2.83-0.17-3.83-3.5-3.83-3.5h-0.19
		c0.44-3.5,1.101-7.83,2.021-11.17c1.83-6.67,7.5-11.17,14.83-16.5l-0.08-0.75c0,0,2.5-2.5,8.75,2.5L199.001,279.751z"/>
	<path fill="#B2D8D2" d="M164.871,309.301c0.09-0.939,0.29-3.06,0.609-5.63h0.19c0,0,1,3.33,3.83,3.5c2.83,0.16,7.83,0.5,7.83,0.5
		s1.17,2.83,4.34,3l0.431-0.03c0.239,3.16,1.399,4.19,1.399,4.19s-1.25,3.42-4.25,3.42c-0.229,0-0.51-0.02-0.84-0.06
		c-3.99-0.45-14.66-3.44-14.66-3.44l0.5-5.5L164.871,309.301z"/>
	<path fill="#FFFFFF" d="M264.865,74.001c5.22,0.45,8.23,2.36,8.23,2.36s-0.221,2.5-6.86,2.18c-6.63-0.32-5.35-3.24-5.35-3.24
		C261.665,73.581,264.865,74.001,264.865,74.001z M267.415,77.581c1.28-0.01,2.021-0.91,0.091-1.04
		C267.506,76.541,266.146,77.591,267.415,77.581z"/>
	<path fill="#FFFFFF" d="M243.266,72.171c0,0,3.569,0.16,4.55,2.27c0,0-0.17,3.02-7.21,2.16c-7.04-0.87-6.82-3.37-6.82-3.37
		S237.695,71.681,243.266,72.171z M242.325,75.811c1.28-0.04,2.04-1.16,0.11-1.29C242.436,74.521,241.045,75.851,242.325,75.811z"/>
	<path d="M267.506,76.541c1.93,0.13,1.189,1.03-0.091,1.04C266.146,77.591,267.506,76.541,267.506,76.541z"/>
	<path d="M242.436,74.521c1.93,0.13,1.17,1.25-0.11,1.29S242.436,74.521,242.436,74.521z"/>
</g>
<g>
	<path fill="none" stroke="#000000" stroke-width="3" stroke-linecap="round" stroke-linejoin="round" stroke-miterlimit="10" d="
		M262.188,132.414c2.117-2.705,9.345-17.089,11.168-24.584c1.822-7.496,3.035-11.358,3.234-12.042c0,0,1.453-4.657,2.77-9.31
		c1.314-4.654,3.472-6.109-1.473-8.608c0.743-9.095,4.057-37.248-2.195-43.993c-6.312-6.832-11.467-9.879-24.146-10.438
		c-9.898-0.438-20.385,0.398-26.025,4.315c-7.979,5.549-12.647,11.755-13.434,26.576c-0.41,10.504,0.452,17.552,0.452,17.552
		s-2.99-0.015-4.573,3.994c-1.594,4.007-0.186,5.684,1.607,14.152c1.805,8.467,4.962,7.885,7.111,8.075
		c-0.646,14.788,4.008,25.842,5.897,28.042c1.89,2.2,5.146,4.783,8.815,8.741c3.672,3.958,7.701,8.647,7.701,8.647
		s4.031,2.005,14.874,1.292C253.974,144.823,260.069,135.119,262.188,132.414z"/>
	<path fill="none" stroke="#000000" stroke-width="1.5" stroke-linecap="round" stroke-linejoin="round" stroke-miterlimit="10" d="
		M213.21,72.817c6.66,1.331,5.362,16.275,7.174,16.369c1.812,0.095,2.563-25.415,3.783-33.687c0,0,5.946-5.015,7.612-9.721
		c7.236,4.272,36.09,4.764,42.221,2.706c0,0,3.013,3.284,4.392,4.977"/>
	<path fill="none" stroke="#000000" stroke-width="1.5" stroke-linecap="round" stroke-linejoin="round" stroke-miterlimit="10" d="
		M277.28,74.164c-1.26,6.793,0.092,14.375-2.299,24.573"/>
	<path fill="none" stroke="#000000" stroke-width="1.5" stroke-linecap="round" stroke-linejoin="round" stroke-miterlimit="10" d="
		M216.676,90.592c0,0-4.656,0.918-2.728-9.042c0,0,2.188-5.232-2.319-3.475"/>
	<path fill="none" stroke="#000000" stroke-width="3" stroke-linecap="round" stroke-linejoin="round" stroke-miterlimit="10" d="
		M232.205,67.294c0,0,8.295-9.293,17.103-5.984"/>
	<path fill="none" stroke="#000000" stroke-width="1.5" stroke-linecap="round" stroke-linejoin="round" stroke-miterlimit="10" d="
		M233.781,73.226c0,0,3.912-1.541,9.482-1.058c0,0,3.57,0.166,4.554,2.276c0,0-0.17,3.016-7.212,2.154
		C233.562,75.736,233.781,73.226,233.781,73.226z"/>
	<path fill="none" stroke="#000000" stroke-width="3" stroke-linecap="round" stroke-linejoin="round" stroke-miterlimit="10" d="
		M242.438,74.522c1.928,0.124,1.166,1.254-0.111,1.294C241.048,75.856,242.438,74.522,242.438,74.522z"/>
	<path fill="none" stroke="#000000" stroke-width="3" stroke-linecap="round" stroke-linejoin="round" stroke-miterlimit="10" d="
		M264.05,63.928c3.45,2.24,10.123-0.765,14.283,7.857"/>
	<path fill="none" stroke="#000000" stroke-width="1.5" stroke-linecap="round" stroke-linejoin="round" stroke-miterlimit="10" d="
		M273.095,76.358c0,0-3.014-1.903-8.23-2.356c0,0-3.195-0.417-3.983,1.296c0,0-1.278,2.921,5.358,3.246
		C272.877,78.86,273.095,76.358,273.095,76.358z"/>
	<path fill="none" stroke="#000000" stroke-width="3" stroke-linecap="round" stroke-linejoin="round" stroke-miterlimit="10" d="
		M267.418,77.584c-1.276,0.011,0.091-1.047,0.091-1.047C269.435,76.676,268.692,77.573,267.418,77.584z"/>
	<path fill="none" stroke="#000000" stroke-width="1.5" stroke-linecap="round" stroke-linejoin="round" stroke-miterlimit="10" d="
		M255.959,69.58c0,0-0.576,11.615,0.226,14.635c0.812,3.021-0.309,10.212-0.309,10.212"/>
	<path fill="none" stroke="#000000" stroke-width="1.5" stroke-linecap="round" stroke-linejoin="round" stroke-miterlimit="10" d="
		M242.152,99.449c0,0-1.68,4.571,1.977,4.889c3.657,0.318,1.289,3.756,7.34,4.713c6.062,0.948,4.543-2.958,6.786-3.486
		c2.234-0.528,4.078-1.142,2.242-4.623"/>
	<path fill="none" stroke="#000000" stroke-width="1.5" stroke-linecap="round" stroke-linejoin="round" stroke-miterlimit="10" d="
		M236.98,108.606c0,0-0.408,2.677-2.057,4.355"/>
	<path fill="none" stroke="#000000" stroke-width="1.5" stroke-linecap="round" stroke-linejoin="round" stroke-miterlimit="10" d="
		M260.21,121.877c0,0,0.277-3.757-2.709-4.08c0,0-11.123,2.285-21.115-6.837"/>
	<path fill="none" stroke="#000000" stroke-width="3" stroke-linecap="round" stroke-linejoin="round" stroke-miterlimit="10" d="
		M212.916,97.771c0,0-0.014,11.596-1.047,25.478c-0.368,1.252-3.701-1.748-5.493,1.543l-0.958,1.209c0,0-6.167,9.75-5.917,12.75
		c0,0-42.25,17.25-48.25,31.5s-12.75,66.25-11.25,94c1.667,17.75,3.166,27.25,6,32.75s12.75,11.25,18.25,12.25l-0.5,5.5
		c0,0,12.5,3.5,15.5,3.5s4.25-3.417,4.25-3.417s15.923,1.756,29.422,1.585s28.146-1.705,30.078-1.668c5.5,0.25,13,3,17.75-3.75
		s9-12,9-12s20.75-20,24.25-21.25s78-12,80.5-11.75c0,0,3.167-0.667-25.333,24.083c0,0-11.457-0.209-18.124-0.542
		s-14.438,0.127-16.043,0.959c-1.75,1-2.25,3.583-1.25,5.083c0.643,1.157,16.49,2.334,16.49,2.334l11.51,1.333
		c0,0-25.875,1.5-30.625,3.75s-3.25,5.25-3.25,5.25s-1.375,1-1.375,2.75s1,3.5,1,3.5s7.875,1.25,8.875,1.5
		c5.125,3,11.625,5.875,11.625,5.875l8.375,0.75c0,0,4.5-0.125,6-1.375s2.062-3.312,2.062-3.312s2.625-1.5,3.375-3.25
		s0.688-3.188,0.688-4.562s2.5-1.5,3.375-4s-0.125-4,0.25-6s2.062-3.188,1.812-5.938c-0.25-2.75-2.375-5-2.375-5"/>
	<path fill="none" stroke="#000000" stroke-width="3" stroke-linecap="round" stroke-linejoin="round" d="M317.251,317.001
		c0,0-72.25,12-74.75,12.25s-2.25-3-2.25-3l11-10.5"/>
	<path fill="none" stroke="#000000" stroke-width="3" stroke-linecap="round" stroke-linejoin="round" d="M187.667,208.001
		c0,0-1.248,21.75-0.998,29s-1,18.666-2.668,31.5l-1.75,6.75c0,0,2.5-2.5,8.75,2.5l8,2l-0.166,3c0,0,0.167,4.916,34.833,11.75
		c0,0,2.583-2.5,6.083-5.25c0,0,3-5.25,5.5-12.75c0,0,0.25-2.75,11.5-6s9.5-4,20.75-3c0,0,7-0.25,7.75,2.25c0,0,2.75-0.25,3.75,1.5
		s0.5,2.75,0.5,2.75s3.75,0.75,3.5,4"/>
	<path fill="none" stroke="#000000" stroke-width="3" stroke-linecap="round" stroke-linejoin="round" d="M303.751,201.751
		c0,0-1.814,7.089-1.417,15.471c0.737,15.542,2.884,40.374,2.667,58.781"/>
	<path fill="none" stroke="#000000" stroke-width="3" stroke-linecap="round" stroke-linejoin="round" d="M350.501,268.751
		l-1.75-3.917c0,0-3.916-1.5-4,1.75l-3-6.583c0,0-3,0.084-4.25-2.917c-1.083-2.417-1.833-4.833-3.833-4.833s-4.167-0.5-6.167,2.75
		s-3.75,5.25-7.25,7.25c0,0-1.458,8.666-3.75,9.208s-3-1.958-3-1.958l-3,0.75l-1.5,4.5"/>
	<path fill="none" stroke="#000000" stroke-width="3" stroke-linecap="round" stroke-linejoin="round" d="M265.563,126.907
		c0.875,1.156,1.688,2.469,2.438,6.094l2.792,8.042c0,0,21.458,13.458,35.708,21.708s16.5,33.25,19.5,48.25
		s7.625,38.875,7.625,41.375"/>
	<path fill="none" stroke="#000000" stroke-width="3" stroke-linecap="round" stroke-linejoin="round" d="M273.251,267.001l-31-19
		c0,0-3.5,1-3.5,4l25.917,16"/>
	<path fill="none" stroke="#000000" stroke-width="1.5" stroke-linecap="round" stroke-linejoin="round" d="M259.376,299.626
		c0,0,2.75-1.375,4.25-2s10.375-2.625,10.375-2.625"/>
	<path fill="none" stroke="#000000" stroke-width="1.5" stroke-linecap="round" stroke-linejoin="round" d="M257.126,288.336
		c0,0,4.709,0,9.125-1.667s18.25-5.043,18.25-5.043l3.25-0.125"/>
	<path fill="none" stroke="#000000" stroke-width="1.5" stroke-linecap="round" stroke-linejoin="round" d="M252.626,280.876
		c0,0,13.125-2.125,17.125-4l13.25-1.875c0,0,2-1.125,1.75-4.125"/>
	
		<line fill="none" stroke="#000000" stroke-width="1.5" stroke-linecap="round" stroke-linejoin="round" x1="283.001" y1="275.001" x2="288.501" y2="274.751"/>
	<path fill="none" stroke="#000000" stroke-width="1.5" stroke-linecap="round" stroke-linejoin="round" d="M234.835,304.167
		c0,0-1.333-5.833-0.5-9.5"/>
	<path fill="none" stroke="#000000" stroke-width="1.5" stroke-linecap="round" stroke-linejoin="round" d="M183.502,314.834
		c0,0-4.501-4.001,2.333-20.167c0,0,5.084-11.499,12.584-11.166"/>
	<path fill="none" stroke="#000000" stroke-width="1.5" stroke-linecap="round" stroke-linejoin="round" d="M164.835,309.834
		c0,0,0.834-10.666,2.667-17.333s7.499-11.166,14.833-16.5"/>
	<path fill="none" stroke="#000000" stroke-width="1.5" stroke-linecap="round" stroke-linejoin="round" d="M165.669,303.667
		c0,0,1,3.333,3.833,3.5s7.833,0.5,7.833,0.5s1.168,2.833,4.334,3"/>
	<path fill="none" stroke="#000000" stroke-width="1.5" stroke-linecap="round" stroke-linejoin="round" d="M308.313,308.313
		l1.562,1.688c0,0,18,0,31-0.625"/>
	<path fill="none" stroke="#000000" stroke-width="1.5" stroke-linecap="round" stroke-linejoin="round" d="M308.876,314.376
		c0,0,16.25,1.625,29,2.5"/>
	<path fill="none" stroke="#000000" stroke-width="1.5" stroke-linecap="round" stroke-linejoin="round" d="M212.502,124.001
		c0.666,3.333,14.749,23.875,20.624,25.125s9,7.625,9,7.625s5.708,7.042,7.125,12.252s4.415,17.333,4.415,17.333
		s3.668,20.334,3.668,41.667c0,10.451,0.16,21.442,0.323,28.915"/>
	<path fill="none" stroke="#000000" stroke-width="1.5" stroke-linecap="round" stroke-linejoin="round" d="M257.837,264.251
		c0.094,3.47,0.164,5.5,0.164,5.5"/>
	<path fill="none" stroke="#000000" stroke-width="1.5" stroke-linecap="round" stroke-linejoin="round" d="M262.251,131.335
		c0,0,0.709,3.666-0.416,7.916s-6.334,10.375-6.334,10.375s1.375,4.375,4.375,11.125c0,0,3.458,9.25-6.21,25.585"/>
	<path fill="none" stroke="#000000" stroke-width="1.5" stroke-linecap="round" stroke-linejoin="round" d="M256.665,150.003
		c0,0,9.332-7.667,9.666-2s3,13.667,3,13.667s0.673-11.172,0.67-21.419"/>
	<path fill="none" stroke="#000000" stroke-width="1.5" stroke-linecap="round" stroke-linejoin="round" d="M242.126,156.751
		c0,0-11.128-7.414-11.128-0.414s-3.333,13.667-3.333,13.667s-9.334-8-16.334-16.333s-11.83-14.92-11.83-14.92"/>
	<path fill="none" stroke="#000000" stroke-width="3" stroke-linecap="round" stroke-linejoin="round" d="M178.338,318.751
		c0,0,0.826,16.237-3.587,20.244s3.621,11.688,5,15.506c8.25,3.75,41.75,13,69,13.75s55.25-6.5,55.25-6.5s6.334-5.751,3.667-14.084
		s-2.334-20.666-2.001-28.166"/>
	<path fill="none" stroke="#000000" stroke-width="1.5" stroke-linecap="round" stroke-linejoin="round" d="M260.334,328.003
		c0,0,3.333,32.999-3,38.666"/>
	<path fill="none" stroke="#000000" stroke-width="3" stroke-linecap="round" stroke-linejoin="round" d="M180.501,356.501
		c0,0-5,22.5-5,46.5s8,100.75,7.5,122.75s2.334,67.25,1.334,102.25s-4.667,105-4.667,105s29.833,10.5,46.833,1l4-64
		c0,0,0-64.5,6-126.5s11.168-109.166,16.168-116.166"/>
	<path fill="none" stroke="#000000" stroke-width="3" stroke-linecap="round" stroke-linejoin="round" d="M303.001,363.501
		l-27,193.25c0,0-22,104.25-21,124.25c0,13.5,0,33.5,0,33.5s-12.838,5.349-27.369,6.108"/>
	<path fill="none" stroke="#000000" stroke-width="3" stroke-linecap="round" stroke-linejoin="round" d="M180.001,370.001
		c0,0,40.671,14.001,74.005,12.001s47.331-6.997,47.331-6.997"/>
	<path fill="none" stroke="#000000" stroke-width="1.5" stroke-linecap="round" stroke-linejoin="round" d="M244.006,369.335
		c0,0-4.666,5.999-0.666,13.333"/>
	<path fill="none" stroke="#000000" stroke-width="1.5" stroke-linecap="round" stroke-linejoin="round" d="M263.34,368.668
		c0,0,4.666,5.334-1.334,13.334"/>
	<path fill="none" stroke="#000000" stroke-width="3" stroke-linecap="round" stroke-linejoin="round" d="M188.001,735.376
		l-7,24.125c0,0-1.5,19,18,19s24-1.5,24-6.5s-1-8.5-1-14s-2-21.125-2-21.125"/>
	<path fill="none" stroke="#000000" stroke-width="1.5" stroke-linecap="round" stroke-linejoin="round" d="M183.251,769.626
		c0,0,6.375,5.375,14.875,5.25s16.875,0.044,19-1s3.792-2.25,4.792-3.75"/>
	<path fill="none" stroke="#000000" stroke-width="1.5" stroke-linecap="round" stroke-linejoin="round" d="M207.376,739.501
		c0,0-0.75,9.75-0.125,16.375s1.375,11.125,1.375,11.125v7.25"/>
	<path fill="none" stroke="#000000" stroke-width="3" stroke-linecap="round" stroke-linejoin="round" d="M220.497,739.376
		c1.915-0.066,3.791-0.185,5.504-0.375c9-1,12,12.5,33,13s36-4.5,36-4.5s4-8.5-4-11.5s-20.875-5.875-28.75-10s-11.125-10-11.125-10"
		/>
	<path fill="none" stroke="#000000" stroke-width="1.5" stroke-linecap="round" stroke-linejoin="round" d="M221.999,735.84
		c3.53-0.179,7.535-0.247,10.752,1.411c10.75,3.916,11.625,11.125,28.875,11s30.29-2.375,33.79-4.25"/>
</g>
</svg>
