<?xml version="1.0" encoding="iso-8859-1"?>
<!-- Generator: Adobe Illustrator 19.0.0, SVG Export Plug-In . SVG Version: 6.00 Build 0)  -->
<svg version="1.1" id="Layer_1" xmlns="http://www.w3.org/2000/svg" xmlns:xlink="http://www.w3.org/1999/xlink" x="0px" y="0px"
	 viewBox="0 0 512 512" style="enable-background:new 0 0 512 512;" xml:space="preserve">
<g>
	<g>
		<path d="M256,0C114.842,0,0,114.84,0,256s114.842,256,256,256s256-114.84,256-256S397.158,0,256,0z M458.897,174.829h-182.65
			L376.978,74.098C413.516,98.478,442.326,133.558,458.897,174.829z M212.293,41.858c14.128-2.88,28.744-4.394,43.707-4.394
			c30.782,0,60.094,6.411,86.685,17.947L212.293,185.802V41.858z M174.829,53.103v182.65L74.098,135.022
			C98.478,98.484,133.558,69.674,174.829,53.103z M43.707,307.901c-4.07-16.644-6.244-34.022-6.244-51.901
			c0-30.784,6.411-60.094,17.946-86.684l130.393,130.391H43.707V307.901z M53.103,337.171h182.65L135.022,437.902
			C98.484,413.522,69.674,378.442,53.103,337.171z M299.707,470.143c-14.128,2.878-28.744,4.394-43.707,4.394
			c-30.782-0.001-60.094-6.412-86.685-17.949l130.393-130.391V470.143z M299.707,273.217l-26.49,26.49h-34.434l-26.49-26.49v-34.433
			l26.49-26.49h34.434l26.49,26.489V273.217z M337.171,458.897v-182.65l100.732,100.732
			C413.522,413.516,378.442,442.326,337.171,458.897z M326.329,212.293h143.813c2.88,14.128,4.394,28.743,4.394,43.707
			c0,30.784-6.411,60.094-17.946,86.684L326.329,212.293z"/>
	</g>
</g>
<g>
</g>
<g>
</g>
<g>
</g>
<g>
</g>
<g>
</g>
<g>
</g>
<g>
</g>
<g>
</g>
<g>
</g>
<g>
</g>
<g>
</g>
<g>
</g>
<g>
</g>
<g>
</g>
<g>
</g>
</svg>
