<?xml version="1.0" encoding="utf-8"?>
<!-- Generator: Adobe Illustrator 16.0.0, SVG Export Plug-In . SVG Version: 6.00 Build 0)  -->
<!DOCTYPE svg PUBLIC "-//W3C//DTD SVG 1.1//EN" "http://www.w3.org/Graphics/SVG/1.1/DTD/svg11.dtd">
<svg version="1.1" id="Layer_1" xmlns="http://www.w3.org/2000/svg" xmlns:xlink="http://www.w3.org/1999/xlink" x="0px" y="0px"
	 width="326.207px" height="560px" viewBox="0 0 326.207 560" enable-background="new 0 0 326.207 560" xml:space="preserve">
<g id="XMLID_6_">
	<path fill="#F7D5C4" d="M255.373,471.935c0,0,0.01,0.761-0.209,1.801c-0.391,1.79-1.5,4.409-4.601,5.37
		c-2.37-1.521-7.271-3.311-7.271-3.311l-0.029-0.07l-0.98-2.84l0.03-0.2c4.66,0.73,9.29-0.149,12.89-1.29L255.373,471.935z"/>
	<path fill="#A4BA24" d="M243.292,475.795c0,0,4.9,1.79,7.271,3.311c3.101-0.961,4.21-3.58,4.601-5.37l1.68,0.069
		c0,0,2.27,0.801,3.859,5.561c1.59,4.761,0.371,14.439,0.371,14.439s-5.721,5.07-15.771,3.75c-7.469-0.989-15.059,1.101-22.6,2.34
		l-0.199-1.188c0,0,2.109-3.971-1.271-10.051c-1.47-2.659-4.19-4.3-6.78-5.311l0.11-0.271c0,0,17.069-2.79,28.229-7.189l0.471-0.16
		L243.292,475.795z"/>
	<path fill="#F7D5C4" d="M235.632,470.345l-0.279,0.479c-4.4,2.189-9.21-0.09-9.21-0.09l-0.011-0.12l-0.159-3.771l0.25-0.46
		c2.12,1.12,4.7,2.181,6.739,2.09C233.824,469.205,234.723,469.824,235.632,470.345z"/>
	<path fill="#A4BA24" d="M226.143,470.734c0,0,4.81,2.279,9.21,0.09l0.279-0.479c1.291,0.771,2.631,1.33,3.98,1.729l-0.1,0.33
		c0,0-7.2,2.979-15.4,5.431c-5.46,1.63-10.27,2.1-14.68,3.12l-0.109-0.5c-1.16-1.971-3.201-3.24-5.311-4.051l0.07-0.181
		c0,0,15.89-2.529,21.129-5.569l0.92-0.04L226.143,470.734z"/>
	<path fill="#A4BA24" d="M226.143,255.915l-0.12,0.02c-6,7.83-21.5,6.16-21.5,6.16l-0.699,0.28c-0.351-0.89-0.711-1.79-1.051-2.68
		c-1.57-4.03-3.04-8-4.21-11.54c-5.149-15.54-7.04-34.81,4.37-36.54c11.41-1.74,16.439,15.02,18.641,22.81
		c1.039,3.67,2.059,8.26,3.439,15.47C225.363,251.725,225.744,253.725,226.143,255.915z"/>
	<path fill="#3F3E6B" d="M197.873,364.335c0,0,0.83,1.18,2.711,1.199c1.89,0.021,3.689-2.649,3.689-2.649l5.18-11.25
		c0,0,0.18,2.67-0.25,7.91c-0.43,5.239,3.771,3.069,3.771,3.069s3.09-10.101,4.13-19.859c-0.46-9.12,13.92-25.021,14.46-56.181
		c-2.319-13.29-4.04-23.129-5.42-30.66c-0.399-2.19-0.78-4.19-1.13-6.02l0.26-0.05c0,0,5.9-12.51,2.12-21.01
		c0,0-12.44-26.66-28.17-19.86c-14.8,6.4-7.31,36.29-6.37,39.82c0.061,0.22,0.09,0.34,0.09,0.34s2.83,11.33,2.59,11.09
		c-0.939,3.54-4.479,2.13-5.43-0.23c-0.34-0.85-1.9-5.41-3.26-11.58c-1.641-7.41-2.99-17.14-1.561-25.49
		c0.7-4.06,2.051-7.8,4.35-10.78c2.141-2.44,4.431-4.67,6.701-5.83c4.479-2.28,8.91-2.66,12.06-2.52c3.37,0.86,6.181,1.94,8.76,3.62
		l-0.01,0.02c3.56,2.05,9.94,9.19,23.97,31.75c5.36,8.63,11.5,19.87,18.811,34.15c21.02,41.06,25.369,57.76-14.9,113.121
		l17.03,82.02c0,0-2.771,1.631-6.851,2.92c-3.6,1.141-8.229,2.021-12.89,1.29c-0.899-0.13-1.8-0.329-2.7-0.609
		c-1.35-0.399-2.689-0.96-3.98-1.729c-0.909-0.521-1.809-1.14-2.67-1.87c0,0-42.85-73.689-41.01-88.05
		c1.051-8.229,3.42-15.76,3.78-16.88C196.583,364.635,197.873,364.335,197.873,364.335z"/>
	<path fill="#A4BA24" d="M214.563,483.074l-0.11,0.271c-3.35-1.3-6.49-1.54-6.49-1.54l-0.119-0.449c0.52-0.141,1.05-0.28,1.59-0.399
		c4.41-1.021,9.22-1.49,14.68-3.12c8.2-2.45,15.4-5.431,15.4-5.431l0.1-0.33c0.9,0.28,1.801,0.479,2.7,0.609l-0.03,0.2l0.98,2.84
		l-0.471,0.16C231.632,480.284,214.563,483.074,214.563,483.074z"/>
	<path fill="#A4BA24" d="M204.013,476.404c-2.23-0.859-4.54-1.189-5.93-1.279l-0.131-0.471c2.051-0.54,4.45-1,7.141-1.471
		c9-1.56,20.42-6.64,20.42-6.64l0.24-0.42c0.149,0.09,0.31,0.18,0.47,0.26l-0.25,0.46l0.159,3.771l-0.92,0.04
		c-5.239,3.04-21.129,5.569-21.129,5.569L204.013,476.404z"/>
	<path fill="#A4BA24" d="M198.563,248.155c1.17,3.54,2.64,7.51,4.21,11.54l-0.16,0.06c0,0-6.43-4.89-9.73-10.97l-0.029,0.01
		c-0.939-3.53-8.43-33.42,6.37-39.82c15.729-6.8,28.17,19.86,28.17,19.86c3.78,8.5-2.12,21.01-2.12,21.01l-0.26,0.05
		c-1.381-7.21-2.4-11.8-3.439-15.47c-2.201-7.79-7.23-24.55-18.641-22.81C191.523,213.345,193.414,232.615,198.563,248.155z"/>
	<path fill="#F7D5C4" d="M195.733,363.545c-0.069-0.08-0.12-0.16-0.18-0.25c-0.841-1.38-0.86-2.74-0.86-2.74s-1.02-0.199-1.65-1.33
		c-0.31-0.56-0.529-1.329-0.5-2.409c0.09-2.851,2.031-7.229,2.031-7.229s-1.601-0.521-1.83-1.71c-0.131-0.65,0.959-2.15,1.709-3.851
		c1.121-2.551,4.92-7.029,6.19-8.311c2.13-2.12,4.94-4.03,6.39-10.25c0.42-2.439,0.801-4.641,1.131-6.62
		c3.42-20.279,2.5-18.771,6.43-31.18c-0.04-0.04-5.69-12.521-10.77-25.291l0.699-0.28c0,0,15.5,1.67,21.5-6.16l0.12-0.02
		c1.38,7.53,3.101,17.37,5.42,30.66c-0.54,31.16-14.92,47.061-14.46,56.181c-1.04,9.76-4.13,19.859-4.13,19.859
		s-4.2,2.17-3.771-3.069c0.43-5.24,0.25-7.91,0.25-7.91l-5.18,11.25c0,0-1.8,2.67-3.689,2.649c-1.881-0.021-2.711-1.199-2.711-1.199
		S196.583,364.635,195.733,363.545z"/>
	<path fill="#3F3E6B" d="M187.623,384.765c-1-5.3,1.521-17.05,4.9-25.17l0.52-0.37c0.631,1.131,1.65,1.33,1.65,1.33
		s0.02,1.36,0.86,2.74c0.06,0.09,0.11,0.17,0.18,0.25c-0.36,1.12-2.729,8.649-3.78,16.88c-1.84,14.359,41.01,88.05,41.01,88.05
		c-2.039,0.091-4.619-0.97-6.739-2.09c-0.16-0.08-0.32-0.17-0.47-0.26c-2.061-1.12-3.59-2.24-3.59-2.24s-11.611-24.42-18.561-39.87
		C196.653,408.565,188.623,390.064,187.623,384.765z"/>
	<path fill="#3F3E6B" d="M185.363,262.695c-1.64-5.2-2.77-9.7-3.21-13.28l0.46-0.04l4.18-0.95l0.051-0.01
		c1.359,6.17,2.92,10.73,3.26,11.58c0.95,2.36,4.49,3.77,5.43,0.23c0.24,0.24-2.59-11.09-2.59-11.09s-0.029-0.12-0.09-0.34
		l0.029-0.01c3.301,6.08,9.73,10.97,9.73,10.97l0.16-0.06c0.34,0.89,0.7,1.79,1.051,2.68c5.079,12.77,10.729,25.25,10.77,25.291
		c-3.93,12.409-3.01,10.899-6.43,31.18c-6.711-15.17-13.25-30.14-18.121-42.88C188.223,271.195,186.643,266.735,185.363,262.695z"/>
	<path fill="#A4BA24" d="M182.613,249.375l-0.46,0.04c-0.021-0.22-0.05-0.44-0.069-0.65c-0.58-5.63-0.86-10.39-0.99-14.04v-0.01
		c-0.19-5.18-0.07-8.12-0.07-8.12h0.07c0.02,0.3,0.02,0.61,0.01,0.92l0.92,0.08c0,0,1.62-0.64,3.26-4.67
		c-1.43,8.35-0.08,18.08,1.561,25.49l-0.051,0.01L182.613,249.375z"/>
	<path fill="#A4BA24" d="M176.173,260.334l4.92-25.61c0.13,3.65,0.41,8.41,0.99,14.04c0.02,0.21,0.049,0.43,0.069,0.65
		c0.44,3.58,1.57,8.08,3.21,13.28c-3.88-3.67-8.68-2.26-8.68-2.26L176.173,260.334z"/>
	<path fill="#F7D5C4" d="M165.393,181.905l-0.479,0.11c-3.741,4.83-7.021-0.8-7.021-0.8s-1.26-2.78-4.97-8.33
		c-3.71-5.54-4.92-3.04-7.19-7.16l-0.6,0.1c-1.2-5.8,7.81-8.1,12.91-0.27C165.324,175.615,164.193,176.515,165.393,181.905z"/>
	<path fill="#F7D5C4" d="M185.283,222.925c-1.64,4.03-3.26,4.67-3.26,4.67l-0.92-0.08c0.01-0.31,0.01-0.62-0.01-0.92
		c-0.16-9.07-5.29-13.67-11.74-8.8c-2.689,4.3-6.36,8.88-14.01,15.49c-7.65,6.6-12.12,1.05-15.79-0.76
		c-6.9-2.78-7.26,0.29-10.4-1.18c-3.15-1.47-3.16-3.58-3.16-3.58c-4.17-0.85-6.93-5.02-6.93-5.02c-6.85,3.78-11.3-1.42-8.9-6.35
		c0.85-5.21-1.37-10.29-9.84-15.61c-2.64-1.66-5.04-3.45-7.08-5.13c-4.49-3.69-7.27-6.83-7.27-6.83l-0.39-0.18
		c0,0-0.24-4.2-1.25-7.56c-0.98-3.25-2.68-8.05-2.78-8.35c4.94,1.98,10.12-0.03,16.17-4.11c6.04-4.08,11.85-12.85,11.85-12.85
		s3.23,5.16,21.93,2.79c0,0,6.03,17.69,19.73,19.86c0,0-3.01-4.82-5.75-11.44c-0.16-0.4-0.28-0.79-0.35-1.16l0.6-0.1
		c2.27,4.12,3.48,1.62,7.19,7.16c3.71,5.55,4.97,8.33,4.97,8.33s3.28,5.63,7.021,0.8l0.479-0.11c0.021,0.1,0.05,0.2,0.069,0.31
		c5.99-0.85,10.591,5.86,13.931,14.11c5.569,2.12,12.79-8.73,12.79-8.73l0.4,0.12c-0.28,0.93-0.551,1.81-0.801,2.62
		c-1.76,5.76,3.09,10.35,6.35,11.32c3.98,0.75,7.33,1.37,10.261,2.14c-3.149-0.14-7.58,0.24-12.06,2.52
		c-2.271,1.16-4.561,3.39-6.701,5.83C187.333,215.125,185.983,218.865,185.283,222.925z M126.093,188.735
		c-1.2-0.02-3.95-0.06-6.52,0.79c-2.57,0.85-6.29,2.5-5.94,4.4c0.36,1.91,3.66,6.19,3.66,6.19
		C121.863,198.435,126.093,188.735,126.093,188.735z"/>
	<path d="M116.283,194.985c0.78-0.87,3.58,1.44,3.16,2.63C119.013,198.805,116.283,194.985,116.283,194.985z"/>
	<path fill="#F7D5C4" d="M117.143,293.625c0,0,2.37-0.15,2.91,0.239c1.65,1.17,1.3,2.94,1.3,2.94l-0.18,0.569
		c0,0-0.82,2.569-1.5,4.37c-0.27,0.699-0.51,1.289-0.68,1.55c-0.59,0.95-4.17,2.01-6.06,1.42s-2.24-2.24-2.24-2.24
		s-0.02,0-0.09-0.01l0.05-0.7c0,0,5.03-4.17,6.13-7.08L117.143,293.625z"/>
	<path fill="#F7C63C" d="M109.573,155.774c0,0-5.81,8.77-11.85,12.85c-6.05,4.08-11.23,6.09-16.17,4.11c0.1,0.3,1.8,5.1,2.78,8.35
		c1.01,3.36,1.25,7.56,1.25,7.56l0.39,0.18c0,0,2.78,3.14,7.27,6.83l-0.14,0.6c0,0-9.23,1.59-17.16-3.42
		c-7.92-5.01-7.16-15.43-7.16-15.43s-12.32-4.81-12.98-16.98c-0.65-12.16,13.24-18.62,13.24-18.62s-6.37-10.95,2.67-22.28
		c9.05-11.33,24.07-7.87,24.07-7.87s-4.01-22.5,16.98-26.22c20.98-3.71,25.71,7.59,25.71,7.59s4.87-11.6,23.85-5.56
		c18.98,6.04,14.25,23.83,14.5,23.59c6.569,0.06,14.539,7.28,17.649,14.44c3.101,7.16,3.47,14.64-1.841,22.1
		c0,0,11.16,13.22,6.441,22.16c-2.451,4.64-4.771,12.25-6.49,17.96l-0.4-0.12c0,0-7.221,10.85-12.79,8.73
		c-3.34-8.25-7.94-14.96-13.931-14.11c-0.02-0.11-0.049-0.21-0.069-0.31c-1.2-5.39-0.069-6.29-7.35-16.35
		c-5.1-7.83-14.11-5.53-12.91,0.27c0.07,0.37,0.19,0.76,0.35,1.16c2.74,6.62,5.75,11.44,5.75,11.44
		c-13.7-2.17-19.73-19.86-19.73-19.86C112.803,160.935,109.573,155.774,109.573,155.774z"/>
	<path fill="#F7D5C4" d="M110.653,301.765l-0.05,0.7c-0.19-0.01-0.75-0.05-2.15-0.229c-1.89-0.239-3.54-2.83-3.54-2.83
		s-4.02,0.471-5.43-1.181c-1.42-1.649-1.18-4.01-1.18-4.01s-0.13-0.15-0.33-0.391l1.35-0.159l3.7-1.261l5.66-4.961l0.63-0.469
		c0,0,1.02,0,2.68,0.939c1.65,0.949,1.73,2.359,1.73,2.359s1.08,0.141,2.14,0.891c1.06,0.739,1.28,2.46,1.28,2.46l-0.36,1.06
		C115.683,297.595,110.653,301.765,110.653,301.765z"/>
	<path fill="#F7D5C4" d="M107.933,284.023c1.42,1.182,1.38,2.951,1.38,2.951l-0.63,0.469l-5.66,4.961l-3.7,1.261l-1.35,0.159
		c-0.6-0.729-1.8-2.319-1.8-3.391c0-1.42,3.31-4.479,3.31-4.479l0.77-0.352l3.55-1.619c0,0,1.72-0.721,3.14-0.42
		C107.303,283.645,107.643,283.784,107.933,284.023z"/>
	<path fill="#F7D5C4" d="M113.543,279.385c0.11-0.27,0.18-0.57,0.18-0.9C113.723,278.485,113.583,278.845,113.543,279.385z
		 M112.303,281.545c0,0-2.67,1.42-4.72,1.42c-0.16,0-0.33-0.021-0.5-0.05c-1.74-0.341-3.72-2.41-1.46-5.42
		c0.3-0.41,0.7-0.84,1.18-1.29c3.62-3.15,6.84-4.17,10.14-2.76c3.3,1.41,5.9,7.321,8.19,8.491c2.27,1.18,16.04-2.75,26.27-4.241
		c10.22-1.5,21.71-1.42,21.71-1.42l3.061-15.94l0.51,0.1c0,0,4.8-1.41,8.68,2.26c1.28,4.04,2.86,8.5,4.68,13.27l-1,0.3
		c0,0-5.31,15.11-12.859,17.24c-7.551,2.12-47.61,2.3-47.61,2.3s-1.13,1.71-3.37,3.721c-2.24,2-4.87,2.359-4.87,2.359l-0.66-0.14
		c0.68-1.801,1.5-4.37,1.5-4.37l0.18-0.57c4.01-1.88,3.38-8.021,3.38-8.021C120.953,286.665,112.303,281.545,112.303,281.545z"/>
	<path fill="#492F1D" d="M107.583,282.965c2.05,0,4.72-1.42,4.72-1.42s8.65,5.12,12.43,7.239c0,0,0.63,6.141-3.38,8.021
		c0,0,0.35-1.771-1.3-2.939c-0.54-0.391-2.91-0.239-2.91-0.239s-0.22-1.722-1.28-2.46c-1.06-0.75-2.14-0.891-2.14-0.891
		s-0.08-1.41-1.73-2.359c-1.66-0.939-2.68-0.939-2.68-0.939s0.04-1.771-1.38-2.951c-0.29-0.239-0.63-0.379-0.99-0.459l0.14-0.649
		C107.253,282.943,107.423,282.965,107.583,282.965z"/>
	<path fill="#D8EFEF" d="M46.753,245.575c5.78-3.26,38.24,11.73,41.96,24.92l0.19,0.31c-3.18,1.93-9.29,3.72-24.94-5.71
		c-16.26-9.8-17.73-16.64-17.75-19.51L46.753,245.575z"/>
	<path fill="#492F1D" d="M67.643,248.685c-17.01-7.82-19.31-4.95-21.43-3.3c0,0.06,0,0.13,0,0.2c0.02,2.87,1.49,9.71,17.75,19.51
		c15.65,9.43,21.76,7.64,24.94,5.71c0.21-0.13,0.4-0.25,0.58-0.37C90.583,268.345,87.003,257.805,67.643,248.685z M42.723,244.745
		c4.63-8.74,21.85-2.14,31.15,3.55c12.57,7.45,19.74,15.03,18.93,22.97c0,0,1.15,1.8,4.34,1.21l8.48,5.02
		c-2.26,3.01-0.28,5.08,1.46,5.42l-0.14,0.649c-1.42-0.301-3.14,0.42-3.14,0.42l-3.55,1.619l-0.38-0.83l-7.3-5.06
		c0,0,0.42-3.23-0.92-3.65c-0.77-0.24-1.93,0.19-4.11,1.61s-3.32,3.439-8.34,2.939c-11.78-1.159-31.04-13.109-37.5-25.189
		C39.533,251.354,40.513,249.305,42.723,244.745z"/>
	<path fill="#4B605F" d="M88.713,270.495c-3.72-13.19-36.18-28.18-41.96-24.92l-0.54,0.01c0-0.07,0-0.14,0-0.2
		c2.12-1.65,4.42-4.52,21.43,3.3c19.36,9.12,22.94,19.66,21.84,21.75c-0.18,0.12-0.37,0.24-0.58,0.37L88.713,270.495z"/>
	<path d="M116.293,194.99c0.77-0.88,3.57,1.44,3.15,2.62C119.013,198.8,116.293,194.99,116.293,194.99z"/>
	<path fill="#FFFFFF" d="M119.443,197.61c0.42-1.18-2.38-3.5-3.15-2.62C116.293,194.99,119.013,198.8,119.443,197.61z
		 M126.093,188.73c0,0-4.23,9.7-8.8,11.39c0,0-3.3-4.29-3.66-6.19c-0.35-1.91,3.37-3.56,5.94-4.4
		C122.143,188.68,124.893,188.71,126.093,188.73z"/>
	<path fill="#FFFFFF" d="M197.403,490.6c-5.83-0.26-7.52-5.58-7.52-5.58s-0.511-1.18,0.1-4.119c0.29-3.271,3.17-4.98,7.98-6.24
		l0.12,0.47c1.39,0.09,3.689,0.42,5.92,1.28c2.119,0.8,4.17,2.08,5.319,4.05l0.12,0.5c-0.54,0.12-1.07,0.25-1.6,0.4
		c-1.641,0.449-3.23,1.01-4.79,1.79c-3.23,1.6-3.87,4.729-3.76,7.33L197.403,490.6z"/>
	<path fill="#FFFFFF" d="M222.503,498.71l0.199,1.2c-2.619,0.43-5.22,0.76-7.81,0.83c-10.05,0.26-14.78-6-14.78-6
		s-0.72-1.91-0.819-4.26c-0.11-2.601,0.529-5.73,3.76-7.33c1.56-0.78,3.149-1.341,4.79-1.79l0.12,0.449c0,0,3.14,0.24,6.489,1.54
		c2.591,1.011,5.311,2.65,6.78,5.301C224.613,494.74,222.503,498.71,222.503,498.71z"/>
</g>
<g id="line_1_">
	<path fill="none" stroke="#000000" stroke-width="3" stroke-linecap="round" stroke-linejoin="round" stroke-miterlimit="10" d="
		M181.104,227.517c0.166-9.667-5.083-14.752-11.75-9.725c-2.692,4.307-6.362,8.887-14.012,15.489
		c-7.65,6.602-12.124,1.053-15.789-0.757c-6.901-2.778-7.259,0.294-10.404-1.179c-3.144-1.471-3.16-3.585-3.16-3.585
		c-4.161-0.845-6.925-5.015-6.925-5.015c-6.847,3.782-11.303-1.419-8.902-6.355c0.848-5.208-1.366-10.286-9.84-15.602
		c-8.474-5.313-14.353-11.962-14.353-11.962"/>
	<path fill="none" stroke="#000000" stroke-width="3" stroke-linecap="round" stroke-linejoin="round" stroke-miterlimit="10" d="
		M93.105,196.257c0,0-9.229,1.588-17.158-3.422c-7.926-5.012-7.164-15.426-7.164-15.426s-12.322-4.816-12.976-16.981
		c-0.652-12.163,13.239-18.618,13.239-18.618s-6.377-10.957,2.671-22.287c9.048-11.328,24.065-7.87,24.065-7.87
		s-4.01-22.501,16.977-26.214c20.988-3.713,25.718,7.586,25.718,7.586s4.87-11.601,23.85-5.559
		c18.978,6.041,14.242,23.833,14.5,23.59c6.57,0.055,14.537,7.275,17.644,14.439c3.104,7.162,3.469,14.641-1.841,22.097
		c0,0,11.16,13.224,6.443,22.161c-2.85,5.401-5.521,14.812-7.287,20.579c-1.766,5.767,3.09,10.356,6.344,11.323
		c8.557,1.611,14.225,2.61,19.058,5.777"/>
	<path fill="none" stroke="#000000" stroke-width="3" stroke-linecap="round" stroke-linejoin="round" stroke-miterlimit="10" d="
		M192.183,187.593c0,0-7.217,10.852-12.789,8.734c-3.34-8.255-7.938-14.964-13.934-14.117c-1.322-5.665,0.006-6.41-7.415-16.656
		c-5.435-8.333-15.295-5.186-12.56,1.434c2.739,6.617,5.751,11.434,5.751,11.434c-13.701-2.168-19.739-19.855-19.739-19.855
		c-18.693,2.369-21.929-2.787-21.929-2.787s-5.803,8.764-11.85,12.844c-6.047,4.082-11.232,6.09-16.176,4.098
		c0,0,1.78,5.016,2.791,8.368c1.011,3.352,1.252,7.554,1.252,7.554"/>
	<path fill="none" stroke="#000000" stroke-width="1.5" stroke-linecap="round" stroke-linejoin="round" stroke-miterlimit="10" d="
		M108.9,155.655c0,0,4.639-12.579-1.105-19.166c-5.745-6.586-12.76-2.303-13.279,2.373c-0.519,4.676,2.441,6.808,6.494,5.375"/>
	<path fill="none" stroke="#000000" stroke-width="1.5" stroke-linecap="round" stroke-linejoin="round" stroke-miterlimit="10" d="
		M101.073,187.208c0,0-2.222-8.036,3.165-10.652c5.389-2.616,17.879-0.224,17.879-0.224"/>
	<path fill="none" stroke="#000000" stroke-width="1.5" stroke-linecap="round" stroke-linejoin="round" stroke-miterlimit="10" d="
		M117.292,200.118c0,0-3.3-4.288-3.655-6.191c-0.355-1.904,3.364-3.557,5.938-4.4c2.571-0.85,5.318-0.813,6.52-0.792
		C126.095,188.734,121.867,198.432,117.292,200.118z"/>
	<path fill="none" stroke="#000000" stroke-width="3" stroke-linecap="round" stroke-linejoin="round" stroke-miterlimit="10" d="
		M116.288,194.989c0.775-0.877,3.574,1.437,3.151,2.622C119.014,198.8,116.288,194.989,116.288,194.989z"/>
	<path fill="none" stroke="#000000" stroke-width="1.5" stroke-linecap="round" stroke-linejoin="round" stroke-miterlimit="10" d="
		M126.525,227.413c0,0,11.425-10.067,10.513-13.156"/>
	<path fill="none" stroke="#000000" stroke-width="1.5" stroke-linecap="round" stroke-linejoin="round" stroke-miterlimit="10" d="
		M123.129,213.988c3.958,4.916-0.486,5.744-0.486,5.744s-1.481-0.993-2.805-0.289c-0.077,0.104-0.706,2.486-0.706,2.486"/>
	<path fill="none" stroke="#000000" stroke-width="1.5" stroke-linecap="round" stroke-linejoin="round" stroke-miterlimit="10" d="
		M145.738,165.729c2.264,4.119,3.477,1.617,7.186,7.16c3.711,5.547,4.975,8.326,4.975,8.326s3.271,5.627,7.013,0.801"/>
	<path fill="none" stroke="#000000" stroke-width="1.5" stroke-linecap="round" stroke-linejoin="round" stroke-miterlimit="10" d="
		M168.682,218.498c0,0,3.407-8.259,2.142-13.073"/>
	<path fill="none" stroke="#000000" stroke-width="3" stroke-linecap="round" stroke-linejoin="round" stroke-miterlimit="10" d="
		M217.14,207.433c3.562,2.05,9.941,9.195,23.971,31.755c5.366,8.629,11.498,19.865,18.811,34.144
		c21.025,41.065,25.369,57.764-14.895,113.128l17.03,82.016c0,0-17.134,10.069-29.091,0c0,0-42.854-73.69-41.016-88.049
		c1.144-8.936,3.832-17.025,3.832-17.025"/>
	<path fill="none" stroke="#000000" stroke-width="3" stroke-linecap="round" stroke-linejoin="round" stroke-miterlimit="10" d="
		M214.593,287.662c-0.061-0.061-10.877-23.975-16.029-39.512s-7.045-34.806,4.367-36.54c11.41-1.734,16.438,15.024,18.645,22.812
		c2.209,7.787,4.334,19.742,9.988,52.156c-0.54,31.154-14.923,47.056-14.457,56.18c-1.049,9.755-4.129,19.859-4.129,19.859
		s-4.208,2.166-3.777-3.074c0.434-5.239,0.25-7.905,0.25-7.905l-5.174,11.247c0,0-1.802,2.666-3.689,2.646
		c-1.887-0.02-2.715-1.199-2.715-1.199s-1.48,0.342-2.319-1.036c-0.839-1.379-0.861-2.741-0.861-2.741s-2.248-0.444-2.147-3.74
		c0.088-2.851,2.025-7.231,2.025-7.231s-1.601-0.521-1.828-1.712c-0.125-0.648,0.961-2.146,1.711-3.843
		c1.127-2.553,4.92-7.036,6.195-8.312c2.124-2.125,4.938-4.031,6.391-10.25C211.798,298.133,210.287,301.292,214.593,287.662z"/>
	<path fill="none" stroke="#000000" stroke-width="1.5" stroke-linecap="round" stroke-linejoin="round" stroke-miterlimit="10" d="
		M198.981,341.559c0,0-2.041,3.872-3.763,8.2"/>
	<path fill="none" stroke="#000000" stroke-width="1.5" stroke-linecap="round" stroke-linejoin="round" stroke-miterlimit="10" d="
		M200.53,346.577c0,0-2.882,7.264-5.276,13.587"/>
	<path fill="none" stroke="#000000" stroke-width="1.5" stroke-linecap="round" stroke-linejoin="round" stroke-miterlimit="10" d="
		M204.126,349.012c0,0-2.023,4.706-5.9,14.278"/>
	<path fill="none" stroke="#000000" stroke-width="3" stroke-linecap="round" stroke-linejoin="round" stroke-miterlimit="10" d="
		M208.238,318.996c-12.691-28.654-24.759-56.611-26.154-70.229c-1.396-13.618-1.061-22.17-1.061-22.17"/>
	<path fill="none" stroke="#000000" stroke-linecap="round" stroke-linejoin="round" stroke-miterlimit="10" d="M204.52,262.098
		c0,0,15.5,1.668,21.5-6.166"/>
	<path fill="none" stroke="#000000" stroke-width="1.5" stroke-linecap="round" stroke-linejoin="round" stroke-miterlimit="10" d="
		M225.273,249.842c0,0,5.898-12.508,2.123-21.004c0,0-12.443-26.662-28.176-19.862c-15.731,6.801-6.281,40.158-6.281,40.158
		s2.832,11.329,2.596,11.093c-0.943,3.54-4.484,2.124-5.428-0.236c-0.943-2.359-11.424-33.646-0.473-47.845
		c2.141-2.442,4.426-4.676,6.695-5.832c8.373-4.262,16.551-1.902,16.551-1.902"/>
	
		<line fill="none" stroke="#000000" stroke-width="1.5" stroke-linecap="round" stroke-linejoin="round" stroke-miterlimit="10" x1="186.796" y1="248.426" x2="182.613" y2="249.37"/>
	<path fill="none" stroke="#000000" stroke-width="1.5" stroke-linecap="round" stroke-linejoin="round" stroke-miterlimit="10" d="
		M202.617,259.754c0,0-6.438-4.886-9.734-10.974"/>
	<path fill="none" stroke="#000000" stroke-linecap="round" stroke-linejoin="round" stroke-miterlimit="10" d="M182.02,227.598
		c0,0,1.668-0.666,3.334-4.833"/>
	<path fill="none" stroke="#000000" stroke-width="3" stroke-linecap="round" stroke-linejoin="round" stroke-miterlimit="10" d="
		M181.091,234.711l-7.978,41.564c0,0-11.488-0.081-21.713,1.416c-10.227,1.497-23.994,5.425-26.273,4.249
		c-2.281-1.179-4.883-7.081-8.184-8.495c-3.302-1.414-6.526-0.393-10.146,2.755c-4.327,4.011-1.263,6.763,0.786,6.765
		s4.72-1.416,4.72-1.416s8.651,5.111,12.428,7.234c0,0,0.63,6.137-3.384,8.023c0,0,0.355-1.769-1.297-2.947
		c-0.537-0.385-2.91-0.235-2.91-0.235s-0.222-1.719-1.28-2.462c-1.058-0.743-2.142-0.883-2.142-0.883s-0.08-1.418-1.73-2.36
		c-1.653-0.944-2.676-0.942-2.676-0.942s0.04-1.771-1.377-2.951c-1.416-1.18-4.131-0.039-4.131-0.039l-4.326,1.966
		c0,0-3.304,3.067-3.304,4.483s2.124,3.776,2.124,3.776s-0.236,2.36,1.18,4.012c1.416,1.652,5.429,1.182,5.429,1.182
		s1.652,2.595,3.54,2.832c1.888,0.235,2.242,0.236,2.242,0.236s0.354,1.65,2.241,2.24c1.888,0.591,5.468-0.472,6.059-1.416
		c0.59-0.943,2.184-5.919,2.184-5.919"/>
	<path fill="none" stroke="#000000" stroke-width="3" stroke-linecap="round" stroke-linejoin="round" stroke-miterlimit="10" d="
		M120.329,301.882c0,0,2.636-0.354,4.877-2.358c2.242-2.008,3.363-3.717,3.363-3.717s40.062-0.179,47.614-2.303
		c7.552-2.125,12.861-17.237,12.861-17.237"/>
	<path fill="none" stroke="#000000" stroke-linecap="round" stroke-linejoin="round" stroke-miterlimit="10" d="M176.687,260.432
		c0,0,5.667-1.666,9.667,3.334"/>
	
		<polyline fill="none" stroke="#000000" stroke-width="1.5" stroke-linecap="round" stroke-linejoin="round" stroke-miterlimit="10" points="
		99.323,293.662 103.021,292.402 108.685,287.448 	"/>
	<path fill="none" stroke="#000000" stroke-width="1.5" stroke-linecap="round" stroke-linejoin="round" stroke-miterlimit="10" d="
		M105.222,298.541c0,0,3.935-2.361,5.43-4.879c1.494-2.518,2.439-3.225,2.439-3.225"/>
	<path fill="none" stroke="#000000" stroke-width="1.5" stroke-linecap="round" stroke-linejoin="round" stroke-miterlimit="10" d="
		M110.652,301.766c0,0,5.033-4.17,6.136-7.08"/>
	<path fill="none" stroke="#000000" stroke-width="1.5" stroke-linecap="round" stroke-linejoin="round" stroke-miterlimit="10" d="
		M112.189,280.958c0,0,1.533-0.904,1.533-2.477c0,0-0.787,1.965,0.865,3.697"/>
	<path fill="none" stroke="#000000" stroke-width="3" stroke-linecap="round" stroke-linejoin="round" stroke-miterlimit="10" d="
		M99.875,284.771l-7.297-5.06c0,0,0.416-3.225-0.926-3.649c-0.768-0.242-1.926,0.187-4.109,1.606
		c-2.184,1.422-3.315,3.44-8.344,2.945c-11.773-1.163-31.039-13.112-37.493-25.194c-2.171-4.066-1.195-6.115,1.02-10.676
		c4.627-8.738,21.845-2.144,31.147,3.551c12.568,7.445,19.743,15.031,18.93,22.967c0,0,1.15,1.803,4.339,1.213l8.556,5.059"/>
	<path fill="none" stroke="#000000" stroke-width="1.5" stroke-linecap="round" stroke-linejoin="round" stroke-miterlimit="10" d="
		M89.485,270.435c-3.023,2.031-8.876,4.689-25.518-5.339c-16.642-10.028-17.799-16.954-17.757-19.708
		c2.127-1.652,4.421-4.523,21.431,3.295C87.007,257.804,90.587,268.347,89.485,270.435z"/>
	<path fill="none" stroke="#000000" stroke-width="1.5" stroke-linecap="round" stroke-linejoin="round" stroke-miterlimit="10" d="
		M46.757,245.579c5.776-3.264,38.239,11.727,41.959,24.916"/>
	<path fill="none" stroke="#000000" stroke-width="3" stroke-linecap="round" stroke-linejoin="round" stroke-miterlimit="10" d="
		M232.966,468.475c-4.242,0.191-10.801-4.587-10.801-4.587s-11.617-24.428-18.562-39.873c-6.945-15.444-14.98-33.95-15.98-39.25
		c-1-5.299,1.52-17.054,4.899-25.168"/>
	<path fill="none" stroke="#000000" stroke-width="3" stroke-linecap="round" stroke-linejoin="round" stroke-miterlimit="10" d="
		M256.841,473.806c0,0,2.275,0.795,3.863,5.557c1.588,4.761,0.369,14.445,0.369,14.445s-5.724,5.064-15.775,3.742
		c-10.051-1.324-20.35,2.924-30.4,3.188c-10.053,0.266-14.789-6.001-14.789-6.001s-3.188-8.545,2.945-11.591
		c6.132-3.047,12.859-2.86,21.057-5.312c8.198-2.452,15.402-5.431,15.402-5.431"/>
	<path fill="none" stroke="#000000" stroke-width="3" stroke-linecap="round" stroke-linejoin="round" stroke-miterlimit="10" d="
		M242.281,472.882l1.014,2.917c0,0,4.902,1.781,7.271,3.303c4.901-1.521,4.806-7.161,4.806-7.161"/>
	<path fill="none" stroke="#000000" stroke-width="1.5" stroke-linecap="round" stroke-linejoin="round" stroke-miterlimit="10" d="
		M207.966,481.807c0,0,9.891,0.762,13.27,6.847c3.381,6.085,1.27,10.056,1.27,10.056"/>
	<path fill="none" stroke="#000000" stroke-width="1.5" stroke-linecap="round" stroke-linejoin="round" stroke-miterlimit="10" d="
		M214.56,483.074c0,0,17.072-2.789,28.229-7.187"/>
	<path fill="none" stroke="#000000" stroke-width="3" stroke-linecap="round" stroke-linejoin="round" stroke-miterlimit="10" d="
		M225.968,466.848l0.171,3.889c0,0,4.817,2.281,9.212,0.085"/>
	<path fill="none" stroke="#000000" stroke-width="3" stroke-linecap="round" stroke-linejoin="round" stroke-miterlimit="10" d="
		M225.509,466.546c0,0-11.414,5.076-20.416,6.64c-9,1.564-14.705,3.043-15.105,7.713c-0.613,2.938-0.105,4.119-0.105,4.119
		s1.689,5.324,7.521,5.578"/>
	<path fill="none" stroke="#000000" stroke-width="1.5" stroke-linecap="round" stroke-linejoin="round" stroke-miterlimit="10" d="
		M198.08,475.129c2.705,0.17,8.875,1.27,11.24,5.326"/>
	<path fill="none" stroke="#000000" stroke-width="1.5" stroke-linecap="round" stroke-linejoin="round" stroke-miterlimit="10" d="
		M225.21,470.65c-5.24,3.044-21.133,5.576-21.133,5.576"/>
</g>
</svg>
