<?xml version="1.0" encoding="utf-8"?>
<!-- Generator: Adobe Illustrator 16.0.0, SVG Export Plug-In . SVG Version: 6.00 Build 0)  -->
<!DOCTYPE svg PUBLIC "-//W3C//DTD SVG 1.1//EN" "http://www.w3.org/Graphics/SVG/1.1/DTD/svg11.dtd">
<svg version="1.1" id="Layer_1" xmlns="http://www.w3.org/2000/svg" xmlns:xlink="http://www.w3.org/1999/xlink" x="0px" y="0px"
	 width="218.382px" height="502.559px" viewBox="0 0 218.382 502.559" enable-background="new 0 0 218.382 502.559"
	 xml:space="preserve">
<g id="XMLID_2_">
	<path fill="#A4BA24" d="M176.125,204.72l-0.16,0.15c-4.33,13.67-13,15.5-13,15.5l-0.09,0.13c-4.209-2.96-9.16-6.62-14.91-11.79
		l0.92,20.89l-0.579,0.03c-6-2.22-10.21-13.47-10.64-14.65l1.629-39.86c2.801,0.49,5.101,1.12,6.17,1.92
		C150.016,179.23,164.246,192.18,176.125,204.72z"/>
	<path fill="#F7D5C4" d="M158.556,125.35c1.119-4.05,1.91-8.67,2.4-14l-0.031-0.02c0.58-0.73,2.841-3.6,5.131-7.07h0.01l0.38,0.26
		c0,0,6.511,0.59,6.011,10.58c-0.5,9.95-3.32,14.05-17.23,19.03C156.556,131.52,157.655,128.62,158.556,125.35z"/>
	<path fill="#F7D5C4" d="M137.505,272.311c0,0-1.48-0.16-2.121-1.351c-0.629-1.19,0.121-3.12,0.121-3.12l8.029-4.05l3.311-0.601
		l-3.65-1c0,0-4.439,0.44-6.17-0.25c-1.73-0.689-0.93-3.779-0.93-3.779l3.439-0.5l5.631-0.46c0,0,2.26,0.71,4.84,1.46
		c1.479,0.42,3.07,0.859,4.399,1.189c3.65,0.9,6.66,1.051,6.66,1.051s10.34-23.15,14.78-30.34c-3.131-3.41-7.41-6.13-12.971-10.06
		l0.09-0.13c0,0,8.67-1.83,13-15.5l0.16-0.15c9.871,10.42,18.101,20.55,17.801,23.95c-0.66,7.5-14.711,29.34-18.87,35.12
		c-4.17,5.78-5.761,8.97-9.86,11.149c-4.1,2.19-10.01,1.9-10.01,1.9c-1.35,0.7-2.5,1.33-3.5,1.881
		c-5.189,2.85-6.189,3.561-8.29,1.409c-1.66-1.771,2.71-5.63,9.261-8.319c-8.771,1.379-12.931,5.239-14.591,3.539
		C136.405,273.65,137.505,272.311,137.505,272.311z"/>
	<path fill="#F7C63C" d="M80.965,69.38c0,0-8.57,17.57-20.07,15.57c0,0,0.88,16.89-4.96,28.71c0,0-0.27-0.24-0.72-0.68
		c-1.15-1.11-3.5-3.54-5.66-6.69c-3.22-4.72-6.04-11.08-3.84-17.16c0,0-8.5-7.25-5.75-19.75s19.25-13.75,19.25-13.75
		s-4.75-14.75,7.75-23s24,0.25,24,0.25s7.5-9.5,20.75-9.75c13.25-0.25,20,14.75,20,14.75s12.5-11,22.25-3.25s2,16.5,2,16.5
		s16.5-4.5,19.5,8.25s-6.25,17.5-6.25,17.5s4,10.75,2,17.5c-0.889,2.99-3.029,6.69-5.149,9.88h-0.01c-2.29,3.47-4.55,6.34-5.13,7.07
		c-0.1,0.12-0.15,0.18-0.15,0.18s-7.061-17.13-6.061-29.63c-5,0.25-23.75-6.75-21.75-24.5c0,0-6,20.5-24.5,21
		C89.965,78.88,80.965,69.38,80.965,69.38z"/>
	<path fill="#A4BA24" d="M142.367,445.81c4.319,2.381,9.619,13.472,10.859,15.45c0,0-8.38-3.38-14.63-3.51l-1.96-11.12v-0.31
		c3.02,0.028,5.52-0.631,5.52-0.631C142.226,445.72,142.294,445.76,142.367,445.81z"/>
	<path fill="#3F3E6B" d="M71.855,263.061c0,0,4.39-0.48,5.92-1.511c1.53-1.03,0.12-3.86,0.12-3.86l-3.44,0.23l-5.54,0.721
		c0,0-1.58,0.67-3.56,1.539l-0.06-0.13l0.99-30.03c1.87-1.14,11.69-7.44,11.69-13.48h0.18l0.15,7.34c0,0,7.67,7,11.67-0.34l-0.15-11
		h0.15l37,0.34h0.069l-0.069,11c0,0,0.659,3.75,5.659,3.75s4.671-3.75,4.671-3.75l0.36-8.9c0.43,1.18,4.64,12.43,10.64,14.65
		l0.579-0.03l1.25,28.61l-0.129,0.45c-2.58-0.75-4.84-1.46-4.84-1.46l-5.631,0.46l-3.439,0.5c0,0-0.801,3.09,0.93,3.779
		c1.73,0.69,6.17,0.25,6.17,0.25l3.65,1l-3.311,0.601l-8.029,4.05c0,0-0.75,1.93-0.121,3.12c0.641,1.19,2.121,1.351,2.121,1.351
		s-1.101,1.34,0.56,3.039c1.66,1.7,5.819-2.16,14.59-3.539c-6.55,2.689-10.92,6.549-9.26,8.319c2.101,2.15,3.101,1.44,8.29-1.409
		l0.449,0.819c0.701,13.42,2.171,39,2.171,39c5,84-7.671,116.67-7.671,116.67c-1.51,0.76-3.039,1.271-4.559,1.6
		c-3.791,0.812-7.451,0.46-10.211-0.108c-2.96-0.61-4.9-1.49-4.9-1.49s-5.659-31.67-9.659-57s-7.341-63-7.341-63
		c-2.659,33.33-18.33,121.67-18.33,121.67c-2.01,0.71-3.93,1.09-5.72,1.24c-4.28,0.37-7.85-0.59-10.3-1.61
		c-2.32-0.96-3.65-1.97-3.65-1.97s-9-41.33-9-71.33s1.42-82.42,1.42-82.42l0.28-0.82c7.18,2.44,8.72,2.771,10.44,0.24
		c1.24-2.05-3.96-4.52-10.86-5.76c8.78-0.49,14.06,2.29,15.31,0.3c1.25-1.989,0.29-3.06,0.29-3.06s1.02-0.461,1.39-1.74
		c0.37-1.29-0.76-3.01-0.76-3.01l-8.62-2.25l-3.33-0.48L71.855,263.061z"/>
	<path fill="#3F3E6B" d="M137.666,214.98l-0.359,8.9c0,0,0.33,3.75-4.67,3.75s-5.66-3.75-5.66-3.75l0.07-11l0.26-38.67l0.061-0.57
		c3.709,0.37,8.25,0.82,11.93,1.48L137.666,214.98z"/>
	<path d="M135.464,109.54c2.351,0.97,1.15,2.84-1.209,2.58C131.896,111.86,133.117,108.57,135.464,109.54z"/>
	<path fill="#F7D5C4" d="M130.964,445.38l0.75-8l0.15-0.68c2.76,0.568,6.42,0.92,10.211,0.108l0.139,0.57l0.25,8.25l-0.1,0.18
		c-0.07-0.05-0.14-0.09-0.21-0.119c0,0-2.5,0.659-5.521,0.631c-1.67-0.021-3.5-0.262-5.17-0.94H130.964L130.964,445.38z"/>
	<path fill="#A4BA24" d="M127.367,173.64l-0.061,0.57l-0.26,38.67h-0.07l-37-0.34h-0.15l-0.52-38.71c0.75-0.05,1.44-0.09,2.08-0.13
		c0.65,1.29,5.47,9.95,16.58,9.18c12-0.84,16.17-9,16.17-9l0.07-0.57C125.146,173.41,126.214,173.52,127.367,173.64z"/>
	<path fill="#F7D5C4" d="M155.226,134.13c-2.67,5.32-6.24,9.43-10.76,13c-7.391,5.83-20.53,9.7-26,11.13
		c-1.561,0.41-2.5,0.62-2.5,0.62s-3.25,5.5-9.5,5.75c-4.72,0.19-8.3-3.33-9.77-5.06c-0.48-0.56-0.73-0.94-0.73-0.94
		s-16-1.75-26.75-12.25c-2.81-2.75-5.12-6.33-7-10.12c-5.3-10.71-7.17-23.1-7.17-23.1l0.17-0.18c0.45,0.44,0.72,0.68,0.72,0.68
		c5.84-11.82,4.96-28.71,4.96-28.71c11.5,2,20.07-15.57,20.07-15.57s9,9.5,27.5,9c18.5-0.5,24.5-21,24.5-21
		c-2,17.75,16.75,24.75,21.75,24.5c-1,12.5,6.06,29.63,6.06,29.63s0.05-0.06,0.149-0.18l0.031,0.02c-0.49,5.33-1.281,9.95-2.4,14
		C157.655,128.62,156.556,131.52,155.226,134.13z M144.125,110.65c0,0-3.18-6.54-9.18-6.36c-6,0.19-9.57,6.4-9.57,6.4
		c-0.01,0.75,3.681,3.92,9.33,4.15C140.346,115.07,144.125,110.65,144.125,110.65z M89.965,110.63c0,0-3.5-6.25-9.5-6.5
		s-9.25,6.25-9.25,6.25s3.73,4.46,9.38,4.3C86.246,114.51,89.965,111.38,89.965,110.63z"/>
	<path fill="#A4BA24" d="M138.596,457.75c-6.25-0.12-14.38,3.13-14.38,3.13l-0.92-0.229c0.05-0.141,0.109-0.271,0.17-0.399
		c1.5-3,7.5-14.87,7.5-14.87h0.5c1.67,0.68,3.5,0.92,5.17,0.94v0.31L138.596,457.75z"/>
	<path fill="#F7D5C4" d="M115.964,158.88c0,0,0.94-0.21,2.5-0.62l0.17,0.62c0,0-1.989,10.66,1.671,13.66
		c0,0.27,1.55,0.51,3.899,0.77l-0.07,0.57c0,0-4.17,8.16-16.169,9c-11.11,0.77-15.93-7.89-16.58-9.18c1.91-0.12,3.3-0.21,3.83-0.32
		c2.5-0.5,1-13.25,1-13.25l0.48-0.56c1.47,1.73,5.05,5.25,9.77,5.06C112.714,164.38,115.964,158.88,115.964,158.88z"/>
	<path fill="#A4BA24" d="M86.366,444.56c4.26,2.381,7.62,13.352,8.86,15.32c0,0-8.38-3.38-14.63-3.5l0.04-11v-0.31
		c3.02,0.028,5.52-0.631,5.52-0.631C86.226,444.47,86.295,444.51,86.366,444.56z"/>
	<path fill="#3F3E6B" d="M89.826,212.54l0.15,11c-4,7.34-11.67,0.34-11.67,0.34l-0.15-7.34l-0.85-41l-0.08-0.67
		c4.07-0.52,8.57-0.83,12.08-1.04L89.826,212.54z"/>
	<path fill="#F7D5C4" d="M85.965,438.63l0.5,5.75l-0.1,0.18c-0.07-0.05-0.14-0.09-0.21-0.119c0,0-2.5,0.659-5.52,0.631
		c-1.67-0.021-3.5-0.262-5.17-0.94h-0.5l0.5-7.25l0.15-0.37c2.45,1.021,6.02,1.98,10.3,1.61L85.965,438.63z"/>
	<path d="M79.896,109.37c2.36-0.95,3.53,2.35,1.18,2.59C78.715,112.2,77.536,110.31,79.896,109.37z"/>
	<path fill="#A4BA24" d="M77.306,175.54l0.85,41h-0.18c0,6.04-9.82,12.34-11.69,13.48l0.68-20.47c-4.59,3.97-9.06,7.83-13.21,11.28
		l-0.79-0.95c0,0-2.75-2.42-8-8.17s-5.41-8.25-5.41-8.25l-0.2-0.19c10.61-10.92,22.43-21.82,27.86-25.64
		c1.51-1.32,5.49-2.18,10.01-2.76L77.306,175.54z"/>
	<path fill="#A4BA24" d="M80.596,456.38c-6.25-0.13-14.38,3.12-14.38,3.12l-0.92-0.22c0.05-0.142,0.11-0.28,0.17-0.4
		c1.5-3,9.5-14.75,9.5-14.75h0.5c1.67,0.68,3.5,0.92,5.17,0.94v0.31L80.596,456.38z"/>
	<path fill="#F7D5C4" d="M55.045,113.16c0,0,1.87,12.39,7.17,23.1l-0.75,0.37c-16.25-6-18.5-10.25-18.5-20.25s6.59-10.09,6.59-10.09
		c2.16,3.15,4.51,5.58,5.66,6.69L55.045,113.16z"/>
	<path fill="#F7D5C4" d="M79.846,271.689c0,0,0.96,1.07-0.29,3.061s-6.53-0.79-15.31-0.3c6.9,1.239,12.1,3.71,10.86,5.76
		c-1.72,2.53-3.26,2.2-10.44-0.239c-0.38-0.131-0.79-0.271-1.21-0.41c0,0-7.32,1.319-11.4-0.101c-4.09-1.41-11.71-12.08-21.09-25.58
		c-9.38-13.5-10.99-17.34-12.17-24.5c0.05-3.63,9.65-14.88,20.56-26.11l0.2,0.19c0,0,0.16,2.5,5.41,8.25s8,8.17,8,8.17l0.79,0.95
		c-6.05,5.05-11.44,9.25-15.54,11.72c5.26,7.08,7.88,14.33,16.96,31.761c-0.11,0.25,2.42-1.181,5.42-1.931
		c1.46-0.72,3.23-1.521,4.76-2.2c1.98-0.869,3.56-1.539,3.56-1.539l5.54-0.721l3.44-0.23c0,0,1.41,2.83-0.12,3.86
		c-1.53,1.03-5.92,1.511-5.92,1.511l-3.33,1.149l3.33,0.479l8.62,2.25c0,0,1.13,1.721,0.76,3.011
		C80.866,271.23,79.846,271.689,79.846,271.689z"/>
	<path fill="#FFFFFF" d="M152.75,460.93c1.261,2.01-0.01,10.109-0.01,10.109c-17.5,6.5-29.75-0.62-29.75-0.62s-1.38-6.89-0.17-10.1
		l0.92,0.22c0,0,8.13-3.25,14.38-3.12C144.371,457.539,152.75,460.93,152.75,460.93z"/>
	<path d="M134.991,109.209c2.34,0.97,1.141,2.84-1.21,2.58C131.421,111.52,132.641,108.239,134.991,109.209z"/>
	<path fill="#FFFFFF" d="M134.471,103.959c6-0.18,9.18,6.36,9.18,6.36s-3.78,4.42-9.43,4.19c-5.63-0.23-9.32-3.4-9.32-4.16
		C124.901,110.349,128.471,104.139,134.471,103.959z M133.781,111.789c2.351,0.26,3.55-1.61,1.21-2.58
		C132.641,108.239,131.421,111.52,133.781,111.789z"/>
	<path fill="#FFFFFF" d="M94.751,459.549c1.26,2.011-0.01,10.12-0.01,10.12c-17.5,6.5-29.75-0.63-29.75-0.63s-1.38-6.89-0.17-10.1
		l0.92,0.229c0,0,8.13-3.25,14.38-3.13C86.371,456.169,94.751,459.549,94.751,459.549z"/>
	<path fill="#FFFFFF" d="M79.991,103.789c6,0.25,9.5,6.5,9.5,6.5c0,0.75-3.72,3.89-9.37,4.05c-5.65,0.17-9.38-4.3-9.38-4.3
		S73.991,103.539,79.991,103.789z M80.591,111.629c2.36-0.24,1.18-3.54-1.17-2.6C77.061,109.979,78.231,111.859,80.591,111.629z"/>
	<path d="M79.421,109.029c2.35-0.94,3.53,2.36,1.17,2.6C78.231,111.859,77.061,109.979,79.421,109.029z"/>
</g>
<g id="line_2_">
	<path fill="none" stroke="#000000" stroke-width="3" stroke-linecap="round" stroke-linejoin="round" stroke-miterlimit="10" d="
		M132.494,57.042c0,0-6,20.5-24.5,21c-18.5,0.5-27.5-9-27.5-9S71.915,86.62,60.415,84.62c0,0,0.887,16.887-4.956,28.71
		c0,0-14.466-12.788-10.216-24.538c0,0-8.5-7.25-5.75-19.75s19.25-13.75,19.25-13.75s-4.75-14.75,7.75-23s24,0.25,24,0.25
		s7.5-9.5,20.75-9.75c13.25-0.25,20,14.75,20,14.75s12.5-11,22.25-3.25s2,16.5,2,16.5s16.5-4.5,19.5,8.25s-6.25,17.5-6.25,17.5
		s4,10.75,2,17.5s-10.44,17.131-10.44,17.131s-7.06-17.131-6.06-29.631C149.244,81.792,130.494,74.792,132.494,57.042z"/>
	<path fill="none" stroke="#000000" stroke-width="1.5" stroke-linecap="round" stroke-linejoin="round" stroke-miterlimit="10" d="
		M80.367,68.166c0,0-7.374-8.124-6.124-17.124s10-11,13.75-7.75s1.5,8.5-2.25,8.25"/>
	<path fill="none" stroke="#000000" stroke-width="1.5" stroke-linecap="round" stroke-linejoin="round" stroke-miterlimit="10" d="
		M153.576,80.958c2.375-0.125,8.418-2.166,9.418-6.166s0-6.75-2.5-8s-7,0-5,4"/>
	<path fill="none" stroke="#000000" stroke-width="3" stroke-linecap="round" stroke-linejoin="round" stroke-miterlimit="10" d="
		M55.47,112.827c0,0,2.523,22.714,13.273,33.214s26.75,12.25,26.75,12.25s4.25,6.25,10.5,6c6.25-0.25,9.5-5.75,9.5-5.75
		s19-4.25,28.5-11.75s14.797-17.441,16.487-35.774"/>
	<path fill="none" stroke="#000000" stroke-width="3" stroke-linecap="round" stroke-linejoin="round" stroke-miterlimit="10" d="
		M49.083,105.952c0,0-6.589,0.089-6.589,10.089s2.25,14.25,18.5,20.25"/>
	<path fill="none" stroke="#000000" stroke-width="1.5" stroke-linecap="round" stroke-linejoin="round" stroke-miterlimit="10" d="
		M56.743,127.042c0,0-3.107,0-4.857-2.75s-1.25-3.75-1.25-8s-1.393-6-3.143-4.75"/>
	<path fill="none" stroke="#000000" stroke-width="3" stroke-linecap="round" stroke-linejoin="round" stroke-miterlimit="10" d="
		M165.97,104.187c0,0,6.514,0.588,6.012,10.575c-0.501,9.987-3.346,14.077-17.346,19.071"/>
	<path fill="none" stroke="#000000" stroke-width="1.5" stroke-linecap="round" stroke-linejoin="round" stroke-miterlimit="10" d="
		M157.199,125.033c0,0,2.648,0.835,5.206-1.259c2.558-2.094,1.532-4.038,1.745-8.282c0.213-4.245,1.379-6.812,3.064-5.476"/>
	<path fill="none" stroke="#000000" stroke-width="2" stroke-linecap="round" stroke-linejoin="round" stroke-miterlimit="10" d="
		M65.993,96.042c0,0,7.5-7.75,17.75-7.75s14.25,7,14.25,7"/>
	<path fill="none" stroke="#000000" stroke-width="2" stroke-linecap="round" stroke-linejoin="round" stroke-miterlimit="10" d="
		M118.744,95.042c0,0,5.75-7.5,16-7.25s13.75,9.25,13.75,9.25"/>
	<path fill="none" stroke="#000000" stroke-width="1.5" stroke-linecap="round" stroke-linejoin="round" stroke-miterlimit="10" d="
		M70.743,110.042c0,0,3.25-6.5,9.25-6.25s9.5,6.5,9.5,6.5c0,0.75-3.726,3.883-9.375,4.05
		C74.469,114.509,70.743,110.042,70.743,110.042z"/>
	<path fill="none" stroke="#000000" stroke-width="4" stroke-linecap="round" stroke-linejoin="round" stroke-miterlimit="10" d="
		M79.416,109.031c2.358-0.943,3.538,2.358,1.179,2.594C78.236,111.861,77.058,109.975,79.416,109.031z"/>
	<path fill="none" stroke="#000000" stroke-width="1.5" stroke-linecap="round" stroke-linejoin="round" stroke-miterlimit="10" d="
		M143.648,110.315c0,0-3.176-6.537-9.178-6.355c-6.002,0.181-9.573,6.391-9.573,6.391c-0.009,0.75,3.681,3.925,9.328,4.156
		C139.873,114.739,143.648,110.315,143.648,110.315z"/>
	<path fill="none" stroke="#000000" stroke-width="4" stroke-linecap="round" stroke-linejoin="round" stroke-miterlimit="10" d="
		M134.988,109.206c-2.348-0.97-3.564,2.318-1.209,2.581C136.134,112.05,137.335,110.176,134.988,109.206z"/>
	<path fill="none" stroke="#000000" stroke-width="1.5" stroke-linecap="round" stroke-linejoin="round" stroke-miterlimit="10" d="
		M96.16,121.375c-0.5,6.333,3.667,4.5,3.667,4.5s0.667-1.667,2.167-1.833c0.125,0.042,2,1.667,2,1.667"/>
	<path fill="none" stroke="#000000" stroke-width="1.5" stroke-linecap="round" stroke-linejoin="round" stroke-miterlimit="10" d="
		M117.41,121.708c0.5,6.333-3.668,4.5-3.668,4.5s-0.666-1.667-2.166-1.833c0.041,0.083-2,1.667-2,1.667"/>
	<path fill="none" stroke="#000000" stroke-width="1.5" stroke-linecap="round" stroke-linejoin="round" stroke-miterlimit="10" d="
		M77.993,136.542c0,0,6-0.25,9.5-4.75"/>
	<path fill="none" stroke="#000000" stroke-width="1.5" stroke-linecap="round" stroke-linejoin="round" stroke-miterlimit="10" d="
		M85.993,133.542c0,0,5.5,7.75,19.75,7.25c14.25-0.5,19.75-6.75,19.75-6.75"/>
	<path fill="none" stroke="#000000" stroke-width="1.5" stroke-linecap="round" stroke-linejoin="round" stroke-miterlimit="10" d="
		M124.494,130.792c0,0,1,4.75,9.5,5.25"/>
	<path fill="none" stroke="#000000" stroke-width="1.5" stroke-linecap="round" stroke-linejoin="round" stroke-miterlimit="10" d="
		M100.993,147.292c0,0,4.25,3.75,9,0.5"/>
	<path fill="none" stroke="#000000" stroke-width="3" stroke-linecap="round" stroke-linejoin="round" stroke-miterlimit="10" d="
		M118.162,158.542c0,0-1.996,10.663,1.666,13.667c0,1.004,19.666,1.229,28.416,5.525c8.75,4.296,45.875,43.101,45.209,50.601
		s-14.709,29.345-18.877,35.125c-4.168,5.781-5.754,8.963-9.854,11.147c-4.103,2.185-10.009,1.902-10.009,1.902
		c-8.344,4.344-9.28,5.844-11.791,3.281c-1.658-1.768,2.711-5.621,9.261-8.311c-8.767,1.373-12.935,5.231-14.593,3.535
		c-1.657-1.699-0.557-3.039-0.557-3.039s-1.48-0.158-2.119-1.349c-0.637-1.188,0.113-3.123,0.113-3.123l8.037-4.055l3.305-0.599
		l-3.652-1.002c0,0-4.432,0.447-6.164-0.242c-1.73-0.69-0.93-3.782-0.93-3.782l3.441-0.502l5.624-0.461c0,0,5.597,1.75,9.245,2.651
		c3.648,0.9,6.66,1.053,6.66,1.053s10.34-23.151,14.777-30.339c-5.5-6.002-14.545-9.852-27.879-21.852l2.166,49.498"/>
	<path fill="none" stroke="#000000" stroke-width="1.5" stroke-linecap="round" stroke-linejoin="round" stroke-miterlimit="10" d="
		M137.595,271.693c0,0,5.115-2.933,7.252-3.328c2.136-0.396,5.531-1.297,5.531-1.297"/>
	<path fill="none" stroke="#000000" stroke-width="1.5" stroke-linecap="round" stroke-linejoin="round" stroke-miterlimit="10" d="
		M155.063,260.34c0,0,4.424,0.445,8.302,2.949"/>
	<path fill="none" stroke="#000000" stroke-width="1.5" stroke-linecap="round" stroke-linejoin="round" stroke-miterlimit="10" d="
		M162.494,220.041c0,0,8.666-1.834,13-15.5"/>
	<path fill="none" stroke="#000000" stroke-width="3" stroke-linecap="round" stroke-linejoin="round" stroke-miterlimit="10" d="
		M95.743,159.792c0,0,1.5,12.75-1,13.25s-24,0.75-28,4.25c-11,7.75-48.335,44.588-48.421,51.754
		c1.272,6.336,3.814,10.41,12.168,23.498c8.354,13.088,17.002,25.168,21.085,26.586c4.083,1.416,11.403,0.095,11.403,0.095
		c8.222,2.809,9.843,3.321,11.654,0.655c1.241-2.055-3.961-4.521-10.862-5.764c8.777-0.488,14.053,2.288,15.306,0.301
		c1.253-1.99,0.291-3.06,0.291-3.06s1.019-0.461,1.39-1.746c0.371-1.284-0.758-3.002-0.758-3.002l-8.625-2.258l-3.325-0.473
		l3.33-1.148c0,0,4.385-0.487,5.919-1.516c1.532-1.029,0.115-3.855,0.115-3.855l-3.437,0.229l-5.542,0.72
		c0,0-4.974,2.106-8.321,3.737c-2.27,0.961-4.778,2.313-4.664,2.067c-10.148-18.272-13.315-25.938-17.708-31.897
		c6.56-4.709,17.497-13.25,28.747-23l-1.667,50.498"/>
	<path fill="none" stroke="#000000" stroke-width="1.5" stroke-linecap="round" stroke-linejoin="round" stroke-miterlimit="10" d="
		M78.382,271.199c0,0-5.746-1.959-7.897-1.9c-0.117-0.008-5.031-0.797-5.031-0.797"/>
	<path fill="none" stroke="#000000" stroke-width="1.5" stroke-linecap="round" stroke-linejoin="round" stroke-miterlimit="10" d="
		M51.243,268.166c0,0,2.476-2.16,4.586-3.41"/>
	<path fill="none" stroke="#000000" stroke-width="1.5" stroke-linecap="round" stroke-linejoin="round" stroke-miterlimit="10" d="
		M52.493,219.541c0,0-2.75-2.418-8-8.168s-5.417-8.248-5.417-8.248"/>
	<path fill="none" stroke="#000000" stroke-width="1.5" stroke-linecap="round" stroke-linejoin="round" stroke-miterlimit="10" d="
		M76.828,175.209l1,48.334c0,0,7.667,7,11.667-0.334l-0.667-50"/>
	<path fill="none" stroke="#000000" stroke-width="1.5" stroke-linecap="round" stroke-linejoin="round" stroke-miterlimit="10" d="
		M90.827,173.208c0,0,4.667,10.167,16.667,9.333c12-0.832,16.167-9,16.167-9"/>
	<path fill="none" stroke="#000000" stroke-width="1.5" stroke-linecap="round" stroke-linejoin="round" stroke-miterlimit="10" d="
		M126.828,173.875l-0.332,49.667c0,0,0.666,3.748,5.666,3.748s4.668-3.748,4.668-3.748l2-49"/>
	<path fill="none" stroke="#000000" stroke-width="1.5" stroke-linecap="round" stroke-linejoin="round" stroke-miterlimit="10" d="
		M65.494,229.875c0,0,12-6.998,12-13.666"/>
	
		<line fill="none" stroke="#000000" stroke-width="1.5" stroke-linecap="round" stroke-linejoin="round" stroke-miterlimit="10" x1="89.494" y1="212.209" x2="126.494" y2="212.543"/>
	<path fill="none" stroke="#000000" stroke-width="1.5" stroke-linecap="round" stroke-linejoin="round" stroke-miterlimit="10" d="
		M137.16,214.543c0,0,4.334,12.416,10.668,14.748"/>
	<path fill="none" stroke="#000000" stroke-width="3" stroke-linecap="round" stroke-linejoin="round" stroke-miterlimit="10" d="
		M151.66,279.207c0.699,13.422,2.166,39.002,2.166,39.002c5,84-7.668,116.666-7.668,116.666c-9.332,4.668-19.666,0-19.666,0
		s-5.668-31.666-9.668-57c-4-25.332-7.333-63-7.333-63c-2.667,33.334-18.333,121.666-18.333,121.666
		c-11.333,4-19.666-2.332-19.666-2.332s-9-41.334-9-71.334s1.417-82.418,1.417-82.418"/>
	<path fill="none" stroke="#000000" stroke-width="3" stroke-linecap="round" stroke-linejoin="round" stroke-miterlimit="10" d="
		M74.993,436.541l-0.5,7.25c0,0-8,11.75-9.5,14.75s0,10.5,0,10.5s12.25,7.125,29.75,0.625c0,0,1.27-8.105,0.01-10.115
		c-1.26-2.01-4.716-13.305-9.072-15.447c0,0-6.021,1.605-10.688-0.312"/>
	
		<line fill="none" stroke="#000000" stroke-width="3" stroke-linecap="round" stroke-linejoin="round" stroke-miterlimit="10" x1="85.993" y1="444.041" x2="85.493" y2="438.291"/>
	
		<line fill="none" stroke="#000000" stroke-width="1.5" stroke-linecap="round" stroke-linejoin="round" stroke-miterlimit="10" x1="80.118" y1="456.041" x2="80.16" y2="445.043"/>
	<path fill="none" stroke="#000000" stroke-width="1.5" stroke-linecap="round" stroke-linejoin="round" stroke-miterlimit="10" d="
		M65.743,459.166c0,0,8.125-3.25,14.375-3.125s14.635,3.51,14.635,3.51"/>
	<path fill="none" stroke="#000000" stroke-width="3" stroke-linecap="round" stroke-linejoin="round" stroke-miterlimit="10" d="
		M131.244,437.041l-0.75,8c0,0-6,11.875-7.5,14.875s0,10.5,0,10.5s12.25,7.125,29.75,0.625c0,0,1.27-8.105,0.01-10.115
		s-6.717-13.43-11.072-15.572c0,0-6.021,1.605-10.688-0.312"/>
	
		<line fill="none" stroke="#000000" stroke-width="3" stroke-linecap="round" stroke-linejoin="round" stroke-miterlimit="10" x1="141.994" y1="445.291" x2="141.744" y2="437.041"/>
	
		<line fill="none" stroke="#000000" stroke-width="1.5" stroke-linecap="round" stroke-linejoin="round" stroke-miterlimit="10" x1="138.119" y1="457.416" x2="136.16" y2="446.293"/>
	<path fill="none" stroke="#000000" stroke-width="1.5" stroke-linecap="round" stroke-linejoin="round" stroke-miterlimit="10" d="
		M123.744,460.541c0,0,8.125-3.25,14.375-3.125s14.635,3.51,14.635,3.51"/>
</g>
</svg>
