<?xml version="1.0" encoding="utf-8"?>
<!-- Generator: Adobe Illustrator 16.0.0, SVG Export Plug-In . SVG Version: 6.00 Build 0)  -->
<!DOCTYPE svg PUBLIC "-//W3C//DTD SVG 1.1//EN" "http://www.w3.org/Graphics/SVG/1.1/DTD/svg11.dtd">
<svg version="1.1" id="Layer_1" xmlns="http://www.w3.org/2000/svg" xmlns:xlink="http://www.w3.org/1999/xlink" x="0px" y="0px"
	 width="262.234px" height="560px" viewBox="0 0 262.234 560" enable-background="new 0 0 262.234 560" xml:space="preserve">
<g id="XMLID_4_">
	<path fill="#F7D5C4" d="M195.765,246.89c6.55,20.46,5.44,24.34,5.44,24.34l-19.851,52.27c0,0-0.31,8.09-5.6,11.51
		c0,0-4.04-9.648-7.47-14.62c-3.42-4.979-5.75-7.159-5.75-7.159s5.439-2.801,9.489-3.109c0,0,1.28-6.67,3.15-15.109
		c2.13-9.611,5.02-21.491,7.67-28.451c-1.31-3.35-3.27-7.05-5.17-10.34c3.62,0.13,13.38-0.41,17.64-9.19L195.765,246.89z"/>
	<path fill="#A4BA24" d="M171.985,247.15c0.45,3.4,0.931,7.55,1.381,12.38l-0.301,0.03c-7.31-6.07-10.58-18.04-10.58-18.04
		l-0.54,0.01c-0.14-11.95,0.021-29.05,2.03-41.88l1.15-1.46c5.729,0.79,15.319,6.16,24.12,29.95c2.75,7.43,4.88,13.62,6.52,18.75
		l-0.45,0.14c-4.26,8.78-14.02,9.32-17.64,9.19C175.185,251.91,172.765,248.31,171.985,247.15z"/>
	<path fill="#F7D5C4" d="M182.255,173.82c0,3.5-8.4,3.27-12.37,10.5l-0.46-0.13c0.61-2.12,1.07-4.51,1.4-7.25l0.069-0.4
		c1.28-1.98,2.49-4.06,3.57-5.98l0.82,0.46C175.285,171.02,182.255,170.32,182.255,173.82z"/>
	<path fill="#F7D5C4" d="M76.334,186.6c-1.55-3.59-2.3-6.35-2.431-6.83l1.841-8.75c0,0,0,0,4.199-2.33c4.2-2.34,6-8.19,6.011-8.19
		c0,0,4.25,4.58,21.93,3.05c20.53-2.8,26.6-20.06,27.07-31.73c6.06,14.47,20.529,22.4,28.47,19.6c0,11.2,6.93,14.47,6.93,14.47
		l0.54,10.65l-0.069,0.4c-0.33,2.74-0.79,5.13-1.4,7.25c-1.83,6.44-4.97,10.45-9.67,14.3c-1.24,1.01-2.58,2.01-4.04,3.04
		c-1.38,0.97-2.92,1.88-4.54,2.72c-8.76,4.51-19.85,6.96-19.85,6.96s-3.04,1.97-8.87,2.15c-5.83,0.18-9.801-2.33-9.801-2.33
		s-3.06-0.25-7.35-1.25c-3.7-0.85-8.31-2.24-12.63-4.48c-1.33-0.68-2.63-1.44-3.87-2.3c-0.38-0.25-0.75-0.52-1.12-0.8
		C82.115,198,78.475,191.53,76.334,186.6z"/>
	<path fill="#3F3E6B" d="M165.125,198.19l-1.15,1.46c-2.01,12.83-2.17,29.93-2.03,41.88c0.11,8.34,0.36,14.17,0.23,14.3
		c-4.97,7.15-11.2,0.62-11.2,0.62c-0.13-6.38-0.149-12.33-0.12-17.74c0.16-21,1.3-34.09,1.3-34.09l-0.979-0.37
		c1.62-0.84,3.16-1.75,4.54-2.72c1.46-1.03,2.8-2.03,4.04-3.04l0.18,0.22C159.935,198.71,161.935,197.74,165.125,198.19z"/>
	<path fill="#A4BA24" d="M162.495,486.08l3.899-10.4l0.01-0.06c4.87,0.99,12.44,0.79,20.19-6.19l0.03,0.03l2.64,3.42
		c0,0,0,2.8-0.47,17.73c-0.54,10.55-2.87,11.938-5.23,13.318c-2.3,1.012-4.51,1.802-6.6,2.41c-0.08-1.41-0.73-7.56-6.061-12.62
		c-2.42-2.29-5.859-3.229-9.119-3.51c-4.4-0.4-8.46,0.37-9.25,0.53l-0.37-0.59C156.365,487.49,162.495,486.08,162.495,486.08z"/>
	<path fill="#A4BA24" d="M151.175,204.25l0.979,0.37c0,0-1.14,13.09-1.3,34.09h-0.5l-2.18,0.32c-4.66,0.31-41.07,0.31-41.07,0.31
		l-0.319,0.02l-1.54-28.51l0.06-1.07c4.29,1,7.35,1.25,7.35,1.25s3.971,2.51,9.801,2.33c5.83-0.18,8.87-2.15,8.87-2.15
		S142.415,208.76,151.175,204.25z"/>
	<path fill="#A4BA24" d="M119.985,492.37c-1.01-0.19-4.59-0.8-8.449-0.78c-2.881-2.188-4.841-10.398-4.841-10.398l-0.159-0.65
		c1.83-0.42,3.67-1.15,5.5-2.271l0.55,0.852l7.2,12.38c0.119,0.021,0.239,0.04,0.35,0.07L119.985,492.37z"/>
	<path fill="#A4BA24" d="M106.695,481.19c0,0,1.96,8.21,4.841,10.398c-2.78,0.021-5.69,0.37-7.91,1.45
		c-5.891,2.85-8.15,11.27-8.15,11.27l-0.38,0.21c-4.49-4.63-8-15.38-8-15.38l0.271-12.29l0.35-0.688
		c4.37,2.79,11.439,6.08,18.82,4.38L106.695,481.19z"/>
	<path fill="#3F3E6B" d="M106.785,239.36l0.949,17.71c-6.54,8.09-13.38,0-13.38,0l0.311-7.78c-0.03-2.06-0.09-4.14-0.16-6.21v-0.01
		c-0.68-18.61-2.95-36.89-2.95-36.89l1.12-0.88c4.32,2.24,8.93,3.63,12.63,4.48l-0.06,1.07L106.785,239.36z"/>
	<path fill="#3F3E6B" d="M148.175,239.03l2.18-0.32h0.5c-0.029,5.41-0.01,11.36,0.12,17.74c0,0,6.23,6.53,11.2-0.62
		c0.13-0.13-0.12-5.96-0.23-14.3l0.54-0.01c0,0,3.271,11.97,10.58,18.04l0.301-0.03c0.89,9.4,1.64,21.38,1.76,35.47l0.05,0.01
		c-1.87,8.44-3.15,15.11-3.15,15.11c-4.05,0.31-9.489,3.11-9.489,3.11s2.33,2.18,5.75,7.158c3.43,4.972,7.47,14.62,7.47,14.62
		l0.58,0.32c-0.931,11.82-5.13,56.479-2.641,67.68c2.49,11.2,14.801,64.58,14.801,64.58c-0.63,0.66-1.271,1.28-1.9,1.84
		c-7.75,6.98-15.32,7.182-20.19,6.19c-3.31-0.67-5.369-1.891-5.369-1.891c-28.42-50.979-30.67-82.979-33.7-113.061
		c-3.22,52.58-12.13,115.23-12.13,115.23c-1.051,0.93-2.101,1.72-3.17,2.368c-1.83,1.12-3.67,1.852-5.5,2.271
		c-7.381,1.7-14.45-1.59-18.82-4.38c-2.75-1.76-4.43-3.33-4.43-3.33s1.739-6.66-1.681-44.312c-3.43-37.64-0.939-79.64-0.939-79.64
		l-2.73-5.74c0,0,0.351-1.67,0.7-3.648l0.02-0.011c0.04,0.069,0.07,0.131,0.101,0.199c0,0,2.22-15.21,10.62-22.68
		c0,0,0.31-1.55-3.74-8.7c-2.09-3.71-3.69-10.05-5.3-16.9c-0.65-8.869,0.2-20.169,1.35-30.069l0.84,0.1c0,0,7.94-4.98,11.98-18.35
		c0.07,2.07,0.13,4.15,0.16,6.21l-0.311,7.78c0,0,6.84,8.09,13.38,0l-0.949-17.71l0.319-0.02
		C107.104,239.34,143.515,239.34,148.175,239.03z"/>
	<path fill="#A4BA24" d="M82.794,252.82c-0.29,0.6-1.73,3.62-3.29,7.35c-16.62-0.27-18.91-13.21-18.91-13.21l-0.47-0.15
		c2.77-8.92,6.75-17.85,10.89-26.76c8.09-17.43,17.74-16.98,17.74-16.98l0.05-0.07c1.24,0.86,2.54,1.62,3.87,2.3l-1.12,0.88
		c0,0,2.271,18.28,2.95,36.89v0.01c-4.04,13.37-11.98,18.35-11.98,18.35l-0.84-0.1C82.044,258.33,82.425,255.45,82.794,252.82z"/>
	<path fill="#F7C63C" d="M85.955,160.5c-0.011,0-1.811,5.85-6.011,8.19c-4.199,2.33-4.199,2.33-4.199,2.33l-1.841,8.75l-0.02,0.12
		c0,0-1.86-1.62-4.2-4.11c-5.05-5.38-12.33-14.83-7.87-20.89c0,0-10.27-2.8-11.199-14.94c-0.931-12.13,10.27-12.6,10.27-12.6
		s-16.4-11.33,2.26-31.87c0,0,6.94-11.66,20.94-5.6c0,0,6.53-20.06,28.93-22.4c22.4-2.33,29.4,12.6,29.4,12.6s15.8-8.46,25.14,4.14
		c9.33,12.6,4.2,16.8,4.2,16.8s14.93,7,17.27,18.67c2.33,11.66-7.14,16.73-7.14,16.73s12.6,14.47-3.26,26.13
		c0,0-1.71,3.61-4.16,8.01c-1.08,1.92-2.29,4-3.57,5.98l-0.54-10.65c0,0-6.93-3.27-6.93-14.47c-7.94,2.8-22.41-5.13-28.47-19.6
		c-0.471,11.67-6.54,28.93-27.07,31.73C90.205,165.08,85.955,160.5,85.955,160.5z"/>
	<path fill="#F7D5C4" d="M89.375,317c-8.4,7.47-10.62,22.68-10.62,22.68c-0.03-0.068-0.061-0.13-0.101-0.198
		c-4.579-9.602-5.149-20.922-5.149-20.922s-16.18-28.78-17.11-46.2c-0.46-8.51,1.09-17.03,3.73-25.55l0.47,0.15
		c0,0,2.29,12.94,18.91,13.21c-1.69,4.06-3.521,8.98-4.13,12.5c1.95,5.55,3.46,12.359,4.96,18.73c1.609,6.85,3.21,13.189,5.3,16.899
		C89.685,315.45,89.375,317,89.375,317z"/>
	<path fill="#F7D5C4" d="M73.905,179.77c0.131,0.48,0.881,3.24,2.431,6.83c-5.83-3.67-14.82-2.77-15.05-6.48
		c-0.24-3.73,8-3.97,8-3.97l0.399-0.37c2.34,2.49,4.2,4.11,4.2,4.11L73.905,179.77z"/>
	<path fill="#FFFFFF" d="M161.278,490.21c3.26,0.28,6.71,1.21,9.13,3.51c5.33,5.061,5.979,11.21,6.06,12.62
		c-17.729,5.19-27.68-2.62-27.68-2.62c-2.26-3.489-0.41-10.439-0.41-10.439c0.67-1.181,1.87-2.23,3.29-3.13l0.37,0.59
		C152.827,490.58,156.887,489.81,161.278,490.21z"/>
	<path fill="#FFFFFF" d="M119.488,492.37l0.15-0.8c7.15,1.41,7.79,10.649,5.53,14.04c-2.3,3.439-21.91,2.52-27.68,0.859
		c-0.99-0.29-1.97-0.979-2.9-1.95l0.39-0.199c0,0,2.26-8.42,8.15-11.28c2.22-1.08,5.13-1.43,7.9-1.45
		C114.897,491.57,118.477,492.18,119.488,492.37z"/>
</g>
<g id="line_1_">
	<path fill="none" stroke="#000000" stroke-width="3" stroke-linecap="round" stroke-linejoin="round" stroke-miterlimit="10" d="
		M134.452,131.819c-0.468,11.667-6.534,28.935-27.068,31.735c-17.682,1.53-21.934-3.054-21.934-3.054
		c-0.001,0.001-1.802,5.853-6.001,8.188c-4.201,2.333-4.201,2.333-4.201,2.333l-1.866,8.867c0,0-18.601-16.134-12.067-25
		c0,0-10.268-2.8-11.199-14.935c-0.935-12.134,10.268-12.601,10.268-12.601s-16.4-11.334,2.267-31.868c0,0,6.935-11.667,20.936-5.6
		c0,0,6.533-20.068,28.935-22.401s29.401,12.6,29.401,12.6s15.8-8.467,25.135,4.134c9.333,12.601,4.199,16.801,4.199,16.801
		s14.935,7.001,17.268,18.668c2.334,11.667-7.133,16.734-7.133,16.734s12.602,14.467-3.267,26.134c0,0-3.521,7.455-7.724,13.989
		l-0.545-10.656c0,0-6.933-3.267-6.933-14.467C154.987,154.22,140.518,146.287,134.452,131.819z"/>
	<path fill="none" stroke="#000000" stroke-width="1.5" stroke-linecap="round" stroke-linejoin="round" stroke-miterlimit="10" d="
		M85.569,159.701c1.957,1.454-8.699-8.446-4.159-17.743c5.25-10.75,19.417-8.25,18.251-2.667s-8.375,4.458-8.375,4.458"/>
	<path fill="none" stroke="#000000" stroke-width="1.5" stroke-linecap="round" stroke-linejoin="round" stroke-miterlimit="10" d="
		M162.993,150.75c0,0,9.807-4.33,6.341-10.728s-11.02-0.72-7.242,2.254"/>
	<path fill="none" stroke="#000000" stroke-width="3" stroke-linecap="round" stroke-linejoin="round" stroke-miterlimit="10" d="
		M73.381,179.69c0,0,3.77,14.936,13.804,22.507c10.033,7.572,24.969,8.834,24.969,8.834s3.968,2.508,9.801,2.327
		c5.834-0.181,8.866-2.147,8.866-2.147s15.586-3.441,24.393-9.682c8.808-6.24,13.53-11.368,15.106-24.589"/>
	<path fill="none" stroke="#000000" stroke-width="3" stroke-linecap="round" stroke-linejoin="round" stroke-miterlimit="10" d="
		M67.081,176.154c0,0-6.533,0.233-6.3,3.967c0.232,3.733,9.332,2.8,15.168,6.534"/>
	<path fill="none" stroke="#000000" stroke-width="3" stroke-linecap="round" stroke-linejoin="round" stroke-miterlimit="10" d="
		M175.687,171.021c0,0,6.066-0.7,6.066,2.8s-8.399,3.267-12.367,10.501"/>
	<path fill="none" stroke="#000000" stroke-width="2" stroke-linecap="round" stroke-linejoin="round" stroke-miterlimit="10" d="
		M82.182,176.154c0,0,1.166-5.134,12.367-4.2c11.201,0.933,13.068,3.733,13.068,3.733"/>
	<path fill="none" stroke="#000000" stroke-width="1.5" stroke-linecap="round" stroke-linejoin="round" stroke-miterlimit="10" d="
		M86.616,183.621c0,0,6.065,8.401,16.334,1.167"/>
	<path fill="none" stroke="#000000" stroke-width="2" stroke-linecap="round" stroke-linejoin="round" stroke-miterlimit="10" d="
		M132.585,168.688c0,0-0.234,3.967,9.564,4.2c9.802,0.233,14.002-0.233,14.002-0.233"/>
	<path fill="none" stroke="#000000" stroke-width="1.5" stroke-linecap="round" stroke-linejoin="round" stroke-miterlimit="10" d="
		M134.685,184.322c0,0,7.935,7,17.034,0.233"/>
	<path fill="none" stroke="#000000" stroke-width="1.5" stroke-linecap="round" stroke-linejoin="round" stroke-miterlimit="10" d="
		M114.035,180.705c0,0,2.216,4.551,2.447,6.651c0.234,2.1,0.234,4.433,0.234,4.433s-4.2,1.167-4.2,4.201
		c0,3.032,7.233,7.233,12.135,2.566c1.166,1.634,6.301,0.7,3.499-2.8"/>
	<path fill="none" stroke="#000000" stroke-width="1.5" stroke-linecap="round" stroke-linejoin="round" stroke-miterlimit="10" d="
		M115.784,206.023c0,0,7.467-4.201,11.2,0"/>
	<path fill="none" stroke="#000000" stroke-width="3" stroke-linecap="round" stroke-linejoin="round" stroke-miterlimit="10" d="
		M88.25,203.068c0,0-9.646-0.444-17.735,16.979c-8.089,17.423-15.557,34.89-14.622,52.313c0.934,17.424,17.111,46.203,17.111,46.203
		s0.584,11.473,5.25,21.116c0,0,2.219-15.207,10.619-22.675c0,0,0.308-1.553-3.735-8.709c-4.044-7.154-6.224-24.111-10.268-35.623
		c1.245-7.156,7.471-19.958,7.471-19.958"/>
	<path fill="none" stroke="#000000" stroke-width="3" stroke-linecap="round" stroke-linejoin="round" stroke-miterlimit="10" d="
		M84.674,238.248c0,0-6.38,33.193-4.823,53.417"/>
	<path fill="none" stroke="#000000" stroke-width="1.5" stroke-linecap="round" stroke-linejoin="round" stroke-miterlimit="10" d="
		M93.017,314.102c0,0-1.458,2.092-4.021,4.027"/>
	<path fill="none" stroke="#000000" stroke-width="1.5" stroke-linecap="round" stroke-linejoin="round" stroke-miterlimit="10" d="
		M60.096,246.958c0,0,2.335,13.222,19.445,13.222"/>
	<path fill="none" stroke="#000000" stroke-width="3" stroke-linecap="round" stroke-linejoin="round" stroke-miterlimit="10" d="
		M159.433,198.713c0,0,15.624-7.601,29.312,29.423c13.688,37.026,11.956,43.093,11.956,43.093l-19.846,52.27
		c0,0-0.312,8.089-5.602,11.512c0,0-4.043-9.646-7.467-14.624c-3.422-4.977-5.755-7.154-5.755-7.154s5.443-2.801,9.488-3.112
		c0,0,5.844-30.489,10.823-43.557c-3.424-8.713-11.144-19.812-11.144-19.812"/>
	<path fill="none" stroke="#000000" stroke-width="3" stroke-linecap="round" stroke-linejoin="round" stroke-miterlimit="10" d="
		M169.767,236.227c0,0,4.543,22.373,4.854,58.774"/>
	<path fill="none" stroke="#000000" stroke-width="1.5" stroke-linecap="round" stroke-linejoin="round" stroke-miterlimit="10" d="
		M158.054,310.438c0,0,1.938,2.562,4.171,3.918"/>
	<path fill="none" stroke="#000000" stroke-width="1.5" stroke-linecap="round" stroke-linejoin="round" stroke-miterlimit="10" d="
		M175.785,256.135c0,0,13.734,1.786,19.024-9.104"/>
	<path fill="none" stroke="#000000" stroke-width="1.5" stroke-linecap="round" stroke-linejoin="round" stroke-miterlimit="10" d="
		M91.052,206.18c0,0,2.8,22.579,3.11,43.114l-0.312,7.777c0,0,6.845,8.091,13.378,0l-2.488-46.225"/>
	<path fill="none" stroke="#000000" stroke-width="1.5" stroke-linecap="round" stroke-linejoin="round" stroke-miterlimit="10" d="
		M151.656,204.624c0,0-1.801,20.711-1.18,51.825c0,0,6.224,6.533,11.201-0.622c0.312-0.312-1.622-34.401,1.8-56.182"/>
	<path fill="none" stroke="#000000" stroke-width="1.5" stroke-linecap="round" stroke-linejoin="round" stroke-miterlimit="10" d="
		M82.029,261.428c0,0,7.933-4.979,11.977-18.357"/>
	<path fill="none" stroke="#000000" stroke-width="1.5" stroke-linecap="round" stroke-linejoin="round" stroke-miterlimit="10" d="
		M106.609,239.338c0,0,36.401,0.001,41.069-0.312l2.177-0.312"/>
	<path fill="none" stroke="#000000" stroke-width="1.5" stroke-linecap="round" stroke-linejoin="round" stroke-miterlimit="10" d="
		M161.989,241.516c0,0,3.266,11.976,10.578,18.045"/>
	<path fill="none" stroke="#000000" stroke-width="3" stroke-linecap="round" stroke-linejoin="round" stroke-miterlimit="10" d="
		M175.838,335.332c1.279,28.918-4.596,52.668-1.721,69.918c4.334,17.585,13.877,60.917,13.877,60.917
		c-13.689,14.311-26.71,7.566-26.71,7.566c-28.417-50.983-31.417-82.983-34.448-113.068
		c-3.219,52.585-12.135,115.238-12.135,115.238c-14.622,13.066-31.917-3.069-31.917-3.069s-0.334-7.667-1.686-44.311
		c-1.393-37.775-0.932-79.648-0.932-79.648l-2.73-5.733c0,0,0.351-1.673,0.698-3.655"/>
	<path fill="none" stroke="#000000" stroke-width="3" stroke-linecap="round" stroke-linejoin="round" stroke-miterlimit="10" d="
		M86.867,476.85l-0.27,12.293c0,0,5.116,15.666,10.885,17.328c5.771,1.661,25.38,2.579,27.685-0.863
		c2.304-3.442,1.6-12.928-5.878-14.105l-7.199-12.382"/>
	<path fill="none" stroke="#000000" stroke-width="1.5" stroke-linecap="round" stroke-linejoin="round" stroke-miterlimit="10" d="
		M94.978,504.315c0,0,2.261-8.419,8.146-11.271c5.887-2.853,16.64-0.613,16.64-0.613"/>
	<path fill="none" stroke="#000000" stroke-width="1.5" stroke-linecap="round" stroke-linejoin="round" stroke-miterlimit="10" d="
		M106.198,481.194c0,0,2.03,8.539,5.004,10.533"/>
	<path fill="none" stroke="#000000" stroke-width="3" stroke-linecap="round" stroke-linejoin="round" stroke-miterlimit="10" d="
		M165.897,475.677l-3.905,10.406c0,0-10.97,2.529-13.613,7.197c0,0-1.849,6.945,0.407,10.44c0,0,12.44,9.757,34.279,0.211
		c2.355-1.378,4.689-2.776,5.234-13.319c0.468-14.935,0.468-16.611,0.468-16.611l-2.645-4.545"/>
	<path fill="none" stroke="#000000" stroke-width="1.5" stroke-linecap="round" stroke-linejoin="round" stroke-miterlimit="10" d="
		M151.899,490.771c0,0,12.444-2.805,18.512,2.951c6.066,5.758,6.066,12.913,6.066,12.913"/>
	<path fill="none" stroke="#000000" stroke-width="1.5" stroke-linecap="round" stroke-linejoin="round" stroke-miterlimit="10" d="
		M161.036,490.302c0,0,2.1-0.734,4.589-2.562l3.493-11.404"/>
</g>
</svg>
