<?xml version="1.0" encoding="utf-8"?>
<!-- Generator: Adobe Illustrator 16.0.0, SVG Export Plug-In . SVG Version: 6.00 Build 0)  -->
<!DOCTYPE svg PUBLIC "-//W3C//DTD SVG 1.1//EN" "http://www.w3.org/Graphics/SVG/1.1/DTD/svg11.dtd">
<svg version="1.1" id="Layer_1" xmlns="http://www.w3.org/2000/svg" xmlns:xlink="http://www.w3.org/1999/xlink" x="0px" y="0px"
	 width="712.235px" height="560px" viewBox="0 0 712.235 560" enable-background="new 0 0 712.235 560" xml:space="preserve">
<g id="XMLID_1_">
	<path fill="#A4BA24" d="M198.321,241.306c1.12,4.7,4.381,7.52,5.53,8.4c-4.95,0.76-10.87,1.59-17.97,2.54
		c0,0-6.75,3.52-11.83,30.17c-6.59-0.029-11.54-1.77-16.84-14l-0.34-0.04c1.279-10.27,4.93-30.17,14.68-43.96l0.01-1.54
		c12.689,0.18,24.65,4.87,24.65,4.87l0.02-0.03c0.96,0.64,1.939,1.24,2.99,1.8l-0.03,0.06
		C199.191,229.576,196.941,235.556,198.321,241.306z"/>
	<path fill="#F7C63C" d="M184.282,160.605c-1.461-0.39-2.65,0.69-2.65,0.69s-0.131-0.81-2.141-0.61c-1.9,0.35-2.439,2.15-2.439,2.15
		s-1.961-0.85-3,0.71c-0.26-1.99-2.67-6.8-3.09-12.47c-0.41-5.66,0.55-9.32,0.55-13.47c-8.3,3.63-26.56,1.15-25.87-19.42
		c0,0-7.78,14.35-28.01,14.35c-15.75,0.88-21.1-6.94-21.1-6.94s-4.65,18.14-14.391,19.9c0,0,0.93,10.14,0.82,18.92
		c0,0.01,0,0.02,0,0.02c-0.021,1.25-0.061,2.48-0.121,3.64c0,0-11.289-5-8.629-22c0,0-16.791-26.1,10.18-35.44
		c-5.189-12.97,5.49-38.89,32.17-24.9c1.55-11.93,32.16-23.87,43.05,0c4.771-8.49,29.271-3.99,24.421,14.64
		c8.819-4.67,27.52,14.37,16.559,30.25c4.621,0.45,14.621,15.79-0.969,23.52c1.41,6.03-1.67,14.74-8.351,17.02
		c-0.069,0.03-0.149,0.06-0.22,0.08c-0.131,0.29-2.381-6.99-3.25-7.7c-0.79-0.63-2.131-1.25-2.131-1.25
		S185.75,161.005,184.282,160.605z"/>
	<path fill="#F7D5C4" d="M168.301,201.666l-0.65-0.71c0.061-0.04,0.11-0.1,0.17-0.15c-3.27-4.06-2.189-8.98-1.02-11.31
		c1.16-2.33,6.83-4.25,6.109-19.66c0,0-0.33-5.08,0.971-5.99l0.17-0.3c1.039-1.56,3-0.71,3-0.71s0.539-1.8,2.439-2.15
		c2.01-0.2,2.141,0.61,2.141,0.61s1.189-1.08,2.65-0.69c1.469,0.4,1.389,1.69,1.389,1.69s1.341,0.62,2.131,1.25
		c0.869,0.71,3.119,7.99,3.25,7.7c0.07-0.02,0.15-0.05,0.22-0.08c0.569-0.06,3.08-0.13,4.34,3.62c-3.18,2.9-4.81,7.96-5.06,9.08
		c-2.141,5.17-3.381,10.68-6.73,13.05c0,0,39.08,21.45,50.15,33.55l0.08,0.11c0,0,3.66,4.5,1.619,8.13
		c-6.18,5.27-7.979,7.33-31.819,11c-1.149-0.88-4.41-3.7-5.53-8.4c-1.38-5.75,0.87-11.73,0.87-11.73l0.03-0.06
		c-1.051-0.56-2.03-1.16-2.99-1.8c-2.529-1.72-4.88-3.76-7.91-6.3C172.211,206.966,168.301,201.666,168.301,201.666z"/>
	<path fill="#F7D5C4" d="M154.021,165.375l-0.28-0.65c0,0-3.25-5.61-9.25-5.36s-9.5,6.5-9.5,6.5c0,0.75,3.73,3.88,9.381,4.05
		c5.64,0.16,6.699-3.5,8.969-4.3C153.571,165.536,153.801,165.446,154.021,165.375z M174.051,163.545l-0.17,0.3
		c-1.301,0.91-0.971,5.99-0.971,5.99c0.721,15.41-4.949,17.33-6.109,19.66c-1.17,2.33-2.25,7.25,1.02,11.31
		c-0.06,0.05-0.109,0.11-0.17,0.15c-4.6,4.38-10.65,6.99-16.18,8.55c-7.87,2.21-14.68,2.29-14.68,2.29s-2.24,2.1-5.19,3.41
		c-1.761,0.78-3.761,1.28-5.7,0.9c-5.18-1.04-9.09-5.62-9.09-5.62c-28.189-4.62-33.109-38.66-33.85-46.05c0,0,0-0.01,0-0.02
		c0.109-8.78-0.82-18.92-0.82-18.92c9.74-1.76,14.391-19.9,14.391-19.9s5.35,7.82,21.1,6.94c20.229,0,28.01-14.35,28.01-14.35
		c-0.689,20.57,17.57,23.05,25.87,19.42c0,4.15-0.96,7.81-0.55,13.47C171.381,156.746,173.792,161.556,174.051,163.545z
		 M105.511,166.416c0,0-2.431-6.1-7.41-6.75c-4.99-0.66-8.21,5.19-8.21,5.19s2.75,4.44,7.48,4.68
		C102.09,169.775,105.452,167.116,105.511,166.416z"/>
	<path fill="#3F3E6B" d="M164.792,223.246c2.24-0.3,4.52-0.41,6.77-0.37l-0.01,1.54c-9.75,13.79-13.4,33.69-14.68,43.96
		c-0.521,4.13-0.66,6.7-0.66,6.7s-1.5,4.5-5.66,4.34c-4.17-0.17-5-5.34-5-5.34s0.18-2.87,0.89-7.63c0.64-4.28,1.7-10.08,3.44-16.7
		c3.67-14,10.67-25,10.67-25l0.13-1.4C161.881,223.476,163.25,223.456,164.792,223.246z"/>
	<path fill="#A4BA24" d="M164.381,519.245c-0.07,0.7-0.221,1.391-0.461,2.07l-0.459-0.149c-1.061-7.79-8.471-10.12-15.58-10.271
		v-0.15l3.67-14.829l0.07-0.261c0.719,0.16,1.52,0.21,2.43,0.09c5.859-0.771,6.15-8.409,6.16-9.529
		c0.81-0.391,1.52-0.779,2.129-1.149l0.211,0.351c3.83,5,3.83,11.829,3.83,11.829S164.881,514.416,164.381,519.245z"/>
	<path fill="#F7D5C4" d="M160.211,486.216c-0.01,1.12-0.301,8.76-6.16,9.529c-0.91,0.12-1.711,0.07-2.43-0.09
		c-1.91-0.46-3.16-1.79-3.961-3.13c-0.979-1.641-1.279-3.28-1.279-3.28l0.189-1.061
		C152.261,489.115,156.991,487.745,160.211,486.216z"/>
	<path fill="#F7D5C4" d="M136.792,211.795c0,0,6.81-0.08,14.68-2.29l0.16,0.57c0,0-1.061,9.56,5.93,12.49l-0.3,0.68
		c-7.21,10.17-15.761,12.54-23.63,11.67c-7.08-1-6.87-9.29-6.87-9.29l-0.64-0.29c1.039-0.57,1.979-1.17,2.76-1.84
		c5-4.25,4.25-8.25,4.25-8.25l-1.53-0.04C134.551,213.895,136.792,211.795,136.792,211.795z"/>
	<path d="M146.071,164.605c2.36,0.94,1.18,2.83-1.18,2.59C142.532,166.956,143.711,163.656,146.071,164.605z"/>
	<path fill="#3F3E6B" d="M119.771,442.646l-0.39,0.1c-3.25,24.881-9.75,41-9.75,41s-2.141,2.08-5.95,2.979
		c-2.58,0.62-5.94,0.7-9.92-0.76c-0.64-0.24-1.29-0.51-1.96-0.83c-2-0.95-4.15-2.29-6.42-4.141c0,0-7.83-51.42-7.17-112.5
		c0.06-5.22,0.209-10.3,0.439-15.239c1.45-31.119,6.061-56.5,10.26-73.82c1.051-4.35,2.08-8.19,3.021-11.49l1.61,0.47
		c1.81-0.15,6.779-5.61,7.689-6.63c-1.199,4.14-1.85,6.73-1.85,6.73s-0.67,4.23,3.359,4.88c4.03,0.64,5.471-2.84,5.471-2.84
		s0.8-1.61,2.689-7.52l0.73,0.13c10,3.66,34.58,3.25,34.58,3.25l0.229,0.03c-0.71,4.76-0.89,7.63-0.89,7.63s0.83,5.17,5,5.34
		c4.16,0.16,5.66-4.34,5.66-4.34s0.14-2.57,0.66-6.7l0.34,0.04c5.3,12.229,10.25,13.97,16.84,14c-0.01,0.069-0.03,0.14-0.04,0.21
		c-5.091,26.831-9.421,52.91-10.671,89.581c-1.25,36.659,1.211,91.869,1.541,111.039c0,0-0.9,0.82-2.541,1.82
		c-0.609,0.369-1.319,0.76-2.129,1.149c-3.221,1.529-7.95,2.899-13.641,1.97c-2.81-0.46-5.85-1.479-9.07-3.319
		C137.5,484.865,128.241,477.115,119.771,442.646z"/>
	<path fill="#A4BA24" d="M137.301,510.825l9.25-17.75l1.109-0.55c0.801,1.34,2.051,2.67,3.961,3.13l-0.07,0.261l-3.67,14.829v0.15
		c-4.32-0.101-8.53,0.609-11.12,1.38l-0.341-1.12C136.952,510.916,137.301,510.825,137.301,510.825z"/>
	<path fill="#A4BA24" d="M122.811,226.846c1.17-0.46,2.29-0.97,3.311-1.51l0.64,0.29c0,0-0.21,8.29,6.87,9.29
		c7.869,0.87,16.42-1.5,23.63-11.67l0.3-0.68c0.9,0.39,1.93,0.66,3.12,0.78l-0.13,1.4c0,0-7,11-10.67,25
		c-1.74,6.62-2.801,12.42-3.44,16.7l-0.229-0.03c0,0-24.58,0.41-34.58-3.25l-0.73-0.13c0.73-2.32,1.631-5.29,2.721-9.08
		C117.34,240.986,122.431,227.815,122.811,226.846z"/>
	<path fill="#3F3E6B" d="M101.231,261.786c2.189-7.52,6.21-20.14,11.48-31.54l-0.061-0.2c3.15-0.89,6.87-1.89,10.16-3.2
		c-0.38,0.97-5.471,14.14-9.189,27.11c-1.09,3.79-1.99,6.76-2.721,9.08c-1.89,5.91-2.689,7.52-2.689,7.52s-1.44,3.48-5.471,2.84
		c-4.029-0.65-3.359-4.88-3.359-4.88S100.032,265.926,101.231,261.786z"/>
	<path fill="#A4BA24" d="M91.931,267.946c-0.94,3.3-1.97,7.14-3.021,11.49c-1.209-0.11-5.89-0.75-10.119-4.34
		c1.149-3.23,2.49-6.53,4.01-9.93c8.08-18.09,20.039-31.71,24.91-33.59c1.279-0.49,3-0.98,4.939-1.53l0.061,0.2
		c-5.271,11.4-9.291,24.02-11.48,31.54c-0.91,1.02-5.88,6.48-7.689,6.63L91.931,267.946z"/>
	<path fill="#A4BA24" d="M105.381,492.575v-1.659h0.83c0,0,4.17,2.329,5.34,10c1.16,7.659-0.5,9.159-0.5,9.159s-6.84,6.5-17,4
		c0,0-4,2.45-11.311,4.181c0.08-1.399,0.211-7.149-2.689-11.511c-0.95-1.42-2.221-2.539-3.551-3.42l0.051-0.08
		c0,0,13.5-6.329,15.83-8l0.92-0.899c1.32,1.181,3.38,2.439,5.91,2.07C103.711,495.745,105.381,492.575,105.381,492.575z"/>
	<path d="M98.141,164.525c2.04-0.72,2.77,2.45,0.779,2.51C96.931,167.085,96.102,165.236,98.141,164.525z"/>
	<path fill="#F7D5C4" d="M93.761,485.966c3.979,1.46,7.34,1.38,9.92,0.76l1.7,0.021v4.171v1.659c0,0-1.67,3.17-6.17,3.841
		c-2.53,0.369-4.59-0.891-5.91-2.07c-1.02-0.91-1.59-1.771-1.59-1.771v-0.659v-6.171l0.09-0.609
		C92.471,485.456,93.122,485.726,93.761,485.966z"/>
	<path fill="#A4BA24" d="M77.381,498.245c7.33-3.5,13.17-6.329,13.17-6.329h1.16v0.659c0,0,0.57,0.859,1.59,1.771l-0.92,0.899
		c-2.33,1.671-15.83,8-15.83,8l-0.051,0.08c-3.359-2.229-7.119-2.909-7.119-2.909l-0.01-0.21
		C71.691,500.046,74.051,499.836,77.381,498.245z"/>
	<path fill="#F7D5C4" d="M88.911,279.436c-4.199,17.32-8.81,42.7-10.26,73.82l-0.109-0.011c0,0-4.83-15.71-6.201-35.71
		c-0.34-15.561,1.431-28.459,6.451-42.439C83.021,278.686,87.702,279.326,88.911,279.436z"/>
	<path fill="#FFFFFF" d="M203.853,249.37c6.399-0.99,11.21-1.85,14.939-2.7l0.091,0.41l450,0.33v262.34l-473.33-0.67l1-257.67
		l-1.71-0.72C198.153,250.22,201.143,249.78,203.853,249.37z"/>
	<path fill="#FFFFFF" d="M136.752,511.94c2.591-0.771,6.811-1.48,11.131-1.381c7.109,0.15,14.52,2.48,15.579,10.271l0.46,0.15
		c-1.359,4.039-5.56,7.56-13.13,7.85c-8.83,0.33-19.08-1.25-19.08-8.25c-0.64-6.5,2.971-8.96,4.7-9.76L136.752,511.94z"/>
	<path fill="#FFFFFF" d="M153.743,164.39l0.28,0.65c-0.22,0.07-0.45,0.16-0.68,0.24c-2.271,0.8-3.33,4.46-8.98,4.3
		c-5.65-0.17-9.37-3.3-9.37-4.05c0,0,3.5-6.25,9.5-6.5S153.743,164.39,153.743,164.39z M144.893,166.86
		c2.359,0.24,3.529-1.65,1.18-2.59C143.712,163.32,142.533,166.62,144.893,166.86z"/>
	<path d="M146.073,164.27c2.35,0.94,1.18,2.83-1.18,2.59C142.533,166.62,143.712,163.32,146.073,164.27z"/>
	<path fill="#FFFFFF" d="M98.103,159.33c4.979,0.65,7.41,6.75,7.41,6.75c-0.061,0.7-3.42,3.36-8.15,3.12
		c-4.72-0.24-7.47-4.68-7.47-4.68S93.113,158.67,98.103,159.33z M98.922,166.7c1.98-0.06,1.261-3.23-0.779-2.51
		C96.103,164.9,96.933,166.75,98.922,166.7z"/>
	<path d="M98.143,164.19c2.04-0.72,2.76,2.45,0.779,2.51C96.933,166.75,96.103,164.9,98.143,164.19z"/>
	<path fill="#FFFFFF" d="M80.042,506.41c2.9,4.35,2.78,10.09,2.69,11.51c-1,0.23-2.061,0.46-3.19,0.66c-9.33,1.67-20.159-0.83-24-5
		c0,0-3.5-7,4.17-11.17c4.19-2.271,6.881-2.36,9.66-2.54l0.011,0.21c0,0,3.76,0.68,7.109,2.91
		C77.823,503.87,79.093,504.99,80.042,506.41z"/>
</g>
<g id="lines_1_">
	<path fill="none" stroke="#000000" stroke-width="3" stroke-linecap="round" stroke-linejoin="round" stroke-miterlimit="10" d="
		M145.645,117.849c0,0-7.781,14.35-28.014,14.35c-15.75,0.878-21.103-6.936-21.103-6.936s-4.647,18.135-14.386,19.897
		c0,0,1.212,13.246,0.693,22.584c0,0-11.289-5-8.623-22c0,0-16.797-26.108,10.179-35.446c-5.188-12.969,5.487-38.888,32.163-24.9
		c1.556-11.931,32.162-23.863,43.057,0c4.768-8.487,29.268-3.987,24.42,14.638c8.818-4.669,27.514,14.375,16.562,30.25
		c4.62,0.458,14.62,15.792-0.978,23.528c1.43,6.097-1.736,14.931-8.57,17.097c-0.131,0.295-2.375-6.994-3.25-7.699
		c-0.789-0.636-2.127-1.251-2.127-1.251s0.08-1.293-1.385-1.688c-1.466-0.395-2.652,0.691-2.652,0.691s-0.135-0.811-2.146-0.616
		c-1.891,0.356-2.431,2.151-2.431,2.151s-1.968-0.843-3.005,0.713c-0.26-1.988-2.672-6.801-3.088-12.467s0.543-9.32,0.543-13.47
		C163.208,140.905,144.954,138.424,145.645,117.849z"/>
	<path fill="none" stroke="#000000" stroke-width="1.5" stroke-linecap="round" stroke-linejoin="round" stroke-miterlimit="10" d="
		M97.215,125.077c-1.916-2.416-8.486-18.297,0.332-26.598c8.82-8.3,11.658,0.091,10.746,2.594c-0.91,2.503-3.65,4.919-6.244,1.807"
		/>
	<path fill="none" stroke="#000000" stroke-width="1.5" stroke-linecap="round" stroke-linejoin="round" stroke-miterlimit="10" d="
		M171.506,136.744c0,0,7.781-2.582,7.781-9.326s-6.14-8.201-9.855-5.188c-3.717,3.013-2.074,7.781,0.52,7.263"/>
	<path fill="none" stroke="#000000" stroke-width="3" stroke-linecap="round" stroke-linejoin="round" stroke-miterlimit="10" d="
		M82.836,162.694c0,0,2.326,42.27,33.971,47.457c0,0,3.91,4.579,9.098,5.617c5.188,1.037,10.883-4.312,10.883-4.312
		s19.928-0.212,31.029-10.982c-3.27-4.063-2.188-8.979-1.021-11.313c1.168-2.332,6.834-4.25,6.109-19.658
		c0,0-0.324-5.079,0.973-5.988"/>
	<path fill="none" stroke="#000000" stroke-width="3" stroke-linecap="round" stroke-linejoin="round" stroke-miterlimit="10" d="
		M191.159,170.853c0,0,3.027-0.638,4.453,3.599c-3.177,2.896-4.809,7.959-5.057,9.079c-2.141,5.165-3.383,10.677-6.732,13.055
		c0,0,39.078,21.441,50.146,33.546"/>
	<path fill="none" stroke="#000000" stroke-width="3" stroke-linecap="round" stroke-linejoin="round" stroke-miterlimit="10" d="
		M212.631,232.994c0,0-6.221-0.529-11.234-2.75c-5.016-2.221-8.158-5.037-13.079-9.166c-16.103-14.446-20.021-19.75-20.021-19.75"/>
	<path fill="none" stroke="#000000" stroke-width="3" stroke-linecap="round" stroke-linejoin="round" stroke-miterlimit="10" d="
		M151.631,209.745c0,0-1.68,15.166,13.16,13.166s31.424,4.5,31.424,4.5"/>
	<path fill="none" stroke="#000000" stroke-width="1.5" stroke-linecap="round" stroke-linejoin="round" stroke-miterlimit="10" d="
		M176.213,199.179c0,0,5.016-1.211,8.475-3.805"/>
	<path fill="none" stroke="#000000" stroke-width="1.5" stroke-linecap="round" stroke-linejoin="round" stroke-miterlimit="10" d="
		M178.743,180.161c0,0,0.672-7.932,0.498-9.879c-0.174-1.947-0.521-3.611-1.752-7.092"/>
	<path fill="none" stroke="#000000" stroke-width="1.5" stroke-linecap="round" stroke-linejoin="round" stroke-miterlimit="10" d="
		M183.006,179.293c0,0,0.854-6.744,0.162-9.511c-0.691-2.767-2.207-9.207-2.207-9.207"/>
	<path fill="none" stroke="#000000" stroke-width="1.5" stroke-linecap="round" stroke-linejoin="round" stroke-miterlimit="10" d="
		M186.286,178.411c0,0,0.532-6.193,0.262-8.332c-0.271-2.139-0.606-5.08-1.547-7.559"/>
	<path fill="none" stroke="#000000" stroke-width="1.5" stroke-linecap="round" stroke-linejoin="round" stroke-miterlimit="10" d="
		M190.231,171.51c0,0,0.713,10.117-0.455,11.934"/>
	<path fill="none" stroke="#000000" stroke-width="2" stroke-linecap="round" stroke-linejoin="round" stroke-miterlimit="10" d="
		M87.333,151.702c0,0,7.607-15.044,17.119-8.646"/>
	<path fill="none" stroke="#000000" stroke-width="2" stroke-linecap="round" stroke-linejoin="round" stroke-miterlimit="10" d="
		M127.795,144.439c0,0,4.465-5.927,14.524-3.978c10.06,1.949,15.574,8.462,15.574,8.462"/>
	<path fill="none" stroke="#000000" stroke-width="1.5" stroke-linecap="round" stroke-linejoin="round" stroke-miterlimit="10" d="
		M124.463,179.954c0,0,0.418,1.332-0.545,2.403c-0.951,1.346-2.197,1.507-2.691,1.161c-1.424-0.693-2.66-1.971-2.66-1.971
		s-1.555,1.043-0.939,1.941"/>
	<path fill="none" stroke="#000000" stroke-width="1.5" stroke-linecap="round" stroke-linejoin="round" stroke-miterlimit="10" d="
		M111.256,183.604c-1.625-0.818-3.475-2.34-2.862-5.579c0.612-3.239,5.038-4.521,5.038-4.521c4.511-3.977,2.695-16.083-0.419-19.716
		"/>
	<path fill="none" stroke="#000000" stroke-width="1.5" stroke-linecap="round" stroke-linejoin="round" stroke-miterlimit="10" d="
		M89.888,164.519c0,0,3.225-5.851,8.211-5.193c4.985,0.657,7.411,6.751,7.411,6.751c-0.059,0.701-3.416,3.367-8.143,3.127
		C92.644,168.959,89.888,164.519,89.888,164.519z"/>
	<path fill="none" stroke="#000000" stroke-width="4" stroke-linecap="round" stroke-linejoin="round" stroke-miterlimit="10" d="
		M98.142,164.186c2.043-0.717,2.765,2.456,0.778,2.51C96.935,166.749,96.1,164.902,98.142,164.186z"/>
	<path fill="none" stroke="#000000" stroke-width="1.5" stroke-linecap="round" stroke-linejoin="round" stroke-miterlimit="10" d="
		M153.743,164.389c0,0-3.25-5.613-9.25-5.363s-9.5,6.5-9.5,6.5c0,0.75,3.725,3.883,9.375,4.051c5.648,0.166,6.707-3.497,8.973-4.301
		c2.265-0.803,3.979-1.406,6.375-1.115"/>
	<path fill="none" stroke="#000000" stroke-width="4" stroke-linecap="round" stroke-linejoin="round" stroke-miterlimit="10" d="
		M146.069,164.266c-2.357-0.943-3.537,2.358-1.18,2.594C147.249,167.096,148.427,165.209,146.069,164.266z"/>
	<path fill="none" stroke="#000000" stroke-width="1.5" stroke-linecap="round" stroke-linejoin="round" stroke-miterlimit="10" d="
		M108.694,193.598c0,0,6.812,4.062,16.938,1.312c10.127-2.75,12.875-6.5,12.875-6.5l4.125,2"/>
	<path fill="none" stroke="#000000" stroke-width="1.5" stroke-linecap="round" stroke-linejoin="round" stroke-miterlimit="10" d="
		M120.631,200.661c0,0,3.625,2.125,7,0.25"/>
	<path fill="none" stroke="#000000" stroke-width="3" stroke-linecap="round" stroke-linejoin="round" stroke-miterlimit="10" d="
		M234.047,230.244c0,0,3.668,4.5,1.625,8.126c-7.457,6.374-8.541,8.041-49.791,13.541c0,0-6.791,3.541-11.875,30.376
		c-5.082,26.835-9.416,52.917-10.666,89.583s1.207,91.875,1.541,111.041c0,0-11.625,10.625-27.375,1.625
		c0,0-21.375-17.875-28.875-120.125"/>
	<path fill="none" stroke="#000000" stroke-width="3" stroke-linecap="round" stroke-linejoin="round" stroke-miterlimit="10" d="
		M119.381,442.411c-3.25,24.875-9.75,41-9.75,41s-6.002,5.844-15.871,2.215c-2.547-0.936-5.354-2.504-8.379-4.965
		c0,0-7.834-51.416-7.168-112.5c0.668-61.084,14.188-103.638,17.666-112.75"/>
	<path fill="none" stroke="#000000" stroke-width="3" stroke-linecap="round" stroke-linejoin="round" stroke-miterlimit="10" d="
		M78.545,352.911c0,0-4.832-15.709-6.207-35.709c-0.416-19.167,2.377-34.292,10.459-52.375
		c8.084-18.083,20.043-31.708,24.916-33.583c4.875-1.875,16.168-3.834,21.168-8.084s4.25-8.25,4.25-8.25"/>
	<path fill="none" stroke="#000000" stroke-width="1.5" stroke-linecap="round" stroke-linejoin="round" stroke-miterlimit="10" d="
		M126.756,225.286c0,0-0.209,8.292,6.875,9.292c7.875,0.875,16.416-1.5,23.625-11.667"/>
	<path fill="none" stroke="#000000" stroke-width="1.5" stroke-linecap="round" stroke-linejoin="round" stroke-miterlimit="10" d="
		M122.834,226.447c0,0-5.354,13.697-9.211,27.176c-3.859,13.478-5.408,16.602-5.408,16.602s-1.445,3.479-5.473,2.833
		s-3.361-4.873-3.361-4.873s5.168-20.607,13.334-38.273"/>
	<path fill="none" stroke="#000000" stroke-width="1.5" stroke-linecap="round" stroke-linejoin="round" stroke-miterlimit="10" d="
		M160.547,224.411c0,0-7,11-10.666,25c-3.668,14-4.334,24.334-4.334,24.334s0.834,5.167,5.002,5.333
		c4.166,0.166,5.664-4.334,5.664-4.334s1.668-31.333,15.334-50.666"/>
	<path fill="none" stroke="#000000" stroke-width="1.5" stroke-linecap="round" stroke-linejoin="round" stroke-miterlimit="10" d="
		M89.213,279.12c0,0-5.832-0.209-10.832-4.709"/>
	<path fill="none" stroke="#000000" stroke-width="1.5" stroke-linecap="round" stroke-linejoin="round" stroke-miterlimit="10" d="
		M101.381,261.286c0,0-5.836,6.626-7.836,6.792"/>
	<path fill="none" stroke="#000000" stroke-width="1.5" stroke-linecap="round" stroke-linejoin="round" stroke-miterlimit="10" d="
		M146.213,266.077c0,0-24.58,0.416-34.58-3.25"/>
	<path fill="none" stroke="#000000" stroke-width="1.5" stroke-linecap="round" stroke-linejoin="round" stroke-miterlimit="10" d="
		M174.211,282.076c-6.666,0.001-11.664-1.663-16.996-13.997"/>
	<path fill="none" stroke="#000000" stroke-width="1.5" stroke-linecap="round" stroke-linejoin="round" stroke-miterlimit="10" d="
		M199.194,229.244c0,0-2.25,5.979-0.875,11.729s5.938,8.688,5.938,8.688"/>
	<path fill="none" stroke="#000000" stroke-width="3" stroke-linecap="round" stroke-linejoin="round" stroke-miterlimit="10" d="
		M91.713,485.411v6.834c0,0,3,4.5,7.5,3.832c4.5-0.666,6.168-3.832,6.168-3.832v-5.834"/>
	<path fill="none" stroke="#000000" stroke-width="3" stroke-linecap="round" stroke-linejoin="round" stroke-miterlimit="10" d="
		M106.213,490.577c0,0,4.168,2.334,5.334,10c1.166,7.668-0.5,9.168-0.5,9.168s-6.834,6.5-17,4c0,0-5.168,3.166-14.5,4.832
		c-9.334,1.668-20.168-0.832-24-5c0,0-3.5-7,4.166-11.166c7.668-4.166,10.334-1,17.668-4.5c7.332-3.5,13.166-6.334,13.166-6.334"/>
	<path fill="none" stroke="#000000" stroke-width="1.5" stroke-linecap="round" stroke-linejoin="round" stroke-miterlimit="10" d="
		M69.381,500.077c0,0,7.334,1.334,10.666,6.334c3.334,5,2.668,11.834,2.668,11.834"/>
	<path fill="none" stroke="#000000" stroke-width="1.5" stroke-linecap="round" stroke-linejoin="round" stroke-miterlimit="10" d="
		M76.547,502.911c0,0,13.5-6.334,15.834-8"/>
	<path fill="none" stroke="#000000" stroke-width="3" stroke-linecap="round" stroke-linejoin="round" stroke-miterlimit="10" d="
		M146.381,488.909c0,0,1.334,7.334,7.666,6.5c6.334-0.832,6.166-8.332,6.166-8.332"/>
	<path fill="none" stroke="#000000" stroke-width="3" stroke-linecap="round" stroke-linejoin="round" stroke-miterlimit="10" d="
		M146.547,492.743l-9.25,17.75c0,0-6.418,1.582-5.584,10.084c0,7,10.25,8.582,19.084,8.25c8.834-0.334,13.084-5.084,13.584-9.918
		c0.498-4.834,2-22,2-22s1-5.834-2.834-10.834"/>
	<path fill="none" stroke="#000000" stroke-width="1.5" stroke-linecap="round" stroke-linejoin="round" stroke-miterlimit="10" d="
		M135.379,512.409c5.334-2.166,26.252-5.084,28.084,8.416"/>
	
		<line fill="none" stroke="#000000" stroke-width="1.5" stroke-linecap="round" stroke-linejoin="round" stroke-miterlimit="10" x1="147.879" y1="510.409" x2="151.547" y2="495.577"/>
	
		<polyline fill="none" stroke="#000000" stroke-width="3" stroke-linecap="round" stroke-linejoin="round" stroke-miterlimit="10" points="
		218.881,247.077 668.882,247.412 668.882,509.745 195.549,509.079 196.549,251.412 	"/>
</g>
</svg>
