<?xml version="1.0" encoding="utf-8"?>
<!-- Generator: Adobe Illustrator 16.0.0, SVG Export Plug-In . SVG Version: 6.00 Build 0)  -->
<!DOCTYPE svg PUBLIC "-//W3C//DTD SVG 1.1//EN" "http://www.w3.org/Graphics/SVG/1.1/DTD/svg11.dtd">
<svg version="1.1" id="Layer_1" xmlns="http://www.w3.org/2000/svg" xmlns:xlink="http://www.w3.org/1999/xlink" x="0px" y="0px"
	 width="330.618px" height="459.648px" viewBox="0 0 330.618 459.648" enable-background="new 0 0 330.618 459.648"
	 xml:space="preserve">
<g id="XMLID_5_">
	<path fill="#A4BA24" d="M219.834,236.076c-2.939-1.32-5.789-2.521-8.219-3.41c-4.681-1.711-8.48-2.121-8.48-2.121
		s-0.19,5.172,0,9.451c0.119,2.779,0.25,5.659,0.38,8.409l-0.11,0.011c-3.449-2.66-7.369-14.66-7.369-14.66h-0.051
		c-0.109-11.069-0.63-27.199-2.58-36.739c5.711,1.01,12.18,2.88,19.881,6.239c6.739,2.94,13.5,6.971,19.689,11.23
		c-13.26,3.5-12.689,20.601-12.689,20.601L219.834,236.076z"/>
	<path fill="#F7D5C4" d="M239.525,245.753c0,0-10.28-5.43-19.69-9.67v-0.01l0.451-0.99c0,0-0.57-17.1,12.689-20.6
		c14.359,9.87,25.67,20.96,26.68,22.52c1.45,2.222-1.279,12.631-7.199,24.281c-5.931,11.649-6.291,12.1-7.311,14.459
		c-1.01,2.36-5.34,9.391-9.051,13.439c-3.719,4.051-12.719,7.32-12.719,7.32s-0.25,0.021-0.621,0.021
		c-0.84,0-2.319-0.111-2.859-0.811c-0.76-0.051-1.609-0.25-2.29-0.451c-0.729-0.199-1.26-0.398-1.26-0.398s-2.08-1.4-1.74-3.201
		c0.34-1.799,6.75-8.22,10.69-16.77c0,0-1.311,0.47-2.871,0.52c-1.5,0.062-3.229-0.26-4.219-1.75c-1.181-1.76-1.23-2.818-1.08-3.41
		c0.119-0.42,0.35-0.59,0.35-0.59s4.05-0.22,8.21-1.568c4.16-1.352,7.649-0.79,7.649-0.79S233.485,266.326,239.525,245.753z"/>
	<path fill="#A4BA24" d="M210.655,337.625c1.04-0.84,2.32-1.629,3.74-2.309l0.26,0.559c-3.46,5.75-4.82,11.5-5.07,16.65l-0.43-0.021
		l-19.119-1.5l-0.771-0.02c0.06-4.99-3.62-6.34-6.24-6.67l0.07-0.539c0.3-0.432,1.649-2.15,4.06-2.15
		C189.905,341.625,205.405,341.875,210.655,337.625z"/>
	<path fill="#A4BA24" d="M209.584,352.525c-0.549,10.869,3.82,19.1,3.82,19.1l-0.109,0.271c-1.24-0.49-2.58-1.07-4.01-1.771
		c-12.631-6.119-17-6.5-17-6.5s-10-0.25-14.5-4.119h-0.121c0.01-0.689,0.041-1.42,0.08-2.199l1.16,0.068c0,0,9.57,3.07,10.32-5.559
		c0.029-0.291,0.04-0.57,0.04-0.83l0.771,0.02l19.119,1.5L209.584,352.525z"/>
	<path fill="#F7D5C4" d="M198.545,179.895c1.369-3.05,2.35-6.34,2.77-9.87l0.08-0.4c1.58-2.45,2.48-4.52,3.16-6.35l0.68,0.08
		c0,0,8.11-0.92,8.33,4.36c0.221,5.29-9.529,6.79-14.779,12.29L198.545,179.895z"/>
	<path fill="#3F3E6B" d="M196.036,233.753c0,0,3.92,12,7.369,14.66l0.11-0.01c0.409,8.49,0.79,15.83,0.79,15.83l-0.03,0.17
		c-0.33-0.061-0.659-0.109-0.989-0.15c-6-0.67-14.83,6.33-14.83,6.33c-0.301-6.08,1.199-13.459,1.199-13.459
		c-21.71,14.439-21.56,51.971-21.46,56.51c0,0.291,0.011,0.449,0.011,0.449c-5.17-26.658-42.92-40.08-42.92-40.08
		s-2.061,1.312-3.941,3.19c-0.379,0.38-0.859,0.71-1.389,0.99l-0.32-0.62l-0.891-20.22l0.12-0.011c0,0,4.04-4.83,6.25-20.619
		l0.14-0.021c0.601,4.5,1.32,9.141,2.19,13.73c0,0,5.841,4,11.5-0.842c0,0-1.489-6.199-2.84-15.898l0.431-0.061
		c0,0,28.92,0.069,48.17-2.561c0.149,5.09,0.149,10.109-0.091,14.52c0,0,5.5,4.17,11.33,0.17c0,0,0.101-4.988,0.04-12h0.051V233.753
		z"/>
	<path fill="#3F3E6B" d="M184.706,231.065c-0.41-14.51-1.949-29.561-2.25-32.35c1.291-0.95,2.601-1.99,3.881-3.091l0.449,0.53
		c2.11,0.17,4.301,0.44,6.621,0.86c1.949,9.54,2.469,25.67,2.579,36.739c0.06,7.011-0.04,12-0.04,12c-5.83,4-11.33-0.17-11.33-0.17
		C184.855,241.175,184.855,236.155,184.706,231.065z"/>
	<path fill="#F7D5C4" d="M183.025,344.316c2.62,0.328,6.3,1.68,6.24,6.67c0,0.26-0.011,0.539-0.04,0.83
		c-0.75,8.629-10.32,5.559-10.32,5.559l-1.16-0.068c0.221-3.9,0.9-8.82,2.721-13.061l0.02,0.01
		C180.485,344.253,181.595,344.134,183.025,344.316z"/>
	<path fill="#A4BA24" d="M182.456,198.715c0.301,2.789,1.84,17.84,2.25,32.35c-19.25,2.63-48.17,2.56-48.17,2.56l-0.43,0.062
		c-1.12-8-2.141-18.38-2.16-29.62c4.87,1.49,9.061,2.22,11.58,3.68c4.76,2.76,7.26,3.76,12.09,3.67c5.84-0.18,10.92-5.12,10.92-5.12
		s4.19-0.68,13-6.92C181.834,199.155,182.146,198.935,182.456,198.715z"/>
	<path fill="#3F3E6B" d="M120.275,313.833c0.37,0.051,0.729,0.111,1.091,0.17c11.17,2,21.25,4.58,27.42,7.25
		c2.779,1.211,10.369,4.762,17.859,8.301c9.08,4.301,18.01,8.57,18.01,8.57c-1.82,1.641-3.18,3.77-4.189,6.119
		c-1.82,4.24-2.5,9.16-2.721,13.061c-0.039,0.779-0.07,1.512-0.08,2.199c-0.049,2.842,0.121,4.75,0.121,4.75
		s-81.881-1.629-103-5.629c-21.131-4-19.131-28.871-15.881-33.371s13.711-8.67,20-14.34c6.29-5.66,24.881-7.738,24.881-7.738
		l0.029-0.041c4.95,3.461,10.49,7.041,16.471,10.619L120.275,313.833z"/>
	<path fill="#3F3E6B" d="M183.025,344.316c-1.43-0.182-2.54-0.062-2.54-0.062l-0.02-0.01c1.01-2.35,2.369-4.479,4.189-6.119
		c0,0-8.93-4.271-18.01-8.57l0.141-0.301c0,0,1.81-0.988,5.069-2.539c0.41-0.189,0.84-0.391,1.29-0.6l-0.17-0.801
		c4.68-9.939,15.811-26.311,39.561-21.811l5-8l0.069-0.24c0.681,0.201,1.53,0.4,2.29,0.451c0.54,0.699,2.02,0.811,2.859,0.811v0.068
		c23.621,0.311,34.181,5.9,40.9,9.32c7.131,3.629,8.471,14.619,8.25,20.67c-0.21,6.039-6.43,14.199-17.81,19.33
		c-11.37,5.119-21.81,5.33-21.81,5.33l-0.841,0.02c-0.13-6.189-1.021-11.68-1.909-14.51c-1.601-5.119-9.41-4.199-15.141-1.439
		c-1.42,0.68-2.7,1.471-3.74,2.311c-5.25,4.25-20.75,4-23.5,4c-2.41,0-3.76,1.721-4.06,2.15L183.025,344.316z"/>
	<path fill="#A02E2E" d="M222.456,276.714l-0.029-1.301c1.56-0.049,2.869-0.52,2.869-0.52c-3.939,8.55-10.35,14.971-10.689,16.77
		c-0.34,1.801,1.74,3.201,1.74,3.201s0.529,0.199,1.26,0.398l-0.07,0.24l-5,8c-23.75-4.5-34.88,11.869-39.56,21.811l0.17,0.801
		c-0.45,0.209-0.88,0.41-1.29,0.6l-0.01-0.02l0.939-10.861l-1.77-0.059c0.869-0.361,1.35-0.771,1.35-0.771
		C179.646,279.326,217.825,276.884,222.456,276.714z"/>
	<path fill="#F7D5C4" d="M133.945,204.065c-2.36-0.72-4.88-1.63-7.45-2.87c-2.14-1.04-4.31-2.32-6.459-3.94
		c-4.98-3.75-8.871-9.81-11.531-14.96c-2.5-4.85-3.909-8.89-4.09-9.449l1.83-8.74c0,0,0,0,4.2-2.33s5-7.19,5-7.19
		s4.261,4.59,21.94,3.05c20.529-2.79,26.6-20.06,27.07-31.729c6.06,14.47,20.529,22.4,28.459,19.6c0,11.2,7.94,13.47,7.94,13.47
		l0.54,10.65l-0.08,0.4c-0.42,3.53-1.4,6.82-2.77,9.87c-2.84,6.3-7.381,11.56-12.211,15.729c-1.279,1.101-2.59,2.141-3.879,3.091
		c-0.311,0.22-0.621,0.439-0.92,0.659c-8.811,6.24-13,6.92-13,6.92s-5.08,4.94-10.92,5.12c-4.83,0.09-7.33-0.91-12.091-3.67
		C143.004,206.285,138.815,205.555,133.945,204.065z"/>
	<path fill="#A02E2E" d="M164.366,315.253c1.42,0.74,2.689,1.021,3.789,1.051c1.18,0.029,2.15-0.229,2.86-0.529l1.771,0.061
		l-0.94,10.859l0.01,0.021c-3.26,1.549-5.069,2.539-5.069,2.539l-0.141,0.301c-7.49-3.541-15.08-7.09-17.859-8.301l2.08-0.08
		c1.09-0.779,1.579-1.699,1.629-2.01c1.61-0.189,2.91-2.891,2.91-2.891s0.311,0.42-0.23-0.99c-1.17-2.209-3.129-2.58-3.129-2.58
		s-14-4.939-14.82-7.25c-0.83-2.318,0.02-2.59,0.59-5.818c0.37-2.121-0.37-3.961-1.79-4.65l0.601-1.23
		C151.495,300.986,161.805,310.134,164.366,315.253z"/>
	<path fill="#3F3E6B" d="M136.105,233.685c1.351,9.699,2.84,15.898,2.84,15.898c-5.659,4.842-11.5,0.842-11.5,0.842
		c-0.87-4.592-1.59-9.23-2.19-13.73c-2.379-17.9-2.81-33.44-2.81-33.44l-0.21-0.789c2.17-0.61,4.17-1.091,4.17-1.091l0.09-0.18
		c2.57,1.24,5.09,2.15,7.45,2.87C133.965,215.305,134.985,225.685,136.105,233.685z"/>
	<path fill="#A02E2E" d="M133.295,294.945c-1.28,5.029-5.51,5.65-6.5,8.051c-10.101-6.939-12.66-12.17-19.07-18.551l0.061-0.07
		c0.5,0.092,1,0.17,1.489,0.28c10.101,1.87,19.38,5.21,27.351,9.101l-0.601,1.23C135.275,294.615,134.345,294.566,133.295,294.945z"
		/>
	<path fill="#F7D5C4" d="M150.866,321.175l-2.08,0.078c-6.17-2.67-16.25-5.25-27.42-7.25c-0.361-0.059-0.721-0.119-1.091-0.17
		l0.011-0.08c-5.98-3.578-11.521-7.158-16.471-10.619c-13.141-9.16-22.09-17.409-23.779-22.131c-2.33-6.5,5.119-28.129,5.119-28.129
		c0.131-0.33,0.26-0.649,0.391-0.971l0.24,0.1c0,0,14.59,2.842,21.92,9.012l0.27,0.17c-3.939,6.229-7.58,11.24-10.189,15.068
		c4.35,3.021,7.439,5.69,9.939,8.19c6.41,6.38,8.97,11.61,19.07,18.55c0.99-2.398,5.22-3.02,6.5-8.049
		c1.05-0.381,1.979-0.33,2.729,0.039c1.42,0.689,2.16,2.529,1.79,4.65c-0.57,3.229-1.42,3.5-0.59,5.818
		c0.82,2.311,14.82,7.25,14.82,7.25s1.959,0.371,3.129,2.58c0.541,1.41,0.23,0.99,0.23,0.99s-1.3,2.699-2.91,2.891
		C152.445,319.474,151.956,320.394,150.866,321.175z"/>
	<path fill="#A4BA24" d="M118.745,257.345l-0.629-14.45c-3.311,6.96-6.83,13.05-10.141,18.29l-0.27-0.17
		c-7.33-6.17-21.92-9.012-21.92-9.012l-0.24-0.1c15.789-39.38,27.029-45.67,31.99-47.9c1.049-0.47,2.93-1.05,4.699-1.539l0.21,0.789
		c0,0,0.431,15.54,2.81,33.44l-0.139,0.021c-2.211,15.789-6.25,20.619-6.25,20.619L118.745,257.345z"/>
	<path fill="#F7C63C" d="M192.917,145.505c-7.931,2.8-22.4-5.13-28.461-19.6c-0.47,11.67-6.539,28.94-27.07,31.73
		c-17.68,1.54-21.939-3.05-21.939-3.05s-0.8,4.86-5,7.19c-4.199,2.33-4.199,2.33-4.199,2.33l-1.83,8.74l-0.031,0.13
		c0,0-1.949-2.67-4.449-6.71c-0.76-1.23-1.58-2.59-2.4-4.04c-7-2.97-8.64-9.71-6.75-14.72c0,0-8.17-3.99-8.75-14.52
		c-0.58-10.54,8.33-16.56,8.33-16.56s-3.65-11.42,0.131-18.92c3.789-7.5,12.289-16.47,24.09-13.75c0,0,6.529-17.85,28.93-20.19
		c22.4-2.33,28.42,13.59,28.42,13.59s16.779-9.45,26.12,3.15c9.329,12.6,4.2,16.8,4.2,16.8s13.93,4,16.26,15.67
		c2.34,11.66-5.93,21.93-5.93,21.93s4.949,12.05-4.471,20.93c-1.92,2.26-2.43,4.61-3.56,7.64c-0.681,1.83-1.58,3.9-3.16,6.35
		l-0.54-10.65C200.855,158.975,192.917,156.705,192.917,145.505z"/>
	<path fill="#F7D5C4" d="M99.936,166.265c2.5,4.04,4.449,6.71,4.449,6.71l0.031-0.13c0.18,0.56,1.59,4.6,4.09,9.449l-0.03,0.021
		c-5.84-3.73-17.67-6.04-18.67-11.08c-0.521-6.23,9.729-4.73,9.729-4.73L99.936,166.265z"/>
	<path fill="#FFFFFF" d="M231.439,351.274c0.17,7.74-0.85,16.56-4.53,22.6c0,0-3.93,1.87-13.609-1.97v-0.01l0.109-0.271
		c0,0-4.369-8.229-3.819-19.1c0.26-5.15,1.62-10.9,5.069-16.65l-0.26-0.56c5.73-2.76,13.53-3.681,15.13,1.439
		C230.419,339.583,231.309,345.083,231.439,351.274z"/>
	<path fill="#FFFFFF" d="M188.449,270.583l0.21,0.67c-18.869,16.33-19.88,42.37-19.88,42.37l-0.59,0.01
		c-0.1-4.54-0.25-42.069,21.47-56.51C189.659,257.124,188.159,264.503,188.449,270.583z"/>
	<path fill="#FFFFFF" d="M222.419,275.414l0.029,1.3c-4.63,0.17-42.8,2.61-50.08,38.29c0,0-0.479,0.41-1.35,0.771
		c-0.71,0.3-1.68,0.56-2.87,0.53l0.05-2.221c0,0-0.01-0.16-0.01-0.45l0.59-0.01c0,0,1.011-26.04,19.88-42.37l-0.21-0.67
		c0,0,8.841-7,14.841-6.33c0.27,0.03,0.539,0.07,0.81,0.11c5.79,1,12.02,5.72,12.02,5.72l1.011,0.17
		c-0.16,0.59-0.101,1.65,1.069,3.41C219.199,275.154,220.919,275.484,222.419,275.414z"/>
	<path fill="#FFFFFF" d="M168.199,314.083l-0.05,2.221c-1.09-0.03-2.37-0.311-3.78-1.051c-2.56-5.12-12.869-14.26-27.739-21.5
		c-7.971-3.899-17.25-7.229-27.36-9.1l0.2-1.09l5.71-3.96c0,0,2.71-0.34,4.77-1.431c0.53-0.27,1.011-0.6,1.4-0.979
		c1.87-1.88,3.94-3.19,3.94-3.19S163.04,287.423,168.199,314.083z"/>
</g>
<g id="lines_2_">
	<path fill="none" stroke="#000000" stroke-width="3" stroke-linecap="round" stroke-linejoin="round" stroke-miterlimit="10" d="
		M164.452,125.905c-0.468,11.668-6.535,28.936-27.068,31.734c-17.682,1.531-21.934-3.053-21.934-3.053
		c-0.002,0.002-0.802,4.854-5.002,7.188c-4.201,2.332-4.201,2.332-4.201,2.332l-1.865,8.867c0,0-3.323-4.562-6.848-10.744
		c-7-2.977-8.643-9.711-6.75-14.727c0,0-8.171-3.984-8.75-14.521c-0.578-10.537,8.33-16.559,8.33-16.559s-3.648-11.42,0.137-18.92
		c3.783-7.5,12.283-16.469,24.082-13.75c0,0,6.533-17.852,28.935-20.184c22.401-2.334,28.418,13.584,28.418,13.584
		s16.782-9.451,26.118,3.15c9.332,12.6,4.199,16.801,4.199,16.801s13.935,4,16.268,15.668c2.334,11.666-5.936,21.93-5.936,21.93
		s4.949,12.051-4.465,20.938c-3.086,3.613-2.521,7.455-6.723,13.99l-0.545-10.656c0,0-7.934-2.266-7.934-13.467
		C184.986,148.305,170.518,140.374,164.452,125.905z"/>
	<path fill="none" stroke="#000000" stroke-width="1.5" stroke-linecap="round" stroke-linejoin="round" stroke-miterlimit="10" d="
		M115.568,153.788c1.957,1.453-8.7-8.447-4.159-17.742c5.25-10.75,18.791-8.25,17.625-2.668c-1.166,5.584-7.75,4.459-7.75,4.459"/>
	<path fill="none" stroke="#000000" stroke-width="1.5" stroke-linecap="round" stroke-linejoin="round" stroke-miterlimit="10" d="
		M192.993,144.836c0,0,9.807-4.33,6.34-10.729c-3.465-6.396-11.019-0.719-7.242,2.254"/>
	<path fill="none" stroke="#000000" stroke-width="3" stroke-linecap="round" stroke-linejoin="round" stroke-miterlimit="10" d="
		M104.381,172.776c0,0,5.619,16.904,15.652,24.477c10.033,7.57,20.734,7.734,25.492,10.492c4.758,2.758,7.258,3.758,12.092,3.674
		c5.834-0.182,10.916-5.121,10.916-5.121s4.193-0.68,13-6.92c8.809-6.24,18.209-16.129,19.785-29.352"/>
	<path fill="none" stroke="#000000" stroke-width="3" stroke-linecap="round" stroke-linejoin="round" stroke-miterlimit="10" d="
		M99.534,166.502c0,0-10.25-1.5-9.729,4.729c1.004,5.045,12.832,7.35,18.667,11.084"/>
	<path fill="none" stroke="#000000" stroke-width="1.5" stroke-linecap="round" stroke-linejoin="round" stroke-miterlimit="10" d="
		M104.659,175.502c0,0-4.875-5-9.875-4"/>
	<path fill="none" stroke="#000000" stroke-width="3" stroke-linecap="round" stroke-linejoin="round" stroke-miterlimit="10" d="
		M205.933,163.354c0,0,7.416-0.916,7.634,4.365c0.219,5.283-9.531,6.783-14.781,12.283"/>
	<path fill="none" stroke="#000000" stroke-width="1.5" stroke-linecap="round" stroke-linejoin="round" stroke-miterlimit="10" d="
		M201.784,173.002c0,0,2.5-4.25,7.25-4.5"/>
	<path fill="none" stroke="#000000" stroke-width="2" stroke-linecap="round" stroke-linejoin="round" stroke-miterlimit="10" d="
		M114.909,173.672c0,0,6.021-8.361,13.521-7.775s10.188,2.877,10.188,2.877"/>
	<path fill="none" stroke="#000000" stroke-width="1.5" stroke-linecap="round" stroke-linejoin="round" stroke-miterlimit="10" d="
		M119.569,180.856c0,0,6.85,7.777,16.37-0.412"/>
	<path fill="none" stroke="#000000" stroke-width="2" stroke-linecap="round" stroke-linejoin="round" stroke-miterlimit="10" d="
		M161.747,165.59c0,0,3.862-3.072,13.662-2.838c9.801,0.232,11.743,5.25,11.743,5.25"/>
	<path fill="none" stroke="#000000" stroke-width="1.5" stroke-linecap="round" stroke-linejoin="round" stroke-miterlimit="10" d="
		M164.481,177.918c0,0,8.572,6.201,16.979-1.412"/>
	<path fill="none" stroke="#000000" stroke-width="1.5" stroke-linecap="round" stroke-linejoin="round" stroke-miterlimit="10" d="
		M145.034,173.792c0,0,1.896,3.59,2.448,6.65s0.233,6.811,0.233,6.811s-4.119,1.992-3.728,5.295
		c0.394,3.301,6.761,6.762,11.662,2.094c1.166,1.635,5.761,0.16,2.959-3.34"/>
	<path fill="none" stroke="#000000" stroke-width="1.5" stroke-linecap="round" stroke-linejoin="round" stroke-miterlimit="10" d="
		M153.659,202.877c0,0,8.875-1.375,13.5-5.375"/>
	<path fill="none" stroke="#000000" stroke-width="1.5" stroke-linecap="round" stroke-linejoin="round" stroke-miterlimit="10" d="
		M163.659,195.002c0,0,2.75,2.75,8.5,3"/>
	<path fill="none" stroke="#000000" stroke-width="3" stroke-linecap="round" stroke-linejoin="round" stroke-miterlimit="10" d="
		M186.784,196.151c7.297,0.59,15.668,2.381,26.5,7.102c22.375,9.75,44.93,31.523,46.375,33.749
		c1.442,2.223-1.281,12.635-7.205,24.283c-5.931,11.646-6.293,12.098-7.307,14.459c-1.012,2.362-5.344,9.395-9.057,13.443
		c-3.711,4.051-12.711,7.312-12.711,7.312s-2.701,0.225-3.488-0.789c-1.574-0.111-3.543-0.844-3.543-0.844s-2.082-1.406-1.744-3.205
		c0.338-1.801,6.75-8.213,10.688-16.764c0,0-5.062,1.801-7.088-1.236c-2.025-3.037-0.729-3.994-0.729-3.994s4.049-0.225,8.212-1.573
		c4.163-1.353,7.648-0.789,7.648-0.789s0.153-0.979,6.188-21.552c0,0-17.675-9.348-27.904-13.086
		c-4.682-1.711-8.48-2.119-8.48-2.119s-0.188,5.166,0,9.443c0.496,11.385,1.167,23.17,1.167,23.17"/>
	<path fill="none" stroke="#000000" stroke-width="1.5" stroke-linecap="round" stroke-linejoin="round" stroke-miterlimit="10" d="
		M217.192,293.914c0,0,6.188-5.287,6.861-5.963c0.676-0.677,3.826-5.4,3.826-5.4"/>
	<path fill="none" stroke="#000000" stroke-width="1.5" stroke-linecap="round" stroke-linejoin="round" stroke-miterlimit="10" d="
		M219.709,294.744c0,0,4.683-3.867,6.031-4.77c1.352-0.898,4.389-4.95,4.389-4.95"/>
	
		<polyline fill="none" stroke="#000000" stroke-width="1.5" stroke-linecap="round" stroke-linejoin="round" stroke-miterlimit="10" points="
		222.029,296.048 228.892,291.21 232.604,286.938 	"/>
	
		<line fill="none" stroke="#000000" stroke-width="1.5" stroke-linecap="round" stroke-linejoin="round" stroke-miterlimit="10" x1="233.284" y1="268.001" x2="235.534" y2="268.251"/>
	<path fill="none" stroke="#000000" stroke-width="1.5" stroke-linecap="round" stroke-linejoin="round" stroke-miterlimit="10" d="
		M240.161,245.955c0.986-2.537,4.215-10.199,7.297-10.271"/>
	<path fill="none" stroke="#000000" stroke-width="3" stroke-linecap="round" stroke-linejoin="round" stroke-miterlimit="10" d="
		M109.472,283.565l5.708-3.959c0,0,4.292-0.541,6.167-2.416s3.938-3.188,3.938-3.188s37.75,13.42,42.918,40.086
		c0,0-1.67-41.586,21.455-56.961c0,0-1.5,7.375-1.207,13.459c0,0,8.834-7,14.834-6.334s12.832,5.834,12.832,5.834"/>
	<path fill="none" stroke="#000000" stroke-width="3" stroke-linecap="round" stroke-linejoin="round" stroke-miterlimit="10" d="
		M222.913,276.708c0,0-42.793,0.295-50.543,38.295c0,0-3.211,2.75-8.002,0.25c-4-8-26.896-25.812-56.584-30.875"/>
	<path fill="none" stroke="#000000" stroke-width="1.5" stroke-linecap="round" stroke-linejoin="round" stroke-miterlimit="10" d="
		M168.784,313.626c0,0,1.002-26.047,19.875-42.375"/>
	<path fill="none" stroke="#000000" stroke-width="3" stroke-linecap="round" stroke-linejoin="round" stroke-miterlimit="10" d="
		M172.972,325.316c4.688-9.939,15.812-26.312,39.562-21.812l5-8"/>
	
		<line fill="none" stroke="#000000" stroke-width="1.5" stroke-linecap="round" stroke-linejoin="round" stroke-miterlimit="10" x1="171.847" y1="326.691" x2="172.784" y2="315.835"/>
	
		<line fill="none" stroke="#000000" stroke-width="1.5" stroke-linecap="round" stroke-linejoin="round" stroke-miterlimit="10" x1="165.534" y1="328.001" x2="164.118" y2="315.919"/>
	<path fill="none" stroke="#000000" stroke-width="3" stroke-linecap="round" stroke-linejoin="round" stroke-miterlimit="10" d="
		M126.409,201.377c0,0-6.525,1.566-8.875,2.625c-5,2.25-16.375,8.625-32.375,48.875c0,0-7.457,21.627-5.123,28.125
		c2.334,6.5,18.4,19.67,40.248,32.75"/>
	<path fill="none" stroke="#000000" stroke-width="3" stroke-linecap="round" stroke-linejoin="round" stroke-miterlimit="10" d="
		M150.864,321.171c1.094-0.777,1.583-1.699,1.633-2.008c1.61-0.188,2.904-2.895,2.904-2.895s0.311,0.43-0.225-0.984
		c-1.17-2.209-3.135-2.584-3.135-2.584s-13.994-4.938-14.82-7.25s0.023-2.59,0.595-5.812c0.572-3.221-1.45-5.809-4.519-4.689
		c-1.281,5.025-5.514,5.648-6.504,8.047c-14.041-9.648-13.51-15.992-29.01-26.742c4.812-7.041,13.076-18.112,20.326-33.362
		l1.527,34.671"/>
	<path fill="none" stroke="#000000" stroke-width="1.5" stroke-linecap="round" stroke-linejoin="round" stroke-miterlimit="10" d="
		M140.063,314.029c4.578,1.453,11.229,3.807,13.514,4.168"/>
	<path fill="none" stroke="#000000" stroke-width="1.5" stroke-linecap="round" stroke-linejoin="round" stroke-miterlimit="10" d="
		M127.392,303.523c0,0-0.647,1.354-0.729,2.354"/>
	<path fill="none" stroke="#000000" stroke-width="1.5" stroke-linecap="round" stroke-linejoin="round" stroke-miterlimit="10" d="
		M85.784,252.001c0,0,14.062,2.314,21.396,8.48"/>
	<path fill="none" stroke="#000000" stroke-width="1.5" stroke-linecap="round" stroke-linejoin="round" stroke-miterlimit="10" d="
		M122.45,203.254c0,0,0.666,24.333,5,47.167c0,0,5.832,4,11.5-0.834c0,0-5-20.836-5-45.835"/>
	<path fill="none" stroke="#000000" stroke-width="1.5" stroke-linecap="round" stroke-linejoin="round" stroke-miterlimit="10" d="
		M182.409,198.252c0,0,3.207,29.001,2.207,47.335c0,0,5.502,4.166,11.334,0.166c0,0,0.666-34-2.666-49.333"/>
	<path fill="none" stroke="#000000" stroke-width="1.5" stroke-linecap="round" stroke-linejoin="round" stroke-miterlimit="10" d="
		M118.868,257.335c0,0,4.041-4.834,6.25-20.625"/>
	<path fill="none" stroke="#000000" stroke-width="1.5" stroke-linecap="round" stroke-linejoin="round" stroke-miterlimit="10" d="
		M136.534,233.626c0,0,28.938,0.062,48.188-2.562"/>
	<path fill="none" stroke="#000000" stroke-width="1.5" stroke-linecap="round" stroke-linejoin="round" stroke-miterlimit="10" d="
		M196.034,233.751c0,0,3.918,12,7.375,14.666"/>
	<path fill="none" stroke="#000000" stroke-width="1.5" stroke-linecap="round" stroke-linejoin="round" stroke-miterlimit="10" d="
		M220.284,235.085c0,0-0.584-17.583,13.25-20.75"/>
	<path fill="none" stroke="#000000" stroke-width="3" stroke-linecap="round" stroke-linejoin="round" stroke-miterlimit="10" d="
		M103.788,303.169c0,0-18.588,2.08-24.879,7.748c-6.289,5.666-16.75,9.832-20,14.332s-5.25,29.377,15.875,33.377
		s103,5.625,103,5.625s-1.625-18.5,6.875-26.125c0,0-29.711-14.207-35.875-16.875c-6.164-2.67-16.25-5.248-27.416-7.25
		s-28.748,3.916-28.748,3.916"/>
	<path fill="none" stroke="#000000" stroke-width="3" stroke-linecap="round" stroke-linejoin="round" stroke-miterlimit="10" d="
		M178.909,357.376c0,0,9.562,3.062,10.312-5.561c0.75-8.625-7.312-7.562-7.312-7.562"/>
	<path fill="none" stroke="#000000" stroke-width="3" stroke-linecap="round" stroke-linejoin="round" stroke-miterlimit="10" d="
		M183.034,343.876c0,0,1.375-2.25,4.125-2.25s18.25,0.25,23.5-4s16.875-7.25,18.875-0.875s4,26.25-2.625,37.125
		c0,0-5,2.375-17.625-3.75s-17-6.5-17-6.5s-10-0.25-14.5-4.125"/>
	<path fill="none" stroke="#000000" stroke-width="1.5" stroke-linecap="round" stroke-linejoin="round" stroke-miterlimit="10" d="
		M213.409,371.626c0,0-9.5-17.875,1.25-35.75"/>
	
		<line fill="none" stroke="#000000" stroke-width="1.5" stroke-linecap="round" stroke-linejoin="round" stroke-miterlimit="10" x1="190.034" y1="351.001" x2="209.159" y2="352.501"/>
	<path fill="none" stroke="#000000" stroke-width="3" stroke-linecap="round" stroke-linejoin="round" stroke-miterlimit="10" d="
		M166.782,329.251c0,0,14.977-8.219,36.572-14.24c11.66-3.25,19.764-7.01,35.425-5.883"/>
	<path fill="none" stroke="#000000" stroke-width="3" stroke-linecap="round" stroke-linejoin="round" stroke-miterlimit="10" d="
		M232.284,351.25c0,0,10.439-0.209,21.814-5.334s17.596-13.287,17.811-19.332c0.215-6.043-1.125-17.041-8.25-20.666
		s-18.548-9.668-45.214-9.336"/>
</g>
</svg>
