<?xml version="1.0" encoding="utf-8"?>
<!-- Generator: Adobe Illustrator 16.0.0, SVG Export Plug-In . SVG Version: 6.00 Build 0)  -->
<!DOCTYPE svg PUBLIC "-//W3C//DTD SVG 1.1//EN" "http://www.w3.org/Graphics/SVG/1.1/DTD/svg11.dtd">
<svg version="1.1" id="Layer_1" xmlns="http://www.w3.org/2000/svg" xmlns:xlink="http://www.w3.org/1999/xlink" x="0px" y="0px"
	 width="320.324px" height="560px" viewBox="0 0 320.324 560" enable-background="new 0 0 320.324 560" xml:space="preserve">
<g id="XMLID_3_">
	<path fill="#F7D5C4" d="M274.714,138.384c0,0,2.16,2.65,1.32,5.32c-0.24,0.75-0.78,1.72-1.48,2.77h-1
		c-0.35,0.19-6.54,3.66-7.55,2.74c-1.03-0.95-1.87-1.61-1.94-2.71l0.051-0.63c-1.101,0-2.091-0.58-2.761-1.98l-0.05-0.76
		c0.72-0.04,1.279-1.04,3.641-3.31c3.17-3.08,6.229-7.46,6.229-7.46l1.12-0.11c0,0,1.96,0.25,2.67,2.06
		C275.663,136.134,274.714,138.384,274.714,138.384z"/>
	<path fill="#F7D5C4" d="M260.403,142.814c-1.449-0.83-1.369-2.19-1.369-2.19l0.09-0.82c0.13,0.02,0.25,0.03,0.369,0.03
		c1.9,0.05,4.03-0.3,5.291-3.09c1.26-2.78-4.461-3.36-4.461-3.36l-6.039-3.05l0.35-0.69c0.05-0.02,0.05-0.02,0.05-0.02
		s12.74-12.65,14.431-14.66c1.68-2,6.149-1.53,5.93,0.97c-0.221,2.51-5.85,10.14-5.85,10.14s2.729,1.05,3.109,3.73
		c0.09,0.75-0.01,2.45-0.01,2.45l-1.12,0.11c0,0-3.06,4.38-6.229,7.46c-2.361,2.27-2.921,3.27-3.641,3.31
		C261.054,143.145,260.784,143.035,260.403,142.814z"/>
	<path fill="#F7D5C4" d="M260.403,142.814c0.381,0.22,0.65,0.33,0.9,0.32l0.05,0.76c0.67,1.4,1.66,1.98,2.761,1.98l-0.051,0.63
		c0.07,1.1,0.91,1.76,1.94,2.71c1.01,0.92,7.2-2.55,7.55-2.74h1c-1.82,2.7-4.73,5.97-6.51,7.72c-2.461,2.44-5.561,3.72-9.26,4.04
		c-3.701,0.32-3.351,0.79-3.351,0.79s-11.89,24.44-19.33,34.91c-2.89,4.08-9.45,11.01-16.38,17.96
		c-0.17-12.64-12.5-18.81-12.5-18.81l-1.971-0.26c6.791-5.03,13.361-10.44,15.65-13.93c5.771-8.1,17.461-20.51,18.711-23.05
		c1.25-2.53,4.709-9.65,5.879-14.41c1.17-4.76,2.65-9.61,5.92-10.71c2.451-0.83,3.07-1.03,3.221-1.08l-0.35,0.69l6.039,3.05
		c0,0,5.721,0.58,4.461,3.36c-1.261,2.79-3.391,3.14-5.291,3.09c-0.119,0-0.24-0.01-0.369-0.03l-0.09,0.82
		C259.034,140.625,258.954,141.984,260.403,142.814z"/>
	<path fill="#A4BA24" d="M197.015,233.785c0,0,0.779,9.91,1.49,22.4l-0.99,0.06c-1.09-1.35-3.8-6.42-3.8-6.42l-0.46,0.05
		c-1.26-12.08-5.01-33.03-16-40.58l-0.12-1.26c3.71-0.39,7.17-1.39,10-2.96c2.42-1.34,10.42-6.55,18.12-12.25l1.97,0.26
		c0,0,12.33,6.17,12.5,18.81C208.833,222.814,197.015,233.785,197.015,233.785z"/>
	<path fill="#3F3E6B" d="M193.714,249.824c0,0,2.71,5.07,3.8,6.42l0.99-0.06c0.63,11.01,1.21,24.04,1.17,34.05
		c-0.091,21.359,6.2,58.39-28.25,180.989c0,0-1.931,2.53-6.2,3.479c-2.83,0.63-6.7,0.561-11.71-1.409
		c-1.37-0.54-2.83-1.221-4.38-2.07c0,0-5.41-30.399-1.35-72.62l-0.381-0.159l-30.699,72.279c0,0-3.84,1.38-8.951,1.359
		c-3.959-0.01-8.67-0.859-12.969-3.84c-1.801-1.239-3.531-2.859-5.101-4.949c0,0,15.54-58.771,19.59-103.69l5.74-83.569
		c1.08-2.35,2.101-4.62,2.97-6.66l0.75,0.04c0,0,9.54,4.31,21.7-11.9h0.17c0.08,5.36,0.08,10.89,0.08,10.89s0.681,3.72,5.07,4.06
		c4.39,0.33,5.399-4.06,5.399-4.06s0.24-5.38,0.12-14.77l1.15-0.01l33.521-3.12l0.139-0.01c0.451,7.33,0.201,11.83,0.201,11.83
		s0.959,2.8,4.66,1.45c3.689-1.35,2.939-5,2.939-5s-0.08-3.6-0.631-8.9L193.714,249.824z"/>
	<path fill="#F7D5C4" d="M126.944,176.334c0.35-0.04,2.979-5.06-4.391-7.76c-7.38-2.71-7.42-13.2-7.42-13.2l1.13-1.1
		c2.01,2.79,4.16,6.51,7.46,9.66c0.65-3.3-0.74-9.69-0.85-11.8c-0.121-2.1-1.01-8.76-6.811-11.39c6.721-1.98,8.95-12.9,4.2-23.43
		c22.3,3.68,35.989-10.36,41.62-20.94c2.98,5.52,17.04,6.64,23.369,4.71c3.511,3.51,6.48,5.08,9.291,12.8
		c0.029-0.03,0.05-0.06,0.08-0.1c1.289,4.54,2.369,10.02,4.22,14.13c2.01,4.47,5.84,11.02,5.84,22.52s-3.26,17.98-8.01,27.49
		c-0.22,3.56-0.271,6.38-4.24,10.3c-3.96,3.92-10.22,3.58-10.22,3.58c-6.1,1.92-11.721,2.59-16.62,2.58v0.39
		c0,0-1.39,10.65,3.19,12.88l-0.4,0.97c0,0,10.13,11.82-3.381,13.17c-13.51,1.35-24.549-11.08-24.549-11.08l-2.86-0.32
		c1.3-0.24,2.08-0.34,2.08-0.34s1.44-4.05,1.14-7.13c-0.279-2.89-1.48-5.99-1.63-6.36l-0.069,0.03
		c-3.011-8.16-11.871-19.67-11.871-19.67c-0.039,0.01-0.08,0.03-0.119,0.03L126.944,176.334z M194.503,131.274
		c-0.029-0.83-0.459-1.71-0.459-1.71c-5.141-6.98-10.4,3.03-11.32,5.53l0.029,0.67c1.971,1.07,5.57,0.71,8.91-0.8
		C194.304,133.515,194.503,131.274,194.503,131.274z M155.304,149.294c4.98-2.03,6.391-5.03,6.26-5.03
		c-3.16-4.29-7.24-5.4-11.97-2.47c-4.08,2.87-5.25,7.81-5.25,7.81S150.323,151.314,155.304,149.294z"/>
	<path d="M189.384,128.995c1.04,0.08,1.9,2.2,1.14,2.65C189.773,132.104,188.333,128.904,189.384,128.995z"/>
	<path fill="#3F3E6B" d="M171.743,208.165c1.83,0.1,3.631,0.05,5.391-0.13l0.119,1.26c10.99,7.55,14.74,28.5,16,40.58
		c0.551,5.3,0.631,8.9,0.631,8.9s0.75,3.65-2.939,5c-3.701,1.35-4.66-1.45-4.66-1.45s0.25-4.5-0.201-11.83
		c-0.239-3.98-0.689-8.8-1.489-14.18c-2.021-17.39-12.92-27.19-12.92-27.19L171.743,208.165z"/>
	<path fill="#A4BA24" d="M168.384,208.625l0.4-0.97c0.41,0.2,0.859,0.33,1.369,0.38c0.53,0.05,1.061,0.1,1.59,0.13l-0.069,0.96
		c0,0,10.899,9.8,12.92,27.19c0.8,5.38,1.25,10.2,1.489,14.18l-0.139,0.01l-33.521,3.12l-1.15,0.01c-0.03-1.89-0.06-3.96-0.12-6.17
		c-0.34-13.17-6.229-27.17-14.33-35.61l-0.229-1.27c0.36-0.07,0.69-0.13,1-0.19l2.86,0.32c0,0,11.039,12.43,24.549,11.08
		C178.515,220.444,168.384,208.625,168.384,208.625z"/>
	<path fill="#A4BA24" d="M166.614,478.324l3.799,3.29c9.83,7.649,13.9,8.88,17.961,10.279l-0.23,1.12
		c-2.57,0.09-4.76,0.58-6.62,1.351l-0.22-0.59c-12.67-6.08-16.971-12.16-16.971-12.16l-0.25-0.601c0.57-0.229,1.16-0.529,1.771-0.92
		l0.261-1.84L166.614,478.324z"/>
	<path fill="#F7D5C4" d="M166.614,474.774l-0.5,3.479l-0.261,1.84c-0.61,0.391-1.2,0.689-1.771,0.92
		c-6.149,2.569-10.389-2.949-10.389-2.949l-0.051-0.841l-0.21-3.72l0.08-0.21c5.01,1.97,8.88,2.039,11.71,1.409L166.614,474.774z"/>
	<path d="M155.765,142.484c0.93,2.42-0.721,4.21-2.4,1.99C151.694,142.254,154.833,140.054,155.765,142.484z"/>
	<path fill="#A4BA24" d="M145.583,486.425c1.781-8.609,6.591-9.12,6.591-9.12l1.47-0.08l0.051,0.841c0,0,4.239,5.52,10.389,2.949
		l0.25,0.601c0,0,4.301,6.08,16.971,12.16l0.22,0.59c-8.96,3.689-10.35,13.59-10.35,13.59l-0.22,0.88
		c-7.28-1.76-9.271-4.97-14.351-8.1c-6.59-4.051-10.26-5.439-11.271-7.721C144.323,490.734,145.583,486.425,145.583,486.425z"/>
	<path fill="#3F3E6B" d="M151.273,253.634c0.12,9.39-0.12,14.77-0.12,14.77s-1.01,4.39-5.399,4.06c-4.39-0.34-5.07-4.06-5.07-4.06
		s0-5.53-0.08-10.89c-0.05-3.28-0.13-6.5-0.26-8.36c-0.67-20.28-14.09-34.02-14.511-34.44c-0.01-0.01-0.01-0.01-0.01-0.01
		l-0.379-1.09c4.26-1.55,8.43-2.5,11.149-3.03l0.229,1.27c8.101,8.44,13.99,22.44,14.33,35.61
		C151.214,249.674,151.243,251.745,151.273,253.634z"/>
	<path fill="#A4BA24" d="M115.015,276.035c-0.66,1.43-1.35,2.89-2.04,4.34l-0.319-0.15c-13.181,0.95-17.4-8.16-18.531-11.75
		c2.33-7.14,4.011-12.06,4.011-12.06s6.92-23.14,13.17-33.27c2.729-4.44,8.51-7.49,14.14-9.53l0.381,1.09c0,0,0,0,0.01,0.01
		c0.42,0.42,13.84,14.16,14.51,34.44c0.13,1.86,0.21,5.08,0.26,8.36h-0.17c-12.16,16.21-21.699,11.9-21.699,11.9l-0.75-0.04
		C117.114,271.415,116.094,273.685,115.015,276.035z"/>
	<path fill="#F7D5C4" d="M126.944,176.334l0.18,0.62c-6.521,2-15.91-7.84-16.98-10.05c-1.891-3.84-5.37-16.16-0.15-16.8
		c2.551-0.31,4.351,1.51,6.271,4.17l-1.13,1.1c0,0,0.04,10.49,7.42,13.2C129.924,171.274,127.294,176.294,126.944,176.334z"/>
	<path fill="#F7C63C" d="M161.884,96.375c-5.631,10.58-19.32,24.62-41.62,20.94c4.75,10.53,2.521,21.45-4.2,23.43
		c5.801,2.63,6.69,9.29,6.811,11.39c0.109,2.11,1.5,8.5,0.85,11.8c-3.3-3.15-5.45-6.87-7.46-9.66c-1.92-2.66-3.72-4.48-6.271-4.17
		c-5.22,0.64-1.739,12.96,0.15,16.8c1.07,2.21,10.46,12.05,16.98,10.05c0.039,0,0.08-0.02,0.119-0.03c0,0,8.86,11.51,11.871,19.67
		c0.119,0.33,0.229,0.65,0.33,0.97c-7.511-4.47-15.861-8.87-25.671-7.29s-11.13-9.31-11.13-9.31s-11.17,3.34-17.93-5.71
		c-6.76-9.04-2.37-19.49-2.37-19.49s-13.57-5.9-15.271-21.85c-1.699-15.94,7.891-22.66,7.891-22.66s-7.58-15.98,3.689-28.45
		c11.26-12.46,26.34-8.95,26.34-8.95s8.721-13.02,21.891-16.26c13.17-3.23,27.449-0.42,34.12,8.01
		c5.649-1.23,18.18-2.64,25.899,5.26c2.41,2.47,5.881,9.13,5.57,14.44c10.1,5.03,7.88,21.58,2.15,28.48
		c-0.03,0.04-0.051,0.07-0.08,0.1c-2.811-7.72-5.78-9.29-9.29-12.8C178.924,103.015,164.864,101.895,161.884,96.375z"/>
	<path fill="#A4BA24" d="M119.474,498.284c-2.609-0.489-4.92-0.54-6.971-0.271l-0.1-0.699c0,0-6.34-7.851-8.359-17.73l-0.2-0.909
		c0.61-0.141,1.229-0.37,1.84-0.729l0.78-2.2l0.109,0.04c0,0,1.271-1.01,6.08,9.12c4.811,10.13,6.84,11.91,6.84,11.91
		s0.07,0.04,0.211,0.109L119.474,498.284z"/>
	<path fill="#F7D5C4" d="M107.753,472.084v0.03l-1.289,3.63l-0.78,2.2c-0.61,0.359-1.229,0.59-1.84,0.729
		c-5.431,1.239-10.44-5.42-10.44-5.42l0.25-1.021l0.93-3.71l0.201-0.28C99.083,471.225,103.794,472.074,107.753,472.084z"/>
	<path fill="#A4BA24" d="M104.044,479.584c2.02,9.881,8.359,17.73,8.359,17.73l0.1,0.699c-10.92,1.41-14.289,11.721-14.289,11.721
		l-0.48,0.649c-2.41-1.819-4.68-4.46-6.609-8.25c-4.811-8.87-6.211-12.54-6.211-12.54l2.41-8.229c0,0,3.041-9.38,5.32-9.38
		l1.01,0.25l-0.25,1.021c0,0,5.01,6.659,10.44,5.42L104.044,479.584z"/>
	<path fill="#F7D5C4" d="M65.604,362.614c-3.489-2.851,0.12-11.399,0.12-11.399l8.96-14l2.25-7.841c0,0,0,0,4.56-18.75
		c2.86-11.76,8.681-30.108,12.631-42.149c1.129,3.59,5.35,12.7,18.529,11.75l0.32,0.15c-4.77,10.061-9.95,20.12-9.95,20.12
		c-4.56,17.221-14.69,35.46-14.69,38.99c0,3.529,0,3.819,2.791,8.12c2.789,4.31,2.529,6.59,3.92,8.359
		c1.4,1.779,2.789,3.42,0.76,4.939c-2.02,1.521-4.43,1.649-7.971-3.16c-3.549-4.819-4.819-1.021-4.819-1.021
		c-2.021,12.42-0.79,17.771-2.06,20.301c-1.26,2.529-4.65,1.489-4.65,1.489l-0.82-3.931c0,0-3.49-2.021-5.39-5.439
		C66.804,368.005,65.604,362.614,65.604,362.614z"/>
	<path d="M189.377,128.99c1.05,0.09,1.91,2.2,1.149,2.66C189.767,132.1,188.327,128.9,189.377,128.99z"/>
	<path d="M155.767,142.48c0.93,2.43-0.72,4.21-2.399,1.99C151.687,142.25,154.837,140.06,155.767,142.48z"/>
	<path fill="#FFFFFF" d="M119.477,498.28l0.23-1.36c1.35,0.72,8.84,4.97,8.149,10.28c-0.76,5.83-7.31,6.88-13.89,7.13
		c-4.58,0.18-10.76,0.21-16.23-3.95l0.48-0.649c0,0,3.37-10.301,14.28-11.721C114.547,497.74,116.867,497.79,119.477,498.28z"/>
	<path fill="#FFFFFF" d="M193.467,494.03c6.83,3.54,4.05,13.68,4.05,13.68s-4.05,3.29-18.49,2.28c-3.3-0.23-5.93-0.63-8.08-1.16
		l0.221-0.87c0,0,1.39-9.9,10.359-13.6c1.86-0.761,4.051-1.261,6.62-1.351l0.221-1.109
		C189.957,492.46,191.547,493.03,193.467,494.03z"/>
	<path fill="#FFFFFF" d="M182.717,135.09c0.92-2.5,6.19-12.51,11.33-5.53c0,0,0.42,0.88,0.46,1.71c0,0-0.2,2.24-2.84,3.7
		c-3.34,1.51-6.94,1.87-8.92,0.79L182.717,135.09z M189.377,128.99c-1.05-0.09,0.39,3.11,1.149,2.66
		C191.287,131.19,190.427,129.08,189.377,128.99z"/>
	<path fill="#FFFFFF" d="M155.767,142.48c-0.93-2.42-4.08-0.23-2.399,1.99C155.047,146.69,156.696,144.91,155.767,142.48z
		 M149.597,141.8c4.72-2.93,8.811-1.83,11.96,2.47c0.13,0-1.27,2.99-6.25,5.02c-4.99,2.03-10.96,0.31-10.96,0.31
		S145.517,144.67,149.597,141.8z"/>
</g>
<g id="line_1_">
	<path fill="none" stroke="#000000" stroke-width="3" stroke-linecap="round" stroke-linejoin="round" stroke-miterlimit="10" d="
		M161.882,96.376c-5.631,10.582-19.314,24.623-41.613,20.936c4.741,10.535,2.516,21.453-4.202,23.429
		c5.796,2.634,6.689,9.291,6.806,11.397c0.115,2.107,1.508,8.501,0.849,11.793c-6.46-6.15-8.493-14.47-13.722-13.828
		s-1.744,12.965,0.143,16.804c1.088,2.217,10.573,12.167,17.102,10.019c0,0,9.588,12.446,12.207,20.637
		c-7.515-4.463-15.867-8.871-25.676-7.29c-9.808,1.579-11.125-9.307-11.125-9.307s-11.178,3.334-17.936-5.708
		c-6.762-9.043-2.372-19.489-2.372-19.489s-13.562-5.901-15.263-21.849c-1.699-15.947,7.889-22.665,7.889-22.665
		s-7.578-15.978,3.688-28.444c11.264-12.465,26.338-8.957,26.338-8.957s8.721-13.022,21.889-16.255
		c13.17-3.234,27.451-0.426,34.126,8.003c5.646-1.228,18.174-2.633,25.899,5.269c2.412,2.466,5.883,9.13,5.565,14.432
		c10.149,5.058,7.867,21.739,2.071,28.587c-2.809-7.726-5.783-9.294-9.295-12.801C178.927,103.012,164.864,101.892,161.882,96.376z"
		/>
	<path fill="none" stroke="#000000" stroke-width="1.5" stroke-linecap="round" stroke-linejoin="round" stroke-miterlimit="10" d="
		M120.971,116.872c0,0-19.14-4.563-12.817-19.841c6.32-15.277,19.666-7.375,18.262-3.161s-7.728,4.917-8.077,2.81"/>
	<path fill="none" stroke="#000000" stroke-width="3" stroke-linecap="round" stroke-linejoin="round" stroke-miterlimit="10" d="
		M194.298,112.659c1.435,4.725,2.54,10.796,4.548,15.261c2.007,4.465,5.841,11.016,5.841,22.518s-3.268,17.974-8.009,27.488
		c-0.226,3.564-0.274,6.381-4.24,10.299c-3.965,3.916-10.228,3.576-10.228,3.576c-21.09,6.637-36.428-1.586-36.428-1.586"/>
	<path fill="none" stroke="#000000" stroke-width="1.5" stroke-linecap="round" stroke-linejoin="round" stroke-miterlimit="10" d="
		M126.941,176.333c0.349-0.042,2.981-5.057-4.392-7.763c-7.373-2.708-7.414-13.2-7.414-13.2"/>
	<path fill="none" stroke="#000000" stroke-width="2" stroke-linecap="round" stroke-linejoin="round" stroke-miterlimit="10" d="
		M131.683,136.22c2.307-6.031,12.016-20.084,25.281-13.904"/>
	<path fill="none" stroke="#000000" stroke-width="2" stroke-linecap="round" stroke-linejoin="round" stroke-miterlimit="10" d="
		M177.519,116.328c4.338-5.095,8.827-7.089,16.333-2.375"/>
	<path fill="none" stroke="#000000" stroke-width="1.5" stroke-linecap="round" stroke-linejoin="round" stroke-miterlimit="10" d="
		M173.743,153.217c0,0,0.211,1.456,1.615,2.031c1.518,0.843,2.777,0.427,3.086-0.127c1.033-1.309,1.623-3.085,1.623-3.085
		s1.955,0.279,1.78,1.412"/>
	<path fill="none" stroke="#000000" stroke-width="1.5" stroke-linecap="round" stroke-linejoin="round" stroke-miterlimit="10" d="
		M172.655,123.145c-1.297,4.873,2.514,17.194,8.611,18.908c0,0,4.784-0.807,6.848,1.987c2.062,2.796,1.191,6.88-1.455,8.333"/>
	<path fill="none" stroke="#000000" stroke-width="1.5" stroke-linecap="round" stroke-linejoin="round" stroke-miterlimit="10" d="
		M144.349,149.6c0,0,1.17-4.932,5.245-7.802c4.726-2.93,8.81-1.824,11.966,2.469c0.132-0.001-1.273,2.996-6.256,5.023
		C150.321,151.316,144.349,149.6,144.349,149.6z"/>
	<path fill="none" stroke="#000000" stroke-width="4" stroke-linecap="round" stroke-linejoin="round" stroke-miterlimit="10" d="
		M153.366,144.473c-1.676-2.218,1.474-4.415,2.4-1.992C156.696,144.906,155.042,146.694,153.366,144.473z"/>
	<path fill="none" stroke="#000000" stroke-width="1.5" stroke-linecap="round" stroke-linejoin="round" stroke-miterlimit="10" d="
		M182.722,135.093c0.919-2.503,6.188-12.512,11.32-5.532c0,0,0.428,0.879,0.464,1.712c0,0-0.198,2.239-2.841,3.695
		c-3.338,1.509-6.938,1.872-8.914,0.792"/>
	<path fill="none" stroke="#000000" stroke-width="4" stroke-linecap="round" stroke-linejoin="round" stroke-miterlimit="10" d="
		M189.381,128.991c-1.05-0.087,0.389,3.109,1.146,2.658C191.286,131.195,190.427,129.076,189.381,128.991z"/>
	<path fill="none" stroke="#000000" stroke-width="1.5" stroke-linecap="round" stroke-linejoin="round" stroke-miterlimit="10" d="
		M161.335,174.654c0,0,4.255-4.47,3.738-8.917"/>
	<path fill="none" stroke="#000000" stroke-width="1.5" stroke-linecap="round" stroke-linejoin="round" stroke-miterlimit="10" d="
		M165.065,170.245c0,0,20.942-0.04,26.1-10.448"/>
	<path fill="none" stroke="#000000" stroke-width="1.5" stroke-linecap="round" stroke-linejoin="round" stroke-miterlimit="10" d="
		M183.866,172.31c0,0,3.953-0.193,5.515-2.76"/>
	<path fill="none" stroke="#000000" stroke-width="3" stroke-linecap="round" stroke-linejoin="round" stroke-miterlimit="10" d="
		M139.171,196.526c0,0,1.346,3.316,1.644,6.397c0.298,3.08-1.137,7.133-1.137,7.133s-22.127,2.957-28.375,13.09
		S98.13,256.414,98.13,256.414s-12.073,35.465-16.633,54.209c-4.562,18.746-4.562,18.746-4.562,18.746l-2.257,7.842l-8.952,14.008
		c0,0-3.608,8.549-0.127,11.398c0,0,1.203,5.383,4.497,6.522c1.898,3.42,5.383,5.445,5.383,5.445l0.823,3.928
		c0,0,3.388,1.045,4.653-1.487c1.267-2.533,0.033-7.886,2.06-20.3c0,0,1.267-3.799,4.812,1.015c3.547,4.813,5.953,4.688,7.979,3.168
		c2.026-1.521,0.634-3.168-0.76-4.941c-1.394-1.772-1.14-4.053-3.927-8.358c-2.787-4.308-2.787-4.591-2.787-8.121
		c0-3.531,10.134-21.771,14.693-38.996c0,0,13.426-26.091,16.973-36.224c3.547-10.133,3.547-10.133,3.547-10.133"/>
	<path fill="none" stroke="#000000" stroke-width="1.5" stroke-linecap="round" stroke-linejoin="round" stroke-miterlimit="10" d="
		M75.144,358.9c0,0-0.232,6.946,0.653,14.799"/>
	<path fill="none" stroke="#000000" stroke-width="1.5" stroke-linecap="round" stroke-linejoin="round" stroke-miterlimit="10" d="
		M70.773,358.121c0,0-0.043,5.699,0.591,10.893"/>
	<path fill="none" stroke="#000000" stroke-width="1.5" stroke-linecap="round" stroke-linejoin="round" stroke-miterlimit="10" d="
		M66.973,357.656c0,0-0.042,5.403,0.78,7.748"/>
	<path fill="none" stroke="#000000" stroke-width="1.5" stroke-linecap="round" stroke-linejoin="round" stroke-miterlimit="10" d="
		M112.657,280.223c-16.381,1.181-18.914-13.172-18.914-13.172"/>
	<path fill="none" stroke="#000000" stroke-width="3" stroke-linecap="round" stroke-linejoin="round" stroke-miterlimit="10" d="
		M165.598,194.775c0,0-1.649,12.628,4.558,13.259c6.209,0.63,12.418-0.428,16.976-2.957c4.558-2.53,28.881-18.75,33.776-26.179
		c5.767-8.103,17.461-20.516,18.707-23.049c1.246-2.533,4.709-9.651,5.877-14.416c1.17-4.764,2.657-9.61,5.924-10.707
		c3.267-1.099,3.267-1.099,3.267-1.099s12.743-12.65,14.431-14.659c1.687-2.01,6.152-1.538,5.935,0.97
		c-0.22,2.505-5.854,10.133-5.854,10.133s2.731,1.051,3.115,3.729c0.089,0.753-0.014,2.448-0.014,2.448s1.96,0.256,2.666,2.069
		c0.709,1.812-0.24,4.071-0.24,4.071s2.154,2.648,1.312,5.32c-0.842,2.674-5.521,8.046-7.982,10.485
		c-2.461,2.44-5.566,3.718-9.264,4.042c-3.695,0.322-3.351,0.788-3.351,0.788s-11.896,24.437-19.327,34.907
		c-7.432,10.47-39.098,39.857-39.098,39.857s2.75,35.08,2.661,56.445c-0.089,21.366,6.204,58.388-28.246,180.993
		c0,0-6.587,8.613-22.292,0c0,0-5.405-30.401-1.354-72.62"/>
	<path fill="none" stroke="#000000" stroke-width="3" stroke-linecap="round" stroke-linejoin="round" stroke-miterlimit="10" d="
		M164.835,357.406l-48.127,113.315c0,0-16.889,6.08-27.021-7.432c0,0,15.537-58.766,19.59-103.688l5.742-83.765"/>
	<path fill="none" stroke="#000000" stroke-width="1.5" stroke-linecap="round" stroke-linejoin="round" stroke-miterlimit="10" d="
		M254.275,130.331l6.046,3.05c0,0,5.719,0.584,4.461,3.367c-1.256,2.785-3.389,3.133-5.291,3.086
		c-1.903-0.045-4.668-1.643-4.668-1.643s2.332,5.383,0.336,9.145"/>
	
		<line fill="none" stroke="#000000" stroke-width="1.5" stroke-linecap="round" stroke-linejoin="round" stroke-miterlimit="10" x1="262.348" y1="133.06" x2="268.495" y2="126.517"/>
	<path fill="none" stroke="#000000" stroke-width="1.5" stroke-linecap="round" stroke-linejoin="round" stroke-miterlimit="10" d="
		M271.174,132.365c0,0-3.056,4.377-6.234,7.455c-3.181,3.079-3.091,3.833-4.539,2.996c-1.446-0.835-1.364-2.193-1.364-2.193"/>
	<path fill="none" stroke="#000000" stroke-width="1.5" stroke-linecap="round" stroke-linejoin="round" stroke-miterlimit="10" d="
		M273.161,138.952c0,0-3.789,4.131-5.926,5.705c-2.139,1.575-4.607,1.903-5.88-0.761"/>
	<path fill="none" stroke="#000000" stroke-width="1.5" stroke-linecap="round" stroke-linejoin="round" stroke-miterlimit="10" d="
		M273.562,146.468c0,0-6.521,3.693-7.554,2.746c-1.033-0.947-1.877-1.61-1.948-2.705"/>
	<path fill="none" stroke="#000000" stroke-width="1.5" stroke-linecap="round" stroke-linejoin="round" stroke-miterlimit="10" d="
		M250.883,157.163c0,0,1.722,0.985,5.36,0.455"/>
	<path fill="none" stroke="#000000" stroke-width="1.5" stroke-linecap="round" stroke-linejoin="round" stroke-miterlimit="10" d="
		M207.224,193.086c0,0,12.834,6.416,12.496,19.589"/>
	<path fill="none" stroke="#000000" stroke-width="1.5" stroke-linecap="round" stroke-linejoin="round" stroke-miterlimit="10" d="
		M125.823,214.704c0,0,13.846,13.849,14.524,34.451c0.342,4.894,0.337,19.252,0.337,19.252s0.676,3.715,5.066,4.053
		c4.391,0.337,5.404-4.053,5.404-4.053s0.336-7.77,0-20.942c-0.339-13.173-6.228-27.166-14.332-35.611"/>
	<path fill="none" stroke="#000000" stroke-width="1.5" stroke-linecap="round" stroke-linejoin="round" stroke-miterlimit="10" d="
		M140.456,210.711c0,0,11.037,12.437,24.547,11.085c13.511-1.352,3.378-13.174,3.378-13.174"/>
	<path fill="none" stroke="#000000" stroke-width="1.5" stroke-linecap="round" stroke-linejoin="round" stroke-miterlimit="10" d="
		M171.678,209.127c0,0,10.894,9.795,12.92,27.191c2.278,15.282,1.688,26.006,1.688,26.006s0.961,2.797,4.654,1.445
		c3.695-1.35,2.947-4.991,2.947-4.991s-0.846-39.856-17.396-49.987"/>
	<path fill="none" stroke="#000000" stroke-width="1.5" stroke-linecap="round" stroke-linejoin="round" stroke-miterlimit="10" d="
		M197.683,226.103c0,0-2.699,5.149-0.673,11.229"/>
	<path fill="none" stroke="#000000" stroke-width="1.5" stroke-linecap="round" stroke-linejoin="round" stroke-miterlimit="10" d="
		M118.735,269.417c0,0,9.543,4.305,21.701-11.907"/>
	
		<line fill="none" stroke="#000000" stroke-width="1.5" stroke-linecap="round" stroke-linejoin="round" stroke-miterlimit="10" x1="152.426" y1="253.627" x2="185.948" y2="250.502"/>
	<path fill="none" stroke="#000000" stroke-width="1.5" stroke-linecap="round" stroke-linejoin="round" stroke-miterlimit="10" d="
		M193.716,249.828c0,0,2.703,5.066,3.801,6.418"/>
	<path fill="none" stroke="#000000" stroke-width="3" stroke-linecap="round" stroke-linejoin="round" stroke-miterlimit="10" d="
		M94.583,468.525l-1.182,4.729c0,0,6.206,8.232,12.286,4.687l2.067-5.826"/>
	<path fill="none" stroke="#000000" stroke-width="3" stroke-linecap="round" stroke-linejoin="round" stroke-miterlimit="10" d="
		M106.575,475.787c0,0,1.268-1.014,6.08,9.119s6.84,11.905,6.84,11.905s9.119,4.56,8.358,10.388
		c-0.76,5.826-7.304,6.883-13.89,7.135c-6.586,0.254-16.508,0.211-22.842-12.201c-4.812-8.867-6.207-12.541-6.207-12.541
		l2.408-8.231c0,0,3.039-9.373,5.318-9.373"/>
	<path fill="none" stroke="#000000" stroke-width="1.5" stroke-linecap="round" stroke-linejoin="round" stroke-miterlimit="10" d="
		M98.216,509.732c0,0,4.812-14.693,21.531-11.4"/>
	<path fill="none" stroke="#000000" stroke-width="1.5" stroke-linecap="round" stroke-linejoin="round" stroke-miterlimit="10" d="
		M112.401,497.318c0,0-6.332-7.853-8.359-17.732"/>
	<path fill="none" stroke="#000000" stroke-width="3" stroke-linecap="round" stroke-linejoin="round" stroke-miterlimit="10" d="
		M153.438,473.508l0.254,4.56c0,0,5.066,6.586,12.159,2.026l0.761-5.319"/>
	<path fill="none" stroke="#000000" stroke-width="3" stroke-linecap="round" stroke-linejoin="round" stroke-miterlimit="10" d="
		M152.172,477.307c0,0-4.812,0.507-6.587,9.119c0,0-1.266,4.308-0.252,6.586c1.013,2.281,4.686,3.674,11.271,7.728
		c6.586,4.053,7.979,8.231,22.419,9.246c14.438,1.014,18.492-2.279,18.492-2.279s2.786-10.133-4.054-13.68
		c-6.84-3.548-9.372-1.773-23.053-12.412l-3.799-3.293"/>
	<path fill="none" stroke="#000000" stroke-width="1.5" stroke-linecap="round" stroke-linejoin="round" stroke-miterlimit="10" d="
		M171.171,507.959c0,0,2.025-14.439,16.973-14.947"/>
	<path fill="none" stroke="#000000" stroke-width="1.5" stroke-linecap="round" stroke-linejoin="round" stroke-miterlimit="10" d="
		M164.331,481.613c0,0,4.307,6.08,16.973,12.16"/>
</g>
</svg>
