<?xml version="1.0" encoding="utf-8"?>
<!-- Generator: Adobe Illustrator 16.0.0, SVG Export Plug-In . SVG Version: 6.00 Build 0)  -->
<!DOCTYPE svg PUBLIC "-//W3C//DTD SVG 1.1//EN" "http://www.w3.org/Graphics/SVG/1.1/DTD/svg11.dtd">
<svg version="1.1" id="Layer_1" xmlns="http://www.w3.org/2000/svg" xmlns:xlink="http://www.w3.org/1999/xlink" x="0px" y="0px"
	 width="550.471px" height="259.646px" viewBox="0 0 550.471 259.646" enable-background="new 0 0 550.471 259.646"
	 xml:space="preserve">
<g id="XMLID_7_">
	<path fill="#F7D5C4" d="M379.004,93.756c5.42-5.18,10.761-8.67,13.13-10.109c0.02-0.011,0.04-0.021,0.061-0.029
		c7.99-3.671,16.75-8.87,16.75-8.87c5.77,8.029,24.149,4.43,24.149,4.43s-4.76,8.19,2.811,22.03c8.699,18.27,25,19.12,25,19.12
		c-18.88,8.229-13.271,25.77-6.42,31.71c-3.75,1.779-7.46,2.479-12.4,5.3c-4.93,2.811-18.71,9.95-18.71,9.95l10.32,1.35
		c0,0,2.6,0.73,3.68,4.32c2.67,8.01-10.11,11.01-10.58,11.18h-0.01l-0.66,0.07c-8.33,0.33-14.66-1.5-16.66-4.33
		c-2-2.84-1.34-3.67-1.34-3.67s-3.66-0.021-9.721-1.771c-0.02,0-0.049-0.011-0.079-0.021c-1.671-0.49-3.53-1.11-5.54-1.891
		c-5.46-2.119-11.43-8.561-15.45-13.551c-2.87-3.56-4.75-6.39-4.75-6.39s-7.28-2.84-8.58-7.97c-0.899-3.57,0.021-7.32,0.649-9.271
		c0.281-0.85,0.511-1.359,0.511-1.359c-0.82-2.859-1.25-5.63-1.36-8.29c0-0.021,0-0.029,0-0.05
		C363.313,112.176,371.233,101.206,379.004,93.756z"/>
	<path fill="#F7D5C4" d="M408.125,176.206c0,0-0.66,0.83,1.34,3.67c2,2.83,8.33,4.66,16.66,4.33l0.66-0.07h0.01
		c4.48,4.801,17.49,4.41,23.4,1.311l0.3,0.561c-0.44,0.46-14.62,15.101-30.45,18.87c-7.47,1.78-21.42-0.34-36.01-3.34l0.2-0.99
		c-0.62-1.68-5.57-16.479,8.56-26.84l0.229-0.82c1.83,0.521,3.601,1.03,5.301,1.53c0.029,0.01,0.06,0.021,0.08,0.021
		C404.464,176.187,408.125,176.206,408.125,176.206z"/>
	<path fill="#3F3E6B" d="M392.785,172.526c2.01,0.779,3.87,1.399,5.54,1.891c-1.7-0.5-3.471-1.01-5.301-1.53
		c-4.409-1.25-9.109-2.52-13.699-3.63c-11.75-5.04-21.02-6.96-30.26-8.18c-6.851-0.92-13.7-1.46-21.521-2.62c0,0-8.5-5.75-0.25-11
		c0,0,11.761,1.529,25.72,4.64c7.98,1.771,16.68,4.07,24.32,6.88C381.354,163.966,387.324,170.406,392.785,172.526z"/>
	<path fill="#A4BA24" d="M379.324,169.256c4.59,1.11,9.29,2.38,13.7,3.63l-0.23,0.82c-14.13,10.359-9.18,25.16-8.561,26.84
		l-0.199,0.99c-16.82-3.48-34.48-8.12-43.99-9.33c-3.97-0.5-9.37-0.54-15.71-0.311l-0.04-1.189c-0.75-8.75,2.25-24.5,24.75-29.5
		l0.02-0.13C358.304,162.296,367.574,164.216,379.324,169.256z"/>
	<path fill="#F7C63C" d="M392.194,83.616c-0.021,0.01-0.041,0.02-0.061,0.029c-1.119,0.511-2.23,1-3.29,1.431
		c0,0-0.11-3.91,2.74-8.2c2.21-3.33,6.2-6.9,13.42-9.04c0,0,16.35-26.391,36.38-6.05c9.48-10.261,37.47-11.771,36.311,18.33
		c11.439-3.73,35.37,18.779,18.51,38.869c9.71,0.66,16.189,24.71-2.71,28.341c8,5.96-1.149,31.029-20.189,27.96
		c1.569,4.369-7.97,19.989-21.67,9.239c-0.41,0.33-0.899,0.641-1.439,0.92c-5.91,3.101-18.92,3.49-23.4-1.311
		c0.47-0.17,13.25-3.17,10.58-11.18c-1.08-3.59-3.68-4.32-3.68-4.32l-10.32-1.35c0,0,13.78-7.141,18.71-9.95
		c4.94-2.82,8.65-3.521,12.4-5.3c-6.851-5.94-12.46-23.48,6.42-31.71c0,0-16.3-0.852-25-19.12c-7.57-13.84-2.811-22.03-2.811-22.03
		s-18.38,3.601-24.15-4.43C408.944,74.746,400.185,79.946,392.194,83.616z"/>
	<path fill="#A4BA24" d="M372.584,152.586c0,0,1.88,2.83,4.75,6.39c-7.64-2.81-16.34-5.108-24.319-6.88l0.029-0.14l-4.75-20.5
		l0.17-0.63c6.15,1.68,12.07,3.35,16.189,4.52c-0.629,1.95-1.549,5.7-0.649,9.271C365.304,149.746,372.584,152.586,372.584,152.586z
		"/>
	<path fill="#F7D5C4" d="M392.134,83.646c-2.369,1.439-7.71,4.931-13.13,10.109c-3.59-5.45-10.71-3.55-10.71-3.55l-0.1-0.101
		c4.199-4.431,7.88-7.989,9.77-9.021c4.66-2.55,13.62-4.21,13.62-4.21c-2.851,4.29-2.74,8.2-2.74,8.2
		C389.903,84.646,391.015,84.156,392.134,83.646z"/>
	<path fill="#3F3E6B" d="M365.165,133.986c0,0-0.23,0.511-0.51,1.359c-4.12-1.17-10.04-2.84-16.19-4.52
		c-9.479-2.591-19.521-5.21-24.42-6.12c0,0-4.12-4.74,0.479-8.48c3.211,0.421,6.471,0.94,9.761,1.551
		c9.489,1.761,19.25,4.33,29.05,7.939l0.471-0.021C363.915,128.356,364.344,131.126,365.165,133.986z"/>
	<path fill="#A4BA24" d="M363.334,125.716c-9.8-3.609-19.56-6.18-29.05-7.939l0.01-0.069c0,0,8.83,0.33,16.12-7.88
		c4.34-4.88,11.62-13.23,17.78-19.721l0.1,0.101c0,0,7.12-1.9,10.71,3.55c-7.771,7.45-15.69,18.42-15.2,31.891
		c0,0.021,0,0.029,0,0.051L363.334,125.716z"/>
	<path fill="#3F3E6B" d="M163.294,93.086c0,0,15.17-44.38,75.75,29.37c0,0,38.26-12.5,85.48-6.23c-4.601,3.74-0.48,8.48-0.48,8.48
		c4.9,0.91,14.939,3.529,24.42,6.12l-0.17,0.63l4.75,20.5l-0.029,0.14c-13.961-3.109-25.721-4.64-25.721-4.64
		c-8.25,5.25,0.25,11,0.25,11c7.82,1.16,14.67,1.7,21.52,2.62l-0.02,0.13c-22.5,5-25.5,20.75-24.75,29.5l0.04,1.189
		c-22.04,0.819-55.56,4.949-80.79,4.561c-7.45-0.11-14.54-3.261-21.1-8.21c0.43,0.01,0.439,0-0.03-0.03
		c-14.03-10.63-25.56-29.569-32.62-44.8c-4.029-8.681-6.609-16.16-7.38-20.21c-2.06,7.76-4.08,15.14-6.261,22.41
		c-3.909,12.989-8.359,25.648-14.609,39.59c0,0-2.061,0.029-5.17-0.38c-0.9-0.11-1.88-0.261-2.93-0.46
		c-3.891-0.74-8.641-2.12-13.021-4.7c-0.31-0.17-0.62-0.36-0.92-0.561c-2.68-1.689-5.18-3.87-7.21-6.649c0,0,1.4-8.09,5.75-21.65
		C142.614,136.576,150.424,116.326,163.294,93.086z"/>
	<path fill="#3F3E6B" d="M156.375,184.826c3.11,0.409,5.17,0.38,5.17,0.38c6.25-13.94,10.7-26.601,14.61-39.59
		c6-0.78,12.14-1.96,13.64-2.2c7.06,15.229,18.59,34.17,32.62,44.8c0.01,0.01,0.02,0.01,0.029,0.03
		c-3.459-0.04-33.799-0.92-65.799-2.13l-0.181,0.05c-0.069-0.29-0.11-0.45-0.11-0.45L156.375,184.826z"/>
	<path fill="#A4BA24" d="M156.464,186.166c0.42,1.71,1.83,7.97,1.131,11.939c0,0-1.471,5.011-7.221,5.351
		c-5.75,0.33-10.15,0.33-17.16,0.42c-2.71,0.03-5.3,0.26-7.93,0.46l-0.07-0.84c-1.26-9.25-4.17-13.92-6.42-16.221
		c0,0,14.76-0.521,19.95-3.511c0,0,6.38,6.61,14.68,0.69l0.021-0.09c1.05,0.199,2.029,0.35,2.93,0.46l-0.02,0.89
		C156.354,185.716,156.396,185.876,156.464,186.166z"/>
	<path fill="#F7D5C4" d="M153.444,184.366l-0.021,0.09c-8.3,5.92-14.68-0.69-14.68-0.69l1.34-3.52l0.34-0.58
		C144.804,182.246,149.554,183.626,153.444,184.366z"/>
	<path fill="#3F3E6B" d="M76.976,178.706c-1.431-4.391-3.19-13.23,2.569-20.25c0,0,1.39-0.19,3.851-0.521
		c8.949-1.2,32.09-4.301,54.289-7.25l0.36,0.119c-4.351,13.562-5.75,21.65-5.75,21.65c2.03,2.779,4.53,4.96,7.21,6.649l-0.01,0.021
		c-6.07,5.45-20.09,5.319-23.63,5.189c-0.53-0.011-0.82-0.029-0.82-0.029c-0.14,0.01-0.28,0.029-0.42,0.05
		c-19.96-0.979-35.101-2-36.58-2.88C78.044,181.456,77.535,180.416,76.976,178.706z"/>
	<path fill="#A4BA24" d="M140.084,180.246l-1.34,3.52c-5.19,2.99-19.95,3.511-19.95,3.511c-1.65-1.699-2.949-2.109-2.949-2.109
		l0.02-0.851c3.539,0.131,17.56,0.261,23.63-5.189l0.01-0.021c0.3,0.199,0.61,0.391,0.92,0.561L140.084,180.246z"/>
	<path fill="#A4BA24" d="M83.294,157.206l0.1,0.729c-2.459,0.329-3.85,0.521-3.85,0.521c-6.75-9.25-9.25-24.75-9.25-24.75
		l-0.04-0.07c1.16-0.56,2.36-1.229,3.57-2.04c0.69,3.07,1.319,6.07,2.47,10.36C77.964,148.206,83.294,157.206,83.294,157.206z"/>
	<path fill="#A4BA24" d="M76.976,178.706c-1.931,0.029-12.021,0.06-15.181-1.75c-3.351-1.92-6.71-18-9.18-41.12l1.18-0.13
		c0,0,7.36,2.319,16.46-2.07l0.04,0.07c0,0,2.5,15.5,9.25,24.75C73.785,165.476,75.544,174.316,76.976,178.706z"/>
	<path fill="#FFFFFF" d="M115.926,184.694c0.31,0.12,1.46,0.63,2.869,2.08c2.25,2.3,5.16,6.979,6.421,16.229l0.069,0.83
		c-4.189,0.32-8.47,0.561-13.49-0.21c-8.17-1.25-9.42-6.45-9.42-6.45s0.73-12.01,12.25-13.34c0.141-0.02,0.28-0.04,0.42-0.05
		c0,0,0.32,0.021,0.9,0.04L115.926,184.694z"/>
	<path fill="#FFFFFF" d="M72.795,126.703c0.391,1.57,0.71,2.98,1.03,4.39c-1.21,0.811-2.41,1.48-3.57,2.04
		c-9.1,4.391-16.46,2.07-16.46,2.07l-1.18,0.13c-0.11-1-0.22-2.01-0.32-3.04c0,0,0.62-10.71,8.12-13.71
		S71.545,121.703,72.795,126.703z"/>
</g>
<g id="line_1_">
	<path fill="none" stroke="#000000" stroke-width="3" stroke-linecap="round" stroke-linejoin="round" stroke-miterlimit="10" d="
		M460.902,119.83c0,0-16.302-0.855-25-19.121c-7.564-13.842-2.812-22.034-2.812-22.034s-18.372,3.601-24.15-4.433
		c0,0-11.438,6.79-20.092,10.337c0,0-0.34-12.344,16.155-17.244c0,0,16.35-26.392,36.379-6.052
		c9.479-10.261,37.469-11.767,36.312,18.332c11.439-3.726,35.373,18.776,18.513,38.872c9.713,0.656,16.185,24.711-2.716,28.342
		c8.006,5.955-1.147,31.021-20.189,27.96c1.572,4.368-7.971,19.988-21.662,9.234c-4.89,3.912-19.949,4.852-24.844-0.388
		c-0.322,0.01,13.333-2.932,10.583-11.181c-1.083-3.586-3.683-4.319-3.683-4.319l-10.315-1.35c0,0,13.773-7.143,18.709-9.954
		c4.938-2.812,8.648-3.517,12.396-5.301C447.637,145.6,442.029,128.054,460.902,119.83z"/>
	<path fill="none" stroke="#000000" stroke-width="1.5" stroke-linecap="round" stroke-linejoin="round" stroke-miterlimit="10" d="
		M433.553,79.214c1.357-2.77,12.87-15.529,24.157-11.136c11.284,4.394,4.929,10.563,2.278,10.816
		c-2.652,0.253-6.012-1.182-4.317-4.859"/>
	<path fill="none" stroke="#000000" stroke-width="1.5" stroke-linecap="round" stroke-linejoin="round" stroke-miterlimit="10" d="
		M454.963,151.305c0,0,5.677,5.915,11.766,3.015c6.088-2.898,4.765-9.068,0.445-11.129c-4.317-2.06-7.917,1.474-6.333,3.592"/>
	<path fill="none" stroke="#000000" stroke-width="3" stroke-linecap="round" stroke-linejoin="round" stroke-miterlimit="10" d="
		M426.128,183.705c-8.333,0.332-14.667-1.499-16.667-4.334s-1.333-3.666-1.333-3.666s-5.988-0.034-15.344-3.68
		c-9.355-3.645-20.203-19.942-20.203-19.942s-7.278-2.842-8.572-7.973c-1.293-5.13,1.16-10.629,1.16-10.629
		c-0.832-2.873-1.263-5.653-1.361-8.336c-0.953-26.069,29.602-42.738,29.602-42.738"/>
	<path fill="none" stroke="#000000" stroke-width="2" stroke-linecap="round" stroke-linejoin="round" stroke-miterlimit="10" d="
		M405.267,81.74c0,0,16.854,0.398,15.166,11.736"/>
	<path fill="none" stroke="#000000" stroke-width="1.5" stroke-linecap="round" stroke-linejoin="round" stroke-miterlimit="10" d="
		M400.103,104.332c-0.658,0.248-4.508-1.637-6.324-6.007c-1.811-4.371,1.014-8.769,1.014-8.769"/>
	<path fill="none" stroke="#000000" stroke-width="2" stroke-linecap="round" stroke-linejoin="round" stroke-miterlimit="10" d="
		M429.221,115.148c0,0,7.271,1.482,9.836,11.403c2.566,9.922-0.943,17.699-0.943,17.699"/>
	<path fill="none" stroke="#000000" stroke-width="1.5" stroke-linecap="round" stroke-linejoin="round" stroke-miterlimit="10" d="
		M413.277,130.712c-0.678,0.322-1.903,5.033,0.374,10.206c2.278,5.171,6.042,4.553,7.74,6.252"/>
	<path fill="none" stroke="#000000" stroke-width="1.5" stroke-linecap="round" stroke-linejoin="round" stroke-miterlimit="10" d="
		M395.724,127.41c0,0-1.022,0.949-2.404,0.541c-1.623-0.279-2.305-1.335-2.205-1.932c0.014-1.584,0.635-3.249,0.635-3.249
		s-1.609-0.955-2.157-0.014"/>
	<path fill="none" stroke="#000000" stroke-width="1.5" stroke-linecap="round" stroke-linejoin="round" stroke-miterlimit="10" d="
		M386.75,117.056c0.04-1.818,0.619-4.143,3.806-4.982c3.188-0.841,6.248,2.604,6.248,2.604c5.53,2.363,15.681-4.482,17.621-8.854"/>
	<path fill="none" stroke="#000000" stroke-width="1.5" stroke-linecap="round" stroke-linejoin="round" stroke-miterlimit="10" d="
		M376.625,119.039c0,0-0.737,7.896,6.099,15.855s11.403,8.829,11.403,8.829l-0.032,4.585"/>
	<path fill="none" stroke="#000000" stroke-width="1.5" stroke-linecap="round" stroke-linejoin="round" stroke-miterlimit="10" d="
		M375.381,132.854c0,0-0.36,4.188,2.784,6.429"/>
	<path fill="none" stroke="#000000" stroke-width="1.5" stroke-linecap="round" stroke-linejoin="round" stroke-miterlimit="10" d="
		M414.628,173.703c0,0,6.333,5.833,8-1.167c0,0,7.333-2.666,10.333,2.334"/>
	<path fill="none" stroke="#000000" stroke-width="3" stroke-linecap="round" stroke-linejoin="round" stroke-miterlimit="10" d="
		M450.503,185.498c0,0-14.375,15.044-30.458,18.877s-62.251-10.419-80.001-12.669s-64,4.75-96.5,4.25s-58.375-58.75-61.125-73.25
		c-5.75,21.625-11.125,40.25-20.875,62c0,0-19.75,0.25-29.25-12.75c0,0,5.875-34,31-79.375c0,0,15.167-44.376,75.75,29.375
		c0,0,61.182-19.989,124.285,3.256"/>
	<path fill="none" stroke="#000000" stroke-width="3" stroke-linecap="round" stroke-linejoin="round" stroke-miterlimit="10" d="
		M356.294,165.456c11.376-0.965,38.75,7.438,51.625,11.336"/>
	<path fill="none" stroke="#000000" stroke-width="1.5" stroke-linecap="round" stroke-linejoin="round" stroke-miterlimit="10" d="
		M249.794,132.831c0,0-6-3.375-11.5-10.875"/>
	<path fill="none" stroke="#000000" stroke-width="3" stroke-linecap="round" stroke-linejoin="round" stroke-miterlimit="10" d="
		M334.294,117.206c0,0,8.833,0.333,16.125-7.875s22.876-26.206,27.542-28.75s13.625-4.209,13.625-4.209"/>
	<path fill="none" stroke="#000000" stroke-width="3" stroke-linecap="round" stroke-linejoin="round" stroke-miterlimit="10" d="
		M140.086,179.746l-1.342,3.522c0,0,6.384,6.603,14.682,0.686"/>
	<path fill="none" stroke="#000000" stroke-width="3" stroke-linecap="round" stroke-linejoin="round" stroke-miterlimit="10" d="
		M156.354,185.22c0,0,2.063,7.742,1.234,12.383c0,0-1.464,5.009-7.214,5.35c-5.75,0.34-10.156,0.331-17.163,0.42
		s-13.25,1.5-21.417,0.25s-9.416-6.449-9.416-6.449s0.75-12.302,12.667-13.385c0,0,17.473,1.101,24.445-5.16"/>
	<path fill="none" stroke="#000000" stroke-width="1.5" stroke-linecap="round" stroke-linejoin="round" stroke-miterlimit="10" d="
		M115.847,184.663c0,0,7.176,2.252,9.365,18.338"/>
	<path fill="none" stroke="#000000" stroke-width="1.5" stroke-linecap="round" stroke-linejoin="round" stroke-miterlimit="10" d="
		M118.796,186.775c0,0,14.758-0.519,19.949-3.506"/>
	<path fill="none" stroke="#000000" stroke-width="3" stroke-linecap="round" stroke-linejoin="round" stroke-miterlimit="10" d="
		M176.125,145.112c6.71-0.867,11.031-1.405,11.42-1.405"/>
	<path fill="none" stroke="#000000" stroke-width="3" stroke-linecap="round" stroke-linejoin="round" stroke-miterlimit="10" d="
		M114.627,183.837c-19.967-0.979-35.101-1.998-36.583-2.881c0,0-6.5-13.25,1.5-23c0,0,29.827-4.011,58.135-7.774"/>
	<path fill="none" stroke="#000000" stroke-width="3" stroke-linecap="round" stroke-linejoin="round" stroke-miterlimit="10" d="
		M222.044,187.706c6.188,0.258-28.505-0.703-65.396-2.091"/>
	<path fill="none" stroke="#000000" stroke-width="3" stroke-linecap="round" stroke-linejoin="round" stroke-miterlimit="10" d="
		M77.294,178.206c0,0-12,0.25-15.5-1.75s-7-19.416-9.5-44.166c0,0,0.625-10.709,8.125-13.709s11.125,3.125,12.375,8.125
		s1.833,8.5,3.5,14.75s7,15.25,7,15.25"/>
	<path fill="none" stroke="#000000" stroke-width="1.5" stroke-linecap="round" stroke-linejoin="round" stroke-miterlimit="10" d="
		M53.794,135.207c0,0,9.5,2.999,20.25-4.251"/>
	<path fill="none" stroke="#000000" stroke-width="1.5" stroke-linecap="round" stroke-linejoin="round" stroke-miterlimit="10" d="
		M70.294,133.206c0,0,2.5,15.5,9.25,24.75"/>
	<path fill="none" stroke="#000000" stroke-linecap="round" stroke-linejoin="round" stroke-miterlimit="10" d="M384.294,200.206
		c0,0-6.5-16,8.5-27"/>
	<path fill="none" stroke="#000000" stroke-width="1.5" stroke-linecap="round" stroke-linejoin="round" stroke-miterlimit="10" d="
		M379.794,168.956c-20.75-9-33.75-8.25-52.25-11c0,0-8.5-5.75-0.25-11c0,0,29.04,3.778,50.04,11.516"/>
	<path fill="none" stroke="#000000" stroke-width="1.5" stroke-linecap="round" stroke-linejoin="round" stroke-miterlimit="10" d="
		M364.662,134.846c-10.456-2.968-32.534-9.136-40.617-10.64c0,0-4.125-4.75,0.5-8.5"/>
	<path fill="none" stroke="#000000" stroke-linecap="round" stroke-linejoin="round" stroke-miterlimit="10" d="M368.294,89.706
		c0,0,7.5-2,11,4"/>
	<path fill="none" stroke="#000000" stroke-width="1.5" stroke-linecap="round" stroke-linejoin="round" stroke-miterlimit="10" d="
		M324.294,190.206c-0.75-8.75,2.25-24.5,24.75-29.5"/>
	
		<line fill="none" stroke="#000000" stroke-width="1.5" stroke-linecap="round" stroke-linejoin="round" stroke-miterlimit="10" x1="353.044" y1="151.456" x2="348.294" y2="130.956"/>
</g>
</svg>
