<?xml version="1.0" encoding="utf-8"?>
<!-- Generator: Adobe Illustrator 16.0.0, SVG Export Plug-In . SVG Version: 6.00 Build 0)  -->
<!DOCTYPE svg PUBLIC "-//W3C//DTD SVG 1.1//EN" "http://www.w3.org/Graphics/SVG/1.1/DTD/svg11.dtd">
<svg version="1.1" id="Layer_1" xmlns="http://www.w3.org/2000/svg" xmlns:xlink="http://www.w3.org/1999/xlink" x="0px" y="0px"
	 width="232.824px" height="560px" viewBox="0 0 232.824 560" enable-background="new 0 0 232.824 560" xml:space="preserve">
<g id="XMLID_8_">
	<path fill="#F7D5C4" d="M165.158,143.105c1.13-4.08,1.93-8.72,2.43-14.09l-0.03-0.03c0.58-0.73,2.84-3.6,5.131-7.06l0.39,0.26
		c0,0,6.51,0.58,6.01,10.57c-0.5,9.99-3.05,13.78-17.05,18.78l-0.04-0.02C163.248,149.005,164.298,146.215,165.158,143.105z"/>
	<path fill="#F7C63C" d="M55.048,122.185c-2.689-4.48-4.64-10.05-2.699-15.4c0,0-8.5-7.25-5.75-19.75s19.25-13.75,19.25-13.75
		s-4.75-14.75,7.75-23s24,0.25,24,0.25s7.5-9.5,20.75-9.75s20,14.75,20,14.75s12.5-11,22.25-3.25s2,16.5,2,16.5s16.5-4.5,19.5,8.25
		s-6.25,17.5-6.25,17.5s4,10.75,2,17.5c-0.891,2.99-3.041,6.69-5.16,9.89c-2.291,3.46-4.551,6.33-5.131,7.06
		c-0.1,0.12-0.149,0.18-0.149,0.18s-7.06-17.13-6.06-29.63c-5,0.25-23.75-6.75-21.75-24.5c0,0-6,20.5-24.5,21s-27.5-9-27.5-9
		s-8.58,17.58-20.08,15.58c0,0,0.879,16.75-4.881,28.57c-0.02,0.05-0.05,0.09-0.07,0.14
		C62.567,131.325,58.278,127.535,55.048,122.185z"/>
	<path fill="#3F3E6B" d="M121.338,455.114c-3.43-0.449-5.78-1.21-5.78-1.21l-2.609-0.061c-1.65,0.75-3.49,1.221-5.381,1.5
		c-3.619,0.521-7.409,0.32-10.439-0.04c-3.49-0.42-5.97-1.06-5.97-1.06s-13.671-50.25-17.841-89.08c-3-37.7-2.379-65.79-2.379-65.79
		l0.99-21.67l1.01-30.05c1.949-1.19,11.66-7.45,11.66-13.45h0.17l0.16,7.33c0,0,7.67,7,11.67-0.33l-0.15-11h0.15l37,0.33h0.069
		l-0.069,11c0,0,0.67,3.75,5.67,3.75s4.66-3.75,4.66-3.75l0.34-9c0,0,4.33,12.42,10.66,14.75l0.34-0.02l1.489,28.6l1.011,21.34
		c0.699,13.42-0.281,39-0.281,39c-6,69.96-20.329,116.96-20.329,116.96c-1.71,0.85-3.521,1.42-5.33,1.779
		C128.078,455.675,124.308,455.505,121.338,455.114z"/>
	<path fill="#A4BA24" d="M154.599,234.505l0.67,12.76l-0.34,0.02c-6.33-2.33-10.66-14.75-10.66-14.75l0.6-15.87l0.74-0.32
		c2.74,6.3,5.879,12.7,9.22,18.021L154.599,234.505z"/>
	<path fill="#F7D5C4" d="M152.388,175.255c-2.449,1.35-4.85,3.09-4.85,3.09s2.62,7.49,9.12,17.16s13.329,19.5,17,25.83
		c3.659,6.34,8.86,18.8,7.67,20.67c-1.2,1.86-7.97,6.39-13.5,5c-4.42-1.1-8.87-6.05-13-12.64c-3.341-5.32-6.479-11.72-9.22-18.021
		c-4.58-10.56-8.051-20.85-9.51-25.38c-0.49-1.54-0.761-2.42-0.761-2.42c-3.14-6.4-3.569-7.82-3.569-12.93c0-0.03,0-0.05,0-0.08
		c0.039-5.09,3.34-10.62,3.34-10.62c0.1-10.34-0.871-12.03,2.92-13.14c2.57-0.69,4.05,5.54,3.27,13.29
		c3.21-9.22,1.62-15.26,4.12-15.99c2.51-0.73,3.24,1.03,3.24,1.03s0.92-1.36,2.399-1.36c1.49,0,2.98,1.73,2.98,1.73l-0.23,9.9
		l-1.209,4.6l2.51-4.54c0,0,2.3-4.11,3.859-5.43c0.44-0.37,0.95-0.45,1.471-0.37c1.34,0.19,2.689,1.43,2.689,1.43l-1.3,3.6
		l-2.03,5.26c0,0,1.87,0.78,2.33,3.43c0.17,1-1.811,1.74-3.029,2.91C157.078,173.225,153.929,174.405,152.388,175.255z"/>
	<path d="M142.099,125.205c2.34,0.96,1.139,2.84-1.211,2.58C138.528,127.515,139.748,124.235,142.099,125.205z"/>
	<path fill="#3F3E6B" d="M136.099,190.965c1.459,4.53,4.93,14.82,9.51,25.38l-0.74,0.32l-0.6,15.87l-0.34,9c0,0,0.34,3.75-4.66,3.75
		s-5.67-3.75-5.67-3.75l0.069-11l0.261-38.67l0.01-0.84c1.189,0,2.049-0.02,2.049-0.02L136.099,190.965z"/>
	<path fill="#A4BA24" d="M133.937,191.025l-0.01,0.84l-0.26,38.67h-0.07l-37-0.33h-0.149l-0.511-38.58
		c0.811-0.06,1.511-0.12,2.121-0.17c0.81,1.56,5.659,9.83,16.539,9.08c12-0.83,16.17-9,16.17-9l0.021-0.58
		C131.868,191.005,133.008,191.025,133.937,191.025z"/>
	<path fill="#A4BA24" d="M126.269,463.975c3.029,0.04,5.52-0.63,5.52-0.63c0.07,0.03,0.141,0.07,0.21,0.12
		c4.399,2.38,12.62,13.47,13.86,15.45c0,0-8.381-3.381-14.641-3.511l-4.949-11.12V463.975L126.269,463.975z"/>
	<path fill="#F7D5C4" d="M103.599,177.285c0,0,4.25,6.25,10.5,6s9.5-5.75,9.5-5.75s0.56-0.17,1.529-0.47l0.141,0.44
		c0,0-2,9.69,1.66,12.7c0,0.45,1.84,0.66,3.859,0.75l-0.02,0.58c0,0-4.17,8.17-16.17,9c-10.881,0.75-15.73-7.52-16.541-9.08
		c2.051-0.17,3.11-0.28,3.791-0.42c2.5-0.5,1-13.25,1-13.25l0.08-0.62C103.356,177.245,103.599,177.285,103.599,177.285z"/>
	<path fill="#BF5858" d="M121.929,162.955l0.409,0.14c-1.21,1.71-2.46,3.47-3.069,4.3c-2.41,2.77-9.32,1.38-10.61-0.11
		c-0.591-0.67-1.71-2.55-2.75-4.39l0.19-0.11c0,0,4.17-3.83,7-0.67C113.099,162.115,120.269,159.285,121.929,162.955z"/>
	<path fill="#F7D5C4" d="M121.099,463.034h-0.5l0.739-7.92c2.97,0.391,6.74,0.561,10.49-0.17l0.021,0.09l0.25,8.25l-0.101,0.181
		c-0.069-0.05-0.14-0.09-0.21-0.12c0,0-2.49,0.67-5.52,0.63C124.599,463.955,122.758,463.725,121.099,463.034z"/>
	<path fill="#A4BA24" d="M116.099,477.904c1.5-3,4.5-14.87,4.5-14.87h0.5c1.659,0.689,3.5,0.921,5.17,0.939v0.311l4.949,11.12
		c-6.24-0.12-14.369,3.13-14.369,3.13l-0.92-0.229C115.978,478.165,116.038,478.024,116.099,477.904z"/>
	<path fill="#A4BA24" d="M107.888,463.215c3.94,4.45,4.721,13.34,5.971,15.33c0,0-8.381-3.38-14.641-3.511l3.051-11v-0.311
		c3.029,0.04,5.52-0.63,5.52-0.63C107.828,463.135,107.856,463.175,107.888,463.215z"/>
	<path fill="#F7D5C4" d="M107.599,455.534l0.5,7.5l-0.211,0.181c-0.029-0.04-0.06-0.08-0.1-0.12c0,0-2.49,0.67-5.52,0.63
		c-1.67-0.02-3.511-0.25-5.17-0.939h-0.5l0.5-7.25l0.029-0.229c3.03,0.36,6.82,0.561,10.439,0.04L107.599,455.534z"/>
	<path d="M121.929,162.955c-1.66-3.67-8.83-0.84-8.83-0.84c-2.83-3.16-7,0.67-7,0.67l-0.19,0.11c-1.271-2.22-2.421-4.39-2.421-4.39
		s0.57-0.64,1.601-1.48l0.011,0.01c0,0,9.5-2.59,18.83,0.58l0.119-0.14c0.45,0.39,0.9,0.82,1.36,1.28c0,0-1.5,2.13-3.07,4.34
		L121.929,162.955z"/>
	<path fill="#3F3E6B" d="M96.448,230.205l0.15,11c-4,7.33-11.67,0.33-11.67,0.33l-0.16-7.33l-0.44-20.61
		c4.13-9.11,7.351-17.66,8.93-22.02l0.601,0.21c0.76-0.06,1.459-0.11,2.08-0.16L96.448,230.205z"/>
	<path d="M86.519,125.025c2.359-0.94,3.539,2.36,1.18,2.59C85.338,127.855,84.158,125.965,86.519,125.025z"/>
	<path fill="#A4BA24" d="M84.099,477.534c1.5-3,12.5-14.75,12.5-14.75h0.5c1.659,0.689,3.5,0.921,5.17,0.939v0.311l-3.051,11
		c-6.24-0.13-14.369,3.131-14.369,3.131l-0.92-0.23C83.978,477.795,84.038,477.665,84.099,477.534z"/>
	<path fill="#A4BA24" d="M84.328,213.595l0.44,20.61h-0.17c0,6-9.711,12.26-11.66,13.45l0.449-13.24l-0.14-0.09
		C77.269,228.235,81.078,220.745,84.328,213.595z"/>
	<path fill="#F7D5C4" d="M77.278,175.255c-1.53-0.85-4.68-2.03-6.711-3.99c-1.209-1.17-3.189-1.91-3.02-2.91
		c0.46-2.65,2.33-3.43,2.33-3.43l-2.029-5.26l-1.301-3.6c0,0,2.59-2.38,4.16-1.06c0.1,0.09,0.21,0.19,0.32,0.3
		c1.529,1.55,3.529,5.13,3.529,5.13l2.521,4.54l-1.22-4.6l-0.221-9.9c0,0,1.49-1.73,2.971-1.73c1.49,0,2.41,1.36,2.41,1.36
		s0.729-1.76,3.239-1.03c2.5,0.73,0.91,6.77,4.12,15.99c-0.779-7.75,0.7-13.98,3.27-13.29c3.791,1.11,2.82,2.8,2.92,13.14
		c0,0,3.33,5.59,3.33,10.7c0,0.24,0,0.47-0.01,0.69c-0.039,4.56-0.57,6.14-3.56,12.24c0,0-0.38,1.11-1.07,3.03
		c-1.579,4.36-4.8,12.91-8.93,22.02c-3.25,7.15-7.06,14.64-11.08,20.73c-4.36,6.61-8.979,11.57-13.399,12.68
		c-5.541,1.39-12.301-3.14-13.5-5c-1.201-1.87,4-14.33,7.67-20.67c3.67-6.33,10.5-16.16,17-25.83s11.119-17.16,11.119-17.16
		S79.737,176.605,77.278,175.255z"/>
	<path fill="#F7D5C4" d="M74.558,160.435c0,0-2-3.58-3.529-5.13l0.05-0.05c-0.71-1.19-1.36-2.4-1.96-3.61
		c-4.54-9.2-6.18-18.54-6.48-20.46c5.76-11.82,4.881-28.57,4.881-28.57c11.5,2,20.08-15.58,20.08-15.58s9,9.5,27.5,9
		s24.5-21,24.5-21c-2,17.75,16.75,24.75,21.75,24.5c-1,12.5,6.06,29.63,6.06,29.63s0.05-0.06,0.149-0.18l0.03,0.03
		c-0.5,5.37-1.3,10.01-2.43,14.09c-0.86,3.11-1.91,5.9-3.16,8.41c-0.47,0.97-0.979,1.89-1.511,2.78l-0.049,0.34
		c-0.521-0.08-1.03,0-1.471,0.37c-1.56,1.32-3.859,5.43-3.859,5.43l-2.51,4.54l1.209-4.6l0.23-9.9c0,0-1.49-1.73-2.98-1.73
		c-1.479,0-2.399,1.36-2.399,1.36s-0.729-1.76-3.24-1.03c-2.5,0.73-0.91,6.77-4.12,15.99c0.78-7.75-0.699-13.98-3.27-13.29
		c-3.791,1.11-2.82,2.8-2.92,13.14c0,0-3.301,5.53-3.34,10.62l-1.9-0.08c-1.98,0.71-3.631,1.26-4.74,1.61
		c-0.97,0.3-1.529,0.47-1.529,0.47s-3.25,5.5-9.5,5.75s-10.5-6-10.5-6s-0.24-0.04-0.67-0.12c-0.711-0.14-1.971-0.41-3.601-0.84
		l-1.44-0.02c0.01-0.22,0.01-0.45,0.01-0.69c0-5.11-3.33-10.7-3.33-10.7c-0.1-10.34,0.871-12.03-2.92-13.14
		c-2.569-0.69-4.049,5.54-3.27,13.29c-3.21-9.22-1.62-15.26-4.12-15.99c-2.51-0.73-3.239,1.03-3.239,1.03s-0.92-1.36-2.41-1.36
		c-1.48,0-2.971,1.73-2.971,1.73l0.221,9.9l1.22,4.6L74.558,160.435z M150.758,128.305c0,0-3.18-10.15-9.18-9.97
		c-6.011,0.18-8.17,10.17-8.17,10.17c0,0.76,2.28,3.77,7.92,4C146.978,132.735,150.758,128.305,150.758,128.305z M122.338,163.095
		c1.57-2.21,3.07-4.34,3.07-4.34c-0.46-0.46-0.91-0.89-1.36-1.28c-8.369-7.29-15.811-2.99-18.96-0.45
		c-1.03,0.84-1.601,1.48-1.601,1.48s1.15,2.17,2.421,4.39c1.04,1.84,2.159,3.72,2.75,4.39c1.29,1.49,8.2,2.88,10.61,0.11
		C119.877,166.564,121.127,164.805,122.338,163.095z M87.218,132.334c5.65-0.17,8.1-3.3,8.1-4.05c0,0-2.219-8.87-8.219-9.12
		s-9.25,8.87-9.25,8.87S81.578,132.505,87.218,132.334z"/>
	<path fill="#F7D5C4" d="M62.638,131.185c0.301,1.92,1.94,11.26,6.48,20.46l-0.74,0.36c-12.22-4.67-18.4-9.31-19.12-19.28
		c-0.7-9.5,5.22-10.47,5.79-10.54c3.23,5.35,7.52,9.14,7.52,9.14C62.588,131.275,62.618,131.235,62.638,131.185z"/>
	<path d="M142.095,125.197c2.341,0.97,1.141,2.85-1.21,2.58C138.525,127.517,139.745,124.227,142.095,125.197z"/>
	<path d="M86.525,125.027c2.35-0.94,3.529,2.36,1.18,2.59C85.345,127.857,84.165,125.967,86.525,125.027z"/>
	<path fill="#FFFFFF" d="M105.295,156.857c3.181-2.49,10.19-6.32,18.12,0.09C115.595,154.687,107.365,156.367,105.295,156.857z"/>
	<path fill="#FFFFFF" d="M141.575,118.337c6-0.18,9.18,9.97,9.18,9.97s-3.779,4.42-9.43,4.19c-5.63-0.23-7.92-3.24-7.92-4
		C133.405,128.497,135.575,118.517,141.575,118.337z M140.885,127.777c2.351,0.27,3.551-1.61,1.21-2.58
		C139.745,124.227,138.525,127.517,140.885,127.777z"/>
	<path fill="#FFFFFF" d="M95.325,128.287c0,0.75-2.45,3.88-8.1,4.05c-5.65,0.16-9.381-4.3-9.381-4.3s3.25-9.12,9.25-8.87
		S95.325,128.287,95.325,128.287z M87.705,127.617c2.35-0.23,1.17-3.53-1.18-2.59C84.165,125.967,85.345,127.857,87.705,127.617z"/>
	<path fill="#FFFFFF" d="M145.855,478.917c1.26,2.01-0.011,10.12-0.011,10.12c-17.5,6.5-29.75-0.63-29.75-0.63
		s-0.659-3.29-0.67-6.391c0-1.38,0.13-2.72,0.5-3.71l0.92,0.23c0,0,8.131-3.25,14.381-3.13
		C137.476,475.537,145.855,478.917,145.855,478.917z"/>
	<path fill="#FFFFFF" d="M113.855,478.547c0.42,0.67,0.56,2,0.56,3.49c0,3-0.57,6.62-0.57,6.62c-17.5,6.5-29.75-0.62-29.75-0.62
		s-1.38-6.89-0.17-10.101l0.92,0.221c0,0,8.131-3.25,14.381-3.12C105.476,475.157,113.855,478.547,113.855,478.547z"/>
</g>
<g id="line_1_">
	<path fill="none" stroke="#000000" stroke-width="3" stroke-linecap="round" stroke-linejoin="round" stroke-miterlimit="10" d="
		M59.851,247.006c16-4,34.481-58.462,34.481-58.462c3.14-6.398,3.569-7.815,3.567-12.927c-0.002-5.112-3.332-10.699-3.332-10.699
		c-0.104-10.347,0.865-12.033-2.92-13.143c-2.574-0.695-4.053,5.541-3.272,13.29c-3.205-9.221-1.616-15.263-4.121-15.993
		c-2.508-0.729-3.239,1.032-3.239,1.032s-0.92-1.355-2.404-1.359c-1.483-0.003-2.973,1.726-2.973,1.726l0.225,9.9l1.219,4.604
		l-2.52-4.546c0,0-2.291-4.103-3.857-5.426c-1.566-1.322-4.152,1.056-4.152,1.056l1.295,3.6l2.031,5.267
		c0,0-1.873,0.773-2.332,3.432c-0.172,0.997,1.812,1.732,3.025,2.909c2.022,1.961,5.178,3.137,6.712,3.985
		c2.454,1.356,4.854,3.097,4.854,3.097s-4.617,7.488-11.119,17.155c-6.5,9.667-13.334,19.504-17,25.835s-8.865,18.8-7.668,20.665
		C47.549,243.869,54.312,248.391,59.851,247.006z"/>
	<path fill="none" stroke="#000000" stroke-width="1.5" stroke-linecap="round" stroke-linejoin="round" stroke-miterlimit="10" d="
		M81.032,150.797c0,0-0.198,6.483,0.521,8.762c0.721,2.279,1.605,6.041,1.605,6.041"/>
	<path fill="none" stroke="#000000" stroke-width="1.5" stroke-linecap="round" stroke-linejoin="round" stroke-miterlimit="10" d="
		M86.214,180.162c-4.438-2.469-12.57-10.935-12.57-10.935l-2.797-4.262"/>
	<path fill="none" stroke="#000000" stroke-width="3" stroke-linecap="round" stroke-linejoin="round" stroke-miterlimit="10" d="
		M167.823,247.006c-16-4-32.481-58.462-32.481-58.462c-3.14-6.398-3.571-7.815-3.569-12.927c0.004-5.112,3.334-10.699,3.334-10.699
		c0.104-10.347-0.866-12.033,2.918-13.143c2.576-0.695,4.055,5.541,3.273,13.29c3.205-9.221,1.617-15.263,4.122-15.993
		c2.507-0.729,3.238,1.032,3.238,1.032s0.92-1.355,2.403-1.359c1.484-0.003,2.975,1.726,2.975,1.726l-0.225,9.9l-1.219,4.604
		l2.52-4.546c0,0,2.291-4.103,3.856-5.426c1.566-1.322,4.153,1.056,4.153,1.056l-1.295,3.6l-2.032,5.267
		c0,0,1.873,0.773,2.332,3.432c0.172,0.997-1.813,1.732-3.026,2.909c-2.021,1.961-5.176,3.137-6.709,3.985
		c-2.455,1.356-4.855,3.097-4.855,3.097s2.617,7.488,9.119,17.155c6.501,9.667,13.334,19.504,17,25.835s8.865,18.8,7.668,20.665
		C180.125,243.869,173.362,248.391,167.823,247.006z"/>
	<path fill="none" stroke="#000000" stroke-width="1.5" stroke-linecap="round" stroke-linejoin="round" stroke-miterlimit="10" d="
		M148.642,150.797c0,0,0.197,6.483-0.522,8.762c-0.72,2.279-1.604,6.041-1.604,6.041"/>
	<path fill="none" stroke="#000000" stroke-width="1.5" stroke-linecap="round" stroke-linejoin="round" stroke-miterlimit="10" d="
		M143.459,180.162c4.438-2.469,12.572-10.935,12.572-10.935l2.796-4.262"/>
	<path fill="none" stroke="#000000" stroke-width="3" stroke-linecap="round" stroke-linejoin="round" stroke-miterlimit="10" d="
		M139.599,75.035c0,0-6,20.5-24.5,21s-27.5-9-27.5-9s-8.578,17.578-20.078,15.578c0,0,0.888,16.887-4.957,28.71
		c0,0-14.465-12.788-10.215-24.538c0,0-8.5-7.25-5.75-19.75s19.25-13.75,19.25-13.75s-4.75-14.75,7.75-23s24,0.25,24,0.25
		s7.5-9.5,20.75-9.75s20,14.75,20,14.75s12.5-11,22.25-3.25s2,16.5,2,16.5s16.5-4.5,19.5,8.25s-6.25,17.5-6.25,17.5s4,10.75,2,17.5
		s-10.44,17.131-10.44,17.131s-7.06-17.131-6.06-29.631C156.349,99.785,137.599,92.785,139.599,75.035z"/>
	<path fill="none" stroke="#000000" stroke-width="1.5" stroke-linecap="round" stroke-linejoin="round" stroke-miterlimit="10" d="
		M87.472,86.16c0,0-7.373-8.125-6.123-17.125s10-11,13.75-7.75s1.5,8.5-2.25,8.25"/>
	<path fill="none" stroke="#000000" stroke-width="1.5" stroke-linecap="round" stroke-linejoin="round" stroke-miterlimit="10" d="
		M160.679,98.951c2.375-0.125,8.42-2.166,9.42-6.166s0-6.75-2.5-8s-7,0-5,4"/>
	<path fill="none" stroke="#000000" stroke-width="3" stroke-linecap="round" stroke-linejoin="round" stroke-miterlimit="10" d="
		M160.483,154.292c3.76-6.252,6.084-14.245,7.102-25.28"/>
	<path fill="none" stroke="#000000" stroke-width="3" stroke-linecap="round" stroke-linejoin="round" stroke-miterlimit="10" d="
		M99.327,176.327c2.609,0.689,4.271,0.958,4.271,0.958s4.25,6.25,10.5,6s9.5-5.75,9.5-5.75s2.566-0.749,6.273-2.085"/>
	<path fill="none" stroke="#000000" stroke-width="3" stroke-linecap="round" stroke-linejoin="round" stroke-miterlimit="10" d="
		M62.574,130.821c0,0,1.803,13.12,8.501,24.437"/>
	<path fill="none" stroke="#000000" stroke-width="3" stroke-linecap="round" stroke-linejoin="round" stroke-miterlimit="10" d="
		M55.089,122.179c0,0-6.564,0.569-5.836,10.542c0.727,9.974,6.9,14.616,19.129,19.282"/>
	<path fill="none" stroke="#000000" stroke-width="1.5" stroke-linecap="round" stroke-linejoin="round" stroke-miterlimit="10" d="
		M64.265,142.655c0,0-3.098,0.227-5.043-2.39c-1.945-2.614-1.521-2.356-1.83-6.595c-0.309-4.239-1.824-6.874-3.479-5.5"/>
	<path fill="none" stroke="#000000" stroke-width="3" stroke-linecap="round" stroke-linejoin="round" stroke-miterlimit="10" d="
		M173.074,122.18c0,0,6.514,0.588,6.012,10.575c-0.501,9.987-3.05,13.782-17.05,18.775"/>
	<path fill="none" stroke="#000000" stroke-width="1.5" stroke-linecap="round" stroke-linejoin="round" stroke-miterlimit="10" d="
		M164.862,143.027c0,0,2.09,0.836,4.646-1.259c2.56-2.095,1.533-4.038,1.746-8.282c0.213-4.244,1.379-6.812,3.063-5.476"/>
	<path fill="none" stroke="#000000" stroke-width="2" stroke-linecap="round" stroke-linejoin="round" stroke-miterlimit="10" d="
		M75.61,116.547c0,0,4.652-8.602,11.973-11.28c7.32-2.678,12.488-0.014,12.488-0.014"/>
	<path fill="none" stroke="#000000" stroke-width="2" stroke-linecap="round" stroke-linejoin="round" stroke-miterlimit="10" d="
		M128.399,104.206c0,0,3.461-2.03,13.32,0.781c9.859,2.812,12.209,13.437,12.209,13.437"/>
	<path fill="none" stroke="#000000" stroke-width="1.5" stroke-linecap="round" stroke-linejoin="round" stroke-miterlimit="10" d="
		M77.849,128.035c0,0,3.25-9.115,9.25-8.865s8.223,9.115,8.223,9.115c0,0.75-2.448,3.883-8.098,4.051
		C81.573,132.501,77.849,128.035,77.849,128.035z"/>
	<path fill="none" stroke="#000000" stroke-width="4" stroke-linecap="round" stroke-linejoin="round" stroke-miterlimit="10" d="
		M86.521,125.025c2.358-0.943,3.537,2.358,1.181,2.594C85.341,127.855,84.162,125.968,86.521,125.025z"/>
	<path fill="none" stroke="#000000" stroke-width="1.5" stroke-linecap="round" stroke-linejoin="round" stroke-miterlimit="10" d="
		M150.753,128.309c0,0-3.176-10.155-9.178-9.974c-6.004,0.181-8.17,10.167-8.17,10.167c-0.008,0.75,2.277,3.768,7.924,3.999
		S150.753,128.309,150.753,128.309z"/>
	<path fill="none" stroke="#000000" stroke-width="4" stroke-linecap="round" stroke-linejoin="round" stroke-miterlimit="10" d="
		M142.093,125.2c-2.348-0.97-3.564,2.317-1.209,2.581C143.239,128.043,144.438,126.169,142.093,125.2z"/>
	<path fill="none" stroke="#000000" stroke-width="1.5" stroke-linecap="round" stroke-linejoin="round" stroke-miterlimit="10" d="
		M103.194,138.684c-0.312,6.345,3.797,4.39,3.797,4.39s0.072-1.306,2.111-1.897c2.039-0.591,2.049,1.607,2.049,1.607"/>
	<path fill="none" stroke="#000000" stroke-width="1.5" stroke-linecap="round" stroke-linejoin="round" stroke-miterlimit="10" d="
		M124.442,138.388c0.688,6.315-3.531,4.606-3.531,4.606s-0.529-1.953-2.219-1.768s-1.95,1.726-1.95,1.726"/>
	<path fill="none" stroke="#000000" stroke-width="1.5" stroke-linecap="round" stroke-linejoin="round" stroke-miterlimit="10" d="
		M119.263,167.394c-2.4,2.775-9.318,1.381-10.609-0.109c-1.291-1.49-5.166-8.781-5.166-8.781s10.25-11.583,21.916,0.25
		C125.403,158.753,120.663,165.494,119.263,167.394z"/>
	<path fill="none" stroke="#000000" stroke-width="1.5" stroke-linecap="round" stroke-linejoin="round" stroke-miterlimit="10" d="
		M105.099,157.285c0,0,9.5-3.167,18.834,0"/>
	<path fill="none" stroke="#000000" stroke-width="1.5" stroke-linecap="round" stroke-linejoin="round" stroke-miterlimit="10" d="
		M106.099,162.785c0,0,4.166-3.834,7-0.667c0,0,7.166-2.832,8.832,0.834"/>
	<path fill="none" stroke="#000000" stroke-width="1.5" stroke-linecap="round" stroke-linejoin="round" stroke-miterlimit="10" d="
		M109.987,171.544c0,0,4.75,2,8,0.25"/>
	<path fill="none" stroke="#000000" stroke-width="3" stroke-linecap="round" stroke-linejoin="round" stroke-miterlimit="10" d="
		M102.849,177.785c0,0,1.5,12.75-1,13.25c-1.041,0.208-2.994,0.373-7.986,0.747"/>
	<path fill="none" stroke="#000000" stroke-width="3" stroke-linecap="round" stroke-linejoin="round" stroke-miterlimit="10" d="
		M125.265,177.507c0,0-1.996,9.691,1.668,12.695c0,1.004,9.058,0.803,9.058,0.803"/>
	<path fill="none" stroke="#000000" stroke-width="1.5" stroke-linecap="round" stroke-linejoin="round" stroke-miterlimit="10" d="
		M97.931,191.203c0,0,4.668,10.166,16.668,9.332c12-0.832,16.166-9,16.166-9"/>
	<path fill="none" stroke="#000000" stroke-width="3" stroke-linecap="round" stroke-linejoin="round" stroke-miterlimit="10" d="
		M115.597,332.868c0.891,45.301-0.773,94.967-2.054,120.688c-8.442,4.302-22.388,0.685-22.388,0.685S77.487,404,73.321,365.168
		c-3-37.699-2.379-65.789-2.379-65.789l0.984-21.672l1.465-43.287"/>
	<path fill="none" stroke="#000000" stroke-width="3" stroke-linecap="round" stroke-linejoin="round" stroke-miterlimit="10" d="
		M154.595,234.504l2.166,41.364l1.004,21.332c0.699,13.422-0.275,39.002-0.277,39.002c-6,69.965-20.332,116.965-20.332,116.965
		c-9.333,4.668-21.598,0.74-21.598,0.74"/>
	<path fill="none" stroke="#000000" stroke-width="1.5" stroke-linecap="round" stroke-linejoin="round" stroke-miterlimit="10" d="
		M84.306,212.794l0.627,28.743c0,0,7.666,7,11.666-0.334l-0.666-50"/>
	<path fill="none" stroke="#000000" stroke-width="1.5" stroke-linecap="round" stroke-linejoin="round" stroke-miterlimit="10" d="
		M133.933,191.869l-0.334,49.668c0,0,0.668,3.748,5.668,3.748s4.666-3.748,4.666-3.748l0.939-24.867"/>
	<path fill="none" stroke="#000000" stroke-width="1.5" stroke-linecap="round" stroke-linejoin="round" stroke-miterlimit="10" d="
		M72.599,247.869c0,0,12-6.998,12-13.666"/>
	
		<line fill="none" stroke="#000000" stroke-width="1.5" stroke-linecap="round" stroke-linejoin="round" stroke-miterlimit="10" x1="96.599" y1="230.203" x2="133.599" y2="230.537"/>
	<path fill="none" stroke="#000000" stroke-width="1.5" stroke-linecap="round" stroke-linejoin="round" stroke-miterlimit="10" d="
		M144.265,232.537c0,0,4.334,12.416,10.668,14.748"/>
	<path fill="none" stroke="#000000" stroke-width="3" stroke-linecap="round" stroke-linejoin="round" stroke-miterlimit="10" d="
		M97.099,455.534l-0.5,7.25c0,0-11,11.75-12.5,14.75s0,10.5,0,10.5s12.25,7.125,29.75,0.625c0,0,1.27-8.105,0.01-10.115
		s-2.037-11.043-6.072-15.447c0,0-6.021,1.605-10.688-0.312"/>
	
		<line fill="none" stroke="#000000" stroke-width="3" stroke-linecap="round" stroke-linejoin="round" stroke-miterlimit="10" x1="108.099" y1="463.034" x2="107.599" y2="457.284"/>
	
		<line fill="none" stroke="#000000" stroke-width="1.5" stroke-linecap="round" stroke-linejoin="round" stroke-miterlimit="10" x1="99.224" y1="475.034" x2="102.265" y2="464.036"/>
	<path fill="none" stroke="#000000" stroke-width="1.5" stroke-linecap="round" stroke-linejoin="round" stroke-miterlimit="10" d="
		M84.849,478.159c0,0,8.125-3.25,14.375-3.125s14.635,3.51,14.635,3.51"/>
	<path fill="none" stroke="#000000" stroke-width="3" stroke-linecap="round" stroke-linejoin="round" stroke-miterlimit="10" d="
		M121.349,455.034l-0.75,8c0,0-3,11.875-4.5,14.875s0,10.5,0,10.5s12.25,7.125,29.75,0.625c0,0,1.27-8.105,0.01-10.115
		s-9.717-13.43-14.072-15.572c0,0-6.021,1.605-10.688-0.312"/>
	
		<line fill="none" stroke="#000000" stroke-width="3" stroke-linecap="round" stroke-linejoin="round" stroke-miterlimit="10" x1="132.099" y1="463.284" x2="131.849" y2="455.034"/>
	
		<line fill="none" stroke="#000000" stroke-width="1.5" stroke-linecap="round" stroke-linejoin="round" stroke-miterlimit="10" x1="131.224" y1="475.409" x2="126.265" y2="464.286"/>
	<path fill="none" stroke="#000000" stroke-width="1.5" stroke-linecap="round" stroke-linejoin="round" stroke-miterlimit="10" d="
		M116.849,478.534c0,0,8.125-3.25,14.375-3.125s14.635,3.51,14.635,3.51"/>
</g>
</svg>
