<?xml version="1.0" encoding="utf-8"?>
<!-- Generator: Adobe Illustrator 16.0.0, SVG Export Plug-In . SVG Version: 6.00 Build 0)  -->
<!DOCTYPE svg PUBLIC "-//W3C//DTD SVG 1.1//EN" "http://www.w3.org/Graphics/SVG/1.1/DTD/svg11.dtd">
<svg version="1.1" id="Layer_1" xmlns="http://www.w3.org/2000/svg" xmlns:xlink="http://www.w3.org/1999/xlink" x="0px" y="0px"
	 width="299px" height="560px" viewBox="0 0 299 560" enable-background="new 0 0 299 560" xml:space="preserve">
<g id="XMLID_9_">
	<path fill="#F7D5C4" d="M244.789,234.502c0.51,0.18,0.51,0.18,0.51,0.18s15.84-1.89,18.11-2.37c2.28-0.48,5.149,2.29,3.63,3.92
		c-1.53,1.64-9.641,3.89-9.641,3.89l-0.729-0.06l-7.88,1.21l-0.75,0.07c-0.45-0.57-0.85-0.95-0.85-0.95l-2.561-5.44L244.789,234.502
		z"/>
	<path fill="#F7D5C4" d="M256.189,246.152c0,0,1.24,1.24,0.74,2.9c-0.5,1.66-2.4,2.72-2.4,2.72s0.06,3.03-1.99,4.44
		c-0.65,0.45-1.74,0.88-3.02,1.27l-0.211-0.69c0,0-6.59-0.98-6.789-2.21c-0.211-1.23-0.44-2.15,0.109-2.96l0.32-0.47
		c-0.721-0.61-1.07-1.54-0.78-2.83l0.33-0.6c-0.16-0.14-0.28-0.35-0.41-0.68c-0.56-1.38,0.24-2.28,0.24-2.28l0.51-0.53
		c0.08,0.08,0.16,0.15,0.24,0.22c1.31,1.08,2.989,2,5.399,0.74c1.61-0.85,0.48-2.72-0.439-3.85l0.75-0.07l7.88-1.21l0.729,0.06
		c0,0,1.34,2.24,0.141,4.32C257.189,245.012,256.189,246.152,256.189,246.152z"/>
	<path fill="#F7D5C4" d="M232.529,256.942c-2.771-1.79-2.78-1.28-2.78-1.28s-8.19,7.63-15.81,14
		c-7.631,6.37-16.76,11.13-19.881,11.25c-3.119,0.12-9-2.38-14-9.38h-0.02c-0.49-6.32-0.971-11.83-1.42-16.58l0.439-0.04
		c0,0,6.5-2,11.5-10.25l0.061-0.03c3.17,7.66,5.939,14.7,5.939,14.7s15.5-8.67,20.75-11.67s11.681-7.05,15.101-9.74
		c3.42-2.7,7.12-5.28,10-4.26c1.271,0.45,1.979,0.7,2.38,0.84l-0.16,0.45l2.561,5.44c0,0,0.399,0.38,0.85,0.95
		c0.92,1.13,2.05,3,0.439,3.85c-2.41,1.26-4.09,0.34-5.399-0.74c-0.08-0.07-0.16-0.14-0.24-0.22l-0.51,0.53c0,0-0.8,0.9-0.24,2.28
		c0.13,0.33,0.25,0.54,0.41,0.68l-0.33,0.6c-0.29,1.29,0.06,2.22,0.78,2.83l-0.32,0.47c-0.55,0.81-0.32,1.73-0.109,2.96
		c0.199,1.23,6.789,2.21,6.789,2.21l0.211,0.69c-2.69,0.82-6.221,1.46-8.301,1.7C238.159,259.552,235.289,258.742,232.529,256.942z"
		/>
	<path fill="#3F3E6B" d="M174.699,242.252l3.609,11.16l0.16-0.02c0.051,0.51,0.1,1.03,0.15,1.56c0.449,4.75,0.93,10.26,1.42,16.58
		c0.17,2.17,0.35,4.43,0.52,6.8c4.721,115.67-9.67,189-9.67,189s-2.779,3.42-8.229,5.05c-2.761,0.84-6.21,1.2-10.33,0.42
		c-2.09-0.39-4.35-1.068-6.77-2.14l0.01-36.9c-4.04,19.03-7.52,34.83-10.62,40.9c-0.79,0.729-3.8,1.33-7.66,1.6
		c-2.8,0.182-6.05,0.182-9.23-0.08c-4.55-0.38-8.96-1.318-11.72-3.068c-1.95-23.99-3.73-62.4-3.06-176.15
		c6.82,1.54,18.39,0.432,28.81-1.02c13-1.812,17.03-2.37,18.771-1.83c7.75,2.42,17.84,3.59,19.67-1.48
		c3.619-0.67,5.029-2.22,4.279-4.898c1.371-1.94,0.68-3.892-1.209-4.881c-1.811-0.949-11.961,0.199-12.74,0.399
		c11.729-4.23,13.72-6.41,12.859-8.95c-0.869-2.56-4.689-0.9-6.89-0.05c-2.2,0.86-5.71,2.39-8.479,2.57
		c-2.771,0.19-4.91-0.16-4.5-5.01c1.08-7.26-2.94-8.41-4.351-7.9c-1.42,0.51-0.94,3.62-2.88,7.07c-1.94,3.44-1.31,4.31-1.55,6.31
		c-0.76,2-6.57,2.81-9.45,3.06c-2.38,0.209-13.04-0.23-20.07,0.25c0.07-0.69,0.72-7.311,1.21-17.42c0.05-0.81,0.09-1.65,0.12-2.51
		c1.84-1.12,7.71-5.42,9.8-15.26h0.18c0.03,5.57-0.3,9.5-0.3,9.5c5.5,4.5,10.86-1.89,10.86-1.89s0.33-3.46-0.13-10.6l0.16-0.01
		c0,0,21.64-0.53,28.64-3.28l0.67-0.07c0.66,6.69,0.7,10.57,0.72,10.9c3.221,1.54,6.541,0.24,7.541-1.39
		c-0.07-0.64-0.23-2.98-0.59-6.29L174.699,242.252z"/>
	<path fill="#A4BA24" d="M178.619,254.952c-0.051-0.53-0.1-1.05-0.15-1.56l-0.16,0.02l-3.609-11.16l-0.27,0.03
		c-1.211-11.25-4.66-33.68-14.511-38.51l0.05-0.49c3.131,1.13,6.29,2.48,8.4,3.88c5.63,3.75,10.68,13.49,14.199,19.51
		c1.711,2.93,5.061,10.72,8.051,17.96l-0.061,0.03c-5,8.25-11.5,10.25-11.5,10.25L178.619,254.952z"/>
	<path fill="#3F3E6B" d="M174.43,242.282c0.359,3.31,0.52,5.65,0.59,6.29c-1,1.63-4.32,2.93-7.541,1.39
		c-0.02-0.33-0.06-4.21-0.72-10.9c-0.25-2.56-0.6-5.52-1.06-8.86c-1.69-12.07-7.131-25.04-14.25-28.91l0.18-0.65
		c1.971,0.55,5.141,1.48,8.34,2.64l-0.05,0.49C169.77,208.602,173.219,231.032,174.43,242.282z"/>
	<path fill="#F7D5C4" d="M174.809,287.732c0.75,2.68-0.66,4.229-4.279,4.898c-1.83,5.07-11.92,3.9-19.67,1.48
		c-1.74-0.541-5.771,0.02-18.771,1.83c-10.42,1.449-21.99,2.56-28.81,1.02c-1.69-0.38-3.09-0.93-4.11-1.67
		c-4.61-7.38-4.86-25.64-4.86-25.64c0.01-2.34,0.04-4.59,0.08-6.74h0.05c0,0,8.37,4,21.87,0.25l0.45,0.02
		c-0.49,10.11-1.14,16.73-1.21,17.42c7.03-0.48,17.69-0.041,20.07-0.25c2.88-0.25,8.69-1.06,9.45-3.06c0.24-2-0.39-2.87,1.55-6.31
		c1.94-3.45,1.46-6.56,2.88-7.07c1.41-0.51,5.431,0.64,4.351,7.9c-0.41,4.85,1.729,5.2,4.5,5.01c2.77-0.18,6.279-1.71,8.479-2.57
		c2.2-0.85,6.021-2.51,6.89,0.05c0.86,2.54-1.13,4.72-12.859,8.95c0.779-0.2,10.93-1.351,12.74-0.399
		C175.488,283.842,176.18,285.792,174.809,287.732z"/>
	<path fill="#BF5858" d="M176.859,167.792c-8.381-0.88-12.51-4.2-14.44-6.59l0.021-0.02c0,0,5.41,0.4,10.41,2.69l0.609-0.39
		c0.92,0.69,2.13,1.91,3.49,4.26L176.859,167.792z"/>
	<path fill="#A4BA24" d="M185.488,479.862c1.801,0.148,3.41,0.239,4.851,0.35l-0.05,0.69c-1.78,0.47-3.26,1.148-4.49,1.979
		l-0.01-0.02c-8.551,0.3-22.5-4.062-22.5-4.062l-1.4-0.12c0.34-0.25,0.66-0.55,0.95-0.92v-2.699h0.75
		C163.589,475.062,178.439,479.252,185.488,479.862z"/>
	<path fill="#F7D5C4" d="M162.839,475.062v2.698c-0.29,0.37-0.61,0.67-0.95,0.92c-3.6,2.632-9.85-0.63-9.85-0.63v-0.1l0.22-4.771
		l0.07-0.38c4.12,0.78,7.569,0.42,10.33-0.42l0.18,0.62V475.062z"/>
	<path d="M172.85,163.872c-5-2.29-10.41-2.69-10.41-2.69l-0.021,0.02c-1.17-1.44-1.53-2.54-1.53-2.54s8.68-0.47,13.12-1.67
		l0.21,0.54l-0.869,0.34c0,0-0.94,2.18-0.961,4.92c0.291,0.16,0.65,0.37,1.07,0.69L172.85,163.872z"/>
	<path fill="#A4BA24" d="M147.409,491.022c2.45,1.39,4.409,2.318,5.3,2.26l0.02,0.68c-2.479,0.08-4.589,0.4-6.39,0.9v-0.011
		c-3.6-1.199-19.35-11.851-19.35-11.851l-1.19-0.03c1.09-0.699,1.58-1.729,1.77-2.75l0.84,0.012
		C131.799,481.032,141.209,487.512,147.409,491.022z"/>
	<path fill="#A4BA24" d="M152.039,478.052c0,0,6.25,3.261,9.85,0.63l1.4,0.12c0,0,13.949,4.36,22.5,4.062l0.01,0.02
		c-7.4,4.94-5.859,14.971-5.859,14.971l-0.121,0.921c-7.67-1.012-12.379-1.41-16.17-1.302l-0.25,0.12
		c-1.93-4.02-7.939-4.51-10.689-4.31c-0.891,0.06-2.85-0.87-5.3-2.26l0.06-0.102c-0.05-0.979-0.08-2.148-0.08-3.56
		c0-6.75,3.45-9.46,3.45-9.46l1.2,0.05V478.052L152.039,478.052z"/>
	<path fill="#A4BA24" d="M151.449,201.292c7.119,3.87,12.56,16.84,14.25,28.91c0.46,3.34,0.81,6.3,1.06,8.86l-0.67,0.07
		c-7,2.75-28.64,3.28-28.64,3.28l-0.16,0.01c-0.26-3.89-0.74-8.87-1.64-14.97c-3.45-21.7-17.09-21.79-17.09-21.79
		c1.97-0.76,4.18-1.75,5.77-3.04l0.9,0.04c0,0,8.5,8.17,20.33,7.17c11.839-1,4-8.84,4-8.84l0.21-0.85c0.28,0.07,0.94,0.24,1.86,0.5
		L151.449,201.292z"/>
	<path fill="#3F3E6B" d="M137.289,242.422c0.46,7.14,0.13,10.6,0.13,10.6s-5.36,6.39-10.86,1.89c0,0,0.33-3.93,0.3-9.5
		c-0.06-13.42-2.14-36.32-15.74-36.34c1.47-0.86,3.03-1.64,4.69-2.41c0.78-0.28,1.73-0.61,2.75-1c0,0,13.64,0.09,17.09,21.79
		C136.549,233.552,137.029,238.532,137.289,242.422z"/>
	<path fill="#F7D5C4" d="M127.349,476.942c0.14,0.488,0.47,1.88,0.22,3.278c-0.19,1.021-0.68,2.051-1.77,2.75
		c-0.1,0.062-0.2,0.12-0.31,0.182c-3.38,1.8-7.43-1.352-7.43-1.352v-1.568v-4.052c3.18,0.262,6.43,0.262,9.23,0.08L127.349,476.942z
		"/>
	<path fill="#A4BA24" d="M126.989,483.002c0,0,15.75,10.65,19.35,11.852v0.01c-11.87,3.26-10.2,14.09-10.2,14.09l-0.38,0.67
		c-0.99-0.56-2.01-1.21-3.07-1.94c-6.53-4.5-21.6-8.328-21.6-8.328s-0.9-8.32,0.67-13.95c1.58-5.62,5.63-5.17,5.63-5.17h0.67v1.568
		c0,0,4.05,3.15,7.43,1.352c0.11-0.062,0.21-0.12,0.31-0.182L126.989,483.002z"/>
	<path fill="#F7C63C" d="M126.929,107.042c0,0,3.15,5.21-7.38,20.83c0,0,13.07,13.36,8.83,26.57c0,0-2.94-4.86-7.61-10.29
		c-0.28-0.33-0.58-0.61-0.88-0.84c-4.63-3.68-10.75,3.33-6.06,11.41c5.63,10.89,5.53,10.43,9.58,13.78c0.13,0.11,0.26,0.22,0.4,0.34
		c-3.46,4.98-2,9.35,1.75,17.82c-1.13,1.61-5,1.63-5,1.63l-0.01,0.05c-3.43-0.76-8-0.04-12.74,0.07c-4.2,0.1-10.84,1.01-14.92-0.25
		c-10.25-3.16-10.67-10.65-10.67-10.65c-9.05,1.39-15.56-2.31-20.56-8.3c-5-6-7.86-16.37-4.95-22.26
		c0.34-0.12-17.68-3.91-14.53-23.57c3.15-19.67,15.71-18.79,15.71-18.79s-7.96-9.31,4.8-26.38c12.77-17.07,31.05-3.35,31.05-3.35
		s3.68-14.97,17.87-17.94c14.19-2.98,21.1,7.65,21.1,7.65s12.02-9.5,22.59-3.44c10.561,6.06,9.311,19.23,9.311,19.23
		s9.649,4.01,10.55,13.35c0.899,9.33-4.67,16.86-4.67,16.86l-0.53,0.11c-1.29-5.81-2.891-9.83-2.891-9.83v-0.43
		c0,0-3.639-2.1-6.18-4.52c-2.539-2.41-6.209-6.25-6.209-6.25c-0.451,5.31-4.58,9.03-10.94,12.59
		C137.369,105.802,126.929,107.042,126.929,107.042z"/>
	<path fill="#F7D5C4" d="M122.809,154.872c3.28,5.81,7.75,14.29,1.5,13.4l-0.9,0.23c-4.05-3.35-3.95-2.89-9.58-13.78
		c-4.69-8.08,1.43-15.09,6.06-11.41l-0.36,0.5C122.189,147.692,119.529,149.062,122.809,154.872z"/>
	<path fill="#F7D5C4" d="M120.769,144.152c4.67,5.43,7.61,10.29,7.61,10.29c4.24-13.21-8.83-26.57-8.83-26.57
		c10.53-15.62,7.38-20.83,7.38-20.83s10.44-1.24,16.81-4.8c6.361-3.56,10.49-7.28,10.941-12.59c0,0,3.67,3.84,6.209,6.25
		c2.541,2.42,6.18,4.52,6.18,4.52v0.43c0,0,1.601,4.02,2.891,9.83c0.55,2.51,1.05,5.36,1.33,8.37c0.93,9.96,3.49,14.22,8.52,15.81
		c5.49,0.08,7.101,6.4,0.641,10.81c0,0,0.67,1.17,1.15,2.88c0.319,1.09,1.289,2.41,1.219,3.78c-0.029,0.59-0.639,1.95-0.649,2.14
		l-7.95,3.06l-0.21-0.54c-4.44,1.2-13.12,1.67-13.12,1.67s0.36,1.1,1.53,2.54c1.931,2.39,6.06,5.71,14.44,6.59l0.09-0.05
		c0.01,0.02,0.02,0.03,0.029,0.05c1.91,0.04,3.4,0.04,4.121,1.62c0.719,1.59-1.591,4.8-1.341,5.05c0.591,3.49-1.95,9.7-5.2,10.45
		s-19.689,1.75-25.75,2.5c-2.29,3.96-1.69,7.56,0.81,12.69c0,0,0.05,0.01,0.15,0.04l-0.21,0.85c0,0,7.839,7.84-4,8.84
		c-11.83,1-20.33-7.17-20.33-7.17l-0.9-0.04c1.26-1.02,2.13-2.23,2.19-3.67c0.06-1.8,0.54-6.54-2.91-9.24
		c-0.87-0.68-1.9-1.11-3.06-1.37l0.01-0.05c0,0,3.87-0.02,5-1.63c-3.75-8.47-5.21-12.84-1.75-17.82c-0.14-0.12-0.27-0.23-0.4-0.34
		l0.9-0.23c6.25,0.89,1.78-7.59-1.5-13.4c-3.28-5.81-0.62-7.18-3.28-11.06l0.36-0.5
		C120.189,143.542,120.489,143.822,120.769,144.152z"/>
	<path fill="#A4BA24" d="M116.309,263.162c-13.5,3.75-21.87-0.25-21.87-0.25h-0.05c0.79-37.94,6.39-47.82,16.73-53.84
		c13.6,0.02,15.68,22.92,15.74,36.34h-0.18c-2.09,9.84-7.96,14.14-9.8,15.26c-0.03,0.86-0.07,1.7-0.12,2.51L116.309,263.162z"/>
	<path fill="#FFFFFF" d="M152.71,492.95c2.75-0.2,8.76,0.29,10.69,4.31c0.279,0.58,0.47,1.25,0.56,1.99
		c0.68,5.85-0.67,10.8-10.35,12.37c-8.101,1.32-12.73,0.59-17.851-2.33l0.38-0.67c0,0-1.67-10.83,10.2-14.09
		c1.8-0.5,3.91-0.82,6.391-0.9L152.71,492.95z"/>
	<path fill="#FFFFFF" d="M199.58,482.83c3,3,2.25,9.14,1.96,10.64c-0.31,1.5-6.75,3.61-6.75,3.61c-10.21,2.85-13.96,1.5-13.96,1.5
		c-0.34-0.05-0.68-0.09-1.01-0.13l0.12-0.931c0,0-1.551-10.029,5.859-14.979c1.24-0.82,2.72-1.5,4.49-1.97l0.05-0.681
		C194.54,480.19,197.35,480.6,199.58,482.83z"/>
</g>
<g id="line_1_">
	<path fill="none" stroke="#000000" stroke-width="3" stroke-linecap="round" stroke-linejoin="round" stroke-miterlimit="10" d="
		M180.059,271.204c5,7,10.875,9.5,14,9.375s12.25-4.875,19.875-11.25s15.817-13.995,15.817-13.995s0.011-0.515,2.774,1.279
		c2.766,1.797,5.636,2.602,8.692,2.239c3.06-0.362,9.271-1.562,11.322-2.973c2.049-1.41,1.989-4.442,1.989-4.442
		s1.9-1.062,2.395-2.717c0.499-1.657-0.732-2.906-0.732-2.906s0.998-1.131,1.346-1.705c1.197-2.084-0.141-4.315-0.141-4.315
		s8.115-2.257,9.641-3.892c1.521-1.634-1.346-4.408-3.625-3.923c-2.278,0.483-18.115,2.37-18.115,2.37s0,0-2.886-1.019
		c-2.886-1.018-6.58,1.561-10.003,4.255c-3.424,2.696-9.85,6.743-15.1,9.743s-20.75,11.669-20.75,11.669
		s-10.469-26.637-13.99-32.658c-3.521-6.021-8.572-15.761-14.197-19.511s-18.75-7.062-18.75-7.062
		c-2.5-5.125-3.098-8.729-0.812-12.689c6.058-0.748,22.5-1.748,25.75-2.498s5.789-6.958,5.203-10.452
		c-0.25-0.25,2.059-3.462,1.338-5.046s-2.207-1.584-4.125-1.625c-1.998-3.459-3.666-4.5-4.59-5c0.025-2.734,0.965-4.92,0.965-4.92
		l8.82-3.393c0.008-0.199,0.615-1.555,0.645-2.146c0.069-1.365-0.896-2.685-1.211-3.783c-0.484-1.701-1.153-2.875-1.153-2.875
		c6.459-4.408,4.848-10.729-0.642-10.811c-5.031-1.587-7.593-5.851-8.523-15.81c-0.93-9.96-4.217-18.2-4.217-18.2"/>
	<path fill="none" stroke="#000000" stroke-width="3" stroke-linecap="round" stroke-linejoin="round" stroke-miterlimit="10" d="
		M170.49,110.236c0,0,5.572-7.527,4.67-16.86c-0.905-9.336-10.549-13.346-10.549-13.346s1.25-13.173-9.316-19.232
		c-10.568-6.061-22.586,3.438-22.586,3.438s-6.91-10.632-21.102-7.651c-14.188,2.976-17.865,17.94-17.865,17.94
		s-18.286-13.712-31.051,3.354c-12.766,17.068-4.806,26.379-4.806,26.379s-12.554-0.876-15.705,18.791
		c-3.153,19.665,14.867,23.449,14.532,23.57c-2.912,5.891-0.05,16.257,4.947,22.256c4.998,5.996,11.509,9.689,20.559,8.309
		c0,0,0.422,7.483,10.672,10.646c4.083,1.26,10.72,0.347,14.919,0.25c6.342-0.146,12.357-1.393,15.804,1.304
		c3.447,2.697,2.971,7.432,2.901,9.241c-0.16,4.175-7.205,6.455-10.705,7.705c-14,6.5-21.225,13.592-21.5,62.993
		c0,0,0.25,18.259,4.859,25.632c5.141,3.75,19.922,2.469,32.922,0.656c13-1.813,17.025-2.37,18.766-1.829
		c7.756,2.413,17.848,3.587,19.676-1.479c3.619-0.67,5.027-2.223,4.277-4.9c1.375-1.946,0.676-3.889-1.215-4.885
		c-1.891-0.994-12.938,0.311-12.801,0.422c11.781-4.236,13.79-6.415,12.924-8.971c-0.865-2.555-4.688-0.9-6.889-0.046
		s-5.715,2.384-8.48,2.571s-4.914-0.164-4.498-5.017c1.082-7.257-2.938-8.407-4.354-7.898c-1.417,0.509-0.94,3.624-2.877,7.07
		c-1.938,3.443-1.309,4.306-1.544,6.306c-0.765,2-6.577,2.812-9.452,3.062s-17.812-0.438-23.879,0.688"/>
	<path fill="none" stroke="#000000" stroke-width="3" stroke-linecap="round" stroke-linejoin="round" stroke-miterlimit="10" d="
		M120.559,187.954c0,0,3.865-0.013,5-1.625c-3.75-8.467-5.206-12.843-1.75-17.816c-4.462-3.732-4.172-2.882-9.979-14.119
		c-4.991-8.606,2.258-15.991,6.936-10.57c4.675,5.425,7.618,10.284,7.618,10.284c4.234-13.209-8.836-26.565-8.836-26.565
		c10.531-15.623,7.383-20.834,7.383-20.834s10.44-1.235,16.807-4.797c6.366-3.559,10.495-7.285,10.942-12.596
		c0,0,3.676,3.846,6.215,6.257c2.537,2.414,6.18,4.52,6.18,4.52"/>
	<path fill="none" stroke="#000000" stroke-width="1.5" stroke-linecap="round" stroke-linejoin="round" stroke-miterlimit="10" d="
		M127.124,106.053c0,0-13.321-1.521-16.613-9.617c-3.293-8.095,3.688-12.43,8.096-10.788c4.411,1.644,4.98,5.246,1.876,8.219"/>
	<path fill="none" stroke="#000000" stroke-width="1.5" stroke-linecap="round" stroke-linejoin="round" stroke-miterlimit="10" d="
		M158.822,113.274c0,0-8.176-4.11-12.307,1.759c-3.323,4.333-6.883,12.133-6.883,12.133"/>
	<path fill="none" stroke="#000000" stroke-width="1.5" stroke-linecap="round" stroke-linejoin="round" stroke-miterlimit="10" d="
		M162.118,132.646c0,0-1.417-2.894-2.955-4.066c-1.542-1.177-4.69,0.341-6.604,2.259c-1.916,1.914-3.122,4.384-3.643,5.465"/>
	<path fill="none" stroke="#000000" stroke-width="1.5" stroke-linecap="round" stroke-linejoin="round" stroke-miterlimit="10" d="
		M174.014,156.659c-4.441,1.203-13.119,1.667-13.119,1.667s2.508,8.45,15.967,9.868"/>
	<path fill="none" stroke="#000000" stroke-width="1.5" stroke-linecap="round" stroke-linejoin="round" stroke-miterlimit="10" d="
		M170.8,145.027c2.606,5.747,5.347,2.152,5.347,2.152s-0.221-1.77,1.006-2.634c0.127-0.023,2.537,0.489,2.537,0.489"/>
	<path fill="none" stroke="#000000" stroke-width="1.5" stroke-linecap="round" stroke-linejoin="round" stroke-miterlimit="10" d="
		M119.53,143.48c2.659,3.877-0.001,5.251,3.279,11.06c3.28,5.809,7.75,14.289,1.5,13.395"/>
	<path fill="none" stroke="#000000" stroke-width="1.5" stroke-linecap="round" stroke-linejoin="round" stroke-miterlimit="10" d="
		M163.04,160.853c0,0,4.812,0.395,9.812,2.687"/>
	<path fill="none" stroke="#000000" stroke-width="1.5" stroke-linecap="round" stroke-linejoin="round" stroke-miterlimit="10" d="
		M152.559,186.079c0,0-4.75,0-10.104-1.104"/>
	<path fill="none" stroke="#000000" stroke-width="3" stroke-linecap="round" stroke-linejoin="round" stroke-miterlimit="10" d="
		M115.537,280.329c0,0,2.022-19.5,1.772-44.5"/>
	<path fill="none" stroke="#000000" stroke-width="1.5" stroke-linecap="round" stroke-linejoin="round" stroke-miterlimit="10" d="
		M244.628,234.618l2.563,5.44c0,0,3.686,3.534,1.281,4.797c-2.4,1.262-4.084,0.34-5.392-0.734c-1.31-1.071-2.369-3.701-2.369-3.701
		s-1.312,5.044-4.767,6.584"/>
	
		<line fill="none" stroke="#000000" stroke-width="1.5" stroke-linecap="round" stroke-linejoin="round" stroke-miterlimit="10" x1="248.785" y1="240.942" x2="256.668" y2="239.726"/>
	<path fill="none" stroke="#000000" stroke-width="1.5" stroke-linecap="round" stroke-linejoin="round" stroke-miterlimit="10" d="
		M255.346,245.282c0,0-4.535,1.395-8.443,1.81c-3.907,0.416-4.258,0.994-4.812-0.385c-0.556-1.376,0.242-2.282,0.242-2.282"/>
	<path fill="none" stroke="#000000" stroke-width="1.5" stroke-linecap="round" stroke-linejoin="round" stroke-miterlimit="10" d="
		M253.134,250.981c0,0-4.911,0.82-7.269,0.753c-2.356-0.068-4.266-1.188-3.699-3.748"/>
	<path fill="none" stroke="#000000" stroke-width="1.5" stroke-linecap="round" stroke-linejoin="round" stroke-miterlimit="10" d="
		M249.305,256.459c0,0-6.584-0.979-6.789-2.207c-0.205-1.229-0.433-2.155,0.114-2.958"/>
	<path fill="none" stroke="#000000" stroke-width="1.5" stroke-linecap="round" stroke-linejoin="round" stroke-miterlimit="10" d="
		M227.583,251.544c0,0,0.664,1.631,3.504,3.248"/>
	<path fill="none" stroke="#000000" stroke-width="1.5" stroke-linecap="round" stroke-linejoin="round" stroke-miterlimit="10" d="
		M173.934,287.488c0,0-5.75,0.449-13.516,0.466"/>
	<path fill="none" stroke="#000000" stroke-width="1.5" stroke-linecap="round" stroke-linejoin="round" stroke-miterlimit="10" d="
		M170.432,291.684c0,0-4.123,0.021-11.127,0.034"/>
	<path fill="none" stroke="#000000" stroke-width="1.5" stroke-linecap="round" stroke-linejoin="round" stroke-miterlimit="10" d="
		M94.434,262.579c0,0,8.375,4,21.875,0.25"/>
	<path fill="none" stroke="#000000" stroke-width="1.5" stroke-linecap="round" stroke-linejoin="round" stroke-miterlimit="10" d="
		M118.559,205.329c0,0,13.637,0.086,17.09,21.789c2.547,17.297,1.771,25.572,1.771,25.572s-5.361,6.389-10.861,1.889
		c0,0,4-48.25-17-45.75"/>
	<path fill="none" stroke="#000000" stroke-width="1.5" stroke-linecap="round" stroke-linejoin="round" stroke-miterlimit="10" d="
		M125.229,202.329c0,0,8.5,8.167,20.333,7.167c11.833-1,4-8.834,4-8.834"/>
	<path fill="none" stroke="#000000" stroke-width="1.5" stroke-linecap="round" stroke-linejoin="round" stroke-miterlimit="10" d="
		M151.445,200.954c7.125,3.875,12.562,16.85,14.25,28.912c1.688,12.062,1.75,19.299,1.787,19.762
		c3.213,1.537,6.539,0.238,7.539-1.387c-0.326-2.826-2.352-38.551-15.102-44.801"/>
	<path fill="none" stroke="#000000" stroke-width="1.5" stroke-linecap="round" stroke-linejoin="round" stroke-miterlimit="10" d="
		M116.309,260.665c0,0,7.875-3.836,10.375-15.586"/>
	<path fill="none" stroke="#000000" stroke-width="1.5" stroke-linecap="round" stroke-linejoin="round" stroke-miterlimit="10" d="
		M137.446,242.079c0,0,21.639-0.525,28.639-3.275"/>
	
		<line fill="none" stroke="#000000" stroke-width="1.5" stroke-linecap="round" stroke-linejoin="round" stroke-miterlimit="10" x1="178.309" y1="253.079" x2="174.695" y2="241.915"/>
	<path fill="none" stroke="#000000" stroke-width="3" stroke-linecap="round" stroke-linejoin="round" stroke-miterlimit="10" d="
		M175.809,230.19c0,0,2.25,13.639,4.75,47.806c4.721,115.67-9.666,189-9.666,189s-8.668,10.666-25.333,3.334l0.012-37.039"/>
	<path fill="none" stroke="#000000" stroke-width="1.5" stroke-linecap="round" stroke-linejoin="round" stroke-miterlimit="10" d="
		M179.059,254.579c0,0,6.5-2,11.5-10.25"/>
	<path fill="none" stroke="#000000" stroke-width="3" stroke-linecap="round" stroke-linejoin="round" stroke-miterlimit="10" d="
		M164.543,356.932c-13.25,37.75-22.461,103.4-29.598,117.4c-2.196,2-21.275,3.109-28.609-1.557
		c-1.946-23.998-3.724-62.443-3.057-176.36"/>
	<path fill="none" stroke="#000000" stroke-width="3" stroke-linecap="round" stroke-linejoin="round" stroke-miterlimit="10" d="
		M118.061,475.666v5.807c0,0,4.051,3.15,7.426,1.353c3.375-1.801,1.8-6.408,1.8-6.408"/>
	<path fill="none" stroke="#000000" stroke-width="3" stroke-linecap="round" stroke-linejoin="round" stroke-miterlimit="10" d="
		M117.387,479.898c0,0-4.051-0.449-5.625,5.176c-1.576,5.625-0.676,13.949-0.676,13.949s15.075,3.823,21.6,8.323
		s11.25,5.853,20.925,4.275c9.676-1.574,11.025-6.525,10.351-12.375s-8.101-6.525-11.25-6.299
		c-3.15,0.225-19.574-11.926-24.3-13.051"/>
	<path fill="none" stroke="#000000" stroke-width="1.5" stroke-linecap="round" stroke-linejoin="round" stroke-miterlimit="10" d="
		M136.136,508.625c0,0-2.25-14.551,16.95-15"/>
	<path fill="none" stroke="#000000" stroke-width="1.5" stroke-linecap="round" stroke-linejoin="round" stroke-miterlimit="10" d="
		M126.986,482.674c0,0,15.75,10.65,19.351,11.851"/>
	<path fill="none" stroke="#000000" stroke-width="3" stroke-linecap="round" stroke-linejoin="round" stroke-miterlimit="10" d="
		M152.26,472.852l-0.226,4.873c0,0,7.501,3.9,10.8-0.299v-4.76"/>
	<path fill="none" stroke="#000000" stroke-width="3" stroke-linecap="round" stroke-linejoin="round" stroke-miterlimit="10" d="
		M163.652,497.139c3.951-0.123,8.91,0.334,17.183,1.438c0,0,3.75,1.35,13.95-1.5c0,0,6.449-2.103,6.75-3.603
		c0.3-1.5,1.05-7.647-1.95-10.647c-3-3.002-7.051-2.701-14.101-3.301c-7.051-0.603-21.899-4.802-21.899-4.802"/>
	<path fill="none" stroke="#000000" stroke-width="3" stroke-linecap="round" stroke-linejoin="round" stroke-miterlimit="10" d="
		M150.834,477.574c0,0-3.449,2.701-3.449,9.451c0,1.409,0.031,2.584,0.084,3.561"/>
	<path fill="none" stroke="#000000" stroke-width="1.5" stroke-linecap="round" stroke-linejoin="round" stroke-miterlimit="10" d="
		M179.936,497.523c0,0-2.102-13.648,10.351-16.949"/>
	<path fill="none" stroke="#000000" stroke-width="1.5" stroke-linecap="round" stroke-linejoin="round" stroke-miterlimit="10" d="
		M163.286,478.475c0,0,13.95,4.353,22.5,4.052"/>
</g>
</svg>
