<?xml version="1.0" encoding="utf-8"?>
<!-- Generator: Adobe Illustrator 16.0.0, SVG Export Plug-In . SVG Version: 6.00 Build 0)  -->
<!DOCTYPE svg PUBLIC "-//W3C//DTD SVG 1.1//EN" "http://www.w3.org/Graphics/SVG/1.1/DTD/svg11.dtd">
<svg version="1.1" id="Layer_1" xmlns="http://www.w3.org/2000/svg" xmlns:xlink="http://www.w3.org/1999/xlink" x="0px" y="0px"
	 width="275.471px" height="560px" viewBox="0 0 275.471 560" enable-background="new 0 0 275.471 560" xml:space="preserve">
<g id="XMLID_10_">
	<path fill="#A4BA24" d="M238.799,501.162c-3.04-0.04-5.62,0.271-7.8,0.82l-0.13-0.562c0,0-12.16-7.13-15.07-17.45
		c2.188-0.601,2.82-2.061,2.85-3.45l0.28,0.012c5.88,9.101,7.76,14.45,17.66,20.068c0.8,0.052,1.55,0.2,2.25,0.44L238.799,501.162z"
		/>
	<path fill="#F7D5C4" d="M246.519,78.152c-0.8,0.52-3.31,1.98-5.13,1.27c1.24,1.15,1.53,1.22,1.53,3.4
		c0.188-0.42,0.38-0.88,0.57-1.37c0.538-1.44,2.02-2.6,3.05-3.27L246.519,78.152z M234.899,75.533c-0.12-0.52-0.198-1.13-0.198-1.78
		c-0.012-2.5-0.16-5.07,1.14-6.04c0.05-0.04,0.11-0.08,0.17-0.11l-0.15-0.22c0,0,0.17-0.94,0.75-2.47c0.592-1.53,2.7-3.59,3.82-3.53
		c1.12,0.06,8.03,2.03,11.05,2.77l0.23-0.42c1.53,0.85,2.81,1.6,3.67,2.11c3.33,2.07,1.97,5.6,1.54,8.96
		c-0.41,3.2-1.2,14.65-3.72,23.05c-0.132,0.42-0.262,0.82-0.392,1.22c-2.18,4.87-3.33,21.16-8.72,36.04
		c-7.7,20.7-17.29,38.15-25.73,51.82c-5.26-13.08-16.278-14.66-18.658-14.85c6.26-7.59,13.06-17.62,20.02-28.63
		c11.34-24.07,13.311-25.75,19.45-44.34c-0.37,0.34-2.8-3.59-4.15-5.36c-1.34-1.76-3.38-3.91-4.18-10.2
		c-0.42-3.35-1.18-5.56-1.95-7.24l0.47-0.21c0.24,0.37,1,1.39,2.2,1.67c1.48,0.34,2.812-2.11,2.812-2.11L234.899,75.533z"/>
	<path fill="#F7D5C4" d="M235.859,67.382l0.15,0.22c-0.06,0.03-0.12,0.07-0.17,0.11c-1.3,0.97-1.15,3.54-1.14,6.04
		c0,0.65,0.078,1.26,0.198,1.78l-0.528,0.13c0,0-1.33,2.45-2.812,2.11c-1.2-0.28-1.96-1.3-2.2-1.67l-0.47,0.21
		c-0.66-1.47-1.34-2.53-1.81-3.59c-0.65-1.98,0.47-4.26,1.528-5.38c1.99-2.1,5.602,0.17,5.602,0.17
		c-0.562-3.67,1.87-8.87,3.898-9.54c0.932-0.23,3.42,0.43,5.45,1.43c2.83,1.38,5.78,2.99,8.15,4.33l-0.23,0.42
		c-3.02-0.74-9.93-2.71-11.05-2.77c-1.12-0.06-3.229,2-3.82,3.53C236.029,66.442,235.859,67.382,235.859,67.382z"/>
	<path fill="#A4BA24" d="M217.059,516.354c-2.54-2-3.21-9.601-7.49-10.671c-4.278-1.068-9.63-5.35-9.63-5.35
		c-3.479-16.851,5.08-19.801,5.08-19.801l0.682-0.09l0.31,2.47c0,0,5.03,2.381,9.79,1.061c2.91,10.32,15.07,17.45,15.07,17.45
		l0.13,0.562c-12.8,3.198-12.03,14.778-12.03,14.778l-0.07,0.29C218.039,516.862,217.409,516.622,217.059,516.354z"/>
	<path fill="#F7D5C4" d="M217.909,477.362c0,0,0.77,1.54,0.738,3.16c-0.028,1.39-0.658,2.85-2.85,3.448
		c-4.76,1.32-9.79-1.061-9.79-1.061l-0.31-2.47l-0.222-1.762l0.021-0.87c3.729,0.132,8.148-0.13,12.01-1.488L217.909,477.362z"/>
	<path fill="#3F3E6B" d="M221.649,474.232c-1.25,0.88-2.658,1.568-4.14,2.09c-3.86,1.358-8.28,1.62-12.01,1.488
		c-4.8-0.18-8.48-1.01-8.48-1.01c-21.028-34.891-45.66-113.13-45.66-113.13c-13.34,46.18-50.278,115.18-50.278,115.18
		c-1.95,0.472-3.852,0.642-5.67,0.592c-4.16-0.102-7.9-1.33-10.882-2.74c-4.328-2.062-7.05-4.521-7.05-4.521
		s12.83-57.46,23.09-104.659c7.302-33.561,10.53-89.169,10.062-121.581l0.37-0.01c0,0,10.26-4.45,12.66-13.34h0.118
		c0.052,2.83,0.11,5.39,0.222,7.52c0,0,6.148,4.79,11.29-0.34c0,0-0.12-3.47-0.36-8.89h0.01h35.23l0.26-0.01
		c0.12,2.54,0.26,4.97,0.43,7.19c0,0,5.812,5.82,10.602,0.34c0,0-0.3-2.96-0.67-7.49l0.33-0.03c0,0,5.13,16.42,13.68,18.13
		l0.74,0.02c-0.5,18.26-0.37,40.839-0.57,58.47C194.459,353.673,221.649,474.232,221.649,474.232z"/>
	<path fill="#A4BA24" d="M218.359,186.933c-9.55,15.46-17.618,26.05-19.8,30.95c-1.79,4.02-2.608,16.12-3.02,31.15l-0.74-0.02
		c-8.55-1.71-13.68-18.13-13.68-18.13l-0.33,0.03c-1.021-12.44-2.602-36.75-0.062-44.37c5.222-0.13,11.74-5.68,18.972-14.46
		C202.079,172.272,213.099,173.853,218.359,186.933z"/>
	<path fill="#F7D5C4" d="M190.669,152.453c3.479-5.83,6.188-12.82,7.53-20.95l1.22,0.19c0,0,3.438-0.5,6.22,0.62
		c2.021,0.83,3.7,2.51,3.45,5.88c-0.38,4.78-2.14,8.76-8.96,11.82c-2.33,1.03-5.25,1.97-8.9,2.78L190.669,152.453z"/>
	<path fill="#F7C63C" d="M200.129,150.013l0.31,0.67c-4.488,8.25-5.05,9.67-12.56,12.49c-5.71,9.75-23.05,13.95-23.05,13.95
		l-1.182-0.09c0.142-0.58,0.302-1.16,0.472-1.71c2.31-1.79,8.618-3.44,16.89-10.97c3.52-3.2,6.84-7.16,9.66-11.9l0.56,0.34
		C194.879,151.982,197.799,151.042,200.129,150.013z"/>
	<path fill="#3F3E6B" d="M180.789,230.913c0.37,4.53,0.67,7.49,0.67,7.49c-4.79,5.48-10.602-0.34-10.602-0.34
		c-0.17-2.22-0.31-4.65-0.43-7.19c-0.86-18.56-0.6-43.43-0.6-43.43l0.05-1.1c3.12,0.18,6.91,0.31,10.85,0.2
		C178.189,194.163,179.769,218.473,180.789,230.913z"/>
	<path fill="#F7D5C4" d="M198.559,129.062c-0.108,0.82-0.22,1.64-0.358,2.44c-1.342,8.13-4.052,15.12-7.53,20.95
		c-2.82,4.74-6.142,8.7-9.66,11.9c-8.271,7.53-14.58,9.18-16.89,10.97c-0.17,0.55-0.33,1.13-0.472,1.71
		c-1.028,4.1-1.52,8.62-1.52,8.62s1.53,0.2,4.02,0.41l-0.08,1.04c0,0-5.13,9.92-15.729,10.26c-9.8,0.31-14.63-8.42-15.32-9.75
		c4.09-1.85,2.74-6.95,1.562-9.86c-0.521-1.26-1-2.11-1-2.11s-7.69-1.92-19.62-11.04c-3.7-3.57-6.51-6.77-8.71-9.84
		c-4.9-6.79-6.87-12.96-9-21.09h-0.01c-0.16-0.62-0.32-1.25-0.49-1.89c0.25-11.03,0.229-10.83,1.33-17.14
		c1.16-6.67,0.67-9.98,0.67-9.98c14.67-6.49,19.568-23.74,19.568-23.74s9.24,7.72,28.222,7.32c18.979-0.41,25.14-17.09,25.14-17.09
		c-2.05,14.44,16.13,25.48,22.29,27.02C193.939,108.343,198.219,114.252,198.559,129.062z M172.909,140.413c0,0-0.96-0.95-2.7-2.19
		c-3.67-2.64-10.8-6.63-19.62-5.93c-11.12,0.88-17.16,3.82-21.25,10.32c-0.7,1.1-1.34,2.3-1.93,3.62c2.528,0.8,4.738,1.59,6.778,2.3
		c4.03,1.41,7.44,2.54,11.53,3c6.16,0.68,13.51,0.76,17.35-3.42c0.842-0.91,1.78-1.79,2.74-2.61
		C169.239,142.562,172.909,140.413,172.909,140.413z"/>
	<path fill="#BF5858" d="M165.559,145.203l0.25,0.3c-0.96,0.82-1.898,1.7-2.74,2.61c-3.84,4.18-11.188,4.1-17.35,3.42
		c-4.09-0.46-7.5-1.59-11.53-3l0.24-0.68c-0.86-2.65,10.01-7.18,17.53-4.28C151.959,143.573,162.139,138.533,165.559,145.203z"/>
	<path fill="#F7C63C" d="M135.579,177.692c-10.262-0.76-19.512-5.13-25.521-13.08c-7.85-1.54-11.17-6.93-13.6-12.05l0.108-0.3
		c2.75,1.07,6.12,2.03,10.16,2.87l0.521-0.37c2.2,3.07,5.01,6.27,8.71,9.84c11.93,9.12,19.62,11.04,19.62,11.04s0.479,0.85,1,2.11
		L135.579,177.692z"/>
	<path fill="#A4BA24" d="M134.929,230.882c-0.46-10.44-1.37-28.11-2.72-42.07l-0.74-0.55c0.49,0,0.96-0.01,1.42-0.05
		c0.83-0.12,1.54-0.32,2.13-0.6c0.69,1.33,5.521,10.06,15.32,9.75c10.6-0.34,15.729-10.26,15.729-10.26l0.08-1.04
		c1.08,0.1,2.34,0.19,3.73,0.28l-0.05,1.1c0,0-0.262,24.87,0.6,43.43l-0.26,0.01h-35.23H134.929z"/>
	<path fill="#3F3E6B" d="M134.929,230.882c0.24,5.42,0.36,8.89,0.36,8.89c-5.142,5.13-11.29,0.34-11.29,0.34
		c-0.11-2.13-0.17-4.69-0.222-7.52c-0.238-15.37,0.132-38.81-2.18-45.74l0.08-0.26c3.7,1.08,7,1.67,9.79,1.67l0.74,0.55
		C133.559,202.772,134.469,220.442,134.929,230.882z"/>
	<path d="M151.959,143.573c-7.521-2.9-18.392,1.63-17.53,4.28l-0.24,0.68c-2.04-0.71-4.25-1.5-6.778-2.3
		c0.59-1.32,1.229-2.52,1.93-3.62l0.04,0.02c0,0,16.12-10.55,40.83-4.4v-0.01c1.74,1.24,2.7,2.19,2.7,2.19s-3.672,2.15-7.102,5.09
		l-0.25-0.3C162.139,138.533,151.959,143.573,151.959,143.573z"/>
	<path fill="#A4BA24" d="M123.779,232.593h-0.118c-2.4,8.89-12.66,13.34-12.66,13.34l-0.37,0.01c-0.18-13.17-0.98-22.51-2.37-24.98
		c-2.72-4.87-15.81-16.05-28.38-26.68c0,0,1.88-11.46,13.16-20.01l0.29-0.52c10.51,5.9,20.35,10.52,28.35,12.84l-0.08,0.26
		C123.909,193.783,123.539,217.223,123.779,232.593z"/>
	<path fill="#F7D5C4" d="M98.249,133.672c2.13,8.13,4.1,14.3,9,21.09l-0.521,0.37c-4.04-0.84-7.41-1.8-10.16-2.87
		c-7.04-2.74-10.08-6.28-10.08-10.89c0-2.73,1.092-4.55,2.722-5.71c2.188-1.57,5.358-1.94,8.108-1.74l0.92-0.25H98.249z"/>
	<path fill="#A4BA24" d="M96.929,480.772c0,0,8.56,2.938,5.08,19.79c0,0-5.35,4.288-9.63,5.358c-3.23,0.8-4.41,5.33-5.88,8.37
		c-3.4-11.851-20.44-12.631-20.44-12.631l-0.53-0.93c9.75-5.57,11.632-10.922,17.49-19.961l0.642,0.131l-0.592,2.948
		c0,0,5.642,5.29,11.28,1.762c3.24-2.021,3.11-3.729,2.4-4.819L96.929,480.772z"/>
	<path fill="#F7C63C" d="M97.749,131.783c0.17,0.64,0.33,1.27,0.488,1.89l-0.92,0.25c-2.75-0.2-5.92,0.17-8.108,1.74l-0.271-0.72
		c0,0-15.75-9.08-4.608-22.76c0,0-7.28-7.8-4.45-18.29c2.82-10.49,13.25-12.14,13.25-12.14s0.03-17.99,12.85-24.91
		c12.83-6.93,22.222-2.2,22.222-2.2s10.1-9.1,23.698-9.31c13.602-0.21,20.521,11.63,20.521,11.63s13.26-4.07,21.18,1.56
		c7.93,5.62,6.63,16.74,6.63,16.74s9.312-0.99,12.71,8.39c3.41,9.39,0.67,14.18-1.8,21.36c7.26,15.05-4.54,27.2-4.54,27.2l-0.96,0.1
		c-2.78-1.12-6.22-0.62-6.22-0.62l-1.22-0.19c0.14-0.8,0.25-1.62,0.358-2.44c-0.34-14.81-4.62-20.72-3.59-30.89
		c-6.16-1.54-24.34-12.58-22.29-27.02c0,0-6.16,16.68-25.14,17.09c-18.98,0.4-28.222-7.32-28.222-7.32s-4.898,17.25-19.568,23.74
		c0,0,0.49,3.31-0.67,9.98C97.979,120.953,97.999,120.752,97.749,131.783z"/>
	<path fill="#F7D5C4" d="M96.749,480.793c0.71,1.09,0.84,2.8-2.4,4.819c-5.64,3.528-11.28-1.762-11.28-1.762l0.592-2.948
		l0.818-4.102l0.05-0.101c2.98,1.41,6.722,2.641,10.882,2.74v0.078C95.409,479.522,96.239,479.992,96.749,480.793z"/>
	<path fill="#F7D5C4" d="M49.959,107.922c-0.78,2.07-2.2,4.9-2.88,7.2c0.01,2.41,5.52,9.99,12.1,22.04
		c6.59,12.06,10.6,22.07,10.6,22.07c7.9,5.26,15.9,10.23,23.552,14.52l-0.29,0.52c-11.28,8.55-13.16,20.01-13.16,20.01
		c-9.51-8.04-18.72-15.76-22.92-20.18c-9.75-10.26-20.271-42.32-20.271-42.32s-3.97-14.771-4.56-17.17
		c-0.59-2.41-5.7-13.82-7.07-16.92s-5.16-7.81-2.56-10.73c0.67-0.73,1.688-1.81,2.91-3.07l0.35,0.34c2.69-1.58,8.75-5.43,9.81-5.8
		c1.062-0.38,3.67,0.99,4.66,2.29c0.99,1.31,1.432,2.16,1.432,2.16l-0.08,0.25c0.068,0.02,0.13,0.04,0.188,0.06
		c1.521,0.56,2.11,3.06,2.812,5.46c0.188,0.63,0.278,1.24,0.31,1.79l0.55-0.05c0,0,1.972,1.97,3.301,1.22
		c1.239-0.69,1.619-2.18,1.659-2.36l0.5,0.02c-0.278,1.85-0.398,4.24,0.17,7.68C52.099,103.203,50.749,105.853,49.959,107.922z
		 M34.189,96.183c1.16,0.32,3.142,1.02,4.15,2.35c0.32,0.43,0.64,0.82,0.95,1.17c-0.63-2.1-0.38-2.25,0.488-3.7
		c-1.85,1.43-5.578,0.15-5.578,0.15L34.189,96.183z"/>
	<path fill="#F7D5C4" d="M41.659,82.882c0,0-0.44-0.85-1.432-2.16c-0.99-1.3-3.6-2.67-4.66-2.29c-1.06,0.37-7.118,4.22-9.81,5.8
		l-0.35-0.34c1.898-1.96,4.278-4.35,6.59-6.48c1.67-1.53,3.87-2.87,4.818-2.92c2.142,0.07,5.95,4.36,6.46,8.04
		c0,0,2.812-3.2,5.32-1.75c1.33,0.77,3.05,2.64,3,4.72c-0.14,1.1-0.47,2.26-0.7,3.77l-0.5-0.02c-0.04,0.18-0.42,1.67-1.66,2.36
		c-1.328,0.75-3.3-1.22-3.3-1.22l-0.55,0.05c-0.03-0.55-0.12-1.16-0.31-1.79c-0.7-2.4-1.29-4.9-2.812-5.46
		c-0.06-0.02-0.12-0.04-0.188-0.06L41.659,82.882z"/>
	<path fill="#FFFFFF" d="M238.846,501.04c7.18,2.47,8.659,14.12,4.02,15.59c-4.39,1.38-18.56,1.67-23.97,0.43l0.07-0.3
		c0,0-0.771-11.58,12.029-14.779c2.19-0.551,4.771-0.86,7.811-0.82L238.846,501.04z"/>
	<path fill="#FFFFFF" d="M170.205,138.23c-24.71-6.15-40.82,4.41-40.82,4.41l-0.05-0.03c4.09-6.5,10.13-9.44,21.25-10.32
		C159.406,131.59,166.535,135.58,170.205,138.23z"/>
	<path fill="#FFFFFF" d="M86.495,514.28v0.01c-0.48,0.979-0.99,1.81-1.61,2.3c-2.54,2.01-20.73,1.88-25.81,0.271
		c-4.84-1.521-3.01-14.181,5.02-15.851l0.14,0.65c0,0,3.17,0.13,7.15,1.1C77.095,504.16,84.466,507.3,86.495,514.28z"/>
</g>
<g id="line_1_">
	<path fill="none" stroke="#000000" stroke-width="3" stroke-linecap="round" stroke-linejoin="round" stroke-miterlimit="10" d="
		M88.937,134.942c0,0-15.747-9.075-4.604-22.757c0,0-7.28-7.799-4.459-18.288c2.82-10.49,13.253-12.141,13.253-12.141
		s0.025-17.993,12.854-24.916c12.826-6.924,22.216-2.201,22.216-2.201s10.106-9.099,23.702-9.309
		c13.598-0.21,20.521,11.63,20.521,11.63s13.254-4.066,21.179,1.559c7.926,5.626,6.635,16.74,6.635,16.74s9.308-0.988,12.708,8.398
		c3.403,9.387,0.666,14.176-1.802,21.358c7.257,15.049-4.542,27.192-4.542,27.192"/>
	<path fill="none" stroke="#000000" stroke-width="3" stroke-linecap="round" stroke-linejoin="round" stroke-miterlimit="10" d="
		M132.889,188.214c9.106-1.282,2.693-12.569,2.693-12.569s-7.696-1.924-19.624-11.039c-12.483-12.048-14.878-19.915-18.21-32.826
		c0.254-11.03,0.231-10.825,1.331-17.137c1.161-6.674,0.665-9.983,0.665-9.983c14.676-6.484,19.573-23.74,19.573-23.74
		s9.235,7.729,28.22,7.321c18.981-0.408,25.14-17.084,25.14-17.084c-2.053,14.439,16.135,25.479,22.291,27.018
		c-1.026,10.169,3.249,16.077,3.593,30.885c-2.054,15.975-9.271,27.772-17.549,35.299c-8.277,7.526-14.583,9.171-16.892,10.967
		c-1.349,4.425-1.988,10.325-1.988,10.325"/>
	<path fill="none" stroke="#000000" stroke-width="1.5" stroke-linecap="round" stroke-linejoin="round" stroke-miterlimit="10" d="
		M119.191,80.206c0,0-6.646-4.546-5.361-11.867c1.281-7.321,9.341-8.027,13.188-5.383c3.85,2.643,1.539,6.914-2.309,6.711"/>
	<path fill="none" stroke="#000000" stroke-width="1.5" stroke-linecap="round" stroke-linejoin="round" stroke-miterlimit="10" d="
		M194.308,97.575c2.438-0.102,7.612,0.604,8.639-2.65c1.026-3.253,0-5.866-2.563-6.884c-2.565-1.017-7.183,0-5.131,3.254"/>
	<path fill="none" stroke="#000000" stroke-width="3" stroke-linecap="round" stroke-linejoin="round" stroke-miterlimit="10" d="
		M97.319,133.918c-4.786-0.342-10.834,1.032-10.834,7.452s5.884,10.752,20.248,13.762"/>
	<path fill="none" stroke="#000000" stroke-width="3" stroke-linecap="round" stroke-linejoin="round" stroke-miterlimit="10" d="
		M135.583,177.697c-10.264-0.771-19.52-5.131-25.524-13.083c-7.845-1.539-11.171-6.929-13.596-12.057"/>
	<path fill="none" stroke="#000000" stroke-width="3" stroke-linecap="round" stroke-linejoin="round" stroke-miterlimit="10" d="
		M164.826,177.12c0,0,17.347-4.201,23.056-13.949c7.504-2.821,8.07-4.236,12.559-12.493"/>
	<path fill="none" stroke="#000000" stroke-width="3" stroke-linecap="round" stroke-linejoin="round" stroke-miterlimit="10" d="
		M199.417,131.695c0.001,0,10.26-1.498,9.675,6.498c-0.515,6.411-2.835,11.394-17.2,14.599"/>
	<path fill="none" stroke="#000000" stroke-width="1.5" stroke-linecap="round" stroke-linejoin="round" stroke-miterlimit="10" d="
		M101.107,148.433c0,0-3.188,0-4.981-1.766s-1.282-2.408-1.282-5.137s-1.43-3.852-3.226-3.049"/>
	<path fill="none" stroke="#000000" stroke-width="1.5" stroke-linecap="round" stroke-linejoin="round" stroke-miterlimit="10" d="
		M193.922,147.144c0,0,2.719,0.536,5.342-0.809c2.625-1.345,1.573-2.594,1.792-5.318c0.218-2.724,2.013-4.972,3.741-4.113"/>
	<path fill="none" stroke="#000000" stroke-width="2" stroke-linecap="round" stroke-linejoin="round" stroke-miterlimit="10" d="
		M137.114,108.973c0,0-1.66,2.309-5.399,1.771c-3.738-0.537-10.051-10.802-23.541-5"/>
	<path fill="none" stroke="#000000" stroke-width="2" stroke-linecap="round" stroke-linejoin="round" stroke-miterlimit="10" d="
		M157.535,108.045c0,0,6.208,2.377,12.697-3.788c5.388-4.682,11.377-4.711,17.275,0.393"/>
	<path fill="none" stroke="#000000" stroke-width="1.5" stroke-linecap="round" stroke-linejoin="round" stroke-miterlimit="10" d="
		M129.484,117.065c0,0-9.264-3.483-15.323,2.074"/>
	<path fill="none" stroke="#000000" stroke-linecap="round" stroke-linejoin="round" stroke-miterlimit="10" d="M119.776,118.826
		c0,0,5.623-3.352,10.191-2.128"/>
	<path fill="none" stroke="#000000" stroke-width="1.5" stroke-linecap="round" stroke-linejoin="round" stroke-miterlimit="10" d="
		M181.967,114.781c-5.577-2.519-10.5-1.468-15.374,0.779"/>
	<path fill="none" stroke="#000000" stroke-linecap="round" stroke-linejoin="round" stroke-miterlimit="10" d="M167.476,115.183
		c0.004-0.001,5.769-1.253,9.104,0.843"/>
	<path fill="none" stroke="#000000" stroke-width="1.5" stroke-linecap="round" stroke-linejoin="round" stroke-miterlimit="10" d="
		M152.975,123.277c0,0,0.637-2.365,2.362-2.621c1.978-0.15,1.086,2.112,1.931,2.327c0.845,0.215,2.589-0.379,2.852-2.076
		c0.293-2.294-1.198-1.693-2.419-2.867c-1.223-1.173-2.928-6.233-7.985-6.068c-5.062,0.167-6.045,4.133-7.044,5.283
		c-1,1.149-2.209-0.284-3.037,2.41c-0.86,3.379,2.878,3.918,2.878,3.918s0.355-2.676,1.722-2.604
		c1.367,0.072,2.387,2.734,2.387,2.734"/>
	<path fill="none" stroke="#000000" stroke-width="1.5" stroke-linecap="round" stroke-linejoin="round" stroke-miterlimit="10" d="
		M127.413,146.229c4.106-9.062,10.177-12.907,23.174-13.938c12.998-1.031,22.32,8.124,22.32,8.124s-5.987,3.507-9.834,7.694
		c-3.85,4.188-11.198,4.104-17.355,3.42C139.559,150.845,134.942,148.623,127.413,146.229z"/>
	<path fill="none" stroke="#000000" stroke-width="1.5" stroke-linecap="round" stroke-linejoin="round" stroke-miterlimit="10" d="
		M129.383,142.636c0,0,16.115-10.558,40.827-4.401"/>
	<path fill="none" stroke="#000000" stroke-width="1.5" stroke-linecap="round" stroke-linejoin="round" stroke-miterlimit="10" d="
		M134.429,147.853c-0.854-2.65,10.006-7.182,17.53-4.275c0,0,10.175-5.045,13.595,1.625"/>
	<path fill="none" stroke="#000000" stroke-width="3" stroke-linecap="round" stroke-linejoin="round" stroke-miterlimit="10" d="
		M162.132,185.649c0,0,8.851,1.154,18.598,0.897c9.748-0.257,23.985-19.367,38.992-43.096
		c11.334-24.071,13.305-25.751,19.449-44.338c-0.368,0.341-2.806-3.594-4.152-5.356c-1.343-1.765-3.385-3.919-4.177-10.202
		c-0.789-6.282-2.765-8.566-3.768-10.829c-0.646-1.982,0.477-4.264,1.533-5.38c1.987-2.104,5.6,0.167,5.6,0.167
		c-0.557-3.672,1.867-8.87,3.9-9.543c0.932-0.229,3.416,0.43,5.453,1.43c4.637,2.272,9.631,5.153,11.819,6.445
		c3.329,2.063,1.965,5.598,1.535,8.954c-0.432,3.359-1.282,15.809-4.104,24.273c-2.18,4.874-3.334,21.163-8.722,36.042
		c-16.417,44.122-41.427,73.537-45.53,82.771c-3.949,8.885-3.234,57.47-3.594,89.612c-0.513,46.174,26.679,166.739,26.679,166.739
		c-8.722,6.155-24.626,2.563-24.626,2.563c-21.035-34.887-45.662-113.127-45.662-113.127
		c-13.339,46.175-50.276,115.182-50.276,115.182c-12.826,3.076-23.602-6.672-23.602-6.672s12.826-57.461,23.087-104.659
		c10.263-47.2,12.479-138.009,7.695-146.562c-4.783-8.551-41.557-36.598-51.305-46.858c-9.748-10.26-20.267-42.324-20.267-42.324
		s-3.971-14.765-4.56-17.173c-0.592-2.409-5.706-13.82-7.072-16.917c-1.368-3.095-5.164-7.808-2.56-10.733
		c1.729-1.86,5.703-6.045,9.499-9.542c1.668-1.537,3.862-2.876,4.818-2.92c2.145,0.066,5.944,4.36,6.455,8.037
		c0,0,2.815-3.203,5.32-1.75c1.331,0.768,3.056,2.636,3.002,4.721c-0.32,2.454-1.562,5.204-0.532,11.453
		c1.028,6.25-0.313,8.896-1.103,10.968c-0.789,2.071-2.205,4.897-2.89,7.198c0.019,2.406,5.521,9.988,12.105,22.043
		c6.585,12.055,10.603,22.062,10.603,22.062c24.628,16.417,50.279,30.013,63.105,28.986"/>
	<path fill="none" stroke="#000000" stroke-width="1.5" stroke-linecap="round" stroke-linejoin="round" stroke-miterlimit="10" d="
		M139.212,170.856c0.001,0.001,9.066,8.379,20.351-0.684"/>
	<path fill="none" stroke="#000000" stroke-width="1.5" stroke-linecap="round" stroke-linejoin="round" stroke-miterlimit="10" d="
		M134.943,187.444c0,0,4.788,10.261,15.394,9.919c10.604-0.342,15.732-10.261,15.732-10.261"/>
	<path fill="none" stroke="#000000" stroke-width="1.5" stroke-linecap="round" stroke-linejoin="round" stroke-miterlimit="10" d="
		M79.875,194.284c0,0,1.88-11.457,13.167-20.007"/>
	<path fill="none" stroke="#000000" stroke-width="1.5" stroke-linecap="round" stroke-linejoin="round" stroke-miterlimit="10" d="
		M44.695,117.332c0,0,0.926-2.154,2.311-3.077"/>
	<path fill="none" stroke="#000000" stroke-width="1.5" stroke-linecap="round" stroke-linejoin="round" stroke-miterlimit="10" d="
		M33.275,95.971c0,0,3.578,0.612,5.067,2.565c1.488,1.948,2.943,3.208,2.943,3.208s1.417,1.259,2.621,3.219"/>
	<path fill="none" stroke="#000000" stroke-width="1.5" stroke-linecap="round" stroke-linejoin="round" stroke-miterlimit="10" d="
		M34.202,96.148c0,0,3.726,1.287,5.573-0.149c-0.862,1.452-1.116,1.603-0.487,3.707"/>
	<path fill="none" stroke="#000000" stroke-width="1.5" stroke-linecap="round" stroke-linejoin="round" stroke-miterlimit="10" d="
		M30.75,89.572c0,0,7.188-1.312,9.417-1.002c2.229,0.31,4.207,4.71,4.207,4.71s0.96,4.522-0.341,5.752
		c-1.307,1.228-2.81,2.512-2.81,2.512"/>
	<path fill="none" stroke="#000000" stroke-width="1.5" stroke-linecap="round" stroke-linejoin="round" stroke-miterlimit="10" d="
		M44.681,93.03c0,0,0.608-1.979-0.099-4.377s-1.291-4.899-2.814-5.458c-1.523-0.562-5.916-0.245-13.829,2.843"/>
	<path fill="none" stroke="#000000" stroke-width="1.5" stroke-linecap="round" stroke-linejoin="round" stroke-miterlimit="10" d="
		M25.76,84.23c2.688-1.574,8.749-5.429,9.808-5.802c1.062-0.379,3.668,0.994,4.66,2.297c0.994,1.303,1.427,2.154,1.427,2.154"/>
	<path fill="none" stroke="#000000" stroke-width="1.5" stroke-linecap="round" stroke-linejoin="round" stroke-miterlimit="10" d="
		M45.434,90.39c0,0,1.979,1.974,3.301,1.227c1.327-0.744,1.675-2.384,1.675-2.384s-0.953-3.796-4.001-4.916"/>
	<path fill="none" stroke="#000000" stroke-width="1.5" stroke-linecap="round" stroke-linejoin="round" stroke-miterlimit="10" d="
		M199.244,172.053c0,0,13.508,0.171,19.322,15.396"/>
	<path fill="none" stroke="#000000" stroke-width="1.5" stroke-linecap="round" stroke-linejoin="round" stroke-miterlimit="10" d="
		M254.167,96.606c0,0-2.163,3.499-5.634,4.029"/>
	<path fill="none" stroke="#000000" stroke-width="1.5" stroke-linecap="round" stroke-linejoin="round" stroke-miterlimit="10" d="
		M247.619,77.549c0,0-3.259,1.606-4.128,3.899c-0.875,2.293-1.911,3.914-1.911,3.914s-0.999,1.61-1.599,3.831"/>
	<path fill="none" stroke="#000000" stroke-width="1.5" stroke-linecap="round" stroke-linejoin="round" stroke-miterlimit="10" d="
		M246.781,77.983c0,0-3.206,2.293-5.39,1.443c1.24,1.146,1.528,1.217,1.522,3.414"/>
	<path fill="none" stroke="#000000" stroke-width="1.5" stroke-linecap="round" stroke-linejoin="round" stroke-miterlimit="10" d="
		M248.218,70.696c0,0-7.263,0.786-9.312,1.719c-2.053,0.932-2.695,5.713-2.695,5.713s0.365,4.608,1.964,5.415
		c1.6,0.808,3.405,1.611,3.405,1.611"/>
	<path fill="none" stroke="#000000" stroke-width="1.5" stroke-linecap="round" stroke-linejoin="round" stroke-miterlimit="10" d="
		M235.846,77.975c0,0-1.146-1.723-1.149-4.225c-0.006-2.5-0.155-5.063,1.146-6.033c1.303-0.971,5.602-1.917,14.067-1.207"/>
	<path fill="none" stroke="#000000" stroke-width="1.5" stroke-linecap="round" stroke-linejoin="round" stroke-miterlimit="10" d="
		M251.484,64.157c-3.022-0.745-9.932-2.717-11.054-2.775c-1.123-0.06-3.233,1.999-3.814,3.529c-0.58,1.531-0.755,2.471-0.755,2.471"
		/>
	<path fill="none" stroke="#000000" stroke-width="1.5" stroke-linecap="round" stroke-linejoin="round" stroke-miterlimit="10" d="
		M234.374,75.659c0,0-1.336,2.453-2.815,2.113c-1.481-0.338-2.28-1.809-2.28-1.809s-0.167-3.91,2.438-5.854"/>
	<path fill="none" stroke="#000000" stroke-width="1.5" stroke-linecap="round" stroke-linejoin="round" stroke-miterlimit="10" d="
		M121.604,188.469c2.735,8.21,1.709,37.967,2.396,51.647c0,0,6.154,4.789,11.287-0.342c0,0-1.026-29.757-3.078-50.963"/>
	<path fill="none" stroke="#000000" stroke-width="1.5" stroke-linecap="round" stroke-linejoin="round" stroke-miterlimit="10" d="
		M169.831,187.443c0,0-0.345,32.151,1.023,50.621c0,0,5.814,5.814,10.604,0.341c0,0-4.193-41.468-0.729-51.858"/>
	<path fill="none" stroke="#000000" stroke-width="1.5" stroke-linecap="round" stroke-linejoin="round" stroke-miterlimit="10" d="
		M111,245.931c0,0,10.262-4.445,12.653-13.339"/>
	
		<line fill="none" stroke="#000000" stroke-width="1.5" stroke-linecap="round" stroke-linejoin="round" stroke-miterlimit="10" x1="134.943" y1="230.882" x2="170.171" y2="230.882"/>
	<path fill="none" stroke="#000000" stroke-width="1.5" stroke-linecap="round" stroke-linejoin="round" stroke-miterlimit="10" d="
		M181.117,230.882c0,0,5.131,16.418,13.682,18.128"/>
	<path fill="none" stroke="#000000" stroke-width="3" stroke-linecap="round" stroke-linejoin="round" stroke-miterlimit="10" d="
		M84.476,476.802l-1.41,7.055c0,0,5.642,5.285,11.282,1.762c5.644-3.525,1.061-4.584,1.061-4.584"/>
	<path fill="none" stroke="#000000" stroke-width="3" stroke-linecap="round" stroke-linejoin="round" stroke-miterlimit="10" d="
		M96.926,480.772c0,0,8.561,2.94,5.082,19.795c0,0-5.35,4.278-9.63,5.351c-4.28,1.069-4.948,8.669-7.49,10.675
		c-2.54,2.008-20.729,1.873-25.812,0.27c-5.083-1.604-2.812-15.49,6.284-16.025c9.898-5.617,11.771-10.968,17.654-20.062"/>
	<path fill="none" stroke="#000000" stroke-width="1.5" stroke-linecap="round" stroke-linejoin="round" stroke-miterlimit="10" d="
		M67.288,501.66c0,0,16.13,0.793,19.304,12.958"/>
	<path fill="none" stroke="#000000" stroke-width="1.5" stroke-linecap="round" stroke-linejoin="round" stroke-miterlimit="10" d="
		M71.783,501.132c0,0,10.576-6.083,13.485-14.81"/>
	<path fill="none" stroke="#000000" stroke-width="3" stroke-linecap="round" stroke-linejoin="round" stroke-miterlimit="10" d="
		M205.483,478.686l0.529,4.23c0,0,5.023,2.38,9.783,1.059c4.76-1.319,2.115-6.608,2.115-6.608"/>
	<path fill="none" stroke="#000000" stroke-width="3" stroke-linecap="round" stroke-linejoin="round" stroke-miterlimit="10" d="
		M205.019,480.536c0,0-8.561,2.941-5.083,19.795c0,0,5.353,4.28,9.631,5.351c4.28,1.069,4.948,8.669,7.489,10.677
		c2.541,2.007,20.731,1.873,25.813,0.268c5.083-1.604,2.809-15.489-6.285-16.022c-9.898-5.618-11.771-10.97-17.656-20.063"/>
	<path fill="none" stroke="#000000" stroke-width="1.5" stroke-linecap="round" stroke-linejoin="round" stroke-miterlimit="10" d="
		M218.969,516.765c0,0-1.059-15.864,19.832-15.602"/>
	<path fill="none" stroke="#000000" stroke-width="1.5" stroke-linecap="round" stroke-linejoin="round" stroke-miterlimit="10" d="
		M230.869,501.427c0,0-12.164-7.139-15.073-17.452"/>
</g>
</svg>
