<?xml version="1.0" encoding="UTF-8" standalone="no"?>
<!-- Generator: Adobe Illustrator 16.0.0, SVG Export Plug-In . SVG Version: 6.00 Build 0)  -->

<svg
   xmlns:dc="http://purl.org/dc/elements/1.1/"
   xmlns:cc="http://creativecommons.org/ns#"
   xmlns:rdf="http://www.w3.org/1999/02/22-rdf-syntax-ns#"
   xmlns:svg="http://www.w3.org/2000/svg"
   xmlns="http://www.w3.org/2000/svg"
   xmlns:sodipodi="http://sodipodi.sourceforge.net/DTD/sodipodi-0.dtd"
   xmlns:inkscape="http://www.inkscape.org/namespaces/inkscape"
   version="1.1"
   id="Layer_1"
   x="0px"
   y="0px"
   width="495.252px"
   height="738.023px"
   viewBox="0 0 495.252 738.023"
   enable-background="new 0 0 495.252 738.023"
   xml:space="preserve"
   inkscape:version="0.48.4 r9939"
   sodipodi:docname="E10_womanpainting.svg"><metadata
     id="metadata218"><rdf:RDF><cc:Work
         rdf:about=""><dc:format>image/svg+xml</dc:format><dc:type
           rdf:resource="http://purl.org/dc/dcmitype/StillImage" /></cc:Work></rdf:RDF></metadata><defs
     id="defs216" /><sodipodi:namedview
     pagecolor="#ffffff"
     bordercolor="#666666"
     borderopacity="1"
     objecttolerance="10"
     gridtolerance="10"
     guidetolerance="10"
     inkscape:pageopacity="0"
     inkscape:pageshadow="2"
     inkscape:window-width="1276"
     inkscape:window-height="761"
     id="namedview214"
     showgrid="false"
     inkscape:zoom="0.90445527"
     inkscape:cx="182.37085"
     inkscape:cy="519.79106"
     inkscape:window-x="1600"
     inkscape:window-y="18"
     inkscape:window-maximized="0"
     inkscape:current-layer="Layer_1" /><g
     id="g3453"><polygon
       points="344.283,136.479 341.353,133.209 341.692,132.899 361.573,16.779 368.073,15.779 372.573,18.779 352.323,134.779 352.442,135.279 344.433,137.14 "
       id="polygon5"
       style="fill:#603a28" /><path
       d="m 362.913,288.029 c 1.649,-1.83 1.75,-3.61 1.34,-5.05 l 2.17,-0.66 114.77,378.7 -6,4 -7,-3 -113.619,-374.74 0.119,-0.7 8.22,1.45 z"
       id="path7"
       inkscape:connector-curvature="0"
       style="fill:#603a28" /><path
       d="m 358.073,254.779 8.35,27.54 -2.17,0.66 c -0.55,-1.9 -2.01,-3.2 -2.01,-3.2 l -10,-1.67 -0.67,-0.75 -4,-11.58 -0.301,-0.04 c 1.28,-10.53 2.5,-20.61 3.65,-30.04 l 0.65,0.08 4.42,0.55 7.58,2.2 c 10e-4,0 -1.999,11.75 -5.499,16.25 z"
       id="path9"
       inkscape:connector-curvature="0"
       style="fill:#603a28" /><path
       d="m 354.692,286.58 -0.119,0.7 -9,-1.5 -0.73,-0.09 c 0.36,-3 0.73,-5.98 1.08,-8.93 l 0.15,0.02 5.5,0.58 0.67,0.75 10,1.67 c 0,0 1.46,1.3 2.01,3.2 0.41,1.44 0.31,3.22 -1.34,5.05 l -8.221,-1.45 z"
       id="path11"
       inkscape:connector-curvature="0"
       style="fill:#684435" /><polygon
       points="314.073,404.779 307.153,404.37 307.163,404.2 354.913,135.779 355.203,135.02 361.073,137.279 356.083,165.689 316.423,391.399 315.753,395.209 "
       id="polygon13"
       style="fill:#fff3d9" /><path
       d="m 356.573,165.779 2.67,1 c 0,0 -3.42,28.48 -8.32,68.92 -1.15,9.43 -2.37,19.51 -3.65,30.04 -0.439,3.62 -0.89,7.3 -1.35,11.02 -0.35,2.95 -0.72,5.93 -1.08,8.93 -4.49,36.77 -9.439,77.03 -13.92,112.92 l -0.09,0.18 -14.17,-7.35 -0.24,-0.04 39.66,-225.71 0.49,0.09 z"
       id="path15"
       inkscape:connector-curvature="0"
       style="fill:#603a28" /><path
       d="m 344.283,136.479 0.149,0.66 -0.359,0.08 -9.5,3.31 c 0,0 -3.67,-2.92 -2.5,-8.25 l -0.04,-0.29 1.54,-0.21 h 6.5 l 1.279,1.43 2.931,3.27 z"
       id="path17"
       inkscape:connector-curvature="0"
       style="fill:#603a28" /><path
       d="m 337.573,402.279 -2.33,18.83 c 0,0 -3.09,-0.24 -6.99,-0.57 -5.26,-0.44 -12,-1.05 -14.68,-1.43 -0.33,-0.05 -0.971,-0.29 -1.87,-0.7 l 1.87,-0.13 1.34,-7.34 0.29,-0.53 0.37,0.2 14.17,2.33 1.83,-10 h 4.67 l 0.55,-1.06 0.78,0.4 z"
       id="path19"
       inkscape:connector-curvature="0"
       style="fill:#603a28" /><polygon
       points="317.073,395.439 315.753,395.209 316.423,391.399 316.663,391.439 330.833,398.79 336.793,401.879 336.243,402.939 331.573,402.939 "
       id="polygon21"
       style="fill:#603a28" /><path
       d="m 334.573,140.529 -19.311,2.42 -0.02,-0.42 -1.67,-3.25 1.5,-5 16.96,-2.29 0.04,0.29 c -1.169,5.33 2.501,8.25 2.501,8.25 z"
       id="path23"
       inkscape:connector-curvature="0"
       style="fill:#684435" /><path
       d="m 331.573,402.939 -1.83,10 c -4.17,-2.16 -15.67,-8.16 -15.67,-8.16 l 1.68,-9.57 1.32,0.23 14.5,7.5 z"
       id="path25"
       inkscape:connector-curvature="0"
       style="fill:#684435" /><path
       d="m 329.743,412.939 -14.17,-2.33 -0.37,-0.2 -9.29,-5.13 0.06,-0.98 1.181,0.07 6.92,0.41 c -0.001,0 11.499,6 15.669,8.16 z"
       id="path27"
       inkscape:connector-curvature="0"
       style="fill:#603a28" /><path
       d="m 328.253,420.54 -0.05,0.5 c -3.13,24.84 -5.91,46.37 -7.96,61.4 -10.34,75.67 -35.391,239.25 -35.391,239.25 l -8.66,3.329 -4.67,-5.329 42.051,-300.581 c 2.68,0.381 9.42,0.991 14.68,1.431 z"
       id="path29"
       inkscape:connector-curvature="0"
       style="fill:#603a28" /><path
       d="m 354.913,135.779 -47.75,268.42 -0.01,0.17 -1.181,-0.07 -0.399,-0.02 -56.5,-30 0.449,-2.24 24.15,-120.36 -0.09,-0.23 c 0.04,-0.02 0.09,-0.04 0.13,-0.05 1.52,-0.51 3.74,-2.28 4.45,-3.59 0.71,-1.31 1.109,-2.3 1.109,-2.3 0,0 0.62,-2.38 -0.77,-5.61 0.939,-0.96 0.979,-2.64 0.74,-3.99 -0.24,-1.35 -1.09,-2.59 -1.09,-2.59 0,0 7.119,-2.17 7.789,-4.04 0.45,-1.26 0.45,-2.17 0.101,-2.8 16.03,-3.34 21.55,-5.72 21.55,-5.72 l 0.43,-0.04 4.591,-0.46 c 0,0 1.609,1.72 2.229,-1.77 0.61,-3.48 -1.12,-6.7 -1.12,-6.7 0,0 -0.38,1.49 -1.27,3.29 -0.9,1.81 -0.41,2.32 -0.41,2.32 l -4.54,1.19 c -9.87,0.54 -23.43,3.9 -26.82,4.77 -0.31,-0.23 -0.689,-0.46 -1.189,-0.66 l 15.029,-74.92 20.74,-4.83 19.311,-2.42 9.5,-3.31 0.359,-0.08 8.01,-1.86 2.131,-0.5 0.63,0.24 -0.289,0.76 z"
       id="path31"
       inkscape:connector-curvature="0"
       style="fill:#fff3d9" /><path
       d="m 314.843,218.49 c -0.62,3.49 -2.229,1.77 -2.229,1.77 l -4.591,0.46 v -0.03 c 0,0 0.45,-1.13 -0.52,-2.1 l 4.54,-1.19 c 0,0 -0.49,-0.51 0.41,-2.32 0.89,-1.8 1.27,-3.29 1.27,-3.29 0,0 1.73,3.219 1.12,6.7 z"
       id="path33"
       inkscape:connector-curvature="0"
       style="fill:#eabf53" /><path
       d="m 305.573,404.279 0.399,0.02 -0.06,0.98 9.29,5.13 -0.29,0.53 -1.34,7.34 -1.87,0.13 c -5.431,-2.47 -20.41,-11.03 -35.13,-19.61 -3.65,-2.13 -7.271,-4.26 -10.74,-6.3 -13.351,-7.85 -24.26,-14.39 -24.26,-14.39 0,0 0,-5.33 0.67,-6.33 0.66,-1 6,0 6,0 l 1.279,0.26 -0.449,2.24 56.501,30 z"
       id="path35"
       inkscape:connector-curvature="0"
       style="fill:#684435" /><path
       d="m 280.683,223.359 c 3.391,-0.87 16.95,-4.23 26.82,-4.77 0.97,0.97 0.52,2.1 0.52,2.1 v 0.03 l -0.43,0.04 c 0,0 -5.52,2.38 -21.55,5.72 -0.5,-0.9 -1.72,-1.23 -3.33,-1.19 -0.82,-0.289 -0.99,-1.14 -2.03,-1.93 z"
       id="path37"
       inkscape:connector-curvature="0"
       style="fill:#2f423a" /><path
       d="m 276.573,398.799 -67.051,260.98 h -4 l -7.5,-6 67.801,-261.25 0.01,-0.03 c 3.47,2.041 7.09,4.17 10.74,6.3 z"
       id="path39"
       inkscape:connector-curvature="0"
       style="fill:#603a28" /><path
       d="m 274.323,246.649 c -1.631,1.2 -2.521,0.84 -2.641,0.79 0.03,0.09 0.17,0.67 -0.72,2.47 -0.04,0.08 -0.07,0.15 -0.11,0.22 0.931,-1.37 2.641,-2.819 3.471,-3.48 z m 6.36,-23.29 c 1.04,0.79 1.21,1.64 2.03,1.93 1.61,-0.04 2.83,0.29 3.33,1.19 0.35,0.63 0.35,1.54 -0.101,2.8 -0.67,1.87 -7.789,4.04 -7.789,4.04 0,0 0.85,1.24 1.09,2.59 0.239,1.35 0.199,3.03 -0.74,3.99 1.39,3.23 0.77,5.61 0.77,5.61 0,0 -0.399,0.99 -1.109,2.3 -0.71,1.31 -2.931,3.08 -4.45,3.59 -0.04,0.01 -0.09,0.03 -0.13,0.05 -1.48,0.53 -3.271,1.56 -3.271,1.56 0,0 -2.29,3.81 -4.39,6.91 -2.1,3.1 -6.71,6.28 -16.11,8.3 0,0 -54.489,29.23 -71.55,30.68 -7.3,0.62 -20.26,-5.56 -33.48,-13.8 -17.64,-10.98 -35.76,-25.63 -41.53,-32.69 -10.11,-12.33 -10.7,-24.86 -5.07,-28.68 5.63,-3.81 11.68,-5.12 33.53,15.11 4.23,3.92 8.55,7.74 12.78,11.36 17.6,15.1 33.49,26.68 33.49,26.68 0,0 21.171,-4.81 50.08,-16.87 l 17.21,-5.94 c 0,0 4.75,-7.68 7.311,-14.44 1.14,-3.04 2.52,-5.63 3.68,-7.56 1.42,-2.37 2.521,-3.74 2.521,-3.74 l 2.63,-1.3 7.06,-3.5 c 0,0 8.271,-1.86 10.74,-0.94 0.1,0.04 0.19,0.07 0.28,0.11 0.498,0.2 0.878,0.43 1.188,0.66 z"
       id="path41"
       inkscape:connector-curvature="0"
       style="fill:#ffdcd2" /><path
       d="m 261.413,227.029 -2.63,1.3 c 0,0 -1.101,1.37 -2.521,3.74 l -28.07,4.76 -0.75,-2.52 33.971,-7.28 z"
       id="path43"
       inkscape:connector-curvature="0"
       style="fill:#2f423a" /><path
       d="m 201.482,357.759 c 3.65,0.04 11.271,3.19 2.7,5.02 -8.939,1.91 -12.309,-5.119 -2.7,-5.02 z"
       id="path45"
       inkscape:connector-curvature="0"
       style="fill:#a9c943" /><path
       d="m 198.022,367.58 c 8.341,1.28 6.181,6.08 -2.92,5.16 -9.099,-0.921 -5.419,-6.43 2.92,-5.16 z"
       id="path47"
       inkscape:connector-curvature="0"
       style="fill:#2b3754" /><path
       d="m 186.513,352.569 c 3.07,-0.56 13.061,2.05 5.021,3.29 -8.052,1.241 -10.811,-2.23 -5.021,-3.29 z"
       id="path49"
       inkscape:connector-curvature="0"
       style="fill:#395b4b" /><path
       d="m 179.593,372.25 c 8.34,1.47 6.19,7.53 -2.92,6.51 -9.1,-1.02 -5.42,-7.981 2.92,-6.51 z"
       id="path51"
       inkscape:connector-curvature="0"
       style="fill:#ffec3e" /><path
       d="m 163.883,681.509 c 2.83,0.58 5.04,0.96 6.84,1.37 4.96,1.13 5.61,2.021 5.22,5.43 -0.38,3.4 -4.34,8.07 -16.93,7.65 -12.6,-0.41 -19.31,-0.74 -35.53,-0.37 -16.22,0.37 -19.09,-3.49 -21.4,-6.58 -1.86,-2.479 0.05,-7.04 2.9,-13.34 1.36,5.021 6.24,8.47 11.67,8.23 5.75,-0.25 24.62,2.38 32.37,2.13 7.75,-0.25 17,0.75 14.75,-4 l 0.11,-0.52 z"
       id="path53"
       inkscape:connector-curvature="0"
       style="fill:#962929" /><path
       d="m 163.773,682.03 c 2.25,4.75 -7,3.75 -14.75,4 -7.75,0.25 -26.62,-2.38 -32.37,-2.13 -5.43,0.239 -10.31,-3.21 -11.67,-8.23 0.69,-1.54 1.44,-3.18 2.2,-4.92 3.9,-8.88 2.5,-41.82 -0.62,-68.94 -0.66,-5.739 -0.73,-12.189 -0.42,-18.79 l 0.13,0.011 c 0,0 17.5,9.5 34,1.75 l 0.63,0.109 c -3.76,21.101 -8.02,45.48 -11.69,67.94 -1.37,12.75 6.06,19.45 12.94,22.66 9.89,3.42 16.76,5.02 21.73,6.02 l -0.11,0.52 z"
       id="path55"
       inkscape:connector-curvature="0"
       style="fill:#ffdcd2" /><path
       d="m 157.703,346.25 c -5.92,1.02 -11.98,2.52 -17.13,4.48 l -0.33,0.05 c -0.38,-2.45 -0.56,-3.59 -0.56,-3.59 l -0.83,-0.06 c 0.53,-0.29 0.83,-0.47 0.83,-0.47 0,0 7.22,-2.45 7.58,-15.39 l 0.43,0.01 c 6.5,1 11.22,4 13.85,4.67 5.95,1.53 6.36,1.71 6.74,5.56 0.22,2.27 0.91,3.37 1.32,4.61 0.29,0.87 0.44,1.81 0.2,3.28 -4.6,2.1 -8.18,-0.52 -8.18,-0.52 l -1.41,-3.05 -2.51,0.42 z"
       id="path57"
       inkscape:connector-curvature="0"
       style="fill:#ffdcd2" /><path
       d="m 158.453,369.16 c 8.34,1.28 6.18,6.08 -2.92,5.16 -9.1,-0.93 -5.42,-6.43 2.92,-5.16 z"
       id="path59"
       inkscape:connector-curvature="0"
       style="fill:#962929" /><path
       d="m 143.983,360.75 c 3.64,0.04 11.26,3.2 2.7,5.02 -1.58,0.34 -2.97,0.4 -4.16,0.27 -0.28,-1.88 -0.53,-3.61 -0.76,-5.19 l 0.28,-0.01 c 0.58,-0.061 1.22,-0.09 1.94,-0.09 z"
       id="path61"
       inkscape:connector-curvature="0"
       style="fill:#4f267a" /><path
       d="m 143.983,360.75 c -0.72,0 -1.36,0.03 -1.94,0.09 l -0.28,0.01 c -0.68,-4.53 -1.18,-7.84 -1.52,-10.07 l 0.33,-0.05 c 5.15,-1.96 11.21,-3.46 17.13,-4.48 l 2.51,-0.42 1.41,3.05 c 0,0 3.58,2.62 8.18,0.52 0.24,-1.47 0.09,-2.41 -0.2,-3.28 l 0.78,-0.12 c 0,0 54.48,1.62 46.68,20.87 -7.909,17.25 -38.63,27.7 -72.78,11.23 -0.66,-4.57 -1.25,-8.58 -1.76,-12.06 1.19,0.13 2.58,0.07 4.16,-0.27 8.56,-1.82 0.94,-4.98 -2.7,-5.02 z m 60.2,2.029 c 8.57,-1.83 0.95,-4.98 -2.7,-5.02 -9.61,-0.099 -6.24,6.93 2.7,5.02 z m -9.08,9.961 c 9.101,0.92 11.261,-3.88 2.92,-5.16 -8.34,-1.27 -12.02,4.239 -2.92,5.16 z m -3.57,-16.881 c 8.04,-1.24 -1.95,-3.85 -5.021,-3.29 -5.789,1.06 -3.03,4.531 5.021,3.29 z m -14.86,22.9 c 9.11,1.02 11.26,-5.04 2.92,-6.51 -8.34,-1.47 -12.02,5.491 -2.92,6.51 z m -21.14,-4.44 c 9.1,0.92 11.26,-3.88 2.92,-5.16 -8.34,-1.269 -12.02,4.231 -2.92,5.16 z"
       id="path63"
       inkscape:connector-curvature="0"
       style="fill:#f7e181" /><path
       d="m 144.523,199.029 c 0,0 -4.87,0.75 -7,-0.5 -1.85,-1.09 -1.25,-3.02 -1.07,-3.49 l 0.19,-0.06 c 2.41,1.89 5.46,3.16 7.92,3.94 l -0.04,0.11 z"
       id="path65"
       inkscape:connector-curvature="0"
       style="fill:#ffffff" /><path
       d="m 131.713,238.839 c -21.85,-20.23 -27.9,-18.92 -33.53,-15.11 -5.63,3.82 -5.04,16.35 5.07,28.68 5.77,7.06 23.89,21.71 41.53,32.69 l -0.21,0.34 c -3.33,8.38 -4.45,17.21 -4.45,17.21 1.28,22.05 7.14,26.25 7.14,26.25 0.03,0.83 0.03,1.62 0,2.37 -0.36,12.94 -7.58,15.39 -7.58,15.39 0,0 -0.3,0.18 -0.83,0.47 -1.87,1.03 -6.58,3.46 -10.49,3.98 -5,0.67 -13.5,-2.83 -13.5,-2.83 0,0 -8.17,2.5 -13.5,2.83 -5.33,0.33 -16.72,-4.25 -16.72,-4.25 0,0 -0.03,-0.01 -0.09,-0.04 -0.73,-0.33 -5.59,-3.03 -2.45,-14.05 0.46,-1.6 0.59,-3.76 0.47,-6.34 -0.59,-13.37 -7.77,-38.15 -10.23,-56.32 -0.6,-4.38 -0.92,-8.37 -0.81,-11.73 0.61,-18.43 14.8,-36.41 17.01,-39.11 l 0.86,0.13 c 0,0 5.12,-1 8.87,-0.87 3.75,0.12 12.42,-2.42 25.38,8.62 l 8.5,8.38 c 0,0 1.25,-5.75 3.5,-5.88 1.75,-0.09 2.59,-0.04 2.88,-0.02 -0.06,1.2 -0.28,3.1 -0.94,5.15 -1.11,3.47 4.4,10.9 4.4,10.9 0.97,1.53 1.84,2.99 2.62,4.38 l -0.12,0.14 c -4.23,-3.619 -8.55,-7.44 -12.78,-11.36 z"
       id="path67"
       inkscape:connector-curvature="0"
       style="fill:#2b3754" /><path
       d="m 134.133,225.91 c 3.18,2.11 4.42,2.4 4.42,2.4 0,0 0.03,0.5 -0.02,1.32 -0.29,-0.02 -1.13,-0.07 -2.88,0.02 -2.25,0.13 -3.5,5.88 -3.5,5.88 l -8.5,-8.38 c -12.96,-11.04 -21.63,-8.5 -25.38,-8.62 -3.75,-0.13 -8.87,0.87 -8.87,0.87 l -0.86,-0.13 c 0.19,-0.23 0.29,-0.35 0.29,-0.35 0,0 1.27,-7.96 4.26,-7.86 1.59,0.05 3.97,-0.15 5.87,-0.35 l 2.81,0.44 c 0,0 6,1.13 10.94,2.31 4.67,1.12 8.28,3.42 11.19,5.25 l 0.42,-0.66 c 1.07,0.92 6.93,5.959 9.81,7.86 z"
       id="path69"
       inkscape:connector-curvature="0"
       style="fill:#2b3754" /><path
       d="m 137.163,169.97 c 0,0 0.6,3.4 -0.38,2.96 -0.98,-0.44 -0.73,-3.44 0.38,-2.96 z"
       id="path71"
       inkscape:connector-curvature="0" /><path
       d="m 136.783,172.93 c 0.98,0.44 0.38,-2.96 0.38,-2.96 -1.11,-0.48 -1.36,2.52 -0.38,2.96 z m 3.7,-0.31 c -2.96,3.16 -7.33,0.28 -12.72,-0.01 0,0 4.7,-5.4 8.51,-5.38 3.82,0.02 4.21,5.39 4.21,5.39 z"
       id="path73"
       inkscape:connector-curvature="0"
       style="fill:#ffffff" /><path
       d="m 137.523,198.529 c 2.13,1.25 7,0.5 7,0.5 l 0.04,-0.11 c -2.46,-0.78 -5.51,-2.05 -7.92,-3.94 l -0.19,0.06 c -0.18,0.47 -0.78,2.4 1.07,3.49 z m -42.27,-7.579 c 0,0 5.88,-1.3 4.54,-6.02 0,0 -3.42,-2.61 -2.33,-10.41 0.88,-6.4 2.55,-7.88 4.05,-8.08 1.51,-0.2 4.85,2.34 4.85,6.84 0,0 6.69,-3.09 9.38,-14 2.7,-10.92 15.88,-14.49 15.88,-14.49 0,0 9.98,8.99 21.56,8.81 l 0.01,0.42 c 0,0 0,3.09 -0.99,6.37 -0.99,3.27 -3.09,6.15 -1.11,11.89 1.96,6.39 7.85,14.09 7.85,14.09 0,0 -0.98,4.47 -4.71,6.35 0,0 -3.86,0.71 -3.98,4.37 -1.35,5.46 -5.06,17.01 -9.44,18.37 -4.38,1.36 -8.82,-0.62 -15.03,-4.5 0,0 -1.23,0.82 -1.58,6.64 l -0.05,0.3 c 0,0 0.06,0.05 0.17,0.15 l -0.42,0.66 c -2.91,-1.83 -6.52,-4.13 -11.19,-5.25 -4.94,-1.18 -10.94,-2.31 -10.94,-2.31 l -2.81,-0.44 c 1.69,-0.18 2.99,-0.36 2.99,-0.36 1.31,-9.46 -6.7,-19.4 -6.7,-19.4 z m 45.23,-18.33 c 0,0 -0.39,-5.37 -4.21,-5.39 -3.81,-0.02 -8.51,5.38 -8.51,5.38 5.39,0.289 9.76,3.169 12.72,0.01 z"
       id="path75"
       inkscape:connector-curvature="0"
       style="fill:#ffdcd2" /><path
       d="m 121.693,109.279 c -0.18,0.49 -5.15,7.17 -17.8,11.59 -6.93,2.42 -13.79,3.82 -18.79,3.8 -1.13,-0.01 -2.15,-0.09 -3.07,-0.24 -2.46,-0.41 -4.22,-1.33 -5.35,-2.71 l -0.74,0.11 c -1,-1.35 -4.78,-7.24 -2.73,-16.48 2.35,-10.59 9.59,-12.61 29.82,-14.28 19.95,-1.65 20.14,11.06 18.8,18.24 l -0.14,-0.03 z"
       id="path77"
       inkscape:connector-curvature="0"
       style="fill:#ba3e2a" /><path
       d="m 131.623,144.79 c 0,0 -13.18,3.57 -15.88,14.49 -2.69,10.91 -9.38,14 -9.38,14 0,-4.5 -3.34,-7.04 -4.85,-6.84 -1.5,0.2 -3.17,1.68 -4.05,8.08 -1.09,7.8 2.33,10.41 2.33,10.41 1.34,4.72 -4.54,6.02 -4.54,6.02 0,0 -19.79,-1.48 -27,-25.9 -7.2,-24.41 3.36,-30.99 13.65,-39.9 l 0.13,-0.72 c 0.92,0.15 1.94,0.23 3.07,0.24 5,0.02 11.86,-1.38 18.79,-3.8 12.65,-4.42 17.62,-11.1 17.8,-11.59 l 0.14,0.03 c -0.02,0.1 -0.04,0.2 -0.06,0.3 25.32,-6.75 30.5,15.51 30.5,15.51 7.09,-1.31 28.51,9.27 15.1,22.67 -4.63,4.2 -9.54,5.75 -14.19,5.81 -11.58,0.179 -21.56,-8.81 -21.56,-8.81 z"
       id="path79"
       inkscape:connector-curvature="0"
       style="fill:#ba3e2a" /><path
       d="m 109.273,514.11 c 0,0 -5.58,21.83 -9.08,29.83 -2.39,5.46 -7.41,17.119 -14.65,32.72 -14.38,1.17 -27.64,-10.04 -30.29,-12.44 5.01,-19.47 12.89,-31.319 18.06,-42.399 1.46,-52.29 11.71,-84.04 7.96,-94.04 l 0.22,-0.141 c 2.25,3.5 4.54,7.37 6.5,12.521 7.41,19.428 16.18,53.249 21.28,73.949 z"
       id="path81"
       inkscape:connector-curvature="0"
       style="fill:#c18c52" /><path
       d="m 142.523,366.04 c 0.51,3.48 1.1,7.49 1.76,12.06 1.01,6.95 2.19,15.19 3.56,24.86 5.68,40.2 5.13,116.23 2.7,129.16 -1.32,7.03 -5.13,27.57 -9.64,52.77 l -0.63,-0.109 c -16.5,7.75 -34,-1.75 -34,-1.75 l -0.13,-0.011 c 1.13,-24.539 7.39,-51.119 7.39,-51.119 0,0 -1.65,-7.17 -4.26,-17.79 -5.1,-20.7 -13.87,-54.521 -21.28,-73.95 -1.96,-5.15 -4.25,-9.021 -6.5,-12.521 -5.12,-7.979 -10.03,-14.04 -10.41,-28.83 C 70.533,377.53 84.503,347 84.503,347 l 0.05,-0.18 c 0.06,0.03 0.09,0.04 0.09,0.04 0,0 11.39,4.58 16.72,4.25 5.33,-0.33 13.5,-2.83 13.5,-2.83 0,0 8.5,3.5 13.5,2.83 3.91,-0.52 8.62,-2.95 10.49,-3.98 l 0.83,0.06 c 0,0 0.18,1.14 0.56,3.59 0.34,2.23 0.84,5.54 1.52,10.07 0.23,1.58 0.48,3.31 0.76,5.19 z"
       id="path83"
       inkscape:connector-curvature="0"
       style="fill:#c18c52" /><path
       d="m 34.943,635.44 -0.46,-0.221 c 2.48,-2.439 5.39,-5.439 9.06,-11.96 8.1,-14.399 6.48,-38.149 11.48,-58.149 0.07,-0.301 0.15,-0.601 0.23,-0.891 2.65,2.4 15.91,13.61 30.29,12.44 -3.38,7.26 -7.23,15.38 -11.52,24.12 -13.5,27.5 -17.86,34.42 -14.26,47.47 2.59,9.38 11.92,17.95 18.13,23.2 l -1.12,0.58 c 0,0 -1.75,3 -11.75,-1.25 -10,-4.25 -12.75,-16.75 -23,-23.25 -9.26,-5.869 -7.5,-11.129 -7.08,-12.089 z"
       id="path85"
       inkscape:connector-curvature="0"
       style="fill:#ffdcd2" /><path
       d="m 82.573,326.43 -0.26,0.01 c 0,0 -15.53,-14.52 -17.96,-21.94 -2.42,-7.41 7.81,-34.37 7.81,-34.37 l 0.18,-0.02 c 2.46,18.169 9.64,42.95 10.23,56.32 z"
       id="path87"
       inkscape:connector-curvature="0"
       style="fill:#ffdcd2" /><path
       d="m 62.413,124.509 c 8.47,1.11 13.76,-2.38 13.76,-2.38 0,0 -0.09,-0.1 -0.23,-0.3 l 0.74,-0.11 c 1.13,1.38 2.89,2.3 5.35,2.71 l -0.13,0.72 c -11.38,6.29 -19.49,-0.64 -19.49,-0.64 z"
       id="path89"
       inkscape:connector-curvature="0"
       style="fill:#ba3e2a" /><path
       d="m 34.943,635.44 c -0.42,0.96 -2.18,6.22 7.08,12.09 10.25,6.5 13,19 23,23.25 10,4.25 11.75,1.25 11.75,1.25 l 1.12,-0.58 c 2.43,2.05 4.39,3.6 5.27,4.479 2.04,2.04 0.9,6.681 0.9,6.681 0,0 -5.52,1.71 -9,1.87 -6.19,0.279 -14.6,0.96 -17.7,-0.931 -3.1,-1.899 -4.47,-5.43 -6.83,-8.97 -6.3,-9.45 -9,-14.29 -16.65,-16.99 -7.65,-2.7 -7.2,-10.689 -7.2,-10.689 2.4,-6.58 4.8,-8.73 7.8,-11.681 l 0.46,0.221 z"
       id="path91"
       inkscape:connector-curvature="0"
       style="fill:#962929" /><g
       id="line_9_"><path
         id="path94"
         d="m 124.199,217.605 c 0.356,-5.825 1.584,-6.638 1.584,-6.638 6.21,3.871 10.647,5.852 15.028,4.494 4.381,-1.356 8.093,-12.908 9.44,-18.367 0.119,-3.664 3.978,-4.371 3.978,-4.371 3.729,-1.879 4.711,-6.35 4.711,-6.35 0,0 -5.892,-7.696 -7.849,-14.096 -1.979,-5.736 0.124,-8.611 1.113,-11.889 0.989,-3.278 0.989,-6.362 0.989,-6.362"
         stroke-miterlimit="10"
         inkscape:connector-curvature="0"
         style="fill:none;stroke:#000000;stroke-width:3;stroke-linecap:round;stroke-linejoin:round;stroke-miterlimit:10" /><path
         id="path96"
         d="m 95.256,190.956 c 0,0 5.879,-1.308 4.532,-6.02 0,0 -3.414,-2.615 -2.325,-10.416 0.878,-6.393 2.546,-7.874 4.054,-8.076 1.51,-0.201 4.844,2.334 4.844,6.839 0,0 6.694,-3.088 9.386,-14.005 2.693,-10.918 15.875,-14.487 15.875,-14.487 0,0 19.6,17.649 35.754,3.005 13.405,-13.402 -8.009,-23.984 -15.098,-22.672 0,0 -5.188,-22.263 -30.508,-15.507 1.4,-7.125 1.496,-20.213 -18.737,-18.542 -20.233,1.671 -27.469,3.685 -29.818,14.28 -2.348,10.596 2.953,16.773 2.953,16.773 0,0 -5.283,3.497 -13.752,2.384 0,0 8.111,6.934 19.491,0.639 -10.299,8.916 -20.854,15.491 -13.65,39.906 7.204,24.416 26.999,25.899 26.999,25.899 0,0 8.011,9.936 6.701,19.398"
         stroke-miterlimit="10"
         inkscape:connector-curvature="0"
         style="fill:none;stroke:#000000;stroke-width:3;stroke-linecap:round;stroke-linejoin:round;stroke-miterlimit:10" /><path
         id="path98"
         d="m 116.275,114.437 c 0,0 -20.987,6.899 -27.771,0.174 -6.782,-6.726 -0.999,-15.292 7.238,-14.771 8.237,0.521 4.751,7.66 0.987,8.037"
         stroke-miterlimit="10"
         inkscape:connector-curvature="0"
         style="fill:none;stroke:#000000;stroke-width:1.5;stroke-linecap:round;stroke-linejoin:round;stroke-miterlimit:10" /><path
         id="path100"
         d="m 121.697,109.28 c -0.184,0.494 -5.153,7.168 -17.806,11.59 -6.924,2.419 -13.787,3.822 -18.785,3.802 -4.134,-0.017 -6.863,-1.044 -8.425,-2.945"
         stroke-miterlimit="10"
         inkscape:connector-curvature="0"
         style="fill:none;stroke:#000000;stroke-width:1.5;stroke-linecap:round;stroke-linejoin:round;stroke-miterlimit:10" /><path
         id="path102"
         d="m 131.827,143.629 c 0,0 -3.127,-11.443 6.922,-12.78 10.05,-1.338 6.911,7.896 4.553,8.653"
         stroke-miterlimit="10"
         inkscape:connector-curvature="0"
         style="fill:none;stroke:#000000;stroke-width:1.5;stroke-linecap:round;stroke-linejoin:round;stroke-miterlimit:10" /><path
         id="path104"
         d="m 144.026,162.153 c -4.75,0.75 -3.625,-3.5 -13.125,-2.75 -5,0.75 -7.125,3.5 -7.125,3.5"
         stroke-miterlimit="10"
         inkscape:connector-curvature="0"
         style="fill:none;stroke:#000000;stroke-width:2;stroke-linecap:round;stroke-linejoin:round;stroke-miterlimit:10" /><path
         id="path106"
         d="m 140.479,172.62 c 0,0 -0.389,-5.371 -4.202,-5.39 -3.812,-0.019 -8.514,5.381 -8.514,5.381"
         stroke-miterlimit="10"
         inkscape:connector-curvature="0"
         style="fill:none;stroke:#000000;stroke-width:2;stroke-linecap:round;stroke-linejoin:round;stroke-miterlimit:10" /><path
         id="path108"
         d="m 127.763,172.611 c 5.389,0.292 9.764,3.167 12.716,0.009"
         stroke-miterlimit="10"
         inkscape:connector-curvature="0"
         style="fill:none;stroke:#000000;stroke-linecap:round;stroke-linejoin:round;stroke-miterlimit:10" /><path
         id="path110"
         d="m 137.163,169.969 c -1.109,-0.475 -1.364,2.527 -0.382,2.965 0.986,0.44 0.382,-2.965 0.382,-2.965 z"
         stroke-miterlimit="10"
         inkscape:connector-curvature="0"
         style="fill:none;stroke:#000000;stroke-width:3;stroke-linecap:round;stroke-linejoin:round;stroke-miterlimit:10" /><path
         id="path112"
         d="m 152.114,191.153 c 0,0 -1.639,-0.888 -2.672,0.078 -1.032,0.967 -1.731,1.945 -1.731,1.945 0,0 -1.993,-0.233 -3.265,-2.108 -1.273,-1.877 1.796,-3.943 2.451,-3.589"
         stroke-miterlimit="10"
         inkscape:connector-curvature="0"
         style="fill:none;stroke:#000000;stroke-width:1.5;stroke-linecap:round;stroke-linejoin:round;stroke-miterlimit:10" /><path
         id="path114"
         d="m 134.276,195.403 c 0,0 2.375,-0.375 3.625,-2.25"
         stroke-miterlimit="10"
         inkscape:connector-curvature="0"
         style="fill:none;stroke:#000000;stroke-width:1.5;stroke-linecap:round;stroke-linejoin:round;stroke-miterlimit:10" /><path
         id="path116"
         d="m 148.987,200.055 c 0,0 -7.463,-1.247 -12.34,-5.074"
         stroke-miterlimit="10"
         inkscape:connector-curvature="0"
         style="fill:none;stroke:#000000;stroke-width:1.5;stroke-linecap:round;stroke-linejoin:round;stroke-miterlimit:10" /><path
         id="path118"
         d="m 144.526,199.028 c 0,0 -4.875,0.75 -7,-0.5 -2.125,-1.25 -1.5,-3.125 -1.5,-3.125"
         stroke-miterlimit="10"
         inkscape:connector-curvature="0"
         style="fill:none;stroke:#000000;stroke-width:1.5;stroke-linecap:round;stroke-linejoin:round;stroke-miterlimit:10" /><path
         id="path120"
         d="m 104.688,177.924 c 0,0 1.164,5.207 0.62,6.523 -0.543,1.317 -3.215,1.396 -5.164,-0.169"
         stroke-miterlimit="10"
         inkscape:connector-curvature="0"
         style="fill:none;stroke:#000000;stroke-width:1.5;stroke-linecap:round;stroke-linejoin:round;stroke-miterlimit:10" /><path
         id="path122"
         d="m 125.479,210.124 c 0,0 -4.899,-3.163 -8.282,-6.775"
         stroke-miterlimit="10"
         inkscape:connector-curvature="0"
         style="fill:none;stroke:#000000;stroke-width:1.5;stroke-linecap:round;stroke-linejoin:round;stroke-miterlimit:10" /><path
         id="path124"
         d="m 101.957,210.354 c 0,0 -5.861,0.807 -8.86,0.709 -2.998,-0.099 -4.26,7.863 -4.26,7.863 0,0 -16.646,19.466 -17.302,39.455 -0.656,19.989 13.96,62.49 10.568,74.387 -3.392,11.895 2.54,14.09 2.54,14.09 0,0 11.386,4.586 16.719,4.253 5.333,-0.333 13.498,-2.833 13.498,-2.833 0,0 8.502,3.5 13.502,2.833 5,-0.667 11.317,-4.449 11.317,-4.449 0,0 8.094,-2.736 7.586,-17.761 0,0 -5.866,-4.195 -7.144,-26.248 0,0 1.122,-8.826 4.455,-17.211"
         stroke-miterlimit="10"
         inkscape:connector-curvature="0"
         style="fill:none;stroke:#000000;stroke-width:3;stroke-linecap:round;stroke-linejoin:round;stroke-miterlimit:10" /><path
         id="path126"
         d="m 249.809,268.227 c 0,0 -54.487,29.23 -71.544,30.673 -17.056,1.442 -64.916,-34.146 -75.017,-46.483 -10.102,-12.337 -10.692,-24.863 -5.063,-28.681 5.628,-3.817 11.674,-5.12 33.523,15.106 21.849,20.227 46.278,38.037 46.278,38.037 0,0 21.169,-4.81 50.08,-16.869 l 17.203,-5.939 c 0,0 4.753,-7.68 7.31,-14.434 2.557,-6.754 6.207,-11.303 6.207,-11.303 l 9.686,-4.807 c 0,0 8.271,-1.853 10.742,-0.938 2.472,0.915 2.396,2.312 3.5,2.7 2.729,-0.055 4.329,0.919 3.229,3.987 -0.675,1.872 -7.793,4.042 -7.793,4.042 0,0 0.855,1.24 1.093,2.593 0.237,1.352 0.199,3.033 -0.741,3.989 1.395,3.235 0.775,5.612 0.775,5.612 0,0 -0.408,0.987 -1.119,2.299 -0.71,1.311 -2.926,3.081 -4.442,3.594 -1.517,0.514 -3.398,1.609 -3.398,1.609 0,0 -2.293,3.803 -4.396,6.902 -2.103,3.099 -6.708,6.284 -16.113,8.311 z"
         stroke-miterlimit="10"
         inkscape:connector-curvature="0"
         style="fill:none;stroke:#000000;stroke-width:3;stroke-linecap:round;stroke-linejoin:round;stroke-miterlimit:10" /><path
         id="path128"
         d="m 144.61,250.061 c -0.775,-1.393 -1.646,-2.85 -2.621,-4.379 0,0 -5.51,-7.434 -4.396,-10.899 1.114,-3.465 0.963,-6.472 0.963,-6.472 0,0 -1.241,-0.291 -4.424,-2.396 -3.184,-2.105 -9.981,-8.012 -9.981,-8.012"
         stroke-miterlimit="10"
         inkscape:connector-curvature="0"
         style="fill:none;stroke:#000000;stroke-width:3;stroke-linecap:round;stroke-linejoin:round;stroke-miterlimit:10" /><path
         id="path130"
         d="m 101.776,211.153 c 0,0 6,1.125 10.938,2.312 4.938,1.187 8.688,3.688 11.688,5.562"
         stroke-miterlimit="10"
         inkscape:connector-curvature="0"
         style="fill:none;stroke:#000000;stroke-width:1.5;stroke-linecap:round;stroke-linejoin:round;stroke-miterlimit:10" /><path
         d="m 89.401,219.403 c 0,0 5.125,-1 8.875,-0.875 3.75,0.125 12.414,-2.419 25.375,8.625 l 8.5,8.375 c 0,0 1.25,-5.75 3.5,-5.875 2.25,-0.125 3,0 3,0"
         stroke-miterlimit="10"
         id="colar_5_"
         inkscape:connector-curvature="0"
         style="fill:none;stroke:#000000;stroke-width:1.5;stroke-linecap:round;stroke-linejoin:round;stroke-miterlimit:10" /><path
         id="path133"
         d="m 269.603,253.161 c 0,0 0.376,-1.28 1.357,-3.25 0.982,-1.969 0.709,-2.479 0.709,-2.479 0,0 1.063,0.598 3.122,-1.148 0,0 -2.885,2.156 -4.073,4.057"
         stroke-miterlimit="10"
         inkscape:connector-curvature="0"
         style="fill:none;stroke:#000000;stroke-width:1.5;stroke-linecap:round;stroke-linejoin:round;stroke-miterlimit:10" /><path
         id="path135"
         d="m 269.167,241.054 c 5.801,-2.051 6.775,-2.526 7.974,-1.612"
         stroke-miterlimit="10"
         inkscape:connector-curvature="0"
         style="fill:none;stroke:#000000;stroke-width:1.5;stroke-linecap:round;stroke-linejoin:round;stroke-miterlimit:10" /><path
         id="path137"
         d="m 265.338,236.839 5.854,-2.485 c 0,0 4.585,-1.824 6.251,-1.241"
         stroke-miterlimit="10"
         inkscape:connector-curvature="0"
         style="fill:none;stroke:#000000;stroke-width:1.5;stroke-linecap:round;stroke-linejoin:round;stroke-miterlimit:10" /><path
         id="path139"
         d="m 261.965,233.05 c 0,0 7.755,-3.963 9.771,-4.397 2.015,-0.434 11.142,-2.697 11.142,-2.697"
         stroke-miterlimit="10"
         inkscape:connector-curvature="0"
         style="fill:none;stroke:#000000;stroke-width:1.5;stroke-linecap:round;stroke-linejoin:round;stroke-miterlimit:10" /><polyline
         id="polyline141"
         points="   257.032,231.944 228.19,236.834 227.439,234.309 261.866,226.933  "
         stroke-miterlimit="10"
         style="fill:none;stroke:#000000;stroke-width:1.5;stroke-linecap:round;stroke-linejoin:round;stroke-miterlimit:10" /><path
         id="path143"
         d="m 279.88,223.569 c 0,0 16.259,-4.352 27.618,-4.979 l 4.542,-1.185 c 0,0 -0.484,-0.516 0.408,-2.321 0.892,-1.805 1.276,-3.294 1.276,-3.294 0,0 1.728,3.226 1.113,6.707 -0.613,3.482 -2.226,1.762 -2.226,1.762 l -5.02,0.502 c 0,0 -5.75,2.48 -22.539,5.932"
         stroke-miterlimit="10"
         inkscape:connector-curvature="0"
         style="fill:none;stroke:#000000;stroke-width:1.5;stroke-linecap:round;stroke-linejoin:round;stroke-miterlimit:10" /><path
         id="path145"
         d="m 308.027,220.694 c 0,0 0.441,-1.127 -0.529,-2.104"
         stroke-miterlimit="10"
         inkscape:connector-curvature="0"
         style="fill:none;stroke:#000000;stroke-width:1.5;stroke-linecap:round;stroke-linejoin:round;stroke-miterlimit:10" /><line
         id="line147"
         y2="217.944"
         x2="311.35999"
         y1="220.194"
         x1="311.60999"
         stroke-miterlimit="10"
         style="fill:none;stroke:#000000;stroke-width:1.5;stroke-linecap:round;stroke-linejoin:round;stroke-miterlimit:10" /><path
         id="path149"
         d="m 84.502,347 c 0,0 -13.972,30.534 -13.419,51.813 0.554,21.28 10.465,24.481 16.905,41.351 11.217,29.385 25.543,91.742 25.543,91.742 0,0 -10.079,42.795 -6.966,69.912 3.113,27.117 4.514,60.055 0.621,68.932 -3.894,8.877 -7.41,15.176 -5.102,18.266 2.309,3.092 5.175,6.951 21.396,6.582 16.221,-0.369 22.934,-0.045 35.528,0.369 12.593,0.412 16.55,-4.25 16.937,-7.654 0.389,-3.404 -0.266,-4.295 -5.227,-5.43 -4.96,-1.137 -13.061,-2.025 -28.57,-7.385 -6.873,-3.217 -14.302,-9.91 -12.933,-22.66 8.06,-49.309 18.902,-107.791 21.327,-120.719 2.425,-12.928 2.981,-88.951 -2.705,-129.158 -5.686,-40.21 -8.159,-55.771 -8.159,-55.771"
         stroke-miterlimit="10"
         inkscape:connector-curvature="0"
         style="fill:none;stroke:#000000;stroke-width:3;stroke-linecap:round;stroke-linejoin:round;stroke-miterlimit:10" /><path
         id="path151"
         d="m 106.276,583.029 c 0,0 17.5,9.5 34,1.75"
         stroke-miterlimit="10"
         inkscape:connector-curvature="0"
         style="fill:none;stroke:#000000;stroke-width:1.5;stroke-linecap:round;stroke-linejoin:round;stroke-miterlimit:10" /><path
         id="path153"
         d="m 104.776,674.779 c 1,5.5 6.125,9.375 11.875,9.125 5.75,-0.25 24.625,2.375 32.375,2.125 7.75,-0.25 17,0.75 14.75,-4"
         stroke-miterlimit="10"
         inkscape:connector-curvature="0"
         style="fill:none;stroke:#000000;stroke-width:1.5;stroke-linecap:round;stroke-linejoin:round;stroke-miterlimit:10" /><path
         id="path155"
         d="m 81.276,427.779 c 3.75,10 -6.5,41.75 -7.959,94.043 -5.25,11.25 -13.291,23.291 -18.291,43.291 -5,20 -3.384,43.752 -11.484,58.152 -8.1,14.4 -12.47,11.604 -16.857,23.643 0,0 -0.45,7.986 7.2,10.688 7.649,2.699 10.35,7.537 16.649,16.986 2.362,3.543 3.725,7.07 6.829,8.967 3.104,1.895 11.509,1.215 17.696,0.934 3.48,-0.158 9,-1.869 9,-1.869 0,0 1.143,-4.639 -0.9,-6.682 -3.149,-3.148 -19.8,-14.625 -23.399,-27.674 -3.601,-13.051 0.767,-19.979 14.267,-47.479 13.5,-27.5 22.666,-48.834 26.166,-56.834 3.5,-8 9.084,-29.834 9.084,-29.834"
         stroke-miterlimit="10"
         inkscape:connector-curvature="0"
         style="fill:none;stroke:#000000;stroke-width:3;stroke-linecap:round;stroke-linejoin:round;stroke-miterlimit:10" /><path
         id="path157"
         d="m 54.776,563.779 c 0,0 14.75,14.25 30.875,12.875"
         stroke-miterlimit="10"
         inkscape:connector-curvature="0"
         style="fill:none;stroke:#000000;stroke-width:1.5;stroke-linecap:round;stroke-linejoin:round;stroke-miterlimit:10" /><path
         d="m 35.026,635.279 c 0,0 -3.25,5.75 7,12.25 10.25,6.5 13,19 23,23.25 10,4.25 11.75,1.25 11.75,1.25"
         stroke-miterlimit="10"
         id="a_7_"
         inkscape:connector-curvature="0"
         style="fill:none;stroke:#000000;stroke-width:1.5;stroke-linecap:round;stroke-linejoin:round;stroke-miterlimit:10" /><path
         id="path160"
         d="m 72.166,270.132 c 0,0 -10.235,26.956 -7.812,34.373 2.425,7.417 17.958,21.934 17.958,21.934"
         stroke-miterlimit="10"
         inkscape:connector-curvature="0"
         style="fill:none;stroke:#000000;stroke-width:3;stroke-linecap:round;stroke-linejoin:round;stroke-miterlimit:10" /><path
         id="path162"
         d="m 147.691,331.279 c 6.5,1 11.226,4.003 13.851,4.677 5.953,1.527 6.365,1.709 6.738,5.557 0.375,3.848 2.11,4.322 1.521,7.89 -4.599,2.099 -8.182,-0.521 -8.182,-0.521 l -1.401,-3.047 -2.515,0.418 c -5.917,1.018 -11.984,2.523 -17.13,4.483"
         stroke-miterlimit="10"
         inkscape:connector-curvature="0"
         style="fill:none;stroke:#000000;stroke-width:3;stroke-linecap:round;stroke-linejoin:round;stroke-miterlimit:10" /><path
         id="path164"
         d="m 144.281,378.107 c 34.147,16.461 64.875,6.018 72.778,-11.231 7.802,-19.256 -46.675,-20.874 -46.675,-20.874"
         stroke-miterlimit="10"
         inkscape:connector-curvature="0"
         style="fill:none;stroke:#000000;stroke-width:3;stroke-linecap:round;stroke-linejoin:round;stroke-miterlimit:10" /><path
         id="path166"
         d="m 148.826,342.333 c 0,0 -1.219,2.837 5.986,4.323"
         stroke-miterlimit="10"
         inkscape:connector-curvature="0"
         style="fill:none;stroke:#000000;stroke-width:1.5;stroke-linecap:round;stroke-linejoin:round;stroke-miterlimit:10" /><path
         id="path168"
         d="m 160.613,345.221 c 0,0 -1.905,-2.939 -0.353,-4.514"
         stroke-miterlimit="10"
         inkscape:connector-curvature="0"
         style="fill:none;stroke:#000000;stroke-width:1.5;stroke-linecap:round;stroke-linejoin:round;stroke-miterlimit:10" /><path
         id="path170"
         d="m 186.512,352.574 c 3.072,-0.563 13.063,2.054 5.02,3.291 -8.047,1.237 -10.809,-2.23 -5.02,-3.291 z"
         stroke-miterlimit="10"
         inkscape:connector-curvature="0"
         style="fill:none;stroke:#000000;stroke-width:1.5;stroke-linecap:round;stroke-linejoin:round;stroke-miterlimit:10" /><path
         id="path172"
         d="m 201.485,357.763 c 3.643,0.04 11.267,3.191 2.7,5.021 -8.943,1.91 -12.317,-5.126 -2.7,-5.021 z"
         stroke-miterlimit="10"
         inkscape:connector-curvature="0"
         style="fill:none;stroke:#000000;stroke-width:1.5;stroke-linecap:round;stroke-linejoin:round;stroke-miterlimit:10" /><path
         id="path174"
         d="m 198.025,367.584 c 8.338,1.273 6.179,6.08 -2.921,5.156 -9.099,-0.922 -5.416,-6.43 2.921,-5.156 z"
         stroke-miterlimit="10"
         inkscape:connector-curvature="0"
         style="fill:none;stroke:#000000;stroke-width:1.5;stroke-linecap:round;stroke-linejoin:round;stroke-miterlimit:10" /><path
         id="path176"
         d="m 179.594,372.253 c 8.34,1.468 6.185,7.526 -2.918,6.51 -9.102,-1.017 -5.423,-7.978 2.918,-6.51 z"
         stroke-miterlimit="10"
         inkscape:connector-curvature="0"
         style="fill:none;stroke:#000000;stroke-width:1.5;stroke-linecap:round;stroke-linejoin:round;stroke-miterlimit:10" /><path
         id="path178"
         d="m 158.453,369.164 c 8.337,1.274 6.179,6.081 -2.921,5.157 -9.1,-0.924 -5.418,-6.432 2.921,-5.157 z"
         stroke-miterlimit="10"
         inkscape:connector-curvature="0"
         style="fill:none;stroke:#000000;stroke-width:1.5;stroke-linecap:round;stroke-linejoin:round;stroke-miterlimit:10" /><path
         id="path180"
         d="m 142.043,360.844 c 0.576,-0.064 1.222,-0.096 1.939,-0.088 3.642,0.039 11.265,3.191 2.699,5.02 -1.606,0.344 -3.033,0.397 -4.237,0.257"
         stroke-miterlimit="10"
         inkscape:connector-curvature="0"
         style="fill:none;stroke:#000000;stroke-width:1.5;stroke-linecap:round;stroke-linejoin:round;stroke-miterlimit:10" /><polyline
         id="polyline182"
         points="   341.697,132.903 361.572,16.778 368.072,15.778 372.572,18.778 352.322,134.778  "
         stroke-miterlimit="10"
         style="fill:none;stroke:#000000;stroke-width:3;stroke-linecap:round;stroke-linejoin:round;stroke-miterlimit:10" /><polyline
         id="polyline184"
         points="   344.281,136.487 340.072,131.778 333.572,131.778 315.072,134.278 313.572,139.278 315.239,142.528  "
         stroke-miterlimit="10"
         style="fill:none;stroke:#000000;stroke-width:3;stroke-linecap:round;stroke-linejoin:round;stroke-miterlimit:10" /><path
         id="path186"
         d="m 334.568,140.532 c 0,0 -3.662,-2.92 -2.496,-8.254"
         stroke-miterlimit="10"
         inkscape:connector-curvature="0"
         style="fill:none;stroke:#000000;stroke-width:1.5;stroke-linecap:round;stroke-linejoin:round;stroke-miterlimit:10" /><polyline
         id="polyline188"
         points="   279.473,222.792 294.526,147.778 315.264,142.955 334.568,140.532 344.073,137.224 354.572,134.778 361.072,137.278    314.072,404.779 305.572,404.279 249.072,374.278 273.674,251.685  "
         stroke-miterlimit="10"
         style="fill:none;stroke:#000000;stroke-width:3;stroke-linecap:round;stroke-linejoin:round;stroke-miterlimit:10" /><line
         id="line190"
         y2="404.19901"
         x2="307.16"
         y1="135.78"
         x1="354.91"
         stroke-miterlimit="10"
         style="fill:none;stroke:#000000;stroke-width:1.5;stroke-linecap:round;stroke-linejoin:round;stroke-miterlimit:10" /><path
         id="path192"
         d="m 248.239,371.778 c 0,0 -5.333,-1 -6,0 -0.667,1 -0.667,6.333 -0.667,6.333 0,0 67.333,40.334 72,41 4.667,0.668 21.667,2 21.667,2 l 2.333,-18.832 -20.914,-10.834"
         stroke-miterlimit="10"
         inkscape:connector-curvature="0"
         style="fill:none;stroke:#000000;stroke-width:3;stroke-linecap:round;stroke-linejoin:round;stroke-miterlimit:10" /><polyline
         id="polyline194"
         points="   305.908,405.279 315.575,410.613 329.742,412.945 331.575,402.945 336.242,402.945  "
         stroke-miterlimit="10"
         style="fill:none;stroke:#000000;stroke-width:1.5;stroke-linecap:round;stroke-linejoin:round;stroke-miterlimit:10" /><line
         id="line196"
         y2="410.94501"
         x2="314.90799"
         y1="418.27899"
         x1="313.57501"
         stroke-miterlimit="10"
         style="fill:none;stroke:#000000;stroke-width:1.5;stroke-linecap:round;stroke-linejoin:round;stroke-miterlimit:10" /><path
         id="path198"
         d="m 314.072,404.779 c 0,0 11.504,6 15.67,8.166"
         stroke-miterlimit="10"
         inkscape:connector-curvature="0"
         style="fill:none;stroke:#000000;stroke-width:1.5;stroke-linecap:round;stroke-linejoin:round;stroke-miterlimit:10" /><line
         id="line200"
         y2="395.44501"
         x2="317.07501"
         y1="402.94501"
         x1="331.57501"
         stroke-miterlimit="10"
         style="fill:none;stroke:#000000;stroke-width:1.5;stroke-linecap:round;stroke-linejoin:round;stroke-miterlimit:10" /><path
         id="path202"
         d="m 356.573,165.778 2.667,1 c 0,0.001 -15.922,132.599 -28.313,231.834"
         stroke-miterlimit="10"
         inkscape:connector-curvature="0"
         style="fill:none;stroke:#000000;stroke-width:3;stroke-linecap:round;stroke-linejoin:round;stroke-miterlimit:10" /><path
         id="path204"
         d="m 328.204,421.042 c -3.133,24.842 -5.91,46.367 -7.964,61.402 -10.333,75.668 -35.383,239.244 -35.383,239.244 l -8.666,3.334 -4.667,-5.334 42.048,-300.578"
         stroke-miterlimit="10"
         inkscape:connector-curvature="0"
         style="fill:none;stroke:#000000;stroke-width:3;stroke-linecap:round;stroke-linejoin:round;stroke-miterlimit:10" /><polyline
         id="polyline206"
         points="   265.822,392.528 198.023,653.779 205.523,659.779 209.523,659.779 276.572,398.778  "
         stroke-miterlimit="10"
         style="fill:none;stroke:#000000;stroke-width:3;stroke-linecap:round;stroke-linejoin:round;stroke-miterlimit:10" /><path
         id="path208"
         d="m 351.572,235.778 4.417,0.553 7.583,2.197 c 0,0 -2,11.75 -5.5,16.25 l 123.119,406.245 -6,4 -7,-3 -113.619,-374.745 -9,-1.5"
         stroke-miterlimit="10"
         inkscape:connector-curvature="0"
         style="fill:none;stroke:#000000;stroke-width:3;stroke-linecap:round;stroke-linejoin:round;stroke-miterlimit:10" /><polyline
         id="polyline210"
         points="   346.072,276.778 351.572,277.361 347.572,265.778  "
         stroke-miterlimit="10"
         style="fill:none;stroke:#000000;stroke-width:3;stroke-linecap:round;stroke-linejoin:round;stroke-miterlimit:10" /><path
         id="path212"
         d="m 352.242,278.113 10,1.666 c 0,0 4.5,3.999 0.666,8.249 l -8.999,-1.582"
         stroke-miterlimit="10"
         inkscape:connector-curvature="0"
         style="fill:none;stroke:#000000;stroke-width:1.5;stroke-linecap:round;stroke-linejoin:round;stroke-miterlimit:10" /></g></g></svg>