<?xml version="1.0" encoding="utf-8"?>
<!-- Generator: Adobe Illustrator 16.0.0, SVG Export Plug-In . SVG Version: 6.00 Build 0)  -->
<!DOCTYPE svg PUBLIC "-//W3C//DTD SVG 1.1//EN" "http://www.w3.org/Graphics/SVG/1.1/DTD/svg11.dtd">
<svg version="1.1" id="Layer_1" xmlns="http://www.w3.org/2000/svg" xmlns:xlink="http://www.w3.org/1999/xlink" x="0px" y="0px"
	 width="259.032px" height="665.033px" viewBox="0 0 259.032 665.033" enable-background="new 0 0 259.032 665.033"
	 xml:space="preserve">
<g>
	<path fill="#FFDCD2" d="M169.599,360.299c-0.14,1.09-1.27,9.3-5.47,9.79c-2.83,0.72-5.18-3.1-5.18-3.1s2.67-0.79,5.21-10.17
		c2.55-9.38,4.44-7.6,8.09-13.42c0.94-1.5,1.41-4.91,1.7-9.53c0.85-13.3,0.23-36.65,5.18-53.48l-3.33-41c0,0-0.03,0.06-0.1,0.17
		l-0.4-0.17c0,0,2.16-10.66-0.84-21c-1.5-12.83,6-28.33,6-28.33s1.17-1.67,2.17-1.67l1-0.33c0,0,5.6,12.72,9.17,31.73
		c3.34,17.83,4.66,41.55,4.66,54.94c0,27.66-10.84,61.92-11.52,68.69c-0.69,6.76,0.73,10.02,1.13,16.02
		c0.4,5.99-0.06,11.74-2.64,15.92c-1.14,2.06-2.31,3.27-3.35,3.95c-0.54,0.37-1.05,0.58-1.51,0.69c-1.06,1.06-1.7,1.68-5.26,2.79
		c-3.55,1.11-3.93,0.69-3.93,0.69s-4.37,4.99-6.25,2.85c-1.88-2.15,0.84-4.97,2.88-10.25
		C168.909,371.119,169.529,361.489,169.599,360.299z"/>
	<path fill="#962929" d="M181.629,631.559c7,6.5,4.5,11.5,4.5,11.5c-12,5-32.5,3.5-32.5-3.5s-3-11-4.5-17s2-14.5,2-14.5
		s-0.25,7,2.25,8.75c0.75,1.25,1.25,5,3.5,8.5s3.5,6.75,16.5,5.75c0,0,3.5-0.5,2-4.75l0.48-0.391
		C177.689,627.899,179.659,629.729,181.629,631.559z"/>
	<path fill="#2B3754" d="M142.889,208.039c0.56-0.61,11.82-13.08,14.99-16.98c3.25-4,6-13.25,6-13.25s11.5,2.5,17.75,5.75
		c0,0,3,0.75,2,4.5l-1,0.33c-1,0-2.17,1.67-2.17,1.67s-7.5,15.5-6,28.33c3,10.34,0.84,21,0.84,21l0.4,0.17
		c-0.95,1.66-8.59,15.4-8.9,28.83c-0.34,14.34,1.33,19.34,1.33,19.34l-3.67,5.66c0,0-1.05,0.85-2.88,1.6
		c-2.3,0.93-5.85,1.7-10.12,0.4c0,0-8.66-2.66-13.66,0c-1.56,0.83-3.41,1.31-5.38,1.49l-0.04-0.57c3.75-5.5,2.5-15.75,0-23.5
		s-1.5-16.75-0.75-24.5s1.75-17.75,1.5-29.5c-0.02-1.07-0.09-2.06-0.19-2.98l0.19-0.02c-0.36-4.76,0.31-7.99,1.29-10.28
		c0.54-0.54,7.01-6.86,8.21-4.22C143.829,203.949,142.949,207.749,142.889,208.039z"/>
	<path fill="#C18C52" d="M181.129,379.389c0.18,7.35,0.22,16.5-0.25,24.92c-1,18-8.75,77.25-8.75,77.25s0,19.5,0,40.5
		c0,2.74-0.11,5.95-0.3,9.49l-0.7,0.01c-15.5,4-29.5-1-29.5-1l-0.5,0.04c-1.14-16.69-1.5-28.54-1.5-28.54c-3.5-9.5-2.5-23-2.5-23
		c-2.5-38.5-6-110-6-110s-1,34-10,69s-13,36.5-15.5,71c-0.55,7.53-1.69,14.47-3.19,21.069l-0.31-0.069c0,0-19.83,8.51-31.84-3.84
		c1.9-19.591,3.61-34.311,4.84-42.16c2.5-16-3-66,3.5-111.5s13-64.5,13-64.5l-0.33-0.76c4.22-1.84,9.5-6.24,9.5-6.24
		s5.83,8.75,8.33,8.5s1.5-2.75,1.5-2.75l-5.5-10.25l8.5,7c0,0,2.5,0,3.75-1.25s1.25-2.75,1.25-2.75s2.75,0.25,3.25-1.5
		s-0.75-2.5-0.75-2.5l-1.47-1.07c3.65,1.77,8.49,2.78,12.76,2.39c1.97-0.18,3.82-0.66,5.38-1.49c5-2.66,13.66,0,13.66,0
		c4.27,1.3,7.82,0.53,10.12-0.4l2.55,0.07l9.82,38.81c-0.29,4.62-0.76,8.03-1.7,9.53c-3.65,5.82-5.54,4.04-8.09,13.42
		c-2.54,9.38-5.21,10.17-5.21,10.17s2.35,3.82,5.18,3.1c4.2-0.49,5.33-8.7,5.47-9.79c-0.07,1.19-0.69,10.82-2.59,15.78
		c-2.04,5.28-4.76,8.1-2.88,10.25c1.88,2.141,6.25-2.85,6.25-2.85s0.38,0.42,3.93-0.69c3.56-1.11,4.2-1.73,5.26-2.79
		c0.46-0.11,0.97-0.32,1.51-0.69L181.129,379.389z"/>
	<path fill="#BA3E2A" d="M114.109,63.669c-0.61,0-12.46-0.14-14.18-11.33c0,0,7.26,7.05,12.73,7.05l1.13,0.26
		c0,0-0.83,9.48,18.94,9.29c16.78-0.3,22.14-2.41,25.28-6.89l0.41,0.2c-0.07,0.16-0.15,0.33-0.23,0.49c0,0,14.72,0.82,19.11,19.99
		c2.01,8.81,2.17,15.95,1.25,21.82c-1.09,6.9-2.92,10.51-4.92,14.01l-0.15,0.08c-1.01-1.86-3.26-1.11-3.26-1.11l-3.42,5.19
		c0,0,0.07-0.51,0.12-1.38c0.13-2.13,0.18-6.43-1.06-10.88c-1.81-6.5-6.79-8.94-8.3-15.27c0,0-9.6,7.63-21.37,7.33
		c-11.77-0.29-18-1.96-23.32-7.4c-0.74,4.94-2.26,7.06-4.49,13.23c-1.84,5.08-2.06,11.6-2.08,13.76c0,0.46,0,0.72,0,0.72l-2.97-5.08
		c0,0-1.1,0.27-2.2,1.21l-0.06-0.21c-2.42-5.11-4.43-10.16-5.99-17.18c-1.26-5.68-1.46-12.12,0.69-19.54
		C100.459,65.839,113.489,63.759,114.109,63.669z"/>
	<path fill="#FFDCD2" d="M175.859,625.918l-0.48,0.391c1.5,4.25-2,4.75-2,4.75c-13,1-14.25-2.25-16.5-5.75s-2.75-7.25-3.5-8.5
		c-2.5-1.75-2.25-8.75-2.25-8.75c-5.48-23.05-8.46-54.75-10-77.46l0.5-0.04c0,0,14,5,29.5,1l0.7-0.01
		c-1.27,23.579-6.07,61.77-5.2,73.51C167.349,614.759,171.169,620.849,175.859,625.918z"/>
	<path fill="#FFDCD2" d="M173.479,118.639c0.55,0.99,0.74,2.73,0.05,5.73c-1.98,6.99-8.38,9.35-8.38,9.35s-0.6,1.15-1.57,2.92
		l-0.46-0.25c2.65-7.39,3.25-15.09,3.25-15.09l0.55,0.04c-0.05,0.87-0.12,1.38-0.12,1.38l3.42-5.19
		C170.219,117.529,172.469,116.779,173.479,118.639z"/>
	<path fill="#FFDCD2" d="M125.459,159.749c-2.01-2.08-4.05-4.46-6.08-6.86c-4.35-5.14-8.4-13.27-10.11-16.92l0.53-0.24
		c-2.65-7.4-3.05-13.62-3.05-13.62h-0.45c0.02-2.16,0.24-8.68,2.08-13.76c2.23-6.17,3.75-8.29,4.49-13.23
		c5.32,5.44,11.55,7.11,23.32,7.4c11.77,0.3,21.37-7.33,21.37-7.33c1.51,6.33,6.49,8.77,8.3,15.27c1.24,4.45,1.19,8.75,1.06,10.88
		l-0.55-0.04c0,0-0.6,7.7-3.25,15.09l0.46,0.25c-2.18,4.02-6.24,11.21-9.43,15.28c-2.63,3.35-6.44,7.58-10.2,10.59
		c-2.8,2.24-5.58,3.8-7.82,3.8C132.739,166.309,129.139,163.539,125.459,159.749z M160.509,121.869c0,0-2.74-5.28-6.76-5.19
		c-4.01,0.1-6.7,5.63-6.7,5.63s1.76,0.89,5.07,1.33C155.429,124.079,160.509,121.869,160.509,121.869z M127.289,121.869
		c0,0-1.5-5.19-5.28-5.81c-3.79-0.62-8.02,4.54-8.02,4.54s4.25,2.04,7.34,2.26C124.419,123.089,127.289,121.869,127.289,121.869z"/>
	<path fill="#2B3754" d="M163.879,177.809c0,0-2.75,9.25-6,13.25c-3.17,3.9-14.43,16.37-14.99,16.98c0.06-0.29,0.94-4.09-0.26-6.73
		c-1.2-2.64-7.67,3.68-8.21,4.22c1.08-2.53,2.55-3.92,3.46-4.97c1.75-2,6.5-5,12-11s5-12.75,5-12.75s-1.75-0.5-6.25-1.5
		c-4.22-0.94-5.03-4.95-5.11-5.45l0.61-0.05c0,0,6,3,10.5,1.75S160.379,174.059,163.879,177.809z"/>
	<path fill="#BA3E2A" d="M131.799,40.989c21.84-3.06,33.63,6.53,26.62,21.26l-0.41-0.2c-3.14,4.48-8.5,6.59-25.28,6.89
		c-19.77,0.19-18.94-9.29-18.94-9.29l-1.13-0.26c0.16,0,0.32-0.01,0.48-0.02C113.139,59.369,109.729,44.079,131.799,40.989z"/>
	<path fill="#FFDCD2" d="M143.519,169.859c0.08,0.5,0.89,4.51,5.11,5.45c4.5,1,6.25,1.5,6.25,1.5s0.5,6.75-5,12.75s-10.25,9-12,11
		c-0.91,1.05-2.38,2.44-3.46,4.97c-0.98,2.29-1.65,5.52-1.29,10.28l-0.19,0.02c-0.39-3.56-1.31-6.06-2.3-7.78
		c-1.55-2.71-3.26-3.49-3.26-3.49c-14.75-10.75-14-27.25-14-27.25s2-1.25,6-2.25s5.75-4.33,5.75-4.33h-0.33
		c1.29-2.27,0.7-10.5,0.66-10.98c3.68,3.79,7.28,6.56,10.67,6.56c2.24,0,5.02-1.56,7.82-3.8l0.18,0.22v7.08L143.519,169.859z"/>
	<path fill="#FFFFFF" d="M153.749,116.679c4.02-0.09,6.76,5.19,6.76,5.19s-5.08,2.21-8.39,1.77c-3.31-0.44-5.07-1.33-5.07-1.33
		S149.739,116.779,153.749,116.679z M153.229,121.769c1.1,0.24,1.33-2.91,0.25-3.09
		C152.489,118.519,152.119,121.519,153.229,121.769z"/>
	<path d="M153.479,118.679c1.08,0.18,0.85,3.33-0.25,3.09C152.119,121.519,152.489,118.519,153.479,118.679z"/>
	<path fill="#2B3754" d="M133.129,218.809c0.25,11.75-0.75,21.75-1.5,29.5s-1.75,16.75,0.75,24.5s3.75,18,0,23.5l0.04,0.57
		c-4.27,0.39-9.11-0.62-12.76-2.39l-11.53-8.43c0,0,7-2,9.5-3.75s2-4.5,2-4.5s-7.5,1.5-14,2.75c0,0-6.12,4.59-10,7.59l-0.25-0.59
		l-2.5-4c0,0,2-3.25,3.5-14.25s-6-25.75-8-31c-1.95-5.12,1.1-16.68,1.24-17.23c0.01-0.01,0.01-0.02,0.01-0.02s4-5.25,2.75-17.5
		s-3.25-16.16-7.25-16.83c0,0,0-2,4.33-3.67c4.34-1.67,17.34-4.67,17.34-4.67s0-0.01,0.01-0.02l0.55,0.26l-3.23,6.93
		c0,0,10,20.5,10.5,24c0,0,3.88-7.12,6.88-6.38c3,0.76,9.12,4.88,9.12,4.88l0.01-0.01c0.99,1.72,1.91,4.22,2.3,7.78
		C133.039,216.749,133.109,217.739,133.129,218.809z"/>
	<path fill="#2B3754" d="M107.359,178.629l-0.55-0.26c0.12-0.37,2.06-6.31,4.32-6.31c2.33,0,13.67-1.33,13.67-1.33h0.33
		c0,0-1.75,3.33-5.75,4.33s-6,2.25-6,2.25s-0.75,16.5,14,27.25c0,0,1.71,0.78,3.26,3.49l-0.01,0.01c0,0-6.12-4.12-9.12-4.88
		c-3-0.74-6.88,6.38-6.88,6.38c-0.5-3.5-10.5-24-10.5-24L107.359,178.629z"/>
	<path fill="#FFFFFF" d="M122.009,116.059c3.78,0.62,5.28,5.81,5.28,5.81s-2.87,1.22-5.96,0.99c-3.09-0.22-7.34-2.26-7.34-2.26
		S118.219,115.439,122.009,116.059z M121.439,121.029c1.1,0.25,1.1-2.81,0.01-2.99C120.459,117.879,120.329,120.789,121.439,121.029
		z"/>
	<path fill="#FFDCD2" d="M119.659,294.489l1.47,1.07c0,0,1.25,0.75,0.75,2.5s-3.25,1.5-3.25,1.5s0,1.5-1.25,2.75
		s-3.75,1.25-3.75,1.25l-8.5-7l5.5,10.25c0,0,1,2.5-1.5,2.75s-8.33-8.5-8.33-8.5s-5.28,4.4-9.5,6.24c-0.46,0.21-0.91,0.38-1.34,0.51
		c-4.33,1.33-8.83-3-27.83-20s-26.12-28.37-27-32.75c-0.88-4.38,7-20,22.33-37c15.34-17,27.67-31.33,27.67-31.33
		c4,0.67,6,4.58,7.25,16.83s-2.75,17.5-2.75,17.5s0,0.01-0.01,0.02c-12.51,13.25-32.11,32.86-32.11,32.86
		c10.37,9.62,13.87,18.37,29.87,40.12c0,0.25,3.25-2,6.75-4.75c0.44-0.34,0.94-0.74,1.5-1.16c3.88-3,10-7.59,10-7.59
		c6.5-1.25,14-2.75,14-2.75s0.5,2.75-2,4.5s-9.5,3.75-9.5,3.75L119.659,294.489z"/>
	<path d="M121.449,118.039c1.09,0.18,1.09,3.24-0.01,2.99C120.329,120.789,120.459,117.879,121.449,118.039z"/>
	<path fill="#FFDCD2" d="M109.799,135.729l-0.53,0.24c-0.55-1.17-0.86-1.88-0.86-1.88s-9.49-4.64-9.49-9.94
		c0-2.65,1.1-4.25,2.21-5.19c1.1-0.94,2.2-1.21,2.2-1.21l2.97,5.08c0,0,0-0.26,0-0.72h0.45
		C106.749,122.109,107.149,128.329,109.799,135.729z"/>
	<path fill="#FFDCD2" d="M102.129,530.059l0.31,0.069c-5.41,23.66-15.51,43.07-19.81,70.431c-0.33,1.67-0.4,3.34-0.3,4.979
		l-0.45,0.021c0,7.25-6.5,10.75-11.25,15s-9.5,11-16.75,9.75s-3-8.5-3-8.5l-0.21-0.16c7.7-10.65,13.46-21.09,13.46-21.09
		c2.04-28.51,4.2-54.04,6.16-74.34C82.299,538.569,102.129,530.059,102.129,530.059z"/>
	<path fill="#962929" d="M82.329,605.539c0.28,5.73,2.36,11.13,0.8,15.021c-2,5-4,4.75-9.25,8.75c-3.1,2.37-3.6,10.609-10.5,13.56
		c-4.77,2.04-11.96,2.21-16.25,1.19c-8.84-2.101-18.25-6.5-0.75-16.75c1.48-1.86,2.91-3.76,4.29-5.66l0.21,0.16c0,0-4.25,7.25,3,8.5
		s12-5.5,16.75-9.75s11.25-7.75,11.25-15L82.329,605.539z"/>
</g>
<g id="line">
	<path fill="none" stroke="#000000" stroke-width="3" stroke-linecap="round" stroke-linejoin="round" stroke-miterlimit="10" d="
		M157.561,95.197c0,0-9.602,7.621-21.373,7.326c-11.771-0.293-17.995-1.956-23.322-7.4c-0.736,4.939-2.257,7.064-4.486,13.23
		s-2.085,14.477-2.085,14.477l-2.964-5.076c0,0-4.414,1.104-4.414,6.4c0,5.298,9.491,9.934,9.491,9.934s5.222,12.016,10.972,18.808
		s11.5,13.417,16.75,13.417s13.418-8.539,18.021-14.395s10.995-18.197,10.995-18.197s6.401-2.354,8.388-9.346
		c1.986-8.607-3.311-6.842-3.311-6.842l-3.421,5.188c0,0,0.808-5.983-0.942-12.261C164.049,103.958,159.069,101.523,157.561,95.197z
		"/>
	<path fill="none" stroke="#000000" stroke-width="3" stroke-linecap="round" stroke-linejoin="round" stroke-miterlimit="10" d="
		M101.069,118.751c-2.421-5.113-4.426-10.162-5.988-17.18c-1.265-5.68-1.46-12.119,0.688-19.537
		c4.804-16.583,18.359-18.36,18.359-18.36s-12.433,0.146-14.199-11.331c0,0,7.688,7.467,13.207,7.026
		c0,0-3.405-15.283,18.667-18.373c22.072-3.09,33.889,6.738,26.383,21.748c0,0,14.723,0.818,19.109,19.985
		c2.018,8.812,2.172,15.958,1.251,21.825c-1.082,6.896-2.917,10.508-4.917,14.008"/>
	<path fill="none" stroke="#000000" stroke-width="1.5" stroke-linecap="round" stroke-linejoin="round" stroke-miterlimit="10" d="
		M113.787,59.654c0,0-0.825,9.482,18.942,9.283c16.783-0.294,22.143-2.409,25.282-6.882"/>
	<path fill="none" stroke="#000000" stroke-width="1.5" stroke-linecap="round" stroke-linejoin="round" stroke-miterlimit="10" d="
		M148.812,67.371c-11.316,0.167-25.943-0.459-26.531-12.084s12.654-10.006,14.273-7.946c1.618,2.06,1.324,6.18-1.766,7.063
		c-3.091,0.883-4.121-1.913-4.121-1.913"/>
	<path fill="none" stroke="#000000" stroke-width="1.5" stroke-linecap="round" stroke-linejoin="round" stroke-miterlimit="10" d="
		M113.233,94.437c0,0-7.52-10.791,1.355-17.082"/>
	<path fill="none" stroke="#000000" stroke-width="1.5" stroke-linecap="round" stroke-linejoin="round" stroke-miterlimit="10" d="
		M157.082,94.687c0,0,11.131-9.041,3.92-18.998c-3.455-4.21-6.372-1.459-6.497,1.582s3.458,7.042,4.792,3.875"/>
	<path fill="none" stroke="#000000" stroke-width="1.5" stroke-linecap="round" stroke-linejoin="round" stroke-miterlimit="10" d="
		M106.748,122.11c0,0,0.398,6.224,3.047,13.618"/>
	<path fill="none" stroke="#000000" stroke-width="1.5" stroke-linecap="round" stroke-linejoin="round" stroke-miterlimit="10" d="
		M166.373,121.306c0,0-0.607,7.694-3.256,15.089"/>
	<path fill="none" stroke="#000000" stroke-width="2" stroke-linecap="round" stroke-linejoin="round" stroke-miterlimit="10" d="
		M110.669,113.769c0,0,9.125-11.875,18.958-1.708"/>
	<path fill="none" stroke="#000000" stroke-width="2" stroke-linecap="round" stroke-linejoin="round" stroke-miterlimit="10" d="
		M113.987,120.605c0,0,4.236-5.168,8.017-4.543s5.281,5.812,5.281,5.812"/>
	<path fill="none" stroke="#000000" stroke-linecap="round" stroke-linejoin="round" stroke-miterlimit="10" d="M127.285,121.874
		c0,0-2.869,1.214-5.959,0.993s-7.339-2.262-7.339-2.262"/>
	<path fill="none" stroke="#000000" stroke-width="3" stroke-linecap="round" stroke-linejoin="round" stroke-miterlimit="10" d="
		M121.452,118.045c1.083,0.178,1.087,3.235-0.017,2.99S120.459,117.882,121.452,118.045z"/>
	<path fill="none" stroke="#000000" stroke-width="2" stroke-linecap="round" stroke-linejoin="round" stroke-miterlimit="10" d="
		M145.295,112.99c0,0,10.5-13.262,17.864,0.496"/>
	<path fill="none" stroke="#000000" stroke-width="2" stroke-linecap="round" stroke-linejoin="round" stroke-miterlimit="10" d="
		M147.047,122.315c0,0,2.691-5.536,6.707-5.628s6.757,5.187,6.757,5.187"/>
	<path fill="none" stroke="#000000" stroke-linecap="round" stroke-linejoin="round" stroke-miterlimit="10" d="M160.511,121.874
		c0,0-5.077,2.208-8.388,1.767s-5.076-1.325-5.076-1.325"/>
	<path fill="none" stroke="#000000" stroke-width="3" stroke-linecap="round" stroke-linejoin="round" stroke-miterlimit="10" d="
		M153.478,118.687c1.083,0.178,0.853,3.327-0.251,3.082C152.123,121.525,152.484,118.525,153.478,118.687z"/>
	<path fill="none" stroke="#000000" stroke-width="1.5" stroke-linecap="round" stroke-linejoin="round" stroke-miterlimit="10" d="
		M140.003,134.686c0,0-0.457-10.875-0.29-13.042c0.166-2.167,1.916-7.832,1.916-7.832"/>
	<path fill="none" stroke="#000000" stroke-width="1.5" stroke-linecap="round" stroke-linejoin="round" stroke-miterlimit="10" d="
		M129.295,137.478c-1.332,1.416-0.949,2.096,1.037,4.304c1.766,0.552,1.224-1.214,2.548-1.987"/>
	<path fill="none" stroke="#000000" stroke-width="1.5" stroke-linecap="round" stroke-linejoin="round" stroke-miterlimit="10" d="
		M132.428,139.132c0,0,1.107,1.761,1.987,2.429s2.587,1.274,3.882,0.419c1.293-0.855,1.833-1.833,2.746-2.957"/>
	<path fill="none" stroke="#000000" stroke-width="1.5" stroke-linecap="round" stroke-linejoin="round" stroke-miterlimit="10" d="
		M140.16,140.347c0,0,1.656,0.11,1.766,1.104c0.111,0.993,1.324,0.331,1.821-0.938c0.497-1.27,0.714-1.84-0.286-3.146"/>
	<path fill="none" stroke="#000000" stroke-width="1.5" stroke-linecap="round" stroke-linejoin="round" stroke-miterlimit="10" d="
		M120.994,145.38c0,0,2.429-2.759,4.525-2.648"/>
	<path fill="none" stroke="#000000" stroke-width="1.5" stroke-linecap="round" stroke-linejoin="round" stroke-miterlimit="10" d="
		M122.981,143.946c0,0,12.897,10.116,26.045,0.317"/>
	<path fill="none" stroke="#000000" stroke-width="1.5" stroke-linecap="round" stroke-linejoin="round" stroke-miterlimit="10" d="
		M148.475,142.387c0,0,1.766,2.649,1.986,3.532"/>
	<path fill="none" stroke="#000000" stroke-width="3" stroke-linecap="round" stroke-linejoin="round" stroke-miterlimit="10" d="
		M125.463,159.73c0,0,0.666,8.667-0.668,11c0,0-11.333,1.333-13.666,1.333s-4.333,6.333-4.333,6.333s-13,3-17.333,4.667
		s-4.333,3.667-4.333,3.667s-12.333,14.332-27.667,31.332s-23.208,32.625-22.333,37s8,15.75,27,32.75s23.501,21.334,27.834,20
		s10.833-6.75,10.833-6.75s5.833,8.75,8.333,8.5s1.5-2.75,1.5-2.75l-5.5-10.25l8.5,7c0,0,2.5,0,3.75-1.25s1.25-2.75,1.25-2.75
		s2.75,0.25,3.25-1.5s-0.75-2.5-0.75-2.5l-13-9.5c0,0,7-2,9.5-3.75s2-4.5,2-4.5s-7.5,1.5-14,2.75c0,0-8,6-11.5,8.75
		s-6.75,5-6.75,4.75c-16-21.75-19.5-30.5-29.875-40.125c0,0,19.625-19.625,32.125-32.875c0,0-3.25,12-1.25,17.25s9.5,20,8,31
		s-3.5,14.25-3.5,14.25l2.5,4"/>
	<path fill="none" stroke="#000000" stroke-width="3" stroke-linecap="round" stroke-linejoin="round" stroke-miterlimit="10" d="
		M144.129,162.729v7.083c0,0,6,3,10.5,1.75s5.75,2.5,9.25,6.25c0,0,11.5,2.5,17.75,5.75c0,0,3,0.75,2,4.5
		c0,0,5.602,12.725,9.167,31.729c3.345,17.831,4.667,41.547,4.667,54.939c0,27.667-10.847,61.922-11.527,68.689
		c-0.682,6.768,0.73,10.022,1.131,16.018c0.4,5.997-0.062,11.75-2.639,15.924c-1.75,3.152-3.549,4.326-4.86,4.64
		c-1.063,1.062-1.694,1.685-5.254,2.794c-3.558,1.108-3.935,0.689-3.935,0.689s-4.375,4.984-6.25,2.844s0.838-4.963,2.875-10.25
		c2.037-5.288,2.609-15.895,2.609-15.895s-0.984,9.379-5.484,9.913c-2.828,0.716-5.185-3.1-5.185-3.1s2.675-0.794,5.218-10.175
		c2.543-9.38,4.441-7.596,8.092-13.419c3.65-5.822,0.209-40.341,6.875-63.007l-3.334-40.999c0,0-8.666,14.667-9,29
		c-0.332,14.333,1.334,19.333,1.334,19.333l-3.666,5.667c0,0-5.334,4.334-13,2c0,0-8.668-2.666-13.668,0s-12.999,1.667-18.332-1"/>
	
		<line fill="none" stroke="#000000" stroke-width="1.5" stroke-linecap="round" stroke-linejoin="round" stroke-miterlimit="10" x1="118.629" y1="299.562" x2="106.379" y2="291.062"/>
	<path fill="none" stroke="#000000" stroke-width="1.5" stroke-linecap="round" stroke-linejoin="round" stroke-miterlimit="10" d="
		M84.629,298.812c0,0,3-3.5,4.25-5.25"/>
	<path fill="none" stroke="#000000" stroke-width="1.5" stroke-linecap="round" stroke-linejoin="round" stroke-miterlimit="10" d="
		M89.629,221.062c0,0,4-5.25,2.75-17.5s-3.25-16.164-7.25-16.832"/>
	<path fill="none" stroke="#000000" stroke-width="1.5" stroke-linecap="round" stroke-linejoin="round" stroke-miterlimit="10" d="
		M125.129,170.73c0,0-1.75,3.332-5.75,4.332s-6,2.25-6,2.25s-0.75,16.5,14,27.25c0,0,5.5,2.5,5.75,14.25s-0.75,21.75-1.5,29.5
		s-1.75,16.75,0.75,24.5s3.75,18,0,23.5"/>
	<path fill="none" stroke="#000000" stroke-width="1.5" stroke-linecap="round" stroke-linejoin="round" stroke-miterlimit="10" d="
		M107.629,178.062l-3.5,7.5c0,0,10,20.5,10.5,24c0,0,3.875-7.125,6.875-6.375s9.125,4.875,9.125,4.875"/>
	<path fill="none" stroke="#000000" stroke-width="1.5" stroke-linecap="round" stroke-linejoin="round" stroke-miterlimit="10" d="
		M143.504,169.812c0,0,0.625,4.5,5.125,5.5s6.25,1.5,6.25,1.5s0.5,6.75-5,12.75s-10.25,9-12,11s-5.5,5.25-4.75,15.25"/>
	<path fill="none" stroke="#000000" stroke-width="1.5" stroke-linecap="round" stroke-linejoin="round" stroke-miterlimit="10" d="
		M134.379,205.562c0,0,7-7,8.25-4.25s0.25,6.75,0.25,6.75s11.75-13,15-17s6-13.25,6-13.25"/>
	<path fill="none" stroke="#000000" stroke-width="1.5" stroke-linecap="round" stroke-linejoin="round" stroke-miterlimit="10" d="
		M175.296,239.397c0,0,2.166-10.669-0.834-21.002c-1.499-12.833,6.001-28.333,6.001-28.333s1.166-1.667,2.166-1.667"/>
	<path fill="none" stroke="#000000" stroke-width="1.5" stroke-linecap="round" stroke-linejoin="round" stroke-miterlimit="10" d="
		M169.879,382.937c2.125-3.875,3.25-6.875,4.438-12.312"/>
	<path fill="none" stroke="#000000" stroke-width="1.5" stroke-linecap="round" stroke-linejoin="round" stroke-miterlimit="10" d="
		M174.004,382.437c2.75-4.625,2.75-7.25,4.25-11.75"/>
	
		<line fill="none" stroke="#000000" stroke-width="1.5" stroke-linecap="round" stroke-linejoin="round" stroke-miterlimit="10" x1="179.379" y1="379.812" x2="182.004" y2="370.437"/>
	<path fill="none" stroke="#000000" stroke-width="3" stroke-linecap="round" stroke-linejoin="round" stroke-miterlimit="10" d="
		M91.629,308.062c0,0-6.5,19-13,64.5s-1,95.5-3.5,111.5s-7,60.5-11,116.5c0,0-8,14.5-17.75,26.75
		c-17.5,10.25-8.091,14.646,0.75,16.75c4.292,1.021,11.478,0.848,16.25-1.193c6.904-2.949,7.396-11.191,10.5-13.557
		c5.25-4,7.25-3.75,9.25-8.75s-2-12.5-0.5-20c5.5-35,20.5-57,23-91.5s6.5-36,15.5-71s10-69,10-69s3.5,71.5,6,110c0,0-1,13.5,2.5,23
		c0,0,2,66,11.5,106c0,0-3.5,8.5-2,14.5s4.5,10,4.5,17s20.5,8.5,32.5,3.5c0,0,2.5-5-4.5-11.5s-14-13-15-26.5s5.5-62,5.5-83
		s0-40.5,0-40.5s7.75-59.25,8.75-77.25c0.468-8.422,0.429-17.568,0.255-24.918"/>
	
		<line fill="none" stroke="#000000" stroke-width="3" stroke-linecap="round" stroke-linejoin="round" stroke-miterlimit="10" x1="173.962" y1="333.895" x2="164.129" y2="295.062"/>
	<path fill="none" stroke="#000000" stroke-width="1.5" stroke-linecap="round" stroke-linejoin="round" stroke-miterlimit="10" d="
		M102.129,530.062c0,0-19.938,8.562-31.938-3.938"/>
	<path fill="none" stroke="#000000" stroke-width="1.5" stroke-linecap="round" stroke-linejoin="round" stroke-miterlimit="10" d="
		M141.629,530.562c0,0,14,5,29.5,1"/>
	<path fill="none" stroke="#000000" stroke-width="1.5" stroke-linecap="round" stroke-linejoin="round" stroke-miterlimit="10" d="
		M50.879,621.812c0,0-4.25,7.25,3,8.5s12-5.5,16.75-9.75s11.25-7.75,11.25-15"/>
	<path fill="none" stroke="#000000" stroke-width="1.5" stroke-linecap="round" stroke-linejoin="round" stroke-miterlimit="10" d="
		M151.129,608.062c0,0-0.25,7,2.25,8.75c0.75,1.25,1.25,5,3.5,8.5s3.5,6.75,16.5,5.75c0,0,3.5-0.5,2-4.75"/>
</g>
</svg>
