<?xml version="1.0" encoding="utf-8"?>
<!-- Generator: Adobe Illustrator 16.0.0, SVG Export Plug-In . SVG Version: 6.00 Build 0)  -->
<!DOCTYPE svg PUBLIC "-//W3C//DTD SVG 1.1//EN" "http://www.w3.org/Graphics/SVG/1.1/DTD/svg11.dtd">
<svg version="1.1" id="Layer_1" xmlns="http://www.w3.org/2000/svg" xmlns:xlink="http://www.w3.org/1999/xlink" x="0px" y="0px"
	 width="320.45px" height="634.369px" viewBox="0 0 320.45 634.369" enable-background="new 0 0 320.45 634.369"
	 xml:space="preserve">
<g>
	<path fill="#962929" d="M225.853,592.755c1.38,1.9,2.81,3.801,4.29,5.66c16.311,6.75,6.98,16.42-1.75,16.75
		c-4.29,1.021-11.479,0.851-16.25-1.189c-6.91-2.95-6.4-11.19-9.5-13.561c-5.25-4-7.25-3.75-9.25-8.75
		c-1.56-3.89,0.52-9.29,0.8-15.02l0.45,0.02c0,7.25,6.5,10.75,11.25,15s9.5,11,16.75,9.75c7.25-1.25,3-8.5,3-8.5L225.853,592.755z"
		/>
	<path fill="#FFDCD2" d="M225.643,592.915c0,0,4.25,7.25-3,8.5c-7.25,1.25-12-5.5-16.75-9.75s-11.25-7.75-11.25-15l-0.45-0.02
		c0.1-1.641,0.03-3.311-0.3-4.98c-4.3-27.38-11.97-47.41-16.3-71.359l0.8-0.141c0,0,18.92,9.41,30.92-2.92
		c0.87,19.601,1.26,42.66,3.08,74.42c0,0,5.76,10.44,13.46,21.09L225.643,592.915z"/>
	<path fill="#FFDCD2" d="M256.863,168.005c-4.311-1.1-7.19-1.84-7.09-1.62c-6.15,26.78-8.4,40.28-12.101,48.78
		c-3.71,8.5-9.3,16.75-17.66,11c-8.22-5.66-25.57-34.09-26.11-34.98c-0.01-0.01-0.01-0.02-0.01-0.02s-4-5.25-2.75-17.5
		s3.25-16.16,7.25-16.83c0,0,5.4,8,11.82,17.66c6.43,9.67,13.03,20.05,13.03,20.05l4.96-12.23c10.51-23.23,12.87-29.02,17.38-29.55
		c4.5-0.53,12.63,1.8,12.63,1.8s1.8-9.87,4.19-10.65c2.39-0.78,3.02,1.95,3.02,1.95l-1.43,11.06l4.95-9.84c0,0,2.29-1.01,3.93-0.37
		c1.65,0.64,2.26,2.01,2.26,2.01s2.41-1.34,3.58,0.06c1.16,1.4,0.32,2.59,0.32,2.59l-8.05,13.94c0,0,7.21-4,10.21-3.41
		c2.989,0.59,3.649,3.31,3.649,3.31s-3.14,1.6-7.14,3.47c-1.88,0.88-3.94,1.81-5.96,2.67
		C271.743,171.355,261.183,169.105,256.863,168.005z"/>
	<path fill="#FFDCD2" d="M175.113,106.495c2.65-7.39,3.25-15.09,3.25-15.09l0.55,0.04c-0.05,0.87-0.12,1.38-0.12,1.38l3.42-5.19
		c0,0,2.25-0.75,3.26,1.11c0.55,0.99,0.74,2.73,0.05,5.73c-1.98,6.99-8.38,9.35-8.38,9.35s-0.59,1.15-1.54,2.93L175.113,106.495z"/>
	<path fill="#2B3754" d="M162.013,173.285c3-0.74,6.88,6.38,6.88,6.38c0.5-3.5,10.5-24,10.5-24l-3.23-6.93l0.55-0.26
		c0.01,0.01,0.01,0.02,0.01,0.02s13,3,17.33,4.67c4.34,1.67,4.34,3.67,4.34,3.67c-4,0.67-6,4.58-7.25,16.83s2.75,17.5,2.75,17.5
		s0,0.01,0.01,0.02c0.14,0.55,3.19,12.11,1.24,17.23c-2,5.25-9.5,20-8,31s3.5,14.25,3.5,14.25l-2.5,4c0,0-2.76,3.19-6.54,4.98
		c-1.49,0.7-3.12,1.19-4.81,1.19c-6,0-12.74,0.66-12.74,0.66c-3.67,1.84-8.6,2.88-12.95,2.49l0.04-0.57c-3.75-5.5-2.5-15.75,0-23.5
		s1.5-16.75,0.75-24.5s-1.75-17.75-1.5-29.5c0.02-1.07,0.09-2.06,0.19-2.98c0.39-3.57,1.32-6.06,2.3-7.78l0.01,0.01
		C152.893,178.166,159.013,174.045,162.013,173.285z"/>
	<path d="M165.473,88.785c1.08,0.18,0.85,3.33-0.25,3.09C164.113,91.625,164.483,88.625,165.473,88.785z"/>
	<path fill="#FFFFFF" d="M165.473,88.785c-0.99-0.16-1.36,2.84-0.25,3.09C166.323,92.115,166.553,88.965,165.473,88.785z
		 M164.453,87.335c4.02-0.1,8.05,4.64,8.05,4.64c-4.05,0.02-4.88,1.68-7.38,1.77c-2.5,0.09-6.08-1.33-6.08-1.33
		S160.443,87.425,164.453,87.335z"/>
	<path fill="#FFFFFF" d="M158.023,118.565c1.03,2.03-0.27,2.35-2.9,3.1s-7.67-3.46-16.83-3.62
		C150.623,116.375,156.993,116.535,158.023,118.565z"/>
	<path fill="#2B3754" d="M152.883,178.155c1.55-2.71,3.26-3.49,3.26-3.49c14.75-10.75,14-27.25,14-27.25s-2-1.25-6-2.25
		s-5.75-4.33-5.75-4.33l0.26-0.14c0.02,0.05,0.04,0.1,0.07,0.14c0,0,11.33,1.33,13.67,1.33c2.26,0,4.2,5.94,4.32,6.31l-0.55,0.26
		l3.23,6.93c0,0-10,20.5-10.5,24c0,0-3.88-7.12-6.88-6.38c-3,0.76-9.12,4.88-9.12,4.88L152.883,178.155z"/>
	<path fill="#FFDCD2" d="M138.293,118.045c9.16,0.16,14.2,4.37,16.83,3.62s3.93-1.07,2.9-3.1
		C156.993,116.535,150.623,116.375,138.293,118.045z M139.933,132.085c-3.2-2.8-6.3-6.42-8.56-9.09
		c-3.32-3.92-8.15-13.19-10.1-17.06l0.52-0.1c-2.65-7.4-3.05-13.62-3.05-13.62h-0.45c0.02-2.16,0.24-8.68,2.08-13.76
		c2.23-6.17,3.75-8.29,4.49-13.23c5.32,5.44,11.55,7.11,23.32,7.4c11.77,0.3,21.37-7.33,21.37-7.33c1.51,6.33,6.49,8.77,8.3,15.27
		c1.24,4.45,1.19,8.75,1.06,10.88l-0.55-0.04c0,0-0.6,7.7-3.25,15.09l0.49,0.26c-2.14,3.99-6.13,11.1-9.46,15.27
		c-2.29,2.87-5.31,6.28-8.4,9.05c-3.39,3.05-6.88,5.34-9.62,5.34C145.663,136.416,142.763,134.565,139.933,132.085z M165.123,93.745
		c2.5-0.09,3.33-1.75,7.38-1.77c0,0-4.03-4.74-8.05-4.64c-4.01,0.09-5.41,5.08-5.41,5.08S162.623,93.835,165.123,93.745z
		 M139.283,91.975c0,0-1.02-4.71-4.81-5.33c-3.78-0.63-8.49,4.06-8.49,4.06s2.31,0.29,7.34,2.26
		C136.413,93.195,139.283,91.975,139.283,91.975z"/>
	<path fill="#FFDCD2" d="M145.643,170.666c-1.75-2-6.5-5-12-11s-5-12.75-5-12.75s1.75-0.5,6.25-1.5s5.12-5.5,5.12-5.5h-0.62v-7.08
		l0.54-0.75c2.83,2.48,5.73,4.33,8.19,4.33c2.74,0,6.23-2.29,9.62-5.34l0.31,0.34c0,0-0.64,6.81,0.6,9.28l-0.26,0.14
		c0,0,1.75,3.33,5.75,4.33s6,2.25,6,2.25s0.75,16.5-14,27.25c0,0-1.71,0.78-3.26,3.49c-0.98,1.72-1.91,4.21-2.3,7.78l-0.19-0.02
		c0.36-4.76-0.31-7.99-1.29-10.28C148.023,173.105,146.553,171.715,145.643,170.666z"/>
	<path fill="#2B3754" d="M128.893,141.666c4.5,1.25,10.5-1.75,10.5-1.75h0.62c0,0-0.62,4.5-5.12,5.5s-6.25,1.5-6.25,1.5
		s-0.5,6.75,5,12.75s10.25,9,12,11c0.91,1.05,2.38,2.44,3.46,4.97c-0.54-0.54-7.01-6.86-8.21-4.22c-1.2,2.64-0.32,6.44-0.26,6.73
		c-0.56-0.61-11.82-13.08-14.99-16.98c-3.25-4-6-13.25-6-13.25C123.143,144.166,124.393,140.416,128.893,141.666z"/>
	<path d="M133.443,88.146c1.09,0.18,1.09,3.24-0.01,2.99C132.323,90.896,132.453,87.985,133.443,88.146z"/>
	<path fill="#FFFFFF" d="M133.443,88.146c-0.99-0.16-1.12,2.75-0.01,2.99C134.533,91.385,134.533,88.325,133.443,88.146z
		 M134.473,86.646c3.79,0.62,4.81,5.33,4.81,5.33s-2.87,1.22-5.96,0.99c-5.03-1.97-7.34-2.26-7.34-2.26
		S130.693,86.015,134.473,86.646z"/>
	<path fill="#BA3E2A" d="M144.723,39.045c-19.77,0.19-18.94-9.29-18.94-9.29l-1.13-0.26c0.16,0,0.32-0.01,0.48-0.02
		c0,0-3.41-15.29,18.66-18.38c21.84-3.06,33.63,6.53,26.62,21.26l-0.41-0.2C166.863,36.635,161.503,38.745,144.723,39.045z"/>
	<path fill="#C18C52" d="M152.103,347.235c0.13-3.33,0.15-5.2,0.15-5.2S152.143,343.896,152.103,347.235z M152.103,347.266
		c-0.46,10.87-2.23,37.13-9.11,63.899c-9,35-13,36.5-15.5,71c-0.55,7.61-1.47,14.57-2.62,21.16l-0.88-0.16
		c0,0-18.57,9.88-30.57-2.569c0.74-16.69,1.71-29.71,3.57-43.431c2.5-16-4.77-64.229,1.73-109.729s12.4-64.27,20.07-82.25l0.86-1.27
		c1.59,1.03,6.25,3.46,12.4,1.58c0,0,8.67-2.66,13.67,0c1.56,0.83,3.41,1.31,5.38,1.49c4.35,0.39,9.28-0.65,12.95-2.49
		c0,0,6.74-0.66,12.74-0.66c1.69,0,3.32-0.49,4.81-1.19l0.6,0.19c0,0,13.19,34.33,19.69,79.83c6.5,45.5,1,95.5,3.5,111.5
		c2.25,13.92,3.23,27.391,3.92,43.08c-12,12.33-30.92,2.92-30.92,2.92l-0.8,0.141c-1.21-6.66-2.16-13.63-2.7-21.141
		c-2.5-34.5-6.5-36-15.5-71C152.603,381.766,151.993,357.556,152.103,347.266z"/>
	<path fill="#FFDCD2" d="M118.743,92.215c0,0,0.4,6.22,3.05,13.62l-0.52,0.1c-0.55-1.08-0.87-1.74-0.87-1.74s-9.49-4.64-9.49-9.94
		c0-2.65,1.1-4.25,2.21-5.19c1.1-0.94,2.2-1.21,2.2-1.21l2.97,5.08c0,0,0-0.26,0-0.72H118.743z"/>
	<path fill="#2B3754" d="M145.723,265.495c-5-2.66-13.67,0-13.67,0c-6.15,1.88-10.81-0.55-12.4-1.58c-0.39-0.25-0.6-0.42-0.6-0.42
		l-3.66-5.66c0,0,1.66-5,1.33-19.34c-0.33-14.33-7.2-22.91-8.35-29c-1.15-6.08-0.75-11-0.75-11l-0.42-0.41l1.09-9.59
		c1.5-12.83-5.24-28.33-5.24-28.33s-1.16-1.67-2.16-1.67l-1-0.33c-1-3.75,2-4.5,2-4.5c6.25-3.25,17.75-5.75,17.75-5.75
		s2.75,9.25,6,13.25c3.17,3.9,14.43,16.37,14.99,16.98c-0.06-0.29-0.94-4.09,0.26-6.73c1.2-2.64,7.67,3.68,8.21,4.22
		c0.98,2.29,1.65,5.52,1.29,10.28l0.19,0.02c-0.1,0.92-0.17,1.91-0.19,2.98c-0.25,11.75,0.75,21.75,1.5,29.5s1.75,16.75-0.75,24.5
		s-3.75,18,0,23.5l-0.04,0.57C149.133,266.805,147.283,266.325,145.723,265.495z"/>
	<path fill="#FFDCD2" d="M108.743,577.665c0,7.25-6.5,10.75-11.25,15s-9.5,11-16.75,9.75s-3-8.5-3-8.5l-0.21-0.16
		c7.7-10.649,13.46-21.09,13.46-21.09c1.1-31.89,1.64-54.109,2.43-72.069c12,12.449,30.57,2.569,30.57,2.569l0.88,0.16
		c-4.07,23.29-11.09,42.061-15.38,69.34c-0.33,1.67-0.4,3.34-0.3,4.98L108.743,577.665z"/>
	<path fill="#BA3E2A" d="M125.783,29.755c0,0-0.83,9.48,18.94,9.29c16.78-0.3,22.14-2.41,25.28-6.89l0.41,0.2
		c-0.07,0.16-0.15,0.33-0.23,0.49c0,0,14.72,0.82,19.11,19.99c2.01,8.81,2.17,15.95,1.25,21.82c-1.09,6.9-2.92,10.51-4.92,14.01
		l-0.15,0.08c-1.01-1.86-3.26-1.11-3.26-1.11l-3.42,5.19c0,0,0.07-0.51,0.12-1.38c0.13-2.13,0.18-6.43-1.06-10.88
		c-1.81-6.5-6.79-8.94-8.3-15.27c0,0-9.6,7.63-21.37,7.33c-11.77-0.29-18-1.96-23.32-7.4c-0.74,4.94-2.26,7.06-4.49,13.23
		c-1.84,5.08-2.06,11.6-2.08,13.76c0,0.46,0,0.72,0,0.72l-2.97-5.08c0,0-1.1,0.27-2.2,1.21l-0.06-0.21
		c-2.42-5.11-4.43-10.16-5.99-17.18c-1.26-5.68-1.46-12.12,0.69-19.54c4.69-16.19,17.72-18.27,18.34-18.36
		c-0.61,0-12.46-0.14-14.18-11.33c0,0,7.26,7.05,12.73,7.05L125.783,29.755z"/>
	<path fill="#962929" d="M77.743,593.915c0,0-4.25,7.25,3,8.5s12-5.5,16.75-9.75s11.25-7.75,11.25-15l0.45-0.02
		c0.28,5.729,2.36,11.13,0.8,15.02c-2,5-4,4.75-9.25,8.75c-3.11,2.37-2.6,10.61-9.5,13.561c-4.78,2.04-11.96,2.21-16.25,1.189
		c-9.87-0.67-19.2-8.33-1.75-16.75c1.48-1.859,2.91-3.76,4.29-5.66L77.743,593.915z"/>
	<path fill="#FFDCD2" d="M50.243,148.345c2.26,1.09,2.74,11.11,2.74,11.11s8.37-1.23,12.76-0.11c4.39,1.12,8.5,13.94,11.84,22.61
		c3.33,8.67,7.43,18.85,7.43,18.85l14.88-42.64l1,0.33c1,0,2.16,1.67,2.16,1.67s6.74,15.5,5.24,28.33l-1.09,9.59l0.42,0.41
		c-14,52.84-28.25,39.92-28.25,39.92c-14.25-18.25-13.58-39.25-21-65.99c0.13-0.22-1.42,0.01-5.84,0.53
		c-4.42,0.52-15.19,1.35-15.19,1.35c-1.89-1.12-3.81-2.32-5.55-3.43c-3.72-2.39-6.61-4.39-6.61-4.39s1-2.61,4.05-2.8
		c3.05-0.19,9.66,4.73,9.66,4.73l-6.13-14.88c0,0-0.67-1.3,0.67-2.53s3.55,0.42,3.55,0.42s0.78-1.28,2.5-1.69
		c1.72-0.42,3.85,0.89,3.85,0.89l3.6,10.4l0.05-11.15C46.983,149.875,47.973,147.255,50.243,148.345z"/>
</g>
<g id="line_1_">
	<path fill="none" stroke="#000000" stroke-width="3" stroke-linecap="round" stroke-linejoin="round" stroke-miterlimit="10" d="
		M169.555,65.303c0,0-9.602,7.621-21.373,7.326c-11.771-0.293-17.995-1.956-23.322-7.4c-0.736,4.939-2.257,7.064-4.486,13.23
		s-2.085,14.477-2.085,14.477l-2.964-5.076c0,0-4.414,1.104-4.414,6.4c0,5.298,9.49,9.934,9.49,9.934s6.723,13.786,10.973,18.808
		s11.5,13.417,16.75,13.417s13.211-8.373,18.021-14.395s10.995-18.197,10.995-18.197s6.401-2.354,8.388-9.346
		c1.986-8.607-3.311-6.842-3.311-6.842l-3.421,5.188c0,0,0.808-5.983-0.942-12.261C176.043,74.064,171.063,71.629,169.555,65.303z"
		/>
	<path fill="none" stroke="#000000" stroke-width="3" stroke-linecap="round" stroke-linejoin="round" stroke-miterlimit="10" d="
		M113.062,88.858c-2.42-5.113-4.426-10.162-5.988-17.18c-1.264-5.68-1.46-12.119,0.688-19.537
		c4.804-16.583,18.359-18.36,18.359-18.36s-12.433,0.146-14.198-11.331c0,0,7.688,7.467,13.206,7.026
		c0,0-3.405-15.283,18.667-18.373c22.072-3.09,33.889,6.738,26.383,21.748c0,0,14.723,0.818,19.109,19.985
		c2.018,8.812,2.172,15.958,1.251,21.825c-1.082,6.896-2.917,10.508-4.917,14.008"/>
	<path fill="none" stroke="#000000" stroke-width="1.5" stroke-linecap="round" stroke-linejoin="round" stroke-miterlimit="10" d="
		M125.781,29.761c0,0-0.826,9.482,18.941,9.283c16.783-0.294,22.143-2.409,25.282-6.882"/>
	<path fill="none" stroke="#000000" stroke-width="1.5" stroke-linecap="round" stroke-linejoin="round" stroke-miterlimit="10" d="
		M160.807,37.477c-11.316,0.167-25.943-0.459-26.531-12.084s12.654-10.006,14.273-7.946c1.618,2.06,1.324,6.18-1.766,7.063
		c-3.091,0.883-4.121-1.913-4.121-1.913"/>
	<path fill="none" stroke="#000000" stroke-width="1.5" stroke-linecap="round" stroke-linejoin="round" stroke-miterlimit="10" d="
		M125.227,64.543c0,0-7.52-10.791,1.355-17.082"/>
	<path fill="none" stroke="#000000" stroke-width="1.5" stroke-linecap="round" stroke-linejoin="round" stroke-miterlimit="10" d="
		M169.076,64.793c0,0,11.131-9.041,3.92-18.998c-3.455-4.21-6.372-1.459-6.497,1.582s3.458,7.042,4.792,3.875"/>
	<path fill="none" stroke="#000000" stroke-width="1.5" stroke-linecap="round" stroke-linejoin="round" stroke-miterlimit="10" d="
		M118.742,92.216c0,0,0.398,6.224,3.047,13.618"/>
	<path fill="none" stroke="#000000" stroke-width="1.5" stroke-linecap="round" stroke-linejoin="round" stroke-miterlimit="10" d="
		M178.367,91.413c0,0-0.607,7.694-3.256,15.089"/>
	<path fill="none" stroke="#000000" stroke-width="2" stroke-linecap="round" stroke-linejoin="round" stroke-miterlimit="10" d="
		M123.041,84.502c0,0,11.083-11.667,17.485-6.344"/>
	<path fill="none" stroke="#000000" stroke-width="2" stroke-linecap="round" stroke-linejoin="round" stroke-miterlimit="10" d="
		M125.98,90.711c0,0,4.716-4.688,8.497-4.063s4.802,5.332,4.802,5.332"/>
	<path fill="none" stroke="#000000" stroke-linecap="round" stroke-linejoin="round" stroke-miterlimit="10" d="M139.279,91.98
		c0,0-2.869,1.214-5.959,0.993c-5.03-1.971-7.34-2.262-7.34-2.262"/>
	<path fill="none" stroke="#000000" stroke-width="3" stroke-linecap="round" stroke-linejoin="round" stroke-miterlimit="10" d="
		M133.446,88.152c1.083,0.178,1.087,3.235-0.017,2.99S132.453,87.989,133.446,88.152z"/>
	<path fill="none" stroke="#000000" stroke-width="2" stroke-linecap="round" stroke-linejoin="round" stroke-miterlimit="10" d="
		M157.289,78.335c0,0,4.395,4.056,17.864,5.257"/>
	<path fill="none" stroke="#000000" stroke-width="2" stroke-linecap="round" stroke-linejoin="round" stroke-miterlimit="10" d="
		M159.041,92.421c0,0,1.4-4.995,5.416-5.086s8.048,4.645,8.048,4.645"/>
	<path fill="none" stroke="#000000" stroke-linecap="round" stroke-linejoin="round" stroke-miterlimit="10" d="M172.505,91.98
		c-4.048,0.022-4.881,1.678-7.381,1.767s-6.083-1.325-6.083-1.325"/>
	<path fill="none" stroke="#000000" stroke-width="3" stroke-linecap="round" stroke-linejoin="round" stroke-miterlimit="10" d="
		M165.472,88.793c1.083,0.178,0.853,3.327-0.251,3.082C164.117,91.631,164.479,88.631,165.472,88.793z"/>
	<path fill="none" stroke="#000000" stroke-width="1.5" stroke-linecap="round" stroke-linejoin="round" stroke-miterlimit="10" d="
		M151.997,104.792c0,0-0.457-10.875-0.29-13.042c0.166-2.167,1.916-7.832,1.916-7.832"/>
	<path fill="none" stroke="#000000" stroke-width="1.5" stroke-linecap="round" stroke-linejoin="round" stroke-miterlimit="10" d="
		M141.289,107.584c-1.332,1.416-0.949,2.096,1.037,4.304c1.766,0.552,1.224-1.214,2.548-1.987"/>
	<path fill="none" stroke="#000000" stroke-width="1.5" stroke-linecap="round" stroke-linejoin="round" stroke-miterlimit="10" d="
		M144.422,109.239c0,0,1.107,1.761,1.987,2.429s2.587,1.274,3.882,0.419c1.293-0.855,1.833-1.833,2.746-2.957"/>
	<path fill="none" stroke="#000000" stroke-width="1.5" stroke-linecap="round" stroke-linejoin="round" stroke-miterlimit="10" d="
		M152.154,110.454c0,0,1.656,0.11,1.766,1.104c0.111,0.993,1.324,0.331,1.821-0.938c0.497-1.27,0.714-1.84-0.286-3.146"/>
	<path fill="none" stroke="#000000" stroke-width="1.5" stroke-linecap="round" stroke-linejoin="round" stroke-miterlimit="10" d="
		M138.123,115.418c0,0-0.875,1.5-0.25,2.5"/>
	<path fill="none" stroke="#000000" stroke-width="1.5" stroke-linecap="round" stroke-linejoin="round" stroke-miterlimit="10" d="
		M138.29,118.043c12.333-1.667,18.699-1.509,19.733,0.525s-0.274,2.351-2.9,3.101S147.457,118.21,138.29,118.043z"/>
	<path fill="none" stroke="#000000" stroke-width="3" stroke-linecap="round" stroke-linejoin="round" stroke-miterlimit="10" d="
		M139.391,132.835v7.083c0,0-6,3-10.5,1.75s-5.75,2.5-9.25,6.25c0,0-11.5,2.5-17.75,5.75c0,0-3,0.75-2,4.5l-14.882,42.636
		c0,0-4.094-10.178-7.427-18.844s-7.447-21.488-11.839-22.611c-4.392-1.123-12.762,0.105-12.762,0.105s-0.477-10.016-2.739-11.108
		c-2.263-1.091-3.253,1.533-3.253,1.533l-0.053,11.152l-3.599-10.407c0,0-2.132-1.305-3.852-0.891
		c-1.718,0.414-2.501,1.693-2.501,1.693s-2.215-1.648-3.555-0.416c-1.339,1.232-0.665,2.524-0.665,2.524l6.132,14.888
		c0,0-6.618-4.92-9.664-4.732s-4.054,2.795-4.054,2.795s2.899,2.002,6.618,4.388c1.74,1.117,3.66,2.318,5.545,3.436
		c0,0,10.774-0.834,15.194-1.354c4.42-0.519,5.969-0.743,5.838-0.529c7.417,26.742,6.75,47.742,21,65.992
		c0,0,14.25,12.917,28.25-39.916c0,0-0.398,4.919,0.75,11.001s8.017,14.667,8.351,29c0.332,14.333-1.334,19.333-1.334,19.333
		l3.666,5.667c0,0,5.334,4.334,13,2c0,0,8.668-2.666,13.668,0s12.999,1.667,18.332-1c0,0,6.734-0.667,12.734-0.667
		s11.35-6.167,11.35-6.167l2.5-4c0,0-2-3.25-3.5-14.25s6-25.75,8-31s-1.25-17.25-1.25-17.25s17.768,29.25,26.125,35
		s13.949-2.498,17.653-10.999s5.954-22.001,12.104-48.777c-0.102-0.229,2.781,0.516,7.094,1.616
		c4.312,1.101,14.881,3.354,14.881,3.354c2.017-0.859,4.078-1.795,5.951-2.671c4.002-1.873,7.141-3.473,7.141-3.473
		s-0.654-2.717-3.648-3.307s-10.205,3.41-10.205,3.41l8.05-13.944c0,0,0.84-1.191-0.324-2.59c-1.165-1.398-3.579-0.058-3.579-0.058
		s-0.606-1.372-2.255-2.01c-1.649-0.638-3.936,0.373-3.936,0.373l-4.945,9.839l1.425-11.061c0,0-0.634-2.732-3.021-1.951
		c-2.388,0.782-4.187,10.647-4.187,10.647s-8.134-2.326-12.636-1.795c-4.502,0.532-6.867,6.315-17.373,29.545l-4.957,12.228
		c0,0-6.608-10.375-13.033-20.042s-11.824-17.666-11.824-17.666s0-2-4.334-3.667c-4.333-1.667-17.332-4.667-17.332-4.667
		s-2-6.333-4.334-6.333s-13.666-1.333-13.666-1.333c-1.334-2.333-0.668-9.418-0.668-9.418"/>
	
		<line fill="none" stroke="#000000" stroke-width="1.5" stroke-linecap="round" stroke-linejoin="round" stroke-miterlimit="10" x1="36.984" y1="151.427" x2="42.998" y2="165.071"/>
	<path fill="none" stroke="#000000" stroke-width="1.5" stroke-linecap="round" stroke-linejoin="round" stroke-miterlimit="10" d="
		M65.596,169.81c0,0-3.737,1.4-7.237,1.998"/>
	<path fill="none" stroke="#000000" stroke-width="1.5" stroke-linecap="round" stroke-linejoin="round" stroke-miterlimit="10" d="
		M89.123,214.668c0,0-2.75-8.25-5-14.75"/>
	<path fill="none" stroke="#000000" stroke-width="1.5" stroke-linecap="round" stroke-linejoin="round" stroke-miterlimit="10" d="
		M100.891,158.501c1,0,2.166,1.667,2.166,1.667s6.732,15.5,5.233,28.333l-1.083,9.584"/>
	<path fill="none" stroke="#000000" stroke-width="1.5" stroke-linecap="round" stroke-linejoin="round" stroke-miterlimit="10" d="
		M158.391,140.836c0,0,1.75,3.332,5.75,4.332s6,2.25,6,2.25s0.75,16.5-14,27.25c0,0-5.5,2.5-5.75,14.25s0.75,21.75,1.5,29.5
		s1.75,16.75-0.75,24.5s-3.75,18,0,23.5"/>
	<path fill="none" stroke="#000000" stroke-width="1.5" stroke-linecap="round" stroke-linejoin="round" stroke-miterlimit="10" d="
		M175.891,148.168l3.5,7.5c0,0-10,20.5-10.5,24c0,0-3.875-7.125-6.875-6.375s-9.125,4.875-9.125,4.875"/>
	<path fill="none" stroke="#000000" stroke-width="1.5" stroke-linecap="round" stroke-linejoin="round" stroke-miterlimit="10" d="
		M140.016,139.918c0,0-0.625,4.5-5.125,5.5s-6.25,1.5-6.25,1.5s-0.5,6.75,5,12.75s10.25,9,12,11s5.5,5.25,4.75,15.25"/>
	<path fill="none" stroke="#000000" stroke-width="1.5" stroke-linecap="round" stroke-linejoin="round" stroke-miterlimit="10" d="
		M149.141,175.668c0,0-7-7-8.25-4.25s-0.25,6.75-0.25,6.75s-11.75-13-15-17s-6-13.25-6-13.25"/>
	<path fill="none" stroke="#000000" stroke-width="1.5" stroke-linecap="round" stroke-linejoin="round" stroke-miterlimit="10" d="
		M193.891,191.168c0,0-4-5.25-2.75-17.5s3.25-16.164,7.25-16.832"/>
	<path fill="none" stroke="#000000" stroke-width="1.5" stroke-linecap="round" stroke-linejoin="round" stroke-miterlimit="10" d="
		M220.873,201.668c0,0,3-6.75,3.75-8.5"/>
	<path fill="none" stroke="#000000" stroke-width="1.5" stroke-linecap="round" stroke-linejoin="round" stroke-miterlimit="10" d="
		M244.338,163.159c0,0,5.158,1.988,7.01,3.084"/>
	
		<line fill="none" stroke="#000000" stroke-width="1.5" stroke-linecap="round" stroke-linejoin="round" stroke-miterlimit="10" x1="275.133" y1="148.729" x2="267.364" y2="161.455"/>
	<path fill="none" stroke="#000000" stroke-width="3" stroke-linecap="round" stroke-linejoin="round" stroke-miterlimit="10" d="
		M118.791,265.185c-7.667,17.984-13.569,36.75-20.069,82.25s0.767,93.732-1.733,109.732c-3.865,28.5-3.865,54.002-6,115.5
		c0,0-8,14.5-17.75,26.75c-17.449,8.416-8.116,16.082,1.75,16.75c4.291,1.021,11.478,0.848,16.25-1.193
		c6.904-2.949,6.396-11.191,9.5-13.557c5.25-4,7.25-3.75,9.25-8.75s-2-12.5-0.5-20c5.5-35,15.5-56,18-90.5s6.5-36,15.5-71
		s9.268-69.135,9.268-69.135s-1.866,31.135,7.134,66.135s13,36.5,15.5,71s13.5,57.5,19,92.5c1.5,7.5-2.5,15-0.5,20s4,4.75,9.25,8.75
		c3.104,2.365,2.596,10.607,9.5,13.557c4.772,2.041,11.959,2.215,16.25,1.193c8.732-0.334,18.065-10,1.75-16.75
		c-9.75-12.25-17.75-26.75-17.75-26.75c-3.268-57.166-1.934-86.166-7-117.5c-2.5-16,3-66-3.5-111.5s-19.684-79.833-19.684-79.833"/>
	<path fill="none" stroke="#000000" stroke-width="1.5" stroke-linecap="round" stroke-linejoin="round" stroke-miterlimit="10" d="
		M123.988,503.168c0,0-18.599,9.902-30.599-2.598"/>
	<path fill="none" stroke="#000000" stroke-width="1.5" stroke-linecap="round" stroke-linejoin="round" stroke-miterlimit="10" d="
		M77.738,593.918c0,0-4.25,7.25,3,8.5s12-5.5,16.75-9.75s11.25-7.75,11.25-15"/>
	<path fill="none" stroke="#000000" stroke-width="1.5" stroke-linecap="round" stroke-linejoin="round" stroke-miterlimit="10" d="
		M178.391,500.168c0,0,19.033,9.467,31.033-3.033"/>
	<path fill="none" stroke="#000000" stroke-width="1.5" stroke-linecap="round" stroke-linejoin="round" stroke-miterlimit="10" d="
		M225.641,592.918c0,0,4.25,7.25-3,8.5s-12-5.5-16.75-9.75s-11.25-7.75-11.25-15"/>
</g>
</svg>
