<?xml version="1.0" encoding="utf-8"?>
<!-- Generator: Adobe Illustrator 16.0.0, SVG Export Plug-In . SVG Version: 6.00 Build 0)  -->
<!DOCTYPE svg PUBLIC "-//W3C//DTD SVG 1.1//EN" "http://www.w3.org/Graphics/SVG/1.1/DTD/svg11.dtd">
<svg version="1.1" id="Layer_1" xmlns="http://www.w3.org/2000/svg" xmlns:xlink="http://www.w3.org/1999/xlink" x="0px" y="0px"
	 width="340.16px" height="623.62px" viewBox="0 0 340.16 623.62" enable-background="new 0 0 340.16 623.62" xml:space="preserve">
<g>
	<path fill="#FFDCD2" d="M186.693,317.087c-1.07,1.7-1.44,3.15-1.44,3.15L186.693,317.087z M199.443,278.107
		c1.6-18.62,3.08-29.96,4.12-33.19c1.03-3.23-0.7-22.08,0.18-39.95l-0.5-0.63c0,0,4.101-11.71,1.41-22.13
		c-1.11-12.87,7-33.13,7-33.13s1.46-1.63,2.46-1.6l0.9,0.1c-0.011,0.08-0.021,0.16-0.03,0.24c0.63,0.89,5.84,7.75,8.2,36.76
		c1.149,14.16,2.25,49.13,0.88,59.81l-0.42,4.54c-0.891,7.16-7.48,32.33-15.08,56.9c-0.88,2.88-1.79,5.75-2.7,8.59
		c0,0-4.06,16.47-5.58,17.76c-1.51,1.301-5.06,2.49-6.229,1.631c-1.28,0.399-2.19,0.21-3-0.021c-1.07-0.31-2.381-1.97-2.381-1.97
		s-2.02-0.29-3.06-0.86c-1.07-0.58-1.79-2.83-1.79-2.83s-1.79-0.8-2.32-1.5c-2.529-3.31-0.85-5.04,0.681-9.17
		c-2-1.439-0.301-4.45-0.13-5.12c2.93-3.43,6.39-4.49,9.369-4.13c0,0,2.771-0.66,3.761-3.23c0.979-2.57,2.63-7.85,4.239-26.62
		C199.434,278.277,199.434,278.187,199.443,278.107z"/>
	<path fill="#2B3754" d="M214.113,147.477c-1-0.03-2.46,1.6-2.46,1.6s-8.11,20.26-7,33.13c2.69,10.42-1.41,22.13-1.41,22.13
		l0.5,0.63c0,0-5.88,13.62-6.21,27.95c-0.34,14.34,1.33,19.34,1.33,19.34l-3.67,5.66c0,0-1.05,0.85-2.88,1.6
		c-2.3,0.93-5.851,1.7-10.12,0.4c0,0-8.66-2.66-13.66,0c-1.56,0.83-3.41,1.31-5.38,1.49l-0.04-0.57c3.75-5.5,2.5-15.75,0-23.5
		s-1.5-16.75-0.75-24.5s1.75-17.75,1.5-29.5c-0.02-1.07-0.09-2.06-0.19-2.98l0.19-0.02c-0.36-4.76,0.31-7.99,1.29-10.28
		c0.54-0.54,7.01-6.86,8.21-4.22c1.2,2.64,0.32,6.44,0.26,6.73c0.561-0.61,11.82-13.08,14.99-16.98c3.25-4,6-13.25,6-13.25
		s11.5-2.5,17.75,0.75c0,0,2.97,1.31,2.65,4.49L214.113,147.477z"/>
	<path fill="#962929" d="M199.113,595.587c0,0,3.5-0.5,2-4.75l0.48-0.39c1.829,1.979,3.8,3.81,5.77,5.64c7,6.5,4.5,11.5,4.5,11.5
		c-12,5-32.5,3.5-32.5-3.5s-3-11-4.5-17s2-14.5,2-14.5s-0.25,7,2.25,8.75c0.75,1.25,1.25,5,3.5,8.5S186.113,596.587,199.113,595.587
		z"/>
	<path fill="#FFDCD2" d="M201.594,590.447l-0.48,0.39c1.5,4.25-2,4.75-2,4.75c-13,1-14.25-2.25-16.5-5.75s-2.75-7.25-3.5-8.5
		c-2.5-1.75-2.25-8.75-2.25-8.75c-5.52-23.229-8.8-54.92-10.58-77.42l1.08-0.08c0,0,14,5,29.5,1l0.7-0.01
		c-1.271,23.58-6.07,61.771-5.2,73.51C193.083,579.287,196.903,585.377,201.594,590.447z"/>
	<path fill="#FFDCD2" d="M194.883,115.247c0,0-0.59,1.15-1.539,2.93l-0.49-0.26c2.06-5.74,2.779-11.57,3.01-13.88l0.69,0.07
		c-0.011,0.09-0.021,0.14-0.021,0.14l3.42-5.19c0,0,2.25-0.75,3.26,1.11c0.551,0.99,0.74,2.73,0.051,5.73
		C201.283,112.887,194.883,115.247,194.883,115.247z"/>
	<path fill="#2B3754" d="M194.613,142.337c0,0-2.75,9.25-6,13.25c-3.17,3.9-14.43,16.37-14.99,16.98c0.061-0.29,0.94-4.09-0.26-6.73
		c-1.2-2.64-7.67,3.68-8.21,4.22c1.08-2.53,2.55-3.92,3.46-4.97c1.75-2,6.5-5,12-11s5-12.75,5-12.75s-1.75-0.5-6.25-1.5l-0.58-0.54
		c0.95-0.99,1.86-2,2.71-2.99c1.3,0.15,1.87-0.1,3.87-0.22C190.243,135.587,191.113,138.587,194.613,142.337z"/>
	<path fill="#FFFFFF" d="M182.463,101.337c-0.989-0.16-1.359,1.46-0.25,1.71C183.313,103.287,183.543,101.517,182.463,101.337z
		 M187.293,101.137c2.34,0.91,2.95,2.26,2.95,2.26s-4.08,0.5-7.95,1c-3.26,0.44-4.68-0.3-5.09-0.56c-0.42-0.25-1-0.58-1-0.58
		l0.33-0.34l1.65-1.77c0,0,2.41-0.56,3.97-0.6C184.783,100.457,185.983,100.617,187.293,101.137z"/>
	<path fill="#BA3E2A" d="M187.743,43.577c-3.14,4.48-8.5,6.59-25.28,6.89c-19.77,0.19-18.94-9.29-18.94-9.29l-1.13-0.26
		c0.16,0,0.32-0.01,0.48-0.02c0,0-3.41-15.29,18.66-18.38c21.84-3.06,33.63,6.53,26.62,21.26L187.743,43.577z"/>
	<path fill="#FFDCD2" d="M195.863,104.037c-0.23,2.31-0.95,8.14-3.01,13.88l0.49,0.26c-2.141,3.99-6.131,11.1-9.461,15.27
		c-0.729,0.91-1.529,1.88-2.39,2.86c-0.85,0.99-1.76,2-2.71,2.99c-4.3,4.49-9.27,8.54-12.92,8.54c-3.99,0-9.14-4.85-13.24-9.38
		c-0.84-0.93-1.64-1.85-2.37-2.71c-0.4-0.46-0.78-0.91-1.14-1.33c-3.32-3.92-8.15-13.19-10.1-17.06l0.52-0.1
		c-2.65-7.4-3.05-13.62-3.05-13.62h-0.45c0.02-2.16,0.24-8.68,2.08-13.76c2.23-6.17,3.75-8.29,4.49-13.23
		c5.32,5.44,11.55,7.11,23.32,7.4c11.77,0.3,21.37-7.33,21.37-7.33c1.511,6.33,6.49,8.77,8.301,15.27
		c1.59,5.71,1.069,11.18,0.96,12.12L195.863,104.037z M157.753,102.777l-0.3-0.36l-1.34-1.78c0,0-1.91-0.63-3.5-0.93
		c-1.59-0.29-4.23-0.09-5.55,0.27c-2.61,0.72-3.34,2.15-3.34,2.15c2.35,0.55,3.54,1.34,6.64,1.61c3.1,0.28,5.34-0.11,6.09-0.34
		C157.113,103.197,157.633,102.857,157.753,102.777z M190.243,103.397c0,0-0.61-1.35-2.95-2.26c-1.31-0.52-2.51-0.68-5.14-0.59
		c-1.56,0.04-3.97,0.6-3.97,0.6l-1.65,1.77l-0.33,0.34c0,0,0.58,0.33,1,0.58c0.41,0.26,1.83,1,5.09,0.56
		C186.163,103.897,190.243,103.397,190.243,103.397z"/>
	<path fill="#FFDCD2" d="M163.673,180.357c-0.39-3.57-1.32-6.06-2.3-7.78c-1.55-2.71-3.26-3.49-3.26-3.49
		c-14.75-10.75-14-27.25-14-27.25s2-1.25,6-2.25c0.85-0.21,1.6-0.53,2.25-0.9l0.26-0.23c4.1,4.53,9.25,9.38,13.24,9.38
		c3.65,0,8.62-4.05,12.92-8.54l0.58,0.54c4.5,1,6.25,1.5,6.25,1.5s0.5,6.75-5,12.75s-10.25,9-12,11c-0.91,1.05-2.38,2.44-3.46,4.97
		c-0.98,2.29-1.65,5.52-1.29,10.28L163.673,180.357z"/>
	<path fill="#FFDCD2" d="M161.883,495.487c0.31,14.92,0.2,33.68-1.27,53.27c-1.13,14.36-0.39,20.62,0.35,24.79l-1.1,0.04
		c0,0,0,7-2.5,12.5s-4.75,12.25-13.75,11.75s-8-8.5-8-8.5l-0.28-0.149c5.22-9.73,7.53-17.261,7.53-22.601
		c0-6.33-6.14-36.6-9.25-53.83c-1.21-6.689-2.17-12.97-2.95-18.899c12.06,5.819,31.2,1.63,31.2,1.63H161.883z"/>
	<path fill="#962929" d="M160.963,573.547c0.4,2.32,0.81,3.99,0.9,6.04c0.25,5.75-0.25,10.25-1.5,17.25s-0.5,10.25-4.97,12.28
		c-4.47,2.03-9.03,2.97-17.53,2.47s-18-7.5-5.75-16.75c1.18-1.96,2.25-3.84,3.22-5.649l0.28,0.149c0,0-1,8,8,8.5
		s11.25-6.25,13.75-11.75s2.5-12.5,2.5-12.5L160.963,573.547z"/>
	<path fill="#2B3754" d="M158.113,169.087c0,0,1.71,0.78,3.26,3.49l-0.01,0.01c0,0-6.12-4.12-9.12-4.88c-3-0.74-6.88,6.38-6.88,6.38
		c-0.5-3.5-10.5-24-10.5-24l3.23-6.93l-0.55-0.26c0.12-0.37,2.06-6.31,4.32-6.31c1.24,0,4.99-0.37,8.25-0.72l0.14-0.12
		c0.73,0.86,1.53,1.78,2.37,2.71l-0.26,0.23c-0.65,0.37-1.4,0.69-2.25,0.9c-4,1-6,2.25-6,2.25S143.363,158.337,158.113,169.087z"/>
	<path fill="#FFFFFF" d="M151.543,102.187c1.11,0.24,1.1-1.8,0.02-1.98C150.573,100.047,150.443,101.937,151.543,102.187z
		 M147.063,99.977c1.32-0.36,3.96-0.56,5.55-0.27c1.59,0.3,3.5,0.93,3.5,0.93l1.34,1.78l0.3,0.36c-0.12,0.08-0.64,0.42-1.3,0.62
		c-0.75,0.23-2.99,0.62-6.09,0.34c-3.1-0.27-4.29-1.06-6.64-1.61C143.723,102.127,144.453,100.697,147.063,99.977z"/>
	<path fill="#BA3E2A" d="M143.523,41.177c0,0-0.83,9.48,18.94,9.29c16.78-0.3,22.14-2.41,25.28-6.89l0.41,0.2
		c-0.07,0.16-0.15,0.33-0.23,0.49c0,0,14.721,0.82,19.11,19.99c2.01,8.81,2.17,15.95,1.25,21.82c-1.09,6.9-2.92,10.51-4.92,14.01
		l-0.15,0.08c-1.01-1.86-3.26-1.11-3.26-1.11l-3.42,5.19c0,0,0.01-0.05,0.021-0.14c0.109-0.94,0.63-6.41-0.96-12.12
		c-1.811-6.5-6.79-8.94-8.301-15.27c0,0-9.6,7.63-21.37,7.33c-11.77-0.29-18-1.96-23.32-7.4c-0.74,4.94-2.26,7.06-4.49,13.23
		c-1.84,5.08-2.06,11.6-2.08,13.76c0,0.46,0,0.72,0,0.72l-2.97-5.08c0,0-1.1,0.27-2.2,1.21l-0.06-0.21
		c-2.42-5.11-4.43-10.16-5.99-17.18c-1.26-5.68-1.46-12.12,0.69-19.54c4.69-16.19,17.72-18.27,18.34-18.36
		c-0.61,0-12.46-0.14-14.18-11.33c0,0,7.26,7.05,12.73,7.05L143.523,41.177z"/>
	<path fill="#2B3754" d="M137.533,142.917c0,0,0-0.01,0.01-0.02l0.55,0.26l-3.23,6.93c0,0,10,20.5,10.5,24c0,0,3.88-7.12,6.88-6.38
		c3,0.76,9.12,4.88,9.12,4.88l0.01-0.01c0.98,1.72,1.91,4.21,2.3,7.78c0.1,0.92,0.17,1.91,0.19,2.98c0.25,11.75-0.75,21.75-1.5,29.5
		s-1.75,16.75,0.75,24.5s3.75,18,0,23.5l0.04,0.57c-4.35,0.39-9.28-0.65-12.96-2.49c0,0-3.08,0.17-10.58,0.67s-12.25,1-13.75-2.25
		s-3-8-3-8l-0.96-0.02c0.01-0.43,0.02-0.85,0.03-1.27l1.68,0.04c0,0,2-3.25,3.5-14.25s-5.66-26.46-5.66-26.46l0.53-0.54
		c-3.24-10.5-1.62-21.25-1.62-21.25s4-12.25,2.75-24.5s-3.25-16.16-7.25-16.83c0,0,0-2,4.33-3.67
		C124.533,138.917,137.533,142.917,137.533,142.917z"/>
	<path fill="#FFDCD2" d="M136.483,103.637c0,0,0.4,6.22,3.05,13.62l-0.52,0.1c-0.55-1.08-0.87-1.74-0.87-1.74s-9.49-4.64-9.49-9.94
		c0-2.65,1.1-4.25,2.21-5.19c1.1-0.94,2.2-1.21,2.2-1.21l2.97,5.08c0,0,0-0.26,0-0.72H136.483z"/>
	<path fill="#C18C52" d="M161.033,399.387c0.34-31.01,0.77-61.609,0.82-65.409c0.01-0.261,0.01-0.391,0.01-0.391s0,0.13-0.01,0.391
		C161.743,337.757,160.903,368.397,161.033,399.387z M122.863,249.337c0,0,1.5,4.75,3,8s6.25,2.75,13.75,2.25s10.58-0.67,10.58-0.67
		c3.68,1.84,8.61,2.88,12.96,2.49c1.97-0.18,3.82-0.66,5.38-1.49c5-2.66,13.66,0,13.66,0c4.27,1.3,7.82,0.53,10.12-0.4l2.55,0.07
		l4.38,18.5l0.2,0.02c-0.01,0.08-0.01,0.17-0.021,0.25c-1.609,18.77-3.26,24.05-4.239,26.62c-0.99,2.57-3.761,3.23-3.761,3.23
		c-2.979-0.36-6.439,0.7-9.369,4.13c-0.171,0.669-1.87,3.68,0.13,5.12c-1.53,4.13-3.21,5.86-0.681,9.17c0.53,0.7,2.32,1.5,2.32,1.5
		s0.72,2.25,1.79,2.83c1.04,0.57,3.06,0.86,3.06,0.86s1.311,1.66,2.381,1.97c0.81,0.23,1.72,0.42,3,0.021
		c1.17,0.859,4.72-0.33,6.229-1.631c1.521-1.29,5.58-17.76,5.58-17.76c0.91-2.84,1.82-5.71,2.7-8.59l0.3,0.09
		c7,27,4.33,51,2.75,62.92s-13.75,77.25-13.75,77.25s0,19.5,0,40.5c0,2.74-0.11,5.95-0.3,9.49l-0.7,0.01c-15.5,4-29.5-1-29.5-1
		l-1.08,0.08c-1.29-16.25-1.8-27.7-1.8-27.7c-2.12-9.13-2.24-23.5-2.24-23.5c-0.81-12.5-1.14-28.5-1.21-44.439
		c-0.34,30.97-0.59,62.31-0.29,67.68c0.29,5.18,0.87,15.271,1.14,28.28h-0.02c0,0-19.14,4.189-31.2-1.63
		c-2.34-17.7-3.05-32.29-3.8-45.271c-1-17.33-21.75-77.75-15.25-123.25c1.24-8.689,2.12-15.7,3.18-21.82l0.23-0.07
		c1.24,4.06,2.53,8.08,3.84,11.97c0,0,4.54,14.83,6.06,16.13c1.52,1.29,4.7,2.12,5.88,1.261c1.28,0.399,2.19,0.21,3-0.021
		c1.06-0.31,2.37-1.97,2.37-1.97s2.02-0.29,3.07-0.86c1.06-0.58,1.78-2.83,1.78-2.83s1.79-0.8,2.32-1.5
		c2.53-3.31,0.85-5.04-0.68-9.17c2-1.439,0.3-4.45,0.13-5.12c-2.93-3.43-6.39-4.49-9.37-4.13c0,0-2.77-0.66-3.75-3.23
		c-0.99-2.57-3.14-17.02-3.48-27.39c-0.33-10.37-3.26-22.14-4.33-25.37c0.01-0.64,0.03-1.27,0.04-1.9L122.863,249.337z"/>
	<path fill="#FFDCD2" d="M138.153,316.087l1.44,3.15C139.593,319.237,139.223,317.787,138.153,316.087z M121.863,251.217
		c1.07,3.23,4,15,4.33,25.37c0.34,10.37,2.49,24.82,3.48,27.39c0.98,2.57,3.75,3.23,3.75,3.23c2.98-0.36,6.44,0.7,9.37,4.13
		c0.17,0.67,1.87,3.68-0.13,5.12c1.53,4.13,3.21,5.86,0.68,9.17c-0.53,0.7-2.32,1.5-2.32,1.5s-0.72,2.25-1.78,2.83
		c-1.05,0.57-3.07,0.86-3.07,0.86s-1.31,1.66-2.37,1.97c-0.81,0.23-1.72,0.42-3,0.021c-1.18,0.859-4.36,0.029-5.88-1.261
		c-1.52-1.3-6.06-16.13-6.06-16.13c-1.31-3.89-2.6-7.91-3.84-11.97c-7.26-23.74-12.97-48.69-13.82-55.52
		c-0.99-7.99-0.34-53,0.99-66.39c2.55-25.71,13.67-37.28,13.67-37.28c4,0.67,6,4.58,7.25,16.83s-2.75,24.5-2.75,24.5
		s-1.62,10.75,1.62,21.25l-0.53,0.54c0.95,16.06,0.78,27.44,0.48,40.67c-0.01,0.42-0.02,0.84-0.03,1.27
		C121.893,249.947,121.873,250.577,121.863,251.217z"/>
</g>
<g id="line_2_">
	<path fill="none" stroke="#000000" stroke-width="3" stroke-linecap="round" stroke-linejoin="round" stroke-miterlimit="10" d="
		M187.295,76.725c0,0-9.602,7.621-21.373,7.326c-11.771-0.293-17.995-1.956-23.322-7.4c-0.736,4.939-2.257,7.064-4.486,13.23
		s-2.085,14.477-2.085,14.477l-2.964-5.076c0,0-4.414,1.104-4.414,6.4c0,5.298,9.49,9.934,9.49,9.934s6.723,13.786,10.973,18.808
		s11.5,13.417,16.75,13.417s13.211-8.373,18.021-14.395s10.995-18.197,10.995-18.197s6.401-2.354,8.388-9.346
		c1.986-8.607-3.311-6.842-3.311-6.842l-3.421,5.188c0,0,0.808-5.983-0.942-12.261C193.783,85.486,188.804,83.051,187.295,76.725z"
		/>
	<path fill="none" stroke="#000000" stroke-width="3" stroke-linecap="round" stroke-linejoin="round" stroke-miterlimit="10" d="
		M130.803,100.28c-2.42-5.113-4.426-10.162-5.988-17.18c-1.264-5.68-1.46-12.119,0.688-19.537
		c4.804-16.583,18.359-18.36,18.359-18.36s-12.433,0.146-14.198-11.331c0,0,7.688,7.467,13.206,7.026
		c0,0-3.405-15.283,18.667-18.373c22.072-3.09,33.889,6.738,26.383,21.748c0,0,14.723,0.818,19.109,19.985
		c2.018,8.812,2.172,15.958,1.251,21.825c-1.082,6.896-2.917,10.508-4.917,14.008"/>
	<path fill="none" stroke="#000000" stroke-width="1.5" stroke-linecap="round" stroke-linejoin="round" stroke-miterlimit="10" d="
		M143.521,41.183c0,0-0.826,9.482,18.941,9.283c16.783-0.294,22.143-2.409,25.282-6.882"/>
	<path fill="none" stroke="#000000" stroke-width="1.5" stroke-linecap="round" stroke-linejoin="round" stroke-miterlimit="10" d="
		M178.547,48.899c-11.316,0.167-25.943-0.459-26.531-12.084s12.654-10.006,14.273-7.946c1.618,2.06,1.324,6.18-1.766,7.063
		c-3.091,0.883-4.121-1.913-4.121-1.913"/>
	<path fill="none" stroke="#000000" stroke-width="1.5" stroke-linecap="round" stroke-linejoin="round" stroke-miterlimit="10" d="
		M142.967,75.965c0,0-7.52-10.791,1.355-17.082"/>
	<path fill="none" stroke="#000000" stroke-width="1.5" stroke-linecap="round" stroke-linejoin="round" stroke-miterlimit="10" d="
		M186.816,76.215c0,0,11.131-9.041,3.92-18.998c-3.455-4.21-6.372-1.459-6.497,1.582s3.458,7.042,4.792,3.875"/>
	<path fill="none" stroke="#000000" stroke-width="1.5" stroke-linecap="round" stroke-linejoin="round" stroke-miterlimit="10" d="
		M136.482,103.638c0,0,0.398,6.224,3.047,13.618"/>
	<path fill="none" stroke="#000000" stroke-width="1.5" stroke-linecap="round" stroke-linejoin="round" stroke-miterlimit="10" d="
		M195.942,103c0,0-0.442,7.529-3.091,14.924"/>
	<path fill="none" stroke="#000000" stroke-width="2" stroke-linecap="round" stroke-linejoin="round" stroke-miterlimit="10" d="
		M140.988,92.132c6.127-4.792,18.041,9.333,21,2.75"/>
	<path fill="none" stroke="#000000" stroke-width="2" stroke-linecap="round" stroke-linejoin="round" stroke-miterlimit="10" d="
		M157.449,102.423l-1.333-1.782c0,0-1.917-0.634-3.503-0.926s-4.231-0.1-5.555,0.265c-2.604,0.717-3.338,2.153-3.338,2.153"/>
	<path fill="none" stroke="#000000" stroke-linecap="round" stroke-linejoin="round" stroke-miterlimit="10" d="M143.721,102.133
		c2.357,0.543,3.544,1.332,6.643,1.608s5.336-0.111,6.086-0.34s1.333-0.645,1.333-0.645"/>
	<path fill="none" stroke="#000000" stroke-width="3" stroke-linecap="round" stroke-linejoin="round" stroke-miterlimit="10" d="
		M151.562,100.215c1.083,0.178,1.087,2.219-0.017,1.974S150.568,100.052,151.562,100.215z"/>
	<path fill="none" stroke="#000000" stroke-width="2" stroke-linecap="round" stroke-linejoin="round" stroke-miterlimit="10" d="
		M174.348,97.2c2.016,1.141,14.408-7.095,18.546-1.186"/>
	<path fill="none" stroke="#000000" stroke-width="2" stroke-linecap="round" stroke-linejoin="round" stroke-miterlimit="10" d="
		M176.532,102.923l1.655-1.769c0,0,2.41-0.565,3.971-0.606c2.62-0.09,3.82,0.076,5.14,0.592c2.332,0.911,2.947,2.262,2.947,2.262"/>
	<path fill="none" stroke="#000000" stroke-linecap="round" stroke-linejoin="round" stroke-miterlimit="10" d="M190.245,103.402
		c0,0-4.078,0.498-7.947,0.998c-3.266,0.44-4.682-0.303-5.099-0.557s-1-0.586-1-0.586"/>
	<path fill="none" stroke="#000000" stroke-width="3" stroke-linecap="round" stroke-linejoin="round" stroke-miterlimit="10" d="
		M182.462,101.34c1.083,0.178,0.853,1.952-0.251,1.707C181.107,102.803,181.469,101.178,182.462,101.34z"/>
	<path fill="none" stroke="#000000" stroke-width="1.5" stroke-linecap="round" stroke-linejoin="round" stroke-miterlimit="10" d="
		M169.737,116.214c0,0-0.457-10.875-0.29-13.042c0.057-0.743-0.584-3.094-0.584-3.094s2.5-1.113,2.5-2.988"/>
	<path fill="none" stroke="#000000" stroke-width="1.5" stroke-linecap="round" stroke-linejoin="round" stroke-miterlimit="10" d="
		M159.029,119.006c-1.332,1.416-1.483,2.096,0.503,4.304c1.766,0.552-0.75-2.72,3.082-1.987"/>
	<path fill="none" stroke="#000000" stroke-width="1.5" stroke-linecap="round" stroke-linejoin="round" stroke-miterlimit="10" d="
		M162.162,120.661c0,0,1.107,1.761,1.987,2.429s2.587,1.274,3.882,0.419c1.293-0.855,1.833-1.833,2.746-2.957"/>
	<path fill="none" stroke="#000000" stroke-width="1.5" stroke-linecap="round" stroke-linejoin="round" stroke-miterlimit="10" d="
		M169.895,121.875c0,0,1.972-0.952,2.138,1.104c0.111,0.993,1.503,0.331,2-0.938c0.497-1.27,0.163-1.84-0.837-3.146"/>
	<path fill="none" stroke="#000000" stroke-width="1.5" stroke-linecap="round" stroke-linejoin="round" stroke-miterlimit="10" d="
		M155.516,127.846c0,0,0.967-1.69,2.854-1.89c0,0,5.328-0.742,12.043,3.094c0,0,0.044,3.053-1.897,3.603"/>
	<path fill="none" stroke="#000000" stroke-width="3" stroke-linecap="round" stroke-linejoin="round" stroke-miterlimit="10" d="
		M150.115,135.867c-3.262,0.352-7.017,0.725-8.252,0.725c-2.334,0-4.334,6.333-4.334,6.333s-12.999-4-17.332-2.333
		c-4.334,1.667-4.334,3.667-4.334,3.667s-11.116,11.573-13.668,37.287c-1.328,13.386-1.985,58.395-0.992,66.388
		s8.659,40.824,17.659,67.491c0,0,4.545,14.828,6.063,16.123c1.519,1.293,4.701,2.121,5.875,1.264c1.279,0.404,2.188,0.209,3-0.023
		c1.064-0.303,2.375-1.965,2.375-1.965s2.021-0.289,3.062-0.861c1.063-0.582,1.785-2.836,1.785-2.836s1.794-0.797,2.322-1.49
		c2.532-3.318,0.849-5.045-0.684-9.178c2.005-1.439,0.304-4.445,0.135-5.117c-2.934-3.434-6.393-4.492-9.37-4.126
		c0,0-2.771-0.667-3.756-3.233c-0.986-2.565-3.141-17.019-3.475-27.389s-3.266-22.145-4.333-25.372
		c0.333-14.628,0.625-26.505-0.412-43.843c0,0,7.162,15.463,5.662,26.463s-3.5,14.25-3.5,14.25"/>
	<path fill="none" stroke="#000000" stroke-width="1.5" stroke-linecap="round" stroke-linejoin="round" stroke-miterlimit="10" d="
		M141.613,316.527c0,0-1.312-1.25-3.469-0.469l1.447,3.178c0,0-0.938-3.646-4.063-6.146l2.335,0.334"/>
	<path fill="none" stroke="#000000" stroke-width="1.5" stroke-linecap="round" stroke-linejoin="round" stroke-miterlimit="10" d="
		M115.863,246.84c0,0,4.562,3.062,6.062,7.312"/>
	<path fill="none" stroke="#000000" stroke-width="3" stroke-linecap="round" stroke-linejoin="round" stroke-miterlimit="10" d="
		M122.863,249.34c0,0,1.5,4.75,3,8s6.25,2.75,13.75,2.25s10.584-0.665,10.584-0.665c5.333,2.667,13.332,3.666,18.332,1
		s13.668,0,13.668,0c7.666,2.334,13-2,13-2l3.666-5.667c0,0-1.666-5-1.334-19.333c0.334-14.333,6.209-27.96,6.209-27.96
		c-0.875,17.875,0.856,36.722-0.178,39.959c-1.034,3.238-2.532,14.665-4.138,33.437s-3.258,24.053-4.244,26.619
		c-0.985,2.564-3.756,3.232-3.756,3.232c-2.978-0.365-6.437,0.693-9.37,4.126c-0.169,0.672-1.87,3.678,0.135,5.117
		c-1.532,4.133-3.216,5.859-0.684,9.178c0.528,0.693,2.322,1.49,2.322,1.49s0.722,2.254,1.785,2.836
		c1.042,0.572,3.062,0.861,3.062,0.861s1.311,1.662,2.375,1.965c0.812,0.232,1.721,0.428,3,0.023
		c1.174,0.857,4.721-0.334,6.239-1.629c1.519-1.293,5.573-17.758,5.573-17.758c8.668-27,16.792-57.498,17.785-65.491l0.414-4.539
		c1.377-10.686,0.27-45.658-0.881-59.818c-2.357-29.009-7.566-35.86-8.201-36.753c0.51-3.357-2.615-4.732-2.615-4.732
		c-6.25-3.25-17.75-0.75-17.75-0.75c-3.5-3.75-4.375-6.75-9.25-6.25c-2,0.125-2.57,0.366-3.871,0.221"/>
	<path fill="none" stroke="#000000" stroke-width="1.5" stroke-linecap="round" stroke-linejoin="round" stroke-miterlimit="10" d="
		M183.236,317.527c0,0,1.312-1.25,3.469-0.469l-1.447,3.178c0,0,0.938-3.646,4.063-6.146l-2.335,0.334"/>
	<path fill="none" stroke="#000000" stroke-width="1.5" stroke-linecap="round" stroke-linejoin="round" stroke-miterlimit="10" d="
		M209.863,240.09c0,0-1.25,1.625-3,2.75s-3,4-3,4"/>
	<path fill="none" stroke="#000000" stroke-width="1.5" stroke-linecap="round" stroke-linejoin="round" stroke-miterlimit="10" d="
		M115.863,144.258c4,0.668,6,4.582,7.25,16.832s-2.75,24.5-2.75,24.5s-1.625,10.75,1.625,21.25"/>
	<path fill="none" stroke="#000000" stroke-width="1.5" stroke-linecap="round" stroke-linejoin="round" stroke-miterlimit="10" d="
		M152.363,138.691c-0.652,0.369-1.4,0.687-2.25,0.899c-4,1-6,2.25-6,2.25s-0.75,16.5,14,27.25c0,0,5.5,2.5,5.75,14.25
		s-0.75,21.75-1.5,29.5s-1.75,16.75,0.75,24.5s3.75,18,0,23.5"/>
	<path fill="none" stroke="#000000" stroke-width="1.5" stroke-linecap="round" stroke-linejoin="round" stroke-miterlimit="10" d="
		M138.363,142.59l-3.5,7.5c0,0,10,20.5,10.5,24c0,0,3.875-7.125,6.875-6.375s9.125,4.875,9.125,4.875"/>
	<path fill="none" stroke="#000000" stroke-width="1.5" stroke-linecap="round" stroke-linejoin="round" stroke-miterlimit="10" d="
		M179.363,139.84c4.5,1,6.25,1.5,6.25,1.5s0.5,6.75-5,12.75s-10.25,9-12,11s-5.5,5.25-4.75,15.25"/>
	<path fill="none" stroke="#000000" stroke-width="1.5" stroke-linecap="round" stroke-linejoin="round" stroke-miterlimit="10" d="
		M165.113,170.09c0,0,7-7,8.25-4.25s0.25,6.75,0.25,6.75s11.75-13,15-17s6-13.25,6-13.25"/>
	<path fill="none" stroke="#000000" stroke-width="1.5" stroke-linecap="round" stroke-linejoin="round" stroke-miterlimit="10" d="
		M203.248,204.345c0,0,4.094-11.714,1.406-22.131c-1.112-12.872,7.002-33.135,7.002-33.135s1.457-1.631,2.457-1.601"/>
	<path fill="none" stroke="#000000" stroke-width="3" stroke-linecap="round" stroke-linejoin="round" stroke-miterlimit="10" d="
		M114.793,303.52c-1.063,6.117-1.938,13.128-3.18,21.82c-6.5,45.5,14.253,105.916,15.25,123.25s1.942,37.533,6.75,64.168
		c3.11,17.23,9.251,47.502,9.25,53.834c-0.001,6.334-3.25,15.748-10.75,28.248c-12.25,9.25-2.75,16.25,5.75,16.75
		s13.057-0.443,17.528-2.471c4.472-2.029,3.722-5.279,4.972-12.279s1.75-11.5,1.5-17.25s-2.999-8.498-1.25-30.832
		c2.75-36.668,0.75-70.418,0.125-81.543s1.125-133.625,1.125-133.625s-2.125,71.875,0.375,110.375c0,0,0.125,14.375,2.25,23.5
		c0,0,2.875,65.125,12.375,105.125c0,0-3.5,8.5-2,14.5s4.5,10,4.5,17s20.5,8.5,32.5,3.5c0,0,2.5-5-4.5-11.5s-14-13-15-26.5
		s5.5-62,5.5-83s0-40.5,0-40.5s12.166-65.334,13.75-77.25s4.25-35.916-2.75-62.916"/>
	
		<line fill="none" stroke="#000000" stroke-width="3" stroke-linecap="round" stroke-linejoin="round" stroke-miterlimit="10" x1="199.241" y1="278.092" x2="194.863" y2="259.59"/>
	<path fill="none" stroke="#000000" stroke-width="1.5" stroke-linecap="round" stroke-linejoin="round" stroke-miterlimit="10" d="
		M161.863,495.494c0,0-19.938,4.365-31.938-2.008"/>
	<path fill="none" stroke="#000000" stroke-width="1.5" stroke-linecap="round" stroke-linejoin="round" stroke-miterlimit="10" d="
		M167.363,495.09c0,0,14,5,29.5,1"/>
	<path fill="none" stroke="#000000" stroke-width="1.5" stroke-linecap="round" stroke-linejoin="round" stroke-miterlimit="10" d="
		M135.613,589.34c0,0-1,8,8,8.5s11.25-6.25,13.75-11.75s2.5-12.5,2.5-12.5"/>
	<path fill="none" stroke="#000000" stroke-width="1.5" stroke-linecap="round" stroke-linejoin="round" stroke-miterlimit="10" d="
		M176.863,572.59c0,0-0.25,7,2.25,8.75c0.75,1.25,1.25,5,3.5,8.5s3.5,6.75,16.5,5.75c0,0,3.5-0.5,2-4.75"/>
</g>
</svg>
