<?xml version="1.0" encoding="utf-8"?>
<!-- Generator: Adobe Illustrator 16.0.0, SVG Export Plug-In . SVG Version: 6.00 Build 0)  -->
<!DOCTYPE svg PUBLIC "-//W3C//DTD SVG 1.1//EN" "http://www.w3.org/Graphics/SVG/1.1/DTD/svg11.dtd">
<svg version="1.1" id="Layer_1" xmlns="http://www.w3.org/2000/svg" xmlns:xlink="http://www.w3.org/1999/xlink" x="0px" y="0px"
	 width="340.16px" height="623.62px" viewBox="0 0 340.16 623.62" enable-background="new 0 0 340.16 623.62" xml:space="preserve">
<g>
	<path fill="#FFDCD2" d="M225.1,233.11c1.479-0.5,2.93-0.98,5.21-1.08c0,0-1.17-11.42-0.51-36.04l-1.59-0.04
		c0.35-13.86-3.221-17.62,1.18-32.5c5.05-17.04,10.13-17.25,10.13-17.25l1.31-0.08c-0.22,0.26-0.52,0.33-0.52,0.33s6.5,7,7,9
		s8.71,42.75,3.34,86.33c-2.04,7.08-0.11,8.64-5.59,11.17c-6.04,2.69-13.15,3.85-20.3,3.92c-9.471,0.1-19-1.71-26.24-4.42
		c-9.53-3.56-16.17-5.86-20.48-9.91c-1.43-1.35-2.609-2.91-3.55-4.77c0,0-2.939-0.73-5.93-1.44c-8.75-1.46-12.34-1.38-12.54-5.05
		c-0.21-3.66,3.32-1.75,8.47-1.83c5.15-0.08,10.26-0.24,10.26-0.24s-4.99-1.57-10.19-2.64c-5.2-1.06-12.47-1.78-13.47-2.92
		c-0.99-1.14-2.68-3.06,0.03-4.7c0,0-1.4-1.15-0.61-3.5c0,0,1.17-1.68,3.1-1.89c1.92-0.21,22.23,0.77,22.23,0.77
		s-15.61-4.26-16.11-4.9c-0.5-0.65-1.78-2.78-0.42-4.28c1.35-1.49,9.16,0.36,11.84,0.93c1.64,0.35,3.58,0.93,6.11,1.99
		c1.59,0.66,3.43,1.52,5.56,2.63c0,0,1.99,1.58,3.49,5.14c1.5,4.27,2.42,6.84,3.13,8.55s1.78,5.27,2.28,7.2
		c0,0,13.26,1.78,22.84,2.61C220.39,234.7,222.789,233.89,225.1,233.11z"/>
	<path fill="#2B3754" d="M225.1,233.11c-2.311,0.78-4.71,1.59-10.54,1.09c-9.58-0.83-22.84-2.61-22.84-2.61
		c-0.5-1.93-1.57-5.49-2.28-7.2s-1.63-4.28-3.13-8.55c-1.5-3.56-3.49-5.14-3.49-5.14c-2.13-1.11-3.97-1.97-5.56-2.63l0.1-0.24
		l-0.13-9.05c-0.78-0.96-1.68-1.64-2.99-2.13c-1.189-10.76-0.27-16.64,0.601-21.63c1.17-5.71,4.3-8.81,7.87-10.96l0.06,0.14
		c4.61-0.99,7.85-0.84,9.41,0.5c1.26,2.58,1.09,8.75,1.09,8.75s6.75-5.75,11.75-10.5s14.29-26,14.29-26s18,3,20.5,6
		c1.54,1.85,1.37,2.75,1.02,3.17l-1.31,0.08c0,0-5.08,0.21-10.13,17.25c-4.4,14.88-0.83,18.64-1.18,32.5l1.59,0.04
		c-0.66,24.62,0.51,36.04,0.51,36.04C228.029,232.13,226.579,232.61,225.1,233.11z"/>
	<path fill="#C18C52" d="M189.289,490.75c-10.369,4.47-30.339,0.62-32.91,0.1c-0.88-13.14-1.77-23.71-3.03-28.399
		c-5.08-9.92-3.75-21-3.75-21s-14.41-84.67-12.41-116.67c2-32,10.91-63,10.91-63s15.34-4.66,20.67-4c5.33,0.67,3.67,3.34,13,4
		c9.33,0.67,13.67-2.33,19-3.33c7.33,4,22,3.33,22,3.33s10.58,30.75,13.33,59c1.39,17.71-2.66,49-5.83,68.59
		c-3.17,19.58-9.83,55.41-9.83,55.41s5.33,12.67,5.33,38.67c0,3.17-0.14,6.479-0.39,9.89c-19.561,5.24-35.44,0.44-35.44,0.44
		l-0.25,0.029C189.56,492.78,189.42,491.76,189.289,490.75z"/>
	<path fill="#2B3754" d="M224.76,256.87l0.01,1.41l-2,3.5c0,0-14.67,0.67-22-3.33c-5.33,1-9.67,4-19,3.33c-9.33-0.66-7.67-3.33-13-4
		c-5.33-0.66-20.67,4-20.67,4l-5.83-4.16c0.77-1.72,0.25-4.51,0.18-4.88c3.38,0.34,7.53,0.61,11.54,0.61
		c9.9-0.01,19.4-1.29,20.49-1.65c2-0.67,3.08-4.33,3.08-4.33l0.04-4.34l0.439-0.49c4.311,4.05,10.95,6.35,20.48,9.91
		C205.76,255.16,215.289,256.97,224.76,256.87z"/>
	<path fill="#962929" d="M155.419,601.3c0.02-1.85,5.14-4.49,11.6-7.66l0.24,0.49c-0.26,0.25-5.24,5.19,11.01,6.82
		c15.75-0.25,22.85-7.15,31.19-10.811c8.329-3.67,9.52-6.979,8.64-14.77l0.71-0.271c3.27,8.24,8.27,12.311,1.21,20.23
		c-4.66,3.74-9.97,4.979-13.95,7.04c-8.68,5.2-13.8,7.96-26.05,8.96c-20.5,0.74-25.25-1.88-24.59-9.88
		C155.419,601.4,155.419,601.35,155.419,601.3z"/>
	<path fill="#2B3754" d="M219.31,133.45v3.5c0,0-9.29,21.25-14.29,26s-11.75,10.5-11.75,10.5s0.17-6.17-1.09-8.75
		c-1.561-1.34-4.8-1.49-9.41-0.5l-0.06-0.14c2.84-1.7,5.939-2.8,8.56-4.11c6-3,16.83-23.67,16.83-23.67s3.67-0.83-2.33-2.83l-4-1.33
		c0,0-2.67-1.34-3.17-4.34l0.689-0.21c0.051,0.18,0.08,0.28,0.08,0.28l0.23,0.1c0,0,8.21,1.5,12.71,2.5S219.31,133.45,219.31,133.45
		z"/>
	<path fill="#FFDCD2" d="M187.409,582.3c2.62-2.01,4.57-4.08,5.36-6.18c4-10.67,3.1-16.3,2.12-31.22
		c-0.91-13.92-2.601-30.11-4.47-45.301c-0.24-1.949-0.49-3.88-0.73-5.79l0.25-0.029c0,0,15.88,4.8,35.44-0.44
		c-1.83,24.49-9.25,53.82-8.78,70.94c0.09,4.39,1.04,7.87,2.21,10.819l-0.71,0.271c0.88,7.79-0.311,11.1-8.64,14.77
		c-8.341,3.66-15.44,10.561-31.19,10.811c-16.25-1.63-11.27-6.57-11.01-6.82l-0.24-0.49C173.779,590.33,182.02,586.45,187.409,582.3
		z"/>
	<path fill="#BA3E2A" d="M210.75,93.26l-3.921-2.1l0.181-0.34c0.51-4.01,0.13-8.81-2.41-15.7l-0.57-0.13c0.391-1.66,0.73-3.37,1-5.1
		l0.41,0.06c8.16,9.67,10.58,31.12,3.68,36.02c-6.33,3.83-14.35-0.69-14.35-0.69l-0.52,0.09c-0.521-3.08-0.86-5.42-0.86-5.42
		c1.189-0.48,2.01-1.66,2.54-2.75l0.17,0.08c0,0,3.42,3.3,6.42,2.55c3-0.76,3.45-3.03,3.63-3.61l0.2-0.38l2.09,1.11
		C210.159,96.46,210.75,93.26,210.75,93.26z"/>
	<path fill="#A9C943" d="M198.38,91.63l-0.12,0.23c-0.7,1.55-1.26,2.68-1.561,3.28c-0.16,0.31-0.25,0.48-0.25,0.48
		s0.71-5.16-0.33-9.75l0.58-0.13l3.32,1.78l6.81,3.64l3.921,2.1c0,0-0.591,3.2-2.311,3.69l-2.09-1.11L198.38,91.63z"/>
	<path fill="#FFDCD2" d="M151.649,124.89l0.18,0.32c0.71,0.14,3.64,0.65,5.61-0.01c2.25-0.75,2.08-2.25,8.33-4.25
		C159.479,120.95,154.29,123.37,151.649,124.89z M164.799,138.86c-1.15-0.39-2.38-1.03-3.6-1.78c-0.87-0.55-1.74-1.15-2.57-1.77
		c-3.51-2.62-6.42-5.57-6.42-5.57c-14.64-11.36-13.02-18.34-15.18-24.97c-0.18-0.16-0.37-0.5-0.56-0.88l0.28-0.11
		c3.94,2.42,8.72-2.4,8.72-2.4h0.01c0-0.13-0.02-0.25-0.05-0.36l-0.59,0.09c-0.21-0.19-3.66-3.16-6.31-3.16
		c-2.36,0.95-1.78,2.22-3.35,3.79v0.21l-0.54,0.01c0,0,0.15-1.68-0.46-2.43c-1.82-2.23-3.16-4.39-4.14-6.33
		c-2.5-4.87-2.76-8.4-2.76-8.4v-0.21c12.67,0.13,24.52-8.83,29.25-19.46c9.02-0.15,19.07,3.49,24.82,11.49l-0.15,0.27l-8.76-4.68
		V72.2l-0.87-0.46l-5.82-0.44l4.5,4.99l0.18,0.1l16.439,8.64c0.03-0.91,0.23-2.92,1.221-4.45c0.449-0.69,1.05-1.28,1.88-1.62
		c1.99-0.85,3.46-0.32,5.46,4.63c0.29,0.72,0.52,1.49,0.689,2.28c1.04,4.59,0.33,9.75,0.33,9.75s0.09-0.17,0.25-0.48
		c-0.109,0.38-0.35,1.19-0.77,2.06c-0.53,1.09-1.351,2.27-2.54,2.75c0,0,0.34,2.34,0.86,5.42c0.069,0.37,0.13,0.75,0.189,1.14
		c0.53,3.07,1.19,6.62,1.83,9.29c1.22,5.09,2.68,10.5,3.02,11.77l-0.689,0.21c0.5,3,3.17,4.34,3.17,4.34l4,1.33
		c6,2,2.33,2.83,2.33,2.83s-10.83,20.67-16.83,23.67c-2.62,1.31-5.72,2.41-8.56,4.11c-3.57,2.15-6.7,5.25-7.87,10.96
		c0.66-3.79,1.29-7.07,0.93-11.57c-1.04-1.04-1.98-2.09-2.83-3.14c-8.58-10.6-8.17-21.36-8.17-21.36L164.799,138.86z M167.209,94.91
		c2.07-1.92,4.09-3.95,4.09-3.95s-1.86-2.68-8.49-2.63c-3.9,1.52-3.54,7.59-3.54,7.59C161.27,97.09,165.149,96.83,167.209,94.91z"/>
	<path fill="#BA3E2A" d="M203.529,49.26c2.561,6.35,2.59,13.7,1.5,20.63c-0.27,1.73-0.609,3.44-1,5.1
		c-0.029,0.13-0.06,0.27-0.09,0.4c-1.04,4.36-2.4,8.39-3.68,11.68l-0.24,0.45l-3.32-1.78l-0.58,0.13
		c-0.17-0.79-0.399-1.56-0.689-2.28c-2-4.95-3.47-5.48-5.46-4.63c-0.83,0.34-1.431,0.93-1.88,1.62l-0.011-0.01l-6.88-3.68l0.15-0.27
		c-5.75-8-15.8-11.64-24.82-11.49c-4.73,10.63-16.58,19.59-29.25,19.46c-3.49-0.04-7.05-0.76-10.54-2.34
		c-7.06-3.19-9.28-5.97-9.64-8.94c-0.45-3.82,1.84-8.86,11.42-12.78c0,0-3.08-2.27-3.75-5.11c-0.52-2.2-0.25-5.3,6.95-9.34
		c0,0-0.15-0.03-0.41-0.1l1.14-0.04c9.59-3.31,30.62-6.49,33.67-16.99l0.16,0.05c0,0,5.11-0.67,9.24-4.61l0.68,0.3
		C168.83,25.39,196.649,31.73,203.529,49.26z"/>
	<path fill="#BA3E2A" d="M213.21,117.01c-11.94,6.44-16.94-1.21-16.94-1.21c-0.64-2.67-1.3-6.22-1.83-9.29l0.33-0.06
		C198.77,114.33,204.52,116.07,213.21,117.01z"/>
	<path fill="#FFDCD2" d="M190.42,499.6l-0.15,0.021c-1.4,24.56-8.96,50.04-9.5,58.16c-0.43,6.399,1.6,10.34,3.64,15.14
		c-0.56,8.13-7.159,6.3-17.47,11.7c-10.5,5.5-17.84,9-27.17,10.33s-11.67-3.5-11.67-3.5l-0.03-0.07c5.27-2.43,12.08-5.88,17.45-9.68
		c10.25-7.25,16.92-9.92,14.25-41.25c-1.42-16.63-2.39-34.75-3.39-49.601c2.57,0.521,22.541,4.37,32.91-0.1
		c0.131,1.01,0.271,2.03,0.4,3.06C189.93,495.72,190.18,497.65,190.42,499.6z"/>
	<path fill="#A9C943" d="M188.079,80.57l0.011,0.01c-0.99,1.53-1.19,3.54-1.221,4.45l-16.439-8.64l0.01-0.02c0,0,3.07-2,2-4.16
		l8.76,4.68L188.079,80.57z"/>
	<path fill="#962929" d="M184.409,572.92c1.141,2.67,2.28,5.61,3,9.38c-5.39,4.15-13.63,8.03-20.39,11.34
		c-6.46,3.17-11.58,5.811-11.6,7.66c-1.73,0.82-3.41,1.66-4.98,2.48c-7.34,3.84-21,4.67-28.34,0.67c-7.33-4-2.33-9.5-2.33-9.5
		s3.52-1.36,8.3-3.57l0.03,0.07c0,0,2.34,4.83,11.67,3.5s16.67-4.83,27.17-10.33C177.25,579.22,183.85,581.05,184.409,572.92z"/>
	<path fill="#A9C943" d="M155.39,195c0.3,0.01,0.61,0.02,0.92,0.03c10.14,0.34,15.04,0.53,17.93,1.62
		c1.311,0.49,2.21,1.17,2.99,2.13l0.13,9.05l-0.1,0.24c-2.53-1.06-4.471-1.64-6.11-1.99c-2.68-0.57-10.49-2.42-11.84-0.93
		c-1.36,1.5-0.08,3.63,0.42,4.28c0.5,0.64,16.11,4.9,16.11,4.9s-20.311-0.98-22.23-0.77c-1.93,0.21-3.1,1.89-3.1,1.89
		c-0.79,2.35,0.61,3.5,0.61,3.5c-2.71,1.64-1.02,3.56-0.03,4.7c1,1.14,8.27,1.86,13.47,2.92c5.2,1.07,10.19,2.64,10.19,2.64
		s-5.11,0.16-10.26,0.24c-5.15,0.08-8.68-1.83-8.47,1.83c0.2,3.67,3.79,3.59,12.54,5.05c2.99,0.71,5.93,1.44,5.93,1.44
		c0.94,1.86,2.12,3.42,3.55,4.77l-0.439,0.49l-0.04,4.34c0,0-1.08,3.66-3.08,4.33c-1.09,0.36-10.59,1.64-20.49,1.65
		c-4.01,0-8.16-0.27-11.54-0.61c-3.66-0.36-6.42-0.8-7.14-1.04c-3-1-4.17-1.75-4.5-7.33l-0.17-2.67c0,0-5.83,0.67-10.3-2.7
		l-2.97-0.25c1.08-0.35,2.19-0.82,3.28-1.47c4.11-2.44,5.93-3.19,6.61-4.2l0.05,0.03c0,0,2.38-0.08,3.5-0.41l-0.25-20.58
		c0,0-2.12-0.29-4.4,0.3c-0.97-1.26-3.32-2.57-5.44-2.88c-0.69-0.1-1.66-0.18-2.77-0.21l0.01-0.32c0.41-1.12,2.69-2.23,4.27-2.89
		c1.66-0.79,3.21-1.18,4.53-1.35c2.43-0.32,4.05,0.1,4.05,0.1s-0.33-5.75,0.33-7.09c0.98-1.02,3.23-1.79,6.77-2.27
		c2.72-0.38,6.22-0.58,10.5-0.6C150.54,194.89,152.87,194.92,155.39,195z"/>
	<path fill="#2B3754" d="M155.39,195c-2.52-0.08-4.85-0.11-6.98-0.09c-4.28,0.02-7.78,0.22-10.5,0.6l-0.14-1.06c0,0-1-11,2.5-19
		s0.58-19-4.46-25.25l0.75-3.25c5.25-4.25,16-10.25,16-10.25l6.07-1.39c0.83,0.62,1.7,1.22,2.57,1.77l-0.91,0.89l-1.52,11.98
		l2.5,18.5c0,0,2.5-14,11.5-8l0.17-0.14c0.85,1.05,1.79,2.1,2.83,3.14c0.36,4.5-0.27,7.78-0.93,11.57
		c-0.87,4.99-1.79,10.87-0.601,21.63c-2.89-1.09-7.79-1.28-17.93-1.62C156,195.02,155.689,195.01,155.39,195z"/>
	<path fill="#2B3754" d="M172.939,160.31l-0.17,0.14c-9-6-11.5,8-11.5,8l-2.5-18.5l1.52-11.98l0.91-0.89
		c1.22,0.75,2.45,1.39,3.6,1.78l-0.03,0.09C164.77,138.95,164.359,149.71,172.939,160.31z"/>
	<path fill="#BA3E2A" d="M183.1,14.78c-8.16,4.17-15.91,7.9-16.9,9.91l-0.68-0.3c-4.13,3.94-9.24,4.61-9.24,4.61l-0.16-0.05
		c0.37-1.27,0.48-2.65,0.27-4.15l0.77-0.36C157.16,24.44,163.6,14.78,183.1,14.78z"/>
	<path fill="#C18C52" d="M172.439,72.21c1.07,2.16-2,4.16-2,4.16l-0.01,0.02l-0.18-0.1l-4.5-4.99l5.82,0.44l0.87,0.46V72.21z"/>
	<path fill="#FFFFFF" d="M171.3,90.96c0,0-2.021,2.03-4.09,3.95c-2.06,1.92-5.94,2.18-7.94,1.01c0,0-0.36-6.07,3.54-7.59
		C169.439,88.28,171.3,90.96,171.3,90.96z M163.89,93.95c0.76-0.61-0.14-2.4-1.01-1.73C162.879,92.22,163.14,94.56,163.89,93.95z"/>
	<path d="M162.879,92.22c0.87-0.67,1.77,1.12,1.01,1.73C163.14,94.56,162.879,92.22,162.879,92.22z"/>
	<path fill="#BA3E2A" d="M157.16,24.44l-0.77,0.36c0.21,1.5,0.1,2.88-0.27,4.15c-3.05,10.5-24.08,13.68-33.67,16.99l-1.14,0.04
		c-1.85-0.52-9.42-3.11-9-10.76c0.24-4.52-0.28-12.28,7.96-17.6c7.65-4.95,23.8-7.79,31.28-3.98
		C151.549,13.64,156.76,20.57,157.16,24.44z"/>
	<path fill="#FFFFFF" d="M144.839,101.11l0.59-0.09c0.03,0.11,0.05,0.23,0.05,0.36h-0.01c0,0-4.78,4.82-8.72,2.4l-0.28,0.11
		c-0.42-0.85-0.78-1.94-0.78-1.94h-0.51v-0.21c1.57-1.57,0.99-2.84,3.35-3.79C141.18,97.95,144.629,100.92,144.839,101.11z
		 M140.49,102.52c0.44-0.39-0.33-2.13-0.82-1.71C139.669,100.81,140.06,102.9,140.49,102.52z"/>
	<path fill="#FFDCD2" d="M135.81,150.2c5.04,6.25,7.96,17.25,4.46,25.25s-2.5,19-2.5,19l0.14,1.06c-3.54,0.48-5.79,1.25-6.77,2.27
		c-0.66,1.34-0.33,7.09-0.33,7.09s-1.62-0.42-4.05-0.1l-0.03-0.2c0.38-3.86-0.97-4.54-1.84-5.06l0.21-0.06
		c0,0-0.58-12.08,2.67-25.33S135.81,150.2,135.81,150.2z"/>
	<path d="M139.669,100.81c0.49-0.42,1.26,1.32,0.82,1.71C140.06,102.9,139.669,100.81,139.669,100.81z"/>
	<path fill="#FFDCD2" d="M130.56,212.12l0.25,20.58c-1.12,0.33-3.5,0.41-3.5,0.41l-0.05-0.03c0.26-0.38,0.35-0.8,0.34-1.37
		c-0.03-2.06-1.02-2.98-1.02-2.98s2.07-1.22,2.74-2.95c0.66-1.73,0.13-3.85,0.13-3.85l-3.17-1.57c0,0,0.15-0.86,0.01-1.77
		c-0.09-0.53-0.33-1.07-0.5-1.44c0,0,0,0-0.01,0c-0.13-0.26-0.24-0.43-0.24-0.43s0.73-1.53,1.08-2.99c0.09-0.39-0.08-0.85-0.46-1.31
		C128.439,211.83,130.56,212.12,130.56,212.12z"/>
	<path fill="#FFDCD2" d="M125.779,217.15c0.01,0,0.01,0,0.01,0c0.17,0.37,0.41,0.91,0.5,1.44c0.14,0.91-0.01,1.77-0.01,1.77
		l3.17,1.57c0,0,0.53,2.12-0.13,3.85c-0.67,1.73-2.74,2.95-2.74,2.95s0.99,0.92,1.02,2.98c0.01,0.57-0.08,0.99-0.34,1.37
		c-0.68,1.01-2.5,1.76-6.61,4.2c-1.09,0.65-2.2,1.12-3.28,1.47c-3.34,1.08-6.38,0.95-7.46,0.88c-1.44-0.1-3.1-1.74-3.02-3.18
		c0.08-1.43-2.2-1.98-2.72-3.39c-0.53-1.4-0.32-4.1-1.79-5.13c-1.47-1.02-2.23-2.92-2.23-2.92s0.24-1.41,1.07-3.86
		c0.84-2.46-0.52-2.52-0.08-5.5s1.98-4.42,5.56-5.46c1.31-0.38,3.16-0.63,5.11-0.76c2.1-0.15,4.32-0.17,6.14-0.1
		c1.11,0.03,2.08,0.11,2.77,0.21c2.12,0.31,4.47,1.62,5.44,2.88c0.38,0.46,0.55,0.92,0.46,1.31c-0.35,1.46-1.08,2.99-1.08,2.99
		S125.649,216.89,125.779,217.15z"/>
	<path fill="#FFDCD2" d="M124.89,199.51c0.87,0.52,2.22,1.2,1.84,5.06l0.03,0.2c-1.32,0.17-2.87,0.56-4.53,1.35
		c-1.58,0.66-3.86,1.77-4.27,2.89l-0.01,0.32c-1.82-0.07-4.04-0.05-6.14,0.1v-0.06c4.56-4.29,2.83-4.23,4.13-5.46
		c1.29-1.24,2.44-1.34,4.37-2.77c1.94-1.44,3.59-2.26,4.43-1.72C124.79,199.45,124.839,199.48,124.89,199.51z"/>
</g>
<g id="line_3_">
	<path fill="none" stroke="#000000" stroke-width="3" stroke-linecap="round" stroke-linejoin="round" stroke-miterlimit="10" d="
		M181.354,76.621c-5.751-8-15.809-11.634-24.826-11.492c-6.034,13.57-23.653,24.408-39.791,17.12
		c-7.053-3.186-9.279-5.964-9.633-8.933c-0.457-3.825,1.833-8.861,11.416-12.778c0,0-3.077-2.279-3.749-5.11
		c-0.522-2.204-0.25-5.3,6.946-9.345c0,0-9.887-2.146-9.411-10.856c0.245-4.518-0.274-12.284,7.965-17.608
		c7.648-4.942,23.796-7.781,31.276-3.97c0,0,5.208,6.928,5.614,10.793c0,0,6.442-9.654,25.942-9.654
		c-8.167,4.167-15.916,7.897-16.906,9.907c2.635,0.697,30.453,7.041,37.334,24.573c3.25,8.071,2.422,17.722,0.411,26.124
		c-1.044,4.363-2.407,8.389-3.684,11.681"/>
	
		<polyline fill="none" stroke="#000000" stroke-width="2.5" stroke-linecap="round" stroke-linejoin="round" stroke-miterlimit="10" points="
		186.924,85.065 170.247,76.297 165.746,71.298 171.565,71.743 188.077,80.577 	"/>
	<path fill="none" stroke="#000000" stroke-width="3" stroke-linecap="round" stroke-linejoin="round" stroke-miterlimit="10" d="
		M198.256,91.866c-1.063,2.367-1.805,3.755-1.805,3.755s0.967-7.081-1.025-12.028c-1.992-4.947-3.465-5.477-5.457-4.629
		c-3.27,1.362-3.11,6.553-3.11,6.553"/>
	<path fill="none" stroke="#000000" stroke-width="3" stroke-linecap="round" stroke-linejoin="round" stroke-miterlimit="10" d="
		M196.754,94.918c0,0-0.887,4.041-3.362,5.038c0,0,1.492,10.04,2.878,15.853s3.098,12.047,3.098,12.047"/>
	<path fill="none" stroke="#000000" stroke-width="2.5" stroke-linecap="round" stroke-linejoin="round" stroke-miterlimit="10" d="
		M196.698,85.741l14.054,7.518c0,0-0.588,3.206-2.314,3.694l-11.253-5.955"/>
	<path fill="none" stroke="#000000" stroke-width="1.5" stroke-linecap="round" stroke-linejoin="round" stroke-miterlimit="10" d="
		M155.771,65.129c0,0,1.502-10.513-6.249-12.761s-13.885,9.707-14.184,14.319s8.431,3.1,6.932-1.399"/>
	<path fill="none" stroke="#000000" stroke-width="1.5" stroke-linecap="round" stroke-linejoin="round" stroke-miterlimit="10" d="
		M122.451,45.948c10.762-3.711,35.868-7.269,33.943-21.146"/>
	<path fill="none" stroke="#000000" stroke-width="1.5" stroke-linecap="round" stroke-linejoin="round" stroke-miterlimit="10" d="
		M156.283,29.002c0,0,5.111-0.674,9.236-4.612"/>
	<path fill="none" stroke="#000000" stroke-width="1.5" stroke-linecap="round" stroke-linejoin="round" stroke-miterlimit="10" d="
		M143.17,39.565c0,0-17.881,4.702-22.057-1.601c-4.179-6.298-0.677-11.01,3.99-13.51s6.771,1.239,4.667,4.283"/>
	<path fill="none" stroke="#000000" stroke-width="3" stroke-linecap="round" stroke-linejoin="round" stroke-miterlimit="10" d="
		M127.28,84.805c0,0,0.511,6.885,6.903,14.731c0.61,0.749,0.455,2.428,0.455,2.428l1.056-0.011c0,0,0.769,2.308,1.337,2.821
		c2.157,6.631,0.535,13.614,15.174,24.973c0,0,10.92,11.053,15.992,9.371s9.591-8.31,9.591-8.31s6.847-7.887,9.075-17.409"/>
	<path fill="none" stroke="#000000" stroke-width="1.5" stroke-linecap="round" stroke-linejoin="round" stroke-miterlimit="10" d="
		M188.936,93.574c0,0-0.945,5.682,3.218,5.981"/>
	<path fill="none" stroke="#000000" stroke-width="2" stroke-linecap="round" stroke-linejoin="round" stroke-miterlimit="10" d="
		M170.436,76.37c0,0,3.083-1.083,2-3.25"/>
	<path fill="none" stroke="#000000" stroke-width="2" stroke-linecap="round" stroke-linejoin="round" stroke-miterlimit="10" d="
		M137.868,89.719c0,0-3.266,3.067-7.962,3.505"/>
	<path fill="none" stroke="#000000" stroke-width="1.5" stroke-linecap="round" stroke-linejoin="round" stroke-miterlimit="10" d="
		M135.182,101.746c1.565-1.575,0.992-2.844,3.352-3.793c2.737,0,6.319,3.167,6.319,3.167"/>
	<path fill="none" stroke="#000000" stroke-linecap="round" stroke-linejoin="round" stroke-miterlimit="10" d="M145.471,101.383
		c0,0-4.784,4.82-8.726,2.399"/>
	<path fill="none" stroke="#000000" stroke-linecap="round" stroke-linejoin="round" stroke-miterlimit="10" d="M143.395,96.828
		c0,0,2,2.041,2.125,4.958c0.089,2.082-2.583,4.583-2.583,4.583"/>
	<path fill="none" stroke="#000000" stroke-width="2" stroke-linecap="round" stroke-linejoin="round" stroke-miterlimit="10" d="
		M139.665,100.816c0.497-0.422,1.265,1.322,0.828,1.707C140.059,102.907,139.665,100.816,139.665,100.816z"/>
	<path fill="none" stroke="#000000" stroke-width="2" stroke-linecap="round" stroke-linejoin="round" stroke-miterlimit="10" d="
		M152.104,85.343c1.333,1.276,19.389-3.64,19.389-3.64"/>
	<path fill="none" stroke="#000000" stroke-width="1.5" stroke-linecap="round" stroke-linejoin="round" stroke-miterlimit="10" d="
		M159.274,95.921c0,0-0.36-6.069,3.54-7.59c6.622-0.044,8.488,2.635,8.488,2.635"/>
	<path fill="none" stroke="#000000" stroke-linecap="round" stroke-linejoin="round" stroke-miterlimit="10" d="M171.303,90.966
		c0,0-2.02,2.03-4.089,3.946s-5.941,2.177-7.939,1.009"/>
	<path fill="none" stroke="#000000" stroke-linecap="round" stroke-linejoin="round" stroke-miterlimit="10" d="M158.395,90.453
		c0,0-0.5,3.5-0.125,4.5s1.439,1.449,1.439,1.449s2.036,1.79,4.019,2.747"/>
	<path fill="none" stroke="#000000" stroke-width="2" stroke-linecap="round" stroke-linejoin="round" stroke-miterlimit="10" d="
		M162.884,92.228c0.862-0.673,1.771,1.117,1.011,1.725S162.884,92.228,162.884,92.228z"/>
	<path fill="none" stroke="#000000" stroke-width="1.5" stroke-linecap="round" stroke-linejoin="round" stroke-miterlimit="10" d="
		M142.645,91.92c0,0,1.673,1.941,3.769,5.139c2.098,3.198,0.886,18.941,0.886,18.941s3.769,3.333,6.041,2.957
		c2.274-0.377,2.297-1.329,2.297-1.329s-1.516-2.759,0.432-3.274c1.949-0.515,3.904,1.663,3.904,1.663s1.434-2.464,1.011-4.181
		c-0.42-1.717-3.021-1.479-3.021-1.479"/>
	<path fill="none" stroke="#000000" stroke-width="1.5" stroke-linecap="round" stroke-linejoin="round" stroke-miterlimit="10" d="
		M151.299,119.241c0,0,0.002,0.673-1.367,0.955c-1.369,0.283-2.301-1.364-2.301-1.364l0.506-2.09"/>
	<path fill="none" stroke="#000000" stroke-width="1.5" stroke-linecap="round" stroke-linejoin="round" stroke-miterlimit="10" d="
		M155.77,128.203c0,0,3.084,1.333,6.875-2.25"/>
	<path fill="none" stroke="#000000" stroke-width="1.5" stroke-linecap="round" stroke-linejoin="round" stroke-miterlimit="10" d="
		M151.666,125.182c0,0,3.521,0.771,5.771,0.021s2.084-2.251,8.334-4.251c-9.167,0-16,5.144-16,5.144"/>
	<path fill="none" stroke="#000000" stroke-width="2.5" stroke-linecap="round" stroke-linejoin="round" stroke-miterlimit="10" d="
		M196.27,115.808c0,0,5,7.645,16.938,1.208c-8.688-0.938-14.438-2.688-18.438-10.563"/>
	<path fill="none" stroke="#000000" stroke-width="2.5" stroke-linecap="round" stroke-linejoin="round" stroke-miterlimit="10" d="
		M194.771,105.288c0,0,8.02,4.52,14.353,0.686c6.896-4.896,4.481-26.353-3.686-36.02"/>
	<path fill="none" stroke="#000000" stroke-width="2.5" stroke-linecap="round" stroke-linejoin="round" stroke-miterlimit="10" d="
		M196.104,97.288c0,0,3.415,3.291,6.415,2.541s3.452-3.029,3.625-3.61"/>
	<path fill="none" stroke="#000000" stroke-width="2.5" stroke-linecap="round" stroke-linejoin="round" stroke-miterlimit="10" d="
		M207.008,90.826c0.507-4.014,0.131-8.811-2.403-15.705"/>
	<path fill="none" stroke="#000000" stroke-width="3" stroke-linecap="round" stroke-linejoin="round" stroke-miterlimit="10" d="
		M199.603,127.954c0,0,8.208,1.5,12.708,2.5s7,3,7,3v3.5c0,0,18,3,20.5,6s0.5,3.5,0.5,3.5s6.5,7,7,9s8.709,42.75,3.334,86.333
		c-2.034,7.075-0.104,8.635-5.584,11.167c-14.041,6.25-33.833,4.25-46.541-0.5s-20.292-7.25-24.027-14.682
		c0,0-2.939-0.731-5.932-1.443c-8.751-1.458-12.337-1.375-12.544-5.042s3.321-1.75,8.474-1.833s10.26-0.238,10.26-0.238
		s-4.988-1.567-10.189-2.636c-5.202-1.068-12.468-1.781-13.467-2.921c-0.997-1.14-2.686-3.062,0.021-4.701
		c0,0-1.392-1.153-0.608-3.504c0,0,1.176-1.675,3.101-1.889c1.923-0.214,22.229,0.766,22.229,0.766s-15.604-4.257-16.104-4.898
		c-0.5-0.642-1.781-2.779-0.428-4.275c1.354-1.497,9.169,0.356,11.84,0.926c2.671,0.57,6.166,1.748,11.675,4.623
		c0,0,1.992,1.583,3.49,5.139c1.496,4.275,2.42,6.84,3.132,8.55s1.781,5.275,2.282,7.198c0,0,13.254,1.779,22.837,2.613
		s9.916-1.916,15.749-2.167c0,0-1.457-14.25-0.207-45.25"/>
	<path fill="none" stroke="#000000" stroke-width="1.5" stroke-linecap="round" stroke-linejoin="round" stroke-miterlimit="10" d="
		M151.613,219.098c0,0,9.334,0.499,13.822,0.855c4.489,0.356,11.187,1.425,11.187,1.425"/>
	<path fill="none" stroke="#000000" stroke-width="1.5" stroke-linecap="round" stroke-linejoin="round" stroke-miterlimit="10" d="
		M190.124,237.974c0,0,0.886-2.463,0.886-6.239"/>
	<path fill="none" stroke="#000000" stroke-width="1.5" stroke-linecap="round" stroke-linejoin="round" stroke-miterlimit="10" d="
		M230.477,232.954c0,0,4.167,0.834,6.5,2.667"/>
	<path fill="none" stroke="#000000" stroke-width="3" stroke-linecap="round" stroke-linejoin="round" stroke-miterlimit="10" d="
		M225.104,233.12c0,0,2.333-15.166,4.416-20.25"/>
	<path fill="none" stroke="#000000" stroke-width="1.5" stroke-linecap="round" stroke-linejoin="round" stroke-miterlimit="10" d="
		M217.937,216.287c0,0,7.166-4,9.833-13.583c2-19.75-3.416-22.208,1.625-39.25s10.125-17.25,10.125-17.25"/>
	<path fill="none" stroke="#000000" stroke-width="3" stroke-linecap="round" stroke-linejoin="round" stroke-miterlimit="10" d="
		M109.907,239.631c1.436,0.095,6.286,0.305,10.737-2.344c5.671-3.378,6.98-3.512,6.951-5.573c-0.03-2.062-1.014-2.977-1.014-2.977
		s2.07-1.226,2.733-2.954c0.661-1.728,0.136-3.849,0.136-3.849l-3.174-1.568c0,0,0.156-0.866,0.008-1.774s-0.745-1.868-0.745-1.868
		s0.734-1.535,1.077-2.995c0.343-1.46-2.998-3.762-5.896-4.185c-2.896-0.422-10.436-0.393-14.019,0.649
		c-3.583,1.042-5.119,2.479-5.561,5.458c-0.441,2.978,0.913,3.039,0.08,5.497c-0.834,2.458-1.073,3.87-1.073,3.87
		s0.756,1.89,2.227,2.92c1.469,1.029,1.266,3.72,1.791,5.127c0.527,1.408,2.8,1.955,2.72,3.391
		C106.808,237.893,108.474,239.535,109.907,239.631z"/>
	<path fill="none" stroke="#000000" stroke-width="1.5" stroke-linecap="round" stroke-linejoin="round" stroke-miterlimit="10" d="
		M107.85,218.08c0,0,7.199-1.136,9.843-1.457c2.644-0.321,3.063-0.651,4.991-0.114c1.927,0.539,3.102,0.643,3.102,0.643"/>
	<path fill="none" stroke="#000000" stroke-width="1.5" stroke-linecap="round" stroke-linejoin="round" stroke-miterlimit="10" d="
		M111.059,225.95c0,0,6.483-1.731,9.641-2.788c3.159-1.057,5.214-2.885,5.214-2.885"/>
	<path fill="none" stroke="#000000" stroke-width="1.5" stroke-linecap="round" stroke-linejoin="round" stroke-miterlimit="10" d="
		M115.224,233.005c0,0,0.649-1.303,2.686-1.595c2.038-0.293,6.303-1.965,7.924-3.04"/>
	
		<path id="mug_7_" fill="none" stroke="#000000" stroke-width="3" stroke-linecap="round" stroke-linejoin="round" stroke-miterlimit="10" d="
		M177.602,243.037l-0.041,4.333c0,0-1.083,3.667-3.083,4.333c-1.083,0.361-10.588,1.643-20.483,1.649
		c-8.369,0.006-17.309-1.191-18.684-1.649c-3-1-4.167-1.75-4.5-7.333l-0.167-2.667c0,0-5.833,0.667-10.302-2.696"/>
	
		<path id="mug_6_" fill="none" stroke="#000000" stroke-width="3" stroke-linecap="round" stroke-linejoin="round" stroke-miterlimit="10" d="
		M127.311,233.111c0,0,2.382-0.08,3.5-0.408l-0.25-20.583c0,0-2.127-0.286-4.416,0.298"/>
	
		<path id="mug_5_" fill="none" stroke="#000000" stroke-width="3" stroke-linecap="round" stroke-linejoin="round" stroke-miterlimit="10" d="
		M117.957,209.017c0.416-1.125,2.688-2.229,4.271-2.896c4.75-2.25,8.583-1.25,8.583-1.25s-0.334-5.75,0.333-7.083
		c2.167-2.25,10.419-3.25,25.168-2.75s18.416,0.667,20.917,3.75l0.128,9.041"/>
	
		<path id="mug_4_" fill="none" stroke="#000000" stroke-width="1.5" stroke-linecap="round" stroke-linejoin="round" stroke-miterlimit="10" d="
		M174.478,199.704c0,0-18.833,4-40.167-0.417"/>
	<path fill="none" stroke="#000000" stroke-width="3" stroke-linecap="round" stroke-linejoin="round" stroke-miterlimit="10" d="
		M111.811,209.37c4.562-4.283,2.83-4.223,4.125-5.458c1.294-1.235,2.445-1.334,4.379-2.771s3.582-2.259,4.43-1.72
		c0.848,0.539,2.381,1.06,1.988,5.158"/>
	<path fill="none" stroke="#000000" stroke-width="3" stroke-linecap="round" stroke-linejoin="round" stroke-miterlimit="10" d="
		M158.771,135.287l-6.21,1.417c0,0-10.75,6-16,10.25l-0.75,3.25c0,0-4.791,10.666-8.041,23.916s-2.667,25.333-2.667,25.333"/>
	<path fill="none" stroke="#000000" stroke-width="1.5" stroke-linecap="round" stroke-linejoin="round" stroke-miterlimit="10" d="
		M137.77,194.453c0,0-1-11,2.5-19s0.582-19-4.459-25.25"/>
	
		<path id="colar_3_" fill="none" stroke="#000000" stroke-width="1.5" stroke-linecap="round" stroke-linejoin="round" stroke-miterlimit="10" d="
		M164.77,138.953c0,0-0.5,13,11,24.5c0.834,10.5-3.667,14.333-1.5,33.5"/>
	
		<path id="collar_5_" fill="none" stroke="#000000" stroke-width="1.5" stroke-linecap="round" stroke-linejoin="round" stroke-miterlimit="10" d="
		M160.29,137.974l-1.521,11.979l2.5,18.5c0,0,2.5-14,11.5-8"/>
	<path fill="none" stroke="#000000" stroke-width="1.5" stroke-linecap="round" stroke-linejoin="round" stroke-miterlimit="10" d="
		M172.77,136.454c0,0,0.834,5.167,7.334,7"/>
	
		<path id="collar_4_" fill="none" stroke="#000000" stroke-width="1.5" stroke-linecap="round" stroke-linejoin="round" stroke-miterlimit="10" d="
		M174.77,175.328c2-10.5,10.5-12.375,16.5-15.375s16.834-23.666,16.834-23.666s3.666-0.833-2.334-2.833l-4-1.333
		c0,0-2.667-1.333-3.167-4.333"/>
	
		<path id="collar_3_" fill="none" stroke="#000000" stroke-width="1.5" stroke-linecap="round" stroke-linejoin="round" stroke-miterlimit="10" d="
		M219.311,136.953c0,0-9.291,21.25-14.291,26s-11.75,10.5-11.75,10.5c0,0,0.166-6.167-1.087-8.753
		c-1.564-1.34-4.799-1.486-9.413-0.498"/>
	<path fill="none" stroke="#000000" stroke-width="3" stroke-linecap="round" stroke-linejoin="round" stroke-miterlimit="10" d="
		M142.438,252.704c0,0,0.666,3.083-0.167,4.917l5.832,4.166c0,0,15.335-4.667,20.668-4s3.666,3.333,12.999,4
		s13.668-2.333,19.001-3.333c7.334,4.001,21.999,3.333,21.999,3.333l1.998-3.5"/>
	<path fill="none" stroke="#000000" stroke-width="3" stroke-linecap="round" stroke-linejoin="round" stroke-miterlimit="10" d="
		M175.769,320.452c0,0,2.667,112.667,6.667,128.001c2.815,10.791,10.127,61.014,12.451,96.453c0.979,14.912,1.88,20.547-2.12,31.215
		c-4,10.666-38,20.666-37.334,25.332c-0.666,8,4.087,10.625,24.587,9.875c12.25-1,17.375-3.75,26.048-8.951
		c3.985-2.064,9.297-3.299,13.952-7.049c9.595-10.75-3.081-14.418-3.418-31.043c-0.538-19.5,9.166-54.83,9.166-80.83
		s-5.333-38.668-5.333-38.668s6.67-35.836,9.836-55.418c3.166-19.58,7.215-50.877,5.832-68.583c-2.75-28.25-13.333-59-13.333-59"/>
	<path fill="none" stroke="#000000" stroke-width="3" stroke-linecap="round" stroke-linejoin="round" stroke-miterlimit="10" d="
		M148.103,261.787c0,0-8.917,31-10.917,63s12.418,116.668,12.418,116.668s-1.334,11.084,3.75,21c2.666,10,3.749,46.664,6.416,77.998
		s-4,34-14.25,41.25s-25.75,13.25-25.75,13.25s-5.001,5.5,2.333,9.5s21,3.168,28.333-0.666c1.581-0.826,3.264-1.676,5.003-2.494"/>
	<path fill="none" stroke="#000000" stroke-width="3" stroke-linecap="round" stroke-linejoin="round" stroke-miterlimit="10" d="
		M187.437,582.455c-2-10.668-7.334-14.668-6.667-24.668c0.542-8.123,8.098-33.604,9.501-58.166"/>
	<path fill="none" stroke="#000000" stroke-width="1.5" stroke-linecap="round" stroke-linejoin="round" stroke-miterlimit="10" d="
		M156.103,490.789c0,0,22.501,4.832,33.501-0.168"/>
	<path fill="none" stroke="#000000" stroke-width="1.5" stroke-linecap="round" stroke-linejoin="round" stroke-miterlimit="10" d="
		M128.104,591.457c0,0,2.334,4.832,11.667,3.498s16.666-4.83,27.165-10.334c10.499-5.502,17.169-3.5,17.502-12.166"/>
	<path fill="none" stroke="#000000" stroke-width="1.5" stroke-linecap="round" stroke-linejoin="round" stroke-miterlimit="10" d="
		M189.937,493.787c0,0,16,4.834,35.667-0.5"/>
	<path fill="none" stroke="#000000" stroke-width="1.5" stroke-linecap="round" stroke-linejoin="round" stroke-miterlimit="10" d="
		M167.27,594.121c0,0-5.667,5.164,10.999,6.832c15.751-0.25,22.855-7.146,31.188-10.812s9.521-6.979,8.646-14.77"/>
	<path fill="none" stroke="#C1C4C6" stroke-width="1.5" stroke-linecap="round" stroke-linejoin="round" stroke-miterlimit="10" d="
		M149.937,199.297c0,0-2.334-1.568-1.334-5.331c1-3.762,3.667-5.604,2.854-11.287c0,0-0.375-3.802-5-3.097s-2.125,6.055-0.125,5.291
		"/>
	<path fill="none" stroke="#C1C4C6" stroke-width="1.5" stroke-linecap="round" stroke-linejoin="round" stroke-miterlimit="10" d="
		M157.77,199.454c0,0-2.999-2.508-2.333-6.271c0.666-3.763,3.166-10.112,0.166-14.188c0,0-4.146-5.114-0.239-7.554
		c3.906-2.439,6.344,2.205,3.625,3.704"/>
</g>
</svg>
