<?xml version="1.0" encoding="utf-8"?>
<!-- Generator: Adobe Illustrator 16.0.0, SVG Export Plug-In . SVG Version: 6.00 Build 0)  -->
<!DOCTYPE svg PUBLIC "-//W3C//DTD SVG 1.1//EN" "http://www.w3.org/Graphics/SVG/1.1/DTD/svg11.dtd">
<svg version="1.1" id="Layer_1" xmlns="http://www.w3.org/2000/svg" xmlns:xlink="http://www.w3.org/1999/xlink" x="0px" y="0px"
	 width="457.122px" height="356.727px" viewBox="0 0 457.122 356.727" enable-background="new 0 0 457.122 356.727"
	 xml:space="preserve">
<g>
	<path fill="#C18C52" d="M304.881,194.204c10.44-0.29,23.09,2.38,32.96,5.6c1.38,0.45,2.72,0.92,4.03,1.41
		c9.359,3.45,17.43,7.62,31.39,10.25c3.41,0.64,6.55,1.22,9.44,1.8c-0.221-1.92-1.94-17.37-3.11-30.71c0,0,21.21-5.92,33.99,0.87
		c3.04,9.39,5.17,19.34,5.35,30.71c0.33,22-3.67,27.67-45.67,39.34c-42,11.66-66.67,13-66.67,13l-1.03,0.01
		c0.07-1.09-0.35-2.12-0.59-3.06c-0.75-3-2.38-1.46-1.38-8.96s2.75-10.41-1.5-19.41c-1.75-5,0.75-12.75-10-21.25
		s-24.5-8.38-24.5-8.38l-0.149,0.13c-0.471-0.55-0.921-1.1-1.36-1.64l0.01-0.011c15-7.25,23.46-8.06,34.54-9.39
		C302.001,194.354,303.411,194.254,304.881,194.204z"/>
	<path fill="#FFDCD2" d="M403.591,157.804c3.55,8.53,7.17,16.83,9.99,25.62c-12.78-6.79-33.99-0.87-33.99-0.87
		c-1.25-14.25-0.25-29-5.5-48.25c-0.899-3.311-1.229-5.271-2-7.67l-1.05-0.12c2-3.54,3.88-6.7,5.49-9.21l0.189,0.12
		c3.62-0.37,4.87,2.88,8.87,2.63s5.25-5.75,5.25-5.75l0.58-0.04C392.641,130.783,396.601,140.954,403.591,157.804z"/>
	<path fill="#962929" d="M384.951,104.943c-7.57,3.59-11.25,1.811-13.36-0.14c-2.17-2-3.25-9-3.25-9l-1.32-0.04
		c0.521-0.771,0.82-1.21,0.82-1.21s1.32-2.43,2.91-5.47c1.79-3.431,3.91-7.641,4.84-10.03c1.75-4.5,2-8.25,6.75-8
		s10.5,2.75,14.25,7.25s10.25,10,3.5,14.5c-3.08,2.05-6.42,5.05-9.64,8.26c-1.57,1.561-3.101,3.17-4.55,4.76L384.951,104.943z"/>
	<path fill="#962929" d="M391.421,114.264l-0.58,0.04c0,0-1.25,5.5-5.25,5.75s-5.25-3-8.87-2.63l-0.189-0.12
		c1.449-2.25,2.67-3.98,3.56-5c1.69-1.93,3.67-4.18,5.811-6.48c1.449-1.59,2.979-3.199,4.55-4.76l0.09,0.09
		c0.37,1.58,0.95,5.051,0.72,10.65C391.311,112.644,391.361,113.464,391.421,114.264z"/>
	<path fill="#FFDCD2" d="M384.951,104.943l0.95,0.88c-2.141,2.301-4.12,4.551-5.811,6.48c-0.89,1.02-2.11,2.75-3.56,5
		c-1.61,2.51-3.49,5.67-5.49,9.21c-6.75,11.95-14.84,28.2-18.2,38.29c-0.97,2.93-1.8,5.8-2.53,8.58l-1.22-0.33
		c-9.25-10.25-27.5-8.5-27.5-8.5l-0.5-0.32c1.18-1.84,2.43-3.74,3.75-5.68c13.75-20.25,26.75-35.5,29.75-42.25
		c1.23-2.76,3.68-6.92,6.14-10.86c2.511-4.02,5.03-7.81,6.29-9.68l1.32,0.04c0,0,1.08,7,3.25,9
		C373.701,106.754,377.381,108.533,384.951,104.943z"/>
	<path fill="#962929" d="M370.591,89.004l0.16,0.08c-1.59,3.04-2.91,5.47-2.91,5.47s-0.3,0.439-0.82,1.21
		c-1.26,1.87-3.779,5.66-6.29,9.68l-0.199-0.13c-3.78-4.25-10.63-8.67-10.19-13.26C350.791,87.394,361.341,85.304,370.591,89.004z"
		/>
	<path fill="#C18C52" d="M349.091,173.054l1.22,0.33c-3.189,12.189-4.51,22.58-8.38,27.67l-0.06,0.16
		c-1.311-0.49-2.65-0.96-4.03-1.41c-9.87-3.22-22.52-5.89-32.96-5.6c0.51-1.23,5.65-13.471,16.21-29.971l0.5,0.32
		C321.591,164.554,339.841,162.804,349.091,173.054z"/>
	<path fill="#2B3754" d="M267.441,205.554l0.149-0.13c0,0,13.75-0.12,24.5,8.38s8.25,16.25,10,21.25c4.25,9,2.5,11.91,1.5,19.41
		s0.63,5.96,1.38,8.96c0.24,0.939,0.66,1.97,0.59,3.06c-0.14,2.391-2.64,5.08-14.64,7.82c-17.5,4-47.83,3.75-47.83,3.75l-1.61-0.62
		c3.23-8.45,6.921-22.85,11.78-48.3c3.641-20.43,3.311-34.7,1.351-44.61l0.31-0.06c1.14,3.979,4.64,11.39,11.16,19.45
		C266.521,204.454,266.971,205.004,267.441,205.554z"/>
	<path fill="#FFDCD2" d="M222.851,202.224l-0.63-0.05c0,0-2.38-3.12-1.25-14.62c1.12-11.5,6.12-21.38,20-24.75h0.96
		c0,0,9.09,3.49,12.681,21.72c1.96,9.91,2.29,24.181-1.351,44.61c-4.859,25.45-8.55,39.85-11.78,48.3
		c-3.199,8.38-5.939,10.92-8.89,12.58c-5.92,3.33-20.33,13.79-57,14.79c-36.66,1-50.33-2-50.33-2l-0.67-0.38c0,0,1.63-5.37-0.5-6.25
		c-2.12-0.87-3.62,0.13-3.62,0.13c-1.16,1.62-2.32,2.78-3.32,3.58l-0.15-0.18c-1.5-0.12-3.6-1.78-3.6-1.78l-0.07-0.03
		c0.82-1.77,1.61-3.95,2.26-5.72c0.88-2.37,1.63-4.12,1.63-4.12l0.87-0.63l2.63-0.25c-1.5-4.75,3.37-7.25,13.75-5.25
		c10.37,2,14.12,0.38,17.37,3.88s7,2.5,7,2.5c12.89-1.45,24.98-5.61,34.18-9.26c3.471-1.38,6.53-2.681,9.07-3.74
		c3.58-1.5,6.53-2.84,8.79-3.92c1.22-0.57,2.24-1.07,3.061-1.48c1.609-0.81,2.439-1.27,2.439-1.27l2.96-22.75
		C220.001,237.153,221.741,215.773,222.851,202.224z"/>
	<path fill="#2B3754" d="M238.261,158.464c5,0.34,3.67,4.34,3.67,4.34h-0.96c-13.88,3.37-18.88,13.25-20,24.75
		c-1.13,11.5,1.25,14.62,1.25,14.62l0.63,0.05c-1.109,13.55-2.85,34.93-3.51,43.66l-2.96,22.75c0,0-0.83,0.46-2.439,1.27l-0.33-0.77
		c-8.761-9.601-14.44-15.15-19.24-23.58c-3.28-2.35-6.74-4.59-12.24-14.66c-3.66-6.7-4.29-12.11-5.66-18.84
		c0.57-5.14,4.84-6.37,7.17-9.75l0.051,0.03c0,0,3.399-2.53,6.649-3.78s3.75,3.25,5,7.75s4.25-16.88,6.25-26.25
		c2-9.38,5.17-14.42,12.34-22.59c0,0,6.54-1.04,10.91-0.79C229.221,156.924,233.261,158.134,238.261,158.464z"/>
	<path fill="#BA3E2A" d="M205.171,72.754l0.34-0.71c3.271,1.93,11.12,7.91,14.58,22.21c4.55,18.109-9.42,39.319-11.74,42.66
		c-0.21,0.3-0.319,0.46-0.319,0.46s1.92-6.891,0.62-12.061c-1.301-5.17-2.69-5.899-4.78-5.33c-3.42,0.91-3.97,6.07-3.97,6.07
		s-5.48-4.03-8.65-11.14c-3.16-7.11-11.25-11.33-20.47-12.45c-5.77,9.319-21.2,15.26-32.04,15.62c-3.84,0.13-7.11-0.44-9.17-1.82
		c-7.85-5.24-11.42-13.96,4.41-22.07c0,0,0.86-20.1,19.44-22.81h2.56c11.28,1.54,27.81,4.01,39.89-3.22
		C195.871,68.164,200.681,70.584,205.171,72.754z"/>
	<path fill="#2B3754" d="M164.351,203.243c0-0.039,0.01-0.09,0.02-0.17C164.361,203.153,164.351,203.204,164.351,203.243z
		 M164.411,202.813c-0.01,0.05-0.02,0.09-0.02,0.13C164.391,202.903,164.401,202.863,164.411,202.813z M164.421,202.754
		c0.19-1.261,0.75-4.41,1.92-6.95c1.46-3.16,7.47,6.63,7.8,7.16c0.011,0.01,0.011,0.02,0.011,0.02c1.069,3.36,1.76,6.33,2.319,9.07
		c1.37,6.729,2,12.14,5.66,18.84c5.5,10.07,8.96,12.311,12.24,14.66c4.8,8.43,10.479,13.979,19.24,23.58l0.33,0.77
		c-0.82,0.41-1.841,0.91-3.061,1.48l-0.04-0.08c-13.25-7.75-21.5-15.5-30.689-22.32c-9.621-5.12-12.811-10.75-12.811-10.75
		l0.25-0.93c-3.75-6.5-5.81-9.19-7.06-28.69c0,0-2.94-18.06-12.94-31.31l-0.5-2.75c0,0,5-3.5,8.25-4c0.61-0.09,1.22-0.23,1.8-0.39
		l1.7,0.14c0,0,2.63,8.12,5,13.75C165.941,189.004,164.731,200.164,164.421,202.754z"/>
	<path fill="#2B3754" d="M211.591,153.804l2.34,3.66c-7.17,8.17-10.34,13.21-12.34,22.59c-2,9.37-5,30.75-6.25,26.25s-1.75-9-5-7.75
		s-6.649,3.78-6.649,3.78l-0.051-0.03c0.73-1.061,1.271-2.33,1.45-4c0.5-5.5,3.38-12.63,6.88-21.63s13.87-22.37,13.87-22.37
		l0.25-0.13L211.591,153.804z"/>
	<path fill="#BA3E2A" d="M209.521,61.153c0.86,5.771-5.479,10.12-5.479,10.12s0.56,0.22,1.47,0.771l-0.34,0.71
		c-4.49-2.17-9.3-4.59-9.3-4.59l0.79-0.311C196.661,67.854,203.861,67.414,209.521,61.153z"/>
	<path fill="#FFDCD2" d="M156.851,136.264l-0.44-0.46c0,0-2.69-2.97-5.66-2.54c-2.46,0.62-2.49,0.49-4.25,1.84l-0.17,0.34l-0.4-0.2
		c0,0,0.42-1.899-0.09-2.729c-5.26-8.64-4.87-13.271-4.87-13.271l-2.23-1.159c10.84-0.36,26.27-6.301,32.04-15.62
		c9.22,1.12,17.31,5.34,20.47,12.45c3.17,7.109,8.65,11.14,8.65,11.14s0.55-5.16,3.97-6.07c2.09-0.569,3.479,0.16,4.78,5.33
		c1.3,5.17-0.62,12.061-0.62,12.061s0.109-0.16,0.319-0.46c-0.33,0.79-1.699,3.77-3.939,4.329c0,0-1.09,1.011,1.51,12.73l0.17,0.2
		l-0.25,0.13c0,0-10.37,13.37-13.87,22.37s-6.38,16.13-6.88,21.63c-0.18,1.67-0.72,2.939-1.45,4c-2.33,3.38-6.6,4.61-7.17,9.75
		c-0.56-2.74-1.25-5.71-2.319-9.07c0,0,0-0.01-0.011-0.02c-0.239-0.78-0.51-1.58-0.8-2.41c-2.5-12-9-28.5-9-28.5l0.73-0.6
		c-1.14-1.12-2.19-2.271-3.07-3.28c-1.48-1.72-2.45-3.01-2.45-3.01c-12.96-13.25-10.4-19.95-11.63-26.811
		c-0.16-0.18-0.31-0.5-0.45-0.86l0.3-0.159C150.641,140.594,155.911,136.954,156.851,136.264z M183.861,130.934
		c0,0-4.67-3.05-8.801-2.34c-4.129,0.71-4.97,4.66-4.97,4.66C174.511,138.094,183.861,130.934,183.861,130.934z"/>
	<path fill="#BA3E2A" d="M196.521,55.684c0,0,1.521,8.53,0.141,12.17l-0.79,0.311c-12.08,7.229-28.61,4.76-39.89,3.22h-2.56
		c0.6-0.09,1.21-0.16,1.85-0.21c0,0-7.86-6.38-3.51-13.94C156.121,49.674,186.221,41.614,196.521,55.684z"/>
	<path fill="#2F423A" d="M192.821,278.533l0.199,0.511c-9.199,3.649-21.29,7.81-34.18,9.26c0,0-3.75,1-7-2.5s-7-1.88-17.37-3.88
		c-10.38-2-15.25,0.5-13.75,5.25l-2.63,0.25c0,0-1.25-3-5.12-2.75c-3.88,0.25-5,2.63-5,2.63s-1.25-2.19-4.35-2.72
		c-3.09-0.53-5,2.5-5,2.5s-1.34,1.29-3.25-1.11c-0.13-0.17-0.26-0.35-0.4-0.55c-2.75-3.311-4.13-1.87-6.63-1.5l-0.5-0.12
		c0,0-3-1-5.25-2.75s-3.25-4.5-14-10.75s-31.25-17-31.25-17l1-4l3.97,1.75l-0.22,0.5c30.96,15.979,35.55,20.04,41,25.25
		c1.26,1.74,2.71,2.63,4.09,3.03c2.97,0.87,5.66-0.53,5.66-0.53l52.25-11l41,9.25l0.18-0.7L192.821,278.533z"/>
	<path fill="#FFF3D9" d="M113.911,263.434l-0.07-0.88c0,0,8.92-0.85,13.25-0.78v0.03c13.13,1.229,26.47,3.66,35.87,5.6
		c7.8,1.62,12.88,2.9,12.88,2.9l9.25,6.25l1.18,0.3l-0.18,0.7l-41-9.25l-52.25,11c0,0-2.69,1.4-5.66,0.53l0.16-0.53
		c0,0,0.03-0.23,0.13-0.63C88.181,275.924,92.331,264.914,113.911,263.434z"/>
	<path fill="#FFFFFF" d="M175.061,128.594c4.131-0.71,8.801,2.34,8.801,2.34s-9.351,7.16-13.771,2.32
		C170.091,133.254,170.931,129.304,175.061,128.594z M174.691,133.964l1.369-0.28c0,0-0.05-1.9-1.119-1.42
		C173.861,132.743,174.691,133.964,174.691,133.964z"/>
	<path d="M176.061,133.684l-1.369,0.28c0,0-0.83-1.221,0.25-1.7C176.011,131.783,176.061,133.684,176.061,133.684z"/>
	<path fill="#2B3754" d="M173.341,200.554c0.29,0.83,0.561,1.63,0.8,2.41c-0.33-0.53-6.34-10.32-7.8-7.16
		c-1.17,2.54-1.73,5.689-1.92,6.95c0.31-2.59,1.52-13.75-0.58-18.7c-2.37-5.63-5-13.75-5-13.75l-1.7-0.14
		c2.55-0.7,4.7-1.86,4.7-1.86l0.16-0.13c0.88,1.01,1.93,2.16,3.07,3.28l-0.73,0.6C164.341,172.054,170.841,188.554,173.341,200.554z
		"/>
	<path fill="#FFDCD2" d="M140.091,251.554c0,0,2.75-15.75,2-39.25s2.5-29.5,5.5-35c10,13.25,12.94,31.31,12.94,31.31
		c1.25,19.5,3.31,22.19,7.06,28.69l-0.25,0.93c0,0,2,9.94,1,16.32c-1,6.37-5.25,12.25-5.25,12.25l-0.13,0.6
		c-9.4-1.939-22.74-4.37-35.87-5.6v-0.03c0.37,0,0.7,0.01,1,0.03C128.091,261.804,134.591,254.304,140.091,251.554z"/>
	<path fill="#FFFFFF" d="M156.411,135.804l0.44,0.46c-0.94,0.69-6.21,4.33-9.08,1.07l-0.3,0.159c-0.31-0.8-0.54-1.76-0.54-1.76
		l-0.6-0.29l0.17-0.34c1.76-1.35,1.79-1.22,4.25-1.84C153.721,132.834,156.411,135.804,156.411,135.804z M150.841,137.733l0.81-0.1
		c0,0-0.26-1.72-0.89-1.37L150.841,137.733z"/>
	<path d="M151.651,137.634l-0.81,0.1l-0.08-1.47C151.391,135.914,151.651,137.634,151.651,137.634z"/>
	<path fill="#FFDCD2" d="M117.151,299.884c1-0.8,2.16-1.96,3.32-3.58c0,0,1.5-1,3.62-0.13c2.13,0.88,0.5,6.25,0.5,6.25l0.67,0.38
		c0,0-3.92,9.25-11.42,4.5c0,0-1.75-2-3.25-2.25c-0.23-0.04-0.47-0.05-0.74-0.05l-0.01-1.33c0,0,1.5-2.25,2.63-4.12
		c0.29-0.48,0.58-1.05,0.86-1.66l0.07,0.03c0,0,2.1,1.66,3.6,1.78L117.151,299.884z"/>
	<path fill="#FFDCD2" d="M118.091,287.424l-0.87,0.63c0,0-0.75,1.75-1.63,4.12c-0.65,1.77-1.44,3.95-2.26,5.72
		c-0.28,0.61-0.57,1.18-0.86,1.66c-1.13,1.87-2.63,4.12-2.63,4.12l0.01,1.33c-1.51,0-3.6,0.47-5.51,0.05c-2.25-0.5-1.5-2.5-3-2.75
		l0.63-0.5c0,0,0.81-2.63,2.81-6.75c2-4.13,3.53-7.28,3.53-7.28l-0.34-0.47c0,0,1.12-2.38,5-2.63
		C116.841,284.424,118.091,287.424,118.091,287.424z"/>
	<path fill="#FFF3D9" d="M113.841,262.554l0.07,0.88c-21.58,1.48-25.73,12.49-26.44,15.24c0-0.37,1.37-9-5.75-15.12
		c-7.13-6.13-24.13-9.88-29.75-13.88l0.18-0.69c4,1.061,15.2,3.82,27.19,4.82C94.341,255.054,113.841,262.554,113.841,262.554z"/>
	<path fill="#FFDCD2" d="M96.021,294.073l-0.05-0.02c-0.63-2.13-2.63-2.19-2.63-2.19s1.13-1.13,1.44-1.88
		c0.87-2.12,0.28-3.649,0.28-3.649l0.31-0.36c1.91,2.4,3.25,1.11,3.25,1.11s1.91-3.03,5-2.5c3.1,0.529,4.35,2.72,4.35,2.72
		l0.34,0.47c0,0-1.53,3.15-3.53,7.28c-2,4.12-2.81,6.75-2.81,6.75l-0.63,0.5c-1.81,0.62-5,0.5-7-1.75
		c-0.19-0.21-0.37-0.39-0.55-0.55l0.18-0.2C93.971,299.804,95.111,296.384,96.021,294.073z"/>
	<path fill="#FFDCD2" d="M95.971,294.054l0.05,0.02c-0.91,2.311-2.05,5.73-2.05,5.73l-0.18,0.2c-1.71-1.521-2.98-0.79-4.79-3.05
		c-2-2.5-3-6.75-3-6.75l1.84-6.4l0.5,0.12c2.5-0.37,3.88-1.811,6.63,1.5c0.14,0.2,0.27,0.38,0.4,0.55l-0.31,0.36
		c0,0,0.59,1.529-0.28,3.649c-0.31,0.75-1.44,1.88-1.44,1.88S95.341,291.924,95.971,294.054z"/>
	<path fill="#FFF3D9" d="M81.721,263.554c7.12,6.12,5.75,14.75,5.75,15.12c-0.1,0.399-0.13,0.63-0.13,0.63l-0.16,0.53
		c-1.38-0.4-2.83-1.29-4.09-3.03c-5.45-5.21-10.04-9.271-41-25.25l0.22-0.5l0.28,0.12l8-2.62c0,0,0.55,0.16,1.56,0.43l-0.18,0.69
		C57.591,253.674,74.591,257.424,81.721,263.554z"/>
</g>
<g id="line_4_">
	<path fill="none" stroke="#000000" stroke-width="3" stroke-linecap="round" stroke-linejoin="round" stroke-miterlimit="10" d="
		M170.78,102.47c-7.822,12.623-33.359,19.045-41.209,13.801c-7.851-5.242-11.419-13.969,4.414-22.074
		c0,0,0.916-21.416,21.282-23.021c0,0-7.854-6.373-3.502-13.934c4.354-7.561,34.458-15.629,44.758-1.553
		c0,0,1.521,8.531,0.139,12.166c0,0,7.201-0.438,12.857-6.695c0.859,5.77-5.477,10.117-5.477,10.117s11.613,4.676,16.043,22.98
		c4.961,19.721-12.055,43.117-12.055,43.117s1.92-6.885,0.619-12.057c-1.301-5.174-2.686-5.896-4.777-5.33
		c-3.424,0.906-3.971,6.07-3.971,6.07s-5.484-4.033-8.646-11.145C188.092,107.804,179.998,103.589,170.78,102.47z"/>
	<path fill="none" stroke="#000000" stroke-width="1.5" stroke-linecap="round" stroke-linejoin="round" stroke-miterlimit="10" d="
		M170.78,102.47c0,0,1.123-7.842-3.045-10.748c-4.167-2.904-9.38-1.078-10.303,3.451c-0.924,4.527,4.821,7.553,7.158,2.496"/>
	<path fill="none" stroke="#000000" stroke-width="1.5" stroke-linecap="round" stroke-linejoin="round" stroke-miterlimit="10" d="
		M155.983,71.388c11.277,1.543,27.802,4.012,39.886-3.223c0,0,5.209,2.627,9.838,4.848"/>
	<path fill="none" stroke="#000000" stroke-width="1.5" stroke-linecap="round" stroke-linejoin="round" stroke-miterlimit="10" d="
		M170.303,72.897c0,0,19.941-3.051,20.458-10.594c0.516-7.541-4.971-7.916-7.043-7.207c-2.074,0.709-4.133,5.307-0.801,6.914"/>
	<path fill="none" stroke="#000000" stroke-width="3" stroke-linecap="round" stroke-linejoin="round" stroke-miterlimit="10" d="
		M140.973,119.249c0,0-0.395,4.631,4.872,13.271c0.502,0.824,0.085,2.729,0.085,2.729l0.997,0.492c0,0,0.498,2.031,0.99,2.617
		c1.234,6.863-1.322,13.561,11.636,26.805c0,0,9.314,12.436,14.57,11.459c5.254-0.977,10.631-6.926,10.631-6.926
		s7.754-7.414,11.258-16.545"/>
	<path fill="none" stroke="#000000" stroke-width="3" stroke-linecap="round" stroke-linejoin="round" stroke-miterlimit="10" d="
		M208.426,136.718c0,0-1.43,3.883-4.016,4.533c0,0-1.09,1.004,1.514,12.721"/>
	<path fill="none" stroke="#000000" stroke-width="1.5" stroke-linecap="round" stroke-linejoin="round" stroke-miterlimit="10" d="
		M200.863,134.323c0,0-1.711,5.5,2.373,6.363"/>
	<path fill="none" stroke="#000000" stroke-width="2" stroke-linecap="round" stroke-linejoin="round" stroke-miterlimit="10" d="
		M166.327,121.836c0,0,8.837-7.13,18.06-1.111"/>
	<path fill="none" stroke="#000000" stroke-width="2" stroke-linecap="round" stroke-linejoin="round" stroke-miterlimit="10" d="
		M170.09,133.253c0,0,0.843-3.945,4.968-4.657c4.127-0.712,8.799,2.339,8.799,2.339"/>
	<path fill="none" stroke="#000000" stroke-linecap="round" stroke-linejoin="round" stroke-miterlimit="10" d="M183.857,130.935
		c0,0-9.348,7.162-13.767,2.318"/>
	<path fill="none" stroke="#000000" stroke-width="3" stroke-linecap="round" stroke-linejoin="round" stroke-miterlimit="10" d="
		M174.936,132.267c1.078-0.482,1.123,1.422,1.123,1.422l-1.371,0.283C174.688,133.972,173.857,132.751,174.936,132.267z"/>
	<path fill="none" stroke="#000000" stroke-width="2" stroke-linecap="round" stroke-linejoin="round" stroke-miterlimit="10" d="
		M149.977,124.179c0,0-5-1.74-7.1,2.215"/>
	<path fill="none" stroke="#000000" stroke-width="2" stroke-linecap="round" stroke-linejoin="round" stroke-miterlimit="10" d="
		M146.497,135.106c1.766-1.346,1.794-1.225,4.258-1.844c2.962-0.426,5.654,2.547,5.654,2.547"/>
	<path fill="none" stroke="#000000" stroke-linecap="round" stroke-linejoin="round" stroke-miterlimit="10" d="M156.986,136.153
		c0,0-6.06,4.775-9.216,1.186"/>
	<path fill="none" stroke="#000000" stroke-width="3" stroke-linecap="round" stroke-linejoin="round" stroke-miterlimit="10" d="
		M150.759,136.263c0.635-0.344,0.889,1.373,0.889,1.373l-0.803,0.104L150.759,136.263z"/>
	<path fill="none" stroke="#000000" stroke-width="1.5" stroke-linecap="round" stroke-linejoin="round" stroke-miterlimit="10" d="
		M154.103,126.233c0,0,2.125,1.785,3.767,5.238c1.643,3.455-1.307,19.406-1.307,19.406s3.28,3.814,5.584,3.752
		c2.303-0.064,2.453-1.004,2.453-1.004s-1.125-2.939,0.875-3.186c2.001-0.244,3.642,2.178,3.642,2.178s1.755-2.246,1.571-4.004
		c-0.185-1.758-2.792-1.875-2.792-1.875"/>
	<path fill="none" stroke="#000000" stroke-width="1.5" stroke-linecap="round" stroke-linejoin="round" stroke-miterlimit="10" d="
		M160.085,154.632c0,0-0.09,0.668-1.484,0.76c-1.395,0.094-2.095-1.664-2.095-1.664l0.785-2.002"/>
	<path fill="none" stroke="#000000" stroke-width="1.5" stroke-linecap="round" stroke-linejoin="round" stroke-miterlimit="10" d="
		M177.635,152.151c0,0,2.049,2.559,5.793,2.539"/>
	<path fill="none" stroke="#000000" stroke-width="1.5" stroke-linecap="round" stroke-linejoin="round" stroke-miterlimit="10" d="
		M159.112,160.548c0.513,1.527,10.583,4.666,19.74-6.123"/>
	<path fill="none" stroke="#000000" stroke-width="1.5" stroke-linecap="round" stroke-linejoin="round" stroke-miterlimit="10" d="
		M168.725,164.894c0,0,3.267,0.258,5.816-2.486"/>
	<path fill="none" stroke="#000000" stroke-width="3" stroke-linecap="round" stroke-linejoin="round" stroke-miterlimit="10" d="
		M206.092,154.179l5.502-0.375l2.332,3.668c0,0,6.541-1.043,10.916-0.793s8.418,1.459,13.418,1.793c5,0.332,3.666,4.332,3.666,4.332
		s21.666,8.334,11.334,66.334c-9.668,50.666-14.748,57.541-20.666,60.875s-20.334,13.791-57,14.791c-36.667,1-50.334-2-50.334-2
		s-3.917,9.25-11.417,4.5c0,0-1.75-2-3.25-2.25s-4,0.5-6.25,0s-1.5-2.5-3-2.75c-1.812,0.625-5,0.5-7-1.75s-3.344-1.094-5.344-3.594
		s-3-6.75-3-6.75l1.844-6.406c0,0-3-1-5.25-2.75s-3.25-4.5-14-10.75s-31.25-17-31.25-17l1-4l4.25,1.875l8-2.625
		c0,0,13.75,4,28.75,5.25s34.5,8.75,34.5,8.75s10.5-1,14.25-0.75c0,0,6.5-7.5,12-10.25c0,0,2.75-15.75,2-39.25s2.5-29.5,5.5-35
		l-0.5-2.75c0,0,5-3.5,8.25-4s6.5-2.25,6.5-2.25"/>
	<path fill="none" stroke="#000000" stroke-width="3" stroke-linecap="round" stroke-linejoin="round" stroke-miterlimit="10" d="
		M223.842,190.304c0,0-3.5,42.334-4.5,55.584l-2.959,22.75c0,0-5.041,2.791-14.291,6.666s-25.5,11-43.25,13c0,0-3.75,1-7-2.5
		s-7-1.875-17.375-3.875s-15.25,0.5-13.75,5.25l-2.625,0.25c0,0-1.25-3-5.125-2.75s-5,2.625-5,2.625s-1.25-2.188-4.344-2.719
		s-5,2.5-5,2.5s-1.531,1.469-3.656-1.656c-2.75-3.312-4.125-1.875-6.625-1.5"/>
	<path fill="none" stroke="#000000" stroke-width="1.5" stroke-linecap="round" stroke-linejoin="round" stroke-miterlimit="10" d="
		M95.061,286.335c0,0,0.594,1.531-0.281,3.656c-0.312,0.75-1.438,1.875-1.438,1.875s2,0.062,2.625,2.188"/>
	<path fill="none" stroke="#000000" stroke-width="1.5" stroke-linecap="round" stroke-linejoin="round" stroke-miterlimit="10" d="
		M93.967,299.804c0,0,1.75-5.25,2.625-7.125s2.562-5.25,2.562-5.25"/>
	<path fill="none" stroke="#000000" stroke-width="1.5" stroke-linecap="round" stroke-linejoin="round" stroke-miterlimit="10" d="
		M108.311,287.772c0,0-1.531,3.156-3.531,7.281s-2.812,6.75-2.812,6.75"/>
	<path fill="none" stroke="#000000" stroke-width="1.5" stroke-linecap="round" stroke-linejoin="round" stroke-miterlimit="10" d="
		M117.217,288.054c0,0-0.75,1.75-1.625,4.125s-2,5.5-3.125,7.375s-2.625,4.125-2.625,4.125"/>
	<path fill="none" stroke="#000000" stroke-width="1.5" stroke-linecap="round" stroke-linejoin="round" stroke-miterlimit="10" d="
		M113.405,297.929c0,0,2.094,1.656,3.594,1.781"/>
	<path fill="none" stroke="#000000" stroke-width="1.5" stroke-linecap="round" stroke-linejoin="round" stroke-miterlimit="10" d="
		M114.217,301.679c0,0,3.125-1,6.25-5.375c0,0,1.5-1,3.625-0.125s0.5,6.25,0.5,6.25"/>
	<path fill="none" stroke="#000000" stroke-width="1.5" stroke-linecap="round" stroke-linejoin="round" stroke-miterlimit="10" d="
		M121.448,287.325c0,0,1.271,1.354,4.27,1.979c4.625,0.875,7.375,1.688,9.75,2.688"/>
	<path fill="none" stroke="#000000" stroke-width="1.5" stroke-linecap="round" stroke-linejoin="round" stroke-miterlimit="10" d="
		M154.28,288.491c0,0,5.688,2.938,9.812,2.938"/>
	
		<path id="a_4_" fill="none" stroke="#000000" stroke-width="3" stroke-linecap="round" stroke-linejoin="round" stroke-miterlimit="10" d="
		M192.82,278.532l-7.729-1.979l-9.25-6.25c0,0-24.75-6.25-48.75-8.5"/>
	<path fill="none" stroke="#000000" stroke-width="1.5" stroke-linecap="round" stroke-linejoin="round" stroke-miterlimit="10" d="
		M186.092,277.554l-41-9.25l-52.25,11c0,0-5.75,3-9.75-2.5c-5.453-5.205-10.042-9.271-41-25.25"/>
	<path fill="none" stroke="#000000" stroke-width="1.5" stroke-linecap="round" stroke-linejoin="round" stroke-miterlimit="10" d="
		M87.342,279.304c0,0,1.875-14.25,26.75-15.875"/>
	<path fill="none" stroke="#000000" stroke-width="1.5" stroke-linecap="round" stroke-linejoin="round" stroke-miterlimit="10" d="
		M87.467,278.679c0-0.375,1.375-9-5.75-15.125s-24.125-9.875-29.75-13.875"/>
	<path fill="none" stroke="#000000" stroke-width="3" stroke-linecap="round" stroke-linejoin="round" stroke-miterlimit="10" d="
		M163.092,266.804c0,0,4.25-5.875,5.25-12.25s-1-16.312-1-16.312s3.188,5.625,12.812,10.75c9.188,6.812,17.438,14.562,30.688,22.312
		"/>
	
		<path id="aaaa_1_" fill="none" stroke="#000000" stroke-width="1.5" stroke-linecap="round" stroke-linejoin="round" stroke-miterlimit="10" d="
		M140.092,251.554c0,0,10.25-1.25,14.75,1.75"/>
	<path fill="none" stroke="#000000" stroke-width="1.5" stroke-linecap="round" stroke-linejoin="round" stroke-miterlimit="10" d="
		M147.592,177.304c10,13.25,12.938,31.312,12.938,31.312c1.25,19.5,3.312,22.188,7.062,28.688"/>
	<path fill="none" stroke="#000000" stroke-width="1.5" stroke-linecap="round" stroke-linejoin="round" stroke-miterlimit="10" d="
		M164.342,172.054c0,0,6.5,16.5,9,28.5c4.625,13.125,3.287,20.266,8.787,30.338c5.5,10.074,8.963,12.318,12.24,14.662
		c4.805,8.432,10.484,13.98,19.244,23.586"/>
	<path fill="none" stroke="#000000" stroke-width="1.5" stroke-linecap="round" stroke-linejoin="round" stroke-miterlimit="10" d="
		M174.154,202.991c0,0-6.312-10.438-7.812-7.188s-2,7.5-2,7.5s1.875-13.625-0.5-19.25s-5-13.75-5-13.75"/>
	<path fill="none" stroke="#000000" stroke-width="1.5" stroke-linecap="round" stroke-linejoin="round" stroke-miterlimit="10" d="
		M205.842,154.304c0,0-10.375,13.375-13.875,22.375s-6.375,16.125-6.875,21.625c-0.75,7-7.875,7-8.625,13.75"/>
	<path fill="none" stroke="#000000" stroke-width="1.5" stroke-linecap="round" stroke-linejoin="round" stroke-miterlimit="10" d="
		M183.686,202.335c0,0,3.406-2.531,6.656-3.781s3.75,3.25,5,7.75s4.25-16.875,6.25-26.25s5.168-14.416,12.334-22.582"/>
	<path fill="none" stroke="#000000" stroke-width="1.5" stroke-linecap="round" stroke-linejoin="round" stroke-miterlimit="10" d="
		M222.217,202.179c0,0-2.375-3.125-1.25-14.625s6.125-21.375,20-24.75"/>
	<path fill="none" stroke="#000000" stroke-width="3" stroke-linecap="round" stroke-linejoin="round" stroke-miterlimit="10" d="
		M243.092,278.054c0,0,30.332,0.25,47.832-3.75s14.793-7.875,14.043-10.875s-2.375-1.459-1.375-8.959s2.75-10.416-1.5-19.416
		c-1.75-5,0.75-12.75-10-21.25s-24.5-8.375-24.5-8.375"/>
	<path fill="none" stroke="#000000" stroke-width="3" stroke-linecap="round" stroke-linejoin="round" stroke-miterlimit="10" d="
		M286.508,222.22c-20.25-13.082-29.584-30.75-31.584-37.75"/>
	<path fill="none" stroke="#000000" stroke-width="3" stroke-linecap="round" stroke-linejoin="round" stroke-miterlimit="10" d="
		M405.424,222.304c-6.166-6.166-16.248-7.832-32.166-10.832s-24.164-8.002-35.416-11.668c-11.25-3.666-26.123-6.625-37.209-5.291
		c-11.084,1.334-19.541,2.148-34.541,9.398"/>
	<path fill="none" stroke="#000000" stroke-width="3" stroke-linecap="round" stroke-linejoin="round" stroke-miterlimit="10" d="
		M304.842,194.304c0,0,6.25-15.5,20-35.75s26.75-35.5,29.75-42.25s13.25-21.75,13.25-21.75s6-11,7.75-15.5s2-8.25,6.75-8
		s10.5,2.75,14.25,7.25s10.25,10,3.5,14.5s-14.75,13.5-20,19.5s-22,36.75-27.25,52.5s-6.164,30-10.914,36.25"/>
	<path fill="none" stroke="#000000" stroke-width="3" stroke-linecap="round" stroke-linejoin="round" stroke-miterlimit="10" d="
		M306.594,266.472c0,0,24.67-1.332,66.666-13c41.998-11.666,46-17.334,45.668-39.334c-0.334-22-8-38.668-15.336-56.334
		c-7.334-17.666-11.334-27.998-12.33-45.998c0.23-5.596-0.35-9.07-0.721-10.654"/>
	<path fill="none" stroke="#000000" stroke-width="3" stroke-linecap="round" stroke-linejoin="round" stroke-miterlimit="10" d="
		M370.594,89.005c-9.252-3.701-19.809-1.605-20.252,3.049c-0.438,4.594,6.41,9.008,10.184,13.268"/>
	<path fill="none" stroke="#000000" stroke-width="3" stroke-linecap="round" stroke-linejoin="round" stroke-miterlimit="10" d="
		M372.088,126.636c0.773,2.396,1.102,4.359,2.004,7.668c5.25,19.25,4.25,34,5.5,48.25c1.248,14.252,3.125,30.918,3.125,30.918"/>
	<path fill="none" stroke="#000000" stroke-width="1.5" stroke-linecap="round" stroke-linejoin="round" stroke-miterlimit="10" d="
		M379.592,182.554c0,0,21.5-6,34.25,1"/>
	<path fill="none" stroke="#000000" stroke-width="1.5" stroke-linecap="round" stroke-linejoin="round" stroke-miterlimit="10" d="
		M390.842,114.304c0,0-1.25,5.5-5.25,5.75s-5.25-3-8.875-2.625"/>
	<path fill="none" stroke="#000000" stroke-width="1.5" stroke-linecap="round" stroke-linejoin="round" stroke-miterlimit="10" d="
		M321.592,164.554c0,0,18.25-1.75,27.5,8.5"/>
	<path fill="none" stroke="#000000" stroke-width="1.5" stroke-linecap="round" stroke-linejoin="round" stroke-miterlimit="10" d="
		M368.342,95.804c0,0,1.084,7,3.25,9c2.168,2,6,3.834,14-0.166"/>
</g>
</svg>
