<?xml version="1.0" encoding="utf-8"?>
<!-- Generator: Adobe Illustrator 16.0.0, SVG Export Plug-In . SVG Version: 6.00 Build 0)  -->
<!DOCTYPE svg PUBLIC "-//W3C//DTD SVG 1.1//EN" "http://www.w3.org/Graphics/SVG/1.1/DTD/svg11.dtd">
<svg version="1.1" id="Layer_1" xmlns="http://www.w3.org/2000/svg" xmlns:xlink="http://www.w3.org/1999/xlink" x="0px" y="0px"
	 width="661.439px" height="623.62px" viewBox="0 0 661.439 623.62" enable-background="new 0 0 661.439 623.62"
	 xml:space="preserve">
<g>
	<path fill="#FFFFFF" d="M578.912,364.466l22.199,0.19h0.011c3.92,0.27,7.55,0.08,7.55,0.08c0.17,0,0.33,0,0.5-0.01h0.06l20.44,0.17
		l-1.45,238.79l-597.79,0.05l0.9-239.5l341.56-0.8h0.21c7.17,0.21,18.03,0.109,28.13-0.061l59.101-0.14h8.67
		c0,0-0.011-0.271-0.021-0.75h0.021c1.1,16.41,5.29,32.87,7.93,46.91c1.11,5.93,2.83,10.91,4.67,16.89
		c2.5,8.18,5.25,18.19,6.98,34.95c3,29,2.09,38-2.24,48.33c-1.25,2.97-2.58,5.47-3.851,7.67c-3.17,5.46-6.01,9.05-6.489,13.33
		c-0.66,6,4.34,7,18.34,7.67s10,2.33,14,0.67c4-1.67,3-4.67,3.33-12.34c0.13-2.87,0.439-5.69,0.729-9.05
		c0.48-5.61,0.9-12.69,0.271-23.95c0,0,1.24-25.32,3.33-43c0.93-7.84,2.47-14.82,3.76-22.28c1.61-9.35,2.83-19.439,2-32.89l0.1-0.04
		c0.601,1.51,1.2,3.02,1.811,4.55c8.46,21.14,10.59,37.05,10.95,46.34c0.229,6.08-0.29,9.32-0.29,9.32s0.01,6.67,8.01,16.67
		s5.66,18.33,10.33,20.67c4.67,2.33,24.33-3.67,30.67-7c6.33-3.34,2-11.67-2.67-12.34c-0.45-0.061-0.88-0.19-1.32-0.38
		c-4.13-1.8-7.89-9.351-13.01-22.62c-5.67-14.66-8-3.66-13.34-55.33c-0.86-12.03-1.54-21.13-2.09-28.03
		c-0.641-8.109-1.091-13.16-1.41-16.31c0.859,5.26,2.67,12.67,6,12.67c5.17,0,16-0.5,16-0.5c2.5,0.59,5.13,0.75,7.42,0.75
		L578.912,364.466z"/>
	<path fill="#FFDCD2" d="M610.502,359.566c3.5,0.67,3.67,4.5,3.67,4.5s-2.46,0.58-4.94,0.66h-0.06l-1.71-0.021v-0.29
		c1.92,0,0.56-3.399-2.79-4.52c-3.5-1.16-5.5-2.5-8.84-4.33c-3.33-1.83-11.33-2.83-11.33-2.83l0.029-0.561
		c5.12,0.28,8.9,0.29,11.221,0.811C599.832,353.896,604.832,356.566,610.502,359.566z"/>
	<path fill="#FFDCD2" d="M607.462,364.416v0.29l-6.34-0.05h-0.011c-1.27-0.09-2.56-0.22-3.779-0.42c-5-0.83-1.66-2.67-10.5-3.33
		c0,0-0.16,2.5-2.5,2.66c-1.16,0.09-3.12,0.25-5.41,0.25s-4.92-0.16-7.42-0.75c0,0-10.83,0.5-16,0.5c-3.33,0-5.141-7.41-6-12.67
		c0.01-0.01,0.01-0.021,0-0.021c-0.551-5.58-0.67-5.14-0.67-5.14s-2.25-20.25-10.25-37.5l-4.25-9.75c0,0-3.25-21-3.5-29.25
		s-2.25-27.5-2.25-27.5s4.17-4.75,5.71-13.71c1.09-6.34-0.261-14.62-1.141-18.92l0.181-0.04c0,0,1.43-17.99,2.43-24.08
		s2.32-18.75,7.32-19.75l0.97-0.16l0.03,0.16c0,0,9.25,10.75,10,54.75c0,0-1.75,21-0.5,29.25s3,36,2.75,63.25
		c0.43,17.08,1.75,36.25,14.25,38.25c5.399,0.86,10.06,1.229,13.949,1.439l-0.029,0.561c0,0,8,1,11.33,2.83
		c3.34,1.83,5.34,3.17,8.84,4.33C608.021,361.017,609.382,364.416,607.462,364.416z"/>
	<path fill="#962929" d="M580.672,473.566c4.67,0.67,9,9,2.67,12.34c-6.34,3.33-26,9.33-30.67,7c-4.67-2.34-2.33-10.67-10.33-20.67
		s-8.01-16.67-8.01-16.67s0.52-3.24,0.29-9.32l0.46-0.01c0,0,4.75,9.25,8,17.25s5.5,18,12.5,17.75s13.25-0.25,23.5-7.5l0.27-0.55
		C579.792,473.376,580.222,473.506,580.672,473.566z"/>
	<path fill="#FFDCD2" d="M579.352,473.187l-0.27,0.55c-10.25,7.25-16.5,7.25-23.5,7.5s-9.25-9.75-12.5-17.75s-8-17.25-8-17.25
		l-0.46,0.01c-0.36-9.29-2.49-25.2-10.95-46.34c-0.61-1.53-1.21-3.04-1.811-4.55c-2.87-7.26-5.56-14.29-8.02-20.851
		c4,0.091,22.939,0.07,36.74-7.27l0.33-0.03c0.55,6.9,1.229,16,2.09,28.03c5.34,51.67,7.67,40.67,13.34,55.33
		C571.462,463.836,575.222,471.387,579.352,473.187z"/>
	<path fill="#C18C52" d="M550.912,367.206l-0.33,0.03c-13.801,7.34-32.74,7.36-36.74,7.27c-8.75-23.319-14.51-40.6-14.51-40.6
		s-9.66-1-21.66,5.33c-8.36,6.4-8.73,19.92-8.69,23.25c0.01,0.479,0.021,0.75,0.021,0.75h-8.67h-5.99
		c-12.01-0.37-18.21-8.17-21.101-15.32c0-0.01,0-0.01,0-0.02c-1.979-5.17-2.409-10.91-2.409-10.91s-1.65-17.25,6.6-35
		c2.91-6.27,5.75-11.28,11.08-15.77l0.01,0.01c4.351-2.29,14.29-5.08,36.311-5.24c4.05-0.03,7.75,0.02,11.14,0.15
		c14.64,0.57,23.43,2.65,29.19,6.27c4.42,2.78,7.05,6.47,9.17,11.08l4.25,9.75c8,17.25,10.25,37.5,10.25,37.5s0.189,2.24,0.67,5.14
		c0.01,0,0.01,0.011,0,0.021C549.821,354.046,550.271,359.097,550.912,367.206z"/>
	<path fill="#BA3E2A" d="M500.342,78.996c-8.67,3.34-15,11.34-16.34,19c-1.33,7.67-5.66,12.92-5.66,12.92s-1.8-4.88-5.34-4.92
		c-2.16-0.04-3.33,1-3.33,6.34c0,5.33,3.54,11.54,3.54,11.54s-0.141-0.11-0.391-0.33h-0.01c-3-2.63-21.81-19.83-21.81-38.55
		c-0.12-13.58,5.109-21.19,8.04-24.39l0.729,0.28c3.95-3.28,8.36-7.1,8.36-7.1c13.479,4.07,28.899-2.36,39.46-6.6l0.649-0.38
		c20.141-3.41,25.761,15.19,25.761,15.19c17.34,4,16,13.34,9.67,20.34c-1.96,2.16-5.82,3.65-10.53,4.38
		C522.571,88.356,507.712,86.146,500.342,78.996z"/>
	<path fill="#2B3754" d="M533.151,209.106c0.88,4.3,2.23,12.58,1.141,18.92c-1.54,8.96-5.71,13.71-5.71,13.71
		c-2.08,5.17-3.08,11.33-3.08,21.33s0.34,12.34,2.17,17.84c-1.67,6.66-2.5,6.49-2.5,6.49l-0.01,0.01
		c-5.761-3.62-14.551-5.7-29.19-6.27l0.03-0.57c-2-9-4.08-30.58,1.25-39.25c6-6.67,6.5-16,6.17-24.66
		c-0.34-8.67-0.17-18.59-0.42-23.67c-0.03-0.66-0.15-1.41-0.34-2.24c-0.391-5.55,0.71-9.91,2.06-13.02l0.03,0.01
		c0,0,6.5-7,7.75-4.25c1.199,2.64,0.319,8.45,0.26,8.89c0.29-0.9,6.86-21.51,8.38-28.88l0.07-0.22c2.85,1.28,14.71,6.55,22.37,8.96
		l0.47,2.84l-0.97,0.16c-5,1-6.32,13.66-7.32,19.75s-2.43,24.08-2.43,24.08L533.151,209.106z"/>
	<path fill="#FFDCD2" d="M513.762,153.606l-0.01,0.13c-2.58,8.17-4.25,17-6,19c-0.771,0.87-1.98,2.55-3.03,4.99
		c-1.35,3.11-2.45,7.47-2.06,13.02c-0.641-2.86-2.061-6.51-3.29-9.36c-1.141-2.67-2.12-4.65-2.12-4.65
		c-11.521-8.39-21.61-21.62-25.48-27.01l0.23-0.16c0,0,5.25-1.58,7.08-3.08c1.6-1.31,1.619-5.72,1.59-6.83l-0.67,0.01
		c-0.33-12-2.33-12.92-2.33-12.92c-2.271,0-4.29-2.46-4.851-3.2c0.25,0.22,0.391,0.33,0.391,0.33s-3.54-6.21-3.54-11.54
		c0-5.34,1.17-6.38,3.33-6.34c3.54,0.04,5.34,4.92,5.34,4.92s4.33-5.25,5.66-12.92c1.34-7.66,7.67-15.66,16.34-19
		c7.37,7.15,22.229,9.36,32.8,7.72l0.2,1.28c0,0,1.01,3.22,0.51,8.56c-0.2,2.16-0.64,4.66-1.51,7.44c-0.29,0.93,0.58,2.67,0.58,2.67
		l-0.34,0.29l-0.25-0.29c-2.04-0.88-2.54-2.75-5.08-2.75c-2.971,0.31-4.36,5.85-4.36,5.85l-0.1,0.56c1.42,0.29,6.54,1.15,8.85-1.19
		l0.33,0.05c-0.04,0.4-0.11,0.76-0.22,0.98c0.479,6.96,4.59,12.83-4.75,28.83c0,0-4.59,10.98-9.311,13.94
		c-0.68,0.43-1.359,0.69-2.02,0.73C515.052,153.706,514.412,153.676,513.762,153.606z M495.082,111.736c0,0,11.14,3,13.92-1.11
		c0,0-2.96-5.42-7.13-5.11C497.691,105.836,495.082,111.736,495.082,111.736z"/>
	<path fill="#FFFFFF" d="M532.332,106.667l0.25,0.29l-0.511,0.43c0,0,0,0.97-0.1,1.8l-0.33-0.05c-2.31,2.34-7.43,1.48-8.85,1.19
		l0.1-0.56c0,0,1.39-5.54,4.36-5.85C529.792,103.917,530.292,105.786,532.332,106.667z M526.852,109.256
		c0.78,0.26,0.26-2.7,0.26-2.7C526.231,106.276,526.082,108.996,526.852,109.256z"/>
	<path d="M527.111,106.556c0,0,0.521,2.96-0.26,2.7C526.082,108.996,526.231,106.276,527.111,106.556z"/>
	<path fill="#C18C52" d="M513.842,374.506c2.46,6.561,5.149,13.591,8.02,20.851l-0.1,0.04c0.83,13.45-0.39,23.54-2,32.89l-0.33-0.05
		c-23.5,5.5-37.67-2-37.67-2l-0.16,0.05c-1.84-5.979-3.56-10.96-4.67-16.89c-2.64-14.04-6.83-30.5-7.93-46.91h-0.021
		c-0.04-3.33,0.33-16.85,8.69-23.25c12-6.33,21.66-5.33,21.66-5.33S505.092,351.187,513.842,374.506z"/>
	<path fill="#2B3754" d="M521.212,153.276l-0.07,0.22c-1.52,7.37-8.09,27.98-8.38,28.88c0.06-0.44,0.939-6.25-0.26-8.89
		c-1.25-2.75-7.75,4.25-7.75,4.25l-0.03-0.01c1.05-2.44,2.26-4.12,3.03-4.99c1.75-2,3.42-10.83,6-19l0.01-0.13
		c0.65,0.07,1.29,0.1,1.91,0.06c0.66-0.04,1.34-0.3,2.02-0.73l2.891,0.05C520.582,152.986,520.802,153.086,521.212,153.276z"/>
	<path fill="#FFDCD2" d="M519.432,428.236l0.33,0.05c-1.29,7.46-2.83,14.44-3.76,22.28c-2.09,17.68-3.33,43-3.33,43
		c0.63,11.26,0.21,18.34-0.271,23.95l-0.319-0.03c-3.25,11.5-8,9.5-8,9.5c-10.75-5-17.25-2.5-19.75-3.25s-1-6-1-6l-0.841-0.5
		c1.271-2.2,2.601-4.7,3.851-7.67c4.33-10.33,5.24-19.33,2.24-48.33c-1.73-16.76-4.48-26.771-6.98-34.95l0.16-0.05
		C481.762,426.236,495.932,433.736,519.432,428.236z"/>
	<path fill="#962929" d="M512.082,517.486l0.319,0.03c-0.29,3.359-0.6,6.18-0.729,9.05c-0.33,7.67,0.67,10.67-3.33,12.34
		c-4,1.66,0,0-14-0.67s-19-1.67-18.34-7.67c0.479-4.28,3.319-7.87,6.489-13.33l0.841,0.5c0,0-1.5,5.25,1,6s9-1.75,19.75,3.25
		C504.082,526.986,508.832,528.986,512.082,517.486z"/>
	<path fill="#BA3E2A" d="M508.231,32.436c6.07,6.27,0.01,14.37,0.01,14.37l-0.649,0.38c-10.561,4.24-25.98,10.67-39.46,6.6
		c0,0-4.41,3.82-8.36,7.1l-0.729-0.28c1.13-1.24,1.92-1.81,1.92-1.81s-7.21-2.67-7.78-8.47c7.01,4.68,14.1,3.35,14.1,3.35
		c-2.229-3.18-2.83-11.83-2.83-11.83C471.002,25.686,502.172,26.167,508.231,32.436z"/>
	<path fill="#2B3754" d="M502.662,190.746c0.189,0.83,0.31,1.58,0.34,2.24c0.25,5.08,0.08,15,0.42,23.67
		c0.33,8.66-0.17,17.99-6.17,24.66c-5.33,8.67-3.25,30.25-1.25,39.25l-0.03,0.57c-3.39-0.13-7.09-0.18-11.14-0.15
		c-22.021,0.16-31.96,2.95-36.311,5.24l-0.01-0.01c0.07-0.06,0.14-0.12,0.22-0.18c1.67-6.28,3.28-11.06,3.601-17.8
		c0.5-10.5,1.25-30.5,1.25-30.5s-5.75-12.25-2.25-34l-0.75-0.25c0,0-1.5-24.75-13.75-41.25h-0.83l0.33-4.33c0,0,6.43-3.34,12.34-5
		c3.689-1.04,7.649-1.95,10.1-2.49l2.4,0.07c12,17.92,22.83,30.92,23.33,34.42c0,0,3.88-10.3,6.88-9.55
		c2.91,0.73,7.6,5.76,7.899,6.07l0.091-0.04C500.602,184.236,502.021,187.886,502.662,190.746z"/>
	<path fill="#FFFFFF" d="M509.002,110.626c-2.78,4.11-13.92,1.11-13.92,1.11s2.609-5.9,6.79-6.22
		C506.042,105.206,509.002,110.626,509.002,110.626z M502.031,110.976c1.32,0.44,0.521-2.97,0.521-2.97
		C501.062,107.526,500.712,110.536,502.031,110.976z"/>
	<path d="M502.552,108.006c0,0,0.8,3.41-0.521,2.97C500.712,110.536,501.062,107.526,502.552,108.006z"/>
	<path fill="#2B3754" d="M471.771,149.726c3.87,5.39,13.96,18.62,25.48,27.01c0,0,0.979,1.98,2.12,4.65l-0.091,0.04
		c-0.3-0.31-4.989-5.34-7.899-6.07c-3-0.75-6.88,9.55-6.88,9.55c-0.5-3.5-11.33-16.5-23.33-34.42l-2.4-0.07
		c1.47-0.32,2.4-0.51,2.4-0.51s3-5.67,5.16-6.5c2.34,0.16,13.67-3.74,13.67-3.74l0.67-0.01c0.029,1.11,0.01,5.52-1.59,6.83
		c-1.83,1.5-7.08,3.08-7.08,3.08L471.771,149.726z"/>
	<path fill="#FFDCD2" d="M433.241,347.916c-0.649,2.83-1.909,6.561-1.909,8.57c0,3.75-4.25,6.25-4.25,6.25s-12.24,0.39-25.851,0.64
		l-28.13,0.061h-0.21c-4.82-0.16-7.93-0.45-7.93-0.95c0-2.25,0.43-3.97,5.09-4.3c0.5-2.67,5.55-1.62,11.45-3.29
		c5.899-1.66,7.17-1.66,13.5-1.99c6.33-0.34,16-4,19.33-5.67c5.93-3.67,6.77-12.34,6.1-44.33c-1.33-33.67,5.24-45.67,6.57-50.34
		c1.33-4.66,1.67-2.33-0.33-41.33s9.33-49,9.33-49h0.83c12.25,16.5,13.75,41.25,13.75,41.25l0.75,0.25c-3.5,21.75,2.25,34,2.25,34
		s-0.75,20-1.25,30.5c-0.32,6.74-1.931,11.52-3.601,17.8c-0.08,0.06-0.149,0.12-0.22,0.18c-5.33,4.49-8.17,9.5-11.08,15.77
		c-8.25,17.75-6.6,35-6.6,35s0.43,5.74,2.409,10.91C433.241,347.906,433.241,347.906,433.241,347.916z"/>
</g>
<g id="line_5_">
	<path fill="none" stroke="#000000" stroke-width="3" stroke-linecap="round" stroke-linejoin="round" stroke-miterlimit="10" d="
		M500.338,79.001c10.666,10.334,36.998,10.334,43.332,3.334s7.667-16.333-9.666-20.333c0,0-5.623-18.607-25.766-15.195
		c0,0,6.062-8.097-0.003-14.367c-6.065-6.271-37.229-6.754-43.784,9.41c0,0,0.605,8.645,2.832,11.832c0,0-7.091,1.332-14.102-3.357
		c0.573,5.807,7.778,8.477,7.778,8.477s-10.123,7.368-9.955,26.2c0,20.333,22.208,38.874,22.208,38.874s-3.542-6.208-3.542-11.541
		s1.167-6.375,3.333-6.333c3.541,0.042,5.333,4.917,5.333,4.917s4.334-5.25,5.667-12.917S491.671,82.334,500.338,79.001z"/>
	<path fill="none" stroke="#000000" stroke-width="1.5" stroke-linecap="round" stroke-linejoin="round" stroke-miterlimit="10" d="
		M500.338,79.001c0,0-3.001-7.332,0.332-11.166s8.834-3.334,10.834,0.833s-2.834,8.501-6.334,4.167"/>
	<path fill="none" stroke="#000000" stroke-width="1.5" stroke-linecap="round" stroke-linejoin="round" stroke-miterlimit="10" d="
		M507.596,47.188c-10.561,4.246-25.984,10.672-39.469,6.602c0,0-4.41,3.818-8.358,7.102"/>
	<path fill="none" stroke="#000000" stroke-width="1.5" stroke-linecap="round" stroke-linejoin="round" stroke-miterlimit="10" d="
		M494.076,52.143c0,0-20.083,1.906-22.424-5.283c-2.34-7.188,2.889-8.889,5.072-8.707s5.301,4.139,2.461,6.51"/>
	<path fill="none" stroke="#000000" stroke-width="3" stroke-linecap="round" stroke-linejoin="round" stroke-miterlimit="10" d="
		M533.337,88.002c0,0,2,6.334-1,16c-0.286,0.923,0.583,2.666,0.583,2.666l-0.847,0.722c0,0,0.013,2.091-0.322,2.778
		c0.477,6.957,4.59,12.828-4.747,28.834c0,0-6.001,14.332-11.334,14.666s-12-4.125-12-4.125s-9.327-5.297-14.952-13.297"/>
	<path fill="none" stroke="#000000" stroke-width="3" stroke-linecap="round" stroke-linejoin="round" stroke-miterlimit="10" d="
		M472.67,123.335c0,0,2.333,3.417,5,3.417c0,0,2.001,0.916,2.334,12.916"/>
	<path fill="none" stroke="#000000" stroke-width="1.5" stroke-linecap="round" stroke-linejoin="round" stroke-miterlimit="10" d="
		M479.42,119.168c0,0,3,4.917-0.75,6.75"/>
	<path fill="none" stroke="#000000" stroke-width="2" stroke-linecap="round" stroke-linejoin="round" stroke-miterlimit="10" d="
		M510.462,98.418c0,0-9.25-7.375-18.125,1.5"/>
	<path fill="none" stroke="#000000" stroke-width="2" stroke-linecap="round" stroke-linejoin="round" stroke-miterlimit="10" d="
		M509.003,110.626c0,0-2.957-5.418-7.132-5.102c-4.176,0.316-6.785,6.21-6.785,6.21"/>
	<path fill="none" stroke="#000000" stroke-linecap="round" stroke-linejoin="round" stroke-miterlimit="10" d="M495.086,111.735
		c0,0,11.133,3.008,13.917-1.108"/>
	<path fill="none" stroke="#000000" stroke-width="3" stroke-linecap="round" stroke-linejoin="round" stroke-miterlimit="10" d="
		M502.555,108.008c-1.494-0.477-1.844,2.529-0.521,2.968C503.356,111.417,502.555,108.008,502.555,108.008z"/>
	<path fill="none" stroke="#000000" stroke-width="2" stroke-linecap="round" stroke-linejoin="round" stroke-miterlimit="10" d="
		M526.295,96.918c0,0,4.375-4.5,7.75-0.125"/>
	<path fill="none" stroke="#000000" stroke-width="2" stroke-linecap="round" stroke-linejoin="round" stroke-miterlimit="10" d="
		M532.336,106.668c-2.041-0.875-2.541-2.75-5.082-2.75c-2.976,0.311-4.359,5.85-4.359,5.85"/>
	<path fill="none" stroke="#000000" stroke-linecap="round" stroke-linejoin="round" stroke-miterlimit="10" d="M522.419,110.244
		c0,0,6.536,1.625,9.227-1.101"/>
	<path fill="none" stroke="#000000" stroke-width="3" stroke-linecap="round" stroke-linejoin="round" stroke-miterlimit="10" d="
		M527.107,106.555c-0.88-0.275-1.03,2.446-0.252,2.706C527.635,109.521,527.107,106.555,527.107,106.555z"/>
	<path fill="none" stroke="#000000" stroke-width="1.5" stroke-linecap="round" stroke-linejoin="round" stroke-miterlimit="10" d="
		M522.795,99.918c0,0-1.625,2.25-2.375,6s6,18.5,6,18.5s-2.25,4.5-4.5,5s-2.625-0.375-2.625-0.375s0.375-3.125-1.625-2.875s-3,3-3,3
		s-2.25-1.75-2.5-3.5s2.25-2.5,2.25-2.5"/>
	<path fill="none" stroke="#000000" stroke-width="1.5" stroke-linecap="round" stroke-linejoin="round" stroke-miterlimit="10" d="
		M523.92,128.918c0,0,0.25,0.625,1.625,0.375s1.625-2.125,1.625-2.125l-1.25-1.75"/>
	<path fill="none" stroke="#000000" stroke-width="1.5" stroke-linecap="round" stroke-linejoin="round" stroke-miterlimit="10" d="
		M506.295,130.793c0,0-1.363,2.981-5,3.875"/>
	<path fill="none" stroke="#000000" stroke-width="1.5" stroke-linecap="round" stroke-linejoin="round" stroke-miterlimit="10" d="
		M526.307,134.418c-0.125,1.606-9.125,7.106-20.637-1.125"/>
	<path fill="none" stroke="#000000" stroke-width="1.5" stroke-linecap="round" stroke-linejoin="round" stroke-miterlimit="10" d="
		M518.044,140.977c0,0-3.106,1.047-6.248-0.991"/>
	<path fill="none" stroke="#000000" stroke-width="3" stroke-linecap="round" stroke-linejoin="round" stroke-miterlimit="10" d="
		M480.004,139.668c0,0-11.335,3.904-13.668,3.737c-2.167,0.834-5.167,6.499-5.167,6.499s-6.595,1.339-12.499,3s-12.334,5-12.334,5
		l-0.334,4.333c0,0-11.333,10-9.333,49s1.666,36.668,0.333,41.334s-7.903,16.666-6.57,50.333
		c0.666,31.999-0.167,40.661-6.097,44.333c-3.334,1.667-13,5.334-19.333,5.667s-7.598,0.337-13.501,1.999
		s-10.948,0.617-11.448,3.284c-4.666,0.333-5.093,2.05-5.093,4.3s62.125,0.25,62.125,0.25s4.25-2.5,4.25-6.25
		c0-2.009,1.262-5.755,1.909-8.588c-1.98-5.167-2.409-10.912-2.409-10.912s-1.654-17.25,6.596-35
		c2.954-6.355,5.833-11.421,11.304-15.95c1.666-6.276,3.279-11.06,3.601-17.8c0.5-10.5,1.25-30.5,1.25-30.5s-5.752-12.25-2.252-34"
		/>
	<path fill="none" stroke="#000000" stroke-width="1.5" stroke-linecap="round" stroke-linejoin="round" stroke-miterlimit="10" d="
		M374.585,362.738c0,0-4.5-1-4-4"/>
	<path fill="none" stroke="#000000" stroke-width="1.5" stroke-linecap="round" stroke-linejoin="round" stroke-miterlimit="10" d="
		M392.085,361.488c-0.25-2.75,1.5-3.5,5.75-4.5s4.75-2,7.75-0.75"/>
	<path fill="none" stroke="#000000" stroke-width="1.5" stroke-linecap="round" stroke-linejoin="round" stroke-miterlimit="10" d="
		M450.585,203.488c0,0-1.5-24.75-13.75-41.25"/>
	<path fill="none" stroke="#000000" stroke-width="3" stroke-linecap="round" stroke-linejoin="round" stroke-miterlimit="10" d="
		M520.585,152.988c0,0,14.25,6.5,23,9.25l0.5,3c0,0,9.25,10.75,10,54.75c0,0-1.75,21-0.5,29.25s3,36,2.75,63.25
		c0.431,17.077,1.75,36.249,14.25,38.249s21.081,1.336,25.166,2.251s9.085,3.582,14.751,6.584c3.5,0.667,3.667,4.498,3.667,4.498
		s-2.833,0.669-5.5,0.669c0,0-6.333,0.334-11.333-0.5s-1.666-2.668-10.5-3.334c0,0-0.166,2.5-2.5,2.667s-7.834,0.667-12.834-0.5
		c0,0-10.834,0.5-16,0.5s-6.667-17.834-6.667-17.834s-2.25-20.25-10.25-37.5l-4.25-9.75c0,0-3.25-21-3.5-29.25s-2.25-27.5-2.25-27.5
		s4.165-4.746,5.706-13.706c1.541-8.959-1.792-21.793-1.792-21.793"/>
	<path fill="none" stroke="#000000" stroke-width="1.5" stroke-linecap="round" stroke-linejoin="round" stroke-miterlimit="10" d="
		M586.67,360.07c-0.833-1.333-3.667-1.167-5.834-2.333s-4.5-3-4.5-3l-3.667-0.5"/>
	<path fill="none" stroke="#000000" stroke-width="1.5" stroke-linecap="round" stroke-linejoin="round" stroke-miterlimit="10" d="
		M584.503,352.737c0,0,7.999,1,11.333,2.833s5.334,3.166,8.834,4.333s4.834,4.833,2.5,4.5"/>
	<path fill="none" stroke="#000000" stroke-width="3" stroke-linecap="round" stroke-linejoin="round" stroke-miterlimit="10" d="
		M448.518,286.233c4.351-2.296,14.298-5.088,36.317-5.245c35-0.25,44,5.5,49.5,17.5"/>
	<path fill="none" stroke="#000000" stroke-width="3" stroke-linecap="round" stroke-linejoin="round" stroke-miterlimit="10" d="
		M525.171,287.404c0,0,0.832,0.168,2.499-6.499c-1.833-5.5-2.167-7.833-2.167-17.833s0.997-16.167,3.082-21.334"/>
	<path fill="none" stroke="#000000" stroke-width="1.5" stroke-linecap="round" stroke-linejoin="round" stroke-miterlimit="10" d="
		M533.335,209.072c0,0,1.431-17.995,2.431-24.084s2.319-18.75,7.319-19.75"/>
	<path fill="none" stroke="#000000" stroke-width="1.5" stroke-linecap="round" stroke-linejoin="round" stroke-miterlimit="10" d="
		M472.002,149.572c0,0,5.251-1.583,7.084-3.083s1.583-7.083,1.583-7.083"/>
	<path fill="none" stroke="#000000" stroke-width="1.5" stroke-linecap="round" stroke-linejoin="round" stroke-miterlimit="10" d="
		M470.086,147.322c0,0,12.416,18.666,27.166,29.416c0,0,5.5,11.167,5.75,16.25s0.083,15,0.416,23.667s-0.166,17.999-6.166,24.666
		c-5.333,8.667-3.249,30.251-1.249,39.251"/>
	<path fill="none" stroke="#000000" stroke-width="1.5" stroke-linecap="round" stroke-linejoin="round" stroke-miterlimit="10" d="
		M461.169,150.488c12,17.917,22.833,30.917,23.333,34.417c0,0,3.875-10.292,6.875-9.542s7.917,6.084,7.917,6.084"/>
	<path fill="none" stroke="#000000" stroke-width="1.5" stroke-linecap="round" stroke-linejoin="round" stroke-miterlimit="10" d="
		M513.752,153.738c-2.583,8.167-4.25,17-6,19s-5.834,8.167-5.084,18.167"/>
	<path fill="none" stroke="#000000" stroke-width="1.5" stroke-linecap="round" stroke-linejoin="round" stroke-miterlimit="10" d="
		M504.752,177.738c0,0,6.5-7,7.75-4.25s0.25,8.917,0.25,8.917s6.843-21.365,8.385-28.907"/>
	<path fill="none" stroke="#000000" stroke-width="3" stroke-linecap="round" stroke-linejoin="round" stroke-miterlimit="10" d="
		M433.193,347.805c2.879,7.183,9.076,15.061,21.144,15.438h14.666c0,0-0.903-16.675,8.667-24.002
		c12-6.333,21.666-5.333,21.666-5.333s10.335,31,24.335,65.999c14,35,10.665,55.668,10.665,55.668s0.001,6.664,8.001,16.664
		s5.668,18.334,10.334,20.668c4.666,2.332,24.332-3.668,30.666-7c6.334-3.334,2.001-11.666-2.666-12.334
		c-4.667-0.666-8.668-8.332-14.334-23c-5.666-14.666-7.999-3.668-13.333-55.334c-3.667-51.332-4.169-49.5-4.169-49.5"/>
	<path fill="none" stroke="#000000" stroke-width="3" stroke-linecap="round" stroke-linejoin="round" stroke-miterlimit="10" d="
		M469.003,362.488c1.097,16.412,5.287,32.871,7.925,46.906c2.638,14.037,8.657,22.846,11.657,51.846s2.088,38-2.246,48.332
		c-4.334,10.334-9.667,15-10.334,21s4.333,7,18.333,7.666c14,0.668,10,2.334,14,0.668c4-1.668,3.001-4.668,3.334-12.334s2-15,1-33
		c0,0,1.24-25.328,3.333-43c2.093-17.674,7.262-31.006,5.761-55.174"/>
	<path fill="none" stroke="#000000" stroke-width="1.5" stroke-linecap="round" stroke-linejoin="round" stroke-miterlimit="10" d="
		M481.767,426.238c0,0,14.166,7.5,37.666,2"/>
	<path fill="none" stroke="#000000" stroke-width="1.5" stroke-linecap="round" stroke-linejoin="round" stroke-miterlimit="10" d="
		M483.335,517.738c0,0-1.5,5.25,1,6s9-1.75,19.75,3.25c0,0,4.75,2,8-9.5"/>
	<path fill="none" stroke="#000000" stroke-width="1.5" stroke-linecap="round" stroke-linejoin="round" stroke-miterlimit="10" d="
		M499.335,321.238c0,0-0.499,5.837,0.75,12.918"/>
	<path fill="none" stroke="#000000" stroke-width="1.5" stroke-linecap="round" stroke-linejoin="round" stroke-miterlimit="10" d="
		M513.085,374.488c0,0,22,1,37.5-7.25"/>
	<path fill="none" stroke="#000000" stroke-width="1.5" stroke-linecap="round" stroke-linejoin="round" stroke-miterlimit="10" d="
		M535.085,446.238c0,0,4.75,9.25,8,17.25s5.5,18,12.5,17.75s13.25-0.25,23.5-7.5"/>
	
		<polyline fill="none" stroke="#000000" stroke-width="3" stroke-linecap="round" stroke-linejoin="round" stroke-miterlimit="10" points="
		551.433,364.236 629.668,364.903 628.217,603.684 30.432,603.738 31.335,364.238 460.335,363.238 	"/>
</g>
</svg>
