<?xml version="1.0" encoding="utf-8"?>
<!-- Generator: Adobe Illustrator 16.0.0, SVG Export Plug-In . SVG Version: 6.00 Build 0)  -->
<!DOCTYPE svg PUBLIC "-//W3C//DTD SVG 1.1//EN" "http://www.w3.org/Graphics/SVG/1.1/DTD/svg11.dtd">
<svg version="1.1" id="Layer_1" xmlns="http://www.w3.org/2000/svg" xmlns:xlink="http://www.w3.org/1999/xlink" x="0px" y="0px"
	 width="340.16px" height="623.62px" viewBox="0 0 340.16 623.62" enable-background="new 0 0 340.16 623.62" xml:space="preserve">
<g>
	<path fill="#BA3E2A" d="M252.48,63.43c0,0,2.939,5.62,10.899,8.73c0,0-10.45,2.16-17.38-8.85l0.01-0.76
		c-0.819-0.31-1.68-0.71-2.58-1.2c-4.39-2.39-9.729-6.93-14.63-12.39c-8.95-9.98-10.08-18.22-10-18.74l-0.13-0.04
		c2.29-6.94,8.58-17.97,25.26-6.91c16.91,11.23,22.28,16.48,19.23,26.89C260.1,60.58,252.48,63.43,252.48,63.43z"/>
	<path fill="#962929" d="M196.87,589.8c0,0-0.66,3.16,9.71-0.1c10.36-3.271,16.42-15.44,27.25-20.92
		c10.83-5.48,8.15-11.521,8.15-11.521l0.26-0.229c2.93,3.439,5.06,4.87,5.88,8.62c1.41,6.5-0.78,11.08-7.16,13.939
		c-6.38,2.851-11.03,6.5-18.21,15.29c-2.7,3.3-4.4,5.22-7.67,6.811c-3.271,1.59-16.5,1.5-16.5,1.5l-4.15-0.08
		c0.19-2.54-1.319-6.19-3.399-10.79l0.3-0.13c0.97-0.69,2.29-1.57,3.83-2.62L196.87,589.8z"/>
	<path fill="#FFDCD2" d="M241.98,557.26c0,0,2.68,6.04-8.15,11.521c-10.83,5.479-16.89,17.649-27.25,20.92
		c-10.37,3.26-9.71,0.1-9.71,0.1l-1.71-0.229c6.67-4.561,17.35-12.391,20.95-21.78c4.85-12.64,1.17-19.96-9.61-48.64
		c-3.43-9.11-6.47-17.551-9.13-25.11c14.21,2.54,28.49-7.34,31.35-9.45c0.05,0.3,0.09,0.601,0.141,0.9
		c3.04,20.39-0.86,43.88,5.81,58.99c2.82,6.399,5.41,10.02,7.57,12.55L241.98,557.26z"/>
	<path fill="#C18C52" d="M211.3,263.17c0,0,13.97,30.53,13.42,51.811c-0.489,18.739-8.239,23.46-14.479,35.85h-0.01
		c-0.841,1.68-1.65,3.49-2.421,5.5c-10.409,27.28-23.5,82.96-25.319,90.81c-0.15,0.61-0.221,0.931-0.221,0.931
		s6.261,26.58,7.381,51.12l-0.131,0.01c0,0-17.5,9.5-34,1.75l-0.63,0.109c-4.5-25.199-8.31-45.729-9.63-52.77
		c-2.43-12.93-2.99-88.95,2.7-129.16c2.7-19.1,4.68-32.64,6.01-41.6l-0.14-0.25c1.36-0.76,2.81-1.56,4.35-2.42
		c5.25-2.89,9.69-5.49,13.44-7.8l0.04,0.06c4.5-0.7,10.59-1.36,10.59-1.36s6.85,1.19,12.19,1.52c4.85,0.3,14.71-3.46,16.449-4.14
		L211.3,263.17z"/>
	<path fill="#BA3E2A" d="M218.57,30.48c0.029-0.1,0.06-0.2,0.1-0.3l0.13,0.04c-0.08,0.52,1.05,8.76,10,18.74
		c4.9,5.46,10.24,10,14.63,12.39c0.9,0.49,1.761,0.89,2.58,1.2L246,63.31c4.72,12.78,10.79,23.63-7.3,41.54
		c-18.08,17.92-36.141,9.67-36.141,9.67s-4.52-3.98-1.06-7.46c0,0,4.25-0.65,7.06-8c2.311-6.03,1.561-8.13,0.341-9.03
		c-1.221-0.91-5.37-0.3-7.54,3.65c0,0-4.38-5.93-1.471-16.79c2.91-10.87-6.92-20.35-6.92-20.35s-13.08,3.06-23.14-2.7
		c-4.04-2.29-7.59-6.02-9.62-11.92c-5.28-18.2,18.58-17.14,24.16-12.57C184.37,29.35,199.65,12.35,218.57,30.48z"/>
	<path fill="#C18C52" d="M207.81,356.33c0.771-2.01,1.58-3.82,2.421-5.5h0.01l0.29,0.15c1.63,36.88,3.3,46.21,4.31,89.659
		c4.08,11.53,10.78,24.08,13.88,43.95c-2.859,2.11-17.14,11.99-31.35,9.45c-5.7-16.22-9.57-28.32-11.42-33.99
		c-1.07-3.28-2.25-8.17-3.3-12.88l-0.16-0.03C184.31,439.29,197.4,383.61,207.81,356.33z"/>
	<path fill="#962929" d="M190.81,591.84c0.08,0.16,0.15,0.32,0.221,0.48c2.08,4.6,3.59,8.25,3.399,10.79
		c-0.06,0.8-0.29,1.489-0.72,2.069c-2.3,3.09-5.17,6.95-21.39,6.59c-16.22-0.369-22.94-0.05-35.53,0.36
		c-12.59,0.42-16.55-4.25-16.94-7.649c-0.39-3.4,0.27-4.301,5.23-5.431c1.8-0.41,4-0.79,6.83-1.37l0.11,0.521
		c-2.25,4.75,7,3.75,14.75,4s26.63-2.38,32.38-2.13C184.58,600.31,189.46,596.86,190.81,591.84z"/>
	<path fill="#FFDCD2" d="M190.81,591.84c-1.35,5.021-6.229,8.47-11.659,8.23c-5.75-0.25-24.63,2.38-32.38,2.13s-17,0.75-14.75-4
		l-0.11-0.521c4.97-1,11.85-2.6,21.74-6.01c6.87-3.22,14.3-9.91,12.93-22.66c-3.67-22.47-7.93-46.85-11.69-67.95l0.63-0.109
		c16.5,7.75,34-1.75,34-1.75l0.131-0.01c0.31,6.6,0.239,13.05-0.42,18.8c-3.11,27.109-4.511,60.05-0.62,68.93
		C189.38,588.66,190.12,590.3,190.81,591.84z"/>
	<path d="M174.79,75.02c0.93-0.18,0.85,2.34,0.02,2.51C173.99,77.71,174.79,75.02,174.79,75.02z"/>
	<path fill="#FFFFFF" d="M171.09,76.24c1.4-2.55,4.37-4.74,7.891-3.26c3.52,1.47,3.819,8.23,3.819,8.23
		C178.16,78.37,173.66,79.86,171.09,76.24z M174.81,77.53c0.83-0.17,0.91-2.69-0.02-2.51C174.79,75.02,173.99,77.71,174.81,77.53z"
		/>
	<path fill="#FFDCD2" d="M167.16,117.43c-7.3,0.39-13.14,0.88-16.32-2.42c-0.84-0.86-0.35-4.83-0.39-7.9
		c-0.71-1.99-0.82-2.88-0.39-3.92c0.14-0.34,0.5-0.72,0.89-1.13l0.63,0.05c6.34,0.67,11.95-0.91,14.37-3.93
		c0.25-0.31,0.47-0.64,0.64-0.98l-0.23-0.12c-11.83,0.61-15.58-1.74-15.58-1.74l-0.16,0.05c-0.23-0.26-0.84-0.99-0.88-1.33
		c-0.16-1.31,0.71-1.99,0.84-2.29c3.58-3.5-0.53-5.15-0.53-5.15c-2.36-3.44-1.06-7.83-1.06-7.83s8.87-2.9,13.67-7.57
		c4.5-4.07,4.05-7.6,4.76-10.95s2.2-6.05,2.2-6.05l0.21-0.38c10.06,5.76,23.14,2.7,23.14,2.7s9.83,9.48,6.92,20.35
		c-2.909,10.86,1.471,16.79,1.471,16.79c2.17-3.95,6.319-4.56,7.54-3.65c1.22,0.9,1.97,3-0.341,9.03c-2.81,7.35-7.06,8-7.06,8
		c-3.46,3.48,1.06,7.46,1.06,7.46s-5.06,0.63-4.56,11.75l0.03,0.34c0,0,0.05,0.01,0.149,0.03l-0.1,0.72c-4,0-10.061,1.09-14.99,2.27
		c-4.67,1.12-8.28,3.42-11.189,5.25l-0.42-0.66c0.039-0.03,0.069-0.06,0.09-0.08l-0.08-0.11
		C174.99,122.61,167.16,117.43,167.16,117.43z M182.8,81.21c0,0-0.3-6.76-3.819-8.23c-3.521-1.48-6.49,0.71-7.891,3.26
		C173.66,79.86,178.16,78.37,182.8,81.21z"/>
	<path fill="#2B3754" d="M160.15,145.82c2.25,0.13,3.5,5.88,3.5,5.88l8.5-8.38c12.96-11.04,21.619-8.5,25.369-8.62
		c3.75-0.13,8.881,0.87,8.881,0.87l0.899,0.03c2.12,3.15,13.431,20.83,14.03,38.95c0.65,19.99-11.03,62.49-7.63,74.39
		c3.39,11.89-2.54,14.09-2.54,14.09s-0.09,0.04-0.271,0.11c-1.739,0.68-11.6,4.44-16.449,4.14c-5.341-0.33-12.19-1.52-12.19-1.52
		s-6.09,0.66-10.59,1.36l-0.04-0.06c14.52-8.95,18.62-13.52,18.62-13.52c11.689-12.51,13.33-72.13,9.88-87.7
		c-3.45-15.57-12.92-23.78-19.4-21.72c-6.489,2.06-11.25,6.01-8.87,35.69c2.381,29.68,1.261,59.89,1.261,59.89
		s-12.01,8.73-22.14,16.14l-0.02-0.03c0,0-1.95-1.79,0.73-14.4c0.59-2.78,1.4-6.08,2.51-10c0.93-3.29,1.84-8.62,1.49-12.59
		c-0.05-0.58-0.15-1.22-0.27-1.91c-0.72-3.99-2.57-9.4-4.19-12.39c-1.89-3.5-12.64-15.58-0.03-38.29c0.67-1.45,1.65-2.85,2.62-4.38
		c0,0,5.51-7.43,4.4-10.9c-0.66-2.05-0.88-3.94-0.95-5.14C157.54,145.78,158.38,145.73,160.15,145.82z"/>
	<path fill="#2B3754" d="M198.18,126.64c0.641,0.11,3.32,0.56,4.521,0.59c3-0.1,4.26,7.87,4.26,7.87s0.12,0.17,0.34,0.5l-0.899-0.03
		c0,0-5.131-1-8.881-0.87c-3.75,0.12-12.409-2.42-25.369,8.62l-8.5,8.38c0,0-1.25-5.75-3.5-5.88c-1.77-0.09-2.61-0.04-2.89-0.01
		c-0.05-0.83-0.02-1.33-0.02-1.33s1.24-0.29,4.43-2.4c2.88-1.9,8.74-6.94,9.811-7.86l0.42,0.66c2.909-1.83,6.52-4.13,11.189-5.25
		c4.93-1.18,10.99-2.27,14.99-2.27L198.18,126.64z"/>
	<path fill="#632121" d="M151.8,98.74c1.04,0.25,6.76,1.46,13.87-0.8l0.28,0.24c-2.42,3.02-8.03,4.6-14.37,3.93l-0.63-0.05
		c0.83-0.87,1.8-1.9,1.25-3.04C152.2,99.02,152.03,98.9,151.8,98.74z"/>
	<path fill="#FFFFFF" d="M165.67,97.94c-7.11,2.26-12.83,1.05-13.87,0.8c-0.44-0.33-1.11-0.82-1.14-0.9
		c0.04-0.86,0.04-2.36,0.04-2.36s-0.03-0.04-0.08-0.09l0.16-0.05c0,0,3.75,2.35,15.58,1.74l0.23,0.12
		c-0.17,0.34-0.39,0.67-0.64,0.98L165.67,97.94z"/>
	<path fill="#FFDCD2" d="M109.64,177.54c2.13,0.5,4.5,0.2,4.5,0.2s1.5-1.75,2.36-4.76c0.86-3,0.25-3.5,0-7.87
		c-0.26-4.37,4.61-4.89,4.61-4.89s1.38,3.19,2.29,7.19c0.93,4,1.89,8.6,1.64,11.6c-0.24,3-2.25,4.46,5.14,14.94
		c3.71,5.26,14.85,14.78,25.06,22.99l0.17-0.03c0.12,0.69,0.22,1.33,0.27,1.91c0.35,3.97-0.56,9.3-1.49,12.59
		c-1.11,3.92-1.92,7.22-2.51,10l-0.22-0.05c-10.65-5.54-28.78-29.73-28.78-29.73c-8.15-9.73-9.67-11.58-9.67-11.58
		c-8.85,1.07-10.31,1.51-20.32-2.85c-10.01-4.35-18.31-9.37-18.32-11.62c0-1.97,1.27-2.9,1.59-3.1h1.15c0,0,4.76,3.2,9.39,5.44
		c4.63,2.24,6.96,2.1,6.96,2.1s0.86-1.51,2.21-3.46c1.01-1.47,2.3-3.2,3.73-4.73c1.74-1.87,3.68-3.46,5.54-3.95l0.09-0.95
		C105.88,176.99,107.99,177.15,109.64,177.54z"/>
	<path fill="#FFDCD2" d="M95.94,168.26c2.88,4.2,8.7,8.65,8.7,8.65s0.14,0.01,0.39,0.02l-0.09,0.95c-1.86,0.49-3.8,2.08-5.54,3.95
		l-1.11-1.25c0,0-6.11-6.26-8.35-10.2c-2.24-3.93-4.58-9.25-1.86-9.84C91.72,159.79,93.07,164.06,95.94,168.26z"/>
	<path fill="#FFDCD2" d="M98.29,180.58l1.11,1.25c-1.43,1.53-2.72,3.26-3.73,4.73l-0.46-0.66c0,0-2.09-0.91-8.1-4.4
		c-6.01-3.49-9.34-5.31-9.34-5.31l-1.18-0.04c0.18-0.13,0.3-0.21,0.3-0.21s-0.87-1.37-0.01-3.62c0.88-2.25,3.63-1.26,3.63-1.26
		L98.29,180.58z"/>
	<path fill="#FFDCD2" d="M95.21,185.9l0.46,0.66c-1.35,1.95-2.21,3.46-2.21,3.46s-2.33,0.14-6.96-2.1
		c-4.63-2.24-9.39-5.44-9.39-5.44h-1.15c0.04-0.03,0.07-0.04,0.07-0.04s-1.75-1.82-1.38-3.57c0.28-1.31,1.4-2.3,1.94-2.72l1.18,0.04
		c0,0,3.33,1.82,9.34,5.31C93.12,184.99,95.21,185.9,95.21,185.9z"/>
	<path fill="#FFDCD2" d="M94.37,316.04c-2.23-0.75-2.47-2.3-2.47-2.3s-1.64,0.26-3-0.03c-2.34-0.51-3.04-2.56-3.04-2.56
		s-3.72,0.77-4.96-2.17c-1.23-2.93,13.41-7.7,14.9-14.17c0,0-18.82,9.31-20.38,5.61c-1.55-3.71,0.96-3.11,11.68-8.89
		c10.72-5.79,12.33-7.17,12.02-10.24c-0.3-3.06-7.67-4.78-10.11-8.36c-2.42-3.57,0.12-7.24,3.7-4.18c3.58,3.04,11.26,2.7,15.23,5.84
		c0.77,0.59,1.58,1.08,2.51,1.41c2.27,0.82,5.57,1.93,10.08,0.09c3.14-1.26,11.2-5.98,18.51-11.46c2.41-1.81,6.95-5.14,11.93-8.79
		c10.13-7.41,22.14-16.14,22.14-16.14s1.12-30.21-1.261-59.89c-2.379-29.68,2.381-33.63,8.87-35.69c6.48-2.06,15.95,6.15,19.4,21.72
		c3.45,15.57,1.81,75.19-9.88,87.7c0,0-4.101,4.57-18.62,13.52c-3.75,2.31-8.19,4.91-13.44,7.8c-1.54,0.86-2.99,1.66-4.35,2.42
		c-14.52,8.05-19.84,10.75-24.56,13.16c-2.69,1.78-4.81,3.54-5.98,5.33c-3.2,4.81-6.09,7.72-11.12,11.3
		c-0.59,0.42-1.26,0.88-1.98,1.36C104.78,312,96.35,316.68,94.37,316.04z"/>
</g>
<g id="line_6_">
	<path fill="none" stroke="#000000" stroke-width="3" stroke-linecap="round" stroke-linejoin="round" stroke-miterlimit="10" d="
		M171.485,134.033c3.507-11.423-4.322-16.601-4.322-16.601c-7.308,0.395-13.144,0.884-16.327-2.418
		c-0.833-0.864-0.349-4.827-0.387-7.904c-0.708-1.986-0.814-2.876-0.386-3.917s2.953-2.477,2.138-4.167c0,0-1.5-1.063-1.542-1.188
		c0.042-0.854,0.042-2.352,0.042-2.352s-0.906-1.006-0.959-1.419c-0.167-1.314,0.708-1.997,0.837-2.292
		c3.579-3.5-0.529-5.153-0.529-5.153c-2.361-3.444-1.063-7.834-1.063-7.834s8.873-2.9,13.674-7.562
		c4.5-4.07,4.045-7.604,4.759-10.951c0.716-3.35,2.203-6.051,2.203-6.051"/>
	<path fill="none" stroke="#000000" stroke-width="3" stroke-linecap="round" stroke-linejoin="round" stroke-miterlimit="10" d="
		M202.563,114.521c0,0-4.521-3.981-1.068-7.459c0,0,4.253-0.644,7.062-8.002c2.315-6.022,1.567-8.125,0.345-9.03
		c-1.225-0.904-5.369-0.292-7.543,3.654c0,0-4.374-5.934-1.466-16.795c2.907-10.862-6.918-20.348-6.918-20.348
		s-25.682,6.007-32.769-14.614c-5.279-18.206,18.584-17.146,24.161-12.578c0,0,15.284-16.999,34.204,1.132
		c2.21-6.918,8.439-18.428,25.356-7.205c16.917,11.223,22.283,16.477,19.231,26.892c-3.056,10.415-10.677,13.27-10.677,13.27
		s2.94,5.611,10.896,8.722c0,0-10.449,2.161-17.383-8.843c4.722,12.778,10.797,23.629-7.291,41.542
		C220.617,122.771,202.563,114.521,202.563,114.521s-5.059,0.636-4.566,11.751"/>
	<path fill="none" stroke="#000000" stroke-width="1.5" stroke-linecap="round" stroke-linejoin="round" stroke-miterlimit="10" d="
		M218.796,30.221c-0.077,0.521,1.057,8.765,10.008,18.741c4.898,5.458,10.233,9.998,14.622,12.392
		c3.628,1.979,6.514,2.396,8.8,1.483"/>
	<path fill="none" stroke="#000000" stroke-width="1.5" stroke-linecap="round" stroke-linejoin="round" stroke-miterlimit="10" d="
		M221.058,37.353c0,0,15.058,16.167,24.243,13.548c9.186-2.62,8.253-12.913,0.784-16.43c-7.465-3.517-7.855,4.418-4.741,6.563"/>
	<path fill="none" stroke="#000000" stroke-width="1.5" stroke-linecap="round" stroke-linejoin="round" stroke-miterlimit="10" d="
		M193.354,55.424c0,0,8.26-8.516,0.102-14.534c-8.158-6.02-9.863,3.583-8.164,5.384"/>
	<path fill="none" stroke="#000000" stroke-width="2" stroke-linecap="round" stroke-linejoin="round" stroke-miterlimit="10" d="
		M173.711,64.116c0,0,3.322-3.662,11.282,1.578c4.019,3.069,5.328,8.044,5.328,8.044"/>
	<path fill="none" stroke="#000000" stroke-width="2" stroke-linecap="round" stroke-linejoin="round" stroke-miterlimit="10" d="
		M171.094,76.248c1.398-2.555,4.369-4.742,7.885-3.268c3.519,1.475,3.821,8.232,3.821,8.232"/>
	<path fill="none" stroke="#000000" stroke-linecap="round" stroke-linejoin="round" stroke-miterlimit="10" d="M182.8,81.213
		c-4.637-2.837-9.142-1.353-11.706-4.965"/>
	<path fill="none" stroke="#000000" stroke-width="3" stroke-linecap="round" stroke-linejoin="round" stroke-miterlimit="10" d="
		M174.785,75.028c0.931-0.181,0.852,2.333,0.027,2.509C173.986,77.713,174.785,75.028,174.785,75.028z"/>
	<path fill="none" stroke="#000000" stroke-width="1.5" stroke-linecap="round" stroke-linejoin="round" stroke-miterlimit="10" d="
		M152.66,86.268c0,0,1.863,0.013,2.304,1.358c0.437,1.344,0.579,2.539,0.579,2.539s1.857,0.757,3.876-0.271
		c2.021-1.031,0.328-4.322-0.418-4.327"/>
	<path fill="none" stroke="#000000" stroke-width="1.5" stroke-linecap="round" stroke-linejoin="round" stroke-miterlimit="10" d="
		M151.104,95.026c0,0,3.429,2.667,15.258,2.055"/>
	<path fill="none" stroke="#000000" stroke-width="1.5" stroke-linecap="round" stroke-linejoin="round" stroke-miterlimit="10" d="
		M169.746,100.106c0,0-3.42-2.33-3.601-5.23"/>
	<path fill="none" stroke="#000000" stroke-width="1.5" stroke-linecap="round" stroke-linejoin="round" stroke-miterlimit="10" d="
		M166.702,97.001c-1.793,3.775-8.002,5.858-15.127,5.108"/>
	<path fill="none" stroke="#000000" stroke-linecap="round" stroke-linejoin="round" stroke-miterlimit="10" d="M152.159,98.151
		c0,0,5.166,2.292,13.042-0.208"/>
	<path fill="none" stroke="#000000" stroke-width="1.5" stroke-linecap="round" stroke-linejoin="round" stroke-miterlimit="10" d="
		M167.837,116.84c0,0,4.822-0.514,9.528-2.047"/>
	<path fill="none" stroke="#000000" stroke-width="1.5" stroke-linecap="round" stroke-linejoin="round" stroke-miterlimit="10" d="
		M200.585,98.556c0,0-3.532,4-3.689,5.416c-0.159,1.416,2.144,2.774,4.605,2.343"/>
	<path fill="none" stroke="#000000" stroke-width="1.5" stroke-linecap="round" stroke-linejoin="round" stroke-miterlimit="10" d="
		M198.076,127.36c-4,0-10.053,1.09-14.99,2.277s-8.688,3.688-11.688,5.562"/>
	<path fill="none" stroke="#000000" stroke-width="3" stroke-linecap="round" stroke-linejoin="round" stroke-miterlimit="10" d="
		M150.95,255.817c0,0-2.903-2.679,3.236-24.401c0.931-3.291,1.842-8.625,1.491-12.591s-2.558-10.799-4.455-14.299
		s-12.647-15.583-0.033-38.293c0.67-1.446,1.646-2.85,2.621-4.379c0,0,5.51-7.434,4.396-10.899
		c-1.114-3.465-0.963-6.472-0.963-6.472s1.241-0.291,4.424-2.396c3.184-2.105,9.981-8.012,9.981-8.012"/>
	<path fill="none" stroke="#000000" stroke-width="3" stroke-linecap="round" stroke-linejoin="round" stroke-miterlimit="10" d="
		M139.042,264.631c-7.313,5.486-15.377,10.199-18.512,11.464c-4.512,1.833-7.807,0.729-10.079-0.095
		c-0.928-0.327-1.741-0.813-2.509-1.412c-3.975-3.136-11.65-2.791-15.236-5.836c-3.577-3.055-6.119,0.611-3.694,4.18
		c2.438,3.578,9.807,5.299,10.108,8.365c0.311,3.062-1.299,4.45-12.023,10.231c-10.714,5.78-13.229,5.188-11.678,8.893
		c1.562,3.705,20.382-5.606,20.382-5.606c-1.488,6.47-16.128,11.243-14.9,14.171c1.238,2.938,4.96,2.167,4.96,2.167
		s0.699,2.046,3.04,2.563c1.36,0.283,2.997,0.025,2.997,0.025s0.238,1.555,2.474,2.297c1.979,0.645,10.413-4.031,15.82-7.603
		c0.717-0.479,1.384-0.939,1.976-1.358c5.028-3.59,7.927-6.492,11.119-11.306c1.174-1.784,3.289-3.552,5.985-5.328
		c5.166-2.638,11.046-5.621,28.908-15.581c25.562-14.081,32.062-21.321,32.062-21.321c11.685-12.51,13.325-72.128,9.878-87.696
		c-3.445-15.568-12.923-23.781-19.403-21.719c-6.481,2.062-11.244,6.006-8.866,35.686c2.379,29.678,1.263,59.89,1.263,59.89
		S146.355,259.145,139.042,264.631z"/>
	<path fill="none" stroke="#000000" stroke-width="1.5" stroke-linecap="round" stroke-linejoin="round" d="M84.899,310.417
		c0,0,6.215-1.935,11.415-5.429c5.201-3.493,7.669-5.868,7.669-5.868"/>
	<path fill="none" stroke="#000000" stroke-width="1.5" stroke-linecap="round" stroke-linejoin="round" d="M91.739,312.919
		c6.275-1.696,14.876-8.647,16.623-10.338"/>
	<path fill="none" stroke="#000000" stroke-width="3" stroke-linecap="round" stroke-linejoin="round" stroke-miterlimit="10" d="
		M198.034,126.61c0,0,3.292,0.583,4.669,0.625c2.998-0.099,4.26,7.863,4.26,7.863s13.707,19.466,14.362,39.455
		s-11.021,62.49-7.629,74.387c3.392,11.895-2.54,14.09-2.54,14.09s-11.386,4.586-16.719,4.253s-12.184-1.519-12.184-1.519
		s-6.097,0.654-10.598,1.357"/>
	
		<path id="colar_4_" fill="none" stroke="#000000" stroke-width="1.5" stroke-linecap="round" stroke-linejoin="round" stroke-miterlimit="10" d="
		M206.398,135.575c0,0-5.125-1-8.875-0.875s-12.414-2.419-25.375,8.625l-8.5,8.375c0,0-1.25-5.75-3.5-5.875s-3,0-3,0"/>
	<path fill="none" stroke="#000000" stroke-width="3" stroke-linecap="round" stroke-linejoin="round" d="M155.237,216.941
		c-10.204-8.204-21.351-17.732-25.059-22.983c-7.393-10.484-5.378-11.941-5.134-14.942c0.242-3-0.712-7.603-1.641-11.601
		c-0.918-3.998-2.299-7.187-2.299-7.187s-4.87,0.511-4.61,4.881c0.26,4.379,0.86,4.878,0.008,7.879
		c-0.864,3.002-2.359,4.755-2.359,4.755s-2.369,0.295-4.501-0.2c-2.121-0.495-5.002-0.629-5.002-0.629s-5.818-4.447-8.697-8.651
		c-2.87-4.203-4.219-8.47-7.867-7.722c-2.72,0.596-0.378,5.91,1.86,9.846c2.239,3.936,8.353,10.201,8.353,10.201l-17.78-9.521
		c0,0-2.753-0.994-3.628,1.258c-0.865,2.252,0.009,3.62,0.009,3.62s-1.868,1.174-2.244,2.924c-0.366,1.751,1.388,3.577,1.388,3.577
		s-1.668,0.884-1.663,3.134c0.005,2.25,8.307,7.271,18.315,11.62c10.01,4.358,11.479,3.924,20.327,2.855
		c0,0,1.521,1.849,9.663,11.581c0,0,18.135,24.188,28.781,29.73"/>
	<path fill="none" stroke="#000000" stroke-width="1.5" stroke-linecap="round" stroke-linejoin="round" d="M110.72,186.131
		c0,0,0.809-4.695,4.059-8.444"/>
	<path fill="none" stroke="#000000" stroke-width="1.5" stroke-linecap="round" stroke-linejoin="round" d="M77.113,182.485
		c0,0,4.758,3.199,9.392,5.439c4.625,2.24,6.955,2.094,6.955,2.094s6.066-10.703,11.483-12.135"/>
	<path fill="none" stroke="#000000" stroke-width="1.5" stroke-linecap="round" stroke-linejoin="round" d="M77.77,176.193
		c0,0,3.334,1.822,9.342,5.309c6.009,3.487,8.1,4.402,8.1,4.402"/>
	<path fill="none" stroke="#000000" stroke-width="3" stroke-linecap="round" stroke-linejoin="round" stroke-miterlimit="10" d="
		M211.298,263.171c0,0,13.972,30.534,13.419,51.813c-0.554,21.279-10.465,24.482-16.905,41.352
		c-11.217,29.385-25.543,91.742-25.543,91.742s10.079,42.793,6.966,69.91s-4.514,60.057-0.621,68.932
		c3.894,8.877,7.41,15.176,5.102,18.268c-2.309,3.09-5.175,6.949-21.396,6.582c-16.221-0.371-22.934-0.047-35.528,0.367
		c-12.593,0.412-16.55-4.25-16.937-7.654c-0.389-3.404,0.266-4.295,5.227-5.43c4.96-1.135,13.061-2.025,28.57-7.385
		c6.873-3.215,14.302-9.908,12.933-22.658c-8.06-49.311-18.902-107.791-21.327-120.719c-2.425-12.93-2.981-88.951,2.705-129.16
		c2.701-19.103,4.677-32.642,6.007-41.593"/>
	<path fill="none" stroke="#000000" stroke-width="1.5" stroke-linecap="round" stroke-linejoin="round" stroke-miterlimit="10" d="
		M189.523,499.199c0,0-17.5,9.5-34,1.75"/>
	<path fill="none" stroke="#000000" stroke-width="1.5" stroke-linecap="round" stroke-linejoin="round" stroke-miterlimit="10" d="
		M191.023,590.949c-1,5.5-6.125,9.375-11.875,9.125s-24.625,2.375-32.375,2.125s-17,0.75-14.75-4"/>
	<path fill="none" stroke="#000000" stroke-width="3" stroke-linecap="round" stroke-linejoin="round" stroke-miterlimit="10" d="
		M191.325,592.193c5.196-3.654,20.355-12.844,24.784-24.4c4.846-12.643,1.169-19.961-9.608-48.637s-17.837-50.797-20.547-59.098
		c-1.071-3.283-2.258-8.172-3.302-12.881"/>
	<path fill="none" stroke="#000000" stroke-width="3" stroke-linecap="round" stroke-linejoin="round" stroke-miterlimit="10" d="
		M210.533,350.984c1.626,36.877,3.293,46.211,4.31,89.654c4.137,11.705,10.976,24.467,14.019,44.855
		c3.042,20.391-0.863,43.875,5.807,58.99c6.669,15.117,12.035,14.666,13.45,21.166s-0.773,11.084-7.158,13.938
		c-6.385,2.855-11.03,6.502-18.214,15.297c-2.694,3.299-4.392,5.221-7.664,6.809c-3.273,1.586-16.507,1.5-16.507,1.5l-4.166-0.084"
		/>
	<path fill="none" stroke="#000000" stroke-width="1.5" stroke-linecap="round" stroke-linejoin="round" stroke-miterlimit="10" d="
		M229.239,484.191c0,0-16.06,12.756-31.976,9.828"/>
	
		<path id="a_5_" fill="none" stroke="#000000" stroke-width="1.5" stroke-linecap="round" stroke-linejoin="round" stroke-miterlimit="10" d="
		M241.981,557.266c0,0,2.68,6.037-8.151,11.516s-16.891,17.654-27.255,20.918c-10.364,3.262-9.701,0.107-9.701,0.107"/>
</g>
</svg>
