<?xml version="1.0" encoding="utf-8"?>
<!-- Generator: Adobe Illustrator 16.0.0, SVG Export Plug-In . SVG Version: 6.00 Build 0)  -->
<!DOCTYPE svg PUBLIC "-//W3C//DTD SVG 1.1//EN" "http://www.w3.org/Graphics/SVG/1.1/DTD/svg11.dtd">
<svg version="1.1" id="Layer_1" xmlns="http://www.w3.org/2000/svg" xmlns:xlink="http://www.w3.org/1999/xlink" x="0px" y="0px"
	 width="340.16px" height="623.62px" viewBox="0 0 340.16 623.62" enable-background="new 0 0 340.16 623.62" xml:space="preserve">
<g>
	<path fill="#C18C52" d="M214.95,357.75c-1.26,0.45-2.489,0.96-3.7,1.51l-0.17-0.37c-21.75-4.5-33.89-8.88-42.87-13.88
		c0,0-5.79-4.37-7.35-1.74c-1.57,2.63-1.9,5.58-1.9,5.58s-0.5,10.42-0.5,17.92l-0.12,0.47c-7.13-1.67-8.29,0.28-10.38,2.69
		c-2.17,2.51-1.67,10,0,23.34c1.66,13.33,1.33,22.5,0.5,30.5c-0.84,8,1.83,4.16,1.33,13.33c-0.33,7.42,2.83,9.5,2.83,9.5l0.58,0.101
		c-0.27,1.35-5.27,27.1-3.39,44.729c0.4,3.79,0.7,7.49,0.92,11.08c-18.87,7.66-33.6-1.89-33.6-1.89h-0.1
		c-0.81-18.641,0.84-37.73,1.07-40.351c0.35-3.99-1.45-8.78-2.29-16.39c-0.84-7.601-12.85-64.11-17.35-106.11
		s12.66-69.67,12.66-69.67l0.09-1.67c5.07,0.54,15.82,1.42,20.58-0.33c5.75-2.12,4.08,1.8,15.69,1.79c1.18,0,2.49-0.04,3.97-0.13
		c16-1,13.67-4.66,20.669-4.33c5.71,0.27,9.21,2.76,12.471,2.76l2.62,0.33c0,0,7.619,18.5,10.869,24.25s53.131,20.25,81.131,40
		s16.869,30.5,16.869,30.5c-7.5,17.5-25.619,20-49.869,22.5c-8.73,0.9-17.73,2.22-26.25,3.65v-0.03c0,0-11.5-14.62-5-29.62
		L214.95,357.75z"/>
	<path fill="#2B3754" d="M192.45,257.76c0,0-1.66,6.34-5.66,8c-0.739,0.31-1.46,0.43-2.199,0.43c-3.261,0-6.761-2.49-12.471-2.76
		c-7-0.33-4.669,3.33-20.669,4.33c-1.48,0.09-2.79,0.13-3.97,0.13l-0.02-1.96c-1.34-0.66-3.34-4.33-3.34-4.33
		c-4.5-8.83,3.17-13.83,3.96-26.21c0.12-1.87,0.22-3.92,0.31-6.11l-0.86-0.24c3.69-2.19,6.26-4.6,6.93-7.27
		c0,0,11.25,9.5,27.75,13.25c2.06,0.47,4.029,0.93,5.93,1.38l-0.021,1.36C188.461,247.76,192.45,257.76,192.45,257.76z"/>
	<path fill="#2B3754" d="M188.95,218.77c-20-0.5-18.33-1.67-21.16-7c-2.84-5.34-4.17-12.67-5.5-15.84
		c-1.34-3.16-1.42-9.58-3.09-12.41c-1.66-2.84-3.58-7.59-3.58-7.59l-0.11-2.27l0.28-0.01c1.49-0.62,2.8-0.79,3.25,0.2
		c1.25,2.75,2.92,5.92,2.92,5.92s8.25-13,11.5-17c3.25-4,6-13.25,6-13.25l0.149-0.97c1.51,0.29,13.74,2.67,19.601,5.72
		c0,0,3,0.75,2,4.5l-1,0.33c-1,0-2.171,1.67-2.171,1.67s-7.75,17.5-7,28.33c0.681,9.88,3.391,13.93,3.86,14.56
		c-0.03,0.08-0.05,0.16-0.08,0.24c-0.35,5.27-1.729,11.95-4.54,14.87C189.431,218.78,188.95,218.77,188.95,218.77z"/>
	<path fill="#FFDCD2" d="M182.381,93.43l3.42-5.19c0,0,2.25-0.75,3.26,1.11c0.55,0.99,0.74,2.73,0.05,5.73
		c-1.99,6.99-8.39,9.34-8.39,9.34s-0.601,1.16-1.561,2.93l-0.47-0.25c2.65-7.4,3.26-15.09,3.26-15.09l0.55,0.04
		C182.45,92.92,182.381,93.43,182.381,93.43z"/>
	<path fill="#BA3E2A" d="M173.591,32.76c-3.14,4.47-8.5,6.59-25.28,6.88c-19.77,0.2-18.95-9.28-18.95-9.28l-1.13-0.27
		c0.16,0,0.32-0.01,0.48-0.02c0,0-3.4-15.28,18.67-18.37C169.201,8.64,181,18.22,174,32.95L173.591,32.76z"/>
	<path fill="#2B3754" d="M155.51,173.66l-0.15-3.17c2.34-1.97,6.01-4.77,10.1-9.22c5.5-6,5-12.75,5-12.75s-1.75-0.5-6.25-1.5
		s-5.13-5.5-5.13-5.5l0.64-0.99c0.3,0.14,6.11,2.96,10.49,1.74c4.5-1.25,5.75,2.5,9.25,6.25c0,0,0.05,0.01,0.149,0.03l-0.149,0.97
		c0,0-2.75,9.25-6,13.25c-3.25,4-11.5,17-11.5,17s-1.67-3.17-2.92-5.92c-0.45-0.99-1.76-0.82-3.25-0.2L155.51,173.66z"/>
	<path fill="#FFDCD2" d="M141.041,130.46c-2.02-2.08-4.05-4.46-6.08-6.86c-4.35-5.14-8.4-13.27-10.12-16.92l0.53-0.25
		c-2.65-7.39-3.05-13.62-3.05-13.62h-0.45c0.03-2.15,0.25-8.68,2.09-13.75c2.23-6.17,3.75-8.29,4.48-13.23
		c5.33,5.44,11.55,7.1,23.32,7.4c11.78,0.29,21.38-7.33,21.38-7.33c1.51,6.33,6.49,8.76,8.3,15.26c1.24,4.45,1.19,8.76,1.06,10.89
		l-0.55-0.04c0,0-0.609,7.69-3.26,15.09l0.47,0.25c-2.18,4.02-6.239,11.21-9.43,15.27c-2.64,3.35-6.44,7.58-10.19,10.59
		c-2.81,2.24-5.59,3.81-7.83,3.81C148.32,137.02,144.71,134.25,141.041,130.46z"/>
	<path fill="#FFDCD2" d="M153.21,446.64c0,0,0,0.021-0.01,0.061l-0.58-0.101c0,0-3.16-2.08-2.83-9.5c0.5-9.17-2.17-5.33-1.33-13.33
		c0.83-8,1.16-17.17-0.5-30.5c-1.67-13.34-2.17-20.83,0-23.34c2.09-2.41,3.25-4.36,10.38-2.69c0.25,0.061,0.51,0.12,0.78,0.19
		c7.84,2,6,4.01,21.669,3.84c11.82-0.13,20.41-7.45,30.46-12.01c1.211-0.55,2.44-1.06,3.7-1.51l0.011,0.02c-6.5,15,5,29.62,5,29.62
		v0.03c-15.15,2.54-28.74,5.41-36.5,6.85c-12.131,2.25-13.69,3.061-17.44,12.811s-4.81,13.439-6.06,17.939s-0.75,5-1.5,15
		c0.07,2.04,0,6.25,0,6.25L153.21,446.64z"/>
	<path fill="#FFDCD2" d="M201.211,158.77c0,0,15,18,26.5,34s19.369,32.12,17.369,41.62s1.631,9.13-17.119,8.38
		c-16.41-0.66-26.5-3.23-39.82-6.37c-1.9-0.45-3.87-0.91-5.93-1.38c-16.5-3.75-27.75-13.25-27.75-13.25v-0.84c0,0-1.5-12.5-1-17
		s-1.67-9-3.17-13.33s-1.83-5.33-1.83-8s2.66-1,2.66-1s-0.66-5.17,0-6c0.2-0.25,0.52-0.44,0.89-0.55l-0.05-0.78
		c0,0,0.16-2.67-0.84-4.67l0.17-0.67c0,0,2.5-0.66,4,0l0.07,1.56l0.15,3.17l0.11,2.27c0,0,1.92,4.75,3.58,7.59
		c1.67,2.83,1.75,9.25,3.09,12.41c1.33,3.17,2.66,10.5,5.5,15.84c2.83,5.33,1.16,6.5,21.16,7c0,0,0.48,0.01,1.33,0
		c3.51-0.02,13.38-0.24,23.67-1.84c0,0-12.33-14.83-14.489-19c-1.07-2.05-3,0.82-4.561,5.73c-0.47-0.63-3.18-4.68-3.86-14.56
		c-0.75-10.83,7-28.33,7-28.33s1.171-1.67,2.171-1.67L201.211,158.77z"/>
	<path fill="#FFDCD2" d="M152.01,175.05c-0.37,0.11-0.69,0.3-0.89,0.55c-0.66,0.83,0,6,0,6s-2.66-1.67-2.66,1s0.33,3.67,1.83,8
		s3.67,8.83,3.17,13.33s1,17,1,17v0.84c-0.67,2.67-3.24,5.08-6.93,7.27c-8.74,5.2-23.82,9.21-35.07,12.73
		c-0.87,0.27-1.78,0.53-2.73,0.76c-16.35,4.09-42.4,2.83-46.65,2.36c-4.5-0.5-5.62-11.37-1.12-25.37s8.5-22.42,15.62-34.88
		s19.13-27.21,19.13-27.21c4,0.67,6,4.59,7.25,16.84s0.49,22.83-3.21,27.46h-0.32c0.06-3.91,0.23-7.42,0.23-7.42
		s-4.45,11.71-7.2,17.96s-5.75,10.5-5.75,10.5s4.13,1.62,15.8,0.79c3.52-0.25,7.72-0.73,12.7-1.54c26.25-3.75,22.75-4.75,26.25-20.5
		l2.5-7.25c0,0,0.98-7.75,1.44-14.41c0.11-1.58,0.19-3.09,0.22-4.43c0.17-7,0.67-9,4.67-6.5l-0.17,0.67c1,2,0.84,4.67,0.84,4.67
		L152.01,175.05z"/>
	<path fill="#2B3754" d="M144.121,261.6c0,0,2,3.67,3.34,4.33l0.02,1.96c-11.61,0.01-9.94-3.91-15.69-1.79
		c-4.76,1.75-15.51,0.87-20.58,0.33c-1.7-0.18-2.76-0.33-2.76-0.33s-3.66-3.67-2-7.67c1.67-4,3.34-15.66,3.34-15.66l-0.06-0.24
		c0.95-0.23,1.86-0.49,2.73-0.76c11.25-3.52,26.33-7.53,35.07-12.73l0.86,0.24c-0.09,2.19-0.19,4.24-0.31,6.11
		C147.291,247.77,139.621,252.77,144.121,261.6z"/>
	<path fill="#FFDCD2" d="M146.621,175.43c-0.03,1.34-0.11,2.85-0.22,4.43l-0.13-0.01c-0.02-0.03-0.03-0.06-0.05-0.08
		c0-0.01,0-0.01,0-0.01c-1.56-2.72-3.26-3.49-3.26-3.49c-14.75-10.75-14-27.25-14-27.25s2-1.25,6-2.25c3.75-0.94,5.52-3.93,5.73-4.3
		l-2.56-0.78c1.34-0.16,2.24-0.26,2.24-0.26c1.29-2.25,0.71-10.41,0.67-10.97c3.67,3.79,7.28,6.56,10.67,6.56
		c2.24,0,5.02-1.57,7.83-3.81l0.17,0.22v7.09c0,0,0,0,0.01,0.01l-0.64,0.99c0,0,0.63,4.5,5.13,5.5s6.25,1.5,6.25,1.5
		s0.5,6.75-5,12.75c-4.09,4.45-7.76,7.25-10.1,9.22l-0.07-1.56c-1.5-0.66-4,0-4,0C147.291,166.43,146.791,168.43,146.621,175.43z"/>
	<path fill="#2B3754" d="M146.271,179.85l0.13,0.01c-0.46,6.66-1.44,14.41-1.44,14.41l-2.5,7.25c-3.5,15.75,0,16.75-26.25,20.5
		c-4.98,0.81-9.18,1.29-12.7,1.54l-0.06-0.79c-3-5.34-2.83-10-3-15.34c-0.05-1.75-0.05-3.77-0.02-5.7h0.32
		c3.7-4.63,4.46-15.21,3.21-27.46s-3.25-16.17-7.25-16.84c0,0,0-2,4.33-3.66c3.86-1.49,17.76-4.03,20.76-4.57l1.38,0.64l-3.47,7.43
		c0,0,10,20.5,10.5,24c0,0,3.87-7.13,6.87-6.38s9.13,4.88,9.13,4.88h0.01C146.24,179.79,146.25,179.82,146.271,179.85z"/>
	<path fill="#2B3754" d="M146.21,179.77c0,0-6.13-4.13-9.13-4.88s-6.87,6.38-6.87,6.38c-0.5-3.5-10.5-24-10.5-24l3.47-7.43
		l-1.38-0.64c0.37-0.06,0.57-0.1,0.57-0.1s2-6.33,4.34-6.33c1.67,0,8-0.69,11.42-1.08l2.56,0.78c-0.21,0.37-1.98,3.36-5.73,4.3
		c-4,1-6,2.25-6,2.25s-0.75,16.5,14,27.25c0,0,1.7,0.77,3.26,3.49c0,0,0,0,0,0.01H146.21z"/>
	<path fill="#BA3E2A" d="M116.65,89.46c-2.42-5.12-4.43-10.17-5.99-17.18c-1.27-5.68-1.46-12.12,0.69-19.54
		c4.69-16.19,17.71-18.27,18.33-18.36c-0.57,0-12.45-0.13-14.17-11.33c0,0,7.25,7.04,12.72,7.04l1.13,0.27c0,0-0.82,9.48,18.95,9.28
		c16.78-0.29,22.14-2.41,25.28-6.88L174,32.95c-0.069,0.17-0.159,0.33-0.239,0.5c0,0,14.72,0.82,19.109,19.98
		c2.021,8.81,2.17,15.96,1.25,21.83c-1.08,6.89-2.909,10.51-4.909,14.01l-0.15,0.08c-1.01-1.86-3.26-1.11-3.26-1.11l-3.42,5.19
		c0,0,0.069-0.51,0.119-1.38c0.131-2.13,0.181-6.44-1.06-10.89c-1.81-6.5-6.79-8.93-8.3-15.26c0,0-9.6,7.62-21.38,7.33
		c-11.77-0.3-17.99-1.96-23.32-7.4c-0.73,4.94-2.25,7.06-4.48,13.23c-1.84,5.07-2.06,11.6-2.09,13.75c0,0.46,0,0.72,0,0.72
		l-2.96-5.07c0,0-0.77,0.35-1.44,1.59L116.65,89.46z"/>
	<path fill="#FFDCD2" d="M128.351,611.979c0,0-0.89,0.05-2.6-0.479c-1.71-0.521-2.16-2.57-2.16-2.57c-2.35-0.33-2.6-3.24-2.6-3.24
		c0.33-2.35,1.74-5.5,1.74-5.5s0.83-2.31,5.24-6.81c4.41-4.51,4.13-7.05,4.13-7.05c-1.31-9.23,1.02-15.971-0.32-23.61
		c-1.34-7.65-4.21-15.01-10.94-35.68c-2.3-7.09-3.39-16.69-3.81-26.42h0.1c0,0,14.73,9.55,33.6,1.89
		c0.81,13.53,0.4,25.479-0.45,35.22c-1.08,12.33-2.16,20.7-0.98,28.4c1.17,7.7,2.65,14.16,2.33,19.28
		c-0.33,5.109-1.21,12.31,0.47,16.1c1.67,3.79-1.06,9.19-1.06,9.19s1.49,4.529-3.24,5.489c-4.72,0.971-6.4-1.439-6.4-1.439
		s-1.01,1.55-3.75,1.31c-2.74-0.24-3.09-1.91-3.09-1.91s-1.95,0.71-3.43,0.46C129.641,614.35,128.351,611.979,128.351,611.979z"/>
	<path fill="#FFDCD2" d="M122.32,92.81c0,0,0.4,6.23,3.05,13.62l-0.53,0.25c-0.55-1.18-0.86-1.89-0.86-1.89s-7.49-4.63-7.49-9.93
		c0-2.32,0.46-3.83,0.98-4.81c0.67-1.24,1.44-1.59,1.44-1.59l2.96,5.07c0,0,0-0.26,0-0.72H122.32z"/>
</g>
<g id="line_7_">
	<path fill="none" stroke="#000000" stroke-width="3" stroke-linecap="round" stroke-linejoin="round" stroke-miterlimit="10" d="
		M173.138,65.904c0,0-9.602,7.621-21.373,7.326c-11.771-0.293-17.995-1.956-23.322-7.4c-0.736,4.939-2.257,7.064-4.486,13.23
		s-2.085,14.477-2.085,14.477l-2.964-5.076c0,0-2.414,1.104-2.414,6.4c0,5.298,7.49,9.934,7.49,9.934s5.223,12.016,10.973,18.808
		s11.5,13.417,16.75,13.417s13.418-8.539,18.021-14.395s10.995-18.197,10.995-18.197s6.401-2.354,8.388-9.346
		c1.986-8.607-3.311-6.842-3.311-6.842l-3.421,5.188c0,0,0.808-5.983-0.942-12.261C179.626,74.665,174.646,72.23,173.138,65.904z"/>
	<path fill="none" stroke="#000000" stroke-width="3" stroke-linecap="round" stroke-linejoin="round" stroke-miterlimit="10" d="
		M116.646,89.458c-2.42-5.113-4.426-10.162-5.988-17.18c-1.264-5.68-1.46-12.119,0.688-19.537
		c4.804-16.583,18.359-18.36,18.359-18.36s-12.433,0.146-14.198-11.331c0,0,7.688,7.467,13.206,7.025
		c0,0-3.405-15.282,18.667-18.372c22.072-3.09,33.889,6.738,26.383,21.747c0,0,14.723,0.818,19.109,19.985
		c2.018,8.812,2.172,15.958,1.251,21.825c-1.082,6.896-2.917,10.508-4.917,14.008"/>
	<path fill="none" stroke="#000000" stroke-width="1.5" stroke-linecap="round" stroke-linejoin="round" stroke-miterlimit="10" d="
		M129.364,30.361c0,0-0.826,9.482,18.941,9.283c16.783-0.295,22.143-2.409,25.282-6.882"/>
	<path fill="none" stroke="#000000" stroke-width="1.5" stroke-linecap="round" stroke-linejoin="round" stroke-miterlimit="10" d="
		M164.39,38.078c-11.316,0.167-25.943-0.459-26.531-12.084c-0.588-11.625,12.654-10.006,14.273-7.946
		c1.618,2.06,1.324,6.18-1.766,7.063c-3.091,0.883-4.121-1.913-4.121-1.913"/>
	<path fill="none" stroke="#000000" stroke-width="1.5" stroke-linecap="round" stroke-linejoin="round" stroke-miterlimit="10" d="
		M128.81,65.144c0,0-7.52-10.791,1.355-17.082"/>
	<path fill="none" stroke="#000000" stroke-width="1.5" stroke-linecap="round" stroke-linejoin="round" stroke-miterlimit="10" d="
		M172.659,65.394c0,0,11.131-9.041,3.92-18.998c-3.455-4.21-6.372-1.459-6.497,1.582s3.458,7.042,4.792,3.875"/>
	<path fill="none" stroke="#000000" stroke-width="1.5" stroke-linecap="round" stroke-linejoin="round" stroke-miterlimit="10" d="
		M122.325,92.817c0,0,0.398,6.224,3.047,13.618"/>
	<path fill="none" stroke="#000000" stroke-width="1.5" stroke-linecap="round" stroke-linejoin="round" stroke-miterlimit="10" d="
		M181.95,92.013c0,0-0.607,7.694-3.256,15.089"/>
	<path fill="none" stroke="#000000" stroke-width="2" stroke-linecap="round" stroke-linejoin="round" stroke-miterlimit="10" d="
		M126.604,84.696c0,0,9.212-9.493,18.572-4.169"/>
	<path fill="none" stroke="#000000" stroke-width="2" stroke-linecap="round" stroke-linejoin="round" stroke-miterlimit="10" d="
		M129.606,89.657c0,0,4.099,4.304,7.898,3.803c3.799-0.501,5.435-1.637,5.435-1.637"/>
	<path fill="none" stroke="#000000" stroke-width="2" stroke-linecap="round" stroke-linejoin="round" stroke-miterlimit="10" d="
		M160.787,81.959c0,0,9.524-7.004,17.763,1.959"/>
	<path fill="none" stroke="#000000" stroke-width="2" stroke-linecap="round" stroke-linejoin="round" stroke-miterlimit="10" d="
		M162.705,92.026c0,0,2.544,1.58,6.554,1.802c4.011,0.223,6.889-3.922,6.889-3.922"/>
	<path fill="none" stroke="#000000" stroke-width="1.5" stroke-linecap="round" stroke-linejoin="round" stroke-miterlimit="10" d="
		M155.58,104.393c0,0-0.457-10.875-0.29-13.042c0.166-2.167,1.916-7.832,1.916-7.832"/>
	<path fill="none" stroke="#000000" stroke-width="1.5" stroke-linecap="round" stroke-linejoin="round" stroke-miterlimit="10" d="
		M144.872,107.185c-1.332,1.416-0.949,2.096,1.037,4.304c1.766,0.552,1.224-1.214,2.548-1.987"/>
	<path fill="none" stroke="#000000" stroke-width="1.5" stroke-linecap="round" stroke-linejoin="round" stroke-miterlimit="10" d="
		M148.005,108.839c0,0,1.107,1.761,1.987,2.429s2.587,1.274,3.882,0.419c1.293-0.855,1.833-1.833,2.746-2.957"/>
	<path fill="none" stroke="#000000" stroke-width="1.5" stroke-linecap="round" stroke-linejoin="round" stroke-miterlimit="10" d="
		M155.737,110.054c0,0,1.656,0.11,1.766,1.104c0.111,0.993,1.324,0.331,1.821-0.938c0.497-1.27,0.714-1.84-0.286-3.146"/>
	<path fill="none" stroke="#000000" stroke-width="1.5" stroke-linecap="round" stroke-linejoin="round" stroke-miterlimit="10" d="
		M137.571,116.087c0,0,2.429-2.759,4.525-2.648"/>
	<path fill="none" stroke="#000000" stroke-width="1.5" stroke-linecap="round" stroke-linejoin="round" stroke-miterlimit="10" d="
		M139.559,114.653c0,0,11.564,7.45,24.045,0.317"/>
	<path fill="none" stroke="#000000" stroke-width="1.5" stroke-linecap="round" stroke-linejoin="round" stroke-miterlimit="10" d="
		M163.052,113.094c0,0,1.766,2.649,1.986,3.532"/>
	<path fill="none" stroke="#000000" stroke-width="3" stroke-linecap="round" stroke-linejoin="round" stroke-miterlimit="10" d="
		M141.04,130.437c0,0,0.666,8.667-0.668,11c0,0-11.332,1.333-13.666,1.333s-4.334,6.333-4.334,6.333s-16.999,3-21.332,4.667
		c-4.334,1.667-4.334,3.667-4.334,3.667s-12.001,14.749-19.125,27.207s-11.125,20.875-15.625,34.875s-3.375,24.875,1.125,25.375
		s33.375,1.875,49.375-3.125s39.75-11,42-20c0,0,11.25,9.5,27.75,13.25s27,7,45.75,7.75s15.125,1.125,17.125-8.375
		s-5.875-25.625-17.375-41.625s-26.5-34-26.5-34c1-3.75-2-4.5-2-4.5c-6.25-3.25-19.75-5.75-19.75-5.75c-3.5-3.75-4.75-7.5-9.25-6.25
		s-10.5-1.75-10.5-1.75v-7.083"/>
	<path fill="none" stroke="#000000" stroke-width="3" stroke-linecap="round" stroke-linejoin="round" stroke-miterlimit="10" d="
		M190.122,218.935c2.918-2.834,4.334-9.666,4.698-15.03c1.583-5.062,3.552-8.052,4.636-5.968c2.167,4.167,14.498,19,14.498,19
		c-12.834,2-25,1.833-25,1.833c-20-0.5-18.334-1.667-21.167-7s-4.167-12.667-5.5-15.833s-1.415-9.582-3.082-12.416
		s-3.585-7.584-3.585-7.584l-0.33-7c-1.5-0.667-4,0-4,0c-4-2.5-4.5-0.5-4.667,6.5s-1.667,18.834-1.667,18.834l-2.5,7.25
		c-3.5,15.75,0,16.75-26.25,20.5c-21.5,3.5-28.5,0.75-28.5,0.75s3-4.25,5.75-10.5s7.208-17.957,7.208-17.957
		s-0.376,7.791-0.209,13.125s0,10,3,15.333"/>
	<path fill="none" stroke="#000000" stroke-width="1.5" stroke-linecap="round" stroke-linejoin="round" stroke-miterlimit="10" d="
		M154.457,220.937c0,0-1.5-12.5-1-17s-1.667-9-3.167-13.333s-1.833-5.333-1.833-8s2.666-1,2.666-1l6.334,10.5"/>
	<path fill="none" stroke="#000000" stroke-width="1.5" stroke-linecap="round" stroke-linejoin="round" stroke-miterlimit="10" d="
		M151.123,181.603c0,0-0.667-5.167,0-6s2.667-1,3.5,0.333"/>
	<path fill="none" stroke="#000000" stroke-width="1.5" stroke-linecap="round" stroke-linejoin="round" stroke-miterlimit="10" d="
		M151.957,174.27c0,0,0.166-2.667-0.834-4.667"/>
	<path fill="none" stroke="#000000" stroke-width="1.5" stroke-linecap="round" stroke-linejoin="round" stroke-miterlimit="10" d="
		M74.706,223.769c0,0,6.25-1.75,13.5,0"/>
	<path fill="none" stroke="#000000" stroke-width="1.5" stroke-linecap="round" stroke-linejoin="round" stroke-miterlimit="10" d="
		M100.747,201.729c3.708-4.625,4.459-15.21,3.209-27.46s-3.25-16.164-7.25-16.832"/>
	<path fill="none" stroke="#000000" stroke-width="1.5" stroke-linecap="round" stroke-linejoin="round" stroke-miterlimit="10" d="
		M212.706,218.019c0,0,5-3.25,15.75,0.25"/>
	<path fill="none" stroke="#000000" stroke-width="1.5" stroke-linecap="round" stroke-linejoin="round" stroke-miterlimit="10" d="
		M194.974,203.751c0,0-3.182-3.818-3.935-14.649s7.001-28.333,7.001-28.333s1.166-1.667,2.166-1.667"/>
	<path fill="none" stroke="#000000" stroke-width="1.5" stroke-linecap="round" stroke-linejoin="round" stroke-miterlimit="10" d="
		M140.706,142.437c0,0-1.75,3.332-5.75,4.332s-6,2.25-6,2.25s-0.75,16.5,14,27.25c0,0,1.742,0.792,3.311,3.581"/>
	<path fill="none" stroke="#000000" stroke-width="1.5" stroke-linecap="round" stroke-linejoin="round" stroke-miterlimit="10" d="
		M123.206,149.769l-3.5,7.5c0,0,10,20.5,10.5,24c0,0,3.875-7.125,6.875-6.375s9.125,4.875,9.125,4.875"/>
	<path fill="none" stroke="#000000" stroke-width="1.5" stroke-linecap="round" stroke-linejoin="round" stroke-miterlimit="10" d="
		M159.081,141.519c0,0,0.625,4.5,5.125,5.5s6.25,1.5,6.25,1.5s0.5,6.75-5,12.75c-4.085,4.456-7.756,7.258-10.092,9.223"/>
	<path fill="none" stroke="#000000" stroke-width="1.5" stroke-linecap="round" stroke-linejoin="round" stroke-miterlimit="10" d="
		M155.786,173.653c1.49-0.624,2.802-0.794,3.254,0.199c1.25,2.75,2.916,5.917,2.916,5.917s8.25-13,11.5-17s6-13.25,6-13.25"/>
	<path fill="none" stroke="#000000" stroke-width="3" stroke-linecap="round" stroke-linejoin="round" stroke-miterlimit="10" d="
		M109.788,242.769c0,0-1.666,11.665-3.333,15.665s2,7.667,2,7.667s16.999,2.333,23.333,0s3.667,2.667,19.667,1.667
		s13.667-4.667,20.667-4.333s10.666,4,14.666,2.333s5.667-8,5.667-8s-3.999-10-4.333-20"/>
	<path fill="none" stroke="#000000" stroke-width="1.5" stroke-linecap="round" stroke-linejoin="round" stroke-miterlimit="10" d="
		M148.391,229.28c-0.088,2.189-0.19,4.247-0.31,6.114c-0.791,12.375-8.458,17.375-3.958,26.208c0,0,2.001,3.667,3.334,4.333"/>
	<path fill="none" stroke="#000000" stroke-width="3" stroke-linecap="round" stroke-linejoin="round" stroke-miterlimit="10" d="
		M111.122,268.1c0,0-17.166,27.669-12.666,69.668c4.5,42,16.516,98.516,17.357,106.119c0.841,7.602,2.634,12.396,2.285,16.381
		c-0.349,3.986-3.98,46.109,2.744,66.775c6.725,20.664,9.597,28.029,10.936,35.676c1.338,7.646-0.988,14.383,0.317,23.617
		c0,0,0.28,2.535-4.129,7.043c-4.41,4.508-5.239,6.818-5.239,6.818s-1.404,3.141-1.736,5.496c0,0,0.249,2.906,2.603,3.238
		c0,0,0.449,2.047,2.159,2.572c1.711,0.525,2.594,0.479,2.594,0.479s1.298,2.371,2.781,2.627s3.428-0.453,3.428-0.453
		s0.356,1.662,3.096,1.902c2.74,0.24,3.753-1.303,3.753-1.303s1.672,2.404,6.399,1.438s3.24-5.488,3.24-5.488
		s2.731-5.408,1.056-9.193c-1.677-3.785-0.796-10.984-0.474-16.102s-1.155-11.578-2.329-19.277
		c-1.174-7.697-0.1-16.068,0.979-28.396c1.078-12.328,1.459-28.193-0.471-46.305c-1.928-18.113,3.4-44.789,3.4-44.789l5.25-0.375
		c0,0,0.077-4.201,0-6.25c0.75-10,0.25-10.5,1.5-15s2.312-8.188,6.062-17.938s5.312-10.562,17.438-12.812s38.5-8,62.75-10.5
		s42.375-5,49.875-22.5c0,0,11.125-10.75-16.875-30.5c-28-19.75-77.875-34.25-81.125-40s-10.875-24.25-10.875-24.25"/>
	<path fill="none" stroke="#000000" stroke-width="3" stroke-linecap="round" stroke-linejoin="round" stroke-miterlimit="10" d="
		M152.624,446.604c0,0-3.168-2.086-2.833-9.5c0.5-9.168-2.168-5.334-1.334-13.334s1.166-17.168-0.5-30.5
		c-1.666-13.334-2.166-20.832,0-23.334c2.166-2.5,3.332-4.5,11.166-2.5s6,4.002,21.667,3.834
		c15.667-0.166,25.666-13.002,40.916-15.252s36.25,0.25,36.25,0.25"/>
	<path fill="none" stroke="#000000" stroke-width="3" stroke-linecap="round" stroke-linejoin="round" stroke-miterlimit="10" d="
		M211.081,358.894c-21.75-4.5-33.895-8.885-42.875-13.885c0,0-5.782-4.367-7.347-1.74c-1.564,2.629-1.903,5.58-1.903,5.58
		s-0.5,10.42-0.5,17.92"/>
	<path fill="none" stroke="#000000" stroke-width="1.5" stroke-linecap="round" stroke-linejoin="round" stroke-miterlimit="10" d="
		M117.131,500.62c0,0,15.199,9.861,34.5,1.512"/>
	<path fill="none" stroke="#000000" stroke-width="1.5" stroke-linecap="round" stroke-linejoin="round" stroke-miterlimit="10" d="
		M124.271,608.364c0,0,0.716-2.447,1.686-3.492c0.97-1.043,0.933-2.051,0.933-2.051"/>
	<path fill="none" stroke="#000000" stroke-width="1.5" stroke-linecap="round" stroke-linejoin="round" stroke-miterlimit="10" d="
		M128.347,611.983c0,0,1.241-4.158,1.93-4.852c0.688-0.691,1.171-1.904,1.171-1.904"/>
	<path fill="none" stroke="#000000" stroke-width="1.5" stroke-linecap="round" stroke-linejoin="round" stroke-miterlimit="10" d="
		M134.556,614.157c0,0,0.31-2.105,0.543-3.34c0.234-1.234,1.378-4.271,1.378-4.271"/>
	<path fill="none" stroke="#000000" stroke-width="1.5" stroke-linecap="round" stroke-linejoin="round" stroke-miterlimit="10" d="
		M141.459,614.134c0,0-0.562-2.182-0.35-3.168c0.211-0.984,3.109-3.994,3.109-3.994"/>
	<path fill="none" stroke="#000000" stroke-width="1.5" stroke-linecap="round" stroke-linejoin="round" stroke-miterlimit="10" d="
		M160.956,385.769c0,0-1.125,6.5,7,7.5"/>
	<path fill="none" stroke="#000000" stroke-width="1.5" stroke-linecap="round" stroke-linejoin="round" stroke-miterlimit="10" d="
		M219.956,387.394c0,0-11.5-14.625-5-29.625"/>
</g>
</svg>
