<?xml version="1.0" encoding="utf-8"?>
<!-- Generator: Adobe Illustrator 16.0.0, SVG Export Plug-In . SVG Version: 6.00 Build 0)  -->
<!DOCTYPE svg PUBLIC "-//W3C//DTD SVG 1.1//EN" "http://www.w3.org/Graphics/SVG/1.1/DTD/svg11.dtd">
<svg version="1.1" id="Layer_1" xmlns="http://www.w3.org/2000/svg" xmlns:xlink="http://www.w3.org/1999/xlink" x="0px" y="0px"
	 width="340.16px" height="425.793px" viewBox="0 0 340.16 425.793" enable-background="new 0 0 340.16 425.793"
	 xml:space="preserve">
<g>
	<path fill="#2B3754" d="M238.42,152.749c-10,5.75-13.75,27.25-13.75,27.25l-1.189,0.4c-3.641-4.551-10.54-13.551-17.101-16.36
		c-0.81-0.35-1.64-0.7-2.5-1.05l0.131-0.32c1.5-3,3.079-13.42,3.079-13.42l0.33-1.16l31.341,3.33l0.5,0.5L238.42,152.749z"/>
	<path fill="#2B3754" d="M234.42,242.979l0.17,0.11c-2.579,9.32-3.96,13.66-4.17,24.66c-0.069,3.96,2.45,10.44,2.75,13.99
		c0.311,3.5-3.83,6.76-3.83,6.76s-5.67-17.5-8.67-30.25l-0.18-0.24C224.98,254.499,229.95,249.619,234.42,242.979z"/>
	<path fill="#C18C52" d="M229.34,288.499c0,0,3.58,19.75,1.33,35.75s-6.5,33.13-31,35.13c-2.31,0.19-3.71,0.3-5.739,0.35l-0.54-0.13
		c2-8.729,4.08-17.37-0.471-24.35c0,0-0.87-1.41-1.59-4.021c-0.83-3-1.479-7.6-0.41-13.479c1.391-7.65,8.341-21.22,13.63-52.3
		l0.03-0.11c1.34,0.42,2.09,0.66,2.09,0.66s6.21-2.03,13.82-7.99l0.18,0.24C223.67,270.999,229.34,288.499,229.34,288.499z"/>
	<path fill="#FFDCD2" d="M226.09,194.919c0.011,0.12,0.021,0.24,0.021,0.36l-0.771,0.05c0,0-0.75-8.75-1.75-13.75l0.58-0.33
		C228.42,187.249,231.851,194.079,226.09,194.919z"/>
	<path fill="#FFDCD2" d="M225.34,195.329l0.771-0.05c0.11,1.92-0.18,4.14-0.18,4.14s-1.341,10.66-2.591,11.83
		c-1.239,1.17-1.96,1.46-1.96,1.46s-0.21,0.87-2.54,1.54c-2.329,0.67-3.5-0.42-3.5-0.42s-0.329,0.55-1.029,0.91
		c-0.36,0.2-0.82,0.34-1.391,0.34c-1.67,0-2.33-2.33-2.33-2.33c-4.67,2.67-5-1.83-5-1.83l-3.17-17.17c0,0-2.659-6.5-4.659-9.83
		c-2-3.34-2.671-8.17-2.671-8.17s-10.68-3.35-23.569-5.67c-2.04-0.36-4.14-0.7-6.26-1c-2.17-0.311-4.93-0.561-8.08-0.78
		c-11.54-0.81-28.44-1.22-41.69-2.34c-8.92-0.74-16.19-1.81-19.07-3.54c-8.33-5-10-14.67-10-14.67s2.34-4.66,10-9.33
		c11.62-6.38,34.92-2.4,35.74-2.26l0.2-0.36c5.51,2.95,10.02,5.09,10.93,5.51c0.74,0.96,5.23,6.24,17.11,9.811
		c8.39,2.53,15.96,4.22,21.439,4.26v0.04c4.421,1.19,8.891,2.62,13.141,4.15c3.12,1.12,6.13,2.279,8.899,3.42
		c0.86,0.35,1.69,0.7,2.5,1.05c6.561,2.81,13.46,11.81,17.101,16.36c0.25,0.31,0.479,0.59,0.689,0.85l-0.58,0.33
		C224.59,186.579,225.34,195.329,225.34,195.329z"/>
	<path fill="#C18C52" d="M209.19,225.609l-5.771,11.89c-2.75-2.75-12.5-4.25-12.5-4.25c-12.77-2.83-22.959-5.43-31.08-7.79
		l0.06-0.21c-0.08-9.3,0.19-17.92,1.02-24.5c3.5-27.5,10.58-30.58,10.58-30.58l0.021-0.09c12.89,2.32,23.569,5.67,23.569,5.67
		s0.671,4.83,2.671,8.17c2,3.33,4.659,9.83,4.659,9.83l3.17,17.17c0,0,0.33,4.5,5,1.83c0,0,0.66,2.33,2.33,2.33
		c0.57,0,1.03-0.14,1.391-0.34l0.08,0.149L209.19,225.609z"/>
	<path fill="#FFDCD2" d="M204.58,265.339l-0.03,0.11c-5.289,31.08-12.239,44.649-13.63,52.3c-1.069,5.88-0.42,10.479,0.41,13.479
		l-0.069,0.021c0.329,10-1.5,12.5-4.171,29c-2.659,16.5-12.329,19.34-18.33,19.17c-6-0.17-4.17-10.17-4.17-10.17l-0.61-0.14
		c0.74-3.011,1.48-7.17,2.45-12.94c0.16-0.93,0.32-1.9,0.49-2.92c2.5-15-3-62-3-62s-1.27-13.81-2.39-30.46l0.56-0.04
		c0,0,18.77,5.27,36.67,2.71C201.21,264.259,203.21,264.899,204.58,265.339z"/>
	<path fill="#2B3754" d="M199.38,147.999c-0.739-0.63-3.859-0.72-6.04-0.7l-0.189-0.09c0.57-1.19,1.13-2.49,1.67-3.85l0.15,0.06
		c3.869-0.63,7.119,0,7.119,0l5.33,4.67l-0.33,1.16c0,0-1.579,10.42-3.079,13.42l-0.131,0.32c-2.77-1.141-5.779-2.3-8.899-3.42
		l0.109-0.32c4.671-3,5.58-8.91,5.58-8.91S200.55,148.999,199.38,147.999z"/>
	<path fill="#962929" d="M164.59,369.249c0,0-1.83,10,4.17,10.17c6,0.17,15.67-2.67,18.33-19.17c2.671-16.5,4.5-19,4.171-29
		l0.069-0.021c0.72,2.61,1.59,4.021,1.59,4.021c4.551,6.979,2.471,15.62,0.471,24.35c-1.301,5.65-2.561,11.341-1.971,16.65
		c1.5,13.5-8,16.5-8,16.5c-19.689,2.95-29.2,0.09-29.97-5.72c-0.01-0.09-0.02-0.19-0.03-0.28c-0.5-6,5-9,7.5-11
		c0.18-0.14,0.34-0.3,0.51-0.48c1.01-1.109,1.78-2.989,2.55-6.159L164.59,369.249z"/>
	<path fill="#C18C52" d="M198.761,263.459c-17.9,2.56-36.67-2.71-36.67-2.71l-0.56,0.04c-0.23-3.38-0.45-6.88-0.65-10.41l0.03-0.07
		C174.15,255.319,189.62,260.479,198.761,263.459z"/>
	<path fill="#FFDCD2" d="M196.931,111.179c0.05,0.91,0.239,1.56,0.51,2.32l-0.71,0.25c-0.271-0.48-4.65-8.1-8.96-11.05l0.26-0.55
		l1.06,0.51c0,0-4.06-7.57,0.44-7.64c3.02,0.22,3.79,3.4,6.07,8.69c0-0.02,0.01-0.04,0.01-0.06
		C195.96,104.699,197.11,108.309,196.931,111.179z"/>
	<path fill="#FFDCD2" d="M194.98,159.569c-4.25-1.53-8.72-2.96-13.141-4.15v-0.04c3.08,0.03,5.5-0.479,7.04-1.65
		c1.271-0.96,2.79-3.38,4.271-6.52l0.189,0.09c2.181-0.02,5.301,0.07,6.04,0.7c1.17,1,1.29,2.34,1.29,2.34s-0.909,5.91-5.58,8.91
		L194.98,159.569z"/>
	<path fill="#FFDCD2" d="M196.73,113.749l0.71-0.25c0.53,1.51,1.38,3.47,1.97,8.94c0.521,4.85-1.76,13.77-4.59,20.92
		c-0.54,1.359-1.1,2.659-1.67,3.85c-1.48,3.14-3,5.56-4.271,6.52c-1.54,1.171-3.96,1.681-7.04,1.65
		c-5.479-0.04-13.05-1.729-21.439-4.26c-11.88-3.57-16.37-8.851-17.11-9.811c0.11,0.051,0.17,0.08,0.17,0.08l-4.4-14.01
		c0,0,8.61,5.16,24.77-4.15c16.16-9.31,16.351-24.85,16.351-24.85l7.85,3.77l-0.26,0.55
		C192.08,105.649,196.46,113.269,196.73,113.749z"/>
	<path fill="#C18C52" d="M163.92,291.249c0,0,5.5,47,3,62c-0.17,1.02-0.33,1.99-0.49,2.92l-0.17-0.03
		c-3.5-0.85-6.73-1.51-10.34-1.51c-0.98,0-1.89,0.021-2.75,0.05l-0.49,0.07c-0.98-7.2-1.62-18.99-1.01-38.25
		c0.59-18.29,2-37.91,3.48-55.07c0.39-4.489,0.79-8.81,1.17-12.89c1.49,0.59,3.03,1.18,4.59,1.77l-0.03,0.07
		c0.2,3.53,0.42,7.03,0.65,10.41C162.65,277.439,163.92,291.249,163.92,291.249z"/>
	<path fill="#2B3754" d="M159.67,205.249c-0.5-16-0.25-28.75-2.5-36.75l0.01-0.2c3.15,0.22,5.91,0.47,8.08,0.78
		c2.12,0.3,4.22,0.64,6.26,1l-0.021,0.09c0,0-7.08,3.08-10.58,30.58c-0.83,6.58-1.1,15.2-1.02,24.5l-0.06,0.21
		c-0.44-0.12-0.87-0.25-1.3-0.37l0.1-0.34C159.38,216.089,159.81,209.679,159.67,205.249z"/>
	<path fill="#C18C52" d="M159.67,205.249c0.14,4.43-0.29,10.84-1.03,19.5l-0.1,0.34c-32.2-9.479-30.62-14.84-30.62-14.84
		c-0.5-4.5,0.5-11-2-15s-3-9.5-3-9.5s-6.06-4.44-6.06,2.56s1.44,12.94-1.56,7.44s-1.88-10.5-2.88-14c-0.52-1.8-1.52-2.37-2.38-2.51
		l1.38,0.01l4-12.5l0.07-0.79c13.25,1.12,30.15,1.53,41.69,2.34l-0.01,0.2C159.42,176.499,159.17,189.249,159.67,205.249z"/>
	<path fill="#C18C52" d="M156.32,248.539c-0.38,4.08-0.78,8.4-1.17,12.89l-0.06-0.01c-21.45,5.68-39.31-2.67-41.17-3.59
		c-1.88-11.08-3.37-22.96-3.37-34.45l0.83-1.02c5.92,5.72,16.54,12.47,30.04,19.64C145.021,243.909,150.3,246.179,156.32,248.539z"
		/>
	<path fill="#FFDCD2" d="M155.09,261.419l0.06,0.01c-1.48,17.16-2.89,36.78-3.48,55.07c-0.61,19.26,0.03,31.05,1.01,38.25
		c0.16,1.2,0.33,2.27,0.5,3.229l-0.59,0.11c0,3.5,3.17,14.33-1.83,15.33s-16,1.17-18.33-2.83c-2.34-4-1.17-11.84-1.84-15.17
		c-0.66-3.33-0.83-5.5-0.83-5.5l-0.51-0.06c0.31-2.801,0.48-5.61,0.42-8.36c-4.25-24.75-6.75-32.25-9.25-48.75
		c-1.37-9.06-4.22-21.41-6.5-34.92C115.78,258.749,133.64,267.099,155.09,261.419z"/>
	<path fill="#BA3E2A" d="M139.06,127.379l4.4,14.01c0,0-0.06-0.029-0.17-0.08c-0.91-0.42-5.42-2.56-10.93-5.51
		c-2.21-1.189-4.59-2.51-6.96-3.91c-7.2-4.229-14.5-9.71-19.68-22.9c-3.92-10.54-3.09-19.27,1.15-29.31
		c-0.18-0.11-0.36-0.21-0.53-0.32l0.34-0.55c6.46,3.48,9.34,1.79,9.34,1.79l0.56-0.27c1.53,3.11,3.84,5.83,7.39,6.76
		c9.94,2.6,26.23-7.28,31.25-19.67c3.54-8.96-0.03-14.95-3.93-17.21l0.44-0.65c17.14-3.56,24.68,1.67,33.01,11.98
		c8.31,10.3,12.26,31.28,10.87,42.11c0,0.02-0.01,0.04-0.01,0.06c-2.28-5.29-3.051-8.47-6.07-8.69c-4.5,0.07-0.44,7.64-0.44,7.64
		l-1.06-0.51l-7.85-3.77c0,0-0.19,15.54-16.351,24.85C147.67,132.539,139.06,127.379,139.06,127.379z"/>
	<path fill="#962929" d="M128.75,353.799c0.19-1.31,0.37-2.62,0.5-3.939l0.51,0.06c0,0,0.17,2.17,0.83,5.5
		c0.67,3.33-0.5,11.17,1.84,15.17c2.33,4,13.33,3.83,18.33,2.83s1.83-11.83,1.83-15.33l0.59-0.11c1.36,7.341,2.99,8.021,2.99,8.021
		s3.43,4.61,5.26,9.27c-0.17,0.181-0.33,0.341-0.51,0.48c-2.5,2-8,5-7.5,11c0.01,0.09,0.02,0.19,0.03,0.28h-0.03
		c-3.94,0.399-9.65,0.359-18.25,0.47C119.95,387.699,126.14,371.429,128.75,353.799z"/>
	<path fill="#BA3E2A" d="M155.22,67.419c-5.02,12.39-21.31,22.27-31.25,19.67c-3.55-0.93-5.86-3.65-7.39-6.76
		c-1.08-2.21-1.76-4.62-2.19-6.73l-0.17,0.03c0,0-1.26,1.18-4.74,0.97v-0.81c0.05,0,0.12,0,0.18,0c1.03-2.03,1.97-3.72,3.22-5.9
		c0.33-9.33,2.96-13.12,14.12-18.75c11.17-5.62,19.54-5.28,24.73,0.42l-0.44,0.65C155.19,52.469,158.76,58.459,155.22,67.419z"/>
	<path fill="#BA3E2A" d="M109.48,74.599c3.48,0.21,4.74-0.97,4.74-0.97l0.17-0.03c0.43,2.11,1.11,4.52,2.19,6.73l-0.56,0.27
		c0,0-2.88,1.69-9.34-1.79l-0.34,0.55c-6.34-3.91-7.25-7.59-7.25-7.59s6.24,2.04,10.39,2.02V74.599z"/>
	<path fill="#C18C52" d="M110.55,223.379c0,11.49,1.49,23.37,3.37,34.45c2.28,13.51,5.13,25.86,6.5,34.92c2.5,16.5,5,24,9.25,48.75
		c0.06,2.75-0.11,5.56-0.42,8.36c-0.13,1.319-0.31,2.63-0.5,3.939l-0.26-0.04c-12.44-3.49-23.66-14.87-26.07-34.13
		c-2-20-0.7-45.49,1.5-60.81c1.93-13.38,3.24-27.15,4.14-39.33l0.53-0.2c0.76,0.979,1.69,2.01,2.79,3.07L110.55,223.379z"/>
	<path fill="#FFDCD2" d="M108.59,219.289c-3.82-4.94-8.6-11.2-6.92-17.79c0,0-0.5-4.91,2.04-8.54c0,0,0.13-1.46,0.13-4.46
		s3.08-3.75,3.08-3.75l1.63-5.37c0,0,0.25-0.1,0.62-0.14h0.87c0.86,0.14,1.86,0.71,2.38,2.51c1,3.5-0.12,8.5,2.88,14
		s1.56-0.44,1.56-7.44s6.06-2.56,6.06-2.56s0.5,5.5,3,9.5s1.5,10.5,2,15c0,0-1.58,5.36,30.62,14.84c0.43,0.12,0.86,0.25,1.3,0.37
		c8.12,2.36,18.31,4.96,31.08,7.79c0,0,9.75,1.5,12.5,4.25l5.771-11.89l5.2-10.721l-0.08-0.149c0.7-0.36,1.029-0.91,1.029-0.91
		s1.171,1.09,3.5,0.42c2.33-0.67,2.54-1.54,2.54-1.54s0.721-0.29,1.96-1.46c1.25-1.17,2.591-11.83,2.591-11.83s0.29-2.22,0.18-4.14
		c0-0.12-0.01-0.24-0.021-0.36c5.761-0.84,2.33-7.67-1.92-13.67c-0.21-0.26-0.439-0.54-0.689-0.85l1.189-0.4
		c0,0,3.75-21.5,13.75-27.25l0.841-0.83l2.159,2.17c0,0,7.271,6.86,9,17.18c2.44,14.49-1.069,35.79-7.5,54.48
		c-2.319,6.75-5.279,12.45-8.5,17.229c-4.47,6.641-9.439,11.521-13.93,15.03c-7.61,5.96-13.82,7.99-13.82,7.99s-0.75-0.24-2.09-0.66
		c-1.37-0.439-3.37-1.08-5.819-1.88c-9.141-2.98-24.61-8.14-37.851-13.15c-1.56-0.59-3.1-1.18-4.59-1.77
		c-6.02-2.36-11.3-4.63-14.9-6.54c-13.5-7.17-24.12-13.92-30.04-19.64C110.28,221.299,109.35,220.269,108.59,219.289z"/>
</g>
<g id="line_8_">
	<path fill="none" stroke="#000000" stroke-width="3" stroke-linecap="round" stroke-linejoin="round" stroke-miterlimit="10" d="
		M163.832,123.229c-16.157,9.312-24.772,4.148-24.772,4.148l4.401,14.016c0,0-9.091-4.223-18.06-9.498
		c-7.201-4.236-14.5-9.711-19.678-22.908c-3.928-10.539-3.097-19.264,1.146-29.303c-6.816-4.027-7.783-7.908-7.783-7.908
		s6.434,2.098,10.569,2.014c1.033-2.025,1.973-3.717,3.229-5.896c0.331-9.331,2.952-13.121,14.119-18.748
		c11.168-5.627,19.541-5.287,24.723,0.411c17.148-3.556,24.689,1.67,33.019,11.986c8.331,10.317,12.263,31.356,10.855,42.17
		c-2.274-5.291-3.054-8.469-6.071-8.693c-4.499,0.068-0.439,7.637-0.439,7.637l-8.904-4.279
		C180.185,98.378,179.988,113.917,163.832,123.229z"/>
	<path fill="none" stroke="#000000" stroke-width="3" stroke-linecap="round" stroke-linejoin="round" stroke-miterlimit="10" d="
		M143.176,141.163c0,0,4.115,6.023,17.224,9.963c13.109,3.941,24.203,5.861,28.483,2.609c4.282-3.252,11.408-23.088,10.527-31.291
		c-0.879-8.201-2.35-8.511-2.476-11.267c0.207-3.385-1.43-7.828-1.43-7.828"/>
	<path fill="none" stroke="#000000" stroke-width="1.5" stroke-linecap="round" stroke-linejoin="round" stroke-miterlimit="10" d="
		M139.598,126.913c-10.064-5.484-10.652-20.332-5.914-21.931s9.562,5.01,6.686,8.67c-2.88,3.658-4.7-1.785-4.7-1.785"/>
	<path fill="none" stroke="#000000" stroke-width="1.5" stroke-linecap="round" stroke-linejoin="round" stroke-miterlimit="10" d="
		M179.402,99.259c0.813-3.352-3.787-23.57-21.345-8.275"/>
	<path fill="none" stroke="#000000" stroke-width="1.5" stroke-linecap="round" stroke-linejoin="round" stroke-miterlimit="10" d="
		M113.697,67.852c0,0,0.341,16.634,10.276,19.242c9.934,2.604,26.227-7.283,31.242-19.669c3.546-8.957-0.029-14.948-3.921-17.213"/>
	<path fill="none" stroke="#000000" stroke-width="1.5" stroke-linecap="round" stroke-linejoin="round" stroke-miterlimit="10" d="
		M137.319,84.703c0,0-14.247,2.564-16.007-6.422c-1.762-8.986,11.844-4.143,10.712-1.668c-1.131,2.475-5.597,1.758-5.597,1.758"/>
	<path fill="none" stroke="#000000" stroke-width="1.5" stroke-linecap="round" stroke-linejoin="round" stroke-miterlimit="10" d="
		M116.017,80.601c0,0-2.876,1.689-9.338-1.785"/>
	<path fill="none" stroke="#000000" stroke-width="1.5" stroke-linecap="round" stroke-linejoin="round" stroke-miterlimit="10" d="
		M114.222,73.632c0,0-1.266,1.184-4.741,0.965"/>
	<path fill="none" stroke="#000000" stroke-width="1.5" stroke-linecap="round" stroke-linejoin="round" stroke-miterlimit="10" d="
		M196.745,113.769c0,0-4.524-8.014-8.978-11.068"/>
	<path fill="none" stroke="#000000" stroke-width="2" stroke-linecap="round" stroke-linejoin="round" stroke-miterlimit="10" d="
		M146.319,136.995c0,0,4.275-6.641,12.274-6.82"/>
	<path fill="none" stroke="#000000" stroke-width="2" stroke-linecap="round" stroke-linejoin="round" stroke-miterlimit="10" d="
		M150.909,141.489c0,0,6.221,2.924,11.481-5.301"/>
	<path fill="none" stroke="#000000" stroke-width="2" stroke-linecap="round" stroke-linejoin="round" stroke-miterlimit="10" d="
		M174.561,120.603c0,0,4.265-9.712,11.97-11.175"/>
	<path fill="none" stroke="#000000" stroke-width="2" stroke-linecap="round" stroke-linejoin="round" stroke-miterlimit="10" d="
		M179.423,124.271c0,0,8.628,0.471,9.921-7.568"/>
	<path fill="none" stroke="#000000" stroke-width="1.5" stroke-linecap="round" stroke-linejoin="round" stroke-miterlimit="10" d="
		M163.689,130.058c0,0,3.575-0.305,4.854,1.826c1.689,2.438,4.515,11.873,4.515,11.873s3.964,1.361,6.106,0.951
		c0.7-0.453,1.713-1.236,2.018-1.857c0.306-0.619,0.394-2.518,0.286-3.637"/>
	<path fill="none" stroke="#000000" stroke-width="1.5" stroke-linecap="round" stroke-linejoin="round" stroke-miterlimit="10" d="
		M176.515,144.757c0,0-1.708,1.234-2.603,1.166s-2.049-0.404-2.049-0.404l-0.84-1.703"/>
	<path fill="none" stroke="#000000" stroke-width="1.5" stroke-linecap="round" stroke-linejoin="round" stroke-miterlimit="10" d="
		M181.914,140.528c0,0,1.758-1.074,1.999-2.812c0.24-1.734-1.649-2.189-1.649-2.189"/>
	<path fill="none" stroke="#000000" stroke-width="1.5" stroke-linecap="round" stroke-linejoin="round" stroke-miterlimit="10" d="
		M178.573,149.229c0,0,7.137-2.236,9.751-10.234"/>
	
		<path id="a_6_" fill="none" stroke="#000000" stroke-width="1.5" stroke-linecap="round" stroke-linejoin="round" stroke-miterlimit="10" d="
		M186.094,138.499c0,0,1.924,0.162,4.812-0.043"/>
	<path fill="none" stroke="#000000" stroke-width="3" stroke-linecap="round" stroke-linejoin="round" stroke-miterlimit="10" d="
		M132.176,136.169c0,0-23.921-4.252-35.751,2.252c-7.666,4.668-10,9.334-10,9.334s1.666,9.666,10,14.666s53.332,4.494,68.833,6.662
		c15.501,2.166,29.834,6.672,29.834,6.672s0.667,4.83,2.667,8.162c2,3.334,4.666,9.838,4.666,9.838l3.164,17.166
		c0,0,0.333,4.502,5,1.834c0,0,0.664,2.33,2.331,2.33s2.42-1.25,2.42-1.25s1.166,1.082,3.5,0.416s2.541-1.541,2.541-1.541
		s0.716-0.293,1.962-1.459s2.583-11.834,2.583-11.834s0.33-2.5,0.163-4.5c5.763-0.832,2.333-7.666-1.915-13.666
		c-3.418-4.166-10.791-14.207-17.791-17.207s-15.874-6.289-24.541-8.623"/>
	
		<line fill="none" stroke="#000000" stroke-width="1.5" stroke-linecap="round" stroke-linejoin="round" stroke-miterlimit="10" x1="210.172" y1="191.833" x2="210.922" y2="212.251"/>
	
		<line fill="none" stroke="#000000" stroke-width="1.5" stroke-linecap="round" stroke-linejoin="round" stroke-miterlimit="10" x1="215.506" y1="191.667" x2="215.256" y2="213.417"/>
	<path fill="none" stroke="#000000" stroke-width="1.5" stroke-linecap="round" stroke-linejoin="round" stroke-miterlimit="10" d="
		M220.922,191.585c0,0-0.334,13.832-1,21.832"/>
	<path fill="none" stroke="#000000" stroke-width="1.5" stroke-linecap="round" stroke-linejoin="round" stroke-miterlimit="10" d="
		M225.34,195.333c0,0-0.75-8.75-1.75-13.75"/>
	<path fill="none" stroke="#000000" stroke-width="3" stroke-linecap="round" stroke-linejoin="round" stroke-miterlimit="10" d="
		M194.966,143.419c3.875-0.625,7.125,0.002,7.125,0.002l5.334,4.666l31.333,3.334l2.667,2.666c0,0,7.265,6.863,8.999,17.184
		c2.436,14.488-1.075,35.793-7.5,54.483c-11,32-36.25,40.25-36.25,40.25s-49.25-15.5-65.25-24s-27.963-16.414-32.834-22.716
		c-3.818-4.939-8.601-11.193-6.916-17.785c0,0-0.501-4.916,2.041-8.541c0,0,0.125-1.459,0.125-4.459s3.084-3.75,3.084-3.75
		l1.625-5.375c0,0,2.875-1.125,3.875,2.375s-0.125,8.5,2.875,14s1.562-0.438,1.562-7.438s6.062-2.562,6.062-2.562s0.5,5.5,3,9.5
		s1.5,10.5,2,15c0,0-2.5,8.5,63,23.001c0,0,9.75,1.5,12.5,4.25l10.967-22.608"/>
	<path fill="none" stroke="#000000" stroke-width="1.5" stroke-linecap="round" stroke-linejoin="round" stroke-miterlimit="10" d="
		M193.338,147.3c2.179-0.021,5.303,0.068,6.045,0.703c1.167,1,1.291,2.334,1.291,2.334s-0.917,5.916-5.583,8.916"/>
	<path fill="none" stroke="#000000" stroke-width="1.5" stroke-linecap="round" stroke-linejoin="round" stroke-miterlimit="10" d="
		M207.091,149.253c0,0-1.583,10.418-3.083,13.418"/>
	<path fill="none" stroke="#000000" stroke-width="1.5" stroke-linecap="round" stroke-linejoin="round" stroke-miterlimit="10" d="
		M224.674,180.003c0,0,3.75-21.5,13.75-27.25"/>
	
		<line fill="none" stroke="#000000" stroke-width="1.5" stroke-linecap="round" stroke-linejoin="round" stroke-miterlimit="10" x1="104.258" y1="206.253" x2="102.59" y2="201.421"/>
	<path fill="none" stroke="#000000" stroke-width="1.5" stroke-linecap="round" stroke-linejoin="round" stroke-miterlimit="10" d="
		M106.338,202.835c0,0-1.498-3.248-1.915-9.164"/>
	<path fill="none" stroke="#000000" stroke-width="1.5" stroke-linecap="round" stroke-linejoin="round" stroke-miterlimit="10" d="
		M108.673,199.085c0,0-1.75-5.334-1.084-14.668"/>
	<path fill="none" stroke="#000000" stroke-width="3" stroke-linecap="round" stroke-linejoin="round" stroke-miterlimit="10" d="
		M171.505,170.167c0,0-7.081,3.086-10.581,30.586c-0.838,6.582-1.103,15.195-1.021,24.495"/>
	<path fill="none" stroke="#000000" stroke-width="3" stroke-linecap="round" stroke-linejoin="round" stroke-miterlimit="10" d="
		M160.884,250.379c1.194,20.875,3.04,40.875,3.04,40.875s5.5,47,3,62s-3.5,20.5-6,22.5s-8,5-7.5,11s10,9,30,6c0,0,9.5-3,8-16.5
		s9-29.5,1.5-41c0,0-4-6.5-2-17.5c1.391-7.648,8.339-21.217,13.622-52.303"/>
	<path fill="none" stroke="#000000" stroke-width="3" stroke-linecap="round" stroke-linejoin="round" stroke-miterlimit="10" d="
		M209.179,225.754c0.282-3.916,0.532-7.997,0.745-12.251"/>
	<path fill="none" stroke="#000000" stroke-width="1.5" stroke-linecap="round" stroke-linejoin="round" stroke-miterlimit="10" d="
		M162.091,260.754c0,0,19,5.332,37,2.666"/>
	<path fill="none" stroke="#000000" stroke-width="1.5" stroke-linecap="round" stroke-linejoin="round" stroke-miterlimit="10" d="
		M164.594,369.256c0,0-1.833,10,4.167,10.166c6,0.168,15.666-2.666,18.333-19.166s4.501-19,4.167-29"/>
	
		<line fill="none" stroke="#000000" stroke-width="3" stroke-linecap="round" stroke-linejoin="round" stroke-miterlimit="10" x1="115.424" y1="166.753" x2="111.424" y2="179.253"/>
	<path fill="none" stroke="#000000" stroke-width="3" stroke-linecap="round" stroke-linejoin="round" stroke-miterlimit="10" d="
		M153.425,387.029c-3.948,0.402-9.654,0.361-18.251,0.475c-18.75,0.25-5-24.5-5.5-46c-4.25-24.75-6.75-32.25-9.25-48.75
		s-9.875-43.875-9.875-69.375"/>
	<path fill="none" stroke="#000000" stroke-width="3" stroke-linecap="round" stroke-linejoin="round" stroke-miterlimit="10" d="
		M156.324,248.504c-1.85,19.721-3.914,44.912-4.65,68c-1.5,46.998,4.5,49.5,4.5,49.5s3.525,4.734,5.334,9.473"/>
	<path fill="none" stroke="#000000" stroke-width="3" stroke-linecap="round" stroke-linejoin="round" stroke-miterlimit="10" d="
		M157.174,168.503c2.25,8,2,20.75,2.5,36.75c0.139,4.432-0.298,10.836-1.033,19.501"/>
	<path fill="none" stroke="#000000" stroke-width="1.5" stroke-linecap="round" stroke-linejoin="round" stroke-miterlimit="10" d="
		M113.757,257.754c0,0,18.668,9.666,41.334,3.666"/>
	<path fill="none" stroke="#000000" stroke-width="1.5" stroke-linecap="round" stroke-linejoin="round" stroke-miterlimit="10" d="
		M129.761,349.922c0,0,0.166,2.168,0.833,5.5c0.667,3.334-0.501,11.168,1.833,15.168s13.334,3.832,18.334,2.832
		s1.833-11.832,1.833-15.332"/>
	<path fill="none" stroke="#000000" stroke-width="3" stroke-linecap="round" stroke-linejoin="round" stroke-miterlimit="10" d="
		M108.06,219.489c-0.896,12.181-2.211,25.954-4.136,39.333c-2.204,15.318-3.5,40.812-1.5,60.812
		c2.408,19.262,13.629,30.641,26.065,34.133"/>
	<path fill="none" stroke="#000000" stroke-width="3" stroke-linecap="round" stroke-linejoin="round" stroke-miterlimit="10" d="
		M153.174,354.686c0.853-0.033,1.765-0.051,2.75-0.051c3.602,0,6.836,0.662,10.332,1.51"/>
	<path fill="none" stroke="#000000" stroke-width="3" stroke-linecap="round" stroke-linejoin="round" stroke-miterlimit="10" d="
		M193.929,359.73c2.029-0.047,3.436-0.158,5.745-0.346c24.5-2,28.75-19.131,31-35.131s-1.337-35.75-1.337-35.75
		s4.14-3.258,3.837-6.764c-0.306-3.543-2.823-10.027-2.75-13.986c0.204-11.006,1.587-15.342,4.168-24.666"/>
	<path fill="none" stroke="#000000" stroke-width="3" stroke-linecap="round" stroke-linejoin="round" stroke-miterlimit="10" d="
		M229.337,288.504c0,0-5.663-17.5-8.663-30.25"/>
</g>
</svg>
