<?xml version="1.0" encoding="UTF-8" standalone="no"?>
<!-- Created with Inkscape (http://www.inkscape.org/) -->

<svg
   xmlns:dc="http://purl.org/dc/elements/1.1/"
   xmlns:cc="http://creativecommons.org/ns#"
   xmlns:rdf="http://www.w3.org/1999/02/22-rdf-syntax-ns#"
   xmlns:svg="http://www.w3.org/2000/svg"
   xmlns="http://www.w3.org/2000/svg"
   xmlns:sodipodi="http://sodipodi.sourceforge.net/DTD/sodipodi-0.dtd"
   xmlns:inkscape="http://www.inkscape.org/namespaces/inkscape"
   width="164.849"
   height="165.06294"
   id="svg3142"
   version="1.1"
   inkscape:version="0.47 r22583"
   sodipodi:docname="central scotland mini.svg">
  <defs
     id="defs3144">
    <inkscape:perspective
       sodipodi:type="inkscape:persp3d"
       inkscape:vp_x="0 : 526.18109 : 1"
       inkscape:vp_y="0 : 1000 : 0"
       inkscape:vp_z="744.09448 : 526.18109 : 1"
       inkscape:persp3d-origin="372.04724 : 350.78739 : 1"
       id="perspective3150" />
    <inkscape:perspective
       id="perspective3128"
       inkscape:persp3d-origin="0.5 : 0.33333333 : 1"
       inkscape:vp_z="1 : 0.5 : 1"
       inkscape:vp_y="0 : 1000 : 0"
       inkscape:vp_x="0 : 0.5 : 1"
       sodipodi:type="inkscape:persp3d" />
    <inkscape:perspective
       id="perspective3187"
       inkscape:persp3d-origin="0.5 : 0.33333333 : 1"
       inkscape:vp_z="1 : 0.5 : 1"
       inkscape:vp_y="0 : 1000 : 0"
       inkscape:vp_x="0 : 0.5 : 1"
       sodipodi:type="inkscape:persp3d" />
  </defs>
  <sodipodi:namedview
     id="base"
     pagecolor="#ffffff"
     bordercolor="#666666"
     borderopacity="1.0"
     inkscape:pageopacity="0.0"
     inkscape:pageshadow="2"
     inkscape:zoom="4.0279818"
     inkscape:cx="187.62519"
     inkscape:cy="85.224631"
     inkscape:document-units="px"
     inkscape:current-layer="g5980"
     showgrid="false"
     inkscape:window-width="1600"
     inkscape:window-height="838"
     inkscape:window-x="-8"
     inkscape:window-y="-8"
     inkscape:window-maximized="1" />
  <metadata
     id="metadata3147">
    <rdf:RDF>
      <cc:Work
         rdf:about="">
        <dc:format>image/svg+xml</dc:format>
        <dc:type
           rdf:resource="http://purl.org/dc/dcmitype/StillImage" />
        <dc:title></dc:title>
      </cc:Work>
    </rdf:RDF>
  </metadata>
  <g
     inkscape:label="Layer 1"
     inkscape:groupmode="layer"
     id="layer1"
     transform="translate(-380.40397,-249.97452)">
    <g
       transform="matrix(1.5559376,0,0,1.5559376,171.36859,-812.11918)"
       style="fill:none;stroke:#000000;stroke-opacity:1"
       id="g5980">
      <path
         style="fill:#c8ffc8;stroke:#000000;stroke-width:0.90000004000000000;stroke-linecap:round;stroke-linejoin:round;stroke-miterlimit:9.99670124000000020;stroke-opacity:1;stroke-dasharray:none;fill-opacity:1"
         d="m 198.16112,695.6721 c -0.18786,1.18226 0.45069,1.5381 0.88314,2.10004 -0.19005,1.0957 0.36693,1.44434 0.31688,2.40002 0.6459,0.26535 0.91675,1.65989 -0.28312,1.50003 -0.19483,0.71082 -1.13826,0.67302 -1.81693,0.90001 -0.50376,0.49946 -0.2428,1.75064 0.88314,1.50001 0.57299,-0.0298 1.02271,1.5374 1.51693,0.60002 0.3407,-0.6537 1.03246,-0.95632 1.78315,-1.20002 1.05407,0.14843 1.06641,-0.74488 1.51692,-1.20002 -0.0277,1.45337 1.2828,1.22635 0.60001,0.31689 0.99609,-0.16718 0.4778,1.32077 1.80005,0.88313 0.65964,0.41059 1.2524,0.70437 1.50003,1.78314 0.55477,0.27134 1.12535,1.0544 1.20004,1.8169 -1.01618,0.63411 -1.78363,1.101 -2.10005,1.80003 -0.19297,1.18735 0.78532,1.20345 0.60001,2.38315 -0.3162,0.22701 -1.55628,1.00383 -0.90003,1.2169 -0.24902,0.61052 -2.08395,0.32767 -2.38317,0 -0.83676,0.41478 -1.32568,0.0824 -2.41694,0 -0.12521,0.83995 -2.0619,-0.41693 -1.81692,0 -0.61964,-0.20927 0.0625,-1.86103 -1.18315,-1.50003 -1.71522,0.30388 0.28307,-1.59454 -0.88314,-1.20001 -0.23763,-0.66803 -1.68806,-0.12325 -2.41694,-0.3 -0.65741,-0.60553 -1.82171,0.0581 -1.78316,0.3 0.42309,0.4258 0.44472,1.71254 -0.6169,1.50002 -0.3738,0.62059 -0.81438,1.1744 -1.20003,1.78314 -0.63086,0.20041 -0.28873,1.85355 0,2.11691 0.079,0.91538 1.38319,0.60559 1.20003,1.78314 -0.44171,1.50899 -0.40738,0.56135 -2.0494,0.31689 -1.21304,-0.20176 -1.75364,0.26891 -2.73383,0.3 -1.14397,-0.31168 -1.2461,-0.0513 -2.41695,0.30001 -0.62782,-0.36656 -0.87381,-1.11496 -1.78315,-1.20002 -0.79646,0.19367 0.29642,0.2183 -1.21691,0.30001 -1.01707,0.0227 -0.18624,-1.80255 -1.18315,-1.80003 0.041,0.46377 -1.11657,-0.77926 -0.31689,-1.20001 0.42575,-0.38829 0.97357,-1.66344 0.0169,-1.80002 -0.57941,-0.32624 -1.06531,-0.74598 -1.81692,-0.90002 -0.28081,-0.21195 -1.42288,-0.0646 -2.00024,0.5002 -1.48645,0.57003 -0.78089,-0.23152 -1.59984,-0.2002 -0.0286,-0.93273 1.02178,-1.30566 1.78315,-1.50002 -0.0759,-0.67861 -1.32215,-0.80743 -0.58312,-1.50001 0.15752,-1.15192 -0.75013,-1.23865 -0.90003,-2.08315 -0.12702,-0.63952 -1.76566,0.5087 -2.10005,-0.31689 -0.91236,-0.40606 -2.0283,1.1059 -2.10005,-0.28313 -0.9609,-0.48306 -1.93645,-0.13267 -0.90002,-1.50001 0.5043,-0.40135 0.0113,-1.80005 0.90002,-1.8169 0.33417,-1.12917 -0.27251,-1.35134 0.58314,-1.80002 0.6454,-0.26024 1.34449,-0.4668 1.81693,-0.90002 0.56041,-0.29912 1.08522,-1.32638 1.48315,-0.90001 0.23578,-0.66986 2.07948,0.2682 1.81692,-0.90001 -0.19592,-1.10524 0.63276,-1.7094 1.80004,-1.50003 1.08897,0.22944 1.66702,-0.7446 2.38317,0 0.35505,-0.78852 1.23628,-0.33518 1.81693,0 0.70254,-0.0779 1.34544,-0.36647 1.80005,0.28313 0.5713,-0.47201 1.24226,-0.066 2.10005,0.31689 0.81596,0.82022 1.25617,-0.25168 2.08316,-0.3 0.23579,0.23303 2.07949,0.81165 1.81693,-0.30002 1.50003,0 3.00007,0 4.50011,0 0.30184,-1.01657 1.70062,0.7782 2.10005,-0.28312 0.79992,0.11587 -0.3103,-1.00798 0.90002,-0.61689 z"
         id="path3822" />
      <path
         style="fill:#c8ffc8;stroke:#000000;stroke-width:0.90000004000000000;stroke-linecap:round;stroke-linejoin:round;stroke-miterlimit:9.99670124000000020;stroke-opacity:1;stroke-dasharray:none;fill-opacity:1"
         d="m 200.56117,683.07194 c 1.08499,0.0132 1.02536,1.19309 1.40024,2.00023 0.47695,0.70442 1.16876,1.88066 1.89985,2.79983 0.25422,0.66947 0.81915,1.40807 1.20002,2.08315 0.67863,0.22702 0.80745,1.00384 1.50004,1.2169 1.14074,0.26254 1.03474,1.12559 2.08316,1.20002 -0.0895,0.60361 0.94751,0.41374 0.91691,1.50002 0.72443,0.26996 0.78912,1.19966 0.90002,2.08314 0.53983,0.33783 0.37218,1.58323 1.20003,1.81691 -0.1065,1.09585 1.087,1.00265 1.50003,1.78314 0.77249,0.17458 1.31941,1.11277 1.80005,0.31688 2.2702,0.16777 4.33036,1.62984 6.60016,1.80003 0.0619,1.44621 1.06774,1.03695 0.60001,2.40002 1.58717,0.23077 1.55088,-3.08951 3.26867,-1.71048 2.08805,-0.29464 1.35041,1.79725 2.43147,2.0105 1.25045,0.16782 2.40258,0.66428 3.47121,1.2141 1.24897,0.37371 2.73213,0.8832 3.71208,1.18592 1.10564,-0.19999 1.16669,0.64461 2.11692,0.60001 0.84717,0.13809 1.67617,0.62973 2.68319,0.90002 -0.77342,0.406 -1.74752,0.28945 -2.08316,1.20001 -0.54821,-0.16656 1.27081,1.20799 0.31689,1.50001 -0.61945,0.85479 -1.4214,-0.33992 -2.08318,0.30001 -0.0697,1.0943 0.17396,1.77682 -0.93379,1.20002 -0.38907,-0.41239 0.19207,0.68678 -1.48315,0.3 -0.36601,-0.53963 -1.57412,-0.23717 -2.11693,-0.6 -0.80827,-0.18614 -1.84349,-0.1453 -2.40005,-0.58314 -0.11113,-0.81771 -0.20215,-1.26074 -1.20003,-1.5169 -1.4099,-0.4155 -1.17489,0.81391 -1.78316,1.20002 0.0998,-0.18613 -1.39339,-0.48145 -1.51693,0.3 -0.0511,1.1162 -0.21265,1.7018 -1.18313,1.20002 -0.0112,0.53145 -1.90409,0.65602 -0.91692,1.20002 -0.0604,1.29519 0.1175,1.44001 -0.88313,1.80001 -0.88245,0.42297 -1.38359,0.6054 -1.81693,1.20003 -0.71419,0.78844 -0.79129,0.61364 -0.3,1.78314 -1.02787,0.3046 -1.55662,-0.76295 -1.80005,0.31688 -0.55242,0.91092 -0.69017,0.38864 -1.20002,1.18314 0.22618,0.67945 0.99262,0.81865 0.90001,1.8169 -0.56701,-0.0705 -0.8621,0.33854 -1.78315,0.60001 -0.75421,0.15144 -0.64831,1.16298 -1.81693,0.9 -0.96848,-0.97275 -0.21642,1.29144 -1.48316,0.90002 -0.32705,-0.66304 -0.7572,0.8353 -1.21691,-0.3 -1.24788,0.0806 -1.70805,-0.20639 -2.08316,-0.3 -0.33802,0.71082 -0.0769,0.67303 -1.21692,0.90001 -0.78385,0.6155 0.0779,1.50905 -0.88313,1.50001 0.37503,0.0154 -1.15978,0.85686 -0.9169,0.60001 -0.17712,1.22223 -0.60317,0.82809 -1.18315,1.20002 0.19435,1.13125 0.0743,0.77421 -0.31689,1.50002 -1.12235,0.601 0.29511,0.65999 -0.88314,0.90001 -0.39822,0.145 -1.43975,1.1204 -1.51692,0.6 -0.1235,1.33979 -0.29085,0.78797 -1.18315,1.20003 -1.24745,-0.34181 -1.18855,0.62274 -2.11693,0.6 -0.32477,0.18151 -2.52867,0.60549 -1.81692,0 0.54361,-0.36203 0.60871,-1.20258 1.21691,-1.50001 0.70156,-0.5128 -1.62506,-0.3228 -1.20004,-0.28313 -0.98605,0.0804 -1.2881,-0.52319 -1.80004,-0.9169 0.37263,-1.36682 -1.41008,-0.8089 -2.08316,-1.50001 -0.35641,-0.54924 -1.17122,-0.64008 -1.51692,-1.20001 -0.7435,-0.25089 -1.17798,-0.81082 -2.08317,-0.90002 -0.36332,-1.03072 -0.74027,-1.67392 -1.17015,-2.60651 -0.63043,-0.25341 -0.96796,-1.48369 -0.94678,-0.69354 -1.57079,0.3063 -1.19004,-0.66406 -0.60002,-1.18313 0.0674,-0.83825 1.10098,-0.7103 1.20003,-1.5169 0.40949,-0.49467 1.28069,-1.04677 2.38317,-0.90002 0.68325,-0.64925 0.40023,-0.39342 0.91692,-1.20001 0.84045,-0.15394 0.54751,-1.44126 0.90001,-2.08315 -0.58826,-0.31737 -1.07279,-0.7385 -1.20003,-1.5169 -0.58778,-0.22625 -0.44036,-2.19661 0.28313,-2.10002 0.32925,-0.57639 0.52641,-1.28488 1.21691,-1.50002 1.1968,-0.20256 0.0201,-1.4111 0.60001,-1.78315 -0.30228,-0.0615 1.34244,-0.44321 1.80004,-0.0169 1.08084,-0.0865 1.95163,0.0371 2.68319,0.3 -0.64625,0.36042 -0.61988,1.5318 0.6169,1.20002 0.94964,-0.0901 0.39766,2.01395 0.88314,1.50002 0.94005,-0.10875 1.4461,0.69619 2.11692,0 1.00796,0.62684 1.8334,-0.3837 2.40006,0.28313 0.46765,10e-4 2.71927,0.17186 1.80005,-0.28313 0.18794,-0.80646 1.23919,-0.7496 1.20003,-1.78315 -0.23805,-0.66759 -0.78054,-1.03074 -0.60001,-2.1169 0.49293,-0.38297 1.57656,-0.99974 2.10005,-1.80002 -0.32058,-0.77773 -0.92442,-1.29403 -1.40024,-2.00023 -0.21169,-0.8671 -0.89039,-1.02656 -1.59984,-1.29981 -0.72125,0.21496 -1.54051,-1.59365 -1.21691,-0.60001 -0.44339,1.38796 -0.52553,-0.33444 -1.18315,-0.60002 0.37399,1.36839 -1.14428,0.84452 -1.50004,1.48315 -1.11446,-0.20882 -1.17416,0.63712 -1.50002,1.21689 -1.10995,0.1155 -0.78277,-1.20602 -2.08318,-0.90001 -0.582,-0.21801 -0.9208,-1.4115 -0.0169,-1.50001 0.81596,-0.17844 1.25618,-0.73262 2.08316,-0.90002 0.66607,-0.59202 -0.0653,-1.18988 -0.28312,-1.80002 -0.31638,-0.67801 -0.18268,-1.8061 -0.60001,-2.38315 -0.37988,-0.16334 -0.80243,-1.75773 -0.60002,-1.5169 0.77888,0.61026 0.92815,-0.50536 0.60002,-1.18314 -0.86307,-0.43261 0.49027,-1.07454 1.20002,-0.91689 0.20695,-0.15471 1.41345,-0.21002 0.60001,-1.18313 -0.71882,-0.44359 -0.72808,-0.85535 -0.90001,-1.2169 -0.63505,-0.50109 -1.1876,-0.63005 -2.00025,-1.40021 -0.77774,-0.30105 -0.8693,-1.04765 -1.59984,-1.29983 0.10213,-1.39056 1.0395,-0.28065 1.48315,-1.50001 0.24678,-0.65886 0.27674,-1.53455 0.6169,-2.10003 -0.3737,-0.37861 1.91184,-0.8784 1.80004,-1.78315 -0.23706,-0.55202 0.37028,-0.22745 0.60001,-0.31689 z"
         id="path3824" />
      <path
         style="fill:#c8ffc8;stroke:#000000;stroke-width:0.90000004000000000;stroke-linecap:round;stroke-linejoin:round;stroke-miterlimit:9.99670124000000020;stroke-opacity:1;stroke-dasharray:none;fill-opacity:1"
         d="m 167.26038,700.47216 c 1.07133,-0.077 1.44504,0.54375 2.38318,0.60002 0.4376,-0.86802 1.04343,0.52138 1.81692,0.3 -0.17842,0.81596 -0.73262,1.25616 -0.90002,2.08315 -0.0295,0.7915 -0.5942,1.50128 -0.90003,2.11691 1.67784,-0.57781 1.00559,1.19446 2.40006,0.90001 0.51892,-0.88044 1.59377,0.16251 2.38318,0 1.19974,-0.81529 0.8353,0.63089 1.51691,0.90001 0.76925,0.6301 -0.24972,1.68097 0.30001,2.08315 1.16615,0.45795 0.0269,0.64185 -0.60001,1.21689 -1.15251,0.53914 -0.0692,0.81335 -0.0999,1.40021 0.46526,-0.0751 1.53629,-0.66022 2.19986,-0.8002 0.64575,-0.14925 1.41224,-0.21162 1.80004,0.58313 0.9489,-0.0432 1.45359,0.35771 1.50004,1.2169 -0.13685,0.50429 -1.28949,1.42184 -0.6169,1.80001 0.14802,0.90083 0.90085,-0.15091 0.91691,1.20003 -0.43645,1.29598 1.69819,0.71345 1.50003,0.88312 -0.47627,-0.29656 1.23457,-0.54152 1.20003,0.31689 0.69913,0.45105 1.41737,0.88187 2.38318,0 0.20042,0.63084 1.85355,0.28872 2.11692,0 1.0795,-0.0969 3.31705,-0.0662 3.01697,0.90001 -0.49945,0.66299 -0.68102,0.90244 -0.91692,1.20001 -0.52987,0.3938 -1.94701,0.28023 -2.38317,0.90002 -0.96761,-0.062 -0.13948,1.6718 -1.51691,1.20001 0.469,0.9753 -1.53424,1.59992 -0.0169,1.80002 0.29497,1.23839 -1.20557,0.9404 -1.48315,1.50003 -0.72835,1.06199 -1.11243,-0.0263 -2.08317,-0.30001 -1.05071,0.73296 -0.79175,0.20227 -2.11693,0.30001 -1.15194,-0.31141 -1.23867,0.15984 -2.08317,-0.30001 -1.13786,0.089 -1.03227,0.28237 -1.51692,-0.6 -0.66321,0.33117 -1.46288,0.5259 -1.50004,1.48313 -0.29099,1.28775 -0.97344,-0.10637 -1.50004,-0.28312 -0.32097,-0.8463 -1.19771,-0.71673 -1.48315,-0.90001 -0.28985,0.96826 -0.92271,0.20193 -0.9169,0.60001 -1.07133,-0.096 -1.44506,-0.46943 -2.38317,0 -0.54224,-0.97268 -1.23081,0.334 -1.51693,0.6 -0.74545,0.24895 -1.5947,0.39409 -2.68317,0.30001 0.1616,-1.06725 -0.65098,-1.16032 -0.6169,-2.10004 -0.58338,-0.41101 -0.43803,-1.55075 -0.90003,-2.08313 -0.23673,-1.06285 0.78522,-1.39454 1.50004,-1.5169 0.32326,-0.65212 0.9419,-0.0338 1.50004,-0.88314 0.75747,-0.58381 -0.80761,-0.52936 -0.90003,-0.61689 0.38735,-0.44351 -0.12877,-1.42717 0.60002,-2.40002 -0.52768,-1.29727 -1.63018,-0.87257 -2.68318,-0.60002 -1.08371,0.0786 -1.33122,1.121 -2.41694,0.90002 -0.0934,0.90103 -1.56096,0.42783 -1.80005,1.18313 -0.39885,0.70754 -1.13432,1.50755 -1.80003,0.91689 -0.67094,0.78574 -1.50257,-0.74921 -0.60002,-1.18314 0.373,-0.1702 1.97305,-0.58708 0.90002,-1.21688 -0.22034,-0.88973 -0.33755,-1.46384 -0.0169,-1.80003 0.058,-1.03007 0.58864,-1.3258 -0.28312,-1.80002 -1.0012,-0.8045 -1.54899,-1.61189 -2.10005,-2.70004 -0.39804,-1.2362 -2.17944,-1.55139 -2.10005,-3.00004 -0.98982,-1.23177 0.60177,-1.53915 1.18313,-0.90001 1.24747,0.34181 1.18857,-0.62274 2.11694,-0.60001 0.67341,-0.32098 0.79108,-1.1977 1.50004,-1.48314 0.53461,0.53189 1.01637,-0.25146 1.50004,-0.61689 0.69242,-0.30196 0.96533,-1.02345 0.90002,-2.08315 0.46766,-0.001 2.71929,-0.17185 1.80004,0.28313 0.43799,0.28933 1.43446,-0.42303 2.10005,-0.58313 1.12701,0.16001 1.26074,-0.50132 2.40006,-0.31689 z"
         id="path6360" />
      <path
         style="fill:#c8ffc8;stroke:#000000;stroke-width:0.90000004000000000;stroke-linecap:round;stroke-linejoin:round;stroke-miterlimit:9.99670124000000020;stroke-opacity:1;stroke-dasharray:none;fill-opacity:1"
         d="m 187.76695,722.9265 c -0.0267,0.88942 1.07049,1.25592 1.20003,2.10002 0.25351,1.06519 0.80755,1.8002 1.78316,1.80003 0.35641,0.54922 1.17121,0.64007 1.51691,1.20001 0.73059,0.26362 1.33939,0.8796 2.38317,1.20001 1.06669,-0.16104 0.34975,1.46154 1.21692,1.50003 0.84002,0.64093 1.43273,0.17448 1.78316,0.3 1.63369,-0.11888 0.37999,0.51685 0.0169,0.90001 -0.0839,0.91056 -1.0544,0.93439 -1.50004,1.48314 -1.1539,-0.17944 -0.0297,1.05113 0,1.5169 0.009,0.98132 0.95059,1.32513 1.10021,0.99982 0.63837,0.14693 1.38527,0.5408 1.59985,1.70021 0.59507,0.96207 1.1932,0.93655 2.08317,0.60002 0.33018,-1.03229 1.11753,0.0274 1.51692,-0.60002 0.27439,-0.80975 1.20203,-1.30027 0.90003,0.28313 1.1621,0.17029 0.98595,1.26954 1.50002,0.31689 0.0196,-0.97483 1.3533,-0.63549 2.08318,-0.90002 0.42885,-0.47678 1.49297,-0.31831 1.81692,-0.90001 0.98123,-0.34499 1.88551,-1.04084 1.80004,-0.0169 1.16487,-0.15924 0.36494,1.64634 0.60001,2.4169 -0.79066,0.20828 -1.68376,0.38929 -2.60025,0.80021 -0.55489,0.52392 -1.19942,0.71753 -1.89985,0.99982 -0.1401,0.35641 -0.0381,1.1625 -0.60001,1.78315 0.5737,0.95086 0.0131,2.37156 0.60001,3.31692 0.009,0.92985 0.15089,2.22378 0.58313,2.70003 0.26241,0.64323 0.18175,1.62953 0.91691,1.80002 0.0914,0.90298 1.1442,0.84459 1.20002,1.78315 0.36022,0.47104 1.594,0.54829 0.90003,1.21689 -1.14325,0.53837 -0.46295,0.71134 -1.48316,1.20002 -0.61699,0.28865 -1.06044,0.75084 -1.51692,1.20002 -0.76231,0.98312 1.31589,2.30757 0,3.00003 -0.17711,0.81728 -0.60316,1.38563 -1.18315,1.80003 -0.82852,0.84454 -1.03477,1.40219 -1.80003,1.80002 -0.74733,0.41187 -1.16339,1.41515 -1.51693,0.3 -0.2415,0.61805 -1.81445,0.59719 -1.80004,0.58313 -0.19083,-0.22128 -0.76668,-0.4911 -1.20002,-0.28313 -0.483,-0.34758 -0.66454,-0.049 -1.18315,0 -0.58128,0.72413 -1.3661,0.62289 -2.41694,0.60002 -0.51892,0.47546 -1.59376,0.39502 -2.38317,0.60001 -0.85284,-0.0527 -2.07179,0.26049 -2.11694,-0.60001 -0.80507,-0.49049 -0.70922,-1.06348 -1.20002,-1.48314 0.39431,-0.31734 0.21323,-0.89531 -0.30002,-1.8169 -0.61542,0.24397 0.18083,-0.78731 0.58314,-1.20003 0.32865,-0.25461 0.0216,-1.27666 -0.88314,-1.20001 0.31203,-0.10437 -0.71393,0.0451 -0.58313,-0.60001 -0.92443,0.3812 -1.5411,-1.01901 -1.81693,-0.3 -0.75027,0.10912 -0.87161,-1.8397 -0.31689,-2.10003 -0.77325,0.0187 -1.85938,-0.27017 -1.18315,-0.90001 0.4256,-0.44154 -0.56,-1.115 0.30002,-1.18314 0.0894,-0.92068 -0.93085,-1.21142 -1.20004,-0.91688 -0.17841,-0.29905 -0.73263,0.54511 -0.90001,-0.88314 -0.33129,-0.54638 -0.52344,-1.43198 -1.20004,-1.8169 -0.30638,-0.68803 -1.0258,-0.96298 -0.90001,-2.08315 -0.80068,0.30271 -1.41422,0.64442 -2.10005,0.88314 -1.0384,0.049 -1.54742,-0.54228 -2.68319,-0.60002 -0.88814,-0.56082 -1.5385,-0.3257 -2.41694,-0.90001 -1.28187,0.42233 -1.50597,-0.90566 -1.20002,-1.18314 -0.1712,-0.73443 -0.43589,-1.37538 -0.30002,-2.41691 0.59192,-1.09517 -0.45305,-1.15126 -1.18315,-1.50001 0.12785,-0.69109 0.46062,-1.40015 -0.61688,-1.50003 0.273,-0.91055 0.41085,-0.93441 0.3,-1.48313 -0.47939,0.31345 0.87425,-1.43939 0.90002,-0.61689 0.15243,-0.14815 -0.41549,-1.09238 -1.18315,-1.20001 -0.24264,0.67305 -0.90887,-0.65595 -1.51691,-0.60002 0.0522,-1.2572 0.75117,-1.11215 0.3,-2.38315 0.43964,-0.46601 0.4838,-1.32747 0.60001,-2.1169 0.021,-0.34071 0.59101,-1.03246 0,-1.78315 -1.20196,-0.68427 1.13931,-0.78982 1.20004,-1.2169 -0.41626,-0.37876 -0.467,-1.15686 0.28312,-1.50001 0.72787,-0.43459 0.32044,-1.263 0.6169,-1.50002 -0.0719,-1.4003 0.20908,-1.29258 0.88314,-0.90002 0.7063,0.33207 0.92285,0.77285 1.51691,1.50003 0.86905,-0.12534 0.60405,-1.38474 1.18315,-1.80003 1.13784,-0.089 1.0323,-0.28237 1.51692,0.60002 0.48348,-0.97987 1.62898,0.55015 2.08317,-0.30002 0.0564,0.84927 2.06248,-0.25117 2.11693,0.60002 0.62862,-0.97567 1.66172,-0.41125 2.38317,0.3 0.0986,-0.80702 1.11778,-0.69352 1.51693,-1.20002 0.86833,-0.59201 0.98828,-1.20766 1.48315,-1.20001 l 0.0169,0 z"
         id="path6350" />
      <path
         style="fill:#c8ffc8;stroke:#000000;stroke-width:0.90000004000000000;stroke-linecap:round;stroke-linejoin:round;stroke-miterlimit:9.99670124000000020;stroke-opacity:1;stroke-dasharray:none;fill-opacity:1"
         d="m 161.96632,743.02676 c 0.48045,0.51394 1.57642,0.41236 2.10005,0.88312 1.00629,-0.12862 1.30537,0.65005 2.40007,0.61689 0.92407,0.24921 1.9077,0.74073 3.00007,0.60001 0.55093,0.44348 1.41755,0.57125 2.38318,0.60002 0.58257,0.32306 1.42564,0.38565 2.11692,0.6 1.11709,-0.0915 1.84902,0.51967 2.68319,0.60001 0.71389,0.3855 2.05403,0.37255 2.41694,0.90001 1.08899,0.0946 1.66701,-0.32177 2.38317,-0.60001 1.0092,-0.92723 0.4251,1.24005 1.21692,1.20001 0.25295,0.65121 1.18843,1.139 1.20002,2.08315 0.82865,0.3982 -0.12507,1.43974 -0.60001,1.5169 -0.77765,0.0429 -0.29873,-0.16446 -1.18315,0.60001 -0.0724,-0.076 0.51945,1.06664 -0.0169,1.50002 0.803,0.0883 -1.4221,1.05671 -1.50004,0.31688 -0.2346,0.23188 -1.90761,0.63978 -2.10005,-0.0169 -0.91249,0.0819 -1.35116,0.63763 -2.08317,0.90002 -0.80823,0.023 -0.86538,1.27692 -0.9169,1.20001 -0.82765,-0.36708 -1.2095,-0.44606 -0.90003,-1.18314 -0.36801,-0.96446 -1.0145,0.22084 -0.90001,-1.2169 -1.16095,0.16655 -0.7808,-1.20799 -1.48316,-1.50001 -0.76665,0.139 -1.24104,0.57025 -1.81693,0.90001 0.42309,-0.11225 0.0529,-0.0454 -0.3,0.88313 0.83865,0.86506 -0.93539,-0.0918 -0.60001,0.9169 0.6798,0.64231 -1.15686,-0.46697 -1.18315,0.6 -1.16847,0.26282 -1.08555,-0.72574 -1.81693,-0.90002 -0.64864,-0.2951 0.45591,0.99279 0.60001,1.48315 0.291,0.5351 0.97344,1.20632 1.50004,1.51689 -0.0228,1.01709 1.80257,0.18623 1.80004,1.18314 -0.67862,0.22701 -0.80744,1.00386 -1.50004,1.2169 -0.47068,1.07811 -0.9815,-1.56383 -1.78315,-0.3 -0.38102,-0.87054 -1.8775,0.46946 -2.11694,-0.30001 -0.8012,-0.68939 -1.25841,-0.85582 -1.80003,-1.78314 -0.64802,-0.25764 -0.75419,-1.0571 -1.20004,-1.5169 -0.1638,-0.80136 -0.5607,-1.08425 -0.31689,-1.50003 0.12,-1.20566 -0.34497,-1.22572 -1.18315,-0.90001 -0.98984,-0.45447 -0.082,0.0163 -0.3,-1.48314 -1.33292,4.5e-4 0.11388,-0.9075 -0.30001,-1.8169 0.48342,-0.97991 -0.0609,-1.13971 0,-2.38315 -0.58641,-0.31923 -0.47458,-1.33671 -1.50004,-1.2169 -0.44802,-0.0865 0.10363,-1.6527 0.60003,-1.78313 -0.65745,-0.15263 0.56097,-1.33487 0.90001,-0.61689 0.41102,-0.44853 1.55076,-0.86086 2.08317,-0.30001 0.57602,-0.72962 1.10887,0.5868 0.61689,-0.90002 -0.29391,0.19993 -1.68611,-1.31455 -0.60001,-0.6 z"
         id="path6370" />
      <path
         style="fill:#c8ffc8;stroke:#000000;stroke-width:0.90000004000000000;stroke-linecap:round;stroke-linejoin:round;stroke-miterlimit:9.99670124000000020;stroke-opacity:1;stroke-dasharray:none;fill-opacity:1"
         d="m 169.43235,724.52351 c 0.58964,0.72879 1.42655,-0.50415 2.08317,0.30001 0.98166,-0.324 0.74463,0.22259 1.21691,-0.30001 0.46087,0.5043 0.22311,1.42184 0.0169,1.80003 -0.009,0.5346 -1.5438,1.01636 -0.6169,1.50002 -0.30631,0.69869 0.0208,0.9652 -1.48316,1.20001 -0.26182,0.72829 1.31276,1.23465 0.28312,1.80003 0.33684,0.33255 -0.19079,1.31705 -0.3,2.08315 -0.52111,0.84621 0.10588,1.42405 -0.30001,2.1169 -0.95225,0.59075 0.37159,1.38467 0.88314,1.50002 0.42323,0.14002 0.77768,0.16185 1.51692,0.60002 0.14429,0.9648 -0.13089,0.004 -0.88314,0.9 -0.15963,0.46805 0.0971,0.76783 -0.0169,0.90001 -0.578,1.0745 0.38268,0.81795 0.60002,1.78315 -1.05927,0.62885 0.71647,0.84835 0.90002,1.2169 0.17544,0.32406 -0.11887,1.73854 0,2.68315 0.65305,0.67945 -0.025,0.81865 0.30001,1.8169 -0.69753,-0.29686 -1.46956,-0.51923 -2.38317,-0.6 -0.69728,-0.20838 -1.5409,-0.2704 -2.11694,-0.60001 -1.23266,0.16297 -2.13171,-0.69592 -3.30007,-0.60002 -0.89269,-0.51061 -1.47295,-0.68738 -2.38318,-0.90001 -0.9748,0.01 -1.12064,-0.68391 -2.11694,-0.90001 -0.48975,-0.48548 -0.35817,-1.86603 0.58314,-1.80001 0.70726,-0.124 1.72026,-0.42203 1.21691,-0.90002 -0.97482,-0.0195 -0.6355,-1.35328 -0.90002,-2.08315 -0.22841,-1.13405 0.36056,-1.45071 0.3,-2.41691 -0.4962,-1.28546 -1.13008,0.48964 -2.10005,-0.3 0.074,-1.14421 -1.72363,-0.23314 -2.08316,-1.20002 -0.51532,0.6283 -1.61293,-0.0415 -2.11694,-0.3 0.29727,1.19872 -0.20619,0.4369 -0.58313,1.20001 -1.04698,0.32032 -1.84568,-0.5275 -2.41693,0 0.17151,-2.03979 -0.86552,0.34422 -1.20004,-0.58313 -0.52488,0.32408 -1.92284,0.23443 -1.20003,-0.31688 0.94194,-0.33695 0.78062,-1.22337 0.60002,-2.38315 0.88643,-0.87618 -1.339,0.64981 -1.50004,-0.3 -0.37256,-1.40183 -0.6594,-0.6542 -0.60001,-1.8169 -0.65447,-0.28454 -2.05735,-0.31734 -1.80004,-1.48315 -0.65716,-0.59603 1.42834,-0.64897 2.08316,-0.91689 1.31125,-0.55146 0.43104,0.41072 1.51693,-0.3 0.60578,0.33321 1.48331,0.89137 2.38317,0.90001 0.85281,0.3096 2.07179,-0.48834 2.11693,0 -0.0657,0.53251 1.04018,0.91748 1.70023,0.0998 0.68694,-0.29402 0.23752,-2.0451 1.29984,-0.99981 -0.11737,-1.43575 -0.33496,-1.25735 1.18315,-1.20001 1.23629,0.23626 1.54745,-0.4526 2.70006,-0.30002 1.08124,0.28124 1.71123,-0.62106 1.81693,0.30002 1.14689,0.17152 0.94905,-0.0266 2.38317,0 0.75885,-0.1468 1.82052,0.009 1.81693,-0.90002 0.61486,0.0983 -0.0383,-0.53418 0.90002,-0.30001 z"
         id="path6358" />
      <path
         style="fill:#c8ffc8;stroke:#000000;stroke-width:0.90000004000000000;stroke-linecap:round;stroke-linejoin:round;stroke-miterlimit:9.99670124000000020;stroke-opacity:1;stroke-dasharray:none;fill-opacity:1"
         d="m 184.58109,751.46617 c 0.17844,0.98612 0.73262,-0.4005 0.90003,0.28313 1.01071,-0.54188 1.09117,1.79995 0.60001,0.91689 -0.35339,0.74677 0.67079,1.11547 -0.3,1.78313 0.73445,0.428 1.68114,-0.0976 1.20003,0.9169 -0.29707,1.46434 0.60053,1.31389 0.90002,1.48314 0.29646,0.24676 2.28339,0.27673 1.50004,0.61689 0.69726,0.68304 0.63651,-0.2184 1.20002,0.58312 0.93825,0.65104 0.0311,0.5346 0,1.5169 -0.91681,0.60337 -0.53562,0.39617 0.2002,1.40022 0.0113,0.77773 -0.26027,0.86927 0.0998,1.59982 0.13054,-0.17551 0.83055,1.15971 1.20004,1.48314 0.42658,0.42301 -0.61377,-0.0666 -1.50004,0.0169 -1.40038,-0.2331 -0.66831,1.24614 -1.48315,0.90001 -0.43761,0.72481 -1.04345,0.53999 -1.81692,0.3 -0.79213,0.20226 -1.14779,0.841 -1.78316,1.20001 0.10475,0.64799 -1.80594,0.75419 -0.91692,1.20002 -0.3418,0.65258 -0.99058,0.99818 -1.20002,1.78315 0.1756,1.00686 -0.10013,2.0422 -0.90003,1.2169 -0.11362,-1.20473 -0.0671,-0.85533 -0.58312,-1.80003 -0.0184,-0.52486 -0.63731,-1.92281 -0.91691,-1.20002 -1.16373,0.25956 -1.37337,-0.95408 -2.38318,-0.90002 -0.40949,-0.67607 -0.76864,-1.3539 -1.51691,-2.10002 -0.43205,-0.42749 -1.9621,-0.44955 -1.20002,-1.18314 0.0238,-0.92945 -1.0494,-0.76189 -1.80005,-0.91689 -0.98482,-0.01 -2.10652,0.11775 -2.10005,-0.88313 1.37011,0.0376 -0.27934,-1.073 0.60001,-1.51689 -0.34819,-0.5755 -2.31921,0.092 -2.10005,-1.18314 -0.36298,-0.54268 -1.79371,-0.0176 -1.80004,-0.9169 -0.49415,-0.44484 -1.47147,-0.90322 -1.50004,-1.78314 -0.36103,-0.21614 -1.20876,-1.59664 -0.60001,-1.2169 0.72,0.27439 0.78679,1.202 2.08316,0.90001 -0.40003,-1.37009 1.82185,0.27935 0.91692,-0.6 -0.18298,-1.0235 1.41745,0.019 0.60001,-1.18314 0.5658,-0.66106 0.60069,-0.71395 0.3,-0.61688 0.68091,-0.31348 1.06059,-0.92822 2.08317,-0.90002 0.19955,0.70609 0.2629,1.54839 1.21692,1.50002 -0.15754,1.47593 0.75013,0.17228 0.90001,1.48315 -0.25454,0.3372 0.12112,0.64727 0.90002,0.91688 0.0581,0.0625 0.115,-1.39278 1.18315,-1.20001 0.43759,-0.46805 1.04345,-0.76785 1.81693,-0.90001 0.22627,0.94101 2.19662,-0.28219 2.10005,0.28312 0.53925,0.0728 2.18857,-0.35881 1.50003,-0.58313 0.6841,-0.49947 -0.40541,-1.75064 0.28313,-1.50002 0.44264,-1.14663 0.26424,-0.30157 0.9169,-0.60001 0.66794,-0.13251 0.75289,-1.10379 1.20002,-0.6 z"
         id="path6366" />
      <path
         style="fill:#c8ffc8;stroke:#000000;stroke-width:0.90000004000000000;stroke-linecap:round;stroke-linejoin:round;stroke-miterlimit:9.99670124000000020;stroke-opacity:1;stroke-dasharray:none;fill-opacity:1"
         d="m 163.00768,757.82592 c 0.21621,0.80938 1.2864,1.08227 1.50004,1.78315 0.70412,0.84403 1.27527,0.41828 2.40005,0.31687 0.41151,0.44079 1.52138,-0.30242 1.78316,0.90001 0.71702,-0.18862 0.81381,-0.99748 1.51692,-1.20001 -0.026,-0.40245 1.72723,0.41078 2.10005,0.58313 0.0872,0.11362 0.42234,1.26601 0,1.5169 -0.87533,0.51381 0.66674,1.08952 1.48315,0.90001 0.93785,-0.0322 1.67692,0.13439 2.11694,0.60001 -0.66445,1.16094 0.41983,0.78078 0.90001,1.48314 1.09282,0.19277 1.02523,1.50524 1.80005,1.8169 0.48397,0.4202 1.2561,1.07132 2.08317,1.20001 0.70137,-0.69865 0.90881,0.35903 1.21691,0.90001 0.3809,1.01843 0.45385,0.97742 0.60001,1.78315 0.34766,1.19724 0.93681,0.25648 1.20004,-0.28312 0.14999,-0.73945 1.78785,1.03482 0.9169,1.20001 -0.60866,0.5346 0.23875,1.01635 0.58312,1.50003 1.41298,-0.52547 0.9153,0.4213 0.60003,1.48313 0.009,1.78093 0.915,-0.8425 1.20002,0.31689 0.85507,0.13933 0.71943,1.26935 1.48315,1.50001 -0.0707,1.11338 -1.35202,0.11038 -1.18313,1.20002 0.15705,0.15276 -1.71458,-0.20672 -1.80005,0.58313 -1.08237,-0.044 -0.97597,0.71974 -2.10005,0.91689 0.33415,1.38024 -1.1114,1.04239 -0.6169,1.20001 -0.14274,1.08892 -1.3563,0.61789 -1.78317,1.20002 -0.23801,-0.46299 -0.98747,0.16013 -1.48315,0.90001 1.04308,0.25024 -1.03657,1.27711 -0.6169,0.90001 -0.65257,0.34183 -0.9982,0.99059 -1.78315,1.20003 -0.42417,0.68431 0.20122,0.65795 -0.6169,1.50001 -0.66487,1.04837 -0.60366,1.6943 -1.70023,2.30022 -0.66259,0.84582 -0.5026,-1.10473 -1.89985,-0.5002 -1.31258,0.01 -1.1549,-0.75907 -0.6169,-1.50002 0.88547,-0.84899 -0.21885,-0.76954 0.31688,-1.50001 -1.3365,-0.77945 -0.36031,-1.01504 -0.90001,-2.08315 -0.74852,-0.74 -1.01572,0.8464 -1.50004,-0.31689 0.91994,-0.54339 -0.0693,-1.14804 0.58313,-1.80003 0.50945,-0.5786 0.86037,-1.05407 0.0169,-1.50001 0.95736,0.0979 1.6079,-0.8037 0.90002,-1.48314 -0.0242,-0.94115 -0.81181,-0.99271 -0.90002,-2.11691 -0.0755,-0.032 -1.02253,0.17621 -1.78316,0 -0.61478,-0.7177 -1.29125,0.49758 -1.51692,-0.6 -0.33223,0.12213 -1.29423,-0.63247 -1.78316,0.3 -0.61479,0.29085 -1.29125,0.52004 -1.51692,1.20001 -0.85943,0.53955 -1.39753,-0.16438 -0.99983,-1.10021 0.36856,-0.97344 -0.18315,-1.78977 -0.80021,-2.19982 -8e-5,-0.99433 -1.68988,-0.29893 -2.08318,-0.90002 -0.14258,-1.03751 -0.99495,-1.07643 -1.2169,-1.80002 -0.0548,-0.8562 1.19862,-1.54119 0.0169,-2.10003 -0.12799,-0.77766 -1.53179,-0.2795 -1.81693,-0.90001 -0.59927,0.28315 -0.7394,-1.10945 -1.20002,-0.0169 -1.16728,-0.26163 -0.91369,0.89761 -2.10005,0.61688 -0.58825,0.94579 -1.40481,-0.82557 -0.6169,-1.20001 0.10537,-0.4974 -1.69656,-1.18185 -0.28313,-1.20001 0.98433,-0.01 1.14208,-0.84671 1.20003,-1.78315 0.77767,-0.12798 0.27949,-1.53179 0.90002,-1.8169 0.25298,-0.65119 1.18844,-1.139 1.20003,-2.08315 -0.38121,-0.94445 0.0294,-0.91014 1.20004,-0.91689 0.56883,0.0724 1.95599,0.75535 2.40005,0.0169 0.87231,-0.3858 1.02574,-0.0989 1.80005,0.28312 0.21551,-0.75984 0.22175,-0.7539 1.18314,-1.20001 l 0.0169,0 z"
         id="path6364" />
      <path
         id="path6362"
         d="m 152.81769,753.57464 c 0.007,0.46215 -0.13509,1.09861 0.44046,0.58904 0.49395,-0.19723 0.54097,0.70898 0.8642,0.0743 0.63937,0.0872 0.37569,1.30067 1.02289,0.61766 0.16277,0.20927 0.0284,0.8079 0.0725,1.18177 0.0943,0.30648 -0.66916,0.36084 -0.0273,0.57603 0.86252,0.0351 1.10681,1.08866 2.08209,0.83208 -0.14752,-1.08351 1.26585,-0.32696 0.34523,0.27021 -0.60142,0.0858 -0.96175,0.68663 -1.44004,0.06 0.0549,0.55419 -0.47909,0.56799 -0.037,0.75671 0.11833,0.53504 -0.58202,0.45936 0.20391,0.45762 0.39699,0.75692 -0.26573,1.46133 -0.62992,2.05026 -0.75923,0.42199 -0.81769,1.09316 -0.93086,1.85167 -0.52977,0.59684 -0.40084,1.64893 -1.05675,2.20579 -0.16454,0.40757 -1.78446,-0.092 -0.89933,0.65956 0.22114,0.21564 0.90204,0.56514 0.2516,0.95023 -0.26764,0.69686 0.7364,1.12531 -0.0539,1.47615 -0.41961,0.36706 -1.30515,1.58364 -1.70207,0.74634 0.002,-0.73757 -0.92305,-0.68006 -1.50692,-0.65419 -1.09967,0 -2.19935,0 -3.29902,0 -0.30116,0.65953 -1.38728,0.74074 -1.90548,1.32709 -0.38132,0.39479 -1.09256,0.67025 -0.70623,-0.11744 0.20551,-0.15955 -1.25031,-0.70555 -0.38836,-1.08965 -0.48696,-0.51804 -0.89053,0.75672 -1.0445,-0.30003 -0.10829,-0.158 0.44264,-0.29591 -0.15553,-0.53999 -0.44936,-0.67904 -1.39816,-0.59139 -1.81431,-1.2496 0.58796,-0.15149 0.65825,-0.617 0.0695,-0.703 -0.0697,0.64976 -0.85401,0.0122 -0.7262,0.0971 -0.63876,0.32316 -1.06125,0.74079 -1.7453,0.92391 0.18555,-0.60658 -0.14295,-0.95561 -0.55668,-0.41064 -0.68697,0.0173 0.077,-0.57311 -0.19756,-0.30228 -0.16652,-0.47452 -0.40285,-0.80707 -0.56204,-1.27547 -0.2014,0.2124 -0.5317,0.60783 -0.5473,0.56357 -0.19595,0.1803 -0.65645,-0.5364 -0.4681,-0.4297 -0.33346,-0.43838 0.0786,-0.64082 -0.0522,-1.29387 -1.07205,0.26824 -0.28498,-1.23644 -0.90003,-1.38034 0.0948,-0.33285 -0.24057,-1.1281 0.28036,-0.99434 0.6884,-0.0869 1.1998,-1.12965 1.81968,-0.62536 -0.008,-0.62226 0.57821,0.0709 0.86172,0.0983 0.44061,0.65738 1.38817,-0.38678 1.01551,-0.63351 -0.31875,-0.51376 0.87199,-0.35485 0.45586,-0.7318 0.10548,-0.23842 -0.51978,-0.5098 -0.21667,-1.02189 -0.1559,-0.64905 0.87019,-0.30215 1.00368,-1.01116 0.40497,0.35768 0.52633,0.64506 1.09639,0.68866 -0.32617,0.38733 0.40613,0.78543 0.28365,0.21135 -0.12735,0.48825 0.71092,0.18116 0.78876,0.59825 0.1533,-0.4134 0.17025,-0.54675 0.40471,-0.77458 -0.70039,-0.0524 -0.73404,-0.65325 -0.30861,-1.17252 0.54728,-0.46908 0.96996,-1.13987 1.63366,-1.46831 0.58969,-0.50721 1.12985,-1.11511 1.98165,-1.08289 0.39998,0 0.79995,0 1.19993,0 -0.0635,-0.642 0.90041,0.003 1.05228,-0.58112 0.67343,-0.0907 0.57348,0.9127 1.04777,0.22112 0.2297,-0.77986 1.04232,-0.62174 1.02297,0.0679 0.42712,-0.70637 1.03987,-0.0756 1.58414,-0.0109 0.30295,-0.47172 0.84753,-0.2106 0.78237,-0.92014 0.14512,0.1004 0.72959,0.43726 0.21062,0.62207 z"
         style="fill:#c8ffc8;stroke:#000000;stroke-width:0.90000004000000000;stroke-linecap:round;stroke-linejoin:round;stroke-miterlimit:9.99670124000000020;stroke-opacity:1;stroke-dasharray:none;fill-opacity:1" />
    </g>
  </g>
</svg>
