<?xml version="1.0" encoding="UTF-8" standalone="no"?>
<!-- Created with Inkscape (http://www.inkscape.org/) -->

<svg
   xmlns:dc="http://purl.org/dc/elements/1.1/"
   xmlns:cc="http://creativecommons.org/ns#"
   xmlns:rdf="http://www.w3.org/1999/02/22-rdf-syntax-ns#"
   xmlns:svg="http://www.w3.org/2000/svg"
   xmlns="http://www.w3.org/2000/svg"
   xmlns:sodipodi="http://sodipodi.sourceforge.net/DTD/sodipodi-0.dtd"
   xmlns:inkscape="http://www.inkscape.org/namespaces/inkscape"
   width="150.89999"
   height="126.76613"
   id="svg4487"
   version="1.1"
   inkscape:version="0.47 r22583"
   sodipodi:docname="Glasgow Shettleston (Scottish Parliament constituency).svg">
  <defs
     id="defs4489">
    <inkscape:perspective
       sodipodi:type="inkscape:persp3d"
       inkscape:vp_x="0 : 526.18109 : 1"
       inkscape:vp_y="0 : 1000 : 0"
       inkscape:vp_z="744.09448 : 526.18109 : 1"
       inkscape:persp3d-origin="372.04724 : 350.78739 : 1"
       id="perspective4495" />
    <inkscape:perspective
       id="perspective4473"
       inkscape:persp3d-origin="0.5 : 0.33333333 : 1"
       inkscape:vp_z="1 : 0.5 : 1"
       inkscape:vp_y="0 : 1000 : 0"
       inkscape:vp_x="0 : 0.5 : 1"
       sodipodi:type="inkscape:persp3d" />
    <inkscape:perspective
       id="perspective4532"
       inkscape:persp3d-origin="0.5 : 0.33333333 : 1"
       inkscape:vp_z="1 : 0.5 : 1"
       inkscape:vp_y="0 : 1000 : 0"
       inkscape:vp_x="0 : 0.5 : 1"
       sodipodi:type="inkscape:persp3d" />
  </defs>
  <sodipodi:namedview
     id="base"
     pagecolor="#ffffff"
     bordercolor="#666666"
     borderopacity="1.0"
     inkscape:pageopacity="0.0"
     inkscape:pageshadow="2"
     inkscape:zoom="1.9937492"
     inkscape:cx="65.459662"
     inkscape:cy="17.901854"
     inkscape:document-units="px"
     inkscape:current-layer="g5797"
     showgrid="false"
     inkscape:window-width="1600"
     inkscape:window-height="838"
     inkscape:window-x="-8"
     inkscape:window-y="-8"
     inkscape:window-maximized="1" />
  <metadata
     id="metadata4492">
    <rdf:RDF>
      <cc:Work
         rdf:about="">
        <dc:format>image/svg+xml</dc:format>
        <dc:type
           rdf:resource="http://purl.org/dc/dcmitype/StillImage" />
        <dc:title></dc:title>
      </cc:Work>
    </rdf:RDF>
  </metadata>
  <g
     inkscape:label="Layer 1"
     inkscape:groupmode="layer"
     id="layer1"
     transform="translate(-309.54034,-267.54174)">
    <g
       style="fill:#c8ffc8;stroke:#000000;stroke-opacity:1;fill-opacity:1"
       transform="matrix(3.4807829,0,0,3.4807829,-265.9141,-2622.5381)"
       id="g5797">
      <path
         style="fill:#c8ffc8;stroke:#000000;stroke-width:0.90000004000000000;stroke-linecap:round;stroke-linejoin:round;stroke-miterlimit:9.99670124000000020;stroke-opacity:1;stroke-dasharray:none;fill-opacity:1"
         d="m 168.13017,832.2815 c 0.70002,0 1.40004,0 2.10005,0 -0.20912,0.26591 0.75014,-0.20925 0.90003,0.41331 0.104,0.27645 0.9736,0.84492 0.6734,0.7867 -0.0335,0.24642 0.36024,0.65107 0.0399,0.90001 0.36045,0.16191 -0.40747,0.71816 -0.11325,1.42664 -0.21236,0.47287 0.57737,-0.18009 0.90003,0.37339 -0.0846,0.75323 1.38636,-0.17283 1.28015,0.68013 0.26745,0.85855 1.39495,0.26712 1.41991,0.4465 0.31258,0.3492 0.22353,1.08272 0.22663,0.97339 0.39266,0.67736 -0.35078,0.84741 -0.22663,1.50003 -0.7572,0.14221 0.30256,0.66793 0.60001,0.71331 0.0456,0.59216 1.07349,0.20209 0.90003,1.01332 -0.42393,0.20055 -0.72379,0.52515 -0.60001,1.2734 -0.0743,0.70352 0.21945,1.48388 -0.30002,0.7867 -0.0722,-0.27076 -1.37392,-0.94133 -1.20002,-0.0734 0.0454,0.59245 0.39859,0.87698 0.60001,1.31333 0.009,0.94244 -0.92284,-0.11788 -1.42665,0.0734 -0.6992,0.0747 -1.22669,-0.0222 -1.57342,-0.3 -0.50434,-0.16955 -1.39012,-0.52129 -1.50004,-1.12664 -0.49538,-0.1291 -0.42158,-0.82737 -1.20003,-0.67339 -0.1419,-0.49588 -0.59827,-0.67728 -0.90002,-1.01332 -0.23266,-0.40514 -0.70213,-0.57345 -0.90001,-1.01334 -0.66512,0.0406 -0.67562,-0.57333 -1.20004,-0.67338 -0.26886,-0.22054 -1.34154,-0.37289 -0.60001,-0.71332 -0.17763,0.0781 0.5005,-0.0715 0.30001,0.0399 0.48309,0.19839 0.24977,-0.9484 0.90001,-0.82663 -0.53324,0.12163 0.56476,-0.42351 0.11338,-0.60001 0.31855,-0.28147 0.0623,-1.13771 0.78671,-1.01332 -0.23266,-0.40513 -0.70213,-0.57345 -0.90003,-1.01333 -0.19777,-0.45894 -1.15042,-1.2764 -0.60001,-1.3867 0.0937,-0.56465 -0.31334,-1.64759 0.52664,-1.68671 1.17019,0.2911 0.24391,-0.59449 0.9734,-0.60001 z"
         id="path3834" />
      <path
         style="fill:#c8ffc8;stroke:#000000;stroke-width:0.90000004000000000;stroke-linecap:round;stroke-linejoin:round;stroke-miterlimit:9.99670124000000020;stroke-opacity:1;stroke-dasharray:none;fill-opacity:1"
         d="m 177.4304,841.58162 c 0.49557,0.14221 0.60761,0.66795 1.20002,0.71331 0.21547,0.56284 1.15098,0.41867 1.08673,0.1867 -0.48829,0.083 -0.64124,-1.34495 -0.1867,-0.67338 0.0125,-0.42568 0.1718,-0.92304 0.30001,-0.22663 0.64003,0.73226 0.45229,-0.38815 0.90001,-0.1867 0.0613,0.638 0.77679,1.13946 1.01334,0.4867 0.29799,-0.50612 1.14718,-0.26392 0.4867,0.22663 -0.0644,0.6888 0.22348,1.02546 0.90003,0.97338 0.37442,0.5523 0.73121,0.2337 0.3,1.01333 -0.20334,0.84112 1.00445,0.27112 1.12665,0.7867 0.6992,-0.0747 1.22668,0.0222 1.57342,0.3 0.49556,0.14222 0.60761,0.66795 1.20003,0.71332 -0.24508,0.3927 -0.78594,0.48963 -0.60002,1.31333 -0.38312,0.24135 -1.52578,-0.27685 -1.20002,0.67339 -0.4781,0.15968 -0.45315,0.82242 -0.71334,1.20002 -0.47256,-0.56407 -0.692,-0.009 -0.7867,-0.52664 -0.53407,-0.0185 -1.04639,-0.5346 -1.72666,-0.37337 -0.47831,-0.14616 -1.57344,0.32449 -1.57343,-0.30001 -0.78606,0.14827 -0.97496,-0.30062 -1.50003,-0.41332 -0.2307,-0.29347 -1.23394,-0.32493 -1.31334,-0.7867 -0.40184,-0.23595 -0.70806,-0.56751 -1.31334,-0.60001 -0.0544,-0.57009 -0.84965,-0.39929 -0.9734,-0.90001 -0.0136,0.62864 -0.29976,-0.67075 -0.60002,-0.71331 0.071,-0.45138 -0.75389,-1.06463 -0.0734,-1.38672 0.65971,0.0553 1.08509,0.46015 1.27341,0.82664 0,-0.28474 0,-1.19817 0,-1.72665 0.19458,-0.36869 0.49239,-0.93295 0.98014,-0.81989 0.0733,0.0733 0.14659,0.14659 0.21989,0.21989 z"
         id="path3836" />
      <path
         style="fill:#c8ffc8;stroke:#000000;stroke-width:0.90000004000000000;stroke-linecap:round;stroke-linejoin:round;stroke-miterlimit:9.99670124000000020;stroke-opacity:1;stroke-dasharray:none;fill-opacity:1"
         d="m 181.6305,830.78147 c 0.7686,0.15814 0.82049,0.14443 1.01334,0.30001 0.37281,0.17433 -0.32364,0.80202 -0.41333,1.12664 0.28875,0.32155 0.5825,0.69435 0.90003,1.20001 0.32815,0.29632 0.10137,1.1476 0.60001,1.2734 0.1419,-0.75687 0.59827,0.37223 0.90002,0.41332 -0.65746,0.42576 0.66429,0.35128 0.3,1.20001 0.16193,0.47587 0.71819,0.55739 1.42667,0.4867 0.0951,0.52932 0.0476,1.2013 0.37338,1.50001 0.0814,0.40741 1.11749,0.45764 1.20003,0.4867 0.10337,-0.30186 1.5559,-0.43026 1.20002,0.33994 0.76159,0.0939 0.62993,0.89074 0.0734,0.97339 -0.58341,-0.25128 -0.54796,1.34992 -0.0734,1.20001 -0.15096,0.64036 1.19252,0.52194 0.60003,0.71332 0.29369,0.34409 1.04994,0.22563 0.90001,1.01333 0.51893,0.37707 1.0001,-0.80251 0.90003,0.37339 -0.014,0.6238 -0.36943,0.90613 -0.41333,1.50001 -0.40184,0.23595 -0.70805,0.56752 -1.31334,0.60001 -0.44248,0.18199 -0.82311,0.42583 -1.57341,0.3 -0.56359,-0.0741 -1.49501,0.21944 -1.61335,-0.3 -0.40184,-0.23595 -0.70805,-0.56752 -1.31334,-0.60001 -0.84723,0.22276 -0.8728,-0.37615 -1.57342,-0.3 -0.84536,-0.0814 0.15257,-1.11748 -0.11338,-1.20001 -0.59247,-0.0453 -0.87696,-0.39862 -1.31333,-0.60002 -0.53884,-0.53118 0.67526,-1.17188 -0.0734,-1.20001 -0.49557,-0.006 -0.60763,0.96749 -1.20003,0.48669 -0.20762,-0.78434 -0.62322,-0.98591 -0.71332,-0.18669 -0.41755,-0.24506 -0.65728,-0.78595 -0.71333,-0.60001 0.0529,0.9489 -0.40154,-0.20395 -0.3734,0.90001 0.66178,0.0934 0.5467,0.62859 -0.0801,0.51989 -0.4439,-0.4635 -0.93641,-0.41395 -1.23321,-0.81989 -0.21149,-0.31269 -1.03043,-0.52845 -1.20003,-0.90001 -0.77948,0.1417 -0.50561,-0.76995 -1.31333,-0.60001 -0.57465,-0.49538 -0.0751,-0.42155 -0.0734,-1.20002 0.84505,-0.0816 -0.22225,-1.18715 0.30001,-1.01332 -0.0701,-0.59246 -0.56626,-0.87696 0,-1.31333 0.25342,-0.37103 0.12362,-1.12531 0.90001,-0.97338 0.6238,-0.13504 0.90616,0.66896 1.50004,0.18668 -0.40216,-1.03995 0.70969,-0.56588 0.90002,-1.01332 -0.0408,-0.93676 0.802,0.60441 0.60002,-0.67339 -0.50728,-0.14382 -0.75482,-0.54737 -1.35329,-0.6 0.12462,-0.051 0.10575,-1.22897 0.26657,-1.50002 0.54683,-0.091 -0.19651,-1.47208 0.41332,-1.50003 0.76025,-0.13577 0.72326,0.5257 1.57342,0.30001 0.82166,0.19293 0.38304,-0.49627 1.20003,-0.30001 z"
         id="path3838" />
      <path
         style="fill:#c8ffc8;stroke:#000000;stroke-width:0.90000004000000000;stroke-linecap:round;stroke-linejoin:round;stroke-miterlimit:9.99670124000000020;stroke-opacity:1;stroke-dasharray:none;fill-opacity:1"
         d="m 194.53081,837.38156 c -0.0605,0.58881 0.0634,1.49119 0.63995,1.50002 0.76575,0.28583 0.93979,-0.60562 1.4601,-0.18668 -0.48804,0.21858 -0.2749,1.05906 -0.0134,1.6467 -0.47575,0.10225 -0.24054,0.98235 -0.88669,0.94001 -0.7572,-0.006 0.30257,0.9675 0.60002,0.4867 0.28127,-0.73714 0.96613,0.70247 1.20002,-0.11338 0.0462,-0.88088 0.95155,-0.14956 0.60003,0.52663 0.56443,-0.71855 0.67825,0.32869 1.50002,0 0.63355,0.14479 1.48946,-0.0856 1.20004,-0.48669 0.36194,0.26628 0.57867,-0.0719 0.3,-0.52664 0.15029,-0.33086 0.78645,0.26445 1.31335,0.41333 0.49689,0.0431 1.00679,-0.7797 1.38672,0.11337 0.091,0.54683 1.47209,-0.19652 1.50003,0.41332 -0.0216,0.59602 0.93797,0.81572 1.12665,0.37338 0.71274,-0.76811 0.64794,0.2924 0.9734,0.52663 0.13576,0.76024 -0.52568,0.72325 -0.3,1.5734 0.0741,0.56359 -0.21944,1.49499 0.3,1.61332 -0.21185,0.84964 0.20372,1.07187 0.60002,1.31334 0.6752,0.18028 -0.62618,0.22658 -0.60002,0.67339 -1.00003,0 -2.00004,0 -3.00006,0 -0.0112,-0.62639 -1.12304,-0.15254 -1.61335,-0.30001 -0.83465,-0.19685 -0.98892,0.28666 -1.61335,0.30001 -0.61409,-0.01 -1.04773,-0.20123 -1.27342,-0.60001 -0.64711,-0.0184 -1.19921,-0.26628 -1.74041,-0.54039 -0.76337,-0.17881 -0.17844,0.95417 0.24038,0.84039 -0.20923,0.54961 0.88842,1.12558 -0.11325,1.20002 -1.16227,0 -2.32452,0 -3.48678,0 -0.0112,-0.62639 -1.12305,-0.15254 -1.61335,-0.30001 -0.83462,0.19685 -0.98891,-0.28665 -1.61334,-0.3 -0.97626,0.35179 -0.35121,-0.89774 -1.27341,-0.60001 -0.78225,0.14446 -1.12025,-0.15533 -1.61335,-0.3 -0.6541,0.10687 -0.64249,0.16412 -0.78671,0.0734 -0.38316,-0.24132 -1.52579,0.27683 -1.20003,-0.67339 -0.13047,-0.76826 0.52475,-0.75081 0.71333,-1.20001 0.66225,0 1.32449,0 1.98674,0 0.15588,-0.4819 0.96771,-0.30785 1.31333,-0.60002 0.60458,-0.0332 0.28592,-0.98965 0.71333,-1.20001 0.24461,-0.23696 0.002,-1.85025 -0.22663,-0.90001 -0.8469,0.20912 -0.52543,-0.75011 -1.01332,-0.90001 -0.93321,-0.0883 0.10937,-0.34845 -0.78671,-0.41332 -0.24508,-0.3927 -0.78594,-0.48962 -0.60002,-1.31332 -0.0285,-0.65298 0.97379,-0.27516 0.90003,-0.97339 -0.70395,0.0341 -0.64029,-1.4154 -0.60003,-0.90001 0.0568,0 0.54088,0 1.31335,0 0.46379,-0.19883 1.14845,-0.29479 1.08672,-0.22663 0.53405,-0.0185 1.04638,-0.5346 1.72666,-0.37338 0.11275,-0.50914 0.98712,-0.22044 1.27341,-0.60002 z"
         id="path3840" />
      <path
         style="fill:#c8ffc8;stroke:#000000;stroke-width:0.90000004000000000;stroke-linecap:round;stroke-linejoin:round;stroke-miterlimit:9.99670124000000020;stroke-opacity:1;stroke-dasharray:none;fill-opacity:1"
         d="m 199.33092,847.5817 c 0.62412,0.0136 0.97584,0.29973 1.31334,0.60001 0.83723,0.19944 0.98805,-0.28754 1.61335,-0.30001 0.72449,0 1.44896,0 2.17344,0 0.0112,0.62638 1.12305,0.15253 1.61335,0.30001 0.60845,0.40995 -0.431,0.69464 -0.11325,1.42664 0.5701,0.0544 0.39931,0.84962 0.90001,0.97338 0.64005,-0.002 0.45228,0.8233 0.90003,1.01333 -0.17433,0.34799 -0.802,-0.49128 -1.12665,0.18669 -0.1395,-0.63443 -1.02859,-0.17583 -1.27342,0 -0.76827,0.15846 -0.7508,0.2141 -1.20002,0.11337 -0.25746,0.40514 -0.86978,0.57344 -0.3,1.01333 -0.74168,-0.11725 -0.62398,0.62497 -0.60003,1.2734 -0.40357,0.23421 -0.60292,0.67263 -0.60001,1.31332 0.26139,0.42725 0.15286,0.29339 -0.52662,0.18669 -0.27528,-0.3492 -0.5029,-0.74605 -0.97342,-0.90001 -0.13818,-0.42509 -0.93596,-0.48937 -0.98013,-0.81988 -0.44392,0.4635 -0.93643,0.41393 -1.23323,0.81988 -0.58006,0.0578 -0.79314,0.48243 -1.61335,0.30001 -0.84724,-0.22276 -0.87279,0.37615 -1.57341,0.3 -0.16003,0.47776 -0.89209,0.38347 -1.01334,0.90001 -0.66322,0.0255 -0.8609,-0.41466 -0.7867,-1.12664 -0.18199,-0.44248 -0.42585,-0.82308 -0.30001,-1.5734 0.002,-0.49132 -0.75363,-0.82148 -1.20003,-0.48668 -0.34396,0.0495 -0.27925,1.43335 -0.90002,0.97338 -0.14526,-0.30851 -1.08451,-0.70195 -0.1867,-1.0867 0.48892,-0.29038 0.0589,-1.18455 -0.33994,-1.20002 -0.0544,-0.27776 -0.84964,-1.04824 -0.9734,-0.3 0.55341,0.1165 0.96951,1.08614 0.30001,1.20001 -0.58218,-0.0668 -1.44676,0.0707 -1.50003,0.60001 -0.34307,0.28625 -1.12212,0.58123 -0.90003,-0.41331 0.26108,-0.89886 -0.52202,-0.75354 -0.82664,-1.08671 0.0814,-0.70585 -1.37531,0.12637 -1.27341,-0.6 -0.6127,0.002 0.14721,-0.8233 0.30001,-1.01333 -0.36133,-0.27645 -0.43065,-0.84492 -1.12665,-0.7867 -0.34146,-0.26218 -0.25002,-0.59653 0.22663,-0.90001 0.0881,-0.54961 0.14999,-1.12557 0.71332,-1.20001 0.8281,-0.19031 0.76963,0.50595 1.61335,0.3 0.51843,0.27036 0.48735,-0.0744 0.6734,0.18669 0.41908,-0.61758 0.91307,0.21257 1.42665,0.11325 0.55303,0.0715 1.55118,-0.30223 1.27342,0.60001 0.78852,-0.15074 1.11877,0.15679 1.61335,0.3 0.76225,0 1.52448,0 2.28673,0 0.01,0.62754 1.12544,0.15014 1.61335,0.30001 0.76225,0 1.5245,0 2.28675,0 -0.0136,-0.62412 -0.29976,-0.9758 -0.60001,-1.31334 -0.53515,-0.25953 -0.28167,-1.21591 0.41331,-0.48668 0.33862,-0.0379 0.58895,-0.008 0.78672,0.3 z"
         id="path3842" />
      <path
         style="fill:#c8ffc8;stroke:#000000;stroke-width:0.90000004000000000;stroke-linecap:round;stroke-linejoin:round;stroke-miterlimit:9.99670124000000020;stroke-opacity:1;stroke-dasharray:none;fill-opacity:1"
         d="m 176.53037,846.08167 c 0.62413,0.0136 0.97582,0.29976 1.31335,0.60001 0.21215,0.31203 0.95935,0.59953 1.38672,0.71333 0.40996,0.22782 0.69466,0.58091 1.42666,0.48669 0.0647,0.55971 1.05085,0.1981 1.57341,0.30001 0.73051,-0.21505 1.117,0.40046 1.80005,0.3 0.0582,0.70055 0.30411,-0.0669 0.71333,0.60001 0.27313,0.36464 0.97953,0.29603 1.08671,0.82663 0.54932,0.0544 -0.002,0.84962 -0.3,0.97338 0.0719,0.56587 0.60385,0.67172 1.31334,0.60002 0.72245,0.27711 0.26552,0.6421 0,0.90001 0.36911,0.24694 -0.78877,1.2264 -0.11325,1.42664 0.18197,0.44248 0.42583,0.8231 0.3,1.5734 -0.11463,0.67215 -0.57693,0.59133 -1.20003,0.3 -0.4139,-0.55705 -1.00752,-0.38964 -1.20002,-0.90002 -0.91687,0.42747 -0.51988,-1.19455 -0.60002,-0.71331 -0.31268,-0.37415 -0.52847,0.23841 -0.90002,0 -0.49705,-0.30761 -0.64491,-0.5588 -0.71333,0.11325 -0.27316,0.10725 -0.97952,0.839 -1.08672,0.37338 -0.49538,-0.1291 -0.42158,-0.82737 -1.20003,-0.67338 -0.0785,0.43701 -0.76675,0.7507 -0.60001,1.50001 -0.4959,-0.14188 -0.67727,-0.59828 -1.01334,-0.90001 -0.47586,0.70886 -0.5574,-0.1582 -0.4867,-0.82662 0.21048,-0.83495 -0.54793,-0.70102 -0.60001,-1.2734 -0.41757,-0.22022 -0.97234,-0.30323 -1.01334,-0.90002 -0.83863,0.20522 -0.32982,-0.9932 -0.77336,-1.46001 -0.3264,-1.05616 0.90895,-0.26957 0.28666,-0.94001 -0.99362,-0.37868 0.45319,-0.51733 0.30002,-1.01333 0.56406,-0.0737 0.009,-1.26706 0.52662,-1.38671 0.14098,-0.4634 -0.9866,-0.26837 -0.22662,-0.82664 0,-0.24265 0,0.20509 0,0.22663 z"
         id="path3844" />
      <path
         style="fill:#c8ffc8;stroke:#000000;stroke-width:0.90000004000000000;stroke-linecap:round;stroke-linejoin:round;stroke-miterlimit:9.99670124000000020;stroke-opacity:1;stroke-dasharray:none;fill-opacity:1"
         d="m 190.33071,851.18175 c 0.49588,0.1419 0.67729,0.59826 1.01333,0.90001 0.59008,0.40947 -0.0716,0.97925 -0.41332,1.31332 0.32365,0.18545 0.51017,1.03689 1.06028,0.62645 0.23504,-0.58802 0.20424,-1.11272 0.96639,-1.03976 0.5938,0.0306 0.74918,0.49976 0.6734,1.20001 -0.0605,0.6983 0.5192,0.75637 0.30001,1.61333 0.1743,0.4883 0.802,0.64121 1.12664,0.1867 0.28753,-0.33694 0.67468,-0.57426 1.27341,-0.60001 0.0112,-0.62637 1.12305,-0.15253 1.61335,-0.3 0.59247,-0.0453 0.87696,-0.39862 1.31334,-0.60002 0.5396,-0.005 0.80818,-0.83816 1.20003,-0.3 0.14138,0.4831 0.99918,0.24977 0.9734,0.90002 0.49558,0.14221 0.60762,0.66795 1.20003,0.71331 0.24805,0.0659 -0.0235,-0.13724 0,-0.93994 0.12644,-0.2057 1.12221,-0.7757 1.20004,-0.0734 0.64002,-0.003 0.45228,0.82328 0.90001,1.01333 -0.19944,0.83722 0.28754,0.98803 0.30001,1.61333 -0.55971,0.0648 -0.1981,1.05084 -0.30001,1.5734 -0.36078,0.41757 -0.43144,0.97233 0.30001,1.01333 0.0584,0.72096 -0.0999,1.34332 -0.22662,1.0867 -0.0435,0.0358 1.09682,0.75031 1.12665,0 0.49132,-0.002 0.8215,0.75361 0.4867,1.20001 -0.54747,0.37375 0.77882,0.51446 0.11325,0.82664 0.10725,0.5172 0.44808,0.80085 0.60001,1.27339 0.47354,0.30417 0.59736,0.6671 0.18669,0.90001 -0.99134,0.0453 -0.3019,0.39861 -0.71333,0.60001 -0.0544,0.5493 -0.84964,-0.002 -0.9734,-0.3 -0.49176,0.14603 -0.75289,0.52266 -1.31334,0.6 -0.6502,0.0125 -1.3594,0.0839 -1.61335,-0.3 -0.47831,0.14616 -1.57342,-0.32447 -1.57342,0.3 -0.97708,0.36725 0.069,-0.60571 -0.4867,-0.6 0.34411,-0.69254 0.22561,-0.47489 1.01334,-0.30001 0.14138,-0.48309 0.99917,-0.24976 0.9734,-0.90001 -0.37867,-0.99363 -0.51733,0.45318 -1.01333,0.30001 -0.7795,0.14171 -0.50561,-0.76998 -1.31335,-0.60001 -0.29082,-0.4831 -0.95466,-0.24977 -0.37339,-0.90002 -0.044,-0.74272 0.24457,-1.41283 -0.60001,-0.90001 0.12388,-0.77262 -0.5882,-0.90842 -0.90002,-0.6 -0.0212,-0.92431 -1.28425,0.56773 -0.90003,-0.60001 0.43365,-0.47219 -0.12387,-1.24328 -0.3,-0.60001 -0.15967,0.32908 -0.82244,0.75268 -1.20002,0.4867 -0.2904,-0.74625 -1.18455,0.48405 -1.20004,-0.11325 0.0285,-0.80618 -0.97378,-0.17182 -0.90001,0.22662 -0.52602,0.0859 -0.23032,0.54296 -0.60003,-0.3 -0.62379,0.014 -0.90615,0.36941 -1.50002,0.41331 -0.21965,0.41814 -1.20062,0.075 -1.72667,0.18669 -0.87491,0.21266 -1.13025,-0.19425 -0.97341,-1.01332 -0.15671,-0.50553 0.33543,-1.6599 -0.3,-1.6867 0.13463,-1.06134 -0.60036,-0.36454 -1.01334,-0.30002 -0.60455,0.83757 -0.28591,-0.42967 -0.71332,-0.6 0.18865,-0.81312 -0.92723,-0.32172 -0.6734,-1.20002 -0.24556,-0.44663 -0.61669,-1.06624 0.30001,-0.6 0.29049,-0.3473 0.36734,-0.90823 0.3,-1.61334 -0.18979,-0.40112 -0.74374,-0.75477 -0.34662,-1.29345 0.38356,-0.8089 0.0323,-0.72681 0.64663,-1.21989 0.0463,0.23849 0.95154,0.24665 0.60002,1.12664 -0.20913,0.98683 0.75013,0.51429 0.90002,0.18669 0.22133,-0.41979 1.00303,-0.57044 1.61335,-0.4867 0.59006,-0.40949 -0.0716,-0.97925 -0.41332,-1.31333 -0.0765,-0.27485 0.12776,-0.16946 0.30001,-0.18668 z"
         id="path6368" />
      <path
         style="fill:#c8ffc8;stroke:#000000;stroke-width:0.90000004000000000;stroke-linecap:round;stroke-linejoin:round;stroke-miterlimit:9.99670124000000020;stroke-opacity:1;stroke-dasharray:none;fill-opacity:1"
         d="m 171.73026,844.28166 c 0.63128,0.33967 0.8421,0.55505 1.50004,0.6 0.68399,-0.10275 1.2493,0.081 1.80004,0.3 1.06558,0.0177 0.15066,0.22414 1.01333,0.30001 0.804,0.23265 -0.001,0.70211 0.41333,0.90001 0.86535,0.0306 -0.30221,0.49977 0.0734,1.20002 -0.22021,0.41756 -0.30323,0.97232 -0.90001,1.01332 -0.24627,0.6796 1.14882,0.86363 0.0335,0.7867 -0.22052,0.67369 0.42048,1.37244 0.26656,2.10003 1.20994,0.014 0.1336,0.36941 -0.3,0.41331 -0.42235,0.21544 -0.77849,0.49709 -1.12665,0.7867 -0.14138,0.4831 -0.99916,0.24977 -0.9734,0.90001 -0.7009,-0.0631 -0.002,1.27281 -0.41333,1.50003 -0.35653,0.28125 -0.30943,0.96612 -0.71332,1.20001 -0.0626,0.34731 0.42272,0.77546 0.52662,1.20001 -0.002,0.49135 0.75364,0.82149 1.20004,0.4867 0.27038,-0.18547 -1.04145,0.62715 -0.37339,0.71333 0.0932,0.53121 0.0771,1.17186 0.67339,1.20001 0.07,0.70772 -0.005,1.27 -0.41331,1.50001 -0.36744,0.32365 -0.65296,0.51016 -0.94696,1.06026 -0.4742,0.20109 -1.1837,-0.1562 -1.63979,-0.46025 0.27909,0.33587 -0.75571,-0.21481 -1.31335,0 -0.54236,-0.0333 -0.87266,0.67438 -1.54698,0.13975 -0.62957,-0.21587 -1.18806,-0.0476 -1.33978,-0.85307 -0.0711,-0.2187 -0.65882,-0.3625 0.22662,-0.48669 0.8147,0.0408 0.40245,-0.802 0.6734,-0.60001 0.75686,-0.14189 -0.37221,-0.59829 -0.41331,-0.90001 -0.09,-0.29038 -0.63399,-1.18455 -0.26009,-1.20002 0.10563,-0.51891 0.24885,-1.0001 0.97341,-0.90001 0.33885,-0.85431 -0.92837,-0.58907 -0.90002,-1.20001 -0.31761,-0.1748 -1.09723,-0.55904 -0.60001,-0.90001 0.29048,-0.34729 0.36733,-0.90823 0.3,-1.61334 0.42298,-0.2148 0.19616,-1.0794 0.60002,-1.31333 -0.18696,-0.51908 1.12649,-0.77143 0.3,-0.97338 0.48191,-0.15588 0.30786,-0.9677 0.60001,-1.31334 -0.29368,-0.3441 -1.04993,-0.22561 -0.90001,-1.01331 -0.74167,0.11725 -0.62397,-0.62498 -0.60002,-1.2734 -0.61495,0 0.97052,0 1.31335,0 0.79188,0.26957 0.58943,0.27871 1.01333,-0.3 0.18025,-0.44422 0.2266,-1.02234 0.67339,-1.20003 0.37445,-0.55227 0.7312,-0.23369 0.30001,-1.01332 0.0786,-0.43052 -0.27578,-1.82282 0.46025,-1.22645 0.18752,0.22683 0.49478,0.29171 0.73978,0.43976 z"
         id="path6590" />
      <path
         style="fill:#c8ffc8;stroke:#000000;stroke-width:0.90000004000000000;stroke-linecap:round;stroke-linejoin:round;stroke-miterlimit:9.99670124000000020;stroke-opacity:1;stroke-dasharray:none;fill-opacity:1"
         d="m 176.53037,852.08176 c 0.76827,-0.13049 0.75083,0.52475 1.20004,0.71331 0.43538,0.20241 0.27999,0.99558 0.3,1.61334 0.10538,0.7906 0.47751,-0.27994 0.90003,0.37337 0.12037,0.58345 0.71182,0.84174 0.68013,-0.0801 0.31944,-0.43761 0.5663,-1.0845 1.1199,-0.70656 0.23267,0.14775 0.70213,1.11639 0.90003,0.56006 0.51892,-0.1055 1.0001,-0.24883 0.90002,-0.97338 0.13818,0.38208 0.93597,0.71643 0.98014,0.38013 0.38766,0.23972 0.63548,-0.33093 0.5199,0.33319 -0.0163,0.65409 0.63309,0.64248 1.12664,0.7867 0.0314,0.53794 1.26527,0.34821 0.97341,1.16658 0.6555,-0.0444 -0.11112,1.33345 0.90001,0.93345 0.014,0.6238 0.36944,0.90613 0.41333,1.50002 0.40184,-0.23595 0.70805,-0.56752 1.31334,-0.60001 0.0341,0.59035 0.55106,0.69787 0.37338,1.50001 0.14455,0.531 -0.29087,1.64198 0.22663,1.80003 1.2328,0.027 0.30962,0.24917 -0.22663,0.60001 -0.12012,0.46137 -0.91127,0.67334 -1.20002,0.90001 -0.1419,0.49589 -0.59828,0.67729 -0.90003,1.01333 -0.42867,0.56327 -0.39266,1.21646 0.30002,1.20001 -0.36465,0.29796 -0.29604,1.14716 -0.82664,0.4867 -0.50681,-0.38921 -0.59964,0.40207 -0.6734,-0.60001 -0.76826,0.2795 -0.75083,-0.82429 -1.20003,-0.4867 -0.058,0.3472 -1.15732,0.82886 -0.60001,0.26007 -0.27262,-0.35185 -0.79772,-0.45122 -1.50004,-0.37339 0.32457,0.23298 -0.53456,0.549 -0.60001,-0.3 -0.1418,-0.19857 -0.73657,-1.27743 0.11338,-1.20001 0.22781,-0.40996 0.58092,-0.69464 0.4867,-1.42664 -0.96255,0.18865 -0.27723,-0.9272 -0.60002,-0.67338 0.44147,-1.05192 -0.82518,0.14908 -0.30001,-0.41333 0.14846,-0.93365 0.12518,-0.55395 0.71333,-0.7867 0.41486,-0.62177 0.20956,-0.49092 0.4867,-0.82662 -0.0985,-0.0949 -0.33,-0.17537 -0.90002,0.0399 -0.24507,0.5342 -0.78596,0.4575 -0.60002,0.26006 -0.0306,0.52559 -0.49979,-0.35296 -1.20003,-0.0734 -0.072,-0.56585 -0.60383,-0.67173 -1.31333,-0.60001 -0.21544,-0.56385 -0.4971,-0.74634 -0.78672,-0.0734 -0.10537,0.66853 -0.47751,0.7269 -0.90002,0.37338 -0.41725,0.36047 -0.90266,0.36178 -1.20003,-0.11325 -0.36132,-0.55986 -0.43063,0.695 -1.12665,0.41332 -0.51322,0.54506 -1.03641,-0.0775 -0.9734,0.0734 -0.25858,-0.51908 -0.37415,-0.77144 0.30002,-0.97339 0.35327,-0.41006 -0.97514,0.43425 -1.01334,-0.3 -0.35653,-0.28126 -0.30944,-0.96613 -0.71333,-1.20003 -0.0626,-0.34731 0.42273,-0.77545 0.52663,-1.20001 0.2905,-0.34729 0.36735,-0.9082 0.30001,-1.61332 0.36134,-0.27645 0.43065,-0.84493 1.12665,-0.7867 0.27525,-0.34923 0.5029,-0.74605 0.9734,-0.90002 0.16846,-0.0425 1.19364,-0.7793 1.20003,0 z"
         id="path6592" />
    </g>
  </g>
</svg>
