<?xml version="1.0" encoding="UTF-8" standalone="no"?>
<!-- Created with Inkscape (http://www.inkscape.org/) -->

<svg
   xmlns:dc="http://purl.org/dc/elements/1.1/"
   xmlns:cc="http://creativecommons.org/ns#"
   xmlns:rdf="http://www.w3.org/1999/02/22-rdf-syntax-ns#"
   xmlns:svg="http://www.w3.org/2000/svg"
   xmlns="http://www.w3.org/2000/svg"
   xmlns:sodipodi="http://sodipodi.sourceforge.net/DTD/sodipodi-0.dtd"
   xmlns:inkscape="http://www.inkscape.org/namespaces/inkscape"
   width="102.72659"
   height="44.764641"
   id="svg2"
   version="1.1"
   inkscape:version="0.47 r22583"
   sodipodi:docname="north lieth.svg">
  <defs
     id="defs4">
    <inkscape:perspective
       sodipodi:type="inkscape:persp3d"
       inkscape:vp_x="0 : 526.18109 : 1"
       inkscape:vp_y="0 : 1000 : 0"
       inkscape:vp_z="744.09448 : 526.18109 : 1"
       inkscape:persp3d-origin="372.04724 : 350.78739 : 1"
       id="perspective10" />
    <inkscape:perspective
       id="perspective3128"
       inkscape:persp3d-origin="0.5 : 0.33333333 : 1"
       inkscape:vp_z="1 : 0.5 : 1"
       inkscape:vp_y="0 : 1000 : 0"
       inkscape:vp_x="0 : 0.5 : 1"
       sodipodi:type="inkscape:persp3d" />
    <inkscape:perspective
       id="perspective2852"
       inkscape:persp3d-origin="0.5 : 0.33333333 : 1"
       inkscape:vp_z="1 : 0.5 : 1"
       inkscape:vp_y="0 : 1000 : 0"
       inkscape:vp_x="0 : 0.5 : 1"
       sodipodi:type="inkscape:persp3d" />
  </defs>
  <sodipodi:namedview
     id="base"
     pagecolor="#ffffff"
     bordercolor="#666666"
     borderopacity="1.0"
     inkscape:pageopacity="0.0"
     inkscape:pageshadow="2"
     inkscape:zoom="7.8713771"
     inkscape:cx="85.992194"
     inkscape:cy="29.764722"
     inkscape:document-units="px"
     inkscape:current-layer="layer1"
     showgrid="false"
     inkscape:window-width="1600"
     inkscape:window-height="838"
     inkscape:window-x="-8"
     inkscape:window-y="-8"
     inkscape:window-maximized="1" />
  <metadata
     id="metadata7">
    <rdf:RDF>
      <cc:Work
         rdf:about="">
        <dc:format>image/svg+xml</dc:format>
        <dc:type
           rdf:resource="http://purl.org/dc/dcmitype/StillImage" />
        <dc:title></dc:title>
      </cc:Work>
    </rdf:RDF>
  </metadata>
  <g
     inkscape:label="Layer 1"
     inkscape:groupmode="layer"
     id="layer1"
     transform="translate(-323.63671,-509.97986)">
    <g
       style="fill:#c8ffc8;stroke:#000000;stroke-opacity:1;fill-opacity:1"
       transform="matrix(0.78197393,0,0,0.78197393,117.33327,-97.393654)"
       id="g5697">
      <path
         style="fill:#c8ffc8;stroke:#000000;stroke-width:0.90000004000000000;stroke-linecap:round;stroke-linejoin:round;stroke-miterlimit:9.99670124000000020;stroke-opacity:1;stroke-dasharray:none;fill-opacity:1"
         d="m 357.46379,787.91481 c -0.11112,0.42851 0.41654,0.21814 0.35203,0.6 0.37235,-0.0724 0.17841,0.42161 0.548,0.35202 -0.0724,0.37234 0.42158,0.17842 0.35201,0.54799 0.39444,-0.0771 0.13927,0.49543 0.65204,0.30001 0.26817,-0.0543 0.21726,0.48612 0.44397,0.3 -0.48905,-0.0444 0.22955,-0.0136 0.104,0.3 0.37235,-0.0724 0.17841,0.42162 0.548,0.35203 -0.0724,0.37234 0.42159,0.17841 0.35201,0.54799 0.37653,-0.0339 0.17665,0.4052 0.62157,0.37356 0.26473,0.20145 0.43423,0.6328 0.82646,0.52645 0.31254,-0.0645 0.74559,0.0276 0.60001,0.248 -0.0159,-0.52715 0.36783,-0.10075 0.40404,0.052 0.36532,0 0.73066,0 1.096,0 -0.15366,-0.52726 0.38737,-0.068 0.30001,0.20804 -0.13776,0.11025 -0.36732,0.12867 -0.35202,0.39196 -0.37234,-0.0724 -0.17842,0.4216 -0.548,0.35201 0,0.48268 0,0.96534 0,1.44801 -0.48817,-0.11112 -0.30145,0.41653 0,0.35202 -0.0969,0.41428 0.0831,0.55162 0.30001,0.65202 0.13611,0.45345 -0.68166,-0.047 -0.60001,0.35201 0.0605,0.3778 -0.74855,-0.11387 -0.60003,0.35202 -0.30785,0.40353 -0.20137,-0.36048 -0.56005,-0.20804 0.053,0.36629 -0.31195,0.3147 -0.63997,0.3 -0.2827,0.0346 -0.70394,-0.0693 -0.90003,0.052 0.11288,0.4302 -0.45089,0.1838 -0.70404,0.24799 -0.30253,-0.0199 -0.14823,0.4171 -0.49598,0.35202 0,0.58266 0,1.16534 0,1.748 -0.45834,-0.141 -0.2598,0.37489 -0.3,0.65203 0.0771,0.39442 -0.49543,0.13926 -0.30002,0.65202 -0.0981,0.44651 0.0846,0.48076 0.41034,0.60631 0.27756,0.2124 0.12463,0.57742 0.48969,0.54169 -0.10075,0.40558 0.47285,0.15426 0.59421,0.5422 -0.15656,0.46718 0.46575,0.14089 0.3058,0.6058 0.42851,-0.11112 0.21816,0.41653 0.60003,0.35201 -0.0724,0.37235 0.42158,0.17843 0.35201,0.548 0.37235,-0.0724 0.17842,0.42159 0.548,0.35202 0.11287,0.43021 -0.45088,0.18381 -0.70404,0.248 -0.66534,0 -1.33069,0 -1.99602,0 0.141,0.45833 -0.37489,0.25978 -0.65203,0.3 -0.36192,-0.1235 -0.44119,0.43542 -0.80805,0.3 0.053,0.36628 -0.31194,0.31472 -0.63997,0.30001 0.14177,0.46325 -0.41672,0.18242 -0.55745,0.55744 -0.45375,-0.0875 -0.19687,0.42401 -0.60263,0.34257 -0.37197,-0.15744 -0.48005,0.3222 -0.796,0.3 -0.848,0 -1.69601,0 -2.54402,0 -0.005,0.60415 0.11087,-0.22599 -0.35203,0 -0.25617,-0.0611 -0.76229,0.1276 -0.84801,-0.104 0.0613,-0.3786 -0.51426,-0.12037 -0.75605,-0.19597 -0.37778,0.0605 0.11387,-0.74854 -0.352,-0.60002 -0.26638,-0.051 0.14275,-0.77745 -0.35203,-0.60001 -0.32865,-0.20076 0.48193,-0.63976 0.104,-0.6 -0.34798,0 -0.69598,0 -1.04398,0 -0.0346,-0.2827 0.0693,-0.70392 -0.052,-0.90001 -0.36904,0.17404 -0.31142,-0.57848 -0.14398,-0.60001 0.37258,-0.0244 0.78558,0.0489 1.13278,-0.0367 0.17665,-0.32383 0.5087,-0.27245 0.8233,-0.26323 -0.0645,-0.39545 0.36701,-0.20564 0.56062,-0.52066 0.41255,4.1e-4 0.27613,-0.35525 0.58739,-0.37935 0.51436,-0.19703 0.2378,0.39689 0.65202,0.3 0.0926,-0.22073 0.0136,-0.61296 0.04,-0.90001 0.31254,-0.0645 0.74559,0.0276 0.60002,0.248 -0.11288,-0.43022 0.45087,-0.18382 0.70403,-0.248 0.45345,0.13611 -0.047,-0.68167 0.35202,-0.6 0.24305,-0.0743 0.81976,0.18507 0.74398,-0.20804 0.13775,-0.11025 0.36733,-0.12868 0.35203,-0.39198 0.36902,0.17403 0.3114,-0.57847 0.14396,-0.60001 -0.31872,0.15109 -0.76656,-0.20294 -0.33995,-0.3 0.28966,0 -0.49225,0 -0.66407,0 -0.40358,-0.30784 0.36047,-0.20137 0.20803,-0.56005 0.36628,0.053 0.31472,-0.31194 0.3,-0.63996 -0.14217,-0.46326 0.56553,-0.18241 0.0426,-0.55744 0.0875,-0.45375 -0.42401,-0.19687 -0.34257,-0.60262 0.22075,-0.0926 0.61296,-0.0136 0.90001,-0.04 0.14581,-0.46317 -0.48577,-0.14892 -0.3,-0.65203 -0.13825,-0.33325 0.623,-0.26686 0.19598,-0.548 -0.33292,0.0332 -0.12544,0.48325 -0.49599,0 -0.2827,-0.0346 -0.70394,0.0693 -0.90003,-0.052 0.11288,-0.4302 -0.45088,-0.1838 -0.70403,-0.24799 -0.46843,0.15109 -0.43175,-0.20293 -0.65203,-0.3 -0.24305,-0.0742 -0.81976,0.18508 -0.74399,-0.20803 -0.248,-0.0694 -0.38055,-0.25414 -0.3,-0.65203 -0.22075,-0.0926 -0.61297,-0.0136 -0.90002,-0.04 0,-0.50001 0,-1.00001 0,-1.50002 0.31252,-0.005 0.74559,0.11087 0.60001,-0.35202 0,-0.48267 0,-0.96533 0,-1.44801 0.34716,0.0299 0.67634,0.0416 0.65203,-0.3 0.5073,0.0358 -0.3116,0.0445 -0.052,-0.40402 0.0899,-0.5297 0.31133,0.0825 0.45605,0.104 0.37778,0.0605 -0.11388,-0.74854 0.35201,-0.60002 0.0184,0.19703 -0.5233,-0.3969 0.052,-0.3 -0.0904,-0.40373 0.4659,-0.16075 0.33996,-0.60001 0.50001,0 1.00003,0 1.50004,0 -0.14581,-0.46315 0.48577,-0.1489 0.3,-0.65201 -0.0159,-0.52715 0.36782,-0.10075 0.40404,0.052 0.24248,0.0749 0.80208,-0.16741 0.79598,0.15604 0.12554,0.41516 0.43892,-0.0534 0.30002,-0.36408 -0.15473,0.0838 0.27018,0.21745 0.4839,0.39193 0.0387,0.0388 0.0774,0.0774 0.11612,0.11612 z"
         id="path3770" />
      <path
         style="fill:#c8ffc8;stroke:#000000;stroke-width:0.90000004000000000;stroke-linecap:round;stroke-linejoin:round;stroke-miterlimit:9.99670124000000020;stroke-opacity:1;stroke-dasharray:none;fill-opacity:1"
         d="m 346.0626,793.61579 c -0.0743,0.27216 0.11475,0.43531 0.30001,0.6 -0.1616,0.4006 0.28422,0.19379 0.3,0.41701 -0.10875,0.34777 0.45975,0.0183 0.30001,0.417 0.14371,0.26063 0.41734,-0.10762 0.30001,-0.195 -0.11187,0.35083 0.22497,0.25304 0.456,0.261 0.32463,10e-4 -0.38407,0.0764 -0.156,-0.273 0.30605,0.071 0.26705,-0.20296 0.37802,-0.327 0.274,0 0.54801,0 0.82201,0 -0.10363,-0.34263 0.15655,-0.32147 0.41701,-0.30001 0.34778,-0.10875 0.0182,0.45975 0.41701,0.30001 0.31969,0.0846 0.38987,-0.0801 0.40502,-0.30001 0.40786,-0.16886 0.11225,0.36571 0.417,0.30001 0.28252,-0.0435 0.0851,0.39283 0.14401,0.573 0.30606,-0.071 0.26705,0.20297 0.37801,0.32702 0.16118,-0.0323 0.71023,0.0962 0.38413,-0.13789 -0.31017,-0.13996 0.0359,-0.4127 0.21588,-0.46213 0.39033,-0.15132 0.0531,0.42492 0.417,0.3 0.19782,-0.0372 0.0154,-0.45465 0.40502,-0.3 0,-0.12312 0,-0.73337 0,-0.48301 -0.0834,0.32241 0.3456,0.13241 0.53401,0.18301 0.31967,-0.0846 0.38986,0.0801 0.40501,0.3 0.38701,0 0.77401,0 1.16103,0 -0.10363,0.34264 0.15656,0.32145 0.41701,0.3 0.23157,0.018 0.51145,-0.0807 0.64847,0.16547 0.2591,0.34593 -0.0166,-0.35755 0.36855,-0.16547 0.23409,0.17027 -0.0551,0.36479 -0.234,0.33902 0.057,0.18197 -0.14073,0.61873 0.156,0.561 0.28393,-0.0421 0.16159,0.46926 -0.129,0.30001 -0.18766,0.0474 -0.56721,-0.0973 -0.62701,0.078 -0.15132,0.39032 0.42491,0.0531 0.3,0.417 -0.0656,0.20464 0.53835,0.45206 0.105,0.40501 -0.22394,0.0112 -0.0496,0.42038 -0.105,0.6 0.1616,0.4006 -0.28424,0.19376 -0.3,0.417 0.10875,0.34778 -0.45975,0.0182 -0.30001,0.41701 0.0856,0.14942 0.44494,0.0251 0.63901,0.066 0.51969,0.057 -0.11262,-0.14073 -0.039,0.156 -0.0435,0.28252 0.39284,0.0851 0.57301,0.144 0.0151,0.12518 0.1065,0.55788 -0.051,0.60002 -0.39032,-0.15133 -0.0531,0.42491 -0.417,0.3 -0.19781,0.0372 -0.0154,0.45466 -0.40501,0.30001 -0.18104,0.058 -0.6057,-0.12769 -0.60002,0.117 -0.0254,0.21364 0.11412,0.59215 -0.234,0.483 -0.20847,0.0265 -0.52255,-0.0525 -0.66602,0.039 -0.057,0.51969 0.14074,-0.11263 -0.156,-0.039 -0.24042,-10e-4 -0.55442,-0.0764 -0.44401,0.273 -0.0474,0.18766 0.0973,0.56721 -0.078,0.62701 -0.39034,0.15133 -0.0531,-0.4249 -0.41701,-0.3 -0.26114,-0.0261 -0.50428,-0.0342 -0.40501,0.3 -0.27217,-0.0743 -0.43533,0.11475 -0.60002,0.30001 -0.4006,-0.1616 -0.19378,0.28423 -0.41701,0.3 -0.23157,0.0179 -0.51144,-0.0808 -0.64849,0.16547 -0.25908,0.34591 0.0166,-0.35757 -0.36853,-0.16547 -0.14937,-0.14957 -0.0249,-0.4342 -0.066,0 0.21957,-0.34263 -0.41193,-0.32145 -0.18302,-0.3 0.32242,0.0834 0.13242,-0.3456 0.18302,-0.53401 0.0581,-0.29314 -0.0276,-0.44239 -0.33902,-0.366 -0.38701,0 -0.77401,0 -1.16102,0 -0.1645,-0.18572 -0.3284,-0.37287 -0.60001,-0.30001 -0.50002,0 -1.00003,0 -1.50004,0 0.44626,0 0.16491,0 -0.117,0 -0.36101,0 -0.72201,0 -1.08303,0 0,0.44627 0,0.16492 0,-0.117 0.0834,-0.3224 -0.34561,-0.1324 -0.53401,-0.183 -0.52201,0 -1.04402,0 -1.56604,0 0.10363,-0.34264 -0.15656,-0.32145 -0.41701,-0.3 -0.30544,-0.0917 -0.36845,0.40174 -0.67801,0.3 -0.19781,-0.0372 -0.0154,-0.45465 -0.40501,-0.3 0.1616,0.28467 -0.28424,0.44914 -0.30002,0.183 -0.0254,-0.43115 0.11413,0.32734 -0.234,0.117 -0.19631,-0.0199 -0.43017,-0.52065 -0.36601,-0.066 -0.059,0.12287 -0.49749,0.0776 -0.60001,0.027 -0.11188,-0.35083 0.22496,-0.25304 0.456,-0.261 0.28252,0.0435 0.0851,-0.39284 0.14401,-0.57301 0.21135,0.071 0.46145,-0.20297 0.22201,-0.327 -0.29913,0.15132 -0.32517,-0.42492 -0.027,-0.30002 0.26114,0.0261 0.50428,0.0343 0.40502,-0.3 0.34263,0.10363 0.32147,-0.15653 0.30001,-0.417 0,-0.45653 0,0.44148 0,-0.117 0.0846,-0.31968 -0.0801,-0.38986 -0.30001,-0.40501 0.11187,-0.35082 -0.22497,-0.25304 -0.456,-0.261 -0.28112,-0.0421 -0.009,0.46925 -0.41702,0.3 0.11838,-0.25867 -0.30016,-0.36425 -0.24901,-0.3 0.37696,0.11913 0.0929,-0.32872 0.35989,-0.43789 0.0925,-0.29316 0.56242,-0.004 0.46214,-0.35712 0.0261,-0.26114 0.0342,-0.50426 -0.30002,-0.405 0.41878,0 0.15914,0 0.039,0 0.25617,0.0721 0.45188,-0.14819 0.56102,-0.33901 -0.16887,-0.2938 0.36571,-0.39377 0.30001,-0.105 -0.0421,0.28392 0.46925,0.16158 0.3,-0.129 0.30605,0.071 0.26705,-0.20297 0.37801,-0.327 0.39033,0.15132 0.0531,-0.42493 0.417,-0.30002 0.26115,-0.0261 0.50429,-0.0343 0.40503,0.30002 -0.1616,0.4006 0.28423,0.19376 0.3,0.417 0.0254,0.43115 -0.11413,-0.32734 0.234,-0.117 0.0648,-0.17024 0.10525,-0.36479 0.36601,-0.339 -0.12853,-0.39117 0.26619,-0.15354 0.41032,-0.37133 0.0805,-0.30694 0.54739,-0.0449 0.4897,-0.34569 -0.0421,-0.2811 0.46927,-0.009 0.30002,-0.417 0.12598,-0.18943 0.31218,-0.39943 0.573,-0.32701 0.063,-0.24771 0.009,-0.36625 0.027,0 -0.021,-0.30876 -0.026,-0.32621 0.3,-0.3 z"
         id="path3776" />
      <path
         style="fill:#c8ffc8;stroke:#000000;stroke-width:0.90000004000000000;stroke-linecap:round;stroke-linejoin:round;stroke-miterlimit:9.99670124000000020;stroke-opacity:1;stroke-dasharray:none;fill-opacity:1"
         d="m 368.29683,790.5715 c 0.55939,0.1965 0.22874,0.0201 1.03611,0.3 -0.0304,0.20107 0.67155,0.30775 0.49174,0.3 0.62075,-0.10475 0.7981,0.53035 1.60831,0.60002 0.786,0.41911 0.563,-0.0125 1.58048,0 0.4382,-0.78277 0.44305,0.3791 0.0835,0.60001 -0.30852,0.15039 -1.77808,0.41295 -0.90003,0.6 -0.0607,0.70609 0.31671,0.97404 1.03611,0.90001 0.74575,-0.25477 -0.33621,-0.58791 0.73612,-0.60001 0.32932,0.22656 1.08593,0.0771 0.0556,0.30001 -0.0675,0.54946 0.79117,0.40713 0.5722,1.20001 0.40193,-0.21958 -0.2124,0.78279 -0.4361,0.90002 -0.50643,0.10825 0.89806,0.90292 0.7361,0.32782 0.32956,-0.0193 0.97032,0.64371 0.70756,1.06465 -0.45455,0.1341 -1.1541,0.83678 -0.13536,0.70755 0.35641,0.45071 0.75358,0.29791 0.13536,1.09248 -0.25421,0.67328 0.94702,0.30483 0.19246,1.00755 0.11613,0.57462 0.11925,1.26223 0.8722,1.20002 0.0776,0.74294 0.90528,-0.36082 1.50004,0 0.31954,0.28974 1.10464,0.11388 0.92784,0.90001 0.14553,0.61037 -0.70183,0.95073 -0.16392,1.50002 0.39059,0.25478 0.70285,0.58791 1.33613,0.60001 0.22157,0.60609 -0.58141,0.90836 -0.84438,1.20001 0.34068,0.14121 0.7565,0.4418 1.1722,0.60001 0.46303,0.1145 0.76047,0.57412 0.90003,1.20002 -0.29768,0.3477 -0.36433,0.92642 -0.30001,1.6361 0.49213,0.15323 0.74366,0.5471 1.17221,0.76392 -0.36675,0.52456 0.17416,0.23566 0.32782,0.90001 0.58345,0.51204 -0.29771,0.66458 0.30002,1.0361 0.17757,0.82297 -0.51955,0.77122 -0.30002,1.63613 0.51728,0.092 1.00538,0.2132 1.20004,0.62782 0.53325,0.046 0.5632,-1.10116 1.20003,-0.30001 0.23151,0.41386 0.3602,0.93055 0.7361,1.20003 0.20696,-0.43843 0.82726,-0.46349 1.06393,-0.8722 0.0601,0.66215 0.5109,-0.37449 1.20004,-0.0277 0.57036,0.72697 -0.10275,-0.14658 -0.30001,0.6 -0.8506,0.10762 0.22907,1.16626 -0.3,1.0361 0.61599,-0.15217 -0.056,0.40531 0.57219,0.76392 0.18001,0.3726 0.28048,0.53193 0.32782,0.30001 0.37174,0.72373 0.4,-0.0331 0.90003,0.43609 -0.30142,0.008 1.31922,-0.54637 0.90002,0.4361 0.14465,0.63366 0.47343,0.67023 0.90001,0.32783 0.23153,0.41385 0.3602,0.93056 0.73612,1.20001 0.52048,-0.34983 1.15338,-0.17409 0.49173,0.3 0.33727,0.14467 0.72488,0.47342 0.8722,0.90001 0.93545,0.13334 -0.73081,0.62616 -0.16391,0.90001 0.44238,0.29187 0.5769,0.77849 0.73611,0.60002 0.20493,0.40436 0.45194,0.76662 0.62784,1.20001 -0.14554,-0.65654 0.70183,0.65516 0.16391,0.90001 -0.28205,-0.29862 -0.64863,-0.97315 -0.76392,-1.50002 -0.71153,0.2467 -1.29489,-0.35768 -1.50004,-0.16392 -0.32397,0.33112 -1.01935,0.55245 -1.20004,0.90002 -0.0908,0.55458 -0.47072,0.82002 -0.3,1.63612 -0.0284,0.58095 -0.20308,1.01546 -0.60001,1.22783 -0.44937,0.31793 -1.0993,1.26786 -1.20004,0.62782 -0.72371,-0.0266 -0.76076,-0.7695 -1.47221,-0.62782 -0.69765,-0.0884 -0.37982,0.83875 -0.92784,0.90001 -0.21053,0.47224 -0.734,0.48181 -1.29626,0.69624 -0.43464,0.59116 -0.86486,0.70168 -0.80379,1.40378 -0.35838,0.59985 -0.16423,0.77297 -0.60001,0.7361 -0.31459,0.41964 -1.26317,0.0923 -1.47222,-0.13608 -0.68628,0.0316 -0.15913,-1.15018 -0.32783,-1.63612 -0.17021,-0.90443 0.36128,-0.9941 0,-1.33611 -0.37427,-0.235 -0.0765,-1.14209 -0.60001,-1.22782 0.21171,-0.85709 -0.69771,-0.59304 -0.60001,-1.33612 -0.0228,-1.06662 -0.48469,0.16838 -0.8722,0.13609 -0.15242,0.43573 -0.56983,0.7444 -1.20004,0.90001 0.0209,-0.63012 -0.0476,-1.17097 -0.32783,-1.50001 0.0255,-0.71805 -0.50245,-0.90849 -0.60001,-1.80002 -0.67371,-0.42175 0.47861,-0.84549 -0.43609,-0.90002 -0.0739,-0.27841 -1.37912,-0.54165 -1.06395,-0.32782 0.0563,-0.0866 -0.24051,-0.14905 -0.90001,-0.27219 0.16433,-0.8097 -0.26186,-1.02889 -0.60002,-1.3361 -0.13315,-0.57422 0.55186,-1.43354 0,-0.79174 -0.40438,0.2049 -0.76664,0.45194 -1.20003,0.62783 0.0231,0.66846 -0.80296,0.48779 -1.20002,0.73609 -0.48478,0.58987 -0.90192,-0.26907 -1.47222,-0.13609 -0.0599,-0.54945 -0.81145,-0.40711 -0.62783,-1.20001 -0.33035,-0.45108 -0.47838,-0.86547 0.3,-1.20002 0.81033,-0.11537 -0.3817,-0.91443 -0.3,-1.20001 -0.60159,-0.0811 0.004,-1.21925 -0.99625,-0.99625 -0.66659,-0.23032 -0.54313,-0.79622 -1.23989,-0.80377 -0.39665,0.0444 -1.95309,0.0322 -1.09176,-0.30002 -0.15763,-0.66943 0.39911,-1.11145 0.32782,-1.7722 -0.004,-0.85352 0.80131,0.64467 0.60001,-0.62782 0.34648,-0.99185 -0.97872,-0.31201 -1.0361,-0.90001 -0.29873,-0.5732 -0.53585,0.51377 -1.06395,0.43608 -0.48477,0.58987 -0.90191,-0.26906 -1.47221,-0.13608 0.54575,0.98113 -0.50565,-0.54318 -0.62784,0.27218 -0.14466,0.46463 -0.47343,0.74514 -0.90002,0.92784 -0.006,0.6389 -0.82213,0.46861 -1.0361,0.9 -0.7766,-0.13121 -0.3328,0.95796 -1.03613,0.90001 -0.0571,-0.6027 -0.75483,-0.61505 -0.92783,-0.0277 -0.40095,0.20833 -0.735,0.48358 -0.90003,0.92783 -0.17625,-0.79778 -0.88112,0.11412 -1.03611,0.30001 -0.56993,-0.0367 -0.90526,0.52649 -1.20003,0.90001 -0.79016,0.21035 0.30392,0.5556 -0.43611,0.90002 -0.14434,0.63397 -0.77399,0.36966 -0.32782,0.9 -0.72373,0.2345 0.0331,0.97031 -0.43609,0.90001 -0.25139,0.394 -0.85958,0.43117 -0.76394,1.1722 -0.40824,-0.25041 0.0346,0.4445 -0.60001,0.62782 -0.4234,0.71708 -1.13396,0.69892 -1.47221,0.30002 -0.56734,-0.74825 -0.71288,-0.42143 -1.06394,0 -0.24043,0.5149 -0.7331,-0.31654 -0.76393,-0.7361 -0.19293,-0.45245 -0.12337,-1.16733 -0.87221,-1.06393 -0.68156,-0.0885 -0.6472,-0.55999 -0.32782,-1.1722 -0.12025,-0.72947 0.53096,-0.6876 0.30001,-1.52784 -0.51204,-0.13333 -0.66458,-0.62617 -1.03611,-0.90001 -0.20698,0.14525 -0.82727,1.09351 -1.06394,0.32783 0.46097,0.141 -0.30684,-0.57853 -0.60001,-0.62783 -0.006,-0.63891 -0.82214,-0.46861 -1.03612,-0.90001 -0.52523,0.536 -0.27557,-0.15435 -0.9564,0.49246 -0.92638,0.29058 -0.41443,0.22491 -1.27975,0.1075 0.0246,0.57731 -0.84887,-0.0365 -0.92783,-0.3 -0.62384,-0.14667 -1.08648,-0.43362 -1.20004,-0.90001 -0.1467,-0.49868 -0.86193,-0.42883 -1.20003,-0.7361 0.14658,-0.4988 -0.315,-1.60575 0.27219,-1.66393 0.092,-0.51725 0.2132,-1.00537 0.62784,-1.20002 -0.0838,-0.72919 1.00305,-0.2877 0.90001,-1.0361 0.0931,-0.77973 0.77566,-0.6854 1.03611,-1.06393 0.79298,0.12834 0.43219,0.1582 1.20003,0.3 0.55461,0.0907 0.82001,0.47075 1.63614,0.30002 0.49413,-0.52457 -0.1539,-0.23569 -0.27219,-0.90002 0.22362,-0.42175 0.44526,-0.84548 1.03611,-0.90001 0.59135,-0.20526 0.70681,0.11613 0.6677,-0.69624 -0.55899,-0.89715 0.50916,-0.27722 0.83234,-0.20377 0.38487,0.48802 1.33944,0.12162 1.66395,0.43609 0.1235,0.52182 1.54587,-0.25512 1.50004,0.43611 0.4816,-0.16936 1.49886,0.37545 1.20003,0.0277 0.91887,-0.064 1.94387,0.12817 2.7963,-0.0962 0.63817,-0.31885 0.88257,-0.2901 1.4038,-0.80378 0.4777,-0.20507 0.80265,-0.41317 1.29627,-0.69625 0.61755,-0.27935 1.06286,-0.27647 1.53988,-0.50376 0.75467,0 1.50932,0 2.26397,0 -0.13333,-0.51204 -0.62618,-0.66457 -0.90002,-1.0361 -0.24741,-0.39797 -0.7462,-0.54456 -0.90002,-1.03611 -0.53469,-0.4906 -0.78328,-0.48799 -1.09249,-1.12029 -0.77354,-0.10612 -0.31964,-1.04324 -0.1075,-1.27975 -0.12012,-0.72945 0.53094,-0.68761 0.3,-1.52784 -0.074,-0.71942 0.081,-1.20977 0.7361,-1.20001 0.5546,-0.0908 0.82004,-0.47072 1.63614,-0.3 0.46462,-0.60386 0.74514,0.32046 0.92784,-0.3 0.45938,-0.005 1.33172,-0.32085 1.06395,-0.60001 -0.24209,-0.49214 -0.61173,-0.74365 -0.16393,-1.1722 -0.0845,-0.6938 0.0375,-1.18111 0.30001,-1.52784 0.57274,-0.0726 0.4645,-0.82624 1.33612,-0.6 -0.29539,-0.0907 0.36671,-0.47075 0.43611,-0.30001 0.46461,-0.14466 0.74514,-0.47343 0.92784,-0.90001 0.48247,-0.16289 0.6454,-0.64534 1.20002,-0.73609 -0.0728,-0.40811 0.19681,0.107 0.30001,0.13609 z"
         id="path6582" />
      <path
         style="fill:#c8ffc8;stroke:#000000;stroke-width:0.90000004000000000;stroke-linecap:round;stroke-linejoin:round;stroke-miterlimit:9.99670124000000020;stroke-opacity:1;stroke-dasharray:none;fill-opacity:1"
         d="m 344.92864,787.4051 c -0.0551,0.23822 0.0611,0.40545 0.24476,0.54476 0.1245,0.15523 0.0215,0.40471 0.0553,0.59755 0.0298,0.20604 0.38408,0.27761 0.3,0.53079 0.0219,0.18965 -0.10062,0.52369 0.20769,0.42692 0.3296,-0.0235 0.58257,-0.37162 0.93464,-0.3 0.51925,0 1.03848,0 1.55773,0 0.024,-0.38318 -0.0471,-0.22381 0.0346,0 0.30337,0.17628 0.28458,-0.31213 0.2654,-0.23077 -0.0991,0.31062 0.19937,0.22371 0.40384,0.23077 0.35501,-0.14346 0.0426,0.38049 0.33463,0.3 0.32481,-0.11325 -0.004,0.42627 0.33463,0.30002 0.24955,0.0817 0.0751,-0.54924 0.12693,-0.0924 0,0.21875 0,-0.48204 0,0 -0.002,0.1828 -0.0669,-0.40412 0.2423,-0.20769 0.24102,-0.0295 0.44384,-0.0208 0.35771,0.27691 0.25748,0.0539 0.35886,0.008 0,0.0231 0.3832,0.024 0.22383,-0.0471 0,0.0346 -0.0919,0.30336 0.13854,0.28455 0.36924,0.26539 0.27694,0 0.55386,0 0.8308,0 -0.0979,0.30936 0.12312,0.29989 0.3,0.33461 0,0.58848 0,1.17694 0,1.76541 -0.18755,0.024 -0.47019,-0.0471 -0.60001,0.0346 0,0.48848 0,0.97694 0,1.46542 0.30001,0 0.60001,0 0.90002,0 0.024,0.18755 -0.0471,0.47018 0.0346,0.6 0.30336,-0.0919 0.28455,0.13853 0.26539,0.36923 0.15017,0.36172 -0.3127,0.11038 -0.3,0.33462 0.14346,0.25503 -0.38051,0.29171 -0.30001,0.0578 0.0851,-0.2569 -0.34129,-0.20195 -0.42239,-0.0391 -0.28845,0.14895 -0.0699,0.2979 0.0916,0.44686 -0.0304,0.073 -0.3916,0.009 -0.54615,0.0308 -0.002,-0.20568 -0.032,-0.38338 -0.3231,-0.30001 -0.024,-0.18755 0.0471,-0.47019 -0.0346,-0.6 -0.3456,0.13405 -0.19776,-0.22534 -0.33463,-0.30002 -0.36171,-0.15017 -0.11037,0.31272 -0.33461,0.30002 -0.16156,-0.05 -0.54765,0.1245 -0.49617,-0.13845 0.0735,-0.28504 -0.3061,-0.117 -0.47309,-0.16157 -0.27145,-0.0599 0.0255,0.44863 -0.33463,0.30002 -0.23077,0 -0.46155,0 -0.69232,0 0.0979,0.30936 -0.12325,0.29988 -0.30001,0.33461 -0.17628,0.30336 0.31215,0.28455 0.23078,0.26539 -0.16046,-0.0511 -0.53642,0.11337 -0.53078,-0.10388 -0.05,-0.44847 0.1245,0.21335 -0.13845,0.10388 -0.32482,0.11325 0.004,-0.42625 -0.33464,-0.3 -0.27145,0.0599 0.0255,-0.44862 -0.33463,-0.3 -0.19673,-0.014 0.005,-0.39975 -0.26365,-0.47134 -0.25832,-0.0718 0.0181,-0.49249 -0.26712,-0.42868 -0.28503,-0.15303 -0.117,0.54642 -0.16155,0.12693 -0.0219,-0.30945 0.10062,0.37354 -0.20769,0.17307 -0.16695,0.0232 -0.3878,0.22555 -0.39232,0.40384 0.14346,0.35501 -0.3805,0.0426 -0.30002,0.33463 0.0851,0.31315 -0.3413,0.032 -0.42238,0.28392 -0.0759,0.2564 -0.42313,0.0994 -0.47764,0.24685 0.15017,0.36171 -0.3127,0.11038 -0.3,0.33463 0.14346,0.35501 -0.38051,0.0426 -0.30001,0.33461 -0.0397,0.39827 0.12012,-0.30928 -0.17308,-0.13845 -0.24955,0.038 -0.0751,-0.348 -0.12692,-0.50769 -0.0134,-0.19815 -0.38014,-0.043 -0.54232,-0.0924 -0.10212,0.10938 -3.2e-4,0.42276 -0.33462,0.30001 -0.002,0.20568 -0.032,0.38337 -0.3231,0.3 -0.024,-0.18755 0.0471,-0.47018 -0.0346,-0.60001 -0.30336,0.0919 -0.28455,-0.13852 -0.26539,-0.36922 0.114,-0.27452 -0.23257,-0.30385 -0.37344,-0.15735 -0.13043,0.1844 -0.29963,0.2752 -0.52658,0.22657 -0.30937,-0.0979 -0.29992,0.12313 -0.33463,0.3 -0.16931,0.0422 -0.5099,-0.0869 -0.5654,0.0693 0.0991,0.31064 -0.19936,0.22373 -0.40384,0.23079 -0.32738,0.0987 -0.1115,-0.26909 -0.2581,-0.42385 -0.11925,-0.2493 -0.29665,-0.48489 -0.23807,-0.77618 0.3385,0.0631 0.60596,-0.17477 0.90001,-0.3 0.0979,-0.26137 -0.12325,-0.39411 -0.3,-0.26538 -0.0299,0.40755 0.0614,0.12062 -0.049,-0.0835 -0.17086,-0.13989 -0.31322,-0.29158 -0.25106,-0.52798 0.20566,-0.002 0.38339,-0.032 0.30001,-0.32309 -0.0979,-0.30936 0.12313,-0.29988 0.3,-0.33461 0.0917,-0.30336 -0.13851,-0.28457 -0.36922,-0.2654 -0.12438,-0.0361 -0.61657,0.0801 -0.45737,-0.0734 0.13044,-0.1844 0.29964,-0.2752 0.52659,-0.22657 0.18755,-0.024 0.47019,0.0471 0.60001,-0.0346 -0.0919,-0.30337 0.13853,-0.28455 0.36923,-0.26539 0.46081,-0.0511 -0.089,0.11337 -0.0693,-0.10388 -0.0935,-0.30502 0.25594,-0.16716 0.43846,-0.19617 0.32481,0.11325 -0.004,-0.42625 0.33464,-0.3 0.27142,0.0599 -0.0255,-0.44861 0.33461,-0.3 0.19619,-0.0154 -0.024,-0.44706 0.33463,-0.30001 0.61925,0 1.2385,0 1.85775,0 0.0979,-0.30937 -0.12325,-0.29989 -0.30002,-0.33462 0.13405,-0.34558 -0.22533,-0.19773 -0.3,-0.33461 -0.0311,-0.23329 0.097,-0.53249 -0.14686,-0.67764 -0.26739,-0.36778 -0.0309,0.18059 -0.25699,0.14685 -0.30502,0.0935 -0.16716,-0.25592 -0.19617,-0.43845 -0.11325,-0.32481 0.42626,0.004 0.30001,-0.33463 0,-0.2423 0,-0.48462 0,-0.72693 0.30001,0 0.60001,0 0.90003,0 -0.0739,-0.28537 0.0761,-0.34701 0.33461,-0.30001 0.28847,0 0.57694,0 0.86541,0 z"
         id="path3768" />
      <path
         style="fill:#c8ffc8;stroke:#000000;stroke-width:0.90000004000000000;stroke-linecap:round;stroke-linejoin:round;stroke-miterlimit:9.99670124000000020;stroke-opacity:1;stroke-dasharray:none;fill-opacity:1"
         d="m 352.12881,782.9365 c 0.4182,0 0.15959,0 0.0389,0 0.35057,0.22557 0.25328,-0.50564 0.26107,-0.14428 -0.001,0.2401 -0.0768,0.55458 0.27252,0.44428 0.36818,-0.13306 0.27748,0.19277 0.40536,0.30001 0.34458,0.10563 0.18945,-0.28841 0.22214,-0.49467 0.0113,-0.22438 0.42024,-0.05 0.60001,-0.10538 0,0.4182 0,0.15959 0,0.0389 0.057,0.18196 -0.14052,0.6184 0.15573,0.56107 0.32412,0 -0.46011,0 0.11675,0 -0.1823,0 -0.35805,0 0.0275,0 -0.34234,-0.21904 -0.32161,0.41106 -0.30001,0.1832 -0.0255,-0.43134 0.11425,0.32653 -0.23359,0.11675 -0.0339,-0.0844 0.44465,0.0796 0.19465,0.3 -0.47889,0.0403 0.0125,-0.0994 0.14905,0.11013 0.30675,0.0806 0.0455,0.54703 0.34562,0.4899 0.2481,0 0.4962,0 0.7443,0 -0.4182,0 -0.1596,0 -0.039,0 -0.35056,-0.11163 -0.2533,0.22456 -0.26107,0.45572 -0.0426,0.28151 0.469,0.009 0.30001,0.4168 0.30454,-0.0694 0.26796,0.20228 0.37786,0.32749 0.37685,-0.119 0.0934,0.32822 0.35979,0.43765 0.0925,0.2932 0.56221,0.004 0.46238,0.35702 0.0367,0.19832 0.45457,0.0156 0.3,0.40534 0.34235,-0.10337 0.32161,0.15628 0.30001,0.41681 0.109,0.29687 -0.45933,0.24704 -0.30001,-0.0504 -0.0849,-0.15021 -0.4449,-0.0254 -0.63895,-0.0664 -0.40754,0.1686 -0.11275,-0.36511 -0.41679,-0.30001 -0.2827,-0.0438 -0.0856,0.39228 -0.14429,0.57254 -0.30456,-0.0695 -0.26795,0.20227 -0.37786,0.32747 -0.47406,0 -0.94811,0 -1.42218,0 0.16123,0.40017 -0.28367,0.19419 -0.30001,0.4168 0.109,0.3479 -0.45931,0.0186 -0.3,0.4168 0.1487,0.15012 0.43453,0.0252 0,0.0664 -0.0577,0.18113 0.1274,0.60528 -0.11675,0.60002 -0.3479,0.109 -0.0185,-0.45933 -0.4168,-0.30002 -0.12375,0.0584 -0.0777,0.49729 -0.0275,0.60002 0.51918,0.057 -0.11175,-0.14054 -0.0389,0.15572 0.0437,0.28269 -0.39227,0.0856 -0.57252,0.14428 -0.11075,0.39042 0.0875,0.17212 -0.10538,0 -0.39021,0.15127 -0.0535,-0.42438 -0.4168,-0.3 -0.33512,0 -0.67025,0 -1.00537,0 -0.21904,-0.34235 0.41107,-0.32159 0.18321,-0.3 -0.45688,0 0.44077,0 -0.11675,0 -0.0924,-0.1428 -0.0526,-0.41763 -0.40536,-0.30002 -0.35058,-0.22557 -0.2533,0.50564 -0.26108,0.14429 0,-0.32412 0,0.46011 0,-0.11675 0.13305,0.14654 -0.19277,0.45235 -0.3,0.19466 0.15128,-0.39022 -0.42437,-0.0535 -0.30001,-0.41681 -0.0113,-0.22437 -0.42024,-0.05 -0.60001,-0.10537 -0.0579,-0.50357 0.1274,-0.0379 -0.11675,0 -0.32239,0.13447 -0.13282,-0.57357 -0.18322,-0.0664 -0.0849,0.15021 -0.4449,0.0254 -0.63895,0.0664 -0.39726,0.0113 -0.80548,-0.0232 -1.19591,0.0174 -0.28172,0.12237 -0.53934,0.34706 -0.8652,0.28258 -0.0354,-0.26318 0.1095,-0.6011 -0.16517,-0.76517 -0.32035,-0.19575 0.0521,-0.67846 -0.27248,-0.87248 -0.2932,-0.0925 -0.004,-0.56221 -0.35702,-0.46237 -0.33512,0 -0.67024,0 -1.00537,0 0.10338,0.34235 -0.15627,0.32161 -0.41681,0.30001 -0.46107,0 -0.92216,0 -1.38324,0 0.0474,0.44346 -0.0743,0.17083 -0.19151,-0.083 -0.20984,-0.14117 0.0367,-0.57921 -0.26421,-0.51697 -0.2827,0.0438 -0.0856,-0.39227 -0.14429,-0.57253 0.0631,-0.26509 -0.0745,-0.44699 -0.27529,-0.60277 -0.10425,-0.16672 0.0884,-0.56869 -0.10262,-0.62473 -0.49586,-0.0456 0.2349,0.13596 0.0779,-0.19466 0.0367,-0.1983 0.45457,-0.0156 0.3,-0.40535 0.0354,-0.26319 -0.1095,-0.6011 0.16517,-0.76518 0.17372,-0.24826 0.51559,-0.0905 0.77379,-0.13482 0.39085,-0.20889 0.15391,0.46447 0.37118,0.18989 0.24906,-0.4752 0.18717,0.31442 0.1899,-0.0456 -0.0426,-0.28385 0.469,-0.16231 0.30001,0.12825 0,-0.18235 0,-0.35802 0,0.0275 -0.16123,-0.40015 0.28367,-0.19419 0.3,-0.4168 0.0255,-0.43135 -0.11425,0.32651 0.23359,0.11675 0.29305,0.0579 0.44296,-0.0272 0.36642,-0.33895 -0.11162,-0.35056 0.22459,-0.25327 0.45574,-0.26106 0.23927,8.2e-4 0.50034,0.0543 0.63699,-0.1927 0.16418,-0.20861 0.4744,-0.0646 0.70732,-0.10725 0.12784,0.29725 0.36719,0.56816 0.3,0.91145 0,0.29619 0,0.59237 0,0.88856 0.1645,-0.18571 0.32845,-0.37276 0.60001,-0.3 0,0.4182 0,0.15959 0,0.039 -0.11162,0.35056 0.22459,0.25328 0.45574,0.26106 0.5481,0 1.09621,0 1.64431,0 0,-0.3 0,-0.6 0,-0.9 0.41569,-0.29191 0.81027,-0.64715 1.23898,-0.90001 0.39085,0.12833 0.1539,-0.26575 0.37117,-0.41012 0.18004,-0.34867 0.32982,0.009 0.52885,0.11012 0.40754,-0.1686 0.11275,0.36511 0.41679,0.30001 0.2401,-10e-4 0.55459,-0.0768 0.44429,0.27253 0.0375,0.0646 0.21431,0.009 0.30001,0.0275 z"
         id="path3772" />
      <path
         style="fill:#c8ffc8;stroke:#000000;stroke-width:0.90000004000000000;stroke-linecap:round;stroke-linejoin:round;stroke-miterlimit:9.99670124000000020;stroke-opacity:1;stroke-dasharray:none;fill-opacity:1"
         d="m 323.62813,779.605 c 0.82281,0.16416 -0.78559,-0.24568 -0.0768,-0.3 0.17102,-0.065 0.031,0.23414 0.0768,0.3 z m 6.00015,-0.6 c -0.78017,0.0929 0.62642,-0.24359 0.3,0.29765 0.54881,-0.17363 0.51062,0.23977 0.82325,0.30235 -0.0539,0 -0.89422,0 -0.0744,0 0.11475,0.26046 0.44152,0.30887 0.7512,0.37441 0.08,0.29521 -0.22559,0.97599 0.30001,0.8256 0.50361,0.67384 -0.004,-0.2192 -0.14883,-0.3 -0.39801,-10e-4 -0.0421,-0.86864 0.0744,-0.60001 -0.60777,-0.08 0.7206,0.22559 0.37442,-0.3 0.44708,0.3197 0.61188,0.5149 0.30001,0.0767 0.10712,-0.0924 0.90787,-0.20724 0.90002,0.0721 0.49805,0.52357 -0.21105,-0.32941 0.3,-0.14882 0.47858,0.31361 -0.14615,0.47395 0.30002,0.15117 0.0454,-0.32373 0.7748,-0.17407 0.90002,0.14883 0.5718,-0.30121 -0.30142,0.5686 0,0.003 -0.10762,0.61474 -0.27487,-0.004 0,0.52089 0.44891,0.18136 -0.0995,0.0235 0.22559,0.0767 -0.58475,0.057 0.0146,0.48041 0.37442,0.3 -0.14402,0.54325 0.59064,0.2078 0.89767,0.30001 0.45603,-0.0809 0.73691,0.0135 0.60237,0.52324 -0.19522,0.71701 0.26794,-0.1681 0.15118,0.0768 -0.48102,0.2098 0.37556,0.4097 -0.0768,0.30001 0.23823,0.13696 0.49556,0.25484 0.5256,0.6 -0.47895,-0.20834 0.0579,0.325 0.29765,0.30001 0.0321,0.3431 0.28932,0.46108 0.5256,0.6 0.022,0.33509 0.47168,0.32158 0.7512,0.60001 0.58843,-0.21323 0.38253,0.36787 0.8256,0.3 -0.75159,-0.12137 0.11725,0.7528 0,0.003 0.52443,0.19113 0.50831,-0.55663 0.74883,-0.60235 0.38595,-0.43033 -0.038,-0.031 0.2256,0.3 0.8017,0 0.0146,0 0.5256,0 -0.0929,0.30635 0.24359,1.04203 -0.29765,0.90002 -0.113,0.62003 -0.27581,-0.003 -0.002,0.52323 -0.16248,0.45913 0.45509,0.59513 0.3,1.05119 -0.21325,0.58845 0.36788,0.38254 0.30002,0.8256 0.34392,0.68853 0.103,0.4328 0.59765,0.30001 0.17911,0 1.20106,0 0.67915,0 -0.26807,0.10713 0.15746,0.90787 -0.2256,0.9 -0.34735,-0.0494 -0.14294,0.96945 0.14882,0.5256 0.0309,-0.53457 0.46824,0.3978 0.30001,0.67207 0.34309,0.0321 0.46109,0.28931 0.60002,0.5256 -0.19499,0.18021 -0.72553,0.0249 -1.04885,0.0767 -0.32454,0.0506 -0.85122,-0.10075 -1.0512,0.0744 -0.13695,0.23825 -0.25485,0.49555 -0.60002,0.5256 0.2369,0.63612 -0.83425,-0.0358 -0.60002,0.59765 0.7721,0.10337 -0.53025,-0.22438 -0.3,0.2256 -0.16926,0.24231 -0.77894,-0.104 -1.00526,0.182 -0.46577,0.35521 0.4638,0.13247 0.70525,0.19476 0.0285,0.42779 -0.50923,0.28921 -0.3,0.89766 -0.66364,-0.0914 -0.0544,0.50766 0,0.75119 -0.2538,0.13606 0.5491,-0.47219 0.23345,0.18445 -0.2462,0.33369 -0.96894,0.0691 -0.83347,0.56674 0.13037,0.26006 0.62342,1.0201 0.002,0.90001 0.14679,0.52199 -0.52816,0.22224 -0.82561,0.3 0.0884,0.4635 -0.61811,0.13229 -0.67677,0.44882 0.0113,0.38595 -0.78847,-0.038 -0.90003,0.2256 0.0763,0.45149 -0.62272,0.12769 -0.90002,0.22559 -0.44384,-0.0676 -0.63062,0.48543 -1.12325,0.3 -0.44492,0.0534 -1.00902,-0.18096 -1.2768,0.30001 -0.72304,0.0929 -0.39204,-0.24358 -0.30002,0.29765 0.002,0.4177 -0.35437,0.30269 -0.45786,0.7602 -0.50051,0.0598 -0.3067,0.52262 -0.81657,0.44217 -0.31823,0.057 -0.26999,0.48042 -0.82562,0.3 -0.48383,0.16416 -0.72991,-0.24568 -1.12326,-0.3 -0.44849,0.0733 -0.42512,-0.32528 -0.67677,-0.44883 -0.20322,-0.25771 -0.19618,-0.842 -0.60003,-0.75119 -0.0643,-0.3349 -0.26564,-0.5328 -0.59765,-0.60001 -0.0321,-0.34307 -0.28931,-0.46109 -0.5256,-0.6 -0.43552,-0.0359 -0.93026,0.0711 -1.32941,-0.0526 -0.45831,-0.62245 -0.44838,0.10875 -0.84505,0.0526 -0.40079,0 -0.80159,0 -1.20239,0 0.0708,0.39048 -0.53102,0.44458 -0.82325,0.6 0.46395,0.0879 -0.30342,-0.18236 -0.37677,0.14883 -0.0399,0.33528 -0.68767,0.0627 -0.97444,0.15118 -1.27523,0 -2.55046,0 -3.82569,0 0.0676,-0.44385 -0.48542,-0.6306 -0.3,-1.12325 0.0537,-0.64372 -0.42207,-0.15718 0,-0.5256 -0.0113,-0.2846 0.78846,-0.16355 0.90001,-0.0768 0.13697,0.66473 0.25485,-0.24018 0.60003,-0.0744 0.2369,-0.63613 -0.83424,0.0358 -0.60003,-0.59766 -0.43933,0.12225 -0.71787,-0.15755 -1.04883,-0.30235 -0.17748,-0.19772 -0.42088,-0.32952 -0.5256,-0.60001 -0.23824,-0.13696 -0.49558,-0.25484 -0.52562,-0.60001 -0.3349,-0.0644 -0.5328,-0.26564 -0.60001,-0.59765 0.17889,-0.55409 -0.23884,-0.51157 -0.3,-0.8256 0.16113,-0.53633 -0.50765,-0.24275 -0.30001,-0.8256 0.12912,-0.52358 0.5646,0.32941 0.90002,0.14882 -0.2369,-0.45037 0.83424,-0.45137 0.60002,-0.003 0.54881,0.18416 0.51062,-0.23789 0.82325,-0.29765 0.53632,0.16113 0.24276,-0.50764 0.82561,-0.3 0.54374,-0.2484 -0.39619,-0.22872 -0.14883,-0.67442 -0.08,-0.29523 0.22558,-0.97599 -0.30001,-0.8256 -0.42777,0.0285 -0.28921,-0.50923 -0.89766,-0.3 -0.27715,-0.098 -0.97574,0.22532 -0.90238,-0.22324 -0.53678,-0.16068 0.19298,0.0719 0,-0.5256 0,-0.4504 0,-0.90079 0,-1.35119 -0.59901,0.15298 -0.124,-0.68219 -0.35262,-0.95262 -0.4106,-0.24657 -0.19383,-0.75298 -0.24739,-1.14742 0.51469,-0.30121 0.71703,0.5686 0.60001,0.002 0.27187,-0.10337 0.97479,0.22438 0.90003,-0.2256 -0.18069,-0.55588 0.41086,-0.33952 0.74884,-0.37676 0.33526,-0.04 0.0628,-0.68765 0.15117,-0.97442 0.21324,-0.58844 -0.36786,-0.38254 -0.3,-0.8256 -0.17122,-0.60892 0.662,-0.0355 0.81048,-0.51048 0.19731,-0.36049 0.0394,-0.8681 0.0895,-1.28955 -0.14403,0.54325 0.59066,0.20779 0.89767,0.3 0.32686,-0.3016 0.60063,-0.35225 0.75119,-0.6 0.34359,0.0537 -0.36268,0.63731 -0.14883,0.97443 -0.13327,0.3945 0.14232,-0.35274 0.60003,-0.0744 0,-0.21347 0,-1.28561 0,-0.60236 0.36762,0.29951 0.22016,0.65534 0.70525,0.7076 0.24467,0.35522 0.72876,0.13247 1.09479,0.19476 -0.14403,0.54325 0.59065,0.20779 0.89766,0.3 0.5008,0 1.0016,0 1.5024,0 0.0929,-0.72302 -0.24359,-0.39201 0.29765,-0.3 -0.066,-0.44114 0.51465,-0.23575 0.30236,-0.82325 0.39314,-0.34119 0.23286,0.51278 0.37441,-0.0768 0.23825,-0.13696 0.49558,-0.25484 0.5256,-0.60001 0.30635,-0.0929 1.04204,0.24359 0.90003,-0.29765 0.44115,0.066 0.23576,-0.51463 0.82325,-0.30235 -4.5e-4,-0.37565 0.43575,-0.31465 0.82561,-0.3 0.2504,0 0.5008,0 0.7512,0 z m 9.30022,-1.80003 c 0.20835,0.42183 -0.32501,0.9606 -0.30001,0.30235 -0.66364,-0.16391 -0.0544,-0.19423 0,-0.15117 -0.44021,-0.38306 -0.25263,-0.0432 0.30001,-0.15118 z"
         id="path3778" />
      <path
         style="fill:#c8ffc8;stroke:#000000;stroke-width:0.90000004000000000;stroke-linecap:round;stroke-linejoin:round;stroke-miterlimit:9.99670124000000020;stroke-opacity:1;stroke-dasharray:none;fill-opacity:1"
         d="m 341.71304,795.84523 c 0.0156,0.91368 -0.59746,-0.59564 -0.60001,0.27802 -0.55508,0.50521 -0.41691,0.27 -0.50734,0.32199 0.56788,0.20566 0.0183,0.69774 -0.3548,0.86212 -0.22751,0.53713 -0.29345,0.24787 0.14746,0.63789 0.0379,-0.3829 0.7828,-0.43825 0.80735,0 0.43722,0.19423 0.10275,0.61563 0.20734,0.48535 -0.0129,0.45621 -0.2532,0.68504 -0.69269,0.71466 -0.72537,0.0751 0.69773,0.60514 -0.20733,0.60002 0.34081,0.8335 -0.63553,0.34983 -0.60002,0.87803 0.65937,0.24525 0.50694,-0.51197 0.9927,0.022 0.33693,-0.48721 0.17449,0.28117 0.50734,-0.18535 0.25499,-0.38886 0.47393,0.67674 0.90001,-0.11462 0.69538,-0.2027 0.49362,0.49176 1.17805,0.3 0.50735,0 1.01469,0 1.52203,0 -0.0156,0.91367 -0.13828,0.14009 0.57802,0.3 0.61649,0 0.8968,0 0.80735,0 0.55088,0.044 1.17462,-0.0877 1.68023,0.0655 0.38215,0.4591 1.08675,0.13979 1.61985,0.23447 0.302,0.11888 0.0579,1.16323 -0.0926,0.90002 0.55971,0.24072 -0.1823,0.0897 0.50734,0.3 0.0958,0.58848 -0.8072,0.17815 -1.17804,0.3 -0.27085,0.63967 0.44001,0.48182 0.27802,1.08536 -0.20153,0.67065 0.60045,0.33779 0.99269,0.41466 0.34979,-0.0509 -0.46332,0.71262 0.20734,0.69268 -0.16566,0.63479 0.51542,0.42282 0.30001,1.10735 -0.69539,0.2027 -0.4936,-0.49178 -1.17805,-0.30001 -0.56357,0.20261 -0.80035,-0.38374 -1.31469,-0.3 -0.11187,-0.12834 -0.82345,-0.67205 -0.80735,0 0.7131,0.30671 -0.11437,1.1244 0,0.69268 0.0906,0.55969 -1.12055,-0.18231 -0.90002,0.50733 -0.3858,0.10687 -0.66993,0.31544 -0.60001,0.87804 0.40553,0.21095 0.63012,0.26665 0.30001,0.50732 -0.14296,0.20104 -1.02183,0.16546 -1.20003,0.022 0.0906,-0.55971 -1.12055,0.1823 -0.90002,-0.50734 -0.20895,0.63484 -0.63186,-0.49738 -0.90003,0.18535 -0.40976,0.10388 -0.62765,0.22094 -0.90002,0.71467 0.34081,0.83348 -0.63553,0.34985 -0.60001,0.87803 -0.33185,0.13728 -0.65085,0.28739 -0.60002,0.80734 -0.43122,0.0379 -0.15542,0.78281 -0.60001,0.80734 -0.3572,0.77862 -0.11475,-0.6308 -0.60001,-0.39269 0.0156,-0.50831 -0.59748,-0.38789 -0.60001,-0.87802 -0.25815,7.2e-4 -0.67158,-0.71137 -0.90003,-0.13664 -0.13766,0.52201 -0.55046,0.61347 -0.60001,1.01466 -0.50833,-0.0156 -0.3879,0.59746 -0.87804,0.60001 -0.1373,0.33183 -0.28739,0.65087 -0.80735,0.60002 -0.48036,0.13636 -0.54364,-0.64365 -1.01467,-0.20734 -0.075,0.39405 -0.60514,0.3331 -0.60002,0.80734 -0.50832,-0.0156 -0.38792,0.59745 -0.87805,0.60001 0.12225,0.51086 -0.75983,0.66122 -0.62198,1.20001 -0.50833,-0.0156 -0.38793,0.59745 -0.87805,0.60001 -0.13184,0.35783 -0.35487,0.52365 -0.68753,0.96554 -0.3542,0.40681 -0.35066,0.74481 -0.8125,0.83449 -0.0314,0.43769 -0.50975,0.42849 -0.622,0.78535 -0.2369,0.50579 -0.82789,0.8649 -1.20002,1.31467 0.0156,0.50832 -0.59748,0.3879 -0.60003,0.87803 -0.40106,-0.0137 -0.49236,0.63894 -0.66555,0.98754 -0.36415,0.42955 -0.79715,0.59638 -1.01982,0.83447 -0.0387,-0.35882 -0.74664,-0.47995 -1.01469,0 -0.63926,-0.25194 -0.83341,0.42985 -1.08536,0.6 -0.35237,0.30733 -0.8146,0.34935 -1.31469,0.3 -0.69539,-0.2027 -0.4936,0.49179 -1.17805,0.30001 -0.81173,0.0455 0.17709,-0.59368 -0.022,-0.99268 0.41049,-0.39404 0.18171,-0.3331 0,-0.80734 -0.0498,-0.49314 -0.39017,-0.86588 -0.60002,-1.29269 -0.19152,-0.27759 -0.63019,-0.30805 -0.90001,-0.50734 0.0156,-0.50831 -0.59748,-0.38791 -0.60003,-0.87803 -0.62622,0.01 -0.18188,-0.71488 0,-0.80734 -0.21676,-0.25235 -0.5027,-0.43553 -0.90001,-0.50733 -0.35721,-0.11187 -0.11475,-0.82346 -0.60002,-0.80733 -0.22304,0.46965 0.50827,-0.16937 0,-0.0926 0.35721,-0.11188 0.11475,-0.82347 0.60002,-0.80734 -0.13811,-0.6308 0.14376,-0.8416 0.3,-1.17804 0.0188,-0.48782 -0.50152,-0.43671 -0.60001,-0.80734 0.24226,-0.32613 0.2664,0.0836 0,-0.20732 0.19154,-0.27759 0.63019,-0.30805 0.90002,-0.50734 -0.0801,-0.57286 0.20975,-0.77561 0.57803,-0.90001 0.21097,0.84692 0.26667,-0.26629 0.50735,-0.3 -5.1e-4,-0.46962 0.76592,-0.17231 1.01467,-0.39267 -0.1895,-0.27963 -0.3265,-0.61174 -0.90002,-0.50734 0.0156,0.66866 -0.59746,-0.0316 -0.60001,-0.27802 -0.0389,-0.42599 -0.43255,-0.49587 -0.60002,-1.01467 -0.26062,-0.50368 -0.21865,-0.63821 0.27803,-0.80733 0.68982,0.2207 0.49002,-0.44823 1.10735,-0.30002 0.23945,-0.0562 0.18235,-1.28773 -0.18535,-0.80732 0.11437,0.53584 -0.27864,-1.02423 0.30001,-0.69269 0.0423,-0.45037 0.66345,-0.32191 0.87804,-0.60001 0.48474,-0.26158 0.66174,-0.45086 0.71467,-0.90001 0.27257,0.15101 -0.4074,-0.31903 0.20733,-0.39268 0.12836,-0.44733 0.67206,-0.40001 0,-0.20732 0.20266,-0.45039 0.24396,-0.32192 -0.27803,-0.60002 -0.37666,-0.53384 0.66235,-0.70416 0.0926,-0.90001 -1.33825,0 -2.6765,0 -4.01475,0 0.0156,0.66866 -0.59748,-0.0316 -0.60001,-0.27803 -0.49269,0.0235 -0.90932,-0.0289 -1.08538,-0.32197 -0.2765,-0.62154 -0.29414,0.0504 -0.80735,0 -0.80247,0.33335 -0.21111,-0.72713 -0.80734,-0.60001 0.61035,-0.18445 0.007,-1.13694 0.48535,-1.20002 0.59687,0.12774 0.85692,-0.0814 0.71468,-0.69268 0.24277,-0.22634 0.39342,-0.54482 0.30001,-1.10734 0.24499,-0.24769 0.17168,-0.81369 0.57803,-0.90001 -0.0834,-0.55253 0.7356,-0.20263 1.10735,-0.3 1.33825,0 2.67651,0 4.01476,0 -0.13263,-0.56009 0.87461,-0.19699 0.39267,-0.30002 0.56112,-0.0499 0.70372,-0.5458 1.08538,-0.6 0.36327,-0.10587 1.16059,0.22235 1.22201,-0.18535 0.26034,-0.37758 0.71119,0.45904 1.20003,0.18535 0.6308,-0.13811 0.84161,0.14377 1.17805,0.3 0.0314,0.4377 0.50975,0.42849 0.62198,0.78537 0.23739,0.13763 0.56324,0.55431 0.60003,1.01466 0.33431,0.20912 0.61426,0.25427 1.09661,0.49659 0.32134,0.16475 1.06654,0.16882 1.30344,0.0113 0.19155,-0.27757 0.63019,-0.30805 0.90002,-0.50733 0.26419,-0.53061 0.64893,-0.49571 0.60002,-1.08536 -0.64383,-0.32376 0.41775,0.15105 0.60001,-0.41466 0.51264,-0.0441 1.09821,0.0879 1.56557,-0.0655 0.32717,-0.44272 0.95889,-0.15014 1.4345,-0.23448 -0.21832,-0.711 1.08924,0.10388 0.90003,-0.57802 0.63966,0.17055 0.48182,-0.45642 1.08536,-0.32199 0.54293,0.0737 0.41914,-0.51911 1.10736,-0.3 0.11188,-0.3572 0.82345,-0.11475 0.80734,-0.60001 0.47715,0.30583 1.05404,-0.66769 1.20004,-0.11463 -0.12701,0.66625 0.51559,0.18769 0.3,1.01466 z"
         id="path3774" />
      <path
         style="fill:#c8ffc8;stroke:#000000;stroke-width:0.90000004000000000;stroke-linecap:round;stroke-linejoin:round;stroke-miterlimit:9.99670124000000020;stroke-opacity:1;stroke-dasharray:none;fill-opacity:1"
         d="m 310.72286,778.53915 c 0.0668,0.68914 0.62341,-0.37383 1.33785,0 0.22075,0.42521 1.06301,0.22891 1.33786,0.60001 0.69344,-0.0853 1.17761,0.0386 1.52439,0.3 0.64114,0.005 0.9695,0.32241 1.33785,0.60001 0.44037,-0.0577 1.86352,0.25344 1.16729,-0.49492 -0.85913,-0.3659 0.62456,0.0935 0.8924,0.29237 0.24776,0.21417 1.73297,0.5107 1.10256,0.50255 -0.34344,0 -2.05593,0 -1.0622,0 0.30172,0.18302 0.36497,1.6412 -0.41349,1.50003 -0.89474,0.17365 0.2253,0.64441 -0.0244,1.20001 0.32291,0.96888 -0.44257,0.84933 -0.90001,1.03784 0.29907,0.64939 -1.32249,0.60574 -0.90003,0.48652 -0.77441,-0.3983 -0.80961,0.84807 -0.30763,1.16805 -0.19563,0.90117 0.50877,0.88403 0.30763,1.7833 0.14483,0.92359 -0.35992,0.77903 0,1.22437 0.58618,0.0598 1.49064,-0.19873 1.63787,0.3 0.99181,-0.34587 -0.002,1.29398 0.73785,1.20001 -0.118,0.37885 -0.63549,0.5629 -1.17569,0.60001 -0.14565,0.95094 -0.86495,-0.49884 -1.20003,0.13783 -0.17755,0.24471 -1.39926,-0.44784 -0.7622,0.46218 0.19543,0.45054 0.57925,0.71267 0.46219,1.47568 0.40475,0.20337 0.7343,0.48195 0.90003,0.92435 0.53365,0.17186 0.56277,0.56176 1.20002,0.90001 0.45819,0.005 1.33605,0.32241 1.06221,0.60001 -0.35061,0.64858 -0.51398,-0.26317 -1.33787,0 -0.4037,0.44229 0.11975,0.27329 -0.0244,1.20002 0.81015,0.97272 -0.32345,0.25512 -0.87568,0.3 -0.64065,-0.38155 -0.98858,-0.15737 -1.66221,0 -0.79329,-0.1372 -0.89519,0.67657 -1.50004,0.60001 -0.52201,0.27741 -1.10701,0.40274 -1.66221,0.6 -1.10002,0 -2.20005,0 -3.30007,0 0.0797,0.72564 -1.32785,-0.036 -1.50004,0.43784 -0.45056,0.1954 -0.71268,0.57923 -1.4757,0.46217 -0.6636,0.0555 -0.97451,-0.24174 -0.92436,-0.90001 -0.70002,0 -1.40004,0 -2.10005,0 -0.14564,0.50031 -0.86495,0.42696 -1.20003,0.73784 -0.40727,0.29992 -0.80585,0.35428 -1.39496,0.65711 -0.68436,0.117 -0.86859,0.71251 -1.44293,0.70509 -0.10175,0.24858 -1.17877,0.74945 -0.48653,0.90001 0.25985,0.75674 -0.56104,0.63734 -0.57568,1.20001 -0.8315,-0.14766 -0.64602,0.56996 -1.29749,0.69746 -0.57633,0.31987 -0.72421,0.61424 -1.10256,0.94038 -0.22506,0.35474 -0.64731,0.75826 -1.20004,1.0622 -0.13266,0.51329 -0.6283,0.66361 -0.90001,1.03784 -0.34215,0.39735 -0.80641,0.54243 -0.30001,1.03785 -0.43438,1.0425 0.96856,0.24768 0.90002,0.92435 0.71185,-0.0659 1.29678,-0.005 1.50004,0.43782 0.0694,-0.54275 0.56621,0.72953 1.17568,0.76219 0.49422,0.75439 -0.11413,0.55671 -0.55133,0.90001 0.0306,0.63879 -0.84882,0.36743 -0.92436,0.90001 -0.16436,-0.7867 -0.64375,0.3535 -0.73784,0.60002 -0.20277,-0.50077 -0.83212,-0.055 -1.0622,0.27566 -0.0625,0.54566 -0.51167,0.70457 -1.20004,0.62434 -0.28795,0.358 -1.12651,0.1654 -1.33785,0.60001 -0.86933,-0.12984 -0.79983,0.54902 -1.33786,0 -0.45937,0.14876 -1.54449,-0.32823 -1.52439,0.3 -0.80332,0.15737 -1.1135,-0.17841 -1.63786,-0.3 -0.59949,0.0465 -0.85052,0.4414 -1.33786,0.60001 0.0732,0.64163 -1.22436,0.36493 -1.22438,0.87566 -0.67141,-0.0632 -0.676,0.54027 -1.50003,0.32435 -0.17187,0.95894 -0.56177,-0.81753 -0.90002,0 -0.60366,0.17162 -1.17565,0.41969 -1.7757,0.60002 -0.81562,0.29906 -0.6108,-0.9265 -1.52438,-0.60002 -0.51329,0.13268 -0.66363,0.62829 -1.03784,0.90002 -0.34643,0.36077 -0.79569,0.36445 -1.25714,0.79493 -0.34827,-0.008 0.18866,-1.29003 -0.3,-1.58986 -0.30956,-0.66726 0.0944,-1.63006 -0.20255,-2.30257 -0.53484,-0.56124 -0.10875,-1.25745 0.39748,-1.24038 0.27767,-0.72152 -0.8672,-1.11799 0.27566,-1.0622 0.0845,-0.52366 1.01327,-0.20297 1.22437,-0.6 0.0145,-0.69039 1.11858,-0.3842 1.49242,-0.89239 0.82648,0.2127 0.80291,-0.40597 1.50765,-0.30763 0,-0.80002 0,-1.60002 0,-2.40003 -0.96839,0.17198 -0.54154,-0.61579 -0.90002,-0.60001 -0.30386,0.40165 -1.0258,0.0987 -1.50003,0.60001 -0.57308,0.0729 -0.46489,0.82703 -1.33785,0.60001 -0.40489,0.24107 -1.1402,0.15172 -1.36222,0.57567 -0.48906,0.11912 -1.49691,-0.28065 -1.20003,0.62435 -0.56825,0.40878 -0.14247,0.62107 -0.73784,0 -0.71961,-0.15492 -0.88154,-0.57867 -0.7622,-1.33784 -0.24859,-0.34668 -0.74947,0.42505 -0.90002,0.71349 -0.17367,0.89472 -0.64443,-0.22532 -1.20004,0.0244 0.34619,0.99215 -0.97918,0.31273 -1.03784,0.90001 -0.55619,-0.15101 -0.94371,-0.21642 -1.25714,-0.79493 -0.29165,-0.71258 -0.66401,-1.11092 -0.84291,-1.60509 -0.74262,0.023 -1.04884,-0.24383 -1.06221,-0.16219 -0.24858,0.34668 -0.74946,-0.42506 -0.90001,-0.71349 0.11887,-0.72706 -0.53134,-0.68491 -0.30002,-1.52436 -0.76317,-0.14084 0.45474,-0.54251 0.73784,-0.60001 0.49814,-0.14783 1.61008,0.31815 1.66223,-0.27566 0.63781,0.0298 1.16866,-0.0476 1.50003,-0.32434 0.0113,-0.63415 1.14458,-0.14733 1.63785,-0.3 0.3794,-0.61981 0.31158,0.0607 0.7622,-0.57568 -0.0814,-0.92736 0.0704,-0.0833 0.60002,-0.62435 0.16918,-0.47677 0.96617,-0.32573 1.33786,-0.6 0.4657,-0.42521 -0.54081,-0.22891 0.13784,-0.60001 0.43446,0.12388 0.57182,-1.30089 0.62435,-0.60001 0.53712,-0.5537 -0.45779,-0.92441 0.30001,-1.20001 0.23232,-0.52358 0.35926,0.10962 0.73784,-0.6 0.32525,-0.67394 0.0302,-0.2206 0.46218,-0.87568 0.9869,-0.0815 0.23877,-0.18035 0.90003,-0.32435 0.53176,-0.22415 -0.19541,-0.445 0.30001,-1.03784 0.22748,-0.41848 0.79183,-0.50008 1.17568,-0.76218 0.3541,0.20423 -0.15909,-0.56998 0.62436,-0.6 -0.0611,0.11062 0.31757,0.24612 1.03785,0.3 0.67474,-0.0287 1.08951,0.2024 1.36221,0.57566 0.14775,-0.51969 0.47301,-0.64808 0.90001,-0.27566 0.67067,0.0247 0.48522,-0.80669 0.73784,-1.20002 0.0261,0.32414 1.3527,0.57554 1.36221,0.0244 0.5535,-0.0546 0.40608,-0.81017 1.20004,-0.62433 0.48159,0.0186 0.64816,-1.01029 1.20003,-0.46219 -0.0546,0.33914 0.78802,-1.0228 0.0244,-1.03784 -0.5793,-0.0289 -0.21192,-1.00434 -0.62435,-1.20001 0.63896,-0.45766 0.46976,0.10362 0.90001,-0.43784 0.0254,-0.6206 0.48376,-0.80815 0.87569,-1.06219 -0.1496,0.46022 1.38016,0.49255 1.22437,0 0.0164,-0.35106 -1.11007,-1.0789 0,-0.90001 0.16436,-0.48159 0.64375,-0.64815 0.73784,-1.20001 0.55285,-0.095 0.85384,-0.35884 1.50004,-0.60001 0.43993,-0.36079 0.85263,-0.36443 0.6571,-0.79493 0.46045,-0.75595 -0.30075,-0.93192 -0.19492,-1.58076 0.86795,0.25982 0.77009,-0.44616 1.20003,-0.62435 0.79852,0.0426 0.79109,0.5415 1.03785,-0.3 0.15629,-0.48968 0.39072,-0.90119 0.46219,-1.47568 0.5402,0.0155 1.39966,0.22242 1.20002,0.25132 0.37884,-0.118 0.5629,-0.63549 0.60001,-1.17568 0.58618,0.0598 1.49067,-0.19874 1.63787,0.30001 1.09402,-0.0755 0.49746,0.63165 0.55965,0.99748 0.15556,0.74064 0.8834,0.45506 1.5404,0.50254 0.17398,0.47197 1.03453,0.2574 1.63787,0.30001 -8.4e-4,0.60896 1.05193,0.16432 1.52438,0.3 -0.0796,0.54266 1.32786,0.3306 1.50003,0.16217 -0.58663,-0.64186 -0.27196,-0.008 0.57568,-0.16217 0.28477,0.89457 0.41161,-0.47598 0.32435,-0.90001 0.2771,-0.47632 0.80737,-0.70105 1.17569,-0.3 0.68951,0.0814 1.14591,-0.0704 1.22437,-0.60002 -0.23232,-0.41362 -0.35925,-0.93265 -0.73784,-1.20001 -0.19842,0.0211 0.67369,-0.7767 1.03784,-0.73784 0.36314,-0.13337 1.13126,-0.75338 1.69316,-0.21562 0.52547,0.26975 0.75299,0.46055 1.60693,0.35345 z"
         id="path6560" />
      <path
         style="fill:#c8ffc8;stroke:#000000;stroke-width:0.90000004000000000;stroke-linecap:round;stroke-linejoin:round;stroke-miterlimit:9.99670124000000020;stroke-opacity:1;stroke-dasharray:none;fill-opacity:1"
         d="m 316.77772,798.07315 c 0.15005,0.79142 -0.16551,1.11725 -0.30001,1.62411 0.31755,0.95893 -1.29659,-0.0139 -0.90002,1.02411 -0.19804,0.62158 -0.21755,0.88403 0.24818,1.25184 0.82505,0.0494 0.67703,-0.49889 1.25185,0 0.0802,0.56118 1.13122,0.15154 1.20003,0.72409 0.17019,0.32409 0.73802,-0.40879 1.44822,-0.12413 1.01729,0 2.03459,0 3.05189,0 -0.36197,0.41554 -0.36482,0.91597 0.12413,1.20002 -0.15932,-0.0253 0.0756,0.47337 0.17592,0.12412 -0.4327,0.26436 -0.54891,0.85214 -0.5482,0.77593 0.22529,0.74127 -0.8468,0.64831 -0.95184,1.1482 -0.55838,0.0589 -0.98458,0.24998 -0.90002,0.95183 -0.1397,0.0294 0.68425,0.19595 0.17592,0.9 -0.43032,0.21107 -1.0986,0.18417 -1.37595,0.5482 -0.53022,-0.0205 0.32883,0.99208 0.42409,1.25183 0.18555,0.1808 0.52125,1.34672 0.77594,0.65182 0.41136,-0.32733 1.31031,0.5394 0.60001,0.5482 -0.7816,-0.14022 -0.80745,0.47529 -1.0241,0.90002 -0.26437,-0.5262 -0.85215,-0.10925 -0.77594,0.54818 -0.0804,0.24284 -1.42271,0.46332 -0.60001,0.65183 -0.3457,-0.15598 -0.3035,0.24567 0.12413,0.6 0.5819,0.428 -0.44444,0.70236 -0.12413,1.44821 -0.20886,0.11438 -0.8945,0.99154 -0.30001,0.95183 -0.77083,0.26912 0.14051,-0.1983 0.12412,0.60001 0.25909,0.38229 0.99803,0.28472 1.07594,0.84819 -0.66069,0.11437 -0.12275,0.99153 0.30001,0.95182 0.21989,0.42149 0.44697,0.83579 1.02412,0.90001 0.30281,0.281 0.64872,0.97624 0.77592,1.50003 0.45948,0.54699 0.0265,0.50951 -0.0877,1.28776 -0.36422,0.72766 -1.2122,0.28745 -1.58777,0.98775 -0.52075,0.28553 -0.77138,0.5397 -1.02454,0.97271 -0.23118,0.71488 -0.69663,0.71712 -1.44821,0.65183 -0.63285,-0.63785 -0.25685,0.53161 -0.95184,0.60001 -0.34801,0.29336 -1.12589,0.15686 -0.90003,1.0241 -0.28597,0.54711 -0.47713,1.13353 -0.86325,1.63915 -0.36637,0.45909 -0.39948,0.78416 -0.0367,1.2368 0.55229,0.117 0.9721,1.08694 0.30002,1.20001 -0.16753,0.34632 -0.95604,0.56402 -1.20004,0.90002 -0.15368,0.48768 -0.84111,0.44163 -1.20003,0.72408 -0.28098,0.30284 -0.97625,0.64873 -1.50003,0.77593 -0.29337,0.34801 -0.15687,1.12587 -1.0241,0.90001 -0.64977,0.0968 -0.74065,-0.75622 -1.57232,-0.6 -0.0715,-0.49414 -1.29653,-0.38781 -1.60368,-0.7241 -0.15682,0.1431 -0.6892,-0.48074 -1.4099,-0.73086 -0.60838,-0.10363 -1.06575,-0.21426 -1.29017,-0.64506 -0.65898,-0.045 -0.86768,-0.25914 -1.50003,-0.60002 0.12375,0.43593 -1.18402,-0.37868 -0.90003,-0.8482 -0.52111,-0.0961 -0.41475,-0.81981 -1.20002,-0.65182 -0.0435,0.44229 -0.92432,1.23156 -0.90003,0.95184 -0.50236,-0.42223 -1.19072,-0.54418 -1.37551,-1.12733 -0.64933,-0.16991 -0.53491,-0.69627 -1.14863,-1.02452 -0.63715,-0.004 -0.79121,-0.49155 -1.07593,-0.8482 -0.63152,-0.24285 0.28518,-0.46332 -0.60003,-0.65182 0.0577,-0.6991 -0.5197,-0.76305 -0.3,-1.62411 -0.20182,-0.65955 -0.79081,-0.25467 -1.45497,0.10163 -0.52559,0.56973 -1.40945,0.0201 -1.8451,0.62253 -0.23565,0.40573 -0.67659,0.60617 -1.32413,0.6 -0.18977,-0.45161 -1.01281,-0.26993 -1.62414,-0.3 -0.73381,0.06 -1.56735,-0.12087 -2.23961,0.0878 -0.52291,0.34447 -1.2174,0.27467 -1.67552,0.7755 -0.46045,0.21329 -1.35499,0.54243 -1.53682,0.88497 -0.41095,0.67378 -0.68623,-0.31772 -1.31775,-0.50895 -0.50786,0.1723 -1.88368,0.6002 -1.5064,0.56077 -0.33443,0.33526 -0.65018,0.87868 -1.19366,0.93925 -0.62324,0.37978 -1.45427,0.0261 -1.8578,0.73625 -0.73777,0.58829 -0.93226,1.60076 -1.62456,2.22455 -0.0699,-0.57152 -0.61248,-0.67027 -1.32411,-0.60001 -0.44442,-0.29046 0.15183,-0.99495 0.37227,-1.20001 0.46914,-0.14815 0.10825,-1.12632 0.65184,-1.20002 0.46597,-0.66333 -0.056,-1.20576 -0.46614,-1.87688 -0.59397,-0.7949 0.82684,-0.65865 0.46614,-1.42317 0.84914,0.20778 0.59754,-0.68521 1.32411,-0.6 0.42971,-0.26736 0.61871,-0.78236 0.72411,-0.60001 0.0604,-0.67124 0.90799,-0.63019 0.95184,-1.1482 -0.70546,0.0881 -0.65882,-0.57574 -1.20002,-0.65182 -0.22584,-0.41554 -0.36679,-0.91595 -0.7241,-1.20002 -0.77994,0.13857 -0.35272,-0.93003 -1.02413,-0.90001 0.10638,-0.72362 -0.40401,-0.83055 -0.35182,-1.50002 -0.73882,0.0348 0.11962,-1.24642 -0.60002,-1.50002 0.4132,-0.56011 1.00865,-0.38696 1.20003,-0.90001 0.50346,-0.13791 0.67125,-0.6115 1.02411,-0.90001 0.872,-0.34698 0.91779,0.64604 1.50004,0.60001 0.63872,-0.1065 1.23575,-0.31377 1.80004,-0.60001 0.61151,-0.66949 0.63203,0.53719 1.07593,0.17591 0.45058,-0.1908 0.90739,-0.37537 1.44823,-0.47591 0.002,-0.5131 1.24899,-0.24614 1.25185,-0.8482 0.37442,-0.24285 0.77124,-0.46333 1.20002,-0.65183 0.69909,-0.0577 0.76307,0.5197 1.62413,0.3 0.18977,-0.45161 1.01281,-0.26993 1.62414,-0.3 0.6407,0.42842 0.43291,0.03 1.25185,0 0.27992,-0.36145 1.12687,-0.15587 1.32411,-0.60001 0.7107,0.0694 1.26796,-0.0147 1.37595,-0.54819 -0.005,-0.32842 0.97337,-0.91265 0.90001,-0.35181 0.47328,-0.004 0.39626,-1.21555 0.90003,-0.77592 -0.13855,0.0154 0.93003,-0.21677 0.90002,-0.67229 0.32886,-0.4134 1.10505,-0.14946 0.60001,-0.90001 -0.56542,0.22318 -0.93271,-1.55974 -1.20002,-0.70364 -0.0444,-0.33371 -0.5053,-0.69295 -1.20004,-0.54819 -0.19795,-0.44342 -1.29137,0.009 -1.20002,-0.7241 -0.14288,-0.63712 -0.46198,-0.7912 0.24818,-1.07592 0.24323,-0.37405 0.49409,-0.74048 0.95184,-0.90002 0.0391,-0.64297 0.95479,-0.80502 1.14821,-1.20001 0.24322,-0.37406 0.4941,-0.74047 0.95184,-0.90001 0.63234,-0.34099 0.66996,-0.72566 1.20004,-0.90001 0.42149,-0.21989 0.83579,-0.44697 0.90001,-1.0241 -0.66371,-0.40188 0.18331,-0.55955 0.30001,-1.02412 0.65685,0.0571 0.72607,-0.56855 1.44822,-0.65182 0.63843,-0.30761 0.87902,-0.53473 1.50003,-0.60001 0.26138,-0.3559 0.66582,-0.56875 1.25185,-0.6 0.0125,-0.62927 1.13219,-0.15058 1.62413,-0.30002 0.77994,-0.13856 0.35271,0.93004 1.02412,0.90002 0.6965,0.0793 1.20523,-0.0294 1.55185,-0.3 0.34748,-0.2939 0.91695,-0.3658 1.62413,-0.3 0.18977,-0.45162 1.0128,-0.26997 1.62414,-0.30002 0.73448,-0.0583 1.56563,0.11675 2.23961,-0.0878 0.54721,-0.22762 1.071,-0.5118 1.7123,-0.51226 0.0518,-0.52904 0.9188,-0.66769 1.50004,-0.60001 0.49582,-0.74086 1.04151,0.32301 1.74822,0 0.93234,0.44866 0.26013,0.23962 0.0518,0.8482 0.0224,0.30332 0.0514,0.41634 -0.3,0.35181 z"
         id="path6558" />
    </g>
  </g>
</svg>
