<?xml version="1.0" encoding="UTF-8" standalone="no"?>
<!-- Created with Inkscape (http://www.inkscape.org/) -->

<svg
   xmlns:dc="http://purl.org/dc/elements/1.1/"
   xmlns:cc="http://creativecommons.org/ns#"
   xmlns:rdf="http://www.w3.org/1999/02/22-rdf-syntax-ns#"
   xmlns:svg="http://www.w3.org/2000/svg"
   xmlns="http://www.w3.org/2000/svg"
   xmlns:sodipodi="http://sodipodi.sourceforge.net/DTD/sodipodi-0.dtd"
   xmlns:inkscape="http://www.inkscape.org/namespaces/inkscape"
   width="233.05949"
   height="182.98314"
   id="svg2"
   sodipodi:version="0.32"
   inkscape:version="0.47 r22583"
   sodipodi:docname="Central.svg"
   inkscape:output_extension="org.inkscape.output.svg.inkscape"
   version="1.0">
  <defs
     id="defs4">
    <inkscape:perspective
       sodipodi:type="inkscape:persp3d"
       inkscape:vp_x="0 : 500 : 1"
       inkscape:vp_y="0 : 1000 : 0"
       inkscape:vp_z="904.71002 : 500 : 1"
       inkscape:persp3d-origin="452.35501 : 333.33333 : 1"
       id="perspective370" />
    <inkscape:perspective
       id="perspective5497"
       inkscape:persp3d-origin="0.5 : 0.33333333 : 1"
       inkscape:vp_z="1 : 0.5 : 1"
       inkscape:vp_y="0 : 1000 : 0"
       inkscape:vp_x="0 : 0.5 : 1"
       sodipodi:type="inkscape:persp3d" />
    <inkscape:perspective
       id="perspective3184"
       inkscape:persp3d-origin="0.5 : 0.33333333 : 1"
       inkscape:vp_z="1 : 0.5 : 1"
       inkscape:vp_y="0 : 1000 : 0"
       inkscape:vp_x="0 : 0.5 : 1"
       sodipodi:type="inkscape:persp3d" />
    <inkscape:perspective
       id="perspective3588"
       inkscape:persp3d-origin="0.5 : 0.33333333 : 1"
       inkscape:vp_z="1 : 0.5 : 1"
       inkscape:vp_y="0 : 1000 : 0"
       inkscape:vp_x="0 : 0.5 : 1"
       sodipodi:type="inkscape:persp3d" />
    <inkscape:perspective
       id="perspective3241"
       inkscape:persp3d-origin="0.5 : 0.33333333 : 1"
       inkscape:vp_z="1 : 0.5 : 1"
       inkscape:vp_y="0 : 1000 : 0"
       inkscape:vp_x="0 : 0.5 : 1"
       sodipodi:type="inkscape:persp3d" />
    <inkscape:perspective
       id="perspective3269"
       inkscape:persp3d-origin="0.5 : 0.33333333 : 1"
       inkscape:vp_z="1 : 0.5 : 1"
       inkscape:vp_y="0 : 1000 : 0"
       inkscape:vp_x="0 : 0.5 : 1"
       sodipodi:type="inkscape:persp3d" />
    <inkscape:perspective
       id="perspective3282"
       inkscape:persp3d-origin="0.5 : 0.33333333 : 1"
       inkscape:vp_z="1 : 0.5 : 1"
       inkscape:vp_y="0 : 1000 : 0"
       inkscape:vp_x="0 : 0.5 : 1"
       sodipodi:type="inkscape:persp3d" />
    <inkscape:perspective
       id="perspective3295"
       inkscape:persp3d-origin="0.5 : 0.33333333 : 1"
       inkscape:vp_z="1 : 0.5 : 1"
       inkscape:vp_y="0 : 1000 : 0"
       inkscape:vp_x="0 : 0.5 : 1"
       sodipodi:type="inkscape:persp3d" />
    <inkscape:perspective
       id="perspective2852"
       inkscape:persp3d-origin="0.5 : 0.33333333 : 1"
       inkscape:vp_z="1 : 0.5 : 1"
       inkscape:vp_y="0 : 1000 : 0"
       inkscape:vp_x="0 : 0.5 : 1"
       sodipodi:type="inkscape:persp3d" />
  </defs>
  <sodipodi:namedview
     id="base"
     pagecolor="#ffffff"
     bordercolor="#666666"
     borderopacity="1.0"
     gridtolerance="10000"
     guidetolerance="10"
     objecttolerance="10"
     inkscape:pageopacity="0.0"
     inkscape:pageshadow="2"
     inkscape:zoom="1.9988633"
     inkscape:cx="184.93736"
     inkscape:cy="73.805912"
     inkscape:document-units="px"
     inkscape:current-layer="g7462"
     inkscape:window-width="1600"
     inkscape:window-height="838"
     inkscape:window-x="-8"
     inkscape:window-y="-8"
     width="904.71px"
     height="1000px"
     showguides="true"
     inkscape:guide-bbox="true"
     showgrid="false"
     inkscape:window-maximized="1" />
  <metadata
     id="metadata7">
    <rdf:RDF>
      <cc:Work
         rdf:about="">
        <dc:format>image/svg+xml</dc:format>
        <dc:type
           rdf:resource="http://purl.org/dc/dcmitype/StillImage" />
        <dc:title></dc:title>
      </cc:Work>
    </rdf:RDF>
  </metadata>
  <g
     inkscape:label="Layer 1"
     inkscape:groupmode="layer"
     id="layer1"
     transform="translate(-156.20582,333.38721)">
    <g
       style="fill:#c8ffc8;fill-opacity:1"
       transform="matrix(0.2857763,0,0,0.2857763,449.24902,46.868028)"
       id="g5474" />
    <g
       id="g2626"
       style="fill:#c8ffc8;fill-opacity:1"
       transform="matrix(0.7500348,0,0,0.7500348,23.225984,-299.65708)">
      <g
         id="g2615"
         style="fill:#c8ffc8;fill-opacity:1" />
    </g>
    <g
       id="g5613">
      <g
         style="fill:#000000;fill-opacity:0"
         transform="matrix(0.8692611,0,0,0.8692611,8.017626,-44.575705)"
         id="g3601">
        <g
           id="g3249"
           style="fill:none;stroke:#000000;stroke-opacity:1"
           transform="matrix(0.76125926,0,0,0.76125926,49.809618,-77.964279)">
          <g
             transform="matrix(1.181706,0,0,1.181706,-645.36048,-1040.044)"
             style="fill:#c8ffc8;stroke:#000000;stroke-opacity:1;fill-opacity:1"
             id="g7462">
            <path
               sodipodi:nodetypes="cccccccccccccccccccccccccccccccccccccccccccccsccccccsccccscccccccccccccccccccccccccccccccccccccccccssccccsccccccccccccc"
               style="fill:#c8ffc8;fill-opacity:1;stroke:#000000;stroke-width:0.90000004000000000;stroke-linecap:round;stroke-linejoin:round;stroke-miterlimit:9.99670124000000020;stroke-opacity:1;stroke-dasharray:none"
               d="m 877.75758,783.0777 c -0.32397,0.0393 -0.62195,0.15831 -0.65625,0.3125 -0.0461,0.59249 -0.61075,0.68812 -1.03125,0.90625 -0.24122,0.38156 -1.11635,0.1046 -1.25,0.59375 -0.51098,-0.11304 -1.62265,0.53168 -0.84375,0.6875 -0.21046,0.7286 0.46158,1.07806 0.3125,1.78125 0.18109,0.8197 -0.251,1.04784 -0.3125,1.625 0.43778,1.07645 -0.89725,0.4012 -0.90625,1.03125 -0.71922,0.15061 -0.87415,0.12656 -0.96875,0.28125 -0.61623,0.0224 -1.39432,-0.12669 -1.59375,0.3125 -0.0498,0.58881 -0.4211,0.87781 -0.4375,1.5 0.50112,0.12161 0.26068,0.96026 0.59375,1.25 0.378,0.2606 0.3286,0.97032 0.3125,1.625 -0.0775,0.60931 -0.48177,1.10096 -0.3125,1.8125 -0.15157,0.79019 0.5354,0.73223 0.3125,1.59375 0.47452,-0.15206 0.51421,1.46533 -0.0625,1.21875 -0.33087,0.30775 -0.9451,0.32254 -1.125,0.78125 0.28842,0.75883 0.10912,0.96877 0.25,1.375 -0.39192,0.53676 -0.68075,0.67948 -0.5625,1.5 -0.0703,0.70889 0.0252,1.27366 0.5,1.4375 0.0505,0.58809 0.54286,0.69353 0.6875,1.1875 0.36908,0.40011 0.0993,1.4449 0.625,1.5 l 0,3.625 c -0.19728,0.42551 -0.41835,0.83385 -0.6875,1.1875 -0.35726,0.28136 -0.69473,0.57292 -1.125,0.78125 -0.29864,0.33999 -0.76527,0.53362 -0.90625,1.03125 -0.68767,-0.009 -0.80809,-0.36172 -1.59375,-0.5 -0.63045,-0.0617 -1.15663,-0.40085 -1.6875,-0.46875 0.24756,-0.1301 -0.88238,0.20938 -1.40625,0.0625 -0.19284,0.44579 -1.001,0.26651 -1,0.90625 0.53666,0.22662 0.0299,0.41327 0,0.875 0.47576,0.5464 0.16393,0.7021 -0.6875,0.625 -0.86381,-0.26995 -0.54321,0.9779 -0.21875,1.0625 -0.004,0.63473 -0.47483,0.79285 -1.1875,0.71875 l 0,3.59375 3.4375,0 c 0.93101,-0.23795 0.95662,0.44405 1.78125,0.3125 0.90056,0.19414 1.13769,-1.2139 1.96875,-1.1875 0.0271,0.5957 0.25233,0.96864 0.59375,1.25 -0.0853,0.698 0.69739,0.53356 0.78125,1.0625 0.0986,-0.12383 0.95696,0.0175 1.03125,0.375 0.12823,-0.65133 0.26765,0.0874 0.28125,-0.96875 0.378,-0.26061 0.3286,-0.97031 0.3125,-1.625 0.14789,-0.62466 -0.31448,-1.57093 0.3125,-1 -0.11474,-0.73753 0.15934,-1.09288 0.59375,-1.28125 0.11309,-0.0996 0.48987,-0.25625 1.25,-0.21875 0.70073,0.0275 0.8129,0.8652 1.4375,0.53125 0.24435,-0.20106 0.81163,0.1872 0.6875,-0.25 0.53833,-0.51518 0.44369,0.17886 0.8125,-0.46875 -0.0762,-0.71485 0.98365,-0.31525 0.90625,-1.03125 0.31734,-0.45765 1.04906,-0.006 0.59375,0.0937 -0.17733,0.2004 0.85715,-0.2346 0.90625,-0.5625 0.59271,-0.70221 0.87574,0.86785 1.34375,0.34375 0.43029,-0.46896 0.94209,-0.27804 1.1875,-0.90625 0.26269,-0.19251 0.33931,0.12885 0.65625,-0.15625 0.0119,-0.23688 0.0644,-0.89991 0.40625,-0.90625 0.0608,-0.92512 -0.15677,-0.7383 0.25,-0.90625 -0.51871,0.0806 0.93056,-0.58157 0.65625,-0.40625 0.0709,-0.0296 0.48485,-0.71645 0.90625,-0.78125 -0.0518,0.12234 0.28245,0.2245 0.96875,0.3125 0.29296,-0.33012 0.0756,-0.19585 0.21875,-1.09375 0.29425,-0.34439 0.80191,-0.49697 1.21875,-0.71875 0.71701,0.30511 1.31154,-0.44545 0.59375,-0.65625 -0.36335,-0.48294 -0.55336,-0.52338 -0.375,-1.15625 -0.64709,-0.32818 -0.27588,-0.63458 -0.15625,-1.1875 0.33355,0.0888 -0.58713,-0.75805 -0.0625,-0.78125 -0.69912,-0.15471 0.79803,-0.34732 0.0625,-0.9375 -0.31357,-0.4727 -1.50565,-0.38545 -0.78125,-0.96875 0.2747,-0.0794 -0.75523,-1.13765 0.0937,-1.21875 0.0498,-0.57294 0.83484,-0.41736 0.625,-1.25 -0.11308,-0.91439 -0.52109,0.0481 -1.28125,-0.25 -0.60846,0.0146 -0.91188,-0.64042 -1.3125,0 -0.85788,-0.21925 -0.92656,0.3724 -1.625,0.3125 -0.077,0.45656 -1.05592,0.35635 -1.1875,0.53125 0.18508,-0.8237 -0.34343,-0.9242 -0.59375,-1.3125 0.268,-0.58855 -1.45035,-0.70031 -0.625,-1.3125 0.61915,-0.15006 1.10814,-0.43601 1.5,-0.625 0.61915,-0.15005 1.10813,-0.40476 1.5,-0.59375 0.68345,0.10141 1.08175,-0.49687 1.8125,-0.28125 0.22627,-0.84905 -0.44658,-0.83687 -0.3125,-1.59375 -0.21932,-0.19765 -0.39041,-1.29758 -0.875,-0.625 -0.44461,0.63988 -1.03385,-0.85899 -0.625,-0.5 0.17968,-0.44311 0.76635,-0.48585 1.21875,-0.65625 0.31153,-0.32709 0.92865,-0.33899 1.375,-0.53125 0.49634,-0.1423 0.84062,-0.45825 1.625,-0.3125 0.0558,-0.52442 1.09794,-0.2281 1.5,-0.59375 0.45969,-0.18657 0.78096,-0.42625 1.25,-0.65625 0.66176,-0.26694 0.78655,-0.54255 1.5,-0.53125 0.14979,-0.48917 1.19615,-0.10274 1.4375,-0.5 0.43653,-0.2021 1.22892,-0.0387 1.5,-0.40625 0.65651,0.0337 0.81188,-0.4404 1.5,-0.375 0.33792,-0.3007 0.70953,-0.58935 1.40625,-0.53125 0.12147,-0.51715 1.02773,-0.2399 1.59375,-0.3125 -0.002,-0.62473 1.08602,-0.13492 1.5625,-0.28125 0.83767,-0.009 1.25155,0.17478 0.84375,-0.6875 -0.23913,-1.04044 -0.62838,-0.0279 -1.28125,-0.21875 -0.53833,-0.1003 -0.44371,-0.82393 -0.8125,-1.09375 0.15155,-0.79018 -0.53541,-0.73223 -0.3125,-1.59375 l -2.28125,0 c -0.23934,0.21307 -0.935,0.85473 -1,0.0937 -0.0772,-0.82454 -1.35966,-0.0766 -1.5,-0.59375 -0.14789,-0.49074 0.31447,-1.6137 -0.3125,-1.625 -0.0765,-0.54641 -0.58131,-0.67085 -1.28125,-0.59375 -0.5278,0.11076 -1.49343,-0.22581 -1.71875,0.1875 -0.38068,0.24771 -1.274,-0.034 -1.6875,0.40625 -0.72246,0.1956 -1.14073,-0.27825 -1.78125,-0.28125 -0.34845,0.005 -1.18633,-0.77273 -1.34375,0 l -3.28125,0 c -0.8044,-0.27094 -0.90127,0.51101 -1.5,0.21875 0.0625,-0.7011 -0.50768,-0.75996 -0.78125,-1.125 -0.49634,-0.14228 -0.84063,-0.45825 -1.625,-0.3125 l 0,-0.0625 c -0.054,-0.24286 -0.39478,-0.28927 -0.71875,-0.25 l 5e-5,1e-4 z m 4.3125,33.9375 c 0.10029,0.42281 -1.15166,0.76538 -0.21875,0.875 0.52001,-0.11861 1.01101,-0.25661 1.4375,-0.46875 -0.5981,-0.34374 0.0846,-0.31265 -0.90625,-0.40625 l -0.3125,0 z"
               id="path3826" />
            <path
               style="fill:#c8ffc8;fill-opacity:1;stroke:#000000;stroke-width:0.90000004000000000;stroke-linecap:round;stroke-linejoin:round;stroke-miterlimit:9.99670124000000020;stroke-opacity:1;stroke-dasharray:none"
               d="m 904.01012,815.80486 c -0.0125,0.35147 -0.0494,0.0136 0.17771,0.3 -0.15775,-0.004 0.50657,0.63665 0.4223,1.1446 0.57819,0.19721 0.18542,0.99524 0.30001,0.95542 -0.22336,-0.55473 0.45469,0.84914 0.3,0.77772 -0.60537,-0.49728 -0.18966,-0.61005 -0.54459,-0.1777 -0.0495,-0.56899 -0.0781,-1.15888 -0.65543,-1.20002 -0.14889,-0.92828 -0.41205,-0.0611 -0.60002,-0.90001 -0.61826,-0.2998 0.1572,-0.49487 0.3,-0.42231 0.13609,0.0226 -0.28916,-0.005 0.24459,-0.4777 l 0.0554,0 z m 14.40035,-37.20049 c 0.84803,-0.20726 0.59815,0.6834 1.32232,0.60001 0.71525,-0.29605 1.12259,0.86373 1.07773,-0.24458 0.569,-0.2065 1.15887,0.0394 1.20002,0.54458 0.7148,-0.074 1.2004,0.0811 1.20004,0.72232 -0.60555,0.0412 -0.39303,1.17955 -1.02233,1.07771 -0.26822,0.1105 -0.59896,1.66937 -0.90002,0.90001 -0.64938,0.15995 -0.88948,0.92219 -1.07773,1.4446 -0.35193,0.59149 -0.9462,0.46926 -1.20002,0.90001 -0.36998,0.24852 -0.74135,0.49562 -0.90003,0.95543 -0.49007,0.43596 -0.62287,0.0734 -1.20002,-0.12225 -0.24613,-0.18448 -0.83691,0.49071 -1.02233,0.72231 -0.19046,0.30844 -0.51727,-0.19111 -0.77772,0.54459 -0.36996,0.24852 -0.74136,0.4956 -0.90001,0.95542 -0.4212,0.27502 0.06,0.56098 -0.60003,0.90002 0.12595,0.6401 -0.58971,0.92986 -0.90001,1.20002 -0.1507,0.49008 -0.6587,0.62286 -0.72233,1.20001 -0.19043,0.45033 -0.51728,0.76425 -0.77771,1.1446 -0.14687,-0.26831 0.32548,0.0797 -0.30001,-0.24458 -0.62843,-0.1491 -1.44189,0.16381 -1.37774,0.3 0.1627,10e-4 -0.65059,0.49266 -0.72231,0.8446 -0.51749,0.42593 -0.71761,0.69783 -1.14461,0.95542 -0.47422,0.48385 -0.62563,0.7098 -0.95544,1.32231 0.13964,0.78042 -0.92583,0.35574 -0.90003,1.0223 -0.1205,-0.6584 -0.47625,0.38989 -0.90001,0.35543 -0.88416,0.27074 -0.40946,-0.19965 -1.20004,0.3 -0.56032,0.19674 -0.15267,0.0897 -0.72231,0.60001 -0.12325,0.36908 -1.22749,-0.22121 -0.47771,0.4223 -0.27469,0.26469 -0.50495,0.91416 -0.60001,1.50003 0.0253,-0.23177 0.0632,0.80155 -0.30002,1.02228 -0.24248,0.82674 0.18188,0.65044 -0.3,0.95544 0.22472,0.27881 0.5775,1.12695 0,1.32231 -0.005,1.05698 0.144,0.5293 0.3,1.0223 0,1.06923 0,0.46855 0,1.25543 0.10325,-0.37324 -0.51768,-0.26654 -0.3,0.60001 -0.34961,-0.84662 0.0876,0.25279 -0.30001,0 -0.12812,0.46749 -0.30117,0.26538 -0.3,0.77771 0.14553,-0.0496 -0.27716,1.06583 -0.12225,1.02232 -0.20579,-0.0775 0.21444,-1.1266 -0.17771,-0.1777 -0.44891,0.613 -0.2716,0.11362 -0.3,0.42228 -0.57819,0.49105 -0.18543,0.28315 -0.30001,0.95543 0.0581,-0.55849 -0.51959,0.4601 -0.30002,1.02231 -0.0834,0.33588 -1.1503,0.83601 -0.60001,0.23313 -0.35347,0.38916 -1.29474,0.20578 -1.1446,0.24458 -0.22042,0 -0.40195,0 -1.25545,0 -0.17364,0.53022 -0.56029,0.5668 -0.90002,1.20002 -0.23544,0.40533 -0.67592,0.60563 -1.32233,0.60001 -0.89559,0.25481 -0.75524,-0.52633 -1.07774,-0.8446 -0.50355,0.39187 -0.47627,-0.19288 -1.22817,0.10862 -0.9947,0.43573 -0.91759,0.59974 -1.11646,0.13593 -0.28173,0.19817 -0.17149,-0.8251 -0.35543,0.3 0.4589,0.37729 -0.58064,-0.91725 -0.4223,-0.3 -0.21637,-0.22791 -0.58451,-0.004 -0.30001,-0.3 -0.15915,0.005 0.0139,-0.144 -0.4223,-0.30001 -0.2314,0.50977 -0.29328,0.48275 -0.35543,-0.3 -0.77805,-0.27723 0.2226,-0.13735 -0.72231,0 -0.66609,0.0253 -1.34477,0.0633 -1.62232,-0.3 -0.1918,-0.54624 -0.82633,-0.4353 -0.35543,-1.1446 -0.64856,-0.31744 -0.39124,-0.58439 -0.3,-1.20002 0.60445,0.22713 -0.58571,-0.93136 0,-0.65542 -0.55767,-0.53106 0.43194,-0.27956 0.21353,-0.98649 -0.28363,-0.74692 -1.39603,-0.18835 -1.11355,-1.11355 0.76757,0.01 -0.53073,-0.77311 0.12225,-1.20001 0.26633,-0.37444 0.85098,-0.43056 0.77772,-1.1446 -0.0512,-1.04795 -0.39031,-0.12705 -1.14461,-0.35541 -0.60139,0.27662 -1.03465,-0.85328 -1.25545,0 -0.78989,-0.1491 -1.11774,0.16381 -1.62234,0.3 -0.21716,0.42361 -1.07317,0.20837 -1.32231,0.60001 -0.0495,-0.569 -0.0781,-1.15888 -0.65544,-1.20003 0.40511,-0.77257 -1.14947,-0.72225 -0.72706,-1.37296 0.45126,-0.36409 1.27055,-0.3324 1.44937,-0.72706 0.56958,-0.0772 1.28944,-0.28314 1.50004,-0.6 0.72385,0.19895 1.0848,-0.47819 1.80005,-0.30001 0.60664,-0.44538 -0.23497,-0.90827 -0.12225,-1.4446 -0.26746,-0.35103 -0.12025,-1.11678 -0.90002,-0.95543 -0.22309,1.00118 -0.83625,-0.4676 -0.77773,-0.30001 0.39749,-0.24329 0.70581,-0.57573 1.32231,-0.6 0.11875,-0.49973 1.0234,-0.21358 1.25545,-0.60001 0.69893,0.0581 0.76199,-0.51958 1.62234,-0.3 0.18293,-0.47155 1.06818,-0.13457 1.50004,-0.60002 0.59515,-0.0456 0.86709,-0.41446 1.32231,-0.6 0.63881,-0.3046 0.88186,-0.5336 1.50004,-0.60001 0.41944,-0.19905 0.81949,-0.41749 1.55546,-0.3 -0.0566,-0.69734 1.34208,0.0605 1.32233,-0.60001 0.82603,0.18526 0.77021,-0.51134 1.62232,-0.3 0.26568,-0.35281 0.66735,-0.56963 1.25545,-0.60001 0.34744,-0.29334 0.91551,-0.36604 1.62234,-0.3 0.19184,-0.44894 1.00994,-0.27162 1.62231,-0.30002 1.41851,0 2.83701,0 4.25553,0 0.07,-0.5708 0.82076,-0.46078 0.60001,-1.32231 -0.14048,-0.63935 -0.46273,-0.78889 0.24459,-1.07771 0.69695,0.0785 1.20881,-0.0281 1.55546,-0.3 0.49427,0.0643 1.24902,-1.19339 1.50002,-0.35543 0.60978,0.20823 0.81198,-0.32205 1.37299,-0.71755 0.5227,-0.28637 0.76978,-0.54226 1.02708,-0.97163 0.52692,-0.24858 0.65448,-0.46503 0,-0.65543 -0.30797,-0.81284 0.94227,-0.63642 0.90002,-1.4446 -0.0322,-0.77197 -0.28011,-0.97545 0,-1.67774 0.26364,-0.37713 0.78296,-0.49858 0.60001,-1.32231 0.51683,-0.10162 0.4159,-0.82105 1.20003,-0.65541 0.1105,-0.38046 0.21264,-0.99689 0.60001,-0.30001 -0.0791,0.58267 0.98458,0.71988 0.90003,0.42231 0.25141,0.45536 0.51028,1.33764 0.90002,0.7777 0.61493,0.0351 0.42603,-0.90609 1.20003,-0.9 0.8004,-0.13859 0.34462,-0.6093 0.42231,-0.90001 0.77546,0.13468 0.49972,-0.78184 1.32231,-0.60002 l 0.0554,0 z"
               id="path3830" />
            <path
               style="fill:#c8ffc8;fill-opacity:1;stroke:#000000;stroke-width:0.90000004000000000;stroke-linecap:round;stroke-linejoin:round;stroke-miterlimit:9.99670124000000020;stroke-opacity:1;stroke-dasharray:none"
               d="m 849.08959,786.06478 c 0.63116,0.78594 0.84211,-0.16531 1.50003,0 0.48149,0.1568 0.30907,0.96751 0.60002,1.31485 0.06,0.57831 0.48162,0.79495 0.30001,1.61485 0.23032,-0.14542 0.93822,-0.1447 1.44362,-0.47326 -0.30502,0.45379 0.94007,0.93589 0.95644,0.2436 0.63781,-0.0936 1.43451,0.19645 1.96244,-0.1624 0.70527,-0.0776 1.03696,-0.49323 1.45247,-0.13761 0.6462,-0.008 1.36869,-0.0921 1.61487,0.30001 0.52326,0.70357 0.99455,-0.23478 1.68521,0 0.40469,-0.64178 0.57145,0.14799 1.01485,0.3 0.61341,0.31187 0.36859,0.0716 0.91395,-0.5436 0.56705,-0.91653 0.35731,0.8405 1.07127,0.5436 0.84237,-0.20408 0.85003,0.42655 1.31485,0.60001 0.98142,-0.35795 0.3434,0.90351 1.27038,0.6 0.15887,0.47943 0.82506,0.45153 1.20002,0.71485 0.2936,0.74569 1.18674,-0.49089 1.20004,0.11488 -0.0269,-0.3247 1.00338,-0.19485 1.20003,-0.52968 1.08047,0.004 0.58755,-0.21315 0.60001,0.71485 -0.63818,0.40109 0.0113,0.70765 0,1.31484 0.1095,0.51395 0.4477,0.79921 0.60001,1.27036 -0.1055,0.59771 0.2643,1.39233 -0.3,1.80003 0.0756,0.56272 -0.15185,1.42842 0.11488,1.80002 0.21471,0.42356 0.36435,0.91221 0.48517,1.42968 0.21169,0.83515 -0.57892,0.66798 -0.90002,0.97035 -0.46409,0.0281 -0.93617,0.7205 -0.3,1.20001 -0.32185,0.33974 0.11175,0.89339 -0.52968,1.20002 -0.16307,0.56038 -0.0243,1.42273 -0.0704,2.10003 0.63986,-10e-4 0.45348,0.8231 0.90003,1.01485 0.27083,0.27189 0.49905,0.9132 0.60001,1.50001 0.06,0.57831 0.48162,0.79495 0.30001,1.61485 0,0.92346 0,1.84691 0,2.77038 -0.47711,0.16118 -0.38531,0.89127 -0.90002,1.01485 -0.1777,0.46058 -0.80129,0.47528 -1.12969,0.78517 -0.27073,0.35274 -0.50168,0.74524 -0.97036,0.90001 -0.36315,-0.26566 -0.9667,-0.347 -1.61488,-0.60001 -0.49196,9.5e-4 -1.44884,-0.4283 -1.3852,-0.48516 -0.0931,0.54519 -1.47711,-0.20053 -1.50004,0.41482 -0.37823,-0.0472 -1.32248,0.57364 -0.60001,0.67035 -0.17745,0.60888 -0.20862,0.34522 -0.3,1.20002 0.90613,0.29097 -0.6049,0.36711 -1.01486,0.3 -0.61575,0.42355 0.21639,0.91222 0.11487,1.42968 -0.27581,0.34764 -0.79813,0.44879 -1.50003,0.37034 -0.78559,0.14729 -0.97735,-0.29922 -1.50004,-0.41484 -0.15004,-0.49203 -1.22355,-0.34973 -1.31486,-0.78517 -0.64098,-10e-4 -1.07752,-0.49578 -1.80004,-0.3 -0.44835,0.07 -1.06948,-0.75615 -1.3852,-0.0704 -0.28381,0.27367 0.17129,-0.32998 -0.60001,-0.3445 -0.41253,-0.22576 -0.69573,-0.58085 -1.4297,-0.48516 -0.75823,0.13476 -0.72088,-0.52605 -1.57038,-0.30002 -0.86115,0.22285 -0.8255,-0.45108 -1.61487,-0.3 0.11337,0.0861 -0.0166,0.54548 -0.48518,-0.3 -0.40081,0.0601 -1.4972,-0.51922 -0.78519,-0.3 0.80435,-0.13562 -1.31298,-1.02001 -0.41485,-0.30001 0.53542,0.44183 -1.40476,-0.48185 -0.60001,0.30001 -0.78792,0.29609 -1.04355,-0.66917 -1.31486,0 -0.94789,-0.0891 0.16456,-0.3387 -0.90003,-0.60001 -0.5783,0.06 -0.79497,0.4816 -1.61486,0.3 -0.85106,0.0769 -1.14755,-0.0529 -0.67035,-0.6 -0.43711,-0.0781 -0.75052,-0.76727 -1.50004,-0.60001 -0.69838,0.0601 -0.75736,-0.51923 -1.61487,-0.3 -0.61484,-0.1065 -1.4373,0.11375 -1.5476,0.1376 -0.56345,-0.20345 -1.03375,-0.63178 -1.63764,-0.73761 -0.8661,-0.54747 0.43516,0.60326 0.95364,0.51788 0.79604,0.49475 -0.67146,0.39072 -1.06848,0.38213 -0.46295,-0.0846 -1.14981,0.6758 -1.0852,0.37035 -0.85693,0.15679 0.4829,-0.12595 -0.60001,-0.0704 -0.93081,0.003 -0.82059,-0.14246 -1.20002,-0.11488 0.0251,0.21193 -0.41717,-0.3023 -1.12969,-0.18516 -0.4316,-0.40406 -1.25356,-0.30412 -1.57038,-0.71485 -0.2922,-0.34988 -1.00233,-0.57096 -1.20003,-0.90002 -0.33836,-0.3822 -0.99437,-0.89743 -1.20002,-1.20001 0.0331,-0.57582 -0.48623,-0.92605 -0.90003,-1.20002 0.14053,-0.77881 -0.77197,-0.50458 -0.60001,-1.31483 -0.48589,-0.13758 -0.24885,-0.99808 -0.90001,-0.97037 -0.14135,-0.49695 -0.60018,-0.67641 -0.90003,-1.01485 -0.0846,-0.46295 0.67581,-1.14978 0.37035,-1.08517 0.0815,-0.4859 -0.10275,-0.24883 0.22966,-0.90001 0.76807,0.12977 0.75244,-0.52413 1.20003,-0.71484 0.48305,-0.53418 0.67986,0.41704 0.90002,-0.41484 -0.13476,-0.75822 0.52605,-0.72087 0.30002,-1.57036 0.0732,-0.56506 -0.21807,-1.49463 0.3,-1.61485 0.23767,-0.42984 1.2829,-0.1543 1.42968,0.11487 0.70363,-0.15013 1.0717,0.50984 1.80005,0.3 0.61892,0.111 1.44257,-0.27231 1.87039,0.30002 0.62671,0.57038 0.15228,-0.39007 0.3,-1.01485 0.29256,-0.22579 -0.26752,-0.58087 0.82969,-0.48518 0.75821,0.13475 0.72089,-0.52604 1.57037,-0.3 0.15682,0.77196 0.96753,-0.005 1.31487,0 0.66173,0 1.32347,0 1.98521,0 0.47021,-0.46639 0.15929,-0.75389 -0.60001,-0.90001 0.0932,-0.67463 -1.2461,-0.33874 -1.20003,-0.90001 -0.65722,-0.046 -0.86981,-0.25823 -1.50004,-0.60002 -0.63985,10e-4 -0.45346,-0.82312 -0.90002,-1.01485 0.23769,-0.4006 1.2829,0.006 1.4297,-0.48516 0.099,-0.52451 0.24904,-0.99787 0.97036,-0.90001 0.84569,-0.23833 0.4581,0.0838 1.20003,-0.11488 0.35255,-0.1658 0.21408,-0.0992 1.12968,-0.18517 0.28383,-0.33964 0.67348,-0.57344 1.27038,-0.6 0.0112,-0.62674 1.1243,-0.15229 1.61487,-0.30001 0.0706,-0.56765 1.27254,-0.004 1.3852,-0.52967 0.46067,-0.16278 1.22257,-0.0244 1.80004,-0.0704 -0.0365,-0.52866 1.08785,-0.56879 0.30001,-1.20001 -0.29097,-0.34732 -0.36713,-0.90945 -0.30001,-1.61487 0.36716,-0.27111 0.29441,-0.98216 0.82968,-1.08517 0.0376,-0.46686 1.17845,-0.54289 1.27037,-1.12968 -0.11362,0.68105 0.8252,-0.67906 0.90003,0.22967 0.1,0 0.2,0 0.3,0 z"
               id="path3828" />
            <path
               style="fill:#c8ffc8;fill-opacity:1;stroke:#000000;stroke-width:0.90000004000000000;stroke-linecap:round;stroke-linejoin:round;stroke-miterlimit:9.99670124000000020;stroke-opacity:1;stroke-dasharray:none"
               d="m 923.10318,763.62833 c 0.5785,0.14129 0.49346,1.92222 0.90002,1.61245 0.58364,-0.16711 1.11866,0.67872 1.50004,1.08759 0.31022,0.65231 0.77231,1.15276 0.60001,2.2876 -0.48616,1.1034 0.15925,1.09187 0.60001,1.20001 0.4575,1.09054 1.19132,-0.70524 1.80004,0.11237 1.14614,-0.72356 0.67996,0.47882 1.50004,0.90002 0.3402,-0.1095 1.32956,0.58663 1.20004,-0.18758 0.72252,-0.35777 0.35728,-1.43965 0.60001,-1.80002 0.85804,-0.91782 1.27921,0.0454 1.68761,0.48758 1.20783,-0.16506 -0.0358,-0.93505 1.31246,-0.90001 -0.23573,0.58875 1.83508,-0.86495 1.50003,0.18758 -0.49043,0.39476 0.93859,1.1462 0,1.80002 0.53392,0.71179 0.26224,1.50569 -0.60001,1.61244 -1.48573,0.14085 0.21717,1.05957 0.30001,0.90001 0.066,-0.401 1.06567,-0.52637 1.20002,0.60001 -1.52466,-0.399 -0.64872,0.16154 -0.60001,1.38759 0.008,0.5935 -1.09079,1.51689 -1.50004,0.71244 -0.85416,-0.13 -0.83222,-0.0729 -1.80003,-0.48758 -0.84912,4.4e-4 -1.68045,-0.54477 -2.10005,-0.11237 -1.19865,-0.113 -0.48007,-1.17953 -0.78759,-0.30001 -0.68469,0.53797 -0.17948,0.70605 -0.71245,0.30001 0.0997,0.23167 -0.17085,0.26987 -0.30001,0.41242 -0.67585,-0.25927 -1.28617,0.51123 -2.10005,0.48758 -0.40773,0.53521 -0.68435,1.13436 -1.50004,1.50002 -0.55414,0.30057 -0.91108,1.06447 -1.50004,1.50003 -0.65255,0.57064 -0.0384,1.12452 -1.20002,1.20001 1.01575,-0.64377 -0.76759,-0.90971 -1.0876,-1.20001 -0.71534,-1.09053 -1.06848,0.83089 -1.61247,0 -1.2042,0.24166 -0.99036,-0.93473 -2.28762,-0.60001 -0.60959,0.55415 -0.91728,0.77965 -1.01245,1.20001 -0.60714,0.42157 -1.09631,0.96171 -1.7653,1.46527 -0.43741,-0.69916 -0.57374,-1.0453 -1.23478,-1.05283 -0.57981,-0.868 -0.60083,-0.76708 -1.0876,-0.11238 -0.9445,-0.008 -0.7842,1.09079 -1.31246,1.50001 -0.4877,0.6333 -0.46669,1.30674 -0.3,2.2876 -0.62166,0.63923 -1.40562,1.32025 -0.30001,1.61245 -0.73284,0.27999 -0.8386,0.98487 -1.63266,1.33265 -0.76925,0.88008 -1.0795,0.75189 -1.96743,0.46738 -0.77595,0.72985 -1.25104,0.93131 -2.28762,0.90001 -1.2044,0.16849 -0.17487,0.72444 -0.41244,1.80003 -0.48896,0.47358 -1.16558,0.7595 -2.28763,0.6 -1.14266,0.27038 -1.65836,-0.2619 -1.91247,-1.20002 -0.65266,0.65893 -1.54283,0.11675 -1.68761,-0.6 -0.37877,-0.55872 -0.0276,-1.84738 -1.01245,-1.80002 -1.02079,-0.0583 -1.94243,-0.0174 -2.40007,0.48757 -0.0275,-0.69075 -1.47036,-0.7064 -1.80003,-1.08758 0.15805,-1.12059 -0.15352,-1.77157 -0.78759,-2.10003 -0.76199,0.1755 -2.24134,-0.36635 -2.51249,0.3 -1.02397,-0.19922 -1.672,0.50914 -2.70007,0.30001 -0.71752,-0.25875 -1.7055,-0.9871 -2.10005,-0.30001 -1.10003,0 -2.20005,0 -3.30008,0 -0.11437,-1.07689 1.58978,-0.33531 1.68761,-1.20001 -0.0226,-0.69613 -1.07241,-1.00264 -0.78758,-1.50003 -1.06354,0.62183 -1.38352,-1.70272 -0.71245,-1.50001 0.43628,-0.43329 1.5154,-0.67895 2.10005,-0.90001 0.81497,-0.23943 1.54458,-0.92541 2.51248,-0.90001 0.54934,-0.20339 1.72814,-0.72908 0.90003,-1.38759 -0.23599,-0.7015 -0.96751,-0.90748 -1.20003,-1.61245 -0.10687,-1.06936 -0.0433,-1.96831 0.78759,-2.10003 -0.67476,0.0514 1.36621,-1.26588 -0.18757,-1.20002 -0.24082,-0.72173 -0.87497,-1.05013 -1.98763,-0.9 -1.0281,-0.1225 -0.87374,-1.63469 -0.22486,-1.80003 0.97007,-0.33357 1.28267,-1.01756 1.4249,-0.90001 0.74736,-0.33084 1.22051,0.57688 1.98761,0.6 -0.19282,-1.29347 1.33023,0.39048 1.01245,-0.3 0.45761,-0.041 1.12585,0.67153 1.38761,1.20001 0.52624,0.79398 1.18297,0.78194 2.10005,0.90002 0.67757,0.0751 1.81358,0.64361 1.98762,0.30001 0.10112,0.30305 1.18578,-0.12038 1.31246,0.3 1.14216,-0.17963 1.69712,0.22796 2.58764,0.3 0.76781,-0.37053 0.60052,0.88609 0.41243,-0.6 -0.092,-0.82415 -1.1637,-1.48159 0.43264,-1.06739 0.5715,0.70654 1.48819,0.45716 2.15499,0.16738 1.26679,-0.10613 -0.1025,-1.00177 1.01246,-1.20003 0.34608,-0.718 0.99893,0.67838 1.68761,0.60001 0.16347,-0.77403 0.90849,-0.9665 1.91248,-0.90001 0.57951,-0.52416 1.26112,-0.0469 1.50002,-0.3 1.02194,-0.0594 1.44098,0.4841 2.28763,0.6 0.86416,0.0734 1.44949,0.4255 1.91247,0.90001 0.68724,-0.17725 1.80503,1.14279 1.80005,0.11238 1.12247,0.0421 1.10915,-0.6878 1.0876,-1.31245 0.61519,0.0405 1.48429,-1.15385 1.91248,-0.60001 0.15217,0.98145 0.92581,0.0554 1.3876,-0.3 1.14249,-0.18464 1.15876,0.0519 1.91247,-0.48758 -0.43183,-0.18542 0.0937,-1.34491 0.30002,-2.10002 0.2192,-0.71829 1.61975,-0.25523 1.50002,-1.31245 0.5386,0.0429 0.0891,-0.50504 0.90003,-0.3 z"
               id="path3832" />
            <path
               style="fill:#c8ffc8;fill-opacity:1;stroke:#000000;stroke-width:0.90000004000000000;stroke-linecap:round;stroke-linejoin:round;stroke-miterlimit:9.99670124000000020;stroke-opacity:1;stroke-dasharray:none"
               d="m 791.05256,762.88812 c 0.57524,0.52868 0.46692,-0.10575 1.34812,0 0.49638,0.21715 0.9323,0.22717 1.56138,0.50942 0.0999,0.34034 1.02745,0.96284 0.99059,0.39059 0.34796,0.30141 0.93571,0.36304 1.64813,0.3 -0.0398,0.5946 0.92805,-0.54696 0.75193,-0.004 0.45868,0.11512 0.6681,0.91509 0.90003,1.20382 0.41861,0.60382 0.43689,1.05739 0.7481,1.50003 0.13122,0.51815 0.40146,0.89729 0.45192,1.4962 0.16629,-0.64024 0.4703,0.33731 0.90003,-0.29619 0.19292,-0.36629 0.35992,-0.28762 0.90001,-0.15191 0.37933,-0.0398 1.04328,0.92804 0.60384,0.75192 0.58099,0.12113 0.5478,0.987 1.19621,0 0.53506,-0.0697 0.65161,-0.83148 1.20003,-1.0481 0.36612,-0.97466 0.25386,0.6175 0.60001,0.74428 0.16627,0.435 0.47031,0.73225 0.90002,0.90382 0.42218,0.0301 0.85518,0.83794 0.90003,0.75193 -0.12375,0.0666 0.98542,0.21036 0.90002,0.74429 -0.20128,0.80256 0.57905,0.6235 0.60002,1.20382 0.15271,-0.56031 0.69811,-0.58907 0.90001,-1.3481 0.5275,-0.12187 0.7268,-0.57195 1.19621,-0.75192 0.0931,-0.42563 0.98335,-0.52537 1.50386,-0.60002 -0.7031,0.0751 -0.15363,1.16354 0.14809,1.20003 0.46578,0.46032 0.32689,0.34947 0.45193,1.1962 -0.8608,0.20671 0.25631,0.64282 0,1.20382 0.22728,0.87667 -0.4688,0.82995 -0.30002,1.64812 -0.0161,0.66545 0.19033,1.10842 0.5962,1.35192 0.0238,1.08845 0.9252,0.19724 1.50385,0.3 0.54025,-0.5957 0.94733,-0.45175 1.63249,-0.96622 0.78019,-0.23358 1.33428,-0.70063 1.9676,-1.1338 0.37499,-0.19257 1.06486,-0.57474 1.34811,-0.90002 0.1785,-0.47087 0.86032,-0.43845 1.05195,-0.89618 0.15608,-0.74192 -0.0758,-0.9115 0.61415,-0.58968 0.41982,0.51935 1.73574,0.38888 1.7859,1.18586 0.78658,0.27847 1.3904,-0.17637 1.50004,0.3 0.41139,0.23799 0.61323,0.68553 0.60001,1.34812 0.4266,0.22277 0.24203,1.05671 0.60002,1.34811 0.39226,0.67524 0.0305,0.35601 0.30001,0.90382 -0.0446,0.83895 -0.26373,0.92669 0.14809,1.50003 0.65105,0.0577 0.771,-0.90271 1.34812,-0.90001 0.69143,-0.11763 1.07486,0.50832 1.80386,0.3 0.23299,-0.30235 0.93045,0.01 1.49623,-0.3 0.73032,0.21152 1.12752,-0.38118 1.80386,-0.30002 0.65634,-0.51185 0.94035,0.19134 1.49621,0.30002 0.69722,0.0844 0.90227,1.07245 1.60857,1.0953 0.22598,-0.62755 0.8491,-0.8429 1.09532,-1.39149 0.27036,-0.55339 -0.0947,-0.23071 0.3,-0.90384 0.46589,0.0136 0.42214,-1.27096 0.90003,-0.75191 0.41987,0.2295 0.26185,1.0369 0.8962,1.05192 0.28366,0.33857 1.10088,0.34844 1.20385,-0.30001 0.54978,-0.0996 1.16423,-0.13451 1.20002,-0.74809 0.41053,-0.23885 0.43234,-0.86642 1.19621,-0.75192 0.3521,0.24919 0.80979,0.39277 1.50385,0.3 0.12825,0.40876 0.76497,1.07194 1.04812,1.50002 0.70975,-0.0604 1.30487,-0.006 1.64813,0.3 0.26339,0.49313 0.67325,0.55217 1.20385,0.3 0.45572,0.81238 0.21782,1.04544 -0.7481,0.90002 -0.77591,-0.3627 -1.09927,1.24453 -0.45575,1.20002 0.33179,0.9158 -0.45228,0.74731 -0.5962,1.20001 -0.45492,0.30142 0.10988,0.36304 -1.0481,0.3 -0.90056,-0.44023 -0.30576,1.67778 -0.15192,0.60383 -0.0845,0.26631 1.11077,1.09804 0.30001,1.1962 -0.40101,0.57436 -0.49756,0.42526 -1.04811,0.3 -0.38688,0.26251 -1.17006,0.1287 -1.35195,0.5962 -0.5537,-0.25283 -0.99828,0.86527 -1.20003,0.004 -0.77707,-0.0208 -0.69543,-0.44225 -0.90002,0.44809 -0.27309,0.29882 -0.74245,0.83127 -1.49621,0.75192 -0.17622,0.34259 -0.93773,0.57096 -1.20385,0.90001 -0.21649,0.86587 0.71075,0.588 0.60001,1.3481 0.2872,-0.0422 1.37396,0.90695 0.60384,1.05194 0.0654,0.66663 -0.84807,0.35451 -0.90384,0.90001 0.41136,0.23802 0.61324,0.68552 0.60001,1.3481 0.21824,0.55782 -1.32781,0.64348 -0.30382,1.05193 0.17592,0.8287 0.56426,0.2413 0.90383,0.60001 0.889,-0.28675 1.25723,0.95145 0.15192,0.6 -0.27678,0.15735 -0.23569,0.13315 -1.04812,0.30001 0.27557,-0.3785 -0.65806,0.24108 -1.20385,0 -0.23698,0.41238 -0.35383,0.94492 -0.7481,1.20002 -0.83721,-0.0671 -1.29732,0.0136 -0.75193,0.59618 0.10387,0.49172 0.58285,0.7274 1.20002,0.90383 0.51096,0.13842 0.74774,0.55102 1.34813,0.60001 0.75862,0.20496 0.81823,0.78779 1.64812,0.90001 -0.0676,0.51642 -0.51456,0.68503 -1.1962,0.60002 -0.59487,0.0545 -1.48984,-0.19109 -1.64812,0.3 -0.82035,0.17096 -0.77218,-0.52658 -1.64814,-0.3 0.0264,0.62766 -1.05086,0.15171 -1.50386,0.3 0.35491,0.40145 -0.15974,0.41291 0,1.3481 0.23431,0.91963 -0.50624,-0.50082 -1.1962,-0.14809 -0.76427,-0.0671 -1.67,0.20726 -2.25197,-0.3 -0.82035,0.17096 -0.77217,-0.52658 -1.64813,-0.3 -0.52505,0.0762 -0.6865,0.51605 -0.60383,1.20001 -0.0545,0.59486 0.19109,1.48983 -0.30001,1.6481 0.0161,0.7862 -0.19033,1.12068 -0.5962,0.75193 -0.435,0.16627 -0.73225,0.47031 -0.90384,0.90001 -0.75685,-0.21648 -0.97019,0.71075 -0.7481,0.60001 -0.22955,0.2046 0.22315,0.59199 -0.44811,0.90001 -0.0845,0.43254 -0.85718,1.78548 -1.20384,1.35193 -0.44422,-0.14911 -1.15614,-0.51758 -1.49622,-0.75193 -0.1749,-0.42637 -0.47179,-0.73077 -0.90384,-0.9 -0.19258,-0.37498 -0.57476,-1.06485 -0.90003,-1.34811 0.005,-0.63137 -0.66133,-0.85895 -0.90001,-1.65194 -0.49957,-0.623 -0.95471,-1.354 -1.20004,-1.7962 -0.47052,-0.49457 -0.21515,-1.18875 -0.60001,-1.50383 -0.10737,-0.69673 -1.11292,-0.7892 -1.50004,-0.45193 -0.0639,0.5159 -0.49736,1.18731 -1.19621,1.35194 -0.47779,0.64035 -1.28706,0.17282 -1.80386,0 -0.41239,-0.23699 -0.94493,-0.35383 -1.20003,-0.7481 -0.54732,-0.22279 -0.25425,-1.05673 0,-1.34811 0.15914,-0.44215 0.43857,-0.76402 0.60002,-1.20384 0.0344,-0.68373 -0.82873,-0.47001 -1.20003,-0.74809 -0.46712,-0.18225 -0.72067,-0.57809 -1.49621,-0.45192 -0.10763,0.19327 -0.72476,1.13877 -0.004,1.20001 0.0965,0.8095 -0.1745,1.1127 -0.7481,1.50002 -0.39378,0.37635 -0.53015,0.78085 -1.04813,0.3 -0.37485,0.074 -1.01698,-0.84655 -0.30382,-0.90001 -0.0889,-0.73822 1.01981,-0.27894 0.90002,-1.0481 0.049,-0.64236 -0.11175,-1.56201 -0.8962,-1.35192 -0.0636,0.7177 -1.0051,0.106 -1.20385,0 0.163,-0.81238 -0.18797,-1.11078 -0.30001,-1.64812 -0.7183,-0.83773 0.27233,0.1698 0.30001,-0.4481 0.12013,-0.40317 0.23573,-0.56121 0,-0.60382 0.53863,-0.58516 0.0945,-0.66721 -0.7481,-0.60001 -0.61138,-0.36647 -1.59933,0.68158 -1.65196,0.004 0.4344,-0.73527 -0.98707,-0.87648 -0.90001,-0.30383 -0.69039,0.14588 0.032,-1.67262 -0.60003,-1.35192 -0.2489,0.18522 -0.78842,-0.41958 -1.1962,0.15191 -0.27603,0.56137 -0.0866,-0.11888 -0.90385,0 0.26608,-0.4604 -0.32625,0.88081 -1.00472,0.19529 -0.0606,-0.097 -1.32035,0.55051 -1.39533,-0.49529 -0.12865,-0.75659 -0.64075,0.36914 -0.90002,0.44809 0.23806,-0.181 -0.5403,-0.65548 -0.8962,-0.7481 -0.80258,-0.20129 -0.6235,0.57907 -1.20385,0.60001 -0.13843,0.20481 -0.55101,1.52426 -0.60001,0.45192 -0.0604,-0.70975 -0.006,-1.30486 0.3,-1.64812 -0.11125,-0.71253 0.53332,-0.66925 0.30001,-1.50384 0.63866,-0.0113 0.14444,-1.1543 0.30001,-1.6481 -0.2171,-0.49649 -0.22714,-0.93239 -0.5094,-1.56146 -0.36076,-0.39953 0.30369,-1.61119 -0.39057,-1.5906 0.15755,-0.84251 -0.54518,-1.05714 -0.68217,-1.62324 -0.52453,-0.58554 -0.51522,-1.29725 -0.81787,-1.6768 0.0545,-0.59487 -0.19109,-1.48984 0.30001,-1.64811 0.17471,-0.60885 0.45126,-0.8201 -0.29619,-1.05193 -0.12881,-0.39455 -0.23722,-0.55973 -0.004,-0.60001 -0.17271,-0.47666 -0.63466,-0.66409 -0.7481,-1.20001 -0.28402,-0.54866 -1.10005,-0.72615 -0.96137,-1.10945 -0.54113,0.10087 -1.57934,-0.41094 -0.69059,-0.69058 -0.24836,-0.401 -0.8012,-0.49753 -0.90001,-1.0481 -0.0405,-0.60883 -0.47865,-0.8201 -0.8962,-1.05192 0.23092,-0.76298 -0.0962,-0.58321 0.29619,-1.20001 0.15307,-0.4963 -0.38827,-1.68702 0.44808,-1.50003 1.25254,0.2455 0.38433,-0.516 0.45193,-1.20001 -0.31705,-0.60089 -0.19804,-1.38241 -0.60001,-1.94811 -0.14914,-0.79979 0.0224,-1.27895 0.90002,-1.05193 0.2,0 0.40001,0 0.60001,0 z"
               id="path6452" />
            <path
               style="fill:#c8ffc8;fill-opacity:1;stroke:#000000;stroke-width:0.90000004000000000;stroke-linecap:round;stroke-linejoin:round;stroke-miterlimit:9.99670124000000020;stroke-opacity:1;stroke-dasharray:none"
               d="m 935.90416,717.56382 c -0.70381,0.0362 -1.34677,0.26087 -2.03125,0.34375 -0.96429,0.36049 -1.35991,0.7935 -2.03125,1.1875 -0.48311,0.79212 -0.79576,1.90439 -1.25,2.40625 -0.54074,0.44234 -1.42047,0.56521 -2.0625,0.90625 -0.92914,0.29675 -1.26493,0.78807 -1.84375,1.1875 -1.02145,0.30086 -1.72438,1.23238 -2.65625,1.21875 -0.53236,0.29573 -1.57379,0.58763 -2.40625,0.65625 -0.0372,0.66722 -2.93721,0.0219 -1.1875,-0.0625 1.17433,0.18853 1.50491,-0.3827 0.84375,-0.59375 -1.08565,0.10738 -1.64852,0.61716 -2.34375,0.90625 -0.48129,0.43569 -0.99805,0.83499 -1.5,1.25 0.0783,1.03475 -1.12307,0.98561 -1.5,1.75 -0.80673,0.419 -1.85579,0.59382 -2.46875,0.875 -0.67133,0.43924 -1.29528,0.56399 -2.03125,1.21875 -0.3267,0.60991 -1.8113,0.41787 -2.15625,0.90625 -1.25205,-0.26662 -1.09026,-0.20943 -2.0625,0.59375 -0.88866,0.31726 -1.76261,0.8275 -2.6875,0.9375 -0.2138,0.73501 -1.50179,0.88643 -1.8125,1.46875 -1.21102,0.49444 -0.83541,0.4692 -1.78125,0.625 -1.02008,0.8353 -0.67371,-0.20099 -1.21875,0.5625 -0.90445,0.0125 -1.07643,0.72535 -1.53125,1.1875 -0.73986,0.2432 -0.72907,1.25662 -1.75,1.21875 -0.40834,0.50864 -1.11774,0.71529 -1.8125,0.9375 -0.47379,0.14886 -1.638,1.06861 -1.78125,0.5625 -0.45581,0.53876 -2.05625,0.67275 -1.875,0.59375 -0.68179,0.30128 -1.27526,0.67913 -2.34375,0.59375 -1.03841,-0.21209 -2.04235,0.18904 -1.15625,0.90625 0.36969,-0.44709 2.075,-0.52224 2.0625,0.3125 0.13423,4e-5 0.25179,1.55563 -0.0625,1.5 -0.84498,0.42615 -1.04037,-0.17645 -1.4375,0.875 -1.24877,0.65185 0.47148,0.721 0,1.25 0.84428,0.76684 -0.70991,0.81121 -1.1875,1.15625 -0.63089,0.28609 -1.27014,0.59414 -1.5625,1.21875 -0.79385,0.18921 -0.67113,1.28331 -1.4375,1.5 1.07221,0.59586 0.0652,0.68524 0.0312,1.5 0.37425,0.46699 1.09526,1.92023 0.5625,2.375 0.3402,0.80138 0.27328,1.40744 0,2.0625 -0.58391,-1.10161 -1.4302,1.12295 -1.8125,0.0625 -0.23974,0.67724 -0.88117,0.9206 -1.53125,1.1875 -1.2563,0.10622 -0.88684,-1.01242 -2.0625,-1.5 -0.70488,0.82126 -0.98765,0.18544 -1.5625,0.90625 -1.7211,-0.0103 0.31979,1.09175 -0.84375,1.1875 -0.87929,0.61495 -1.74863,0.94176 -2.21875,1.625 -0.46905,0.70039 -2.32522,0.66341 -1.375,1.375 -0.23562,1.23802 0.70827,1.10765 1.3125,1.625 0.80886,0.33016 1.62139,0.67766 2.28125,1.09375 -0.0853,0.03 0.0152,0.19571 -0.59375,1.25 -0.15977,0.79671 -0.54955,1.52787 -1.1875,2.03125 -0.88133,1.19767 0.64463,-0.24044 0.875,0.5625 0.4907,-0.67491 1.8002,0.59639 2.75,0.34375 0.74416,0.44462 2.16995,0.43955 2.65625,0 0.31876,-0.64365 0.50842,0.0463 1.25,0.3125 0.15949,0.18529 0.95146,0.43138 2.0625,0.59375 0.67768,-0.15536 2.09596,0.82714 1.84375,0 0.33078,0.0832 1.53496,-0.32119 1.75,0.59375 0.80585,-0.24534 0.92001,-0.85869 1.5,-0.0625 -0.0104,-0.71599 0.96447,0.0646 1.1875,0.65625 0.55787,0.63354 1.14894,1.20475 2.125,1.21875 0.77049,0.0811 1.71891,0.223 2.09375,0.53125 0.2404,-0.58793 0.90325,0.27738 1.5,-0.25 0.23379,0.68325 1.84375,-0.0107 2.15625,0.59375 0.56082,-0.24756 0.85588,-0.033 0.96875,0.0937 -0.0284,-0.0587 -0.0556,-0.13703 -0.125,-0.375 0.48901,-0.9884 -1.46721,-1.46862 0.0312,-1.5 0.75715,0.43164 1.6776,0.9319 2.375,0.28125 1.36559,-0.0125 0.31765,-0.72534 0.9375,-1.1875 0.5649,-0.6423 1.14928,0.37185 1.75,0.59375 0.48356,-0.43341 0.76141,-1.07162 1.84375,-0.90625 0.74464,-0.52241 1.50624,0.01 1.75,-0.28125 0.95399,-0.037 1.44134,0.39169 2.15625,0.59375 0.97106,0.012 1.56092,0.42476 2.0625,0.90625 0.6706,-0.14593 1.65825,0.98809 1.78125,0.25 0.99911,-0.18951 1.08285,-0.86224 1.21875,-1.46875 0.44809,0.0371 1.8085,-1.52725 1.78125,-0.28125 0.47092,0.49149 0.90613,-0.41275 1.5625,-0.59375 0.69521,-0.10582 1.90505,-0.13311 1.4375,-0.625 0.3593,-0.5062 0.37849,-1.62964 0.65625,-2.375 1.27292,0.28986 1.28346,-0.70222 1.75,-1.21875 0.85912,0.0579 1.27562,0.55741 1.1875,1.5625 0.18921,0.22471 1.2833,-0.0695 1.5,0.84375 0.27414,0.64283 0.93975,0.8933 0.90625,1.84375 0.188,1.25295 -0.58874,1.64936 0.3125,2.0625 0.46551,0.0521 1.18044,0.16165 1.90625,-0.1875 1.2027,-0.13865 0.90336,0.28571 1.6875,1.09375 0.4504,-0.16759 1.3235,0.69185 1.25,-0.3125 0.9469,-0.37217 -0.0948,-1.6945 0.84375,-1.8125 1.11018,-1.11836 0.78272,1.08703 1.8125,0.5625 0.043,-0.74989 0.61951,-0.74587 0.90625,-0.84375 1.02164,0.2323 1.7652,-0.84689 1.4375,0.59375 0.64787,-0.15864 -0.16593,1.69325 0.34375,1.8125 0.21969,1.13664 -0.71314,1.11989 -1.5,1.25 0.0249,1.46559 1.15937,0.17102 1.21875,0.84375 0.46041,-1.15133 1.54476,1.30271 0,0.53125 -0.10175,-0.21769 0.72702,2.00009 -0.0625,2.15625 -1.05742,0.65553 -0.44609,0.33311 0.65625,0.90625 0.51962,0.39735 1.19625,0.6371 1.1875,1.5625 0.3584,-0.47731 0.23579,0.88963 0,0.84375 -1.1e-4,0.82644 0.87,1.36131 0.90625,1.15625 -0.29784,-0.16935 0.2849,-0.3343 0.90625,0.625 0.93815,-0.44856 0.9025,0.50307 0.90625,0.0625 0.13426,0.37847 0.0481,0.18809 0.59375,-0.0625 0.38216,-0.21907 -0.071,-0.21578 1.03125,0.125 0.98669,0.56891 -0.2574,0.66988 1.0625,0.78125 -0.35141,0.39968 1.8215,-0.448 1.1875,-0.34375 0.0728,-0.0911 0.47246,-0.35912 0.625,-0.25 -0.72309,-0.34439 0.42064,0.19523 0.0312,-0.3125 0.73539,-0.33059 0.26547,0.0865 1.15625,0 1.46405,0.56733 0.31296,0.4628 0.90625,0.90625 1.12244,0.20547 0.96839,-0.83337 1.78125,-0.9375 -0.23089,-1.21395 0.84321,-1.14248 1.21875,-1.75 0.61428,-0.0887 1.04081,-1.30246 1.125,-0.71875 0.11995,-0.1539 0.55353,-0.3975 0.375,-0.5 1.38241,0.0697 0.73701,-0.44612 1.5,-0.53125 -0.0879,0.58455 0.33293,-0.86045 0.59375,-0.0625 -0.0106,-0.20244 1.07438,-0.29135 1.09375,-0.46875 0.20286,0.0829 1.13508,-0.92625 1.5,-0.8125 0.0457,-0.10854 0.55915,-0.24719 1.3125,-0.25 -0.0242,-0.58046 0.27125,0.34095 0.3125,-0.25 1.0975,-0.85303 -0.1445,0.11255 0.875,-0.25 0.39076,-0.2321 0.65867,0.0729 0.90625,-0.65625 0.46567,0.2071 0.60815,0.0793 0.625,0.125 0.2588,-0.16867 1.32554,-0.43146 1.1875,-0.4375 -1.0696,-0.74476 0.70276,0.17926 0.34375,-1.1875 0.38354,0.3767 0.61914,0.0441 0.25,0 0.7474,-0.27901 -0.0818,0.77859 1.25,0 0.4007,0.069 0.83941,-0.6313 0.96875,-0.9375 0.64755,-0.14614 0.29869,-0.4331 1.09375,-0.90625 -0.16823,0.0215 0.78524,-1.12937 0.59375,-1.15625 1.31247,-0.376 -0.0356,0.0509 0.9375,-0.3125 0.84303,-0.5324 0.90615,-0.39577 1.34375,-0.5625 -0.0961,-0.0335 0.2564,-0.45058 0.375,-0.5 0.20116,-0.31624 1.16683,-0.85757 0.625,-0.71875 0.6646,-0.47694 1.06531,-0.61539 0.90625,-1.15625 0.13351,0.003 0.48317,-0.25853 0.90625,-0.96875 0.27088,0.318 0.582,-0.21762 0.65625,-0.28125 0.49729,0.5987 -0.10832,-0.81119 0.25,-0.3125 -0.2845,-0.66624 -0.17593,-0.43996 0.59375,-0.9375 0.30115,-1.13984 1.24158,0.18093 1.8125,-0.5625 0.14399,-0.44606 1.57935,-0.92687 0.9375,-1.1875 0.63496,-0.54224 1.21888,-0.65702 1.15625,-1.21875 -0.0664,-0.12125 0.25928,-0.7092 0.59375,-0.34375 -0.46605,-0.73069 -0.0316,-0.62637 0,-0.53125 0.0663,-0.43496 0.6493,-0.60288 0.3125,-1.25 -0.46843,0.0668 -0.0483,-0.40069 -0.625,-0.5625 0.43995,-0.47694 -1.02659,0.22031 -0.875,-0.65625 -0.0171,-0.47951 0.688,-0.16049 0,-0.53125 0.3491,0.0296 0.33876,-0.59542 -0.3125,-0.0625 -0.0969,-0.17126 -0.49185,-0.49765 -0.90625,-0.25 -0.0469,-0.43836 -0.21042,-0.30264 -0.3125,-0.15625 0.0153,-0.0385 0.004,-0.0244 0.0312,-0.0937 -0.63461,0.6161 -0.78774,-0.34742 -1.21875,-0.0625 0.52193,-0.53038 -1.0295,-0.93287 -0.9375,-0.875 -0.26594,-0.4361 -0.4412,0.28671 -0.84375,-0.90625 -0.30588,-0.28419 -1.71149,-0.82599 -0.90625,-1.25 -0.39904,-0.53504 -0.69421,-0.50424 -1.21875,-0.84375 -0.30585,-0.77324 -1.01362,-0.89374 -1,-1.34375 0.0631,-0.5535 0.13247,-1.04774 -0.5,-1.65625 -0.6276,-0.51401 -1.457,-0.22369 -1.5,-0.5625 0.30293,-0.26175 -0.8395,0.19339 -0.875,-0.34375 -0.0261,-0.47523 -0.68325,-0.5689 -0.65625,-0.90625 -1.11987,-0.039 -0.81299,-0.5069 -1.46875,-0.3125 -0.98434,0.54937 -0.92976,0.3625 -1.5,0.375 -0.31374,0.18292 -0.0915,-0.619 -1.1875,-0.65625 -0.55832,0.0317 -1.76572,0.77175 -2.15625,0 -1.15409,0.17102 -1.52255,-0.46313 -2.0625,-0.90625 -0.28906,-0.4003 -1.591,0.095 -1.5,-0.0625 -0.0362,-0.11054 -0.15354,-0.15933 -0.59375,0.0625 -0.40226,-0.48945 -1.37079,-0.68916 -1.78125,-0.34375 -0.59126,-1.17384 0.42545,-1.08378 -0.625,-1.46875 -0.45689,-0.62106 -1.23091,-1.30325 -2.09375,-1.25 -0.71316,-0.47986 -0.63941,-1.62628 -0.90625,-2.34375 0.004,-0.94056 -0.44,-1.75799 -0.34375,-2.6875 -0.40583,-0.29387 -0.26799,-1.12606 -0.21875,-1.875 0.12549,0.58212 0.43328,0.81755 0.28125,-0.28125 0.12281,-1.84419 0.32211,0.68659 0.59375,-0.84375 0.26442,0.0604 0.29027,-0.84504 -0.0625,-1.5 -0.42614,0.0122 -0.60638,-0.6074 -0.53125,-1.8125 -0.1691,0.25506 0.0842,-1.51204 0.0625,-2.09375 0.32464,0.97113 0.182,-0.56718 0.21875,-1.5 0.43236,-0.1075 -0.50249,-0.021 -0.28125,-1.25 0.0774,-0.9057 0.66425,-1.29015 0.59375,-2.34375 0.64278,-0.53984 0.0628,-1.60391 0,-2.46875 0.14666,-1.72806 0.89037,-0.68828 0.3125,-1.4375 0.0554,-0.90701 -0.73987,-1.23328 -0.84375,-1.8125 0.68371,0.29935 0.91019,1.04425 1.4375,1.5 -0.0169,-0.004 0.59293,0.72596 1.1875,0.96875 1.23671,1.02701 -0.55849,1.76525 0.59375,1.75 0.89022,0.46609 -0.57914,0.98587 -1.1875,0.9375 -0.51965,0.42916 -1.00328,1.3537 -1.1875,2.0625 -0.61429,1.03851 0.34259,1.17227 0.59375,0.25 1.30995,-0.41914 -0.21947,-0.18957 0.90625,-0.84375 1.20717,-0.7904 0.80175,-0.5435 0.59375,-0.65625 0.72766,-0.10065 0.51601,-0.10985 0.90625,-0.84375 -0.1635,0.21571 0.43976,-1.363 0.59375,-1.25 -0.34079,-0.72518 -0.14086,-0.0381 -0.59375,-0.5625 -0.90716,-0.0556 1.05012,-0.0879 -0.25,-0.59375 0.58389,-0.0565 -0.94866,-1.3314 0.25,-0.59375 0.50366,-1.54146 -0.0946,-0.0796 0.28125,-0.0625 0.0648,-1.52678 1.12649,-0.13025 0.90625,-0.84375 l 2.75,0 c 0.0403,-0.0377 0.0512,-0.0189 0.0625,-0.0312 0.005,0.0436 0.11274,0.0424 0.78125,-0.28125 1.78623,-0.15536 -0.42638,0.82716 1.25,0 0.4685,-0.502 1.3665,-0.72123 1.46875,-0.59375 0.42171,0.48189 0.3589,-0.1303 0.65625,0.3125 1.11479,-0.11847 0.79094,-0.36284 1.125,0.28125 0.93468,-0.55611 -1.12201,-0.69911 -1.4375,-1.03125 -0.0579,0.30879 -2.02624,-0.1971 -2.15625,0.4375 l -8.40625,0 c -0.73997,-0.60205 -1.89718,-0.64551 -2.6875,-0.84375 -1.17699,0.76018 -0.22311,0.47079 -0.59375,-0.0625 -0.96663,-0.0497 -1.32788,0.5364 -2.46875,0.3125 -1.01725,-0.57975 -2.04895,-0.12784 -2.65625,-0.59375 -0.0291,0.0497 -0.78245,-0.53641 -1.84375,-0.3125 -0.55507,0.67646 -0.60114,-0.48205 -2.03125,-0.3125 l -1.21875,0 c -0.25602,-0.0396 -0.48415,-0.0433 -0.71875,-0.0312 z m 33.09375,50.875 c -0.042,0.0661 -0.0792,0.12066 -0.0312,0.15625 0.0794,-0.14095 0.0787,-0.17602 0.0312,-0.15625 z m -17.4375,9.65625 c -0.04,0.0513 -0.0301,0.0945 0.0312,0.125 -0.002,-0.0572 -0.0255,-0.0855 -0.0312,-0.125 z m 9.0625,-59.25 c -0.009,0.0324 0.0407,0.0646 0.0625,0.0937 -0.003,-0.0243 -0.0393,-0.0607 -0.0625,-0.0937 z m 0.0312,55.625 c -0.051,0.0368 -0.0865,0.0726 -0.0312,0.0937 0.009,-0.0548 0.0314,-0.0745 0.0312,-0.0937 z m -4.03125,1.28125 c 0.009,0.0249 0.0185,0.0482 0.0937,0.0625 -0.0209,-0.041 -0.0591,-0.0472 -0.0937,-0.0625 z"
               id="path6606" />
            <path
               style="fill:#c8ffc8;fill-opacity:1;stroke:#000000;stroke-width:0.90000004000000000;stroke-linecap:round;stroke-linejoin:round;stroke-miterlimit:9.99670124000000020;stroke-opacity:1;stroke-dasharray:none"
               d="m 787.25749,707.91502 c -0.93104,0.037 -0.32753,1.81484 -1.28125,1.8125 -0.45049,1.54959 -2.044,0.55776 -3.3125,0 -2.33056,-1.43955 -1.33898,1.62167 -2.6875,1.8125 -1.19196,-0.17377 -2.56281,1.0218 -4.21875,0.28125 -1.12079,0.5316 -1.92524,1.59019 -2.78125,2.78125 -0.84562,2.31446 -1.5095,0.69665 -3,0.15625 -1.11396,-0.95669 -2.12129,-2.40155 -3.21875,-2.03125 -0.0463,3.36246 0.11087,6.7337 0.21875,10.09375 0.25944,2.13252 -0.14887,3.60403 -0.21875,5.5 0.71007,2.63024 -2.48391,0.93945 -3.90625,1.71875 -2.63538,-0.6019 -1.15501,1.72566 -1.78125,3.375 0.65463,1.52483 -0.97921,2.77961 -0.125,4.59375 0.64574,1.62352 3.19928,1.92869 1.25,3 -1.52461,1.21028 -1.29059,2.71902 0.0625,3.53125 1.29506,1.1413 1.99661,1.59544 3.3125,2.375 1.71136,0.16175 1.0205,2.6315 3,2.71875 2.1919,-0.14874 2.80709,0.0323 3.90625,1.1875 1.48145,-0.21898 1.56572,1.05949 3.0625,1.875 1.16529,1.3794 1.23944,3.23561 3.5,2.9375 1.74295,-0.21427 2.45646,-0.71599 2.71875,-2.40625 0.4155,0.25224 1.64135,2.2174 2.625,3.09375 0.8655,2.06991 2.79437,-2.54336 2.78125,0.5 -1.67693,1.37844 1.70041,1.39628 2.09375,0.59375 1.48864,-0.62904 2.35407,-0.47457 3.09375,1.28125 0.842,1.15356 1.89986,2.18884 2.3125,3.53125 0.64047,0.98381 2.15394,2.47609 2.71875,1.8125 1.14541,0.85805 1.38095,2.63602 2.09375,3.59375 0.0464,1.47325 1.8332,-1.2511 2.40625,0.90625 0.2518,0.86556 1.77264,-0.081 2.46875,-1.28125 0.0984,0.69469 1.88965,2.57938 2.3125,2.46875 1.1514,0.62265 1.23485,3.22044 2.40625,0.90625 0.73816,-0.67039 2.71325,-2.45246 2.6875,-0.59375 0.72306,0.82996 0.67895,2.16804 0.3125,3.59375 -0.25995,1.67051 0.73684,3.46021 2.40625,2.09375 0.91452,-0.45983 2.8898,-1.20364 3.59375,-2.09375 1.63204,-0.33339 1.97986,-2.10138 2.5625,-2.25 1.34491,1.23285 3.23783,1.22306 3.75,1.9375 0.46655,1.57861 1.21962,2.54635 1.1875,3.90625 -0.31419,1.98775 1.49186,-0.86006 3,0.3125 0.9276,-0.33602 2.6895,-0.10272 4.1875,-0.90625 0.78683,0.10868 2.50867,2.73093 3,0.90625 1.04766,-0.48222 0.98459,-3.09649 2.125,-1.8125 0.68414,1.64514 2.59056,0.17161 3.28125,-0.59375 0.63946,-1.16296 2.9447,-0.3551 3.3125,1.1875 1.58681,0.12131 3.2665,0.59134 3,1.5 -2.37815,-0.40566 -1.01016,2.69287 -1.8125,2.71875 -3.29325,-0.0885 0.40149,1.24866 -1.1875,2.09375 -0.97925,-0.33409 -2.59105,1.26375 -3.90625,0.59375 0.0741,0.41606 -2.05415,1.44883 -3,2.09375 0.10999,1.21131 2.7529,2.49986 0.3125,3 1.38187,1.00609 -0.77806,3.41983 0.875,3 1.52702,1.0989 2.82463,-0.0451 4.21875,-0.28125 1.32046,-0.30926 4.20451,0.06 3.28125,-1.8125 -0.84034,-1.39839 0.30324,-2.62651 1.8125,-3.3125 -0.0487,0.0119 3.074,-0.47288 3,0.90625 0.37546,1.95103 1.2203,1.7277 2.40625,2.09375 1.40438,-0.1453 3.23345,-0.88539 4.5,-0.59375 1.43882,0.96333 3.07692,-0.35431 3.90625,0.59375 0.73694,-0.61797 1.51156,-0.51604 3,0.3125 1.02405,0.48417 2.34925,2.23351 3.59375,1.5 0.56853,0.33499 3.30972,-0.98823 3.90625,-0.59375 1.56936,-0.33068 2.34045,-1.44703 2.09375,-3.59375 -0.25751,-0.2901 -0.79594,-1.81929 -0.3125,-1.5 1.5053,-0.73614 2.77,-0.99756 3.59375,-2.125 1.91204,-0.012 2.82176,0.99695 3.90625,1.8125 0.33425,-0.81114 3.85595,-1.0688 2.03125,-2.1875 0.0432,-0.46698 -2.67933,-2.32576 -0.21875,-2.625 1.2449,-0.52134 2.51085,-1.35289 4.1875,-1.5 1.95509,-0.92764 -0.32162,-1.99144 -0.59375,-3.28125 -0.37375,-2.20557 2.05574,-1.89074 0.59375,-3.3125 -0.64015,-0.50423 -4.22743,-0.97641 -2.09375,-2.40625 1.99334,-0.95002 -1.59089,-0.86389 -2.6875,-1.1875 -0.65635,-0.92389 -1.12246,-0.81976 -3,-0.3125 -1.42326,-0.1946 -3.62291,-0.89437 -4.21875,-0.875 -2.03831,0.74205 0.86752,-1.34806 0.6875,-2.5 1.17161,-1.49286 0.14397,-1.24615 -1.59375,-2 -1.30555,-0.41055 -2.74522,-2.6145 -0.59375,-2.71875 0.88626,-1.2237 1.96163,-1.55306 3.3125,-2.40625 -1.36419,-1.00871 1.35115,-1.19324 1.875,-1.71875 1.06142,1.54917 2.40757,1.74356 3.53125,0.53125 0.38126,-0.39989 2.98161,-0.26972 1.78125,-2.09375 0.78551,-1.3795 -1.35806,-2.96103 0,-3.90625 -1.1321,-0.36835 1.13202,-2.1687 1.8125,-2.6875 1.28815,-0.40201 3.0637,-1.42584 1.1875,-2.125 0.54622,-1.59454 2.48352,-0.75073 2.09375,-2.375 0.8991,-1.91915 -2.60512,-0.36746 -2.6875,-1.8125 -2.18356,-0.63288 -0.47751,-0.30139 -3,-0.90625 -0.44457,-0.0664 -2.52566,-1.05988 -3,-2.09375 -1.17038,-0.72966 -1.05633,-2.73113 -3,-2.6875 -1.0599,-0.84013 -3.13745,-0.68126 -3.59375,-2.125 -1.7083,-1.08294 -2.38625,1.14765 -4.21875,0.90625 -1.24454,0.57793 -1.38666,2.5879 -3.28125,2.40625 1.12258,-1.2397 0.43931,-2.12712 -0.0937,-3.6875 -0.37376,-1.32699 -1.91147,-3.2971 -0.5,-3.5 0.22229,-0.55566 -1.37678,-2.3256 -2.125,-3 -1.08789,-0.79701 -0.4858,-3.54533 -2.375,-2.71875 -1.31359,0.58477 -1.94642,1.49478 -3.3125,1.21875 -1.71736,-0.74284 -1.12457,-1.63256 -1.5,-3 1.54121,-1.28694 -1.5175,-0.61383 -1.5,-1.8125 -1.47327,-0.99828 -2.18785,1.40104 -3.90625,0.59375 -1.51914,0.1884 -2.05298,-1.26085 -3,-0.90625 -0.7066,-0.92885 -0.71593,-1.98175 -1.78125,-2.09375 -0.39681,0.76584 -2.27709,-0.4935 -3.3125,-0.59375 -1.25423,0.46988 -2.7651,1.13164 -3.3125,0.59375 -1.8711,-0.39154 -1.87664,1.23722 -2.6875,0.59375 -1.15361,0.0115 -2.34501,-1.2275 -3,0.90625 -1.10924,0.24026 -2.17371,0.74928 -4.1875,0.3125 -1.57322,0.8174 -2.85201,0.44123 -3.3125,-1.21875 -1.80586,-0.0801 -2.97476,1.29954 -4.1875,0.90625 -0.41549,-1.31026 -1.12693,-3.17863 -2.125,-3 -1.31666,-0.95979 0.22749,-2.66235 -2.09375,-3 -0.99606,-0.48163 -2.4763,0.27621 -3.90625,-0.59375 -1.99001,0.15075 -3.14924,0.11626 -4.1875,0.3125 -0.84387,-0.9237 -3.04755,-0.96746 -3.90625,-1.8125 -0.92449,-0.96476 -2.58945,-1.392 -3.90625,-1.8125 -0.47715,0.33882 -3.08466,-0.16211 -3.875,0 -0.47186,0.28389 -2.67964,-0.26889 -4.21875,0.3125 -0.31412,0.70425 -2.4381,0.41964 -3.59375,-0.3125 -1.55226,-0.63471 -2.47711,-1.02449 -3.59375,-1.5 -0.0765,-0.0141 -0.15668,-0.002 -0.21875,0 z"
               id="path6442" />
            <path
               id="path6450"
               style="fill:#c8ffc8;fill-opacity:1;stroke:#000000;stroke-width:0.90000004000000000;stroke-linecap:round;stroke-linejoin:round;stroke-miterlimit:9.99670124000000020;stroke-opacity:1;stroke-dasharray:none"
               d="m 689.42157,717.86233 c 0.87299,-0.12275 2.83732,-0.91666 3.30009,-1.20002 -0.77094,-1.73169 1.3363,-0.80693 2.40005,-0.90001 1.06198,1.34463 2.95356,0.008 3.00008,-1.50002 1.1537,-1.975 -2.08969,-3.1476 0.30001,-3.90005 0.91971,0.43264 3.30181,-0.10612 3.30007,-1.80002 1.1134,1.77257 1.91105,1.0631 3.60009,1.80002 1.51683,0.60383 0.72001,-1.67111 2.10005,-2.40003 0.91778,-0.50859 2.54275,-1.39352 3.00008,-0.3 1.81561,-0.51649 1.80756,-1.67258 1.20002,-3.30004 1.22138,-0.10438 1.74153,-1.0818 3.00008,-2.10004 1.50063,-0.39939 3.14743,-0.65264 3.60007,-2.10002 1.49234,1.16458 2.21273,-0.14725 3.60009,0.30001 1.67552,-0.52871 3.50322,1.13569 2.40006,-1.20003 -1.0013,-1.94507 1.51866,-1.71548 2.67818,-2.67815 0.31408,-0.6297 1.29402,1.68577 1.82193,1.77814 0.42205,1.09444 2.18595,0.70101 3.30008,0 1.61265,-0.3372 2.84641,-0.61409 3.90009,-1.80002 0.24332,-0.82877 1.49295,-0.37624 2.67817,-0.27812 1.4551,-1.0178 3.13233,0.48107 3.92199,-1.5219 1.7281,-0.0155 3.00944,-1.46457 2.70006,-2.40003 0.18541,-2.1058 2.80181,0.33692 3.9001,0.90001 1.44276,-0.27944 1.83226,0.61387 0.90001,1.20001 m 0,0 c 0.15432,1.55386 1.13989,2.74878 1.80005,3.90005 0.20294,1.08595 1.99615,0.79654 1.37593,2.75183 -0.47556,2.19657 1.40584,3.20058 1.02412,4.14827 -0.38912,1.89266 -0.26902,4.47973 2.48163,2.90464 2.72916,-1.00161 5.06294,-2.68799 8.01862,-2.90464 2.49899,-0.65616 4.89837,-1.45607 6.95197,-3.17595 1.87351,-1.8927 2.93597,0.45678 4.14831,0.77591 1.69272,0.20732 1.92494,1.87513 3.00006,2.70004 0.60083,1.26911 0.86251,3.39606 1.20004,5.10006 0.93691,1.29503 -1.77748,1.83922 -3.00008,1.50003 -2.01657,-0.27758 -2.85947,1.27277 -3.8782,2.67815 -0.9166,1.97854 -1.42608,1.34382 -2.72196,0.32189 -1.44592,-0.72148 -1.87641,-1.82908 -3.30007,-2.40004 -0.70472,2.26072 -0.0911,5.78044 -0.16488,8.52445 -9.6e-4,2.20447 0.37894,4.71094 -0.13514,6.47575 0.91273,3.01369 -1.61275,2.30634 -3.67321,2.5244 -2.71121,-0.43449 -1.601,1.81679 -2.02691,3.77567 0.50412,1.4171 -1.18736,3.18003 0.22769,4.95545 1.93041,1.27792 1.91255,1.53472 0.37232,2.84467 -1.41751,1.51135 0.0175,2.40801 1.20003,3.60003 1.43567,0.93407 2.3974,1.76722 3.90008,2.40004 -0.0408,1.75144 1.69007,2.41779 3.60009,2.10003 1.14441,-0.14745 2.25605,1.92783 3.30009,1.20001 0.66462,1.68356 3.11157,1.81677 3.00006,4.20006 1.46486,0.97319 3.67489,0.45169 4.50012,0 0.30468,-2.67639 1.19432,-1.63407 2.10005,0.3 1.28075,2.46993 2.55287,0.85788 3.60008,0.60001 0.12375,1.79662 -0.40135,2.00013 1.80004,2.10003 0.80473,-0.51184 2.5546,-1.9465 3.30009,0 0.87345,1.16557 1.56836,2.36592 2.40005,3.30004 0.60171,1.21438 2.20242,2.86487 0.60001,2.70003 -0.95607,-0.96846 -2.9313,-1.22602 -3.90009,-1.20001 -2.75805,-0.56554 -0.72595,2.18181 -0.90002,3.60005 -0.26519,0.51048 -1.43274,2.16174 -1.20003,3.30004 1.54343,0.64356 0.87938,2.62857 2.40007,2.70004 0.4865,0.7065 1.90318,2.06827 1.80003,2.70003 0.97493,0.14595 -0.54195,2.16989 0.30002,3.60004 0.86691,1.69433 1.46767,2.64848 1.80003,4.50006 0.63948,1.70205 0.0385,3.25373 -0.30001,4.80007 -0.8319,2.79361 0.18781,0.52438 1.80005,0.3 0.84496,0.93738 1.45906,0.12125 2.97819,0.87812 1.57514,-0.29656 1.45485,-0.27477 2.72195,-0.27811 0.75971,0.21199 1.22731,1.69511 2.40005,1.50001 2.68695,-0.57867 2.08655,1.33954 1.50004,1.20003 -0.40447,0.90029 0.85641,2.97287 2.10005,2.40002 1.2373,1.7755 -2.34484,2.27008 0,3.30005 1.97548,-0.36227 0.78047,-2.5833 1.80005,-3.30005 1.66625,0.34644 3.02057,0.96794 1.80003,2.70004 -1.13272,1.56466 1.79448,1.38783 2.40007,2.70004 -0.4148,1.38619 -1.14105,2.5812 -2.10005,3.00004 0.50697,1.02267 2.04016,1.90903 3.00006,2.70003 0.5606,0.46544 2.43626,1.74647 1.20004,2.70004 -1.65788,-0.5452 -1.68797,1.1309 -1.50004,2.40003 -0.9689,-1.03588 -2.20954,0.68677 -3.60009,0.3 -1.80534,0.0948 -4.15907,-0.35899 -5.10012,0.60001 -1.84499,-0.62423 -2.33997,0.78042 -4.2001,-0.3 -1.214,-0.44879 -2.22347,-0.17493 -3.30008,-0.60001 -1.6906,-0.23613 -2.02952,0.32175 -4.2001,0.3 -2.17962,-0.0995 -1.0127,2.84678 -3.30007,2.40003 -0.82932,-0.20395 -1.88293,1.62608 -3.30009,1.80003 -0.94863,0.70407 -2.39429,0.21536 -3.60009,-0.30001 -1.97409,-0.074 -3.39811,0.40196 -4.80011,0.90001 -0.085,0.0228 -2.866,-1.07803 -2.70007,1.20002 -0.74796,1.60869 -2.19087,0.86399 -3.00007,2.10003 -0.85959,1.18557 -2.43949,1.33279 -4.2001,0.90001 -0.0935,-1.33036 -0.87023,-0.94691 -0.3,-1.80002 -0.27696,-0.8131 0.33396,-2.93565 -0.90003,-3.60005 -0.0821,-0.1 -1.64191,1.14755 -1.50003,3.00003 -1.53175,-0.15708 -2.70324,2.77029 -3.90717,0.48823 -1.54688,-0.98586 -2.73041,-1.55956 -4.79305,-0.78823 -1.63797,1.15397 -2.76403,-1.00382 -3.60008,-1.50002 -1.53807,-0.0186 -0.0431,-2.00749 -2.70007,-1.20001 -1.71527,0.38418 -1.65536,2.74147 -0.90001,3.60005 0.025,1.83842 1.10866,2.58625 2.10005,3.90005 0.6094,1.5792 0.17915,3.4201 0,4.50006 -1.58957,0.68592 1.88223,3.6517 -1.29334,2.40002 -2.33188,0.66258 1.00157,2.42233 -1.40673,2.10003 -2.49382,0.15229 -2.27314,-1.01914 -4.2001,-0.3 -1.69712,-0.65953 -2.17165,-0.88321 -2.70007,-2.40003 -0.52726,-1.5179 -2.46507,-1.3072 -2.10005,-3.00005 -2.26746,-0.0601 -2.60703,0.12828 -4.5001,0.60002 0.1936,2.16542 -2.41383,1.29357 -3.30008,0.3 -1.10072,-1.46094 -0.79898,-1.44192 -1.50004,-3.00004 -0.61904,-0.58865 -1.26855,-1.91883 -1.20003,-3.30004 -0.6766,-1.51395 -4.3066,1.42129 -3.60008,-1.20001 -1.18768,-1.15514 -1.47858,-1.79675 -0.60002,-3.30005 -1.9174,-0.68464 -0.72068,-1.77221 -1.80003,-2.70004 0.20758,-0.77011 1.57418,-2.267 -0.30002,-3.00004 -1.06102,-1.9279 2.77732,-0.73066 2.40007,-2.70003 1.56358,-0.80907 -1.3474,-0.8405 -0.90003,-1.80003 -0.38215,1.10088 -2.49289,-1.76035 -2.70006,-0.6 0.5915,0.60143 0.98919,2.51475 -0.60001,0.90001 -0.4191,-1.2821 -1.73948,-2.20222 -2.70008,-3.00003 -1.67095,0.37948 -3.73024,0.94676 -4.80011,0 -1.25483,-0.58155 -3.43348,0.62813 -3.60009,-1.50003 0.0155,-1.79316 -2.19907,-2.266 -0.24821,-4.00362 0.65602,-1.52403 2.11006,-2.5758 0.87012,-4.07459 -0.79311,-0.94644 -3.179,-0.93301 -4.82201,-1.22191 -1.27021,-0.4717 -1.79705,-2.20093 -1.50004,-4.20006 -1.13305,-0.77955 -0.95263,-2.7691 -1.20002,-3.90005 -1.23844,-1.00151 0.39639,-3.45275 -0.90003,-4.20005 -1.31372,-0.9354 -1.67928,-1.77252 -2.67817,-3.27816 -1.01363,-1.36947 -0.94408,-2.67521 -1.52193,-3.92194 -0.50193,-2.05155 2.0334,-2.7169 1.50004,-4.80006 -0.63849,-1.18447 -0.43504,-3.79009 -1.32441,-4.8732 -0.19641,-1.65026 -1.11749,-3.93275 0.12437,-5.02692 0.0629,-1.77773 -0.53195,-4.5327 1.80004,-4.20007 0.91606,0.94585 1.58538,-1.01663 3.00008,-0.3 0.32802,-0.86393 0.11062,-2.1131 -1.80004,-2.10002 -1.12628,-0.52078 -0.60149,-2.76421 0.3,-3.00004 1.00494,-0.25396 -1.38368,-2.52501 0.30001,-3.00004 0.26205,-1.32717 1.86618,0.62429 2.10005,-1.20002 -0.34606,-0.24806 8.1e-4,-1.57504 -2.40006,-1.50001 -1.36888,1.00442 -3.12771,0.18077 -3.90009,0 -1.19707,-2.41882 -1.52092,-0.17134 -2.10005,0.60001 0.82588,-0.76465 -0.90692,-1.93984 -2.10005,-2.40004 -1.16239,0.17226 -2.157,2.46453 -3.00007,1.50003 -0.79737,0.24911 -3.4468,0.81868 -3.90009,-0.60002 -1.3441,-2.22738 2.69736,-1.95581 1.22191,-3.27815 -0.36512,-0.84053 -2.18042,-1.82375 -2.42195,-3.02193 -0.93029,-0.54204 -2.36592,-1.68489 -3.00006,-2.70003 -0.61823,-0.78456 -3.80613,-1.06819 -3.60009,-1.50002 0.37358,-1.66505 3.25868,-0.78252 2.70006,-3.00004 -1.22217,-1.86545 1.40327,-2.04335 2.37817,-2.97815 0.58397,-0.0914 -0.15117,-2.72289 0.3219,-2.72193 -0.27822,-2.78811 1.00917,-1.85578 2.40006,-2.10002 -0.36003,-1.67478 1.483,-1.07518 0.90001,-2.10003"
               sodipodi:nodetypes="ccccccccccccccccccccccccccccccccccccccccccccccccccccccccccccccccccccccccccscccccccccccccccccccccccccccsccccccccccccccccccccccccccccccsccccccccccccccccc" />
            <path
               style="fill:#c8ffc8;fill-opacity:1;stroke:#000000;stroke-width:0.90000004000000000;stroke-linecap:round;stroke-linejoin:round;stroke-miterlimit:9.99670124000000020;stroke-opacity:1;stroke-dasharray:none"
               d="m 804.61531,597.90215 c -0.17422,0.0254 -0.54405,0.53797 -0.84375,0.65625 -1.72659,-0.37336 -1.0866,3.118 -2.6875,2.6875 -0.57005,0.53234 -0.37429,2.47891 -0.90625,4.1875 1.66517,1.00779 0.56563,1.95074 0.59375,3.625 -0.86281,1.03721 -1.9653,1.79092 -3.28125,2.375 -2.02881,1.39959 -0.96449,-3.18495 -2.71875,-1.1875 -0.55123,2.06771 -1.915,1.86258 -2.09375,0 -1.14718,-2.26845 -0.74077,-0.0311 -2.6875,-0.59375 -1.30544,0.98931 -3.10707,0.1503 -4.5,0.59375 -1.01096,0.40031 -3.64145,0.0163 -4.8125,-0.59375 -1.05781,-0.68031 -2.97831,-0.27696 -3.90625,-1.5 -0.91334,-1.33817 -3.0675,0.11504 -3,-2.40625 -1.48927,1.12632 -1.39821,2.45847 -3.28125,3.90625 -1.37448,2.43748 0.57398,3.16797 0.28125,4.78125 -0.65937,1.749 -2.55851,0.6287 -3.59375,2.40625 -0.49838,2.03862 -1.8487,1.51271 -3.90625,2.40625 -1.65359,-1.3618 -1.82154,0.50666 -3.4375,0.84375 -1.81299,-1.21308 -4.20187,-0.63265 -4.34375,1.25 -1.74089,0.55345 -2.58724,1.81569 -2.71875,3.59375 0.57004,2.69256 -2.91065,0.63178 -3.28125,-0.28125 -2.0007,-1.22869 -2.32659,-0.38419 -3.90625,1.5 -0.77478,2.15791 -3.12861,3.90899 -4.21875,6.28125 -1.68176,1.6768 -1.87034,5.86551 -4.1875,4.21875 -1.44726,-1.12681 -2.55007,0.39244 -3.3125,-1.5 -0.12941,-1.77062 -1.57551,-2.21196 -2.375,-3.3125 -1.56004,-1.49059 -3.94156,-3.74376 -4.5,-0.59375 -1.20439,1.31959 -1.36628,3.1983 -3,3.90625 1.00154,1.8179 -0.16231,2.32468 -1.8125,3 -1.47509,0.38134 -4.28686,1.19211 -2.6875,3.28125 l 0,0.3125 c 0.5299,1.97073 0.12243,2.62645 0.875,4.1875 -1.48658,0.91425 -2.31211,3.05244 -3.59375,4.875 -1.85025,1.80126 2.54306,1.8253 1.21875,2.9375 0.67084,1.39924 -0.35485,2.67209 -2.71875,2.09375 -0.38866,0.18953 -3.02806,1.26539 -3.59375,2.40625 -2.03551,0.0917 -2.18032,2.37426 -3.90625,0.90625 -1.07315,-0.54254 -3.34956,0.65351 -4.5,0 -2.90647,-1.45052 -1.99793,3.72645 -2.40625,5.6875 -0.57758,2.78548 2.77419,2.1025 3.625,2.09375 1.56115,0.23278 3.25545,1.56089 4.78125,0 0.83471,-0.87075 2.39969,-3.22107 3.3125,-2.375 0.0171,1.36261 -0.42129,1.73012 0.90625,3 1.36609,1.30481 -0.60955,2.23712 -1.21875,3.28125 -1.78082,0.14231 0.25517,3.34375 1.03125,2.90625 -0.0316,-0.0238 -0.0624,-0.066 -0.125,-0.1875 l 0.3125,0 c 0.0985,-0.0306 0.18129,-0.0201 0.28125,0 1.12858,0.22673 2.38804,3.41855 4.21875,4.1875 1.12903,2.09234 1.33826,4.96574 1.78125,5.6875 2.92819,1.67241 -0.63383,1.25449 -1.78125,0.625 -1.46245,-0.77421 -2.2624,-0.53694 -3.625,0 -1.05011,1.52358 -3.96706,-0.13842 -4.78125,2.09375 -1.5053,0.31222 -2.51696,-0.21531 -3.90625,1.78125 -2.07336,0.51047 -3.01337,0.3365 -3,2.125 0.0793,2.41126 2.32284,0.58631 3.3125,2.09375 0.63684,1.71878 2.09364,0.0383 2.375,2.40625 -0.004,1.33727 -0.16485,3.36465 -0.875,3.875 -0.94813,0.99926 -2.17706,2.37945 -3,3.625 -1.03535,1.39541 0.0271,2.46586 1.1875,3.59375 1.90556,0.096 4.1165,0.57295 4.8125,1.78125 1.81561,-0.51649 1.79504,-1.65379 1.1875,-3.28125 1.33297,-0.0161 1.70641,-1.38115 3.3125,-2.09375 1.55999,-0.34005 2.7266,-1.09211 3.59375,-2.125 1.38967,1.2157 1.90839,-0.20163 3.59375,0.3125 1.70528,-0.41196 3.08433,1.06137 2.09375,-1.5 -0.90357,-1.63763 1.76843,-1.59509 2.96875,-2.375 -0.0369,0.21194 1.65326,1.59199 1.84375,2.375 0.84265,0.0181 2.72895,0.0221 3.90625,-0.90625 1.91755,-0.084 2.69206,-1.22076 3.28125,-2.09375 1.20756,0.46907 2.46921,0.15601 4.5,0 1.29991,-0.63884 3.68518,-1.41273 4.21875,-2.6875 0.0781,-2.04962 1.38896,-1.9429 3.59375,-0.625 2.87277,0.69083 1.19401,1.46741 1.78125,3.3125 1.23264,0.97555 0.95939,3.6202 2.71875,3.3125 0.073,1.33862 0.30565,3.54353 0.59375,5.09375 2.101,0.36317 -0.70873,2.95799 0.90625,4.5 2.83766,-0.58574 5.2858,-2.2955 7.90625,-3.125 4.06086,-0.55793 7.65254,-2.28815 11,-4.6875 1.22335,1.80051 2.9153,1.46298 3.875,2.71875 0.91049,1.25395 2.225,2.17602 2.21875,4.65625 0.73959,2.94925 0.91956,4.14205 1.6875,1.34375 1.59498,0.12687 3.17985,1.20063 4.21875,1.1875 1.12717,-0.46391 1.0302,-3.4382 2.6875,-2.40625 0.65937,0.16011 2.40426,0.96372 3.59375,1.5 1.79779,0.89684 2.42512,0.0671 3.90625,0 1.53968,-0.88808 3.27879,0.33039 3.59375,-0.28125 2.451,-0.15106 2.61062,0.41175 4.5,0 0.90041,0.91995 2.86563,1.31403 3.90625,2.09375 1.14786,0.94285 3.04713,1.13087 3.90625,1.5 1.12176,-0.3512 2.73965,-0.28737 4.5,0 0.53619,0.3723 0.66971,0.34009 1.1875,0 0.99488,0.14444 3.37209,0.59644 3,2.09375 0.2514,1.95592 1.9875,0.74141 2.09375,3 0.75179,2.04506 1.5722,1.00681 3.3125,0.59375 2.05769,-1.38689 1.9459,2.08951 3.3125,1.21875 1.42659,-0.93007 3.76975,0.68999 4.5,-0.625 1.64515,1.13463 1.53112,-2.48656 3.28125,-1.1875 0.84911,0.27649 1.54315,0.89115 2.40625,-0.3125 1.37754,0.27986 1.80725,0.0614 3.3125,0 1.12117,-0.47918 2.721,-0.62195 3.59375,0.3125 1.29441,-0.1444 1.85082,-0.52086 2.09375,1.1875 0.98413,0.21009 1.2652,0.80685 2.6875,1.5 1.09195,0.0271 2.86633,0.17191 3.90625,-0.875 1.74625,0.28679 1.66316,1.55262 3,1.5 -0.76076,1.30904 -0.69747,2.36667 0.3125,3.28125 1.425,1.0849 2.22191,-0.22475 3.28125,-0.59375 1.95473,-1.39302 1.88901,0.65643 2.71875,1.8125 0.79986,1.06203 1.91554,2.42489 2.6875,3.59375 -1.97129,-0.008 -0.074,1.89134 0,3.28125 1.22051,1.55364 0.75226,3.01854 0.59375,3.90625 1.84514,0.0391 1.71456,-2.46613 3.625,-2.40625 1.21659,-0.35938 2.66365,-2.01716 3.875,-0.59375 0.64297,1.25706 2.55644,1.26228 3.90625,1.8125 1.3813,0.51874 1.48965,2.32906 2.71875,3 0.46472,1.08944 2.64487,1.59457 2.75,2.09375 2.81082,-0.38576 0.8347,0.87436 3.25,0.3125 1.73946,-0.44754 3.20038,-0.30124 4.1875,-0.90625 2.63821,-1.7125 1.62585,-1.15838 1.5,-1.21875 0.4913,-0.47449 1.2718,-0.47953 0.3125,-0.875 -1.56763,-0.57454 -1.90125,1.72537 -3.90625,1.78125 -2.00342,-0.13905 -0.4125,-2.60076 1.5,-2.09375 1.02764,-0.11613 3.36909,-0.048 2.6875,-0.90625 1.7127,-0.7423 2.90377,-2.375 5.40625,-2.09375 0.88161,0.30792 2.76506,-0.9388 3.90625,-1.8125 2.12775,-0.33235 0.85274,-2.99 3.3125,-3 -0.10213,-0.16335 -0.14882,-0.25025 -0.15625,-0.28125 0.21739,0.12458 1.44595,1.19283 3.15625,0.59375 -0.2129,-0.43731 -0.34509,-0.69035 -0.46875,-0.90625 0.17254,0.23276 0.4127,0.55405 0.75,0.90625 2.19698,-0.82529 2.2495,-1.02778 1.40625,-1.5 0.34405,0.13394 0.70109,0.19239 1,0 1.77185,-0.57623 0.36593,-0.0225 -0.59375,-0.53125 0.28041,0.10593 0.65532,0.0703 1.1875,-0.375 1.26491,-0.43876 1.97939,-3.4288 1.21875,-4.1875 -0.97779,-0.27538 1.23963,-0.0572 1.1875,-1.5 -0.0716,-0.0607 -0.0954,-0.0749 -0.15625,-0.125 0.5677,0.2957 1.352,0.47703 1.65625,-0.46875 1.73714,-0.23838 2.15118,-1.38529 1.96875,-1.71875 2.15303,1.20849 -1.10069,-2.52277 -1.375,-4 -0.555,-0.92981 -1.51662,-0.52365 -3.59375,-0.28125 -0.95941,-0.94063 -2.48801,-1.29945 -4.1875,-1.5 -2.9116,-0.57538 0.69647,-2.2049 -1.8125,-2.40625 -1.08516,0.33684 -2.459,-1.23375 -2.40625,-2.40625 -1.4667,-0.43334 -2.76322,-1.05549 -3.90625,-1.8125 0.0671,-1.39825 -3.89986,-2.30385 -1.1875,-2.6875 -0.69499,-1.23651 -2.00037,-1.94223 -3,-3.3125 -1.15077,-2.10317 2.32703,-0.76325 3.3125,-0.59375 1.65466,-0.41883 1.48129,-2.69044 2.375,-3.59375 -0.1005,-0.36765 -0.49856,-0.80313 -0.875,-0.90625 -1.32841,-0.57163 -0.81365,-2.97381 -2.40625,-3.28125 -0.0385,-2.50909 2.24349,-2.19218 3.59375,-3.3125 1.22534,-0.86536 3.10198,-1.07604 3.59375,-1.8125 2.00908,-0.95863 2.20087,-2.15863 3.3125,-3.59375 3.36934,-0.56011 0.0214,-3.13729 1.78125,-3.90625 2.828,-0.81101 0.0913,-1.9297 -0.59375,-0.875 -1.2221,0.23346 -1.20409,0.2461 -2.09375,1.78125 -1.03974,-0.41272 -1.60382,1.39662 -1.8125,1.5 -0.57266,0.0676 -1.14036,0.69689 -1.78125,0.90625 -0.52179,-1.2424 -3.4796,-0.35821 -1.8125,-2.40625 2.1143,-0.0846 1.0881,-2.35265 0,-3 -1.19628,0.0883 -3.68538,1.12594 -3.59375,-0.90625 2.81398,-0.61839 2.07549,-0.84282 1.5,-2.6875 0.51106,-1.38898 4.0082,0.22074 3.59375,-2.09375 0.56637,-1.1502 -0.37037,-3.1095 -0.90625,-3 -1.41202,-0.7702 -2.18349,1.36219 -3.59375,0.59375 -0.34805,-1.15934 -2.20886,-0.0899 -4.1875,-0.90625 -0.85239,-0.98397 -2.54342,-0.28684 -3.625,-1.5 -0.8648,-0.14744 -2.67818,-3.47976 -3.28125,-1.1875 -2.19989,1.97818 -2.4619,-2.73 -1.8125,-2.71875 -1.17379,-0.72625 -1.97841,-1.80905 -3,-2.6875 1.60155,-1.28199 -0.1767,-4.33534 -1.5,-4.8125 -2.54559,0.33719 -1.73973,-3.24125 -3.59375,-3.59375 0.6719,-0.68949 -2.5134,-3.01609 -1.1875,-3.90625 0.86132,-1.68078 -0.75911,-2.64015 -2.125,-3 -1.22759,-0.67245 -1.45295,-2.30326 -1.78125,-3.875 2.10831,-1.50928 0.89243,-3.94817 3,-5.40625 0.62151,-2.09224 2.10996,-2.62791 0.59375,-4.21875 -1.01708,-1.43826 3.29257,-2.46969 0,-3.875 -1.46161,-0.91629 -2.40564,-1.95204 -3.90625,-3.90625 -2.96009,0.40258 -0.23989,-2.00088 0.90625,-2.09375 0.78996,-1.29778 1.4225,-2.38862 1.5,-3.90625 1.29166,-1.41144 -0.7884,-2.49412 -1.5,-2.40625 -1.97286,-1.308 -1.77595,-0.83059 -4.1875,-0.3125 -0.17309,-1.69272 -2.68737,-2.00411 -2.71875,0 -0.38213,0.0185 -1.13544,1.11565 -2.6875,1.5 -1.86969,0.1966 -3.60666,-1.28499 -4.5,-2.375 -0.1125,-1.91124 -3.43001,-1.19943 -3.96875,-0.4375 -0.9787,-3.50884 -1.86654,-0.195 -3.84375,-0.1875 -2.39846,-0.76866 0.0431,-2.79074 -0.28125,-3.875 0.13816,-0.93488 -1.51241,-2.58935 -1.8125,-4.21875 -0.30355,-1.49764 0.3142,-3.51386 -2.40625,-3 -2.03515,-0.36951 -3.46485,1.59775 -4.5,1.5 -0.90709,-0.20427 -2.98575,0.8243 -3,-1.1875 0.45772,-1.23456 -2.60392,-1.07245 -3,-0.3125 -0.3808,1.722 -0.41736,3.68711 -2.6875,3.3125 -2.04351,0.62439 -1.8266,-0.30095 -3.59375,-1.21875 -0.56741,-1.74076 -0.93594,-3.7523 -3,-3 -1.70107,0.10638 -2.93082,1.20451 -3.90625,2.125 -2.532,0.277 -1.67721,-2.73736 -3.59375,-3 -1.93991,0.5618 -2.63911,-1.68724 -3.90625,0.875 -1.04649,1.57071 -2.68396,2.68962 -3.90625,1.21875 -1.34111,1.6474 -2.68236,-1.38187 -3.59375,0.59375 -0.96335,-1.6127 -1.0245,-2.21727 -3.3125,-2.6875 -1.43765,0.85059 -2.97214,-1.3395 -2.09375,-3 0.0682,-0.49299 0.042,-0.67148 -0.0625,-0.65625 z m -90.84375,75.65625 -0.28125,0 c -0.0461,0.10511 -0.11695,0.14773 -0.1875,0.1875 0.0949,0.0715 0.11966,-0.17728 0.46875,-0.1875 z m 196.09375,54.4375 c -0.015,-0.0372 0.20174,0.15051 0.46875,0.34375 -0.12347,-0.0669 -0.20891,-0.10948 -0.34375,-0.1875 -0.0701,-0.0863 -0.11906,-0.14156 -0.125,-0.15625 z"
               id="path6600" />
          </g>
        </g>
      </g>
    </g>
  </g>
</svg>
