<?xml version="1.0" encoding="UTF-8" standalone="no"?>
<!-- Created with Inkscape (http://www.inkscape.org/) -->

<svg
   xmlns:dc="http://purl.org/dc/elements/1.1/"
   xmlns:cc="http://creativecommons.org/ns#"
   xmlns:rdf="http://www.w3.org/1999/02/22-rdf-syntax-ns#"
   xmlns:svg="http://www.w3.org/2000/svg"
   xmlns="http://www.w3.org/2000/svg"
   xmlns:sodipodi="http://sodipodi.sourceforge.net/DTD/sodipodi-0.dtd"
   xmlns:inkscape="http://www.inkscape.org/namespaces/inkscape"
   width="205.90314"
   height="234.16396"
   id="svg3143"
   version="1.1"
   inkscape:version="0.47 r22583"
   sodipodi:docname="angus north.svg">
  <defs
     id="defs3145">
    <inkscape:perspective
       sodipodi:type="inkscape:persp3d"
       inkscape:vp_x="0 : 526.18109 : 1"
       inkscape:vp_y="0 : 1000 : 0"
       inkscape:vp_z="744.09448 : 526.18109 : 1"
       inkscape:persp3d-origin="372.04724 : 350.78739 : 1"
       id="perspective3151" />
    <inkscape:perspective
       id="perspective3128"
       inkscape:persp3d-origin="0.5 : 0.33333333 : 1"
       inkscape:vp_z="1 : 0.5 : 1"
       inkscape:vp_y="0 : 1000 : 0"
       inkscape:vp_x="0 : 0.5 : 1"
       sodipodi:type="inkscape:persp3d" />
    <inkscape:perspective
       id="perspective2850"
       inkscape:persp3d-origin="0.5 : 0.33333333 : 1"
       inkscape:vp_z="1 : 0.5 : 1"
       inkscape:vp_y="0 : 1000 : 0"
       inkscape:vp_x="0 : 0.5 : 1"
       sodipodi:type="inkscape:persp3d" />
  </defs>
  <sodipodi:namedview
     id="base"
     pagecolor="#ffffff"
     bordercolor="#666666"
     borderopacity="1.0"
     inkscape:pageopacity="0.0"
     inkscape:pageshadow="2"
     inkscape:zoom="3.3762344"
     inkscape:cx="59.139548"
     inkscape:cy="82.124893"
     inkscape:document-units="px"
     inkscape:current-layer="g7511"
     showgrid="false"
     inkscape:window-width="1600"
     inkscape:window-height="838"
     inkscape:window-x="-8"
     inkscape:window-y="-8"
     inkscape:window-maximized="1" />
  <metadata
     id="metadata3148">
    <rdf:RDF>
      <cc:Work
         rdf:about="">
        <dc:format>image/svg+xml</dc:format>
        <dc:type
           rdf:resource="http://purl.org/dc/dcmitype/StillImage" />
        <dc:title></dc:title>
      </cc:Work>
    </rdf:RDF>
  </metadata>
  <g
     inkscape:label="Layer 1"
     inkscape:groupmode="layer"
     id="layer1"
     transform="translate(-354.56539,-477.66037)">
    <g
       transform="matrix(0.78197393,0,0,0.78197393,-23.956986,165.96336)"
       style="fill:#c8ffc8;stroke:#000000;stroke-opacity:1;fill-opacity:1"
       id="g7511">
      <path
         style="fill:#c8ffc8;stroke:#000000;stroke-width:0.90000004000000000;stroke-linecap:round;stroke-linejoin:round;stroke-miterlimit:9.99670124000000020;stroke-opacity:1;stroke-dasharray:none;fill-opacity:1"
         d="m 707.67449,415.26358 c -0.0944,0.006 -0.2317,0.0888 -0.4375,0.3125 -0.694,1.35056 -1.9006,1.99865 -3.3125,2.40625 -0.9912,0.39296 -1.4134,1.07407 -1.9063,1.40625 -0.0985,0.0665 -0.2046,0.12087 -0.3124,0.15625 -0.2158,0.0708 -0.4701,0.0484 -0.7813,-0.0625 -0.9938,-0.57919 -1.2509,0.1441 -1.4375,1.03125 -0.1569,0.74585 -0.2646,1.59985 -0.6562,1.96875 -0.7866,0.43275 -1.217,-0.22035 -1.625,-0.96875 -0.3133,-0.57441 -0.5948,-1.21428 -1.0626,-1.4375 -1.0498,-1.67119 -1.1727,0.16354 -1.5,-1.1875 -0.3708,-1.80158 -1.8209,0.0215 -1.5,0.59375 -2.1252,-0.0921 -0.5528,2.66294 -3.00001,1.5 -0.8956,1.90089 -1.1486,-0.33546 -2.4062,0.90625 -0.5818,1.04625 -0.3509,2.29881 -0.5938,3.90625 0.0219,0.0229 0.042,0.0395 0.0626,0.0625 1.1252,1.2655 0.2915,2.7726 -1.5626,2.9375 -1.4202,-0.9495 -3.5684,0.1491 -3.3124,1.8125 -0.11787,1.44317 -0.8812,3.66884 -2.4376,2.21875 -1.9621,-0.0202 -1.8144,-2.26986 -3.5624,-2.21875 -0.8819,-0.87448 -1.8824,-1.50309 -3.3126,-1.8125 -1.1768,-1.6806 -2.3804,-0.16195 -3.875,-0.59375 -1.8079,0.68639 -1.4894,0.95361 -3.9062,0.59375 -2.1505,-0.55934 -3.3741,1.12551 -4.8125,0.3125 -2.1238,-0.1589 -0.6582,3.25512 -2.4063,3.28125 -1.4148,-0.37643 -2.822,2.77887 -3.2812,1.21875 -0.6042,0.3743 -2.3268,2.03602 -0.9062,2.375 1.7051,0.13126 1.142,1.6882 2.4062,2.71875 -0.1418,0.39275 -1.5156,1.21712 -3,0.90625 -1.3739,0.90574 -2.6436,0.8574 -4.2188,0.28125 -0.9707,0.92927 -2.6411,1.1463 -2.375,3.3125 1.3817,2.3709 -0.7675,1.32675 -1.5,1.1875 -0.8565,-1.1433 -2.2448,-1.5178 -3.9062,-0.59375 -0.8845,0.99352 -2.0315,2.15106 -3,1.5 -1.74951,-0.1505 -1.08426,-2.70325 -3,-2.6875 -0.22825,-2.0284 -2.432,-0.53766 -3,0.28125 -1.57291,0.29491 -2.58728,2.26121 -0.3125,2.40625 1.57894,-0.3672 2.4723,0.90274 3.59375,1.5 1.47169,0.19336 0.6236,2.17745 1.21875,2.6875 -1.61551,1.52337 0.82497,2.07394 1.1875,3.3125 -1.11792,0.94015 1.24553,0.14175 2.7187,0.59375 0.8028,1.19225 3.1141,0.22175 3.375,1.59375 0.836,1.51562 1.5434,1.3351 2.625,2.625 1.9038,0.39599 0.7681,2.58682 -1.2187,1.5 -1.7641,0.1359 -2.4431,1.3444 -3,2.6875 1.5612,0.77735 1.6598,1.9259 0,2.6875 -1.0646,1.15965 -0.2942,2.70335 0.9063,3.625 1.405,0.2475 2.7274,1.07732 3.9062,1.78125 1.4703,1.37921 1.4927,2.32217 3.2812,1.8125 1.4489,-0.38784 3.9941,-1.16273 2.7188,1.1875 -1.4682,0.61786 0.1666,1.13446 0.5938,2.71875 1.8104,1.62285 1.4015,-1.15679 3.3124,0 1.4735,0.36289 2.9496,-0.15055 3.5938,1.5 0.5577,1.9216 -0.5512,1.92796 -0.3125,3.59375 -0.4968,0.4547 -1.3765,2.01206 -1.5,3.59375 1.2981,0.747 0.2663,2.47089 1.5,3.59375 0.801,1.3259 1.04,-2.4737 2.4063,-0.28125 0.3187,1.58126 1.6926,2.09479 3.9062,1.78125 1.8723,-10e-4 2.3588,1.89396 1.5,3 0.5693,1.18126 -1.8676,2.90105 0,3.3125 1.5824,1.70081 -1.8357,1.13796 -2.4062,0.28125 -1.7543,-1.13745 -2.5092,1.21621 -3,1.5 0.1946,1.24883 -1.5607,1.84033 -2.4063,2.12499 -1.7892,0.18387 -0.8369,1.47547 0,2.09375 -0.2383,0.68584 -1.1911,3.00637 0.9063,2.40625 1.6005,0.0923 2.4306,-2.15215 3.5937,-1.5 1.6037,1.81193 1.6196,-0.8164 3.3125,0 1.3785,0.54654 1.2659,2.49642 2.4062,0.875 0.7539,-0.97775 -0.1821,2.9 0.2813,3 1.6378,-1.67267 1.3011,1.30525 2.0937,2.40625 2.1736,0.53625 0.6531,1.62682 2.125,2.40625 -0.12062,1.01607 1.2791,1.72 2.0938,1.8125 1.5483,-1.01078 1.3159,-1.18357 2.6875,-0.625 1.2905,-1.1382 1.6144,-1.2101 3.3125,-0.59375 0.3462,2.74993 1.2752,-0.6037 3,-0.28125 0.5888,0.55405 1.0825,0.74322 1.7812,1.5 0.3976,-0.64455 2.7688,-0.7474 3,-0.3125 -0.1807,1.43305 0.71681,1.94097 1.8126,2.40625 1.4121,0.44272 2.0227,2.91729 2.4062,1.5 1.0075,0.1488 2.35161,-0.53487 3,0.28125 1.2366,0.0154 1.47271,-1.2887 2.4062,-2.09375 -0.4195,-2.67213 1.9198,-0.8114 3.2813,-0.59375 1.65381,0.2462 2.73991,1.07885 4.2187,1.5 0.90681,1.75845 2.0283,0.9613 2.0938,-1.1875 0.0995,-1.51905 1.47,-2.27706 0.9062,-3 1.0491,-0.81787 0.3139,-1.72482 1.1876,-2.125 0.34561,-1.21872 0.7268,-2.39625 1.1874,-3.28125 0.3844,-0.67033 0.4944,-1.93175 1.2188,-2.71875 0.0247,-0.63145 0.8848,-2.2144 1.5,-3.59375 0.77751,-1.2526 0.9255,-2.05528 1.5,-2.99999 0.36911,-1.20084 1.9642,-2.052 2.0938,-3 -0.7896,-0.2043 0.6903,-1.70721 0.5937,-2.6875 0.0555,0.047 1.2405,-2.06245 2.0937,-1.8125 1.4897,-1.0196 0.0807,-0.84494 1.2188,-2.09375 0.9883,-0.30415 1.3764,-0.77513 0.9062,-1.1875 1.5352,-0.39549 0.62971,-1.07088 1.5,-1.21875 0.12463,-0.88064 0.9102,0.0199 0.5938,-0.90625 1.0786,-0.768 -0.2149,-0.99115 1.5,-1.78125 0.2617,-1.3027 -0.01,-0.76833 1.1875,-2.09375 0.5909,0.2663 1.0193,-1.28388 1.5,-1.21875 0.805,0.24335 1.1026,-1.41156 2.4063,-2.09375 -0.4569,0.13899 1.3753,-1.46119 0.9062,-1.1875 0.2372,-0.72695 0.4661,-0.101 0.9062,-0.625 0.5655,-0.29629 -0.4412,-0.80783 0,-1.5 0.6703,0.0135 -0.6329,-2.03855 0.5938,-3.28125 0.9073,-0.44999 2.0653,-0.27006 2.0938,0 0.5361,-1.483 0.0128,-0.0433 1.1874,-1.5 -0.2722,-0.31025 -0.2258,-0.13653 -0.2812,-0.59375 0.5636,-1.15314 0.9567,-0.7847 0.9062,-1.21875 1.4799,-1.30029 0.5359,-1.0212 1.1876,-1.5 -0.6333,-0.9137 -0.2777,-0.36125 -0.3126,-1.1875 -0.1329,-0.42125 1.7905,-1.29675 1.5,-1.8125 -0.3538,0.20722 0.1478,-0.79338 0.625,-0.90625 1.1801,-0.3545 -0.3217,-1.67644 -0.625,-3.28125 -1.5912,-0.30883 -2.6382,-1.14919 -4.1874,-1.5 -0.6163,-0.43388 -2.8415,-0.5826 -3.3126,-1.8125 -0.8544,-1.0354 -1.5807,-2.36914 -1.7812,-3.90625 -1.8861,-1.47975 0.7046,-1.50068 0.9062,-3 0.6414,-1.25868 1.515,-2.24125 2.375,-3.28125 0.2792,-0.90441 -2.7992,-0.70334 -2.375,-2.71875 0.5289,-2.65171 -2.0262,-1.38505 -2.7187,-0.59375 -0.9642,1.1234 -1.9886,0.46104 -2.0937,1.21875 -0.6682,-0.6814 -2.8305,-0.0925 -3,-1.5 0.1287,-1.9651 -1.8376,-0.96141 -2.0938,-3 0.793,-1.13565 -0.3747,-2.4898 0.5938,-3.90625 0.2313,0.11275 1.8949,-2.9493 0.5937,-3.3125 -2.2382,-0.59939 -1.4833,-1.82705 -1.1875,-2.6875 -0.1297,-1.24996 0.4772,-1.7861 -0.5938,-3.3125 0.6437,-0.4246 -2.8356,-0.8361 -2.7187,-1.1875 -1.527,0.48014 -2.4593,-0.59255 -3.2813,1.1875 -0.7474,1.5112 -2.4827,0.90861 -3.3124,0.59375 -0.7117,0.18544 -2.2339,-0.72978 -3.5938,-1.5 -1.0934,-0.48874 0.8913,-3.09574 -0.3125,-4.1875 0.5063,-2.03365 0.6681,-2.97591 -1.1875,-3.3125 -1.036,0.34551 -0.6533,-1.24751 -1.0625,-1.21875 z"
         id="path6550" />
      <path
         style="fill:#c8ffc8;stroke:#000000;stroke-width:0.90028576999999999;stroke-linecap:round;stroke-linejoin:round;stroke-miterlimit:9.99670124000000020;stroke-opacity:1;stroke-dasharray:none;fill-opacity:1"
         d="m 707.25928,544.87829 c -0.39746,0.65382 -0.49336,-0.16102 0,0 z m 0.60001,-1.80003 c 0,-0.3498 0,-0.10937 0,0 z m -10.20025,-11.40015 c 0.92695,0.49056 0.28014,0.39626 0.30002,1.20003 0.44078,0.0979 0.29063,0.78671 0.90002,0.71601 0.29675,0.43242 0.39035,1.32144 0.90001,1.38401 0.17447,0.52889 0.55942,0.5685 0.90003,1.20001 0.63974,-10e-4 0.45435,0.82302 0.90002,1.01603 -0.20512,0.98454 0.42998,0.81597 0.60002,0.25197 0.114,-0.40508 0.40163,-1.08278 1.13205,-0.968 0.51142,0.26292 0.79797,0.39935 1.26801,0 0.627,-0.0112 0.15209,-1.12526 0.3,-1.61602 -0.009,-0.64733 0.49669,-0.78068 0.83204,-1.084 0.24852,0 0.39863,0 1.26801,0 0.53649,-0.0449 1.39752,-0.18751 1.50004,-0.60001 0.57026,-0.0684 0.45877,-0.8186 1.31603,-0.60002 1.66487,-0.002 3.32244,-0.20867 4.98412,-0.3 0.28937,0.34932 0.3706,0.90677 0.30001,1.61604 -0.0337,1.19205 0.0688,2.41625 -0.0519,3.58779 -0.76048,1.79377 -2.00667,3.30237 -2.94818,4.99631 -1.40004,0 -2.80007,0 -4.2001,0 0.21833,0.83159 -0.37489,0.29794 0,0.71601 0.13096,-0.33856 -0.27687,1.15449 0.23202,0.484 0.26956,0.57764 -0.80235,0.39588 -0.83204,0.90002 0.341,0.0666 -0.10112,0.0793 -0.116,0.3 -0.54422,-0.52547 0.23328,0.5524 -0.484,0 0.33354,0.49123 0.2658,0.22495 0,0.90001 0.42174,-0.0741 0.14652,0.0811 0,0.71602 -0.16891,0.20785 -1.32787,0.50322 -0.668,0.784 0.305,0.39057 -0.33097,-0.0275 0.068,0.6 -0.68273,-0.0695 -0.66841,0.005 -0.3,0.41603 -0.25068,0.42065 -0.78505,0.64751 -0.60001,0.71601 -0.41061,0.36645 -0.0449,1.09289 0,0.66799 0.60971,0.44021 -0.0734,-0.004 0,0.71602 0.26685,0.78207 0.051,0.36639 -0.30001,1.01603 -0.75235,0.0246 -0.61764,0.52005 -0.60001,0.068 -0.24144,-0.0279 -0.18964,0.6625 -0.484,0.60001 0.14006,0.104 -0.59079,0.20288 -0.116,0.6 -0.20955,-0.34396 -0.006,0.8876 -0.068,0.60001 -0.0865,0.64108 0.0727,0.17028 -0.53203,0 0.0734,0.71205 0.0591,1.33647 -0.60001,1.31603 -0.52124,0.39667 0.26536,-0.004 -0.23203,0.484 0.0662,0.46637 -0.4021,-0.0515 -0.368,0.3 -0.84601,0.0857 0.36308,1.04409 -0.18398,0.90001 0.34745,0.57043 -0.27032,5.9e-4 0.18398,0.53203 -0.75235,0.28992 -0.61763,-0.47297 -0.60001,0.068 0.36488,0.27588 -0.67307,0.30441 -0.41601,0.3 -0.44959,0.11237 0.41579,0.67906 -0.068,0.60001 0.0276,-0.25053 -0.29753,0.0266 -0.34804,0 -0.45917,0.32149 0.0269,0.44175 -0.068,0.784 -0.38547,-0.55255 -0.59207,0.81294 -0.3,0.6 -0.57044,-0.34745 -6e-4,0.27031 -0.53204,-0.18399 -0.30363,0.73863 0.30118,0.44584 -0.36798,0.3 -0.48115,0.0126 -0.30997,1.40138 -0.60002,0.71603 -0.0484,0.85626 -0.31816,-0.22295 0,0.784 -0.82688,-0.55558 0.11425,0.49548 -0.082,0.51797 -0.27268,-0.34317 -0.24267,0.66193 -0.81798,0.49805 0.27056,1.0249 -1.0504,-0.23449 -0.36799,0.48399 -0.0517,-0.0365 -1.04579,0.80191 -0.53203,0.60001 -0.13532,0.62734 -0.25023,0.21323 -0.30001,0.60001 -0.35044,0.69949 0.0125,-0.0649 -0.116,0.6 0.14335,-0.031 -0.19081,0.36838 0.116,0.41603 0.20513,0.72035 -0.43,-0.11463 -0.60001,0.71601 -0.2456,0.15729 -0.26744,0.0235 0,0.068 -0.37231,0.56726 -0.13671,0.67135 -0.116,0.60001 0.14335,-0.031 -0.1908,0.36835 0.116,0.41602 -0.42695,0.32742 -0.0624,0.75348 -0.30001,0.55197 -0.26592,-0.25051 -0.59685,1.25084 -0.90002,0.23203 -0.74381,0.16298 -0.72563,-0.60524 -1.50003,-0.6 -0.80003,0 -1.60004,0 -2.40007,0 0.033,0.93976 -0.90355,-0.78318 -0.90002,0 -0.41377,-0.87079 -1.00776,0.65961 -1.20003,-0.30002 -0.49776,-0.14092 -0.67579,-0.60157 -1.01604,-0.90001 -0.66952,0.0174 -1.31095,0.31854 -1.98404,0.30001 -0.1409,-0.49777 -0.6016,-0.67576 -0.90001,-1.01602 -0.13939,0.0112 -0.55771,-0.26963 -1.31605,-0.18399 -0.64732,-0.27056 -0.78067,1.0504 -1.08401,0.36798 -0.50183,-0.5679 -0.41989,-0.0684 -1.20003,-0.068 0.13314,-0.77183 -0.46016,-0.8172 -0.90002,-1.01603 -0.38164,-0.25704 -0.50818,-0.76919 -0.83204,-1.084 -0.15732,-0.46535 -0.0235,-1.22179 -0.068,-1.80002 -0.26794,-0.21799 -1.27647,-0.30784 -0.784,-0.90002 0.60565,-0.033 0.27738,-0.99998 0.71603,-1.20001 0.40253,-0.4881 -0.0554,-0.2481 0.36798,-0.90001 1.28584,0.33942 -0.21372,-0.92879 0.60002,-0.90001 0.55063,0.0648 0.30556,-1.27875 0.184,-1.50003 0.16718,0.0694 -0.44659,-0.57287 -0.48402,-1.01602 -0.452,-0.58934 -0.49247,-0.19975 -0.3,-1.01603 -0.18277,-0.4399 -0.43008,-0.81525 -0.30001,-1.568 -0.33575,-0.60334 -0.3365,-1.23936 -0.60001,-1.80001 -0.0764,-0.41734 0.15347,-1.86483 -0.116,-1.20003 -0.84,0.20133 -0.98481,-0.29255 -1.61605,-0.3 -0.79593,-0.18706 -0.51294,-0.64481 -0.068,-0.83203 0.67517,0.0525 0.67146,-0.57389 1.20002,-0.66799 0.49388,-0.1448 0.61225,-0.66511 1.20003,-0.71601 0.50069,-0.4186 0.38505,0.0474 0.41602,-0.484 0.2615,-0.2065 0.30002,-1.31482 1.08402,-1.20002 0.21497,-0.27095 0.52042,-1.06388 0.184,-1.50002 -0.77814,-0.23814 0.30781,-0.57001 -0.71603,-0.6 -0.1346,0.64245 -0.99725,0.14045 -0.96801,-0.30001 -0.47656,0.1289 -0.38674,0.15902 -0.90001,0.184 -0.28354,-0.47084 -0.97342,0.15748 -1.20004,0.34803 -0.70359,0.15775 -1.6994,0.0233 -2.51606,0.068 -0.70904,0.0704 -1.26169,-0.0156 -1.38403,-0.53202 -0.0341,-0.58861 -0.5012,-0.74414 -1.20002,-0.66799 0.0925,-0.67332 -1.42683,0.096 -1.20004,-0.90001 0.0127,-0.62598 0.30229,-0.97508 0.60001,-1.31603 0.0454,-0.59328 0.4034,-0.87397 0.60003,-1.31603 0,-0.72267 0,-1.44534 0,-2.168 -0.62402,-0.009 -0.36469,-1.33787 0.41601,-0.90002 0.446,0.19268 1.07325,0.20413 1.38402,0.53203 0.35548,0.2672 0.74462,0.50074 0.90003,0.96799 0.44079,0.0979 0.29062,0.78673 0.90001,0.71602 0.22571,0.41298 1.20414,0.0733 1.73206,0.18399 0.73495,0.48644 0.41943,0.0207 0.96802,-0.3 0.57025,-0.0685 0.45877,-0.81859 1.31603,-0.60001 0.59328,-0.0454 0.87398,-0.40338 1.31604,-0.6 0.0855,0.77478 0.89515,0.62205 0.968,0.068 0.0365,-0.65912 -0.80189,-0.44344 -0.60001,-1.26799 0.14781,-0.61994 0.41204,-1.10789 0.60001,-1.50003 -10e-4,-0.63971 0.823,-0.45436 1.01604,-0.90001 0.38801,-0.62825 0.49232,0.23013 1.31604,0 0.75665,0.13398 0.71905,-0.5263 1.56802,-0.3 0.49611,0.59228 1.41019,0.1755 2.10005,0.3 0.5623,0.0764 1.43084,-0.15347 1.80004,0.116 0.22572,0.41298 1.20414,0.0733 1.73207,0.18399 0.46396,0.13397 1.36847,-0.5263 0.96801,-0.3 -0.0647,-0.70339 1.27875,10e-4 1.50002,-0.41601 -0.14341,-0.0439 0.91099,0.2199 0.90003,0.64803 0.60465,0.14493 0.97217,-0.17803 0.60001,-0.53202 0.70001,0 1.40004,0 2.10005,0 0,-0.6635 0,0.36854 0,-0.30001 z"
         id="path6552" />
      <path
         style="fill:#c8ffc8;stroke:#000000;stroke-width:0.90000004000000000;stroke-linecap:round;stroke-linejoin:round;stroke-miterlimit:9.99670124000000020;stroke-opacity:1;stroke-dasharray:none;fill-opacity:1"
         d="m 686.9005,511.48077 c -0.57019,-0.51386 -0.45838,0.084 -1.31492,0 -0.78931,0.0635 -0.69555,0.77663 -1.08515,1.01489 -0.42727,0.2404 -0.77595,0.66106 -1.12978,0.18513 -0.01,-0.61315 -0.1005,-1.14633 -0.97027,-0.90002 -0.39843,-0.95347 -0.1025,0.72687 -0.60001,0.90002 -0.2886,0.19851 -0.30102,1.27941 -0.48514,1.20001 0.42983,0.23785 0.15418,1.28284 -0.11487,1.42977 0.0594,0.83352 -0.50279,0.69753 0,1.27027 1.065,-0.13215 0.22019,0.45801 0.18512,0.90001 -0.61556,0.30859 0.39785,1.01269 0.11488,1.61489 -0.13891,0.46273 -1.42124,0.0675 -1.50004,0 -0.14527,0.36302 -0.76315,0.78807 -0.43755,1.24761 0.34598,0.47466 0.45833,0.85779 0.73756,1.26731 0.25585,0.36758 0.12313,1.12378 0.90003,0.97025 -0.12976,0.76806 0.52411,0.75249 0.71489,1.20001 0.0957,0.2826 0.85548,0.97034 0.25537,1.20003 0.0933,0.20499 0.0987,1.09946 0.82978,0.90001 -0.0326,0.61363 0.90312,0.42754 0.90002,1.20001 0.0131,0.62518 0.3012,0.9754 0.60001,1.31489 0.15805,0.57583 0.4789,0.926 -0.30001,1.20001 0.1431,0.78522 -0.64957,0.9237 -0.60001,1.50003 -0.10725,0.27107 -0.84358,0.98225 -0.37025,1.08514 0.19522,-0.69764 0.52492,0.33016 1.27027,0 0.67625,0.1135 0.80188,-0.62664 1.58128,-0.21878 0.48994,0.4582 1.3138,0.11025 1.94856,0.21878 0.62343,0 1.24686,0 1.87029,0 0.0112,0.62672 1.12434,0.15227 1.61492,0.3 0.56772,0.18943 1.31893,-0.50689 1.1554,-0.3 -0.26465,-0.56293 1.00235,-0.19588 1.42978,-0.3 -0.20976,-0.40543 0.75234,0.21971 0.90003,0.41487 0.31196,0.47456 1.13077,-0.15832 0.60001,-0.34464 0.5606,-0.16282 1.42271,-0.0241 2.10005,-0.0702 -0.41622,-0.60906 0.726,0.36844 0.35633,-0.2437 -0.13029,-0.67258 -0.0195,-1.44501 -0.0564,-2.15633 0.57016,-0.0681 0.4584,-0.81822 1.3149,-0.6 0.5083,-0.13002 1.55123,0.2746 1.68518,-0.22977 0.43442,-0.17021 1.10783,-0.71678 1.3149,-0.97026 0.80755,0.25996 -0.0489,-0.52274 -0.11488,-0.82976 -0.49911,-0.12438 -0.4206,-0.82625 -1.20002,-0.67025 -0.47402,-0.0131 -1.27925,-0.3012 -1.08517,-0.60001 0.0228,0.11887 0.19684,-0.49107 0.48514,0.22976 0.4493,0.15107 1.0211,-0.17714 1.20004,-0.52976 0.69486,-0.0827 0.97051,-0.29632 0.90002,-0.18513 0.37833,0.25998 0.51082,0.76579 0.82978,1.08514 0.0665,0.86149 1.29937,-0.20493 0.37025,-0.3 0.0636,-0.69488 -0.73238,-0.97049 0.41487,-0.90001 0.64879,-0.10613 0.70875,0.70356 1.50004,0.6 1.01719,0 0.2628,0 1.31493,0 0.27057,-0.50357 0.50163,-0.69863 0.97026,-0.3 0.1581,-0.78794 0.11637,-0.59928 0,-1.50003 0.24867,-0.89492 -0.0736,0.54916 0.3,-0.6 0.0741,-0.7074 0.36587,-1.0319 0,-0.71489 -0.1245,-0.64888 0.31967,-1.2399 0.41489,-1.68515 0.41497,-0.18857 -0.0141,-0.0905 0.48513,-0.90001 -0.78596,0.49495 0.16533,-0.45257 0,-0.90001 0.0155,-0.62279 0.36733,-0.90928 0.41489,-1.50001 0.61926,-0.42728 -0.35272,-0.77597 -0.41489,-1.12978 -0.75941,0.13599 -0.82173,-0.42511 -1.20002,-0.67025 -0.23444,-0.40386 -0.67321,-0.60339 -1.3149,-0.60001 -0.84243,0.20412 -0.84993,-0.42669 -1.31493,-0.6 -0.0248,-0.67703 -1.1877,0.0566 -1.51397,-0.54371 -0.64645,-0.0563 -1.22461,-0.04 -1.55634,-0.3563 -0.6228,0.13567 -0.90929,-0.67117 -1.50004,-0.18514 -0.13001,0.5083 0.27462,1.55121 -0.22976,1.68515 0.0974,0.4282 -1.17414,0.72194 -0.67026,0.60001 0.12425,0.63949 -0.58845,0.92934 -0.90001,1.20001 -0.33182,-0.42666 -0.5422,0.30404 -1.20004,-0.11487 0.53149,-0.31941 -0.43273,-0.46645 -0.90001,-0.18513 -0.11988,-0.79801 -0.91149,0.37062 -1.20004,0.3 -0.36419,-0.53362 -0.14909,-0.0793 -0.60001,0.11488 -0.2483,0.44032 -0.78543,-0.34325 -0.60002,-0.94464 -0.35125,-0.27216 -0.77486,-0.47199 -1.20002,-0.67025 -0.49883,-0.39585 -1.12538,-0.60214 -1.4298,-0.90001 -0.12425,-0.49913 -0.82625,-0.42059 -0.67025,-1.20003 0.0696,-0.5616 -0.005,-1.70775 -0.41489,-0.9 -0.21524,0.45244 -1.07832,0.35873 -1.31492,0 -0.55733,0.37393 -0.56938,0.0576 -0.97026,0.11488 0.14049,0.927 -0.77205,0.2004 -0.60002,-0.34464 -0.35283,-0.34714 -0.74522,1.10224 -0.90002,0.22976 0,-0.3 0,-0.60001 0,-0.90001 z"
         id="path6554" />
      <path
         style="fill:#c8ffc8;stroke:#000000;stroke-width:0.90028576999999999;stroke-linecap:round;stroke-linejoin:round;stroke-miterlimit:9.99670124000000020;stroke-opacity:1;stroke-dasharray:none;fill-opacity:1"
         d="m 707.8706,524.67487 c -0.0509,0.22243 0.1529,0.69964 -0.2263,0.59375 0.0329,-0.17882 -0.288,-0.54223 -0.3674,-0.17671 0.0125,0.28413 -0.428,0.11588 -0.3579,0.45796 -0.5786,0 -1.1573,0 -1.7359,0 -0.12087,-0.2784 -0.5139,-0.2244 -0.5938,-0.37177 0.10075,-0.38311 -0.3991,-0.1656 -0.625,-0.22198 -0.2224,0.0509 -0.6996,-0.15291 -0.5937,0.22633 0.1698,0.10212 0.4248,0.119 0.3125,0.50321 -0.0222,0.29414 0.4602,0.0836 0.2812,0.53448 0.11925,0.38213 -0.3345,0.19132 -0.5528,0.23598 0.0954,-0.35686 -0.3618,-0.16116 -0.3222,-0.4623 0.11863,-0.40088 -0.1379,-0.42667 -0.3124,-0.53447 0.0835,-0.35545 -0.5027,-0.0411 -0.3126,-0.50323 -0.457,-0.1837 -0.1055,0.44118 -0.5075,0.3125 -0.4309,-0.16937 -0.2702,0.25284 -0.5033,0.28125 -0.3421,-0.0597 -0.5469,0.0178 -0.5345,0.3125 -0.2463,0.027 -0.6727,-0.12602 -0.5484,0.27158 0.178,0.0939 0.5281,0.0156 0.7748,0.0409 0.3842,-0.11225 0.4205,0.12325 0.5344,0.28125 0.3555,-0.0835 0.0413,0.50263 0.5033,0.3125 -0.1789,0.4418 0.4121,0.11375 0.2812,0.50758 0.1574,0.4293 -0.2332,0.31061 -0.2812,0.53446 0.0176,0.27559 -0.4793,0.0586 -0.5548,0.41459 -0.1832,0.19335 -0.3714,0.4045 -0.664,0.32462 0.1253,0.39864 -0.2342,0.31247 -0.5075,0.3125 -0.6225,0 -1.245,0 -1.8675,0 0.1854,0.4691 -0.4223,0.14517 -0.3124,0.53883 -0.242,0.03 -0.3991,0.14479 -0.3126,0.50321 0,0.54849 0,1.09698 0,1.64546 0.1932,0.12577 0.4892,0.5174 0.2221,0.625 -0.3753,-0.10325 -0.1694,0.37448 -0.2221,0.59375 0.3987,-0.12528 0.3126,0.23418 0.3126,0.50758 0.0125,0.2595 0.6579,-0.11413 0.5937,0.22196 -0.0847,0.31226 0.4424,0.35195 0.3125,0.68429 0.115,0.21541 0.3403,0.45514 0.3265,0.67992 0.4414,-0.15765 0.0935,0.47408 0.5389,0.3125 -0.0956,0.35704 0.3619,0.16108 0.3221,0.4623 0.008,0.25487 0.3235,0.47882 0.5841,0.4127 -0.1621,0.43398 0.3726,0.17123 0.3222,0.49355 -0.1311,0.40297 0.156,0.38779 0.3124,0.50323 0,0.2719 0,0.54381 0,0.81572 0.4571,0.1837 0.10563,-0.44112 0.5076,-0.3125 0.2553,-0.0166 -0.10837,-0.65222 0.222,-0.59375 0.2661,0.0228 0.0711,-0.4525 0.4015,-0.53726 0.2325,-0.12655 0.5599,-0.0238 0.8313,-0.0565 0.2166,0.0553 0.076,0.46774 0.5031,0.3125 0.388,0.10575 0.0667,-0.49797 0.5345,-0.3125 0.4061,0.13276 0.2586,-0.28817 0.2813,-0.53882 0,-0.5183 0,-1.03662 0,-1.55493 0.4692,0.18538 0.1451,-0.42241 0.5388,-0.3125 0.0172,-0.24426 0.1705,-0.3525 0.5033,-0.28125 0.5589,0 1.1177,0 1.6766,0 0.1586,-0.26035 0.3811,-0.37692 0.6843,-0.3125 0.3554,0.0834 0.0413,-0.50265 0.5033,-0.3125 -0.1837,-0.45701 0.4411,-0.10562 0.3124,-0.50757 0.0823,-0.18963 0.5083,-0.0355 0.7296,-0.0861 1.4942,0.005 2.9822,-0.17244 4.4737,-0.24872 0.2822,0.041 0.6612,-0.0592 0.439,-0.34503 -0.4414,0.15765 -0.0935,-0.47407 -0.5389,-0.3125 0.0673,-0.27435 -0.1673,-0.44741 -0.3541,-0.62575 -0.207,-0.17614 -0.3779,-0.439 -0.607,-0.56175 -0.4414,0.15765 -0.0935,-0.47407 -0.5389,-0.3125 -0.4404,0.17898 -0.1783,-0.34465 -0.5032,-0.28125 -0.3001,0.0473 -0.566,-0.0437 -0.8132,-0.2108 -0.3295,-0.0718 -0.1455,-0.45356 -0.1932,-0.69545 0.0125,-0.90829 -0.0247,-1.82716 0.0186,-2.72877 0.1466,-0.31769 0.3301,-0.62747 0.2626,-0.9911 0.0112,-0.2731 0.0685,-0.5915 -0.3168,-0.46763 -1.0923,0 -2.1846,0 -3.2769,0 z m -7.5,1.1875 c 0.1253,-0.39868 -0.2343,-0.31243 -0.5076,-0.3125 -0.2889,0.18728 0.0692,0.42483 0.3621,0.3125 0.0485,0 0.097,0 0.1455,0 z"
         id="path6556" />
      <path
         id="path6506"
         style="fill:#c8ffc8;stroke:#000000;stroke-width:0.90000004000000000;stroke-linecap:round;stroke-linejoin:round;stroke-miterlimit:9.99670124000000020;stroke-opacity:1;stroke-dasharray:none;fill-opacity:1"
         d="m 723.7169,426.97143 c -0.086,-0.87475 0.077,-3.0265 -1.50004,-2.4 -1.18913,-0.929 -2.40135,-1.25275 -3.30007,-0.60013 -1.35906,-0.73362 -2.24111,1.268 -3.00008,2.10013 -2.02301,-0.76925 -1.96287,-0.46413 -3.60008,-0.9 -0.94733,-0.79175 -3.61993,-1.17313 -2.10005,-2.70013 0.01,-2.19712 -0.38632,-3.12162 0,-5.1 0.0874,-0.20612 -2.81368,-1.40862 -2.70007,-1.8 -0.97732,1.02025 -2.01607,1.892 -3.30007,2.4 -1.62598,0.42725 -2.19161,1.83063 -3.00008,1.5 -2.07748,-1.2095 -1.45612,1.87263 -2.40005,2.7 -1.15478,1.72438 -1.40882,-1.75725 -2.70007,-1.8 -0.87416,-1.87887 -1.086,-0.544 -1.50003,-1.2 0.40173,-2.02462 -2.45336,-0.74125 -1.20003,0.3 -2.47834,-0.47225 -0.80168,2.65813 -3.00007,1.5 -1.33655,1.61613 -1.28393,-0.0612 -2.63974,0.83975 -0.70832,0.99525 -0.37955,2.25375 -0.66035,3.66038 0.8367,1.44525 0.80603,2.89487 -1.20002,3.3 -1.41665,-0.767 -3.67885,-0.13775 -3.60009,1.5 -0.0853,1.44675 -0.74786,4.08737 -2.40321,2.5485 -1.96055,-0.0713 -1.87727,-2.2705 -3.59693,-2.2485 -0.75339,-1.14663 -2.51429,-1.28575 -3.60009,-2.1 -1.63558,-1.32588 -2.17055,0.27675 -4.2001,-0.3 -0.98297,1.31 -1.55771,0.50237 -3.9001,0.6 -2.19743,-0.3125 -2.93682,1.10062 -4.80011,0.3 -1.17057,0.97987 -0.41642,3.39637 -2.10005,3.6 -2.04176,-0.149 -2.43804,2.23075 -3.30007,1.20012 -0.68714,-0.0163 -2.17924,2.56013 0,2.1 0.61308,0.71475 1.11778,1.93713 2.10005,3 -1.45382,0.282 -2.04082,0.61563 -3.60009,0.9 -1.80823,0.8435 -2.4592,0.1415 -4.50011,0 -0.22433,1.4705 -2.82479,1.44275 -1.56037,3.83975 1.00792,2.00875 -1.68128,0.648 -2.03972,0.36038 -0.78939,-1.36388 -2.73615,-0.79338 -3.90009,0 -0.79096,1.24162 -2.21262,1.75437 -3.00007,0.9 -1.48375,-0.51975 -1.33625,-2.307 -2.93974,-2.93975 -0.46479,-1.19038 -2.63138,0.285 -3.0604,1.13962 -1.44498,0.76913 -2.64911,1.11988 -3.00008,2.70013 -0.76202,1.3325 -2.29935,-1.32263 -2.63973,1.43962 -0.18085,0.59338 -3.59539,0.44475 -3.66042,-0.83962 -1.24983,-0.24325 -3.04953,-1.77713 -1.50003,-3 -1.53639,-0.91113 -2.62098,0.888 -3.30008,1.8 -0.44812,1.96312 -2.45046,0.0975 -3.00007,-0.9 -1.01893,-0.88113 -2.37324,-1.42688 -1.80005,-3.90013 -0.38052,-1.64225 -2.02897,-1.72625 -3.30008,-0.6 -1.49572,0.23088 -2.45997,1.99488 -4.13976,0.66038 -1.19461,-0.65113 -2.03863,-2.84463 -0.96036,-3.66038 0.75593,-1.08937 -2.87245,0.562 -3.00007,-0.9 0.60588,-1.38 1.03082,-2.90762 0.3,-4.20012 0.52339,-1.1335 -0.71657,-3.02988 -0.90002,-3.6 0.36044,-1.57738 0.35156,-0.7395 0.60002,-3.3 -0.5135,-1.15825 1.15039,-2.9315 -0.90002,-2.70013 -1.38661,1.597 -2.96041,1.028 -2.70006,-1.2 0.68158,-1.13312 -2.278,-0.61487 -0.66035,-2.93962 1.16195,-0.212 -1.29407,-1.775 -1.1397,-3.06038 0.0931,-1.99325 -1.49595,-2.30412 -2.40005,-3.30012 -1.31894,-1.14775 -2.39622,-0.3085 -2.10005,-3 -1.46618,0.42425 -1.25638,-2.40375 -0.58568,-1.47138 1.31058,-1.14362 2.02824,-1.222 2.98573,-1.52862 -0.17484,-0.72638 1.04475,0.52275 2.10321,-0.75163 0.73742,-1.33587 0.82916,-0.10875 2.93657,-1.28812 1.0835,-1.11338 -0.0794,-2.00238 1.86038,-2.46038 -0.32615,0.479 1.64954,-0.76062 1.50004,0 0.12895,0.30275 1.37026,-2.0775 1.20003,-0.3 1.50885,-0.92175 1.42309,-0.025 2.40005,-1.5 0.40675,0.14113 0.62414,0.75775 1.20003,0.3 0.785,0.54275 0.30307,-0.1955 1.20004,-0.3 1.00252,-0.72962 0.39987,0.03 1.24308,-0.015 0.91799,0.62825 0.14547,0.75288 0.55695,1.51438 0.9189,1.17987 1.94015,1.91912 3.30009,1.2 1.45549,-0.931 1.33845,0.0987 2.70006,-0.6 1.07355,-1.82063 1.1638,0.72087 2.40005,0.9 0.49632,0.39487 1.18394,0.36975 1.50004,0 -0.27731,0.79362 1.76439,-0.647 0.90003,0.6 0.31222,0.20487 1.0076,-0.065 1.50003,0.6 -0.25427,0.0138 0.50688,2.19537 1.50004,1.2 -0.29805,0.0362 1.05985,-1.0475 0.90001,-0.6 0.45285,-0.19738 1.40609,-1.83563 1.80005,-0.9 0.83004,-0.38613 0.2431,1.13662 1.50004,0.6 0.32341,0.92575 1.53099,0.57775 1.56036,0.36037 -0.0206,0 1.20423,1.23763 1.4397,0.23963 1.43089,-1.08025 0.87625,-1.419 1.80005,-0.9 -0.0496,0.4345 1.49062,-0.05 2.10005,1.2 0.58609,0.6125 1.14745,0.7075 1.80004,0.9 0.90605,0.14125 0.89681,-1.136 1.50004,0 1.62286,-0.0125 1.31525,-0.17038 2.10005,0 0.96504,-0.63725 1.42229,0.0763 1.50004,0.6 0.71741,-0.0987 0.77987,-0.5585 1.20002,-0.3 1.40106,0.0312 -0.055,-0.20563 0.90003,-0.6 0.41653,-0.51113 0.32981,0.0713 0.90002,0 -0.2391,0.26362 0.68504,2.30012 1.20003,2.10012 1.90312,0.92088 2.13492,0.3015 2.10005,0.6 1.45366,0.29525 0.9982,0.2295 1.50003,0 1.69874,-0.12887 0.83972,-0.29375 1.20003,0.3 -1.04641,0.0713 1.99575,0.92013 1.80005,0.9 -0.004,-0.77562 1.78661,-1.85125 1.20002,-0.9 -1.10127,-0.40225 1.19597,-1.44975 0.30002,-0.6 1.06363,-0.11375 1.05776,-0.28875 1.50003,0 -0.004,-0.47437 0.44958,-0.21325 0.3,0 1.26228,-0.27962 1.61808,0.4475 2.10005,0 0.41317,0.76813 1.11137,-0.44337 1.50004,0.6 0.8342,0.26375 1.0505,0.0763 1.20003,-0.3 0.91061,0.0637 0.84982,-0.23337 1.20003,-0.3 -0.29671,0.397 1.43198,-0.44875 1.20003,0.3 0.5669,0.035 0.89669,0.12813 1.20002,0.3 -0.81166,-0.41062 1.47983,-0.20625 1.20003,0.3 0.58585,-0.51487 -0.17236,0.19288 2.10005,0 1.57857,-0.17325 1.49416,-1.0355 2.70007,-1.2 -0.0341,-0.21087 1.38979,-1.22487 1.80004,0.3 1.10526,1.48975 2.25533,-1.20375 2.40006,-0.3 0.358,-1.32437 0.97955,0.59375 1.20003,-1.50012 -0.2675,-0.602 -0.57386,-1.277 0.60001,-2.1 0.24179,-0.15363 1.40679,-0.69475 2.70006,-1.2 0.626,-1.062 1.01578,0.75562 1.50004,1.2 -0.75396,0.16575 2.19014,0.78675 1.80005,0.9 0.37536,0.587 0.15899,0.78112 0.90001,0.6 -0.41236,1.21737 1.67434,0.639 2.10005,0 -0.19667,0.14575 1.57965,0.54287 2.40007,0.9 0.4236,-0.29188 0.87082,0.21225 1.80003,0.3 1.36115,-0.48075 1.11071,0.83937 1.50005,0.60012 0.49921,0.14513 0.79512,0.6665 1.20003,0.3 0.55423,0.65213 1.12777,0.73338 1.50003,0 1.14247,0.115 1.77289,-0.55212 2.10005,-1.20012 0.39275,-0.75913 0.61467,-1.32288 0.90002,-0.9 m 0,1.2e-4 c 0.0537,0.70475 1.03877,0 0.96035,-0.23975 1.10425,-0.774 0.83615,-0.58962 2.03973,-1.56037 -0.55966,-0.876 2.15756,-2.02613 2.10005,-2.4 0.56687,0.19537 1.20011,0.80425 1.50004,0.6 -0.60733,-0.5625 0.32533,-0.46525 1.80003,-0.3 1.08793,-0.28413 1.4789,-0.21763 2.03973,-0.23963 1.209,0.29663 0.93595,0.45113 1.86037,0.53963 0.44519,-0.37388 0.47033,1.28125 1.20003,0.3 0.19299,1.1175 1.15135,-0.20963 1.50004,1.2 0.32431,-0.61575 2.26208,-0.71013 2.10005,-1.2 2.01867,-0.60338 1.21471,0.9045 2.10005,0 -0.22742,-0.89638 1.31755,0.35212 1.20002,0.3 0.40924,0.64162 -0.73299,2.73187 0.60001,3.30012 0.46273,0.66438 2.51788,1.041 3.23975,1.43963 0.28599,-0.0125 2.24367,-0.41463 2.7604,-0.83963 0.80514,-1.57937 0.18297,-1.30137 1.20003,-0.3 1.46764,1.19625 1.1782,0.81188 2.70006,1.8 -0.91777,2.20863 1.29844,1.346 0.60001,2.7 0.43134,0.73525 1.60044,0.5 1.50004,1.8 0.91629,0.61913 1.16035,2.82563 2.10005,3.60013 0.23079,1.28212 0.95411,1.795 1.80005,2.1 -0.28924,0.672 0.68556,0.8225 1.73971,1.73962 -0.77212,-1.12712 1.95729,1.38138 1.86038,0.66038 0.97157,1.15937 2.68641,1.22425 2.40005,1.5 -0.17018,-0.0562 0.0586,1.29175 0.30001,1.2 0.005,0.125 -1.1977,3.18337 -0.90002,3.60012 -0.017,0.96813 0.005,3.098 0.30001,4.2 0.40922,1.51088 1.04795,2.90125 1.80004,3.90013 2.23918,0.73825 -0.017,1.27912 0.90002,3 1.25334,0.192 -0.36265,1.14487 -0.30001,3 0.26649,2.1845 0.72084,2.40362 1.50004,3.60012 0.90327,0.83288 2.6891,1.75788 2.70006,1.8 1.15596,1.45 0.5421,0.87675 0.53969,1.73963 0.25181,1.07825 -0.122,0.97575 -1.4397,0.96037 1.69566,-0.90625 -1.8897,-1.01212 -1.20004,-0.3 -0.27208,-0.8665 -0.122,0.574 -0.60001,1.5 0.6887,-0.97675 0.38797,0.476 1.65162,0.59688 1.49749,-2.605 -0.718,1.2675 -0.4516,0.90312 -1.02947,0.36375 -2.01421,1.44488 0,2.10013 1.63091,1.52437 0.0894,0.76687 1.50004,1.8 -0.86714,0.9445 -1.05113,0.161 -0.90001,1.2 0.0554,-0.0612 0.0778,-0.11625 -0.60003,1.5 -0.73342,0.35112 -0.41176,0.40612 -0.90001,1.2 -0.4483,0.78787 -1.44861,-0.41413 -2.70006,-1.2 -0.69168,-0.79813 -2.87484,-1.46938 -3.60009,-1.5 -0.99213,-0.90788 -3.21775,-0.58238 -3.30009,-2.4 -1.29395,-0.8565 -0.93417,-2.87863 -2.10005,-3.60013 -0.5252,-2.03425 1.8295,-1.25362 1.80005,-3.3 0.42081,-0.91312 2.394,-2.67575 1.80004,-2.7 -0.15701,-1.74312 -3.10825,-0.69187 -2.10005,-3.60012 -0.38844,-1.76875 -2.55345,0.18912 -3.30008,0.6 -1.03362,0.39287 -0.97547,0.95262 -2.10005,0.6 -0.62501,-0.35063 -2.92975,0.24525 -2.40006,-2.1 -0.48377,-0.187 -2.75094,-1.25338 -1.80004,-2.7 -0.3171,-0.879 0.19683,-3.20613 0.3,-3.6 1.04249,-0.53213 1.95785,-3.30988 -0.23967,-3.53975 -1.94221,-0.38475 0.23537,-2.42475 -0.36034,-2.76038 0.20393,-0.34125 -0.86275,-0.54125 0,-0.6 M 621.71446,403.27043 c 0,-0.1 0,-0.1 0,0 z m 0,0 c -0.82603,0.33462 0.35099,-0.78625 0,0 z m 0.30001,0 c 0,-0.1 0,-0.1 0,0 z m 0,0 c 0,-0.1 0,-0.1 0,0 z m 54.90131,0 c 0,0.1 0,0.1 0,0 z m -0.90002,0.9 c 0.1,0 0.1,0 0,0 z m 12.3003,1.80012 c 0.15487,0.92138 -0.92139,-0.15487 0,0 z m 0.90001,0 c 0,0.1 0,0.1 0,0 z m -15.00035,1.2 c -0.92139,0.15488 0.15488,-0.92137 0,0 z m 0,0 c 0.15488,0.92138 -0.92139,-0.15487 0,0 z m -19.50047,0.3 c 1.97796,-2.953 -0.39559,1.45463 0,0 z m 37.80091,0 c 0,0.1 0,0.1 0,0 z m -36.90089,0.3 c -0.47582,-0.19312 -0.47582,-0.19312 0,0 z m 3.00008,0 c 0,0.1 0,0.1 0,0 z m 2.70006,0 c 0.15487,0.92138 -0.92139,-0.15487 0,0 z m -3.9001,0 c 0,0.1 0,0.1 0,0 z m -6.90016,0.3 c 0,-0.1 0,-0.1 0,0 z m 9.90023,0 c -0.47581,0.19313 -0.47581,0.19313 0,0 z"
         sodipodi:nodetypes="cccccccccccccccccccccccccccccccccccccccccccccccccccccccccccccccccccccccccccccccsccccccccccccccccccccccccccccccccccccccccccsccccccccccccccccccccccccccccsccccccccccccccccccccccccccccccccccccccccccccccccccccccccccccccccccc" />
      <path
         style="fill:#c8ffc8;stroke:#000000;stroke-width:0.90000004000000000;stroke-linecap:round;stroke-linejoin:round;stroke-miterlimit:9.99670124000000020;stroke-opacity:1;stroke-dasharray:none;fill-opacity:1"
         d="m 677.32392,559.97492 c -0.10605,0.0422 -0.1625,0.14375 -0.0312,0.3125 -1.25598,0.52815 -2.16505,2.13086 -2.71875,1.8125 -0.54151,0.9555 -2.80169,1.46084 -2.09375,3 -1.47499,0.87322 -1.32338,2.59274 0,3.3125 0.47376,0.16363 0.96162,0.44174 1.3125,0.75 0.63105,0.55441 0.76316,1.17022 -0.5625,1.3125 -0.0579,0.006 -0.0927,0.0269 -0.15625,0.0312 -1.37749,0.66321 -2.86274,0.78187 -4.1875,0.90625 -1.73954,0.80389 -1.16425,1.35476 -3.59375,0.875 -2.0941,-0.19469 -2.69436,-0.81485 -3.625,0.90625 -1.24382,1.13888 -2.60494,0.0784 -3.34375,0.375 -0.23257,1.68236 -2.13191,1.25585 -3.53125,0.53125 -1.38241,-1.53317 -2.8022,1.06606 -3.625,2.40625 -1.91541,0.71249 -1.49019,3.40003 -3.28125,4.28125 -1.42845,2.33559 4.19204,2.82644 1.21875,3.875 -1.48962,0.86066 -3.48524,-2.01516 -3.9375,0.5625 -1.22531,0.6954 -2.41864,1.8027 -3.875,2.0625 -1.06145,0.55783 -3.0703,1.36968 -3.90625,2.40625 -0.65284,0.66367 -1.61761,2.18217 -2.40625,3.3125 -1.34981,-0.45214 -2.61531,-0.14844 -3.90625,-0.3125 -2.23146,1.50329 -1.47325,-1.54955 -1.5,-2.40625 0.39329,-1.25505 -0.0245,-2.78555 -1.1875,-3.875 -0.76507,-0.28125 -2.25961,-2.3585 -3.59375,-1.5 -1.4198,-0.68884 -1.19805,-2.51906 -2.125,-3.625 0.327,-1.95826 -1.14271,-2.66956 -2.09375,-3 -0.55332,-1.40118 -1.5424,-2.73089 -3,-2.09375 -1.16546,0.71235 -3.03124,0.67825 -4.1875,-0.28125 -1.69623,-0.38885 -2.71309,-0.24026 -3,-2.40625 -0.10455,-2.91679 -1.60309,0.21345 -3.3125,-0.8125 -0.6391,-1.95556 -2.35523,-1.24285 -3.59375,-2.78125 -1.45522,-0.68939 -3.89819,-0.0121 -3.375,1.78125 -0.7276,1.19309 -3.43678,1.18675 -4.71875,1.125 0.0249,2.35016 -2.28998,0.41373 -3.6875,0.75 -1.63029,1.18168 -3.07348,-1.18725 -4.15625,0.53125 -1.51194,-0.6354 -2.35404,-2.23353 -3.5625,-0.3125 -1.11055,0.6495 -2.81841,0.73687 -4.1875,1.5 -1.72644,-0.88816 -1.83075,2.36562 -3,2.40625 -1.62509,0.5455 -0.70888,2.59288 -0.6875,4.28125 -0.76815,1.54422 -2.186,2.2628 -2.03125,3.8125 -0.241,1.58231 -0.1976,2.93124 0,4.5 0.16474,0.9204 -1.2913,2.03605 -2.84375,2.25 -1.75524,1.24195 1.15695,3.21009 2.46875,3.375 2.06092,0.3101 3.4327,0.60598 5.1875,1 1.49082,1.41365 3.35816,-0.35665 5.09375,0.5 1.10897,1.33591 3.5074,1.46207 4.84375,2.90625 1.78086,1.82032 2.18607,4.55289 3.125,6.78125 -1.62125,1.72306 3.36726,1.27642 2.21875,3 1.15977,1.27315 -0.44428,3.26788 1.21875,4.5 -1.25637,1.02616 -0.0555,3.77612 -0.59375,4.1875 -0.80276,0.96239 -1.12516,2.68725 -2.03125,3.375 0.4647,0.79631 -1.78988,0.55733 -1.28125,2.9375 -0.41073,1.06688 0.16754,2.36765 0,4.5 0.72095,0.4845 -0.39834,2.72257 1.1875,3.3125 -0.9974,1.49319 1.58234,2.2469 2.40625,2.09375 1.43722,-1.31806 1.54746,2.83337 2.71875,1.78125 1.48599,-0.99082 2.66753,2.09982 3.59375,0.3125 -0.28177,-1.95136 2.12774,0.60705 2.6875,-0.59375 0.17564,-1.94016 1.71097,-2.44946 2.40625,-0.90625 0.26666,1.8741 3.7306,-0.46507 3,1.5 -0.7343,1.16574 -2.45533,1.33214 -2.6875,3 -1.39826,0.52693 -1.95969,1.55062 -3.90625,1.8125 -2.20196,-0.86635 -2.57344,2.18841 -3.59375,1.5 -0.95424,0.43589 -2.39219,-0.4736 -3.625,0.28125 -2.56753,0.82241 -1.26089,0.43634 -0.59375,1.46875 0.73509,1.85887 1.10793,2.40645 -1.1875,2.75 -0.16865,0.22305 -1.94899,1.94626 -0.90625,3 -0.0802,2.019 0.34836,2.53135 2.40625,1.5 1.77787,0.18544 -0.76116,3.25726 1.5,2.6875 0.64545,0.94565 0.4434,4.02504 1.5,3.59375 2.44689,0.36462 1.69595,0.17583 3.59375,-0.28125 0.85529,-0.50064 1.22209,-2.19092 3,-1.5 1.61856,-0.17663 4.99189,0.66371 3.3125,-1.21875 -0.49139,-1.71503 -1.05159,-1.91355 0,-3.28125 0.81815,2.66288 1.93081,-0.34125 2.375,0.875 0.75627,0.62321 2.67433,-1.85585 3.625,-0.875 1.42168,-0.45679 3.12945,0.25399 4.1875,-0.90625 1.99066,-0.89294 -1.66675,-1.15496 -1.1875,-2.09375 1.51153,0.003 1.6315,-2.95128 3.28125,-1.8125 0.98924,1.48539 1.69487,0.75126 1.8125,-0.90625 1.08469,-0.82366 2.58438,-1.07379 1.78125,-2.6875 0.90943,-1.12461 1.85828,-2.8862 3.3125,-1.8125 0.55031,1.33459 3.10814,0.92299 4.5,0.59375 1.0041,0.32067 2.14422,-0.89536 3.59375,-1.5 1.47424,-0.76586 3.01783,-0.81641 2.71875,0.625 -1.95666,0.81116 -0.1252,2.65715 1.5,1.78125 0.10502,1.12453 1.15533,1.82017 1.03125,2.625 -0.002,0.0106 0.002,0.0206 0,0.0312 l -0.15625,0.34375 c -0.41472,0.60619 0.19064,2.37215 1.5,1.5 0.84379,-1.20249 3.29354,-0.5892 4.21875,-1.5 1.30609,-0.003 1.36726,-3.37422 3,-1.5 1.38859,-0.0676 2.31007,0.47254 3,1.5 1.06616,-0.10463 1.84586,-1.32155 2.09375,-1.78125 1.40178,-1.27026 2.5255,0.69752 3,-1.5 -0.22402,0.69271 0.83696,-0.76024 1.1875,-0.3125 0.9444,-0.32005 0.55771,-0.95551 0.90625,-1.1875 0.29864,-0.0917 0.80041,-1.20027 0.90625,-1.3125 -0.14563,-2.08864 -0.63728,-1.98662 0.59375,-2.59375 -0.27866,-1.86135 -1.96071,-0.83665 -1.40625,-2.78125 0.46618,-1.53336 0.69509,-3.01295 1.125,-4.71875 0.36055,-1.0409 1.18875,-3.50691 1.1875,-3.3125 0.0672,-0.58215 1.02179,-2.99843 1.5,-2.40625 0.60113,-0.46184 0.27344,-1.85542 1.5,-3 0.61057,-1.1596 0.95625,-1.09241 2.09375,-1.78125 1.85274,1.50681 2.08263,-0.60161 2.40625,-0.3125 1.09961,-0.40939 0.0344,-0.77869 0.90625,-1.1875 0.34405,0.97159 0.51911,-1.0601 1.5,-1.21875 0.95979,-0.783 1.64555,-0.6509 1.78125,-0.875 0.67351,-0.31426 -0.15356,0.54414 0.625,-0.3125 1.35627,-1.03051 1.0559,0.28393 2.09375,-1.1875 0.24014,-0.21079 1.02784,-1.3991 1.5,-1.8125 -0.26093,-0.3217 0.56494,0.0702 0.28125,-1.1875 0.22112,0.60495 0.49131,-0.59829 0.90625,-1.21875 1.41697,-0.7123 0.57052,-1.12009 0.90625,-2.40625 0.4723,-0.31 0.55424,0.15074 1.1875,-0.28125 1.13715,-0.37778 0.48029,-1.3092 1.21875,-1.5 -0.24675,-1.27165 0.1069,-1.32874 -0.3125,-1.8125 0.41526,-0.83489 1.52675,-0.3443 1.8125,-0.90625 0.52487,-0.79913 0.922,-0.83693 0.90625,-1.78125 0.93359,-0.73818 0.5146,-0.55124 1.1875,-0.90625 0.0417,-1.1475 0.34798,-0.8155 1.1875,-0.90625 -0.57435,-0.41065 0.53055,-0.97641 0.3125,-1.1875 0.45243,-0.75496 1.0095,-1.22 0.90625,-1.21875 0.27016,-0.99052 0.0291,-0.72244 0.59375,-1.5 0.83474,-0.66344 0.96274,-1.77912 0.59375,-2.6875 0.29626,-0.0807 0.89164,-1.6982 0.3125,-1.1875 -0.6193,-1.09611 1.24386,0.14614 0.90625,-1.8125 1.14077,-0.31654 -0.12053,-0.002 0.59375,-1.5 0.72126,0.0704 0.88021,-0.40984 0.59375,-0.90625 -0.33315,-1.44919 -0.0854,-3.97017 0,-3.9375 -0.25203,-0.72817 -0.0229,-1.62753 0,-2.0625 0.21354,-0.90581 0.17025,-1.15756 0.21875,-1.5625 -0.17268,-0.23379 0.52793,-1.30234 0.0937,-1.125 -0.14572,-0.62785 1.05251,-1.67359 0,-1.5 0.50811,-1.4809 -0.9179,-1.00414 -0.625,-1.5 -0.47713,-0.70691 0.23261,-1.07345 -0.28125,-1.21875 -0.25821,-1.21527 1.27425,-0.98805 1.1875,-1.5 0.29201,-1.57792 3.01723,-1.50879 1.8125,-2.6875 -0.0668,-1.85814 0.90611,-2.695 0.59375,-2.6875 -0.21751,-0.37477 1.13285,-0.65025 -0.3125,-1.21875 -0.89662,-1.17159 -3.61419,-0.12979 -4.25,-0.65625 -1.20174,0.53534 -1.70944,-1.26737 -3.5,-0.96875 -1.74479,0.25596 -1.83347,-2.04639 -3.625,-0.78125 -1.08374,0.31319 -2.05274,-0.39955 -3,-1.5 -0.98514,-0.9149 -0.19224,-3.62649 -2.71875,-3 0.21875,-0.28125 -0.0732,-0.38281 -0.25,-0.3125 z m -16.84375,80.625 c 0.003,0.0395 -0.003,0.0526 0,0.0937 0.032,-0.13227 0.0265,-0.12181 0,-0.0937 z"
         id="path6518" />
      <path
         style="fill:#c8ffc8;stroke:#000000;stroke-width:0.90000004000000000;stroke-linecap:round;stroke-linejoin:round;stroke-miterlimit:9.99670124000000020;stroke-opacity:1;stroke-dasharray:none;fill-opacity:1"
         d="m 593.9511,684.53181 c 0.37442,-0.10248 0.49432,-0.45948 1.1307,-0.3 0.54251,0.18826 0.80331,-0.30361 1.26935,-0.3 0.46,-0.20495 0.97961,0.46915 0.66934,0.3 -0.1985,0.46708 0.38218,0.12961 -0.0693,0.45379 0.44815,0.0262 0.0581,0.89065 0.67693,0.74623 0.64054,0.16617 0.44246,-0.50629 1.12312,-0.3 -0.0606,0.51186 0.72233,0.18022 0.75381,0.60001 0.51844,-0.37066 0.59483,0.96452 0.74623,0.36931 0.27011,-0.0841 1.05383,-0.0531 0.90001,-0.66932 -0.20811,0.68502 1.01349,-0.0597 0.90003,0.5307 0.34897,0.19551 0.96685,0.0662 1.05381,-0.23069 0.42396,-0.0504 1.05017,0.1014 1.34625,-0.0769 -0.16618,-0.29009 0.50629,0.21503 0.3,0.6769 0.50001,0 1.00003,0 1.50004,0 -0.0972,0.57409 0.766,0.18781 1.13071,0.30001 0.67011,-0.0462 0.0885,-0.30924 0.60002,0 0.19553,0.34896 0.0662,0.96685 -0.23069,1.0538 -0.50384,0.1656 0.29121,0.20683 -0.0769,0.74621 -0.41053,0.0639 -0.34697,0.6018 -0.82313,0.60002 0.008,0.38595 0.61229,0.48834 0,0.67691 -0.26618,0.6763 0.57583,0.40477 0.60001,0.9769 0.30603,0.13021 0.34595,0.61187 0.60003,1.04622 0.6681,-0.003 -0.0339,0.54433 -0.23069,0.60002 -0.38786,0.0314 -0.98752,0.23578 -0.96935,0.6 -0.36597,0.11093 -1.20128,-0.24748 -1.20002,0.23069 -0.42105,0.16026 0.20163,0.0241 -0.60002,0.0693 0.0972,0.57409 -0.766,0.18781 -1.13071,0.30001 -0.66086,0.1691 -0.61241,-0.21749 -0.96934,-0.60001 -0.58254,0.10563 -0.86896,-0.0848 -1.13071,-0.3 -0.51278,0.0384 -0.49245,-0.45632 -0.82313,-0.60002 -0.57191,-0.0975 -0.43219,0.51657 -1.12313,0.30002 -0.87438,0 -1.74877,0 -2.62316,0 0.0972,0.57408 -0.76602,0.18779 -1.13072,0.3 -0.50943,-0.035 -0.99091,-0.0422 -1.12312,0.3 -0.17896,-0.49289 -0.39973,0.16319 -0.97693,0 -0.56345,0.44802 -0.18433,-0.10155 -0.52311,0.3 -0.47683,-0.0253 -0.88153,0.30441 -0.74624,0.15379 -0.13744,0.89071 -0.48081,-0.28214 -0.60001,0.37691 -0.32606,0.12874 -0.52323,0.69719 -0.70876,-0.0394 -0.27474,-0.41606 -0.20421,-0.79392 -0.49126,-1.02196 -0.27012,-0.0841 -1.05385,-0.0531 -0.90003,-0.66933 -0.51481,-0.23088 -0.0882,-0.99247 -0.60001,-0.97691 -0.16371,-0.23629 -0.35053,-0.44948 -0.37691,-0.82311 -0.69347,0.2191 -0.51248,-0.43627 -0.52312,-0.90001 -0.0525,-0.40928 -0.52227,-0.88417 0.23069,-0.90002 0.52312,0 1.04624,0 1.56936,0 -0.0966,0.57349 0.7648,0.18901 1.13071,0.30002 -0.005,0.47974 0.69882,0.24994 1.12313,0.3 0.37592,0.6133 -0.0413,-0.33656 0.22311,-0.60002 0.46533,-0.009 0.11372,-0.83503 0.22312,-1.20001 0,-0.80001 0,-1.60001 0,-2.40002 0.57409,0.0972 0.18781,-0.766 0.30001,-1.13071 0.26264,-0.10921 0.65571,0.24491 0.60001,0.68448 l 0,0.0769 0,0.0693 z"
         id="path3800" />
      <path
         style="fill:#c8ffc8;stroke:#000000;stroke-width:0.90000004000000000;stroke-linecap:round;stroke-linejoin:round;stroke-miterlimit:9.99670124000000020;stroke-opacity:1;stroke-dasharray:none;fill-opacity:1"
         d="m 583.45085,683.93181 c 0.70002,0 1.40003,0 2.10005,0 0.0801,0.46599 -0.17399,-0.13062 0.15379,0.3 0.26984,0.20454 0.40944,0.53932 0.74622,0.67692 -0.21583,0.2404 0.43459,-0.28675 0.90003,-0.0769 -0.0606,0.51186 0.72232,0.18022 0.7538,0.6 0.67614,-0.20176 0.63479,0.31397 1.12314,0.30001 0.63794,-0.34882 0.337,-0.0294 0.97691,0 0.68138,0.207 0.38688,-0.56188 0.44622,-0.97691 0.17523,-0.29915 0.32876,-0.62001 0.90003,-0.52312 0.46845,-0.21341 0.27265,1.17612 0.60001,0.36933 0.22421,-0.0708 1.11207,-0.21143 1.20004,0.0845 -0.35586,0.11852 -0.32677,0.622 -0.30001,1.12314 0,0.87437 0,1.74875 0,2.62312 -0.5741,-0.31906 -0.18782,1.26096 -0.30002,0.66933 -0.22424,-0.25013 -1.11204,0.1633 -1.20002,-0.2231 -0.0987,-0.37564 -0.98921,0.0404 -1.20003,-0.22311 -0.009,-0.46534 -0.83504,-0.11372 -1.20003,-0.22312 -0.39805,-0.13998 -1.2363,0.20501 -0.62815,0.57189 0.15481,0.3482 -0.17727,1.11179 0.18192,1.22814 0.72594,-0.25155 0.21809,0.73068 0.74624,0.67691 0.30683,0.21615 0.20408,0.63562 0.5175,1.0406 0.0511,0.44184 0.3863,0.83502 0.91321,0.68253 0.22054,0.29098 0.39007,0.48107 0.47808,1.00875 0.46959,0.3965 -0.12222,0.65738 -0.33944,0.79127 -0.12203,0.35234 -0.48041,0.46833 -0.66933,0.75379 -0.12428,0.39036 -0.97297,-0.13058 -1.17189,0.41809 -0.5077,-0.12796 -0.7738,0.32735 -1.22817,0.32814 -0.25586,0 -1.44713,0 -0.96933,0 0.73259,-0.003 0.0134,0.4985 0.21553,0.30001 -1.24877,0 -2.49753,0 -3.7463,0 0.31905,-0.57409 -1.26097,-0.18781 -0.66933,-0.30001 0.20118,0.48117 1.06828,0.0444 0.96933,0.60001 -0.57725,0.11093 -1.0316,-0.24748 -0.60001,0.23069 -0.63888,0.16045 -0.57217,0.0241 0.15379,0.0693 0.37148,-0.207 0.77034,-0.34787 1.12313,-0.6 0.54761,-0.007 0.52362,0.67002 0.82313,0.75379 -0.14893,0.32545 -0.8887,0.0601 -1.27693,0.14621 -0.50731,-0.0972 -0.90126,0.0793 -1.27692,0.30001 -0.61951,-0.27927 -0.83173,0.55292 -0.8006,-0.0544 -0.39368,-0.26324 -0.38457,-0.93466 -0.8838,-0.9124 -0.50301,-0.76576 -0.81518,-1.67728 -1.46189,-2.33328 -0.0116,-0.67655 -0.13681,-0.64728 -0.23069,-0.6 -0.12203,-0.35234 -0.4804,-0.46836 -0.66933,-0.7538 -0.30021,-0.47682 -0.67606,0.15244 -0.90002,0.23069 -0.009,0.46531 -0.83505,0.1137 -1.20003,0.2231 -0.50001,0 -1.00003,0 -1.50004,0 0.10564,-0.58253 -0.0848,-0.86894 -0.3,-1.13069 0.21711,-0.69149 -0.40578,-0.54297 -0.30001,-1.12313 -0.4063,-0.0681 -0.22533,-0.72341 -0.3769,-1.04622 -0.35465,0.10027 -0.38875,-1.11597 0.0845,-0.90001 0.36346,0.1083 0.64975,-0.79167 0.59245,-0.36933 0.3523,0.12207 0.46836,0.48039 0.7538,0.66933 0.56913,-0.30878 -0.4211,-0.74189 0.14622,-0.6769 -0.21528,-0.67984 0.45145,-0.49107 0.8836,-0.71765 0.4972,-0.37374 0.76284,0.24129 1.21645,0.19453 0.50001,0 1.00003,0 1.50004,0 -0.10247,0.56878 0.92863,0.35043 0.60001,-0.23069 0,-0.62311 0,-1.24622 0,-1.86933 0.51803,0.50848 0.92246,-0.0594 0.14621,0 -0.26153,-0.1243 -0.24984,-0.97297 0.12566,-1.17188 0.4507,-0.01 0.69893,-0.5081 1.22817,-0.32815 0.68185,0.20495 0.48466,-0.46914 1.1307,-0.3 0.0331,-0.51141 0.24248,-0.79062 0.52312,-0.3 0.14874,0 0.29749,0 0.44623,0 z"
         id="path3802" />
      <path
         style="fill:#c8ffc8;stroke:#000000;stroke-width:0.90000004000000000;stroke-linecap:round;stroke-linejoin:round;stroke-miterlimit:9.99670124000000020;stroke-opacity:1;stroke-dasharray:none;fill-opacity:1"
         d="m 551.22149,582.46741 c -1.4908,1.21122 0.63701,2.57486 0.21875,3.96875 -0.57759,1.57785 -1.87589,1.8014 -2.90625,2.9375 -1.91416,0.73548 -2.16215,0.92872 -3.9375,0.59375 -0.88931,0.78623 -1.97652,2.74912 -2.375,2.71875 -1.58049,-0.16009 -1.45462,1.18122 -2.125,2.40625 -1.84364,0.38172 -0.48347,2.64074 -1.5,3.59375 -0.33681,1.45452 -2.26116,1.42999 -2.6875,3 -1.62147,0.45869 2.17684,0.82419 2.40625,2.09375 -0.0565,2.25019 2.04736,0.99146 2.46875,2.46875 1.89474,0.9395 1.12572,1.97537 -0.0625,2.9375 -1.02538,0.95549 2.2013,2.63733 0,3.3125 -0.33833,1.61726 -1.2877,2.55842 -2.125,3.875 0.19835,1.31007 -0.67305,2.48731 -1.5,3.625 0.3583,1.54174 0.86634,2.92114 1.8125,3.875 1.86504,-0.37201 3.06168,1.7961 1.8125,2.71875 -1.35632,1.21394 2.38521,2.12641 1.1875,3.28125 -0.0428,0.88454 1.87915,1.31864 2.09375,3 0.1808,2.07641 2.963,0.4188 3.0625,2.46875 1.38374,1.47991 0.51125,2.77252 0.53125,3.84375 0.70594,0.80227 2.39246,2.22156 2.71875,2.40625 -1.07591,1.13006 0.121,4.28805 1.78125,2.6875 0.48623,-2.28444 2.19484,0.80963 3,0.90625 0.78035,1.2648 2.73441,1.06275 3.625,1.5 0.79254,0.83439 3.93275,0.69875 3.875,0.59375 1.34248,1.72561 1.7945,-0.0557 3.3125,0 1.18047,-0.38196 1.911,0.29049 1.8125,2.09375 0.71269,1.22361 -0.71084,2.90596 -2.71875,2.40625 -2.44374,0.36326 0.84724,2.674 -0.59375,2.71875 -1.89821,0.13285 -2.62397,1.39513 -0.59375,2.09375 1.14005,-0.70078 2.83046,-1.07304 3.28125,0.59375 1.39053,1.53184 -1.07216,1.50009 -1.5,2.6875 0.41291,0.98243 3.0307,1.3175 2.71875,1.21875 0.825,0.12649 1.27468,-0.94175 1.78125,-0.90625 -0.2563,-1.05754 1.65589,-0.85775 1.8125,-2.09375 0.5765,-0.85816 1.65899,-0.5478 2.09375,-1.21875 2.11999,-0.69719 1.94637,0.9079 0,1.5 -1.35537,0.24019 1.65752,2.70551 -0.65625,3.0625 -1.6211,0.69306 -1.74836,2.41655 -2.625,3.25 -1.71852,1.09456 -1.8532,1.50381 -3.3125,1.8125 -1.35995,0.67605 -2.29074,1.47529 -3.90625,1.78125 -1.33076,0.54279 -1.93888,2.38906 -0.59375,3.3125 0.49687,1.40315 1.42299,2.36449 2.40625,3.28125 -0.26776,0.36766 -1.26484,2.67413 -1.5,3 -1.58092,1.27324 -2.44926,-0.31022 -4.5,0 -0.37905,1.89728 1.80666,2.32846 2.40625,3.3125 1.87675,1.31266 -1.54372,1.44113 0.875,2.40625 0.9821,0.97936 1.93591,1.97951 3,2.6875 1.85695,0.19033 3.11455,0.28983 2.40625,2.71875 1.44379,-0.10056 3.71586,0.4978 2.71875,1.1875 -0.56821,1.07832 1.55592,2.18685 3.28125,1.8125 2.31366,0.0201 -1.36926,-2.68854 0.59375,-3.3125 1.56401,0.85717 0.2593,-0.33006 2.71875,-0.90625 1.9303,0.79039 3.27605,0.85864 2.6875,-1.78125 0.16342,0.55409 0.0939,-2.03794 2.09375,-1.8125 0.54045,-0.73149 3.54789,-0.27368 3.90625,0 0.54289,1.04925 2.12535,0.78141 3.59375,1.5 1.20141,0.31383 1.76494,-2.3142 2.71875,-1.1875 2.18596,-0.94271 0.97565,-0.11335 3.59375,-0.3125 2.28531,-1.26802 0.50815,1.83271 2.40625,0.90625 1.43124,0.55039 2.37724,1.2773 3.28125,0.59375 1.57406,0.657 3.04078,-0.77185 3.90625,0.59375 1.9234,0.0676 3.27694,0.4264 2.40625,1.5 -0.73283,1.41351 -1.31521,1.89918 0,3.3125 1.09059,1.67323 3.07766,0.59874 2.40625,0.90625 -0.6214,0.32139 -1.31189,0.67537 0,0.28125 0.59047,0.98794 0.76198,-1.51695 -0.90625,-0.59375 -0.83335,-1.03165 0.83741,-0.87599 2.40625,-1.5 0.95301,0.53694 1.12194,0.11854 3.0625,0.65625 1.38014,0.71267 2.64284,1.14036 4.125,2.03125 0.9842,0.73061 3.57337,1.78719 3.59375,-0.28125 0.87426,-1.03467 1.45362,-2.5922 1.5,-4.21875 0.24774,-1.47601 1.38625,-3.3935 1.8125,-3.28125 1.54519,0.58964 1.3252,-0.52699 1.1875,-0.90625 1.63085,0.20264 1.45073,-0.66449 2.40625,-0.90625 -0.0614,-0.0936 1.53512,-0.83915 1.5,-1.78125 -1.0973,-0.33332 1.47642,-0.41913 1.53125,-1.09375 0.003,-0.0657 0.01,-0.57158 0.5625,-0.40625 -0.0729,-0.14314 1.4876,-1.215 2.125,-1.21875 -0.21994,-0.59774 -0.3983,-0.99919 0.875,-2.40625 0.35469,-0.62381 1.16917,-1.02944 1.8125,-2.6875 1.15094,-0.67031 2.75077,-0.29191 3.59375,-0.90625 -0.36886,-1.10812 -0.27026,-0.78363 0,-0.90625 0.96101,1.14584 1.36303,-0.8675 2.40625,-0.875 1.78354,-0.0579 0.98421,0.0463 1.8125,-0.3125 0.33641,-0.29656 0.36995,-0.96837 1.1875,-0.90625 0.53801,-0.96309 0.54038,-1.43788 0.59375,-1.5 -0.56001,-0.84433 0.24641,-0.86016 0.59375,-1.5 1.27171,-0.92114 0.58657,0.14191 1.46875,-1.15625 -9.3e-4,-0.0202 1.4e-4,-0.0435 0,-0.0625 -0.007,-0.89744 0.84805,-0.44573 0.34375,-2.0625 0.13975,-0.0119 0.76125,-0.90061 0.90625,-1.21875 0.87441,-3e-4 1.21937,-1.07279 1.1875,-1.5 0.36451,0.0168 1.32094,-1.7945 1.5,-1.78125 0.18179,-0.81155 0.28075,0.17895 0.59375,-2.125 0.53503,-0.12245 1.07327,-0.74555 0.625,-0.875 0.89013,-0.4491 -0.12181,-1.45806 -0.90625,-1.8125 -2.19635,0.46972 -1.76038,-2.24603 -1.8125,-3.90625 0.0201,-1.2669 1.77319,-3.24521 0,-3.90625 -0.49691,-1.08941 -1.7251,-0.90456 -3,-1.5 -1.52719,-1.01589 -1.63693,2.08513 -3,2.125 -1.75403,0.14189 -3.07389,0.6723 -4.5,1.1875 -1.87505,0.36057 -0.1868,-1.94881 -0.90625,-2.40625 -0.49129,-0.67145 -0.44714,-2.76809 -2.46875,-1.875 -2.29222,-1.21084 1.27261,-2.09294 -0.21875,-3.21875 -0.84816,-0.0277 -2.24548,0.42939 -3.65625,1.25 -1.42666,1.07052 -2.36163,0.88161 -4.15625,1.15625 -2.3601,0.85187 -2.39951,-2.18326 -4.1875,-0.90625 -0.57279,0.27949 -1.59304,1.14721 -1.8125,1.96875 -0.0997,0.37343 -0.0417,0.73398 0.3125,1.03125 -0.30729,1.22678 -3.32502,0.68381 -2.15625,2.75 -1.39151,1.50936 -0.96267,-1.25271 -3.25,-0.34375 -0.0988,1.08231 -2.47596,2.12999 -1.5,2.40625 2.11566,0.6008 1.46878,1.3857 0,2.09375 -1.78646,0.28112 -2.87695,-0.0596 -4.1875,0.28125 -1.57075,0.49864 -2.69234,1.40375 -3.3125,0.625 -0.63712,2.21986 -1.93808,-1.81768 -2.40625,0.28125 -0.23325,0.78269 0.9,1.81953 0.90625,3.59375 -0.26931,-0.0674 -4.16941,0.0971 -4.5,0 -2.34172,-0.17285 -0.8087,2.19918 -3.28125,1.8125 0.0605,0.45176 -2.50873,0.0184 -3,-0.3125 -0.61012,-1.01636 -0.21236,-3.93699 -1.8125,-3.28125 -0.49202,-1.31422 1.00164,-3.40929 -1.8125,-2.40625 -1.69185,1.23185 -0.92707,-1.95529 -1.1875,-2.6875 -0.48075,-1.4125 0.8101,-2.13737 2.09375,-2.40625 1.76177,0.14218 -0.54445,-3.04188 -0.28125,-3 -2.29095,0.12558 0.95376,-1.18863 2.09375,-1.21875 1.13338,0.005 2.27039,0.16239 3.28125,0 0.0863,-1.84665 2.39871,-1.2764 3.90625,-1.78125 1.16129,-0.73875 2.77823,-1.04049 3,-2.71875 1.1274,-0.4637 2.84649,-1.62195 2.40625,-2.6875 -1.78141,0.45357 -3.22074,0.17214 -3.59375,-1.5 -1.29766,-0.67235 -1.65551,1.87839 -2.71875,2.40625 -1.31442,-2.16928 -1.65651,0.45359 -2.6875,0.59375 -1.14044,-1.20191 -2.17604,-0.89062 -3.59375,-0.90625 -0.0929,-1.78515 -1.72135,-2.46119 -2.71875,-1.78125 -2.04142,-0.14559 -1.25561,-2.246 -2.375,-2.71875 0.32781,-2.50996 -0.58094,-1.48444 -0.3125,-4.1875 0.0305,-1.76202 -0.56484,-2.74366 0.3125,-4.21875 0.39611,-2.11564 1.20441,-0.5819 1.5,-2.375 0.40024,-0.78476 0.87557,-1.56518 1.1875,-2.3125 0.18423,-0.44139 0.33984,-0.89057 0.3125,-1.3125 -0.17583,-1.43884 0.69684,-3.03498 -0.0312,-4.1875 -0.53062,-1.44381 0.29724,-4.06356 -0.875,-4.5 -2.38881,-0.93543 -1.97672,-1.4041 -2.40625,-3.59375 -0.98749,-2.63371 -1.98525,-5.907 -5.0625,-6.75 -1.81932,-0.5116 -2.71502,-2.19045 -4.84375,-1.65625 -1.47575,0.74886 -3.51231,-0.42236 -4.5,-0.90625 -2.23987,0.002 -4.80016,-0.14019 -6.125,-2.21875 -0.037,-1.40997 0.0552,-2.30318 -0.78125,-3.78125 -0.73555,-1.15091 -1.54305,-2.40875 -3.28125,-2.40625 -1.51234,-0.67551 -0.74802,2.5596 -2.40625,0.3125 -1.35846,0.53417 -2.25826,-0.73459 -3.59375,-1.5 -1.08596,-0.16889 -2.659,-1.6772 -3.3125,-1.8125 -2.28207,0.29118 -2.60611,-1.24165 -4.1875,-0.28125 -0.48901,-0.62286 -0.62371,-2.407 -2.09375,-2.125 z m 98.34375,83.15625 c 0.004,0.0817 0.013,0.14545 0.0312,0.25 l 0,-0.28125 c -0.0134,0.0198 -0.0185,0.0125 -0.0312,0.0312 z"
         id="path6512" />
      <path
         style="fill:#c8ffc8;stroke:#000000;stroke-width:0.90000004000000000;stroke-linecap:round;stroke-linejoin:round;stroke-miterlimit:9.99670124000000020;stroke-opacity:1;stroke-dasharray:none;fill-opacity:1"
         d="m 611.71116,438.99313 c -0.9868,0.002 -2.36829,1.08531 -3.1875,1.4375 -1.2837,1.83323 -4.20845,-1.65595 -4.21875,0.90625 0.5038,2.04949 -1.57923,3.0673 -3,4.5 -2.83124,0.30314 0.51662,3.26785 -1.78125,3.28125 -1.88712,-0.0452 -4.55873,1.06142 -6,-0.59375 0.17441,2.27445 -1.7435,2.46896 -2.125,4.1875 0.46518,1.4226 -0.82203,2.55845 -2.09375,3.625 -0.89402,0.2771 -1.4363,1.67098 -0.90625,2.375 -2.49808,0.86851 0.48438,3.02876 1.5,2.40625 0.9305,1.71649 1.89214,0.0845 3.3125,0.59375 1.80896,0.35517 3.05635,0.51428 1.1875,1.21875 -1.48952,0.94966 -1.43248,1.9021 -3,2.40625 0.46543,0.1561 -4.1233,1.54515 -4.1875,3.28125 -2.04818,2.81772 2.58002,1.33807 2.6875,3.3125 2.38978,-0.024 1.44642,2.52838 3.625,3.28125 1.89335,0.97317 2.12826,2.33623 0,3 -2.72553,1.03409 -1.27492,3.4427 -0.3125,5.40625 -0.46016,2.60202 -0.77219,6.8274 2.09375,7.21875 -0.0565,0.79092 -3.25139,2.61705 -3,5.375 0.59947,2.8443 -1.52118,4.8705 -3.59375,5.71875 -1.64582,0.42546 -2.69428,3.44015 -3.3125,0.90625 0.22602,-1.05066 -1.08041,-1.62673 -1.5,-2.40625 -0.98795,-0.42603 -2.51202,1.33167 -3.28125,-0.59375 -1.49339,-1.26897 -2.33787,0.37712 -3.3125,-0.90625 -1.28424,0.8321 -2.44855,1.45617 -3.59375,0.59375 -1.31254,1.33785 -3.43081,-0.19044 -3.90625,2.6875 -1.20373,1.36289 -2.46703,1.63103 -4.78125,1.21875 -0.52403,2.84738 -2.33387,0.95949 -3.3125,2.40625 -1.40293,1.34375 -1.4661,3.42462 -2.6875,4.5 -0.32465,2.08263 -1.01483,2.21705 -1.5,4.1875 0.16604,1.2616 0.84268,5.12607 -2.125,3.3125 -2.54244,2.17733 -3.09982,1.66708 -7.25,2.4375 -1.95509,0.78284 -5.45326,2.23168 -5.34375,5.0625 -0.38929,2.16025 3.41777,2.43877 1.21875,3.875 -0.54232,1.68222 2.711,2.40179 1.78125,3.90625 2.50634,0.77774 0.64575,2.57236 0.59375,4.21875 -0.86227,2.74948 -3.0629,1.39845 -3.875,2.375 -0.80874,1.1787 -2.11828,2.67775 -3.625,2.125 -1.08397,-1.39251 -3.98565,1.49896 -3.875,-1.5 -2.20372,-0.62845 -2.78813,2.02848 -4.21875,2.6875 -1.46995,0.38241 -3.43423,0.53468 -4.78125,-0.59375 -0.39158,2.23105 -2.74466,1.6105 -5.125,1.5 -1.29636,-1.75564 -5.26284,3.96869 -4.1875,-0.90625 0.93569,-2.46005 -3.36815,-0.37861 -3.59375,0.59375 -0.85142,1.95766 -1.78402,0.18445 -3.3125,0.59375 -1.47073,-1.63786 -2.05058,0.29901 -3.59375,-0.28125 -1.85728,-0.62462 -1.71455,2.33243 -2.09375,3.28125 -1.45531,2.63065 -1.69792,-1.46265 -2.71875,-2.09375 0.52168,-1.23856 -0.9583,-3.63082 -1.5,-2.6875 -1.82947,0.25665 -2.88306,1.08657 -3.59375,3 -1.83063,0.60643 -3.41197,0.0919 -4.5,1.5 -1.81992,0.30995 -0.18204,4.03724 1.8125,3.90625 0.89461,0.5953 -2.45745,2.78209 -2.71875,4.1875 0.66966,1.08604 0.3447,3.97885 1.5,5.09375 -1.41971,2.3802 0.1401,5.51128 -1.78125,6.90625 -0.0451,1.67505 -0.96268,3.5016 -2.125,4.1875 -1.6497,0.89994 -2.98255,1.94149 -2.6875,4.21875 -1.19684,1.26305 -1.89828,4.0208 -0.59375,5.09375 1.10369,3.11971 3.21767,0.15882 4.78125,-0.3125 2.46404,-1.21805 3.96553,0.25932 4.21875,3 2.35881,0.53814 1.33478,1.57577 3.90625,0.90625 2.03589,0.18122 2.16633,-1.80799 2.40625,-3.59375 -0.38572,-0.46652 1.26072,-0.46652 0.875,0 2.07094,-0.74388 2.45555,0.23066 2.40625,1.8125 1.90105,0.54337 2.35504,-0.57352 3.90625,-0.3125 0.99405,-1.38592 5.33658,-2.05167 5.6875,0 -0.87225,1.86338 1.7379,4.82315 1.8125,5.6875 0.62062,1.52438 -2.08517,2.82031 0,4.21875 2.40492,-1.04524 3.40299,-1.92061 4.5,-0.3125 2.17283,-0.83136 4.10544,0.3054 4.8125,2.40625 1.87699,1.26919 3.8612,0.59829 4.78125,0.3125 1.39278,-0.85863 0.65724,-1.13297 2.09375,-2.40625 1.56313,0.0755 2.08184,2.62816 3.90625,0.90625 0.64176,0.25019 2.57119,0.70996 3.3125,1.5 1.94832,1.53256 1.27132,-1.13816 2.40625,-1.8125 1.61251,1.15192 1.72401,-2.6189 4.1875,-2.6875 0.64596,0.40861 3.53757,-0.17028 4.1875,-1.8125 1.58567,-0.22349 2.32257,-2.33168 1.21875,-3.90625 -1.04187,-2.71186 2.49895,-1.53598 2.40625,0.3125 1.29839,-1.02082 2.94501,0.81987 4.5,0.28125 1.43928,1.41871 3.78064,2.00338 5.09375,3.3125 2.29985,-0.50512 2.37033,1.88408 3.28125,-0.3125 1.75345,-0.53887 3.97059,1.56486 4.21875,3.625 1.47271,2.17807 3.84111,-0.46632 3.59375,-1.21875 -0.19723,-1.77205 -0.24585,-3.12584 0,-5.09375 1.61841,-1.62159 2.13495,-4.83896 2.09375,-6.90625 1.60939,-0.47231 1.68734,-3.6221 4.21875,-3.28125 2.63272,-0.009 4.34084,-3.05722 6.28125,-1.5 1.84953,0.92847 5.03793,-0.56573 7.21875,0.59375 1.7123,-1.92882 6.17722,-0.40575 6.59375,-3.90625 1.85163,-1.6827 4.08863,0.80667 5.40625,1.1875 1.20919,3.11426 4.65192,-0.96014 4.78125,2.71875 0.21845,2.32315 3.34148,1.62057 5.40625,2.6875 2.23311,-1.27224 3.39661,-0.71088 4.5,1.21875 1.36219,0.5872 2.27842,2.46502 2.6875,4.5 -0.0587,2.87671 3.71647,1.67686 4.8125,3.875 2.39318,1.10496 1.24603,3.82964 1.5,5.125 -0.91707,2.57356 2.16861,1.25059 3.3125,0.875 2.53186,2.24178 3.52509,-2.27466 4.78125,-3 2.61552,-2.2326 5.73251,-2.04423 7.75,-4.6875 4.81488,-0.1095 3.46164,-0.3116 3.0625,-4.3125 1.53651,-2.30996 3.45476,-6.77974 6,-6.59375 2.37928,2.33394 3.97278,-0.57975 4.78125,-0.28125 2.14325,1.51294 3.1793,-2.82156 4.5,-1.21875 2.56592,-0.31591 3.77854,0.96769 4.5,-0.90625 1.63952,-0.28134 3.15738,0.12224 4.5,-0.875 2.4983,-0.1475 1.28955,-1.26894 0,-2.125 -1.59981,-0.44829 -1.88879,-2.37318 -0.28125,-3.28125 -0.54768,-1.86676 2.82333,-3.2198 2.6875,-3.3125 1.43091,-2.3154 3.34572,-0.79561 3.90625,-2.09375 0.79176,-1.38441 1.0347,-1.75951 1.8125,-3 0.0975,-1.88556 -1.06336,-2.23612 -1.21875,-3.59375 -0.57559,-2.05916 0.0422,-4.76061 -1.78125,-4.5 -2.52845,-0.33428 0.99335,-1.42633 1.5,-2.09375 -0.18492,0.019 2.51711,-1.70627 1.78125,-3.3125 -0.0432,-0.82531 -2.08141,-0.49911 -2.40625,-0.90625 -0.97912,0.0262 -1.1129,0.83585 -2.375,0.59375 -2.87727,0.52495 -2.77608,-1.48716 -5.125,-1.78125 0.16449,-1.79964 2.03777,-3.28705 0.90625,-5.40625 0.78301,-1.4592 3.233,0.28914 3.3125,1.5 1.64993,0.36568 3.36031,0.89335 3.90625,-0.59375 1.50916,-0.58766 3.7812,0.26354 2.375,-1.21875 0.17958,-2.80528 2.11676,-2.96846 2.71875,-5.375 1.02364,-0.9911 -0.44796,-3.203 -1.5,-3.90625 -0.63737,-0.95477 -0.5033,-2.4347 -1.8125,-3.3125 -0.67541,-0.70783 -2.19717,-3.36655 -0.59375,-3.28125 1.73763,0.27927 1.54485,-3.12087 0.59375,-3 0.93877,-1.54934 0.11612,-2.67381 1.21875,-4.21875 0.42277,-2.09799 -1.55179,0.62061 -2.40625,0 -1.23896,-0.17696 -1.17711,0.1238 -2.71875,1.21875 -1.32865,-1.20827 -1.34639,-1.26128 -2.375,-2.40625 0.20682,-1.28562 -0.75797,-1.38593 -1.8125,-3 0.0806,-2.55619 -2.17011,-1.2196 -1.8125,-2.40625 -0.009,-1.3693 0.23731,-3.4378 -1.1875,-1.5 0.0766,-0.39118 -2.79737,-3.31728 -3.3125,-0.59375 -1.00078,-1.45375 -2.93197,-1.18529 -3.875,0.28125 -1.3367,1.08464 -3.75206,-0.0572 -2.125,-1.1875 0.23495,-1.09225 -2.07219,-2.35579 -0.28125,-3 1.5535,-0.003 2.3627,-1.22326 3,-2.09375 0.0229,-2.32456 2.96891,-1.61997 4.5,-0.59375 2.84516,-0.35345 -1.69969,-1.50575 0.28125,-2.71875 -0.24671,-1.00841 1.44975,-2.881 0.3125,-3.59375 0.11431,-2.51436 -4.7089,-0.0786 -5.09375,-2.09375 -0.80259,-2.06867 -1.62122,-1.57977 -2.71875,0 -0.9046,-1.45617 -0.24587,-3.30489 -1.5,-3.90625 0.0215,-1.75926 0.96867,-3.39467 1.5,-3.90625 -0.20276,-1.69797 0.86769,-1.75365 0.3125,-3.90625 -1.22571,-1.24231 -2.14278,-0.98773 -4.1875,-1.1875 -0.99982,-0.51115 -2.22797,1.64046 -3,-0.90625 -2.09654,-1.70691 0.18365,-0.79024 0,-3.28125 -0.91908,-0.62626 -3.6154,0.8445 -4.5,0.28125 -1.42337,-1.86759 -4.03723,-3.00926 -5.71875,-3.90625 -2.95922,-1.51327 -0.38231,-3.65979 0.59375,-4.78125 -1.57297,-0.51265 -1.73156,-2.11994 -0.28125,-3 0.30336,-1.66874 4.76897,0.31591 3.90625,-1.8125 -1.63906,-1.48082 -2.8733,-1.76849 -3.90625,-3.90625 -1.33797,0.18381 -2.93476,-0.91988 -4.5,-1.1875 -2.62813,1.0478 -0.16545,-0.7167 -2.09375,-1.1875 -2.17555,-1.14542 1.11214,-2.67278 -0.90625,-3.3125 1.42998,-2.01289 -1.40606,-1.34492 -1.8125,-3 -2.08137,-0.11806 -3.01702,-0.72675 -5.09375,-1.1875 0.60507,3.1815 -1.90991,1.09556 -2.40625,1.78125 -0.52365,2.44141 -1.5946,1.02607 -3.90625,1.21875 -0.21857,-1.5573 -3.38087,-1.53384 -2.09375,-3.625 -0.0808,-1.68203 -2.08459,0.63751 -3,0.90625 0.0701,3.0463 -3.03117,0.48681 -3.28125,-0.90625 -2.12594,0.22591 -1.15446,-2.63301 -1.8125,-3.875 -0.19094,-0.61338 -0.55146,-0.84481 -1,-0.84375 z"
         id="path6526" />
    </g>
  </g>
</svg>
