<?xml version="1.0" encoding="UTF-8" standalone="no"?>
<!-- Created with Inkscape (http://www.inkscape.org/) -->

<svg
   xmlns:dc="http://purl.org/dc/elements/1.1/"
   xmlns:cc="http://creativecommons.org/ns#"
   xmlns:rdf="http://www.w3.org/1999/02/22-rdf-syntax-ns#"
   xmlns:svg="http://www.w3.org/2000/svg"
   xmlns="http://www.w3.org/2000/svg"
   xmlns:sodipodi="http://sodipodi.sourceforge.net/DTD/sodipodi-0.dtd"
   xmlns:inkscape="http://www.inkscape.org/namespaces/inkscape"
   width="793.84973"
   height="1143.1251"
   id="svg3914"
   version="1.1"
   inkscape:version="0.48.4 r9939"
   sodipodi:docname="regions.svg">
  <defs
     id="defs3916" />
  <sodipodi:namedview
     id="base"
     pagecolor="#ffffff"
     bordercolor="#666666"
     borderopacity="1.0"
     inkscape:pageopacity="0.0"
     inkscape:pageshadow="2"
     inkscape:zoom="0.35630631"
     inkscape:cx="521.9171"
     inkscape:cy="432.67051"
     inkscape:document-units="px"
     inkscape:current-layer="svg3914"
     showgrid="false"
     inkscape:window-width="1276"
     inkscape:window-height="761"
     inkscape:window-x="0"
     inkscape:window-y="18"
     inkscape:window-maximized="0"
     fit-margin-top="0"
     fit-margin-left="0"
     fit-margin-right="0"
     fit-margin-bottom="0" />
  <metadata
     id="metadata3919">
    <rdf:RDF>
      <cc:Work
         rdf:about="">
        <dc:format>image/svg+xml</dc:format>
        <dc:type
           rdf:resource="http://purl.org/dc/dcmitype/StillImage" />
      </cc:Work>
    </rdf:RDF>
  </metadata>
  <g
     id="g3066">
    <g
       transform="translate(16.488683,15.598525)"
       inkscape:label="#g7289"
       id="highlandsAndIslands">
      <path
         
         d="m 257.56281,617.23188 c -11.8231,5.42519 -21.9265,0.53398 -23.188,14.533 11.7701,2.04361 29.8842,-11.03162 25.783,-3.999 7.9636,31.63328 -4.5555,-3.74987 -17.594,14.782 -16.8971,14.44827 27.6633,19.62405 21.8171,22.525 -15.0043,9.49862 -27.5421,-15.01298 -38.7221,5.854 1.0307,10.93826 34.2068,16.57757 17.2878,16.89025 -13.7879,-7.6845 -23.3411,-9.95871 -28.0388,8.54875 7.619,3.18347 -13.0799,10.20366 5.124,7.406 16.8935,-7.65557 0.6853,13.72392 12.657,4.252 -0.013,2.67708 -16.7017,16.73148 -19.437,12.875 18.1303,-2.68602 -4.0326,11.5875 -6.688,1.939 -9.1829,4.80422 -33.5118,-1.17076 -25.939,14.753 12.1218,1.13783 22.5205,4.00161 32.625,4.908 4.0357,-11.92941 49.491,4.52147 20.625,0.72 -20.3104,-7.6773 -17.1727,14.92284 -28.3706,1.83625 -11.4008,-4.00087 3.1295,35.76781 18.9026,19.66275 -4.0444,23.14571 26.2468,-15.37695 27.779,-8.375 17.3216,-9.68695 28.9507,-27.31082 38.686,-34.967 -45.3008,32.24193 37.3785,14.9064 0.471,22.533 -24.7112,0.45883 -17.8497,13.18509 -30.375,20.968 -10.8406,17.32096 29.9397,-4.56812 6.343,8.219 -13.3367,-1.57231 -2.8904,16.05468 -9.375,11.719 16.6591,3.21476 28.2385,0.27808 36.344,-16.844 -4.7866,21.65432 -20.336,21.17013 -36.343,18.251 -20.3085,5.2437 -2.5046,25.54121 -13.157,18.75 -15.8425,14.46679 -2.5459,20.10123 1.1179,18.74988 -5.782,1.34548 -17.3017,33.2551 -3.7139,13.34512 7.6034,0.12366 -11.4574,22.99637 -8.655,19.94 -9.3351,10.25088 -14.4787,34.8261 -4.938,13.562 2.8607,-2.46349 9.5292,-14.31877 7.968,-3.501 -25.8248,26.86993 3.2883,9.5561 -5.842,22.97 -9.7598,10.01373 -1.0849,29.72504 8.436,18.282 27.3803,-25.51271 -17.8234,13.82291 -15.722,26.469 -7.1055,17.12102 -3.3401,35.51004 -15.719,49.21803 -8.4957,20.90219 24.6518,16.27259 29.312,2.343 -3.0037,-17.51385 -9.8208,-5.4492 1.874,-23.18603 6.1312,-14.32187 3.4328,-21.2154 8.471,-36.315 24.0815,-18.8277 1.1258,-32.17997 2.813,-58.377 6.4804,5.49961 21.9032,-16.98166 17.183,-12.82237 13.7702,-10.44518 19.7223,-28.18334 35.128,-30.77363 -4.182,3.58074 -47.3346,48.2155 -41.28,43.843 -1.4879,12.56768 -3.2969,31.47169 12.875,33.748 -12.0547,-39.99924 24.0008,2.01385 9.3922,-29.95862 -0.5354,18.30625 25.3621,34.11027 18.3272,1.54787 15.2669,-9.97235 -3.4941,-40.21808 13.5946,-25.02525 -1.5035,-12.97247 -3.3513,-24.31003 6.3402,-39.1185 -17.1834,-11.19386 22.2513,-29.46962 14.7308,-24.66025 -12.7774,-17.60139 17.4015,-12.97121 2.8899,-32.7635 -21.7194,6.50147 13.9538,-20.51664 17.4471,-22.17475 15.0644,-5.72584 26.4913,-28.39723 45.5771,-19.681 4.814,-14.31765 21.8259,2.71812 28.7969,-18.317 -3.4061,-21.73521 12.3313,-14.80894 25.907,-16.373 20.5497,1.99248 8.0734,-15.29585 21.6986,-18.81225 4.2403,-12.51411 19.5695,-17.24105 29.9254,-15.68775 5.4311,-16.51728 3.3135,-43.24931 -0.249,-34.936 11.0249,-5.13161 13.1333,-19.42905 5.0587,-27.72462 -5.8237,-12.60229 -28.481,-15.01596 -40.4977,-19.89838 -13.3796,4.61768 -45.1941,13.28738 -36.593,12.658 -3.2572,3.4041 -23.5463,15.00972 -15.7091,10.906 -18.5986,-8.10788 -15.0782,4.64516 -28.2899,15.435 -11.4405,5.08095 -36.7371,-0.61933 -21.093,0.593 1.4865,0.112 30.1716,-7.32545 28.627,-21.344 32.5827,-24.27209 -49.6178,-2.57996 -26.972,-0.935 -11.1985,10.70172 8.874,-17.0931 19.4961,-12.38412 13.4788,-9.94285 21.9724,4.39302 30.7249,-16.36488 21.4861,-23.00259 -4.8034,-10.14331 -17.312,-9.999 -13.0643,-4.77768 -38.3572,-8.86895 -17.251,-8.314 9.9618,5.85218 30.1589,6.61125 21.435,-3.282 0.8981,-16.0027 17.5945,-21.66807 27.187,-32.376 18.6353,-9.46664 27.4288,-32.27617 46.687,-40.751 12.592,-4.1514 21.075,-21.13358 21.125,-33.157 -15.5689,-1.90276 4.2348,-20.3281 3.283,-30.25 -11.8923,-0.74204 -18.8158,-3.38992 -30.498,-1.405 -11.0484,-8.49119 5.4799,16.11168 -15.467,7.969 -5.1948,-5.41325 -18.2278,-3.87307 -26.751,5.157 -7.6084,1.86291 -23.4237,1.60855 -23.69,-4.436 -1.9141,4.90429 -7.3991,6.69437 -12.442,5.375 -2.9167,3.51708 -16.8891,3.09087 -12.44,3.782 -6.9837,-1.36723 -20.3468,8.41599 -14.627,11.19 -8.9697,9.91194 4.9081,-11.57646 3.127,-10.969 -3.65,2.20099 -8.91,-13.78957 -18.781,-7.5 -1.9231,15.9471 -16.4489,20.25249 -15.469,20.626 16.696,-10.83299 -8.5629,-26.65558 -2.811,-25.316 -2.4077,1.61958 -0.3172,3.77905 -0.687,9.375 -0.9415,-10.80436 -10.2297,-14.02723 -19.72,-16.438 2.0009,12.11996 -23.6637,21.73545 -6.6434,30.40325 13.2808,12.21067 0.2294,10.46139 -3.7016,7.16075 -3.0944,-0.0522 10.2575,7.67849 1.906,5.843 -4.0374,-2.03492 -8.4199,-4.9634 -8.062,1.001 -7.486,6.70146 2.2554,10.58876 0.316,15.655 0.7627,6.617 11.0957,8.33545 20.406,8.937 1.7967,14.24528 -25.8028,4.28805 -19.467,-0.938 -6.3766,4.3574 -16.063,-3.89038 -12.687,-1.657 0.023,-0.73788 -5.0493,11.75667 -8.654,1.407 -13.4057,-6.41256 5.3374,19.25385 3.503,16.656 9.5678,3.62834 8.2964,16.42702 2.343,11.501 -3.3492,16.112 -14.8896,-8.57668 -18.533,3.751 6.3292,9.28607 15.2532,21.14063 26.28,24.313 -7.9595,10.96309 23.6853,32.03719 -3.282,9.218 -20.5112,-11.57028 -21.7753,-4.48304 -2.812,8.688 -15.4083,-17.12411 -25.487,6.83279 -33.782,-13.125 -18.8408,-2.0753 7.4233,23.8862 -5.156,22.749 -3.0953,13.23428 -1.532,-24.38673 -14.092,-14.531 -16.9148,2.27835 10.23,51.237 6.8955,32.63088 -26.9621,-17.34523 1.3947,38.80572 -3.1485,22.49212 7.4762,5.33685 26.1513,5.47366 7.281,7.5 -5.5821,1.66479 -19.4049,-2.05561 -11.719,-3.282 -7.2267,-18.142 -15.2182,5.54003 -12.688,16.655 7.6586,9.73796 -2.046,27.49165 20.406,12.437 -5.0829,11.84894 27.5862,-10.66498 14.718,5.219 m 0.01,-0.025 -0.188,-0.156 m -13.218,-327.562 c -5.2926,5.11315 3.5675,3.93484 0,0 z m 255.596,89.531 c -6.4936,9.81558 4.3568,6.85443 0,0 z m -0.688,0.625 c 0.1834,-0.3989 -0.1989,-0.0908 0,0 z m 19.219,0.781 c -1.0828,3.17216 1.5916,-0.60349 0,0 z m 3.406,1.594 -0.125,0.062 0.125,-0.062 z m -77.847,186.781 -0.312,-0.062 0.312,0.062 z m -210.47,313 -0.031,0.312 0.031,-0.312 z m 6.875,-49.969 c -0.8298,-1.44146 -1.3102,-0.33231 0,0 z m -33.625,-90.5 0.094,0.281 -0.094,-0.281 z m 8.094,-45.156 -0.031,-0.094 0.031,0.094 z m 40.093,-62.719 -0.219,0.469 0.219,-0.469 z m -16.75,-10.125 c 0.4898,0.18384 -0.1101,-0.84585 0,0 z m 0.813,-1.906 -0.25,-0.062 0.25,0.062 z m -11.781,-45.531 0.031,-0.031 -0.031,0.031 z m 70.687,-139.375 -0.031,-0.031 0.031,0.031 z m 72.47,-18.687 c -1.0683,0.32737 -0.5705,1.91352 0,0 z m 0.031,-1.688 -0.281,-0.062 0.281,0.062 z m 79.282,-23 -0.031,-0.031 0.031,0.031 z m 42.969,-7.844 0.188,0.062 -0.188,-0.062 z m -0.031,0.282 0.219,0 -0.219,0 z m -168.69,2.812 c -0.093,0.71403 0.5906,-0.0459 0,0 z m 6.563,0.344 -0.25,0.156 0.25,-0.156 z m 1.907,2.406 0.188,0.094 -0.188,-0.094 z m 27.5,5.906 0.156,0.281 -0.156,-0.281 z m 4.781,0.344 0.062,0.156 -0.062,-0.156 z m -14.968,0.875 c -0.1413,1.61839 -4.6943,0.91307 0,0 z m 59.5,0.313 -0.125,0.156 0.125,-0.156 z m -213.283,1.218 c -8.6336,10.93994 -24.9715,19.1647 -36.158,28.969 -7.8037,-0.61746 -14.10103,5.52259 -21.126,9.813 4.16856,0.38323 -3.06686,6.79526 4.282,12.874 5.4466,10.4627 3.77529,8.48571 -5.999,3.124 -11.24066,0.57701 -2.77516,23.79729 -7.594,7.093 -4.95933,-7.46394 -12.60429,-12.24811 -6.595,-11.592 -9.59979,-12.25824 -16.69203,2.84643 -11.658,5.312 -4.70117,1.61906 -9.22099,26.18043 3.312,19.968 -12.76417,11.34531 18.97766,4.27719 4.877,7.688 -8.15611,4.47659 -16.11353,4.54447 -11.219,11.091 5.14057,6.51809 10.089,3.94722 16.532,7.094 1.45326,0.55042 -0.84766,9.88926 5.187,8.376 -10.70896,-5.37021 -22.32632,14.04893 -17.157,9.968 -8.27332,4.5127 -14.36069,-4.18896 -6.342,10.376 7.27834,3.36326 11.18681,16.05148 15.907,2.626 1.60634,-1.23937 1.94167,-15.92105 5.721,-10.466 8.72454,8.30077 17.47261,2.58774 10.748,1.749 3.50897,-4.44735 -9.24365,-10.7039 -1.687,-12.908 17.1429,9.35115 6.47603,-13.45933 8.154,-8.501 -8.13968,-2.30765 5.4802,-26.43324 2.656,-20.471 22.2755,0.52653 -11.90395,2.32182 -1.874,17.685 8.8156,19.61524 7.4745,2.94996 7.655,2.937 6.8307,14.61874 4.5911,-5.46453 13.094,2.436 15.0041,-8.2984 -14.427,-13.43337 -2.314,-13.403 4.5343,-1.81984 17.065,6.51918 14.719,-4.309 -8.6775,2.92617 8.4395,-11.13045 -5.031,-11.437 -11.2686,2.60504 -27.98462,2.08262 -4.09,-0.751 -2.4405,-10.75034 14.4001,-1.50609 5.531,-7.469 10.6951,1.97397 -0.9512,-19.65625 7.529,-7.407 6.8812,-1.2931 17.2298,5.64486 19.812,-7.937 2.9079,-14.24469 -14.5695,14.37598 -17.684,-0.094 2.9725,-7.79158 9.1413,-11.51759 15.938,-18.811 -0.7268,3.78326 -3.5811,-42.18615 0.5,-19.031 1.8907,-4.70503 -2.7693,-9.66655 -5.626,-14.592 z m 150.751,0.094 -0.188,0.344 0.188,-0.344 z m -10.687,0.875 0.812,0.312 -0.812,-0.312 z m 43.751,0.063 c -0.2317,4.21299 5.7316,1.44965 0,0 z m 24.687,0.718 0.188,0 -0.188,0 z m -18.812,1.625 c -2.6179,-0.3416 1.1182,3.53082 0,0 z m -9.001,0.219 c -0.9978,2.58842 0.8086,0.12877 0,0 z m -39.875,0.5 c -0.8592,2.35578 -1.2756,0.73556 0,0 z m 59.532,0.406 0.125,0.062 -0.125,-0.062 z m -61.095,1.157 -0.938,1.031 0.938,-1.031 z m 1.313,0.031 c 0.654,-0.12038 -1.9988,2.66537 0,0 z m 36.719,0.281 0.188,0 -0.188,0 z m 1.843,5.031 -0.25,0.375 0.25,-0.375 z m -3.125,1.063 c 0.094,-0.0744 0.1507,0.21737 0,0 z m -68.313,0.656 0.125,0.062 -0.125,-0.062 z m 69.782,0.438 -1.406,0.562 1.406,-0.562 z m -68.032,0.125 0.25,0.188 -0.25,-0.188 z m -0.219,0.187 c -3.2102,-0.17722 0.07,2.67838 0,0 z m 40.626,0.219 c -0.9658,0.95316 -2.2847,3.46253 0,0 z m -39.032,0.625 0.281,0.094 -0.281,-0.094 z m 1.312,5.219 0.125,0.281 -0.125,-0.281 z m -4.375,0.875 0.281,0.125 -0.281,-0.125 z m -0.062,0.062 -0.125,0.062 0.125,-0.062 z m 1.312,0.75 0.219,0 -0.219,0 z m 1.188,0 0.188,0 -0.188,0 z m 62.063,0.375 -0.875,1.5 0.875,-1.5 z m -62.782,0.563 0.219,0 -0.219,0 z m -0.906,0.187 -0.062,0.281 0.062,-0.281 z m 0.437,0.188 c -0.9798,1.28391 0.8264,0.0131 0,0 z m -0.031,2.218 0.25,0 -0.25,0 z m -1.906,0.75 0.281,0.188 -0.281,-0.188 z m 2.781,1.782 c -0.9115,0.22751 1.6822,-0.0488 0,0 z m 1.469,0.968 c -1.2037,0.92269 2.3356,0.87205 0,0 z m 2.906,0.594 -0.062,0.125 0.062,-0.125 z m 0.438,0.188 -0.031,0.156 0.031,-0.156 z m -9.657,0.156 c 0.074,0.20533 0.4836,-0.17834 0,0 z m -0.406,0.437 0.156,0.031 -0.156,-0.031 z m -2.094,0.032 c -8.4908,2.58483 6.0425,6.16843 0,0 z m 2.063,0.718 0.188,0 -0.188,0 z m 10,0.625 0.281,0.062 -0.281,-0.062 z m -247.687997,1.719 c 0.76025,3.63158 1.476,0.39629 0,0 z m -5.781,0.344 c -3.32954,1.63157 3.2642,1.66407 0,0 z m 5.938,2.187 c -2.30857,1.49465 1.19521,1.26551 0,0 z m 69.280997,2.282 c -0.97684,1.04133 1.21364,0.55175 0,0 z m 165.656,0.093 0.219,0.031 -0.219,-0.031 z m -0.156,0.469 -0.094,0.031 0.094,-0.031 z m -169.281,0.656 c -1.86269,0.2176 0.68107,1.23838 0,0 z m 3.718,0.75 c -1.57402,1.99318 2.43778,1.01589 0,0 z m -3.187,0.5 c -2.56238,0.7873 1.64208,1.45894 0,0 z m -0.031,1.563 c -1.67736,1.86464 2.26668,0.21205 0,0 z m 2.781,0.062 c -2.06216,3.12494 8.69799,2.32027 0,0 z m 167.062,1.657 c -1.0191,0.42672 1.9282,1.71927 0,0 z m -167.875,0.093 c -2.81127,6.56768 10.28489,17.45208 8.908,7.122 -5.2087,-1.30386 -2.55694,-6.13428 -8.908,-7.122 z m 170.375,0.063 0.094,0.062 -0.094,-0.062 z m -4.125,0.281 c 0.9226,1.07851 0.8572,0.17185 0,0 z m 3.532,0.5 c -0.2265,0.60418 0.7186,-0.0233 0,0 z m -0.438,0.031 c -1.6189,1.2406 -2.2508,2.22443 0,0 z m -1.937,0.438 c -0.6634,0.29495 -0.3179,0.5904 0,0 z m -1.375,0.219 c -0.054,0.74215 0.6077,-0.15614 0,0 z m 0.687,0.718 -0.25,0.312 0.25,-0.312 z m -172.562,0.188 c -2.69487,4.02139 5.35481,3.82613 0,0 z m 170.062,2.125 0.625,0.031 -0.625,-0.031 z m -166.875,0.219 c -4.94867,2.39033 2.91065,3.8493 0,0 z m 172.188,0.75 c -1.5886,0.87192 3.0049,3.27415 0,0 z m -170.813,2.062 c -2.93101,5.10495 5.81618,3.50082 0,0 z m 12.125,1.094 c -2.25898,2.28159 2.62255,1.25406 0,0 z m 149.563,0.812 0.188,0 -0.188,0 z m 2.187,1.157 -0.344,0.031 0.344,-0.031 z m 20.219,0.187 c -0.2865,-0.0713 -0.141,0.61246 0,0 z m -18.875,0.063 0.188,0.031 -0.188,-0.031 z m 1.406,0 0.188,0.031 -0.188,-0.031 z m -154.844,0.125 c -2.39677,3.51938 2.78865,1.33128 0,0 z m -12.125,0.062 c -2.09514,2.30063 3.19708,1.59951 0,0 z m 156.938,0 c -1.2267,0.63866 0.6126,0.12912 0,0 z m 9.219,0.25 -0.406,0.062 0.406,-0.062 z m -162.625,0.343 c -3.39427,0.52809 1.07581,1.84758 0,0 z m 164.906,0.157 0.125,0.031 -0.125,-0.031 z m 0.187,0.375 -0.281,0.125 0.281,-0.125 z m 10.969,0.125 c 1.6142,0.46563 0.2934,-0.22009 0,0 z m 7.5,3.25 0.25,0.031 -0.25,-0.031 z m -211.312,10.687 c -1.30583,1.85509 3.14353,1.02206 0,0 z m 71.875,1.438 c -5.101,1.04243 1.9802,2.05317 0,0 z m -72.438,0.937 c -3.05402,0.7674 1.41893,1.38045 0,0 z m 74.344,0.469 c -2.8509,1.00651 2.6058,0.61303 0,0 z m -73.344,1.031 c -4.8985,1.21791 3.54063,6.06517 0,0 z m 67.938,0.563 c -5.8176,2.70176 2.662,2.70745 0,0 z m 109.625,0.156 c -4.134,-0.15614 1.4105,1.9261 0,0 z m 0.656,0.031 0.062,0.188 -0.062,-0.188 z m 3.687,1.313 -0.125,0.281 0.125,-0.281 z m -7.375,1.468 -0.344,0.125 0.344,-0.125 z m -177.406,4.813 c -9.81326,7.39656 13.66182,10.39129 0,0 z m 181.5,0.094 c -0.635,0.6932 1.0502,-0.29404 0,0 z m -174.125,2.406 c -1.35733,1.05825 2.56383,0.91615 0,0 z m -2.687,0.531 c -0.31447,3.0194 2.5577,0.0139 0,0 z m 174.375,1.719 0.219,0.031 -0.219,-0.031 z m -12.907,3.437 c -0.5662,-0.005 -0.034,1.21954 0,0 z m -0.218,0.469 c -2.0978,0.11061 0.9097,4.33801 0,0 z m -180.499997,0.031 c -2.4376,1.05004 1.93125,2.13659 0,0 z m 182.436997,0.032 c -4.8084,5.06129 5.5132,3.06786 0,0 z m -126.906,0.437 c -4.68971,3.49259 4.5425,6.13639 0,0 z m -53.843997,1.469 c -1.70812,0.70831 1.38107,1.06556 0,0 z m 81.874997,0.906 c -3.292,2.75343 7.9686,1.94169 0,0 z m 95.5,1 c -2.4434,2.25575 2.1407,0.73992 0,0 z m 2.125,1.656 c 0.2279,0.72633 0.4041,-0.30086 0,0 z m 3.594,0.188 c -4.4149,5.01385 6.1581,7.1611 0,0 z m -1.75,0.031 -0.219,0.625 0.219,-0.625 z m -0.219,0.625 0,0.094 0,-0.094 z m -0.25,0.313 c -1.5549,0.5663 1.3509,3.6573 0,0 z m -1.281,0.218 c -2.9699,1.34806 3.32,4.78993 0,0 z m -165.625,2.532 c -1.25964,1.06916 2.70189,1.51359 0,0 z m 14.031,0.406 c -0.62716,4.66041 6.09542,2.39452 0,0 z m -14.969,0.406 c -1.12453,1.08103 1.87012,1.33886 0,0 z m 167.875,0.656 0.219,0 -0.219,0 z m 7.969,0 c -1.273,3.78266 2.2867,4.36282 0,0 z m -11.094,0.282 0.062,0.188 -0.062,-0.188 z m 1.782,0.156 0.156,0.031 -0.156,-0.031 z m -0.782,2.625 c -0.2308,0.60696 0.5938,-0.24498 0,0 z m 2.094,0 c -2.4725,2.45124 1.6313,1.21048 0,0 z m -155.844,0.094 c -7.16899,2.73354 -11.78494,10.26935 -2.248,6.5 1.40501,4.8657 7.112,-6.09229 2.248,-6.5 z m 166.719,0.625 0.156,0 -0.156,0 z m -18.844,0.937 c -3.632,1.71792 2.0759,4.27334 0,0 z m 6.094,0.344 c -1.9025,1.29191 1.4931,0.8456 0,0 z m 1.094,0 0.094,0.125 -0.094,-0.125 z m 6.937,1.25 c 0.071,1.7579 0.6435,-0.14404 0,0 z m 0.25,0.656 -0.281,-0.156 0.281,0.156 z m 18.125,1.719 c 0.5038,0.27029 -0.6692,1.17013 0,0 z m -5.062,0.719 c -3.7281,2.44706 5.4369,1.89021 0,0 z m -111.75,1.062 c -6.5214,1.1077 3.6004,4.7888 0,0 z m 2.594,0 c -3.6367,2.07227 3.0505,3.52465 0,0 z m -7.407,1.156 c -1.431,0.64734 1.7593,1.06257 0,0 z m -33.843,1.219 c -2.93824,1.95851 2.98667,1.16609 0,0 z m 3.875,0.25 c -4.91586,8.57588 15.8259,4.82517 0,0 z m 35.375,0.25 c -3.6029,3.73742 2.6807,2.58511 0,0 z m -39.532,4.125 c -0.92007,2.08525 3.39702,2.13446 0,0 z m 125.407,0.125 c -0.01,7.67243 4.555,2.55593 0,0 z m -167.032,1.344 c -1.38395,0.52556 1.13872,1.38574 0,0 z m 144.875,2.25 0.062,0.188 -0.062,-0.188 z m -154.467997,1.719 c -2.24478,3.70763 2.86384,1.73825 0,0 z m 42.655997,1.906 c -0.76334,3.82433 4.68796,2.03575 0,0 z m 118.437,1.25 c -3.4777,5.69213 8.4158,7.73927 0,0 z m -158.686997,0.719 c -15.4616,5.9286 13.185467,6.63524 0,0 z m 35.936997,1.125 c 0.31515,2.8562 3.4418,0.0181 0,0 z m -21.406,1.968 c -4.26188,4.63404 4.67674,6.54231 0,0 z m 2.5,0.375 c -1.24596,1.43241 3.19517,1.81676 0,0 z m 2.031,1.094 c -1.64745,0.5478 0.99847,0.83022 0,0 z m -1.281,0.906 c -1.05837,1.57413 1.38615,0.79766 0,0 z m -6.156,0.594 c -1.03937,2.39569 2.77389,0.96832 0,0 z m 5.25,0.938 c -0.9886,0.84064 2.36946,0.87843 0,0 z m -3.281,0.468 c 7.20396,12.4439 -0.0947,0.67981 0,0 z m 2.687,0.344 c -1.25942,0.91942 0.96209,0.46988 0,0 z m 1.781,0.281 c -1.70449,0.90505 2.00083,1.16989 0,0 z m -14.093,0.907 c -14.361887,9.45292 11.68946,5.67857 3.28,3.093 2.40754,-2.03053 -0.80549,-3.39893 -3.28,-3.093 z m -49.968997,2.312 c -3.64187,1.70901 2.65795,2.11009 0,0 z m 39.187,0.25 c -4.23128,4.70756 5.43163,5.29583 0,0 z m 22.124997,1.469 c -1.15116,3.09428 6.86593,2.84566 0,0 z m 62.657,0.219 1.656,1.625 -1.656,-1.625 z m -126.874997,0.281 c -3.47901,0.50262 0.8796,1.98096 0,0 z m 69.999997,1.469 c -1.26712,1.87158 3.95864,1.98536 0,0 z m -30.874997,0.312 c -2.49671,12.38385 -20.76582,-1.74639 -21.311,14.499 -4.79105,4.60823 5.69247,10.2566 10.313,8.656 -9.72063,-1.74389 10.21231,24.17359 5.906,6.374 7.73426,7.11777 -2.26485,6.18752 6.905,9.247 7.0703,5.97793 6.84855,-0.47871 -0.315,-5.251 5.33446,2.60951 10.595477,4.10253 14.560997,-2.938 -4.72613,-2.94974 -21.972767,-6.99782 -9.562997,-3.437 5.735157,0.58851 20.745527,-5.12148 6.187997,-6.374 0.65249,-8.59173 -4.945277,-11.15267 7.219,-6.94 8.75888,6.86523 -4.85598,-8.14696 -4.438,-7.127 -4.37895,-13.91792 -16.673507,10.76592 -15.464997,-6.709 z m 27.842997,0.188 c -2.8041,2.03169 5.17959,3.77286 0,0 z m -5.375,0.156 c -2.85896,0.62418 1.27096,2.22082 0,0 z m -8.062,0.656 c -2.68679,2.0554 2.94753,1.65834 0,0 z m 15.656,0.25 c -1.74875,1.52579 2.20462,1.88792 0,0 z m 71.344,0.656 c -2.6775,0.97791 2.7521,2.40005 0,0 z m -71.969,1.063 c -1.79079,1.67269 2.31879,0.76184 0,0 z m 119.563,0.687 c 0.3933,3.96712 5.5708,-0.8321 0,0 z m -131.125,0.219 c -2.14918,1.149 0.56795,1.86806 0,0 z m 6.187,0.844 c -2.73931,2.529 4.68819,4.74568 0,0 z m -3.281,0.844 c -2.73292,2.80377 3.02013,1.39123 0,0 z m -1.188,0.031 c -4.7103,-0.60742 -2.53835,2.95279 0,0 z m 76.375,0.094 c -7.0684,10.92994 -15.0477,49.62954 -5.876,28.344 11.6145,26.17043 -11.5248,10.02652 -3.033,8.469 2.4226,12.07864 -30.55444,-36.95459 -18.093,-6.345 -3.00573,3.09984 1.3086,21.39297 -3.499,17.155 -6.84166,-24.14704 -4.01285,8.06626 -11.501,3.97 2.65733,17.73996 18.9492,15.55826 20.407,5.158 4.3935,-2.49411 2.8989,13.43422 11.719,8.687 19.3794,18.99386 -15.7359,-8.12838 -5.374,15.938 15.4555,6.44022 5.2796,19.62376 20.405,18.531 13.0062,-12.71367 22.656,4.44782 16.656,6.564 -3.2729,-23.07696 29.1842,-0.42936 13.843,-2.561 -6.9986,5.39792 -5.3454,29.79504 -9.2586,24.57925 9.3672,0.0688 24.2915,-23.78477 22.8856,-21.29825 12.2801,-6.25116 23.4424,-30.90592 -2.344,-20.406 -16.5871,2.80755 -18.6593,-11.22175 -30.281,-11.499 12.927,-2.85531 -10.1968,-19.4187 0.719,-22.282 5.5206,-21.01857 -0.3575,-45.31356 -17.375,-53.004 z m -74.406,1.656 c -2.39837,2.02224 3.52375,1.86346 0,0 z m 2.688,0.625 c -3.07918,4.72339 7.89107,2.09933 0,0 z m -6.532,0.031 c -3.30134,1.14209 2.08638,2.43543 0,0 z m 1.625,0.281 c -0.46385,3.12787 3.54534,1.08441 0,0 z m 139.75,1.219 c -1.8953,-0.44924 0.8805,2.21121 0,0 z m 2.219,2.313 0.125,0.312 -0.125,-0.312 z m -149.156,0.281 c -0.91904,3.0271 7.40916,4.95313 0,0 z m 95.531,0.844 c 0.3354,0.96822 0.701,4.54921 0,0 z m 285.189,1.187 0.438,0.031 -0.438,-0.031 z m -376.22,1.281 c -2.14773,2.17794 1.36975,1.02972 0,0 z m 1.25,1.688 c -1.6832,1.92621 2.38602,0.72238 0,0 z m 91.656,0.781 0.719,1.625 -0.719,-1.625 z m -92.875,0.313 c -2.0404,1.8846 1.93103,0.64824 0,0 z m 2.375,1.312 c -1.38312,0.0336 0.61838,1.40252 0,0 z m -2.75,0.281 c -2.56562,0.49213 1.04255,1.69425 0,0 z m 133.438,2.782 -0.281,0.094 0.281,-0.094 z m -73.969,1.625 1.406,1.188 -1.406,-1.188 z m -119.249997,1.125 c -0.95312,0.13735 0.52355,1.47641 0,0 z m 120.780997,0.312 c -1.0851,0.33829 2.8837,6.70546 0,0 z m -73.968997,0.25 c -1.03416,0.57583 1.52928,1.00813 0,0 z m -38.843,1.281 c 4.65622,6.75217 3.02293,4.40143 0,0 z m -3.313,0.219 c -3.53894,1.0956 -0.24439,3.71037 0,0 z m 9.969,0.188 c -1.94117,1.27906 2.12853,1.07922 0,0 z m 385.563997,0.937 -0.938,0.906 0.938,-0.906 z m -223.908,2.031 c -4.182,2.37119 -3.6737,22.65011 0.471,4.939 1.4572,-1.61369 0.3528,-3.74569 -0.471,-4.939 z m 0.375,0.219 -0.156,0.031 0.156,-0.031 z m -2.812,1.813 0.094,0.094 -0.094,-0.094 z m -135.968997,4.156 c -13.54534,3.26902 -4.21839,20.21978 6.344,18.03 -0.56485,-0.88387 13.173347,-4.05505 0.03,-6.967 13.241297,-6.29448 1.45445,-2.7691 -6.374,-11.063 z m 16.094,0.344 c -3.65984,2.62469 6.572317,2.19691 0,0 z m 54.030997,0.031 c -1.20821,1.42083 1.17652,6.02071 0,0 z m 0.656,0.031 0.062,1.406 -0.062,-1.406 z m -52.125,0.25 c -1.89874,2.16637 2.93583,0.68718 0,0 z m -4.124997,0.875 c -3.47736,6.27932 9.065347,5.03417 0,0 z m -3.312,3.219 c -0.54887,2.63726 5.998057,1.37161 0,0 z m 154.186997,0.656 0.219,0 -0.219,0 z m -31.781,1.031 c -1.111,7.05333 -1.7187,7.56221 -8.595,16.686 -1.0981,31.13241 8.1031,5.73507 10.563,-10.563 0.3023,-1.20224 0.3906,-5.88363 -1.968,-6.123 z m -119.437997,1.157 c -1.95495,1.76863 2.857997,1.54178 0,0 z m -3.031,1.781 c -4.04167,1.85707 3.07113,2.1901 0,0 z m -3.687,1.5 c -0.48397,2.50827 4.76878,1.61326 0,0 z m 113.467997,0.312 0.094,0.469 -0.094,-0.469 z m -51.531,2.813 0.438,0.562 -0.438,-0.562 z m 4,0 c -1.90161,0.30925 1.9256,1.62089 0,0 z m 57.125,0 0.125,0 -0.125,0 z m -59.187,0.281 c 0.63217,0.89767 0.19877,0.10038 0,0 z m 59.593,0.188 0.188,0 -0.188,0 z m -134.405997,0.125 c -12.20204,4.94192 -0.56701,17.37628 -8.249,27.342 -5.21402,5.47098 1.71061,20.78311 0.31,28.221 4.64356,4.22228 25.80112,6.07173 15.121,-1.629 -1.24019,-3.13797 -14.18438,-3.99263 -5.279,-6.249 15.65641,11.23575 5.50625,-10.99737 -1.716,-13.531 12.73054,3.26977 14.966,-7.88838 12.594,-7.626 7.865067,-5.99128 3.17079,-13.43217 -3.343,-12.406 -9.6e-4,-5.23861 -0.65202,-5.32428 -7.78,-13.718 l -1.031,-0.281 -0.627,-0.123 0,0 z m 74.062997,0.312 c -1.12721,1.74545 3.7543,1.87896 0,0 z m -57.031997,1.969 c -10.30154,4.15711 4.520217,5.63825 0,0 z m -5.281,1.875 c -7.14492,2.29116 6.15606,6.06364 0,0 z m 292.219997,0.125 -0.531,0.125 0.531,-0.125 z m -288.625997,1.625 c -3.89972,1.83018 3.38808,1.69694 0,0 z m 138.499997,7.437 -0.25,0.719 0.25,-0.719 z m -140.280997,0.188 c -3.79201,2.44967 -3.37166,-1.10463 0,0 l 0,0 z m 70.249997,2.469 c -1.772,1.0142 0.955,3.15086 0,0 z m -73.656997,0.75 c -2.06276,1.33777 4.11166,0.74971 0,0 z m 76.531997,0.093 c -1.067,2.07812 2.0252,1.29675 0,0 z m 65.968,1.907 c -0.4712,2.42916 0.5371,-0.17313 0,0 z m -66.031,1.468 c -6.3985,3.68572 2.9911,3.42326 0,0 z m 84.875,0.407 c -0.7342,2.05078 0.7689,-0.20349 0,0 z m -20.937,1.625 c 2.4771,9.83829 5.0045,3.07842 0,0 z m -159.249997,0.625 c -2.61282,1.16643 2.05041,1.8453 0,0 z m 183.030997,0.25 0.156,0.062 -0.156,-0.062 z m -183.030997,0.031 c 0.83795,1.10722 -1.29459,0.43651 0,0 z m 184.842997,1.219 0.219,0 -0.219,0 z m -0.906,0.468 c 0.1484,0.30221 0.8931,-0.26866 0,0 z m -5.937,0.719 c -0.2558,0.60978 0.6803,-0.27649 0,0 z m -33.469,1.313 c -9.2187,17.77084 21.7766,7.4708 0,0 z m 30.125,0.687 0.062,0.094 -0.062,-0.094 z m -19.875,1.938 c -1.263,2.24227 3.144,1.87792 0,0 z m 15.937,3.437 c -0.2558,0.60978 0.6803,-0.27649 0,0 z m -0.687,2.125 0,0.938 0,-0.938 z m -12.438,0.219 c -4.0363,6.26219 5.2129,2.60441 0,0 z m -5.781,1.469 0.375,0.438 -0.375,-0.438 z m 20.875,0.906 0.156,0 -0.156,0 z m -155.436997,3.937 c -2.0545,1.78354 3.10537,1.70464 0,0 z m -5.563,7.5 c -1.12857,2.12198 2.33707,0.37987 0,0 z m -2.625,0.719 c -0.96729,1.11005 2.77575,0.89477 0,0 z m 1.438,0.25 c -0.8418,1.6781 2.33655,1.06687 0,0 z m 111.186997,5.188 c -15.7104,12.17484 8.7523,4.22081 0,0 z m -1.406,1.375 0.156,0.062 -0.156,-0.062 z m -106.249997,3.093 c -11.14153,2.77804 -2.96331,16.59088 0,0 z m -7.688,1 c -8.38915,2.07459 1.98464,2.19261 0,0 z m 167.906997,0.375 0,0.219 0,-0.219 z m -156.468997,0.844 c -0.94332,0.13971 0.52677,1.5564 0,0 z m 115.093997,0.969 c -1.4653,0.41291 1.0134,1.78015 0,0 z m -137.187997,0.25 c -2.94017,2.47111 3.19335,1.04088 0,0 z m 5.594,1.687 c -7.49163,7.57758 6.95553,3.87439 0,0 z m -6.313,0.282 c -3.52051,7.39044 -16.49239,21.98786 -11.966,16.907 5.78991,8.98695 19.11793,1.30339 14.905,-10.281 0.90173,-2.37649 -0.0379,-6.17924 -2.939,-6.626 z m 90.843997,5.593 c -16.43987,4.58003 13.4234,5.65274 5.594,3.034 3.9406,-3.65384 -3.8512,-2.8141 -5.594,-3.034 z m 103.469,0.688 c 0.1627,0.77186 0.391,-0.25784 0,0 z m -182.499997,0.625 c -8.63346,1.64266 3.69947,6.3674 0,0 z m 133.686997,1.5 -0.062,0.219 0.062,-0.219 z m -32.906,0.531 c -28.62627,3.05681 8.1068,39.08093 9.187,10.25 -4.5401,-0.76564 0.6165,-7.65764 -9.187,-10.25 z m -20.031,0.281 -0.094,0.125 0.094,-0.125 z m -86.749997,0.625 c -5.05332,2.16585 4.36506,1.3272 0,0 z m 1.531,1.407 c -2.79299,2.84763 3.55018,2.21516 0,0 z m 1.875,0.218 c -2.06964,2.51917 3.56003,1.42647 0,0 z m -4.5,0.438 c -4.08726,4.96719 7.07479,3.90225 0,0 z m 163.562997,3.594 -0.031,0.156 0.031,-0.156 z m 0.218,1.062 0,0.281 0,-0.281 z m -181.842997,2.625 c -4.48557,6.06051 -0.94408,-0.53882 3.907,4.78 15.0631,0.44749 -1.84584,-2.7277 -3.907,-4.78 z m 90.561997,3.063 0,1.875 0,-1.875 z m -80.343997,2.406 c -1.10297,1.31253 1.51935,0.87068 0,0 z m 1.813,0.344 c -3.51647,2.2694 3.33034,2.92514 0,0 z m -8.438,2.937 c -5.56881,5.01382 9.47429,5.34475 0,0 z m -4.5,0.125 c -2.35607,1.93879 2.44975,1.35769 0,0 z m 145.437997,3.094 c -21.6255,11.60986 11.7832,22.78811 0,0 z m 26.937,0.437 0.281,0.031 -0.281,-0.031 z m -173.686997,0.657 c -2.59611,2.07449 2.93757,1.69469 0,0 z m 2.937,0.125 c -2.26151,0.7197 1.5002,1.60321 0,0 z m -2.75,2.812 c -12.28736,4.03072 9.04041,4.05212 0,0 z m 168.843997,2.563 c -0.6787,1.65477 2.4381,0.384 0,0 z m 1.156,0.437 c -7.8431,4.94813 4.2881,2.28985 0,0 z m -175.499997,2.063 c -12.90982,9.02806 4.14654,8.53893 0,0 z m 191.531997,3.312 0.188,0.031 -0.188,-0.031 z m -38.782,0.25 -0.25,1.906 0.25,-1.906 z m -5.906,0.469 -0.188,0.031 0.188,-0.031 z m 38.469,0 0.281,0.031 -0.281,-0.031 z m -2.656,1.75 0.125,0.125 -0.125,-0.125 z m -45.375,1.312 c -0.5301,0.30046 0.8016,2.66644 0,0 z m 39.312,0.157 0.094,0.094 -0.094,-0.094 z m -178.968997,0.031 c -5.40132,3.45161 8.06691,2.0442 0,0 z m 138.718997,0.312 0.188,0.344 -0.188,-0.344 z m 1.875,0.219 c -5.5684,8.30879 13.7884,3.45551 0,0 z m 57.75,0.031 -0.031,0.188 0.031,-0.188 z m -4.031,3.219 -0.469,0.031 0.469,-0.031 z m -15.281,4.375 0.75,0.344 -0.75,-0.344 z m -0.813,4.5 -0.094,0.062 0.094,-0.062 z m 0.906,1.313 -0.062,0.156 0.062,-0.156 z m 5.313,0.531 c -0.6623,-0.003 1.128,1.36216 0,0 z m -63.813,12.344 -0.562,0.781 0.562,-0.781 z m -1.218,0.25 c 0.3762,0.18016 0.1239,-0.0158 0,0 z m 0.218,0.5 c -0.7359,0.45595 0.7562,-0.0663 0,0 z m -0.187,0.187 c -0.2658,-0.65544 0.056,1.01937 0,0 z m -0.219,0.25 0.125,0.312 -0.125,-0.312 z m -1.5,0.531 c -10.00961,3.33012 -18.16739,14.0465 -24.875,20.159 3.97395,0.27609 10.33423,1.43234 17.813,-4.909 1.45607,-1.72372 12.7558,-10.60137 7.062,-15.25 z m -7,3.157 -0.062,-0.125 0.062,0.125 z m 9.375,-2.688 0.219,0 -0.219,0 z m -6.031,0.188 0.125,0.281 -0.125,-0.281 z m -0.219,0.468 0.125,0.281 -0.125,-0.281 z m -1.031,0.532 0.219,0 -0.219,0 z m 7.219,0.687 -0.188,0.031 0.188,-0.031 z m -8.938,0.438 -0.188,0.031 0.188,-0.031 z m -0.875,0.375 0,0.344 0,-0.344 z m 86.625,0.656 -0.188,0.062 0.188,-0.062 z m -87.406,0.625 0.062,0.031 -0.062,-0.031 z m 68.219,3.219 c -5.3241,4.59181 3.6666,3.83833 0,0 z m -24.969,1.406 c -12.9586,-0.63691 -9.9066,13.62142 -9.624,10.626 -14.7416,-8.81653 -17.4998,14.92669 -13.376,10.314 15.6229,-1.7444 16.673,17.96194 30.719,10.095 9.4456,1.69116 -34.6078,18.46145 -12.658,22.25 23.4964,-8.29733 8.0385,4.98089 -4.375,5.409 -7.979,-1.21106 -22.2694,-8.00793 -20.5,5.125 -0.2584,4.0333 10.5922,9.06605 15.471,3.782 14.4352,1.50549 25.521,-8.18575 41.063,-2.812 25.4315,-6.9416 -1.8722,-22.62128 15.718,-12.188 10.9298,-12.77875 -7.8777,-24.68043 -21.813,-26.969 -9.1762,-1.6033 -11.0647,-22.54408 -20.625,-25.632 z m 7.5,5.937 c -0.6589,2.63831 4.7324,4.20797 0,0 z m -64.688,0.469 0.156,0.219 -0.156,-0.219 z m 14.969,1.156 0.188,0.031 -0.188,-0.031 z m 122.531,0.157 -0.656,0.469 0.656,-0.469 z m -92.25,0.093 0.188,0 -0.188,0 z m -47.625,0.219 0.188,0.031 -0.188,-0.031 z m 2.813,2.531 c -0.13322,0.11134 -0.033,0.7153 0,0 z m -4.031,1 c -7.56427,2.82097 2.49598,2.71551 0,0 z m 8,0.188 c -2.75021,2.55114 2.8134,3.11474 0,0 z m -12.688,2.156 c -5.69832,5.28799 -13.23021,3.9318 -20.657,4.687 -11.605047,-1.38042 3.56924,21.33667 0.72,14.064 6.93069,0.90022 16.97995,-15.14266 18.753,-12.436 5.816,0.32138 4.97931,-3.30994 1.184,-6.315 z m -9.562,3.594 -0.062,-0.094 0.062,0.094 z m 15.468,-3.594 0.188,0 -0.188,0 z m 133.907,1.156 c -4.3189,2.99478 1.8459,4.67942 0,0 z m -138.219,0.469 -0.188,0.031 0.188,-0.031 z m -20.375,1.188 c -0.10011,0.34248 0.48898,0.35106 0,0 z m -7.906,0.187 c -0.50019,0.42099 0.67814,0.36379 0,0 z m 15.125,0.406 -0.188,0.094 0.188,-0.094 z m 15.281,0.032 0.75,0.312 -0.75,-0.312 z m 130.5,1.25 0.188,0 -0.188,0 z m 1.875,0.187 -0.031,0.281 0.031,-0.281 z m -0.906,0.375 c -1.6639,0.45264 -0.04,0.55107 0,0 z m -132.094,0.125 0.188,0.031 -0.188,-0.031 z m 128.406,1.875 -0.125,0.25 0.125,-0.25 z m 2.219,0.031 -0.688,0.906 0.688,-0.906 z m 1.875,0 c -21.374,8.73173 -20.1155,27.98726 0,0 l 0,0 z m 19.062,0.375 c 2.6031,0.4518 -3.6004,1.5238 0,0 z m -24.125,0.5 -0.094,0.031 0.094,-0.031 z m -94.125,2.469 c -1.1837,1.95066 -0.5179,0.85877 0,0 z m -1.875,0.813 -0.281,0.281 0.281,-0.281 z m -1,1 -0.094,0.312 0.094,-0.312 z m -0.093,0.312 c -2.036,3.1547 -1.4577,6.11062 0,0 z m 1.375,0.375 0.156,0 -0.156,0 z m 103.593,0.469 -0.219,0.312 0.219,-0.312 z m -93.375,0.219 c 1.3872,5.92189 13.2446,9.31702 9.845,7.471 17.9445,-1.27612 -4.182,-7.86125 -9.845,-7.471 z m 14.157,1.937 c -0.7142,0.39195 0.073,0.27143 0,0 z m -0.25,0.25 -0.062,-0.062 0.062,0.062 z m 0.406,0.156 1.188,0.969 -1.188,-0.969 z m 0.25,0.469 0.375,0.594 -0.375,-0.594 z m -14.5,0.875 0.188,0.094 -0.188,-0.094 z m -0.281,0.75 c -1.7099,1.37039 1.0111,-0.0834 0,0 z m -16.657,0.719 c -1.2892,0.10368 -2.45441,5.526 0,0 z m 98.188,1.156 c -0.6729,0.47992 1.3099,0.83153 0,0 z m -72.344,0.031 0.188,0 -0.188,0 z m 71.313,0.032 c -1.3807,0.0623 0.2152,0.59157 0,0 z m -58.657,0.187 c -2.74,2.98297 5.1582,1.08357 0,0 z m -13.062,0.25 0.125,0.469 -0.125,-0.469 z m -4.813,1.156 c -2.1848,3.51243 4.4807,0.70714 0,0 z m 77.344,0.5 0.312,0 -0.312,0 z m -65.844,1.375 c -4.2072,2.59481 1.3452,3.69353 0,0 z m -19.437,0.657 c -2.2742,2.05596 1.2036,1.87091 0,0 z m 75.875,0.843 c -1.8395,1.15949 0.5909,0.51031 0,0 z m 17.281,0.844 c -0.6518,1.73826 1.1903,-0.42961 0,0 z m 7.563,0.563 0.125,0.156 -0.125,-0.156 z m 16.375,1.312 -0.062,0.25 0.062,-0.25 z m -97.844,0.719 0.188,0 -0.188,0 z m 48.656,0.406 0.281,1.062 -0.281,-1.062 z m 19.781,0.781 c -1.6701,1.57939 0.3211,0.66678 0,0 z m -1,1.063 0.094,0.094 -0.094,-0.094 z m -0.843,1.031 c -14.4266,4.93492 -4.2826,15.4616 0,0 l 0,0 z m -2.625,1.656 0.25,0 -0.25,0 z m -19.844,0.844 c 0.3089,0.18213 0.1055,-0.0184 0,0 z m 22.219,0.563 0,0.219 0,-0.219 z m -10.532,4.437 0.219,0 -0.219,0 z m -79.5,0.313 c -0.5619,0.80629 0.6353,0.0908 0,0 z m -3,0.625 c -1.6148,1.27989 0.7488,-0.11201 0,0 z m -6.562,0.156 0.125,0.312 -0.125,-0.312 z m 7.969,0.062 c -10.70468,4.61392 -0.4072,13.68443 0,0 z m 3.187,1.094 c -0.528,0.0534 0.8397,0.18144 0,0 z m -0.406,0.219 -0.281,0.094 0.281,-0.094 z m -0.281,0.562 c -1.9026,-0.17016 0.5742,2.4704 0,0 z m 8.875,0 0.312,0 -0.312,0 z m 0.531,0.25 0.188,0 -0.188,0 z m 7.687,1.188 0,0.219 0,-0.219 z m -25.75,2.562 0.188,0 -0.188,0 z m 0.063,0.907 0.125,0.25 -0.125,-0.25 z m 1.75,1.187 -0.188,0.031 0.188,-0.031 z m 86.094,0.031 c -1.2846,1.25878 0.9725,0.25281 0,0 z m -86.844,0.625 0.062,0.062 -0.062,-0.062 z m 87.562,0.063 c -12.2679,5.4224 -3.4643,21.50778 0,0 z m -2.562,2.031 c 0.3546,-0.0288 0.5594,-1.11745 0,0 z m -36.844,-1.562 0.25,0 -0.25,0 z m -43.156,0.218 0.156,0 -0.156,0 z m -0.594,0.907 -0.125,0.281 0.125,-0.281 z m 74.719,0.062 -1.156,1.844 1.156,-1.844 z m -17.469,0.656 -0.344,0.031 0.344,-0.031 z m -64.156,0.032 c -1.1359,1.08949 0.9207,0.70713 0,0 z m -0.25,0.687 -0.062,-0.094 0.062,0.094 z m 6.812,-0.469 0.312,0.656 -0.312,-0.656 z m 20.469,1.407 -0.062,0.25 0.062,-0.25 z m -0.719,0.062 -0.062,0.188 0.062,-0.188 z m -2.125,0.406 0.188,0.031 -0.188,-0.031 z m -0.937,0.5 c 0.4779,0 0.1061,0 0,0 z m -15.031,0.219 0.219,0 -0.219,0 z m 2.562,0.219 c -1.8909,1.20752 1.2034,0.68471 0,0 z m 71.406,0.437 c -1.0349,0.11901 0.6158,2.27357 0,0 z m -71.031,0.157 0.312,0.125 -0.312,-0.125 z m -1.469,0.093 0.156,0.25 -0.156,-0.25 z m 78.938,0.188 -0.188,0.062 0.188,-0.062 z m -73.125,1.344 -0.031,0.375 0.031,-0.375 z m 3.812,0.593 c 0.3235,0 0.092,0 0,0 z m -10.843,0.719 0.188,0 -0.188,0 z m 75.531,1.625 c -7.3587,8.73669 3.2958,24.90275 0.5368,2.21288 l -0.5368,-2.21288 0,0 z m -80,1.188 0.219,0 -0.219,0 z m 82.781,0 c -2.6488,0.90501 0.093,5.08003 0,0 z m -80.906,1.625 c -0.3838,0.88816 0.5193,-0.0488 0,0 z m 86.969,0 0.031,0.469 -0.031,-0.469 z m -21.313,0.468 c -7.922,3.173 2.9241,2.26527 0,0 z m 10.094,0.313 0,0.406 0,-0.406 z m -2.5,0.156 0.156,0 -0.156,0 z m -10.469,1.531 c -1.6124,1.72165 1.3418,0.21276 0,0 z m 6.469,0.063 c -1.9315,1.63653 1.9804,0.63858 0,0 z m 5.656,0.281 c 0.33,3.80453 0.5886,0.24646 0,0 z m 6.5,0 0.219,0 -0.219,0 z m -9.156,0.469 c -4.4836,9.57652 -0.09,-2.6274 0,0 z m 2.281,0.062 0.062,0.188 -0.062,-0.188 z m -4.375,0.094 c -5.0277,2.71271 1.7369,0.45375 0,0 z m -8.625,0.313 0.156,0 -0.156,0 z m -0.75,0.687 c -4.4062,1.82333 1.4257,1.66382 0,0 z m 8.5,0.438 0.125,0.281 -0.125,-0.281 z m 11.406,0.062 c -5.3621,9.15587 6.1076,4.81339 0,0 z m 5.313,3.031 0.312,0 -0.312,0 z m -17.281,0.219 c -0.5553,1.52137 0.7582,-0.19002 0,0 z m 3.656,1.469 0.094,0.188 -0.094,-0.188 z m -0.375,0.187 c -17.788,7.08447 7.5637,12.61001 0,0 z m -98.625,6.75 0.094,0.281 -0.094,-0.281 z m 0.25,0.063 c 0.56381,0.65188 0.26049,-0.0877 0,0 z m 114.812,0 c -3.0165,1.11526 -4.3242,9.19652 0,0 z m -2.781,3.937 c -0.1047,-0.3349 -0.5979,0.34085 0,0 z m -111.594,-3.531 0.125,0.312 -0.125,-0.312 z m 112,0.313 c -1.7843,-0.81516 -0.8673,3.60865 0,0 z m -1.406,0.656 c 0,1.11111 0,0.22222 0,0 z m -15,1.187 c -8.2844,7.9633 -29.8791,17.17348 -31.44,30.469 14.8425,3.30091 11.0565,1.27744 -3.749,5.158 -13.7538,6.56846 -7.5281,37.12763 6.438,25.531 4.4831,-14.86077 11.6531,-16.40058 18.189,-35.374 3.5483,-5.69042 15.5933,-17.31347 10.562,-25.784 z m 8.844,0 c -3.2248,0.31127 1.2867,3.04287 0,0 z m -54.344,0.25 c -5.7506,5.37831 -11.9208,8.67022 -14.314,17.564 6.6606,-1.47062 -3.7409,10.17766 6.783,1.874 0.641,-4.48745 9.5689,-13.09915 7.531,-19.438 z m 43.344,0.219 -0.188,0.031 0.188,-0.031 z m 17.656,1.656 -1.875,2.344 1.875,-2.344 z m -2,2.969 -0.125,0.062 0.125,-0.062 z m -3.844,0.031 c -0.5621,1.35634 0.677,-0.14454 0,0 z m -1.562,1.094 -0.125,0.594 0.125,-0.594 z m 0.687,0.531 c -0.193,0.66757 0.62,0.035 0,0 z m -0.437,0.688 -0.125,0.312 0.125,-0.312 z m -0.125,0.844 0.25,0.188 -0.25,-0.188 z m -55.406,0.375 -0.188,0.031 0.188,-0.031 z m 94.937,2.5 c -1.2889,1.19674 0.6409,0.21961 0,0 z m -43.719,3.125 0.188,0 -0.188,0 z m -64.25,3.562 0.406,0.219 -0.406,-0.219 z m 66.032,2.031 c -1.7044,2.40983 1.2187,-0.129 0,0 z m -13.063,2.25 -0.031,0.375 0.031,-0.375 z m 18.219,0.282 -0.156,0.344 0.156,-0.344 z m -6.875,0.031 c -1.2189,0.79754 -0.4406,2.67314 0,0 z m -58.438,0.469 c -1.1475,0.66654 0.6865,0.0768 0,0 z m -4.562,0.781 c -2.2034,-0.0254 1.9426,1.84545 0,0 z m -1.313,0.187 c -3.0144,1.04236 3.9738,1.67457 0,0 z m 5.344,0.282 -0.719,0.219 0.719,-0.219 z m 57.688,0.687 c -0.9187,1.09078 -0.1273,0.71778 0,0 z m 32.75,0.875 0.094,0.312 -0.094,-0.312 z m -3.688,3.094 c -1.0432,1.91061 0.4775,0.40485 0,0 z m -49.094,1.437 c -0.9794,2.28814 -3.9998,1.37719 0,0 z m -13.156,1.813 -0.125,0.031 0.125,-0.031 z m 6.719,0.281 0.188,0 -0.188,0 z m -2.844,1.406 c -0.4196,0.32444 0.1987,0.38397 0,0 z m -3.5,0.282 0.219,0.219 -0.219,-0.219 z m -15.344,2.218 c -7.7241,3.40859 -16.3839,5.35089 -20.593,12.033 -0.3334,-7.352 -16.60761,9.37238 -15.001,5.848 -4.13673,9.22841 -0.91704,14.98616 -7.751,24.626 0.87025,15.5889 30.3549,-25.53796 19.469,-15.25 2.9933,2.44954 -4.3829,35.17885 0.531,27.655 -8.39982,12.90489 10.5881,11.90611 11.906,1.189 12.2687,4.10937 23.0244,-7.85248 17.596,-21.094 -5.8807,-10.00605 -6.9855,-22.80743 -6.157,-35.007 z m -20.406,27.875 0.062,0.094 -0.062,-0.094 z m 59.875,-27 0,0.375 0,-0.375 z m -61,4.375 c -2.6406,-0.9448 -1.4342,4.62985 0,0 z m 64.063,0.594 c -0.3773,0.8209 0.047,0.25832 0,0 z m -2.344,0.563 c -0.375,0.0941 0.2272,1.58115 0,0 z m 4.062,0.062 -0.312,0.656 0.312,-0.656 z m 54.375,0.406 0.219,0 -0.219,0 z m -0.437,0.188 c -0.5596,1.40773 0.4594,-0.0821 0,0 z m -122.063,0.062 c 0.2758,0.92923 -2.6288,1.55679 0,0 z m 121.282,0.625 c -3.3286,12.5696 6.3175,25.88082 13.626,37.562 9.036,-10.81912 -0.8279,-28.425 -13.377,-37.499 l -0.249,-0.063 0,0 z m -52.25,2.469 -0.062,0.188 0.062,-0.188 z m -0.469,0.188 0.188,0 -0.188,0 z m 3.25,0.593 c -0.8129,0.97631 -0.3463,0.93693 0,0 z m -2.969,0.282 0.125,0.281 -0.125,-0.281 z m 36.094,3.75 c 0.197,0.8232 0.322,-0.16573 0,0 z m -103.031,1.468 0.219,0.438 -0.219,-0.438 z m 95.875,0.844 c -0.3012,0.0466 0.4104,0.73346 0,0 z m -54.625,1.938 c -0.081,0.24566 0.5842,-0.18577 0,0 z m 0,0.062 -0.438,0.188 0.438,-0.188 z m -1.25,1.531 -0.125,0.062 0.125,-0.062 z m 48.312,5.157 0.125,0.312 -0.125,-0.312 z m -58.5,1.218 0.219,0.25 -0.219,-0.25 z m -0.312,0.469 c -0.1873,1.46897 0.7719,-0.37775 0,0 z m 4.5,0.5 0.219,0 -0.219,0 z m 86.812,1.844 c -3.3396,4.79451 3.7737,7.90799 0,0 z m -58.969,9.625 0.062,0 -0.062,0 z m -0.156,1.406 c -10.116,7.77234 -1.3642,21.39274 -0.719,4.685 -1.1262,-2.60896 3.1762,-1.94499 0.719,-4.685 z m -83.531,3.531 c -1.01589,0.49337 1.37638,2.02741 0,0 z m 0.469,1.407 c -1.52771,1.64663 2.18858,1.04792 0,0 z m 2.312,1.062 0.031,0.094 -0.031,-0.094 z m 48.125,2.688 c -0.4367,1.17382 0.7522,-0.31141 0,0 z m 0.969,0.687 -0.5,0.469 0.5,-0.469 z m -1.313,1.406 0.125,0 -0.125,0 z m 27.157,0.157 c -0.6978,0.18884 -0.033,0.22863 0,0 z m -28.188,0.093 c -0.565,0.36542 0.2441,1.45586 0,0 z m 28.719,1.157 0.094,0 -0.094,0 z m -1.156,0.593 c 0.1306,0.35424 0.1201,-0.0383 0,0 z m 3.593,1.282 -0.031,0.469 0.031,-0.469 z m -0.031,0.468 c -0.3685,1.5847 0.8085,-1.06457 0,0 z m 0.344,-0.312 c 0.3762,0.18016 0.1239,-0.0158 0,0 z m -37.438,0.969 -0.156,0.031 0.156,-0.031 z m 36.407,1 c -2.4428,1.93914 -0.3812,6.15105 0,0 z m -42.875,0.218 0.219,0 -0.219,0 z m 1.875,1.157 c -4.9431,1.18175 2.4677,2.03785 0,0 z m -20.5,0.906 -0.156,0.281 0.156,-0.281 z m 82.75,29.281 0.125,0.281 -0.125,-0.281 z m -6.188,33.40603 0.219,0.87499 -0.219,-0.87499 z m 1.438,1.28199 c 0.3816,0.2 0.1168,-0.037 0,0 z m -1.438,0.062 c -8.0985,0.7758 3.0149,3.3182 0,0 z M 685.79281,4.1238793 c 0.3765,-3.096888 1.3436,0.541497 0,0 z m 15.028,10.9679997 c -5.7172,-7.5055797 -0.2278,-7.6294987 0.558,-16.8919997 -1.7451,-10.9662453 7.5791,-4.899625 7.488,-10.0119953 2.2757,-9.44661 4.2724,4.4324903 6.91101,2.7640003 -6.44291,4.34993 4.9074,10.574032 -6.36101,19.2089947 14.41581,11.243927 -10.7161,-1.8649547 -8.596,4.931 z m 3.861,1.046 c -4.0612,-7.3036767 8.0844,3.762932 0,0 z m -6.668,0.755 c -1.2496,-5.354164 3.5109,3.052231 0,0 z m -30.121,1.711 c -0.348,-1.171201 1.401,0.07028 0,0 z m 0.826,0.782 c 0.1389,-1.828356 2.002,0.778124 0,0 z m 27.043,9.576 c 2.3487,-8.993774 5.7364,-1.171216 0,0 z m 10.324,5.847 c -7.3597,-8.104918 -4.018,-15.098839 6.219,-11.355 3.67291,1.461423 8.38711,10.26645 -0.388,7.76 -11.6784,-5.014328 2.8159,3.617839 -5.831,3.595 z m -13.888,21.258 c 1.3819,-4.257888 2.0744,0.897775 0,0 z m -11.827,5.608 c -3.0675,-4.566811 5.8786,-0.435136 0,0 z m 35.11601,1.212 c 1.9353,-7.692531 13.9088,-1.959818 0,0 z m -28.80701,1.879 c -5.1052,-5.260103 13.4479,-10.723154 0.587,0.328 l -0.587,-0.328 0,0 z m 6.33,9.163 c -0.716,-5.339242 6.7686,-3.309731 0,0 z m -29.35,-0.276 c 1.6219,-3.895235 1.9859,2.797947 0,0 z m -4.478,2.156 c -18.2776,-9.27178 14.9218,-9.773837 0,0 z m 47.738,0.611 c 0.5038,-3.06756 2.664,0.803375 0,0 z m -10.392,2.051005 c -9.5355,-4.865194 18.1695,-17.197723 4.615,-3.134005 -1.0323,0.776877 -2.9394,5.312775 -4.615,3.134005 z m -35.791,1.508 c -1.254,-5.622094 6.3937,-2.44608 0,0 z m -27.532,1.386 c -2.9716,-3.89321 7.8552,-6.092796 2.634,-5.175005 0.9171,3.394185 2.0777,4.980865 -2.634,5.175005 z m 20.405,0.004 c -3.2025,-4.848664 8.4245,-5.571718 0,0 z m 26.011,10.278001 c 0.2829,-2.10643 1.1784,1.81409 0,0 z m -34.722,8.564995 c -0.6457,-1.676085 2.8911,0.27725 0,0 z m 0.111,3.9 c -10.8632,-2.27975 9.273,-6.613055 0,0 z m 44.723,1.894 c 0.919,-7.793835 3.5222,1.061 0,0 z m -26.729,1.365 c 0.6492,-1.51823 0.5273,1.29497 0,0 z m -0.361,2.976 c -0.013,-4.21452 2.2241,1.46044 0,0 z m 1.65,3.07101 c -1.6996,-5.70771 5.0731,2.14853 0,0 z m 3.106,0.814 c -0.351,-2.88595 2.2735,1.25152 0,0 z m 28.867,0.475 c -8.2432,-8.17761 7.1571,-2.76386 0,0 z m -31.094,2.274 c -1.3951,-3.77662 4.8103,1.78782 0,0 z m -65.314,1.431 c -13.8664,-7.0267 11.0846,-12.93506 0,0 z m 63.636,0.777 c -3.3655,-9.4216 3.8358,-2.25096 0,0 z m 26.45,-0.036 c -8.1233,-7.18295 -3.1226,-18.27258 2.774,-10.55001 2.1601,-3.65853 -0.6536,13.19671 -2.774,10.55001 z m -20.233,1.494 c 0.5428,-9.99198 6.21,-2.68829 0,0 z m -1.943,6.393 c 1.8482,-11.26544 5.7061,-1.79836 0,0 z m -1.936,0.638 c -0.775,-13.3722 7.5133,-10.42267 0,0 z m 1.018,3.457 c 2.0511,-7.60594 3.5532,0.22594 0,0 z m -3.19,0.463 c -0.5409,-5.07441 6.7723,-2.43145 0,0 z m 0.176,3.667 c 0.5954,-4.6853 5.1415,1.83672 0,0 z m 18.272,5.601 c -5.4602,-5.57138 5.1781,-1.54309 0,0 z m -16.313,4.509 c -3.5547,-2.32748 4.1013,-3.63059 0,0 z m 3.401,20.606 c 3.8834,-9.41323 -9.8402,-3.80596 -4.597,-12.017 3.6042,-11.74277 5.979,-25.50568 9.025,-40.9 -4.4517,-4.88342 -5.4581,-2.79446 -2.233,-11.87101 0.7885,-1.386445 -5.214,6.07228 -2.517,-3.601995 -2.6693,11.002915 -7.7701,-12.382001 -7.973,-3.191 11.3483,9.449495 -9.3119,10.809965 -3.891,11.927995 -0.6745,13.66981 -13.8686,-7.873105 -4.863,-6.038 -0.076,-12.631705 -4.6119,5.66071 -5.881,-2.435995 -6.2605,5.045845 -17.2146,-6.51739 -11.953,-3.114 -2.9658,-6.74988 3.399,-15.530441 11.692,-9.275001 2.3141,-10.669155 4.246,-7.32073 7.656,-0.872 3.0773,-7.06842 15.0858,-3.22672 11.694,-1.435 -8.0928,-7.192094 10.3041,-11.304299 6.809,-9.767005 -10.8504,-4.489888 -7.1812,-3.077978 -12.629,-8.931 1.665,-0.06171 3.8376,-12.02963 -2.329,-10.782 -5.7852,-2.879551 -2.2408,1.622731 -9.256,-3.113 -11.9175,4.093327 0.7895,-10.846308 -2.479,-7.275 0.058,-14.880018 22.9985,16.866468 6.511,-3.778 6.6831,-4.911992 3.9587,-17.006342 14.26,-12.18 -2.2001,-5.888071 20.0871,-11.695751 17.742,-2.487 2.9093,3.526291 -4.6025,-20.7549727 4.969,-20.1009997 2.1939,-0.936169 10.3632,0.0052 8.02,10.2499997 -1.4735,10.404574 -4.9887,0.949436 -5.841,11.717 1.8164,0.803823 9.1549,10.596536 1.682,11.962 8.0687,12.174603 -11.1314,6.703059 -4.265,10.992 -8.1998,4.243998 -11.8989,13.711113 -10.84,15.216 6.0955,0.410777 10.6443,7.424368 8.551,4.152 8.2775,-6.959642 3.4188,12.214785 -4.777,5.752 -0.047,4.167745 17.29,6.138825 2.656,11.816005 9.0595,-0.0321 -3.3101,13.582906 -1.47,4.854001 -4.903,-1.76555 -5.7773,13.860265 0.328,7.306 -9.2667,5.982535 8.4778,9.866905 -0.416,15.037005 -4.8202,0.77111 -4.0954,14.14467 -1.648,18.739 -7.4766,3.70508 3.0113,15.69335 -5.288,8.091 -1.8498,2.49772 -1.7936,15.52056 -2.767,14.598 3.0962,14.36452 0.4884,5.78741 -3.682,10.755 z m -31.176,63.01399 c 1.7783,-16.1502 11.0156,-1.70483 0,0 z m -113.819,29.712 c -0.8666,-3.14918 2.7454,1.64773 0,0 z m 41.84,0.862 c -8.0964,-6.94495 12.2544,-12.84296 1.854,-4.587 2.8405,2.1333 0.2694,4.29809 -1.854,4.587 z m -45.424,4.001 c 0.045,-20.39555 9.1365,-7.14821 0,0 z m -0.209,12.177 c -0.137,-3.16804 1.5944,0.008 0,0 z m -6.82,2.215 c 0.5036,-2.94533 1.6216,0.89958 0,0 z m 23.852,2.78 c -6.1552,-4.69952 5.4407,-0.97986 0,0 z m -14.776,-0.121 c 2.3941,-6.08942 -6.5224,-13.78382 -8.546,-5.158 -2.2765,-5.9357 -14.351,-16.3857 -2.955,-13.399 3.8429,-5.77979 10.1753,-6.96132 4.405,0.78 1.6883,2.6698 12.7901,21.16463 11.898,15.231 -3.009,-3.07335 -2.4606,2.66426 -4.802,2.546 z m 5.332,4.398 c -3.015,-13.75044 4.7675,-0.96363 0,0 z m -2.759,1.049 c -2.3588,-3.46302 4.1176,-1.38172 0,0 z m 15.371,2.835 c -0.9003,-8.17761 12.7756,-21.37754 9.233,-19.432 11.9738,-8.85288 0.1503,7.62176 9.455,1.734 6.4606,-10.87637 18.1379,5.27809 2.929,1.09 -4.7973,10.02739 -17.3704,7.5999 -12.063,8.519 -4.6279,-3.03713 -6.6724,8.25522 -9.554,8.089 z m -24.678,3.61 c 0.048,-2.51702 1.7898,0.80324 0,0 z m 28.182,1.079 c -1.5993,-3.69804 4.1486,-0.35225 0,0 z m 5.892,2.196 c -0.3044,-4.48403 3.5518,0.80173 0,0 z m -50.246,1.267 c -1.3856,-4.94856 5.3394,0.30148 0,0 z m 31.486,1.037 c -6.0576,-10.20302 0.9129,-11.28358 3.936,-20.549 -0.298,5.21148 -7.7281,20.3877 -2.392,19.455 l -0.541,0.761 -1.003,0.333 0,0 z m 10.7,1.349 c -0.2532,-4.99163 4.2,1.06685 0,0 z m -30.942,-0.055 c -12.9676,3.01507 -10.5292,-20.94784 -1.325,-9.892 8.7088,-7.69897 6.5339,11.55078 1.325,9.892 z m 8.069,0.829 c -5.2745,-17.22345 5.6531,-8.48085 0,0 z m 8.218,0.579 c -0.4749,-4.18605 2.8905,-1.37944 0,0 z m -16.226,1.628 c 4.9538,-7.05827 8.2433,1.67828 0,0 z m 2.252,6.054 c -1.7964,-7.2871 8.3699,2.49328 0,0 z m 35.207,1.451 c 1.0555,-13.27851 -11.5183,7.85279 -4.184,-7.788 -4.541,-7.38467 8.0656,-11.08238 5.245,-1.388 8.0384,-2.97169 8.6993,10.98139 0.57,9.048 l -1.627,0.129 0,-0.001 z m 2.976,7.958 c -1.2533,-5.67128 4.3936,2.53307 0,0 z m -31.252,1.175 c -0.7428,-3.53167 2.6827,0.94507 0,0 z m 7.121,0.62 c -9.6126,0.0559 -0.9772,-7.02064 -5.59,-9.081 8.9232,-0.0325 7.7735,-6.52351 8.247,7.286 l -1.502,1.444 -1.155,0.351 0,0 z m -44.359,17.211 c -8.7937,-9.1551 12.3375,0.13793 0,0 z m 60.426,2.768 c 0.074,-1.06236 0.9787,0.41557 0,0 z m -4.252,2.074 c -1.2428,-2.53472 3.1837,-0.60542 0,0 z m 1.611,0.844 c 0.1181,-4.3287 5.9387,0.44575 0,0 z m -22.715,3.298 c 3.826,-5.23988 7.7617,-2.01013 0,0 z m -23.332,0.274 c -4.2589,-5.79944 4.7085,-1.57558 0,0 z m 31.745,0.308 c -8.7786,-0.86851 -20.4106,-13.72921 -15.719,-14.062 -7.9177,1.28404 -17.7561,11.94244 -22.237,-0.384 3.2887,-13.67342 -9.9244,7.3248 -11.459,-6.514 0,-9.4366 1.123,-21.73736 4.128,-28.813 9.2579,-5.16843 19.8807,1.49545 26.319,5.816 6.6867,9.58279 2.0668,12.30219 -4.552,17.341 -7.062,2.60826 15.8523,2.31924 13.613,2.921 6.6764,-2.3529 6.2964,5.38082 5.96,7.087 7.8939,-9.74455 8.6632,-1.991 5.424,4.739 4.614,6.58253 0.3041,-7.28289 11.091,-5.894 1.6578,11.21185 -9.3209,9.68389 -12.568,17.763 z m -14.518,3.612 c 1.265,-4.96442 4.5521,1.06526 0,0 z m 8.535,1.83 c -11.3455,0.60313 2.1145,-9.5235 4.096,-1.965 -0.7429,0.55029 -2.983,3.58896 -4.096,1.965 z m -25.965,0.949 c -3.9814,-9.5937 6.7002,0.0934 0,0 z m 3.272,4.2 c 2.6464,-11.37085 5.5713,0.14449 6.179,-2.615 -0.1516,3.02102 -3.0686,1.59676 -6.179,2.615 z m 1.984,2.928 c 0.7146,-4.85018 4.3815,0.75588 0,0 z m -7.826,3.443 c -7.795,-9.56493 17.0384,-1.30909 0,0 z m -4.277,0.601 c -9.1802,0.32917 -24.708,-25.01508 -17.89,-20.939 3.6318,-17.16664 22.0298,-1.36463 22.108,8.48 7.0769,5.7147 -8.14,7.99164 -4.218,12.459 z m 15.806,7.4 c 1.7947,-7.04829 4.1059,0.4625 0,0 z m 10.596,1.047 c -1.2387,-6.25543 1.8342,-14.49022 -2.233,-14.949 -9.5858,-4.40614 13.3033,-4.53339 9.138,-4.45 1.2067,5.0453 -6.7236,11.14465 -2.307,17.708 0.6839,2.16798 -3.8285,0.62363 -4.598,1.691 z"
         id="highlandsAndIslands_path"
         inkscape:connector-curvature="0"
         inkscape:label="#path4156-1_1_" />
      <g
         id="highlandsAndIslands_listSeats"
         inkscape:label="#g7280">
        <path
           inkscape:label="#rect421"
           inkscape:connector-curvature="0"
           id="highlandsAndIslands_listSeat_1"
           d="m 166.91581,532.2879 c 31.2641,-6.08074 47.635,2.73165 39.361,36.18902 -20.6729,10.55911 -51.6872,3.98517 -39.361,-28.99604 l 0,-4.021 0,-3.17198 z"
            />
        <path
           inkscape:label="#rect423"
           inkscape:connector-curvature="0"
           id="highlandsAndIslands_listSeat_2"
           d="m 212.03681,532.2879 c 31.2641,-6.08074 47.6351,2.73165 39.361,36.18902 -20.6729,10.55911 -51.6872,3.98517 -39.361,-28.99604 l 0,-4.021 0,-3.17198 z"
            />
        <path
           inkscape:label="#rect425"
           inkscape:connector-curvature="0"
           id="highlandsAndIslands_listSeat_3"
           d="m 257.15781,532.2879 c 31.2641,-6.08074 47.635,2.73165 39.361,36.18902 -20.6729,10.55911 -51.6872,3.98517 -39.361,-28.99604 l 0,-4.021 0,-3.17198 z"
            />
        <path
           inkscape:label="#rect427"
           inkscape:connector-curvature="0"
           id="highlandsAndIslands_listSeat_4"
           d="m 302.27971,532.2879 c 31.2641,-6.08074 47.6351,2.73165 39.361,36.18902 -20.6728,10.55911 -51.6871,3.98517 -39.361,-28.99604 l 0,-4.021 0,-3.17198 z"
            />
        <path
           inkscape:label="#rect429"
           inkscape:connector-curvature="0"
           id="highlandsAndIslands_listSeat_5"
           d="m 189.47681,576.44885 c 31.2641,-6.08074 47.635,2.73165 39.361,36.18902 -20.6729,10.55911 -51.6872,3.98517 -39.361,-28.99604 l 0,-4.021 0,-3.17198 z"
            />
        <path
           inkscape:connector-curvature="0"
           id="highlandsAndIslands_listSeat_6"
           d="m 234.59881,576.44885 c 31.2642,-6.08113 47.6338,2.73229 39.36,36.18902 -20.6728,10.55944 -51.686,3.98468 -39.36,-28.99604 l 0,-4.021 0,-3.17198 z"
            />
        <path
           inkscape:label="#rect433"
           inkscape:connector-curvature="0"
           id="highlandsAndIslands_listSeat_7"
           d="m 279.71881,576.44885 c 31.2642,-6.08113 47.6338,2.73229 39.36,36.18902 -20.6728,10.55944 -51.686,3.98468 -39.36,-28.99604 l 0,-4.021 0,-3.17198 z"
            />
      </g>
    </g>
    <g
       transform="translate(16.488683,15.598525)"
       inkscape:label="#g7403"
       id="centralScotland">
      <path
         
         d="m 420.93981,856.35688 c -1.1933,7.64519 0.4357,13.48627 -13.469,10.595 -8.1825,4.40361 -28.0938,1.76249 -19.219,15.22 7.0054,-2.49395 9.2223,9.70352 -3.719,9.22 -13.0099,3.97148 12.2288,3.72559 6.125,11.72 -2.1117,1.90243 1.0728,17.44429 -3.187,11.439 -5.2313,-6.9673 -16.2484,0.54228 -16.811,5.718 5.3229,6.15701 18.413,-2.62468 22.251,8.876 8.9105,-2.98038 3.741,16.94618 14.53,3.06 8.5234,-2.61762 -6.0264,-11.36642 7.155,-12.597 14.6038,1.92081 13.2765,-26.94875 13,-19.002 2.7391,-2.37358 -18.4011,-1.50546 -2.97,-9.032 8.2741,-3.71506 10.7738,-8.02385 18.034,-14.097 19.7505,3.33777 -19.2711,-11.60929 -12.655,-9.596 -2.1026,-4.65101 -6.5375,-7.20248 -9.065,-11.524 z m -13.532,68.687 0.25,0.031 -0.25,-0.031 z"
         id="centralScotland_path"
         inkscape:connector-curvature="0"
         inkscape:label="#path6362_1_" />
      <g
         id="centralScotland_listSeats"
         inkscape:label="#g7394">
        <path
           inkscape:label="#rect435"
           inkscape:connector-curvature="0"
           id="centralScotland_listSeat_1"
           d="m 619.91591,749.7359 c 30.5956,-11.43919 45.6761,14.52828 30.831,35.138 -33.5112,6.37647 -33.3273,-5.8791 -30.831,-35.138 z"
            />
        <path
           inkscape:label="#rect437"
           inkscape:connector-curvature="0"
           id="centralScotland_listSeat_2"
           d="m 659.86781,749.7359 c 30.5956,-11.43919 45.6761,14.52828 30.831,35.138 -33.5112,6.37647 -33.3273,-5.8791 -30.831,-35.138 z"
            />
        <path
           inkscape:label="#rect439"
           inkscape:connector-curvature="0"
           id="centralScotland_listSeat_3"
           d="m 699.81981,749.7359 c 30.59561,-11.43919 45.67621,14.52828 30.83101,35.138 -33.51121,6.37647 -33.32731,-5.8791 -30.83101,-35.138 z"
            />
        <path
           inkscape:label="#rect441"
           inkscape:connector-curvature="0"
           id="centralScotland_listSeat_4"
           d="m 739.77182,749.7359 c 30.5956,-11.43919 45.6762,14.52828 30.831,35.138 -33.5112,6.37647 -33.3273,-5.8791 -30.831,-35.138 z"
            />
        <path
           inkscape:label="#rect443"
           inkscape:connector-curvature="0"
           id="centralScotland_listSeat_5"
           d="m 639.89181,789.15887 c 30.5956,-11.43919 45.6762,14.52828 30.831,35.138 -33.5112,6.37648 -33.3273,-5.8791 -30.831,-35.138 z"
            />
        <path
           inkscape:label="#rect445"
           inkscape:connector-curvature="0"
           id="centralScotland_listSeat_6"
           d="m 679.84481,789.15887 c 30.5957,-11.4396 45.67481,14.52905 30.83,35.138 -33.5114,6.37692 -33.3257,-5.87997 -30.83,-35.138 z"
            />
        <path
           inkscape:label="#rect447"
           inkscape:connector-curvature="0"
           id="centralScotland_listSeat_7"
           d="m 719.79482,789.15887 c 30.5956,-11.43919 45.6761,14.52828 30.831,35.138 -33.5112,6.37648 -33.3273,-5.8791 -30.831,-35.138 z"
            />
      </g>
      <path
         
         d="m 616.76681,791.49786 c -67.6017,30.38001 -135.2034,60.76001 -202.805,91.14002"
         id="line449"
         inkscape:connector-curvature="0" />
    </g>
    <g
       transform="translate(16.488683,15.598525)"
       inkscape:label="#g7382"
       id="glasgow">
      <path
         
         d="m 371.12581,888.04388 c -2.5628,4.40802 -5.2737,6.20061 -10.346,1.187 -4.7459,5.14811 5.6308,9.30886 -0.248,12.966 -1.8512,9.47444 1.3367,12.03359 8.594,7.469 4.1163,-0.047 3.1721,9.9774 8.847,2.343 7.6356,-3.53281 12.224,10.12353 12.378,-0.248 -5.665,-6.37701 8.0508,-12.2509 -3.75,-15.56 -6.539,-1.04718 -15.1151,-5.14668 -12.69,-3.813 -1.0957,-1.21305 -1.6724,-4.00845 -2.785,-4.344 z m 6.125,6.375 c 0.3622,0.30502 -0.3294,0.19547 0,0 z m -0.062,17.219 c 0.2675,0.49326 0.2932,0.55926 0,0 z"
         id="glasgow_path"
         inkscape:connector-curvature="0"
         inkscape:label="#path6592_1_" />
      <g
         id="glasgow_listSeats"
         inkscape:label="#g7373">
        <path
           inkscape:label="#rect451"
           inkscape:connector-curvature="0"
           id="glasgow_listSeat_1"
           d="m 97.52579,1050.31 c 30.59563,-11.4392 45.67618,14.5283 30.831,35.138 -33.51118,6.3765 -33.3273,-5.8791 -30.831,-35.138 z"
            />
        <path
           inkscape:label="#rect453"
           inkscape:connector-curvature="0"
           id="glasgow_listSeat_2"
           d="m 137.47782,1050.31 c 30.59559,-11.4392 45.67619,14.5283 30.83099,35.138 -33.51117,6.3765 -33.32729,-5.8791 -30.83099,-35.138 z"
            />
        <path
           inkscape:label="#rect455"
           inkscape:connector-curvature="0"
           id="glasgow_listSeat_3"
           d="m 177.42881,1050.31 c 30.5956,-11.4392 45.6762,14.5283 30.831,35.138 -33.5112,6.3765 -33.3273,-5.8791 -30.831,-35.138 z"
            />
        <path
           inkscape:label="#rect457"
           inkscape:connector-curvature="0"
           id="glasgow_listSeat_4"
           d="m 217.38081,1050.31 c 30.5957,-11.4392 45.6762,14.5283 30.831,35.138 -33.5112,6.3765 -33.3273,-5.8791 -30.831,-35.138 z"
            />
        <path
           inkscape:label="#rect459"
           inkscape:connector-curvature="0"
           id="glasgow_listSeat_5"
           d="m 117.50083,1089.733 c 30.59558,-11.4392 45.67618,14.5281 30.83098,35.1379 -33.51116,6.3764 -33.32728,-5.8791 -30.83098,-35.1379 z"
            />
        <path
           inkscape:label="#rect461"
           inkscape:connector-curvature="0"
           id="glasgow_listSeat_6"
           d="m 157.45381,1089.733 c 30.5957,-11.4396 45.6748,14.5289 30.83,35.1379 -33.5114,6.3769 -33.3257,-5.88 -30.83,-35.1379 z"
            />
        <path
           inkscape:label="#rect463"
           inkscape:connector-curvature="0"
           id="glasgow_listSeat_7"
           d="m 197.40471,1089.733 c 30.5957,-11.4392 45.6762,14.5281 30.831,35.1379 -33.5111,6.3764 -33.3273,-5.8791 -30.831,-35.1379 z"
            />
      </g>
      <path
         
         d="m 256.97771,1050.31 c 40.1327,-49.4581 80.2654,-98.91614 120.3981,-148.37415"
         id="line465"
         inkscape:connector-curvature="0" />
    </g>
    <g
       transform="translate(16.488683,15.598525)"
       inkscape:label="#g7424"
       id="lothian">
      <path
         
         d="m 475.31481,875.66888 c 0.068,0.56904 0.8824,-0.26521 0,0 z m -23.25,0.625 c -3.8174,6.63761 -13.9288,-2.28011 -16.003,7.939 -4.5822,4.15197 -13.0097,8.1304 -18.282,13.161 3.9065,5.39487 16.7168,-3.10166 7.875,6.031 4.803,5.43337 -3.5675,17.62863 4.72,11.348 10.2385,-7.99952 18.7451,9.92934 26.627,1.404 4.9613,-5.9552 12.8452,-9.23401 19.031,-15.095 4.1719,3.1616 7.9577,6.80613 12.094,7.565 4.7101,-8.81373 11.5137,-7.6258 13.843,-0.095 6.1751,0.14318 8.7292,13.73817 15.473,2.091 3.8719,-0.98726 -7.7338,-6.88567 -8.658,-10.316 -4.0864,-6.69332 -4.1491,-16.75731 -14.812,-12.973 -5.1924,-4.16987 -7.6656,-9.70473 -12.628,-6.686 -6.107,1.69103 -11.3422,-6.70261 -18.534,-1.689 -2.8965,-0.82257 -4.1318,-1.21662 -10.746,-2.685 z m 22.031,3.063 0.094,-0.156 -0.094,0.156 z m 5.125,1.219 0.031,-0.031 -0.031,0.031 z m -15.531,-3.25 0.062,0.188 -0.062,-0.188 z m 0.062,0.187 0,0.062 0,-0.062 z m 6.094,0.656 c 0.2507,0.0721 0.4141,0.83593 0,0 z m 18.875,5.282 c 1.7731,0.3391 0.5295,1.04121 0,0 z m 1.031,0.218 0,0.094 0,-0.094 z"
         id="lothian_path"
         inkscape:connector-curvature="0"
         inkscape:label="#path6558_1_" />
      <g
         id="lothian_listSeats"
         inkscape:label="#g7415">
        <path
           inkscape:label="#rect467"
           inkscape:connector-curvature="0"
           id="lothian_listSeat_1"
           d="m 619.91591,868.26489 c 30.5956,-11.43919 45.6761,14.52828 30.831,35.138 -33.5112,6.37647 -33.3273,-5.8791 -30.831,-35.138 z"
            />
        <path
           inkscape:label="#rect469"
           inkscape:connector-curvature="0"
           id="lothian_listSeat_2"
           d="m 659.86781,868.26489 c 30.5956,-11.43919 45.6761,14.52828 30.831,35.138 -33.5112,6.37647 -33.3273,-5.8791 -30.831,-35.138 z"
            />
        <path
           inkscape:label="#rect471"
           inkscape:connector-curvature="0"
           id="lothian_listSeat_3"
           d="m 699.81981,868.26489 c 30.59561,-11.43919 45.67621,14.52828 30.83101,35.138 -33.51121,6.37647 -33.32731,-5.8791 -30.83101,-35.138 z"
            />
        <path
           inkscape:label="#rect473"
           inkscape:connector-curvature="0"
           id="lothian_listSeat_4"
           d="m 739.77182,868.26489 c 30.5956,-11.43919 45.6762,14.52828 30.831,35.138 -33.5112,6.37647 -33.3273,-5.8791 -30.831,-35.138 z"
            />
        <path
           inkscape:label="#rect475"
           inkscape:connector-curvature="0"
           id="lothian_listSeat_5"
           d="m 639.89181,907.68786 c 30.5956,-11.43919 45.6762,14.52829 30.831,35.13801 -33.5112,6.37647 -33.3273,-5.87911 -30.831,-35.13801 z"
            />
        <path
           inkscape:label="#rect477"
           inkscape:connector-curvature="0"
           id="lothian_listSeat_6"
           d="m 679.84481,907.68786 c 30.5957,-11.4396 45.67481,14.52905 30.83,35.13801 -33.5114,6.37691 -33.3257,-5.87998 -30.83,-35.13801 z"
            />
        <path
           inkscape:label="#rect479"
           inkscape:connector-curvature="0"
           id="lothian_listSeat_7"
           d="m 719.79482,907.68786 c 30.5956,-11.43919 45.6761,14.52829 30.831,35.13801 -33.5112,6.37647 -33.3273,-5.87911 -30.831,-35.13801 z"
            />
      </g>
      <path
         
         d="m 613.31281,868.26489 c -50.889,8.81167 -101.778,17.62333 -152.667,26.435"
         id="line481"
         inkscape:connector-curvature="0" />
    </g>
    <g
       transform="translate(16.488683,15.598525)"
       inkscape:label="#g7329"
       id="midScotlandAndFife">
      <path
         
         d="m 411.62681,700.35688 c -1.1073,22.05756 -25.8874,-2.80103 -29.279,14.811 -14.8799,7.74251 -24.4522,12.3144 -35.185,16.686 5.033,12.23875 -29.5134,23.47654 -7.497,20.624 7.2554,18.16406 -5.9393,29.50625 -5.156,21.594 5.2437,14.31945 -3.0712,13.68322 -15.0849,21.81662 -10.5056,13.62814 16.8675,22.0376 13.3949,19.40338 -6.1703,12.85646 0.6209,32.74595 7.4291,44.90538 16.0032,-1.83357 5.4088,12.17303 17.6374,19.47375 18.9841,8.87328 7.4587,-13.44764 25.5895,-9.94113 7.5551,9.84488 27.9182,-9.3544 34.247,-9.158 4.7486,-10.86667 12.4995,11.99924 18.6,6.656 10.5467,0.96679 21.0481,6.85984 26.97,8.155 4.4733,-3.59727 11.0828,-9.77239 16.657,-8.25 10.1063,1.37027 5.6718,-13.95387 15.659,-15.843 6.3845,-7.19726 15.711,-17.85118 23.815,-7.971 9.2436,-1.26232 22.5498,-8.25566 27.128,-17.439 -5.7538,-6.29837 -13.358,-8.7976 -21.127,-11.78 -2.4272,-7.78368 0.4589,-24.60401 0.969,-13.782 1.2352,-7.24705 15.9586,-4.01589 -0.968,-4.937 -16.1865,-4.46928 -25.6212,8.63013 -40.629,13.848 -8.2744,5.71169 -9.3115,-8.93637 10.095,-6.532 13.2306,-9.80858 -8.1912,-12.02137 -10.267,-22.27825 3.2323,-8.56018 15.896,-15.54906 4.486,-17.16075 3.0102,-6.59772 -14.2617,-7.26467 -18.781,-19.938 -5.6238,-12.94323 4.5757,-32.6536 -14.53,-29.53 -8.7995,-5.82121 -15.5774,-11.12868 -28.156,-8.221 -5.0875,-6.83979 -12.1119,6.38356 -16.017,-5.212 z m 114.906,140.906 0.031,0.125 -0.031,-0.125 z m -47.718,26.156 -0.031,0.062 0.031,-0.062 z m -150.783,-54.062 -0.156,0.281 0.156,-0.281 z m 205.595,-18.406 0.031,0.062 -0.031,-0.062 z m -54.656,16.937 -1.6267,0.35213 1.6267,-0.35213 z m 54.687,26.563 -0.031,0.062 0.031,-0.062 z m -3.156,1 0.062,0.031 -0.062,-0.031 z m -41.187,31.312 c -1.1571,2.1063 2.6747,3.91965 0,0 z m -17.125,0.938 c -1.1402,1.75837 2.7403,-0.0878 0,0 z"
         id="midScotlandAndFife_path"
         inkscape:connector-curvature="0"
         inkscape:label="#path6600_1_" />
      <g
         id="midScotlandAndFife_listSeats"
         inkscape:label="#g7320">
        <path
           inkscape:connector-curvature="0"
           id="midScotlandAndFife_listSeat_1"
           d="m 336.60881,762.5069 c 30.5957,-11.4392 45.6762,14.52828 30.831,35.138 -33.5111,6.37647 -33.3272,-5.87911 -30.831,-35.138 z"
            />
        <path
           inkscape:label="#rect485"
           inkscape:connector-curvature="0"
           id="midScotlandAndFife_listSeat_2"
           d="m 376.56081,762.5069 c 30.5956,-11.4392 45.6761,14.52828 30.831,35.138 -33.5112,6.37647 -33.3273,-5.87911 -30.831,-35.138 z"
            />
        <path
           inkscape:label="#rect487"
           inkscape:connector-curvature="0"
           id="midScotlandAndFife_listSeat_3"
           d="m 416.51181,762.5069 c 30.5956,-11.4392 45.6762,14.52828 30.831,35.138 -33.5112,6.37647 -33.3273,-5.87911 -30.831,-35.138 z"
            />
        <path
           inkscape:label="#rect489"
           inkscape:connector-curvature="0"
           id="midScotlandAndFife_listSeat_4"
           d="m 456.46381,762.5069 c 30.5957,-11.4392 45.6762,14.52828 30.831,35.138 -33.5111,6.37647 -33.3273,-5.87911 -30.831,-35.138 z"
            />
        <path
           inkscape:label="#rect491"
           inkscape:connector-curvature="0"
           id="midScotlandAndFife_listSeat_5"
           d="m 356.58381,801.92987 c 30.5957,-11.43919 45.6762,14.52828 30.831,35.138 -33.5112,6.37647 -33.3273,-5.8791 -30.831,-35.138 z"
            />
        <path
           inkscape:label="#rect493"
           inkscape:connector-curvature="0"
           id="midScotlandAndFife_listSeat_6"
           d="m 396.53681,801.92987 c 30.5957,-11.43961 45.6748,14.52905 30.83,35.138 -33.5114,6.37691 -33.3257,-5.87997 -30.83,-35.138 z"
            />
        <path
           inkscape:label="#rect495"
           inkscape:connector-curvature="0"
           id="midScotlandAndFife_listSeat_7"
           d="m 436.48781,801.92987 c 30.5956,-11.43919 45.6761,14.52828 30.831,35.138 -33.5112,6.37647 -33.3273,-5.8791 -30.831,-35.138 z"
            />
      </g>
    </g>
    <g
       transform="translate(16.488683,15.598525)"
       inkscape:label="#g7309"
       id="northEastScotland">
      <path
         
         d="m 605.09581,666.24788 c -11.4512,-8.67253 2.7097,-28.43188 10.754,-38.893 8.2,-8.26037 13.8717,-20.14971 13.348,-26.066 -2.4499,-10.76917 -5.0324,-24.69615 -15.719,-33.531 -7.6683,-3.12061 -17.0721,-5.36346 -25.565,1.157 -9.6879,-5.61984 -22.3844,2.90894 -29.785,0.249 -11.6327,-1.50698 -26.0371,-3.41448 -37.786,-6.565 -17.9717,3.28905 -2.518,30.67236 -4.001,22.498 4.36,16.73425 -11.071,21.94612 -10.3663,33.18625 11.0813,9.06106 4.085,31.56202 -12.7537,23.22362 -15.4429,9.09067 -18.539,21.36394 -25.442,32.49713 -10.61,0.10748 -36.7704,2.48907 -29.311,2.561 -10.5753,-3.52541 -18.1823,40.17977 0,27.687 5.9379,7.69342 30.0953,6.60843 26.968,16.531 7.2151,8.99808 -0.6113,27.23057 13.7335,32.97437 17.2312,-0.17998 1.5862,18.15914 17.2686,10.39763 -9.6377,10.60215 -17.7751,20.08854 -0.6271,27.347 7.5256,3.86305 5.9639,5.39094 15.064,0.657 9.8744,0.51034 13.9746,-2.32596 22.374,-0.28 6.0036,-14.71822 29.4306,-17.72623 23.377,-35.908 10.8184,-4.96424 4.3325,-21.89598 18.69,-24.846 9.7347,-9.84431 12.1089,-23.91255 14.566,-37.194 3.196,-7.12086 8.3916,-12.12065 10.031,-19.438 4.9539,2.17873 6.7387,-5.00401 5.182,-8.245 z m 23.094,-65.36 0.062,0.188 -0.062,-0.188 z m -54.719,-32.469 c -0.4946,0.41911 0.6102,0.37555 0,0 z m 26.25,92.532 c 0.4179,-0.0217 -0.065,0.22809 0,0 z m -0.531,15.312 c 0.3721,0.0395 -0.1179,0.26134 0,0 z m -5.469,11.25 0.094,0.031 -0.094,-0.031 z m -91.438,106.969 c 1.2131,0.57423 -0.7835,-0.0171 0,0 z"
         id="northEastScotland_path"
         inkscape:connector-curvature="0"
         inkscape:label="#path6526_1_" />
      <g
         id="northEastScotland_listSeats"
         inkscape:label="#g7300">
        <path
           inkscape:label="#rect497"
           inkscape:connector-curvature="0"
           id="northEastScotland_listSeat_1"
           d="m 504.37281,635.1029 c 30.5956,-11.43919 45.6761,14.52828 30.831,35.138 -33.5112,6.37648 -33.3273,-5.8791 -30.831,-35.138 z"
            />
        <path
           inkscape:label="#rect499"
           inkscape:connector-curvature="0"
           id="northEastScotland_listSeat_2"
           d="m 544.32481,635.1029 c 30.5956,-11.43919 45.6762,14.52828 30.831,35.138 -33.5112,6.37648 -33.3273,-5.8791 -30.831,-35.138 z"
            />
        <path
           inkscape:label="#rect501"
           inkscape:connector-curvature="0"
           id="northEastScotland_listSeat_3"
           d="m 584.27681,635.1029 c 30.5956,-11.43919 45.6762,14.52828 30.831,35.138 -33.5112,6.37648 -33.3273,-5.8791 -30.831,-35.138 z"
            />
        <path
           inkscape:label="#rect503"
           inkscape:connector-curvature="0"
           id="northEastScotland_listSeat_4"
           d="m 624.22881,635.1029 c 30.5957,-11.43919 45.6762,14.52828 30.831,35.138 -33.5111,6.37648 -33.3273,-5.8791 -30.831,-35.138 z"
            />
        <path
           inkscape:label="#rect505"
           inkscape:connector-curvature="0"
           id="northEastScotland_listSeat_5"
           d="m 524.34881,674.52588 c 30.5957,-11.43919 45.6762,14.52828 30.831,35.138 -33.5111,6.37647 -33.3273,-5.8791 -30.831,-35.138 z"
            />
        <path
           inkscape:label="#rect507"
           inkscape:connector-curvature="0"
           id="northEastScotland_listSeat_6"
           d="m 564.30181,674.52588 c 30.5957,-11.43961 45.6748,14.52904 30.83,35.138 -33.5114,6.37691 -33.3256,-5.87998 -30.83,-35.138 z"
            />
        <path
           inkscape:label="#rect509"
           inkscape:connector-curvature="0"
           id="northEastScotland_listSeat_7"
           d="m 604.25181,674.52588 c 30.5956,-11.43919 45.6762,14.52828 30.831,35.138 -33.5112,6.37647 -33.3273,-5.8791 -30.831,-35.138 z"
            />
      </g>
    </g>
    <g
       transform="translate(16.488683,15.598525)"
       inkscape:label="#g7445"
       id="southScotland">
      <path
         
         d="m 331.15681,953.13788 c -10.9435,1.66411 7.9764,13.82088 -2.533,22.501 -13.1913,1.82023 -10.9425,15.97153 -20.842,21.78303 4.3365,24.90519 -33.4167,37.82259 -21.6714,64.27029 -1.0157,28.1 -0.2516,-11.771 -13.6106,-7.4552 -11.6249,15.9793 4.2437,33.6435 14.53,45.5319 5.9443,8.9718 -1.5275,20.9445 11.972,24.847 7.3046,-5.185 -17.9874,-33.1897 3.999,-39.6259 21.3473,1.8345 27.9405,26.4747 47.155,33.7819 11.7618,-1.5618 2.9355,-40.6355 5.125,-28.5959 -4.5923,-8.2644 21.0055,9.3999 14.344,3.251 2.692,-0.1591 14.6507,16.691 15.254,3.9729 9.4839,17.3969 31.6777,-11.2477 35.829,-8.5 19.5203,4.6329 42.5714,-12.5971 33.235,-14.8449 1.9556,5.5313 10.5625,-11.5674 29.311,-3.502 17.5767,-0.1606 9.586,-22.3186 26.53,-20.907 9.8385,-11.1802 26.7154,-19.6855 32.471,-32.407 -1.3434,-18.88879 30.5226,-14.5062 30.999,-29.09309 28.1143,-5.3532 6.0387,-24.58859 2.341,-40.56203 2.5533,0.98474 13.1579,-12.93487 18.4585,-20.59612 6.1247,-6.36724 12.1568,-17.37844 4.2905,-25.15588 -5.9069,-7.17375 -11.5308,-11.76367 -22.533,-10.346 -10.1284,-4.43569 -16.1566,-14.57697 -27.252,-15.348 -4.6044,-10.6076 -17.4335,-10.21637 -25.812,-9.064 -8.9142,6.74212 -8.4548,16.73334 -19.689,19.468 0.6336,6.85694 8.7563,17.61558 15.219,23.41 -4.6428,11.16956 -26.6093,-11.16362 -20.0296,-6.0575 -9.507,8.74234 -20.3718,-7.79196 -30.6284,4.4645 -13.8355,19.50761 -24.9596,-2.52109 -42.905,9.687 -21.7263,-3.80984 -9.722,18.69617 -25.594,18.626 1.0621,-12.64987 -31.8309,-10.45959 -25.564,-13.375 8.1682,15.32243 -21.1076,-4.08626 -15.937,3.094 -7.7871,-1.97376 -9.5287,-14.34489 -16.877,-1.782 -8.2069,6.04334 -9.3884,18.79368 1.406,10.687 9.1389,-0.16522 -8.1541,10.35627 -10.688,17.311 m 209.98,-88.656 0.062,0 -0.062,0 z m -14.938,0.718 -0.25,0.875 0.25,-0.875 z m 6.469,0 0.344,0 -0.344,0 z m -178.032,245.18802 0.125,-0.031 -0.125,0.031 z m -34.282,-149.71902 c -0.5279,0.9434 0.6257,-0.14061 0,0 z m -42.188,48.15602 c -2.3382,3.9012 3.7647,1.1752 0,0 z m 106.408,94.5 -0.469,0.938 0.469,-0.938 z"
         id="southScotland_path"
         inkscape:connector-curvature="0"
         inkscape:label="#path6580_1_" />
      <g
         id="southScotland_listSeats"
         inkscape:label="#g7436">
        <path
           inkscape:label="#rect511"
           inkscape:connector-curvature="0"
           id="southScotland_listSeat_1"
           d="m 366.65581,960.49188 c 30.5957,-11.43919 45.6762,14.52828 30.831,35.13803 -33.5111,6.37649 -33.3273,-5.8791 -30.831,-35.13803 z"
            />
        <path
           inkscape:label="#rect513"
           inkscape:connector-curvature="0"
           id="southScotland_listSeat_2"
           d="m 406.60781,960.49188 c 30.5956,-11.43919 45.6761,14.52828 30.831,35.13803 -33.5112,6.37649 -33.3273,-5.8791 -30.831,-35.13803 z"
            />
        <path
           inkscape:label="#rect515"
           inkscape:connector-curvature="0"
           id="southScotland_listSeat_3"
           d="m 446.55881,960.49188 c 30.5956,-11.43919 45.6762,14.52828 30.831,35.13803 -33.5112,6.37649 -33.3273,-5.8791 -30.831,-35.13803 z"
            />
        <path
           inkscape:label="#rect517"
           inkscape:connector-curvature="0"
           id="southScotland_listSeat_4"
           d="m 486.51081,960.49188 c 30.5957,-11.43919 45.6762,14.52828 30.831,35.13803 -33.5112,6.37649 -33.3273,-5.8791 -30.831,-35.13803 z"
            />
        <path
           inkscape:label="#rect519"
           inkscape:connector-curvature="0"
           id="southScotland_listSeat_5"
           d="m 386.63081,999.91491 c 30.5957,-11.4392 45.6762,14.52839 30.831,35.13809 -33.5112,6.3764 -33.3273,-5.8791 -30.831,-35.13809 z"
            />
        <path
           inkscape:label="#rect521"
           inkscape:connector-curvature="0"
           id="southScotland_listSeat_6"
           d="m 426.58381,999.91491 c 30.5957,-11.4396 45.6748,14.52909 30.83,35.13809 -33.5114,6.3769 -33.3257,-5.88 -30.83,-35.13809 z"
            />
        <path
           inkscape:label="#rect523"
           inkscape:connector-curvature="0"
           id="southScotland_listSeat_7"
           d="m 466.53381,999.91491 c 30.5956,-11.4392 45.6762,14.52839 30.831,35.13809 -33.5112,6.3764 -33.3273,-5.8791 -30.831,-35.13809 z"
            />
      </g>
    </g>
    <g
       transform="translate(16.488683,15.598525)"
       inkscape:label="#g7360"
       id="westScotland">
      <path
         
         d="m 338.68881,927.60688 c 4.1044,-9.26099 12.2901,-10.24373 13.125,-4.403 7.995,2.45641 21.9583,20.527 24.001,3.28 -8.3358,-7.32614 -6.3464,-23.13781 -4.126,-16.407 -6.8599,0.12016 -13.8172,5.86536 -11.032,-5.125 1.9814,-3.29301 -4.3348,-21.8068 -1.033,-10.501 0.2162,-10.76896 9.1964,3.4337 11.562,-6.44 0.3137,10.52598 22.0621,2.17028 11.345,2.811 7.7815,2.74358 16.3066,-6.65217 9.374,-8.907 -7.2001,8.7358 -4.6442,-19.22408 -11.501,-8.938 -9.8301,-4.63664 -11.7276,-2.80367 -8.876,7.498 -3.3148,5.38046 -11.8158,-3.76463 -15.972,-2.999 -10.4777,-10.37033 -1.3253,-13.80489 -8.438,-15.969 -12.213,-1.73599 -9.8962,-13.98367 -17.378,-24.69 -2.0675,-11.23317 -3.4726,-26.53131 1.813,-23.188 -5.5422,-4.15789 -17.6375,1.63178 -14.061,9.872 -9.2443,8.78131 10.4578,16.56819 2.155,16.844 9.3813,-11.62275 -4.7797,9.79761 -6.847,14.814 -9.2888,7.4695 3.4771,28.94992 6.625,17.376 -9.0305,-12.27525 -4.848,-15.84587 1.377,-1.719 7.8365,5.13409 9.9939,11.71522 9.435,14.125 -4.9159,-2.3292 -11.1835,-8.96498 -18.533,-3.219 -5.4966,6.77308 -4.5765,13.53085 -4.466,24.658 8.8552,11.19391 -11.2158,18.71997 3.282,27.78 2.2348,9.55704 17.2475,7.89959 19.187,20.001 6.8725,-6.41314 12.824,-16.77527 15.469,-17.592 -5.8983,2.83983 -17.5913,0.6633 -7.97,-6.19 1.0113,-0.73525 -0.2239,-2.6682 1.483,-2.772 z m -31.376,-31.875 c 0.3238,-0.0788 -0.1534,-0.31009 0,0 z m -0.625,-3.219 -0.125,-0.125 0.125,0.125 z m 14.125,-21.687 0,0.062 0,-0.062 z m -12.469,17.937 -0.156,0.031 0.156,-0.031 z m -4.375,21.969 c -12.887,13.82415 9.4973,8.37149 0,0 z m 47.689,8.969 c -0.156,0.26711 -0.1805,-0.12774 0,0 z m -50.751,1.593 c -6.5156,3.57343 1.1872,7.03231 0,0 z m -35.313,0.875 c -9.8505,5.15492 -17.7412,18.87233 -8.436,29.907 -4.3573,13.65523 8.5268,28.28293 21.599,22.533 9.2668,0.33311 3.3664,-14.86481 2.345,-17.938 7.8672,-7.40722 -10.6385,-6.0413 -0.937,-14.877 -0.284,-8.63544 -5.3774,-18.22088 -14.571,-19.625 z m 44.938,15.282 c -1.334,3.79798 1.2902,-0.26179 0,0 z m -25.907,19.468 c -2.8178,3.58465 6.2685,8.60411 0,0 z m -18.5,17.719 0.094,0.219 -0.094,-0.219 z m 13.75,1.969 c -1.403,0.22098 0.7027,0.95933 0,0 z"
         id="westScotland_path"
         inkscape:connector-curvature="0"
         inkscape:label="#path6610_1_" />
      <g
         id="westScotland_listSeats"
         inkscape:label="#g7340">
        <path
           inkscape:label="#rect525"
           inkscape:connector-curvature="0"
           id="westScotland_listSeat_1"
           d="m -14.485197,945.0069 c 30.59564,-11.4392 45.67618,14.52828 30.831,35.13801 -33.51117,6.3765 -33.32729,-5.87912 -30.831,-35.13801 z"
            />
        <path
           inkscape:label="#rect527"
           inkscape:connector-curvature="0"
           id="westScotland_listSeat_2"
           d="m 25.466833,945.0069 c 30.59563,-11.4392 45.67618,14.52828 30.831,35.13801 -33.51118,6.3765 -33.3273,-5.87912 -30.831,-35.13801 z"
            />
        <path
           inkscape:label="#rect529"
           inkscape:connector-curvature="0"
           id="westScotland_listSeat_3"
           d="M 65.417823,945.0069 C 96.01345,933.5677 111.094,959.53518 96.24882,980.14491 62.737643,986.52141 62.921523,974.26579 65.417823,945.0069 z"
            />
        <path
           inkscape:label="#rect531"
           inkscape:connector-curvature="0"
           id="westScotland_listSeat_4"
           d="m 105.36979,945.0069 c 30.59563,-11.4392 45.67622,14.52828 30.83099,35.13801 -33.51117,6.3765 -33.32729,-5.87912 -30.83099,-35.13801 z"
            />
        <path
           inkscape:label="#rect533"
           inkscape:connector-curvature="0"
           id="westScotland_listSeat_5"
           d="M 5.4908226,984.42991 C 36.086453,972.99068 51.167003,998.95821 36.321823,1019.568 2.8106426,1025.9445 2.9945226,1013.6889 5.4908226,984.42991 z"
            />
        <path
           inkscape:label="#rect535"
           inkscape:connector-curvature="0"
           id="westScotland_listSeat_6"
           d="m 45.443823,984.42991 c 30.59568,-11.43965 45.67474,14.529 30.83,35.13809 -33.51143,6.3769 -33.32569,-5.88 -30.83,-35.13809 z"
            />
        <path
           inkscape:label="#rect537"
           inkscape:connector-curvature="0"
           id="westScotland_listSeat_7"
           d="m 85.393833,984.42991 c 30.595627,-11.43923 45.676177,14.5283 30.830997,35.13809 -33.511177,6.3765 -33.327297,-5.8791 -30.830997,-35.13809 z"
            />
      </g>
      <path
         
         d="m 147.3118,945.0069 c 40.36801,1.83266 80.73601,3.66532 121.10411,5.49798"
         id="line539"
         inkscape:connector-curvature="0" />
      <path
         
         d="m 147.3118,945.0069 c 62.00001,-15.76935 124.00001,-31.5387 186.00011,-47.30805"
         id="line541"
         inkscape:connector-curvature="0" />
    </g>
  </g>
</svg>
