<?xml version="1.0" encoding="UTF-8" standalone="no"?>
<!-- Created with Inkscape (http://www.inkscape.org/) -->

<svg
   xmlns:dc="http://purl.org/dc/elements/1.1/"
   xmlns:cc="http://creativecommons.org/ns#"
   xmlns:rdf="http://www.w3.org/1999/02/22-rdf-syntax-ns#"
   xmlns:svg="http://www.w3.org/2000/svg"
   xmlns="http://www.w3.org/2000/svg"
   xmlns:sodipodi="http://sodipodi.sourceforge.net/DTD/sodipodi-0.dtd"
   xmlns:inkscape="http://www.inkscape.org/namespaces/inkscape"
   width="336.41238"
   height="261.62164"
   id="svg3315"
   version="1.1"
   inkscape:version="0.48.5 r10040"
   sodipodi:docname="New document 2">
  <defs
     id="defs3317" />
  <sodipodi:namedview
     id="base"
     pagecolor="#ffffff"
     bordercolor="#666666"
     borderopacity="1.0"
     inkscape:pageopacity="0.0"
     inkscape:pageshadow="2"
     inkscape:zoom="1.5004828"
     inkscape:cx="112.25477"
     inkscape:cy="99.38978"
     inkscape:document-units="px"
     inkscape:current-layer="layer1"
     showgrid="false"
     fit-margin-top="0"
     fit-margin-left="0"
     fit-margin-right="0"
     fit-margin-bottom="0"
     showguides="true"
     inkscape:guide-bbox="true"
     inkscape:window-width="958"
     inkscape:window-height="1008"
     inkscape:window-x="-7"
     inkscape:window-y="0"
     inkscape:window-maximized="0" />
  <metadata
     id="metadata3320">
    <rdf:RDF>
      <cc:Work
         rdf:about="">
        <dc:format>image/svg+xml</dc:format>
        <dc:type
           rdf:resource="http://purl.org/dc/dcmitype/StillImage" />
        <dc:title></dc:title>
      </cc:Work>
    </rdf:RDF>
  </metadata>
  <g
     inkscape:label="Layer 1"
     inkscape:groupmode="layer"
     id="layer1"
     transform="translate(-374.64341,-370.13031)">
    <g
       style="fill:none;stroke:#000000;stroke-opacity:1"
       transform="matrix(0.78197393,0,0,0.78197393,271.23059,-292.34769)"
       id="g7451">
      <path
         inkscape:connector-curvature="0"
         style="fill:#f10000;fill-opacity:1;stroke:#000000;stroke-width:0.90000004000000000;stroke-linecap:round;stroke-linejoin:round;stroke-miterlimit:9.99670124000000020;stroke-opacity:1;stroke-dasharray:none"
         d="m 199.72846,970.66144 c 1.17961,0.21846 0.17781,1.54216 -0.30001,0.43542 0.0254,-0.28591 -0.13483,-0.54331 0.30001,-0.43542 z m 10.80026,-9.30012 c 0.99683,-1.00462 0.31473,1.09212 0.7646,1.50002 0.9978,0.0526 1.22268,-0.66764 1.63545,-1.20002 0.52524,-0.48862 0.45079,0.86656 1.01641,1.3164 0.433,0.60942 0.84755,1.27196 0.78364,2.28365 -0.1684,0.56095 -0.73549,1.01087 0.41638,1.31639 0.24252,0.94354 0.79959,1.12386 0.78365,2.14823 0.31267,0.28216 0.62224,1.99985 0.30001,1.93545 -0.67288,0.74296 -1.00977,0.0648 -1.20004,1.0646 0.73196,0.85881 -0.70626,0.88735 0,1.63543 0.3197,0.67957 0.55501,1.26526 1.31642,1.6164 0.76201,0.46792 1.13285,0.70148 1.80004,1.20002 0.82061,0.50623 1.02614,0.87931 1.68366,0.31905 0.466,0.17611 0.36584,-0.12312 0.90002,-0.27085 0.41743,0.23016 1.47556,-0.88607 1.50004,0.13543 0.0223,1.01026 0.55366,1.4401 0,2.2646 -0.16636,0.7788 -0.18433,1.70599 -0.90003,1.93545 -0.27124,0.72802 -0.98592,0.83433 -1.3164,1.6164 -0.38156,0.59268 -0.90291,1.45079 -0.61906,1.98365 0.42366,0.74137 -0.0366,1.76005 -0.16459,2.40002 -0.79962,0.22967 -0.61117,1.07828 -1.20002,1.80003 -0.1846,0.77027 -0.36419,1.54555 -0.60001,2.2646 -0.13261,0.95083 -0.38027,1.78162 -0.90003,2.10003 -0.61123,0.21401 -0.64182,1.40545 -1.20002,1.80002 -0.14879,0.79637 -0.65043,1.23989 -0.60002,2.23546 -0.12934,0.38206 -0.9877,1.91401 -0.90002,1.03543 -0.5663,-0.3939 0.86573,-0.7619 -0.30001,-1.33544 -0.60678,-0.2114 -0.06,-2.36592 -0.90002,-1.03543 -0.0577,1.02788 -0.7146,-1.09173 -1.20003,-0.16458 -1.30687,0.35199 -1.17352,-0.73624 -2.26464,-0.6 -0.66886,-0.2763 -1.7894,-0.10092 -2.23546,-0.60002 -0.76537,-0.45377 -1.04529,-1.72885 -1.20003,-1.80002 0.69116,-0.0494 1.72044,-0.62146 1.93547,-0.60001 0.13512,-0.41835 0.16798,0.27149 1.06459,-0.3 -0.33974,0.47091 1.32269,-1.84961 0.90003,-0.73544 -0.0209,-0.1364 0.24829,-0.61479 0.90002,-1.06459 -0.60466,0.70251 -0.0499,-0.18425 0.16459,-0.90001 0.6718,-0.70166 0.53184,-0.70977 0.43543,-1.80003 0.91792,-0.61432 -0.30284,-2.10202 0.3,-2.10002 0.79997,-0.30194 0.35296,-0.65105 1.73279,-0.83276 0.39041,-0.54779 0.59653,-1.62486 0.36726,-1.86727 0.8088,-0.72247 -0.92593,-1.31045 0.30001,-1.50002 -0.2587,-0.19941 -0.12444,-0.37402 0,-0.60001 0.55203,-0.18852 1.16447,-1.17743 0.73544,-1.80003 -0.20378,-0.74137 -0.13025,-1.76004 -0.43543,-2.40002 -0.22709,-0.88268 -0.7642,-1.58804 -1.20004,-1.96461 -0.62971,-1.06258 0.45736,-0.0975 -0.71639,-1.15181 -0.69741,-0.65548 -1.72244,-0.67479 -1.68366,-0.78363 0.53165,0.21517 0.0778,-1.00999 -0.16458,-0.90002 -0.85653,0.11364 0.42481,-1.38153 -0.43543,-1.80002 0.0614,-1.47256 -1.44925,-0.43034 -1.50004,-0.90001 -1.14686,-0.16399 -0.52627,-0.34153 -1.36462,-0.90002 -0.80603,-0.48473 -0.31513,-0.96404 -0.73543,-0.90001 0.32506,2.8e-4 0.26525,-1.35899 1.13278,-0.36725 0.79487,0.96881 1.33219,-0.29678 1.80004,-0.76552 0.60424,-0.61539 0.14516,-1.92218 0.53184,-2.46727 0.21301,-0.96791 -0.28959,-0.27968 0.13543,-1.50002 -0.23906,-0.45159 0.85353,-0.4419 0.60001,0 z"
         id="path3820" />
      <path
         inkscape:connector-curvature="0"
         style="fill:#c8ffc8;fill-opacity:1;stroke:#000000;stroke-width:0.90000004000000000;stroke-linecap:round;stroke-linejoin:round;stroke-miterlimit:9.99670124000000020;stroke-opacity:1;stroke-dasharray:none"
         d="m 232.36197,916.36287 c -0.176,0.7729 -0.66185,1.23595 -1.5,1.34669 -0.33545,0.60107 -0.78601,1.08704 -0.875,1.93456 -0.95675,-0.31934 -0.46821,1.23149 -1.21865,1.21865 -0.10538,0.68633 -0.88528,0.69803 -1.18745,1.1875 -0.52333,0.38293 -0.35541,1.45709 -1.21875,1.5 -0.0474,0.90153 -0.47793,1.41988 -1.1875,1.65919 -0.29648,0.65045 -0.59038,1.30351 -1.1875,1.65331 -0.42075,0.52814 -1.13088,0.76691 -1.65919,1.1875 -0.42957,0.77593 0.5415,1.3748 -0.46581,1.8125 -0.27768,0.67123 -0.92091,0.97689 -1.34669,1.5 -0.29439,0.90424 0.33091,1.13894 -0.43456,1.8125 -0.3415,0.6074 -0.44174,1.45606 -1.65919,1.1875 -0.49849,0.44845 -0.30071,1.59316 -0.74706,2.09375 -0.89023,-0.36911 -1.2959,-0.18165 -2.25294,0 0.10538,1.05229 -1.85679,0.0371 -1.34081,1.5 0.22844,0.72046 2.11585,-0.21805 2.09375,0.75294 -0.26734,1.69712 0.5776,0.33826 1.1875,1.05956 0.69227,0.61843 0.96799,1.00194 1.8125,1.1875 0.6685,0.56553 -0.35498,1.3366 -0.51694,2.2441 0.16676,0.24874 1.58646,1.43913 1.42319,0.16215 0.80072,1.01959 1.05425,-1.0596 1.34669,0.3125 0.17937,-0.9312 1.86306,-0.23252 1.34081,-1.65919 0.45279,-0.50457 1.26937,-0.64533 1.21875,-1.65331 -0.80915,-0.46984 0.91971,0.34435 1.03419,-0.59375 1.18446,0.2271 0.5877,-1.32701 1.96581,-0.90625 0.95427,0.0928 1.2205,0.91128 1.5,1.5 -0.43664,0.1822 1.18251,0.91803 1.5,0.3125 1.01849,0.0696 1.43941,-0.45839 1.94044,-0.90625 0.44218,-0.83325 1.83358,-0.0472 1.34081,1.06544 -0.14183,0.7947 -1.0749,0.79814 -2.09375,0.71581 -0.75783,0.42803 -1.1861,0.86489 -2.09375,0.90625 -0.49628,0.46304 -1.37305,0.54558 -1.65919,1.21875 -0.92796,-0.19077 -1.90329,0.72938 -2.24706,-0.15919 -0.73573,-0.48217 -0.45724,1.34942 -0.90625,1.65919 0.29464,1.08955 -0.74928,1.33104 -1.1875,1.78125 -0.0603,1.00916 1.27412,0.62368 1.1875,1.65919 0.25615,0.84572 -1.57255,1.07994 -1.78125,0.43456 -0.82465,0.13468 -1.05618,0.86245 -1.65919,1.21875 -1.60645,-0.0258 -0.0146,0.79255 -0.15331,1.5 -0.67476,0.27323 -0.70748,1.38131 0.15919,1.5 1.11278,0.65388 -0.56263,0.53978 -1.17802,1.01883 -0.71315,1.41317 1.10847,0.20718 1.17802,0.76242 1.0551,0.47543 1.42562,-1.12972 1.93456,-0.71581 0.34269,0.9589 -0.82315,1.87746 0.3125,2.21581 1.171,0.10338 1.39084,-0.4878 2.09375,0.15919 0.53899,-0.006 1.1668,-0.79715 1.8125,0 -0.0505,1.02371 -1.57468,0.8692 -1.05956,1.65331 0.40996,0.53233 0.42726,1.70165 0.88945,1.47228 -0.0156,0.65992 -0.17657,1.78545 0.76386,0.93397 0.58495,0.72904 1.12785,1.04534 1.71299,0.8304 -0.41044,-0.1583 0.4012,2.21253 0.38076,0.6696 1.14312,-0.54746 1.05545,1.44379 1.5,0.90625 0.29562,0.77138 1.30754,0.67761 1.8125,0 0.88609,0.18476 1.05579,0.30995 2.25294,0.28125 0.38022,1.03854 1.61133,-0.70577 1.93456,0.3125 0.72782,0.61331 1.1684,-0.71015 1.72512,-0.22512 0.73197,0.80206 0.94994,-1.04294 1.27488,-0.36863 -0.33876,0.2838 -0.26396,1.66648 0.75294,1.5 0.3061,-0.65125 0.9183,-0.99641 1.65331,-1.21875 0.29556,0.55455 0.84631,-0.17421 1.5,0.15919 0.89396,0.2549 1.29192,0.42047 2.09375,0.15331 0.50272,-0.78384 1.2673,-0.21067 1.8125,-0.47169 0.59916,-0.0279 0.85677,1.20987 1.89957,0.64645 0.71569,-0.25607 0.72437,0.8421 1.38168,1.32524 0.90989,-0.1275 1.29422,-0.40796 1.8125,-1.21875 -0.61286,-0.50862 1.26694,-0.95259 1.5,-1.1875 0.7251,0.23421 1.49652,0.4221 2.56544,0.3125 0.85086,-0.17679 1.63821,-0.52847 2.53418,-0.625 1.03092,-0.14859 1.8525,0.0266 2.40038,0.625 1.11771,-0.16881 1.68612,0.21166 2.56544,0.28125 1.30268,-0.35575 1.38871,0.50516 1.62206,1.21875 1.15019,0.19088 1.22047,-0.69815 1.8125,-1.06544 0.2434,-0.70353 0.62512,-1.26873 1.5,-1.34081 0.46084,-0.48806 1.14762,-0.75017 1.1875,-1.65919 1.26581,-0.1459 0.49017,-0.42171 0.59375,-1.65331 0.40015,-0.45499 0.46114,-1.24916 0.90625,-1.65919 0.27589,-0.67105 0.34234,-1.55153 1.5,-1.34081 0.23534,-0.55265 2.42507,-0.12742 0.90625,-0.75294 -0.36241,-0.48377 -1.11308,-1.33701 -1.5,-1.65331 -0.62396,-0.3005 -2.17389,-0.59929 -1.5,-1.1875 -0.18341,-1.14272 0.54302,-1.37561 0.3125,-2.56544 -0.62144,-0.3255 -1.38293,-0.51095 -1.8125,-1.02831 -0.79616,-0.26222 -0.9584,-1.07376 -0.59375,-1.8125 0.4767,-0.74027 0.77529,-1.60784 0.28125,-2.40625 -0.41161,-0.83021 -0.45606,-1.50937 -1.03419,-2.09375 -0.4939,-0.43675 -0.94422,-1.57457 -1.34081,-1.94044 0.0488,-0.88186 -1.05934,-1.44708 -1.21875,-2.24706 0.29306,-1.25062 -1.23758,0.31634 -1.78125,-0.47169 0.0614,-1.00828 -0.28721,-1.60666 -0.90625,-1.93456 -0.74405,0.46031 -1.00713,0.98699 -1.8125,1.5 -0.76494,-0.41549 -1.38536,-1.01526 -2.09375,-1.5 -1.04933,0.23263 -1.81664,-0.72931 -2.82989,-0.66494 -0.89955,-0.1748 -1.21939,-0.98538 -1.67011,-1.74131 -0.50629,-1.01702 -0.0468,-1.71024 -1.38383,-1.1875 -0.87423,0.0224 -1.81366,0.73891 -2.06497,-0.60024 -0.3615,-0.66352 -0.50478,-2.03386 -1.0512,-1.64682 -0.24659,0.004 -1.41696,-0.36473 -1.1875,-1.34669 -0.0411,-0.91824 -0.60153,-1.31711 -1.06544,-1.8125 -0.57899,-0.83986 -0.67644,0.85468 -1.65331,0.59375 -0.16594,0.92434 -0.81373,1.17403 -1.5252,0.25605 -0.38234,-0.61955 -1.44579,-1.17709 -0.98754,-1.56187 -0.48484,-0.7037 -0.59675,-1.32795 -1.5527,-1.38168 -0.6133,-0.37027 -1.11741,-1.03617 -1.5,-1.5 -0.28994,0.57379 -1.80436,-0.0601 -2.09375,-0.3125 -1.17499,-0.22805 -0.858,1.03588 -1.93456,0.90625 -0.19836,-0.61614 -1.09015,-1.37121 0.3125,-1.5 0.29614,-0.65275 0.34567,-1.55212 1.1875,-1.65919 0.32047,-1.3708 -0.39396,-1.35486 -1.06544,-0.74706 -1.20055,0.61409 -1.46669,-1.17976 -1.93456,-0.28125 -0.98828,0.0129 -1.09363,-0.94792 -1.41263,-1.72512 0.0712,-0.92285 0.38472,-1.3213 -0.68112,-1.58738 -0.40629,6e-5 -0.81266,-1.2e-4 -1.2189,1e-4 z m -3,46.5 c -0.82601,-0.12955 0.1759,0.85179 0,0 z"
         id="path3806" />
      <path
         inkscape:connector-curvature="0"
         style="fill:#c8ffc8;fill-opacity:1;stroke:#000000;stroke-width:0.90000004000000000;stroke-linecap:round;stroke-linejoin:round;stroke-miterlimit:9.99670124000000020;stroke-opacity:1;stroke-dasharray:none"
         d="m 354.73705,909.43554 c -3.01207,0.92681 -7.65675,0.40639 -11.1875,2.25 -3.93546,-1.23969 -6.25394,4.57852 -9.5,3.5625 -0.46289,0.71857 -0.97445,1.22433 -1.5,1.5625 -2.11075,1.35818 -4.634,0.21767 -6.96875,1.3125 -1.30972,-0.18572 -1.64656,0.2801 -2.65625,0.3125 -1.62967,0.41549 -3.28629,0.44837 -4.78125,0.28125 -1.55624,0.31473 -1.28387,1.97124 -3.3125,1.21875 -0.97427,0.53394 -2.763,1.81981 -2.6875,2.40625 -0.97913,1.11489 -1.818,2.28465 0,2.6875 -0.18794,1.14315 0.0626,2.67851 1.5,2.40625 -0.84878,3.08466 0.7163,0.78836 1.5,2.40625 1.7314,1.0883 -0.35071,1.92997 -0.59375,2.09375 -1.48627,0.40092 -2.98297,0.58549 -3.625,2.09375 -0.53809,0.39379 -1.17945,1.7377 -2.375,1.5 -1.31353,0.13546 -1.06157,1.68995 -2.125,2.40625 -0.59234,-0.26228 -2.36972,1.40965 -2.09375,1.78125 -0.58899,1.21739 -1.25871,2.50638 -2.40625,3.3125 -0.27801,-1.66289 -3.9225,-0.4337 -2.09375,-2.40625 1.17741,-1.15527 -0.75204,-1.55927 -0.28125,-3 -1.00788,-1.17164 -1.98866,-0.25671 -1.5,-1.78125 0.98632,-1.83508 0.0203,-2.12719 1.5,-3 -0.66652,-1.2182 -0.50419,-3.32444 -2.125,-3 -0.90723,-0.15343 -2.47497,0.10429 -3,-0.90625 -1.49406,0.40597 -2.28164,1.50583 -3.59375,2.09375 -0.41804,-1.23516 0.45578,-3.3598 -1.1875,-3.90625 -1.43749,-0.26791 -2.60935,-1.33768 -3,-2.6875 1.4326,-1.42233 -0.57458,-2.39323 -1.8125,-2.71875 -0.78492,-0.86657 -1.50254,0.29836 -3.28125,0.625 -0.7683,-0.3415 -1.91578,2.48834 -3,0.875 -0.98484,-0.52019 -3.90783,-0.49175 -4.875,0.0625 -1.72584,0.95897 -2.33071,1.93569 -2.625,0.25 -0.68197,-0.41459 -0.71256,-1.04916 -2.125,-1.8125 -1.23929,-0.88693 0.008,-1.77786 -2.09375,-1.1875 -1.83769,0.64138 -0.67143,2.22009 0.3125,3 -0.0746,0.92882 1.72635,1.35554 1.78125,2.09375 2.1306,0.57918 0.2691,2.01076 1.21875,3.3125 0.67995,0.0456 -0.54171,1.51944 -0.65625,3.0625 -0.50098,1.58454 1.25724,3.02553 -1.15625,3.53125 -1.29911,0.82931 -3.11617,2.10817 -1.5,3.59375 0.6843,1.4052 1.33923,2.5525 2.15625,3.65625 0.64884,1.27949 1.5426,2.8227 0.84375,3.84375 -1.46357,1.59656 0.68893,2.33329 1.5,3 1.86944,0.47566 -1.14622,3.20262 0.90625,3.59375 1.202,0.21753 2.7538,2.13448 2.6875,2.40625 -2.11555,-0.38979 -2.72675,1.54754 -3,2.09375 -1.0414,0.37984 0.39103,2.99853 -1.1875,2.71875 0.0189,1.61098 -1.59578,1.31095 -2.40625,2.6875 0.11337,1.10945 -3.58801,1.71451 -1.4375,2.15625 2.19468,-0.13336 -0.003,3.61443 2.34375,2.34375 1.3107,-0.38043 2.43866,-1.14369 3.59375,-2.09375 0.82521,-1.51789 2.42367,-0.46416 3.3125,-1.1875 1.12522,0.57849 2.24057,-2.21821 2.75,-0.84375 1.34629,0.88852 2.54659,1.32568 4.75,1.125 1.5428,-0.70093 2.61327,-0.96908 4.1875,-0.28125 1.04309,-0.74144 2.03642,-2.09907 2.40625,-2.71875 1.03506,-1.3164 3.01994,-1.20477 3.3125,-3 0.0389,1.66568 1.33094,2.53855 2.75,3.65625 2.38089,0.29189 -0.0758,1.87062 1.8125,2.71875 0.7002,1.57331 3.22443,0.0334 3.53125,1.125 0.9805,1.80424 0.56214,1.46676 2.09375,1.21875 0.99935,0.69459 -0.26284,2.9916 0,3.875 -0.0318,0.0795 -0.0877,0.1441 -0.125,0.21875 -0.27645,0.55399 -0.66311,1.02013 -1.125,1.375 -0.0291,0.0223 -0.0644,0.0407 -0.0937,0.0625 -0.55895,0.41493 -1.17433,0.72907 -1.65625,1.0625 -1.23346,0.56515 -0.96742,1.51211 -1.3125,2.46875 -0.0991,0.27469 -0.24691,0.54913 -0.5,0.8125 -0.20151,0.91443 -0.93252,1.329 -1.59375,1.71875 -0.55691,0.32826 -1.059,0.63068 -1.09375,1.28125 l -0.3125,0 0,0.3125 c -0.29684,1.00845 -2.15844,1.63642 -0.59375,2.6875 1.17933,1.12651 1.18983,2.12637 0.3125,3.625 0.30751,0.32184 2.11695,1.20632 2.09375,2.375 0.9789,-0.24984 2.6168,-0.31383 3.3125,1.21875 0.52308,2.16403 2.45922,0.18699 3.28125,-0.59375 0.77538,1.61155 2.78247,0.51908 3.375,0.9375 1.16084,1.00304 2.75134,-0.20569 4.4375,-0.0625 1.36514,1.15935 3.50622,0.22094 4.1875,1.5 1.05905,0.76243 3.16671,1.71776 4.8125,2.125 0.15035,1.66837 0.50198,3.61924 1.78125,4.1875 0.30899,2.05081 2.55967,1.20561 2.40625,3.31251 0.1039,2.1167 2.38725,0.4844 2.09375,2.375 1.82844,0.1 1.746,1.8928 1.8125,3.3125 0.005,1.3005 0.63773,2.7575 1.5,3.5937 0.78969,1.1061 0.87069,2.0679 2.6875,2.4063 1.08403,0.022 3.51368,0.058 2.125,1.8125 -1.0181,1.0962 -0.84962,2.8208 0.59375,3.2812 -0.98318,0.6317 -0.15552,3.0018 -0.3125,4.2188 0.82925,1.392 1.33417,3.6037 3,3.5937 1.62145,0.4339 2.09625,1.8014 2.15625,2.75 0.63317,1.8881 1.36449,2.3469 3.21875,1.75 0.9319,1.3644 1.80486,-1.1546 3.40625,-0.375 1.05603,-1.0787 0.69787,-3.5346 0.21875,-5.0312 1.263,-0.3457 1.07104,-2.6974 3.3125,-2.4063 0.95065,1.6031 3.72402,0.059 2.6875,-1.1875 -0.24387,-1.2145 -1.59025,-3.0685 -1.1875,-3.9062 1.75782,0.1922 2.6581,-1.9821 1.1875,-2.6875 1.7534,-1.2082 0.10128,-2.648 0.3125,-3.625 -0.0175,-1.3984 -0.80086,-3.0429 1.78125,-2.6875 1.6677,0.1 0.73574,-3.4997 2.40625,-2.6875 1.65912,1.1412 1.79685,-0.097 3.3125,-0.625 -0.399,-1.5993 1.90731,-1.7635 1.78125,-2.6875 -0.0106,-1.5053 -0.59656,-1.4976 -1.25,-3.06251 -0.6958,-1.51345 -1.20533,-1.72554 -2.40625,-2.6875 -0.65928,-1.53851 0.37834,-3.2543 0.96875,-4.4375 -0.14505,-1.07474 0.92043,-1.90297 1.25,-3.6875 1.64071,-1.5015 -0.0397,-3.05811 0.25,-4.4375 1.82478,-0.73884 1.04434,-2.26333 1.5,-3.28125 0.22637,-2.01804 1.56004,-2.67702 3.3125,-3 -0.83247,-1.53029 -0.95609,-2.40727 -1.5,-3.59375 0.33858,-1.84583 -1.35357,-3.41774 -0.3125,-4.8125 0.57405,-1.14075 1.509,-2.01628 1.4375,-2.75 -1.20252,-0.82298 -1.39971,-2.29911 -2.34375,-3.5625 0.0983,-1.83464 -1.14795,-2.39405 -1.78125,-3.875 -0.72508,-1.00793 -1.11623,-2.12873 -0.90625,-3.625 0.72688,-1.48043 2.47212,-0.22562 4.1875,-0.875 2.05011,-0.30507 2.37995,-0.33667 2.40625,-2.71875 1.63168,-2.16792 -1.1809,-0.80982 -0.90625,-3 0.9876,-1.48836 0.12992,-2.819 1.5,-3.59375 0.16352,-1.76754 2.16786,-1.30578 3,-2.6875 -0.29476,-1.62251 1.15057,-1.70228 1.875,-3.0625 1.26906,-1.14916 2.06911,-2.14481 2.9375,-2.9375 0.5267,-1.37334 1.83188,-1.95558 2.6875,-3 0.92353,-0.87523 0.67555,-4.18118 -0.65625,-1.75 -1.60613,1.4869 -2.02285,-1.39051 -2.9375,-1.875 -1.53547,-0.32385 -1.40571,-2.4303 -0.90625,-2.375 -0.18216,-1.31091 -2.48241,-2.37535 -0.90625,-3.625 -0.97285,-0.23319 -1.4264,-1.35208 -1.5,-1.78125 -0.7266,-1.77526 0.81804,-2.81618 -1.1875,-3.3125 -0.7147,-1.07641 -2.27758,-1.41388 -3.59375,-2.09375 -1.53257,-0.47807 -2.82078,-1.20605 -4.21875,-1.8125 -1.3784,-0.16622 -2.02681,-1.27345 -3,-2.09375 -0.84874,1.62312 -2.14711,0.61321 -3,-0.59375 -1.41833,-0.99821 -2.15153,-1.31574 -2.375,-2.6875 -0.62981,0.29196 -0.13858,-0.85005 -0.3125,-0.90625 z"
         id="path6356" />
      <path
         inkscape:connector-curvature="0"
         style="fill:#c8ffc8;fill-opacity:1;stroke:#000000;stroke-width:0.90000004000000000;stroke-linecap:round;stroke-linejoin:round;stroke-miterlimit:9.99670124000000020;stroke-opacity:1;stroke-dasharray:none"
         d="m 222.94455,954.07465 c -0.74944,1.10135 -2.0325,0.70142 -2.71875,0.90625 -1.99475,0.0558 -2.4694,1.19008 -3.59375,2.40625 -1.43934,1.42134 -2.0391,2.7235 -3.3125,3.59375 -0.21338,1.63643 2.3189,2.8634 1.21875,4.5 -1.2e-4,0.46404 0.53767,1.12845 1.03125,1.875 0.35715,0.5402 0.67689,1.10987 0.75,1.71875 1.03116,2.36189 -1.91668,1.36595 -0.875,3 -1.21979,1.064 0.47799,2.43439 1.5,3.3125 1.30856,0.61526 2.8059,1.89709 3.28125,0.90625 0.41421,0.16965 2.26671,-1.29791 2.40625,0.875 -0.27823,1.62181 -0.48454,3.33418 -1.8125,3.90625 -0.96132,1.20225 -1.7518,2.39404 -1.1875,4.21875 -0.36866,1.486 -1.56681,2.40751 -1.8125,4.1875 -0.11105,1.78619 -1.17397,3.03625 -1.78125,4.1875 -1.1771,1.16341 -0.98556,2.9952 -1.8125,4.21875 -0.47309,-0.23381 -0.37894,-1.08485 -0.90625,-3 -0.83891,1.16659 -1.45207,0.0371 -3.28125,0 -1.49249,-0.50268 -3.38135,-0.5887 -4.5,-2.40625 -0.49074,0.25 -0.7818,0.60625 -1.5,0.59375 0.28001,-0.58851 -3.04431,0.0407 -2.71875,0.90625 0.022,0.13906 -0.31166,0.27381 -0.75,0.40625 -0.92423,0.27925 -2.36187,0.57792 -2.25,1.09375 0.0459,-0.65574 -0.99752,0.71946 -2.09375,1.5 -0.3247,1.9354 -0.95033,2.2492 -2.09375,3.3125 -0.22882,1.2292 -0.0971,1.001 -0.59375,2.375 0.44144,1.7038 -0.0566,3.3649 -0.25,3.4063 0.17323,0.221 0.25879,0.572 0.25,0.9687 -0.0191,0.8611 -0.36219,1.8752 -0.59375,1.9375 0.0237,0.4166 -0.027,1.039 -1.125,1.1875 -0.0318,0 -0.0601,0 -0.0937,0 -0.92735,1.414 -1.83155,1.5126 -3.28125,2.125 0.1529,0.5665 -1.40226,0.7896 -0.3125,0.875 -0.2018,0.3015 0.14598,1.9621 -1.6875,2.375 0.0246,-0.2245 -0.0349,-0.464 -0.40625,0.3438 -0.8997,0.1403 -1.09829,0.5664 -1.8125,0.9062 -0.6387,0.7936 -1.0107,0.6399 -1.1875,1.5 -0.74962,0.1491 1.63286,2.3364 0.28125,3.875 0.7517,1.0253 -0.51094,1.7677 0.3125,2.4063 0.0727,-0.019 0.11243,0.01 0.15625,0.031 0.37456,0.1983 -0.16714,1.7461 0.15625,1.7812 -0.004,1.0473 -0.36425,0.5426 -0.3125,3 -0.26803,-0.3293 -1.38527,1.4614 -1.8125,2.6875 -0.23702,0.9612 -0.0679,1.6997 -0.59375,2.4063 -1.37041,0.4879 -0.11976,0.6382 -1.1875,2.0937 -0.4613,-0.084 0.0398,2.6664 0.28125,3.3125 -0.93669,1.9863 -0.68248,1.7078 -1.78125,3.2813 -1.65866,-0.2014 -1.6007,1.1093 -2.71875,1.8125 -0.3978,0.1509 -0.62051,0.8149 -2.09375,2.0937 -1.13681,0.6907 -1.44775,1.4617 -1.5,2.0938 -1.24512,1.4274 -1.61116,1.8379 -2.09375,3.625 -0.33376,1.3925 -0.57535,0.5519 -1.5,2.6875 -2.74855,-0.6877 -1.08901,1.1608 -2.65625,1.1875 -0.0123,2e-4 -0.0185,0 -0.0312,0 -0.89261,1.0946 -2.13663,1.6446 -3.3125,2.7187 -0.62027,0.58 -2.2304,1.4717 -1.5,3 -0.33357,-0.038 0.0156,0.7747 -0.59375,2.4063 0.0619,0.8585 -0.26212,1.9514 -0.65625,2.8437 -0.17858,0.4043 -0.36706,0.7723 -0.5625,1.0313 0.36062,0.4843 -0.65287,0.3727 -0.25,0.125 -0.88845,0.413 0.0884,1.0853 -0.625,2.9062 -0.20751,1.6369 -1.17738,1.6518 -1.21875,2.0938 -1.64861,0.6592 -1.38161,2.5031 -2.40625,3 -0.31746,1.6841 -1.38573,2.5271 -1.78125,3.5937 -0.44466,0.3562 -0.68902,2.288 -0.90625,2.4063 0.48825,1.5239 -0.49675,2.4349 -0.59375,3 -0.74325,1.2897 -0.2597,2.9863 0.28125,3.5937 -0.21867,0.039 -0.35761,1.3674 0.3125,1.8125 0.4398,0.837 1.25903,3.9853 2.40625,2.375 1.2734,-0.7184 2.43067,-1.1985 4.5,-1.5 1.04814,-0.973 4.70038,0.5774 3.28125,-1.7812 -1.30045,-2.8164 2.1687,0.017 3,-2.0938 0.28355,-1.0712 1.773,-2.9129 2.40625,-4.8125 2.753,-1.0461 -0.44179,-4.8806 2.40625,-4.1875 1.09443,-0.9949 2.29859,0.7705 3.90625,1.0625 -0.90401,2.2916 2.47524,2.6803 1.1875,4.9375 0.52611,0.6164 2.3654,0.082 3,-0.3125 1.3469,0.1096 3.81116,-1.5671 3.3125,0.5938 1.08289,2.0298 0.7635,0.5406 2.40625,-0.2813 1.49568,-0.2755 2.99875,-1.2348 3,0.2813 1.65759,0.3691 -0.28706,3.2908 1.5,1.8125 0.77474,-1.1859 1.01591,-2.4557 2.375,-1.5 1.33619,1.3532 2.44445,-1.1136 3.3125,-0.9063 -0.0691,-1.4937 2.06352,1.6243 1.8125,0.3125 0.62928,-0.9551 1.60925,0.2682 2.375,1.5 0.436,-0.6266 2.09029,-1.1498 3.625,-1.5 1.51867,-0.019 2.86219,-2.4119 3.875,-1.8125 0.84751,-0.4137 2.27031,-1.4232 1.8125,0.5938 -0.0381,1.341 1.98575,-0.6868 2.09375,-2.0938 1.50455,-1.1799 -0.0852,-2.5663 0.3125,-3.9062 -0.91043,-1.0712 -2.23522,0.4866 -2.71875,-1.7813 0.51845,-0.8406 -2.4642,-0.7224 -0.875,-2.4062 0.26536,-0.9817 -0.67652,-2.7421 0,-3.3125 -0.90329,-0.571 -0.37916,-2.5044 0,-2.0938 0.0995,-1.7854 2.56286,-1.4683 2.09375,-3 1.72306,-0.1618 2.70525,-1.3259 2.6875,-2.4062 0.97306,-0.7204 3.0738,0.1213 3.59375,0.3125 0.37451,-0.1139 0.95441,-1.1183 2.125,-0.625 0.81821,-1.6789 0.82581,-2.0587 2.09375,-3.2813 1.47931,-0.6307 3.0253,-0.797 3.90625,0 0.14487,-0.5144 2.32919,-0.043 3.28125,1.1875 2.12196,-0.1781 5.17107,0.5649 6,-0.9062 1.38078,-0.5657 0.83111,-3.9156 2.40625,-3 1.91043,0.7854 1.02537,0.3425 0.90625,3 1.14827,1.2164 0.2048,2.6816 0.59375,4.5 0.19686,-0.4441 0.88216,0.1593 1.18749,-0.2813 1.53334,-0.2726 2.10473,-2.076 3.3125,-2.7187 0.36621,-2.1588 0.333,-2.4493 -0.59375,-3.875 1.09977,-0.7346 0.23244,-2.513 1.1875,-3.625 0.95526,-0.782 1.55775,-1.3275 1.5,-3 0.62642,-1.1728 0.47881,-1.7556 2.09376,-1.1875 0.28021,-0.055 0.15991,-1.9447 0.625,-3.5938 0.20769,-0.7585 1.50844,-2.4382 1.78125,-3.9062 1.01251,-1.3894 -0.1588,-1.5267 0.90625,-3 0.81917,-1.2493 -0.13401,-2.6577 0.3125,-3.5938 -0.22146,-0.3932 1.22313,-1.0866 1.1875,-0.3125 0.32798,0.9875 0.10431,-2.3271 1.8125,-2.4062 -0.95726,-1.0412 1.4845,-0.2806 1.5,-2.375 1.15588,-0.7442 2.23255,-1.5862 2.09375,-3.625 1.02219,-1.2936 1.20054,-2.7789 1.78125,-2.375 0.80552,0.3428 2.46564,0.894 3.90625,0 1.00373,0.6124 2.95325,2.2154 3,-0.3125 0.53592,-1.0401 1.4585,-3.2849 2.71875,-1.8125 1.35197,1.457 1.07548,0.8929 3.28125,0.625 0.47897,0.387 1.57496,1.4057 1.8125,2.0937 0.94649,1.3465 0.86625,1.1625 1.78125,2.6875 0.45331,1.6422 1.99578,1.9053 3.625,3.3125 1.59177,1.0407 1.85676,-3.2773 3.59375,-3 2.98844,-1.1091 -0.82128,-2.8294 0.28125,-4.5 0.0271,-2.0181 0.94907,-1.8193 1.8125,-3.3125 0.41189,-1.4881 1.24098,-2.5465 2.09375,-3.5937 1.95578,-0.9939 -0.94063,-2.1553 -1.1875,-3.5938 -0.8604,-1.8541 -0.0971,-4.2013 0.90625,-5.7187 -0.28213,-1.6719 -0.14934,-2.7364 0.59375,-4.1875 -0.63318,-2.8297 3.15909,-1.4211 3.90625,-3.31255 1.06977,-1.29404 3.82009,-0.28555 4.5,-1.78125 1.40359,-0.67962 4.16355,-1.93532 3.875,-2.71875 0.33551,-1.63575 -3.12861,-1.7549 -0.59375,-3.28125 1.47434,-0.65573 4.22809,-2.47436 2.09375,-3 -0.98825,0.43318 -3.07258,-2.14389 -2.6875,-2.40625 0.94451,-2.19796 -0.127,-2.4958 -1.5,-4.1875 1.37851,-0.52975 0.97268,-2.20917 2.40625,-3 1.57826,-0.78894 2.51614,-2.58066 3,-3.90625 -0.71786,-1.22879 2.05336,-1.56344 2.40625,-2.71875 2.19155,-0.67178 1.30152,-2.52532 1.78125,-4.1875 0.0842,-2.5324 -1.95124,0.0593 -1.78125,-1.5 -0.22889,-1.58304 -2.10849,-1.41512 -3.3125,-1.1875 -2.73997,-1.56567 -0.36915,-2.88165 -3,-3.90625 -2.06298,-0.35076 -2.3021,-4.68814 -3,-2.09375 -1.60795,0.90178 -3.39605,1.84304 -3.59375,3 -0.97136,2.05011 -2.70665,0.93389 -3.90625,1.1875 -1.36914,0.69314 -3.64724,0.86775 -5.09375,0.3125 -1.32725,-1.25145 -2.14445,-1.66318 -3.3125,0 -1.03272,0.54391 -2.77576,-0.35491 -3.59375,0.875 -1.59826,0.34978 -2.1106,2.46626 -4.1875,2.125 -2.01022,2.04473 -0.27231,-2.46481 -2.59375,-2.125 -0.48693,-0.4617 -0.64308,-2.07763 -2.8125,-2.09375 -2.22566,0.1363 -3.74725,-1.16069 -6,-0.28125 -2.02001,0.93825 -3.49811,-0.78228 -5.09375,0.875 0.16965,1.82175 -2.23364,2.07443 -2.40625,0 -1.71068,0.70871 -3.09316,-1.1191 -3.59375,-0.28125 -1.6572,0.98979 -2.1375,-0.16092 -3.62501,0.28125 -0.60106,-1.36305 -2.37269,1.95022 -3,0.3125 -0.1893,-2.19204 -0.21434,0.25059 -1.78125,-0.59375 -1.07215,0.72334 -2.27023,-0.0543 -4.06249,0 -1.19027,-0.38686 -3.63106,0.62029 -3.4375,-0.59375 -1.14239,-1.72389 -1.71005,1.71997 -1.5,-0.625 -0.26074,-0.87138 -1.55527,-1.30988 -2.71875,-1.1875 0.26231,-1.17394 -0.14578,-1.32699 -0.875,-2.6875 1.54866,-1.12381 0.71326,-2.94525 -0.625,-1.5 -0.89009,-0.79593 -3.43134,0.2706 -2.375,-2.71875 z m -77.40625,78.15625 c -0.66593,0.052 -1.16813,2.6523 0,2.5625 1.65563,0.9315 2.03251,-2.0966 0.28125,-2.4062 -0.097,-0.1114 -0.18612,-0.1637 -0.28125,-0.1563 z"
         id="path6374"
         sodipodi:nodetypes="cccccscccccccccccccccscccccscscccccccccsccccccccccccsccccsccccccccccccccccccccccccccccccccccccccccccccccccccccccccccccccccccccccccccccccccccccccccccccccccccccccccccccccccccccc" />
      <path
         inkscape:connector-curvature="0"
         style="fill:#c8ffc8;fill-opacity:1;stroke:#000000;stroke-width:0.90000004000000000;stroke-linecap:round;stroke-linejoin:round;stroke-miterlimit:9.99670124000000020;stroke-opacity:1;stroke-dasharray:none"
         d="m 237.50806,1063.9633 c 1.13208,-0.6883 2.21963,-1.9602 3.00007,-3.0001 0.78215,-1.8679 -0.38931,-2.5999 -0.3,-3.6 0.58994,-1.0903 -0.0988,-2.7753 1.20003,-3.6001 0.76458,-0.8502 0.99963,-1.7632 1.50003,-3 -0.10037,-1.4829 0.7317,-1.8525 1.80004,-0.9 0.37951,-0.964 -0.0752,-2.5299 0.90003,-3.9001 -0.17179,-1.053 1.24311,-2.8192 1.80003,-3.9 0.2577,-1.8341 -0.12832,-1.3733 0.60002,-3.3001 0.75821,-1.0765 -0.0662,-2.4815 0.30001,-3.6 2.15054,-0.3655 0.99667,0.9107 1.80004,-1.8 1.92463,-0.6635 0.38887,-1.2171 2.10006,-1.8001 0.60115,-1.2988 1.97559,-1.8244 2.40005,-3.3 0.20085,-1.6709 1.45169,-2.997 1.50004,-3.9001 0.73833,-0.662 1.46566,1.0723 3.00007,0.3 2.03051,-0.7026 2.31655,0.7384 4.2001,0.9001 0.43265,-1.4674 0.50218,-3.2979 2.10005,-3.6001 0.0589,-0.8627 0.25883,0.2039 0.60001,0 m 0,0 c 1.14953,1.3279 1.47264,1.6086 3.00008,0.9 1.15646,-0.029 1.97059,1.2885 2.10005,1.8 1.07657,1.4177 1.18535,1.2579 1.80004,2.7001 0.53925,1.7984 2.4562,2.0984 3.90011,3.9 2.00516,-0.09 1.81367,-3.5829 3.90009,-3.3 1.02686,-2.0273 1.39077,-1.5473 3.60008,-1.2 0.35639,1.4941 2.43734,1.7567 2.70007,3.3 0.554,1.8721 1.3278,2.8264 0.90002,5.0592 -1.8327,0.1598 -2.62292,1.8024 -2.40006,3.6409 1.08504,1.5545 1.54177,2.301 1.80005,3.9001 1.36941,0.6202 2.17421,2.9411 0.90001,3.6 -0.12841,1.6743 -0.49732,2.5058 0,4.8001 -2.63317,0.8467 0.95491,1.2257 1.20004,2.4 3.49664,-0.6892 -0.0722,2.8703 2.40005,2.7001 -0.15623,2.0778 2.04696,1.4281 2.10005,2.7 0.80571,0.7025 2.13397,2.4552 3.30009,1.8 1.17931,1.1247 3.15217,-1.0014 3.00006,0.3 -0.68314,1.683 0.65815,2.74 1.80005,3.6001 1.3205,1.1589 0.20311,0.5808 1.80004,0.9 -0.86379,2.9239 -0.58462,0.2315 -2.10005,1.5 -0.64764,0.7863 -0.88443,1.9616 -0.3,3.3 0.85253,1.0966 0.95882,2.035 2.10005,1.8001 1.08758,0.4898 1.97988,-0.1887 2.70006,-1.2 1.4905,-0.06 3.00405,-3.0999 3.00007,-0.3 0.16847,2.7778 2.26195,-0.8329 3.90009,1.2 1.69251,0.7223 3.24081,1.1402 4.50011,2.4 1.7682,0.4872 2.00364,2.2893 3.60009,0 0.99968,-0.5914 3.09901,-1.3757 3.60008,-1.5 1.14871,0.7513 1.48921,2.3108 3.00007,2.7 0.99284,0.5757 2.24509,0.2754 3.60009,0.3 0.4029,1.6252 3.01549,-0.7204 3.60009,0.6 1.38643,0.2468 2.05508,-0.2563 3.30007,0.6 1.93149,-1.112 2.67976,0.6946 4.2001,0.9 2.61375,-0.4267 2.01068,1.4973 3.9001,1.2001 -0.54707,1.7631 0.82465,-0.029 0.90003,2.1 2.45206,1.0013 -0.9422,2.1535 0,3.3 1.26471,0.7329 1.88442,2.3415 0.60001,3.3001 -0.0821,1.0497 0.6052,2.2414 0.60001,3.9 -0.18481,2.3849 1.93853,2.4616 2.40005,4.2001 1.13446,0.8655 1.49663,2.5034 1.50004,4.5 -0.77354,0.5755 0.31064,2.6536 -0.3,3.3001 1.20911,1.9796 -1.27635,2.2048 -0.90003,3.6 0.5261,1.374 0.66252,3.1376 1.50004,4.2001 1.61023,0.2403 2.21113,1.983 3.90009,2.1 1.62171,-1.3729 3.06637,0.1 3.9001,1.2 0.52905,2.1621 -0.72591,1.3315 -1.50004,3.0001 -1.32805,0.2142 -1.89265,2.9817 -2.40006,3 -0.7399,1.7002 -1.29953,3.3329 -2.10005,5.4001 -1.17688,1.0088 -3.06446,2.4802 -4.2001,3.9 -0.96674,1.4659 -2.17836,2.8507 -3.60009,3.9001 -1.0166,1.2324 -2.69671,4.0601 -5.10011,2.7 -1.64343,-1.4021 -4.47373,-2.32 -7.50019,-2.1 -1.56231,0.6125 -2.0833,-0.1155 -3.61621,0.8107 -0.65,-0.35 -0.84035,1.5404 -1.78714,1.2398 -2.74414,0.4574 -0.86787,-2.7679 0.60324,-2.9505 0.61772,-1.0493 -3.34738,0.164 -3.30008,0 -0.61655,-0.048 -2.44451,2.0545 -3.30008,1.8 -1.1657,0.6 -3.00492,2.0963 -2.70007,4.2 -1.46326,0.7356 -0.67885,-3.2583 -2.10005,-0.3 -0.98152,1.8073 0.0631,1.7693 -1.20002,2.7001 -0.89829,0.9656 -1.47201,1.3864 -2.40006,1.5 -1.93924,-0.7167 -2.75533,1.1276 -3.00007,2.1 -1.45155,1.2439 -0.72612,0.5316 -2.40006,0.9 -0.62549,0.5964 -2.73312,0.6806 -3.30007,1.8 -1.8991,0.8729 -3.71829,1.0036 -4.2001,1.2001 -0.77743,1.8059 -2.68305,1.0256 -2.40007,3 -0.88448,0.9717 -3.45565,1.2894 -4.2001,1.2 -0.49923,-0.4386 -0.0947,0.1854 -0.90002,-0.3 -0.64788,-0.271 0.11,0.065 -0.90001,-0.6 -1.04059,0.4845 -1.76005,0.2621 -1.80005,0.3 0.20295,0.936 -1.70279,-0.971 -2.70007,0 -0.0371,-0.2953 -0.8891,0.2849 -1.50003,0 -0.12879,0.09 -1.10788,-1.215 -1.80004,-1.5 -0.004,0.119 0.18972,-0.6848 -0.60001,-0.6 0.007,0.6515 -0.50663,-3.4923 -1.20004,-3.3001 -1.55764,-0.6276 -1.37438,-2.4137 -1.80004,-1.5 -0.79865,1.481 -0.84586,2.6553 -0.60001,3.9001 -0.46436,1.063 0.21951,3.6995 -0.60003,3.9 -1.50497,-0.9793 -1.29951,0.2545 -2.40005,-1.2 -0.0904,-0.9496 -0.3066,-1.3394 -1.20002,-1.5 -0.205,0.8488 -0.62364,-2.85 -1.50005,-0.9 0.47835,0.5205 -0.9829,1.5928 -1.50004,0.6 -0.3742,0.2643 -2.67906,-0.5947 -2.70006,-1.5 -0.0408,-0.9258 -0.85215,-0.5 -1.50004,-1.2001 -0.89425,-1.3987 -1.08866,-0.9714 -1.50004,-3 -0.11587,-0.3939 -0.20986,-0.9311 -0.30001,-1.5 -0.75917,0.096 -0.70411,-0.2694 -1.50004,0 0.43845,-0.8398 -0.27212,0.017 -0.60001,-0.9 -0.31922,-0.5912 -0.77509,0.3306 -0.3,-0.6 -1.34287,-0.051 -0.0628,1.3259 -0.90002,1.2 -0.25508,0.7905 -0.47443,0.6467 -0.60002,0.3 0.1422,-1.6248 -0.0234,-1.1663 0.60002,-2.1 -0.192,-3.0765 -2.00487,1.4869 -2.40007,-0.6 0.34429,-0.017 1.57604,-2.6313 -0.90001,-2.4001 0.0666,-0.5108 -0.76632,2.6332 -0.30001,0.9 -0.5965,0.223 0.0537,-1.3292 -1.20003,-2.7 -2.23766,0.1793 1.63075,-0.054 -1.20002,-0.3 -0.84351,0.9489 -1.45418,-0.4086 -3.30009,-0.9 -0.23349,-0.6759 -2.11524,-0.2895 -3.60009,-1.2 -3.06597,-1.6808 -0.94677,0.3195 0,1.5 0.38735,2.0927 -1.30758,-1.2572 -2.10005,-1.8 -1.25468,-1.4952 -2.77768,-2.7527 -4.5001,-3.6001 -1.14377,-0.7665 -2.61986,-2.4678 -3.9001,-3 -1.0539,0.2234 -1.1977,1.6465 0,3.3 0.97708,2.2983 2.33974,0.3209 3.30009,2.1001 0.0875,-0.235 0.19356,2.567 -0.60002,0.6 0.48847,2.2233 0.01,1.5906 1.50003,3.9 0.32023,2.9824 -0.18865,0.4875 -1.55272,-0.5538 -0.79329,-2.8096 -0.65685,-2.4611 -0.84411,-1.3484 -1.14098,0.464 1.07203,2.5429 0.8968,4.0022 0.7161,1.2645 2.37207,2.5585 2.70007,4.2001 0.66136,1.9887 0.005,2.2062 -0.30001,3.6 0.3317,-0.093 -1.79671,-0.6894 -1.50004,0.6 -0.0201,0.807 0.2622,2.8025 -0.60001,2.7001 -0.33413,1.2309 1.34794,1.6816 0.30001,3 0.28013,1.0122 -0.2293,2.2023 -0.60002,2.7001 -0.59173,1.7278 -0.65305,3.0218 -0.3,3 -1.00424,1.2846 -0.12425,3.3663 0,2.7 -1.22224,-0.062 0.62111,2.6846 0.90002,1.8001 1.03133,0.7425 0.12505,0.376 0.60001,1.5 0.40467,0.5683 -0.79482,2.5928 -1.20003,2.4 0.13321,-0.1222 -0.53212,0.9503 0,1.5 -0.79508,-0.054 -1.23498,-0.9384 -0.90002,0.9 -0.27101,0.7416 -0.76715,0.6929 -1.50003,1.2 -0.50485,0.3025 -0.10175,0.176 -1.20003,1.2001 -0.0946,0.754 -1.66327,0.5589 -3.00007,0.9 -0.62415,-0.8646 -1.8522,-1.0155 -2.10005,-1.2 -0.36902,-0.5314 -1.56419,-1.1032 -2.70007,-2.1001 -1.31654,-0.4968 -2.03621,-1.3737 -3.90009,-1.2 -1.40947,-0.8839 -2.98282,-1.2671 -4.2001,-2.1 -0.68955,-1.6844 -2.2554,-0.9269 -3.00008,-2.4 -0.41902,-0.292 -0.375,-2.4677 -1.80004,-2.1001 -0.16293,1.3786 -2.45692,-1.1701 -0.90002,-1.2 -0.14619,0.037 -0.15685,-1.9731 -2.10005,-2.1 -1.23708,-0.7659 -0.89935,1.1178 -2.10005,-0.9 -0.78788,-1.9033 -1.37433,-2.1421 -1.20004,-3.9001 -1.15614,-0.9315 0.65456,-1.4269 -0.30001,-2.1 -0.82253,-0.633 -0.60833,-0.8669 -1.80003,-2.1 -0.85702,-0.3913 -1.65163,-1.8596 -1.80005,-1.8001 -2.36007,-0.2117 -3.67107,-3.0286 -6.30015,-3.9 -1.91729,-1.478 -3.00115,-2.1313 -4.2001,-4.2001 -1.12667,-1.2299 -1.38712,-1.6677 -2.40005,-2.7 -1.88588,-0.4292 -1.90309,-0.882 -4.2001,-0.9 -1.76598,-0.1341 -3.22927,-0.5708 -4.50012,-1.2 -1.32196,-0.9728 -1.67385,-1.5899 -2.10004,-3.0001 -0.67986,-1.8351 -1.94829,-1.3511 -3.00008,-2.1 -0.3128,-0.635 -1.83094,-0.3341 -2.10005,-0.6 -1.69521,-0.1457 -2.41534,0.435 -3.60008,0.6 -2.06469,1.3052 -1.48623,0.3299 -3.30008,1.5 -1.82578,1.3891 -4.01182,2.1811 -5.40012,3.9001 -1.15395,0.8148 -2.80814,2.4923 -3.60009,3.6 -1.46907,1.7834 -0.55593,2.1161 -0.30001,4.2001 0.28813,1.1355 0.4746,1.9407 0.60001,2.7 0.42377,0.1596 0.86217,1.4531 0.60002,1.2 -0.61506,0.045 0.15722,1.8098 0.3,1.8001 -1.21841,1.0046 0.98913,2.2063 0.60002,2.7 -0.34722,-0.4443 1.47146,2.9291 1.20003,3 1.00564,0.9835 -0.71563,2.442 0.90002,4.2001 -0.46093,2.3624 1.38745,2.7348 0.60001,4.2 -0.46755,2.6605 1.7665,1.9353 0.90002,3.0001 0.36704,0.9397 1.11984,0.034 1.95005,1.5 0.53676,0.77 1.45092,0.6321 2.25005,2.1 -0.41929,2.1781 0.49987,0.2363 -0.90001,1.8001 -0.37744,1.5924 -0.95365,1.08 -0.90002,2.1 0.63948,-0.2305 -0.83881,2.1949 -0.60002,2.1 -0.66995,0.7739 1.08368,3.5347 0.3,3.6001 0.87077,1.5614 3.03843,0.182 3.30009,1.2 -0.14505,0.8302 -2.40879,0.733 -3.60009,0.3 -0.48044,0.089 -0.60812,-1.4753 -0.90002,-0.9 -1.28256,-0.3329 -1.68907,0.1289 -2.10005,-0.6 -0.49729,-0.5307 -2.76862,-0.5881 -2.70006,-0.6001 0.034,-0.3209 -0.7031,-0.1407 -0.90003,-1.2 -1.03489,0.1192 -1.20688,-1.2176 -2.10005,-1.8 -0.5457,-0.8564 -0.78905,-0.2289 -1.20002,-1.5 -0.35813,-0.2473 -1.59504,-1.2538 -1.50004,-0.6 0.11254,-0.7217 -0.85514,-2.6168 0.3,-3.3001 -1.4951,-0.7544 -1.63254,-1.4775 -1.20003,-2.4 -0.12286,-0.4981 0.67183,-1.2649 1.20003,-1.2 -0.68936,-0.5985 2.67813,-1.0887 1.80005,-2.4 -0.88928,-0.072 -0.86187,-1.9786 -1.20003,-1.5001 0.34505,-1.0056 -1.15264,-1.5246 -0.30001,-2.7 0.76898,-0.4641 0.97453,-2.3278 -0.30001,-2.4 -1.11919,0.022 -0.14629,-0.6481 -2.10005,-0.6 -0.5078,0.2691 -2.35701,-0.8446 -0.90001,-1.2 -0.27055,-0.3826 -0.2106,-0.227 0,-1.5001 0.0605,-0.8828 0.58546,-1.3078 -0.30002,-1.5 0.16167,-0.5065 -0.43768,-0.2185 -0.90002,-0.9 -0.34793,0.6654 -1.51038,-2.1596 0,-3 -0.43859,-0.4636 0.24428,-1.3399 -0.90001,-2.1001 0.23202,-0.2978 -0.91511,-1.1802 -0.90003,-1.8 -0.38285,0.773 -1.31303,-0.6992 -2.10005,-1.8 -2.34783,0.053 -0.82038,-2.4433 -1.80005,-3.3001 -1.54451,-0.8079 -1.07772,-1.6297 -2.40005,-2.1 0.0784,0.7404 -0.89404,-0.6821 -1.80005,-0.9 -0.10725,0.06 -1.16647,-1.1452 -0.90001,-1.2 0.22715,-1.0547 -1.10261,-2.2832 -1.50004,-1.8 0.31322,-0.2312 -1.86305,-0.2419 -1.80005,-1.5001 0.47594,-0.3806 -0.94197,-0.3107 -1.50004,-2.1 -0.93208,-0.2135 -0.95669,-1.3678 -1.50002,-2.1 -0.39847,0.5114 -0.97052,0.037 -0.90003,-0.9 -1.10775,-0.7461 -0.35121,-0.3796 -1.20002,-1.5 0.24606,-1.9196 0.0347,0.3226 0.3,-2.4001 -1.2037,-0.9088 -0.40972,-1.3448 -1.50004,-3.3 -0.68385,-1.9655 -0.68816,-1.6995 -1.20002,-3.6001 -1.19298,-1.1339 -0.69324,-1.4889 -1.80004,-3 -0.5194,-1.2297 -0.1085,-3.5603 -0.30001,-3.6 0.11026,-1.9051 -0.29035,-2.4886 0,-2.4001 0.56528,-2.0286 -0.24953,-2.0492 0.30001,-2.4 -0.12063,-2.3632 0.72926,-2.258 0.60001,-3 0.8794,-1.1468 0.36255,-1.7797 0.60001,-3.0001 -1.76736,0.1417 -0.29806,-2.127 0.3,-3 -0.11546,-0.7506 -0.11546,-0.032 0,-1.5 1.21604,0.964 0.46943,-1.9594 1.20004,-1.2 0.0185,-0.4058 0.48558,-1.266 0.60001,-1.2001 0.96285,-0.7088 0.96109,-1.7821 1.50004,-1.5 1.35328,-0.1594 1.81042,1.1654 2.70006,0 1.45471,-0.01 1.58303,-0.8545 2.70007,-1.2 0.1992,-0.9527 2.17537,-0.9701 3.30007,0 0.48576,1.5974 0.5032,3.3174 1.20004,4.2001 1.1742,0.5984 1.65752,3.1998 1.50004,3.9 -0.19471,1.7029 2.20725,2.3819 2.10005,3 1.63164,-0.8279 -0.10357,0.9425 0.3,2.1001 -0.61473,-0.4078 -1.27769,-2.4101 -3.00008,-0.9001 -0.13363,1.4791 0.58465,2.5777 0.30001,3.9001 0.51674,1.6703 0.19784,3.3101 0.90003,4.2001 -0.59472,1.088 1.81831,2.1688 2.10005,3.3 0.89688,0.988 1.72013,2.3174 2.40005,2.7 -0.47885,-1.4753 2.20972,-0.2231 3.30009,-2.1 1.28547,-1.8209 1.48254,-2.2906 1.20002,-4.2 -0.18502,-2.065 -1.99063,-2.0223 -1.50004,-4.5001 0.82766,-0.9628 -1.56951,-3.0834 -1.20002,-3 1.04593,-1.3336 -2.91729,-2.3385 -1.50004,-3.9001 -1.25246,-0.2557 -1.09796,-3.4911 -0.90002,-4.2 1.37268,-1.2256 3.1677,-2.0084 6.00015,-2.1001 1.48507,-0.6861 3.7561,-0.2195 2.10005,-2.4 0.78752,-2.0463 3.26186,0.5108 3.60008,-2.4 1.47118,-1.0116 1.12917,-3.8865 3.30008,-5.1001 -0.31178,-2.4381 0.16932,-3.4161 1.80004,-3.3 0.98886,0.9211 4.15349,0.2013 3.00007,3 3.0623,0.647 0.3197,3.7648 2.40006,3.6 1.126,-0.1353 2.11106,-0.505 3.60009,-0.9 1.98871,-0.7996 1.91341,0.4576 2.40005,2.1001 0.75653,0.1311 1.09842,-2.4106 3.30008,-1.8001 1.22419,-0.756 1.4208,0.3281 2.40005,1.5001 -1.16507,1.8452 0.90597,1.4203 1.20003,-0.3 0.41132,-0.7861 1.83295,-0.8525 3.00007,0.3 1.32019,-1.5499 1.86102,-1.2532 2.70007,-2.1001 0.83243,1.6531 1.29128,1.5075 1.80005,0.3 1.12535,0.6547 1.6701,2.8644 2.40005,1.5001 1.33642,-0.7141 3.13243,-0.5272 4.50011,-1.5001 1.06916,-1.4075 2.58365,-1.2626 3.30007,-1.5 1.34142,-1.9243 0.66233,2.1695 1.20004,1.2 1.63669,-0.2108 1.76315,-2.8653 2.40005,-3.6 -0.10487,-1.1881 -0.0349,-3.0564 -1.50004,-3.3001 -0.49311,1.6639 -1.79328,-2.5339 -1.80003,-1.5 -1.89403,-1.0309 -0.21414,-1.6358 -0.60002,-3.3 -0.36523,-1.2601 -0.11325,-2.0164 -0.30001,-3.0001 -0.2999,-1.0484 -0.004,-1.2991 0.90003,-2.4 2.03265,-0.2824 0.56676,-2.2183 3.00007,-2.1 1.42686,-0.5793 0.49205,-2.9677 2.40005,-2.1 1.52502,-0.9785 2.70941,1.3791 2.70007,0 0.93574,-0.4451 1.45114,-0.1899 2.70006,-1.5001 -0.24522,-0.8705 0.9333,-2.5757 2.70008,-2.4 1.29851,-0.6716 2.60605,0.3819 3.00006,0.3 1.42291,-0.7159 2.33084,1.8511 4.50011,1.2 2.32895,0.1712 4.22227,0.027 4.80011,-1.8 0.53603,-1.0259 1.25869,-3.6688 2.40007,-1.5 2.07588,-1.0128 -1.00093,2.3157 0.90001,3 -0.031,1.8522 -0.30235,3.3451 0.30001,4.2001 -0.24201,-1.6547 0.63306,0.3712 1.20003,-0.6 m 44.10107,89.1011 c 0.59641,1.0194 -0.42872,1.799 -0.60001,1.2 0.28027,0.4929 -0.15159,-1.2363 0.60001,-1.2 z"
         id="path3812"
         sodipodi:nodetypes="cccccccccccccccccccccccccccccccccccccccccccccccccccccccccccccccccccccccccccccccccccccccccccccccccccccccccccccccccccccccccccccccccccccccccccccccccccccccccccccccccccccccccccccccccccccccccccccccccccccccccccccccccccccccccccccccccccccccccccccccccccccccccccccccccccccccccccccccccccccccccccccccccccc" />
      <path
         inkscape:connector-curvature="0"
         style="fill:#c8ffc8;fill-opacity:1;stroke:#000000;stroke-width:0.90000004000000000;stroke-linecap:round;stroke-linejoin:round;stroke-miterlimit:9.99670124000000020;stroke-opacity:1;stroke-dasharray:none"
         d="m 440.73255,1035 c -1.0054,0 -0.86678,-0.7919 -0.90003,-0.3 -0.11512,-0.4828 -2.97202,-1.6552 -3.60009,-0.6 -0.45905,1.5168 -3.88753,1.3702 -3.60007,3.9 -2.01711,1.7571 -2.7411,0.058 -3.30009,-1.8 -1.49877,-1.271 -3.2143,2.9315 -3.90009,0.6 -1.22113,-0.9555 -1.5673,-2.7743 -0.60001,-3.9 1.10871,-1.5763 -1.70967,-2.2807 -1.80005,-4.2001 -0.0325,-2.1286 -2.39942,-0.7322 -2.70006,-2.7 0.67804,-2.4148 -2.54363,-1.8495 -1.80004,-4.5001 0.57196,-2.843 -1.31955,-1.6816 -1.80005,-3.3 -0.48132,-1.2824 -2.42025,-1.6287 -4.2001,-0.9 -1.46166,0.8621 -2.52174,1.8703 -4.2001,2.4 -0.90695,-1.2741 -0.34979,-3.7645 -2.10005,-4.2001 -1.23417,-0.6415 -2.24759,-0.6227 -3.30007,-2.4 -1.04192,-2.1752 -2.08404,2.4136 -3.30009,1.5 -1.33123,0.6945 -3.438,0.7075 -3.60008,2.4001 -10e-4,0.9479 -2.76298,1.746 -3.00007,3.3 -2.11304,0.2974 -3.73376,-0.7507 -4.2001,-2.1 2.28532,-0.9639 -0.7274,-4.1789 2.10005,-4.2001 -1.22143,-2.0013 -0.4861,-3.3218 0,-5.1 0.87096,-1.2555 1.70535,-2.7426 3.00007,-3.3001 0.96973,-1.9941 2.99042,-1.6188 3.90009,-3.3 2.16056,-1.9878 0.86416,-2.8194 -0.90002,-2.7001 -0.75005,-1.0525 -2.98669,-1.5276 -3.90009,-0.3 -2.18025,-0.2733 -2.06768,-1.6427 -2.70006,-3.30003 -2.02389,0.2456 -3.01338,1.54433 -3.60009,3.60003 -0.23874,1.7925 -2.39756,1.5919 -2.40006,4.2001 -1.11394,-2.708 -2.50759,0.8161 -3.90009,-0.3 -2.60684,0.8818 -2.10949,1.1665 -3.60009,-0.3 -2.10878,-1.4069 -2.24028,0.9657 -3.9001,1.2 -1.47368,-1.1573 -2.83757,1.3462 -3.90009,0.6 -1.13831,-0.903 -2.44563,0.7625 -3.00008,-0.6 -0.39876,0.02 -2.05058,-0.8842 -2.70006,-0.6 -1.84395,0.3634 -0.56044,2.1749 -2.70006,2.4 0.121,2.0786 -2.3789,-0.6382 -3.00008,0.6 -0.16373,1.7363 -1.23723,2.5629 -3.00007,2.7001 -0.91184,0.7918 -0.4158,3.1332 0.30001,3.9 -1.10806,1.8579 0.28293,2.6735 -0.60001,3.9001 -1.00978,1.4537 -2.34875,0.919 -0.90003,3.3 1.22505,0.8141 0.94969,4.4397 -1.50003,3.0001 -2.33418,-1.2713 -2.73179,1.7087 -3.90009,2.1 0.38576,1.508 1.07056,4.4849 -0.60001,5.1 -2.02217,0.1783 -2.20405,0.7901 -4.50012,0.6001 -1.42936,-0.088 -1.76501,-2.7927 -2.40006,-3.9001 -2.1791,-0.8851 -2.97475,-1.5348 -4.19205,-3.592 -0.40594,-1.4664 -0.85091,-4.2 -0.007,-5.1081 -1.72169,-0.6347 -1.36647,-2.4731 -0.3,-3.9001 0.40991,-2.038 -3.23044,-0.4338 -3.9001,-1.8 -0.75724,-0.9309 -1.22289,-1.992 -2.40005,-3.3 -0.53764,-1.5896 0.0623,-3.4602 -0.90002,-4.8001 -1.70614,-0.782 -1.15648,-1.8814 -3.00008,-2.1 -0.22832,-1.9043 -1.70381,-3.1808 -3.30007,-4.2001 -0.88064,-1.49913 -0.5516,-3.98393 -2.40007,-4.50003 -1.74185,-1.1318 -4.08222,-1.1986 -4.5001,-2.7001 -2.33462,0.4673 -4.20588,-1.4538 -6.00015,0 -1.83858,-0.9062 -2.54197,-0.2222 -4.2001,-0.9 -1.32968,-1.8218 -2.8352,2.6844 -3.90008,0.3 -0.56224,0.092 -0.13353,-1.0414 -0.90003,-1.2 -1.24085,-0.1344 -2.442,1.8409 -3.9001,2.7 -2.69977,1.0102 1.1681,1.8736 0.90003,3.0001 -0.69898,1.2011 -3.03377,1.846 -4.2001,3.00003 -1.30079,0.8565 -3.52293,0.4366 -4.80012,1.8 -0.96066,1.4033 -4.40906,0.4574 -3.60008,3.3001 -0.96944,1.2724 -0.74557,2.401 -0.60002,4.2 -1.2394,1.2446 -1.85908,4.1954 -0.60001,5.4001 0.0866,2.075 2.7769,2.3796 0.90003,3.9001 -1.13062,0.7694 -1.79,2.01 -2.10007,3.6 -1.20581,1.159 -1.75941,1.1334 -1.80003,3.3001 -0.4915,1.6401 1.09358,3.4768 3.00007,2.7 0.87965,0.9278 2.13065,1.9735 3.00008,3 0.38931,1.3118 1.64095,3.1078 1.20002,4.5001 0.79418,2.3123 -3.63544,1.2451 -2.10005,3.9 -1.33816,2.2183 2.61341,2.3459 0.90003,4.2001 1.02931,0.8339 2.9755,2.6959 1.80003,3.6 -0.35651,1.5601 -0.97083,2.6066 -0.30001,4.5001 -1.40787,2.0412 -0.5573,1.4078 0.60003,3 2.24682,0.1115 2.68135,1.2451 2.10005,3.0001 1.73698,0.6654 1.21075,1.8246 3.00006,2.4 0.0959,0.4151 1.56842,2.0235 2.70006,2.4 1.45354,0.053 2.62068,-0.316 3.60009,-0.3 -0.18823,0.9937 -0.20244,2.5432 1.20004,3.6001 1.26742,1.1144 1.74423,0.9883 1.50003,1.2 1.79792,0.9185 -0.4152,1.9214 -0.60002,1.2 -1.41023,0.6439 -1.23103,1.6296 -1.20003,3.0001 0.5277,1.613 1.50679,1.7588 1.80005,2.7 1.12267,-0.2321 2.22907,-0.1588 3.00007,-0.9 0.7848,-0.5361 2.81357,-2.7923 3.30008,-1.8 0.0408,3.3132 0.83414,1.0259 3.00007,1.8 1.5855,0.2695 3.06758,1.2354 4.80012,2.1 1.00216,0.5524 2.47943,2.3469 3.30008,1.5 1.03902,-1.5561 2.81033,-1.413 3.90008,-2.4 1.1787,-0.1161 1.81182,1.4034 2.70007,2.4 1.18426,1.31 2.53128,-0.088 3.60008,0.9 1.45264,-0.5848 2.07874,1.0742 3.9001,-0.3 1.63309,0.4736 1.69519,1.2256 3.30008,0.6 0.89066,0.9457 3.10742,-0.302 3.9001,1.2001 1.20295,0.3881 4.0295,0.4452 3.60007,1.5 2.11732,0.2694 0.46559,1.1335 2.10007,1.2 -0.29919,0.8485 2.1903,2.8213 -0.30002,3.3 0.24924,1.3419 2.33903,2.1357 1.50004,3.6001 -2.1279,0.7768 0.74666,2.0464 -0.30001,3.6 0.27396,1.6261 0.74052,3.0596 1.80005,3.9001 0.91886,0.9811 1.94574,1.8543 2.10005,3.6 0.9703,1.7017 -0.6703,2.4983 0.3,4.2001 -0.72658,0.1968 0.67469,2.6021 -0.60001,3.6 -1.2486,0.1068 -0.34793,2.7689 0.30001,3.6001 -0.54414,2.5313 1.87071,1.8794 3.00006,3 0.49661,2.1213 2.89181,-0.4187 4.2001,0.6 1.1303,1.1995 1.71513,3.0245 0.90003,3.3 -1.01945,0.5698 -1.97765,1.7548 -3.00008,3.0001 -0.22441,1.5056 -1.34317,1.7152 -1.50002,3.9 0.29391,1.1543 3.35232,-0.3259 3.60007,-1.8 M 440.7336,1035 c 1.12637,1.6085 2.1594,1.4005 3.30007,-0.3 2.68614,0.1564 1.33785,2.6683 3.00008,3.3 0.93428,2.4412 -2.03007,2.0627 -3.00008,3.9001 -0.42361,1.6123 -2.80137,3.7793 -1.20002,4.8001 2.26632,-0.8112 3.18102,0.5105 4.80011,0 2.14424,-2.0174 2.1693,1.3251 2.40006,3 -1.33711,1.4153 -4.03859,2.4833 -3.30007,4.8001 -1.65439,1.648 -1.07435,2.8818 -2.10005,5.1 -0.80127,1.8325 0.71238,3.6378 0,6.0001 0.8206,1.9897 0.77751,3.0632 2.70006,3 1.641,1.0926 2.06689,1.0535 2.40005,3.0001 0.56481,1.3352 0.15944,3.6406 0.60001,5.1 -2.2694,0.025 -1.71752,1.5462 -2.40005,2.7001 -2.09496,0.2424 -0.66477,1.2513 -1.50004,2.4 -1.62438,-1.6436 -0.55532,1.3869 -1.80003,2.1 -2.43332,-0.6959 -1.99,-0.1335 -3.30009,1.2 -1.43894,0.096 -3.39354,0.4471 -2.40005,2.4001 1.35886,0.7892 -1.89738,1.2688 -2.40006,2.1 0.0575,1.6721 -2.82985,0.035 -4.28974,0.1052 -1.93165,-0.2846 -3.19781,-0.4455 -5.01049,-1.0052 -2.06492,-0.1649 -3.62572,0.1743 -3.60009,2.1 0.82699,-1.0245 1.6204,0.5249 1.80005,0.9 -0.29873,0.8325 2.75672,1.0664 1.20003,2.1001 -0.96175,0.9806 0.58579,3.0507 -1.20003,2.7 -0.20626,0.7391 -0.4494,2.5541 -0.90002,2.7 -1.02323,0.6254 0.40454,2.5756 0,3.0001 -1.37419,0.6709 -1.47466,2.2976 -2.10005,3 -1.85345,0.031 -2.03824,1.9992 -1.50004,3.6 -0.92381,1.4935 -2.95877,-0.2073 -3.90009,-0.6 -2.23332,-0.188 -3.11366,-0.3702 -3.9001,1.2001 -0.42065,1.3868 -1.84411,2.26 -2.10005,3.9 -1.82938,1.0099 -2.15911,-1.2152 -3.60008,-1.5 -1.2726,-0.8225 -3.50703,-1.2997 -4.80012,-1.8 -1.33028,0.49 -3.56701,0.6127 -5.40012,0.6 -1.47698,0.7611 -3.6425,-0.041 -5.10013,-0.3 -1.88307,-0.7831 -3.48268,0.1381 -5.10012,0.6 -0.7376,0.9501 -2.23205,0.5547 -3.90009,1.5 -1.48289,-0.1554 -3.55013,0.679 -4.50012,0.6 1.11564,-0.7762 2.45452,-2.3412 4.50012,-2.7 1.47799,-0.3519 4.06569,-1.3938 0.90003,-0.6 -1.0395,-0.5136 -3.21832,1.0574 -4.20011,1.5 -1.43581,0.7482 -2.73887,1.9988 -3.60009,3.6 -1.16455,1.0869 0.38999,4.1226 -1.80005,4.2001 -0.37671,-1.0988 -1.27746,1.3771 -3.30007,0.6 -2.06751,-0.2661 -4.69561,1.6485 -2.10005,-0.6 1.12816,-0.8751 -1.4768,0.3925 -2.10005,0.9 -1.26803,-0.19 1.70832,-2.974 2.40005,-3.3001 1.30125,-0.042 2.57646,0.1219 4.80012,0 0.35552,-0.4086 -3.26091,0.4971 -4.2001,-0.3 3.03578,-0.4133 -0.30798,-0.7008 -1.20003,0.6001 -1.18164,0.081 -2.19803,2.3213 -3.00007,1.8 -0.56543,0.1983 0.19875,-3.1021 0.90002,-3.6001 1.17487,-2.6036 -1.32727,0.8353 -1.20003,2.4001 -1.0447,0.8553 -0.41934,3.3807 -2.40006,3.3 0.0929,-1.58 -2.29385,0.1404 -2.40005,-1.5 -0.51591,0.5994 -1.23178,1.2835 -1.20004,2.4"
         id="path3798"
         sodipodi:nodetypes="cccccccccccccccccccccccccccccccccccccccccccccccccccccccccccccccccccccccccccccccccccccccccccccccccccccccccccccccccccccccccccccccccccccccccccccccccccccccccccccccccccccccccc" />
      <path
         inkscape:connector-curvature="0"
         style="fill:#c8ffc8;fill-opacity:1;stroke:#000000;stroke-width:0.90000004000000000;stroke-linecap:round;stroke-linejoin:round;stroke-miterlimit:9.99670124000000020;stroke-opacity:1;stroke-dasharray:none"
         d="m 481.82662,847.62848 c -1.28012,0.1154 0.3221,1.5704 0.0937,0 l -0.0937,0 z m -19.09375,0.9063 c -0.51597,0.458 -0.61197,1.3558 -0.3125,1.125 1.03988,-0.5069 0.2015,-0.5925 0.3125,-1.125 z m 8.25,0 c -0.73459,0.1762 0.64109,1.4099 0.4375,0 -0.2027,-0.029 -0.33256,-0.025 -0.4375,0 z m -3.75,0.9062 c -0.20071,0.7937 0.95749,-0.09 0,0 z m -8.09375,0.5938 c -0.85801,0.1044 -0.7339,1.1687 -1.21875,1.5937 -0.38799,0.9355 -0.78803,1.3387 -1.1875,2 -0.67507,0.2529 -0.97485,0.9097 -1.21875,1.5938 -0.28449,0.6875 -0.73819,1.196 -1.5,1.4062 -1.02693,-0.099 -1.772,0.05 -2.375,0.375 -0.37797,0.4698 -0.83282,0.882 -1.09375,1.4688 -0.004,-0.01 -0.0167,-0.01 -0.0312,0 -0.17449,0.062 -1.00117,0.9512 -1.125,1.3125 -0.48985,0.5882 -0.96982,1.4163 -1.65625,1.9375 -0.25216,0.588 -1.0085,1.4414 -0.8125,2.0937 0.0559,0.2347 -0.37811,1.303 -0.0937,1.8125 0.31751,1.1499 0.26688,-0.2262 0.3125,1.2813 0.0318,1.0815 -0.54763,1.7945 -0.625,2.625 -0.5135,1.0893 -1.38563,0.853 -1.875,1.7812 -1.06195,-0.085 -1.78494,0.4558 -2,0.625 -1.23228,-0.6801 0.86584,-0.9393 -0.40625,-0.9062 -0.9733,0.4156 -0.60005,0.732 -1.71875,0.5937 -0.50801,-0.1337 -0.70954,0.6512 -1.5625,0.9063 -0.85915,0.031 -1.48511,0.7368 -2.3125,0.9062 0.21769,1.0563 -0.7365,1.4503 -1.21875,1.875 -0.51839,0 -0.14784,0.3984 -0.90625,0.2188 0.14781,1.0758 -1.73587,0.086 -1.78125,0.9687 -0.3647,0.5793 -0.60271,1.5198 -1.8125,1.4375 0.27136,0.5472 0.51265,1.5412 1.5,1.0938 -0.23609,-0.5251 0.99016,-0.6615 1.21875,-0.2188 -1.31479,-0.1464 0.2835,1.0205 0.1875,1.2188 -0.3754,0.6912 -1.12883,1.0334 -0.1875,1.5 0.46704,-0.8461 1.6844,0.7538 0.59375,0.9687 -0.9596,0.8093 1.42467,0.4348 0.59375,1.4375 -0.0508,0.6561 -0.009,1.0158 0.3125,1.7813 0.0818,1.2619 1.06235,0.5617 2.09375,0.5937 0.68276,-0.054 1.38371,1.1346 0.59375,1.5938 -0.14662,1.1187 0.70275,1.2314 1.5,1.4062 0.12075,0.9418 -1.59663,1.2553 -0.21875,1.5 0.57928,0.3647 1.4885,0.6027 1.40625,1.8125 -0.76944,0.3618 -0.14328,1.7872 0.40625,1.8125 0.61124,0.628 0.43774,0.4396 0.8125,1.5 0.12063,0.1008 0.55183,1.1068 0,1.5625 -0.20816,1.1802 1.01794,0.9475 1.5,1.4375 0.19904,-1.1389 1.2925,-0.1105 1.28125,0.5938 0.36102,0.8426 1.32888,-0.943 1.40625,-0.3125 0.43463,-0.7118 2.13693,0.1566 1.125,0 -0.71227,0.291 -0.58048,1.4386 -0.25,1.5 -0.004,0.1551 0.49991,1.3239 0.625,1 -0.16036,0.1296 0.92363,0.4147 0.90625,0.2187 1.3395,-0.5209 0.63821,1.4156 1.5,1.0938 0.628,-0.6499 0.4396,1.3653 1.5,1 0.48758,-0.5075 -0.0734,0.6595 0.6875,0.9062 1.19844,0.4577 -0.58359,0.8589 0.21875,1.5 0.61818,0.3885 0.58117,0.2076 0.96875,1.1875 0.54099,-0.1818 0.23619,0.9837 0.8125,1.5 0.77122,-0.1567 1.36253,-0.4907 1.59375,-1.1875 -0.0275,0.099 0.91846,-0.6084 1.40625,-0.9062 0.51938,-0.9305 1.58049,-0.6618 2.125,-1.2188 1.15841,0.1341 1.03409,-0.5802 2.09375,-0.875 0.99279,0.103 1.40634,-1.6429 1.78125,-2.125 0.52411,0.1049 0.0501,2.4682 0.6875,1.5 1.10317,-0.1311 1.95938,0.01 2.03125,0.9063 -0.0189,0.9468 0.76452,1.0887 1.5625,1.2187 0.86477,0.305 0.93787,-0.1892 1.4375,-0.3125 0.80344,-0.1245 0.90389,-0.9493 1.875,-0.9062 1.11596,-0.2963 1.83843,-0.5446 2.625,-0.2813 1.133,0.3145 0.11978,-1.9653 1.5,-1.125 0.27599,1.1211 1.48315,-1.0025 2.40625,-1 0.54239,-0.8736 1.04334,1.1853 2.15625,0.625 0.77697,-0.4178 1.32725,-0.1074 1.4375,0.875 -0.82686,-0.01 -0.91146,1.736 0.375,1.1875 1.15099,-1.0055 1.72945,0.7464 2.09375,0.031 0.39619,-0.3902 2.29,-0.1344 2.3125,0.5938 0.29624,0.989 0.74281,0.637 1.8125,0.6875 0.0232,0.04 1.15954,-0.9812 1.5,-1.5938 0.13138,-1.2573 -0.32407,-1.3979 0.0937,-2.0937 0.34424,-0.4951 2.2985,-0.5771 2.3125,0.5937 0.86323,0.5053 1.55146,0.8649 2.09375,-0.062 0.18096,-0.5846 1.25039,-1.3853 0.59375,-2.0312 0.33026,-0.5977 0.57894,-1.3056 1,-1.8125 0.51734,-0.3413 -0.7293,-1.6655 0.5,-1.7813 0.35019,-1.2781 -0.59055,-1.2627 -0.90625,-1.875 -0.38145,-0.8118 -1.23742,-0.5543 -1,-1.6562 -0.52678,-1.3156 -1.73361,-0.7471 -2.4375,-1.7188 -0.78143,-0.7781 -0.32164,-2.1966 0.53125,-2.25 1.01642,-0.05 1.441,-0.7838 0.53125,-1.2187 -0.77961,-1.0831 0.0221,-0.9135 0.59375,-1.875 0.53082,-0.055 2.25155,-1.2916 2.53125,-0.375 0.37894,0.8463 1.71059,0.7654 2.71875,0.75 1.15336,-0.6237 1.52273,-0.4757 1.9375,0.4062 0.70486,0.578 0.81112,0.9043 0.90625,0.8125 -0.11871,1.3541 0.63625,0.8853 0.59375,1.5938 0.255,1.009 -0.0234,0.5323 0.3125,1.0937 0.30061,0.6805 -0.20274,0.4481 0.59375,1 0.38482,0.1751 0.66061,0.404 1.1875,0.5 -0.006,0.032 1.18,1.1304 0.84375,0.3125 -0.18806,-0.4334 -0.27661,-0.9934 0.65625,-1.2187 0.46767,-0.4997 1.98312,-0.2552 1.96875,-1.3438 0.49716,-0.3693 1.22462,-2.0069 1.65625,-1.3437 1.3534,-0.4812 1.23855,-1.1867 1.78125,-1.875 0.35272,-0.8402 2.11032,-0.1601 1.8125,-1.4375 -0.0219,-0.01 0.55191,-0.7609 0.96875,-1.1875 0.26302,-0.709 0.67061,-1.2636 0.8125,-2.0938 0.34239,-0.6059 1.44025,-0.82 1.375,-0.75 0.27701,-0.1981 0.99174,-0.8622 1.34375,-1.3437 0.10674,0.1229 0.84319,-0.5009 0.96875,-1.2188 -0.19025,-0.02 0.91382,-1.1391 -0.0625,-0.5937 -0.23891,-1.0458 -1.30005,-0.1828 -0.90625,-0.5 0.0829,-0.061 -1.07261,-0.7323 -1.5,-1 -0.20238,-0.731 -1.17656,-0.8851 -0.90625,-1.2813 -0.86091,-0.4739 0.9056,-1.5943 -0.3125,-0.8125 0.0205,-1.0015 0.74309,-0.9572 -0.28125,-1.2812 0.0121,0.027 0.41051,-0.8468 -0.59375,-0.5313 -0.23727,-0.8939 -0.83775,-1.0926 -0.90625,-0.5 -0.40106,0.5775 -2.13824,-0.2878 -0.90625,-0.4062 0.15881,-0.5287 0.55429,-0.502 -0.3125,-0.6563 -0.0348,-0.8236 -1.3239,0.3252 -1.5,-0.8437 -1.24852,0.1569 -0.72685,-1.1149 -1.1875,-1.0938 0.10181,-0.4586 -0.61737,-1.0844 -0.59375,-1.2812 -0.30011,-0.4591 -0.34895,0.022 -0.84375,-0.4688 -0.11622,0.061 -0.70234,0.1475 -1.25,0.4688 -0.0682,-1.524 -0.61861,0.9249 -0.84375,0 0.74004,-0.045 -0.6444,-0.5992 -0.0625,-0.9063 -0.12925,-0.1899 -0.51124,-1.0702 -1.5,-1 0.12956,0.076 -0.73509,-0.2654 -0.96875,-0.3125 -0.004,-0.01 -0.0268,0 -0.0312,0 -0.26536,-0.2602 -0.93529,0.2342 -0.8125,0.031 0.0374,-0.3966 -1.06197,-0.1578 -1.78125,-0.5312 -1.06318,-0.2508 -0.63,0.1418 -0.625,-0.9688 -0.11228,-0.6233 -0.67553,0.038 -1.125,-0.4375 -0.14616,0.1753 -1.38191,0.4236 -0.8125,0.062 -0.42954,0.066 -0.56446,-0.287 -0.75,0.1563 0.007,-0.3421 -0.48912,-0.3073 -0.90625,-0.5313 0.70063,0.5743 -1.75721,-0.2303 -1.5,0.8125 -1.20036,0.2724 -1.0355,-0.7865 -1.875,-0.875 -0.22776,-0.389 -1.108,-1.6024 -1.125,-1.2187 -0.12232,-0.7896 -0.74938,-2.0119 -0.6875,-1.7813 -1.04655,-0.6095 -0.20082,-0.074 -0.8125,-0.9062 -0.13441,0.1421 -0.17066,0.2123 -0.1875,0.25 -0.0151,-0.035 -0.0961,-0.076 -0.40625,-0.031 0.29756,-0.1712 -0.91795,-0.609 -1.5,-0.8125 -0.1793,-0.7487 -0.84906,-1.0355 -1,-1.8125 -0.66659,-0.9895 0.50529,-0.7493 -0.1875,-1.5 0.0683,-0.057 -1.10445,-0.448 -0.90625,-0.6875 -0.12659,-1.5635 -0.12601,0.1822 -0.59375,-1.125 -0.48759,-0.9063 0.0734,0.1642 -0.6875,-0.875 -0.18571,-0.2351 -0.98118,-0.3816 -0.21875,-0.9063 -0.70485,-0.952 -0.63465,1.2643 -1.8125,0.5 -0.61021,-0.094 -0.20947,-0.4599 -0.90625,-0.2187 -0.58144,-0.3466 -0.72905,-1.1242 -1.5,-1.2813 -0.12153,0.1603 -0.30494,-0.1 -1.1875,0.094 0.0586,0.042 0.0825,0.078 0.0937,0.094 -0.14343,-0.018 -0.81749,-0.2782 -0.6875,0.125 -0.009,-0.2817 -0.59333,-0.3315 -0.90625,-0.8125 -0.22471,0.2829 0.14591,-0.4967 -0.6875,0 -1.39765,0.387 -0.16712,0 -0.8125,-0.3125 -0.19611,-0.1335 0.0103,0.3211 -0.90625,0.6875 -0.1731,0.1007 -1.17848,0.6508 -1.5,0.2188 -0.14275,-0.7653 -0.69435,0.7272 -0.96875,-0.5938 -0.89076,-0.2644 -0.40895,-0.246 -1.125,0.5938 -0.29824,-1.0212 -0.47888,-0.2177 -0.0937,-0.9063 -0.594,0.4167 -0.029,0.1022 -1.09375,0 -0.3365,0.278 -0.94102,-0.069 -0.6875,-0.2812 -0.44362,0.1383 -0.3943,0.3871 -0.8125,0 -1.07668,0.239 -0.30234,0.5245 -1.3125,0.875 -0.4285,-0.5155 -1.61333,-0.4466 -2,-1.1875 -0.24833,-0.1919 -0.2469,-1.0119 -1,-0.3125 -0.44065,0.2293 -0.28251,0.6871 -1.09375,0 -0.70112,0.3201 -1.62645,0.2421 -2.5625,0.4687 -0.27825,0.4901 -0.75286,0.397 -1.03125,0.125 -0.23556,-0.2301 -0.31218,-0.5858 0,-0.875 z m 47.75,18.4375 c 0.0387,-0.02 0.0266,-0.033 -0.0625,-0.062 0.0284,0.031 0.0367,0.037 0.0625,0.062 z"
         id="path6572" />
      <path
         inkscape:connector-curvature="0"
         style="fill:#c8ffc8;fill-opacity:1;stroke:#000000;stroke-width:0.90000004000000000;stroke-linecap:round;stroke-linejoin:round;stroke-miterlimit:9.99670124000000020;stroke-opacity:1;stroke-dasharray:none"
         d="m 398.24238,894.22408 c -1.1808,0.2551 -1.3788,1.82874 -2.40625,2.09375 -1.25043,0.072 -2.32879,0.47789 -3.03125,1.84375 -1.03136,1.28936 -1.85526,1.84109 -2.65625,3.25 -0.7592,0.45946 -2.15631,2.22364 -2.71875,3 -0.90606,1.4566 -1.58788,1.764 -3.28125,1.8125 -0.89771,1.43556 -2.93948,0.85174 -3.90625,1.1875 -1.80309,0.3806 -1.41985,2.4875 -3.59375,2.09375 -0.35406,0.25795 -1.86508,1.34485 -2.09375,3 -1.84556,0.97417 1.87656,2.66976 -0.65625,3.0625 -0.7711,1.23883 -2.35564,1.40323 -3.5625,2.34375 -0.35569,2.08144 2.48094,1.79335 2.09375,3 -0.30895,1.68594 -0.0143,2.36136 0.625,3.3125 0.84151,0.17133 0.35059,0.78413 0.59375,2.6875 1.6303,0.77493 1.1835,1.54319 0.59375,2.71875 1.17278,1.0675 2.23543,1.50175 2.6875,3 1.02676,2.03641 2.60121,-2.11485 3,-0.3125 0.034,1.05126 -0.50421,2.19772 -0.875,2.6875 -1.63757,0.26246 -1.6686,2.15013 -3,2.71875 -0.33637,1.06008 -1.84126,1.99254 -2.71875,3 -1.1108,1.29163 -1.3784,1.35319 -1.78125,3.28125 -1.66709,0.23295 -2.51038,1.30834 -3,2.71875 -1.07243,0.38519 -0.57636,2.38915 -1.21875,3.90625 1.39285,0.61146 1.55549,0.7555 0.84375,2.75 0.44581,2.42044 -1.45446,1.51448 -3.25,2.03125 -1.31586,0.72936 -3.5575,-0.8204 -3.28125,1.8125 0.11301,0.7514 0.21155,2.24014 1.1875,3.28125 1.04689,0.91134 1.37841,2.57025 1.8125,3.90625 1.06838,1.41609 1.06273,2.47386 2.40625,3.3125 -1.32429,0.66602 -1.23315,1.80464 -2.125,3 -0.0148,1.71945 0.70526,3.24134 0.90625,4.78125 -0.67653,0.95871 2.13471,2.4515 0.59375,3.3125 -2.06745,-0.32762 -2.18845,1.76854 -2.9375,3.0625 0.58853,1.37621 -0.67401,2.29075 -1.5625,3.84375 1.52803,0.77602 0.69109,2.83142 -0.0312,3.93752 -0.68726,1.9312 -1.07968,2.4296 -1.46875,3.8437 -0.67839,1.4973 -1.22171,2.8154 -0.59375,4.5 2.2231,-0.2829 1.26026,1.3132 2.46875,2.4688 1.03679,1.0104 0.7507,1.7518 1.5,3 0.40151,1.6799 2.355,-0.3721 2.34375,1.1562 0.55368,0.3129 1.65337,-0.041 3,0.2813 0.61015,0.2735 2.76316,-1.3092 3.59375,-0.9063 1.96168,0.4196 1.69236,-2.5117 3.59375,-0.875 1.86942,0.2638 1.02376,2.3189 3,0.2813 1.72094,1.1642 2.8368,-1.1125 3.90625,-0.5938 1.42933,2.264 1.17511,-1.5476 2.09375,-2.0937 1.78605,0.2922 1.32731,-2.4097 2.09375,-3.5938 1.64864,-0.3423 -0.1503,-2.7276 0,-3.3125 -0.0105,-1.8339 -1.07699,-2.5284 -1.84375,-3.6562 -1.30277,-0.3876 -1.19888,-1.881 -1.15625,-2.9375 0.94789,-1.71541 0.0907,-3.50232 0.90625,-4.81252 2.31771,0.8432 2.50867,-1.51 4.21875,-1.5 -0.793,-2.33665 2.33718,-2.05121 1.78125,-4.1875 1.43861,-0.15431 1.95708,2.13747 3,2.6875 1.2303,0.60684 2.92787,-1.32504 2.875,-2.375 0.0725,-1.88357 2.9113,-1.32948 3.71875,-3.03125 0.32171,-1.50373 0.10486,-3.25679 2.09375,-4.0625 1.68207,0.0686 2.67446,-2.10584 3.90625,-2.8125 0.80617,-2.0324 1.65626,0.74805 2.71875,1.5 1.334,0.52596 1.09105,2.59128 3.28125,2.375 1.61396,-0.14996 2.76064,1.96746 3.625,0.90625 1.26086,-0.73011 2.55093,-1.15239 3,-0.90625 -0.0436,0.14826 0.7314,-2.03091 0.59375,-2.6875 0.98365,-1.35792 0.45626,-2.83594 0.90625,-3.59375 0.004,-1.44751 1.21174,-3.412 2.375,-2.09375 0.9397,1.63321 0.10871,1.7471 0.625,2.6875 -0.76591,0.96795 0.59857,3.6679 1.5,3 1.9993,-0.42258 0.96011,-1.96042 3.59375,-0.90625 0.97223,-1.33279 1.00711,-3.04064 1.5,-4.5 1.60677,-1.0419 2.10734,1.61035 4.1875,0.90625 1.33521,0.74139 4.02514,-1.19544 4.8125,0.59375 1.05262,0.986 2.97075,0.90115 4.1875,1.5 1.78897,-1.28101 2.39983,1.39212 4.21875,1.5 1.36854,-0.6444 2.31246,-0.0909 3,-2.09375 2.0797,0.50631 2.92125,-1.39079 4.1875,-0.3125 1.64691,1.13594 2.77481,-0.81073 3.3125,-1.78125 1.1752,-1.93832 1.75196,0.41928 3.59375,0.28125 0.7802,-0.9965 3.40964,-1.79001 3.90625,-0.28125 -0.16829,1.02771 0.98857,0.84003 2.375,1.5 0.8663,1.65058 2.21245,0.0273 3,-0.90625 0.60624,-0.28934 2.63934,-0.69665 3.625,-1.5 1.59916,-1.67645 1.29471,0.71943 3,0.3125 0.68655,-0.86315 2.29956,-3.1118 0.28125,-1.8125 -1.41225,1.0377 -2.54066,-2.06917 -0.90625,-1.8125 0.91657,-0.9835 2.84619,-0.94125 4.8125,-0.875 1.13143,-1.61981 -1.96479,-2.82952 -0.28125,-3.625 1.11215,-0.2585 2.79336,-1.95554 3.875,-1.1875 0.78647,0.38674 3.13181,-1.45244 3.3125,0.90625 1.40089,0.38371 2.35976,-0.75864 3.3125,-0.59375 -0.51156,-1.74608 -0.76849,-3.12771 0.59375,-3.90625 2.39497,-0.33516 -0.32545,-1.85498 -0.59375,-2.71875 0.91375,-1.78866 -0.87909,-2.31174 -2.125,-3 -1.39006,-0.26329 -3.43536,-1.12587 -4.5,0 -2.24279,0.90199 -2.08691,-0.87 -3,-0.875 -0.63372,-0.0813 -1.7628,-1.51609 -0.28125,-2.40625 0.87129,-0.84893 1.42709,-2.44238 3,-2.71875 2.21589,-0.62526 0.76739,-0.75099 -0.59375,-2.09375 -1.19609,-0.71789 -2.39908,-1.67113 -4.21875,-1.78125 -1.0605,-0.70745 -1.60009,-2.38504 -2.6875,-3 -2.09406,-0.11426 0.50564,-0.47114 0.875,-1.21875 0.17799,-0.44044 0.66636,-0.68516 1.21875,-1.5 0.79311,-1.61199 0.44276,-1.87155 -0.3125,-3.59375 0.0334,-1.33497 -1.10583,-1.61322 0,-2.6875 1.4777,1.42454 1.87616,-0.91886 2.71875,-1.8125 1.45673,-0.92036 0.77926,-1.62934 2.21875,-3.28125 0.41147,-1.71634 -2.27365,-2.16625 -2.4375,-3.9375 -0.7971,-1.8574 -2.5939,-1.851 -4.28125,-1.9375 -2.71815,-0.79278 0.42898,-3.3345 -0.90625,-3.4375 -1.38029,-0.16645 -1.50875,-0.35378 -1.5,-2.40625 -0.0539,-1.50801 -1.6252,-2.55681 -2.09375,-0.59375 -1.38307,-0.4234 -3.37109,0.41638 -4.5,0.90625 -0.62599,0.95306 -1.88346,0.81575 -3.3125,0 0.58735,-2.88212 -3.33653,0.0479 -2.40625,-2.71875 -0.54496,-0.24658 -1.7216,2.38775 -3,2.40625 -1.30017,0.53896 -3.22831,0.68425 -3.90625,2.09375 -0.97499,-0.21326 -1.72933,2.60139 -3,0.90625 -0.7234,-1.7886 -2.28752,-1.55229 -3.28125,-0.59375 -0.26906,1.51715 -0.38124,3.07388 -1.8125,3.90625 -1.35679,-1.4244 -2.4804,-0.55734 -3.28125,0.59375 -2.20625,0.17339 -1.00271,2.87561 -2.71875,2.40625 -2.31233,0.26781 -0.38746,-3.40913 -1.5,-3.625 -0.31005,-1.55286 -0.96316,-3.43184 -2.09375,-1.78125 -1.20873,1.40344 -1.21792,-1.79206 -1.8125,-3 -0.32962,-1.23346 -1.68673,-0.62521 -2.375,-1.5 -0.63979,-1.745 -0.34518,-2.64112 -1.8125,-0.90625 -1.14865,0.8312 -3.406,0.78411 -3.3125,-1.1875 0.20246,-0.67625 0.73979,-2.38612 -0.875,-3 -0.71959,-1.43118 -3.7977,-0.20904 -2.125,-2.40625 1.08078,-0.66238 0.13409,-2.85802 -0.875,-1.8125 -1.7943,0.72816 -2.21989,-0.66483 -3,0.90625 -1.05884,0.27509 -2.3663,2.70327 -3,1.5 -1.28739,1.4118 -1.79012,1.00991 -3,2.09375 -1.41537,0.85332 -1.13355,1.8506 -1.8125,2.71875 -0.27284,0.99169 -0.94039,1.61086 -1.8125,2.6875 -1.52213,-0.22101 -2.06104,0.10576 -3,-0.3125 0.0904,-1.85035 -2.45664,-1.61841 -0.875,-3.59375 -0.40686,-2.34968 -1.97314,-0.31029 -2.40625,-1.5 -0.88494,-1.39186 -1.79467,-1.32125 -3,-0.28125 -0.95445,0.0589 -2.30523,-1.03075 -3.3125,-1.8125 -0.81424,-1.0858 -0.94709,-2.84037 -2.09375,-3.59375 z"
         id="path6588" />
      <path
         inkscape:connector-curvature="0"
         style="fill:#c8ffc8;fill-opacity:1;stroke:#000000;stroke-width:0.90000004000000000;stroke-linecap:round;stroke-linejoin:round;stroke-miterlimit:9.99670124000000020;stroke-opacity:1;stroke-dasharray:none"
         d="m 518.58749,878.95537 c -1.09582,0.2635 0.0222,0.8083 -0.90625,1.1875 -0.29225,0.75362 -2.07825,1.86827 -2.09375,2.09375 -1.80623,0.0937 -1.36109,2.45762 -2.40625,3.3125 -0.0717,0.98684 -2.32058,1.53545 -2.6875,2.6875 -1.35038,1.26432 -2.85026,1.37539 -3.625,3.3125 -1.96818,0.36906 -2.7644,1.52845 -2.09375,2.09375 -1.41252,-0.85747 -1.33636,-0.61525 -2.6875,-1.5 0.26816,-0.51014 -0.48277,-1.21294 -0.3125,-2.09375 -0.98205,-1.4782 -0.70648,-1.02186 -1.78125,-2.71875 -1.03936,0.0885 -4.20353,0.92214 -4.8125,-0.875 -1.74046,0.61392 -4.04264,1.59244 -2.40625,3 0.81078,0.88079 -3.55538,1.26745 -1.0625,3.34375 2.03711,0.76091 2.39645,2.28038 3.15625,3.53125 1.9096,0.45351 -0.0803,2.62038 0.3125,3.625 -1.29011,0.91168 -0.2598,2.83875 -1.8125,3.59375 -0.8665,1.92036 -3.14024,-2.7109 -4.1875,-0.3125 0.3799,0.7238 -0.75791,3.91446 -1.8125,3.3125 -1.47426,0.81071 -2.20716,-2.83557 -3.875,-0.90625 -1.00035,-0.98491 -4.31184,0.32314 -2.40625,-2.09375 -0.93242,-0.11388 -3.0906,-1.35976 -4.21875,-0.59375 -2.42372,0.33947 -0.17242,4.40491 -0.875,3.875 0.56181,1.81649 2.63641,0.21708 1.4375,2.40625 -1.37815,2.9649 3.98621,1.12542 4.84375,3.3125 0.33171,2.20339 4.154,3.11661 2.40625,5.40625 -0.97588,1.06936 -0.87469,1.86239 -2.09375,3 -0.75088,1.75091 -1.5458,1.48113 -3,1.5 0.49924,1.32725 0.14983,1.26159 0.90625,3 1.05638,1.56628 -0.0364,2.04214 0,3.28125 -1.63196,0.87731 -0.15953,0.76616 -1.8125,1.5 -0.35549,0.51126 -2.28531,0.94544 0.3125,1.21875 0.94054,1.34605 1.45514,3.15391 3.875,3 1.39722,0.84921 3.18255,2.05012 4.21875,3 0.72573,-0.0201 -2.96843,0.80191 -3.3125,2.09375 -0.60342,1.31378 -2.75464,2.21722 -0.90625,3.59375 1.12878,-0.49609 0.65105,1.80114 3,0.90625 1.1826,-0.86514 3.17568,-0.55375 4.5,0 1.6879,0.50871 3.22775,1.2359 2.40625,3.28125 1.46078,0.89049 2.0999,2.14413 0.3125,3 -2.04825,0.0751 0.66261,3.207 -0.90625,3.625 -0.49594,-0.73609 -2.5735,1.66271 -3.3125,-0.625 -1.04178,-0.6155 -2.74563,0.15107 -3.875,0 -1.1302,0.65081 -3.86369,0.93196 -3,2.40625 2.00461,1.69035 -0.17256,2.9991 -2.40625,2.40625 -1.15488,0.79576 -3.36415,0.68634 -2.40625,2.40625 l -0.65625,1.3125 c -0.68136,0.0437 -1.1047,1.10772 -2.65625,1.09375 -1.5806,0.95031 -2.27929,0.58089 -3.28125,2.09375 -0.96516,1.27794 -2.52638,-1.01625 -3.3125,-0.90625 -1.6213,0.14366 -0.29813,-1.90188 -2.6875,-1.8125 -1.50245,0.84372 -3.23515,1.81999 -4.21875,0.3125 -1.19635,-0.68538 -1.96004,1.6255 -2.6875,2.40625 -1.67744,1.35069 -3.13356,-1.59085 -4.1875,0.28125 -2.42034,-0.77519 -2.9087,2.04089 -3.90625,1.81249 -1.91252,1.4618 -3.3632,-2.19934 -4.8125,-1.18749 -1.57299,-0.41424 -3.41733,-0.33266 -4.5,-1.5 -0.86907,-1.54882 -3.49982,-0.12005 -4.78125,-0.625 -2.26764,0.76621 -2.82946,-1.83561 -4.5,-0.875 -0.74497,1.40666 -0.17959,4.90559 -2.71875,4.49999 -1.21834,-1.55855 -1.58292,2.2995 -3.28125,0.875 -0.86527,-1.0128 -0.80212,-3.38047 -0.90625,-3.59374 0.51198,-0.3307 0.0836,-2.04015 -1.21875,-2.6875 -1.53208,0.6253 -1.36444,3.05305 -1.78125,3.59375 0.41123,1.08249 -0.84095,3.07709 -0.59375,3.90629 -0.87042,2.1806 -0.28889,0.8133 -1.8125,1.7812 -1.09947,-0.483 -2.45164,2.1775 -3.90625,0 -2.43946,0.3116 -3.41214,-1.2626 -4.5,-2.375 -1.09809,-0.5881 -2.36594,-4.23058 -3,-1.5 -2.01874,1.5164 -3.69485,2.659 -5.6875,3.875 0.73596,2.4906 -1.36915,3.9826 -3.59375,4.8125 -0.30716,1.2326 -1.80505,4.409 -3.3125,3 -1.46911,-1.0892 -3.04782,-4.0418 -3.375,-0.5937 -1.9247,1.1111 -1.63542,3.1019 -3.8125,3.9062 -2.92799,-0.6076 -1.83955,1.8308 -2.40625,3.5938 -0.29634,1.8689 -0.7492,3.3809 0.59375,3.9062 1.02809,1.3124 2.00187,1.9164 2.09375,3.875 0.29495,0.4376 0.40346,4.18606 2.09375,2.12496 1.93945,0.7832 0.40754,2.5371 2.71875,3.2813 1.15476,-0.3102 2.94439,-1.3622 4.1875,0 0.72285,0.5705 4.44957,0.4844 1.21875,2.40618 -0.31346,2.1418 -2.36064,1.9103 -3.625,3.3125 -0.97763,1.3814 -2.32729,1.779 -3,3.5938 -0.4279,1.2895 -1.75847,2.9953 -0.53125,4.625 -0.68962,1.408 -1.1805,2.2801 -1.25,4.6562 -1.41426,1.0346 1.31951,2.6291 3,2.4063 1.523,-0.6353 1.95212,-2.407 3.90625,-3 -1.2533,-1.9084 2.04575,-1.4731 2.6875,-2.6875 1.82983,1.2756 2.30576,-2.9185 3.59375,-1.8125 1.21461,1.1463 1.83715,2.6051 3.3125,2.4062 1.75569,0.4604 1.30734,2.7265 2.40625,3.9063 0.81167,1.2801 2.44018,-1.1731 3.875,-1.5 1.59357,-1.2985 3.24231,-0.3532 4.5,0 -0.35785,2.9718 2.32854,0.099 1.8125,3.2812 -1.00851,2.2355 1.78112,2.8381 1.8125,4.5 -0.58996,2.8144 2.67872,0.788 2.375,3 0.5545,1.3681 2.14374,2.9815 2.40625,3.9063 -1.10446,1.3239 -1.19656,3.0143 0,4.2187 0.6476,2.3146 2.24335,-0.2911 3.59375,-0.625 1.87731,0.7306 0.72298,4.3425 3.625,2.4063 -0.072,-2.0328 2.65714,-2.7425 3.59375,-3.9063 0.18566,-1.756 3.48262,-0.017 3.59375,0 0.7458,0.3288 0.62185,0.7885 2.09375,1.2188 1.16742,2.4176 1.77118,-2.5476 3.90625,-0.3125 0.65496,1.4974 1.02261,2.5465 1.8125,4.2187 -1.79327,0.9953 -3.52096,1.8764 -4.21875,4.1875 -1.26605,1.4673 -1.19223,3.9843 1.5,2.6875 1.87047,0.5632 2.47139,0.5269 4.5,-0.2812 0.92264,1.1112 1.38951,4.209 -0.59375,4.7812 -2.34037,1.3827 -1.29526,3.417 -3,5.4063 0.62431,0.9276 -2.62317,4.343 -0.59375,5.7187 -0.18075,1.7956 -0.99089,5.1096 0.90625,5.6875 -0.46276,1.1342 2.68176,0.8096 3.28125,2.0938 0.33584,0.4682 1.19759,2.7453 0.90625,4.8125 -0.41949,2.6152 1.98006,1.9931 1.8125,0.9062 1.32556,-1.0714 0.40014,-2.1075 1.5,-1.8125 2.43166,-0.5101 -0.50266,-2.6666 0.875,-3.3125 0.9479,-1.9724 1.78406,0.2417 3.625,-0.5937 1.37781,-0.8092 2.74716,-0.7545 3,-2.0938 1.45468,-0.8138 2.06978,-1.1442 3.28125,-2.0937 1.73566,-0.6291 1.69123,-1.1952 3,-2.0938 -0.1912,-0.7021 2.24224,-1.3745 3.3125,-1.8125 1.83546,0.029 1.46885,-2.6806 2.6875,-3.3125 0.33972,-1.4758 1.50079,-2.0235 0.90625,-3.5937 1.5017,-1.5196 1.31041,-4.7049 3,-4.5 1.4639,0.9009 4.95276,-0.3856 3.59375,-1.5 0.47344,-1.8214 0.3716,-2.8858 0.90625,-4.1875 1.26715,-0.757 3.39331,0.1919 1.1875,-0.9063 -0.77385,-0.3772 -4.50512,-2.5874 -2.6875,-2.6875 1.3377,-0.1091 2.23499,-0.9633 2.40625,-2.7187 0.78868,-1.1114 1.68581,-2.1017 2.40625,-3.2813 1.4564,-0.3106 2.62306,-1.6398 3.875,-2.4062 0.65801,-0.8216 1.55917,-2.2107 2.40625,-3.3125 -0.28536,-2.2922 0.97446,-0.975 3,-2.4063 2.12461,-0.2849 2.7659,-0.9782 3.59375,-2.6875 1.33956,-0.6812 1.47606,-2.8312 2.40625,-4.1875 1.25899,-1.231 2.83351,-1.0075 4.5,-0.9062 1.04675,-1.4714 3.34601,-0.9188 4.21875,-0.9063 1.5132,-0.8986 4.30766,0.2609 3.875,2.4063 2.46943,0.5614 3.20745,-1.5073 4.5,-2.4063 1.12324,-0.7768 2.41779,-1.4009 3.625,-2.0937 -0.55406,-0.8582 -0.86893,-1.8328 0.59375,-3 0.50199,-0.8815 -0.0765,-3.8625 -1.21875,-4.5 1.62273,-0.073 1.04073,-3.5115 2.125,-2.0938 2.5093,0.4836 2.16212,-0.5801 3.59375,-1.5 1.31449,-0.6536 1.52554,-2.2616 3.28125,-3 1.71146,-0.026 1.58655,-1.384 3.625,-1.2187 2.31396,-0.019 2.67624,1.5201 3.875,-0.2813 1.58856,-0.56168 2.95123,-1.57198 3.625,-2.71868 0.54083,-1.3998 0.62439,-3.38536 1.1875,-4.18746 0.42621,-1.0529 4.0964,-0.9517 1.8125,-2.0938 -1.11405,-0.9116 -3.9433,-0.2332 -4.21875,-1.8125 -0.37013,-1.4636 0.58539,-2.8283 -0.59375,-4.1875 -0.37529,-1.4601 -3.41034,-2.3421 -2.40625,-4.2187 0.2589,-0.9321 0.24746,-3.2402 -0.90625,-4.5 0.67999,-2.6227 -0.54832,-3.1387 -0.875,-5.4063 -1.88046,-0.2996 -2.17755,-1.8806 -3.3125,-2.6875 -0.85196,-0.9277 -2.0847,-2.32719 -3.3125,-3.31249 -0.79392,-1.5656 1.00826,-3.06754 0.3125,-4.1875 -0.45289,-1.1593 -1.29101,-3.19787 -2.6875,-2.6875 -1.07696,-1.99319 -0.76283,-2.02656 0,-3.90625 -1.53705,-0.60661 -2.62855,0.8568 -3.625,-0.90625 0.1651,-0.46025 1.10086,-2.43305 2.125,-3 1.64531,-0.90185 3.33659,-1.16014 4.5,0.3125 2.11014,0.38904 3.62511,-1.22355 4.78125,0 0.90351,1.98155 3.88362,-1.01784 1.21875,-1.21875 -2.11595,-0.9702 0.74515,-1.71881 1.1875,-3 1.0895,-0.70568 2.98589,-1.31109 1.5,-3 0.79316,-1.48284 1.81881,-1.84497 2.09375,-3.28125 1.83635,-0.0638 1.39154,-2.42718 2.71875,-3 0.66411,-1.18829 3.78061,-1.49887 1.5,-2.71875 -0.91395,-1.56477 -0.16139,-2.97154 2.09375,-2.6875 2.47251,0.10775 0.57238,-2.31409 1.5,-3.59375 1.03616,-1.89548 3.04745,1.36323 3.90625,-0.3125 -1.40528,-1.83289 2.3146,-1.84877 1.1875,-3.3125 -0.58546,-2.63784 1.96821,-1.85486 3,-2.375 -0.19482,-2.18974 -0.039,-2.17275 0,-4.8125 -1.3246,-1.9499 1.23355,-2.30036 1.8125,-3.3125 0.63066,-0.69718 1.97875,-1.03859 3.28125,-1.78125 1.51415,-0.7514 2.13604,-1.58662 1.5,-2.40625 -1.6738,-0.65839 -0.83351,-1.58646 -1.78125,-2.6875 -0.0691,-0.93516 -0.58038,-0.72794 -0.625,-2.125 -0.25551,-1.33889 -1.0685,-0.86794 -1.1875,-1.5 -0.6546,-0.19069 -0.37712,-0.0464 -0.3125,-0.875 0.19207,-0.4551 -1.06926,-1.72938 -0.59375,-2.125 -0.20314,-0.72568 -0.35681,-0.29792 -0.59375,-1.78125 0.55481,-1.43655 0.0295,-1.44031 0,-2.40625 -0.86515,-0.42358 -0.65199,-0.45618 -0.90625,-0.90625 -0.4871,0.37687 -0.0758,0.18578 -1.1875,0.3125 -0.0177,-0.89311 -0.54096,-1.0443 -1.5,-0.59375 -0.38168,0.33024 -0.94163,-1.40137 -1.5,-0.625 0.33845,-1.17695 -1.32789,-0.3393 -1.5,-1.5 0.21458,-0.67208 0.18713,-0.41176 -0.25,-0.5625 -0.003,-10e-4 0.003,-0.0301 0,-0.0312 -0.16936,-0.33271 -0.80094,-1.42847 -0.34375,-1.5 0.91501,-1.1691 -0.45879,-1.35964 -0.625,-1.5 0.31125,-1.15687 0.9901,-1.23014 0.3125,-2.40625 -0.2407,0.58395 -0.78516,-2.05666 -1.5,-1.1875 -0.46084,-1.22746 -0.45791,0.52863 -1.8125,0.59375 -0.58781,-0.59925 -0.56751,0.31518 -1.5,-0.59375 -2.14333,-0.40526 -0.53006,-0.34885 -1.5,-0.59375 -0.28801,0.20774 -1.92064,-1.18497 -2.34375,-0.9375 -0.0323,-0.24382 -0.94415,-1.63761 -1.84375,-1.46875 -0.27174,-1.15695 -0.76045,0.2542 -1.8125,-0.90625 -0.6347,0.32285 -2.77116,0.47773 -3.59375,1.8125 -0.88974,0.63346 -3.23116,-0.21977 -3.375,-0.125 -1.0863,-1.21993 -1.28919,-0.43228 -1.40625,-1.09375 -0.99386,0.37439 -2.03631,-0.61582 -2.71875,0 -0.79098,-0.36475 -1.11205,-0.47113 -3,-0.28125 -1.11353,-0.38624 0.0328,-1.36392 -1.1875,-1.5 -0.21774,0.43382 -0.79012,-1.1691 -0.90625,-0.3125 -0.4467,0.046 -1.01247,-1.12937 -1.1875,-1.1875 -0.36878,0.0161 -0.92062,0.42768 -0.90625,-0.59375 z"
         id="path6580" />
    </g>
  </g>
</svg>
