<?xml version="1.0" encoding="UTF-8" standalone="no"?>
<!-- Created with Inkscape (http://www.inkscape.org/) -->

<svg
   xmlns:dc="http://purl.org/dc/elements/1.1/"
   xmlns:cc="http://creativecommons.org/ns#"
   xmlns:rdf="http://www.w3.org/1999/02/22-rdf-syntax-ns#"
   xmlns:svg="http://www.w3.org/2000/svg"
   xmlns="http://www.w3.org/2000/svg"
   xmlns:sodipodi="http://sodipodi.sourceforge.net/DTD/sodipodi-0.dtd"
   xmlns:inkscape="http://www.inkscape.org/namespaces/inkscape"
   width="280.67999"
   height="325.54315"
   id="svg3216"
   version="1.1"
   inkscape:version="0.47 r22583"
   sodipodi:docname="clydebank.svg">
  <defs
     id="defs3218">
    <inkscape:perspective
       sodipodi:type="inkscape:persp3d"
       inkscape:vp_x="0 : 526.18109 : 1"
       inkscape:vp_y="0 : 1000 : 0"
       inkscape:vp_z="744.09448 : 526.18109 : 1"
       inkscape:persp3d-origin="372.04724 : 350.78739 : 1"
       id="perspective3224" />
    <inkscape:perspective
       id="perspective3201"
       inkscape:persp3d-origin="0.5 : 0.33333333 : 1"
       inkscape:vp_z="1 : 0.5 : 1"
       inkscape:vp_y="0 : 1000 : 0"
       inkscape:vp_x="0 : 0.5 : 1"
       sodipodi:type="inkscape:persp3d" />
    <inkscape:perspective
       id="perspective2832"
       inkscape:persp3d-origin="0.5 : 0.33333333 : 1"
       inkscape:vp_z="1 : 0.5 : 1"
       inkscape:vp_y="0 : 1000 : 0"
       inkscape:vp_x="0 : 0.5 : 1"
       sodipodi:type="inkscape:persp3d" />
  </defs>
  <sodipodi:namedview
     id="base"
     pagecolor="#ffffff"
     bordercolor="#666666"
     borderopacity="1.0"
     inkscape:pageopacity="0.0"
     inkscape:pageshadow="2"
     inkscape:zoom="1.9937492"
     inkscape:cx="108.43475"
     inkscape:cy="159.59623"
     inkscape:document-units="px"
     inkscape:current-layer="g7499"
     showgrid="false"
     inkscape:window-width="1600"
     inkscape:window-height="838"
     inkscape:window-x="-8"
     inkscape:window-y="-8"
     inkscape:window-maximized="1" />
  <metadata
     id="metadata3221">
    <rdf:RDF>
      <cc:Work
         rdf:about="">
        <dc:format>image/svg+xml</dc:format>
        <dc:type
           rdf:resource="http://purl.org/dc/dcmitype/StillImage" />
        <dc:title></dc:title>
      </cc:Work>
    </rdf:RDF>
  </metadata>
  <g
     inkscape:label="Layer 1"
     inkscape:groupmode="layer"
     id="layer1"
     transform="translate(-266.56525,-266.10173)">
    <g
       style="fill:#c8ffc8;stroke:#000000;stroke-opacity:1;fill-opacity:1"
       transform="matrix(1.5275885,0,0,1.5275885,181.00334,-610.73902)"
       id="g7499">
      <path
         style="fill:#c8ffc8;stroke:#000000;stroke-width:0.90000004000000000;stroke-linecap:round;stroke-linejoin:round;stroke-miterlimit:9.99670124000000020;stroke-opacity:1;stroke-dasharray:none;fill-opacity:1"
         d="m 160.9414,720.58854 c 0.21994,0.73493 1.28328,0.62647 1.36461,1.50002 0.54076,0.66838 1.01822,-0.86861 1.80005,0 0.60455,0.28917 1.30122,0.60076 1.80003,1.20001 1.55104,-0.0526 -0.13108,0.66765 -0.16458,1.20002 -0.59712,0.12862 -1.33167,1.1379 -0.60001,1.6646 -0.48474,0.36803 -0.96406,1.28172 -0.90003,1.33543 0.16041,0.15262 -0.69575,0.7111 -1.50002,0.7646 -0.42818,0.51698 -0.0436,1.84668 -0.90003,1.93544 -0.70691,-0.35874 -0.66769,-0.30278 -1.66462,0 -0.54483,0.30794 -1.19173,1.05406 -1.63545,0.60002 -0.23815,1.19302 0.60654,1.30321 1.66461,1.20001 0.97863,-0.12688 -0.0654,2.31461 1.03545,1.20001 0.7558,0.37569 1.27929,0.7371 1.20002,1.20001 0.86002,-0.12927 1.82984,0.51934 1.20003,1.20003 -0.22235,0.77049 -1.0631,1.78907 0.30001,1.80002 -0.38412,1.18531 0.92929,-0.7882 1.06461,0 0.79889,-0.35957 0.38461,-0.75366 1.03544,0 0.31014,-1.30696 1.36984,-0.0281 1.20003,-1.20002 -0.0705,-1.02533 1.06485,-0.8449 1.20003,-1.66459 -0.62052,-1.27781 0.24607,-0.0255 0.90002,-0.73544 0.18744,-0.80055 0.91012,0.0236 1.20003,-1.06459 0.63652,-0.43729 2.03917,-0.0881 1.96463,0.76458 1.15133,0.23542 -0.59834,1.25153 0.90002,0.90001 0.28087,0.53129 1.55303,0.009 1.93547,-0.3 1.08238,0.12751 0.76881,-1.14094 1.96462,-0.90001 1.05985,0.56275 0.33853,0.19777 0.43543,1.36459 -0.15379,0.79138 -1.05683,0.8335 -2.10005,0.73544 -0.77486,0.4186 -1.21113,0.83789 -2.10005,0.90001 -0.52605,0.42884 -1.32884,0.58093 -1.66463,1.20002 -0.93364,-0.19887 -1.91412,0.7777 -2.23546,-0.16458 -0.7451,-0.42737 -0.46196,1.33473 -0.90003,1.6646 0.31741,1.12677 -0.78759,1.31421 -1.20002,1.80002 -0.52504,0.14741 0.80735,0.85319 1.06461,1.20001 0.70025,1.01803 -0.71353,1.08317 -1.06461,1.50003 -0.51803,-0.86253 -1.10025,-0.46297 -1.66462,0 -0.50426,0.8789 -0.80888,0.11484 -1.33546,0.90001 0.29376,0.78002 1.24535,0.79368 0.30002,1.36459 -0.53535,0.75461 0.10989,1.12826 0.60001,1.63545 1.1199,0.25351 -1.94833,0.62623 -1.20004,0.6 -0.74668,0.36366 -0.0518,0.98112 -1.20002,1.20002 -0.46735,0.48753 -1.11398,0.79579 -1.50004,1.3646 -0.37052,0.41213 -1.11454,1.25599 -1.50004,1.93544 -0.72964,0.12815 -0.83327,1.1374 -1.50002,1.50003 -0.34888,0.606 -0.9008,1.00896 -1.20004,1.66459 -0.59131,0.35386 -0.66282,1.2275 -1.80004,1.03544 0.0594,-1.09196 0.0646,-2.05839 -0.60001,-1.6646 -0.76932,-0.38913 -0.61383,-0.52445 -0.60001,-0.43543 0.0914,-0.57027 -0.67467,-1.50908 0,-0.6 -0.65154,-0.25558 -0.46944,-1.71876 -0.90003,-2.10003 -0.65606,-1.31378 -0.0805,-0.82991 -0.60001,-1.50002 -0.0489,0.27189 -0.0132,-0.62593 -0.30001,0 0.012,-1.02925 -0.84775,-1.37831 -1.20003,-2.10003 -0.53593,-0.50551 -0.71782,-1.41853 -1.80005,-1.20001 0.32992,-0.48736 0.061,-0.65057 -0.53276,-1.43278 -0.74487,-0.27877 -0.85424,-1.02232 -1.56729,-1.26726 -0.67248,-0.2748 -1.17519,-0.87505 -1.96462,-1.20002 -0.3814,-0.42889 -1.0901,-1.06094 -1.80005,-1.20002 -1.29199,0.64443 -0.0797,-0.50976 -1.03544,-0.6 -0.48594,-0.68189 -1.54467,-0.58879 -1.80004,-1.50002 0.31221,-1.03795 -1.83065,-0.63895 -0.90002,-1.36459 0.9209,-0.27141 -0.4772,-1.85577 0.30001,-2.10003 -0.55115,-0.3006 -0.35329,-1.89593 0,-2.23546 0.66978,-0.23734 0.36616,-1.82203 1.20002,-1.80002 0.17798,-1.13286 -0.52098,-1.38877 -0.30001,-2.56461 0.16694,-0.65832 0.85543,-1.19185 1.20004,-1.80002 0.74066,-0.72052 0.75131,-0.25547 1.20002,0.16458 1.23084,-0.37304 1.4155,0.55517 2.40005,0.6 0.23431,-1.05873 1.18072,-0.33253 0.90003,0.76459 0.70127,0.68108 0.57937,0.0835 1.50004,0.13542 0.62841,-0.55828 0.3447,-1.28967 0.76459,-0.90001 0.62402,-0.32115 1.04056,-0.84977 1.63547,-1.20002 0.93738,-0.51157 0.25008,0.19882 1.36461,-0.3 0.0371,-1.34605 0.72368,-0.20003 1.03544,-1.20001 0.24527,0.55002 0.92628,0.0289 1.20004,-0.60001 0.58318,-0.37169 1.39539,-0.51436 1.80003,-1.06459 0.60463,-0.73928 0.70505,-0.46482 1.06461,-0.73544 0.13484,0.3852 1.71082,0.1663 1.33546,-0.90001 0.78496,-0.0258 1.34269,-0.75806 1.50002,-1.50001 0.47458,0.0834 0.4227,-0.68206 0.90003,-0.60001 z"
         id="path6372" />
      <path
         style="fill:#c8ffc8;stroke:#000000;stroke-width:0.90000004000000000;stroke-linecap:round;stroke-linejoin:round;stroke-miterlimit:9.99670124000000020;stroke-opacity:1;stroke-dasharray:none;fill-opacity:1"
         d="m 205.91921,699.58394 c 1.32031,-0.35461 1.17465,0.75676 2.29709,0.60001 0.68653,0.35526 0.0717,0.24836 1.003,0 0.67595,-0.84974 1.08069,0.10967 0.70297,0 -0.17097,1.14625 -1.08563,0.16021 -1.00298,1.39705 -0.26935,0.0782 0.87672,-0.038 0.30001,0.70297 0.77128,0.30401 0.67513,1.3044 0.10296,1.80003 -0.88137,0.14156 -0.16003,1.54255 0.39408,1.80002 -0.23372,-0.30704 1.11394,-0.47999 1.60301,0 -0.6415,0.43379 -0.0123,1.96719 -0.10297,1.80003 -0.45488,0.39491 -0.14941,0.76498 -0.79706,1.50001 -0.89138,-0.17938 -1.37793,-0.59218 -1.80005,-0.49704 -0.50373,0.30978 -1.27515,0.63835 -1.80003,0.99409 0.0771,0.85726 0.16356,1.70511 0.60001,2.20299 0.60949,0.49963 0.0275,1.37747 0.30001,1.39705 0.7988,0.68059 0.34202,0.14699 1.20003,-0.19704 0.40975,0.91977 0.0793,1.38584 0.79705,1.50003 0.84473,-1.14588 -0.19377,1.74487 1.00298,1.20001 -0.15379,0.91752 1.07109,1.38112 0.60003,1.69706 0.52228,0.41206 0.89998,0.9687 1.80004,1.00298 -0.52799,0.59741 0.0544,0.57735 0.90002,0.90001 0.61644,0.45432 0.31328,1.65683 0.49704,1.80002 -0.59682,0.20826 0.21042,1.68883 0.10297,1.50002 0.43533,0.26834 0.15684,0.90105 -0.30001,1.50002 -0.32571,0.52764 -0.41706,1.56045 -0.60001,2.40003 0.15369,0.61004 0.93674,1.51546 0.30001,1.99706 -0.43728,0.35877 -1.31156,0.98144 -2.10005,1.30299 -0.92346,0.58839 -1.07206,1.2476 -1.50004,1.80002 -0.84422,0.11569 -1.69253,0.26559 -1.30299,-0.60001 -0.34186,-0.11558 -0.37816,-1.41936 -1.09707,-1.50003 -0.80029,0.36062 -1.03175,1.3347 -1.97628,1.41191 -0.95273,-0.47959 -1.62695,-1.66866 -2.82383,-1.41191 -0.83403,-0.6638 -2.04402,-0.5052 -2.78818,-1.07625 -0.5099,-0.86619 -1.32425,-1.71925 -1.11191,-2.8238 -0.90308,0.26515 -2.05871,0.6664 -2.78818,0.42378 -0.56303,-0.87393 -0.74333,-1.96876 -0.81191,-2.12083 -0.58158,-0.55014 -0.83183,0.0237 -1.50003,-0.70297 -0.89825,-0.43132 0.38946,-1.85458 -0.60002,-1.69707 -0.22882,-0.93453 -0.90988,-0.77602 -0.90002,-1.30297 -0.6186,0.3471 -1.00605,0.92535 -1.69708,1.20001 -0.30715,1.15158 -0.42403,0.64931 -1.28164,0.0213 -0.44011,-0.69256 -1.47517,-1.25465 -1.0607,-1.6607 -0.75382,-0.85867 -0.262,-0.77252 -1.06071,-1.25772 -0.63325,-0.17749 -1.45856,-0.70528 -1.69707,-1.30298 -0.28427,-0.27571 -1.13989,-0.0268 -2.10005,-0.30001 -0.47255,-0.7737 -1.49544,0.0557 -1.603,0.60001 -0.72738,-0.21178 -1.40895,-0.6273 -0.90003,-1.50002 1.21961,0.25391 0.60502,-1.32637 1.39708,-1.50001 0.88013,2.2e-4 0.007,-1.9182 0.90001,-2.10003 0.44449,-0.49855 0.61798,-1.82452 1.50004,-1.20002 1.00152,0.19074 1.42084,0.2059 1.90301,-0.49704 0.58159,-0.35275 0.83182,-1.03686 1.50004,-1.30298 -0.34713,0.0229 0.78574,-0.89873 1.09706,-1.20002 -0.23074,-1.20638 1.20415,-0.56366 1.303,-1.69705 0.52255,-0.40653 0.65924,-1.52597 1.39707,-1.00299 1.20264,0.20707 1.24653,-0.91301 2.10005,-0.9 0.53381,-0.83499 1.2201,0.33103 2.20302,0 0.48325,-0.0209 -0.56339,-1.69002 0.79705,-1.50002 1.45768,-0.10645 1.01111,0.2524 2.19412,0.3 0.77929,0.78055 1.23113,-0.6303 1.50893,-0.90002 0.82401,0.008 0.80241,-1.6821 0.10297,-1.80002 -0.49023,-1.01211 0.94201,-0.006 1.39707,-0.79704 0.44952,-1.11725 1.02447,0.88358 1.50003,-0.10296 1.01495,0.51078 1.04883,-0.0778 1.50004,-0.79705 0.29403,-0.46148 0.34668,0.23952 0.3,0.49704 z"
         id="path4860" />
      <path
         style="fill:#c8ffc8;stroke:#000000;stroke-width:0.90000004000000000;stroke-linecap:round;stroke-linejoin:round;stroke-miterlimit:9.99670124000000020;stroke-opacity:1;stroke-dasharray:none;fill-opacity:1"
         d="m 182.24535,683.74426 c 0.84799,0.56992 0.6956,1.75271 1.50004,2.40003 -0.41451,0.55177 0.21023,0.48153 -0.60002,1.09705 -0.47732,0.45702 -0.65595,1.21273 -1.20003,1.60299 -1.36358,0.1281 0.17047,1.04631 -0.90002,1.50002 -0.34725,0.63554 -0.28874,0.62377 -1.09706,1.20001 0.6319,0.29155 -0.18572,1.52757 0.97329,1.1119 0.95914,-0.33446 1.81558,-0.1842 2.52382,-0.5119 0.243,1.20869 -0.72319,1.2082 -0.90001,1.99707 0.0556,0.67266 -1.27326,1.43319 -1.50004,1.10594 -0.54935,0.34316 -0.33402,0.79623 -0.60002,1.39706 -0.12188,0.84381 -1.42961,0.50178 -1.80004,1.09705 -0.95477,0.414 -0.12756,0.76151 -0.30001,1.90298 0.59592,0.73362 0.27877,1.18636 0.60002,1.69707 0.5263,0.40804 1.03186,0.83683 2.10005,0.70297 1.17725,0.36951 0.99084,-1.11624 1.50004,-1.50002 0.82548,0.31025 0.84482,1.17446 1.80004,0.60001 1.19318,0.22748 1.43184,-0.49956 2.10005,-0.79705 0.23087,-1.00889 0.52592,0.95403 1.20002,0.79705 0.37326,0.74321 0.92857,-0.75589 1.09707,-1.20001 0.81259,-0.12175 1.61728,-0.25141 1.603,-1.20003 0.98855,0.13901 1.03267,0.95329 1.69707,0 0.0918,-0.8319 1.05198,-1.05128 1.003,-1.39705 0.33281,0.9855 0.92956,-1.355 1.20003,-0.40297 0.36355,0.4442 1.50567,0.60141 1.50003,1.50002 -0.8621,-0.0984 -1.37514,1.07708 -0.90002,1.39705 -0.3877,0.9705 1.40651,1.19564 0.60001,1.60299 0.41904,0.15906 -1.28284,0.6656 -1.00298,0.90001 -0.17572,-0.13785 0.52981,1.2465 1.44232,1.03934 0.76241,-0.0397 1.41767,1.51246 0.56366,1.3607 -0.98936,0.1424 -1.51249,-0.70436 -2.20302,0 -0.58474,0.223 -0.95939,1.14768 -2.10005,0.9 -0.43389,-0.47633 -0.9516,0.73042 -1.20003,1.20002 -0.59491,0.72479 -1.26001,0.70457 -1.50004,1.50002 -0.21973,0.544 -1.16962,1.28261 -1.09706,1.20002 -0.35275,0.58158 -1.03687,0.83181 -1.303,1.50001 -0.74456,0.51967 -0.95434,0.38726 -2.10005,0.3 -0.79047,-0.67279 -0.8274,1.12349 -1.50004,1.20003 -0.26869,0.97797 -1.20708,1.13598 -1.99707,1.20001 -1.02776,-0.1356 -0.78845,-0.89747 -1.90301,-0.3 -0.31465,-0.57458 -1.07148,-1.55348 -0.70299,-2.10004 -0.54896,0.43072 0.76028,-0.95527 -0.49705,-0.90001 -0.25168,-0.62164 -2.09241,-0.40794 -1.80004,0.49705 -0.30715,0.62719 -1.72882,0.13986 -1.50004,1.30298 -0.42483,0.54086 -0.84667,1.08471 -1.20002,1.69706 -0.47629,0.94362 -0.68754,-0.91096 -1.20003,-1.09705 -0.31055,-0.37723 0.15351,-1.42709 -0.60002,-1.80003 -0.0545,0.40742 0.90184,-1.56741 -0.19704,-1.50001 -0.32805,-0.25475 -2.09803,-0.5041 -1.90301,-0.30001 0.74463,-0.88812 -0.56718,-1.18972 -0.3,-1.50001 -0.47938,-0.48632 0.0552,-1.98656 -1.39707,-1.50003 -0.0488,-0.73138 0.24376,-1.78532 -0.70298,-0.90001 -0.50037,0.72969 -0.18262,2.13482 -1.20003,1.20001 -0.50549,0.25824 -1.70398,0.74823 -1.20003,1.09705 -0.44949,-0.28881 -1.02447,0.2213 -1.50004,0.70298 -0.61838,0.34731 -0.89811,1.03328 -1.39707,1.50002 0.0913,0.20982 -0.4096,-1.14152 -1.60299,-0.60001 -0.97662,-0.3529 -0.46318,-1.00196 -0.79707,-1.50001 0.27867,-0.17492 0.86064,-1.35121 -0.40297,-1.20003 -0.20235,0.51023 -0.80591,1.56442 -1.09705,2.10004 -0.14076,0.70619 -0.82779,1.38902 -0.70299,1.50001 0.43801,-0.2831 -2.37282,0.38562 -1.00298,-0.3 0.52647,-0.98395 -0.37154,-1.42597 -0.79707,-1.80002 0.11532,-1.04511 -0.63159,-0.8608 -0.3,-1.50003 -0.29507,-0.20909 -0.18387,-0.94274 -1.20002,-1.09705 -0.0974,-1.03175 0.94838,-0.92029 0.60001,-2.20299 -0.6045,-0.3612 -0.60884,-1.32255 -1.09707,-1.80002 -0.18345,-0.75089 -0.39178,-1.47689 -0.70298,-2.10003 -0.48122,0.48448 -1.68063,0.25077 -2.59709,0.3 -0.7831,-0.34087 -1.79291,-0.13438 -2.34235,-1.03933 -1.29343,-0.64512 -0.0191,-1.24671 -0.16069,-2.2607 1.3489,-1.07997 -0.3851,-1.16562 -1.20002,-1.50003 -1.27079,-0.0127 -1.39127,-1.24049 -2.59709,-1.50001 -0.85542,-0.22663 -0.68216,-1.34109 -1.76696,-1.60933 -0.72651,-0.89777 -1.81185,-1.05603 -1.91475,-1.36936 0.10676,0.21755 0.63723,-0.94226 0.57866,-0.92136 -0.41007,0.42143 0.64745,-0.23227 1.69708,0 1.07478,0.14044 1.37151,-0.49717 1.90301,-0.90001 1.01824,0.0525 1.95079,0.0194 2.5971,-0.30002 0.71925,-0.72838 1.19994,-0.34003 1.90301,0 0.77209,0.19362 0.76502,1.16639 1.69708,1.20003 1.0187,-8.8e-4 0.21695,1.71792 0.70297,0.90001 0.0517,0.93104 0.62219,0.29035 1.69708,0.6 0.916,0.0184 0.87265,0.99603 2.20302,0.60001 1.01048,-0.0356 1.95756,-0.46187 3.00008,-0.30001 0.52891,0.8989 1.38028,-0.30419 2.29709,0 0.20664,-1.51538 0.78977,0.57311 1.00298,0.40297 0.23072,0.22675 0.94,0.85751 1.50004,1.09706 0.76003,-0.3153 1.20251,-0.777 1.50004,-0.40298 0.32993,-0.1209 0.97696,-1.14646 1.50003,-0.3 0.63112,0.50064 1.0183,-0.21019 1.80004,0.40298 0.46881,-0.8509 1.44739,-0.51719 1.50004,-1.50003 0.96308,-0.003 1.11472,-0.81666 1.20002,-1.69705 -0.80317,-0.009 -1.3989,-1.02046 -0.90002,-0.70297 -0.49233,-0.48663 0.27752,-1.15652 1.39708,-0.90002 -0.1315,0.16965 1.6738,0.12268 1.60299,-0.60001 1.14704,0.69201 -0.10149,-0.82199 0.90003,-0.90001 0.66033,0.15617 1.80559,0.67894 2.10005,-0.19704 0.91362,0.31791 0.4068,-0.17174 0.90002,-0.70297 1.01154,-0.76163 0.83495,0.8061 1.80004,0.10297 0.67283,-0.45889 1.05144,0.24329 1.20003,-1.00299 0.93625,0.942 0.75081,-0.6832 1.69707,-0.6 0.88395,0.70705 -0.0668,-0.10609 0.70299,0 z"
         id="path4864" />
      <path
         style="fill:#c8ffc8;stroke:#000000;stroke-width:0.90000004000000000;stroke-linecap:round;stroke-linejoin:round;stroke-miterlimit:9.99670124000000020;stroke-opacity:1;stroke-dasharray:none;fill-opacity:1"
         d="m 168.37964,669.92984 c 1.00002,0 2.00004,0 3.00006,0 0.19687,0.76883 2.06834,-0.13694 2.29709,0.60001 1.15156,-0.21722 1.37889,0.48979 2.50302,0.3 0.29784,0.66786 1.80794,0.12348 2.5971,0.30002 0.75857,0.17577 2.23541,-0.36673 2.50303,0.3 0.95569,-0.0133 1.11258,0.70676 2.10005,0.90001 0.39624,0.56945 0.73084,1.20055 1.20003,1.69705 0.4773,0.45704 0.65595,1.21273 1.20003,1.60299 0.30558,0.54777 0.76653,1.21099 1.80004,1.20001 0.5116,0.29615 1.65136,0.45572 2.10005,0.90001 0.57357,0.86447 0.91994,0.91977 1.47869,1.77869 0.24477,0.69431 0.90895,0.9155 1.52138,1.22136 0.57808,0.38762 1.43567,0.49571 1.80004,1.09704 0.73205,0.2023 1.16007,0.70862 1.50004,1.30299 0.6186,0.34709 1.00603,0.92535 1.69707,1.20001 0.72399,0.40775 -0.18322,0.99136 0.10298,2.10002 0.72174,0.71603 -0.76032,0.67371 -0.79706,1.50003 -0.36019,0.80316 -0.28699,1.3989 -1.30299,0.90001 -1.22793,0.0912 -2.60746,-0.18357 -3.73942,0.13933 -0.80877,0.1959 -1.31715,0.78185 -1.96072,1.06068 -0.31272,0.66565 -1.60236,0.93676 -1.20003,-0.49704 -1.19231,-0.77832 0.21255,-0.64466 0,-1.80002 0.35236,-1.19934 -1.53694,-0.67986 -1.80005,-0.40297 -0.92874,-0.0902 -1.1767,1.0119 -2.23938,0.46068 -0.71598,-0.43272 -0.71466,-1.16254 -1.33935,-1.93935 -0.57493,-0.68266 -0.47668,-2.03594 -1.52139,-2.12137 -0.38236,-0.0652 -1.2443,0.24615 -1.50004,0.90001 -0.61502,-0.82273 -0.93412,1.02071 -1.20002,0.49704 -0.64692,0.42905 -1.4572,0.57686 -1.80004,-0.19704 -0.96448,0.36508 -0.65079,0.81433 -1.09707,1.20001 -0.41401,-0.71515 -0.76153,0.78959 -1.90301,0.3 -0.36528,-0.63018 -1.6217,0.1015 -0.90002,0.79706 -0.77904,-0.33941 -0.76027,0.65393 -1.99708,0.40297 0.28968,0.45038 -1.93925,-0.69346 -1.60301,0.6 0.0974,0.0118 -0.58221,0.39251 0.30001,0.79705 1.04634,-0.0285 0.50335,1.43158 0,1.60299 -0.71938,0.24632 -0.63771,1.29368 -1.69707,1.20001 -0.12001,1.1019 -1.56493,-0.0358 -1.603,0.40297 -0.7329,-0.14648 -1.29055,-1.02365 -1.69708,-0.10297 -0.81876,0.31102 -0.44931,-0.16503 -1.303,0.30001 -0.41394,0.41966 -1.44986,0.0158 -1.80005,-0.49705 -0.33721,-0.29141 -0.58135,-0.69753 -1.09705,-1.30297 -0.0443,0.89006 -1.30708,0.5616 -1.90301,0.90001 -0.73379,-0.17007 -1.63089,-0.58088 -2.66084,-0.11308 -0.71432,0.0132 -2.48301,0.57491 -2.43928,-0.38397 -0.63464,0.0518 -2.10843,-0.49369 -2.10005,-0.10296 -0.77807,-0.56856 -0.15355,-0.2927 -0.60002,-1.09706 -0.23412,-0.70021 -1.45984,-0.40883 -1.50003,-1.30297 0.49583,-1.04634 0.3417,-0.0345 1.20002,-0.60001 1.27723,0.0761 1.03316,0.3979 0.90003,-0.90001 -0.59907,-0.30959 -1.54203,-0.64848 -1.20003,-1.80003 0.17925,-0.68873 -1.15313,-1.81346 -0.10297,-1.80002 0.77174,-0.0669 2.60605,0.38098 1.60301,-0.90002 -0.39131,-0.83165 -1.27919,0.11919 -1.80005,-0.6 -0.67575,-0.20228 0.25516,-1.41423 -0.60001,-1.80002 0.62009,-1.61714 -1.79858,-0.19553 -1.20003,-1.79113 0.33211,-0.40646 1.78511,-0.72427 0.62135,-1.18757 -0.44476,-0.24218 0.18495,-1.67263 0.57868,-1.82136 0.58732,-0.12413 1.72615,-0.71966 1.80003,-0.70298 0.79462,0.13973 1.30282,0.56588 2.40007,0.40298 0.31976,0.72676 1.04709,1.08816 2.10005,0.90001 0.61429,-0.78128 1.39474,-0.65049 1.80003,0 0.79355,0.93482 0.45735,-1.27333 0,-1.39707 -0.32821,-0.69922 0.25782,-0.9734 0.73936,-0.54229 0.62688,-0.85813 1.23672,0.0469 1.66071,0.43933 0.79468,0.45503 0.6963,0.30951 1.09706,-0.60001 0.46931,-0.66241 0.5615,-0.24664 1.303,-0.90001 -0.49028,-1.20171 1.52339,-0.92239 0.70297,-1.80001 -0.0117,-0.46921 0.77255,-1.02497 1.09707,-1.50003 -0.2367,-1.56623 0.92373,-0.54139 1.69707,-0.60001 0.87925,0.0551 0.97605,0.89263 1.90301,0.90001 l 0.19704,0 0.10298,0 z"
         id="path6616" />
      <path
         style="fill:#c8ffc8;stroke:#000000;stroke-width:0.90000004000000000;stroke-linecap:round;stroke-linejoin:round;stroke-miterlimit:9.99670124000000020;stroke-opacity:1;stroke-dasharray:none;fill-opacity:1"
         d="m 184.03576,687.0372 c 0.48925,-0.17238 0.19452,0.43922 0.35058,0.60002 0.36011,-0.12371 0.44025,0.42847 0.80232,0.3 0.27778,-0.0379 0.78621,0.15478 0.64715,-0.3 0.34497,0.0281 0.67751,0.0438 0.65058,-0.30002 0.25768,-0.0592 0.75732,0.12358 0.84945,-0.10115 -0.064,-0.38087 0.50944,-0.12429 0.75174,-0.19885 0.24265,0.0742 0.8165,-0.18277 0.7483,0.2023 0,0.43258 0,0.86515 0,1.29773 -0.42793,-0.11107 -0.21749,0.41624 -0.60002,0.35058 -0.10252,0.4061 0.46339,0.15385 0.58611,0.53552 0.0325,0.3931 0.005,0.81121 0.0139,1.21392 0.34496,0.0281 0.67751,0.0438 0.65059,-0.3 0.40969,0.0928 0.55737,-0.0763 0.65058,-0.30001 0.3072,-0.0169 0.15158,-0.39777 0.57039,-0.37152 0.14053,-0.3557 0.67259,-0.0683 0.52849,-0.52849 0.31688,-0.003 0.66794,0.0771 0.85035,-0.25033 0.29211,-0.11632 0.67383,-0.0163 1.00027,-0.0497 0.48315,0 0.9663,0 1.44945,0 0,0.4 0,0.80001 0,1.20001 0.31175,0.005 0.74428,-0.11054 0.60003,0.35059 -0.074,0.37395 0.42159,0.1784 0.35057,0.54942 0.35051,-0.0336 0.68096,-0.0472 0.54944,0.40115 -0.009,0.30802 -0.47979,0.15394 -0.3,0.6506 0.25615,0.42456 -0.48103,0.51823 -0.0977,0.44828 0.41235,0.29402 -0.34482,0.2087 -0.2023,0.55288 -0.35085,-0.0351 -0.32378,0.30764 -0.3,0.64713 -0.45603,-0.13917 -0.26128,0.37246 -0.30001,0.65059 0.0792,0.39601 -0.49421,0.13951 -0.30002,0.65057 0,0.36629 0,0.73258 0,1.09887 -0.46012,-0.14052 -0.18333,0.40755 -0.55034,0.55034 0.072,0.44781 -0.4139,0.2111 -0.34967,0.60255 0.14429,0.46 -0.29137,0.34006 -0.60001,0.34713 0.0613,-0.60031 -0.023,0.22174 -0.24944,0 0.48678,-0.12371 -0.0584,0.42847 -0.30345,0.3 0.073,0.38876 -0.4624,0.16903 -0.34714,0.60001 0.11107,0.42793 -0.41626,0.21747 -0.35059,0.60002 -0.33682,-0.13833 -0.2631,0.61778 -0.54943,0.19885 0.0239,-0.30709 -0.41799,-0.14831 -0.35058,-0.49887 -0.35052,-0.0337 -0.68097,-0.0472 -0.54945,0.40117 0.024,0.3071 -0.41797,0.14831 -0.35057,0.49885 -0.4097,-0.0928 -0.55738,0.0764 -0.65059,0.30001 -0.24339,0.0735 -0.79731,-0.16357 -0.79887,0.15173 -0.0742,0.24263 0.18276,0.81648 -0.20231,0.74827 -0.12502,0.1244 -0.12527,0.37359 -0.39771,0.35059 0.02,0.52249 -0.37062,0.1104 -0.40116,-0.0506 -0.3071,0.024 -0.14831,-0.41799 -0.49886,-0.35059 0.0791,-0.39601 -0.49419,-0.13952 -0.3,-0.65057 -0.009,-0.45373 -0.4798,-0.0947 -0.30001,0.25288 0.0669,0.3838 -0.74109,-0.10737 -0.60002,0.35057 -0.12442,0.12501 -0.37359,0.12527 -0.35059,0.39771 -0.58315,0 -1.1663,0 -1.74946,0 0.1208,0.46063 -0.4358,0.35224 -0.33577,-0.0358 -0.11796,-0.37746 -0.67658,-0.10308 -0.56425,-0.51713 -0.38878,-0.29137 -0.16901,0.42988 -0.60001,0.25288 0.15101,0.37142 -0.37963,0.46047 -0.30002,0.80231 0.13329,0.45015 -0.20546,0.42826 -0.55287,0.39771 -0.51573,0 -1.03145,0 -1.54718,0 0.17239,-0.48925 -0.43921,-0.19452 -0.60001,-0.35059 0.0739,-0.37395 -0.4216,-0.1784 -0.35058,-0.54942 -0.5225,0.02 -0.11041,-0.37063 0.0506,-0.40116 -0.009,-0.308 -0.4798,-0.15393 -0.30001,-0.65058 -0.11499,-0.20187 -0.44283,-0.19089 -0.30001,-0.65058 0,-0.33257 0,-0.66515 0,-0.99772 -0.48412,0.11107 -0.30504,-0.41624 0,-0.35058 -0.074,-0.37396 0.42161,-0.1784 0.35059,-0.54943 0.40969,0.0928 0.55737,-0.0764 0.65059,-0.3 0.24338,-0.0735 0.7973,0.16357 0.79887,-0.15173 0.11498,-0.20188 0.44282,-0.1909 0.3,-0.65058 0.17111,-0.0228 0.56761,-0.42502 0.0471,-0.39771 -0.29141,-0.38877 0.42987,-0.16902 0.25288,-0.6 0.48924,0.11619 0.19452,-0.52678 0.35059,0 0.39601,0.0791 0.13952,-0.4942 0.65058,-0.3 0.30349,0.0389 0.57942,-0.30119 0.49886,-0.60002 0.45604,0.13917 0.26128,-0.37246 0.30002,-0.65059 -0.17199,-0.48884 0.57055,-0.0632 0.60001,-0.35057 -0.14634,-0.46321 0.19321,-0.44051 0.3,-0.65059 -0.0742,-0.24263 0.18276,-0.81649 -0.2023,-0.74828 -0.51162,-0.19475 -0.24881,0.38492 -0.65059,0.30001 -0.44276,0.0283 -0.9125,-0.0577 -1.33763,0.0452 -0.29883,0.17642 -0.60623,0.31653 -0.96128,0.25476 -0.4915,-0.18921 0.22285,-0.26005 0.15172,-0.5023 0.007,-0.37052 -0.51837,-0.34983 -0.60001,-0.49886 -0.0239,-0.3071 0.418,-0.14831 0.35059,-0.49887 0.39601,0.0791 0.13953,-0.4942 0.65059,-0.3 0.37203,0.0729 -0.3555,-0.0296 -0.10115,-0.45173 0.004,-0.2485 0.56096,-0.12129 0.60001,-0.49886 -0.0649,-0.4492 0.50498,-0.12848 0,-0.3 0.0592,-0.25767 -0.12359,-0.7573 0.10115,-0.84943 0.24339,-0.0735 0.79731,0.16357 0.79887,-0.15173 -0.18192,-0.49879 0.29827,-0.33547 0.30002,-0.65058 0.23257,-0.0843 0.38814,-0.24558 0.3,-0.65058 0.38875,0.073 0.16904,-0.4624 0.60001,-0.34714 -0.18983,-0.43584 0.59878,-0.27284 0,-0.3 0.48414,0.11107 0.30506,-0.41626 0,-0.35059 -0.0373,-0.48064 0.40682,-0.19778 0.37154,0.12211 0.19144,0.14322 0.27455,0.28673 0.22847,0.52848 z"
         id="path4862" />
      <path
         style="fill:#c8ffc8;stroke:#000000;stroke-width:0.90000004000000000;stroke-linecap:round;stroke-linejoin:round;stroke-miterlimit:9.99670124000000020;stroke-opacity:1;stroke-dasharray:none;fill-opacity:1"
         d="m 209.6129,648.55343 c -0.10223,0.81749 0.49846,0.60337 0,0.90001 0.28691,0.35842 1.12654,0.16413 1.33599,0.60002 0.25152,0.39381 0.85951,0.43116 0.76406,1.17195 0.6363,-0.0572 1.07299,0.5388 1.80004,0.32806 0.70551,-0.0482 0.96213,-0.39083 1.84499,-0.51499 0.81846,-0.53421 1.35117,-0.1957 1.75509,0.21499 0.57697,0.42322 1.59076,-10e-4 1.84983,0.88296 0.4547,1.06728 0.66256,0.80824 1.42219,0.61706 0.46833,-0.14104 0.77688,-0.44186 1.2281,-0.60001 -0.023,-0.66831 0.80268,-0.48799 1.20002,-0.73598 -0.21455,-0.85988 0.32874,-0.96192 0.30001,-1.63598 0.52432,-0.0851 0.23576,-0.98298 0.90002,-0.92809 0.28676,-0.91921 -0.16066,0.51424 0.43598,-0.3 0.15354,0.4918 0.54685,0.74381 0.76405,1.17195 -0.30997,0.46833 -0.36711,0.77688 0,1.22809 0.21716,0.74092 -0.37685,1.31418 0,1.33598 -0.4766,0.61254 -0.10093,0.21598 0,0.73598 0.22552,0.38384 0.40446,0.81426 0.3,1.52808 0.36881,0.53008 0.54538,1.1398 0.60002,1.80002 0.57222,0.55286 1.50234,0.86179 1.80005,1.636 0.034,0.89868 0.62882,0.97628 0.98601,1.62203 -0.032,0.81728 1.17294,0.68272 1.11404,1.54204 1.08741,-0.12934 0.33548,0.60186 0.3,1.03598 -0.45164,0.62278 0.17273,0.80592 -0.27194,1.06404 -0.036,0.51689 0.19286,1.00544 0.57195,1.20003 0.32061,0.96595 -0.43837,0.8523 -0.90003,1.03598 0.01,0.38659 -1.29454,0.50722 -0.60001,1.06404 0.22359,0.73449 0.44528,0.49203 1.036,0.3 0.19727,0.60679 1.01815,-0.0299 1.20002,-0.3 0.29901,-0.356 0.53565,-1.03615 1.06406,-1.03598 0.33796,-0.30737 1.21675,-0.0739 1.20003,-0.73598 0.76642,0.0558 0.94441,-0.18858 1.48846,-0.6165 0.50145,-0.32856 1.19308,-0.19796 1.7039,-0.50387 0.54139,-0.19269 1.3888,-0.28851 1.50004,0.38457 0.71506,0.40815 0.41711,1.26042 -0.1923,1.60775 -0.0259,0.54966 0.54038,1.15068 0.13597,1.20001 0.12977,0.33436 0.59339,-0.2443 1.036,0.3 0.15279,0.63364 -0.82846,0.36983 -0.87195,0.90001 -0.69514,0.0608 -0.44907,-0.20019 -1.036,0.30002 -0.53967,-0.007 -0.88891,0.54274 -1.36407,0.73597 -0.21456,0.85989 0.32875,0.96192 0.30002,1.63599 0.37401,0.23535 0.0766,1.14211 0.60001,1.22807 0.005,0.63985 0.32074,0.96994 0.60001,1.336 0.0311,0.76499 -0.20467,1.15114 -0.57194,0.76404 -0.6656,0.35324 -0.9783,-0.89615 -0.9281,-0.30001 -0.90002,0 -1.80004,0 -2.70006,0 -0.0355,0.64582 -1.2282,0.13441 -1.7439,0.30001 -0.62743,0.15042 -1.51119,-0.33019 -0.95616,0.3 0.074,1.03211 -0.081,0.85638 -0.73598,0.60001 -0.43481,0.27121 0.1952,1.35548 -0.65634,1.39231 -0.2933,0.20344 -1.11408,0.81816 -1.30774,0.13577 -0.18736,0.42084 -0.26782,-1.17691 -0.60002,-0.35612 -0.84454,0.0648 -1.80894,0.01 -2.70007,0.0281 -0.0483,-0.53098 -0.91974,-0.66944 -1.50003,-0.60002 0.14455,-0.77888 -1.20305,0.55383 -0.60002,-0.13597 -0.2271,-0.29095 -1.0727,0.30687 -1.59617,0.23212 -0.26342,0.25733 -1.96567,0.4672 -1.43197,0.50387 0.12832,0.48104 -0.28026,1.49899 0.62809,1.20001 0.41198,0.56466 1.01044,0.38316 1.20002,0.90001 0.24259,0.9426 -0.93913,0.46089 -1.20002,0.90001 -0.53476,0.0446 -1.39883,0.19034 -1.50004,0.60002 -0.23695,-0.85847 -0.68097,0.31406 -1.33599,0 -0.92795,-0.14649 -0.94799,0.31478 -1.06407,-0.27194 0.20883,0.68964 -1.3696,-0.17129 -1.20003,0.57194 -0.19672,-0.44862 -1.30729,0.0166 -1.20002,-0.73599 -0.61573,-0.0296 0.0557,-1.34637 -0.57195,-1.36404 -0.69044,0.0811 -1.14975,-0.069 -1.2281,-0.60001 0.21705,-0.85726 -0.92322,-0.58981 -0.3,-1.20001 -0.51196,-0.0118 -0.66466,-1.02641 -1.036,-0.3 -0.16091,-0.48443 -0.38871,-0.90197 -0.46404,-1.47197 -0.60233,-0.36062 -0.64186,-0.76097 -0.90002,-1.20001 0.22735,-0.085 0.89143,-0.98298 0.30001,-0.92807 0.0607,-0.11075 -0.31664,-0.24537 -1.036,-0.30002 -0.55473,0.0906 -0.81986,0.47082 -1.636,0.30002 -0.21775,-0.0626 -0.50286,-0.0608 -1.20407,0.16818 0.15636,0.80169 -0.20069,0.94581 -0.32403,1.4678 -0.0365,0.97005 -0.31924,0.96103 0.3,1.33599 0.60136,0.008 0.96807,0.25066 0.90002,0.92808 -0.7291,-0.67902 -0.2878,0.27422 -1.03599,0.3 -0.94691,-0.30158 0.0283,1.31898 -1.03598,0.90001 -0.38388,-0.22549 -0.81427,-0.40447 -1.52811,-0.3 -0.0693,0.61341 -0.19291,1.0229 -0.69617,1.29615 -0.46378,0.58579 -1.45385,-0.0697 -1.40388,-0.69615 -0.71151,0.0662 -1.29475,0.004 -1.50004,-0.43597 -0.55985,-0.44075 -0.72986,0.47811 -0.60001,-0.73598 0.16206,-0.82112 0.12633,-0.73308 0.28844,-1.21651 -0.35363,-0.67361 -0.0345,-0.36881 -0.28844,-0.91158 -0.28571,-0.93104 0.77852,-0.51214 1.33599,-0.60001 0.82299,-0.17765 0.77122,0.51946 1.63601,0.30001 0.69043,0.0811 1.14976,-0.069 1.2281,-0.60001 0.46918,-0.17616 0.40951,-0.88116 0.90002,-1.03598 0.2371,-0.40823 0.156,-1.13466 0.57194,-1.36405 0.37126,-0.0647 1.08453,1.12199 0.9281,0.0281 -0.28175,-0.44009 -0.16403,-0.5738 0.60001,-0.62807 0.029,-0.63836 1.41783,-0.64685 0.60001,-0.90001 0.80316,-0.29223 0.20686,-0.16007 0.30002,-1.03598 -0.23709,-0.40825 -0.15604,-1.13465 -0.57196,-1.36406 -2.3e-4,-0.48108 -0.30069,-1.49899 0.57196,-1.20001 0.34585,-0.63078 0.55262,-0.84096 0.60001,-1.50001 -0.26289,-0.20206 -1.31135,-0.34082 -0.76406,-0.90002 0.36607,-0.65186 1.12049,-0.67536 1.93601,-0.60001 0.35987,0.7971 0.8378,-0.0335 0.32809,-0.6 -0.021,-0.82005 -1.13949,-1.06004 -0.31159,-1.78845 0.81205,0.31145 0.80452,-0.85962 0.32316,-1.20003 -0.14088,-0.70896 0.52631,-0.67858 0.28843,-1.51158 -0.10901,-0.59628 0.26972,-1.39459 -0.3,-1.80003 -0.1451,-0.54821 -1.06428,-0.94265 -1.20004,-1.33598 0.007,-0.53967 -0.54273,-0.88891 -0.73598,-1.36406 -0.52193,-0.1234 0.25482,-1.54547 -0.43597,-1.50001 -0.29941,-0.54922 -0.46002,-1.12536 -0.0281,-1.47196 0.0217,-0.57734 -0.23135,-1.70461 0.70793,-1.52809 0.51357,-0.43127 1.31979,-0.15602 1.82811,-0.6 0.28663,0.0295 0.58145,-0.14339 0.46404,0.3 l 2e-5,-8e-5 z"
         id="path3766"
         sodipodi:nodetypes="ccccccccccccccccccccccccccccccccccccccccccccccccccccccccccccccccccccccccccccccccccccccccccccccccccccccccccccccccccc" />
      <path
         style="fill:#c8ffc8;stroke:#000000;stroke-width:0.90000004000000000;stroke-linecap:round;stroke-linejoin:round;stroke-miterlimit:9.99670124000000020;stroke-opacity:1;stroke-dasharray:none;fill-opacity:1"
         d="m 195.90866,659.35357 c 0.49436,0.15098 1.67161,-0.38093 1.50004,0.43598 0.60263,0.39799 -0.29298,0.54472 0.30001,1.03599 0.74985,-0.14049 0.64023,0.5785 1.20003,0.62807 0.40839,0.23694 0.60969,0.68097 0.60001,1.33598 0.2916,0.0607 0.77853,1.1417 0.60001,0.7921 0.40067,0.0802 0.73509,0.46322 0.90003,0.87196 0.70062,-0.0553 0.76977,0.5209 1.636,0.3 0.4525,-0.28135 1.16725,-0.18858 1.06406,-0.27194 0.40409,0.0768 0.76667,0.43163 1.20004,0.57194 0.58454,-0.0608 1.49084,0.20018 1.63599,-0.3 0.11813,0.61572 1.41157,-0.0557 0.76406,0.57194 0.21352,0.96368 -1.28022,0.25013 -0.90003,1.20002 -0.12027,0.72963 0.53093,0.68779 0.30001,1.52807 0.60403,-0.13907 0.12839,1.52378 0.46405,1.20003 -0.74594,0.2547 0.33607,0.5878 -0.73599,0.6 -0.001,0.74892 -0.97378,0.55656 -1.20002,0.90001 0.49022,0.0323 0.41612,1.30386 -0.30001,0.60001 -0.16948,-0.77092 -0.94564,-0.0604 -0.62809,0.6 -0.46916,0.17618 -0.40951,0.88116 -0.90001,1.03599 -0.0226,0.62279 -0.48476,0.80591 -0.87195,1.06405 -0.46087,-0.14851 -1.5466,0.32785 -1.52811,-0.30001 -0.70002,0 -1.40003,0 -2.10005,0 0.12147,1.09529 -0.51684,0.25044 -0.73599,0 -0.43491,-0.63952 -0.73544,0.10225 -1.03599,-0.3 -0.70937,0 -1.41874,0 -2.12811,0 0.33222,1.03751 -0.88234,0.24253 -1.20004,0.90001 0.003,0.55813 0.0724,1.54378 -0.20385,1.59618 0.4658,0.49456 0.73236,1.31977 1.10388,1.53983 0.18937,0.2515 1.12589,0.8595 0.0281,0.76404 -0.10635,0.70978 -0.0339,1.14489 -0.32809,1.20001 -0.18868,0.56725 -0.10511,0.14376 -0.60001,0.73599 -0.0464,0.66128 -0.4382,0.4431 -0.60001,0.1921 -0.28954,0.65045 -0.114,0.29062 -0.90003,0.27194 -0.17615,-0.46918 -0.88115,-0.40951 -1.03598,-0.90001 -0.33122,-0.32379 -0.55254,-1.01926 -0.90002,-1.20003 -0.33794,-0.19523 -0.58696,-0.84468 -1.06406,-1.03598 -0.16305,-0.49197 -1.20033,-0.37146 -1.50004,-0.6 -0.25196,-0.28121 -1.30078,-0.13086 -1.50003,-0.60001 -0.24736,-0.39798 -0.74596,-0.54472 -0.90003,-1.03599 0.004,-0.61341 -0.8013,-0.41742 -0.60001,-1.22807 -0.42174,-0.22359 -0.84539,-0.44528 -0.90003,-1.03598 -0.35091,-0.3551 -0.52337,-0.6369 -1.0923,-0.95633 -0.59984,-0.2797 -0.8406,-0.52295 -0.40772,-0.97967 0.12774,-0.44009 -1.30063,-0.5738 -0.60003,-0.62807 -0.36629,-0.72908 -0.0791,-0.28781 -0.3,-1.03598 -0.5373,-0.24415 -0.24512,-1.01764 0.27194,-1.06404 0.25203,0.19479 0.27802,-0.53885 0.62809,-0.87196 0.48513,-0.12423 0.69768,-0.52104 0.60001,-1.22807 -0.33829,-0.63835 -0.74675,-0.64686 -1.20004,-0.90001 -0.5608,-0.0717 0.6784,-0.3248 0.30002,-0.16404 0.45027,0.41971 1.23537,0.0926 0.32807,-0.13597 -0.24237,-0.23678 -0.5756,-1.088 -0.1921,-1.50002 0.72458,0.0699 1.29636,-0.013 1.36406,-0.60001 0.78334,0.13246 1.2486,-0.66301 1.99457,-0.84727 0.62099,-0.53639 1.40672,-0.57124 1.89396,-1.24118 0.63756,-0.23668 0.93743,-1.84091 1.50003,-1.22316 0.54346,0.47567 0.7548,0.48701 1.30774,1.00773 0.54222,0.80746 0.61898,0.7271 1.53986,0.50386 0.75764,0.11231 1.30932,0.0186 1.06407,-0.87194 0.16926,-0.44011 0.64492,-0.57381 1.20002,-0.62808 0.54965,0.0259 1.15069,-0.54036 1.20003,-0.13597 -0.12879,-0.33682 0.45983,-0.0827 0.60001,-0.16404 z"
         id="path6612" />
      <path
         style="fill:#c8ffc8;stroke:#000000;stroke-width:0.90000004000000000;stroke-linecap:round;stroke-linejoin:round;stroke-miterlimit:9.99670124000000020;stroke-opacity:1;stroke-dasharray:none;fill-opacity:1"
         d="m 148.44327,662.45263 c 0.57849,0.30468 1.14045,0.61247 1.78283,0.69426 0.58231,0.12703 0.91857,0.53858 1.48386,0.63906 0.45017,0.30057 1.25897,0.48161 1.48898,0.85557 -0.31335,0.54403 -0.30248,1.17575 -0.62459,1.7337 -0.0454,0.51725 -0.85494,1.10718 -0.23098,1.47747 -0.0519,-1.15023 0.17021,0.0415 0.59809,0 -0.0151,-0.4995 0.18275,0.28771 0.20065,0 0.17331,0.59918 0.55354,-0.0753 0.40128,0.20064 -0.2211,-0.18799 0.45434,0.3025 0.90003,0.0994 -0.22356,0.72293 1.12106,-0.12232 0.90001,0.5981 0.46933,0.12349 1.05262,-0.13061 0.90002,-0.69746 0.19526,-0.60436 0.3254,0.43144 0.90003,0.0994 0.36935,0.13002 0.54653,0.45221 1.1981,0.30001 0.68734,0.22045 0.46887,-0.46492 1.10068,-0.30001 0.39926,-0.0676 1.06796,0.13418 1.30131,-0.0994 0.0289,-0.43799 0.8453,-0.0885 1.20002,-0.20064 0.70205,-0.20267 0.497,0.50174 1.19812,0.3 0.38635,0.0805 0.46127,0.47251 1.10066,0.30001 0.17332,0.29356 0.55354,0.38023 0.40128,0.99937 0.0498,0.51667 -0.23778,0.696 -0.60001,0.80066 -0.72293,-0.22356 0.12232,1.12106 -0.5981,0.90001 0.66507,-0.0281 0.13714,0.70134 -0.002,0.79873 -0.36458,0.10231 -0.80509,0.12868 -0.60001,0.80064 -0.0787,0.38821 -0.60754,0.32624 -0.60003,0.80065 -0.44515,-0.20582 -0.34033,-0.24599 -0.60001,0.29809 -0.6918,-0.22492 0.0513,0.98505 -0.49873,0.90193 -0.0848,-0.5106 -0.26043,0.36836 -0.50064,-0.3 -0.10032,-0.36658 -0.82498,-0.10881 -0.80067,-0.60002 -0.50135,-0.65825 -0.56645,0.0202 -1.04054,0.14053 -0.65622,0.2234 -0.18998,-0.68295 -0.75758,-0.14053 -0.30528,0.60251 -0.008,-0.004 -0.002,0.79875 0.49571,0.0141 0.0883,0.7503 0.60002,1.00128 0.16847,0.60549 -0.89133,0.8866 -0.60002,0.10128 -0.44974,-0.0171 -0.53916,-0.39461 -0.99938,-0.40128 -0.27905,0.13043 -0.55201,0.59862 -1.09875,0.60001 -0.35514,-0.11176 -1.16985,0.23606 -1.20195,-0.19873 -0.277,-0.38976 -0.56748,-0.5816 -0.90002,-0.70128 -0.3725,-0.12687 -1.29429,0.29554 -1.20003,-0.29809 -0.55188,0.085 -0.88615,-0.0476 -1.09875,-0.30192 -0.10231,0.36458 -0.12869,0.80508 -0.80065,0.60001 -0.63326,-0.16637 -0.41387,0.51992 -1.10067,0.3 0.20267,0.70204 -0.50174,0.497 -0.3,1.1981 -0.528,0.58095 -0.004,0.70772 0.49872,0.90192 -0.27641,-0.28469 0.0144,0.88278 -0.59809,0.60002 -0.73138,-0.23138 -0.45715,0.54287 -0.50065,0.99937 0.0289,0.43799 0.84531,0.0885 1.20003,0.20064 -0.17058,0.67058 0.18077,0.81924 0.30001,1.20001 -0.0584,0.76169 0.35815,0.74836 0,1.1981 0.10574,0.39363 0.32076,0.67798 0.89618,0.60193 0.6214,-0.15251 0.53109,-0.26822 0.90386,0.0994 0.0947,0.17913 0.90157,0.73203 0.50065,1.10065 -0.7669,0 -1.53379,0 -2.30069,0 0.13001,0.36936 0.4522,0.54653 0.3,1.1981 0.58005,-0.11316 0.1848,0.74899 0.30001,1.10067 -0.16586,0.67566 0.19132,0.64729 0.60002,1.00128 0.39336,0.106 0.67497,0.32376 0.60001,0.89809 0.48673,0.23505 -0.13972,0.74276 -0.0994,0.30192 -0.3503,0.11659 -1.21593,-0.28216 -1.10066,0.3 -0.34015,-0.0988 -0.6053,-0.45792 -0.60002,-0.0994 0.29771,-0.42507 -0.66024,1.07258 -0.60002,0.10128 -0.68302,0.21613 -0.4681,-0.46567 -1.09874,-0.30192 -0.46644,-0.42069 -0.4402,-0.007 -0.98235,0.28104 -0.6824,-0.18209 -0.49031,0.46436 -1.1177,0.31897 -0.39926,-0.0676 -1.06796,0.13418 -1.30131,-0.0994 0.17132,-0.97095 -0.21655,0.3226 -0.30001,-0.50065 -0.52024,0.0209 -0.37943,-0.61931 -0.8981,-0.60001 -0.0546,-0.40416 -0.0725,-1.26903 -0.60194,-1.20001 0.67187,0.0209 -0.033,-0.61931 -0.29809,-0.6 0.21616,-0.45953 -0.46569,-0.94023 -0.30192,-0.70129 -0.021,0.0292 -0.25491,-0.6135 -0.69938,-0.49874 -0.27164,-0.19525 -0.60839,-0.32538 -0.50065,-0.90001 -0.52025,0.2809 -0.37942,0.28511 -0.8981,0 -0.2746,-0.19229 -0.69735,-0.23643 -0.90195,-0.49873 0.0642,-0.53112 -0.52084,-0.41292 -0.3,-1.10064 -0.24997,0.0163 -0.391,-1.10709 -0.30001,-0.50066 -0.32285,-0.56416 0.0531,-0.0943 -0.0994,-0.6 -0.72094,-0.0787 0.71359,-0.60754 -0.20064,-0.60001 0.73519,-0.056 -0.26734,-0.64884 0.3,-0.79874 -0.0676,-0.39925 0.13419,-1.06794 -0.0994,-1.30128 -0.58179,0.087 -1.10258,0.48817 -1.70067,0.6 0.24758,0.7476 -0.38805,0.61198 -0.90003,0.60001 -0.59604,0.30867 -0.17321,-0.17797 -0.3,0.59809 -0.57126,-0.10437 -0.70417,0.22961 -0.90002,0.50065 -0.44977,0.0171 -0.53915,0.39462 -0.99939,0.40128 -0.38821,0.0787 -0.32624,0.60753 -0.80066,0.6 -0.10601,0.39337 -0.32377,0.67498 -0.8981,0.60002 0.68808,-0.33681 0.0247,-0.9025 -0.30193,-0.50066 -0.32834,0.69808 -0.11094,0.15702 -0.5981,0.50066 -0.60679,0.30097 0.004,0.008 -0.80065,0 -0.44932,0.0176 -1.06554,-0.13176 -1.10067,0.3 -0.80457,-0.005 -0.19732,-0.30337 -0.80065,0 -0.10601,-0.39336 -0.32377,-0.67498 -0.8981,-0.60002 -0.55621,-0.0893 -0.88694,0.0469 -1.10068,0.30002 -0.0814,-0.37875 0.12624,-0.28669 -0.10127,-0.50066 0.24999,0.65909 0.39098,-0.36583 0.3,-0.69936 0.21331,-0.60433 -0.38879,-0.8709 -0.60001,-1.29938 -0.24504,-0.55458 -0.0876,0.19368 -0.3,-0.50064 -0.12688,-0.77785 0.29554,-0.2908 -0.29809,-0.60001 -0.13546,-0.77233 0.41729,-0.42124 -0.002,-0.79875 0.32374,-0.0362 0.0328,0.59632 0.30001,-0.10127 0.0751,-0.72606 0.0391,-0.62543 0.29809,-0.60001 0.0745,-0.43863 0.35321,-0.48277 0.74244,-0.74052 0.5804,-0.0367 0.3768,-0.82893 1.0576,-0.75949 0.11607,-0.35081 -0.2353,-1.16906 0.20064,-1.20001 0.49377,0.034 0.58399,-0.55775 0.77155,-0.0703 0.59611,-0.42529 0.44716,-0.60685 0.031,-0.82976 -0.75157,-0.28468 -0.051,0.88278 -0.80066,0.6 -0.55458,0.0877 0.19368,-1.12746 -0.50065,-0.90001 0.26337,0.024 0.22276,0.12845 0.30001,-0.59809 -0.22044,-0.68732 0.46491,-0.46886 0.3,-1.10065 -0.0642,-0.53113 0.52086,-0.41291 0.30001,-1.10064 -0.17131,-0.13825 0.21653,0.0648 0.3,-0.50066 0.15089,-0.65025 -0.16711,-0.83162 -0.3,-1.1981 -0.27907,-0.0267 -0.1772,0.18844 -0.30001,-0.50065 -0.22044,-0.68732 0.36194,-0.57183 0.30001,-1.10064 -0.183,-0.58411 0.24292,-0.916 0.3,-1.40066 0.5502,0.10266 0.98038,-0.0845 1.39877,-0.30001 0.25851,-0.20838 0.28761,-0.64616 0.80065,-0.6 0.57411,-0.0505 0.6884,-0.56675 1.09875,-0.60001 -0.22641,-0.57853 0.34563,0.45463 0.74246,-0.14052 0.4445,-0.17255 0.90906,-0.29666 1.35759,-0.45949 0.2035,-0.55478 0.98574,-0.10798 1.20195,-0.39936 0.0787,-0.38822 0.60755,-0.32623 0.60001,-0.80066 0.28592,-0.56748 0.48326,-0.56678 1.04054,-0.74052 0.17477,-0.2371 0.57265,0.63998 0.4595,1.03861 0.31156,0.5455 1.23823,0.36856 1.29429,-0.28086 0.2903,-0.93552 0.73816,-1.81114 1.10577,-2.71726 1.82105,0.62735 3.70182,1.11053 5.37754,2.08874 0.9161,0.12173 1.88433,0.50347 2.72265,0.91131 z"
         id="path6614" />
      <path
         id="path6378"
         style="fill:#c8ffc8;stroke:#000000;stroke-width:0.90000004000000000;stroke-linecap:round;stroke-linejoin:round;stroke-miterlimit:9.99670124000000020;stroke-opacity:1;stroke-dasharray:none;fill-opacity:1"
         d="m 138.81738,677.91961 c -1.29097,0.10101 -1.25521,1.28795 -2.26778,1.1875 -0.64251,0.29948 -0.92578,0.9582 -1.63847,1.1875 -0.6936,0.27066 -1.19066,0.73786 -1.67403,1.21875 -0.71216,1.11289 -0.3597,-1.23621 -1.14282,0.11642 -0.68955,0.48689 -2.13745,-0.21701 -2.45093,0.47733 -1.04286,0.10087 -0.9377,-0.94628 -2.23222,-0.59375 -0.88437,0.0695 -0.52407,1.38362 -0.59375,2.26778 -0.17107,0.9216 0.0853,1.23211 -0.28125,2.09375 0.57956,0.6397 -0.0161,1.1264 0.28125,2.09375 0.18726,1.07542 -0.53333,1.3661 -0.59375,2.40625 -0.22643,1.17884 0.50509,1.39973 0.3125,2.54472 -0.0365,0.97991 -0.0402,1.92704 0.28125,2.54903 0.39728,0.64718 0.14824,1.61115 0.85247,2.18381 -0.41693,1.41682 0.93715,0.9338 0.96003,1.86091 0.67507,0.31497 -0.37912,1.56766 0,2.40625 0.8339,-0.0132 0.70892,1.44487 1.1875,1.78125 0.27281,0.69985 -0.0558,1.1693 0.59375,2.09375 -0.16234,0.62401 -0.29457,1.9454 -0.72099,1.89355 0.31397,0.3298 0.37246,0.93266 0.43974,2.0127 -0.60181,0.72184 -0.80607,1.16378 -1.5,1.5 -0.386,0.90255 -0.70666,0.10126 -1.5,0.90625 -0.43768,-0.43256 -1.28661,0.47065 -0.59375,0.76778 -0.10796,1.17178 -0.0789,0.99481 -1.02931,0.85528 -1.587,0.77002 0.32033,1.17701 0.12306,1.37694 -1.1099,-0.15606 -1.76006,0.14763 -2.09375,0.76778 0.51653,0.53019 0.72332,1.19602 0,1.63847 -0.0192,1.16471 0.31737,1.31695 0,2.40625 0.18216,1.136 -0.54063,1.36705 -0.3125,2.54903 -4.5e-4,0.94245 0.0802,1.80383 1.1875,1.63847 0.69143,0.27283 1.79152,0.137 1.8125,1.08028 -0.24631,1.22845 1.33759,0.40978 1.67403,1.32597 0.71691,0.40149 0.64686,1.41817 1.01347,1.95528 -0.28481,1.23722 1.10937,0.79544 1.21875,1.63847 -0.0627,0.49461 1.18347,1.7469 0.90625,0.90625 0.60997,0.40579 0.48826,1.18757 1.1875,1.78125 0.1292,0.99217 0.46452,0.97468 0,1.8125 0.93018,0.0237 0.79762,1.11007 1.36153,1.5 1.08485,0.37957 0.54047,0.95474 -0.17403,1.1875 -0.47769,0.27874 0.22623,1.53309 0.625,1.08028 0.48812,0.28803 1.45989,-0.6627 2.26778,0.13847 0.75713,0.61904 0.265,1.58765 1.45226,1.98859 0.79356,0.27616 1.55354,-1.82691 1.96746,-0.80109 0.73333,0.66447 1.87638,-0.15241 0.73222,-0.59375 -1.08798,-0.51889 -0.26741,-0.46293 -0.13847,-1.5 -0.32298,-1.24417 -0.0315,-1.17157 -0.28125,-2.26778 -0.19475,-1.23033 0.58146,-1.1547 0.82659,-2.17843 0.0285,-0.9716 0.99751,-0.87315 0.67341,-2.14754 -0.61036,-0.19683 -0.41478,-2.07674 0.17403,-2.09375 0.46214,-0.6748 0.63551,-1.45526 1.5,-1.5 0.0627,0.86883 1.58253,0.28061 1.91972,0.875 0.90576,1.03761 1.13587,-0.86679 1.78125,0 -0.14417,1.16526 0.24686,1.75159 1.08028,1.21875 0.84337,-0.10903 0.90801,-0.9968 1.63847,-1.21875 0.59544,-0.35841 1.03287,-0.87482 1.67403,-1.1875 0.50205,0.82183 0.99774,-0.56546 1.32597,-0.90625 0.25913,0.50733 1.04803,-0.34374 1.5,-0.28125 0.25004,-0.71422 0.91624,-1.01228 1.67403,-1.21875 0.36776,-0.28244 0.97025,-1.3808 1.60722,-1.01347 0.59536,0.16012 1.30969,-0.47906 1.5,-1.08028 0.63827,-0.1844 1.02037,-1.1546 1.5,-1.5 0.30261,-1.12818 0.90371,-0.032 1.5,0.17403 0.31101,0.51722 0.86238,1.53489 1.39278,0.41972 0.72169,0.2203 1.41264,0.47134 1.91972,0.90625 0.58398,0.47345 1.5919,1.0147 1.8125,0 -0.98497,-0.57068 0.3648,-1.2973 0.76778,-1.5 0.41351,-0.52848 1.40977,-0.47421 1.32597,-1.5 0.57131,-0.38254 0.89126,-1.01642 1.5,-1.36153 0.16758,-0.77441 0.54682,-1.33716 1.1875,-1.63847 -0.3129,-1.27716 0.90053,-1.02799 1.21875,-1.67403 0.798,-0.43052 0.5496,-1.05037 0.0351,-1.88459 -1.23465,-0.07 0.1419,-1.31366 -0.66013,-1.70916 -0.82867,-0.28784 0.68413,-1.53458 -0.28125,-1.91972 -0.50707,-0.45719 -2.01863,0.0901 -2.09375,-0.79903 0.72026,-0.4783 -0.91154,-0.89929 -0.48653,-1.32597 0.17794,-1.11994 -0.77573,-1.10825 -1.32597,-1.5 0.66225,-0.97968 -0.3726,-1.2575 -0.90625,-0.28125 0.34803,1.62952 -0.62657,0.83952 -1.1875,1.08028 -0.94496,-0.11034 -0.7576,1.51308 -1.5,0.70097 -0.34314,0.62112 -0.98372,0.9448 -1.5,1.39278 -0.48358,0.60877 -0.64253,1.39256 -1.21875,0.41972 -1.00946,0.0556 -2.01633,0.10865 -1.78125,-1.08028 -0.117,-1.00936 0.72613,-1.5741 -0.59375,-1.60722 -0.2132,0.4869 -0.82642,1.52237 -1.08028,2.09375 -0.42225,0.51974 -0.28569,1.59829 -1.32597,1.5 -1.25677,0.28388 0.36837,-1.29666 -0.59375,-1.67403 -0.95971,-0.0825 -0.52875,-1.30358 -0.90625,-1.5 -0.0959,-0.85655 -0.57604,-1.32877 -1.21875,-1.63847 -0.0611,-0.7999 1.18549,-1.19759 0.45097,-2.09375 -0.39317,-0.55924 -0.48025,-1.42456 -1.04472,-1.8125 -0.0648,-0.88905 -0.22256,-1.68512 -0.76778,-2.09375 -0.32714,0.61485 -1.69717,0.18681 -2.51347,0.3125 -0.78061,-0.37576 -1.83418,-0.18606 -2.35784,-1.16496 -1.22858,-0.57545 0.21455,-1.21568 -0.0484,-2.14754 1.28727,-1.01687 -0.21606,-1.17922 -1.06073,-1.42099 -1.14609,-0.17983 -1.37186,-0.74063 -2.23405,-1.37614 -1.03575,-0.11882 -1.14326,-0.9497 -1.67172,-1.47142 -1.07654,-0.2869 -1.41299,-1.4685 -2.36867,-1.54831 -0.0618,-0.47812 0.41575,-1.38636 1.5092,-1.08939 1.11241,0.17042 1.72947,-0.15452 2.23222,-0.59375 1.11254,-0.2974 0.066,-0.92478 -0.3125,-1.36153 -0.62293,-0.27168 -0.34406,-1.96084 -1.1875,-1.91972 0.0568,-1.02102 -0.88044,-1.04808 -1.39278,-1.5 -0.0914,-1.08958 -0.87858,0.0706 -1.32597,-0.90625 -1.05817,0.10433 -0.64809,-1.2596 -1.1875,-1.67403 -0.29347,-0.92332 0.008,-1.25848 -0.13847,-1.91972 0.16781,-0.021 0.36315,-1.76596 -0.17403,-1.5 z m -8.6875,27.28125 c -0.62241,-0.1764 -0.28954,1.28018 0,0 z m -7.5,-4.1875 c -0.48682,0.46702 -1.11504,0.79264 -1.5,1.36153 -0.17515,0.76683 -0.64257,1.2414 -0.59375,2.23222 -0.81862,0.19194 -0.60947,1.22631 -1.0356,1.92892 -0.87665,0.30031 -0.76688,1.15302 -1.0894,1.83886 -0.28682,0.64475 -0.67091,1.19223 -0.875,1.91972 0.0118,0.34544 0.317,1.18914 0.28125,2.125 0.61464,0.57007 1.46085,0.021 1.5,-0.79903 0.32601,-0.61598 1.3079,-0.57608 1.5,-1.32597 1.03713,-0.0105 2.13642,-0.15503 1.5,0.90625 -0.23136,1.52547 0.50251,1.21167 0.76778,0.3125 0.49332,0.0444 0.84632,-0.97055 1.32597,-1.39278 0.0658,-0.87623 0.46133,-1.42265 0.90625,-1.91972 0.10857,-1.06241 -0.17838,-1.7293 -0.45528,-2.40625 -0.52686,-0.71372 0.24798,-1.7026 0.17403,-2.54903 -0.22366,-0.72874 0.55637,-2.46118 -0.625,-2.23222 -1.06189,0.3361 -0.55023,5.4e-4 -1.78125,0 z m 4.78125,9 c -0.92534,0.97908 -0.33163,1.45848 0,0 z m -6.59375,0.90625 c -0.19635,1.46869 0.90771,-0.0292 0,0 z m -2.09375,3.59375 c -0.44921,0.5785 -1.15258,0.54238 -1.8125,1.1875 -0.50175,0.29875 -1.23209,0.87734 -1.5,1.5 -0.73775,0.42802 0.0112,1.67304 0.3125,1.98653 0.62074,0.32126 0.64966,1.23433 1.8125,1.01347 0.11759,-0.71648 0.76304,-1.38806 0.71017,-1.96439 0.19948,-0.12352 -0.18875,-1.00881 0.16483,-1.80339 1.02042,-0.11819 0.5161,-1.20642 0.90625,-1.5 0.14209,-0.5668 -0.18534,-0.39679 -0.59375,-0.41972 z m 12.3125,20.6875 c -0.792,0.32913 -0.38348,0.94471 -0.13847,1.8125 0.62206,-0.24289 0.89049,-1.3717 0.41972,-1.8125 l -0.17403,0 -0.10722,0 z m -68.561737,20.67473 c -0.01522,-1.43293 0.511238,-0.56356 0.3,-1.96983 -0.104117,-0.8393 -0.465473,-1.42135 -0.3,-2.53023 0.0021,-0.98916 -0.411074,-0.47966 -0.769826,-1.50001 -0.521777,-0.21342 -0.152242,-0.80364 -1.030224,-1.20003 -0.226344,-0.71786 -1.059259,-0.75781 -1.200025,-1.80001 -0.32399,-0.99163 -0.997883,-0.96939 -0.900025,-2.10004 -0.417275,-0.53934 -0.495654,-1.41758 -0.900012,-1.96983 -0.259727,-0.76261 -0.853995,-1.11311 -0.600013,-1.0302 -0.513622,-0.98625 -0.332917,-0.81851 -0.600025,-1.06983 0.04578,-0.89764 -0.17712,-2.06394 0.300013,-2.53022 0.0047,-0.50983 -0.112313,-1.10887 0.300012,-2.10003 0.877743,0.0598 0.987289,-1.44808 1.030211,-0.90001 0.318127,-0.36783 0.02155,-1.16096 0.469814,-0.90001 -0.223665,-1.03408 0.373569,-1.72813 0.300013,-2.70003 -0.170369,-1.07785 0.607542,-1.58091 0.600012,-2.40004 0.425713,-0.8899 0.757969,-1.20929 0.900025,-2.10002 -0.09862,-0.90467 1.360977,-1.87552 0.900025,-1.80003 0.562937,-0.20987 1.311247,-0.9302 2.10005,-1.20001 0.544749,-0.81102 1.441008,-0.39484 2.269864,-0.90001 0.729264,-0.25015 1.128024,-1.03693 1.030211,-1.96984 0.08076,-0.24661 0.02361,-0.56025 0.769827,-1.33021 0.489771,-0.40171 0.750957,-1.15478 1.800037,-1.20001 1.223376,-0.0659 1.049406,-0.22306 1.930249,0.30001 0.938764,0.82028 1.099836,-0.4285 0.3,-0.76982 -0.42578,0.13697 -0.536571,-0.78307 0,-1.03021 0.307529,-0.64909 0.866444,-1.0468 1.500037,-1.36983 0.609206,-0.29834 1.87128,-0.0469 2.700063,-0.13019 m 0,0 c 1.090049,-0.13342 1.259524,0.65373 1.969864,0.90001 0.360114,0.46332 1.491497,0.87034 1.930236,1.20001 0.664913,0.83011 1.514722,0.65839 1.969851,1.20003 0.4072,0.53621 1.102043,0.78478 1.630224,1.20001 0.680668,0.63609 1.329296,0.63629 1.200037,1.80003 0.55188,0.49045 1.241792,0.89429 1.500038,1.50001 0.854876,0.55238 0.905287,0.92153 1.740187,1.44017 0.598988,0.43712 0.980355,1.07475 1.259875,1.85988 0.59627,0.71934 0.263186,1.70408 0.900025,2.10002 0.51215,0.79864 -0.338587,1.20908 0.169814,2.10003 0.381453,0.4889 0.324555,1.9063 1.030211,2.10002 -0.05822,0.79014 0.526935,1.93981 0.469827,1.80003 0.195425,0.23578 -0.07512,1.14504 0.130198,1.50002 -0.291015,0.40635 -0.06438,-0.13229 0,1.06983 -0.06126,1.00467 0.353119,1.5337 0.600013,2.23021 -0.10384,-0.36746 -0.453989,0.26442 0,1.06982 0.366746,0.57667 0.323742,1.56308 0.3,2.53023 -0.152042,0.29378 -0.337239,0.38675 -0.469814,0.90001 -0.255647,0.68777 -0.554996,1.33183 -1.330224,1.50002 -0.731779,0.22484 -0.634205,1.27904 -1.500037,1.36983 -0.725018,0.43949 -0.147102,1.47656 -0.600013,1.93022 0.585363,0.74452 -1.18147,-0.75659 -0.600012,0 1.021424,0.45647 0.486883,0.99598 0.900012,0.76981 -0.06335,1.40603 -0.126116,-0.86669 -0.130186,-1.06983 0.262152,-0.5207 0.0048,1.54076 0.730211,1.50003 0.405253,0.33051 1.923308,0.43547 2.10005,0.4302 0.320303,0.24112 1.437859,0.18964 1.500025,0.46981 0.469983,0.26193 1.678675,0.78805 1.500038,0.76982 0.76867,0.38882 0.224226,0.60211 0.900025,1.33021 0.06345,0.89317 0.563694,1.34955 1.069839,1.80002 0.331291,0.37834 1.108258,1.27571 1.330223,1.80003 0.264889,1.14713 -1.142145,0.003 -1.500037,0.90001 -0.468138,0.48848 -0.773622,1.13962 -1.669852,1.20001 -0.66181,-0.0688 -1.846069,0.77268 -1.330223,0.90001 -0.441737,0.43841 -0.802834,0.14818 -1.200025,0.90002 0.289441,0.57209 -0.798127,0.85751 0,1.66982 0.114976,0.74898 0.829153,1.36342 1.369839,1.63021 0.870797,0.40007 1.118725,0.87953 1.630223,1.36984 0.604395,0.33902 0.949108,0.93773 1.80005,1.0302 0.916883,0.12187 1.079604,0.91026 0.600013,1.66982 0.15363,0.76827 -0.880588,0.24517 -1.200025,1.20003 -0.394854,0.39069 -0.213589,-0.0243 -0.300013,1.50001 -0.389818,0.56667 -0.2354,0.55104 -0.3,1.33022 0.175126,0.59106 0.138913,1.19737 0.600013,1.3302 -0.02131,0.28202 0.306786,1.7969 0.469814,2.26985 -0.09126,0.68426 1.025871,1.59286 0.430198,1.80001 -0.02753,0.0363 -0.167667,0.81363 -0.3,0.90001 0.155072,-0.31491 0.08987,1.80519 -0.600012,1.80003 -0.545472,0.76532 -0.814708,0.0558 -1.369852,0.90001 0.124997,-0.43335 -0.158722,0.81013 -0.430198,0.60001 0.366398,0.0851 -0.180076,0.37986 -0.3,0.7302 0.177725,-0.049 -0.616943,0.20276 -0.600013,0.6 -1.142974,-0.14407 -0.128442,0.53042 -0.900025,0.46983 0.465306,0.12376 -0.193933,-0.37434 -0.300012,-0.16981 -0.601975,-0.4509 -0.207639,-0.0926 -1.069827,-0.73021 -0.06336,0.22993 -0.356606,-0.16889 -0.130198,0.3 -0.314048,-0.42972 -0.864027,0.0468 -0.900025,-0.16981 -0.579736,-0.47012 -0.38807,-0.43041 -0.469814,-0.13019 -0.679191,-0.69246 0.07822,0.0367 -0.260385,0 -0.138408,-0.46285 -0.05971,-0.003 -0.469826,-0.1302 0.299104,-0.0807 -0.06069,0.31717 -0.600013,-0.16981 0.175303,0.76229 -0.218183,-0.24261 -0.300012,0.4302 0.02179,-0.40708 -0.256313,-0.14314 -0.600013,0 0.348109,0.24777 -0.673148,-0.50394 -0.3,-0.13019 -0.173202,-0.0243 -0.192906,0.31293 -0.469826,0 -0.749161,0.21127 0.064,0.67031 -0.430199,0.16981 -0.150829,0.0343 -0.702919,0.45436 -1.500037,1.03021 -0.523457,0.29445 -1.780831,0.65457 -1.500038,0.4302 -0.175205,-0.0167 0.365955,0.15749 -0.300012,-0.1302 -0.192571,0.4643 -0.196989,0.061 -0.3,0.30001 -0.719221,0.23604 -0.187505,-0.76689 -0.600013,0 -0.08076,-0.42619 0.358629,0.28622 0,-0.1302 -0.36602,-0.19524 -0.554144,0.33983 -1.500037,0.1302 -0.438377,0.28944 0.29228,-0.79812 -0.469827,0 -0.405729,-0.46285 -0.510456,0.40914 -0.430198,-0.60001 0.05796,0.73717 -0.521641,-0.12405 -0.3,0.3 0.05822,0.53087 -0.526933,-0.0413 -0.469827,0 -0.768326,-0.0458 -1.213271,0.17712 -0.730211,-0.3 -1.257601,0.67444 0.448858,-0.53236 -0.3,-0.16981 -0.275269,-0.0644 -1.185209,-0.23899 -0.900025,-0.13019 0.164353,0.2473 -0.545258,-0.74393 0,0.3 -0.260482,-0.28818 -0.143459,-0.27515 -0.900025,-0.90002 -0.431117,0.31263 -1.172773,-0.35556 -1.069826,0 0.04728,-0.34057 -0.4413,0.25358 -0.430211,0 -0.04089,0.52537 -0.395414,-0.76852 -0.600013,-0.13019 0.337349,-0.13402 0.181746,0.91382 0,-0.16981 -0.674959,-0.29932 -0.271011,-0.13093 -0.540159,0.24015 -0.0072,-0.54889 -0.213658,-0.76307 -0.05985,-0.84016 -0.768447,0.90421 0.09187,0.69549 -0.469814,-0.3 -0.406552,0.32575 -0.787262,-1.01456 -0.430211,-0.60001 -0.65714,-0.68052 -0.389946,-0.0644 -0.900013,-0.76982 -0.753077,-0.27531 -0.820186,-0.56863 -0.900025,-0.13019 -0.220284,-0.8303 -0.33647,-0.004 -0.600012,-0.46981 -0.401904,-0.24339 0.0995,-0.10894 -0.600013,-0.43021 -0.506144,0.0525 -0.513539,-0.0592 -0.900025,-0.76981 -0.316734,-0.62668 -0.992301,-0.89453 -1.500037,-1.33021 0.05319,-0.86723 -1.979585,-0.56375 -0.900025,-0.76982 -0.799335,-0.57181 -0.849494,-0.92599 -0.900013,-0.9 0.214663,-0.4246 -0.325804,-0.91354 -0.300012,-1.93023 -0.512836,-0.3124 -0.452934,-1.72578 -0.900025,-2.10003 0.65911,-0.73381 -0.270348,-1.21745 0,-1.66982 -0.152838,0.19729 0.707394,-1.19242 0,-1.63021 -0.41534,-0.44262 -0.549624,-0.11617 -0.769827,-0.90002 0.299865,0.19969 -1.203551,-0.47343 -0.730211,-0.46982 -0.124703,-0.40864 -1.395828,-0.46544 -0.600012,-0.6 -1.247078,-0.35504 -0.593896,-0.15488 -1.200025,-0.4302 -0.522549,0.4394 -0.178261,-0.57369 0.300012,-0.90001 0.452444,-1.24088 0.153504,-1.11809 0.05985,-1.44017 -0.05236,-0.48737 0.06599,-0.63058 0.240154,-0.82967 -0.17401,-0.92375 -0.693523,-1.52677 -0.3,-2.40002 0.0489,-0.85209 0.402828,-1.41107 0.900013,-2.23023 0.356368,-0.37939 0.985032,-1.37374 0.430198,-2.10003 l -0.130186,0 m 35.400843,4.20005 c 0.432325,0.57004 1.238603,0.58237 1.320102,1.62011 0.31487,0.91231 0.643221,1.18693 0.900025,2.10002 0.41596,0.5488 0.62243,1.84416 0.34973,1.97995 -0.19502,0.3592 0.007,0.74331 -1.369832,0.60001 -0.332066,-0.52505 -0.406939,-1.56484 -0.600012,-2.40004 -0.60421,-0.35241 -1.422199,-0.49104 -1.500038,-1.36982 0.407178,-1.01502 -0.930139,-1.71931 0.169814,-2.23021 0.893667,-0.51387 -0.0016,0.0879 0.730211,-0.30002 z m -6.00015,25.80034 c 0.958456,0.84403 -1.030668,1.30102 -0.600012,-0.16981 0.260219,-0.21319 0.724022,-0.93426 0.600012,0.16981 z" />
      <path
         style="fill:#c8ffc8;stroke:#000000;stroke-width:0.90000004000000000;stroke-linecap:round;stroke-linejoin:round;stroke-miterlimit:9.99670124000000020;stroke-opacity:1;stroke-dasharray:none;fill-opacity:1"
         d="m 150.87416,574.45473 c -0.11426,-0.008 -0.23998,0.0183 -0.375,0.0312 0.0642,0.20588 0.0118,0.25433 -0.0625,0.28125 -0.14581,0.0529 -0.41822,-0.0522 -0.3125,0.3125 -0.65132,0.97039 -1.32612,0.95044 -2.03125,1.1875 -0.52722,-0.63105 -0.75167,0.13644 -1.875,0 -1.05049,-0.0737 -2.14033,-0.17961 -1.71875,1.21875 -0.72116,0.20209 -0.86664,0.99135 -1.28125,1.5 -1.10438,0.0907 -1.28308,-0.0249 -2.3125,0.28125 -0.24706,-0.17759 -0.84949,-0.57079 -1.5,0.0625 -0.21312,0.51778 -1.03756,1.88022 -0.3125,2.65625 0.34146,1.0348 0.826,1.22614 0.375,1.5 0.61888,-0.34366 -0.6871,1.53641 -0.0625,1.1875 0.84861,0.16455 1.00995,0.81374 1.625,1.34375 0.97909,0.52359 1.18891,0.5652 0.46875,1.34375 -0.39552,0.43539 -1.06685,1.37318 -1.5625,2.125 -0.28601,0.69078 -1.223,0.73771 -1.4375,1.5 -0.52042,0.40284 -0.71269,1.11405 -0.96875,1.78125 -0.59579,0.34912 -1.05507,1.27691 -1.71875,1.5 0.75556,0.36749 -0.37929,1.51765 -0.90625,2.1875 -0.58876,0.73573 -0.0112,2.14479 -0.59375,2.625 0.77036,0.35593 -0.89985,0.71898 -0.6875,1.5 -0.53664,0.65629 -1.11971,1.11743 -2.3125,0.90625 0.59987,0.44976 -0.518,1.36951 -0.4375,2.21875 0.21227,0.41232 -0.29746,2.03252 0.71875,2.34375 -0.34355,1.23922 0.71173,1.53524 1.21875,2.03125 0.59057,0.69744 1.0592,-0.71885 2.15625,-0.59375 0.72736,-0.24942 1.0871,-0.87361 1.71875,-1.21875 -0.19111,0.0766 0.96588,0.33794 0.90625,0.6875 -0.34465,0.75926 -0.58137,1.25336 -0.90625,2.3125 0.18541,0.4265 -1.24694,0.96885 -0.28125,1.4375 -0.20171,-0.19635 0.19511,-0.2244 1.1875,0.0625 0.67919,0.24406 1.31629,0.54171 1.875,0.90625 0.36171,0.50639 1.51875,0.8295 1.4375,0.90625 0.82891,-0.22065 0.95634,-0.85049 1.78125,-1.5625 -0.10357,-1.30365 0.41589,-0.94219 0.6875,-2.03125 0.0677,0.0219 0.0987,0.0148 0.15625,0.0312 1.43309,0.4097 -0.15148,-0.78862 0.65625,-0.34375 0.73431,0.63642 -0.24016,-1.2153 0.3125,-0.96875 0.47704,-0.49975 0.9865,-0.97421 1.8125,-1.125 0.20035,-0.3226 1.04445,0.0506 1.1875,-0.96875 0.0226,-0.79471 1.32285,-1.26786 1.5,-0.25 -0.98323,-0.15044 -0.17844,1.84506 -1.125,1.5 0.40247,0.096 -0.5654,0.68294 -1.28125,1.21875 -0.80536,0.1396 -1.19746,1.02486 -1.5,1.5625 -0.24944,0.72735 -0.84235,1.08711 -1.1875,1.71875 0.10906,1.1272 -1.01387,1.5297 -0.90625,2.46875 -0.17811,0.2387 -0.40069,0.46374 -0.59375,0.6875 -0.25936,0.30061 -0.46746,0.62882 -0.59375,1.0625 -0.71748,0.43856 -0.88452,1.55403 -1.5,2.15625 -0.40659,0.90948 -1.03042,1.48771 -1.21875,2.625 -0.32295,0.54631 -0.44356,1.59499 -0.59375,2.46875 -0.46414,0.58684 -0.79917,1.53959 -1.5,1.75 -0.6667,0.36918 -0.99058,0.76276 -1.5,1.5625 0.15886,1.13564 -0.78469,1.17602 -0.59375,2.34375 -0.06,-0.1779 -1.0545,0.67541 -0.96875,1.5 -0.60571,0.51051 -0.41574,1.46947 -1.125,2.15625 -0.2216,0.72778 -0.796,1.32044 -0.90625,2.34375 -0.18794,1.10681 -1.0652,1.44331 -1.21875,2.46875 -0.37024,0.68074 -1.11058,1.1657 -0.875,2.3125 -0.77355,0.35911 -0.0605,1.64802 0.0625,2.09375 0.8708,0.22691 1.25696,1.44769 1.4375,2.40625 -0.54964,0.86595 0.26606,1.2877 0,2.46875 -0.29751,0.67984 -0.3785,1.58218 -0.3125,2.625 0.27446,0.80572 0.19286,0.54194 0.90625,1.59375 0.5064,0.3617 0.8295,1.4875 0.90625,1.40625 0.19696,1.1202 -0.52821,1.32979 -0.3125,2.46875 0.18403,0.79276 0.6377,1.323 1.5,1.4375 0.26535,0.92594 1.78866,0.50162 2.6875,0.59375 0.79084,-0.46614 1.29079,0.38747 2.125,0.53125 0.49716,0.11424 0.65219,-0.5515 1.78125,-0.53125 0.68307,-0.24018 1.21702,-0.641 2.1875,-0.59375 1.12414,0.25606 1.91246,-0.4045 1.40625,-0.90625 -0.82317,-0.494 0.61366,-1.38397 -0.28125,-1.84375 -0.18403,-0.9905 -0.6377,-1.20525 -1.5,-0.84375 -0.24665,0.66109 -1.74894,0.16135 -1.5,-0.65625 -0.91505,-0.82488 -0.0683,-1.53825 -0.59375,-2.03125 -1.06779,0.14454 -1.37976,-0.47824 -1.8125,-0.96875 -0.14348,-0.8333 -0.48269,-1.47803 -0.90625,-2.03125 -0.47281,-0.82015 -0.74434,-1.45516 -0.96875,-2.40625 -0.44976,-0.66534 -0.26186,-1.62974 -0.8125,-2.46875 -0.0891,-0.88766 -0.69212,-1.29989 -0.625,-2.34375 -0.71016,-0.56983 0.15196,-1.51054 0,-2.46875 9.3e-4,-1.08595 0.73891,-1.46099 0.3125,-2.625 0.86531,-0.34232 1.27888,-0.28511 1.1875,0.96875 0.0446,0.93219 0.55718,1.40354 1.21875,1.71875 0.74378,0.55948 0.0509,1.21761 0,1.59375 -0.5497,1.07475 0.1705,1.73549 0.28125,2.625 0.47467,0.54345 1.38084,1.16278 1.21875,2.15625 0.30404,0.67274 0.81275,1.148 0.90625,2.03125 0.34733,0.48674 1.06102,1.09708 1.25,1.8125 -0.0851,0.1107 0.62744,1.324 -0.0625,1.78125 -0.89475,1.05055 0.90588,-0.0243 1.1875,0.53125 -0.20342,0.38226 1.4139,0.0733 1.5,0.59375 0.22269,0.0582 0.76735,0.37879 0.625,1.0625 0.19952,0.77726 1.38801,0.54145 1.78125,1.125 0.54296,-0.0351 0.90222,0.0708 1.0625,0.15625 0.008,0.004 0.0244,0.0273 0.0312,0.0312 0.52429,0.34937 0.99312,0.75822 1.90625,0.71875 0.6062,0.0825 1.33172,1.03206 1.5,1.25 -0.25842,0.0913 0.958,1.00271 0.90625,1.75 0.2745,0.92774 0.386,1.92811 0.3125,3 -0.275,0.79797 -0.38792,1.38172 0.28125,1.875 0.44377,0.43506 1.52128,-0.53411 1.8125,0.53125 -0.573,0.64244 -0.52778,0.80646 0.375,1.1875 0.48406,0.49272 1.64481,0.3159 2.03125,0.90625 1.19351,-0.27026 1.02235,0.80437 1.84375,0.90625 0.30181,-0.21517 0.31586,0.11979 0.5,0.15625 -0.088,0.0104 -0.16473,0.0331 -0.25,0.0625 -0.58629,-0.3905 -1.34425,-0.6165 -2.40625,-0.53125 -0.90541,-0.0145 -1.16709,0.82646 0,0.96875 0.83244,1.02236 -0.79487,-0.0134 -1.1875,-0.375 -0.27757,-1.49395 -0.66897,0.96454 -0.90625,-0.0625 -0.0644,0.1622 -0.91152,0.66579 0,1.28125 1.17535,0.18745 1.16418,0.79456 2.09375,1.25 -0.98034,0.77728 -0.004,0.54143 0.59375,1.125 1.15371,0.23045 1.45706,-0.36963 2.46875,-0.28125 0.92784,-0.0489 1.4583,-0.5024 2.625,-0.3125 0.2958,0.62745 1.55129,0.3067 1.875,0.90625 0.93621,0.0406 1.80571,0.15499 2.34375,0.59375 0.92006,0.003 0.89769,0.92906 2.15625,0.59375 0.79815,0.17864 2.31899,-0.35828 2.625,0.3125 0.91935,0.004 1.95725,-0.0993 2.46875,0.3125 0.93623,0.0406 1.80571,0.155 2.34375,0.59375 l 3.59375,0 c 0.99813,-0.0749 1.8138,0.0442 2.1875,0.59375 1.38446,-0.35298 -0.52367,-1.28387 -0.0937,-1.1875 -0.32128,-0.6894 -0.13501,-0.68628 -0.59375,-1.59375 0.58898,-0.73549 0.87568,-0.40716 1.21875,-1.40625 0.85321,0.076 0.7533,-1.77775 -0.0937,-1.8125 -1.22037,-0.28875 -0.0947,-0.81107 -0.21875,-0.3125 1.60989,0.1461 0.002,-0.24625 0,-0.96875 -0.23244,-1.30919 1.53044,-0.61153 1.8125,-1.40625 1.08246,-0.43771 2.26976,-1.2414 3.28125,-1.8125 0.65659,-0.76892 2.26603,-1.98725 1.5,-2.6875 -0.12526,0.53972 -0.4763,-1.14254 -0.90625,-1.28125 -0.007,-0.37581 -0.43418,-0.76945 -0.59375,-1.71875 -0.51586,-0.49481 -0.17295,-0.64834 -0.375,-1.8125 -0.5686,-0.58075 -2.29999,0.3601 -3.21875,0.21875 0.0499,0.0553 -0.54563,-0.96518 -0.59375,-1.71875 -0.82378,-0.0918 -0.838,-1.24975 -0.90625,-1.28125 0.41301,-0.76154 0.63091,-1.21205 0.3125,-2.03125 -1.33786,0.11469 -1.06412,-0.44766 -0.96875,-1.1875 0.0881,-0.33774 -0.32424,-0.87785 -0.53125,-1.5 0.71514,-0.2003 0.80845,-1.24807 0.59375,-1.5625 -0.17191,-0.50699 -1.6324,-1.46422 -0.90625,-1.75 0.58686,-0.75018 1.76668,-0.24105 2.09375,-0.96875 0.20526,-0.82994 1.29466,-0.78675 0.3125,-1.40625 0.89215,-0.87162 -0.51773,-0.0759 -0.96875,-0.625 -0.48571,-1.00654 0.48639,-0.72871 -0.84375,-0.28125 -0.23556,-0.68769 -1.11865,-0.73934 -1.5,-1.28125 -0.40152,-0.56303 -0.11313,1.36238 0,1.28125 1.51141,-0.28376 -0.65661,1.58142 -0.375,0.28125 -0.88201,-0.44198 -0.87801,-1.24675 -1.40625,-1.78125 -0.4328,-0.65156 -1.20785,-0.98779 -1.8125,-1.28125 -0.54245,-0.42264 -2.0495,0.31875 -3,0.375 -1.04184,0.11859 -1.27984,-0.57816 -1.875,-0.90625 -1.20366,-0.22688 -1.48021,0.48049 -2.625,0.3125 -0.27695,-0.64631 -0.94712,-0.91082 -0.90625,-1.875 -0.14981,-0.82696 -0.51276,-1.4167 -1.1875,-1.71875 -0.0791,-1.16646 1.13887,-1.57264 1.25,-2.71875 0.7176,-0.47531 0.79798,-1.47042 1.15625,-2.09375 -0.23362,-0.62494 -0.6782,-1.57412 -1.28125,-1.8125 -1.08869,-0.14961 -2.18351,-0.21775 -3.21875,-0.59375 -0.96135,0.0381 -1.50761,-0.35037 -1.875,-0.90625 -0.87352,-0.45045 -0.42,-2.01164 -0.53125,-3 -0.27756,-0.64569 -0.669,-1.15775 -0.90625,-1.84375 -0.71155,-0.60246 0.34304,-1.94444 -0.3125,-2.34375 -0.212,-0.52087 -1.04505,-1.67665 -0.28125,-2.46875 0.29154,-1.26833 -0.64869,-1.31202 -0.90625,-2.03125 -0.82856,-0.87379 -1.41553,-0.82894 -1.625,-1.9375 -0.61995,-0.7668 -1.26394,-2.00586 -1.6875,-2.5625 0.19306,-1.11631 -0.3977,-1.42905 -0.59375,-2.15625 -0.10784,-1.23528 0.0197,-1.84336 0.8125,-2.65625 0.69825,-0.83189 0.76712,-1.4854 0.6875,-2.6875 -0.62166,-0.46316 -0.34503,-2.25636 -0.71875,-3.125 -0.11301,-1.03771 -0.9763,-1.58274 -0.78125,-2.875 -0.28356,-0.82839 -0.63535,-2.58888 0,-3 0.53857,-1.01835 0.22562,-2.38833 0.3125,-3.59375 0.25366,-0.59944 0.7616,-1.62701 1.78125,-1.125 0.44282,1.11704 0.86158,-0.1982 1.5,-0.375 0.40118,-0.5157 0.65184,0.65196 1.59375,0 -0.31909,-0.0543 0.64249,-1.49875 -0.375,-1.5 0.0793,-0.24076 -0.97529,-0.70087 -1.8125,-0.6875 -0.45215,-0.80075 -0.12966,-0.74203 -0.28125,-2.03125 0.31164,-0.63286 0.68354,-0.51195 1.5,-0.96875 -0.74824,-0.42393 -0.80113,-1.87366 -0.90625,-2.03125 0.006,-1.3776 1.10798,0.0518 0.90625,-1.25 0.46625,-1.34016 1.10843,0.76565 1.5,0.0625 0.66933,-0.64005 -0.34127,-1.37263 0.28125,-1.28125 -0.86045,-0.41791 -0.0944,-0.75345 -1.5,-1.125 -0.91764,0.006 -2.01034,-0.1836 -2.15625,0.59375 -1.21607,0.26669 -1.88141,-0.20383 -2.34375,-0.875 -0.2628,0.75016 -0.93015,-1.52375 -1.9375,-0.78125 0.46191,0.5729 -0.16923,2.34905 -0.46875,1.65625 0.37973,-0.9027 0.31315,-1.30695 -0.65625,-1.5 -0.52033,-0.33435 -0.85645,-0.85136 -1.65625,-0.90625 z m -6.6875,75.53125 c -0.10963,-0.0286 -0.17984,0.005 0,0.0937 0.005,-0.0343 0.005,-0.0649 0,-0.0937 z m 15.3125,14.5 c 0.84535,0.40597 0.29098,0.098 -0.3125,0.15625 0.0719,8.2e-4 0.16754,-0.0348 0.3125,-0.15625 z"
         id="path6610" />
    </g>
  </g>
</svg>
